<svg viewBox="0 0 330 200" xmlns="http://www.w3.org/2000/svg"><g><g><g><g><g><line x1="61.91500186920166" y1="177.5999994277954" x2="56.91500186920166" y2="177.5999994277954" style="visibility: inherit;" fill="rgb(0, 0, 0)" stroke="rgb(204, 204, 204)" stroke-width="1px"></line><line x1="61.91500186920166" y1="155.39999949932098" x2="56.91500186920166" y2="155.39999949932098" style="visibility: inherit;" fill="rgb(0, 0, 0)" stroke="rgb(204, 204, 204)" stroke-width="1px"></line><line x1="61.91500186920166" y1="133.19999957084656" x2="56.91500186920166" y2="133.19999957084656" style="visibility: inherit;" fill="rgb(0, 0, 0)" stroke="rgb(204, 204, 204)" stroke-width="1px"></line><line x1="61.91500186920166" y1="110.99999964237212" x2="56.91500186920166" y2="110.99999964237212" style="visibility: inherit;" fill="rgb(0, 0, 0)" stroke="rgb(204, 204, 204)" stroke-width="1px"></line><line x1="61.91500186920166" y1="88.79999971389769" x2="56.91500186920166" y2="88.79999971389769" style="visibility: inherit;" fill="rgb(0, 0, 0)" stroke="rgb(204, 204, 204)" stroke-width="1px"></line><line x1="61.91500186920166" y1="66.59999978542326" x2="56.91500186920166" y2="66.59999978542326" style="visibility: inherit;" fill="rgb(0, 0, 0)" stroke="rgb(204, 204, 204)" stroke-width="1px"></line><line x1="61.91500186920166" y1="44.39999985694883" x2="56.91500186920166" y2="44.39999985694883" style="visibility: inherit;" fill="rgb(0, 0, 0)" stroke="rgb(204, 204, 204)" stroke-width="1px"></line><line x1="61.91500186920166" y1="22.199999928474387" x2="56.91500186920166" y2="22.199999928474387" style="visibility: inherit;" fill="rgb(0, 0, 0)" stroke="rgb(204, 204, 204)" stroke-width="1px"></line></g><g transform="translate(51.91500186920166, 0)"><text style="text-anchor: end; visibility: hidden; font-family: Roboto, sans-serif; font-size: 12px; font-weight: 200;" x="0" y="177.5999994277954" dx="0em" dy="0.3em" fill="rgb(50, 49, 63)" stroke="none" stroke-width="1px">-1e-5</text><text style="text-anchor: end; visibility: inherit; font-family: Roboto, sans-serif; font-size: 12px; font-weight: 200;" x="0" y="155.39999949932098" dx="0em" dy="0.3em" fill="rgb(50, 49, 63)" stroke="none" stroke-width="1px">0</text><text style="text-anchor: end; visibility: hidden; font-family: Roboto, sans-serif; font-size: 12px; font-weight: 200;" x="0" y="133.19999957084656" dx="0em" dy="0.3em" fill="rgb(50, 49, 63)" stroke="none" stroke-width="1px">1e-5</text><text style="text-anchor: end; visibility: inherit; font-family: Roboto, sans-serif; font-size: 12px; font-weight: 200;" x="0" y="110.99999964237212" dx="0em" dy="0.3em" fill="rgb(50, 49, 63)" stroke="none" stroke-width="1px">2e-5</text><text style="text-anchor: end; visibility: hidden; font-family: Roboto, sans-serif; font-size: 12px; font-weight: 200;" x="0" y="88.79999971389769" dx="0em" dy="0.3em" fill="rgb(50, 49, 63)" stroke="none" stroke-width="1px">3e-5</text><text style="text-anchor: end; visibility: inherit; font-family: Roboto, sans-serif; font-size: 12px; font-weight: 200;" x="0" y="66.59999978542326" dx="0em" dy="0.3em" fill="rgb(50, 49, 63)" stroke="none" stroke-width="1px">4e-5</text><text style="text-anchor: end; visibility: hidden; font-family: Roboto, sans-serif; font-size: 12px; font-weight: 200;" x="0" y="44.39999985694883" dx="0em" dy="0.3em" fill="rgb(50, 49, 63)" stroke="none" stroke-width="1px">5e-5</text><text style="text-anchor: end; visibility: inherit; font-family: Roboto, sans-serif; font-size: 12px; font-weight: 200;" x="0" y="22.199999928474387" dx="0em" dy="0.3em" fill="rgb(50, 49, 63)" stroke="none" stroke-width="1px">6e-5</text></g><line x1="61.91500186920166" y1="0" x2="61.91500186920166" y2="177.5999994277954" fill="rgb(0, 0, 0)" stroke="rgb(204, 204, 204)" stroke-width="1px"></line></g></g><g transform="translate(61, 0)" clip-path="url(#clip_0)"><clipPath id="clip_0"><rect width="268" height="177"></rect></clipPath><g><g><g><line x1="0" y1="0" x2="0" y2="177.5999994277954" fill="rgb(0, 0, 0)" stroke="rgb(60, 60, 60)" stroke-width="1px" opacity="0.25"></line><line x1="22.34041651089986" y1="0" x2="22.34041651089986" y2="177.5999994277954" fill="rgb(0, 0, 0)" stroke="rgb(60, 60, 60)" stroke-width="1px" opacity="0.25"></line><line x1="44.68083302179972" y1="0" x2="44.68083302179972" y2="177.5999994277954" fill="rgb(0, 0, 0)" stroke="rgb(60, 60, 60)" stroke-width="1px" opacity="0.25"></line><line x1="67.02124953269958" y1="0" x2="67.02124953269958" y2="177.5999994277954" fill="rgb(0, 0, 0)" stroke="rgb(60, 60, 60)" stroke-width="1px" opacity="0.25"></line><line x1="89.36166604359944" y1="0" x2="89.36166604359944" y2="177.5999994277954" fill="rgb(0, 0, 0)" stroke="rgb(60, 60, 60)" stroke-width="1px" opacity="0.25"></line><line x1="111.70208255449931" y1="0" x2="111.70208255449931" y2="177.5999994277954" fill="rgb(0, 0, 0)" stroke="rgb(60, 60, 60)" stroke-width="1px" opacity="0.25"></line><line x1="134.04249906539917" y1="0" x2="134.04249906539917" y2="177.5999994277954" fill="rgb(0, 0, 0)" stroke="rgb(60, 60, 60)" stroke-width="1px" opacity="0.25"></line><line x1="156.38291557629904" y1="0" x2="156.38291557629904" y2="177.5999994277954" fill="rgb(0, 0, 0)" stroke="rgb(60, 60, 60)" stroke-width="1px" opacity="0.25"></line><line x1="178.72333208719888" y1="0" x2="178.72333208719888" y2="177.5999994277954" fill="rgb(0, 0, 0)" stroke="rgb(60, 60, 60)" stroke-width="1px" opacity="0.25"></line><line x1="201.06374859809875" y1="0" x2="201.06374859809875" y2="177.5999994277954" fill="rgb(0, 0, 0)" stroke="rgb(60, 60, 60)" stroke-width="1px" opacity="0.25"></line><line x1="223.40416510899863" y1="0" x2="223.40416510899863" y2="177.5999994277954" fill="rgb(0, 0, 0)" stroke="rgb(60, 60, 60)" stroke-width="1px" opacity="0.25"></line><line x1="245.74458161989847" y1="0" x2="245.74458161989847" y2="177.5999994277954" fill="rgb(0, 0, 0)" stroke="rgb(60, 60, 60)" stroke-width="1px" opacity="0.25"></line><line x1="268.08499813079834" y1="0" x2="268.08499813079834" y2="177.5999994277954" fill="rgb(0, 0, 0)" stroke="rgb(60, 60, 60)" stroke-width="1px" opacity="0.25"></line></g><g><line x1="0" y1="177.5999994277954" x2="268.08499813079834" y2="177.5999994277954" fill="rgb(0, 0, 0)" stroke="rgb(60, 60, 60)" stroke-width="1px" opacity="0.25"></line><line x1="0" y1="155.39999949932098" x2="268.08499813079834" y2="155.39999949932098" fill="rgb(0, 0, 0)" stroke="rgb(60, 60, 60)" stroke-width="1px" opacity="0.25"></line><line x1="0" y1="133.19999957084656" x2="268.08499813079834" y2="133.19999957084656" fill="rgb(0, 0, 0)" stroke="rgb(60, 60, 60)" stroke-width="1px" opacity="0.25"></line><line x1="0" y1="110.99999964237212" x2="268.08499813079834" y2="110.99999964237212" fill="rgb(0, 0, 0)" stroke="rgb(60, 60, 60)" stroke-width="1px" opacity="0.25"></line><line x1="0" y1="88.79999971389769" x2="268.08499813079834" y2="88.79999971389769" fill="rgb(0, 0, 0)" stroke="rgb(60, 60, 60)" stroke-width="1px" opacity="0.25"></line><line x1="0" y1="66.59999978542326" x2="268.08499813079834" y2="66.59999978542326" fill="rgb(0, 0, 0)" stroke="rgb(60, 60, 60)" stroke-width="1px" opacity="0.25"></line><line x1="0" y1="44.39999985694883" x2="268.08499813079834" y2="44.39999985694883" fill="rgb(0, 0, 0)" stroke="rgb(60, 60, 60)" stroke-width="1px" opacity="0.25"></line><line x1="0" y1="22.199999928474387" x2="268.08499813079834" y2="22.199999928474387" fill="rgb(0, 0, 0)" stroke="rgb(60, 60, 60)" stroke-width="1px" opacity="0.25"></line></g></g></g><g><g><line x1="0" y1="155.39999949932098" x2="268.08499813079834" y2="155.39999949932098" fill="rgb(0, 0, 0)" stroke="rgb(153, 153, 153)" stroke-width="1.5px"></line></g></g><g><g><line x1="22.34041651089986" y1="0" x2="22.34041651089986" y2="177.5999994277954" fill="rgb(0, 0, 0)" stroke="rgb(153, 153, 153)" stroke-width="1.5px"></line></g></g><g><g><g><g><g><path style="fill: none;" stroke="rgb(255, 112, 67)" stroke-width="2px" d="M22.34041651089986,155.32229950102942L24.574458161989845,145.61465579490624L26.808499813079834,134.71832111930297L29.042541464169823,122.77314141843553L31.276583115259807,109.94361197368929L33.51062476634979,96.39867484103166L35.74466641743978,82.29598911663169L37.97870806852976,67.77232654566096L40.21274971961975,52.93970098353753L42.44679137070973,37.88568738541523L44.68083302179972,24.195301646334723L46.91487467288971,16.328292749085676L49.14891632397969,11.962909047213065L51.38295797506969,9.719391042635019L53.61699962615967,8.77437797393728L55.85104127724966,8.635167209766088L58.085082928339645,9.006329429377292L60.31912457942963,9.710364304752582L62.553166230519615,10.640369896929746L64.7872078816096,11.731729110976865L67.02124953269958,12.94513438529014L69.25529118378958,14.256471816260566L71.48933283487956,15.650677828830519L73.72337448596954,17.11813186712118L75.95741613705952,18.65242122693203L78.19145778814952,20.249061359378306L80.4254994392395,21.90469247294201L82.6595410903295,23.616610367262656L84.89358274141946,25.382484893914192L87.12762439250946,27.200184543843417L89.36166604359944,29.06768733367012L91.59570769468944,30.983007942033215L93.82974934577942,32.944176597193184L96.0637909968694,34.949203790899034L98.29783264795938,36.996081717220505L100.53187429904938,39.0827754422814L102.76591595013937,41.207211143804685L104.99995760122935,43.367288437214555L107.23399925231934,45.56086838766304L109.46804090340932,47.7857857000977L111.70208255449931,50.039843111015635L113.9361242055893,52.320817714976904L116.17016585667929,54.626455068866136L118.40420750776926,56.954481807031804L120.63824915885925,59.30259705771735L122.87229080994923,61.66848344552895L125.10633246103923,64.04981046238109L127.34037411212921,66.44422356795711L129.5744157632192,68.84936349418304L131.80845741430917,71.26285198370815L134.04249906539917,73.68231230771866L136.27654071648914,76.10535250189831L138.51058236757916,78.52958438273092L140.74462401866913,80.95261234360528L142.97866566975912,83.37204601562895L145.2127073208491,85.7855014030662L147.4467489719391,88.19059348828755L149.68079062302908,90.58494794736552L151.91483227411905,92.96620333364415L154.14887392520905,95.33201077261822L156.38291557629904,97.68003377886072L158.616957227389,100.00795460722965L160.850998878479,102.31347644832948L163.08504052956897,104.59432474578824L165.319082180659,106.84824960188595L167.55312383174896,109.07302399040702L169.78716548283893,111.26645399118928L172.02120713392895,113.42637362401572L174.25524878501892,115.55065305578734L176.48929043610892,117.63719544851399L178.72333208719888,119.6839407215282L180.95737373828888,121.6888694240756L183.19141538937888,123.65000344360693L185.42545704046884,125.56540643075319L187.65949869155884,127.43318890009827L189.89354034264883,129.25150725248636L192.1275819937388,131.0185672265628L194.3616236448288,132.732625162067L196.59566529591876,134.3919887578086L198.8297069470088,135.99502075697814L201.06374859809875,137.54013913925513L203.29779024918872,139.02581925515142L205.53183190027875,140.45059470280117L207.7658735513687,141.81305946929788L209.9999152024587,143.1118692154962L212.23395685354868,144.3457416430776L214.46799850463867,145.5134595414992L216.70204015572867,146.61387019326935L218.93608180681863,147.64588784382215L221.17012345790863,148.6084939719957L223.40416510899863,149.50073846185776L225.6382067600886,150.32174101247875L227.8722484111786,151.07069127711804L230.10629006226856,151.74685005722884L232.34033171335858,152.3495501198151L234.57437336444855,152.87819673832243L236.80841501553851,153.33226811812668L239.04245666662854,153.71131620707357L241.2764983177185,154.01496687894078L243.5105399688085,154.2429204978078L245.74458161989847,154.3949521052468L247.97862327098846,154.48617106971025L250.21266492207846,154.54090244838827L252.44670657316843,154.57374127559513L254.68074822425842,154.5934445719192" fill="none"></path></g></g></g></g><g opacity="0.2"><g><g><g><path style="fill: none;" stroke="rgb(255, 112, 67)" stroke-width="2px" d="M22.34041651089986,155.32229950102942L24.574458161989845,139.79006957123235L26.808499813079834,124.25783983072387L29.042541464169823,108.72561009021537L31.276583115259807,93.19337833062865L33.51062476634979,77.6611506091984L35.74466641743978,62.12892288776814L37.97870806852976,46.59668709002496L40.21274971961975,31.06445936859468L42.44679137070973,15.532231647164425L44.68083302179972,3.783893828755013L46.91487467288971,4.570591318223815L49.14891632397969,5.429087229602292L51.38295797506969,6.358509321094466L53.61699962615967,7.357969198278508L55.85104127724966,8.426449245725776L58.085082928339645,9.562915695381779L60.31912457942963,10.766237863436915L62.553166230519615,12.035236608204027L64.7872078816096,13.368668177492557L67.02124953269958,14.76517575073098L69.25529118378958,16.22343481259948L71.48933283487956,17.741959321519722L73.72337448596954,19.31929554116508L75.95741613705952,20.953844361576255L78.19145778814952,22.644014749106883L80.4254994392395,24.38813490698134L82.6595410903295,26.184484580546446L84.89358274141946,28.031295057271468L87.12762439250946,29.926733014122266L89.36166604359944,31.868940899125924L91.59570769468944,33.8559884734932L93.82974934577942,35.88592934580898L96.0637909968694,37.95674443784185L98.29783264795938,40.066398518734516L100.53187429904938,42.21281597606507L102.76591595013937,44.39386466322115L104.99995760122935,46.60740435727739L107.23399925231934,48.851238301118016L109.46804090340932,51.123161661314306L111.70208255449931,53.42092922287291L113.9361242055893,55.74227961817462L116.17016585667929,58.08491109803561L118.40420750776926,60.44652191327206L120.63824915885925,62.824769933135485L122.87229080994923,65.21731302687745L125.10633246103923,67.62180098743654L127.34037411212921,70.03584322618678L129.5744157632192,72.45707338344091L131.80845741430917,74.88308471794706L134.04249906539917,77.31150279370507L136.27654071648914,79.73991279315017L138.51058236757916,82.16593220396925L140.74462401866913,84.58715428491045L142.97866566975912,87.0011965236607L145.2127073208491,89.40568448421979L147.4467489719391,91.79823161611822L149.68079062302908,94.17647963598165L151.91483227411905,96.53808641306162L154.14887392520905,98.88072193107908L156.38291557629904,101.20206828822432L158.616957227389,103.49983584978293L160.850998878479,105.77175920997922L163.08504052956897,108.01559719197631L165.319082180659,110.22913688603255L167.55312383174896,112.4101855731886L169.78716548283893,114.5565989923627L172.02120713392895,116.66625307325538L174.25524878501892,118.7370722034447L176.48929043610892,120.76700903760403L178.72333208719888,122.75405863104953L180.95737373828888,124.69626247789672L183.19141538937888,126.59170447290398L185.42545704046884,128.43851091147255L187.65949869155884,130.23486260411588L189.89354034264883,131.97898478106856L192.1275819937388,133.66915718767743L194.3616236448288,135.30371206532328L196.59566529591876,136.88103415142103L198.8297069470088,138.39956875573242L201.06374859809875,139.85781671267065L203.29779024918872,141.25433942899582L205.53183190027875,142.58775787427584L207.7658735513687,143.85675661904295L209.9999152024587,145.06008383479366L212.23395685354868,146.19655028444967L214.46799850463867,147.26503638913164L216.70204015572867,148.26448617092453L218.93608180681863,149.19391431965138L221.17012345790863,150.05240316425605L223.40416510899863,150.83910519665088L225.6382067600886,151.5532448384102L227.8722484111786,152.19411667407692L230.10629006226856,152.76108822739508L232.34033171335858,153.2536002136945L234.57437336444855,153.67116666608342L236.80841501553851,154.01337518783302L239.04245666662854,154.2798883404939L241.2764983177185,154.47044288674164L243.5105399688085,154.58485092610832L245.74458161989847,154.62299951640534L247.97862327098846,154.62299951640534L250.21266492207846,154.62299951640534L252.44670657316843,154.62299951640534L254.68074822425842,154.62299951640534" fill="none"></path></g></g></g></g></g></g><g transform="translate(61, 177)" clip-path="url(#clip_1)"><clipPath id="clip_1"><rect width="268" height="22"></rect></clipPath><g><g><line x1="0" y1="0" x2="0" y2="5" style="visibility: inherit;" fill="rgb(0, 0, 0)" stroke="rgb(204, 204, 204)" stroke-width="1px"></line><line x1="22.34041651089986" y1="0" x2="22.34041651089986" y2="5" style="visibility: inherit;" fill="rgb(0, 0, 0)" stroke="rgb(204, 204, 204)" stroke-width="1px"></line><line x1="44.68083302179972" y1="0" x2="44.68083302179972" y2="5" style="visibility: inherit;" fill="rgb(0, 0, 0)" stroke="rgb(204, 204, 204)" stroke-width="1px"></line><line x1="67.02124953269958" y1="0" x2="67.02124953269958" y2="5" style="visibility: inherit;" fill="rgb(0, 0, 0)" stroke="rgb(204, 204, 204)" stroke-width="1px"></line><line x1="89.36166604359944" y1="0" x2="89.36166604359944" y2="5" style="visibility: inherit;" fill="rgb(0, 0, 0)" stroke="rgb(204, 204, 204)" stroke-width="1px"></line><line x1="111.70208255449931" y1="0" x2="111.70208255449931" y2="5" style="visibility: inherit;" fill="rgb(0, 0, 0)" stroke="rgb(204, 204, 204)" stroke-width="1px"></line><line x1="134.04249906539917" y1="0" x2="134.04249906539917" y2="5" style="visibility: inherit;" fill="rgb(0, 0, 0)" stroke="rgb(204, 204, 204)" stroke-width="1px"></line><line x1="156.38291557629904" y1="0" x2="156.38291557629904" y2="5" style="visibility: inherit;" fill="rgb(0, 0, 0)" stroke="rgb(204, 204, 204)" stroke-width="1px"></line><line x1="178.72333208719888" y1="0" x2="178.72333208719888" y2="5" style="visibility: inherit;" fill="rgb(0, 0, 0)" stroke="rgb(204, 204, 204)" stroke-width="1px"></line><line x1="201.06374859809875" y1="0" x2="201.06374859809875" y2="5" style="visibility: inherit;" fill="rgb(0, 0, 0)" stroke="rgb(204, 204, 204)" stroke-width="1px"></line><line x1="223.40416510899863" y1="0" x2="223.40416510899863" y2="5" style="visibility: inherit;" fill="rgb(0, 0, 0)" stroke="rgb(204, 204, 204)" stroke-width="1px"></line><line x1="245.74458161989847" y1="0" x2="245.74458161989847" y2="5" style="visibility: inherit;" fill="rgb(0, 0, 0)" stroke="rgb(204, 204, 204)" stroke-width="1px"></line><line x1="268.08499813079834" y1="0" x2="268.08499813079834" y2="5" style="visibility: inherit;" fill="rgb(0, 0, 0)" stroke="rgb(204, 204, 204)" stroke-width="1px"></line></g><g transform="translate(0, 8)"><text style="text-anchor: middle; visibility: hidden; font-family: Roboto, sans-serif; font-size: 12px; font-weight: 200;" x="0" y="0" dx="0em" dy="0.95em" fill="rgb(50, 49, 63)" stroke="none" stroke-width="1px">-10</text><text style="text-anchor: middle; visibility: inherit; font-family: Roboto, sans-serif; font-size: 12px; font-weight: 200;" x="22.34041651089986" y="0" dx="0em" dy="0.95em" fill="rgb(50, 49, 63)" stroke="none" stroke-width="1px">0</text><text style="text-anchor: middle; visibility: inherit; font-family: Roboto, sans-serif; font-size: 12px; font-weight: 200;" x="44.68083302179972" y="0" dx="0em" dy="0.95em" fill="rgb(50, 49, 63)" stroke="none" stroke-width="1px">10</text><text style="text-anchor: middle; visibility: inherit; font-family: Roboto, sans-serif; font-size: 12px; font-weight: 200;" x="67.02124953269958" y="0" dx="0em" dy="0.95em" fill="rgb(50, 49, 63)" stroke="none" stroke-width="1px">20</text><text style="text-anchor: middle; visibility: inherit; font-family: Roboto, sans-serif; font-size: 12px; font-weight: 200;" x="89.36166604359944" y="0" dx="0em" dy="0.95em" fill="rgb(50, 49, 63)" stroke="none" stroke-width="1px">30</text><text style="text-anchor: middle; visibility: inherit; font-family: Roboto, sans-serif; font-size: 12px; font-weight: 200;" x="111.70208255449931" y="0" dx="0em" dy="0.95em" fill="rgb(50, 49, 63)" stroke="none" stroke-width="1px">40</text><text style="text-anchor: middle; visibility: inherit; font-family: Roboto, sans-serif; font-size: 12px; font-weight: 200;" x="134.04249906539917" y="0" dx="0em" dy="0.95em" fill="rgb(50, 49, 63)" stroke="none" stroke-width="1px">50</text><text style="text-anchor: middle; visibility: inherit; font-family: Roboto, sans-serif; font-size: 12px; font-weight: 200;" x="156.38291557629904" y="0" dx="0em" dy="0.95em" fill="rgb(50, 49, 63)" stroke="none" stroke-width="1px">60</text><text style="text-anchor: middle; visibility: inherit; font-family: Roboto, sans-serif; font-size: 12px; font-weight: 200;" x="178.72333208719888" y="0" dx="0em" dy="0.95em" fill="rgb(50, 49, 63)" stroke="none" stroke-width="1px">70</text><text style="text-anchor: middle; visibility: inherit; font-family: Roboto, sans-serif; font-size: 12px; font-weight: 200;" x="201.06374859809875" y="0" dx="0em" dy="0.95em" fill="rgb(50, 49, 63)" stroke="none" stroke-width="1px">80</text><text style="text-anchor: middle; visibility: inherit; font-family: Roboto, sans-serif; font-size: 12px; font-weight: 200;" x="223.40416510899863" y="0" dx="0em" dy="0.95em" fill="rgb(50, 49, 63)" stroke="none" stroke-width="1px">90</text><text style="text-anchor: middle; visibility: inherit; font-family: Roboto, sans-serif; font-size: 12px; font-weight: 200;" x="245.74458161989847" y="0" dx="0em" dy="0.95em" fill="rgb(50, 49, 63)" stroke="none" stroke-width="1px">100</text><text style="text-anchor: middle; visibility: hidden; font-family: Roboto, sans-serif; font-size: 12px; font-weight: 200;" x="268.08499813079834" y="0" dx="0em" dy="0.95em" fill="rgb(50, 49, 63)" stroke="none" stroke-width="1px">110</text></g><line x1="0" y1="0" x2="268.08499813079834" y2="0" fill="rgb(0, 0, 0)" stroke="rgb(204, 204, 204)" stroke-width="1px"></line></g></g></g></g></svg>