<svg viewBox="0 0 330 200" xmlns="http://www.w3.org/2000/svg"><g><g><g><g><g><line x1="41.149001121520996" y1="177.5999994277954" x2="36.149001121520996" y2="177.5999994277954" style="visibility: inherit;" fill="rgb(0, 0, 0)" stroke="rgb(204, 204, 204)" stroke-width="1px"></line><line x1="41.149001121520996" y1="161.45454493435946" x2="36.149001121520996" y2="161.45454493435946" style="visibility: inherit;" fill="rgb(0, 0, 0)" stroke="rgb(204, 204, 204)" stroke-width="1px"></line><line x1="41.149001121520996" y1="145.3090904409235" x2="36.149001121520996" y2="145.3090904409235" style="visibility: inherit;" fill="rgb(0, 0, 0)" stroke="rgb(204, 204, 204)" stroke-width="1px"></line><line x1="41.149001121520996" y1="129.16363594748756" x2="36.149001121520996" y2="129.16363594748756" style="visibility: inherit;" fill="rgb(0, 0, 0)" stroke="rgb(204, 204, 204)" stroke-width="1px"></line><line x1="41.149001121520996" y1="113.01818145405163" x2="36.149001121520996" y2="113.01818145405163" style="visibility: inherit;" fill="rgb(0, 0, 0)" stroke="rgb(204, 204, 204)" stroke-width="1px"></line><line x1="41.149001121520996" y1="96.87272696061567" x2="36.149001121520996" y2="96.87272696061567" style="visibility: inherit;" fill="rgb(0, 0, 0)" stroke="rgb(204, 204, 204)" stroke-width="1px"></line><line x1="41.149001121520996" y1="80.72727246717974" x2="36.149001121520996" y2="80.72727246717974" style="visibility: inherit;" fill="rgb(0, 0, 0)" stroke="rgb(204, 204, 204)" stroke-width="1px"></line><line x1="41.149001121520996" y1="64.58181797374378" x2="36.149001121520996" y2="64.58181797374378" style="visibility: inherit;" fill="rgb(0, 0, 0)" stroke="rgb(204, 204, 204)" stroke-width="1px"></line><line x1="41.149001121520996" y1="48.43636348030783" x2="36.149001121520996" y2="48.43636348030783" style="visibility: inherit;" fill="rgb(0, 0, 0)" stroke="rgb(204, 204, 204)" stroke-width="1px"></line><line x1="41.149001121520996" y1="32.290908986871884" x2="36.149001121520996" y2="32.290908986871884" style="visibility: inherit;" fill="rgb(0, 0, 0)" stroke="rgb(204, 204, 204)" stroke-width="1px"></line><line x1="41.149001121520996" y1="16.145454493435953" x2="36.149001121520996" y2="16.145454493435953" style="visibility: inherit;" fill="rgb(0, 0, 0)" stroke="rgb(204, 204, 204)" stroke-width="1px"></line><line x1="41.149001121520996" y1="0" x2="36.149001121520996" y2="0" style="visibility: inherit;" fill="rgb(0, 0, 0)" stroke="rgb(204, 204, 204)" stroke-width="1px"></line></g><g transform="translate(31.149001121520996, 0)"><text style="text-anchor: end; visibility: hidden; font-family: Roboto, sans-serif; font-size: 12px; font-weight: 200;" x="0" y="177.5999994277954" dx="0em" dy="0.3em" fill="rgb(50, 49, 63)" stroke="none" stroke-width="1px">0.5</text><text style="text-anchor: end; visibility: inherit; font-family: Roboto, sans-serif; font-size: 12px; font-weight: 200;" x="0" y="161.45454493435946" dx="0em" dy="0.3em" fill="rgb(50, 49, 63)" stroke="none" stroke-width="1px">1</text><text style="text-anchor: end; visibility: hidden; font-family: Roboto, sans-serif; font-size: 12px; font-weight: 200;" x="0" y="145.3090904409235" dx="0em" dy="0.3em" fill="rgb(50, 49, 63)" stroke="none" stroke-width="1px">1.5</text><text style="text-anchor: end; visibility: inherit; font-family: Roboto, sans-serif; font-size: 12px; font-weight: 200;" x="0" y="129.16363594748756" dx="0em" dy="0.3em" fill="rgb(50, 49, 63)" stroke="none" stroke-width="1px">2</text><text style="text-anchor: end; visibility: hidden; font-family: Roboto, sans-serif; font-size: 12px; font-weight: 200;" x="0" y="113.01818145405163" dx="0em" dy="0.3em" fill="rgb(50, 49, 63)" stroke="none" stroke-width="1px">2.5</text><text style="text-anchor: end; visibility: inherit; font-family: Roboto, sans-serif; font-size: 12px; font-weight: 200;" x="0" y="96.87272696061567" dx="0em" dy="0.3em" fill="rgb(50, 49, 63)" stroke="none" stroke-width="1px">3</text><text style="text-anchor: end; visibility: hidden; font-family: Roboto, sans-serif; font-size: 12px; font-weight: 200;" x="0" y="80.72727246717974" dx="0em" dy="0.3em" fill="rgb(50, 49, 63)" stroke="none" stroke-width="1px">3.5</text><text style="text-anchor: end; visibility: inherit; font-family: Roboto, sans-serif; font-size: 12px; font-weight: 200;" x="0" y="64.58181797374378" dx="0em" dy="0.3em" fill="rgb(50, 49, 63)" stroke="none" stroke-width="1px">4</text><text style="text-anchor: end; visibility: hidden; font-family: Roboto, sans-serif; font-size: 12px; font-weight: 200;" x="0" y="48.43636348030783" dx="0em" dy="0.3em" fill="rgb(50, 49, 63)" stroke="none" stroke-width="1px">4.5</text><text style="text-anchor: end; visibility: inherit; font-family: Roboto, sans-serif; font-size: 12px; font-weight: 200;" x="0" y="32.290908986871884" dx="0em" dy="0.3em" fill="rgb(50, 49, 63)" stroke="none" stroke-width="1px">5</text><text style="text-anchor: end; visibility: hidden; font-family: Roboto, sans-serif; font-size: 12px; font-weight: 200;" x="0" y="16.145454493435953" dx="0em" dy="0.3em" fill="rgb(50, 49, 63)" stroke="none" stroke-width="1px">5.5</text><text style="text-anchor: end; visibility: hidden; font-family: Roboto, sans-serif; font-size: 12px; font-weight: 200;" x="0" y="0" dx="0em" dy="0.3em" fill="rgb(50, 49, 63)" stroke="none" stroke-width="1px">6</text></g><line x1="41.149001121520996" y1="0" x2="41.149001121520996" y2="177.5999994277954" fill="rgb(0, 0, 0)" stroke="rgb(204, 204, 204)" stroke-width="1px"></line></g></g><g transform="translate(41, 0)" clip-path="url(#clip_0)"><clipPath id="clip_0"><rect width="288" height="177"></rect></clipPath><g><g><g><line x1="0" y1="0" x2="0" y2="177.5999994277954" fill="rgb(0, 0, 0)" stroke="rgb(60, 60, 60)" stroke-width="1px" opacity="0.25"></line><line x1="24.07091657320658" y1="0" x2="24.07091657320658" y2="177.5999994277954" fill="rgb(0, 0, 0)" stroke="rgb(60, 60, 60)" stroke-width="1px" opacity="0.25"></line><line x1="48.14183314641316" y1="0" x2="48.14183314641316" y2="177.5999994277954" fill="rgb(0, 0, 0)" stroke="rgb(60, 60, 60)" stroke-width="1px" opacity="0.25"></line><line x1="72.21274971961975" y1="0" x2="72.21274971961975" y2="177.5999994277954" fill="rgb(0, 0, 0)" stroke="rgb(60, 60, 60)" stroke-width="1px" opacity="0.25"></line><line x1="96.28366629282633" y1="0" x2="96.28366629282633" y2="177.5999994277954" fill="rgb(0, 0, 0)" stroke="rgb(60, 60, 60)" stroke-width="1px" opacity="0.25"></line><line x1="120.35458286603293" y1="0" x2="120.35458286603293" y2="177.5999994277954" fill="rgb(0, 0, 0)" stroke="rgb(60, 60, 60)" stroke-width="1px" opacity="0.25"></line><line x1="144.4254994392395" y1="0" x2="144.4254994392395" y2="177.5999994277954" fill="rgb(0, 0, 0)" stroke="rgb(60, 60, 60)" stroke-width="1px" opacity="0.25"></line><line x1="168.4964160124461" y1="0" x2="168.4964160124461" y2="177.5999994277954" fill="rgb(0, 0, 0)" stroke="rgb(60, 60, 60)" stroke-width="1px" opacity="0.25"></line><line x1="192.56733258565265" y1="0" x2="192.56733258565265" y2="177.5999994277954" fill="rgb(0, 0, 0)" stroke="rgb(60, 60, 60)" stroke-width="1px" opacity="0.25"></line><line x1="216.63824915885925" y1="0" x2="216.63824915885925" y2="177.5999994277954" fill="rgb(0, 0, 0)" stroke="rgb(60, 60, 60)" stroke-width="1px" opacity="0.25"></line><line x1="240.70916573206586" y1="0" x2="240.70916573206586" y2="177.5999994277954" fill="rgb(0, 0, 0)" stroke="rgb(60, 60, 60)" stroke-width="1px" opacity="0.25"></line><line x1="264.7800823052724" y1="0" x2="264.7800823052724" y2="177.5999994277954" fill="rgb(0, 0, 0)" stroke="rgb(60, 60, 60)" stroke-width="1px" opacity="0.25"></line><line x1="288.850998878479" y1="0" x2="288.850998878479" y2="177.5999994277954" fill="rgb(0, 0, 0)" stroke="rgb(60, 60, 60)" stroke-width="1px" opacity="0.25"></line></g><g><line x1="0" y1="177.5999994277954" x2="288.850998878479" y2="177.5999994277954" fill="rgb(0, 0, 0)" stroke="rgb(60, 60, 60)" stroke-width="1px" opacity="0.25"></line><line x1="0" y1="161.45454493435946" x2="288.850998878479" y2="161.45454493435946" fill="rgb(0, 0, 0)" stroke="rgb(60, 60, 60)" stroke-width="1px" opacity="0.25"></line><line x1="0" y1="145.3090904409235" x2="288.850998878479" y2="145.3090904409235" fill="rgb(0, 0, 0)" stroke="rgb(60, 60, 60)" stroke-width="1px" opacity="0.25"></line><line x1="0" y1="129.16363594748756" x2="288.850998878479" y2="129.16363594748756" fill="rgb(0, 0, 0)" stroke="rgb(60, 60, 60)" stroke-width="1px" opacity="0.25"></line><line x1="0" y1="113.01818145405163" x2="288.850998878479" y2="113.01818145405163" fill="rgb(0, 0, 0)" stroke="rgb(60, 60, 60)" stroke-width="1px" opacity="0.25"></line><line x1="0" y1="96.87272696061567" x2="288.850998878479" y2="96.87272696061567" fill="rgb(0, 0, 0)" stroke="rgb(60, 60, 60)" stroke-width="1px" opacity="0.25"></line><line x1="0" y1="80.72727246717974" x2="288.850998878479" y2="80.72727246717974" fill="rgb(0, 0, 0)" stroke="rgb(60, 60, 60)" stroke-width="1px" opacity="0.25"></line><line x1="0" y1="64.58181797374378" x2="288.850998878479" y2="64.58181797374378" fill="rgb(0, 0, 0)" stroke="rgb(60, 60, 60)" stroke-width="1px" opacity="0.25"></line><line x1="0" y1="48.43636348030783" x2="288.850998878479" y2="48.43636348030783" fill="rgb(0, 0, 0)" stroke="rgb(60, 60, 60)" stroke-width="1px" opacity="0.25"></line><line x1="0" y1="32.290908986871884" x2="288.850998878479" y2="32.290908986871884" fill="rgb(0, 0, 0)" stroke="rgb(60, 60, 60)" stroke-width="1px" opacity="0.25"></line><line x1="0" y1="16.145454493435953" x2="288.850998878479" y2="16.145454493435953" fill="rgb(0, 0, 0)" stroke="rgb(60, 60, 60)" stroke-width="1px" opacity="0.25"></line><line x1="0" y1="0" x2="288.850998878479" y2="0" fill="rgb(0, 0, 0)" stroke="rgb(60, 60, 60)" stroke-width="1px" opacity="0.25"></line></g></g></g><g><g><line x1="0" y1="193.74545392123133" x2="288.850998878479" y2="193.74545392123133" fill="rgb(0, 0, 0)" stroke="rgb(153, 153, 153)" stroke-width="1.5px"></line></g></g><g><g><line x1="24.07091657320658" y1="0" x2="24.07091657320658" y2="177.5999994277954" fill="rgb(0, 0, 0)" stroke="rgb(153, 153, 153)" stroke-width="1.5px"></line></g></g><g><g><g><g><g><path style="fill: none;" stroke="rgb(255, 112, 67)" stroke-width="2px" d="M24.07091657320658,19.09991240849984L26.47800823052724,19.72325153932062L28.8850998878479,21.687084517379834L31.29219154516856,29.58561972913429L33.69928320248922,50.123629128808595L36.106374859809875,71.97930267466049L38.51346651713053,91.10064805021094L40.920558174451195,105.50072992156647L43.32764983177185,117.04440864153364L45.73474148909251,124.39986501058105L48.14183314641316,129.9378939210074L50.548924803733826,133.87868004553033L52.95601646105448,137.28749257844817L55.363108118375145,139.65723106980042L57.7701997756958,141.30409151489468L60.177291433016464,142.72059507556818L62.58438309033712,144.34985514745043L64.99147474765778,145.8209565509639L67.39856640497844,146.85683175218134L69.80565806229909,147.4043626310991L72.21274971961975,147.72370355007837L74.61984137694041,147.39843181792588L77.02693303426106,149.51946416090854L79.43402469158173,149.9207793252371L81.84111634890239,150.0683027124493L84.24820800622305,150.00499681534293L86.6552996635437,150.63427877806913L89.06239132086436,150.98827086894502L91.46948297818501,152.36599888510645L93.87657463550568,152.91748035003633L96.28366629282633,152.35270692844713L98.69075795014699,153.02867102051133L101.09784960746765,153.84543983937928L103.50494126478831,153.17690962896637L105.91203292210896,153.57142989833932L108.31912457942963,153.36795201121853L110.72621623675029,154.07179208771564L113.13330789407094,153.7758902727629L115.5403995513916,154.0556535524925L117.94749120871226,154.7568533879334L120.35458286603293,154.3256631954447L122.76167452335358,154.29343098540255L125.16876618067424,154.10823435174603L127.57585783799489,154.61048061365733L129.98294949531555,155.02314925441232L132.3900411526362,155.2896200815561L134.79713280995688,155.03212548177095L137.20422446727753,155.70040981391136L139.61131612459818,155.45698711857827L142.01840778191882,155.6730936037544L144.4254994392395,156.10743255102992L146.83259109656015,156.44480018195307L149.23968275388083,156.35299599116792L151.64677441120148,157.15254430835037L154.05386606852213,156.9172824423643L156.46095772584277,157.4194207752458L158.86804938316345,156.6114628755608L161.2751410404841,157.17074523632354L163.68223269780478,157.56561814435588L166.08932435512543,157.68356690564966L168.4964160124461,157.49324836419484L170.90350766976675,157.27789716940197L173.3105993270874,157.1850538202402L175.71769098440805,157.28216651086782L178.12478264172873,157.5763454625969L180.53187429904938,157.36183472687298L182.93896595637003,157.40104885873907L185.3460576136907,157.7134376163581L187.75314927101135,157.68897810205877L190.160240928332,158.0336324343802L192.56733258565265,157.8166456550337L194.97442424297333,157.98316351411543L197.38151590029398,158.0909469740126L199.78860755761465,158.53153944253862L202.1956992149353,158.80823756388432L204.60279087225598,159.22657073641594L207.00988252957663,159.28031012032898L209.41697418689728,158.85061781411022L211.82406584421793,159.3650134957843L214.2311575015386,159.10906903904294L216.63824915885925,158.8177716802945L219.0453408161799,158.7037702978752L221.45243247350058,159.42077157659983L223.85952413082123,158.97793071512223L226.26661578814188,159.29254431437465L228.67370744546253,159.36002324535735L231.0807991027832,159.56432312283948L233.48789076010385,159.97238049591874L235.89498241742453,160.0780615055751L238.30207407474518,159.95398238836233L240.70916573206586,160.1332673279949L243.1162573893865,159.8704128085707L245.52334904670715,160.20536021551266L247.9304407040278,160.2533729217562L250.33753236134848,160.32751696004024L252.74462401866913,159.91068796590673L255.15171567598978,159.62198132494433L257.5588073333105,159.61666713541362L259.9658989906311,159.14794428814537L262.3729906479518,159.61040084616496L264.7800823052724,159.63544807946403L267.1871739625931,159.7933929839244L269.59426561991376,160.11162084118607L272.0013572772344,160.43266185588294L274.40844893455505,159.79172711902024" fill="none"></path></g></g></g></g><g opacity="0.2"><g><g><g><path style="fill: none;" stroke="rgb(255, 112, 67)" stroke-width="2px" d="M24.07091657320658,19.099912408499797L26.47800823052724,20.09725501781313L28.8850998878479,23.57236417631669L31.29219154516856,38.87429713815751L33.69928320248922,76.9380542010234L36.106374859809875,102.21356723105022L38.51346651713053,118.44447787877404L40.920558174451195,126.49618753078879L43.32764983177185,134.06909250933063L45.73474148909251,135.32186048430938L48.14183314641316,138.1947077720283L50.548924803733826,139.7684136482502L52.95601646105448,142.38958101346236L55.363108118375145,143.20719624242878L57.7701997756958,143.7724463599036L60.177291433016464,144.84435138852126L62.58438309033712,146.79305580701418L64.99147474765778,148.02723514374713L67.39856640497844,148.4104867488467L69.80565806229909,148.22560890298462L72.21274971961975,148.2026974151323L74.61984137694041,146.9105349229021L77.02693303426106,152.70097079929886L79.43402469158173,150.52274731776924L81.84111634890239,150.2895867447345L84.24820800622305,149.91003823965409L86.6552996635437,151.5782001119983L89.06239132086436,151.5192584617976L91.46948297818501,154.43258964026634L93.87657463550568,153.74470224263575L96.28366629282633,151.50554698334835L98.69075795014699,154.04261702411333L101.09784960746765,155.07059297017543L103.50494126478831,152.17411436123248L105.91203292210896,154.16321028544354L108.31912457942963,153.06273518578425L110.72621623675029,155.12755219157174L113.13330789407094,153.33203755308065L115.5403995513916,154.47529847052868L117.94749120871226,155.80865313875142L120.35458286603293,153.67887790757618L122.76167452335358,154.2450826703782L125.16876618067424,153.83043940139495L127.57585783799489,155.36385000630668L129.98294949531555,155.64215221543756L132.3900411526362,155.68932632223024L134.79713280995688,154.6458835821173L137.20422446727753,156.70283631208451L139.61131612459818,155.09185307558678L142.01840778191882,155.99725333151426L144.4254994392395,156.75894097193793L146.83259109656015,156.95085162833536L149.23968275388083,156.21528970499057L151.64677441120148,158.35186678412197L154.05386606852213,156.5643896433855L156.46095772584277,158.17262827456761L158.86804938316345,155.39952602603373L161.2751410404841,158.00966877746748L163.68223269780478,158.15792750640432L166.08932435512543,157.86049004759033L168.4964160124461,157.20777055201265L170.90350766976675,156.95487037721267L173.3105993270874,157.0457887964976L175.71769098440805,157.4278355468092L178.12478264172873,158.01761389019046L180.53187429904938,157.04006862328717L182.93896595637003,157.45987005653822L185.3460576136907,158.18202075278666L187.75314927101135,157.65228883060976L190.160240928332,158.5506139328624L192.56733258565265,157.4911654860139L194.97442424297333,158.232940302738L197.38151590029398,158.25262216385843L199.78860755761465,159.19242814532757L202.1956992149353,159.22328474590287L204.60279087225598,159.85407049521334L207.00988252957663,159.36091919619852L209.41697418689728,158.2060793547821L211.82406584421793,160.13660701829542L214.2311575015386,158.72515235393092L216.63824915885925,158.38082564217186L219.0453408161799,158.53276822424624L221.45243247350058,160.49627349468676L223.85952413082123,158.3136694229058L226.26661578814188,159.7644647132533L228.67370744546253,159.46124164183144L231.0807991027832,159.87077293906268L233.48789076010385,160.58446655553766L235.89498241742453,160.23658302005958L238.30207407474518,159.7678637125432L240.70916573206586,160.40219473744372L243.1162573893865,159.47613102943438L245.52334904670715,160.7077813259256L247.9304407040278,160.32539198112156L250.33753236134848,160.43873301746626L252.74462401866913,159.2854444747065L255.15171567598978,159.18892136350073L257.5588073333105,159.60869585111755L259.9658989906311,158.44486001724297L262.3729906479518,160.3040856831944L264.7800823052724,159.67301892941262L267.1871739625931,160.030310340615L269.59426561991376,160.58896262707856L272.0013572772344,160.91422337792827L274.40844893455505,158.8303250137261" fill="none"></path></g></g></g></g></g></g><g transform="translate(41, 177)" clip-path="url(#clip_1)"><clipPath id="clip_1"><rect width="288" height="22"></rect></clipPath><g><g><line x1="0" y1="0" x2="0" y2="5" style="visibility: inherit;" fill="rgb(0, 0, 0)" stroke="rgb(204, 204, 204)" stroke-width="1px"></line><line x1="24.07091657320658" y1="0" x2="24.07091657320658" y2="5" style="visibility: inherit;" fill="rgb(0, 0, 0)" stroke="rgb(204, 204, 204)" stroke-width="1px"></line><line x1="48.14183314641316" y1="0" x2="48.14183314641316" y2="5" style="visibility: inherit;" fill="rgb(0, 0, 0)" stroke="rgb(204, 204, 204)" stroke-width="1px"></line><line x1="72.21274971961975" y1="0" x2="72.21274971961975" y2="5" style="visibility: inherit;" fill="rgb(0, 0, 0)" stroke="rgb(204, 204, 204)" stroke-width="1px"></line><line x1="96.28366629282633" y1="0" x2="96.28366629282633" y2="5" style="visibility: inherit;" fill="rgb(0, 0, 0)" stroke="rgb(204, 204, 204)" stroke-width="1px"></line><line x1="120.35458286603293" y1="0" x2="120.35458286603293" y2="5" style="visibility: inherit;" fill="rgb(0, 0, 0)" stroke="rgb(204, 204, 204)" stroke-width="1px"></line><line x1="144.4254994392395" y1="0" x2="144.4254994392395" y2="5" style="visibility: inherit;" fill="rgb(0, 0, 0)" stroke="rgb(204, 204, 204)" stroke-width="1px"></line><line x1="168.4964160124461" y1="0" x2="168.4964160124461" y2="5" style="visibility: inherit;" fill="rgb(0, 0, 0)" stroke="rgb(204, 204, 204)" stroke-width="1px"></line><line x1="192.56733258565265" y1="0" x2="192.56733258565265" y2="5" style="visibility: inherit;" fill="rgb(0, 0, 0)" stroke="rgb(204, 204, 204)" stroke-width="1px"></line><line x1="216.63824915885925" y1="0" x2="216.63824915885925" y2="5" style="visibility: inherit;" fill="rgb(0, 0, 0)" stroke="rgb(204, 204, 204)" stroke-width="1px"></line><line x1="240.70916573206586" y1="0" x2="240.70916573206586" y2="5" style="visibility: inherit;" fill="rgb(0, 0, 0)" stroke="rgb(204, 204, 204)" stroke-width="1px"></line><line x1="264.7800823052724" y1="0" x2="264.7800823052724" y2="5" style="visibility: inherit;" fill="rgb(0, 0, 0)" stroke="rgb(204, 204, 204)" stroke-width="1px"></line><line x1="288.850998878479" y1="0" x2="288.850998878479" y2="5" style="visibility: inherit;" fill="rgb(0, 0, 0)" stroke="rgb(204, 204, 204)" stroke-width="1px"></line></g><g transform="translate(0, 8)"><text style="text-anchor: middle; visibility: hidden; font-family: Roboto, sans-serif; font-size: 12px; font-weight: 200;" x="0" y="0" dx="0em" dy="0.95em" fill="rgb(50, 49, 63)" stroke="none" stroke-width="1px">-10</text><text style="text-anchor: middle; visibility: inherit; font-family: Roboto, sans-serif; font-size: 12px; font-weight: 200;" x="24.07091657320658" y="0" dx="0em" dy="0.95em" fill="rgb(50, 49, 63)" stroke="none" stroke-width="1px">0</text><text style="text-anchor: middle; visibility: inherit; font-family: Roboto, sans-serif; font-size: 12px; font-weight: 200;" x="48.14183314641316" y="0" dx="0em" dy="0.95em" fill="rgb(50, 49, 63)" stroke="none" stroke-width="1px">10</text><text style="text-anchor: middle; visibility: inherit; font-family: Roboto, sans-serif; font-size: 12px; font-weight: 200;" x="72.21274971961975" y="0" dx="0em" dy="0.95em" fill="rgb(50, 49, 63)" stroke="none" stroke-width="1px">20</text><text style="text-anchor: middle; visibility: inherit; font-family: Roboto, sans-serif; font-size: 12px; font-weight: 200;" x="96.28366629282633" y="0" dx="0em" dy="0.95em" fill="rgb(50, 49, 63)" stroke="none" stroke-width="1px">30</text><text style="text-anchor: middle; visibility: inherit; font-family: Roboto, sans-serif; font-size: 12px; font-weight: 200;" x="120.35458286603293" y="0" dx="0em" dy="0.95em" fill="rgb(50, 49, 63)" stroke="none" stroke-width="1px">40</text><text style="text-anchor: middle; visibility: inherit; font-family: Roboto, sans-serif; font-size: 12px; font-weight: 200;" x="144.4254994392395" y="0" dx="0em" dy="0.95em" fill="rgb(50, 49, 63)" stroke="none" stroke-width="1px">50</text><text style="text-anchor: middle; visibility: inherit; font-family: Roboto, sans-serif; font-size: 12px; font-weight: 200;" x="168.4964160124461" y="0" dx="0em" dy="0.95em" fill="rgb(50, 49, 63)" stroke="none" stroke-width="1px">60</text><text style="text-anchor: middle; visibility: inherit; font-family: Roboto, sans-serif; font-size: 12px; font-weight: 200;" x="192.56733258565265" y="0" dx="0em" dy="0.95em" fill="rgb(50, 49, 63)" stroke="none" stroke-width="1px">70</text><text style="text-anchor: middle; visibility: inherit; font-family: Roboto, sans-serif; font-size: 12px; font-weight: 200;" x="216.63824915885925" y="0" dx="0em" dy="0.95em" fill="rgb(50, 49, 63)" stroke="none" stroke-width="1px">80</text><text style="text-anchor: middle; visibility: inherit; font-family: Roboto, sans-serif; font-size: 12px; font-weight: 200;" x="240.70916573206586" y="0" dx="0em" dy="0.95em" fill="rgb(50, 49, 63)" stroke="none" stroke-width="1px">90</text><text style="text-anchor: middle; visibility: inherit; font-family: Roboto, sans-serif; font-size: 12px; font-weight: 200;" x="264.7800823052724" y="0" dx="0em" dy="0.95em" fill="rgb(50, 49, 63)" stroke="none" stroke-width="1px">100</text><text style="text-anchor: middle; visibility: hidden; font-family: Roboto, sans-serif; font-size: 12px; font-weight: 200;" x="288.850998878479" y="0" dx="0em" dy="0.95em" fill="rgb(50, 49, 63)" stroke="none" stroke-width="1px">110</text></g><line x1="0" y1="0" x2="288.850998878479" y2="0" fill="rgb(0, 0, 0)" stroke="rgb(204, 204, 204)" stroke-width="1px"></line></g></g></g></g></svg>