<svg viewBox="0 0 330 200" xmlns="http://www.w3.org/2000/svg"><g><g><g><g><g><line x1="51.53200149536133" y1="176.5999994277954" x2="46.53200149536133" y2="176.5999994277954" style="visibility: inherit;" fill="rgb(0, 0, 0)" stroke="rgb(204, 204, 204)" stroke-width="1px"></line><line x1="51.53200149536133" y1="160.54545402526855" x2="46.53200149536133" y2="160.54545402526855" style="visibility: inherit;" fill="rgb(0, 0, 0)" stroke="rgb(204, 204, 204)" stroke-width="1px"></line><line x1="51.53200149536133" y1="144.4909086227417" x2="46.53200149536133" y2="144.4909086227417" style="visibility: inherit;" fill="rgb(0, 0, 0)" stroke="rgb(204, 204, 204)" stroke-width="1px"></line><line x1="51.53200149536133" y1="128.43636322021484" x2="46.53200149536133" y2="128.43636322021484" style="visibility: inherit;" fill="rgb(0, 0, 0)" stroke="rgb(204, 204, 204)" stroke-width="1px"></line><line x1="51.53200149536133" y1="112.38181781768799" x2="46.53200149536133" y2="112.38181781768799" style="visibility: inherit;" fill="rgb(0, 0, 0)" stroke="rgb(204, 204, 204)" stroke-width="1px"></line><line x1="51.53200149536133" y1="96.32727241516112" x2="46.53200149536133" y2="96.32727241516112" style="visibility: inherit;" fill="rgb(0, 0, 0)" stroke="rgb(204, 204, 204)" stroke-width="1px"></line><line x1="51.53200149536133" y1="80.27272701263429" x2="46.53200149536133" y2="80.27272701263429" style="visibility: inherit;" fill="rgb(0, 0, 0)" stroke="rgb(204, 204, 204)" stroke-width="1px"></line><line x1="51.53200149536133" y1="64.21818161010742" x2="46.53200149536133" y2="64.21818161010742" style="visibility: inherit;" fill="rgb(0, 0, 0)" stroke="rgb(204, 204, 204)" stroke-width="1px"></line><line x1="51.53200149536133" y1="48.16363620758056" x2="46.53200149536133" y2="48.16363620758056" style="visibility: inherit;" fill="rgb(0, 0, 0)" stroke="rgb(204, 204, 204)" stroke-width="1px"></line><line x1="51.53200149536133" y1="32.109090805053704" x2="46.53200149536133" y2="32.109090805053704" style="visibility: inherit;" fill="rgb(0, 0, 0)" stroke="rgb(204, 204, 204)" stroke-width="1px"></line><line x1="51.53200149536133" y1="16.054545402526863" x2="46.53200149536133" y2="16.054545402526863" style="visibility: inherit;" fill="rgb(0, 0, 0)" stroke="rgb(204, 204, 204)" stroke-width="1px"></line><line x1="51.53200149536133" y1="0" x2="46.53200149536133" y2="0" style="visibility: inherit;" fill="rgb(0, 0, 0)" stroke="rgb(204, 204, 204)" stroke-width="1px"></line></g><g transform="translate(41.53200149536133, 0)"><text style="text-anchor: end; visibility: hidden; font-family: Roboto, sans-serif; font-size: 12px; font-weight: 200;" x="0" y="176.5999994277954" dx="0em" dy="0.3em" fill="rgb(33, 33, 33)" stroke="none" stroke-width="1px">-0.5</text><text style="text-anchor: end; visibility: inherit; font-family: Roboto, sans-serif; font-size: 12px; font-weight: 200;" x="0" y="160.54545402526855" dx="0em" dy="0.3em" fill="rgb(33, 33, 33)" stroke="none" stroke-width="1px">0</text><text style="text-anchor: end; visibility: hidden; font-family: Roboto, sans-serif; font-size: 12px; font-weight: 200;" x="0" y="144.4909086227417" dx="0em" dy="0.3em" fill="rgb(33, 33, 33)" stroke="none" stroke-width="1px">0.5</text><text style="text-anchor: end; visibility: inherit; font-family: Roboto, sans-serif; font-size: 12px; font-weight: 200;" x="0" y="128.43636322021484" dx="0em" dy="0.3em" fill="rgb(33, 33, 33)" stroke="none" stroke-width="1px">1</text><text style="text-anchor: end; visibility: hidden; font-family: Roboto, sans-serif; font-size: 12px; font-weight: 200;" x="0" y="112.38181781768799" dx="0em" dy="0.3em" fill="rgb(33, 33, 33)" stroke="none" stroke-width="1px">1.5</text><text style="text-anchor: end; visibility: inherit; font-family: Roboto, sans-serif; font-size: 12px; font-weight: 200;" x="0" y="96.32727241516112" dx="0em" dy="0.3em" fill="rgb(33, 33, 33)" stroke="none" stroke-width="1px">2</text><text style="text-anchor: end; visibility: hidden; font-family: Roboto, sans-serif; font-size: 12px; font-weight: 200;" x="0" y="80.27272701263429" dx="0em" dy="0.3em" fill="rgb(33, 33, 33)" stroke="none" stroke-width="1px">2.5</text><text style="text-anchor: end; visibility: inherit; font-family: Roboto, sans-serif; font-size: 12px; font-weight: 200;" x="0" y="64.21818161010742" dx="0em" dy="0.3em" fill="rgb(33, 33, 33)" stroke="none" stroke-width="1px">3</text><text style="text-anchor: end; visibility: hidden; font-family: Roboto, sans-serif; font-size: 12px; font-weight: 200;" x="0" y="48.16363620758056" dx="0em" dy="0.3em" fill="rgb(33, 33, 33)" stroke="none" stroke-width="1px">3.5</text><text style="text-anchor: end; visibility: inherit; font-family: Roboto, sans-serif; font-size: 12px; font-weight: 200;" x="0" y="32.109090805053704" dx="0em" dy="0.3em" fill="rgb(33, 33, 33)" stroke="none" stroke-width="1px">4</text><text style="text-anchor: end; visibility: hidden; font-family: Roboto, sans-serif; font-size: 12px; font-weight: 200;" x="0" y="16.054545402526863" dx="0em" dy="0.3em" fill="rgb(33, 33, 33)" stroke="none" stroke-width="1px">4.5</text><text style="text-anchor: end; visibility: hidden; font-family: Roboto, sans-serif; font-size: 12px; font-weight: 200;" x="0" y="0" dx="0em" dy="0.3em" fill="rgb(33, 33, 33)" stroke="none" stroke-width="1px">5</text></g><line x1="51.53200149536133" y1="0" x2="51.53200149536133" y2="176.5999994277954" fill="rgb(0, 0, 0)" stroke="rgb(204, 204, 204)" stroke-width="1px"></line></g></g><g transform="translate(51, 0)" clip-path="url(#clip_0)"><clipPath id="clip_0"><rect width="278" height="176"></rect></clipPath><g><g><g><line x1="0" y1="0" x2="0" y2="176.5999994277954" fill="rgb(0, 0, 0)" stroke="rgb(66, 66, 66)" stroke-width="1px" opacity="0.25"></line><line x1="30.94088872273763" y1="0" x2="30.94088872273763" y2="176.5999994277954" fill="rgb(0, 0, 0)" stroke="rgb(66, 66, 66)" stroke-width="1px" opacity="0.25"></line><line x1="61.88177744547526" y1="0" x2="61.88177744547526" y2="176.5999994277954" fill="rgb(0, 0, 0)" stroke="rgb(66, 66, 66)" stroke-width="1px" opacity="0.25"></line><line x1="92.82266616821289" y1="0" x2="92.82266616821289" y2="176.5999994277954" fill="rgb(0, 0, 0)" stroke="rgb(66, 66, 66)" stroke-width="1px" opacity="0.25"></line><line x1="123.76355489095052" y1="0" x2="123.76355489095052" y2="176.5999994277954" fill="rgb(0, 0, 0)" stroke="rgb(66, 66, 66)" stroke-width="1px" opacity="0.25"></line><line x1="154.70444361368817" y1="0" x2="154.70444361368817" y2="176.5999994277954" fill="rgb(0, 0, 0)" stroke="rgb(66, 66, 66)" stroke-width="1px" opacity="0.25"></line><line x1="185.64533233642578" y1="0" x2="185.64533233642578" y2="176.5999994277954" fill="rgb(0, 0, 0)" stroke="rgb(66, 66, 66)" stroke-width="1px" opacity="0.25"></line><line x1="216.58622105916342" y1="0" x2="216.58622105916342" y2="176.5999994277954" fill="rgb(0, 0, 0)" stroke="rgb(66, 66, 66)" stroke-width="1px" opacity="0.25"></line><line x1="247.52710978190103" y1="0" x2="247.52710978190103" y2="176.5999994277954" fill="rgb(0, 0, 0)" stroke="rgb(66, 66, 66)" stroke-width="1px" opacity="0.25"></line><line x1="278.4679985046387" y1="0" x2="278.4679985046387" y2="176.5999994277954" fill="rgb(0, 0, 0)" stroke="rgb(66, 66, 66)" stroke-width="1px" opacity="0.25"></line></g><g><line x1="0" y1="176.5999994277954" x2="278.4679985046387" y2="176.5999994277954" fill="rgb(0, 0, 0)" stroke="rgb(66, 66, 66)" stroke-width="1px" opacity="0.25"></line><line x1="0" y1="160.54545402526855" x2="278.4679985046387" y2="160.54545402526855" fill="rgb(0, 0, 0)" stroke="rgb(66, 66, 66)" stroke-width="1px" opacity="0.25"></line><line x1="0" y1="144.4909086227417" x2="278.4679985046387" y2="144.4909086227417" fill="rgb(0, 0, 0)" stroke="rgb(66, 66, 66)" stroke-width="1px" opacity="0.25"></line><line x1="0" y1="128.43636322021484" x2="278.4679985046387" y2="128.43636322021484" fill="rgb(0, 0, 0)" stroke="rgb(66, 66, 66)" stroke-width="1px" opacity="0.25"></line><line x1="0" y1="112.38181781768799" x2="278.4679985046387" y2="112.38181781768799" fill="rgb(0, 0, 0)" stroke="rgb(66, 66, 66)" stroke-width="1px" opacity="0.25"></line><line x1="0" y1="96.32727241516112" x2="278.4679985046387" y2="96.32727241516112" fill="rgb(0, 0, 0)" stroke="rgb(66, 66, 66)" stroke-width="1px" opacity="0.25"></line><line x1="0" y1="80.27272701263429" x2="278.4679985046387" y2="80.27272701263429" fill="rgb(0, 0, 0)" stroke="rgb(66, 66, 66)" stroke-width="1px" opacity="0.25"></line><line x1="0" y1="64.21818161010742" x2="278.4679985046387" y2="64.21818161010742" fill="rgb(0, 0, 0)" stroke="rgb(66, 66, 66)" stroke-width="1px" opacity="0.25"></line><line x1="0" y1="48.16363620758056" x2="278.4679985046387" y2="48.16363620758056" fill="rgb(0, 0, 0)" stroke="rgb(66, 66, 66)" stroke-width="1px" opacity="0.25"></line><line x1="0" y1="32.109090805053704" x2="278.4679985046387" y2="32.109090805053704" fill="rgb(0, 0, 0)" stroke="rgb(66, 66, 66)" stroke-width="1px" opacity="0.25"></line><line x1="0" y1="16.054545402526863" x2="278.4679985046387" y2="16.054545402526863" fill="rgb(0, 0, 0)" stroke="rgb(66, 66, 66)" stroke-width="1px" opacity="0.25"></line><line x1="0" y1="0" x2="278.4679985046387" y2="0" fill="rgb(0, 0, 0)" stroke="rgb(66, 66, 66)" stroke-width="1px" opacity="0.25"></line></g></g></g><g><g><line x1="0" y1="160.54545402526855" x2="278.4679985046387" y2="160.54545402526855" fill="rgb(0, 0, 0)" stroke="rgb(153, 153, 153)" stroke-width="1.5px"></line></g></g><g><g><line x1="30.94088872273763" y1="0" x2="30.94088872273763" y2="176.5999994277954" fill="rgb(0, 0, 0)" stroke="rgb(153, 153, 153)" stroke-width="1.5px"></line></g></g><g><g><g><g><g><path style="fill: none;" stroke="rgb(255, 112, 67)" stroke-width="2px" d="M40.84197311401367,-0.4104570786639449L40.85744355837504,0.3823752649318669L40.96573666890462,-4.258821731155487L41.0740297794342,-0.4817932336732008L41.46079088846842,2.399256903715537L41.81661110877991,2.597565640837244L41.83208155314128,2.2717780462909642L42.00225644111634,8.184680797228667L42.23431310653687,8.82023334804392L43.22442154566447,10.925953772320662L43.23989199002583,9.14963952682165L43.27083287874857,11.049983116582023L43.36365554491679,9.154411331716297L43.44100776672363,9.02620971482664L43.750416653951014,12.407106033073214L44.02888465245565,12.982366462784194L44.07529598553975,12.843137762352354L44.16811865170797,14.279829002854772L44.30735265096029,19.13830749597047L45.28199064572652,16.601007774234308L45.42122464497884,17.325666563617286L45.66875175476074,23.3279859280944L46.02457197507222,19.684891319809697L46.0400424194336,17.06516301305396L46.163805974324546,16.47297274324466L46.303039973576865,20.38753660818473L46.38039219538371,22.75940037096587L46.64338974952698,25.102416447253788L46.95279863675435,20.344241932201296L47.16938485781352,16.45800122242768L47.26220752398173,21.217536958246022L47.2776779683431,19.413407978711547L47.35503019014994,21.30460789403337L48.066670630772904,26.695070932464667L48.082141075134274,23.38886571119693L48.11308196385701,27.337455847123262L48.25231596310933,26.890352225179797L48.4224908510844,26.358009242322495L49.010367736816406,30.023039030962273L49.24242440223694,31.54000329529427L49.30430617968241,26.33957729272665L49.48995151201884,25.295883657335985L50.186121508280436,28.70598831929118L50.38723728497823,29.913900761846907L50.75852794965108,34.09092912772687L50.773998394012445,40.76168581771008L50.9441732819875,42.228449615528554L51.315463946660365,41.20117322244329L51.81051816622416,42.2593687880822L51.96522260983785,43.16948870780608L52.011633942921954,36.69679248280816L52.56856993993123,34.89292136194264L52.61498127301534,40.54404690424499L52.75421527226766,34.000947764520745L52.816097049713136,33.5656829460009L52.89344927151998,41.499113261736014L53.017212826410926,39.28675215114777L53.094565048217774,35.33682686514046L53.295680824915564,38.67853785156544L53.57414882342021,43.94878402068699L53.58961926778158,47.34159822531877L53.79073504447937,41.70304452442812L54.053732598622645,42.71766619589453L54.162025709152225,48.278395331744L54.301259708404544,50.45206883997039L54.64160948435465,50.394247997037745L54.73443215052287,44.62642970529979L54.81178437232971,41.554804724646274L54.99742970466614,44.70717057367308L55.35324992497762,46.09377438315347L55.44607259114583,47.10270510754385L55.693599700927734,50.413054544599675L55.740011034011836,45.26320299504718L55.755481478373206,49.9047599635159L55.83283370018005,51.56855107072619L55.879245033264155,50.232307282256066L56.09583125432333,50.116166725391786L56.55994458516439,53.41312075816146L56.6063559182485,52.99291028431589L56.68370814005534,41.52107317654281L56.80747169494629,48.09007097704616L57.024057916005454,49.28505373385164L57.085939693450925,53.83844182965049L57.31799635887146,55.0539943120718L57.75116880098979,58.44912113645953L58.354516131083166,56.041261554354364L58.66392501831055,55.5670550293526L59.08162701606751,63.55426229427068L59.128038349151616,63.83021687248936L59.17444968223572,67.07478078154121L59.18992012659709,63.73782066331263L59.329154125849406,63.26483906207447L59.684974346160885,61.92715209449244L59.839678789774574,61.372574997257104L60.44302611986796,64.32572403078163L60.45849656422933,73.67163725226116L60.59773056348165,67.17975210223777L60.61320100784302,68.54982402028816L60.69055322964986,64.37368464780667L60.7214941183726,55.60428838703129L60.767905451456706,52.866141195232316L61.06184389432271,61.05744585255039L61.12372567176819,61.171151336502945L61.54142766952515,59.59398950036978L62.160245443979896,61.48491978429454L62.26853855450948,66.0887844730604L62.299479443232215,60.41205560081718L62.67077010790507,64.47624705187303L63.08847210566203,69.07152802325096L63.42882188161214,70.02165384848281L63.56805588086446,68.41494895516715L63.69181943575541,64.76737014741292L63.8465238793691,60.592655904751524L63.86199432373047,59.721037331446354L64.094050989151,66.91726094228171L64.38798943201701,66.43982164575982L64.60457565307618,66.1099978606896L64.72833920796712,68.07592491053948L64.75928009668986,64.73852342470492L64.80569142977397,67.78514593237196L64.89851409594218,72.9711837515977L65.02227765083313,74.26253514776151L65.11510031700135,81.69573449704458L65.2852752049764,79.69094118699799L65.5328023147583,77.03116224049171L65.56374320348104,71.81074901363765L65.73391809145609,75.62380187511216L65.76485898017883,79.7886651133476L65.84221120198568,78.58937383975591L65.9350338681539,79.5922036887168L66.15162008921305,77.07960983794254L66.73949697494507,78.98582468451887L66.86326052983601,77.9457179838623L67.07984675089519,76.23845719518292L67.71413496971131,77.09017684893104L68.4103049659729,81.70401513534372L68.48765718777975,83.26550800256994L68.6578320757548,86.85354967711748L69.32306118329366,82.37439425123038L69.47776562690734,82.48498170840045L69.72529273668925,77.84925042996016L69.77170406977335,77.66721933602547L70.03470162391663,81.27659164329069L70.09658340136211,80.53007492256134L70.25128784497579,77.00447208448858L70.42146273295084,76.38574795003782L70.5452262878418,78.49290451913187L70.8855760637919,84.1453494140548L71.02481006304423,80.62250462802821L71.75192094802856,84.47888584963951L71.95303672472636,95.60490502258182L72.01491850217184,95.96589851591241L72.35526827812195,96.29848929037905L72.60279538790385,100.12785653182786L73.08237916310628,96.63451298388381L73.74760827064513,99.9476314547343L73.93325360298157,93.65436439712867L74.18078071276346,96.85462054288232L74.4592487112681,99.3764767208388L74.5520713774363,88.71509764146461L74.75318715413411,91.5069350200248L75.24824137369791,95.03082359062908L75.29465270678203,94.7093909716189L75.44935715039571,92.48950295884912L75.46482759475708,95.69549754903713L75.57312070528667,91.79145796394442L75.63500248273215,95.18485470100684L75.66594337145487,97.13943924674864L75.86705914815266,93.36535377528952L76.90357892036438,101.65306210399795L77.21298780759176,99.34565530330016L77.22845825195313,88.48024470641518L77.63068980534872,94.82288515297915L77.67710113843282,95.72304157388616L77.72351247151693,101.53806385948991L78.00198047002156,99.31688091035346L78.09480313618978,96.23310469590608L78.37327113469442,99.79906778158653L78.40421202341716,96.14133694150706L78.89926624298096,100.5570477590809L78.9302071317037,99.99122914840407L79.06944113095601,101.5010875631863L79.44073179562888,102.445340874316L79.51808401743571,97.91449630435656L79.53355446179707,90.10185114560348L79.64184757232665,99.73998654921162L79.82749290466309,102.81057659588551L79.99766779263815,101.86403639575467L80.44631067911783,102.87371339472116L80.50819245656331,92.75244931635801L80.69383778889974,97.23895469565599L80.78666045506795,87.90085016635936L80.83307178815207,92.80448410774338L80.89495356559753,99.03459303969038L81.12701023101806,98.58364593351635L81.32812600771587,97.26184986782032L81.4054782295227,96.65776883756483L81.6065940062205,98.77853723573529L81.8541211160024,101.49810231824424L82.1016482257843,103.17278512093965L82.16353000322978,101.42833719316758L82.39558666865031,98.08357745717841L82.56576155662536,104.07966850571444L82.5967024453481,110.36131995786013L82.61217288970948,110.23680919936236L82.64311377843221,106.34905022199486L82.73593644460043,112.30796882215863L82.78234777768452,110.0439249428054L82.92158177693685,108.19739006852393L83.02987488746643,112.04877446457844L83.12269755363464,107.84719595472191L83.26193155288696,109.78328618788228L83.32381333033244,104.31683046932716L83.61775177319844,104.14193982731683L83.66416310628256,94.89510594669594L83.86527888298035,104.33065189323877L83.91169021606446,103.86893027557062L84.01998332659403,111.53193514878322L84.53050799051921,106.42016282562868L84.66974198977154,103.12689143575369L84.74709421157837,110.94744473885459L85.01009176572164,110.7316217461618L85.33497109731039,105.31762107624455L85.35044154167176,99.5690270344903L85.36591198603313,99.72988957412579L85.48967554092407,105.20642891441518L85.55155731836955,102.13724048418189L85.59796865145366,104.30826139852557L85.9228479830424,108.02807076103272L86.0156706492106,109.65536320755562L86.40243175824483,106.52116653968478L86.57260664621988,105.09639616266315L86.94389731089275,105.72202778929703L86.9593677552541,112.42032935776086L87.06766086578368,110.19607739781442L87.14501308759054,108.0058113087367L87.74836041768393,108.54994274812375L88.11965108235677,104.76727031891777L88.33623730341594,109.30610128757627L88.46000085830688,110.750126773884L88.70752796808878,113.10389516032569L88.83129152297974,116.98550774114103L88.97052552223205,116.01691928668727L89.18711174329121,114.36219688155596L89.55840240796408,114.6500573763109L89.85234085083007,112.56576465282235L90.30098373730978,109.95607924863006L90.61039262453716,111.87025534391583L90.65680395762125,115.81248119578177L90.81150840123495,118.91131462932941L90.84244928995768,119.42002997703716L91.15185817718505,118.03871860829611L91.89443950653077,111.58050303886753L92.18837794939677,113.49893832465722L92.4668459479014,115.81413531777636L92.74531394640604,120.93387264773385L92.88454794565837,116.62477890129958L93.17848638852438,112.3476376447157L93.89012682914733,120.59494760448521L94.0603017171224,116.75245578456722L94.1067130502065,114.2033351218948L94.41612193743387,121.19847945137586L94.60176726977029,125.91140553048082L94.61723771413168,119.45397702057326L94.67911949157715,115.58419889743494L94.77194215774536,114.31191850696759L94.78741260210674,114.44885025756307L94.86476482391357,112.9220761521782L95.26699637730916,112.78963107117391L95.31340771039328,116.55905608329827L95.39075993220011,119.01066309413002L95.46811215400696,122.45228747268848L95.59187570889792,118.31599306030171L95.70016881942749,115.17511676678964L96.99968614578246,120.36016655149419L97.04609747886657,116.37660912619023L97.231742811203,117.27403577874176L97.29362458864848,113.4557953399642L97.63397436459859,116.47542306987783L98.06714680671692,119.30773240271716L98.48484880447388,122.16204284220674L98.63955324808757,126.23499220194581L99.04178480148316,116.94992377096429L99.19648924509684,118.9901668951447L99.50589813232422,124.45609240234904L99.79983657519023,123.08755598589218L100.32583168347676,123.55560413694575L100.68165190378825,125.93834969113321L101.2540583451589,127.94907279413509L101.30046967824299,126.9576340989152L101.33141056696573,122.9466969792775L101.65628989855449,127.14472716545424L101.95022834142048,124.26375414586366L102.18228500684103,125.50735330232885L102.1977554512024,129.08944182532713L102.24416678428649,125.71146889391348L102.32151900609335,120.3795839661311L102.52263478279113,117.53811347527726L102.58451656023661,119.23063814663017L102.63092789332073,123.49755605391941L102.70828011512756,122.71813793926272L103.06410033543905,126.98836136708475L103.24974566777547,124.42191381419666L103.31162744522095,112.38412267576453L103.35803877830504,119.20787686343076L103.60556588808694,126.62577499514428L104.02326788584391,125.88632157476056L104.14703144073486,122.49964282929612L104.25532455126444,118.42691315432566L104.50285166104634,122.6660631639386L104.56473343849183,114.59801212188016L104.98243543624878,120.21747626255724L104.99790588061015,122.00952035266761L105.3227852121989,125.37850176534405L105.33825565656026,129.98472239723282L105.369196545283,132.07375035516793L105.67860543251038,125.42573701858987L105.7714280986786,119.356790445835L105.8642507648468,124.1379100181717L105.98801431973776,126.62555087901923L106.42118676185608,128.82419635071517L106.7615365378062,135.43587662528472L106.85435920397441,135.70406314118898L107.00906364758809,134.58312974016542L107.844467643102,135.41350307203422L107.98370164235433,132.68849585268404L108.13840608596801,135.05017574551766L108.67987163861592,130.78405686857712L109.87109585444132,134.2380053238424L109.8865662988027,124.59376049897399L109.94844807624817,126.62415255466622L110.08768207550048,127.26750983251344L110.25785696347555,127.31227691916625L111.07779051462809,128.55310048509565L111.1706131807963,132.68819134329271L111.24796540260316,134.2785733091615L111.5264334011078,132.59951506046949L111.68113784472148,134.52820306538618L111.85131273269654,134.57664392701574L112.02148762067159,139.71469221983145L112.25354428609212,137.8203573488989L112.39277828534443,133.83658314010998L112.57842361768087,132.41648487700746L112.73312806129455,131.50379512100258L112.88783250490825,133.19756101533082L113.02706650416057,134.46599567761996L113.52212072372437,133.00549503643515L113.53759116808573,132.64523011147804L113.58400250116985,136.48939934602893L113.5994729455312,138.95456984820382L114.3420542748769,130.66231473155082L114.40393605232238,133.98657075997806L114.52769960721335,135.47525529353499L114.6978744951884,131.8791657407949L114.71334493954977,133.43708980583884L114.72881538391113,139.32338392386782L114.97634249369304,133.14203304023712L115.5332784907023,136.4336912096331L115.62610115687052,139.5522932020699L115.65704204559326,142.8706319330152L115.74986471176148,140.76767219989523L115.76533515612284,141.41009537840065L115.79627604484558,138.3321956090924L115.82721693356832,140.4028422371673L116.30680070877075,139.70149256605768L116.33774159749349,139.7395905377839L116.4305642636617,138.88013034840324L116.60073915163676,135.43095249090615L116.67809137344359,137.34306416616147L116.84826626141866,140.80353697991512L117.15767514864604,139.72760709972317L117.26596825917562,136.50760423920912L117.29690914789836,136.61490410764608L117.8229042561849,139.4330736371507L118.24060625394185,141.2278193764009L118.48813336372375,139.30075985835944L118.68924914042155,137.72689431046447L119.61747580210368,137.4613704507195L119.86500291188558,135.87702415151924L120.43740935325623,136.63206483726452L120.51476157506306,139.56394574702753L121.21093157132466,141.49732353215566L121.27281334877014,141.93955504509128L121.30375423749288,139.58015607960996L121.53581090291341,139.64427563440265L121.55128134727478,141.30767725481334L121.87616067886351,145.9282308107592L121.938042456309,136.3200724282442L122.07727645556132,132.50900793106757L122.1855695660909,135.6148356736967L122.3402740097046,131.05318252652705L123.98014111200969,135.3684466134664L124.22766822179159,137.59759285976523L124.32049088795979,139.9533840488474L124.4597248872121,135.475333485088L124.61442933082581,135.6334471794734L124.73819288571676,139.15340430213232L124.78460421880087,142.1907882850872L125.10948355038961,144.72322369408838L125.48077421506247,142.71708364365037L125.8056535466512,142.9112151051298L126.51729398727416,142.8771336242844L126.57917576471964,141.68470978063453L126.61011665344238,138.36203316510998L126.62558709780376,138.99578627930111L126.81123243014018,140.81135899388428L126.98140731811525,138.43622207078246L127.25987531661988,137.3255136674564L127.35269798278809,136.3192866856438L127.36816842714946,137.58925038617056L127.70851820309957,139.43719356878827L127.81681131362916,138.5634426168848L128.0333975346883,141.46702464849443L128.12622020085652,139.11151180465401L128.32733597755433,142.58703070937375L128.5284517542521,138.69639910614754L128.71409708658854,130.56625478213138L128.77597886403402,133.3104516546794L128.99256508509316,138.5458720770379L129.16273997306823,140.75821150831183L129.31744441668192,138.5549184344642L129.47214886029562,142.10109348658042L130.01361441294353,143.76812693842126L130.09096663475037,141.9939796756528L130.24567107836404,144.77270000693312L130.70978440920513,145.0503478041313L131.49877707163492,142.73643866555832L132.4115332889557,142.26855443875385L132.76735350926717,144.89646089497805L132.7982943979899,145.7086687770935L132.86017617543538,145.68331417563755L132.87564661979675,140.19743961719306L132.9065875085195,142.28155168333436L132.92205795288086,146.58663527942156L132.9529988416036,142.26664246849595L133.26240772883096,144.02592931067747L133.556346171697,143.84992454897187L133.58728706041973,147.07100497529257L134.15969350179037,145.31159283488893L134.19063439051308,145.75780104227383L134.2989275010427,146.5864649630229L134.40722061157228,144.1593970507552L134.4845728333791,143.6929448966009L134.76304083188376,144.26067991350686L135.05697927474975,146.29687650453803L135.16527238527934,142.9699372473324L135.22715416272482,145.4230943850469L135.76861971537272,145.26315054374598L136.3719670454661,141.22380612230353L136.40290793418885,143.09996419272218L136.5730828221639,144.53523131624132L136.80513948758443,143.8078401817037L137.45489815076192,146.67148472501862L137.62507303873699,146.34970843937333L138.8936494763692,143.5823692166325L139.4505854733785,146.14640123282126L139.80640569368998,142.21670636335026L140.02299191474916,141.2124873210265L140.10034413655598,139.05839539817364L140.1467554696401,142.48642146363085L140.76557324409484,143.2951245636697L140.92027768770853,143.77657384069744L140.9357481320699,144.45000189954234L140.99762990951538,145.006897340755L141.39986146291096,145.846903688982L141.46174324035644,148.16868006948758L141.70927035013833,148.83603811427585L142.1733836809794,146.1301228009562L142.5292039012909,148.76476643142055L142.68390834490458,146.1583774412704L142.94690589904783,146.57304335273705L143.6121350065867,142.76761453584447L144.0607778930664,145.22357889339486L144.52489122390747,144.92845301259055L144.83430011113484,146.1573995687302L145.01994544347127,145.50525659272049L145.3602952194214,147.87787779722711L145.73158588409424,148.48549471202801L146.98469187736512,148.8326962807535L147.13939632097882,146.73447467686108L147.21674854278564,145.61412289638307L147.47974609692892,144.87226602643096L147.75821409543357,147.9369034522585L147.97480031649272,148.75583913704486L148.85661564509073,149.64449763247814L148.9339678668976,149.92037317268833L149.21243586540223,144.9029573958876L150.07878074963887,142.51255889215358L150.29536697069804,144.99871944651105L150.32630785942078,147.0495909704068L150.5583645248413,146.92115109839813L150.58930541356406,149.5442767083474L151.13077096621194,151.1198913820617L151.23906407674153,148.3953453422242L151.4092389647166,150.09163702238143L151.78052962938943,148.48190596321683L152.01258629480998,147.7449945231322L152.95628340085347,145.6041809220871L153.08004695574442,143.68464945629995L153.26569228808086,144.1283412272869L153.66792384147644,147.24844183416553L154.07015539487202,149.08204144957142L154.7199140580495,148.5239795112084L154.82820716857913,150.42895426942235L154.99838205655414,152.0217829006364L155.0293229452769,151.664229240225L155.21496827761334,151.58869467980273L155.32326138814292,152.2989194289386L155.33873183250427,152.6198629058029L155.3851431655884,153.32229113404608L155.67908160845437,151.21310429700938L155.84925649642943,151.82905772602254L156.2205471611023,151.02836963874032L156.3288402716319,151.81093918195918L156.43713338216148,152.5267276888753L156.59183782577514,148.24679234992107L156.68466049194336,146.68483694717744L157.10236248970034,145.63071363266803L157.55100537618003,147.62170365801174L158.1079413731893,150.34860329902375L159.15993158976238,151.29791250280414L159.17540203412372,150.5585832066483L159.45387003262837,153.6480096043238L159.60857447624207,151.58788005521956L160.0572173627218,152.91037301282387L160.10362869580587,151.3109977846194L160.19645136197408,150.3665119742634L160.30474447250367,151.21292229011183L160.59868291536966,151.74947930605484L160.72244647026062,148.1851875816127L160.8307395807902,145.01407617888844L160.89262135823566,149.193058099065L160.95450313568114,149.98147225896008L161.21750068982442,150.67751960560392L161.2329711341858,150.74706598901668L161.26391202290853,152.4382454960708L161.41861646652222,152.31826312385726L161.49596868832907,152.47182026962258L161.5733209101359,152.48830691883254L161.69708446502685,149.11705814450025L161.77443668683372,149.56074525108193L161.8363184642792,150.78881919515302L162.19213868459065,149.3422689042525L162.68719290415444,150.07722105428607L162.73360423723855,152.15429299707503L163.18224712371824,148.59568626931454L163.19771756807964,149.53755361140458L163.73918312072752,146.81653375187105L163.89388756434124,147.86483200036042L164.14141467412313,151.06499774199312L164.21876689592997,152.46751839781172L164.26517822901408,151.00116539239744L164.40441222826638,149.4158560716816L165.31716844558716,150.70066082290387L165.5028137779236,151.22115685027416L165.61110688845318,147.09290380525857L165.71939999898277,146.91323454693327L165.87410444259643,147.2874662101472L165.8895748869578,150.0963470465148L166.1371019967397,152.53749050393867L166.80233110427855,152.82775189403242L167.1890922133128,153.10139223162818L167.60679421106974,153.22126083263356L167.6841464328766,153.21777932790937L167.85432132085162,154.2578542289602L167.86979176521302,150.2730766081744L167.9626144313812,150.4623138425952L168.30296420733134,149.31784673797188L168.3803164291382,150.46630762692226L168.95272287050884,150.29785644756137L169.463247534434,152.34076425417175L169.58701108932496,153.03224749300293L169.71077464421592,154.12916654786133L170.0047130870819,154.1956103854812L170.1594175306956,154.673169807418L170.23676975250243,153.36493173971746L170.28318108558656,151.3853539486888L171.13405552546183,151.01966290772728L171.28875996907553,152.02557834065922L171.31970085779827,151.90880922118268L171.35064174652098,153.11490968827735L171.38158263524375,150.25466511730903L171.81475507736207,151.94261310135818L171.8921072991689,152.1991504822174L172.0932230758667,150.33817062899791L172.24792751948038,151.86462006756676L172.5418659623464,150.88430132687324L172.74298173904418,153.01320274721522L172.75845218340555,152.13243014760613L172.78939307212832,153.3477818343212L173.65573795636496,151.1726918747591L173.70214928944904,153.20764770931132L173.8877946217855,152.4867453562937L174.01155817667646,151.6807917197964L174.05796950976054,153.37845843352937L174.07343995412188,151.63324946082545L174.3673783969879,151.84599531668454L174.49114195187886,153.11009671168284L174.50661239624026,151.97192819358781L174.6767872842153,153.88316783804174L174.73866906166074,153.17083661853067L174.9707257270813,152.72508941498185L175.1718415037791,151.50719515088596L175.40389816919964,152.64915409306343L175.77518883387248,153.62075179852852L175.80612972259522,154.16784638605728L176.19289083162943,154.93048912349525L176.34759527524315,154.93661416838847L176.47135883013405,155.5332461525207L176.92000171661377,155.31695981973644L177.18299927075705,154.3443096880579L177.27582193692527,153.21526290138985L177.38411504745483,153.18598418586495L177.56976037979126,153.2135654660362L177.600701268514,154.33077757174806L177.97199193318684,153.7263882366332L178.15763726552328,154.73028708519374L178.23498948733013,151.94212766485933L178.49798704147338,153.11221626192543L178.5443983745575,152.6172827297075L178.74551415125526,152.0235379156264L178.9311594835917,153.5118636363911L179.16321614901224,153.97694036906452L179.20962748209635,153.12021845136672L179.2869797039032,153.94082227596022L179.73562259038292,154.23277222339874L180.02956103324888,153.19209258642633L180.16879503250124,153.3756055003112L180.26161769866943,153.1833676685671L180.30802903175353,154.1541859101597L180.6793196964264,153.9920081674535L180.75667191823322,154.07206191720684L180.8649650287628,153.82132519164193L180.98872858365377,153.76140065090493L181.03513991673788,153.47344228181584L181.74678035736082,152.6563394814664L181.76225080172222,153.24596743509798L181.8241325791677,154.75628586834674L181.97883702278136,152.92767272129234L182.14901191075643,152.93668006140916L182.50483213106793,154.96859846370717L182.86065235137937,155.0364502645425L182.92253412882485,154.56702973270512L182.98441590627033,153.8967033758883L183.2474134604136,153.8531234220088L183.41758834838865,152.33795653915587L183.43305879275005,153.0646630947068L183.92811301231384,154.522518079414L184.0518765672048,155.50859576048472L184.34581501007082,153.19456954917396L184.37675589879353,152.48808494477848L184.51598989804586,152.69122687275868L185.10386678377787,153.935798432825L185.1348076725006,152.76349699142685L185.2431007830302,154.67914613075288L185.27404167175294,150.3700489709906L185.49062789281209,152.75937828441386L185.55250967025756,152.00617609151175L185.67627322514852,150.47247885043146L185.7845663356781,150.88802435643572L186.34150233268738,149.3764862982011L186.43432499885557,151.61513826552388L186.94484966278077,154.16068104336233L187.06861321767173,152.46350163240064L187.20784721692402,151.65457234207878L187.64101965904234,153.13967896160767L187.93495810190836,154.9542908484789L188.0741921011607,153.06742089418483L188.24436698913576,154.0927509465338L188.38360098838805,153.43475121151633L188.39907143274942,154.86024716316962L189.12618231773376,155.68139550886391L189.18806409517924,155.5011928947036L190.13176120122276,154.6764275407986L190.44117008845012,153.32034152460548L190.65775630950927,154.49038264638833L190.71963808695475,154.46300044482388L191.2301627508799,154.32278630650399L191.8799214140574,154.81223742259462L192.05009630203247,153.5338433612365L192.3749756336212,152.80918723989154L192.54515052159627,153.5414935610836L192.8390889644623,153.10358032627914L192.96285251935325,154.50936745301047L193.42696585019428,155.77661838645636L193.64355207125345,156.4392002534369L193.75184518178307,155.9965412464648L194.78836495399474,150.87229989522226L195.2060669517517,153.43948147333467L195.23700784047446,154.73623834135702L195.36077139536542,155.03784462657816L195.5928280607859,156.387157753611L195.62376894950867,156.7271570360486L196.5519956111908,155.75406171630306L196.86140449841818,155.84248371372811L196.92328627586366,155.5217572281137L197.0470498307546,155.8924895866515L197.49569271723428,155.68362967566807L197.60398582776386,154.65578449061383L197.6968084939321,154.04532418908698L198.08356960296632,154.22979613094247L198.2846853796641,154.4169598422391L198.40844893455505,155.2336287110441L198.48580115636187,153.8235465590358L198.59409426689146,155.2130466602234L198.7797395992279,154.55363676261683L199.01179626464844,154.20703440299556L200.20302048047384,154.68391928738308L200.29584314664206,155.3602185905529L200.5278998120626,156.251191541355L200.77542692184448,156.01665832657972L200.89919047673544,156.82003954100674L201.95118069330852,154.97053848651248L202.013062470754,156.13864507521754L202.16776691436766,156.2803583344515L202.21417824745177,155.77588345099284L202.38435313542684,157.12740267260685L202.49264624595642,155.9460474218138L203.12693446477255,156.5119263725878L203.21975713094074,152.97671703907625L203.65292957305905,149.20748711303276L203.90045668284097,150.99390621438133L203.9313975715637,152.5646940250032L203.94686801592508,154.28103617131563L204.05516112645466,154.6340057734854L204.08610201517743,155.2310809461809L204.11704290390014,154.89284353585285L204.194395125707,154.9950148637473L204.72039023399353,155.5051815450825L204.76680156707764,156.07310861269437L205.07621045430503,157.1484896511298L205.69502822875978,157.45722346881828L205.83426222801208,157.05565562257203L206.03537800470988,156.29064434323578L206.09725978215536,156.3026225150703L206.32931644757588,156.11209177299313L206.39119822502136,155.36606165432312L206.5149617799123,155.62095243094257L206.669666223526,155.65774523469287L207.0718977769216,152.64225467589733L207.33489533106484,150.940160491196L207.8144791062673,152.51662134034427L207.969183549881,154.57026540217436L208.03106532732647,154.97706457388034L208.38688554763792,156.27781027775933L208.6034717686971,156.9309452726317L208.78911710103353,154.01471193368286L209.36152354240417,154.94355485176604L209.42340531984965,155.42837311505784L209.48528709729513,155.80441666064766L209.56263931910198,156.54049286513845L209.57810976346335,155.59167228374446L209.8101664288839,156.66710363452395L210.0886344273885,156.2400669717259L210.13504576047262,156.0181411830979L210.3825728702545,156.46846221504407L210.87762708981833,156.3749925318123L210.92403842290244,157.04118888448326L211.0942133108775,157.15820794433847L211.4345630868276,156.4984735651895L211.52738575299583,157.0742445401095L211.8367946402232,156.40588668822744L211.85226508458456,156.39967033785737L212.0688513056437,157.246706987725L212.85784396807352,157.47967740272063L212.98160752296448,157.0147684915679L213.18272329966226,156.88356631400873L213.29101641019184,156.802493267424L213.7706001853943,156.93858351979617L214.0645386282603,156.16922623820798L214.17283173878988,154.96514793788944L214.52865195910135,155.5227579659354L214.83806084632872,155.86376677060608L214.9154130681356,156.6838420221174L215.3331150658925,156.99529313507952L215.6425239531199,157.55099503390605L215.67346484184264,157.78610853968704L215.76628750801086,155.478574300681L215.81269884109497,154.54159478809828L215.85911017417908,156.36243017185967L216.66357328097024,156.1230136263362L216.694514169693,156.48498780959974L216.84921861330668,156.2112710815799L216.89562994639078,155.78874159603106L217.05033439000448,156.3057617329047L217.39068416595458,156.15160314448093L217.43709549903872,155.59226309436863L217.60727038701376,155.97705093541347L217.65368172009786,155.08582517177447L218.22608816146848,155.77289216102614L218.24155860582988,156.45342669852315L218.55096749305727,156.8689006303377L218.90678771336871,155.0689864986406L219.6184281539917,155.832826715486L219.78860304196675,154.653192895911L219.8195439306895,155.23512154552162L219.89689615249634,153.95131373591815L219.9123665968577,154.63776052958912L220.06707104047138,155.35510983926568L220.20630503972373,156.11361165922696L220.29912770589192,154.21133832480425L221.55223369916283,154.6970599733975L222.00087658564252,155.89241854667188L222.1091696961721,156.27120359918155L222.1401105848948,157.0067934434047L222.18652191797892,156.74622643712942L222.356696805954,157.08122842260147L222.46498991648355,157.22152532386474L222.55781258265176,157.1082062950744L222.944573691686,156.77035270715473L223.88827079772952,156.35916859795833L224.10485701878866,155.714328139945L224.15126835187277,155.51720438764883L224.32144323984784,156.76374777544808L224.49161812782287,156.49562411770523L224.5225590165456,156.87878578777406L224.67726346015928,156.40852568204312L225.125906346639,155.53610736354796L225.80660589853923,156.49332170634295L225.89942856470742,156.33116371994606L226.4099532286326,156.82310229689296L226.4718350060781,157.1982980966104L226.71936211586,155.66796411617523L226.8121847820282,154.83952180645852L227.04424144744874,155.32261757800842L227.13706411361693,156.37794192966024L227.33817989031476,156.88997293353324L227.50835477828977,156.89325363179034L227.52382522265117,156.80421461029908L227.6940001106262,156.42840683232671L227.86417499860127,155.78176471839936L228.2045247745514,156.79414266017181L228.40564055124918,155.9985605075511L228.77693121592205,156.55798561558458L228.7924016602834,155.64925172958047L228.80787210464476,156.76600568858015L228.85428343772887,156.94956633859425L229.2874558798472,157.28466136268383L229.34933765729266,157.44747810404593L229.36480810165406,156.23039847760828L230.63338453928628,157.2802954325279L231.4687885348002,156.1714158066037L231.48425897916158,156.83803030412165L231.74725653330484,156.8093453840817L231.99478364308675,154.8433013473299L232.35060386339822,156.20958051228902L232.39701519648236,156.97611539535922L232.59813097318013,156.42919761663833L232.87659897168479,156.60973322150582L232.9075398604075,156.20326848657365L232.93848074913026,156.874828957057L233.09318519274393,157.17098154273808L233.46447585741677,156.21417899603816L233.60370985666913,155.9367596763077L233.74294385592142,156.90218097231482L234.1142345205943,157.39223910909482L234.26893896420796,156.18559436956033L234.31535029729207,157.24023342450673L234.6402296288808,157.39355585494428L234.88775673866272,156.54835640630913L234.91869762738546,156.8362963548023L235.16622473716737,155.00361399694438L235.46016318003336,156.2091997762875L235.47563362439473,155.5526677700263L235.80051295598346,155.724782999361L235.9397469552358,156.28509811714818L235.9861582883199,155.78637047577075L236.0016287326813,154.0654335393274L236.01709917704264,155.20881885798207L236.41933073043822,155.38511039351116L236.80609183947246,156.42604494647546L237.19285294850667,156.72922570215576L237.44038005828858,157.07580495359218L238.04372738838197,157.59361875322807L238.29125449816388,157.78765092765252L238.43048849741618,156.58768373976847L238.97195405006408,156.05753294413424L239.09571760495504,154.88404601844218L240.2560009320577,156.28774987670528L241.18422759373985,156.76077350123117L241.21516848246256,157.2658472189088L241.33893203735352,157.53907824493334L241.400813814799,156.7919870616977L241.50910692532858,156.67978620586987L241.57098870277406,157.22494699143627L241.8494567012787,157.0022752316916L242.00416114489238,156.8265613305889L242.25168825467426,156.75719300401497L242.29809958775837,157.19148090323495L242.3445109208425,156.9326865512768L242.53015625317892,157.70115383359322L242.76221291859943,157.22979377076817L243.05615136146545,157.3669103156081L243.22632624944052,157.37948544626235L243.35008980433147,157.47639664652445L243.44291247049966,157.9724569616762L243.76779180208842,157.54124971385318L243.79873269081114,157.68655920507007L244.29378691037496,156.6670797256072L244.54131402015685,157.00446613153403L245.0208977953593,157.58976615455805L245.05183868408204,157.9364141693193L245.33030668258667,157.96469084274983L245.6706564585368,158.15610206441588L245.96459490140282,157.75079779257564L246.1192993450165,157.4032812620805L246.5524717871348,157.80788957244312L246.6607648976644,156.25637489029114L246.93923289616902,156.97477077425333L247.03205556233723,157.61288391542098L247.10940778414408,157.2356008238026L247.21770089467367,156.6235700980552L248.25422066688537,157.37771521210732L248.45533644358318,155.48414560312588L248.65645222028095,156.27976230981596L248.68739310900372,155.7565159374805L249.0277428849538,156.50967016140294L249.46091532707214,157.31206995225565L249.49185621579488,157.2642213319446L249.83220599174498,156.17651871614558L250.49743509928385,156.1033560958717L250.71402132034302,156.38706081201917L250.74496220906576,156.95178803496063L251.2245459842682,156.49519729166857L251.3637799835205,156.65626576021066L251.42566176096597,157.27347430014282L251.6113070933024,157.4671249529061L251.67318887074788,157.53762789464992L252.2610657564799,158.04385937898496L252.52406331062318,157.76167203524508L252.87988353093465,157.52785825869347L253.20476286252338,157.74481400461104L253.62246486028036,157.76048710851623L254.8910412979126,157.97160167466248L255.01480485280356,158.1496167387577L255.44797729492188,157.69210615457595L255.54079996109007,157.93503160947492L255.6800339603424,156.87517714510963L255.6955044047038,157.4107004812052L255.75738618214925,157.76133774160098L255.85020884831746,158.06157616555157L256.4690266227722,156.53871646221185L257.07237395286563,156.66133408855472L257.3508419513702,156.70668378377007L258.4647139453888,156.55207469834565L258.5420661671956,156.6001441798289L258.74318194389343,157.1760838949558L258.851475054423,157.5549150468112L258.9597681649526,157.46548824734026L259.4702928288778,157.56974171304446L259.9653470484416,157.3382282971485L260.0117583815257,157.20282336039253L260.4604012680054,157.27522741488656L261.21845304171245,157.21747153359092L261.9300934823354,156.60147276411018L262.14667970339457,157.3762890038628L262.5798521455129,157.47491973234398L262.9820836989085,157.34483209005654L262.99755414326984,157.57689072637993" fill="none"></path></g></g></g></g><g opacity="0.2"><g><g><g><path style="fill: none;" stroke="rgb(255, 112, 67)" stroke-width="2px" d="M38.38217246055603,-10.849238273840466L38.50593601544698,0.5701744754696918L38.8926971244812,-4.394508000787031L40.59444600423177,-5.875246826555671L40.62538689295451,1.7630701181333297L40.84197311401367,4.153699618665991L40.85744355837504,1.5716237797532795L40.96573666890462,-11.220617223276346L41.0740297794342,5.1837495115687435L41.46079088846842,6.720832109349438L41.81661110877991,2.895028746501346L41.83208155314128,1.7830966544897784L42.00225644111634,17.054034923436117L42.23431310653687,9.773562174254035L43.22442154566447,14.08453440871017L43.23989199002583,6.485168158586012L43.27083287874857,13.900498501214312L43.36365554491679,6.311053654422723L43.44100776672363,8.833907289492345L43.750416653951014,17.478450510439867L44.02888465245565,13.845257107350331L44.07529598553975,12.634294711704575L44.16811865170797,16.434865863608135L44.30735265096029,26.426025235643458L45.28199064572652,12.79505819163023L45.42122464497884,18.412654747691697L45.66875175476074,32.331464974809926L46.02457197507222,14.220249407382662L46.0400424194336,13.135570552920406L46.163805974324546,15.584687338530781L46.303039973576865,26.259382405594813L46.38039219538371,26.3171960151376L46.64338974952698,28.61694056168562L46.95279863675435,13.206980159622624L47.16938485781352,10.628640157767224L47.26220752398173,28.356840561973506L47.2776779683431,16.707214509409827L47.35503019014994,24.14140776701607L48.066670630772904,34.78076549011167L48.082141075134274,18.42955787929531L48.11308196385701,33.26034105101281L48.25231596310933,26.219696792264592L48.4224908510844,25.559494768036537L49.010367736816406,35.520583713921944L49.24242440223694,33.81544969179232L49.30430617968241,18.53893828887522L49.48995151201884,23.73034320424995L50.186121508280436,33.82114531222396L50.38723728497823,31.725769425680472L50.75852794965108,40.35647167654679L50.773998394012445,50.76782085268497L50.9441732819875,44.42859531225621L51.315463946660365,39.66025863281539L51.81051816622416,43.84666213654054L51.96522260983785,44.534668587391934L52.011633942921954,26.987748145311354L52.56856993993123,32.18711468064431L52.61498127301534,49.02073521769853L52.75421527226766,24.186299054934352L52.816097049713136,32.91278571822112L52.89344927151998,53.399258735338655L53.017212826410926,35.968210485265445L53.094565048217774,29.41193893612944L53.295680824915564,43.69110433120294L53.57414882342021,51.85415327436931L53.58961926778158,52.43081953226647L53.79073504447937,33.24521397309218L54.053732598622645,44.23959870309409L54.162025709152225,56.61948903551819L54.301259708404544,53.71257910230997L54.64160948435465,50.30751673263877L54.73443215052287,35.97470226769291L54.81178437232971,36.94736725366602L54.99742970466614,49.43571934721331L55.35324992497762,48.17368009737401L55.44607259114583,48.61610119412945L55.693599700927734,55.37857870018342L55.740011034011836,37.53842567071842L55.755481478373206,56.86709541621895L55.83283370018005,54.064237731541645L55.879245033264155,48.22794159955084L56.09583125432333,49.94195589009541L56.55994458516439,58.35855180731596L56.6063559182485,52.36259457354753L56.68370814005534,24.313317514883227L56.80747169494629,57.943567677801184L57.024057916005454,51.07752786905986L57.085939693450925,60.66852397334878L57.31799635887146,56.877323035703746L57.75116880098979,63.54181137304113L58.354516131083166,52.429472181196616L58.66392501831055,54.85574524184994L59.08162701606751,75.53507319164783L59.128038349151616,64.2441487398173L59.17444968223572,71.94162664511896L59.18992012659709,58.73238048596977L59.329154125849406,62.55536666021725L59.684974346160885,59.92062164311937L59.839678789774574,60.54070935140408L60.44302611986796,68.75544758106844L60.45849656422933,87.69050708448049L60.59773056348165,57.441924377202675L60.61320100784302,70.6049318973637L60.69055322964986,58.109475589084475L60.7214941183726,42.45019399586817L60.767905451456706,48.758920407533886L61.06184389432271,73.34440283852746L61.12372567176819,61.341709562431795L61.54142766952515,57.22824674617005L62.160245443979896,64.32131521018164L62.26853855450948,72.99458150620922L62.299479443232215,51.896962292452365L62.67077010790507,70.5725342284568L63.08847210566203,75.96444948031785L63.42882188161214,71.4468425863306L63.56805588086446,66.00489161519363L63.69181943575541,59.296001935781526L63.8465238793691,54.330584540759446L63.86199432373047,58.41360947148859L64.094050989151,77.71159635853472L64.38798943201701,65.723662700977L64.60457565307618,65.61526218308427L64.72833920796712,71.02481548531432L64.75928009668986,59.73242119595307L64.80569142977397,72.35507969387255L64.89851409594218,80.75024048043633L65.02227765083313,76.19956224200723L65.11510031700135,92.8455335209692L65.2852752049764,76.6837512219281L65.5328023147583,73.0414938207323L65.56374320348104,63.98012917335654L65.73391809145609,81.34338116732395L65.76485898017883,86.03595997070079L65.84221120198568,76.7904369293683L65.9350338681539,81.09644846215815L66.15162008921305,73.31071906178113L66.73949697494507,81.8451469543834L66.86326052983601,76.38555793287742L67.07984675089519,73.67756601216387L67.71413496971131,78.36775632955322L68.4103049659729,88.62477256496277L68.48765718777975,85.60774730340925L68.6578320757548,92.23561218893883L69.32306118329366,75.65566111239968L69.47776562690734,82.6508628941556L69.72529273668925,70.89565351229976L69.77170406977335,77.39417269512343L70.03470162391663,86.69065010418853L70.09658340136211,79.41029984146735L70.25128784497579,71.71606782737945L70.42146273295084,75.45766174836172L70.5452262878418,81.65363937277289L70.8855760637919,92.62401675643925L71.02481006304423,75.33823744898835L71.75192094802856,90.26345768205648L71.95303672472636,112.29393378199528L72.01491850217184,96.50738875590832L72.35526827812195,96.79737545207898L72.60279538790385,105.87190739400101L73.08237916310628,91.39449766196775L73.74760827064513,104.91730916101004L73.93325360298157,84.2144638107202L74.18078071276346,101.65500476151283L74.4592487112681,103.15926098777345L74.5520713774363,72.72302902240334L74.75318715413411,95.69469108786505L75.24824137369791,100.31665644653548L75.29465270678203,94.22724204310363L75.44935715039571,89.15967093969448L75.46482759475708,100.5044894343191L75.57312070528667,85.93539858630538L75.63500248273215,100.2749498066005L75.66594337145487,100.0713160653613L75.86705914815266,87.7042255681008L76.90357892036438,114.08462459706062L77.21298780759176,95.88454510225345L77.22845825195313,72.18212881108775L77.63068980534872,104.33684582282513L77.67710113843282,97.07327620524666L77.72351247151693,110.26059728789551L78.00198047002156,95.98510648664889L78.09480313618978,91.60744037423503L78.37327113469442,105.14801241010719L78.40421202341716,90.65474068138793L78.89926624298096,107.18061398544158L78.9302071317037,99.14250123238891L79.06944113095601,103.7658751853596L79.44073179562888,103.86172084101055L79.51808401743571,91.11822944941743L79.53355446179707,78.38288340747386L79.64184757232665,114.19718965462378L79.82749290466309,107.41646166589636L79.99766779263815,100.4442260955584L80.44631067911783,104.38822889317088L80.50819245656331,77.57055319881329L80.69383778889974,103.96871276460298L80.78666045506795,73.89369337241443L80.83307178815207,100.15993501981939L80.89495356559753,108.37975643761091L81.12701023101806,97.90722527425532L81.32812600771587,95.27915576927626L81.4054782295227,95.75164729218159L81.6065940062205,101.959689832991L81.8541211160024,105.57744994200768L82.1016482257843,105.68480932498278L82.16353000322978,98.81166530150948L82.39558666865031,93.06643785319464L82.56576155662536,113.07380507851849L82.5967024453481,119.78379713607866L82.61217288970948,110.05004306161571L82.64311377843221,100.5174117559436L82.73593644460043,121.24634672240428L82.78234777768452,106.64785912377555L82.92158177693685,105.42758775710172L83.02987488746643,117.82585105866019L83.12269755363464,101.54482818993712L83.26193155288696,112.68742153762288L83.32381333033244,96.1171468914945L83.61775177319844,103.8796038643013L83.66416310628256,81.02485512576459L83.86527888298035,118.48397081305302L83.91169021606446,103.17634784906842L84.01998332659403,123.02644245860212L84.53050799051921,98.75250434089683L84.66974198977154,98.1869843509412L84.74709421157837,122.67827469350595L85.01009176572164,110.40788725712264L85.33497109731039,97.19662007136867L85.35044154167176,90.9461359718589L85.36591198603313,99.97118338357903L85.48967554092407,113.42123792484927L85.55155731836955,97.53345783883196L85.59796865145366,107.56479277004111L85.9228479830424,113.6077848047935L86.0156706492106,112.09630187734001L86.40243175824483,101.8198715378785L86.57260664621988,102.9592405971307L86.94389731089275,106.66047522924782L86.9593677552541,122.4677817104566L87.06766086578368,106.85969945789475L87.14501308759054,104.72041217512016L87.74836041768393,109.36613990720433L88.11965108235677,99.09326167510879L88.33623730341594,116.11434774056396L88.46000085830688,112.91616500334567L88.70752796808878,116.63454773998818L88.83129152297974,122.80792661236411L88.97052552223205,114.56403660500655L89.18711174329121,111.88011327385902L89.55840240796408,115.0818481184433L89.85234085083007,109.43932556758955L90.30098373730978,106.04155114234162L90.61039262453716,114.74151948684447L90.65680395762125,121.72581997358066L90.81150840123495,123.55956477965083L90.84244928995768,120.18310299859877L91.15185817718505,115.96675155518462L91.89443950653077,101.89317968472459L92.18837794939677,116.37659125334177L92.4668459479014,119.28693080745506L92.74531394640604,128.6134786426701L92.88454794565837,110.16113828164818L93.17848638852438,105.93192575983996L93.89012682914733,132.96591254413943L94.0603017171224,110.98871805469025L94.1067130502065,110.37965412788617L94.41612193743387,131.69119594559743L94.60176726977029,132.98079464913826L94.61723771413168,109.76783425571195L94.67911949157715,109.77953171272748L94.77194215774536,112.40349792126653L94.78741260210674,114.65424788345626L94.86476482391357,110.63191499410097L95.26699637730916,112.59096344966748L95.31340771039328,122.21319360148483L95.39075993220011,122.6880736103776L95.46811215400696,127.61472404052621L95.59187570889792,112.11155144172155L95.70016881942749,110.46380232652155L96.99968614578246,128.13774122855102L97.04609747886657,110.40127298823427L97.231742811203,118.62017575756909L97.29362458864848,107.7284346817978L97.63397436459859,121.00486466474831L98.06714680671692,123.5561964019762L98.48484880447388,126.4435085014411L98.63955324808757,132.3444162415544L99.04178480148316,103.02232112449202L99.19648924509684,122.05053158141527L99.50589813232422,132.65498066315558L99.79983657519023,121.03475136120686L100.32583168347676,124.25767636352613L100.68165190378825,129.5124680224144L101.2540583451589,130.9651574486379L101.30046967824299,125.4704760560853L101.33141056696573,116.93029129982095L101.65628989855449,133.4417724447194L101.95022834142048,119.94229461647772L102.18228500684103,127.37275203702667L102.1977554512024,134.46257460982451L102.24416678428649,120.64450949679303L102.32151900609335,112.38175657445754L102.52263478279113,113.27590773899647L102.58451656023661,121.76942515365954L102.63092789332073,129.89793291485333L102.70828011512756,121.54901076727764L103.06410033543905,133.3936965088178L103.24974566777547,120.57224248486456L103.31162744522095,94.32743596811633L103.35803877830504,129.4435081449301L103.60556588808694,137.75262219271463L104.02326788584391,124.77714144418495L104.14703144073486,117.41962471109946L104.25532455126444,112.31781864186996L104.50285166104634,129.024788178358L104.56473343849183,102.49593555879257L104.98243543624878,128.64667247357283L104.99790588061015,124.69758648783319L105.3227852121989,130.43197388435874L105.33825565656026,136.8940533450659L105.369196545283,135.20729229207063L105.67860543251038,115.45371701372278L105.7714280986786,110.25337058670264L105.8642507648468,131.30958937667674L105.98801431973776,130.35701217029055L106.42118676185608,132.1221645582591L106.7615365378062,145.35339703713908L106.85435920397441,136.1063429150454L107.00906364758809,132.90172963863006L107.844467643102,136.65906306983743L107.98370164235433,128.60098502365872L108.13840608596801,138.59269558476808L108.67987163861592,124.38487855316635L109.87109585444132,139.41892800674032L109.8865662988027,110.12739326167137L109.94844807624817,129.66974063820453L110.08768207550048,128.23254574928433L110.25785696347555,127.37942754914546L111.07779051462809,130.41433583398972L111.1706131807963,138.89082763058832L111.24796540260316,136.6641462579646L111.5264334011078,130.08092768743154L111.68113784472148,137.4212350727612L111.85131273269654,134.64930521946008L112.02148762067159,147.42176465905504L112.25354428609212,134.97885504250007L112.39277828534443,127.86092182692664L112.57842361768087,130.28633748235367L112.73312806129455,130.1347604869952L112.88783250490825,135.73820985682323L113.02706650416057,136.36864767105362L113.52212072372437,130.81474407465794L113.53759116808573,132.10483272404235L113.58400250116985,142.25565319785528L113.5994729455312,142.65232560146615L114.3420542748769,118.22393205657136L114.40393605232238,138.97295480261891L114.52769960721335,137.70828209387037L114.6978744951884,126.48503141168474L114.71334493954977,135.7739759034048L114.72881538391113,148.1528251009113L114.97634249369304,123.87000671479109L115.5332784907023,141.37117846372712L115.62610115687052,144.2301961907251L115.65704204559326,147.84814002943313L115.74986471176148,137.61323260021527L115.76533515612284,142.37373014615878L115.79627604484558,133.71534595513003L115.82721693356832,143.50881217927963L116.30680070877075,138.64946805939326L116.33774159749349,139.79673749537324L116.4305642636617,137.59094006433224L116.60073915163676,130.25718570466051L116.67809137344359,140.21123167904443L116.84826626141866,145.9942462005456L117.15767514864604,138.11371227943528L117.26596825917562,131.677599948438L117.29690914789836,136.77585391030152L117.8229042561849,143.66032793140766L118.24060625394185,143.9199379852762L118.48813336372375,136.41017058129728L118.68924914042155,135.36609598862196L119.61747580210368,137.06308466110204L119.86500291188558,133.5005047027189L120.43740935325623,137.7646258658824L120.51476157506306,143.9617671116721L121.21093157132466,144.3973902098478L121.27281334877014,142.6029023144947L121.30375423749288,136.04105763138796L121.53581090291341,139.74045496659164L121.55128134727478,143.8027796854294L121.87616067886351,152.85906114467798L121.938042456309,121.90783485447172L122.07727645556132,126.79241118530263L122.1855695660909,140.27357728764036L122.3402740097046,124.21070280577258L123.98014111200969,141.84134274387543L124.22766822179159,140.9413122292135L124.32049088795979,143.48707083247064L124.4597248872121,128.75825763944886L124.61442933082581,135.87061772105153L124.73819288571676,144.4333399861207L124.78460421880087,146.7468642595195L125.10948355038961,148.52187680759016L125.48077421506247,139.70787356799337L125.8056535466512,143.20241229734893L126.51729398727416,142.8260114030163L126.57917576471964,139.89607401515968L126.61011665344238,133.37801824182316L126.62558709780376,139.94641595058783L126.81123243014018,143.53471806575908L126.98140731811525,134.87351668612973L127.25987531661988,135.65945106246727L127.35269798278809,134.80994621292484L127.36816842714946,139.49419593696075L127.70851820309957,142.2091083427149L127.81681131362916,137.25281618902955L128.0333975346883,145.82239769590888L128.12622020085652,135.5782425388934L128.32733597755433,147.80030906645334L128.5284517542521,132.8604517013082L128.71409708658854,118.37103829610713L128.77597886403402,137.4267469635015L128.99256508509316,146.3990027105756L129.16273997306823,144.07672065522274L129.31744441668192,135.2499788236928L129.47214886029562,147.42035606475474L130.01361441294353,146.26867711618252L130.09096663475037,139.33275878150016L130.24567107836404,148.9407805038536L130.70978440920513,145.46681949992853L131.49877707163492,139.26557495769885L132.4115332889557,141.56672809854717L132.76735350926717,148.8383205793143L132.7982943979899,146.9269806002667L132.86017617543538,145.64528227345363L132.87564661979675,131.9686277795263L132.9065875085195,145.40771978254634L132.92205795288086,153.04426067355234L132.9529988416036,135.7866532521075L133.26240772883096,146.6648595739498L133.556346171697,143.5859174064135L133.58728706041973,151.90262561477357L134.15969350179037,142.6724746242835L134.19063439051308,146.42711335335116L134.2989275010427,147.82946084414652L134.40722061157228,140.51879518235364L134.4845728333791,142.99326666536945L134.76304083188376,145.1122824388658L135.05697927474975,149.3511713910848L135.16527238527934,137.979528361524L135.22715416272482,149.10283009161867L135.76861971537272,145.0232347817946L136.3719670454661,135.1647894901398L136.40290793418885,145.91420129835024L136.5730828221639,146.68813200152L136.80513948758443,142.7167534798973L137.45489815076192,150.966951539991L137.62507303873699,145.86704401090537L138.8936494763692,139.43136038252123L139.4505854733785,149.99244925710445L139.80640569368998,136.3221640591437L140.02299191474916,139.70615875754083L140.10034413655598,135.82725751389444L140.1467554696401,147.6284605618166L140.76557324409484,144.508179213728L140.92027768770853,144.49874775623903L140.9357481320699,145.46014398780972L140.99762990951538,145.842240502574L141.39986146291096,147.10691321132254L141.46174324035644,151.65134464024595L141.70927035013833,149.8370751814582L142.1733836809794,142.07124983097674L142.5292039012909,152.71673187711713L142.68390834490458,142.24879395604512L142.94690589904783,147.19504221993702L143.6121350065867,137.05947131050561L144.0607778930664,148.9075254297204L144.52489122390747,144.48576419138408L144.83430011113484,148.00081940293967L145.01994544347127,144.52704212870594L145.3602952194214,151.43680960398706L145.73158588409424,149.39692008422935L146.98469187736512,149.3534986338418L147.13939632097882,143.58714227102246L147.21674854278564,143.93359522566607L147.47974609692892,143.75948072150277L147.75821409543357,152.53385959099978L147.97480031649272,149.98424266422444L148.85661564509073,150.97748537562802L148.9339678668976,150.33418648300358L149.21243586540223,137.37683373068649L150.07878074963887,138.92696113655256L150.29536697069804,148.72796027804725L150.32630785942078,150.12589825625037L150.5583645248413,146.72849129038514L150.58930541356406,153.47896512327134L151.13077096621194,153.48331339263314L151.23906407674153,144.30852628246794L151.4092389647166,152.63607454261728L151.78052962938943,146.06730937446991L152.01258629480998,146.63962736300527L152.95628340085347,142.3929605205194L153.08004695574442,140.80535225761923L153.26569228808086,144.79387888376732L153.66792384147644,151.92859274448347L154.07015539487202,151.8324408726803L154.7199140580495,147.68688660366388L154.82820716857913,153.28641640674323L154.99838205655414,154.4110258474575L155.0293229452769,151.127898749608L155.21496827761334,151.47539283916922L155.32326138814292,153.36425655264247L155.33873183250427,153.1012781210993L155.3851431655884,154.37593347641086L155.67908160845437,148.04932404145438L155.84925649642943,152.75298786954227L156.2205471611023,149.827337507817L156.3288402716319,152.98479349678746L156.43713338216148,153.60041044924947L156.59183782577514,141.82688934148973L156.68466049194336,144.34190384306203L157.10236248970034,144.0495286609039L157.55100537618003,150.60818869602736L158.1079413731893,154.43895276054172L159.15993158976238,152.72187630847475L159.17540203412372,149.44958926241452L159.45387003262837,158.282149200837L159.60857447624207,148.49768573156325L160.0572173627218,154.8941124492303L160.10362869580587,148.91193494231266L160.19645136197408,148.94978325872944L160.30474447250367,152.48253776388447L160.59868291536966,152.55431482996937L160.72244647026062,142.83874999494947L160.8307395807902,140.25740907480213L160.89262135823566,155.46153097932984L160.95450313568114,151.16409349880269L161.21750068982442,151.72159062556966L161.2329711341858,150.85138556413585L161.26391202290853,154.97501475665194L161.41861646652222,152.13828956553698L161.49596868832907,152.70215598827053L161.5733209101359,152.5130368926475L161.69708446502685,144.06018498300182L161.77443668683372,150.22627591095443L161.8363184642792,152.63093011125966L162.19213868459065,147.17244346790176L162.68719290415444,151.17964927933645L162.73360423723855,155.26990091125845L163.18224712371824,143.2577761776738L163.19771756807964,150.9503546245396L163.73918312072752,142.73500396257077L163.89388756434124,149.4372793730945L164.14141467412313,155.8652463544422L164.21876689592997,154.57129938153957L164.26517822901408,148.80163588427604L164.40441222826638,147.03789209060778L165.31716844558716,152.62786794973727L165.5028137779236,152.00190089132957L165.61110688845318,140.90052423773523L165.71939999898277,146.64373065944528L165.87410444259643,147.84881370496805L165.8895748869578,154.30966830106627L166.1371019967397,156.19920569007445L166.80233110427855,153.26314397917304L167.1890922133128,153.51185273802184L167.60679421106974,153.40106373414164L167.6841464328766,153.2125570708231L167.85432132085162,155.81796658053645L167.86979176521302,144.29591017699568L167.9626144313812,150.7461696942264L168.30296420733134,147.60114608103686L168.3803164291382,152.18899896034782L168.95272287050884,150.04517967852007L169.463247534434,155.40512596408735L169.58701108932496,154.06947235124971L169.71077464421592,155.7745451301489L170.0047130870819,154.29527614191102L170.1594175306956,155.38950894032314L170.23676975250243,151.4025746381667L170.28318108558656,148.4159872621458L171.13405552546183,150.47112634628502L171.28875996907553,153.5344514900571L171.31970085779827,151.7336555419679L171.35064174652098,154.92406038891932L171.38158263524375,145.9642982608566L171.81475507736207,154.47453507743194L171.8921072991689,152.58395655350614L172.0932230758667,147.5467008491687L172.24792751948038,154.15429422542002L172.5418659623464,149.41382321583296L172.74298173904418,156.2065548777282L172.75845218340555,150.8112712481925L172.78939307212832,155.1708093643938L173.65573795636496,147.91005693541592L173.70214928944904,156.26008146113963L173.8877946217855,151.4053918267673L174.01155817667646,150.4718612650504L174.05796950976054,155.92495850412888L174.07343995412188,149.01543600176956L174.3673783969879,152.16511410047315L174.49114195187886,155.00624880418036L174.50661239624026,150.26467541644524L174.6767872842153,156.7500273047226L174.73866906166074,152.10233978926408L174.9707257270813,152.05646860965862L175.1718415037791,149.6803537547421L175.40389816919964,154.36209250632965L175.77518883387248,155.07814835672616L175.80612972259522,154.98848826735048L176.19289083162943,156.07445322965214L176.34759527524315,154.9458017357283L176.47135883013405,156.42819412871904L176.92000171661377,154.99253032056004L177.18299927075705,152.88533449054012L177.27582193692527,151.5216927213878L177.38411504745483,153.1420661125776L177.56976037979126,153.25493738629302L177.600701268514,156.0065957303159L177.97199193318684,152.8198042339609L178.15763726552328,156.23613535803452L178.23498948733013,147.75988853435774L178.49798704147338,154.8673491575246L178.5443983745575,151.87488243138068L178.74551415125526,151.13292069450472L178.9311594835917,155.7443522175381L179.16321614901224,154.6745554680747L179.20962748209635,151.83513557482001L179.2869797039032,155.1717280128505L179.73562259038292,154.67069714455647L180.02956103324888,151.6310731309677L180.16879503250124,153.6508748711385L180.26161769866943,152.89501092095088L180.30802903175353,155.6104132725486L180.6793196964264,153.7487415533942L180.75667191823322,154.1921425418368L180.8649650287628,153.44522010329456L180.98872858365377,153.67151383979945L181.03513991673788,153.0415047281822L181.74678035736082,151.43068528094227L181.76225080172222,154.13040936554535L181.8241325791677,157.0217635182198L181.97883702278136,150.18475300071077L182.14901191075643,152.9501910715844L182.50483213106793,158.01647606715414L182.86065235137937,155.13822796579552L182.92253412882485,153.86289893494904L182.98441590627033,152.8912138406631L183.2474134604136,153.7877534911895L183.41758834838865,150.06520621487653L183.43305879275005,154.15472292803315L183.92811301231384,156.70930055647477L184.0518765672048,156.9877122820908L184.34581501007082,149.72353023220785L184.37675589879353,151.42835803818525L184.51598989804586,152.99593976472897L185.10386678377787,155.80265577292448L185.1348076725006,151.00504482932956L185.2431007830302,157.55261983974196L185.27404167175294,143.9064032313472L185.49062789281209,156.34337225454874L185.55250967025756,150.87637280215858L185.67627322514852,148.17193298881102L185.7845663356781,151.51134261544212L186.34150233268738,147.1091792108491L186.43432499885557,154.97311621650806L186.94484966278077,157.97899521012005L187.06861321767173,149.91773251595805L187.20784721692402,150.441178406596L187.64101965904234,155.367338890901L187.93495810190836,157.67620867878577L188.0741921011607,150.2371159627437L188.24436698913576,155.6307460250573L188.38360098838805,152.44775160899007L188.39907143274942,156.99849109064962L189.12618231773376,156.9131180274053L189.18806409517924,155.23088897346315L190.13176120122276,153.43927950994112L190.44117008845012,151.28621250031574L190.65775630950927,156.2454443290626L190.71963808695475,154.42192714247722L191.2301627508799,154.11246509902412L191.8799214140574,155.5464140967306L192.05009630203247,151.61625226919932L192.3749756336212,151.72220305787414L192.54515052159627,154.63995304287164L192.8390889644623,152.44671047407246L192.96285251935325,156.61804814310744L193.42696585019428,157.67749478662518L193.64355207125345,157.43307305390772L193.75184518178307,155.33255273600662L194.78836495399474,143.18593786835845L195.2060669517517,157.29025384050328L195.23700784047446,156.68137364339054L195.36077139536542,155.4902540544099L195.5928280607859,158.41112744416023L195.62376894950867,157.23715595970498L196.5519956111908,154.29441873668475L196.86140449841818,155.9751167098657L196.92328627586366,155.04066749969206L197.0470498307546,156.44858812445818L197.49569271723428,155.37033980919296L197.60398582776386,153.11401671303247L197.6968084939321,153.12963373679668L198.08356960296632,154.50650404372573L198.2846853796641,154.69770540918398L198.40844893455505,156.45863201425163L198.48580115636187,151.70842333102337L198.59409426689146,157.2972968120048L198.7797395992279,153.564521916207L199.01179626464844,153.68713086356365L200.20302048047384,155.39924661396435L200.29584314664206,156.3746675453076L200.5278998120626,157.58765096755815L200.77542692184448,155.66485850441677L200.89919047673544,158.0251113626473L201.95118069330852,152.1962869047711L202.013062470754,157.8908049582751L202.16776691436766,156.49292822330244L202.21417824745177,155.01917112580486L202.38435313542684,159.15468150502784L202.49264624595642,154.17401454562423L203.12693446477255,157.36074479874878L203.21975713094074,147.67390303880893L203.65292957305905,143.55364222396747L203.90045668284097,153.67353486640422L203.9313975715637,154.92087574093603L203.94686801592508,156.8555493907843L204.05516112645466,155.16346017674005L204.08610201517743,156.12669370522417L204.11704290390014,154.38548742036073L204.194395125707,155.14827185558897L204.72039023399353,156.27043156708532L204.76680156707764,156.92499921411218L205.07621045430503,158.76156120878295L205.69502822875978,157.920324195351L205.83426222801208,156.45330385320267L206.03537800470988,155.14312742423135L206.09725978215536,156.32058977282213L206.32931644757588,155.82629565987736L206.39119822502136,154.2470164763181L206.5149617799123,156.0032885958717L206.669666223526,155.71293444031835L207.0718977769216,148.11901883770406L207.33489533106484,148.38701921414395L207.8144791062673,154.8813126140667L207.969183549881,157.65073149491946L208.03106532732647,155.58726333143932L208.38688554763792,158.2289288335778L208.6034717686971,157.91064776494022L208.78911710103353,149.64036192525964L209.36152354240417,156.33681922889082L209.42340531984965,156.15560050999557L209.48528709729513,156.36848197903237L209.56263931910198,157.64460717187467L209.57810976346335,154.16844141165348L209.8101664288839,158.28025066069313L210.0886344273885,155.5995119775289L210.13504576047262,155.6852525001559L210.3825728702545,157.14394376296332L210.87762708981833,156.23478800696466L210.92403842290244,158.0404834134897L211.0942133108775,157.33373653412127L211.4345630868276,155.50887199646604L211.52738575299583,157.93790100248953L211.8367946402232,155.40334991040436L211.85226508458456,156.39034581230226L212.0688513056437,158.5172619625264L212.85784396807352,157.8291330252141L212.98160752296448,156.31740512483884L213.18272329966226,156.68676304766996L213.29101641019184,156.68088369754696L213.7706001853943,157.14271889835436L214.0645386282603,155.01519031582575L214.17283173878988,153.15903048741166L214.52865195910135,156.3591730080043L214.83806084632872,156.37527997761208L214.9154130681356,157.9139548993844L215.3331150658925,157.4624698045227L215.6425239531199,158.38454788214585L215.67346484184264,158.13877879835854L215.76628750801086,152.01727294217199L215.81269884109497,153.13612551922415L215.85911017417908,159.09368324750176L216.66357328097024,155.76388880805098L216.694514169693,157.02794908449505L216.84921861330668,155.80069598955015L216.89562994639078,155.1549473677078L217.05033439000448,157.08129193821514L217.39068416595458,155.9203652618453L217.43709549903872,154.7532530192002L217.60727038701376,156.55423269698076L217.65368172009786,153.748986526316L218.22608816146848,156.8034926449036L218.24155860582988,157.4742285047687L218.55096749305727,157.49211152805947L218.90678771336871,152.369115301095L219.6184281539917,156.97858704075406L219.78860304196675,152.88374216654847L219.8195439306895,156.10801451993757L219.89689615249634,152.0256020215129L219.9123665968577,155.66743072009558L220.06707104047138,156.43113380378054L220.20630503972373,157.25136438916888L220.29912770589192,151.3579283231702L221.55223369916283,155.42564244628738L222.00087658564252,157.6854564065834L222.1091696961721,156.83938117794605L222.1401105848948,158.1101782097394L222.18652191797892,156.35537592771652L222.356696805954,157.58373140080948L222.46498991648355,157.43197067575966L222.55781258265176,156.93822775188892L222.944573691686,156.26357232527516L223.88827079772952,155.74239243416378L224.10485701878866,154.74706745292497L224.15126835187277,155.22151875920463L224.32144323984784,158.6335628571469L224.49161812782287,156.09343863109098L224.5225590165456,157.4535282928773L224.67726346015928,155.7031355234467L225.125906346639,154.22747988580522L225.80660589853923,157.92914322053548L225.89942856470742,156.08792674035067L226.4099532286326,157.56101016231332L226.4718350060781,157.76109179618652L226.71936211586,153.3724631455225L226.8121847820282,153.5968583418835L227.04424144744874,156.04726123533328L227.13706411361693,157.96092845713792L227.33817989031476,157.65801943934275L227.50835477828977,156.898174679176L227.52382522265117,156.67065607806217L227.6940001106262,155.86469516536818L227.86417499860127,154.81180154750837L228.2045247745514,158.3127095728305L228.40564055124918,154.80518727862L228.77693121592205,157.39712327763482L228.7924016602834,154.28615090057428L228.80787210464476,158.4411366270797L228.85428343772887,157.2249073136154L229.2874558798472,157.7873038988182L229.34933765729266,157.69170321608908L229.36480810165406,154.4047790379518L230.63338453928628,158.8551408649073L231.4687885348002,154.50809636771737L231.48425897916158,157.8379520503986L231.74725653330484,156.76631800402174L231.99478364308675,151.8942352922022L232.35060386339822,158.25899925972772L232.39701519648236,158.1259177199645L232.59813097318013,155.60882094855697L232.87659897168479,156.88053662880702L232.9075398604075,155.59357138417545L232.93848074913026,157.88216966278196L233.09318519274393,157.6152104212597L233.46447585741677,154.7789751759883L233.60370985666913,155.52063069671203L233.74294385592142,158.3503129163255L234.1142345205943,158.1273263142648L234.26893896420796,154.37562726025863L234.31535029729207,158.82219200692634L234.6402296288808,157.6235395006006L234.88775673866272,155.28055723335638L234.91869762738546,157.26820627754205L235.16622473716737,152.2545904601575L235.46016318003336,158.0175784453022L235.47563362439473,154.5678697606345L235.80051295598346,155.98295584336302L235.9397469552358,157.12557079382896L235.9861582883199,155.0382790137046L236.0016287326813,151.48402813466237L236.01709917704264,156.92389683596411L236.41933073043822,155.6495476968048L236.80609183947246,157.98744677592185L237.19285294850667,157.18399683567623L237.44038005828858,157.59567383074682L238.04372738838197,158.37033945268195L238.29125449816388,158.07869918928918L238.43048849741618,154.78773295794235L238.97195405006408,155.2623067506829L239.09571760495504,153.12381562990413L240.2560009320577,158.3933056640999L241.18422759373985,157.47030893802003L241.21516848246256,158.0234577954252L241.33893203735352,157.94892478397014L241.400813814799,155.67135028684424L241.50910692532858,156.51148492212815L241.57098870277406,158.04268816978583L241.8494567012787,156.6682675920747L242.00416114489238,156.5629904789348L242.25168825467426,156.65314051415407L242.29809958775837,157.84291275206488L242.3445109208425,156.54449502333955L242.53015625317892,158.8538547570679L242.76221291859943,156.52275367653056L243.05615136146545,157.57258513286797L243.22632624944052,157.39834814224378L243.35008980433147,157.6217634469176L243.44291247049966,158.71654743440376L243.76779180208842,156.8944388421187L243.79873269081114,157.90452344189544L244.29378691037496,155.13786050641284L244.54131402015685,157.51054574042428L245.0208977953593,158.46771618909406L245.05183868408204,158.4563861914612L245.33030668258667,158.00710585289562L245.6706564585368,158.4432188969149L245.96459490140282,157.14284138481526L246.1192993450165,156.88200646633777L246.5524717871348,158.4148020379871L246.6607648976644,153.9291028670632L246.93923289616902,158.0523646001966L247.03205556233723,158.57005362717246L247.10940778414408,156.669676186375L247.21770089467367,155.70552400943416L248.25422066688537,158.50893288318548L248.45533644358318,152.6437911896537L248.65645222028095,157.47318736985108L248.68739310900372,154.9716463789773L249.0277428849538,157.6394014972866L249.46091532707214,158.51566963853475L249.49185621579488,157.19244840147803L249.83220599174498,154.544964792447L250.49743509928385,155.99361216546095L250.71402132034302,156.81261788624033L250.74496220906576,157.79887886937286L251.2245459842682,155.81031117673047L251.3637799835205,156.89786846302377L251.42566176096597,158.19928711004104L251.6113070933024,157.757600932051L251.67318887074788,157.6433823072657L252.2610657564799,158.8032066054875L252.52406331062318,157.3383910196353L252.87988353093465,157.17713759386606L253.20476286252338,158.07024762348738L253.62246486028036,157.78399676437402L254.8910412979126,158.2882735238818L255.01480485280356,158.41663933490054L255.44797729492188,157.00584027830337L255.54079996109007,158.2994197918233L255.6800339603424,155.28539544856176L255.6955044047038,158.21398548534853L255.75738618214925,158.28729363219463L255.85020884831746,158.51193380147743L256.4690266227722,154.2544269072023L257.07237395286563,156.84526052806905L257.3508419513702,156.7747083265931L258.4647139453888,156.320161070209L258.5420661671956,156.6722484020538L258.74318194389343,158.03999346764613L258.851475054423,158.12316177459434L258.9597681649526,157.3313480481338L259.4702928288778,157.72612191160079L259.9653470484416,156.99095817330453L260.0117583815257,156.99971595525858L260.4604012680054,157.38383349662763L261.21845304171245,157.13083771164747L261.9300934823354,155.67747460988903L262.14667970339457,158.5385133634918L262.5798521455129,157.62286582506567L262.9820836989085,157.14970062662542L262.99755414326984,157.92497868086502" fill="none"></path></g></g></g></g></g></g><g transform="translate(51, 176)" clip-path="url(#clip_1)"><clipPath id="clip_1"><rect width="278" height="23"></rect></clipPath><g><g><line x1="0" y1="0" x2="0" y2="5" style="visibility: inherit;" fill="rgb(0, 0, 0)" stroke="rgb(204, 204, 204)" stroke-width="1px"></line><line x1="30.94088872273763" y1="0" x2="30.94088872273763" y2="5" style="visibility: inherit;" fill="rgb(0, 0, 0)" stroke="rgb(204, 204, 204)" stroke-width="1px"></line><line x1="61.88177744547526" y1="0" x2="61.88177744547526" y2="5" style="visibility: inherit;" fill="rgb(0, 0, 0)" stroke="rgb(204, 204, 204)" stroke-width="1px"></line><line x1="92.82266616821289" y1="0" x2="92.82266616821289" y2="5" style="visibility: inherit;" fill="rgb(0, 0, 0)" stroke="rgb(204, 204, 204)" stroke-width="1px"></line><line x1="123.76355489095052" y1="0" x2="123.76355489095052" y2="5" style="visibility: inherit;" fill="rgb(0, 0, 0)" stroke="rgb(204, 204, 204)" stroke-width="1px"></line><line x1="154.70444361368817" y1="0" x2="154.70444361368817" y2="5" style="visibility: inherit;" fill="rgb(0, 0, 0)" stroke="rgb(204, 204, 204)" stroke-width="1px"></line><line x1="185.64533233642578" y1="0" x2="185.64533233642578" y2="5" style="visibility: inherit;" fill="rgb(0, 0, 0)" stroke="rgb(204, 204, 204)" stroke-width="1px"></line><line x1="216.58622105916342" y1="0" x2="216.58622105916342" y2="5" style="visibility: inherit;" fill="rgb(0, 0, 0)" stroke="rgb(204, 204, 204)" stroke-width="1px"></line><line x1="247.52710978190103" y1="0" x2="247.52710978190103" y2="5" style="visibility: inherit;" fill="rgb(0, 0, 0)" stroke="rgb(204, 204, 204)" stroke-width="1px"></line><line x1="278.4679985046387" y1="0" x2="278.4679985046387" y2="5" style="visibility: inherit;" fill="rgb(0, 0, 0)" stroke="rgb(204, 204, 204)" stroke-width="1px"></line></g><g transform="translate(0, 8)"><text style="text-anchor: middle; visibility: hidden; font-family: Roboto, sans-serif; font-size: 12px; font-weight: 200;" x="0" y="0" dx="0em" dy="0.95em" fill="rgb(33, 33, 33)" stroke="none" stroke-width="1px">-2k</text><text style="text-anchor: middle; visibility: inherit; font-family: Roboto, sans-serif; font-size: 12px; font-weight: 200;" x="30.94088872273763" y="0" dx="0em" dy="0.95em" fill="rgb(33, 33, 33)" stroke="none" stroke-width="1px">0</text><text style="text-anchor: middle; visibility: inherit; font-family: Roboto, sans-serif; font-size: 12px; font-weight: 200;" x="61.88177744547526" y="0" dx="0em" dy="0.95em" fill="rgb(33, 33, 33)" stroke="none" stroke-width="1px">2k</text><text style="text-anchor: middle; visibility: inherit; font-family: Roboto, sans-serif; font-size: 12px; font-weight: 200;" x="92.82266616821289" y="0" dx="0em" dy="0.95em" fill="rgb(33, 33, 33)" stroke="none" stroke-width="1px">4k</text><text style="text-anchor: middle; visibility: inherit; font-family: Roboto, sans-serif; font-size: 12px; font-weight: 200;" x="123.76355489095052" y="0" dx="0em" dy="0.95em" fill="rgb(33, 33, 33)" stroke="none" stroke-width="1px">6k</text><text style="text-anchor: middle; visibility: inherit; font-family: Roboto, sans-serif; font-size: 12px; font-weight: 200;" x="154.70444361368817" y="0" dx="0em" dy="0.95em" fill="rgb(33, 33, 33)" stroke="none" stroke-width="1px">8k</text><text style="text-anchor: middle; visibility: inherit; font-family: Roboto, sans-serif; font-size: 12px; font-weight: 200;" x="185.64533233642578" y="0" dx="0em" dy="0.95em" fill="rgb(33, 33, 33)" stroke="none" stroke-width="1px">10k</text><text style="text-anchor: middle; visibility: inherit; font-family: Roboto, sans-serif; font-size: 12px; font-weight: 200;" x="216.58622105916342" y="0" dx="0em" dy="0.95em" fill="rgb(33, 33, 33)" stroke="none" stroke-width="1px">12k</text><text style="text-anchor: middle; visibility: inherit; font-family: Roboto, sans-serif; font-size: 12px; font-weight: 200;" x="247.52710978190103" y="0" dx="0em" dy="0.95em" fill="rgb(33, 33, 33)" stroke="none" stroke-width="1px">14k</text><text style="text-anchor: middle; visibility: hidden; font-family: Roboto, sans-serif; font-size: 12px; font-weight: 200;" x="278.4679985046387" y="0" dx="0em" dy="0.95em" fill="rgb(33, 33, 33)" stroke="none" stroke-width="1px">16k</text></g><line x1="0" y1="0" x2="278.4679985046387" y2="0" fill="rgb(0, 0, 0)" stroke="rgb(204, 204, 204)" stroke-width="1px"></line></g></g></g></g></svg>