<svg viewBox="0 0 330 200" xmlns="http://www.w3.org/2000/svg"><g><g><g><g><g><line x1="61.91500186920166" y1="176.5999994277954" x2="56.91500186920166" y2="176.5999994277954" style="visibility: inherit;" fill="rgb(0, 0, 0)" stroke="rgb(204, 204, 204)" stroke-width="1px"></line><line x1="61.91500186920166" y1="161.88333280881244" x2="56.91500186920166" y2="161.88333280881244" style="visibility: inherit;" fill="rgb(0, 0, 0)" stroke="rgb(204, 204, 204)" stroke-width="1px"></line><line x1="61.91500186920166" y1="147.1666661898295" x2="56.91500186920166" y2="147.1666661898295" style="visibility: inherit;" fill="rgb(0, 0, 0)" stroke="rgb(204, 204, 204)" stroke-width="1px"></line><line x1="61.91500186920166" y1="132.44999957084656" x2="56.91500186920166" y2="132.44999957084656" style="visibility: inherit;" fill="rgb(0, 0, 0)" stroke="rgb(204, 204, 204)" stroke-width="1px"></line><line x1="61.91500186920166" y1="117.7333329518636" x2="56.91500186920166" y2="117.7333329518636" style="visibility: inherit;" fill="rgb(0, 0, 0)" stroke="rgb(204, 204, 204)" stroke-width="1px"></line><line x1="61.91500186920166" y1="103.01666633288065" x2="56.91500186920166" y2="103.01666633288065" style="visibility: inherit;" fill="rgb(0, 0, 0)" stroke="rgb(204, 204, 204)" stroke-width="1px"></line><line x1="61.91500186920166" y1="88.29999971389769" x2="56.91500186920166" y2="88.29999971389769" style="visibility: inherit;" fill="rgb(0, 0, 0)" stroke="rgb(204, 204, 204)" stroke-width="1px"></line><line x1="61.91500186920166" y1="73.58333309491476" x2="56.91500186920166" y2="73.58333309491476" style="visibility: inherit;" fill="rgb(0, 0, 0)" stroke="rgb(204, 204, 204)" stroke-width="1px"></line><line x1="61.91500186920166" y1="58.86666647593179" x2="56.91500186920166" y2="58.86666647593179" style="visibility: inherit;" fill="rgb(0, 0, 0)" stroke="rgb(204, 204, 204)" stroke-width="1px"></line><line x1="61.91500186920166" y1="44.14999985694885" x2="56.91500186920166" y2="44.14999985694885" style="visibility: inherit;" fill="rgb(0, 0, 0)" stroke="rgb(204, 204, 204)" stroke-width="1px"></line><line x1="61.91500186920166" y1="29.433333237965915" x2="56.91500186920166" y2="29.433333237965915" style="visibility: inherit;" fill="rgb(0, 0, 0)" stroke="rgb(204, 204, 204)" stroke-width="1px"></line><line x1="61.91500186920166" y1="14.716666618982938" x2="56.91500186920166" y2="14.716666618982938" style="visibility: inherit;" fill="rgb(0, 0, 0)" stroke="rgb(204, 204, 204)" stroke-width="1px"></line><line x1="61.91500186920166" y1="0" x2="56.91500186920166" y2="0" style="visibility: inherit;" fill="rgb(0, 0, 0)" stroke="rgb(204, 204, 204)" stroke-width="1px"></line></g><g transform="translate(51.91500186920166, 0)"><text style="text-anchor: end; visibility: hidden; font-family: Roboto, sans-serif; font-size: 12px; font-weight: 200;" x="0" y="176.5999994277954" dx="0em" dy="0.3em" fill="rgb(33, 33, 33)" stroke="none" stroke-width="1px">-0.01</text><text style="text-anchor: end; visibility: inherit; font-family: Roboto, sans-serif; font-size: 12px; font-weight: 200;" x="0" y="161.88333280881244" dx="0em" dy="0.3em" fill="rgb(33, 33, 33)" stroke="none" stroke-width="1px">0</text><text style="text-anchor: end; visibility: hidden; font-family: Roboto, sans-serif; font-size: 12px; font-weight: 200;" x="0" y="147.1666661898295" dx="0em" dy="0.3em" fill="rgb(33, 33, 33)" stroke="none" stroke-width="1px">0.01</text><text style="text-anchor: end; visibility: inherit; font-family: Roboto, sans-serif; font-size: 12px; font-weight: 200;" x="0" y="132.44999957084656" dx="0em" dy="0.3em" fill="rgb(33, 33, 33)" stroke="none" stroke-width="1px">0.02</text><text style="text-anchor: end; visibility: hidden; font-family: Roboto, sans-serif; font-size: 12px; font-weight: 200;" x="0" y="117.7333329518636" dx="0em" dy="0.3em" fill="rgb(33, 33, 33)" stroke="none" stroke-width="1px">0.03</text><text style="text-anchor: end; visibility: inherit; font-family: Roboto, sans-serif; font-size: 12px; font-weight: 200;" x="0" y="103.01666633288065" dx="0em" dy="0.3em" fill="rgb(33, 33, 33)" stroke="none" stroke-width="1px">0.04</text><text style="text-anchor: end; visibility: hidden; font-family: Roboto, sans-serif; font-size: 12px; font-weight: 200;" x="0" y="88.29999971389769" dx="0em" dy="0.3em" fill="rgb(33, 33, 33)" stroke="none" stroke-width="1px">0.05</text><text style="text-anchor: end; visibility: inherit; font-family: Roboto, sans-serif; font-size: 12px; font-weight: 200;" x="0" y="73.58333309491476" dx="0em" dy="0.3em" fill="rgb(33, 33, 33)" stroke="none" stroke-width="1px">0.06</text><text style="text-anchor: end; visibility: hidden; font-family: Roboto, sans-serif; font-size: 12px; font-weight: 200;" x="0" y="58.86666647593179" dx="0em" dy="0.3em" fill="rgb(33, 33, 33)" stroke="none" stroke-width="1px">0.07</text><text style="text-anchor: end; visibility: inherit; font-family: Roboto, sans-serif; font-size: 12px; font-weight: 200;" x="0" y="44.14999985694885" dx="0em" dy="0.3em" fill="rgb(33, 33, 33)" stroke="none" stroke-width="1px">0.08</text><text style="text-anchor: end; visibility: hidden; font-family: Roboto, sans-serif; font-size: 12px; font-weight: 200;" x="0" y="29.433333237965915" dx="0em" dy="0.3em" fill="rgb(33, 33, 33)" stroke="none" stroke-width="1px">0.09</text><text style="text-anchor: end; visibility: inherit; font-family: Roboto, sans-serif; font-size: 12px; font-weight: 200;" x="0" y="14.716666618982938" dx="0em" dy="0.3em" fill="rgb(33, 33, 33)" stroke="none" stroke-width="1px">0.1</text><text style="text-anchor: end; visibility: hidden; font-family: Roboto, sans-serif; font-size: 12px; font-weight: 200;" x="0" y="0" dx="0em" dy="0.3em" fill="rgb(33, 33, 33)" stroke="none" stroke-width="1px">0.11</text></g><line x1="61.91500186920166" y1="0" x2="61.91500186920166" y2="176.5999994277954" fill="rgb(0, 0, 0)" stroke="rgb(204, 204, 204)" stroke-width="1px"></line></g></g><g transform="translate(61, 0)" clip-path="url(#clip_0)"><clipPath id="clip_0"><rect width="268" height="176"></rect></clipPath><g><g><g><line x1="0" y1="0" x2="0" y2="176.5999994277954" fill="rgb(0, 0, 0)" stroke="rgb(66, 66, 66)" stroke-width="1px" opacity="0.25"></line><line x1="29.787222014533146" y1="0" x2="29.787222014533146" y2="176.5999994277954" fill="rgb(0, 0, 0)" stroke="rgb(66, 66, 66)" stroke-width="1px" opacity="0.25"></line><line x1="59.57444402906629" y1="0" x2="59.57444402906629" y2="176.5999994277954" fill="rgb(0, 0, 0)" stroke="rgb(66, 66, 66)" stroke-width="1px" opacity="0.25"></line><line x1="89.36166604359944" y1="0" x2="89.36166604359944" y2="176.5999994277954" fill="rgb(0, 0, 0)" stroke="rgb(66, 66, 66)" stroke-width="1px" opacity="0.25"></line><line x1="119.14888805813258" y1="0" x2="119.14888805813258" y2="176.5999994277954" fill="rgb(0, 0, 0)" stroke="rgb(66, 66, 66)" stroke-width="1px" opacity="0.25"></line><line x1="148.93611007266574" y1="0" x2="148.93611007266574" y2="176.5999994277954" fill="rgb(0, 0, 0)" stroke="rgb(66, 66, 66)" stroke-width="1px" opacity="0.25"></line><line x1="178.72333208719888" y1="0" x2="178.72333208719888" y2="176.5999994277954" fill="rgb(0, 0, 0)" stroke="rgb(66, 66, 66)" stroke-width="1px" opacity="0.25"></line><line x1="208.51055410173205" y1="0" x2="208.51055410173205" y2="176.5999994277954" fill="rgb(0, 0, 0)" stroke="rgb(66, 66, 66)" stroke-width="1px" opacity="0.25"></line><line x1="238.29777611626517" y1="0" x2="238.29777611626517" y2="176.5999994277954" fill="rgb(0, 0, 0)" stroke="rgb(66, 66, 66)" stroke-width="1px" opacity="0.25"></line><line x1="268.08499813079834" y1="0" x2="268.08499813079834" y2="176.5999994277954" fill="rgb(0, 0, 0)" stroke="rgb(66, 66, 66)" stroke-width="1px" opacity="0.25"></line></g><g><line x1="0" y1="176.5999994277954" x2="268.08499813079834" y2="176.5999994277954" fill="rgb(0, 0, 0)" stroke="rgb(66, 66, 66)" stroke-width="1px" opacity="0.25"></line><line x1="0" y1="161.88333280881244" x2="268.08499813079834" y2="161.88333280881244" fill="rgb(0, 0, 0)" stroke="rgb(66, 66, 66)" stroke-width="1px" opacity="0.25"></line><line x1="0" y1="147.1666661898295" x2="268.08499813079834" y2="147.1666661898295" fill="rgb(0, 0, 0)" stroke="rgb(66, 66, 66)" stroke-width="1px" opacity="0.25"></line><line x1="0" y1="132.44999957084656" x2="268.08499813079834" y2="132.44999957084656" fill="rgb(0, 0, 0)" stroke="rgb(66, 66, 66)" stroke-width="1px" opacity="0.25"></line><line x1="0" y1="117.7333329518636" x2="268.08499813079834" y2="117.7333329518636" fill="rgb(0, 0, 0)" stroke="rgb(66, 66, 66)" stroke-width="1px" opacity="0.25"></line><line x1="0" y1="103.01666633288065" x2="268.08499813079834" y2="103.01666633288065" fill="rgb(0, 0, 0)" stroke="rgb(66, 66, 66)" stroke-width="1px" opacity="0.25"></line><line x1="0" y1="88.29999971389769" x2="268.08499813079834" y2="88.29999971389769" fill="rgb(0, 0, 0)" stroke="rgb(66, 66, 66)" stroke-width="1px" opacity="0.25"></line><line x1="0" y1="73.58333309491476" x2="268.08499813079834" y2="73.58333309491476" fill="rgb(0, 0, 0)" stroke="rgb(66, 66, 66)" stroke-width="1px" opacity="0.25"></line><line x1="0" y1="58.86666647593179" x2="268.08499813079834" y2="58.86666647593179" fill="rgb(0, 0, 0)" stroke="rgb(66, 66, 66)" stroke-width="1px" opacity="0.25"></line><line x1="0" y1="44.14999985694885" x2="268.08499813079834" y2="44.14999985694885" fill="rgb(0, 0, 0)" stroke="rgb(66, 66, 66)" stroke-width="1px" opacity="0.25"></line><line x1="0" y1="29.433333237965915" x2="268.08499813079834" y2="29.433333237965915" fill="rgb(0, 0, 0)" stroke="rgb(66, 66, 66)" stroke-width="1px" opacity="0.25"></line><line x1="0" y1="14.716666618982938" x2="268.08499813079834" y2="14.716666618982938" fill="rgb(0, 0, 0)" stroke="rgb(66, 66, 66)" stroke-width="1px" opacity="0.25"></line><line x1="0" y1="0" x2="268.08499813079834" y2="0" fill="rgb(0, 0, 0)" stroke="rgb(66, 66, 66)" stroke-width="1px" opacity="0.25"></line></g></g></g><g><g><line x1="0" y1="161.88333280881244" x2="268.08499813079834" y2="161.88333280881244" fill="rgb(0, 0, 0)" stroke="rgb(153, 153, 153)" stroke-width="1.5px"></line></g></g><g><g><line x1="29.787222014533146" y1="0" x2="29.787222014533146" y2="176.5999994277954" fill="rgb(0, 0, 0)" stroke="rgb(153, 153, 153)" stroke-width="1.5px"></line></g></g><g><g><g><g><g><path style="fill: none;" stroke="rgb(255, 112, 67)" stroke-width="2px" d="M29.906370902591284,159.52866620925906L30.382966454823812,153.64199917498638L31.35105117029614,142.07890435387574L31.410625614325205,136.43648473117202L31.827646722528673,129.98401314500174L32.06594449864494,124.4734396501626L32.1701997756958,120.48851022627859L32.185093386703066,118.05042142979424L32.3936039408048,114.9489974187569L32.64679532792833,111.09462465616768L32.73615699397193,108.08800017396435L32.825518660015526,105.58307977258511L33.13828449116813,101.60798827491504L33.16807171318266,98.99060776742189L33.42126310030619,95.41908582211146L33.46594393332799,92.92394643285327L33.540411988364326,90.8385480524894L33.599986432393386,89.11655459515433L33.62977365440793,87.84798764610849L34.04679476261139,83.79024431188549L34.68722003592385,76.29304652140726L34.73190086894565,71.44163125171468L35.43190058628718,62.99731104407501L35.580836696359846,56.75342469138105L35.61062391837438,52.77164487945566L35.64041114038891,50.14711756974223L35.95317697154151,46.09999914778558L36.087219470606904,42.6121297053737L36.25104919168684,39.22434227810156L36.39998530175951,36.014339030798304L36.6233894668685,32.322338115070515L36.72764474391938,29.283003689831286L36.802112798955704,26.87073530366107L36.95104890902837,24.2460429824046L37.0701977970865,21.729358172043682L37.442538072268164,18.924416607867705L38.0978569565879,17.24364025619853L38.797856673929424,16.240468243349426L38.87232472896576,15.639306256550368L39.08083528306749,15.28087219408128L39.11062250508203,15.066158243672765L39.319133059183756,14.939900015879386L39.33402667019102,14.864338059213235L39.43828194724189,14.820399990017076L39.54253722429275,14.795502041920201L39.914877499474414,14.786348286283948L40.25743055264155,14.786939287895915L40.27232416364882,14.78757458700262L40.43615388472875,14.791139935987232L40.65955804983775,14.797888735138477L41.61274915430281,14.825091225233988L41.62764276531007,14.84182060877523L41.657429987324605,14.852674017868006L41.74679165336821,14.861672873403776L41.82125970840454,14.86918180868032L42.119131928549876,14.882467758524129L42.38721692668067,14.898812027624274L42.431897759702466,14.910057167049546L42.521259425746074,14.919720879811017L42.65530192481147,14.929983962250152L43.593599418269264,14.970527333808844L43.727641917334665,15.000208550937717L43.96593969345093,15.027819786557227L44.30849274661806,15.059088092988022L44.323386357625324,15.078506963111064L44.44253524568346,15.095456462568949L44.57657774474885,15.111687487694626L44.651045799785194,15.124842725437423L44.90423718690872,15.144608522204514L45.20210940705405,15.170945883993864L45.41061996115579,15.197208692674227L45.49998162719938,15.217527722650194L45.51487523820665,15.230486674611123L45.58934329324298,15.242112873389683L46.27444939957724,15.286105659810305L46.28934301058451,15.313339040172938L46.31913023259905,15.331354485410948L46.453172731664445,15.349782075497558L46.61700245274438,15.370303419942568L47.182959671020505,15.41657631558703L47.40636383612951,15.458291627691153L47.46593828015857,15.487092696203863L47.64466161224577,15.515820558315133L48.31487410757277,15.577732138855078L48.50849105066723,15.628299966976432L48.865937714841635,15.684021915936597L48.880831325848895,15.718529632878164L49.04466104692883,15.751146390340386L49.402107711103234,15.797273120364462L49.87870326333576,15.861580265590549L50.02763937340843,15.911896857777812L50.07232020643022,15.945635013010458L50.60849020269182,16.00938173187229L50.65317103571362,16.05133585581318L50.78721353477902,16.087696782583947L50.84678797880809,16.114522046074065L50.921256033844415,16.13690659685748L51.04040492190255,16.160468775802016L51.114872976938884,16.18098757993513L51.308489920033345,16.210039874894246L51.57657491816415,16.251027966049993L51.591468529171415,16.276940979181038L51.78508547226588,16.309791195818008L52.03827685938941,16.35247471415923L52.14253213644028,16.387659263267786L52.276574635505675,16.42117334177437L52.60423407766554,16.47206648015209L52.693595743709146,16.51110663962548L52.76806379874547,16.541662222417543L52.946787130832675,16.577236578133125L53.289340183999805,16.63217286423175L53.3787018500434,16.674011714554283L53.61699962615967,16.723031383419396L53.66168045918147,16.756965056330312L53.676574070188735,16.77883839848537L53.75104212522507,16.799532481729475L53.79572295824686,16.816505890535257L54.0042335123486,16.848123870318634L54.451041842566596,16.913909844775926L54.4957226755884,16.95813136828055L54.570190730624724,16.99260277664256L54.68933961868286,17.02605738700941L54.897850172784594,17.068691266196083L54.957424616813654,17.100762738185228L55.18082878192266,17.144544779047443L55.59784989012613,17.217427438364233L56.17870071940952,17.327822842098087L56.47657293955485,17.42903331816331L56.878700436751046,17.53781600247555L56.923381269772854,17.60848466634085L56.96806210279465,17.65629368975487L56.982955713801914,17.686786098076652L57.116998212867315,17.72139712243122L57.45955126603444,17.784351790237043L57.60848737610711,17.840681369490046L58.189338205390506,17.948122905498536L58.20423181639777,18.014504469087786L58.338274315463174,18.071622658274432L58.35316792647044,18.10782337149581L58.42763598150677,18.139201569792643L58.45742320352131,18.161901245914898L58.50210403654311,18.18134115207551L58.785082645681165,18.230136196544592L58.84465708971024,18.26729031476725L59.246784586906436,18.34330139215775L59.842529027197095,18.470253482252765L59.94678430424796,18.56087630458828L59.97657152626249,18.61939029554803L60.33401819043689,18.704590150308707L60.73614568763309,18.81296371181705L61.063805129792954,18.925338116137848L61.197847628858355,19.012315138513546L61.31699651691648,19.081970425217683L61.46593262698915,19.145715068934884L61.48082623799642,19.186163581197334L61.70423040310541,19.243625243556913L61.98720901224348,19.320562220488426L62.19571956634522,19.398307333255456L62.31486845440335,19.463116447726435L62.34465567641788,19.506554489359896L62.38933650943968,19.53945933149155L62.478698175483274,19.57291697243277L62.597847063541415,19.61135096968762L62.687208729585016,19.64823136550507L62.851038450664944,19.695824187343092L63.089336226781214,19.761695189372695L63.11912344879575,19.80590194079425L63.282953169875675,19.858298465478757L63.31274039189021,19.89446000366911L63.38720844692654,19.92798133571198L63.476570112970144,19.96232640779472L63.68508066707187,20.016318986017428L64.251037885348,20.140599314570267L64.37018677340613,20.23474620693577L64.57869732750787,20.32569442489362L65.1893353788058,20.482617300711162L65.85954787413279,20.691567793461928L65.93401592916912,20.829850203531798L66.09784565024906,20.94134121209733L66.73827092356152,21.12118611704762L66.88720703363418,21.255693594648857L67.12550480975045,21.379222091125097L67.17018564277224,21.461404874614537L67.42337702989579,21.556626234158813L67.48295147392486,21.624614173250887L67.63188758399751,21.69263465624276L67.79571730507745,21.763543049688057L67.91486619313558,21.828070258808935L68.24252563529544,21.92764544966327L68.37656813436084,22.012460416764682L69.07656785170236,22.1959090934293L69.27018479479683,22.3431269438345L69.32975923882591,22.442926804623422L69.65741868098577,22.566257658360986L69.89571645710204,22.686773115417534L70.3574183983273,22.850107533218292L70.99784367163976,23.076317059139466L71.17656700372696,23.248222133335467L71.41486477984323,23.399882096911384L71.68294977797403,23.54582912178279L71.77231144401762,23.65180060848009L71.96592838711209,23.755404914926892L72.44252393934461,23.916960955647205L72.48720477236643,24.023276038212277L72.63614088243908,24.1184155612126L72.65103449344636,24.17863958544904L72.75528977049721,24.23680003212895L72.8148642145263,24.284305786874604L72.84465143654081,24.319124947861933L73.03826837963528,24.381169423257813L74.03614031712215,24.633691581532318L74.33401253726747,24.850511053027315L74.34890614827474,24.983879009521907L74.73614003446367,25.149534645524422L74.78082086748547,25.258862109721008L74.82550170050726,25.334401442650954L75.09358669863806,25.439605850210675L75.18294836468166,25.522772096273943L75.45103336281247,25.633061417091668L75.480820584827,25.7059673790231L75.95741613705952,25.858082367591503L75.98720335907406,25.956167062433526L76.12124585813946,26.045732396077646L76.47869252231386,26.181843342497526L76.5531605773502,26.28075530229825L76.56805418835745,26.343554188113483L76.67230946540832,26.40543496232219L76.85103279749553,26.484181311944536L77.01486251857546,26.569726874133174L77.44677723778618,26.722684481598183L77.50635168181525,26.82855535577285L77.68507501390246,26.93447207116697L77.77443667994605,27.019280598566127L77.81911751296786,27.080810314766463L77.87869195699692,27.13193848780153L78.10209612210592,27.216066457665228L78.29571306520039,27.313073342122735L78.37018112023671,27.389224610094875L78.56379806333118,27.48171301383174L78.80209583944745,27.595069345997583L79.04039361556372,27.72123590517726L79.09996805959278,27.811518986216505L79.32337222470177,27.920539005672044L79.4872019457817,28.02633646217353L79.51698916779624,28.09717010451238L79.5318827788035,28.143354452997308L79.56167000081804,28.178429002343098L79.65103166686164,28.221591868165625L79.69571249988343,28.258564006446196L79.82975499894883,28.31403194849369L79.93401027599971,28.373268519813948L80.0233719420433,28.431095263341547L80.1574144411087,28.499299649867226L80.21698888513777,28.55514752817166L80.49996749427582,28.659778146263477L80.54464832729764,28.73382391587656L80.7382652703921,28.827189343912064L80.7829461034139,28.894528630392525L80.88720138046477,28.961383616025227L81.37869054370456,29.12693797442588L81.51273304276997,29.26069119882894L81.5872010978063,29.360105167403674L81.84039248492982,29.485107970071585L82.15315831608243,29.641279658995796L82.16805192708969,29.738859815402893L82.18294553809696,29.801289438208165L82.3020944261551,29.869812601304634L82.36166887018416,29.926487702273974L82.40634970320595,29.97217243700604L82.71911553435856,30.08163046685485L82.80847720040215,30.170831297585398L83.18081747558381,30.32281544028871L83.34464719666374,30.457544838900382L83.70209386083815,30.633828617332206L83.71698747184541,30.743590061063056L83.82124274889628,30.8374114794545L83.89571080393262,30.913708458840915L84.47656163321601,31.116458309200794L84.8340082973904,31.33551047384152L85.04251885149215,31.524041914482776L85.16166773955027,31.669884041667586L85.39996551566654,31.82304198127479L85.51911440372467,31.94786175962699L85.65315690279007,32.059875955594165L85.8616674568918,32.18500039399936L86.2191141210662,32.3598369302029L86.50209273020427,32.54414572405942L86.93400744941499,32.77665486883316L87.23187966956033,33.00075137159667L87.27656050258213,33.147937179520085L87.4254966126548,33.27873057333209L87.45528383466933,33.36571527197447L87.75315605481465,33.50322078195022L88.46804938316346,33.79214686821771L88.75102799230152,34.04786110848635L89.01911299043232,34.27964829266707L89.28719798856311,34.4974081863273L89.42124048762851,34.66752852658118L89.70421909676658,34.85318298769375L90.38932520310084,35.16841953048622L90.55315492418077,35.406617841956965L90.59783575720257,35.562935779094616L90.8957079773479,35.74628679152825L91.0744313094351,35.910217757233156L91.08932492044237,36.013076278705796L91.14889936447145,36.09279993160505L91.23826103051503,36.16768202063558L91.2531546415223,36.217119987920455L91.32762269655863,36.2693526530748L91.71485658274756,36.418440735801354L91.75953741576937,36.52152060293089L91.83400547080569,36.60610068660394L91.90847352584203,36.679607215653704L92.02762241390016,36.76017557577485L92.13187769095103,36.84047232067222L93.38294101556141,37.27578134704662L93.42762184858321,37.55091395168028L93.60634518067043,37.77188314559049L93.6659196246995,37.92312231640001L93.99357906685935,38.11675923066554L94.41060017506283,38.36454933349922L94.81272767225902,38.64082701507673L94.96166378233168,38.8540228377908L95.34889766852062,39.10569312369453L95.49783377859328,39.30445783804503L95.79570599873861,39.51951367859458L96.07868460787667,39.73989249780658L96.58506738212373,40.0363939895986L96.92762043529088,40.32601274421579L97.47868404255973,40.680487810231625L97.52336487558152,40.907878800808625L97.55315209759605,41.05412028640547L97.86591792874867,41.24506121722507L98.14889653788673,41.453326323426296L98.37230070299573,41.652486185974404L98.38719431400298,41.776933794121334L98.43187514702478,41.86646620268046L98.50634320206113,41.94497918817366L98.69996014515559,42.056651937475124L98.75953458918465,42.14355006769678L98.80421542220647,42.21061857812726L98.87868347724279,42.275762872453974L99.22123653040993,42.42967253176083L99.39995986249711,42.58210965875137L99.45953430652618,42.693628694198416L99.50421513954798,42.77559255320018L99.74251291566424,42.90517334194938L100.14464041286044,43.11909550014943L100.26378930091857,43.28791757215777L100.36804457796944,43.42466211320658L100.60634235408571,43.587896388793105L100.66591679811478,43.70617002562888L101.06804429531097,43.91471138337862L101.08293790631824,44.04494139544156L101.39570373747084,44.23052100150158L101.4105973484781,44.346991506184416L101.44038457049264,44.42712806290466L101.73825679063798,44.577919200562526L101.82761845668158,44.69927067850805L101.91698012272516,44.8029890619852L102.0361290107833,44.90647394676886L102.45315011898676,45.113361258563984L102.78080956114663,45.351707087080015L102.87017122719024,45.52592909448958L103.0191073372629,45.68255373336447L103.82336233165529,46.059182771402206L103.95740483072069,46.33249291800693L104.10634094079334,46.54914499440332L104.62761732604768,46.864076841030545L105.77442537360722,47.46321049133676L105.78931898461448,47.82804587571415L105.84889342864354,48.068381040840485L105.98293592770894,48.26084906219407L106.14676564878887,48.4354080615652L106.93612703217401,48.82603890223079L107.0254886982176,49.092912602191824L107.09995675325395,49.28013735036053L107.36804175138474,49.490181467276734L107.5169778614574,49.67059320196478L107.68080758253734,49.83874736602998L107.84463730361726,49.99963031998162L108.06804146872626,50.17810640546829L108.20208396779165,50.33443703661809L108.38080729987887,50.49398895449821L108.52974340995152,50.64458781969196L108.6786795200242,50.78988502780878L108.8127220190896,50.92656710113407L109.28931757132213,51.18505214264775L109.30421118232938,51.34566941217841L109.3488920153512,51.45862289367257L109.36378562635845,51.531925613099936L110.07867895470724,51.842105571037834L110.13825339873631,52.05046764517697L110.25740228679446,52.220023789772306L110.4212320078744,52.38307247638806L110.43612561888165,52.48647617797268L110.45101922988891,52.55409727444708L110.68931700600518,52.68401965887809L111.22548700226677,52.963628387354774L111.31484866831038,53.165086173003964L111.34463589032491,53.29719754179246L111.43399755636851,53.41018761298776L111.44889116737578,53.483604390312856L111.47867838939031,53.538899925923744L111.50846561140484,53.58332710241455L111.97016755263012,53.78469607063846L111.99995477464465,53.91681116578136L112.08931644068824,54.02997452321811L112.25314616176817,54.160069105133225L112.3276142168045,54.26642373547595L112.49144393788444,54.39254711475388L112.78931615802976,54.58171090886855L112.89357143508063,54.7349893748021L112.92335865709516,54.83832911492256L113.42974143134222,55.09403221891992L113.83186892853843,55.40177665535436L114.0701667046547,55.678088803412685L114.26378364774916,55.91846285101698L115.15740030818516,56.408257390728L115.39569808430143,56.794646081079385L115.94676169157029,57.240972147084385L116.02122974660661,57.53781565822267L116.6914422419336,57.977975407720265L116.75101668596268,58.26541744799444L116.78080390797722,58.449562346309406L117.00420807308622,58.64770166528217L117.01910168409347,58.772431672603695L117.33186751524607,58.970202304395414L117.39144195927514,59.11230736403153L117.52548445834054,59.25035042186596L117.6297397353914,59.37425467492682L117.77867584546408,59.50733331246473L119.35739861223433,60.21298822530346L119.5956963883506,60.73134486234414L119.68505805439419,61.07800750829174L119.81910055345959,61.3395044068957L119.96803666353226,61.55589739391796L120.08718555159038,61.73336415168667L120.1318663846122,61.857712397293795L120.44463221576478,62.05753464444076L120.80207887993919,62.32079018159706L121.11484471109178,62.604412938150276L121.79995081742604,63.05058742370589L121.8595252614551,63.342335665055316L121.88931248346964,63.52941077078144L121.90420609447692,63.64767330058376L122.0829294265641,63.79083164304826L122.24675914764404,63.942967023552974L122.51484414577484,64.14276001233509L122.60420581181843,64.29884147969823L122.61909942282571,64.3985253701165L122.94675886498558,64.59122872981197L123.05101414203644,64.74917914789212L123.25952469613817,64.92867199189241L123.34888636218177,65.07270494963934L123.54250330527623,65.2379044115164L123.7361202483707,65.41587395040632L123.9148435804579,65.59550999867953L123.97441802448697,65.72758517444005L124.18292857858869,65.89192567526514L124.34675829966862,66.05744578068453L124.4956944097413,66.21763425295165L124.64463051981396,66.37466321850333L125.1659069050683,66.68240854977377L125.24037496010463,66.89759921484612L125.38931107017729,67.0878312478687L125.83611940039529,67.38556020867505L126.59569356176588,67.87708390668311L127.4744166111946,68.53516450125962L127.81696966436175,69.07192331118316L127.84675688637627,69.40632712232339L127.90633133040534,69.63167084528816L127.92122494141262,69.7730524381372L127.95101216342715,69.87023649789535L127.9659057744344,69.93472448577462L127.99569299644894,69.98577238255092L128.2935652165943,70.14003110745597L128.57654382573233,70.35015938969576L128.60633104774686,70.48861997149315L129.15739465501574,70.80102012172354L129.18718187703027,71.0008679468117L129.29143715408114,71.16421687191458L129.395692431132,71.30568180770582L129.47016048616834,71.42160861496018L129.73824548429914,71.60300536429082L130.02122409343718,71.83000636586983L130.12547937048805,72.00976780934907L130.18505381451712,72.14252347759667L130.70633019977146,72.44024424571025L131.28718102905486,72.86228146674648L131.3169682510694,73.12799925248677L131.48079797214933,73.35616588085392L131.7042021372583,73.58684973784385L132.3297337995635,73.98817771881323L132.49356352064345,74.29790783019722L133.7148396232393,74.9985682145095L134.2510096195009,75.6454812648533L134.59356267266804,76.17850003642779L134.80207322676978,76.58654700517752L134.87654128180608,76.86289890327167L134.9212221148279,77.04762646518896L135.51696655511856,77.41085229592734L135.66590266519123,77.69193610395288L135.6807962761985,77.86690209690813L135.74037072022756,77.99714671819524L136.1276046064165,78.23958962077447L136.18717905044556,78.41034231737812L136.4254768265618,78.61397026396959L136.8722851567798,78.92597792061386L137.21483820994695,79.25881879698977L137.36377432001962,79.52187119123141L137.61696570714315,79.78742931064666L138.2573909804556,80.21944268828332L138.68930569966633,80.66269878328912L139.13611402988434,81.1191609518345L139.43398625002965,81.52010679201051L139.61270958211688,81.83693647190586L139.94036902427675,82.16688993492102L140.29781568845112,82.5174916261119L141.50419818003974,83.243374510703L141.6531342901124,83.74258543891447L141.7276023451487,84.0739558840011L141.98079373227228,84.38105965133974L142.24887873040305,84.67999148765865L142.45738928450479,84.94855338806396L143.306325111919,85.472970937698L143.38079316695533,85.81949605699715L143.64887816508613,86.14216184379835L144.48292038149305,86.69282689302386L144.69143093559478,87.11250108866227L144.72121815760931,87.37705982776122L144.9446223227183,87.63144954113584L144.97440954473285,87.79683759087652L145.49568592998716,88.11926710779547L145.59994120703803,88.35736240099837L145.76377092811796,88.57036560340349L146.12121759229234,88.85120941362082L146.34462175740134,89.11536139784963L147.25313202884462,89.66274670301195L147.37228091690275,90.04217065047669L147.55100424898995,90.34630868312101L147.93823813517886,90.69448454434966L148.3254720213678,91.06904362955308L148.951003683673,91.56128221471467L149.0552589607239,91.90119716023672L149.21908868180378,92.17518031336833L149.24887590381834,92.35230249742109L149.42759923590555,92.53496298203275L149.53185451295641,92.68911133063688L149.54674812396365,92.78796648588624L149.59142895698548,92.86637143843389L149.87440756612352,93.03431636175794L150.03823728720346,93.20506487066964L150.3956839513779,93.46015674712375L150.49993922842876,93.65772226470327L150.60419450547963,93.82076758104958L150.75313061555227,93.9821641276492L150.84249228159587,94.11713752941228L151.24461977879207,94.36968295759225L151.6765344980028,94.70538108836004L152.21270449426441,95.13527509469138L153.22547004275853,95.8242651579035L153.24036365376577,96.24399244760441L153.50844865189657,96.60980980971712L153.65738476196927,96.89259765745386L154.08929948118,97.24573949460687L154.13398031420178,97.47659584381485L154.22334198024538,97.65304776126358L154.32759725729625,97.80317053484245L154.61057586643432,98.01331063522925L154.72972475449245,98.18992913239768L154.83398003154332,98.34010799472408L154.89355447557236,98.45547375877123L154.95312891960143,98.54994727794242L155.206320306725,98.71392606033494L155.22121391773223,98.81862245904776L155.2510011397468,98.89406074978423L155.39993724981943,99.00240405222796L155.4744053048558,99.09894471530959L155.5488733598921,99.18839721591127L155.66802224795023,99.29250227731475L155.74249030298657,99.38648025918428L155.80206474701566,99.46807505701037L156.14461780018277,99.6619116488911L156.62121335241528,99.97959039665226L156.66589418543708,100.18906582337704L157.09780890464782,100.49702724082975L157.1127025156551,100.68808471217386L157.63397890090943,101.02243347076103L157.7829150109821,101.28576340942386L158.02121278709836,101.54406051956472L158.0956808421347,101.73036952252258L158.1403616751565,101.86094854192204L158.27440417422187,101.99566803461907L159.1531272236506,102.44551032899264L159.33185055573782,102.79035333706048L159.43610583278868,103.04095375464016L159.54036110983955,103.23499326724743L159.68929721991222,103.41379336451054L159.7041908309195,103.52731018465657L159.94248860703573,103.69515583445404L160.5829138803482,104.06353082993822L160.95525415552987,104.43991786156273L161.35738165272608,104.83332029098779L161.43184970776238,105.10036792829231L161.59567942884232,105.32878203608999L161.6105730398496,105.47202559642669L161.69993470589318,105.59514669248571L162.02759414805305,105.80521715756805L162.1020622030894,105.96219324877782L162.65312581035826,106.28501192407784L163.14461497359804,106.68221805225042L163.26376386165617,106.96982179627923L163.38291274971434,107.19163998732536L163.6658913588524,107.44162194048884L163.81482746892505,107.65307961904055L163.88929552396138,107.81067312881888L163.9339763569832,107.92365882191088L164.75312496238283,108.328691508805L164.90206107245552,108.63290331536393L164.93184829447006,108.827662697912L164.96163551648456,108.95675062605353L164.99142273849912,109.04643568155117L165.40844384670257,109.27130810841078L165.48291190173893,109.43674652243182L165.67652884483337,109.61530021640544L165.82546495490604,109.78337682338581L166.1084435640441,109.99990550833719L166.30206050713855,110.20888968353908L166.31695411814584,110.34035905774489L166.34674134016038,110.43139842043776L167.1807835565673,110.82572818963034L167.2254643895891,111.0804880979566L167.4041877216763,111.30594617815686L167.52333660973443,111.48958882444872L167.56801744275623,111.61790356472133L167.5829110537635,111.70093619070217L167.86588966290157,111.86548016606173L167.9850385509597,112.01246470173842L167.99993216196697,112.10668385428215L168.1637618830469,112.22951712355245L168.22333632707594,112.32731326603187L168.44674049218494,112.47628803428687L168.64035743527944,112.64384513415112L168.86376160038844,112.83448130391187L169.22120826456282,113.09280852045771L169.25099548657735,113.25978715221737L169.623335761759,113.5096039832885L169.7722718718317,113.71926304906799L169.8914207598898,113.89283638202345L170.32333547910054,114.16992113712024L170.5765268662241,114.43735709062445L170.66588853226767,114.63349802780917L170.77014380931854,114.7927829315834L170.94886714140574,114.95961392107267L170.97865436342028,115.07158297593341L171.33610102759465,115.28104108538145L171.51482435968188,115.4777457380824L171.58929241471822,115.6253405172957L171.84248380184175,115.81435003856191L171.88716463486352,115.94546714604114L172.080781577958,116.10083159829883L172.2595049100452,116.26476536775569L172.4829090751542,116.45141286965888L172.527589908176,116.58104478393965L172.60205796321233,116.6882182908094L173.03397268242307,116.92274388702783L173.3169512915611,117.17473632050361L173.45099379062654,117.37857255004918L173.5403554566701,117.5359440115869L173.5850362896919,117.64789407507499L173.94248295386635,117.85510178344563L174.01695100890265,118.00855980521769L174.12120628595352,118.14139834771119L174.24035517401165,118.26765460176586L174.28503600703345,118.36085659441237L174.9701421133677,118.68367347572217L174.98503572437497,118.88315190715925L175.04461016840403,119.02598779071769L175.1935462784767,119.16951861998618L175.35737599955664,119.31918344831986L175.69992905272377,119.54162098807559L176.0424821058909,119.8074085622318L176.10205654991998,119.98986217042427L176.16163099394905,120.12230553074457L176.41482238107255,120.29929112441206L176.5786521021525,120.4684904411253L176.59354571315976,120.57573473813217L177.0701412653923,120.82293751414406L177.18929015345043,121.01687482038274L177.4722687625885,121.24141453908742L177.50205598460303,121.38751322382474L177.63609848366843,121.5263241882151L178.20205570194457,121.82502356293679L178.2318429239591,122.01555554208919L178.33609820100997,122.16944768487203L178.3658854230245,122.27308326361295L178.57439597712622,122.41429758429821L178.63397042115528,122.5215829037675L178.75311930921345,122.63103904116049L178.85737458626429,122.7361266897071L179.3935445825259,123.0013784292985L179.4829062485695,123.19414636469611L179.9743954118093,123.49427404861359L180.09354429986743,123.7189608300879L180.2275867989328,123.90390821824164L180.64460790713628,124.17050183997375L180.92758651627435,124.43575709556697L181.06162901533975,124.64470237085736L181.22545873641968,124.83085055153876L181.35950123548508,124.99220767996891L181.37439484649235,125.0945372368784L182.0743945638339,125.41436256404377L182.13396900786296,125.62818072363294L183.0424792793062,126.08937413051042L183.34035149945151,126.47465566249448L183.54886205355325,126.78164816663161L183.60843649758232,126.98748045187871L184.09992566082212,127.2890411264431L184.72545732312733,127.69543186462086L184.88928704420724,127.99809559378306L185.20205287535984,128.29175159872574L185.36588259643977,128.52650804400977L185.64886120557784,128.76829920779997L185.76801009363598,128.95579112298267L186.21481842385396,129.22691142229863L186.4233289779557,129.46336993236892L186.5275842550066,129.64208118684184L187.52545619249344,130.0999317136631L187.9275836896896,130.5149307932913L187.95737091170417,130.77429852859794L188.0765197997623,130.97136052206474L188.29992396487128,131.1671614122613L188.32971118688585,131.29496966425597L189.22332784732183,131.67997959220935L189.52120006746716,132.01310265496895L189.58077451149623,132.23336000205552L189.69992339955434,132.40624195599318L190.13183811876507,132.65716002232955L190.23609339581594,132.84313365157038L190.32545506185957,132.98504748238898L190.69779533704124,133.19624130678753L190.89141228013568,133.38829228636175L191.01056116819382,133.5436572256768L191.08502922323015,133.66193178765224L191.189284500281,133.76793993319728L191.36800783236822,133.89151992535733L191.59141199747722,134.0404630100731L192.73822004503674,134.51070334196243L192.82758171108034,134.82230878450085L193.05098587618934,135.08278426122772L193.28928365230558,135.3172626192401L193.40843254036375,135.49696119305983L194.42119808885786,135.9340622810663L194.48077253288693,136.21556281767772L194.6297086429596,136.43249870525267L194.67438947598137,136.57705259631234L194.8382191970613,136.71648929608048L194.94247447411217,136.8336322444228L195.5531125254101,137.09912163994497L195.64247419145372,137.28685131456749L196.05949529965716,137.53175057397152L196.29779307577346,137.75394135351044L196.32758029778796,137.8966449547064L196.34247390879526,137.98696113392174L196.4467291858461,138.0739782695762L196.47651640786066,138.1355590443307L196.5063036298752,138.18187471311384L196.58077168491153,138.23306512881473L197.08715445915857,138.42228391595972L197.13183529218037,138.54974812285334L197.4297075123257,138.71889760269494L198.02545195261638,139.00458447991028L198.15949445168175,139.21722962787183L198.35311139477625,139.40423810054244L198.41268583880532,139.5346940456013L198.6360900039143,139.6812699128635L198.69566444794336,139.7873928307111L198.8148133360015,139.88737422788452L198.96374944607416,139.9926607284589L199.3509833322631,140.1731496486956L199.60417471938663,140.357792894796L200.0658766606119,140.6070726729665L200.21481277068457,140.8011136513542L200.27438721471364,140.93529952281472L200.61694026788075,141.11763100638245L200.82545082198249,141.28874949643438L201.0041741540697,141.44416662172796L201.55523776133856,141.69914123965512L201.61481220536763,141.8695271021095L201.6743866493967,141.98914381236213L201.748854704433,142.08262244052904L201.7637483154403,142.14304782910554L201.9871524805493,142.2442611073001L202.2552374786801,142.38263719707058L202.29991831170187,142.47857222415956L202.53821608781814,142.60482698296724L203.01481164005068,142.81718169751295L203.05949247307248,142.95734655500206L203.22332219415242,143.08812524116001L203.5509816363123,143.2595764527744L203.6403433023559,143.38771933235822L203.9382155225012,143.54857601820342L203.95310913350846,143.64927747578454L204.1616196876102,143.76821568885168L204.9211938489808,144.05101229735584L205.04034273703894,144.253608149945L205.23395968013338,144.4285125622159L205.33821495718425,144.56210670463932L205.79991689840955,144.76852198079817L206.0828955075476,144.9692495424177L206.18715078459846,145.1179126895711L206.5297038377656,145.29948438827236L206.8275760579109,145.48829041410428L206.90204411294727,145.62147234791414L207.30417161014344,145.80836532782985L207.60204383028878,145.99923858863949L207.6318310523033,146.12161222473878L207.7211927183469,146.21855967802685L207.7658735513687,146.28847525749225L207.8105543843905,146.34216129613154L208.58502215676836,146.5762513502246L208.61480937878292,146.72441087555427L208.76374548885556,146.85176662177923L208.80842632187736,146.93969691681417L208.95736243195006,147.03077203459975L209.2850218741099,147.1693244676938L209.3297027071317,147.26385654827675L209.49353242821164,147.3622918164248L209.53821326123344,147.4327069977631L210.08927686850228,147.61416100248067L210.10417047950955,147.7267745852024L210.4020426996549,147.8689289453662L210.74459575282202,148.03944085874642L211.42970185915627,148.31039605422168L211.5935315802362,148.51294343741966L211.62331880225076,148.64172506340537L211.69778685728707,148.73710674433772L211.71268046829437,148.7979552238294L211.861616578367,148.8705937804593L211.99565907743244,148.94659645307848L212.085020743476,149.0137591824944L213.29140323506462,149.34109917624139L213.72331795427536,149.63843279376968L213.82757323132623,149.84104920944714L213.85736045334073,149.96952741287024L213.90204128636253,150.05696891648998L214.06587100744247,150.14730887915204L214.17012628449334,150.22554215256295L214.25948795053694,150.2930331129185L214.6318282257186,150.41870449792586L215.54033849716188,150.6988656569629L215.74884905126362,150.91333812577156L215.7935298842854,151.051929100082L215.95735960536533,151.17132006012113L216.12118932644526,151.27904792133495L216.1509765484598,151.3502317028729L216.29991265853246,151.4256060248319L216.73182737774317,151.56488368310687L217.3871462620629,151.78923656809485L217.4765079281065,151.94286696863875L217.96799709134632,152.1388750121948L218.0275715353754,152.2689761138048L218.26586931149166,152.3968297190631L218.35523097753526,152.49213457041287L218.57863514264426,152.59560882587184L218.66799680868783,152.67613365702402L218.86161375178233,152.76425286767645L219.02544347286224,152.8506450698445L219.0403370838695,152.90552037392618L219.20416680494944,152.9718058723748L219.36799652602937,153.04479028539183L219.69565596818924,153.15456500670416L219.88927291128368,153.25914260849203L220.24671957545812,153.39281616186804L220.26161318646535,153.4759602231385L220.27650679747262,153.5287852185492L220.32118763049442,153.56928931287828L220.7382087386979,153.6752749280856L220.79778318272696,153.75045688259544L220.81267679373423,153.79846048074623L222.03395289633008,154.06041067882077L222.8382078907225,154.36656078699457L222.85310150172975,154.552975323392L223.1062928888533,154.71095091831344L223.34459066496956,154.84881960201776L223.68714371813667,154.9929106359543L223.7318245511585,155.0873210200899L223.92544149425294,155.17831165477492L224.19352649238374,155.28010855271148L224.22331371439827,155.34640619662503L224.2531009364128,155.39139935397776L224.40203704648548,155.4443918982534L224.75948371065985,155.538064369195L224.89352620972528,155.6172840027262L225.02756870879065,155.68772941320154L225.38501537296509,155.7905973045097L225.53395148303775,155.87735253049667L225.57863231605953,155.93689104118334L225.89139814721213,156.02469242429927L226.1296959233284,156.1166748313761L226.15948314534293,156.17675401528362L226.3977809214592,156.25173550888508L226.68075953059724,156.34253357388698L226.69565314160454,156.39941054538215L227.0084189727571,156.48360338066956L227.14246147182254,156.55540307309744L227.18714230484431,156.6055544806002L227.2020359158516,156.63799987263081L227.21692952685885,156.65982042184146L227.6041634130478,156.73364840013465L227.97650368822946,156.8355244894634L228.3488439634111,156.95342326062016L228.5871417395274,157.0600735191854L229.16799256881077,157.2102078500468L229.40629034492707,157.3350588341236L229.54033284399245,157.4293815923428L230.06160922924676,157.5604648307599L230.18075811730492,157.65591677782857L231.2977789428499,157.86663813550697L232.1913956032859,158.11051886196086L232.22118282530042,158.26068058180144L232.34033171335858,158.3660582557373L232.39990615738765,158.43689358886795L232.50416143443852,158.4926591464366L232.56373587846758,158.53366923351982L232.83182087659839,158.59199168271005L232.98075698667103,158.64553151426114L233.21905476278727,158.7070544315208L233.26373559580907,158.74944289207497L233.3084164288309,158.7803386173577L233.48713976091807,158.82060768056195L233.71054392602707,158.87166515369606L233.99352253516517,158.93593948670872L234.15735225624508,158.9937606915998L234.27650114430324,159.04235722396785L234.3658628103468,159.08188713152867L234.67862864149942,159.14152991495985L234.70841586351392,159.18070637194407L235.1850114157465,159.2577397914555L235.42330919186273,159.3302113554241L235.88501113308803,159.42358317984448L235.91479835510253,159.48278071278295L236.18288335323334,159.546628843046L236.5105427953932,159.61897326151222L236.79352140453128,159.6912519366111L236.94245751460394,159.74962025056936L237.3594786228074,159.82592963267058L237.46373389985825,159.8818726146775L237.73181889798906,159.9412545462018L237.82118056403266,159.98539216188215L237.895648619069,160.0189280258746L237.99990389611986,160.0488675373514L238.9977758336067,160.15745864073355L239.1913927767012,160.2394951440206L239.38500971979565,160.30537013471405L239.4147969418102,160.34743683159542L239.74245638397002,160.40027815957035L240.15947749217352,160.46616309458233L240.18926471418806,160.50809479221664L240.5169241563479,160.55930363980096L241.15734942966037,160.63904586097098L241.3658599837621,160.7023075590115L241.39564720577664,160.74244512815378L241.8573491470019,160.799629731015L241.99139164606729,160.84330550370794L242.05096609009635,160.87363773024282L242.22968942218355,160.90408649723128L242.28926386621265,160.92639524761864L242.85522108448876,160.97706654454507L243.1084124716123,161.02351143381878L243.45096552477943,161.0724536168091L243.763731355932,161.12042963814054L244.1658588531282,161.17225632962734L245.3871349557241,161.2672043696831L245.50628384378223,161.32990876267183L245.92330495198567,161.38691380716418L246.01266661802927,161.42513009426557L246.14670911709467,161.45398697632643L246.16160272810197,161.47195280701132L246.221177172131,161.48532535385465L246.3105388381746,161.4971972082242L246.90628327846528,161.52871079450563L247.4871341077487,161.5692801085225L247.75521910587946,161.60291289272732L248.82755909840267,161.65579343393182L248.90202715343898,161.68952730522977L249.09564409653348,161.7148206999279L249.19989937358432,161.73262108189095L249.30415465063518,161.74585806439563L249.795643813875,161.76494299263214L250.27223936610753,161.78576386043238L250.31692019912933,161.79906234318398L250.74883491834007,161.81419183417307L251.4786218576961,161.83271242816542L252.16372796403036,161.84967158490818L252.37223851813212,161.86104632883934L252.78925962633556,161.86945730485755L253.1764935125245,161.87500681560633L253.19138712353177,161.87833721288877" fill="none"></path></g></g></g></g><g opacity="0.2"><g><g><g><path style="fill: none;" stroke="rgb(255, 112, 67)" stroke-width="2px" d="M29.906370902591284,159.52866620925906L30.382966454823812,150.10999895442276L31.35105117029614,130.97833332560955L31.410625614325205,129.8009992548724L31.827646722528673,121.5596662420978L32.06594449864494,116.85033270034194L32.1701997756958,114.78999739125372L32.185093386703066,114.4956645588676L32.3936039408048,110.3749994230767L32.64679532792833,105.37133030774196L32.73615699397193,103.60533331342538L32.825518660015526,101.83933083672324L33.13828449116813,95.65833039184412L33.16807171318266,95.06966472707191L33.42126310030619,90.06600109412271L33.46594393332799,89.18299711457888L33.540411988364326,87.7113329526484L33.599986432393386,86.53400162310399L33.62977365440793,85.94533047594626L34.04679476261139,77.70400020436446L34.68722003592385,65.04766099983456L34.73190086894565,64.16466798506181L35.43190058628718,50.33099745098751L35.580836696359846,47.38766912712652L35.61062391837438,46.799003462354335L35.64041114038891,46.210337797582135L35.95317697154151,40.02933187031746L36.087219470606904,37.38033089645704L36.25104919168684,34.14266425782443L36.39998530175951,31.199335933963457L36.6233894668685,26.78433796578644L36.72764474391938,24.724002656698218L36.802112798955704,23.2523330123822L36.95104890902837,20.309004688521203L37.0701977970865,17.954331064661343L37.442538072268164,14.717004333932094L38.0978569565879,14.72247575469917L38.797856673929424,14.735710233388232L38.87232472896576,14.737563279700117L39.08083528306749,14.743221101575477L39.11062250508203,14.744087318490516L39.319133059183756,14.75051267434121L39.33402667019102,14.750995124268572L39.43828194724189,14.754492886241898L39.54253722429275,14.75815511978137L39.914877499474414,14.772617652830988L40.25743055264155,14.78782579031378L40.27232416364882,14.788527535662675L40.43615388472875,14.796487959464054L40.65955804983775,14.808011933865217L41.61274915430281,14.8658949603769L41.62764276531007,14.866914684086995L41.657429987324605,14.868954131507182L41.74679165336821,14.875171156707433L41.82125970840454,14.880445211595116L42.119131928549876,14.90239668328982L42.38721692668067,14.92332843127445L42.431897759702466,14.926924876187464L42.521259425746074,14.934216448953196L42.65530192481147,14.945378585908841L43.593599418269264,15.031342391146863L43.727641917334665,15.044730376631L43.96593969345093,15.069236639986483L44.30849274661806,15.105990552634184L44.323386357625324,15.107635268295626L44.44253524568346,15.120880711755758L44.57657774474885,15.136034025383182L44.651045799785194,15.14457558205161L44.90423718690872,15.174257217355091L45.20210940705405,15.210451926677882L45.41061996115579,15.236602905694808L45.49998162719938,15.248006267614144L45.51487523820665,15.249925102552487L45.58934329324298,15.259552171557466L46.27444939957724,15.352094839441255L46.28934301058451,15.354189110716831L46.31913023259905,15.358377653267963L46.453172731664445,15.37742346062746L46.61700245274438,15.401085436610083L47.182959671020505,15.485985659053712L47.40636383612951,15.52086459584735L47.46593828015857,15.530294298972956L47.64466161224577,15.558912351482045L48.31487410757277,15.670599509665017L48.50849105066723,15.704151709158431L48.865937714841635,15.767604839376858L48.880831325848895,15.770291208290553L49.04466104692883,15.80007152653372L49.402107711103234,15.866463215400584L49.87870326333576,15.958040983429667L50.02763937340843,15.98737174605872L50.07232020643022,15.996242245859436L50.60849020269182,16.105001810165042L50.65317103571362,16.114267041724506L50.78721353477902,16.142238172740086L50.84678797880809,16.154759941309205L50.921256033844415,16.17048342303259L51.04040492190255,16.195812044218794L51.114872976938884,16.21176578613478L51.308489920033345,16.25361831733293L51.57657491816415,16.312510102783616L51.591468529171415,16.315810498877592L51.78508547226588,16.359066520773514L52.03827685938941,16.416499991671063L52.14253213644028,16.440436086930564L52.276574635505675,16.47144445953429L52.60423407766554,16.5484061877187L52.693595743709146,16.569666878835598L52.76806379874547,16.587495596605628L52.946787130832675,16.630598111706473L53.289340183999805,16.714577293379694L53.3787018500434,16.73676999003809L53.61699962615967,16.79656088671705L53.66168045918147,16.807865565696677L53.676574070188735,16.811648411717993L53.75104212522507,16.830573606595667L53.79572295824686,16.841966003743913L54.0042335123486,16.89555083999369L54.451041842566596,17.012588806461892L54.4957226755884,17.024463653537502L54.570190730624724,17.04430988918556L54.68933961868286,17.076239302559692L54.897850172784594,17.13264208497608L54.957424616813654,17.148869946168965L55.18082878192266,17.210217840340746L55.59784989012613,17.32675142733945L56.17870071940952,17.493415947698875L56.47657293955485,17.580849032261124L56.878700436751046,17.70099002894393L56.923381269772854,17.714487662138822L56.96806210279465,17.728007224875874L56.982955713801914,17.732524710559293L57.116998212867315,17.77331365896305L57.45955126603444,17.878783791945796L57.60848737610711,17.925175738369525L58.189338205390506,18.109285209511327L58.20423181639777,18.11407681447167L58.338274315463174,18.15729994205436L58.35316792647044,18.162124441327908L58.42763598150677,18.186268867237875L58.45742320352131,18.195950760098246L58.50210403654311,18.21050101131646L58.785082645681165,18.30332876324824L58.84465708971024,18.323021492101244L59.246784586906436,18.457318008243494L59.842529027197095,18.66068161739526L59.94678430424796,18.69681053809159L59.97657152626249,18.707161281987606L60.33401819043689,18.83238993244979L60.73614568763309,18.97552405407953L61.063805129792954,19.093899722619046L61.197847628858355,19.142780672077098L61.31699651691648,19.1864533552739L61.46593262698915,19.241332034510695L61.48082623799642,19.24683634959098L61.70423040310541,19.329817737096267L61.98720901224348,19.435967685885725L62.19571956634522,19.514925002406002L62.31486845440335,19.560330119432866L62.34465567641788,19.571711551810044L62.38933650943968,19.58881659468904L62.478698175483274,19.62310343384458L62.597847063541415,19.669001965569876L62.687208729585016,19.703551959231223L62.851038450664944,19.767213420100116L63.089336226781214,19.8605016924171L63.11912344879575,19.872212067926565L63.282953169875675,19.936893252505527L63.31274039189021,19.94870231095468L63.38720844692654,19.978263333776336L63.476570112970144,20.013844015918846L63.68508066707187,20.0973078533515L64.251037885348,20.327019807399537L64.37018677340613,20.375966545484047L64.57869732750787,20.462116751830372L65.1893353788058,20.718001614437497L65.85954787413279,21.004993532588035L65.93401592916912,21.037273818636592L66.09784565024906,21.108577724945643L66.73827092356152,21.39095347447305L66.88720703363418,21.45745481105069L67.12550480975045,21.564514835839464L67.17018564277224,21.58467904984874L67.42337702989579,21.699458273475248L67.48295147392486,21.72659608188904L67.63188758399751,21.79466538073057L67.79571730507745,21.86990563985599L67.91486619313558,21.92486107249031L68.24252563529544,22.07700823594475L68.37656813436084,22.139682867416777L69.07656785170236,22.47108210842622L69.27018479479683,22.56395371944232L69.32975923882591,22.592626595806774L69.65741868098577,22.75125393896732L69.89571645710204,22.867546301002328L70.3574183983273,23.095109159919424L70.99784367163976,23.415631348021215L71.17656700372696,23.50607974462945L71.41486477984323,23.62737204227524L71.68294977797403,23.764749659089933L71.77231144401762,23.81075783852601L71.96592838711209,23.910811374597063L72.44252393934461,24.1592950167277L72.48720477236643,24.18274866205986L72.63614088243908,24.261124845713088L72.65103449344636,24.268975621803712L72.75528977049721,24.324040702148785L72.8148642145263,24.35556441899308L72.84465143654081,24.37135368934292L73.03826837963528,24.474236136351657L74.03614031712215,25.012474818944053L74.33401253726747,25.17574026026984L74.34890614827474,25.18393094426382L74.73614003446367,25.398018099528162L74.78082086748547,25.422853306015934L74.82550170050726,25.447710442045867L75.09358669863806,25.597412461550306L75.18294836468166,25.647521465368893L75.45103336281247,25.798495398318188L75.480820584827,25.815326321920285L75.95741613705952,26.086254850444057L75.98720335907406,26.103294104696595L76.12124585813946,26.18008039654377L76.47869252231386,26.386009762127383L76.5531605773502,26.429123241999296L76.56805418835745,26.437752516836344L76.67230946540832,26.498256123635244L76.85103279749553,26.602300836378056L77.01486251857546,26.698045217416134L77.44677723778618,26.952120892795673L77.50635168181525,26.987361667034826L77.68507501390246,27.09334714425814L77.77443667994605,27.146493389664872L77.81911751296786,27.173104889067L77.87869195699692,27.208630747354146L78.10209612210592,27.34225841246075L78.29571306520039,27.458583668808988L78.37018112023671,27.50345151205312L78.56379806333118,27.620445619437028L78.80209583944745,27.765103844246386L79.04039361556372,27.910485743946754L79.09996805959278,27.9469436077754L79.32337222470177,28.08406903485533L79.4872019457817,28.185032646925723L79.51698916779624,28.203420568020643L79.5318827788035,28.212630975724718L79.56167000081804,28.231040826361774L79.65103166686164,28.28633616689945L79.69571249988343,28.314022213867062L79.82975499894883,28.397233861564953L79.93401027599971,28.462123376794356L80.0233719420433,28.517835378632938L80.1574144411087,28.60160622965572L80.21698888513777,28.63891934562829L80.49996749427582,28.81672407340122L80.54464832729764,28.8448925702962L80.7382652703921,28.967237485965313L80.7829461034139,28.99553756011318L80.88720138046477,29.061666094474237L81.37869054370456,29.37526951202688L81.51273304276997,29.461321035433517L81.5872010978063,29.509226120265797L81.84039248492982,29.672612174073432L82.15315831608243,29.87553719238213L82.16805192708969,29.885230050013543L82.18294553809696,29.89493387241605L82.3020944261551,29.972597345949335L82.36166887018416,30.011500353727982L82.40634970320595,30.04069953910412L82.71911553435856,30.245817511628058L82.80847720040215,30.30463254368122L83.18081747558381,30.5507916543437L83.34464719666374,30.659638936817924L83.70209386083815,30.89825428497991L83.71698747184541,30.908232226659315L83.82124274889628,30.978143607041662L83.89571080393262,31.028153927920588L84.47656163321601,31.420583084740617L84.8340082973904,31.664088720802607L85.04251885149215,31.806839075444692L85.16166773955027,31.88864723244481L85.39996551566654,32.05277889068564L85.51911440372467,32.13509142715526L85.65315690279007,32.22789724954488L85.8616674568918,32.37268705160715L86.2191141210662,32.622091734508196L86.50209273020427,32.82060891484423L86.93400744941499,33.12541858599371L87.23187966956033,33.3368961257419L87.27656050258213,33.36871589140527L87.4254966126548,33.4749206640501L87.45528383466933,33.49619231993809L87.75315605481465,33.70947904691387L88.46804938316346,34.22553599761894L88.75102799230152,34.43143246888932L89.01911299043232,34.62732906893812L89.28719798856311,34.824048026817636L89.42124048762851,34.922709036962004L89.70421909676658,35.13166467936265L90.38932520310084,35.64127434467487L90.55315492418077,35.76391530916306L90.59783575720257,35.79741268480109L90.8957079773479,36.02131331017871L91.0744313094351,36.15611420579049L91.08932492044237,36.16736406091475L91.14889936447145,36.21238541095394L91.23826103051503,36.28000515418136L91.2531546415223,36.29127693884778L91.32762269655863,36.34770165080631L91.71485658274756,36.64207285989117L91.75953741576937,36.676140403625176L91.83400547080569,36.73297081211352L91.90847352584203,36.78986700922834L92.02762241390016,36.88102811595652L92.13187769095103,36.96091743801829L93.38294101556141,37.928744886608214L93.42762184858321,37.96361285863078L93.60634518067043,38.10333693645581L93.6659196246995,38.1499810726143L93.99357906685935,38.40721460206381L94.41060017506283,38.73623448774971L94.81272767225902,39.055243537442976L94.96166378233168,39.17381657186186L95.34889766852062,39.48319855255015L95.49783377859328,39.60260490957083L95.79570599873861,39.84209743941892L96.07868460787667,40.07046072662458L96.58506738212373,40.481146227286615L96.92762043529088,40.7604408761416L97.47868404255973,41.21220040925538L97.52336487558152,41.248965286674135L97.55315209759605,41.273482514800705L97.86591792874867,41.531472613454476L98.14889653788673,41.7657239827281L98.37230070299573,41.95122597979658L98.38719431400298,41.96360520634171L98.43187514702478,42.00076481551921L98.50634320206113,42.06274866641343L98.69996014515559,42.22416106142733L98.75953458918465,42.27389726302933L98.80421542220647,42.31122134377298L98.87868347724279,42.373479313944095L99.22123653040993,42.66053702072109L99.39995986249711,42.81076534923719L99.45953430652618,42.860907247369006L99.50421513954798,42.898538341702796L99.74251291566424,43.09954452507315L100.14464041286044,43.43997873744946L100.26378930091857,43.54115068017029L100.36804457796944,43.62977892477985L100.60634235408571,43.83274780217285L100.66591679811478,43.883580480882486L101.06804429531097,44.22752342000321L101.08293790631824,44.240286413536L101.39570373747084,44.5088904105916L101.4105973484781,44.5216972632087L101.44038457049264,44.54733289798504L101.73825679063798,44.80410590704934L101.82761845668158,44.88129789542635L101.91698012272516,44.95856663720089L102.0361290107833,45.061701273944365L102.45315011898676,45.42369222625665L102.78080956114663,45.70922582985403L102.87017122719024,45.7872621056039L103.0191073372629,45.91749069167687L103.82336233165529,46.62412632845875L103.95740483072069,46.742458137913964L104.10634094079334,46.874123108997914L104.62761732604768,47.33647461097138L105.77442537360722,48.36191096679608L105.78931898461448,48.37529895228022L105.84889342864354,48.428883788529994L105.98293592770894,48.54955109422444L106.14676564878887,48.69724656062192L106.93612703217401,49.41198516322917L107.0254886982176,49.493223152133325L107.09995675325395,49.56097447261366L107.36804175138474,49.805247642651004L107.5169778614574,49.94121080399686L107.68080758253734,50.090978612127756L107.84463730361726,50.2409547509091L108.06804146872626,50.445820533698296L108.20208396779165,50.56893298334276L108.38080729987887,50.733316831318334L108.52974340995152,50.870486117482585L108.6786795200242,51.00783083998407L108.8127220190896,51.131590211122024L109.28931757132213,51.57277970491826L109.30421118232938,51.58659531647437L109.3488920153512,51.628053115913794L109.36378562635845,51.64187969224098L110.07867895470724,52.307375507944656L110.13825339873631,52.363010756385705L110.25740228679446,52.47435800666532L110.4212320078744,52.6276455063117L110.43612561888165,52.64158173034964L110.45101922988891,52.65552891915867L110.68931700600518,52.87890323552463L111.22548700226677,53.38304148006979L111.31484866831038,53.46727285147777L111.34463589032491,53.4953645949752L111.43399755636851,53.57967271978071L111.44889116737578,53.593729556300495L111.47867838939031,53.62184322934008L111.50846561140484,53.649967867150735L111.97016755263012,54.08674952297431L111.99995477464465,54.11498380849572L112.08931644068824,54.19971955937321L112.25314616176817,54.35521097800592L112.3276142168045,54.42595568099008L112.49144393788444,54.58173218367078L112.78931615802976,54.865456600040574L112.89357143508063,54.96490707370242L112.92335865709516,54.99333872510322L113.42974143134222,55.47758687491601L113.83186892853843,55.86339331000597L114.0701667046547,56.09255702550019L114.26378364774916,56.2790239224234L115.15740030818516,57.14294920029451L115.39569808430143,57.374229116606465L115.94676169157029,57.910461246091884L116.02122974660661,57.983080924930086L116.6914422419336,58.63821503196668L116.75101668596268,58.696580508405724L116.78080390797722,58.725779693781845L117.00420807308622,58.94491064374129L117.01910168409347,58.95952668358596L117.33186751524607,59.26685825208299L117.39144195927514,59.32546495348571L117.52548445834054,59.457415008617645L117.6297397353914,59.560111054518075L117.77867584546408,59.706951268771604L119.35739861223433,61.27147059456156L119.5956963883506,61.50887981790517L119.68505805439419,61.59800147721316L119.81910055345959,61.73174975480161L119.96803666353226,61.88048687445134L120.08718555159038,61.999564288339734L120.1318663846122,62.044234765704495L120.44463221576478,62.35726801516118L120.80207887993919,62.71567348733152L121.11484471109178,63.02984707298015L121.79995081742604,63.71984915203931L121.8595252614551,63.779958027079466L121.88931248346964,63.810023429370624L121.90420609447692,63.82506709528729L122.0829294265641,64.005569156745L122.24675914764404,64.17117009431003L122.51484414577484,64.44244949550824L122.60420581181843,64.53296368074294L122.61909942282571,64.5480512057439L122.94675886498558,64.88028376935516L123.05101414203644,64.98610477501234L123.25952469613817,65.19791125789281L123.34888636218177,65.28875438625977L123.54250330527623,65.48570360433192L123.7361202483707,65.68282825874124L123.9148435804579,65.86496407108932L123.97441802448697,65.92569793808084L124.18292857858869,66.1384364265028L124.34675829966862,66.3057259388136L124.4956944097413,66.45791696135235L124.64463051981396,66.61020666683078L125.1659069050683,67.14402654667944L125.24037496010463,67.22038521245464L125.38931107017729,67.3731792974026L125.83611940039529,67.83215364988456L126.59569356176588,68.61436945369525L127.4744166111946,69.52228539312438L127.81696966436175,69.87706152606846L127.84675688637627,69.90793283903372L127.90633133040534,69.96968642973532L127.92122494141262,69.98512482741074L127.95101216342715,70.01601258753261L127.9659057744344,70.03145646759356L127.99569299644894,70.06234422771543L128.2935652165943,70.37141919481358L128.57654382573233,70.6653518130554L128.60633104774686,70.69631084418927L129.15739465501574,71.26962034706912L129.18718187703027,71.30063968444392L129.29143715408114,71.40924025956893L129.395692431132,71.51787921139271L129.47016048616834,71.5954988258417L129.73824548429914,71.87510048828682L130.02122409343718,72.17050786823839L130.12547937048805,72.27940997456798L130.18505381451712,72.34165697996802L130.70633019977146,72.88682539788061L131.28718102905486,73.49533729830088L131.3169682510694,73.5265759310972L131.48079797214933,73.69841582340464L131.7042021372583,73.9328755233287L132.3297337995635,74.59016969026735L132.49356352064345,74.76250299727322L133.7148396232393,76.04955879097793L134.2510096195009,76.61585084036898L134.59356267266804,76.97802819378957L134.80207322676978,77.19861745830215L134.87654128180608,77.2774267504129L134.9212221148279,77.3247178080649L135.51696655511856,77.95569104203491L135.66590266519123,78.11356181599118L135.6807962761985,78.12935108634102L135.74037072022756,78.19251365012593L136.1276046064165,78.60325397464335L136.18717905044556,78.66647136228363L136.4254768265618,78.91941218385678L136.8722851567798,79.39398940558027L137.21483820994695,79.75808011155367L137.36377432001962,79.9164497825939L137.61696570714315,80.18576648976948L138.2573909804556,80.86746275473836L138.68930569966633,81.3275829257978L139.13611402988434,81.80385420465261L139.43398625002965,82.12152555227455L139.61270958211688,82.31218099174889L139.94036902427675,82.66182012944375L140.29781568845112,83.04339416289827L141.50419818003974,84.33219883758963L141.6531342901124,84.49140183123168L141.7276023451487,84.57101155163099L141.98079373227228,84.84171530234771L142.24887873040305,85.12838924213702L142.45738928450479,85.35139623867192L143.306325111919,86.25959726214903L143.38079316695533,86.3392837359459L143.64887816508613,86.62616052400013L144.48292038149305,87.51882446686216L144.69143093559478,87.74201238211981L144.72121815760931,87.77389793640965L144.9446223227183,88.01303411119775L144.97440954473285,88.04491966548757L145.49568592998716,88.60291138317388L145.59994120703803,88.7145053408027L145.76377092811796,88.88987040701119L146.12121759229234,89.27247512894687L146.34462175740134,89.51158937419282L147.25313202884462,90.4838246607554L147.37228091690275,90.61130657167377L147.55100424898995,90.80251573208746L147.93823813517886,91.21674833619268L148.3254720213678,91.6308822573582L148.951003683673,92.29964009245707L149.0552589607239,92.41106957851976L149.21908868180378,92.58615504306579L149.24887590381834,92.61798577350021L149.42759923590555,92.80895370895023L149.53185451295641,92.92033385354307L149.54674812396365,92.93624921876031L149.59142895698548,92.98397886725535L149.87440756612352,93.28623374674405L150.03823728720346,93.46118763403716L150.3956839513779,93.8427945618049L150.49993922842876,93.95407054107251L150.60419450547963,94.06533555556905L150.75313061555227,94.22425894754866L150.84249228159587,94.3195976320569L151.24461977879207,94.74850109986215L151.6765344980028,95.20892828451174L152.21270449426441,95.78011610418834L153.22547004275853,96.85775025272166L153.24036365376577,96.87358338215583L153.50844865189657,97.15853585288615L153.65738476196927,97.31677942905903L154.08929948118,97.77545225033639L154.13398031420178,97.82288036762684L154.22334198024538,97.91772563743665L154.32759725729625,98.02835469521077L154.61057586643432,98.32852078580943L154.72972475449245,98.45485687815034L154.83398003154332,98.56537628821368L154.89355447557236,98.62852240484197L154.95312891960143,98.69165755669918L155.206320306725,98.95989423392373L155.22121391773223,98.97566705711696L155.2510011397468,99.00721818588897L155.39993724981943,99.16491900589355L155.4744053048558,99.24375570993199L155.5488733598921,99.32257596681383L155.66802224795023,99.44865986941997L155.74249030298657,99.52744723198857L155.80206474701566,99.59046725374948L156.14461780018277,99.95266653671221L156.62121335241528,100.45610851829402L156.66589418543708,100.50327896346417L157.09780890464782,100.9589693670088L157.1127025156551,100.97467091919002L157.63397890090943,101.52395660864177L157.7829150109821,101.68075831741811L158.02121278709836,101.93150618477598L158.0956808421347,102.0098330269594L158.1403616751565,102.05681707102124L158.27440417422187,102.19774727366465L159.1531272236506,103.12027377055294L159.33185055573782,103.30761784916224L159.43610583278868,103.41685438100968L159.54036110983955,103.52605253615833L159.68929721991222,103.68199351040518L159.7041908309195,103.69758541487565L159.94248860703573,103.94692430915023L160.5829138803482,104.61609332316448L160.95525415552987,105.00449840899951L161.35738165272608,105.42342393512537L161.43184970776238,105.50093938424912L161.59567942884232,105.67140319778649L161.6105730398496,105.68689093693175L161.69993470589318,105.77982833657428L162.02759414805305,106.12032285519152L162.1020622030894,106.19765738559252L162.65312581035826,106.76923993702786L163.14461497359804,107.27802724450936L163.26376386165617,107.40122741232244L163.38291274971434,107.5243672738946L163.6658913588524,107.81659487023404L163.81482746892505,107.9702661368681L163.88929552396138,108.04706339348634L163.9339763569832,108.09313736154887L164.75312496238283,108.93624053914613L164.90206107245552,109.08922102520236L164.93184829447006,109.11980177173412L164.96163551648456,109.15038251826587L164.99142273849912,109.1809632647976L165.40844384670257,109.60861674870019L165.48291190173893,109.68490414346338L165.67652884483337,109.8831307573659L165.82546495490604,110.03549173385633L166.1084435640441,110.32469853576427L166.30206050713855,110.52236594634189L166.31695411814584,110.53756311905362L166.34674134016038,110.56795746447706L167.1807835565673,111.41722284341918L167.2254643895891,111.46262796044604L167.4041877216763,111.64413329845725L167.52333660973443,111.76505279388645L167.56801744275623,111.81037567513025L167.5829110537635,111.82548512967335L167.86588966290157,112.11229612910113L167.9850385509597,112.23294150525344L167.99993216196697,112.24801258309776L168.1637618830469,112.41376702745788L168.22333632707594,112.47400747975097L168.44674049218494,112.69975018666939L168.64035743527944,112.89518078394745L168.86376160038844,113.12043555855298L169.22120826456282,113.48029934527646L169.25099548657735,113.51025509985688L169.623335761759,113.88432922989522L169.7722718718317,114.0337516477372L169.8914207598898,114.15319638145665L170.32333547910054,114.5855482697654L170.5765268662241,114.8385110208807L170.66588853226767,114.92770943358624L170.77014380931854,115.03171028724474L170.94886714140574,115.2098604053066L170.97865436342028,115.23953655822453L171.33610102759465,115.5952282495535L171.51482435968188,115.77280271713383L171.58929241471822,115.84673268611564L171.84248380184175,116.0978643204612L171.88716463486352,116.14214280726L172.080781577958,116.33387827668534L172.2595049100452,116.51066602194096L172.4829090751542,116.73138412251369L172.527589908176,116.7754926553608L172.60205796321233,116.84897855111402L173.03397268242307,117.27453228135548L173.3169512915611,117.5527249707173L173.45099379062654,117.68432689436757L173.5403554566701,117.7720012038935L173.5850362896919,117.81581917030707L173.94248295386635,118.16591334600159L174.01695100890265,118.23874683787578L174.12120628595352,118.34065616145148L174.24035517401165,118.45703898284788L174.28503600703345,118.50065958338209L174.9701421133677,119.16789879768689L174.98503572437497,119.18236955431482L175.04461016840403,119.24024161605541L175.1935462784767,119.38481486388893L175.35737599955664,119.54368069082037L175.69992905272377,119.8752772977092L176.0424821058909,120.20608992346608L176.10205654991998,120.263542582713L176.16163099394905,120.32097057122503L176.41482238107255,120.56476951491332L176.5786521021525,120.72228941619515L176.59354571315976,120.73660118364245L177.0701412653923,121.19374167816191L177.18929015345043,121.30778077974075L177.4722687625885,121.57822411714442L177.50205598460303,121.60666125093074L177.63609848366843,121.73454063480061L178.20205570194457,122.27307262501928L178.2318429239591,122.30135351081778L178.33609820100997,122.4002858990463L178.3658854230245,122.42853663172431L178.57439597712622,122.6261190653261L178.63397042115528,122.6825108829714L178.75311930921345,122.79522324725002L178.85737458626429,122.893758162527L179.3935445825259,123.3992560386856L179.4829062485695,123.48329826779253L179.9743954118093,123.94446557448974L180.09354429986743,124.05599100229935L180.2275867989328,124.18132930047229L180.64460790713628,124.57039227257191L180.92758651627435,124.83363997895674L181.06162901533975,124.95812028379298L181.22545873641968,125.11007282256082L181.35950123548508,125.23424337261415L181.37439484649235,125.24803157224257L182.0743945638339,125.89410055479185L182.13396900786296,125.94890796301664L183.0424792793062,126.78116424082667L183.34035149945151,127.05257796047059L183.54886205355325,127.24213692283729L183.60843649758232,127.29622887974935L184.09992566082212,127.74138213828967L184.72545732312733,128.30501797188748L184.88928704420724,128.4520911875264L185.20205287535984,128.7322356061398L185.36588259643977,128.8786427119358L185.64886120557784,129.13098595348526L185.76801009363598,129.23702899575673L186.21481842385396,129.63359187127253L186.4233289779557,129.8180576974743L186.5275842550066,129.91014806855122L187.52545619249344,130.78670750389497L187.9275836896896,131.1374294127336L187.95737091170417,131.16335013155793L188.0765197997623,131.2669535122649L188.29992396487128,131.46086274755615L188.32971118688585,131.48668204224802L189.22332784732183,132.25749448413936L189.52120006746716,132.51278724910836L189.58077451149623,132.56374602268536L189.69992339955434,132.6655648868997L190.13183811876507,133.0335371218341L190.23609339581594,133.12209409543163L190.32545506185957,133.19791822861689L190.69779533704124,133.5130320433853L190.89141228013568,133.6763687557231L191.01056116819382,133.77670463464935L191.08502922323015,133.83934363061536L191.189284500281,133.92695215151483L191.36800783236822,134.07688991359743L191.59141199747722,134.26387763714675L192.73822004503674,135.21606383979636L192.82758171108034,135.2897169483085L193.05098587618934,135.47349747631802L193.28928365230558,135.6689801562587L193.40843254036375,135.7665090537894L194.42119808885786,136.589713913076L194.48077253288693,136.63781362259485L194.6297086429596,136.75790253661503L194.67438947598137,136.79388343290185L194.8382191970613,136.92564434573274L194.94247447411217,137.00934666693627L195.5531125254101,137.49735573322823L195.64247419145372,137.5684458265013L196.05949529965716,137.89909946307756L196.29779307577346,138.0872275228188L196.32758029778796,138.11070035650036L196.34247390879526,138.12243540274474L196.4467291858461,138.2045039730579L196.47651640786066,138.2279302064624L196.5063036298752,138.25134821628856L196.58077168491153,138.30985075236606L197.08715445915857,138.70611209667723L197.13183529218037,138.7409444331938L197.4297075123257,138.97262182245728L198.02545195261638,139.4331147957333L198.15949445168175,139.53619734981416L198.35311139477625,139.68475080954838L198.41268583880532,139.73037796318954L198.6360900039143,139.90113371375682L198.69566444794336,139.94657720748245L198.8148133360015,140.03734632364464L198.96374944607416,140.15059047932047L199.3509833322631,140.4438830290507L199.60417471938663,140.63475776394657L200.0658766606119,140.98099234022226L200.21481277068457,141.0921751189357L200.27438721471364,141.13657833000548L200.61694026788075,141.39112823173406L200.82545082198249,141.54542723151224L201.0041741540697,141.67729230966833L201.55523776133856,142.0816031665459L201.61481220536763,142.12510589579105L201.6743866493967,142.16856887774102L201.748854704433,142.22284038277945L201.7637483154403,142.2336859119703L201.9871524805493,142.3960810245919L202.2552374786801,142.59020133172635L202.29991831170187,142.622474764793L202.53821608781814,142.79420912117882L203.01481164005068,143.13571376933146L203.05949247307248,143.16759384123574L203.22332219415242,143.28429327039697L203.5509816363123,143.516753270196L203.6403433023559,143.5799336517339L203.9382155225012,143.7898610469712L203.95310913350846,143.80032966215626L204.1616196876102,143.94662300845238L204.9211938489808,144.4752072101121L205.04034273703894,144.5575019288287L205.23395968013338,144.6908691806223L205.33821495718425,144.76249791827445L205.79991689840955,145.07814489503644L206.0828955075476,145.270340884847L206.18715078459846,145.34090741030118L206.5297038377656,145.57184193632423L206.8275760579109,145.7714994528522L206.90204411294727,145.82124524862888L207.30417161014344,146.0887047977034L207.60204383028878,146.28554847985393L207.6318310523033,146.3051726788877L207.7211927183469,146.36398085795892L207.7658735513687,146.39334862669037L207.8105543843905,146.4226903540905L208.58502215676836,146.92738643136414L208.61480937878292,146.94665016354878L208.76374548885556,147.04280024111668L208.80842632187736,147.0715923593666L208.95736243195006,147.16738471127815L209.2850218741099,147.3771531173348L209.3297027071317,147.40565466915123L209.49353242821164,147.50994471864686L209.53821326123344,147.53832976977057L210.08927686850228,147.88634200955698L210.10417047950955,147.89569495928504L210.4020426996549,148.08216048561187L210.74459575282202,148.29520872881673L211.42970185915627,148.71682884743458L211.5935315802362,148.81676451221657L211.62331880225076,148.83489750238397L211.69778685728707,148.88017926573625L211.71268046829437,148.8892279430669L211.861616578367,148.97955161540415L211.99565907743244,149.06060046200724L212.085020743476,149.11450327661822L213.29140323506462,149.83210916686193L213.72331795427536,150.08443322006204L213.82757323132623,150.14497383296333L213.85736045334073,150.16224471800484L213.90204128636253,150.18813117191957L214.06587100744247,150.28281882314513L214.17012628449334,150.3428920626793L214.25948795053694,150.3942695534518L214.6318282257186,150.60721157543688L215.54033849716188,151.11910739551848L215.74884905126362,151.2350468289845L215.7935298842854,151.25981556154764L215.95735960536533,151.35040650017984L216.12118932644526,151.4406397131557L216.1509765484598,151.4570073751798L216.29991265853246,151.53866750777038L216.73182737774317,151.77380017051928L217.3871462620629,152.12576589557688L217.4765079281065,152.17331256945457L217.96799709134632,152.43288707752887L218.0275715353754,152.46412776621978L218.26586931149166,152.58861012695058L218.35523097753526,152.6350918474375L218.57863514264426,152.7508202090603L218.66799680868783,152.7969209037523L218.86161375178233,152.89643168365507L219.02544347286224,152.9802333730965L219.0403370838695,152.98783333004874L219.20416680494944,153.0712341200477L219.36799652602937,153.1542669049174L219.69565596818924,153.31922708867265L219.88927291128368,153.41600901117383L220.24671957545812,153.59332649193206L220.26161318646535,153.60067631504413L220.27650679747262,153.60802271166523L220.32118763049442,153.63004545437195L220.7382087386979,153.83425335089657L220.79778318272696,153.86322981436024L220.81267679373423,153.87046587797235L222.03395289633008,154.45333597593256L222.8382078907225,154.82578594925522L222.85310150172975,154.83259712798818L223.1062928888533,154.94791431069558L223.34459066496956,155.05562262757425L223.68714371813667,155.2090471868591L223.7318245511585,155.22893659629327L223.92544149425294,155.31479760680247L224.19352649238374,155.43280389961635L224.22331371439827,155.44585266249533L224.2531009364128,155.45888909000683L224.40203704648548,155.5238807146669L224.75948371065985,155.6785730756074L224.89352620972528,155.73611345302294L225.02756870879065,155.7933975289146L225.38501537296509,155.94489914147192L225.53395148303775,156.00748536947714L225.57863231605953,156.02619880721338L225.89139814721213,156.15639449897313L226.1296959233284,156.25464844199126L226.15948314534293,156.26687279114495L226.3977809214592,156.36420774928726L226.68075953059724,156.47873067138985L226.69565314160454,156.4847260026249L227.0084189727571,156.60989263360068L227.14246147182254,156.66310261173928L227.18714230484431,156.6807815918543L227.2020359158516,156.68666796067677L227.21692952685885,156.6925512456574L227.6041634130478,156.84439036757442L227.97650368822946,156.9883386234566L228.3488439634111,157.1302714173553L228.5871417395274,157.2200489070333L229.16799256881077,157.43540934633887L229.40629034492707,157.52233531023884L229.54033284399245,157.57086572967154L230.06160922924676,157.75708968838558L230.18075811730492,157.79909469843153L231.2977789428499,158.1827201720246L232.1913956032859,158.47633995164165L232.22118282530042,158.4859231615623L232.34033171335858,158.52412476664117L232.39990615738765,158.54314658856393L232.50416143443852,158.57630748278956L232.56373587846758,158.59518436414464L232.83182087659839,158.67947535649535L232.98075698667103,158.7258412615878L233.21905476278727,158.79933880741027L233.26373559580907,158.81302558290625L233.3084164288309,158.82668220528174L233.48713976091807,158.8810112753683L233.71054392602707,158.94825136339722L233.99352253516517,159.03235098622775L234.15735225624508,159.08049249893634L234.27650114430324,159.11525202251997L234.3658628103468,159.1411819928699L234.67862864149942,159.2309940901066L234.70841586351392,159.23947105742042L235.1850114157465,159.37328992072267L235.42330919186273,159.438918701377L235.88501113308803,159.5636409164751L235.91479835510253,159.57157701219063L236.18288335323334,159.64240103844054L236.5105427953932,159.7274898892116L236.79352140453128,159.79966994925945L236.94245751460394,159.83717272150673L237.3594786228074,159.94039370582243L237.46373389985825,159.9657870876878L237.73181889798906,160.0303274434883L237.82118056403266,160.05159858540262L237.895648619069,160.0692318218633L237.99990389611986,160.09377680456663L238.9977758336067,160.32034529580676L239.1913927767012,160.3625498989512L239.38500971979565,160.4041826207542L239.4147969418102,160.41053687691743L239.74245638397002,160.47954015153277L240.15947749217352,160.56499049710024L240.18926471418806,160.5709923386681L240.5169241563479,160.63611691117748L241.15734942966037,160.758659192726L241.3658599837621,160.79720010607227L241.39564720577664,160.80265148186723L241.8573491470019,160.8854066353068L241.99139164606729,160.90881916274742L242.05096609009635,160.91913607004517L242.22968942218355,160.94975964771393L242.28926386621265,160.95985837319972L242.85522108448876,161.0530734899347L243.1084124716123,161.09317876772937L243.45096552477943,161.1458668912946L243.763731355932,161.19239367013765L244.1658588531282,161.24999636685754L245.3871349557241,161.40962642976677L245.50628384378223,161.42396535215497L245.92330495198567,161.47242137390268L246.01266661802927,161.4824545249177L246.14670911709467,161.49727229941772L246.16160272810197,161.4989015530387L246.221177172131,161.5053841741196L246.3105388381746,161.51500498977856L246.90628327846528,161.57598117392774L247.4871341077487,161.6301340795478L247.75521910587946,161.65336206903456L248.82755909840267,161.7351142457386L248.90202715343898,161.7401281121767L249.09564409653348,161.7527607919751L249.19989937358432,161.75932165483553L249.30415465063518,161.76571353815265L249.795643813875,161.7935703849869L250.27223936610753,161.8169951621327L250.31692019912933,161.81901006731138L250.74883491834007,161.83688607065667L251.4786218576961,161.860493319154L252.16372796403036,161.8751103200223L252.37223851813212,161.87810844473609L252.78925962633556,161.88207376888488L253.1764935125245,161.8833310817295L253.19138712353177,161.88333280881244" fill="none"></path></g></g></g></g></g></g><g transform="translate(61, 176)" clip-path="url(#clip_1)"><clipPath id="clip_1"><rect width="268" height="23"></rect></clipPath><g><g><line x1="0" y1="0" x2="0" y2="5" style="visibility: inherit;" fill="rgb(0, 0, 0)" stroke="rgb(204, 204, 204)" stroke-width="1px"></line><line x1="29.787222014533146" y1="0" x2="29.787222014533146" y2="5" style="visibility: inherit;" fill="rgb(0, 0, 0)" stroke="rgb(204, 204, 204)" stroke-width="1px"></line><line x1="59.57444402906629" y1="0" x2="59.57444402906629" y2="5" style="visibility: inherit;" fill="rgb(0, 0, 0)" stroke="rgb(204, 204, 204)" stroke-width="1px"></line><line x1="89.36166604359944" y1="0" x2="89.36166604359944" y2="5" style="visibility: inherit;" fill="rgb(0, 0, 0)" stroke="rgb(204, 204, 204)" stroke-width="1px"></line><line x1="119.14888805813258" y1="0" x2="119.14888805813258" y2="5" style="visibility: inherit;" fill="rgb(0, 0, 0)" stroke="rgb(204, 204, 204)" stroke-width="1px"></line><line x1="148.93611007266574" y1="0" x2="148.93611007266574" y2="5" style="visibility: inherit;" fill="rgb(0, 0, 0)" stroke="rgb(204, 204, 204)" stroke-width="1px"></line><line x1="178.72333208719888" y1="0" x2="178.72333208719888" y2="5" style="visibility: inherit;" fill="rgb(0, 0, 0)" stroke="rgb(204, 204, 204)" stroke-width="1px"></line><line x1="208.51055410173205" y1="0" x2="208.51055410173205" y2="5" style="visibility: inherit;" fill="rgb(0, 0, 0)" stroke="rgb(204, 204, 204)" stroke-width="1px"></line><line x1="238.29777611626517" y1="0" x2="238.29777611626517" y2="5" style="visibility: inherit;" fill="rgb(0, 0, 0)" stroke="rgb(204, 204, 204)" stroke-width="1px"></line><line x1="268.08499813079834" y1="0" x2="268.08499813079834" y2="5" style="visibility: inherit;" fill="rgb(0, 0, 0)" stroke="rgb(204, 204, 204)" stroke-width="1px"></line></g><g transform="translate(0, 8)"><text style="text-anchor: middle; visibility: hidden; font-family: Roboto, sans-serif; font-size: 12px; font-weight: 200;" x="0" y="0" dx="0em" dy="0.95em" fill="rgb(33, 33, 33)" stroke="none" stroke-width="1px">-2k</text><text style="text-anchor: middle; visibility: inherit; font-family: Roboto, sans-serif; font-size: 12px; font-weight: 200;" x="29.787222014533146" y="0" dx="0em" dy="0.95em" fill="rgb(33, 33, 33)" stroke="none" stroke-width="1px">0</text><text style="text-anchor: middle; visibility: inherit; font-family: Roboto, sans-serif; font-size: 12px; font-weight: 200;" x="59.57444402906629" y="0" dx="0em" dy="0.95em" fill="rgb(33, 33, 33)" stroke="none" stroke-width="1px">2k</text><text style="text-anchor: middle; visibility: inherit; font-family: Roboto, sans-serif; font-size: 12px; font-weight: 200;" x="89.36166604359944" y="0" dx="0em" dy="0.95em" fill="rgb(33, 33, 33)" stroke="none" stroke-width="1px">4k</text><text style="text-anchor: middle; visibility: inherit; font-family: Roboto, sans-serif; font-size: 12px; font-weight: 200;" x="119.14888805813258" y="0" dx="0em" dy="0.95em" fill="rgb(33, 33, 33)" stroke="none" stroke-width="1px">6k</text><text style="text-anchor: middle; visibility: inherit; font-family: Roboto, sans-serif; font-size: 12px; font-weight: 200;" x="148.93611007266574" y="0" dx="0em" dy="0.95em" fill="rgb(33, 33, 33)" stroke="none" stroke-width="1px">8k</text><text style="text-anchor: middle; visibility: inherit; font-family: Roboto, sans-serif; font-size: 12px; font-weight: 200;" x="178.72333208719888" y="0" dx="0em" dy="0.95em" fill="rgb(33, 33, 33)" stroke="none" stroke-width="1px">10k</text><text style="text-anchor: middle; visibility: inherit; font-family: Roboto, sans-serif; font-size: 12px; font-weight: 200;" x="208.51055410173205" y="0" dx="0em" dy="0.95em" fill="rgb(33, 33, 33)" stroke="none" stroke-width="1px">12k</text><text style="text-anchor: middle; visibility: inherit; font-family: Roboto, sans-serif; font-size: 12px; font-weight: 200;" x="238.29777611626517" y="0" dx="0em" dy="0.95em" fill="rgb(33, 33, 33)" stroke="none" stroke-width="1px">14k</text><text style="text-anchor: middle; visibility: hidden; font-family: Roboto, sans-serif; font-size: 12px; font-weight: 200;" x="268.08499813079834" y="0" dx="0em" dy="0.95em" fill="rgb(33, 33, 33)" stroke="none" stroke-width="1px">16k</text></g><line x1="0" y1="0" x2="268.08499813079834" y2="0" fill="rgb(0, 0, 0)" stroke="rgb(204, 204, 204)" stroke-width="1px"></line></g></g></g></g></svg>