<svg viewBox="0 0 330 200" xmlns="http://www.w3.org/2000/svg"><g><g><g><g><g><line x1="41.149001121520996" y1="177.5999994277954" x2="36.149001121520996" y2="177.5999994277954" style="visibility: inherit;" fill="rgb(0, 0, 0)" stroke="rgb(204, 204, 204)" stroke-width="1px"></line><line x1="41.149001121520996" y1="157.86666615804035" x2="36.149001121520996" y2="157.86666615804035" style="visibility: inherit;" fill="rgb(0, 0, 0)" stroke="rgb(204, 204, 204)" stroke-width="1px"></line><line x1="41.149001121520996" y1="138.1333328882853" x2="36.149001121520996" y2="138.1333328882853" style="visibility: inherit;" fill="rgb(0, 0, 0)" stroke="rgb(204, 204, 204)" stroke-width="1px"></line><line x1="41.149001121520996" y1="118.39999961853029" x2="36.149001121520996" y2="118.39999961853029" style="visibility: inherit;" fill="rgb(0, 0, 0)" stroke="rgb(204, 204, 204)" stroke-width="1px"></line><line x1="41.149001121520996" y1="98.66666634877524" x2="36.149001121520996" y2="98.66666634877524" style="visibility: inherit;" fill="rgb(0, 0, 0)" stroke="rgb(204, 204, 204)" stroke-width="1px"></line><line x1="41.149001121520996" y1="78.93333307902017" x2="36.149001121520996" y2="78.93333307902017" style="visibility: inherit;" fill="rgb(0, 0, 0)" stroke="rgb(204, 204, 204)" stroke-width="1px"></line><line x1="41.149001121520996" y1="59.199999809265144" x2="36.149001121520996" y2="59.199999809265144" style="visibility: inherit;" fill="rgb(0, 0, 0)" stroke="rgb(204, 204, 204)" stroke-width="1px"></line><line x1="41.149001121520996" y1="39.466666539510086" x2="36.149001121520996" y2="39.466666539510086" style="visibility: inherit;" fill="rgb(0, 0, 0)" stroke="rgb(204, 204, 204)" stroke-width="1px"></line><line x1="41.149001121520996" y1="19.733333269755054" x2="36.149001121520996" y2="19.733333269755054" style="visibility: inherit;" fill="rgb(0, 0, 0)" stroke="rgb(204, 204, 204)" stroke-width="1px"></line><line x1="41.149001121520996" y1="0" x2="36.149001121520996" y2="0" style="visibility: inherit;" fill="rgb(0, 0, 0)" stroke="rgb(204, 204, 204)" stroke-width="1px"></line></g><g transform="translate(31.149001121520996, 0)"><text style="text-anchor: end; visibility: hidden; font-family: Roboto, sans-serif; font-size: 12px; font-weight: 200;" x="0" y="177.5999994277954" dx="0em" dy="0.3em" fill="rgb(50, 49, 63)" stroke="none" stroke-width="1px">2</text><text style="text-anchor: end; visibility: inherit; font-family: Roboto, sans-serif; font-size: 12px; font-weight: 200;" x="0" y="157.86666615804035" dx="0em" dy="0.3em" fill="rgb(50, 49, 63)" stroke="none" stroke-width="1px">2.5</text><text style="text-anchor: end; visibility: hidden; font-family: Roboto, sans-serif; font-size: 12px; font-weight: 200;" x="0" y="138.1333328882853" dx="0em" dy="0.3em" fill="rgb(50, 49, 63)" stroke="none" stroke-width="1px">3</text><text style="text-anchor: end; visibility: inherit; font-family: Roboto, sans-serif; font-size: 12px; font-weight: 200;" x="0" y="118.39999961853029" dx="0em" dy="0.3em" fill="rgb(50, 49, 63)" stroke="none" stroke-width="1px">3.5</text><text style="text-anchor: end; visibility: hidden; font-family: Roboto, sans-serif; font-size: 12px; font-weight: 200;" x="0" y="98.66666634877524" dx="0em" dy="0.3em" fill="rgb(50, 49, 63)" stroke="none" stroke-width="1px">4</text><text style="text-anchor: end; visibility: inherit; font-family: Roboto, sans-serif; font-size: 12px; font-weight: 200;" x="0" y="78.93333307902017" dx="0em" dy="0.3em" fill="rgb(50, 49, 63)" stroke="none" stroke-width="1px">4.5</text><text style="text-anchor: end; visibility: hidden; font-family: Roboto, sans-serif; font-size: 12px; font-weight: 200;" x="0" y="59.199999809265144" dx="0em" dy="0.3em" fill="rgb(50, 49, 63)" stroke="none" stroke-width="1px">5</text><text style="text-anchor: end; visibility: inherit; font-family: Roboto, sans-serif; font-size: 12px; font-weight: 200;" x="0" y="39.466666539510086" dx="0em" dy="0.3em" fill="rgb(50, 49, 63)" stroke="none" stroke-width="1px">5.5</text><text style="text-anchor: end; visibility: hidden; font-family: Roboto, sans-serif; font-size: 12px; font-weight: 200;" x="0" y="19.733333269755054" dx="0em" dy="0.3em" fill="rgb(50, 49, 63)" stroke="none" stroke-width="1px">6</text><text style="text-anchor: end; visibility: hidden; font-family: Roboto, sans-serif; font-size: 12px; font-weight: 200;" x="0" y="0" dx="0em" dy="0.3em" fill="rgb(50, 49, 63)" stroke="none" stroke-width="1px">6.5</text></g><line x1="41.149001121520996" y1="0" x2="41.149001121520996" y2="177.5999994277954" fill="rgb(0, 0, 0)" stroke="rgb(204, 204, 204)" stroke-width="1px"></line></g></g><g transform="translate(41, 0)" clip-path="url(#clip_0)"><clipPath id="clip_0"><rect width="288" height="177"></rect></clipPath><g><g><g><line x1="0" y1="0" x2="0" y2="177.5999994277954" fill="rgb(0, 0, 0)" stroke="rgb(60, 60, 60)" stroke-width="1px" opacity="0.25"></line><line x1="24.07091657320658" y1="0" x2="24.07091657320658" y2="177.5999994277954" fill="rgb(0, 0, 0)" stroke="rgb(60, 60, 60)" stroke-width="1px" opacity="0.25"></line><line x1="48.14183314641316" y1="0" x2="48.14183314641316" y2="177.5999994277954" fill="rgb(0, 0, 0)" stroke="rgb(60, 60, 60)" stroke-width="1px" opacity="0.25"></line><line x1="72.21274971961975" y1="0" x2="72.21274971961975" y2="177.5999994277954" fill="rgb(0, 0, 0)" stroke="rgb(60, 60, 60)" stroke-width="1px" opacity="0.25"></line><line x1="96.28366629282633" y1="0" x2="96.28366629282633" y2="177.5999994277954" fill="rgb(0, 0, 0)" stroke="rgb(60, 60, 60)" stroke-width="1px" opacity="0.25"></line><line x1="120.35458286603293" y1="0" x2="120.35458286603293" y2="177.5999994277954" fill="rgb(0, 0, 0)" stroke="rgb(60, 60, 60)" stroke-width="1px" opacity="0.25"></line><line x1="144.4254994392395" y1="0" x2="144.4254994392395" y2="177.5999994277954" fill="rgb(0, 0, 0)" stroke="rgb(60, 60, 60)" stroke-width="1px" opacity="0.25"></line><line x1="168.4964160124461" y1="0" x2="168.4964160124461" y2="177.5999994277954" fill="rgb(0, 0, 0)" stroke="rgb(60, 60, 60)" stroke-width="1px" opacity="0.25"></line><line x1="192.56733258565265" y1="0" x2="192.56733258565265" y2="177.5999994277954" fill="rgb(0, 0, 0)" stroke="rgb(60, 60, 60)" stroke-width="1px" opacity="0.25"></line><line x1="216.63824915885925" y1="0" x2="216.63824915885925" y2="177.5999994277954" fill="rgb(0, 0, 0)" stroke="rgb(60, 60, 60)" stroke-width="1px" opacity="0.25"></line><line x1="240.70916573206586" y1="0" x2="240.70916573206586" y2="177.5999994277954" fill="rgb(0, 0, 0)" stroke="rgb(60, 60, 60)" stroke-width="1px" opacity="0.25"></line><line x1="264.7800823052724" y1="0" x2="264.7800823052724" y2="177.5999994277954" fill="rgb(0, 0, 0)" stroke="rgb(60, 60, 60)" stroke-width="1px" opacity="0.25"></line><line x1="288.850998878479" y1="0" x2="288.850998878479" y2="177.5999994277954" fill="rgb(0, 0, 0)" stroke="rgb(60, 60, 60)" stroke-width="1px" opacity="0.25"></line></g><g><line x1="0" y1="177.5999994277954" x2="288.850998878479" y2="177.5999994277954" fill="rgb(0, 0, 0)" stroke="rgb(60, 60, 60)" stroke-width="1px" opacity="0.25"></line><line x1="0" y1="157.86666615804035" x2="288.850998878479" y2="157.86666615804035" fill="rgb(0, 0, 0)" stroke="rgb(60, 60, 60)" stroke-width="1px" opacity="0.25"></line><line x1="0" y1="138.1333328882853" x2="288.850998878479" y2="138.1333328882853" fill="rgb(0, 0, 0)" stroke="rgb(60, 60, 60)" stroke-width="1px" opacity="0.25"></line><line x1="0" y1="118.39999961853029" x2="288.850998878479" y2="118.39999961853029" fill="rgb(0, 0, 0)" stroke="rgb(60, 60, 60)" stroke-width="1px" opacity="0.25"></line><line x1="0" y1="98.66666634877524" x2="288.850998878479" y2="98.66666634877524" fill="rgb(0, 0, 0)" stroke="rgb(60, 60, 60)" stroke-width="1px" opacity="0.25"></line><line x1="0" y1="78.93333307902017" x2="288.850998878479" y2="78.93333307902017" fill="rgb(0, 0, 0)" stroke="rgb(60, 60, 60)" stroke-width="1px" opacity="0.25"></line><line x1="0" y1="59.199999809265144" x2="288.850998878479" y2="59.199999809265144" fill="rgb(0, 0, 0)" stroke="rgb(60, 60, 60)" stroke-width="1px" opacity="0.25"></line><line x1="0" y1="39.466666539510086" x2="288.850998878479" y2="39.466666539510086" fill="rgb(0, 0, 0)" stroke="rgb(60, 60, 60)" stroke-width="1px" opacity="0.25"></line><line x1="0" y1="19.733333269755054" x2="288.850998878479" y2="19.733333269755054" fill="rgb(0, 0, 0)" stroke="rgb(60, 60, 60)" stroke-width="1px" opacity="0.25"></line><line x1="0" y1="0" x2="288.850998878479" y2="0" fill="rgb(0, 0, 0)" stroke="rgb(60, 60, 60)" stroke-width="1px" opacity="0.25"></line></g></g></g><g><g><line x1="0" y1="256.5333325068156" x2="288.850998878479" y2="256.5333325068156" fill="rgb(0, 0, 0)" stroke="rgb(153, 153, 153)" stroke-width="1.5px"></line></g></g><g><g><line x1="24.07091657320658" y1="0" x2="24.07091657320658" y2="177.5999994277954" fill="rgb(0, 0, 0)" stroke="rgb(153, 153, 153)" stroke-width="1.5px"></line></g></g><g><g><g><g><g><path style="fill: none;" stroke="rgb(255, 112, 67)" stroke-width="2px" d="M24.07091657320658,13.413008074460745L26.47800823052724,22.489848128020707L28.8850998878479,32.914587451999054L31.29219154516856,38.218989125700006L33.69928320248922,40.946579201241015L36.106374859809875,42.82118033719068L38.51346651713053,44.12561307138785L40.920558174451195,45.109375549137724L43.32764983177185,45.68711774574472L45.73474148909251,48.200000626213324L48.14183314641316,56.471793759739306L50.548924803733826,68.55231653840862L52.95601646105448,79.54704036179L55.363108118375145,87.10628202272511L57.7701997756958,94.2387718379434L60.177291433016464,102.43413391659539L62.58438309033712,107.06897763819758L64.99147474765778,111.08338989969639L67.39856640497844,113.14122903102513L69.80565806229909,113.97719113336373L72.21274971961975,120.08741453618642L74.61984137694041,121.63530310301576L77.02693303426106,124.75922933514069L79.43402469158173,125.83978409335849L81.84111634890239,125.47754002115809L84.24820800622305,127.34240003227279L86.6552996635437,129.16606264686638L89.06239132086436,131.29543462086912L91.46948297818501,132.6903343346228L93.87657463550568,133.5571022299244L96.28366629282633,133.4894174070731L98.69075795014699,136.54856169966789L101.09784960746765,137.54560875101546L103.50494126478831,138.57713713326996L105.91203292210896,140.45494016796613L108.31912457942963,140.5012546305462L110.72621623675029,141.68919264391272L113.13330789407094,142.4069613472951L115.5403995513916,141.0047103786854L117.94749120871226,142.38873455118326L120.35458286603293,144.6604907044698L122.76167452335358,146.80979439312074L125.16876618067424,145.61035653238358L127.57585783799489,146.8366452465911L129.98294949531555,146.6140182094132L132.3900411526362,146.87883259051753L134.79713280995688,143.82217567683765L137.20422446727753,147.10209986764735L139.61131612459818,147.31660427377955L142.01840778191882,150.15878326778594L144.4254994392395,150.09647724619614L146.83259109656015,151.51528737448604L149.23968275388083,151.64880266112542L151.64677441120148,149.8196879012699L154.05386606852213,151.2280220564917L156.46095772584277,153.4684040148556L158.86804938316345,151.43719242519447L161.2751410404841,153.19804869340672L163.68223269780478,155.58976020393845L166.08932435512543,155.70882255557788L168.4964160124461,156.49753393072194L170.90350766976675,155.43985866113135L173.3105993270874,155.82989349037913L175.71769098440805,156.57674061918573L178.12478264172873,160.52335199799091L180.53187429904938,159.3231396172064L182.93896595637003,158.7217837541083L185.3460576136907,159.11454638535142L187.75314927101135,158.3875129271599L190.160240928332,156.3202614650846L192.56733258565265,158.20064513589028L194.97442424297333,157.77720440424537L197.38151590029398,157.82263581390282L199.78860755761465,159.370009604344L202.1956992149353,158.62204828423768L204.60279087225598,159.0555068002038L207.00988252957663,161.01710239176887L209.41697418689728,161.57634297216813L211.82406584421793,161.8734698604078L214.2311575015386,162.09034411741342L216.63824915885925,162.99372214812936L219.0453408161799,163.42523901818453L221.45243247350058,162.49056566831447L223.85952413082123,162.32550252218905L226.26661578814188,162.68024382820153L228.67370744546253,161.81090335325143L231.0807991027832,162.91310012913038L233.48789076010385,162.12483374701694L235.89498241742453,160.91483982181623L238.30207407474518,161.99483294248517L240.70916573206586,160.91929366418958L243.1162573893865,163.7777011650252L245.52334904670715,163.15548716882515L247.9304407040278,162.77760453121093L250.33753236134848,162.83081767641886L252.74462401866913,160.72786469070186L255.15171567598978,162.91009191161308L257.5588073333105,165.39829888652045L259.9658989906311,163.72262383850966L262.3729906479518,162.7138200670383L264.7800823052724,162.97449452743976L267.1871739625931,164.1868542987485L269.59426561991376,163.31227675849206L272.0013572772344,163.22905061865785L274.40844893455505,163.82395390159252" fill="none"></path></g></g></g></g><g opacity="0.2"><g><g><g><path style="fill: none;" stroke="rgb(255, 112, 67)" stroke-width="2px" d="M24.07091657320658,13.413008074460784L26.47800823052724,27.935952160156678L28.8850998878479,42.92233720301828L31.29219154516856,44.456965493972355L33.69928320248922,44.507720803867414L36.106374859809875,45.414428564618L38.51346651713053,45.99097275221357L40.920558174451195,46.543710685816826L43.32764983177185,46.539175265095764L45.73474148909251,51.931338842286706L48.14183314641316,68.80445890511116L50.548924803733826,86.60735903492696L52.95601646105448,96.00322641595024L55.363108118375145,98.43033517277884L57.7701997756958,104.92912258673643L60.177291433016464,114.72139703028462L62.58438309033712,114.01928191006951L64.99147474765778,117.10398903310623L67.39856640497844,116.22767423693874L69.80565806229909,115.2310578766243L72.21274971961975,129.25241454124748L74.61984137694041,123.95708501932722L77.02693303426106,129.445057006854L79.43402469158173,127.46060343048399L81.84111634890239,124.93417648753332L84.24820800622305,130.13968209616877L86.6552996635437,131.90155190250394L89.06239132086436,134.48948931278574L91.46948297818501,134.78268262035348L93.87657463550568,134.8572535938274L96.28366629282633,133.3878901952412L98.69075795014699,141.1372775298928L101.09784960746765,139.04117920900944L103.50494126478831,140.12442963276544L105.91203292210896,143.27164463930848L108.31912457942963,140.57072632322206L110.72621623675029,143.47109964558314L113.13330789407094,143.48361439570562L115.5403995513916,138.9013339335811L117.94749120871226,144.46477080530485L120.35458286603293,148.06812492984437L122.76167452335358,150.0337499235114L125.16876618067424,143.81119974214363L127.57585783799489,148.67607831737132L129.98294949531555,146.2800776537042L132.3900411526362,147.27605416213265L134.79713280995688,139.23719030660385L137.20422446727753,152.02198615367783L139.61131612459818,147.63836088297057L142.01840778191882,154.42205175873806L144.4254994392395,150.00301821381225L146.83259109656015,153.64350256691054L149.23968275388083,151.84907559108387L151.64677441120148,147.07601576149136L154.05386606852213,153.34052328932222L156.46095772584277,156.8289769523993L158.86804938316345,148.39037504070393L161.2751410404841,155.83933309572453L163.68223269780478,159.17732746973556L166.08932435512543,155.88741608303704L168.4964160124461,157.68060099343802L170.90350766976675,153.8533457567455L173.3105993270874,156.41494573425084L175.71769098440805,157.69701131239557L178.12478264172873,166.44326906619864L180.53187429904938,157.52282104602972L182.93896595637003,157.81974995946103L185.3460576136907,159.7036903322161L187.75314927101135,157.29696273987264L190.160240928332,153.21938427197165L192.56733258565265,161.0212206420988L194.97442424297333,157.142043306778L197.38151590029398,157.89078292838911L199.78860755761465,161.69107029000574L202.1956992149353,157.50010630407814L204.60279087225598,159.70569457415303L207.00988252957663,163.95949577911642L209.41697418689728,162.41520384276706L211.82406584421793,162.31916019276727L214.2311575015386,162.41565550292188L216.63824915885925,164.34878919420333L219.0453408161799,164.07251432326726L221.45243247350058,161.08855564350944L223.85952413082123,162.07790780300093L226.26661578814188,163.21235578722022L228.67370744546253,160.5068926408262L231.0807991027832,164.56639529294884L233.48789076010385,160.94243417384678L235.89498241742453,159.09984893401514L238.30207407474518,163.61482262348864L240.70916573206586,159.30598474674616L243.1162573893865,168.06531241627863L245.52334904670715,162.22216617452506L247.9304407040278,162.21078057478962L250.33753236134848,162.91063739423075L252.74462401866913,157.57343521212638L255.15171567598978,166.18343274297985L257.5588073333105,169.13060934888153L259.9658989906311,161.20911126649344L262.3729906479518,161.20061440983136L264.7800823052724,163.3655062180419L267.1871739625931,166.00539395571164L269.59426561991376,162.00041044810737L272.0013572772344,163.10421140890654L274.40844893455505,164.71630882599447" fill="none"></path></g></g></g></g></g></g><g transform="translate(41, 177)" clip-path="url(#clip_1)"><clipPath id="clip_1"><rect width="288" height="22"></rect></clipPath><g><g><line x1="0" y1="0" x2="0" y2="5" style="visibility: inherit;" fill="rgb(0, 0, 0)" stroke="rgb(204, 204, 204)" stroke-width="1px"></line><line x1="24.07091657320658" y1="0" x2="24.07091657320658" y2="5" style="visibility: inherit;" fill="rgb(0, 0, 0)" stroke="rgb(204, 204, 204)" stroke-width="1px"></line><line x1="48.14183314641316" y1="0" x2="48.14183314641316" y2="5" style="visibility: inherit;" fill="rgb(0, 0, 0)" stroke="rgb(204, 204, 204)" stroke-width="1px"></line><line x1="72.21274971961975" y1="0" x2="72.21274971961975" y2="5" style="visibility: inherit;" fill="rgb(0, 0, 0)" stroke="rgb(204, 204, 204)" stroke-width="1px"></line><line x1="96.28366629282633" y1="0" x2="96.28366629282633" y2="5" style="visibility: inherit;" fill="rgb(0, 0, 0)" stroke="rgb(204, 204, 204)" stroke-width="1px"></line><line x1="120.35458286603293" y1="0" x2="120.35458286603293" y2="5" style="visibility: inherit;" fill="rgb(0, 0, 0)" stroke="rgb(204, 204, 204)" stroke-width="1px"></line><line x1="144.4254994392395" y1="0" x2="144.4254994392395" y2="5" style="visibility: inherit;" fill="rgb(0, 0, 0)" stroke="rgb(204, 204, 204)" stroke-width="1px"></line><line x1="168.4964160124461" y1="0" x2="168.4964160124461" y2="5" style="visibility: inherit;" fill="rgb(0, 0, 0)" stroke="rgb(204, 204, 204)" stroke-width="1px"></line><line x1="192.56733258565265" y1="0" x2="192.56733258565265" y2="5" style="visibility: inherit;" fill="rgb(0, 0, 0)" stroke="rgb(204, 204, 204)" stroke-width="1px"></line><line x1="216.63824915885925" y1="0" x2="216.63824915885925" y2="5" style="visibility: inherit;" fill="rgb(0, 0, 0)" stroke="rgb(204, 204, 204)" stroke-width="1px"></line><line x1="240.70916573206586" y1="0" x2="240.70916573206586" y2="5" style="visibility: inherit;" fill="rgb(0, 0, 0)" stroke="rgb(204, 204, 204)" stroke-width="1px"></line><line x1="264.7800823052724" y1="0" x2="264.7800823052724" y2="5" style="visibility: inherit;" fill="rgb(0, 0, 0)" stroke="rgb(204, 204, 204)" stroke-width="1px"></line><line x1="288.850998878479" y1="0" x2="288.850998878479" y2="5" style="visibility: inherit;" fill="rgb(0, 0, 0)" stroke="rgb(204, 204, 204)" stroke-width="1px"></line></g><g transform="translate(0, 8)"><text style="text-anchor: middle; visibility: hidden; font-family: Roboto, sans-serif; font-size: 12px; font-weight: 200;" x="0" y="0" dx="0em" dy="0.95em" fill="rgb(50, 49, 63)" stroke="none" stroke-width="1px">-10</text><text style="text-anchor: middle; visibility: inherit; font-family: Roboto, sans-serif; font-size: 12px; font-weight: 200;" x="24.07091657320658" y="0" dx="0em" dy="0.95em" fill="rgb(50, 49, 63)" stroke="none" stroke-width="1px">0</text><text style="text-anchor: middle; visibility: inherit; font-family: Roboto, sans-serif; font-size: 12px; font-weight: 200;" x="48.14183314641316" y="0" dx="0em" dy="0.95em" fill="rgb(50, 49, 63)" stroke="none" stroke-width="1px">10</text><text style="text-anchor: middle; visibility: inherit; font-family: Roboto, sans-serif; font-size: 12px; font-weight: 200;" x="72.21274971961975" y="0" dx="0em" dy="0.95em" fill="rgb(50, 49, 63)" stroke="none" stroke-width="1px">20</text><text style="text-anchor: middle; visibility: inherit; font-family: Roboto, sans-serif; font-size: 12px; font-weight: 200;" x="96.28366629282633" y="0" dx="0em" dy="0.95em" fill="rgb(50, 49, 63)" stroke="none" stroke-width="1px">30</text><text style="text-anchor: middle; visibility: inherit; font-family: Roboto, sans-serif; font-size: 12px; font-weight: 200;" x="120.35458286603293" y="0" dx="0em" dy="0.95em" fill="rgb(50, 49, 63)" stroke="none" stroke-width="1px">40</text><text style="text-anchor: middle; visibility: inherit; font-family: Roboto, sans-serif; font-size: 12px; font-weight: 200;" x="144.4254994392395" y="0" dx="0em" dy="0.95em" fill="rgb(50, 49, 63)" stroke="none" stroke-width="1px">50</text><text style="text-anchor: middle; visibility: inherit; font-family: Roboto, sans-serif; font-size: 12px; font-weight: 200;" x="168.4964160124461" y="0" dx="0em" dy="0.95em" fill="rgb(50, 49, 63)" stroke="none" stroke-width="1px">60</text><text style="text-anchor: middle; visibility: inherit; font-family: Roboto, sans-serif; font-size: 12px; font-weight: 200;" x="192.56733258565265" y="0" dx="0em" dy="0.95em" fill="rgb(50, 49, 63)" stroke="none" stroke-width="1px">70</text><text style="text-anchor: middle; visibility: inherit; font-family: Roboto, sans-serif; font-size: 12px; font-weight: 200;" x="216.63824915885925" y="0" dx="0em" dy="0.95em" fill="rgb(50, 49, 63)" stroke="none" stroke-width="1px">80</text><text style="text-anchor: middle; visibility: inherit; font-family: Roboto, sans-serif; font-size: 12px; font-weight: 200;" x="240.70916573206586" y="0" dx="0em" dy="0.95em" fill="rgb(50, 49, 63)" stroke="none" stroke-width="1px">90</text><text style="text-anchor: middle; visibility: inherit; font-family: Roboto, sans-serif; font-size: 12px; font-weight: 200;" x="264.7800823052724" y="0" dx="0em" dy="0.95em" fill="rgb(50, 49, 63)" stroke="none" stroke-width="1px">100</text><text style="text-anchor: middle; visibility: hidden; font-family: Roboto, sans-serif; font-size: 12px; font-weight: 200;" x="288.850998878479" y="0" dx="0em" dy="0.95em" fill="rgb(50, 49, 63)" stroke="none" stroke-width="1px">110</text></g><line x1="0" y1="0" x2="288.850998878479" y2="0" fill="rgb(0, 0, 0)" stroke="rgb(204, 204, 204)" stroke-width="1px"></line></g></g></g></g></svg>