<svg viewBox="0 0 854.25 400" xmlns="http://www.w3.org/2000/svg"><g><g><g><g><g><line x1="51.53200149536133" y1="376.8999996185303" x2="46.53200149536133" y2="376.8999996185303" style="visibility: inherit;" fill="rgb(0, 0, 0)" stroke="rgb(204, 204, 204)" stroke-width="1px"></line><line x1="51.53200149536133" y1="329.787499666214" x2="46.53200149536133" y2="329.787499666214" style="visibility: inherit;" fill="rgb(0, 0, 0)" stroke="rgb(204, 204, 204)" stroke-width="1px"></line><line x1="51.53200149536133" y1="282.6749997138977" x2="46.53200149536133" y2="282.6749997138977" style="visibility: inherit;" fill="rgb(0, 0, 0)" stroke="rgb(204, 204, 204)" stroke-width="1px"></line><line x1="51.53200149536133" y1="235.56249976158142" x2="46.53200149536133" y2="235.56249976158142" style="visibility: inherit;" fill="rgb(0, 0, 0)" stroke="rgb(204, 204, 204)" stroke-width="1px"></line><line x1="51.53200149536133" y1="188.44999980926514" x2="46.53200149536133" y2="188.44999980926514" style="visibility: inherit;" fill="rgb(0, 0, 0)" stroke="rgb(204, 204, 204)" stroke-width="1px"></line><line x1="51.53200149536133" y1="141.33749985694885" x2="46.53200149536133" y2="141.33749985694885" style="visibility: inherit;" fill="rgb(0, 0, 0)" stroke="rgb(204, 204, 204)" stroke-width="1px"></line><line x1="51.53200149536133" y1="94.22499990463257" x2="46.53200149536133" y2="94.22499990463257" style="visibility: inherit;" fill="rgb(0, 0, 0)" stroke="rgb(204, 204, 204)" stroke-width="1px"></line><line x1="51.53200149536133" y1="47.112499952316284" x2="46.53200149536133" y2="47.112499952316284" style="visibility: inherit;" fill="rgb(0, 0, 0)" stroke="rgb(204, 204, 204)" stroke-width="1px"></line><line x1="51.53200149536133" y1="0" x2="46.53200149536133" y2="0" style="visibility: inherit;" fill="rgb(0, 0, 0)" stroke="rgb(204, 204, 204)" stroke-width="1px"></line></g><g transform="translate(41.53200149536133, 0)"><text style="text-anchor: end; visibility: hidden; font-family: Roboto, sans-serif; font-size: 12px; font-weight: 200;" x="0" y="376.8999996185303" dx="0em" dy="0.3em" fill="rgb(33, 33, 33)" stroke="none" stroke-width="1px">-0.5</text><text style="text-anchor: end; visibility: inherit; font-family: Roboto, sans-serif; font-size: 12px; font-weight: 200;" x="0" y="329.787499666214" dx="0em" dy="0.3em" fill="rgb(33, 33, 33)" stroke="none" stroke-width="1px">0</text><text style="text-anchor: end; visibility: inherit; font-family: Roboto, sans-serif; font-size: 12px; font-weight: 200;" x="0" y="282.6749997138977" dx="0em" dy="0.3em" fill="rgb(33, 33, 33)" stroke="none" stroke-width="1px">0.5</text><text style="text-anchor: end; visibility: inherit; font-family: Roboto, sans-serif; font-size: 12px; font-weight: 200;" x="0" y="235.56249976158142" dx="0em" dy="0.3em" fill="rgb(33, 33, 33)" stroke="none" stroke-width="1px">1</text><text style="text-anchor: end; visibility: inherit; font-family: Roboto, sans-serif; font-size: 12px; font-weight: 200;" x="0" y="188.44999980926514" dx="0em" dy="0.3em" fill="rgb(33, 33, 33)" stroke="none" stroke-width="1px">1.5</text><text style="text-anchor: end; visibility: inherit; font-family: Roboto, sans-serif; font-size: 12px; font-weight: 200;" x="0" y="141.33749985694885" dx="0em" dy="0.3em" fill="rgb(33, 33, 33)" stroke="none" stroke-width="1px">2</text><text style="text-anchor: end; visibility: inherit; font-family: Roboto, sans-serif; font-size: 12px; font-weight: 200;" x="0" y="94.22499990463257" dx="0em" dy="0.3em" fill="rgb(33, 33, 33)" stroke="none" stroke-width="1px">2.5</text><text style="text-anchor: end; visibility: inherit; font-family: Roboto, sans-serif; font-size: 12px; font-weight: 200;" x="0" y="47.112499952316284" dx="0em" dy="0.3em" fill="rgb(33, 33, 33)" stroke="none" stroke-width="1px">3</text><text style="text-anchor: end; visibility: hidden; font-family: Roboto, sans-serif; font-size: 12px; font-weight: 200;" x="0" y="0" dx="0em" dy="0.3em" fill="rgb(33, 33, 33)" stroke="none" stroke-width="1px">3.5</text></g><line x1="51.53200149536133" y1="0" x2="51.53200149536133" y2="376.8999996185303" fill="rgb(0, 0, 0)" stroke="rgb(204, 204, 204)" stroke-width="1px"></line></g></g><g transform="translate(51, 0)" clip-path="url(#clip_0)"><clipPath id="clip_0"><rect width="802" height="376"></rect></clipPath><g><g><g><line x1="0" y1="0" x2="0" y2="376.8999996185303" fill="rgb(0, 0, 0)" stroke="rgb(66, 66, 66)" stroke-width="1px" opacity="0.25"></line><line x1="89.19088872273763" y1="0" x2="89.19088872273763" y2="376.8999996185303" fill="rgb(0, 0, 0)" stroke="rgb(66, 66, 66)" stroke-width="1px" opacity="0.25"></line><line x1="178.38177744547525" y1="0" x2="178.38177744547525" y2="376.8999996185303" fill="rgb(0, 0, 0)" stroke="rgb(66, 66, 66)" stroke-width="1px" opacity="0.25"></line><line x1="267.5726661682129" y1="0" x2="267.5726661682129" y2="376.8999996185303" fill="rgb(0, 0, 0)" stroke="rgb(66, 66, 66)" stroke-width="1px" opacity="0.25"></line><line x1="356.7635548909505" y1="0" x2="356.7635548909505" y2="376.8999996185303" fill="rgb(0, 0, 0)" stroke="rgb(66, 66, 66)" stroke-width="1px" opacity="0.25"></line><line x1="445.95444361368817" y1="0" x2="445.95444361368817" y2="376.8999996185303" fill="rgb(0, 0, 0)" stroke="rgb(66, 66, 66)" stroke-width="1px" opacity="0.25"></line><line x1="535.1453323364258" y1="0" x2="535.1453323364258" y2="376.8999996185303" fill="rgb(0, 0, 0)" stroke="rgb(66, 66, 66)" stroke-width="1px" opacity="0.25"></line><line x1="624.3362210591634" y1="0" x2="624.3362210591634" y2="376.8999996185303" fill="rgb(0, 0, 0)" stroke="rgb(66, 66, 66)" stroke-width="1px" opacity="0.25"></line><line x1="713.527109781901" y1="0" x2="713.527109781901" y2="376.8999996185303" fill="rgb(0, 0, 0)" stroke="rgb(66, 66, 66)" stroke-width="1px" opacity="0.25"></line><line x1="802.7179985046387" y1="0" x2="802.7179985046387" y2="376.8999996185303" fill="rgb(0, 0, 0)" stroke="rgb(66, 66, 66)" stroke-width="1px" opacity="0.25"></line></g><g><line x1="0" y1="376.8999996185303" x2="802.7179985046387" y2="376.8999996185303" fill="rgb(0, 0, 0)" stroke="rgb(66, 66, 66)" stroke-width="1px" opacity="0.25"></line><line x1="0" y1="329.787499666214" x2="802.7179985046387" y2="329.787499666214" fill="rgb(0, 0, 0)" stroke="rgb(66, 66, 66)" stroke-width="1px" opacity="0.25"></line><line x1="0" y1="282.6749997138977" x2="802.7179985046387" y2="282.6749997138977" fill="rgb(0, 0, 0)" stroke="rgb(66, 66, 66)" stroke-width="1px" opacity="0.25"></line><line x1="0" y1="235.56249976158142" x2="802.7179985046387" y2="235.56249976158142" fill="rgb(0, 0, 0)" stroke="rgb(66, 66, 66)" stroke-width="1px" opacity="0.25"></line><line x1="0" y1="188.44999980926514" x2="802.7179985046387" y2="188.44999980926514" fill="rgb(0, 0, 0)" stroke="rgb(66, 66, 66)" stroke-width="1px" opacity="0.25"></line><line x1="0" y1="141.33749985694885" x2="802.7179985046387" y2="141.33749985694885" fill="rgb(0, 0, 0)" stroke="rgb(66, 66, 66)" stroke-width="1px" opacity="0.25"></line><line x1="0" y1="94.22499990463257" x2="802.7179985046387" y2="94.22499990463257" fill="rgb(0, 0, 0)" stroke="rgb(66, 66, 66)" stroke-width="1px" opacity="0.25"></line><line x1="0" y1="47.112499952316284" x2="802.7179985046387" y2="47.112499952316284" fill="rgb(0, 0, 0)" stroke="rgb(66, 66, 66)" stroke-width="1px" opacity="0.25"></line><line x1="0" y1="0" x2="802.7179985046387" y2="0" fill="rgb(0, 0, 0)" stroke="rgb(66, 66, 66)" stroke-width="1px" opacity="0.25"></line></g></g></g><g><g><line x1="0" y1="329.787499666214" x2="802.7179985046387" y2="329.787499666214" fill="rgb(0, 0, 0)" stroke="rgb(153, 153, 153)" stroke-width="1.5px"></line></g></g><g><g><line x1="89.19088872273763" y1="0" x2="89.19088872273763" y2="376.8999996185303" fill="rgb(0, 0, 0)" stroke="rgb(153, 153, 153)" stroke-width="1.5px"></line></g></g><g><g><g><g><g><path style="fill: none;" stroke="rgb(255, 112, 67)" stroke-width="2px" d="M121.65637221781412,-21.871669416899728L124.51048065694174,31.925774407539077L124.73345787874857,41.074843518221144L125.40238954416911,40.12567490457506L125.53617587725321,70.94610970845909L125.66996221033732,38.44480987736772L125.9821303208669,27.484194998716656L126.42808476448059,24.283298740111075L126.6956574306488,59.76802168405687L126.74025287501017,62.74243872614001L127.4091845404307,65.76471224115238L127.9889253171285,33.64542693896512L128.43487976074218,19.375973465090873L128.70245242691038,4.6767940627600035L129.861933980306,41.185688708744834L130.9768200893402,33.38449011552021L131.556560866038,59.21954023154506L133.47416497357685,69.97405027069696L133.8309285284678,56.73980440981674L134.9012191931407,50.48316070017805L134.9904100818634,38.11284415035969L135.21338730367026,21.467517542524856L136.77422785631816,54.1719360313227L138.37966385332743,86.43715596470693L139.18238185183208,78.02823861020994L139.36076362927753,74.76443383951501L140.38645884958905,98.92710312532395L140.74322240447998,97.53650184776646L142.7500174007416,77.77023753069506L143.37435362180074,95.49790494114187L143.9986898428599,84.83573535796444L144.04328528722127,124.20493466299203L145.47033950678508,118.24056035767734L146.62982106018066,163.08362798359934L146.67441650454205,134.73708029629776L147.74470716921488,140.87336677460866L150.2866474978129,123.79772997546239L150.5988156083425,128.1620232003826L151.17855638504028,126.14501122842069L151.267747273763,128.46568053273967L151.5353199399312,139.62871757201756L151.62451082865397,138.2408325493583L152.47182427151998,153.51714422833209L154.25564204597475,173.5235067993808L154.4340238234202,169.0246590702645L154.7015964895884,143.92901734393797L155.013764600118,161.1873550353966L155.19214637756346,181.05534212984597L155.32593271064758,174.53600745205426L155.37052815500897,157.70322699193795L155.7272917098999,166.88819856270177L155.861078042984,169.21540709431997L156.26243704223631,178.45359097262497L156.88677326329548,138.98913720679624L157.95706392796833,117.40076942001399L158.0016593723297,119.84212617376981L160.27602703475952,143.72065672460099L161.21253136634826,164.44548088015213L161.7476766986847,178.3173709617615L161.79227214304606,168.37725393320162L161.83686758740743,141.44413235355523L162.50579925282798,162.9783479959084L162.996349140803,158.70302337383754L163.97744891675313,132.01925295190267L164.11123524983725,143.52859968230015L165.1369304701487,169.27818779089225L165.895053024292,157.68681350713166L166.6085801340739,146.21602261187147L166.742366467158,111.49136429123052L167.1883209107717,161.0850561529271L168.61537513033548,187.8752679849164L169.0167341295878,174.59916793309668L169.32890224011737,190.92844720584745L169.37349768447876,179.35669119059568L169.55187946192424,154.78121242576978L170.53297923787434,171.5981316726529L170.84514734840394,177.51686245650544L173.07491956647237,185.55749116794914L173.56546945444742,176.54972887982544L173.65466034317015,188.96664289742375L175.39388267326356,191.4652737453597L175.83983711687725,214.5571699459804L175.8844325612386,189.76840152043437L176.73174600410462,232.20563637615845L177.71284578005472,210.80187784709995L178.29258655675252,191.25825762676536L179.09530455525717,223.53595867607376L179.94261799812315,232.37741445642067L180.70074055226644,209.75320506453173L180.83452688535053,231.01002955676998L181.36967221768697,239.36981933016511L182.70753554852803,218.00862442772146L182.8859173259735,182.87174419450358L183.064299103419,166.45690655621186L183.19808543650308,160.29428877265795L183.42106265830995,150.94690326530457L184.53594876734417,137.39027741508497L184.75892598915098,156.9333635145806L185.29407132148742,183.2305562187379L185.8738120981852,205.66013776861004L186.00759843126932,244.05898540355594L187.52384353955586,236.69703213936586L188.63872964859007,206.74422886953124L190.42254742304485,219.61702392194806L191.2252654215495,224.2274711060185L191.71581530952454,236.5256394181143L191.89419708697,231.72256228140049L192.0725788644155,226.19115007883988L193.85639663887022,248.17482384723567L194.03477841631573,246.9593191929572L194.21316019376118,251.62218924649505L194.792900970459,233.79541221633096L195.72940530204775,242.54603256171143L196.88888685544333,251.7883909138527L197.11186407725017,268.8174777885146L197.2010549659729,231.1975431235314L198.182154741923,253.74029986790052L198.67270462989808,257.14361779760503L198.98487274042765,246.10749297070112L199.4754226284027,244.01099055270768L199.9213770720164,257.69760733760893L200.41192695999146,265.5558234481791L200.5903087374369,251.02036788534394L200.67949962615967,254.55519590807614L201.12545406977333,249.3142546488796L201.34843129158023,233.67281101025048L201.83898117955528,244.49376835267418L203.44441717656457,236.17422868398876L204.3363260637919,239.99871521411586L205.3620212841034,247.6825135070811L205.4958076171875,249.38506787642825L206.65528917058307,256.9397792023616L210.26752016385396,248.70223607283094L210.31211560821535,241.93675708244794L210.49049738566083,237.99300264184043L211.4715971616109,217.53015318616627L211.87295616086323,251.32004283661524L213.7013693796794,251.61512813374088L215.35140082105002,275.5927832373547L215.4851871541341,255.05447745832353L216.7784550406138,245.2251438907247L217.80415026092527,217.13824801461476L217.98253203837078,231.63054586891602L218.56227281506858,229.3647030323511L219.14201359176639,240.4023878177664L220.83664047749835,229.15588463895088L221.6839539203644,232.46539951876247L222.48667191886904,237.70184874794856L222.53126736323037,247.6667492844138L222.66505369631452,260.4002203559301L222.84343547375994,274.79636586083546L223.3785808060964,285.4364375260589L223.60155802790325,286.2289376270714L224.71644413693747,293.9906192884448L225.25158946927388,279.34050098285155L225.87592569033308,265.1996646240519L226.45566646703082,281.90572961808346L227.83812524223328,258.20017339061917L228.4624614632924,249.74781267862843L228.90841590690613,267.4735092654699L229.35437035051982,263.74564792999195L229.80032479413353,283.84493785507266L229.97870657157895,289.5625225314882L231.4949516798655,279.3419005540703L233.8139147866567,283.6590346215383L234.61663278516136,270.19906324983185L235.24096900622052,269.2620343419734L235.33015989494325,270.83715866727715L235.46394622802734,275.479256327384L235.59773256111143,273.5742247644399L236.0882824490865,270.3674774378301L236.31125967089332,290.5624306985995L236.44504600397747,285.8227284453016L236.75721411450704,287.4442676572673L237.29235944684345,271.3414653444119L237.64912300173444,278.46207882910346L237.73831389045716,296.004263570498L237.82750477917986,302.736956637564L240.01268155288696,294.9498837963098L240.19106333033244,295.79198991225246L240.90459044011433,296.0682342352166L240.9937813288371,302.3740446629314L241.7964993273417,260.63129293901954L242.55462188148496,268.03376430048655L242.8221945476532,283.13792691352245L243.17895810254416,288.16140675537474L244.78439409955345,275.7402208425357L245.9884710973104,276.5061261649043L246.43442554092408,285.68270798869054L248.75338864771524,271.08660833490694L249.91287020111085,247.6359416021227L250.18044286727903,267.3847101969103L250.22503831164042,278.0362222990731L250.76018364397683,289.0407399669876L251.29532897631324,287.67174528602357L251.87506975301105,290.49778456863356L252.85616952896117,271.58424480174114L253.1237421951294,272.02702626283326L253.16833763949077,246.6926522071393L253.30212397257486,270.7008149848556L253.3913148612976,272.43400334883194L253.48050575002034,261.5690146977246L253.92646019363406,271.1314547261906L254.77377363650004,291.2370560850688L254.95215541394552,272.8891850924129L255.48730074628193,278.4153347023287L256.2008278560638,265.5427488771365L257.0927367432912,284.1834869386029L257.53869118690494,277.32551966473335L257.98464563051857,284.97557287680627L258.9657454064687,286.36496030852396L259.05493629519145,288.0267421807789L260.16982240422567,280.498473177995L261.10632673581443,270.6956702236949L264.13881695238746,277.51483484656757L265.20910761706034,290.5043384207543L265.5212757275899,293.22383663439143L267.3050935020447,275.9747510981315L267.6172616125743,291.1803548801877L267.8402388343811,269.46537476240997L268.1524069449107,289.24720720312035L269.04431583213807,290.0474758477732L269.8470338306427,299.361742415785L270.07001105244956,294.4000873579683L271.45246982765195,306.14472840130514L271.8538288269043,269.2244453631363L273.99441015625,288.25328505565284L274.0390056006114,290.6314915740301L274.5295554885864,302.4859410264922L275.10929626528423,307.4653590603005L275.64444159762064,303.9908885031311L276.13499148559566,305.03323738318L276.31337326304117,294.5425290519242L276.4025641517639,299.267604280913L276.71473226229347,297.59843677638077L277.0714958171845,305.9044152314756L277.5620457051595,274.19689270472094L278.23097737058004,290.7812712833303L278.81071814727784,300.41597495265927L279.79181792322794,287.98364412900327L280.1039860337575,297.6674501287137L280.37155869992574,289.1487028807411L280.6837268104553,301.581442882414L281.1742766984304,297.9944938770202L281.57563569768274,307.06426038232166L281.8432083638509,298.41326641112045L284.4297441368103,308.71494300332637L284.65272135861716,299.00749351886907L284.9202940247854,299.7714124934014L285.4554393571218,283.16017210376754L286.2581573556264,297.27468467630626L286.570325466156,298.32174223278906L288.22035690752665,308.4961878097772L288.5771204624176,298.7775786570527L291.83258790079753,296.3944792045898L291.87718334515887,292.5445829144677L292.2785423444112,300.2905258837636L292.36773323313395,308.78668630260984L292.54611501057946,312.171084710899L293.0366648985545,304.8436353864377L295.48941433842975,312.92896196100037L296.33672778129574,316.0131836182581L296.8272776692708,312.76190742048465L297.0056594467163,316.04254075380976L298.07595011138915,309.56916446760675L298.78947722117107,293.82419876648333L299.0124544429779,303.6288817097019L299.3692179978689,304.75162168609387L299.503004330953,302.1423173136167L299.5921952196757,305.9198322026599L300.4841041069031,289.9414939404789L301.28682210540774,300.3583890640749L302.26792188135784,296.6794237611517L302.80306721369425,301.3789126767458L303.38280799039205,309.08724351843045L303.739571545283,303.49891090050215L303.82876243400574,308.29244759262497L304.76526676559445,311.0985344380999L305.34500754229225,312.44479271441367L305.7463665415446,311.50116465781844L306.9058480949402,300.24521524905026L306.95044353930155,307.5957454524623L307.03963442802427,310.99541447476685L308.2883068701426,313.4329321502366L309.09102486864725,293.5399239133357L309.49238386789955,303.3376727780187L309.8937428671519,306.04047136898294L309.9829337558746,303.23666307142094L310.3396973107656,312.8368275253635L310.4734836438497,314.6655810655797L310.56267453257243,317.884198881668L311.4545834197998,320.43379790730046L311.54377430852253,315.537986765733L311.9005378634135,309.51743341465743L312.70325586191814,315.432141947388L312.74785130627953,316.2565087649167L313.4167829717,315.32998344126815L313.4613784160614,313.41068930972443L314.8884326356252,317.1175893883808L315.0668144130707,313.68015249090377L316.7168458544413,316.11679080492127L317.7871365191142,308.5100263591772L317.96551829655965,311.0644745340831L318.58985451761885,306.4074931929789L318.6790454063416,312.3451687892234L318.7236408507029,310.96545992936825L319.12499984995526,314.1124962576639L319.52635884920755,313.03139332075347L320.3736722920736,312.36126120547254L320.68584040260316,311.0308369801602L321.4439629567464,311.82140205592736L321.8453219559987,284.3175823460903L323.0493989537557,299.1395309968617L323.1831852868398,296.2814130002575L324.74402583948773,296.6558301341856L324.9224076169332,309.4929215961699L325.5467438379924,298.8567472876584L325.992698281606,292.905475292064L326.0372937259674,299.23876600727687L326.84001172447205,281.85089579101066L327.19677527936295,285.11433371143033L327.4643479455312,300.54924990594304L327.9103023891449,307.357957193492L328.7576158320109,315.6244413643506L329.1143793869018,293.8135074863428L329.6049292748769,297.2991370841712L331.03198349444074,299.66912116320583L333.03877849070227,299.7083060726566L333.70771015612286,308.7714256748081L335.26855070877076,310.29092372992426L335.8482914854685,314.0955225221336L335.8928869298299,316.04421025778436L336.24965048472086,316.7428602545287L337.14155937194823,318.12209022150984L338.12265914789833,318.343341069885L338.2118500366211,319.404180995786L339.7280951449076,316.6455278963749L339.95107236671447,315.92123750880165L340.35243136596677,310.20542143045196L340.39702681032816,309.9908898477246L340.93217214266457,297.946532086341L341.42272203063965,307.4201636975847L341.6902946968079,315.23804163612516L341.824081029892,315.80469906133175L341.95786736297606,320.00300103281353L342.314630917867,321.85537307399187L344.9457621351878,310.4098533318637L347.3093206863403,313.15009683706074L348.0674432404836,313.0658640681628L349.5390929044088,315.404433472919L349.80666557057697,317.72569625469754L349.85126101493836,316.88423984455983L349.9404519036611,316.0992264425316L351.5904833450317,320.14022695660077L351.90265145556134,323.06267539584115L352.0364377886454,322.0338564274755L353.82025556310015,323.88503815050586L354.2662100067139,314.25830389947447L354.48918722852073,315.42798352418487L354.7121644503276,303.3732227408913L354.84595078341164,274.8344344024686L355.02433256085715,295.7891641826411L355.60407333755495,284.31704094688354L355.8270505593618,292.8005405740629L357.2095093345642,306.1898983931128L357.3432956676483,314.1951413458916L358.3243954435984,318.5291302196992L358.3689908879598,321.39317674536403L358.4581817766825,323.99745610435656L359.26089977518717,261.4340999454068L359.79604510752364,285.5313635533985L360.33119043986005,295.97933112973703L360.8217403278351,303.7101534818311L361.66905377070105,307.3778717475857L362.2041991030375,311.1233594546519L362.91772621281945,313.38036481757456L363.229894323349,314.3506542634615L363.27448976771035,312.9974122672962L364.30018498802184,316.9629177415456L364.96911665344237,318.8703801234843L367.2434843158722,314.5856225266869L368.7151339797974,320.4462843610787L369.874615533193,294.31315948910407L370.18678364372255,306.9979129069817L370.2313790880839,315.36119239937443L370.8111198647817,319.8442496437493L371.30166975275677,323.2943073102994L373.21927386029563,313.5807851331358L375.85040507761636,310.85363129635533L376.92069574228924,314.5923867780629L376.9652911866506,312.9931803379373L377.1436729640961,313.80190845768186L377.1882684084575,314.7871025719286L378.704513516744,319.53877503327226L378.88289529418944,322.72940922228486L379.8193996257782,310.1296408365185L379.86399507013954,317.7298341457143L380.22075862503056,320.67627290288124L381.246453845342,321.67068548589657L381.3802401784261,319.87336760026943L381.8707900664012,319.60957961197744L382.13836273256936,322.0067803729344L383.74379872957866,320.2145832319289L384.27894406191507,321.1406260292844L384.32353950627646,323.4965181985963L384.3681349506378,324.28363766659544L384.9032802829742,323.06599882323945L385.17085294914244,323.99363144980924L386.95467072359725,323.64474216952823L387.44522061157227,322.8283545709298L387.75738872210184,321.1014098005437L388.1141522769928,315.6170074366969L388.42632038752237,320.63003337715963L389.6303973852793,321.94723554388867L390.5223062725067,324.6957692078434L391.59259693717956,325.1745691923804L391.8601696033478,325.9478757444297L393.19803293418886,324.54200555969635L394.2683235988617,318.4318112726998L394.669682598114,321.68642931329356L394.8480643755595,323.1451860085111L394.9372552642822,322.85195695661463L396.05214137331643,323.0076625996685L396.14133226203916,323.2515076311389L396.72107303873696,324.49383464539096L396.76566848309835,323.6856838055303L397.34540925979616,321.19329815397367L397.74676825904845,312.15046000515804L399.0846315898895,317.16263508659443L399.3967997004191,321.0012846319677L399.7089678109487,315.083046837984L402.29550358390804,317.7662286303311L406.13071179898577,321.9644880713735L406.3536890207927,324.12387604667214L407.9145295734405,325.0011527894538L408.00372046216336,325.8884923414391L408.04831590652464,309.48849897867245L408.1375067952474,317.54526916799824L409.25239290428163,321.7325472132691L411.5713560110728,324.2940534694332L412.0619058990478,326.3057852674605L412.46326489830017,322.8471512537575L412.95381478627525,324.45078182339887L413.4889601186116,324.2569377244077L413.8457236735026,316.0503266988683L413.9349145622254,320.56017091595913L414.6484416720072,314.20033301967663L415.228182448705,320.13684863201087L416.2538776690165,321.0391588981663L416.5660457795461,320.03658297849654L417.6363364442189,322.10556374507513L417.8593136660258,324.81806755081067L417.9039091103872,326.13993412865443L418.66203166453045,327.17766489766785L419.4201542186737,327.7650942250301L420.08908588409423,326.0743999248239L420.2228722171783,326.76324888454474L420.2674676615397,327.39717447194266L421.6945218811035,325.6579850252151L421.91749910291037,314.18157836786537L422.76481254577635,318.78093933203445L422.85400343449913,318.05874984239847L425.84189820671077,321.7380671557616L426.0202799841563,324.4500874254005L426.1986617616018,324.26725640258223L426.6892116495768,325.1052010143917L426.956784315745,325.848233312979L428.2500522022247,327.0110153551792L429.6771064217885,327.74021942492743L429.855488199234,327.98824517812534L430.5690153090159,327.812510420312L431.68390141805014,320.67629805915874L432.35283308347067,317.34438651337L432.6204057496389,321.7384765626955L432.8879784158071,323.3052376002094L432.97716930452987,323.3719034073751L433.02176474889114,324.42498003568176L434.27043719100953,326.3653308231973L435.2069415225983,324.33495183472724L435.38532330004375,323.6920837400967L435.56370507748926,281.7414415617206L436.4556139647166,300.6241000704818L436.6339957421621,309.8229039108596L437.7042864068349,317.3542504961023L437.7488818511963,322.14171177635865L438.2394317391714,323.3667239176576L438.37321807225544,325.7593240474454L438.6407907384236,325.889382550564L438.9083634045919,325.2347354632353L439.04214973767597,326.3002825744936L440.1124404023488,327.54318227161326L440.2016312910716,326.59885188878866L440.2908221797943,327.27677819396706L442.1638308429718,326.7658600318682L442.69897617530825,322.2743429638472L442.8327625083923,325.04857368074613L445.77606183624266,326.4675108633057L447.78285683250425,327.3632839670341L449.47748371823633,320.29225307551604L449.96803360621135,322.37667027906224L450.2802017167409,319.6032558537719L451.93023315811155,322.85072100145607L453.7586463769277,325.4836534195162L454.24919626490276,326.48113628538323L455.27489148521425,324.1064035951477L456.88032748222355,323.5748916330632L457.1479001483917,325.7400174090734L458.1735953687033,314.211371197565L458.44116803487145,320.01084620233354L459.0655042559306,318.8145862063358L459.24388603337604,323.02888810508676L460.0020085875193,325.5999949625577L461.5182536958059,322.6521850580688L462.23178080558773,325.16971545506044L462.41016258303324,326.0560064762745L463.7480259138743,326.9048709210698L463.9264076913198,324.59809820387926L464.2831712462107,323.60459405127375L464.72912568982446,325.8404461230146L465.13048468907675,327.0706907774121L465.21967557779953,328.07353704326624L465.3088664665222,306.08674369217863L465.5764391326904,315.48904763445347L466.4237525755564,321.149652046164L466.60213435300193,324.45721307758566L466.6913252417246,325.890640530446L467.58323412895203,327.18807939977626L468.1183794612885,327.7626524499889L468.2521657943726,327.1841630921758L471.59682412147527,326.67156736447714L472.3103512312571,327.1231468899802L472.4887330087026,327.3925610186586L472.7117102305095,327.7570293982033L472.84549656359354,328.4565850277818L473.1130692297617,328.20738487442424L473.6036191177368,328.65977476876304L473.91578722826637,327.97388459583755L474.3171462275187,328.07610987368724L474.6293143380483,328.49824275816195L475.8779867801666,328.5956533989038L476.6361093343099,326.9197146503869L478.4199271087646,327.9585813452556L479.04426332982376,328.46641734011234L479.49021777343756,327.7997846589696L480.159149438858,326.35835602721954L481.363226436615,326.82048688766855L481.40782188097637,327.78747455834304L482.12134899075824,328.4320468393678L482.9240669892629,328.71498397945004L483.7713804321289,329.078911673005L485.2430300960541,327.38386216906315L485.4214118734996,322.98177145933136L485.7335799840292,325.31858347628736L486.00115265019735,326.4922506987883L486.7592752043406,327.4180975795869L486.93765698178606,328.1945413963688L487.20522964795424,327.68630974066735L488.0079476464589,328.13354254434L488.4093066457113,328.76410573407867L488.58768842315675,328.6015705320375L489.1228337554931,328.81513263091836L489.1674291998545,329.12954359865563L489.70257453219097,327.7262671264222L490.2823153088887,328.12071033520516L492.1107285277049,328.58486974279344L492.1999194164276,328.1452444785258L492.28911030515036,328.66093461513975L492.91344652620955,327.6964539512813L494.7418597450256,328.099180118013L495.32160052172344,327.74149381616576L495.41079141044617,326.98654004069283L496.0797230758667,327.9183857026654L497.32839551798503,328.3301706927216L497.7297545172374,327.6019934808141L499.2905950698852,328.19797354026474L499.7365495134989,327.4143959003679L500.53926751200356,328.2648553504644L502.3230852864583,328.7758658714256L502.8136351744334,328.74398369371215L503.17039872932435,328.34646805594974L503.8393303947449,328.6553775784631L503.8839258391062,329.00759124130843L504.32988028271996,328.66789816729874L504.9542165037791,329.08612092326683L505.4001709473928,329.0938495890809L506.33667527898155,326.2992331080096L506.7826297225952,327.091830991667L507.228584166209,327.88765861335895L507.76372949854533,328.49991318752416L508.3434702752432,327.3102124671461L509.6367381617228,326.2182293006444L510.1272880496978,327.44062540484373L511.6435331579844,326.78831854699894L512.6246329339345,327.92245712452086L513.1151828219096,328.2869247393883L513.2489691549937,328.76775677772025L513.7395190429687,328.9249086941137L515.0327869294484,328.8187122990573L515.1219778181712,325.86525771396555L515.4787413730621,326.52398891113995L515.8355049279531,322.40757051085507L515.9692912610371,323.2932582510692L516.4598411490123,325.8176051266371L516.9503910369873,327.02267164358716L518.0206817016601,327.05092229274493L519.2693541437784,326.61528203006793L519.581522254308,327.8045811162472L519.8936903648377,327.0928936529016L519.938285809199,326.77451190056286L521.4991263618468,327.1624206802065L521.5883172505696,328.07909210484667L521.9450808054606,328.501981057647L522.0788671385448,328.913891919909L523.2829441363017,329.14829829539L523.6397076911926,329.127881108148L523.8626849129995,329.2986495815608L524.2194484678904,329.0192497726635L524.4424256896973,328.3684268672839L524.7099983558654,328.2251638556881L525.3343345769247,328.77898500207743L525.378930021286,328.76946636863823L525.7356935761769,328.99187967386734L525.9140753536225,328.869821858334L526.1370525754293,329.0889794818445L527.1627477957408,328.8045622045299L527.5195113506318,329.11981062983415L530.1060471235911,329.1731393530731L531.2655286769867,329.32471023776316L531.3993150100708,329.079137178332L532.514201119105,327.92689542092864L532.9155601183573,327.99807399614394L533.8074690055847,328.57150608377407L534.4318052266439,328.4047134159515L535.8588594462077,328.6409457447464L536.8399592221579,329.0050506041219L539.2035177733103,329.0942349930643L540.8981446590424,329.3309601033168L541.1211218808492,329.34233878417876L541.1657173252106,329.45459369335236L542.7265578778585,327.72339746485795L543.0833214327495,328.31711178330534L544.1982075417836,328.8502926078899L544.599566541036,329.0285378767423L546.0266207605997,329.2679266354121L546.1158116493225,329.1951052132513L546.6063615372976,329.29409400899794L548.122606645584,328.7240761324794L548.1672020899455,328.97945445397096L548.3901793117524,328.9173530202152L548.6577519779205,328.46221939567437L549.1483018658956,328.77866448614924L549.3266836433411,328.9880531082872L549.9956153087617,329.16696326164185L550.6199515298208,329.30599596839994L550.8875241959889,327.6977559230709L552.4483647486369,328.45647769184166L553.5186554133097,328.47087774171024L553.7416326351165,328.5032887153105L554.276777967453,328.9801944112731L555.6146412982941,329.2111158829843L556.1943820749918,328.96519593179266L557.5768408501942,329.22675839776684L558.2011770712534,329.3784161043649L558.6917269592285,328.70140761542376L558.8255132923126,329.0837416331558L559.9403994013469,329.18402325986847L560.4309492893219,329.24828985018024L560.921499177297,328.85628082779084L561.5458353983562,329.1361127555638L561.6350262870789,327.6295653223038L561.8134080645243,328.3771511898741L561.902598953247,328.4706799870496L566.8526932773591,328.2539264677251L567.2986477209727,328.7259361391271L567.5662203871409,328.8608370600689L568.1905566082,328.1422555826333L568.2797474969228,328.6025973964784L568.8148928292592,328.8397433603246L569.2162518285115,328.94923405315456L569.4392290503183,328.97967142119404L570.9554741586049,329.0648056076763L572.0703602676392,329.21888560922514L572.3379329338073,327.9002286602727L572.4271238225301,328.5580803176849L572.8730782661438,328.7960355921933L573.0068645992279,328.2730103029848L573.274437265396,328.27306200761063L573.3190327097575,328.62758063065655L573.5866053759257,328.68610009465516L574.1217507082621,327.7954384967085L574.5231097075144,328.5268209507095L574.6123005962372,327.29542929169537L574.9690641511281,328.00427423409167L576.2623320376078,328.6690999324385L578.2691270338694,328.96392952502947L579.2056313654581,329.2586077358536L579.5623949203491,329.2591014283774L579.8745630308787,329.44338891145003L580.9002582511902,328.8294364849197L581.123235472997,329.16180101873465L581.1678309173584,329.35322819157403L582.4610988038381,329.2835241153556L583.8881530234019,327.79264785723876L584.4232983557383,328.41465476168224L584.869252799352,327.83139741535666L586.073329797109,328.292355314316L586.5638796850841,328.80865246771947L587.5895749053955,329.04331582559576L587.901743015925,328.26337268676707L588.0355293490092,327.22490387435977L588.0801247933706,328.0953830558209L588.3922929039002,326.47705448189356L588.615270125707,326.87154538649304L588.972033680598,327.9915953017822L589.1058200136821,328.57410475565206L589.2396063467662,328.99545446828483L589.7301562347412,328.2097347562846L590.6220651219686,328.4293539805605L591.6031648979186,327.80877796458276L591.6923557866414,327.95033551254085L592.0045238971711,328.61326128453527L592.0937147858938,328.1302493114049L593.7437462272644,328.6138768276073L594.8586323362987,328.67266993658444L595.5721594460805,329.034045604632L597.8465271085104,329.2079379074519L598.6938405513764,329.34376021995905L599.13979499499,329.170282958215L600.6560401032766,328.4431595372674L601.9493079897563,328.81477047601396L602.0830943228405,328.6192691808839L602.4844533220927,328.9466593999924L602.8412168769836,328.6597747561802L603.9561029860179,327.9176681958277L604.3128665409089,328.2496090765399L604.8034164288839,328.78596012619715L605.2047754281361,329.06072407249434L605.5169435386657,328.6703197344548L605.5615389830272,329.02675664102685L607.2561658687591,329.22010674796746L607.7913112010956,326.94651277033597L607.9250975341797,327.94576125332617L608.0142884229025,328.44033793586505L608.0588838672637,328.9493591363005L608.1480747559865,328.9269008100537L608.2818610890706,329.1003984384081L608.4156474221547,329.0321256523605L609.0399836432139,329.00231258411736L611.225160416921,329.25662055558803L612.6968100808461,329.42083521838964L613.1427645244598,329.43477183950597L614.7482005214691,329.4148978199855L614.8819868545532,329.49675925060734L614.9711777432759,328.7394887427529L615.595513964335,329.0937862609216L615.6401094086965,328.65124171654077L615.7293002974193,329.0786650965521L618.8509814027151,329.20404539064134L618.9847677357991,329.3318156874882L619.0293631801605,327.44422696486L621.6158989531199,328.2669066845982L621.9726625080109,328.83001820054164L623.2213349501292,328.09515685647403L624.1132438373565,328.5572767551107L624.1578392817179,328.56378665724856L624.2470301704407,328.71916851915756L624.6929846140544,329.0451469260262L625.6294889456432,328.9347228710468L626.2538251667023,329.21715703008505L626.6551841659546,328.4915164423392L627.0565431652069,328.8982038122698L629.8660561599731,328.61792128100745L630.0444379374186,328.42296148873373L632.630973710378,328.3636398354308L633.7458598194122,328.8907858410962L634.4593869291941,328.20949204988534L635.0391277058919,328.358626339909L635.7972502600352,328.69829702194875L635.886441148758,329.00596157647084L636.5107773698171,329.2752283665196L636.7783500359853,329.31148770901683L637.714854367574,328.51400800955815L638.8297404766082,327.9975952841853L639.4986721420288,328.67770490841076L639.6770539194742,328.6937456146995L640.7473445841472,328.77535387069776L641.3716808052063,328.7885026440832L641.9514215819041,328.67446991116765L642.5757578029633,329.0985307744442L644.0474074668884,328.4710776595999L644.2703846886953,328.77953836157525L644.4041710217795,328.90537909556446L645.2514844646454,328.216770297607L646.8123250172933,328.58672862364506L647.2136840165456,328.4429855771415L647.4812566827138,328.7711978349566L647.5258521270752,329.0580330831816L648.2393792368571,329.0541844417657L648.7745245691934,329.2385922715475L649.3096699015299,329.32039391350787L649.3542653458913,328.66798811316966L650.3799605662027,328.78025163331233L650.4691514549255,328.228758154955L651.0934876759848,328.8074885226051L651.3164648977915,328.95092035134587L652.0745874519348,327.4570416875806L652.1637783406575,328.2990214480163L653.0110917835235,328.79647735471264L653.4124507827759,326.98793846660345L653.5908325602213,327.2173745575975L653.7246188933055,328.15669088060827L656.2219637775421,328.79225451366784L657.7382088858287,329.09613939733396L658.7193086617788,329.32349216508277L659.4328357715607,328.52405425958517L660.7261036580404,328.8226506784017L661.0828672129313,329.1663481056094L661.1274626572927,329.3529411461519L664.8288845392863,328.625065744594L665.1410526498158,328.9631570463721L666.6572977581025,329.24877484918454L666.969465868632,329.3478621815273L668.0843519776662,329.0014191316849L668.4411155325572,328.5383030599275L669.3776198641459,328.9045656159136L670.0465515295665,326.3975564467568L670.0911469739277,327.5417198328118L670.7600786393483,328.34319068511803L671.7857738596598,328.33666877656805L671.9641556371054,327.647307804936L672.543896413803,328.2608824701751L672.9452554130554,327.10276572461004L674.4169050769806,327.3706833251644L675.7993638521831,328.0792202161193L676.1115319627127,328.59409049708415L677.8061588484446,328.9976451924316L680.2143128439585,329.26593724069306L680.5264809544881,329.38798512956254L680.7940536206563,317.60403607349923L681.1062217311859,321.3602345096568L681.1508171755472,324.69236499812183L681.3291989529928,326.5587663644467L682.934634950002,327.8169116549169L683.0684212830861,328.56667481274945L683.5589711710612,328.9782843190499L684.1833073921204,329.23300593358937L684.3170937252045,329.3418035235618L684.8522390575408,328.7812014197058L685.9225297222138,328.92527548092386L686.5914613876342,329.1634035341394L686.8144386094411,329.29917144265085L687.1266067199707,329.0472956744939L687.3495839417776,328.9920527591378L688.0185156071981,329.2852025278467L688.3306837177277,328.5476159330231L688.7766381613413,328.9857195789246L689.3117834936778,329.21360827349787L690.0253106034596,329.3916331389584L690.2482878252665,328.5019969246884L690.3820741583506,327.9163440242686L691.3185784899393,327.7202941838133L691.8537238222758,326.98148840500795L692.1658919328054,326.2390232133153L692.2104873771667,327.62426501237275L692.3888691546122,328.39600865949024L692.5672509320577,327.9477710252521L694.0834960403442,328.66515432398893L695.6889320373535,328.0151330618962L698.766017698288,328.5894734727905L700.0592855847676,328.91934069427333L701.0849808050791,329.19585853506794L701.2633625825247,329.2657987997309L701.8431033592224,329.3560077719323L702.1106760253906,329.42939114558374L702.7796076908111,322.9346589148929L703.1363712457021,325.5070501932645L703.2255621344249,325.6065112720596L704.4742345765432,327.06343442713086L704.5188300209046,328.0273684001986L705.053975353241,328.6167755658218L705.5891206855774,328.9915868795296L705.9458842404683,327.2691005477181L706.2580523509979,327.8456755370795L706.7040067946116,327.8740674284015L707.3283430156707,328.58286848401787L707.9080837923686,328.4172818936896L708.3094427916209,328.8713714892568L709.2013516788483,329.1832238469022L710.6284058984121,329.2425943405572L712.5906054503123,328.7680676599459L713.9284687811534,328.64716036061947L714.017659669876,329.0022215971807L714.1960414473216,329.29239213441747L714.7311867796581,329.3879149164595L714.9541640014648,329.4968601192757L715.2217366676331,329.53573253125694L716.42581366539,329.37454352529943L716.8271726646424,329.4549421067727L717.3623179969788,329.38373939367136L720.2610218804676,329.4151342627752L720.3056173248291,328.7575293443043L720.5731899909973,329.0360055417635L720.7069763240814,329.2636648604801L721.2421216564178,329.41988586749216L721.5988852113088,328.28499309514916L721.9110533218384,328.64202392494576L722.0448396549225,329.030498866244L723.2935120970409,329.22877407800036L724.2746118729909,329.14602156152057L725.3449025376638,328.97537859671803L725.8354524256389,329.1940484929771L726.5043840910594,328.4104121289643L726.7719567572276,326.98519062730946L726.8165522015889,327.1836957618552L727.9760337549845,327.9986743736439L728.3773927542369,328.4029455522181L729.492278863271,327.9799055141289L730.6517604166667,328.2450327779173L730.8301421941121,328.72159836244356L731.1423103046418,328.95644933214356L731.4544784151714,329.1061142750869L732.6585554129283,329.1224597068215L732.7923417460123,329.3533045013059L733.7734415219625,329.47798293018155L735.4680684076945,329.44369999318684L735.9140228513082,329.48653542043996L736.0924046287537,329.376384384889L736.137000073115,329.41031389526825L739.749231066386,328.1890105719137L740.3735672874451,328.54110993951315L740.4627581761678,328.7496857308294L740.6857353979747,327.7784598086543L741.7560260626475,327.98153965745655L743.3614620596568,328.1169663898957L743.4506529483796,328.67718799843203L744.833111723582,329.10011370222094L745.2790661671957,329.34749106356634L747.5088383852641,328.4573000838134L747.865601940155,327.8410574217266L748.0885791619619,327.44482510914355L748.5345336055756,328.36520793695917L748.9804880491893,328.5818416337527L749.1588698266347,328.9148015188613L749.7832060476939,329.2221897480626L750.9872830454509,329.43597494428917L751.7900010439555,329.50835516402384L752.1913600432077,329.3998600586639L752.3697418206533,329.53277440695535L753.2616507078807,329.5678007130516L753.3954370409648,329.5794790462247L753.8859869289398,329.59157411639944L755.4022320372263,329.62366046650186L757.7211951440175,329.5885450029275L758.1225541432698,329.6510814315803" fill="none"></path></g></g></g></g><g opacity="0.2"><g><g><g><path style="fill: none;" stroke="rgb(255, 112, 67)" stroke-width="2px" d="M113.04945145606995,-119.50018110101291L115.05624645233155,17.949617343855152L115.32381911849976,-28.939221162116155L118.71307288996377,-153.11818585395554L119.91714988772074,66.71841612262006L121.21041777420044,12.294437866880457L121.34420410728455,-48.1528087367019L121.65637221781412,-1.900403414233324L124.51048065694174,112.62194014117767L124.73345787874857,54.798447183936105L125.40238954416911,38.70192198412519L125.53617587725321,117.17676191391138L125.66996221033732,-10.307139869032994L125.9821303208669,11.043272680787936L126.42808476448059,19.481954352211005L126.6956574306488,112.99510609991978L126.74025287501017,67.20406428926185L127.4091845404307,70.29812251366934L127.9889253171285,-14.533501014304875L128.70245242691038,-17.371975040734583L129.861933980306,95.9490306777194L130.9768200893402,21.68269222568358L131.556560866038,97.97211540558169L133.47416497357685,86.10581532942467L133.8309285284678,36.8884356184966L134.9012191931407,41.098195135720175L134.9904100818634,19.557369325632067L135.21338730367026,-3.5004723692273956L136.77422785631816,103.22856376451932L138.37966385332743,134.83498586478333L139.18238185183208,65.41486257846441L139.36076362927753,69.86872668347269L140.38645884958905,135.1711070540374L140.74322240447998,95.45059993143013L142.7500174007416,48.12084105508791L143.37435362180074,122.0894060568121L143.9986898428599,68.84248098319836L144.04328528722127,183.2587336205334L145.47033950678508,109.29399889970534L146.62982106018066,230.34822942248235L146.67441650454205,92.21725876534538L147.74470716921488,150.07779649207498L150.2866474978129,98.184274776743L150.5988156083425,134.70846303776295L151.17855638504028,123.11949327047785L151.267747273763,131.94668448921811L151.5353199399312,156.37327313093442L151.62451082865397,136.1590050153693L152.47182427151998,176.43161174679278L154.25564204597475,203.5330506559539L154.4340238234202,162.27638747658995L154.7015964895884,106.28555475444819L155.013764600118,187.07486157258455L155.19214637756346,210.85732277152L155.32593271064758,164.75700543536675L155.37052815500897,132.45405630176344L155.7272917098999,180.6656559188475L155.861078042984,172.7062198917472L156.26243704223631,192.31086679008246L156.88677326329548,79.79245655805312L157.95706392796833,85.01821773984057L158.0016593723297,123.50416130440362L160.27602703475952,179.53845255084775L161.21253136634826,195.53271711347884L161.7476766986847,199.1252060841756L161.79227214304606,153.4670783903618L161.83686758740743,101.04444998408565L162.50579925282798,195.27967145943808L162.996349140803,152.29003644073123L163.97744891675313,91.9935973190004L164.11123524983725,160.7926197778964L165.1369304701487,207.90256995378036L165.895053024292,140.29975208149085L166.6085801340739,129.0098362689812L166.742366467158,59.40437681026913L167.1883209107717,235.47559394547199L168.61537513033548,228.06058573290034L169.0167341295878,154.6850178553671L169.32890224011737,215.42236611497356L169.37349768447876,161.99905716771804L169.55187946192424,117.91799427853095L170.53297923787434,196.8235105429776L170.84514734840394,186.39495863228416L173.07491956647237,197.6184342351147L173.56546945444742,163.03808544763984L173.65466034317015,207.59201392382124L175.39388267326356,195.21322001726367L175.83983711687725,249.19501424691148L175.8844325612386,152.58524888211525L176.73174600410462,295.86148865974457L177.71284578005472,178.69624005351216L178.29258655675252,161.9428272962635L179.09530455525717,271.9525102500364L179.94261799812315,245.639598126941L180.70074055226644,175.8168909766983L180.83452688535053,262.8952662951274L181.36967221768697,251.90950399025783L182.70753554852803,185.96683207405601L182.8859173259735,130.16642384467673L183.064299103419,141.83465009877432L183.19808543650308,151.05036209732708L183.42106265830995,136.92582500427443L184.53594876734417,117.05533863975563L184.75892598915098,186.24799266382405L185.29407132148742,222.6763452749738L185.8738120981852,239.30451009341826L186.00759843126932,301.65725685597477L187.52384353955586,225.65410224308079L188.63872964859007,161.8150239647793L190.42254742304485,238.92621650057328L191.2252654215495,231.14314188212416L191.71581530952454,254.97289188625808L191.89419708697,224.51794657632968L192.0725788644155,217.894031774999L193.85639663887022,281.1503344998294L194.03477841631573,245.13606221153944L194.21316019376118,258.6164943268018L194.792900970459,207.05524667108483L195.72940530204775,255.67196307978205L196.88888685544333,265.6519284420647L197.11186407725017,294.3611081005074L197.2010549659729,174.76764112605662L198.182154741923,287.55443498445413L198.67270462989808,262.2485946921619L198.98487274042765,229.55330573034524L199.4754226284027,240.86623692571754L199.9213770720164,278.2275325149608L200.41192695999146,277.3431476140343L200.5903087374369,229.21718454109117L200.67949962615967,259.85743794217444L201.12545406977333,241.45284276008476L201.34843129158023,210.2106455523068L201.83898117955528,260.72520436630975L203.44441717656457,223.6949191809606L204.3363260637919,245.7354450093065L205.3620212841034,259.208210946529L205.4958076171875,251.9388994304489L206.65528917058307,268.2718461912617L210.26752016385396,236.34592137853485L210.31211560821535,231.78853859687354L210.49049738566083,232.07737098092912L211.4715971616109,186.83587900265508L211.87295616086323,302.00487731228867L213.7013693796794,252.0577560794294L215.35140082105002,311.55926589277544L215.4851871541341,224.2470187897768L216.7784550406138,230.48114353932647L217.80415026092527,175.0079042004499L217.98253203837078,253.3689926503679L218.56227281506858,225.9659387775037L219.14201359176639,256.95891499588936L220.83664047749835,212.2861298707275L221.6839539203644,237.4296718384799L222.48667191886904,245.55652259172768L222.53126736323037,262.61410008911173L222.66505369631452,279.5004269632045L222.84343547375994,296.39058411819343L223.3785808060964,301.3965450238941L223.60155802790325,287.4176877785901L224.71644413693747,305.63314178050496L225.25158946927388,257.36532352446164L225.87592569033308,243.9884100858523L226.45566646703082,306.96482710913085L227.83812524223328,222.6418390494228L228.4624614632924,237.06927161064232L228.90841590690613,294.06205414573196L229.35437035051982,258.153855926775L229.80032479413353,313.9938727426938L229.97870657157895,298.1388995461114L231.4949516798655,264.01096758794347L233.8139147866567,290.13473572274023L234.61663278516136,250.00910619227216L235.24096900622052,267.85649098018575L235.33015989494325,273.19984515523277L235.46394622802734,282.44240281754435L235.59773256111143,270.71667742002364L236.0882824490865,265.55735644791537L236.31125967089332,320.8548605897535L236.44504600397747,278.71317506535496L236.75721411450704,289.8765764752157L237.29235944684345,247.187261875129L237.64912300173444,289.14299905614075L237.73831389045716,322.3175406825897L237.82750477917986,312.8359962381629L240.01268155288696,283.26927453442863L240.19106333033244,297.05514908616635L240.90459044011433,296.4826007196628L240.9937813288371,311.8327603045036L241.7964993273417,198.01716535315177L242.55462188148496,279.137471342687L242.8221945476532,305.79417083307635L243.17895810254416,295.6966265181532L244.78439409955345,257.1084419732771L245.9884710973104,277.65498414845723L246.43442554092408,299.4475807243699L248.75338864771524,249.19245885423152L249.91287020111085,212.45994150294638L250.18044286727903,297.0078630890917L250.22503831164042,294.01349045231734L250.76018364397683,305.5475164688593L251.29532897631324,285.6182532645775L251.87506975301105,294.7368434925486L252.85616952896117,243.21393515140258L253.1237421951294,272.6911984544713L253.16833763949077,208.69109112359843L253.30212397257486,306.71305915143006L253.3913148612976,275.03378589479644L253.48050575002034,245.27153172106352L253.92646019363406,285.4751147688897L254.77377363650004,321.39545812338605L254.95215541394552,245.36737860342902L255.48730074628193,286.7045591172025L256.2008278560638,246.2338701393481L257.0927367432912,312.1445940308027L257.53869118690494,267.0385687539289L257.98464563051857,296.45065269491556L258.9657454064687,288.44904145610053L259.05493629519145,290.5194149891613L260.16982240422567,269.206069673819L261.10632673581443,255.99146579224487L264.13881695238746,287.74358178087664L265.20910761706034,309.9885937820344L265.5212757275899,297.30308395484724L267.3050935020447,250.10112279374152L267.6172616125743,313.9887605532719L267.8402388343811,236.89290458574348L268.1524069449107,318.91995586418585L269.04431583213807,291.24787881475254L269.8470338306427,313.33314226780266L270.07001105244956,286.95760477124327L271.45246982765195,323.76168996631037L271.8538288269043,213.84402080588302L273.99441015625,316.79654459442764L274.0390056006114,294.19880135159605L274.5295554885864,320.26761520518534L275.10929626528423,314.9344861110129L275.64444159762064,298.77918266737703L276.13499148559566,306.5967607032534L276.31337326304117,278.8064665550405L276.4025641517639,306.3552171243963L276.71473226229347,295.0946855195824L277.0714958171845,318.3633829141178L277.5620457051595,226.63560891458894L278.23097737058004,315.6578391512442L278.81071814727784,314.8680304566528L279.79181792322794,269.3351478935193L280.1039860337575,312.19315912827926L280.37155869992574,276.3705820087822L280.6837268104553,320.2305528849234L281.1742766984304,292.6140703689294L281.57563569768274,320.66891014027385L281.8432083638509,285.4367754543187L284.4297441368103,324.16745789163525L284.65272135861716,284.44631929218303L284.9202940247854,300.91729095519986L285.4554393571218,258.24331151931676L286.2581573556264,318.4464535351144L286.570325466156,299.8923285675132L288.22035690752665,323.75785617525946L288.5771204624176,284.199664927966L291.83258790079753,292.8198300258955L291.87718334515887,286.76973847928457L292.2785423444112,311.90944033770745L292.36773323313395,321.53092693087916L292.54611501057946,317.2476823233327L293.0366648985545,293.85246139974595L295.48941433842975,325.0569518228443L296.33672778129574,320.63951610414466L296.8272776692708,307.88499312382453L297.0056594467163,320.96349075379743L298.07595011138915,299.85910003830213L298.78947722117107,270.2067502147984L299.0124544429779,318.3359061245296L299.3692179978689,306.435731650682L299.503004330953,298.2283607549008L299.5921952196757,311.5861045362247L300.4841041069031,265.97398654720746L301.28682210540774,315.98373174946886L302.26792188135784,291.16097580676694L302.80306721369425,308.428146050137L303.38280799039205,320.6497397809574L303.739571545283,295.11641197360973L303.82876243400574,315.48275263080916L304.76526676559445,315.3076647063122L305.34500754229225,314.4641801288843L305.7463665415446,310.0857225729256L306.9058480949402,283.361291135898L306.95044353930155,318.6215407575804L307.03963442802427,316.0949180082237L308.2883068701426,317.08920866344124L309.09102486864725,263.70041155798435L309.49238386789955,318.0342960750432L309.8937428671519,310.0946692554293L309.9829337558746,299.0309506250778L310.3396973107656,327.23707420627744L310.4734836438497,317.4087113759041L310.56267453257243,322.7121256058004L311.4545834197998,324.25819644574915L311.54377430852253,308.19427005338173L311.9005378634135,300.4866033880441L312.70325586191814,324.30420474648383L312.74785130627953,317.4930589912097L313.4167829717,313.94019545579533L313.4613784160614,310.5317481124088L314.8884326356252,322.67793950636536L315.0668144130707,308.5239971446882L316.7168458544413,319.7717482759475L317.7871365191142,297.09987969056107L317.96551829655965,314.89614679644194L318.58985451761885,299.42202118132263L318.6790454063416,321.25168218359016L318.7236408507029,308.89589663958566L319.12499984995526,318.83305075010736L319.52635884920755,311.4097389153877L320.3736722920736,311.3560630325513L320.68584040260316,309.0352006421916L321.4439629567464,313.007249669578L321.8453219559987,243.0618527813349L323.0493989537557,321.3724539730187L323.1831852868398,291.9942360053511L324.74402583948773,297.21745583507777L324.9224076169332,328.7485587891462L325.5467438379924,282.9024858248912L325.992698281606,283.9785672986725L326.0372937259674,308.7387020800961L326.84001172447205,255.76909046661135L327.19677527936295,290.0094905920598L327.4643479455312,323.7016241977121L327.9103023891449,317.57101812481545L328.7576158320109,328.0241676206387L329.1143793869018,261.09710666933097L329.6049292748769,302.5275814809138L331.03198349444074,303.2240972817578L333.03877849070227,299.76708343683276L333.70771015612286,322.3661050780353L335.26855070877076,312.5701708125985L335.8482914854685,319.8024207104476L335.8928869298299,318.9672418612605L336.24965048472086,317.79083524964517L337.14155937194823,320.1909351719815L338.12265914789833,318.67521734244787L338.2118500366211,320.9954408846375L339.7280951449076,312.50754824725834L339.95107236671447,314.83480192744173L340.35243136596677,301.63169731292743L340.39702681032816,309.6690924736335L340.93217214266457,279.87999544426566L341.42272203063965,321.63061111445035L341.6902946968079,326.96485854393575L341.824081029892,316.6546851991417L341.95786736297606,326.30045399003626L342.314630917867,324.6339311357594L344.9457621351878,293.24157371867136L347.3093206863403,317.26046209485634L348.0674432404836,312.93951491481596L349.5390929044088,318.9122875800531L349.80666557057697,321.20759042736546L349.85126101493836,315.6220552293532L349.9404519036611,314.9217063394893L351.5904833450317,326.20172772770457L351.90265145556134,327.44634805470173L352.0364377886454,320.49062797492695L353.82025556310015,326.6618107350514L354.2662100067139,299.8182025229274L354.48918722852073,317.1825029612506L354.7121644503276,285.29108156595095L354.84595078341164,232.0262518948345L355.02433256085715,327.2212588528999L355.60407333755495,267.10885609324714L355.8270505593618,305.52579001483195L357.2095093345642,326.2739351216875L357.3432956676483,326.20300577506003L358.3243954435984,325.0301135304106L358.3689908879598,325.6892465338612L358.4581817766825,327.9038751428454L359.26089977518717,167.58906570698213L359.79604510752364,321.677258965386L360.33119043986005,311.6512824942448L360.8217403278351,315.30638700997224L361.66905377070105,312.87944914621767L362.2041991030375,316.7415910152512L362.91772621281945,316.7658728619585L363.229894323349,315.8060884322919L363.27448976771035,310.96754927304835L364.30018498802184,322.9111759529197L364.96911665344237,321.73157369639245L367.2434843158722,308.15848613149075L368.7151339797974,329.2372771126665L369.874615533193,255.1134721811421L370.18678364372255,326.0250430337981L370.2313790880839,327.90611163796353L370.8111198647817,326.56883551031154L371.30166975275677,328.4693938101246L373.21927386029563,299.0105018673904L375.85040507761636,306.76290054118465L376.92069574228924,320.20052000062424L376.9652911866506,310.594370677749L377.1436729640961,315.0150006372986L377.1882684084575,316.2648937432988L378.704513516744,326.66628372528777L378.88289529418944,327.51536050580376L379.8193996257782,291.22998825786897L379.86399507013954,329.1301241095079L380.22075862503056,325.0959310386317L381.246453845342,323.1623043604195L381.3802401784261,317.17739077182875L381.8707900664012,319.2138976295395L382.13836273256936,325.6025815143697L383.74379872957866,317.52628752042074L384.27894406191507,322.5296902253176L384.32353950627646,327.0303564525641L384.3681349506378,325.46431686859415L384.9032802829742,321.23954055820553L385.17085294914244,325.3850803896639L386.95467072359725,323.12140824910665L387.44522061157227,321.6037731730321L387.75738872210184,318.5109926449646L388.1141522769928,307.3904038909267L388.42632038752237,328.14957228785386L389.6303973852793,323.92303879398224L390.5223062725067,328.81856970377544L391.59259693717956,325.8927691691859L391.8601696033478,327.10783557250363L393.19803293418886,322.4332002825964L394.2683235988617,309.266519842205L394.669682598114,326.5683563741841L394.8480643755595,325.3333210513374L394.9372552642822,322.41211337876996L396.05214137331643,323.24122106424926L396.14133226203916,323.6172751783445L396.72107303873696,326.3573251667691L396.76566848309835,322.4734575457392L397.34540925979616,317.4547196766388L397.74676825904845,298.5862027819346L399.0846315898895,324.68089770874906L399.3967997004191,326.75925895002763L399.7089678109487,306.20569014700857L402.29550358390804,321.7910013188517L406.13071179898577,328.26187723293714L406.3536890207927,327.3629580096201L407.9145295734405,326.31706790362625L408.00372046216336,327.21950166941696L408.04831590652464,284.88850893452246L408.1375067952474,329.630424451987L409.25239290428163,328.01346428117523L411.5713560110728,328.1363128536795L412.0619058990478,329.3233829645015L412.46326489830017,317.65920023320297L412.95381478627525,326.85622767786083L413.4889601186116,323.966171575921L413.8457236735026,303.7404101605592L413.9349145622254,327.3249372415954L414.6484416720072,304.66057617525286L415.228182448705,329.0416220505122L416.2538776690165,322.3926242973995L416.5660457795461,318.53271909899195L417.6363364442189,325.20903489494293L417.8593136660258,328.88682325941403L417.9039091103872,328.1227339954201L418.66203166453045,328.73426105118784L419.4201542186737,328.6462382160735L420.08908588409423,323.5383584745147L420.2228722171783,327.79652232412593L420.2674676615397,328.34806285303955L421.6945218811035,323.04920085512373L421.91749910291037,296.9669683818408L422.76481254577635,325.679980778288L422.85400343449913,316.9754656079445L425.84189820671077,327.2570431258064L426.0202799841563,328.5181178298588L426.1986617616018,323.99300986835476L426.6892116495768,326.36211793210595L426.956784315745,326.96278176086L428.2500522022247,328.7551884184795L429.6771064217885,328.83402552954965L429.855488199234,328.3602838079222L430.5690153090159,327.548908283592L431.68390141805014,309.97197951742885L432.35283308347067,312.34651919468695L432.6204057496389,328.3296116366837L432.8879784158071,325.6553791564802L432.97716930452987,323.47190211812364L433.02176474889114,326.0045949781417L434.27043719100953,329.2758570044707L435.2069415225983,321.28938335202207L435.38532330004375,322.72778159815095L435.56370507748926,218.8154782941565L436.4556139647166,328.9480878336236L436.6339957421621,323.6211096714264L437.7042864068349,328.6512703739664L437.7488818511963,329.3229036967432L438.2394317391714,325.2042421296061L438.37321807225544,329.34822424212695L438.6407907384236,326.08447030524195L438.9083634045919,324.25276483224235L439.04214973767597,327.898603241381L440.1124404023488,329.40753181729275L440.2016312910716,325.1823563145517L440.2908221797943,328.2936676517347L442.1638308429718,325.99948278871983L442.69897617530825,315.5370673618157L442.8327625083923,329.2099197560946L445.77606183624266,328.59591663714497L447.78285683250425,328.7069436226266L449.47748371823633,309.685706738239L449.96803360621135,325.50329608438153L450.2802017167409,315.4431342158363L451.93023315811155,327.7219187229823L453.7586463769277,329.4330520466065L454.24919626490276,327.97736058418377L455.27489148521425,320.5443045597944L456.88032748222355,322.77762368993655L457.1479001483917,328.98770607308876L458.1735953687033,296.9184018803023L458.44116803487145,328.7100587094863L459.0655042559306,317.0201962123392L459.24388603337604,329.3503409532132L460.0020085875193,329.45665524876404L461.5182536958059,318.2304702013356L462.23178080558773,328.94601105054795L462.41016258303324,327.3854430080955L463.7480259138743,328.1781675882628L463.9264076913198,321.1379391280934L464.2831712462107,322.1143378223655L464.72912568982446,329.1942242306259L465.13048468907675,328.9160577590084L465.21967557779953,329.57780644204735L465.3088664665222,273.10655366554727L465.5764391326904,329.5925035478658L466.4237525755564,329.64055866372973L466.60213435300193,329.4185546247181L466.6913252417246,328.04078170973645L467.58323412895203,329.13423770377176L468.1183794612885,328.62451202530775L468.2521657943726,326.3164290554563L471.59682412147527,325.9026737729291L472.3103512312571,327.80051617823483L472.4887330087026,327.79668221167617L472.7117102305095,328.30373196752043L472.84549656359354,329.5059184721494L473.1130692297617,327.8335846443879L473.6036191177368,329.33835961027125L473.91578722826637,326.9450493364493L474.3171462275187,328.2294477904618L474.6293143380483,329.131442084874L475.8779867801666,328.7417693600165L476.6361093343099,324.40580652761145L478.4199271087646,329.51688138755884L479.04426332982376,329.2281713323974L479.49021777343756,326.79983563725546L480.159149438858,324.19621307959443L481.363226436615,327.51368317834203L481.40782188097637,329.2379560643548L482.12134899075824,329.398905260905L482.9240669892629,329.1393896895734L483.7713804321289,329.6248032133374L485.2430300960541,324.8412879131505L485.4214118734996,316.3786353947336L485.7335799840292,328.82380150172145L486.00115265019735,328.25275153253966L486.7592752043406,328.80686790078477L486.93765698178606,329.35920712154166L487.20522964795424,326.92396225711514L488.0079476464589,328.804391749849L488.4093066457113,329.7099505186866L488.58768842315675,328.3577677289758L489.1228337554931,329.13547577923964L489.1674291998545,329.6011600502615L489.70257453219097,325.62135241807215L490.2823153088887,328.71237514837964L492.1107285277049,329.28110885417584L492.1999194164276,327.4858065821243L492.28911030515036,329.43446982006066L492.91344652620955,326.2497329554937L494.7418597450256,328.7032693681105L495.32160052172344,327.2049643633949L495.41079141044617,325.8541093774835L496.0797230758667,329.31615419562416L497.32839551798503,328.947848177806L497.7297545172374,326.50972766295274L499.2905950698852,329.0919436294408L499.7365495134989,326.23902944052253L500.53926751200356,329.5405445256092L502.3230852864583,329.54238165286733L502.8136351744334,328.69616042714193L503.17039872932435,327.75019459930627L503.8393303947449,329.11874186223304L503.8839258391062,329.5359117355765L504.32988028271996,328.1583585562841L504.9542165037791,329.7134550572191L505.4001709473928,329.1054425878019L506.33667527898155,322.1073083864027L506.7826297225952,328.2807278171531L507.228584166209,329.08140004589677L507.76372949854533,329.4182950487721L508.3434702752432,325.5256613865789L509.6367381617228,324.58025455089194L510.1272880496978,329.2742195611427L511.6435331579844,325.8098582602318L512.6246329339345,329.6236649908037L513.1151828219096,328.83362616168955L513.2489691549937,329.4890048352181L513.7395190429687,329.1606365687039L515.0327869294484,328.65941770647277L515.1219778181712,321.43507583632794L515.4787413730621,327.5120857069016L515.8355049279531,316.23294291042777L515.9692912610371,324.62178986139025L516.4598411490123,329.60412543998905L516.9503910369873,328.83027141901226L518.0206817016601,327.09329826648155L519.2693541437784,325.96182163605243L519.581522254308,329.5885297455161L519.8936903648377,326.0253624578831L519.938285809199,326.29693927205483L521.4991263618468,327.74428384967194L521.5883172505696,329.45409924180694L521.9450808054606,329.1363144868474L522.0788671385448,329.53175821330206L523.2829441363017,329.4999078586116L523.6397076911926,329.0972553272849L523.8626849129995,329.55480229168L524.2194484678904,328.60015005931757L524.4424256896973,327.3921925092145L524.7099983558654,328.01026933829434L525.3343345769247,329.60971672166147L525.378930021286,328.7551884184795L525.7356935761769,329.3254996317109L525.9140753536225,328.686735135034L526.1370525754293,329.41771591711034L527.1627477957408,328.3779362885578L527.5195113506318,329.59268326779056L530.1060471235911,329.2531324379316L531.2655286769867,329.5520665647982L531.3993150100708,328.7107775891853L532.514201119105,326.19853278482367L532.9155601183573,328.1048418589669L533.8074690055847,329.43165421521917L534.4318052266439,328.1545244142177L535.8588594462077,328.99529423793865L536.8399592221579,329.5512078931851L539.2035177733103,329.2280115764779L540.8981446590424,329.6860477686955L541.1211218808492,329.35940680547174L541.1657173252106,329.62297605711274L542.7265578778585,325.1266031221163L543.0833214327495,329.20768326097647L544.1982075417836,329.6500638447667L544.599566541036,329.29590578002086L546.0266207605997,329.62700977341683L546.1158116493225,329.08587308001006L546.6063615372976,329.442577202618L548.122606645584,327.86904931770164L548.1672020899455,329.36252193620834L548.3901793117524,328.82420086958155L548.6577519779205,327.77951895886304L549.1483018658956,329.25333212186166L549.3266836433411,329.30213604149407L549.9956153087617,329.4353284916738L550.6199515298208,329.51454502853716L550.8875241959889,325.2853958550773L552.4483647486369,329.5945603449977L553.5186554133097,328.49247781651314L553.7416326351165,328.55190517571083L554.276777967453,329.69555295521707L555.6146412982941,329.5574980905512L556.1943820749918,328.59631600500506L557.5768408501942,329.61910209672806L558.2011770712534,329.605902664262L558.6917269592285,327.6858948820121L558.8255132923126,329.6572426597538L559.9403994013469,329.33444569993753L560.4309492893219,329.344689735648L560.921499177297,328.2682672942067L561.5458353983562,329.5558606472232L561.6350262870789,325.36974417241385L561.8134080645243,329.4985299912296L561.902598953247,328.61097318281287L566.8526932773591,327.92879618873815L567.2986477209727,329.43395064623024L567.5662203871409,329.0631884414816L568.1905566082,327.0643833664799L568.2797474969228,329.2931101172462L568.8148928292592,329.1954623060938L569.2162518285115,329.1134700923995L569.4392290503183,329.0253274732533L570.9554741586049,329.1925068873997L572.0703602676392,329.4500056115485L572.3379329338073,325.92224323684405L572.4271238225301,329.5448578038031L572.8730782661438,329.15296850395583L573.0068645992279,327.48847236917214L573.274437265396,328.2731395645493L573.3190327097575,329.1593585652254L573.5866053759257,328.773879290653L574.1217507082621,326.4594460997887L574.5231097075144,329.623894631711L574.6123005962372,325.4483418031741L574.9690641511281,329.0675416476861L576.2623320376078,329.66633847995877L578.2691270338694,329.406173913916L579.2056313654581,329.7006250520898L579.5623949203491,329.2598419671631L579.8745630308787,329.71982013605896L580.9002582511902,327.90850784512423L581.123235472997,329.660347819457L581.1678309173584,329.64036895083314L582.4610988038381,329.1789680010279L583.8881530234019,325.5563334700635L584.4232983557383,329.3476651183474L584.869252799352,326.95651139586846L586.073329797109,328.983792162755L586.5638796850841,329.58309819782465L587.5895749053955,329.3953108624101L587.901743015925,327.09345797852404L588.0355293490092,325.66720065574884L588.0801247933706,329.40110182801254L588.3922929039002,324.0495616210026L588.615270125707,327.4632817433922L588.972033680598,329.6716701747159L589.1058200136821,329.4478689364568L589.2396063467662,329.627479037234L589.7301562347412,327.03115518828434L590.6220651219686,328.7587828169744L591.6031648979186,326.877913940616L591.6923557866414,328.162671834478L592.0045238971711,329.6076499425269L592.0937147858938,327.4057313517094L593.7437462272644,329.3393181019109L594.8586323362987,328.7608596000501L595.5721594460805,329.5761091067034L597.8465271085104,329.46877636168165L598.6938405513764,329.5474936887199L599.13979499499,328.910067065599L600.6560401032766,327.3524744058459L601.9493079897563,329.37218688413395L602.0830943228405,328.3260172381888L602.4844533220927,329.43774472865516L602.8412168769836,328.2294477904618L603.9561029860179,326.8045083552988L604.3128665409089,328.74752039760835L604.8034164288839,329.590486700683L605.2047754281361,329.4728699919402L605.5169435386657,328.08471322739547L605.5615389830272,329.56141200088496L607.2561658687591,329.51013190837824L607.7913112010956,323.5361218038888L607.9250975341797,329.4446339778114L608.0142884229025,329.1822029596733L608.0588838672637,329.7128909369536L608.1480747559865,328.89321332068357L608.2818610890706,329.3606448809396L608.4156474221547,328.92971647328903L609.0399836432139,328.95759298175284L611.225160416921,329.63808251279397L612.6968100808461,329.667157212592L613.1427645244598,329.45567677118055L614.7482005214691,329.3850867907049L614.8819868545532,329.6195513965399L614.9711777432759,327.6035829809712L615.595513964335,329.6252325381747L615.6401094086965,327.9874248999695L615.7293002974193,329.71980016656903L618.8509814027151,329.3921158317753L618.9847677357991,329.52347113275846L619.0293631801605,324.6128438809175L621.6158989531199,329.50092626420565L621.9726625080109,329.67468547445674L623.2213349501292,326.99286484037253L624.1132438373565,329.25045660306574L624.1578392817179,328.57355151045533L624.2470301704407,328.95224131202116L624.6929846140544,329.53411453632907L625.6294889456432,328.76908678857774L626.2538251667023,329.64080826864233L626.6551841659546,327.4030555607205L627.0565431652069,329.5082348671658L629.8660561599731,328.19749748411397L630.0444379374186,328.13052180032315L632.630973710378,328.2746573554763L633.7458598194122,329.6815048495944L634.4593869291941,327.18755136306913L635.0391277058919,328.5823277749445L635.7972502600352,329.20780304500835L635.886441148758,329.467458408254L636.5107773698171,329.67912855159284L636.7783500359853,329.36587672276255L637.714854367574,327.31778846037014L638.8297404766082,327.2229761961261L639.4986721420288,329.6978693447488L639.6770539194742,328.7178066741326L640.7473445841472,328.89776625469506L641.3716808052063,328.8082258041615L641.9514215819041,328.50342081179423L642.5757578029633,329.73462206935915L644.0474074668884,327.5298979873336L644.2703846886953,329.2422294145381L644.4041710217795,329.0941401965483L645.2514844646454,327.1838571006707L646.8123250172933,329.14166611270224L647.2136840165456,328.2273710073861L647.4812566827138,329.26351622167925L647.5258521270752,329.48828595551913L648.2393792368571,329.04841147964186L648.7745245691934,329.5152040162202L649.3096699015299,329.4430963764484L649.3542653458913,327.6893794126624L650.3799605662027,328.94864691352626L650.4691514549255,327.401517937419L651.0934876759848,329.67558407408046L651.3164648977915,329.1660680944569L652.0745874519348,325.2162236919327L652.1637783406575,329.5619910886698L653.0110917835235,329.54266121475706L653.4124507827759,324.2751301344397L653.5908325602213,327.5615286940887L653.7246188933055,329.5656653651244L656.2219637775421,329.7455999632572L657.7382088858287,329.5519667228332L658.7193086617788,329.664521316706L659.4328357715607,327.32489740133866L660.7261036580404,329.2705453066265L661.0828672129313,329.68189424642105L661.1274626572927,329.6328307069657L664.8288845392863,327.53325264225697L665.1410526498158,329.4702939990393L666.6572977581025,329.67720155340317L666.969465868632,329.49649318004145L668.0843519776662,328.4817545569213L668.4411155325572,327.84362895229134L669.3776198641459,329.45395944989286L670.0465515295665,322.63704269302156L670.0911469739277,329.25796491189436L670.7600786393483,329.54539696357733L671.7857738596598,328.326885913743L671.9641556371054,326.61326634748804L672.543896413803,329.18124446803364L672.9452554130554,325.3655906062625L674.4169050769806,327.7725597259959L675.7993638521831,329.14202555255173L676.1115319627127,329.36639591853145L677.8061588484446,329.6029772354528L680.2143128439585,329.66837531308533L680.5264809544881,329.57105696286675L680.7940536206563,299.92811248940416L681.1062217311859,326.99453216389315L681.1508171755472,329.69056073081947L681.3291989529928,329.3583684139339L682.934634950002,329.7041295906223L683.0684212830861,329.6913195494983L683.5589711710612,329.5956985785006L684.1833073921204,329.6150883553985L684.3170937252045,329.5049999085204L684.8522390575408,327.9402982639218L685.9225297222138,329.1413865727509L686.5914613876342,329.52059561396254L686.8144386094411,329.50282330541813L687.1266067199707,328.6694820222585L687.3495839417776,328.9091883861036L688.0185156071981,329.7249271809102L688.3306837177277,327.4412360407876L688.7766381613413,329.6428750477769L689.3117834936778,329.55544131535777L690.0253106034596,329.6586704371491L690.2482878252665,327.16754260328344L690.3820741583506,327.0378646736389L691.3185784899393,327.4262194231303L691.8537238222758,325.87327973679993L692.1658919328054,325.12532542577634L692.2104873771667,329.70212771095885L692.3888691546122,329.5536241301665L692.5672509320577,327.27541457389486L694.0834960403442,329.7412292720942L695.6889320373535,327.0401011687571L698.766017698288,329.4509840891319L700.0592855847676,329.41414152649764L701.0849808050791,329.6106352962597L701.2633625825247,329.37070919672533L701.8431033592224,329.49132123023446L702.1106760253906,329.53946620606075L702.7796076908111,313.1925605688567L703.1363712457021,329.36563711082187L703.2255621344249,325.75570289025234L704.4742345765432,329.2488191597377L704.5188300209046,329.47326935980027L705.053975353241,329.50088631425655L705.5891206855774,329.55380385009124L705.9458842404683,324.6853710500009L706.2580523509979,328.7105380211215L706.7040067946116,327.9166552653845L707.3283430156707,329.64607006744245L707.9080837923686,328.1689020081973L708.3094427916209,329.5525058826074L709.2013516788483,329.65100238337027L710.6284058984121,329.33165008103975L712.5906054503123,328.056277639029L713.9284687811534,328.4657994116297L714.017659669876,329.5348134520227L714.1960414473216,329.7276479402726L714.7311867796581,329.5311990895225L714.9541640014648,329.66027792349996L715.2217366676331,329.5940411492288L716.42581366539,329.13276001636314L716.8271726646424,329.57553997898276L717.3623179969788,329.2769353240192L720.2610218804676,329.4622265664311L720.3056173248291,327.77112196659795L720.5731899909973,329.4537198379522L720.7069763240814,329.605153838555L721.2421216564178,329.65421737801034L721.5988852113088,326.5826539366347L721.9110533218384,329.17757016964055L722.0448396549225,329.61321127819133L723.2935120970409,329.52618689563496L724.2746118729909,329.0218927868009L725.3449025376638,328.7194141495142L725.8354524256389,329.52205333736583L726.5043840910594,327.234957582945L726.7719567572276,324.8473583748273L726.8165522015889,327.4814534636737L727.9760337549845,329.221142291327L728.3773927542369,329.00935232007936L729.492278863271,327.3453454569951L730.6517604166667,328.64272367359985L730.8301421941121,329.43644673923285L731.1423103046418,329.3087257866937L731.4544784151714,329.33061168950195L732.6585554129283,329.1469778544233L732.7923417460123,329.69957169303257L733.7734415219625,329.66500057349504L735.4680684076945,329.3922755876947L735.9140228513082,329.5507885613197L736.0924046287537,329.21115783156256L736.137000073115,329.46120816083703L739.749231066386,326.357055586882L740.3735672874451,329.06925899091226L740.4627581761678,329.06254941780384L740.6857353979747,326.32162092539164L741.7560260626475,328.28615943065995L743.3614620596568,328.3201064885545L743.4506529483796,329.5175204112366L744.833111723582,329.7345022579042L745.2790661671957,329.7185571055844L747.5088383852641,327.12201361418397L747.865601940155,326.9166934285964L748.0885791619619,326.850476640269L748.5345336055756,329.7457821786826L748.9804880491893,328.9067921789429L749.1588698266347,329.41424134652425L749.7832060476939,329.68327209186464L750.9872830454509,329.756652738629L751.7900010439555,329.6169254936258L752.1913600432077,329.23711740062396L752.3697418206533,329.7321459293926L753.2616507078807,329.62034017219594L753.3954370409648,329.59699654598444L753.8859869289398,329.60971672166147L755.4022320372263,329.6717899916555L757.7211951440175,329.53587180756585L758.1225541432698,329.74488607455953" fill="none"></path></g></g></g></g></g></g><g transform="translate(51, 376)" clip-path="url(#clip_1)"><clipPath id="clip_1"><rect width="802" height="23"></rect></clipPath><g><g><line x1="0" y1="0" x2="0" y2="5" style="visibility: inherit;" fill="rgb(0, 0, 0)" stroke="rgb(204, 204, 204)" stroke-width="1px"></line><line x1="89.19088872273763" y1="0" x2="89.19088872273763" y2="5" style="visibility: inherit;" fill="rgb(0, 0, 0)" stroke="rgb(204, 204, 204)" stroke-width="1px"></line><line x1="178.38177744547525" y1="0" x2="178.38177744547525" y2="5" style="visibility: inherit;" fill="rgb(0, 0, 0)" stroke="rgb(204, 204, 204)" stroke-width="1px"></line><line x1="267.5726661682129" y1="0" x2="267.5726661682129" y2="5" style="visibility: inherit;" fill="rgb(0, 0, 0)" stroke="rgb(204, 204, 204)" stroke-width="1px"></line><line x1="356.7635548909505" y1="0" x2="356.7635548909505" y2="5" style="visibility: inherit;" fill="rgb(0, 0, 0)" stroke="rgb(204, 204, 204)" stroke-width="1px"></line><line x1="445.95444361368817" y1="0" x2="445.95444361368817" y2="5" style="visibility: inherit;" fill="rgb(0, 0, 0)" stroke="rgb(204, 204, 204)" stroke-width="1px"></line><line x1="535.1453323364258" y1="0" x2="535.1453323364258" y2="5" style="visibility: inherit;" fill="rgb(0, 0, 0)" stroke="rgb(204, 204, 204)" stroke-width="1px"></line><line x1="624.3362210591634" y1="0" x2="624.3362210591634" y2="5" style="visibility: inherit;" fill="rgb(0, 0, 0)" stroke="rgb(204, 204, 204)" stroke-width="1px"></line><line x1="713.527109781901" y1="0" x2="713.527109781901" y2="5" style="visibility: inherit;" fill="rgb(0, 0, 0)" stroke="rgb(204, 204, 204)" stroke-width="1px"></line><line x1="802.7179985046387" y1="0" x2="802.7179985046387" y2="5" style="visibility: inherit;" fill="rgb(0, 0, 0)" stroke="rgb(204, 204, 204)" stroke-width="1px"></line></g><g transform="translate(0, 8)"><text style="text-anchor: middle; visibility: hidden; font-family: Roboto, sans-serif; font-size: 12px; font-weight: 200;" x="0" y="0" dx="0em" dy="0.95em" fill="rgb(33, 33, 33)" stroke="none" stroke-width="1px">-2k</text><text style="text-anchor: middle; visibility: inherit; font-family: Roboto, sans-serif; font-size: 12px; font-weight: 200;" x="89.19088872273763" y="0" dx="0em" dy="0.95em" fill="rgb(33, 33, 33)" stroke="none" stroke-width="1px">0</text><text style="text-anchor: middle; visibility: inherit; font-family: Roboto, sans-serif; font-size: 12px; font-weight: 200;" x="178.38177744547525" y="0" dx="0em" dy="0.95em" fill="rgb(33, 33, 33)" stroke="none" stroke-width="1px">2k</text><text style="text-anchor: middle; visibility: inherit; font-family: Roboto, sans-serif; font-size: 12px; font-weight: 200;" x="267.5726661682129" y="0" dx="0em" dy="0.95em" fill="rgb(33, 33, 33)" stroke="none" stroke-width="1px">4k</text><text style="text-anchor: middle; visibility: inherit; font-family: Roboto, sans-serif; font-size: 12px; font-weight: 200;" x="356.7635548909505" y="0" dx="0em" dy="0.95em" fill="rgb(33, 33, 33)" stroke="none" stroke-width="1px">6k</text><text style="text-anchor: middle; visibility: inherit; font-family: Roboto, sans-serif; font-size: 12px; font-weight: 200;" x="445.95444361368817" y="0" dx="0em" dy="0.95em" fill="rgb(33, 33, 33)" stroke="none" stroke-width="1px">8k</text><text style="text-anchor: middle; visibility: inherit; font-family: Roboto, sans-serif; font-size: 12px; font-weight: 200;" x="535.1453323364258" y="0" dx="0em" dy="0.95em" fill="rgb(33, 33, 33)" stroke="none" stroke-width="1px">10k</text><text style="text-anchor: middle; visibility: inherit; font-family: Roboto, sans-serif; font-size: 12px; font-weight: 200;" x="624.3362210591634" y="0" dx="0em" dy="0.95em" fill="rgb(33, 33, 33)" stroke="none" stroke-width="1px">12k</text><text style="text-anchor: middle; visibility: inherit; font-family: Roboto, sans-serif; font-size: 12px; font-weight: 200;" x="713.527109781901" y="0" dx="0em" dy="0.95em" fill="rgb(33, 33, 33)" stroke="none" stroke-width="1px">14k</text><text style="text-anchor: middle; visibility: hidden; font-family: Roboto, sans-serif; font-size: 12px; font-weight: 200;" x="802.7179985046387" y="0" dx="0em" dy="0.95em" fill="rgb(33, 33, 33)" stroke="none" stroke-width="1px">16k</text></g><line x1="0" y1="0" x2="802.7179985046387" y2="0" fill="rgb(0, 0, 0)" stroke="rgb(204, 204, 204)" stroke-width="1px"></line></g></g></g></g></svg>