<svg viewBox="0 0 330 200" xmlns="http://www.w3.org/2000/svg"><g><g><g><g><g><line x1="61.91500186920166" y1="177.5999994277954" x2="56.91500186920166" y2="177.5999994277954" style="visibility: inherit;" fill="rgb(0, 0, 0)" stroke="rgb(204, 204, 204)" stroke-width="1px"></line><line x1="61.91500186920166" y1="155.39999949932098" x2="56.91500186920166" y2="155.39999949932098" style="visibility: inherit;" fill="rgb(0, 0, 0)" stroke="rgb(204, 204, 204)" stroke-width="1px"></line><line x1="61.91500186920166" y1="133.19999957084656" x2="56.91500186920166" y2="133.19999957084656" style="visibility: inherit;" fill="rgb(0, 0, 0)" stroke="rgb(204, 204, 204)" stroke-width="1px"></line><line x1="61.91500186920166" y1="110.99999964237212" x2="56.91500186920166" y2="110.99999964237212" style="visibility: inherit;" fill="rgb(0, 0, 0)" stroke="rgb(204, 204, 204)" stroke-width="1px"></line><line x1="61.91500186920166" y1="88.79999971389769" x2="56.91500186920166" y2="88.79999971389769" style="visibility: inherit;" fill="rgb(0, 0, 0)" stroke="rgb(204, 204, 204)" stroke-width="1px"></line><line x1="61.91500186920166" y1="66.59999978542326" x2="56.91500186920166" y2="66.59999978542326" style="visibility: inherit;" fill="rgb(0, 0, 0)" stroke="rgb(204, 204, 204)" stroke-width="1px"></line><line x1="61.91500186920166" y1="44.39999985694883" x2="56.91500186920166" y2="44.39999985694883" style="visibility: inherit;" fill="rgb(0, 0, 0)" stroke="rgb(204, 204, 204)" stroke-width="1px"></line><line x1="61.91500186920166" y1="22.199999928474387" x2="56.91500186920166" y2="22.199999928474387" style="visibility: inherit;" fill="rgb(0, 0, 0)" stroke="rgb(204, 204, 204)" stroke-width="1px"></line></g><g transform="translate(51.91500186920166, 0)"><text style="text-anchor: end; visibility: hidden; font-family: Roboto, sans-serif; font-size: 12px; font-weight: 200;" x="0" y="177.5999994277954" dx="0em" dy="0.3em" fill="rgb(50, 49, 63)" stroke="none" stroke-width="1px">-1e-5</text><text style="text-anchor: end; visibility: inherit; font-family: Roboto, sans-serif; font-size: 12px; font-weight: 200;" x="0" y="155.39999949932098" dx="0em" dy="0.3em" fill="rgb(50, 49, 63)" stroke="none" stroke-width="1px">0</text><text style="text-anchor: end; visibility: hidden; font-family: Roboto, sans-serif; font-size: 12px; font-weight: 200;" x="0" y="133.19999957084656" dx="0em" dy="0.3em" fill="rgb(50, 49, 63)" stroke="none" stroke-width="1px">1e-5</text><text style="text-anchor: end; visibility: inherit; font-family: Roboto, sans-serif; font-size: 12px; font-weight: 200;" x="0" y="110.99999964237212" dx="0em" dy="0.3em" fill="rgb(50, 49, 63)" stroke="none" stroke-width="1px">2e-5</text><text style="text-anchor: end; visibility: hidden; font-family: Roboto, sans-serif; font-size: 12px; font-weight: 200;" x="0" y="88.79999971389769" dx="0em" dy="0.3em" fill="rgb(50, 49, 63)" stroke="none" stroke-width="1px">3e-5</text><text style="text-anchor: end; visibility: inherit; font-family: Roboto, sans-serif; font-size: 12px; font-weight: 200;" x="0" y="66.59999978542326" dx="0em" dy="0.3em" fill="rgb(50, 49, 63)" stroke="none" stroke-width="1px">4e-5</text><text style="text-anchor: end; visibility: hidden; font-family: Roboto, sans-serif; font-size: 12px; font-weight: 200;" x="0" y="44.39999985694883" dx="0em" dy="0.3em" fill="rgb(50, 49, 63)" stroke="none" stroke-width="1px">5e-5</text><text style="text-anchor: end; visibility: inherit; font-family: Roboto, sans-serif; font-size: 12px; font-weight: 200;" x="0" y="22.199999928474387" dx="0em" dy="0.3em" fill="rgb(50, 49, 63)" stroke="none" stroke-width="1px">6e-5</text></g><line x1="61.91500186920166" y1="0" x2="61.91500186920166" y2="177.5999994277954" fill="rgb(0, 0, 0)" stroke="rgb(204, 204, 204)" stroke-width="1px"></line></g></g><g transform="translate(61, 0)" clip-path="url(#clip_0)"><clipPath id="clip_0"><rect width="268" height="177"></rect></clipPath><g><g><g><line x1="0" y1="0" x2="0" y2="177.5999994277954" fill="rgb(0, 0, 0)" stroke="rgb(60, 60, 60)" stroke-width="1px" opacity="0.25"></line><line x1="22.34041651089986" y1="0" x2="22.34041651089986" y2="177.5999994277954" fill="rgb(0, 0, 0)" stroke="rgb(60, 60, 60)" stroke-width="1px" opacity="0.25"></line><line x1="44.68083302179972" y1="0" x2="44.68083302179972" y2="177.5999994277954" fill="rgb(0, 0, 0)" stroke="rgb(60, 60, 60)" stroke-width="1px" opacity="0.25"></line><line x1="67.02124953269958" y1="0" x2="67.02124953269958" y2="177.5999994277954" fill="rgb(0, 0, 0)" stroke="rgb(60, 60, 60)" stroke-width="1px" opacity="0.25"></line><line x1="89.36166604359944" y1="0" x2="89.36166604359944" y2="177.5999994277954" fill="rgb(0, 0, 0)" stroke="rgb(60, 60, 60)" stroke-width="1px" opacity="0.25"></line><line x1="111.70208255449931" y1="0" x2="111.70208255449931" y2="177.5999994277954" fill="rgb(0, 0, 0)" stroke="rgb(60, 60, 60)" stroke-width="1px" opacity="0.25"></line><line x1="134.04249906539917" y1="0" x2="134.04249906539917" y2="177.5999994277954" fill="rgb(0, 0, 0)" stroke="rgb(60, 60, 60)" stroke-width="1px" opacity="0.25"></line><line x1="156.38291557629904" y1="0" x2="156.38291557629904" y2="177.5999994277954" fill="rgb(0, 0, 0)" stroke="rgb(60, 60, 60)" stroke-width="1px" opacity="0.25"></line><line x1="178.72333208719888" y1="0" x2="178.72333208719888" y2="177.5999994277954" fill="rgb(0, 0, 0)" stroke="rgb(60, 60, 60)" stroke-width="1px" opacity="0.25"></line><line x1="201.06374859809875" y1="0" x2="201.06374859809875" y2="177.5999994277954" fill="rgb(0, 0, 0)" stroke="rgb(60, 60, 60)" stroke-width="1px" opacity="0.25"></line><line x1="223.40416510899863" y1="0" x2="223.40416510899863" y2="177.5999994277954" fill="rgb(0, 0, 0)" stroke="rgb(60, 60, 60)" stroke-width="1px" opacity="0.25"></line><line x1="245.74458161989847" y1="0" x2="245.74458161989847" y2="177.5999994277954" fill="rgb(0, 0, 0)" stroke="rgb(60, 60, 60)" stroke-width="1px" opacity="0.25"></line><line x1="268.08499813079834" y1="0" x2="268.08499813079834" y2="177.5999994277954" fill="rgb(0, 0, 0)" stroke="rgb(60, 60, 60)" stroke-width="1px" opacity="0.25"></line></g><g><line x1="0" y1="177.5999994277954" x2="268.08499813079834" y2="177.5999994277954" fill="rgb(0, 0, 0)" stroke="rgb(60, 60, 60)" stroke-width="1px" opacity="0.25"></line><line x1="0" y1="155.39999949932098" x2="268.08499813079834" y2="155.39999949932098" fill="rgb(0, 0, 0)" stroke="rgb(60, 60, 60)" stroke-width="1px" opacity="0.25"></line><line x1="0" y1="133.19999957084656" x2="268.08499813079834" y2="133.19999957084656" fill="rgb(0, 0, 0)" stroke="rgb(60, 60, 60)" stroke-width="1px" opacity="0.25"></line><line x1="0" y1="110.99999964237212" x2="268.08499813079834" y2="110.99999964237212" fill="rgb(0, 0, 0)" stroke="rgb(60, 60, 60)" stroke-width="1px" opacity="0.25"></line><line x1="0" y1="88.79999971389769" x2="268.08499813079834" y2="88.79999971389769" fill="rgb(0, 0, 0)" stroke="rgb(60, 60, 60)" stroke-width="1px" opacity="0.25"></line><line x1="0" y1="66.59999978542326" x2="268.08499813079834" y2="66.59999978542326" fill="rgb(0, 0, 0)" stroke="rgb(60, 60, 60)" stroke-width="1px" opacity="0.25"></line><line x1="0" y1="44.39999985694883" x2="268.08499813079834" y2="44.39999985694883" fill="rgb(0, 0, 0)" stroke="rgb(60, 60, 60)" stroke-width="1px" opacity="0.25"></line><line x1="0" y1="22.199999928474387" x2="268.08499813079834" y2="22.199999928474387" fill="rgb(0, 0, 0)" stroke="rgb(60, 60, 60)" stroke-width="1px" opacity="0.25"></line></g></g></g><g><g><line x1="0" y1="155.39999949932098" x2="268.08499813079834" y2="155.39999949932098" fill="rgb(0, 0, 0)" stroke="rgb(153, 153, 153)" stroke-width="1.5px"></line></g></g><g><g><line x1="22.34041651089986" y1="0" x2="22.34041651089986" y2="177.5999994277954" fill="rgb(0, 0, 0)" stroke="rgb(153, 153, 153)" stroke-width="1.5px"></line></g></g><g><g><g><g><g><path style="fill: none;" stroke="rgb(255, 112, 67)" stroke-width="2px" d="M22.34041651089986,154.73399947790975L24.574458161989845,145.0631245666102L26.808499813079834,134.20806037559075L29.042541464169823,122.30812403300895L31.276583115259807,109.52718848609902L33.51062476634979,96.03355543445412L35.74466641743978,81.98428494553441L37.97870806852976,67.51563460114099L40.21274971961975,52.73918969774453L42.44679137070973,37.742194235462726L44.68083302179972,24.05161772255581L46.91487467288971,16.172496360652577L49.14891632397969,11.78678074751068L51.38295797506969,9.516926273508624L53.61699962615967,8.540901606770829L55.85104127724966,8.366832628421077L58.085082928339645,8.6997870543456L60.31912457942963,9.362588916523803L62.553166230519615,10.248537663240649L64.7872078816096,11.293169587114853L67.02124953269958,12.45728871999032L69.25529118378958,13.71686115802615L71.48933283487956,15.056897251310557L73.72337448596954,16.467840234989563L75.95741613705952,17.94334801887546L78.19145778814952,19.47899782744025L80.4254994392395,21.07149279129509L82.6595410903295,22.71819231636846L84.89358274141946,24.416827037240214L87.12762439250946,26.165337453935045L89.36166604359944,27.961767404381504L91.59570769468944,29.804203366624133L93.82974934577942,31.69074772414554L96.0637909968694,33.61948333708454L98.29783264795938,35.58848135665062L100.53187429904938,37.59578006765616L102.76591595013937,39.639385114940225L104.99995760122935,41.71727609952583L107.23399925231934,43.82739761374907L109.46804090340932,45.96766355362373L111.70208255449931,48.13595970608167L113.9361242055893,50.330148531731666L116.17016585667929,52.54806234287124L118.40420750776926,54.787512132352504L120.63824915885925,57.04628640982551L122.87229080994923,59.32216019504412L125.10633246103923,61.61288426121366L127.34037411212921,63.91619483361978L129.5744157632192,66.22982586985225L131.80845741430917,68.55148735321053L134.04249906539917,70.87889103504797L136.27654071648914,73.20974326650102L138.51058236757916,75.54173746700137L140.74462401866913,77.87257544958412L142.97866566975912,80.19995760239634L145.2127073208491,82.52158668917771L147.4467489719391,84.8351717448112L149.68079062302908,87.13842879739113L151.91483227411905,89.42908453198889L154.14887392520905,91.70487848891257L156.38291557629904,93.96356438266254L158.616957227389,96.20291412383017L160.850998878479,98.42071700171162L163.08504052956897,100.61478565492679L165.319082180659,102.78295319274001L167.55312383174896,104.92308115942824L169.78716548283893,107.03305623658883L172.02120713392895,109.11079795609993L174.25524878501892,111.15425363632099L176.48929043610892,113.16140826591388L178.72333208719888,115.13028074256L180.95737373828888,117.05892807724102L183.19141538937888,118.94544549391313L185.42545704046884,120.78797214273101L187.65949869155884,122.58469048982553L189.89354034264883,124.33382675880162L192.1275819937388,126.03365442616237L194.3616236448288,127.68249631856338L196.59566529591876,129.27872587116522L198.8297069470088,130.82076626738265L201.06374859809875,132.30709719141547L203.29779024918872,133.73625080345423L205.53183190027875,135.10681740111667L207.7658735513687,136.41744397052173L209.9999152024587,137.66683735509028L212.23395685354868,138.8537641377478L214.46799850463867,139.97705339695474L216.70204015572867,141.03559634124744L218.93608180681863,142.02834851285567L221.17012345790863,142.9543298984269L223.40416510899863,143.81262701453863L225.6382067600886,144.60239254374355L227.8722484111786,145.32284713527451L230.10629006226856,145.97327987974444L232.34033171335858,146.55304879587368L234.57437336444855,147.06158193015816L236.80841501553851,147.49837700713073L239.04245666662854,147.86300323859643L241.2764983177185,148.15510079391117L243.5105399688085,148.3743814916877L245.74458161989847,148.52062860909612L247.97862327098846,148.60837687954117L250.21266492207846,148.6610258418082L252.44670657316843,148.69261521916843L254.68074822425842,148.71156884558457" fill="none"></path></g></g></g></g><g opacity="0.2"><g><g><g><path style="fill: none;" stroke="rgb(255, 112, 67)" stroke-width="2px" d="M22.34041651089986,154.73399947790975L24.574458161989845,139.26059961983046L26.808499813079834,123.78719875221206L29.042541464169823,108.31379889413277L31.276583115259807,92.84039903605348L33.51062476634979,77.36700321613064L35.74466641743978,61.89360335805136L37.97870806852976,46.42020349997206L40.21274971961975,30.946803641892753L42.44679137070973,15.47340378381346L44.68083302179972,3.6399254745410796L46.91487467288971,4.396692148307152L49.14891632397969,5.222527450214007L51.38295797506969,6.1165914437173665L53.61699962615967,7.078011887021255L55.85104127724966,8.105851927826286L58.085082928339645,9.199077798077969L60.31912457942963,10.356623424470108L62.553166230519615,11.577325817941398L64.7872078816096,12.860021989430537L67.02124953269958,14.203403576243558L69.25529118378958,15.606178368312342L71.48933283487956,17.066924934561964L73.72337448596954,18.584237996543347L75.95741613705952,20.15659920742646L78.19145778814952,21.782465991442482L80.4254994392395,23.460231162319204L82.6595410903295,25.188239075906843L84.89358274141946,26.96477755386515L87.12762439250946,28.788102112602168L89.36166604359944,30.656411734335464L91.59570769468944,32.56785694340505L93.82974934577942,34.520564035212146L96.0637909968694,36.51258661834166L98.29783264795938,38.54197830137849L100.53187429904938,40.606728082404146L102.76591595013937,42.7047926542484L104.99995760122935,44.834112557115226L107.23399925231934,46.99257987333096L109.46804090340932,49.17806245628324L111.70208255449931,51.38840393042089L113.9361242055893,53.621431767566904L116.17016585667929,55.87493305797962L118.40420750776926,58.14668681560447L120.63824915885925,60.4344478254481L122.87229080994923,62.735970872517164L125.10633246103923,65.04897036025368L127.34037411212921,67.37116069209966L129.5744157632192,69.700272424123L131.80845741430917,72.03397957820107L134.04249906539917,74.36999655777589L136.27654071648914,76.70602161366365L138.51058236757916,79.03972876774172L140.74462401866913,81.36883242345212L142.97866566975912,83.69103083161103L145.2127073208491,86.00403031934755L147.4467489719391,88.30554932826016L149.68079062302908,90.59331437626025L151.91483227411905,92.8650681338851L154.14887392520905,95.11856942429782L156.38291557629904,97.35159322328737L158.616957227389,99.56193873558148L160.850998878479,101.74742131853375L163.08504052956897,103.90588863474949L165.319082180659,106.03520449945984L167.55312383174896,108.13327310946055L169.78716548283893,110.19801885232974L172.02120713392895,112.22741053536657L174.25524878501892,114.21943715665256L176.48929043610892,116.17214021030318L178.72333208719888,118.08358945752923L180.95737373828888,119.95189907926253L183.19141538937888,121.77522161892132L185.42545704046884,123.55176211595786L187.65949869155884,125.27976801046727L189.89354034264883,126.95753116226575L192.1275819937388,128.58339592720355L194.3616236448288,130.15575915716488L196.59566529591876,131.67307020006803L198.8297069470088,133.13382686170883L201.06374859809875,134.53659357746469L203.29779024918872,135.8799812215124L205.53183190027875,137.16266729761037L207.7658735513687,138.38338382462928L209.9999152024587,139.5409274319432L212.23395685354868,140.634154311734L214.46799850463867,141.6619872857652L216.70204015572867,142.62341075768646L218.93608180681863,143.51747677026805L221.17012345790863,144.34330197678372L223.40416510899863,145.10007268870626L225.6382067600886,145.7870408375509L227.8722484111786,146.40352902257098L230.10629006226856,146.9489289964493L232.34033171335858,147.4227021700676L234.57437336444855,147.82438163158488L236.80841501553851,148.15356962258954L239.04245666662854,148.40994258579502L241.2764983177185,148.59324712688326L243.5105399688085,148.70330253835252L245.74458161989847,148.73999928520877L247.97862327098846,148.73999928520877L250.21266492207846,148.73999928520877L252.44670657316843,148.73999928520877L254.68074822425842,148.73999928520877" fill="none"></path></g></g></g></g></g></g><g transform="translate(61, 177)" clip-path="url(#clip_1)"><clipPath id="clip_1"><rect width="268" height="22"></rect></clipPath><g><g><line x1="0" y1="0" x2="0" y2="5" style="visibility: inherit;" fill="rgb(0, 0, 0)" stroke="rgb(204, 204, 204)" stroke-width="1px"></line><line x1="22.34041651089986" y1="0" x2="22.34041651089986" y2="5" style="visibility: inherit;" fill="rgb(0, 0, 0)" stroke="rgb(204, 204, 204)" stroke-width="1px"></line><line x1="44.68083302179972" y1="0" x2="44.68083302179972" y2="5" style="visibility: inherit;" fill="rgb(0, 0, 0)" stroke="rgb(204, 204, 204)" stroke-width="1px"></line><line x1="67.02124953269958" y1="0" x2="67.02124953269958" y2="5" style="visibility: inherit;" fill="rgb(0, 0, 0)" stroke="rgb(204, 204, 204)" stroke-width="1px"></line><line x1="89.36166604359944" y1="0" x2="89.36166604359944" y2="5" style="visibility: inherit;" fill="rgb(0, 0, 0)" stroke="rgb(204, 204, 204)" stroke-width="1px"></line><line x1="111.70208255449931" y1="0" x2="111.70208255449931" y2="5" style="visibility: inherit;" fill="rgb(0, 0, 0)" stroke="rgb(204, 204, 204)" stroke-width="1px"></line><line x1="134.04249906539917" y1="0" x2="134.04249906539917" y2="5" style="visibility: inherit;" fill="rgb(0, 0, 0)" stroke="rgb(204, 204, 204)" stroke-width="1px"></line><line x1="156.38291557629904" y1="0" x2="156.38291557629904" y2="5" style="visibility: inherit;" fill="rgb(0, 0, 0)" stroke="rgb(204, 204, 204)" stroke-width="1px"></line><line x1="178.72333208719888" y1="0" x2="178.72333208719888" y2="5" style="visibility: inherit;" fill="rgb(0, 0, 0)" stroke="rgb(204, 204, 204)" stroke-width="1px"></line><line x1="201.06374859809875" y1="0" x2="201.06374859809875" y2="5" style="visibility: inherit;" fill="rgb(0, 0, 0)" stroke="rgb(204, 204, 204)" stroke-width="1px"></line><line x1="223.40416510899863" y1="0" x2="223.40416510899863" y2="5" style="visibility: inherit;" fill="rgb(0, 0, 0)" stroke="rgb(204, 204, 204)" stroke-width="1px"></line><line x1="245.74458161989847" y1="0" x2="245.74458161989847" y2="5" style="visibility: inherit;" fill="rgb(0, 0, 0)" stroke="rgb(204, 204, 204)" stroke-width="1px"></line><line x1="268.08499813079834" y1="0" x2="268.08499813079834" y2="5" style="visibility: inherit;" fill="rgb(0, 0, 0)" stroke="rgb(204, 204, 204)" stroke-width="1px"></line></g><g transform="translate(0, 8)"><text style="text-anchor: middle; visibility: hidden; font-family: Roboto, sans-serif; font-size: 12px; font-weight: 200;" x="0" y="0" dx="0em" dy="0.95em" fill="rgb(50, 49, 63)" stroke="none" stroke-width="1px">-10</text><text style="text-anchor: middle; visibility: inherit; font-family: Roboto, sans-serif; font-size: 12px; font-weight: 200;" x="22.34041651089986" y="0" dx="0em" dy="0.95em" fill="rgb(50, 49, 63)" stroke="none" stroke-width="1px">0</text><text style="text-anchor: middle; visibility: hidden; font-family: Roboto, sans-serif; font-size: 12px; font-weight: 200;" x="44.68083302179972" y="0" dx="0em" dy="0.95em" fill="rgb(50, 49, 63)" stroke="none" stroke-width="1px">10</text><text style="text-anchor: middle; visibility: inherit; font-family: Roboto, sans-serif; font-size: 12px; font-weight: 200;" x="67.02124953269958" y="0" dx="0em" dy="0.95em" fill="rgb(50, 49, 63)" stroke="none" stroke-width="1px">20</text><text style="text-anchor: middle; visibility: hidden; font-family: Roboto, sans-serif; font-size: 12px; font-weight: 200;" x="89.36166604359944" y="0" dx="0em" dy="0.95em" fill="rgb(50, 49, 63)" stroke="none" stroke-width="1px">30</text><text style="text-anchor: middle; visibility: inherit; font-family: Roboto, sans-serif; font-size: 12px; font-weight: 200;" x="111.70208255449931" y="0" dx="0em" dy="0.95em" fill="rgb(50, 49, 63)" stroke="none" stroke-width="1px">40</text><text style="text-anchor: middle; visibility: hidden; font-family: Roboto, sans-serif; font-size: 12px; font-weight: 200;" x="134.04249906539917" y="0" dx="0em" dy="0.95em" fill="rgb(50, 49, 63)" stroke="none" stroke-width="1px">50</text><text style="text-anchor: middle; visibility: inherit; font-family: Roboto, sans-serif; font-size: 12px; font-weight: 200;" x="156.38291557629904" y="0" dx="0em" dy="0.95em" fill="rgb(50, 49, 63)" stroke="none" stroke-width="1px">60</text><text style="text-anchor: middle; visibility: hidden; font-family: Roboto, sans-serif; font-size: 12px; font-weight: 200;" x="178.72333208719888" y="0" dx="0em" dy="0.95em" fill="rgb(50, 49, 63)" stroke="none" stroke-width="1px">70</text><text style="text-anchor: middle; visibility: inherit; font-family: Roboto, sans-serif; font-size: 12px; font-weight: 200;" x="201.06374859809875" y="0" dx="0em" dy="0.95em" fill="rgb(50, 49, 63)" stroke="none" stroke-width="1px">80</text><text style="text-anchor: middle; visibility: hidden; font-family: Roboto, sans-serif; font-size: 12px; font-weight: 200;" x="223.40416510899863" y="0" dx="0em" dy="0.95em" fill="rgb(50, 49, 63)" stroke="none" stroke-width="1px">90</text><text style="text-anchor: middle; visibility: inherit; font-family: Roboto, sans-serif; font-size: 12px; font-weight: 200;" x="245.74458161989847" y="0" dx="0em" dy="0.95em" fill="rgb(50, 49, 63)" stroke="none" stroke-width="1px">100</text><text style="text-anchor: middle; visibility: hidden; font-family: Roboto, sans-serif; font-size: 12px; font-weight: 200;" x="268.08499813079834" y="0" dx="0em" dy="0.95em" fill="rgb(50, 49, 63)" stroke="none" stroke-width="1px">110</text></g><line x1="0" y1="0" x2="268.08499813079834" y2="0" fill="rgb(0, 0, 0)" stroke="rgb(204, 204, 204)" stroke-width="1px"></line></g></g></g></g></svg>