<svg viewBox="0 0 330 200" xmlns="http://www.w3.org/2000/svg"><g><g><g><g><g><line x1="39.232001304626465" y1="173.5999984741211" x2="34.232001304626465" y2="173.5999984741211" style="visibility: inherit;" fill="rgb(0, 0, 0)" stroke="rgb(204, 204, 204)" stroke-width="1px"></line><line x1="39.232001304626465" y1="154.3111097547743" x2="34.232001304626465" y2="154.3111097547743" style="visibility: inherit;" fill="rgb(0, 0, 0)" stroke="rgb(204, 204, 204)" stroke-width="1px"></line><line x1="39.232001304626465" y1="135.02222103542752" x2="34.232001304626465" y2="135.02222103542752" style="visibility: inherit;" fill="rgb(0, 0, 0)" stroke="rgb(204, 204, 204)" stroke-width="1px"></line><line x1="39.232001304626465" y1="115.73333231608075" x2="34.232001304626465" y2="115.73333231608075" style="visibility: inherit;" fill="rgb(0, 0, 0)" stroke="rgb(204, 204, 204)" stroke-width="1px"></line><line x1="39.232001304626465" y1="96.44444359673395" x2="34.232001304626465" y2="96.44444359673395" style="visibility: inherit;" fill="rgb(0, 0, 0)" stroke="rgb(204, 204, 204)" stroke-width="1px"></line><line x1="39.232001304626465" y1="77.15555487738715" x2="34.232001304626465" y2="77.15555487738715" style="visibility: inherit;" fill="rgb(0, 0, 0)" stroke="rgb(204, 204, 204)" stroke-width="1px"></line><line x1="39.232001304626465" y1="57.866666158040374" x2="34.232001304626465" y2="57.866666158040374" style="visibility: inherit;" fill="rgb(0, 0, 0)" stroke="rgb(204, 204, 204)" stroke-width="1px"></line><line x1="39.232001304626465" y1="38.57777743869357" x2="34.232001304626465" y2="38.57777743869357" style="visibility: inherit;" fill="rgb(0, 0, 0)" stroke="rgb(204, 204, 204)" stroke-width="1px"></line><line x1="39.232001304626465" y1="19.288888719346797" x2="34.232001304626465" y2="19.288888719346797" style="visibility: inherit;" fill="rgb(0, 0, 0)" stroke="rgb(204, 204, 204)" stroke-width="1px"></line><line x1="39.232001304626465" y1="0" x2="34.232001304626465" y2="0" style="visibility: inherit;" fill="rgb(0, 0, 0)" stroke="rgb(204, 204, 204)" stroke-width="1px"></line></g><g transform="translate(29.232001304626465, 0)"><text style="text-anchor: end; visibility: hidden; font-family: Roboto, sans-serif; font-size: 12px; font-weight: 200;" x="0" y="173.5999984741211" dx="0em" dy="0.3em" fill="rgb(33, 33, 33)" stroke="none" stroke-width="1px">2</text><text style="text-anchor: end; visibility: inherit; font-family: Roboto, sans-serif; font-size: 12px; font-weight: 200;" x="0" y="154.3111097547743" dx="0em" dy="0.3em" fill="rgb(33, 33, 33)" stroke="none" stroke-width="1px">2.5</text><text style="text-anchor: end; visibility: hidden; font-family: Roboto, sans-serif; font-size: 12px; font-weight: 200;" x="0" y="135.02222103542752" dx="0em" dy="0.3em" fill="rgb(33, 33, 33)" stroke="none" stroke-width="1px">3</text><text style="text-anchor: end; visibility: inherit; font-family: Roboto, sans-serif; font-size: 12px; font-weight: 200;" x="0" y="115.73333231608075" dx="0em" dy="0.3em" fill="rgb(33, 33, 33)" stroke="none" stroke-width="1px">3.5</text><text style="text-anchor: end; visibility: hidden; font-family: Roboto, sans-serif; font-size: 12px; font-weight: 200;" x="0" y="96.44444359673395" dx="0em" dy="0.3em" fill="rgb(33, 33, 33)" stroke="none" stroke-width="1px">4</text><text style="text-anchor: end; visibility: inherit; font-family: Roboto, sans-serif; font-size: 12px; font-weight: 200;" x="0" y="77.15555487738715" dx="0em" dy="0.3em" fill="rgb(33, 33, 33)" stroke="none" stroke-width="1px">4.5</text><text style="text-anchor: end; visibility: hidden; font-family: Roboto, sans-serif; font-size: 12px; font-weight: 200;" x="0" y="57.866666158040374" dx="0em" dy="0.3em" fill="rgb(33, 33, 33)" stroke="none" stroke-width="1px">5</text><text style="text-anchor: end; visibility: inherit; font-family: Roboto, sans-serif; font-size: 12px; font-weight: 200;" x="0" y="38.57777743869357" dx="0em" dy="0.3em" fill="rgb(33, 33, 33)" stroke="none" stroke-width="1px">5.5</text><text style="text-anchor: end; visibility: hidden; font-family: Roboto, sans-serif; font-size: 12px; font-weight: 200;" x="0" y="19.288888719346797" dx="0em" dy="0.3em" fill="rgb(33, 33, 33)" stroke="none" stroke-width="1px">6</text><text style="text-anchor: end; visibility: hidden; font-family: Roboto, sans-serif; font-size: 12px; font-weight: 200;" x="0" y="0" dx="0em" dy="0.3em" fill="rgb(33, 33, 33)" stroke="none" stroke-width="1px">6.5</text></g><line x1="39.232001304626465" y1="0" x2="39.232001304626465" y2="173.5999984741211" fill="rgb(0, 0, 0)" stroke="rgb(204, 204, 204)" stroke-width="1px"></line></g></g><g transform="translate(39, 0)" clip-path="url(#clip_0)"><clipPath id="clip_0"><rect width="290" height="173"></rect></clipPath><g><g><g><line x1="0" y1="0" x2="0" y2="173.5999984741211" fill="rgb(0, 0, 0)" stroke="rgb(66, 66, 66)" stroke-width="1px" opacity="0.25"></line><line x1="24.230666557947792" y1="0" x2="24.230666557947792" y2="173.5999984741211" fill="rgb(0, 0, 0)" stroke="rgb(66, 66, 66)" stroke-width="1px" opacity="0.25"></line><line x1="48.461333115895584" y1="0" x2="48.461333115895584" y2="173.5999984741211" fill="rgb(0, 0, 0)" stroke="rgb(66, 66, 66)" stroke-width="1px" opacity="0.25"></line><line x1="72.69199967384338" y1="0" x2="72.69199967384338" y2="173.5999984741211" fill="rgb(0, 0, 0)" stroke="rgb(66, 66, 66)" stroke-width="1px" opacity="0.25"></line><line x1="96.92266623179117" y1="0" x2="96.92266623179117" y2="173.5999984741211" fill="rgb(0, 0, 0)" stroke="rgb(66, 66, 66)" stroke-width="1px" opacity="0.25"></line><line x1="121.15333278973898" y1="0" x2="121.15333278973898" y2="173.5999984741211" fill="rgb(0, 0, 0)" stroke="rgb(66, 66, 66)" stroke-width="1px" opacity="0.25"></line><line x1="145.38399934768677" y1="0" x2="145.38399934768677" y2="173.5999984741211" fill="rgb(0, 0, 0)" stroke="rgb(66, 66, 66)" stroke-width="1px" opacity="0.25"></line><line x1="169.61466590563458" y1="0" x2="169.61466590563458" y2="173.5999984741211" fill="rgb(0, 0, 0)" stroke="rgb(66, 66, 66)" stroke-width="1px" opacity="0.25"></line><line x1="193.84533246358234" y1="0" x2="193.84533246358234" y2="173.5999984741211" fill="rgb(0, 0, 0)" stroke="rgb(66, 66, 66)" stroke-width="1px" opacity="0.25"></line><line x1="218.07599902153015" y1="0" x2="218.07599902153015" y2="173.5999984741211" fill="rgb(0, 0, 0)" stroke="rgb(66, 66, 66)" stroke-width="1px" opacity="0.25"></line><line x1="242.30666557947796" y1="0" x2="242.30666557947796" y2="173.5999984741211" fill="rgb(0, 0, 0)" stroke="rgb(66, 66, 66)" stroke-width="1px" opacity="0.25"></line><line x1="266.5373321374257" y1="0" x2="266.5373321374257" y2="173.5999984741211" fill="rgb(0, 0, 0)" stroke="rgb(66, 66, 66)" stroke-width="1px" opacity="0.25"></line><line x1="290.76799869537354" y1="0" x2="290.76799869537354" y2="173.5999984741211" fill="rgb(0, 0, 0)" stroke="rgb(66, 66, 66)" stroke-width="1px" opacity="0.25"></line></g><g><line x1="0" y1="173.5999984741211" x2="290.76799869537354" y2="173.5999984741211" fill="rgb(0, 0, 0)" stroke="rgb(66, 66, 66)" stroke-width="1px" opacity="0.25"></line><line x1="0" y1="154.3111097547743" x2="290.76799869537354" y2="154.3111097547743" fill="rgb(0, 0, 0)" stroke="rgb(66, 66, 66)" stroke-width="1px" opacity="0.25"></line><line x1="0" y1="135.02222103542752" x2="290.76799869537354" y2="135.02222103542752" fill="rgb(0, 0, 0)" stroke="rgb(66, 66, 66)" stroke-width="1px" opacity="0.25"></line><line x1="0" y1="115.73333231608075" x2="290.76799869537354" y2="115.73333231608075" fill="rgb(0, 0, 0)" stroke="rgb(66, 66, 66)" stroke-width="1px" opacity="0.25"></line><line x1="0" y1="96.44444359673395" x2="290.76799869537354" y2="96.44444359673395" fill="rgb(0, 0, 0)" stroke="rgb(66, 66, 66)" stroke-width="1px" opacity="0.25"></line><line x1="0" y1="77.15555487738715" x2="290.76799869537354" y2="77.15555487738715" fill="rgb(0, 0, 0)" stroke="rgb(66, 66, 66)" stroke-width="1px" opacity="0.25"></line><line x1="0" y1="57.866666158040374" x2="290.76799869537354" y2="57.866666158040374" fill="rgb(0, 0, 0)" stroke="rgb(66, 66, 66)" stroke-width="1px" opacity="0.25"></line><line x1="0" y1="38.57777743869357" x2="290.76799869537354" y2="38.57777743869357" fill="rgb(0, 0, 0)" stroke="rgb(66, 66, 66)" stroke-width="1px" opacity="0.25"></line><line x1="0" y1="19.288888719346797" x2="290.76799869537354" y2="19.288888719346797" fill="rgb(0, 0, 0)" stroke="rgb(66, 66, 66)" stroke-width="1px" opacity="0.25"></line><line x1="0" y1="0" x2="290.76799869537354" y2="0" fill="rgb(0, 0, 0)" stroke="rgb(66, 66, 66)" stroke-width="1px" opacity="0.25"></line></g></g></g><g><g><line x1="0" y1="250.75555335150824" x2="290.76799869537354" y2="250.75555335150824" fill="rgb(0, 0, 0)" stroke="rgb(153, 153, 153)" stroke-width="1.5px"></line></g></g><g><g><line x1="24.230666557947792" y1="0" x2="24.230666557947792" y2="173.5999984741211" fill="rgb(0, 0, 0)" stroke="rgb(153, 153, 153)" stroke-width="1.5px"></line></g></g><g><g><g><g><g><path style="fill: none;" stroke="rgb(255, 112, 67)" stroke-width="2px" d="M29.076799869537354,-0.7233005157352964L31.499866525332134,3.21653371177777L33.922933181126915,5.539579982512989L36.34599983692169,7.942845319185824L38.76906649271647,20.032984206470875L41.19213314851125,35.01316345624715L43.61519980430603,49.582925358218866L46.03826646010081,59.746314637214844L48.461333115895584,69.86781329049128L50.88439977169037,77.72714497761824L53.307466427485146,83.32293196946014L55.73053308327993,89.78072528442073L58.15359973907471,94.51221166216405L60.57666639486949,99.63556713750187L62.99973305066427,101.90451129170562L65.42279970645905,103.50844538522684L67.84586636225383,105.5235297726066L70.2689330180486,108.53221834378003L72.69199967384338,111.66502811918585L75.11506632963817,114.49037469686805L77.53813298543294,115.22074256046102L79.96119964122772,115.65066325949785L82.3842662970225,117.7203596562868L84.80733295281729,117.33161365951686L87.23039960861206,119.70265683120603L89.65346626440684,120.48262564412637L92.07653292020161,120.29298481016967L94.4995995759964,121.41598774339501L96.92266623179117,122.18256062329081L99.34573288758595,121.11745138277278L101.76879954338074,121.73615476767424L104.19186619917552,123.53305809600043L106.61493285497029,124.20046571889544L109.03799951076508,125.47817931942348L111.46106616655986,126.39588821703371L113.88413282235463,126.98793244959548L116.30719947814941,126.89159808438438L118.7302661339442,128.6258288546272L121.15333278973898,129.98206775900232L123.57639944553375,130.62829230010408L125.99946610132854,130.7657219356837L128.42253275712332,131.56386795004303L130.8455994129181,132.47535824646306L133.26866606871286,132.84736445920086L135.69173272450766,132.87988600194703L138.11479938030243,133.64795959336735L140.5378660360972,133.68083668043118L142.96093269189197,135.0648443164949L145.38399934768677,135.78066446377562L147.80706600348154,135.95698915188694L150.23013265927634,137.19674861204194L152.6531993150711,137.35821588586262L155.07626597086588,137.10637253224544L157.49933262666065,137.9310314345947L159.92239928245544,138.40562871709955L162.34546593825021,139.41163806360717L164.768532594045,140.55676871490184L167.19159924983978,139.17676892763964L169.61466590563458,139.99497340007937L172.03773256142935,141.0700504363189L174.46079921722412,140.8076850652897L176.8838658730189,140.41108624204549L179.3069325288137,142.15983598282844L181.72999918460846,142.8702551112822L184.15306584040323,142.49645374911387L186.57613249619803,142.6002571031913L188.9991991519928,142.73861479178112L191.42226580778757,143.16391476162696L193.84533246358234,143.2858905685443L196.26839911937714,143.9277415479133L198.6914657751719,144.98126440179504L201.1145324309667,145.50119978733778L203.53759908676147,144.83946373786094L205.96066574255627,145.64947135293644L208.38373239835104,146.74473252537766L210.8067990541458,146.30052108463303L213.22986570994058,147.74491697193935L215.65293236573538,147.2972936685714L218.07599902153015,146.77977217219146L220.49906567732492,147.50925695944974L222.92213233311972,148.0466614912744L225.3451989889145,148.40951504443242L227.76826564470926,148.7310062010227L230.19133230050403,149.44948823505655L232.61439895629883,149.5533394687156L235.0374656120936,148.8647165471629L237.4605322678884,148.94301049892297L239.88359892368317,149.77623586276982L242.30666557947796,149.2923048686157L244.72973223527273,148.8917104908927L247.1527988910675,148.28971295421604L249.57586554686227,148.74737832339576L251.99893220265707,149.17585069893306L254.42199885845184,149.26058839212774L256.84506551424664,149.7728554797646L259.26813217004144,150.0298052035472L261.6911988258362,150.26284312319666L264.114265481631,149.1199897998348L266.5373321374257,149.69065225563074L268.9603987932205,148.70207122857295L271.3834654490153,149.02460106091416L273.80653210481006,149.59758125421118L276.22959876060486,150.04482463729224" fill="none"></path></g></g></g></g><g opacity="0.2"><g><g><g><path style="fill: none;" stroke="rgb(255, 112, 67)" stroke-width="2px" d="M24.230666557947792,-28.609207580024524L26.653733213742573,1.9142167664863885L29.076799869537354,7.733115658075913L31.499866525332134,7.849778763333034L33.922933181126915,8.572549193584964L36.34599983692169,11.26742645532553L38.76906649271647,37.32207625751067L41.19213314851125,56.854408612141725L43.61519980430603,71.07049413307524L46.03826646010081,74.83776323448384L48.461333115895584,84.95826002256297L50.88439977169037,89.4733723723354L53.307466427485146,91.69834124180326L55.73053308327993,99.45476376748573L58.15359973907471,101.60387954415518L60.57666639486949,107.31698696328587L62.99973305066427,105.30696738188635L65.42279970645905,105.91393928681606L67.84586636225383,108.54584937585162L70.2689330180486,113.04497619448739L72.69199967384338,116.36407097156109L75.11506632963817,118.72830159415872L77.53813298543294,116.31627993601109L79.96119964122772,116.29553921523257L82.3842662970225,120.82488954095405L84.80733295281729,116.74849632218604L87.23039960861206,123.25921552189013L89.65346626440684,121.65257766607101L92.07653292020161,120.00852373392061L94.4995995759964,123.10049152256641L96.92266623179117,123.3324196889306L99.34573288758595,119.51978773391681L101.76879954338074,122.6642097711657L104.19186619917552,126.22841295978125L106.61493285497029,125.20157712455492L109.03799951076508,127.3947496872683L111.46106616655986,127.77245154925066L113.88413282235463,127.87599879294228L116.30719947814941,126.74709653710426L118.7302661339442,131.2271750041958L121.15333278973898,132.01642611284558L123.57639944553375,131.59762911097926L125.99946610132854,130.97186638895397L128.42253275712332,132.7610869712363L130.8455994129181,133.84259369085623L133.26866606871286,133.40537377824955L135.69173272450766,132.9286683160632L138.11479938030243,134.80006998045468L140.5378660360972,133.73015231102585L142.96093269189197,137.14085577056255L145.38399934768677,136.85439468468797L147.80706600348154,136.22147618405265L150.23013265927634,139.05638780226906L152.6531993150711,137.60041679659318L155.07626597086588,136.72860750182008L157.49933262666065,139.16801978811782L159.92239928245544,139.11752464085657L162.34546593825021,140.92065208336822L164.768532594045,142.2744646918436L167.19159924983978,137.1067692467465L169.61466590563458,141.22228010873894L172.03773256142935,142.6826659906781L174.46079921722412,140.41413700874585L176.8838658730189,139.81618800717922L179.3069325288137,144.78296059400276L181.72999918460846,143.9358838039629L184.15306584040323,141.93575170586135L186.57613249619803,142.7559621343074L188.9991991519928,142.94615132466586L191.42226580778757,143.80186471639576L193.84533246358234,143.46885427892025L196.26839911937714,144.8905180169669L198.6914657751719,146.56154868261768L201.1145324309667,146.28110286565183L203.53759908676147,143.84685966364566L205.96066574255627,146.86448277554962L208.38373239835104,148.3876242840395L210.8067990541458,145.6342039235161L213.22986570994058,149.9115108028988L215.65293236573538,146.62585871351945L218.07599902153015,146.00348992762156L220.49906567732492,148.60348414033717L222.92213233311972,148.85276828901138L225.3451989889145,148.9537953741694L227.76826564470926,149.21324293590806L230.19133230050403,150.52721128610736L232.61439895629883,149.70911631920413L235.0374656120936,147.8317821648339L237.4605322678884,149.0604514265631L239.88359892368317,151.02607390854004L242.30666557947796,148.5664083773845L244.72973223527273,148.29081892430824L247.1527988910675,147.38671664920105L249.57586554686227,149.43387637716538L251.99893220265707,149.81855926223903L254.42199885845184,149.38769493191973L256.84506551424664,150.54125611121992L259.26813217004144,150.4152297892211L261.6911988258362,150.61240000267085L264.114265481631,147.405709814792L266.5373321374257,150.54664593932466L268.9603987932205,147.21919968798628L271.3834654490153,149.50839580942596L273.80653210481006,150.45705154415677L276.22959876060486,150.7156897119138" fill="none"></path></g></g></g></g></g></g><g transform="translate(39, 173)" clip-path="url(#clip_1)"><clipPath id="clip_1"><rect width="290" height="26"></rect></clipPath><g><g><line x1="0" y1="0" x2="0" y2="5" style="visibility: inherit;" fill="rgb(0, 0, 0)" stroke="rgb(204, 204, 204)" stroke-width="1px"></line><line x1="24.230666557947792" y1="0" x2="24.230666557947792" y2="5" style="visibility: inherit;" fill="rgb(0, 0, 0)" stroke="rgb(204, 204, 204)" stroke-width="1px"></line><line x1="48.461333115895584" y1="0" x2="48.461333115895584" y2="5" style="visibility: inherit;" fill="rgb(0, 0, 0)" stroke="rgb(204, 204, 204)" stroke-width="1px"></line><line x1="72.69199967384338" y1="0" x2="72.69199967384338" y2="5" style="visibility: inherit;" fill="rgb(0, 0, 0)" stroke="rgb(204, 204, 204)" stroke-width="1px"></line><line x1="96.92266623179117" y1="0" x2="96.92266623179117" y2="5" style="visibility: inherit;" fill="rgb(0, 0, 0)" stroke="rgb(204, 204, 204)" stroke-width="1px"></line><line x1="121.15333278973898" y1="0" x2="121.15333278973898" y2="5" style="visibility: inherit;" fill="rgb(0, 0, 0)" stroke="rgb(204, 204, 204)" stroke-width="1px"></line><line x1="145.38399934768677" y1="0" x2="145.38399934768677" y2="5" style="visibility: inherit;" fill="rgb(0, 0, 0)" stroke="rgb(204, 204, 204)" stroke-width="1px"></line><line x1="169.61466590563458" y1="0" x2="169.61466590563458" y2="5" style="visibility: inherit;" fill="rgb(0, 0, 0)" stroke="rgb(204, 204, 204)" stroke-width="1px"></line><line x1="193.84533246358234" y1="0" x2="193.84533246358234" y2="5" style="visibility: inherit;" fill="rgb(0, 0, 0)" stroke="rgb(204, 204, 204)" stroke-width="1px"></line><line x1="218.07599902153015" y1="0" x2="218.07599902153015" y2="5" style="visibility: inherit;" fill="rgb(0, 0, 0)" stroke="rgb(204, 204, 204)" stroke-width="1px"></line><line x1="242.30666557947796" y1="0" x2="242.30666557947796" y2="5" style="visibility: inherit;" fill="rgb(0, 0, 0)" stroke="rgb(204, 204, 204)" stroke-width="1px"></line><line x1="266.5373321374257" y1="0" x2="266.5373321374257" y2="5" style="visibility: inherit;" fill="rgb(0, 0, 0)" stroke="rgb(204, 204, 204)" stroke-width="1px"></line><line x1="290.76799869537354" y1="0" x2="290.76799869537354" y2="5" style="visibility: inherit;" fill="rgb(0, 0, 0)" stroke="rgb(204, 204, 204)" stroke-width="1px"></line></g><g transform="translate(0, 8)"><text style="text-anchor: middle; visibility: hidden; font-family: Roboto, sans-serif; font-size: 12px; font-weight: 200;" x="0" y="0" dx="0em" dy="0.95em" fill="rgb(33, 33, 33)" stroke="none" stroke-width="1px">-10</text><text style="text-anchor: middle; visibility: inherit; font-family: Roboto, sans-serif; font-size: 12px; font-weight: 200;" x="24.230666557947792" y="0" dx="0em" dy="0.95em" fill="rgb(33, 33, 33)" stroke="none" stroke-width="1px">0</text><text style="text-anchor: middle; visibility: inherit; font-family: Roboto, sans-serif; font-size: 12px; font-weight: 200;" x="48.461333115895584" y="0" dx="0em" dy="0.95em" fill="rgb(33, 33, 33)" stroke="none" stroke-width="1px">10</text><text style="text-anchor: middle; visibility: inherit; font-family: Roboto, sans-serif; font-size: 12px; font-weight: 200;" x="72.69199967384338" y="0" dx="0em" dy="0.95em" fill="rgb(33, 33, 33)" stroke="none" stroke-width="1px">20</text><text style="text-anchor: middle; visibility: inherit; font-family: Roboto, sans-serif; font-size: 12px; font-weight: 200;" x="96.92266623179117" y="0" dx="0em" dy="0.95em" fill="rgb(33, 33, 33)" stroke="none" stroke-width="1px">30</text><text style="text-anchor: middle; visibility: inherit; font-family: Roboto, sans-serif; font-size: 12px; font-weight: 200;" x="121.15333278973898" y="0" dx="0em" dy="0.95em" fill="rgb(33, 33, 33)" stroke="none" stroke-width="1px">40</text><text style="text-anchor: middle; visibility: inherit; font-family: Roboto, sans-serif; font-size: 12px; font-weight: 200;" x="145.38399934768677" y="0" dx="0em" dy="0.95em" fill="rgb(33, 33, 33)" stroke="none" stroke-width="1px">50</text><text style="text-anchor: middle; visibility: inherit; font-family: Roboto, sans-serif; font-size: 12px; font-weight: 200;" x="169.61466590563458" y="0" dx="0em" dy="0.95em" fill="rgb(33, 33, 33)" stroke="none" stroke-width="1px">60</text><text style="text-anchor: middle; visibility: inherit; font-family: Roboto, sans-serif; font-size: 12px; font-weight: 200;" x="193.84533246358234" y="0" dx="0em" dy="0.95em" fill="rgb(33, 33, 33)" stroke="none" stroke-width="1px">70</text><text style="text-anchor: middle; visibility: inherit; font-family: Roboto, sans-serif; font-size: 12px; font-weight: 200;" x="218.07599902153015" y="0" dx="0em" dy="0.95em" fill="rgb(33, 33, 33)" stroke="none" stroke-width="1px">80</text><text style="text-anchor: middle; visibility: inherit; font-family: Roboto, sans-serif; font-size: 12px; font-weight: 200;" x="242.30666557947796" y="0" dx="0em" dy="0.95em" fill="rgb(33, 33, 33)" stroke="none" stroke-width="1px">90</text><text style="text-anchor: middle; visibility: inherit; font-family: Roboto, sans-serif; font-size: 12px; font-weight: 200;" x="266.5373321374257" y="0" dx="0em" dy="0.95em" fill="rgb(33, 33, 33)" stroke="none" stroke-width="1px">100</text><text style="text-anchor: middle; visibility: hidden; font-family: Roboto, sans-serif; font-size: 12px; font-weight: 200;" x="290.76799869537354" y="0" dx="0em" dy="0.95em" fill="rgb(33, 33, 33)" stroke="none" stroke-width="1px">110</text></g><line x1="0" y1="0" x2="290.76799869537354" y2="0" fill="rgb(0, 0, 0)" stroke="rgb(204, 204, 204)" stroke-width="1px"></line></g></g></g></g></svg>