<svg viewBox="0 0 330 200" xmlns="http://www.w3.org/2000/svg"><g><g><g><g><g><line x1="51.53200149536133" y1="165.84374964237213" x2="46.53200149536133" y2="165.84374964237213" style="visibility: inherit;" fill="rgb(0, 0, 0)" stroke="rgb(204, 204, 204)" stroke-width="1px"></line><line x1="51.53200149536133" y1="138.20312470197678" x2="46.53200149536133" y2="138.20312470197678" style="visibility: inherit;" fill="rgb(0, 0, 0)" stroke="rgb(204, 204, 204)" stroke-width="1px"></line><line x1="51.53200149536133" y1="110.56249976158142" x2="46.53200149536133" y2="110.56249976158142" style="visibility: inherit;" fill="rgb(0, 0, 0)" stroke="rgb(204, 204, 204)" stroke-width="1px"></line><line x1="51.53200149536133" y1="82.92187482118608" x2="46.53200149536133" y2="82.92187482118608" style="visibility: inherit;" fill="rgb(0, 0, 0)" stroke="rgb(204, 204, 204)" stroke-width="1px"></line><line x1="51.53200149536133" y1="55.28124988079071" x2="46.53200149536133" y2="55.28124988079071" style="visibility: inherit;" fill="rgb(0, 0, 0)" stroke="rgb(204, 204, 204)" stroke-width="1px"></line><line x1="51.53200149536133" y1="27.640624940395355" x2="46.53200149536133" y2="27.640624940395355" style="visibility: inherit;" fill="rgb(0, 0, 0)" stroke="rgb(204, 204, 204)" stroke-width="1px"></line><line x1="51.53200149536133" y1="0" x2="46.53200149536133" y2="0" style="visibility: inherit;" fill="rgb(0, 0, 0)" stroke="rgb(204, 204, 204)" stroke-width="1px"></line></g><g transform="translate(41.53200149536133, 0)"><text style="text-anchor: end; visibility: inherit; font-family: Roboto, sans-serif; font-size: 12px; font-weight: 200;" x="0" y="165.84374964237213" dx="0em" dy="0.3em" fill="rgb(33, 33, 33)" stroke="none" stroke-width="1px">0</text><text style="text-anchor: end; visibility: inherit; font-family: Roboto, sans-serif; font-size: 12px; font-weight: 200;" x="0" y="138.20312470197678" dx="0em" dy="0.3em" fill="rgb(33, 33, 33)" stroke="none" stroke-width="1px">0.05</text><text style="text-anchor: end; visibility: inherit; font-family: Roboto, sans-serif; font-size: 12px; font-weight: 200;" x="0" y="110.56249976158142" dx="0em" dy="0.3em" fill="rgb(33, 33, 33)" stroke="none" stroke-width="1px">0.1</text><text style="text-anchor: end; visibility: inherit; font-family: Roboto, sans-serif; font-size: 12px; font-weight: 200;" x="0" y="82.92187482118608" dx="0em" dy="0.3em" fill="rgb(33, 33, 33)" stroke="none" stroke-width="1px">0.15</text><text style="text-anchor: end; visibility: inherit; font-family: Roboto, sans-serif; font-size: 12px; font-weight: 200;" x="0" y="55.28124988079071" dx="0em" dy="0.3em" fill="rgb(33, 33, 33)" stroke="none" stroke-width="1px">0.2</text><text style="text-anchor: end; visibility: inherit; font-family: Roboto, sans-serif; font-size: 12px; font-weight: 200;" x="0" y="27.640624940395355" dx="0em" dy="0.3em" fill="rgb(33, 33, 33)" stroke="none" stroke-width="1px">0.25</text><text style="text-anchor: end; visibility: hidden; font-family: Roboto, sans-serif; font-size: 12px; font-weight: 200;" x="0" y="0" dx="0em" dy="0.3em" fill="rgb(33, 33, 33)" stroke="none" stroke-width="1px">0.3</text></g><line x1="51.53200149536133" y1="0" x2="51.53200149536133" y2="176.89999961853027" fill="rgb(0, 0, 0)" stroke="rgb(204, 204, 204)" stroke-width="1px"></line></g></g><g transform="translate(51, 0)" clip-path="url(#clip_0)"><clipPath id="clip_0"><rect width="278" height="176"></rect></clipPath><g><g><g><line x1="0" y1="0" x2="0" y2="176.89999961853027" fill="rgb(0, 0, 0)" stroke="rgb(66, 66, 66)" stroke-width="1px" opacity="0.25"></line><line x1="23.205666542053223" y1="0" x2="23.205666542053223" y2="176.89999961853027" fill="rgb(0, 0, 0)" stroke="rgb(66, 66, 66)" stroke-width="1px" opacity="0.25"></line><line x1="46.411333084106445" y1="0" x2="46.411333084106445" y2="176.89999961853027" fill="rgb(0, 0, 0)" stroke="rgb(66, 66, 66)" stroke-width="1px" opacity="0.25"></line><line x1="69.61699962615967" y1="0" x2="69.61699962615967" y2="176.89999961853027" fill="rgb(0, 0, 0)" stroke="rgb(66, 66, 66)" stroke-width="1px" opacity="0.25"></line><line x1="92.82266616821289" y1="0" x2="92.82266616821289" y2="176.89999961853027" fill="rgb(0, 0, 0)" stroke="rgb(66, 66, 66)" stroke-width="1px" opacity="0.25"></line><line x1="116.02833271026611" y1="0" x2="116.02833271026611" y2="176.89999961853027" fill="rgb(0, 0, 0)" stroke="rgb(66, 66, 66)" stroke-width="1px" opacity="0.25"></line><line x1="139.23399925231934" y1="0" x2="139.23399925231934" y2="176.89999961853027" fill="rgb(0, 0, 0)" stroke="rgb(66, 66, 66)" stroke-width="1px" opacity="0.25"></line><line x1="162.43966579437256" y1="0" x2="162.43966579437256" y2="176.89999961853027" fill="rgb(0, 0, 0)" stroke="rgb(66, 66, 66)" stroke-width="1px" opacity="0.25"></line><line x1="185.64533233642578" y1="0" x2="185.64533233642578" y2="176.89999961853027" fill="rgb(0, 0, 0)" stroke="rgb(66, 66, 66)" stroke-width="1px" opacity="0.25"></line><line x1="208.850998878479" y1="0" x2="208.850998878479" y2="176.89999961853027" fill="rgb(0, 0, 0)" stroke="rgb(66, 66, 66)" stroke-width="1px" opacity="0.25"></line><line x1="232.05666542053223" y1="0" x2="232.05666542053223" y2="176.89999961853027" fill="rgb(0, 0, 0)" stroke="rgb(66, 66, 66)" stroke-width="1px" opacity="0.25"></line><line x1="255.26233196258545" y1="0" x2="255.26233196258545" y2="176.89999961853027" fill="rgb(0, 0, 0)" stroke="rgb(66, 66, 66)" stroke-width="1px" opacity="0.25"></line><line x1="278.4679985046387" y1="0" x2="278.4679985046387" y2="176.89999961853027" fill="rgb(0, 0, 0)" stroke="rgb(66, 66, 66)" stroke-width="1px" opacity="0.25"></line></g><g><line x1="0" y1="165.84374964237213" x2="278.4679985046387" y2="165.84374964237213" fill="rgb(0, 0, 0)" stroke="rgb(66, 66, 66)" stroke-width="1px" opacity="0.25"></line><line x1="0" y1="138.20312470197678" x2="278.4679985046387" y2="138.20312470197678" fill="rgb(0, 0, 0)" stroke="rgb(66, 66, 66)" stroke-width="1px" opacity="0.25"></line><line x1="0" y1="110.56249976158142" x2="278.4679985046387" y2="110.56249976158142" fill="rgb(0, 0, 0)" stroke="rgb(66, 66, 66)" stroke-width="1px" opacity="0.25"></line><line x1="0" y1="82.92187482118608" x2="278.4679985046387" y2="82.92187482118608" fill="rgb(0, 0, 0)" stroke="rgb(66, 66, 66)" stroke-width="1px" opacity="0.25"></line><line x1="0" y1="55.28124988079071" x2="278.4679985046387" y2="55.28124988079071" fill="rgb(0, 0, 0)" stroke="rgb(66, 66, 66)" stroke-width="1px" opacity="0.25"></line><line x1="0" y1="27.640624940395355" x2="278.4679985046387" y2="27.640624940395355" fill="rgb(0, 0, 0)" stroke="rgb(66, 66, 66)" stroke-width="1px" opacity="0.25"></line><line x1="0" y1="0" x2="278.4679985046387" y2="0" fill="rgb(0, 0, 0)" stroke="rgb(66, 66, 66)" stroke-width="1px" opacity="0.25"></line></g></g></g><g><g><line x1="0" y1="165.84374964237213" x2="278.4679985046387" y2="165.84374964237213" fill="rgb(0, 0, 0)" stroke="rgb(153, 153, 153)" stroke-width="1.5px"></line></g></g><g><g><line x1="23.205666542053223" y1="0" x2="23.205666542053223" y2="176.89999961853027" fill="rgb(0, 0, 0)" stroke="rgb(153, 153, 153)" stroke-width="1.5px"></line></g></g><g><g><g><g><g><path style="fill: none;" stroke="rgb(255, 112, 67)" stroke-width="2px" d="M23.646574206352234,163.32292475975635L23.785808205604553,162.82539342284193L24.1570988702774,161.59002658540928L24.20351020336151,160.92306788849666L24.273127202987673,160.4102433012356L24.528389534950257,159.5169797723796L24.876474533081055,158.18948656271456L24.946091532707214,157.25525039433984L25.410204863548277,155.63264792499828L25.68867286205292,154.02890139047486L26.15278619289398,152.0076177119169L26.82575052261353,149.25716375169466L26.895367522239685,147.45130955604387L27.104218521118163,145.8913027824329L27.475509185791015,144.1065621725491L27.52192051887512,142.93008508351917L28.542969846725462,139.8889363095124L28.65899817943573,137.79919920397066L29.00708317756653,135.74939479766522L29.146317176818847,134.20116050215518L29.262345509529116,133.0069007836624L29.42478517532349,131.91886647344762L29.564019174575808,130.947631761667L30.376217503547668,128.50743690645552L30.422628836631773,126.93718793117553L30.6082741689682,125.57048074204336L31.095593166351318,123.63598571005193L31.281238498687742,122.05072976042308L31.74535182952881,120.03817658041766L32.99845782279968,115.96486576330187L33.021663489341734,113.46780861457312L33.416159820556636,111.0673850115339L33.4857768201828,109.467920576169L33.555393819808955,108.34903157106481L33.90347881793976,106.88164952882697L33.97309581756592,105.84200992978097L33.996301484107974,105.16515659665593L34.2283581495285,104.2283438526432L34.669265813827515,102.65792594426101L35.156584811210635,101.39741917559786L35.55108114242554,100.64169503886893L35.6671094751358,100.18850933117385L36.29366247177124,99.91857656576374L36.52571913719177,99.75761859242336L36.66495313644409,99.66171434485682L36.827392802238464,99.60501861627364L36.85059846878052,99.57112803736759L37.61638546466828,99.55579717677404L37.662796797752385,99.5469528749888L37.94126479625702,99.54389020203509L38.10370446205139,99.5434595714877L38.126910128593444,99.54340713186315L38.17332146167755,99.54379413553465L38.24293846130371,99.54466392396478L38.28934979438782,99.54561744454611L38.56781779289246,99.5489046527667L38.79987445831299,99.55329881685658L39.79771811962127,99.56800002833786L39.98336345195771,99.57935956756793L40.16900878429413,99.58880801149621L40.3778597831726,99.59754968331491L40.6795334482193,99.60743901605572L40.77235611438751,99.61485043183919L40.98120711326599,99.62270762624532L41.0740297794342,99.62897554447096L41.120441112518314,99.63352050999066L41.16685244560242,99.63703994143499L41.32929211139679,99.64196554675122L41.44532044410706,99.64697370694111L41.49173177719116,99.65081059541868L41.60776010990143,99.65521659830391L41.654171442985536,99.6587119625143L41.746994109153746,99.66253082860482L41.83981677532196,99.66656686095831L41.979050774574276,99.67164756091476L42.00225644111634,99.67514410350825L42.53598677158356,99.68795084166545L42.62880943775177,99.69757400339539L43.39459643363952,99.72023487415052L43.5570360994339,99.73761572622585L43.69627009868622,99.75134419926185L44.02114943027496,99.76748109176381L44.11397209644318,99.77947138825793L44.27641176223755,99.79076292260658L44.32282309532166,99.79872075513073L44.50846842765808,99.80828476514242L44.83334775924683,99.82262811395181L44.85655342578888,99.83186017689722L45.08861009120941,99.84373244168582L45.15822709083557,99.85278338682717L45.36707808971405,99.86407414566924L45.55272342205048,99.87615687700537L45.76157442092895,99.88948582634522L45.784780087471006,99.898166912446L45.924014086723325,99.90750257573194L45.94721975326539,99.91379592774851L46.063248085975644,99.92105806933753L46.4809500837326,99.93825933937379L46.550567083358764,99.95076634667578L46.75941808223724,99.96490507234078L47.45558807849884,99.99633976440843L47.757261743545534,100.02554529262173L47.896495742797846,100.04792382043209L47.96611274242401,100.06379748892024L48.01252407550812,100.07496096209593L48.10534674167633,100.08495241775357L48.24458074092865,100.0959326552914L48.36060907363891,100.10671370982486L48.59266573905945,100.1216736071828L48.73189973831177,100.13581284078093L48.84792807102203,100.14863921632697L49.07998473644256,100.1651245055357L50.0546227312088,100.21348832396268L50.14744539737702,100.24630082969891L50.17065106391907,100.26694059370735L50.19385673046112,100.28027671267911L50.61155872821808,100.30568432331306L50.913232393264764,100.33378605485329L51.21490605831146,100.36374150032417L51.81825338840484,100.40862024738959L52.09672138690948,100.44828604009531L52.35198371887207,100.48394099502299L52.42160071849823,100.5085976845585L52.49121771812439,100.52666694742612L52.955331048965455,100.55966750968285L53.094565048217774,100.58622593154303L53.25700471401215,100.61010692360917L53.39623871326447,100.6313023389906L53.767529377937315,100.6625771367024L53.83714637756348,100.68486109590118L54.09240870952606,100.71124350248563L54.162025709152225,100.7306513373547L54.23164270877838,100.74588760927159L54.254848375320435,100.75622875943306L55.36872036933899,100.82165483072376L55.43833736896515,100.86471951576496L55.50795436859131,100.8943789016238L55.53116003513336,100.91344970559348L56.041684699058536,100.95331996665718L56.320152697563174,100.99303185559835L56.5522093629837,101.03016757176181L56.64503202915191,101.05781164530859L57.225173692703244,101.10841422078671L57.248379359245305,101.1401547316347L57.50364169120788,101.17445332981637L57.68928702354431,101.20623225919653L57.78210968971252,101.2309308047432L57.82852102279663,101.24857541108824L58.57110235214234,101.30509968593483L58.66392501831055,101.3448563199941L59.244066681861874,101.40571171923101L59.61535734653472,101.46635273731829L59.638563013076784,101.50425799956L59.986648011207585,101.54995755610257L60.079470677375795,101.58355050861529L60.450761342048644,101.62861827325239L60.4739670085907,101.65722736120328L60.98449167251587,101.70924258519715L61.10052000522614,101.74846355892873L61.2165483379364,101.78004093269558L61.28616533756256,101.80383103527066L61.40219367027283,101.82620425416141L61.471810669898986,101.84450316649382L61.750278668403624,101.87510764861706L61.93592400074005,101.90666029999632L62.098363666534425,101.93720518621238L62.2608033323288,101.96720966620613L62.46965433120727,102.0003233125374L62.562476997375484,102.02694299480375L62.60888833045959,102.04629714143589L62.6552996635437,102.061298556726L62.724916663169864,102.07539350567896L62.88735632896423,102.095781739798L63.09620732784271,102.12345019800172L63.32826399326324,102.15733035393329L63.42108665943146,102.18460599560592L63.46749799251556,102.20445421596929L63.537114992141724,102.2215956387752L63.65314332485199,102.24063041610869L63.72276032447815,102.25731672328925L63.7459659910202,102.26908640037381L64.21007932186127,102.31158284376684L64.41893032073975,102.35319829652217L64.55816431999206,102.38897358384472L64.72060398578644,102.42310481028093L64.7438096523285,102.44539910175595L64.95266065120697,102.47516674995921L65.11510031700135,102.5058515538484L65.60241931438446,102.5631189508277L65.69524198055267,102.60494755017234L65.9272986459732,102.64880325443706L66.02012131214143,102.68265732857667L66.2289723110199,102.72001326019257L66.5306459760666,102.76723172416554L66.60026297569274,102.80131755369021L66.73949697494507,102.8333164464083L66.78590830802918,102.8563742495948L67.57490097045898,102.9366101596722L67.71413496971131,102.99662530762885L68.1086313009262,103.06652861204019L68.34068796634675,103.12858339226155L68.4103049659729,103.17187580081696L68.456716299057,103.20189588209418L68.87441829681396,103.25655184007194L69.1992976284027,103.31813235064L69.24570896148681,103.35921425864488L69.66341095924376,103.42128987973395L69.756233625412,103.46690789633182L69.94187895774841,103.51108659954541L70.33637528896331,103.57358037434223L70.47560928821564,103.62386625648534L71.03254528522491,103.70564767247009L71.3342189502716,103.7829762547605L71.40383594989777,103.83592554993697L71.42704161643982,103.86988137232314L71.47345294952392,103.89463065133461L71.51986428260804,103.9138625943598L71.61268694877624,103.9341796914886L71.70550961494446,103.95516929870472L71.86794928073883,103.98320846582448L72.21603427886964,104.03333472577619L73.00502694129943,104.13994059912373L73.09784960746765,104.21300167131434L73.26028927326202,104.27280762548142L73.46914027214049,104.32931307603215L73.74760827064513,104.39086650049873L73.97966493606567,104.45097572066673L74.02607626914977,104.49169052494607L74.07248760223389,104.52077526973069L74.18851593494416,104.54988554225967L74.25813293457031,104.5743618592567L74.44377826690673,104.60779630905505L74.53660093307495,104.63726096390747L75.00071426391601,104.70225293840032L75.11674259662628,104.75315138017957L75.13994826316834,104.78607603919275L75.18635959625244,104.81060202249188L75.2559765958786,104.83248592687553L75.34879926204681,104.8551915954808L75.37200492858886,104.87121212315697L75.53444459438323,104.89763398052717L75.60406159400941,104.92071142468097L75.72008992671965,104.94661930918139L76.16099759101868,105.00827618694207L76.3930542564392,105.0697160615024L76.53228825569153,105.12130377981032L76.67152225494384,105.16702468712685L76.76434492111206,105.2043274617157L77.04281291961671,105.25643184772088L77.06601858615875,105.29017892384745L77.64616024971008,105.3729320374117L77.85501124858857,105.44526846565869L78.66720957756041,105.57779729862158L78.69041524410248,105.65988306591395L78.73682657718659,105.71427310882828L79.75787590503693,105.8611503949153L79.94352123737336,105.9702923994198L80.10596090316773,106.05422476746017L80.15237223625184,106.10986610416117L80.19878356933593,106.14853776458747L80.3148119020462,106.18497520570864L80.89495356559753,106.27344813226993L80.9181592321396,106.32921073886664L81.15021589756012,106.38952600482827L81.19662723064424,106.43109922587917L81.31265556335448,106.46952637732933L81.63753489494324,106.53048692227853L81.77676889419556,106.58337524210398L81.98561989307403,106.63965447999067L82.33370489120485,106.71453727307247L82.42652755737305,106.77047396076587L82.47293889045716,106.8095452455878L83.05308055400849,106.90224602634649L83.33154855251313,106.99136036559874L83.56360521793366,107.07286299303021L83.70283921718597,107.1386383631292L84.09733554840088,107.22613013844018L84.23656954765319,107.29565221566257L84.25977521419524,107.34020741610937L84.584654545784,107.4068399246196L84.72388854503632,107.46398483257053L84.83991687774657,107.51260840614954L85.3736472082138,107.60807669033645L85.53608687400818,107.68565003697289L85.65211520671843,107.74672013737076L85.95378887176513,107.82125821414041L86.11622853755952,107.88646125242445L86.46431353569031,107.9696506630033L86.74278153419495,108.0549923564544L86.81239853382111,108.11507744943584L87.13727786540986,108.19270011574227L87.94947619438172,108.34411628591037L87.97268186092377,108.43798093063587L87.99588752746583,108.49731466009578L88.41358952522278,108.58737497613217L88.76167452335358,108.6870537725696L89.87554651737213,108.89448944593188L90.08439751625062,109.04689590830931L90.29324851512908,109.16636721957734L90.4324825143814,109.25678219084197L90.91980151176453,109.37687719102063L90.96621284484863,109.45522932542762L90.98941851139068,109.50538899697658L92.0800848388672,109.68460913415066L92.26573017120361,109.81774516362958L92.79946050167084,109.97158678366918L93.00831150054933,110.09297359569835L93.10113416671753,110.17875675612467L93.19395683288575,110.2431942006856L93.47242483139038,110.32084992536731L93.54204183101653,110.37721473979745L93.72768716335297,110.43713018100965L93.79730416297912,110.48288212804108L94.3542401599884,110.58906613401302L94.44706282615662,110.66595167211484L94.49347415924072,110.71867632851895L95.14323282241821,110.84302472684269L95.67696315288545,110.99434510927287L96.02504815101624,111.13543580776361L96.21069348335266,111.24700064916988L96.32672181606293,111.33079028251893L96.44275014877319,111.39793620865879L96.58198414802551,111.45850131288037L96.95327481269837,111.54907803997357L97.37097681045533,111.66472296706796L97.39418247699737,111.7375235632799L97.55662214279175,111.80512740835796L97.62623914241792,111.85595699542483L98.18317513942719,111.96888294952025L98.25279213905334,112.04697993993092L98.41523180484772,112.11799556789583L98.48484880447388,112.1709727227823L98.50805447101594,112.20621549091989L98.55446580410003,112.23427904474276L98.57767147064209,112.25457694726148L99.15781313419342,112.35354814364037L99.3666641330719,112.44431097740825L99.92360013008118,112.58279661137593L100.1092454624176,112.69400933364707L100.43412479400635,112.81008152796612L100.4573304605484,112.88325545769663L100.85182679176332,112.98732027721843L101.52479112148285,113.15295587719446L101.57120245456696,113.25947919143022L101.80325911998749,113.35916061405942L102.1977554512024,113.47996356919367L102.31378378391265,113.57043120491524L102.82430844783784,113.70409374289584L103.00995378017426,113.8132561325058L103.26521611213684,113.91866613459098L103.31162744522095,113.98917930082416L103.47406711101532,114.05694946191029L103.61330111026764,114.11946742132605L103.77574077606201,114.18251294874547L103.91497477531432,114.24225873332718L103.9845917749405,114.289075323199L104.37908810615541,114.37946585381619L104.65755610466005,114.47781553757423L104.7271731042862,114.54787189990452L104.88961277008056,114.61570736563289L105.26090343475342,114.71553117568588L105.30731476783752,114.78282936999912L105.44654876708984,114.84543978154701L105.53937143325805,114.89784185270238L105.91066209793091,114.98875325054372L106.3051584291458,115.10670284988569L106.76927175998688,115.25234368466904L107.18697375774384,115.40736998845664L107.23338509082794,115.50791653725223L107.27979642391205,115.57577852807187L107.34941342353821,115.6278009336512L107.41903042316436,115.67032782563447L107.81352675437927,115.76007541880598L108.06878908634185,115.85559937833318L108.3936684179306,115.96608218485927L109.0898384141922,116.14677988007644L109.13624974727631,116.2628478844232L109.69318574428559,116.42451033746752L109.78600841045379,116.5368840166797L109.83241974353791,116.61200044667389L109.97165374279022,116.68016509467691L110.04127074241639,116.73261951603018L110.08768207550048,116.77179921889568L110.29653307437897,116.83002665857745L110.45897274017334,116.89200534546882L110.76064640522003,116.97950255920368L110.94629173755645,117.06301855126638L111.24796540260316,117.16362266918273L111.29437673568725,117.23176468040984L111.36399373531341,117.28432249288133L111.73528439998627,117.37821541989541L111.85131273269654,117.45407251772086L111.89772406578064,117.50739926708609L112.12978073120118,117.57850225281486L112.2226033973694,117.63682362329425L112.89556772708892,117.78566924613774L113.01159605979919,117.89466106491437L113.17403572559355,117.98764040993119L114.19508505344392,118.21752694968144L114.38073038578034,118.38724427684139L114.5431700515747,118.51691758590026L114.63599271774292,118.61064475191863L114.8912550497055,118.71072128280905L115.03048904895783,118.7947121063194L115.16972304821014,118.86907127551727L115.68024771213531,119.00174616680985L115.9355100440979,119.12548623708874L116.05153837680817,119.21981506916687L116.26038937568664,119.31260321247665L116.2835950422287,119.37230096449089L116.56206304073334,119.4564526057424L116.81732537269592,119.55132090991236L116.88694237232208,119.62035767824028L117.11899903774261,119.70219974052257L118.20966536521911,119.94202563529869L118.32569369792938,120.10628274369317L118.34889936447144,120.20890965253754L118.58095602989196,120.31125342366184L120.27496968746185,120.67184743531548L120.53023201942445,120.93352353723563L120.5534376859665,121.09465291499396L120.5998490190506,121.1995779748615L120.64626035213472,121.2707820915041L120.71587735176087,121.32588230134695L120.73908301830292,121.36306943887816L121.31922468185424,121.48871187793996L121.43525301456451,121.58479994739945L121.50487001419067,121.65487995422133L121.69051534652709,121.73008738465641L121.94577767848969,121.82085609724273L122.15462867736817,121.91270590835911L122.22424567699433,121.9802874429352L122.24745134353638,122.0249930304797L122.59553634166717,122.1142405229228L122.96682700634003,122.23448844579734L123.10606100559234,122.33167934591239L123.19888367176057,122.40669798612954L123.40773467063903,122.48931687260536L123.45414600372315,122.5472509633775L123.66299700260163,122.61966360294633L123.75581966876985,122.67985647457652L124.01108200073243,122.76205963197062L124.61442933082581,122.92051750688958L124.82328032970428,123.0534355280637L125.17136532783509,123.19633373741252L125.33380499362946,123.31157297047348L125.47303899288177,123.4060173157124L125.56586165905,123.47955936400552L125.58906732559204,123.52790551265588L126.02997498989106,123.63716504347892L126.09959198951721,123.71540493862132L126.93499598503112,123.91482918706976L127.07422998428345,124.05994434997537L127.42231498241425,124.21072264514729L127.46872631549834,124.3096907719461L127.86322264671325,124.44138578825631L127.88642831325531,124.52465996292881L128.32733597755433,124.65557155842939L128.35054164409638,124.7383822706546L128.42015864372254,124.8008632577836L128.629009642601,124.8767503570294L128.8842719745636,124.96925311615502L129.46441363811493,125.13165178652446L129.5340306377411,125.24193167880968L129.78929296970367,125.35520850456794L129.85890996932983,125.43602847016352L129.90532130241394,125.49309244213067L129.95173263549805,125.53590281792076L130.2302006340027,125.61304900671726L130.6246969652176,125.73231315909776L131.1120159626007,125.89413705569577L131.2744556283951,126.02134951721777L131.46010096073152,126.13211159292734L131.5529236268997,126.21579355154454L131.7153632926941,126.29615709549003L131.73856895923615,126.34868510705184L131.7617746257782,126.38451015167385L131.99383129119872,126.44911062043103L132.59717862129213,126.60007125008137L132.71320695400237,126.71224483162361L133.08449761867521,126.84869990228849L133.3397599506378,126.978153022829L133.43258261680603,127.073133631336L133.45578828334808,127.13444835673107L133.64143361568452,127.20586784441049L133.78066761493682,127.27470241140774L133.85028461456298,127.32899870757497L134.05913561344147,127.40057303823968L134.1519582796097,127.46085438048493L134.31439794540407,127.52737196074365L134.3376036119461,127.57161875424752L134.47683761119842,127.62419089248021L134.61607161045075,127.68176482758871L134.66248294353485,127.72498826938961L134.73209994316102,127.76394260308349L135.5442982721329,127.93935068706242L135.82276627063752,128.09677875750023L136.26367393493652,128.2739142230821L136.31008526802063,128.38890259083075L136.79740426540374,128.54936040366098L137.2615175962448,128.73281471099003L137.81845359325408,128.94758653243383L137.88807059288024,129.0895423843372L138.18974425792695,129.23146930724593L138.37538959026338,129.35156419773455L138.58424058914184,129.46293565435087L138.653857588768,129.54286611494447L138.7002689218521,129.59956278238315L138.72347458839417,129.63795162589722L139.7445239162445,129.85337286915893L139.88375791549683,130.0088770335754L139.953374915123,130.1153068889646L140.11581458091734,130.2098002437855L140.41748824596405,130.3234012393308L140.46389957904813,130.40031835034642L140.4871052455902,130.45084605004521L140.6495449113846,130.51181293903852L141.06724690914155,130.62722805578474L141.60097723960874,130.79724869991867L141.71700557231904,130.92117296449052L142.18111890316007,131.08319233445093L142.2275302362442,131.189172002683L142.3667642354965,131.27906394238988L142.9701115655899,131.44700842018483L143.0861398983002,131.56970346004962L143.48063622951508,131.71788429860052L143.89833822727203,131.8857529958132L144.08398355960844,132.02157028805397L144.6177138900757,132.20396815702915L144.7105365562439,132.33095615100308L144.80335922241213,132.42469904373104L144.82656488895415,132.48533209751506L145.42991221904754,132.63578632038667L145.96364254951476,132.8269655239856L146.6366068792343,133.06888879731736L146.89186921119688,133.26229090461342L147.26315987586977,133.4485020754373L147.5880392074585,133.621617458045L147.61124487400056,133.72987153449233L148.0753582048416,133.88250361916468L148.63229420185087,134.0792640035815L149.00358486652374,134.26741765025412L149.44449253082274,134.46352390220693L149.51410953044893,134.5943232476661L149.63013786315918,134.69469496291757L150.48874752521513,134.9168377098619L150.65118719100954,135.0807398532551L150.74400985717773,135.19657439655236L150.88324385643003,135.29231088964866L151.02247785568238,135.37598361009546L151.13850618839263,135.44804392888247L151.20812318801882,135.50439182555252L151.2545345211029,135.5469414259015L151.8114705181122,135.67731952277887L151.99711585044858,135.79047852761013L152.3916121816635,135.93257282175767L152.50764051437378,136.0396448970243L152.55405184745788,136.1126125294349L152.8325198459625,136.2087295473274L152.87893117904665,136.27512085029431L153.01816517829894,136.34111314248494L153.2966331768036,136.4330062397691L153.41266150951387,136.50992547047994L153.64471817493438,136.59963057351L153.87677484035493,136.6969899010805L154.5265335035324,136.877207532148L154.57294483661653,136.99403284286578L154.66576750278472,137.08151419843176L155.01385250091553,137.19917437399735L155.96528482913973,137.44766280300212L156.03490182876587,137.6097580064124L156.45260382652282,137.7849843454977L156.8703058242798,137.968013580545L157.2648021554947,138.15132487870008L157.33441915512083,138.27427343961455L157.45044748783113,138.3696406036701L157.56647582054137,138.44845233957173L157.98417781829835,138.57341616519236L158.0073834848404,138.65270764077854L158.4018798160553,138.77355963574047L158.47149681568146,138.85899389826272L158.6339364814758,138.94039893949346L159.26048947811125,139.10538315566515L159.3069008111954,139.21296874311278L159.46934047698974,139.30759208887494L159.88704247474672,139.4416277079849L160.09589347362518,139.56064281631052L160.30474447250367,139.67062090552105L160.5368011379242,139.7794323006393L160.79206346988678,139.89178931162104L160.884886136055,139.97630961070814L160.90809180259703,140.03129790140756L161.34899946689606,140.14547026538222L161.4650277996063,140.2353171710359L161.5114391326904,140.29776023807116L161.60426179885866,140.3522909830496L161.81311279773712,140.4233881668895L162.23081479549407,140.54271828039822L162.69492812633516,140.69937315197492L162.8109564590454,140.81460824034747L163.0198074579239,140.9219616317511L163.15904145717622,141.0118318091654L163.18224712371824,141.06999625291363L163.2750697898865,141.12185767832275L163.34468678951265,141.16569330791913L163.85521145343782,141.28516135530668L164.27291345119477,141.43293076853467L164.36573611736299,141.53848350896268L164.48176445007326,141.62292057534668L164.8530551147461,141.74105327709307L164.89946644783018,141.82035908614833L165.13152311325072,141.91005127023874L165.27075711250305,141.98911219452273L165.31716844558716,142.0449601095139L165.45640244483945,142.10369470222278L165.5028137779236,142.14734022823035L165.5492251110077,142.18193149046235L165.82769310951232,142.25307203484462L165.87410444259643,142.30414795177919L165.92051577568054,142.3431834447355L166.45424610614776,142.4629667550683L166.66309710502625,142.57248151258017L166.73271410465242,142.6507303866432L167.10400476932526,142.76449364040909L167.35926710128783,142.87861990830365L167.40567843437194,142.95542877275372L167.54491243362426,143.02650434126068L167.84658609867097,143.12323907105832L167.9626144313812,143.20206241917643L168.1250540971756,143.27843250176895L168.26428809642792,143.34915913066064L168.5659617614746,143.44549585683635L169.169309091568,143.61085638255264L169.70303942203523,143.8049445400802L169.79586208820342,143.93787005964174L169.81906775474548,144.02174249794638L169.98150742053988,144.10087019556173L170.37600375175475,144.21819710370883L170.63126608371735,144.33371194735003L170.88652841567995,144.44807612316697L171.0489680814743,144.5453341123266L171.18820208072663,144.62821620545304L171.7451380777359,144.77586272497948L173.0214497375488,145.08766430279834L173.11427240371705,145.29091308525292L173.41594606876373,145.4653462452838L173.76403106689452,145.6304442083586L173.94967639923098,145.76168379182468L173.972882065773,145.84444746540382L174.06570473194122,145.9101804210204L174.29776139736177,145.98976423781272L174.52981806278228,146.07760008471854L174.55302372932434,146.13430668877484L174.5762293958664,146.17233574712148L174.76187472820283,146.22716923678755L175.22598805904389,146.33994306875968L175.78292405605316,146.50313491887388L175.94536372184754,146.62884598768085L176.0149807214737,146.7161758860486L176.24703738689422,146.80821125928006L176.4558883857727,146.89905246519473L176.52550538539887,146.96541925808634L176.75756205081942,147.0447383772231L176.87359038352966,147.11205548151645L177.7089943790436,147.293999771583L177.91784537792208,147.43842305172507L177.96425671100616,147.53290516182176L178.05707937717438,147.60524165059962L178.1963133764267,147.67209584346284L178.26593037605286,147.723925447676L178.42837004184724,147.7823389198849L178.61401537418365,147.84856612297585L178.68363237380984,147.8999832881138L178.86927770614622,147.9619533966154L178.96210037231447,148.01467971508433L179.05492303848268,148.06184822696622L179.5886533689499,148.17925406873002L179.6814760351181,148.26515698041024L179.84391570091248,148.34372612291398L179.9367383670807,148.40629653611L180.1920006990433,148.48621190798065L180.47046869754791,148.58029016513714L180.84175936222076,148.69808502368107L181.4219010257721,148.86425406828124L181.7699860239029,149.0210355255924L182.09486535549163,149.16823205492548L182.28051068782804,149.28684437961908L182.46615602016448,149.38825922750453L182.60539001941683,149.47176262929347L182.62859568595889,149.52563746742172L183.23194301605224,149.6558034366288L183.556822347641,149.78637702365336L184.13696401119233,149.95805424397062L184.53146034240723,150.1242536911976L184.80992834091185,150.26844582263402L184.87954534053804,150.36606160951177L185.01877933979034,150.4468110919224L185.43648133754732,150.5616315306061L185.48289267063143,150.6378828074603L185.90059466838835,150.7497197155214L185.9934173345566,150.8314727516286L186.48073633193968,150.9572305623226L186.57355899810793,151.047255823915L186.73599866390228,151.12673818474556L187.03767232894896,151.22161763148037L187.1769063282013,151.30027924657267L187.50178565979004,151.3980728839039L187.78025365829467,151.4999887803215L188.12833865642548,151.61502012065205L188.31398398876192,151.71269900239025L188.33718965530394,151.77488513422898L188.84771431922914,151.89071588671067L188.94053698539733,151.974446762024L189.2654163169861,152.07439065277754L189.54388431549071,152.1768285498831L189.56708998203277,152.24182478442742L189.72952964782715,152.30553434586332L190.05440897941588,152.39305686590188L190.19364297866824,152.46664532112408L190.3560826444626,152.5353466996358L190.40249397754667,152.583573149571L190.61134497642516,152.64399210482463L190.65775630950927,152.68723015444422L190.68096197605132,152.71666488087877L191.12186964035035,152.80050617861446L191.1914866399765,152.86123104379413L191.40033763885498,152.92887926849238L191.70201130390168,153.0144262698753L192.25894730091096,153.14835607294896L192.6302379655838,153.28349282626718L192.88550029754637,153.4020997932447L193.30320229530335,153.53443023974435L193.53525896072387,153.64768071178594L193.55846462726595,153.71901127289618L193.69769862651825,153.78207109488105L193.86013829231263,153.84350303288375L193.95296095848084,153.893825232512L193.9761666250229,153.92738194320052L193.99937229156492,153.95087853677038L194.50989695549012,154.0387153170966L194.53310262203217,154.0947581229465L194.62592528820036,154.1417385195248L194.67233662128447,154.17659834772232L194.88118762016296,154.2274894467436L194.97401028633118,154.2713219801425L195.64697461605073,154.3935761679846L195.67018028259278,154.47022328807432L195.87903128147127,154.545818131951L195.9486482810974,154.60102673399263L196.1110879468918,154.6571054112733L196.3431446123123,154.72346145009962L196.36635027885438,154.76654084936132L196.4127616119385,154.79891633395357L196.52878994464874,154.83464538001672L196.66802394390106,154.87561485808425L196.76084661006928,154.91319827905474L196.8072579431534,154.942243638357L197.17854860782623,155.01149079811523L197.31778260707856,155.0724072171915L197.3409882736206,155.11218165686245L197.52663360595704,155.1618067812544L197.96754127025605,155.2525104689385L198.36203760147094,155.3611435740777L198.96538493156433,155.50867502981865L199.49911526203155,155.66947550517895L199.80078892707826,155.806573080959L199.8704059267044,155.89818000795037L200.58978158950808,156.04920756758358L200.61298725605013,156.14290618200562L200.98427792072297,156.2483022775102L201.007483587265,156.31460471460395L201.23954025268554,156.3849767238101L201.3091572523117,156.43635637598516L201.35556858539582,156.47328365982133L201.61083091735838,156.52891165954009L201.75006491661074,156.58049220516102L201.81968191623687,156.62052819565787L201.9125045824051,156.65665198382746L202.33020658016204,156.73257833699873L202.3534122467041,156.7811379708361L202.4462349128723,156.8222791538192L202.51585191249845,156.85595679492957L202.56226324558259,156.88215331273648L202.88714257717135,156.93968172283468L202.97996524333954,156.98610655662867L203.23522757530213,157.04661921656435L203.30484457492827,157.09181100821067L203.76895790576935,157.17790733986357L203.9546032381058,157.25303720856732L204.1866599035263,157.3273578079227L204.20986557006833,157.37486852490844L204.46512790203093,157.43540501358984L204.99885823249815,157.5382731158117L205.11488656520845,157.6143839440776L205.50938289642335,157.70877162553685L206.53043222427368,157.89002454010003L206.55363789081574,158.001583645249L206.64646055698395,158.07973700141554L206.73928322315214,158.13782919746396L207.15698522090912,158.22286374561617L207.29621922016142,158.29053008806372L208.29406288146973,158.44923429862948L208.47970821380616,158.56619818581365L208.66535354614257,158.65804518260643L208.68855921268462,158.71585673804776L209.08305554389955,158.7963267283242L209.38472920894623,158.87939568240873L209.47755187511444,158.9399015906392L209.732814207077,159.00543731083673L210.01128220558167,159.07648895469237L210.0808992052078,159.12702654566337L210.12731053829194,159.16261412914903L210.22013320446015,159.19448314509214L210.4057785367966,159.23458167697268L211.79811852931974,159.41358331060738L211.9373525285721,159.53624558437704L211.96055819511415,159.61238237879624L212.355054526329,159.7010533361253L212.51749419212342,159.77185749154236L213.05122452259064,159.87176249140813L213.14404718875883,159.94162761807993L213.39930952072143,160.01073348613542L213.4689265203476,160.05958629360222L213.86342285156252,160.13056679166806L214.00265685081482,160.1877787978692L214.3043305158615,160.25364098343576L214.76844384670258,160.34127422542477L214.97729484558107,160.41534758126346L215.3485855102539,160.49775866015042L215.394996843338,160.55192912947192L215.60384784221648,160.60562847591524L215.81269884109497,160.65894568023765L215.99834417343138,160.70960599384634L216.46245750427246,160.7863328300368L216.50886883735654,160.83697475086305L216.57848583698274,160.8742594677545L216.62489717006684,160.90122396661786L216.76413116931914,160.9311536050705L217.0425991678238,160.9764796121926L217.06580483436585,161.00594795600176L217.22824450016023,161.03950251164267L217.29786149978636,161.06641968968745L217.41388983249666,161.0938523484057L217.57632949829102,161.12605492785383L217.62274083137513,161.1498632620639L218.8062298250198,161.27687045966155L219.0614921569824,161.3769589312786L219.1311091566086,161.44349939232876L219.24713748931885,161.4942107382674L219.6184281539917,161.55894363887575L219.71125082015993,161.60630924158085L219.73445648670196,161.63685687673905L219.78086781978607,161.65943819503818L220.0129244852066,161.69417468065703L220.1057471513748,161.7234560430822L220.19856981754302,161.74944404662884L220.4074208164215,161.78390526171322L220.43062648296356,161.80667216563876L220.54665481567383,161.83076382413046L220.63947748184205,161.85354100818745L220.6626831483841,161.8692846223276L221.0107681465149,161.90973764285147L221.73014380931855,161.99717569520155L222.00861180782317,162.07375796463927L222.17105147361755,162.13369118211062L222.28707980632782,162.1796008351321L222.61195913791656,162.23483354113972L222.82081013679505,162.28563776300726L223.16889513492583,162.34532744983449L223.42415746688843,162.4023737482383L223.58659713268278,162.4500308931291L223.60980279922487,162.48053845359192L223.81865379810333,162.51600365612418L224.70046912670134,162.60856928374218L224.77008612632753,162.66965572227102L224.81649745941164,162.7099991396245L224.88611445903777,162.73973258484838L224.90932012557982,162.75941240539373L225.00214279174807,162.77856644019596L225.74472412109375,162.8480676751828L226.0696034526825,162.91472108219833L226.69615644931795,163.00210126967727L226.83539044857025,163.06492825701645L226.92821311473844,163.10953039791545L227.34591511249542,163.1671041283582L227.4619434452057,163.2101304669894L227.8100284433365,163.26119188399787L227.87964544296264,163.29684159116314L227.9492624425888,163.32323222500833L228.43658143997192,163.37373391484712L228.69184377193451,163.4219571563319L228.99351743698122,163.47186163349892L229.01672310352325,163.50340796448614L229.2487797689438,163.53829807201527L229.31839676856995,163.56399457202903L229.41121943473814,163.5857432337329L229.80571576595307,163.62545685928526L229.85212709903718,163.65239625358535L229.92174409866334,163.67321657613726L230.40906309604645,163.71796309540687L230.45547442913056,163.74785158896194L230.5715027618408,163.77336225118844L230.8267650938034,163.8052194787921L231.01241042613984,163.83626713948863L231.10523309230803,163.86082965371978L231.49972942352295,163.90054232708536L231.63896342277528,163.93309030255065L231.8710200881958,163.96704349801078L231.9174314212799,163.9902838325237L232.05666542053223,164.01280043771865L232.1726937532425,164.03341626432788L232.28872208595274,164.0528573864762L232.35833908557893,164.0687484883L232.70642408370972,164.09922984426544L232.72962975025177,164.118904110475L233.35618274688719,164.16759466035853L233.54182807922362,164.20754498679867L233.77388474464416,164.24481079132318L234.02914707660676,164.28163566602092L234.51646607398985,164.33088077728738L234.91096240520477,164.38195837514388L234.93416807174683,164.41385889462563L235.67674940109254,164.47239208831468L235.6999550676346,164.508720040965L235.8391890668869,164.53773573639586L237.04588372707366,164.61560149777068L237.0922950601578,164.66457057751194L237.25473472595215,164.70178155745435L237.32435172557828,164.72744257620116L237.4867913913727,164.75057046104283L238.1133443880081,164.79362273406346L238.60066338539124,164.84143676739683L238.8327200508118,164.88037462797666L239.20401071548463,164.91984280640287L239.2504220485687,164.94551148531303L239.29683338165282,164.96289477545682L239.4128617143631,164.9782552825064L240.15544304370883,165.01818924935105L240.27147137641907,165.0468182341322L240.52673370838167,165.07414176157835L240.5499393749237,165.0914497567868L240.57314504146575,165.1027469910817L240.6427620410919,165.11225414819657L241.01405270576478,165.1322963326485L241.64060570240022,165.1676916446616L241.71022270202636,165.19146146604962L242.17433603286744,165.22227998117626L242.31357003211974,165.2456268932084L242.3367756986618,165.26043935977796L242.94012302875518,165.2897379781203L243.10256269454956,165.3126475120826L243.26500236034394,165.33165357625754L244.03078935623168,165.3669118542305L244.10040635585787,165.39015811568086L244.54131402015685,165.41705125670322L244.5645196866989,165.43385415103614L244.7733706855774,165.44987434897178L244.93581035137177,165.46402491914668L245.00542735099793,165.47443879310157L245.1678670167923,165.485125109414L245.23748401641848,165.49341735124887L245.67839168071745,165.5100020274182L245.74800868034362,165.52173846326522L246.00327101230621,165.53521692609164L246.25853334426878,165.54956657402977L246.49059000968933,165.56371851439974L246.53700134277344,165.57330083840856L246.5602070093155,165.57959365356868L246.62982400894165,165.58499096193927L247.18676000595093,165.60073561831243L247.3027883386612,165.6126834154187L247.32599400520326,165.62034796833905L247.41881667137145,165.62691578944387L247.85972433567048,165.63989454618132L247.88293000221253,165.64814305787138L248.09178100109102,165.6571785872795L248.27742633342743,165.66613413486198L248.55589433193205,165.67663555594763L249.41450399398806,165.69743842871122L249.4841209936142,165.71100926885816L249.69297199249266,165.7223410298126L249.71617765903474,165.72948721537742L249.85541165828704,165.73582733758138L249.90182299137115,165.74030397453265L250.11067399024964,165.74594487784924L250.9228723192215,165.75970636382795L251.03890065193175,165.76930089326152L251.57263098239898,165.7807443411522L251.64224798202514,165.7882956564437L251.7118649816513,165.79349865207254L251.92071598052976,165.79855881532208L252.57047464370729,165.8068745943919L253.12741064071656,165.81548481981383L253.3594673061371,165.82191307535152L254.63577896595,165.830118847546L254.77501296520234,165.83525124025306L254.86783563137055,165.83838525109186L254.9374526309967,165.84026565759515L255.1927149629593,165.84139390149713L255.26233196258545,165.8420708478383" fill="none"></path></g></g></g></g><g opacity="0.2"><g><g><g><path style="fill: none;" stroke="rgb(255, 112, 67)" stroke-width="2px" d="M23.646574206352234,163.32292475975635L23.785808205604553,162.52687462069326L24.1570988702774,160.40407442147398L24.20351020336151,160.1387244609274L24.273127202987673,159.74069952010754L24.528389534950257,158.28127473710143L24.876474533081055,156.29115003300217L24.946091532707214,155.89312509218232L25.410204863548277,153.2396244570231L25.68867286205292,151.6475246937437L26.15278619289398,148.99402508827802L26.82575052261353,145.14645066035277L26.895367522239685,144.7484246898394L27.104218521118163,143.55434883768632L27.475509185791015,141.4315491533138L27.52192051887512,141.1661991927672L28.542969846725462,135.32850006074273L28.65899817943573,134.6651241296828L29.00708317756653,132.67500045527703L29.146317176818847,131.87895057363733L29.262345509529116,131.21557670196444L29.42478517532349,130.28685081035792L29.564019174575808,129.49079886933117L30.376217503547668,124.84717353007272L30.422628836631773,124.5818256289132L30.6082741689682,123.52042578672692L31.095593166351318,120.73424811190739L31.281238498687742,119.67284826972113L31.74535182952881,117.01934866425545L32.99845782279968,109.85490178888514L33.021663489341734,109.7222237195313L33.416159820556636,107.46675008457899L33.4857768201828,107.06872411406562L33.555393819808955,106.67069814355224L33.90347881793976,104.68057652853355L33.97309581756592,104.28255055802018L33.996301484107974,104.1498766074404L34.2283581495285,102.82312474532053L34.669265813827515,100.30229909043462L35.156584811210635,99.50665902681561L35.55108114242554,99.50810883529084L35.6671094751358,99.50873077017651L36.29366247177124,99.51367741784341L36.52571913719177,99.51618163248244L36.66495313644409,99.51785797353193L36.827392802238464,99.5199750234077L36.85059846878052,99.52029216901165L37.61638546466828,99.53280088588458L37.662796797752385,99.5336864223112L37.94126479625702,99.53929619260457L38.10370446205139,99.54281362566662L38.126910128593444,99.5433284724263L38.17332146167755,99.54437464104194L38.24293846130371,99.54596860660988L38.28934979438782,99.54704772541815L38.56781779289246,99.55383546509763L38.79987445831299,99.55989006299134L39.79771811962127,99.59005184555981L39.98336345195771,99.59639887641302L40.16900878429413,99.60298067738863L40.3778597831726,99.6106621910429L40.6795334482193,99.62227301516697L40.77235611438751,99.62596755551435L40.98120711326599,99.63449341785447L41.0740297794342,99.63837742180942L41.120441112518314,99.64033795827024L41.16685244560242,99.64231908860145L41.32929211139679,99.64935395472557L41.44532044410706,99.65448594722596L41.49173177719116,99.65656592813502L41.60776010990143,99.66182560263181L41.654171442985536,99.6639550088298L41.746994109153746,99.66825912774064L41.83981677532196,99.67262090948856L41.979050774574276,99.6792686108494L42.00225644111634,99.68038891739845L42.53598677158356,99.70716094890125L42.62880943775177,99.7120087459903L43.39459643363952,99.7542261802832L43.5570360994339,99.76368700433888L43.69627009868622,99.77193690881582L44.02114943027496,99.79168643051673L44.11397209644318,99.79745683299912L44.27641176223755,99.80770022412949L44.32282309532166,99.81065750391704L44.50846842765808,99.82263078015991L44.83334775924683,99.84414313716593L44.85655342578888,99.84570827131533L45.08861009120941,99.86154083886868L45.15822709083557,99.86635980453919L45.36707808971405,99.88101028393234L45.55272342205048,99.89428097400958L45.76157442092895,99.90947925035502L45.784780087471006,99.91118854159711L45.924014086723325,99.9215060706609L45.94721975326539,99.92323595577338L46.063248085975644,99.93195128172107L46.4809500837326,99.96406124442812L46.550567083358764,99.96952685762878L46.75941808223724,99.98611316083829L47.45558807849884,100.04349180250992L47.757261743545534,100.06935358494164L47.896495742797846,100.0814916121476L47.96611274242401,100.08760799165248L48.01252407550812,100.09170617185944L48.10534674167633,100.09993960124008L48.24458074092865,100.11240301159815L48.36060907363891,100.12288529162502L48.59266573905945,100.14411345321972L48.73189973831177,100.15702169117814L48.84792807102203,100.16787877964605L49.07998473644256,100.18985243934874L50.0546227312088,100.28603405160314L50.14744539737702,100.29551958830328L50.17065106391907,100.29790023972L50.19385673046112,100.30028089113671L50.61155872821808,100.34379573926397L50.913232393264764,100.37593865216364L51.21490605831146,100.40867466853047L51.81825338840484,100.47593836798775L52.09672138690948,100.50778472915385L52.35198371887207,100.53742342741451L52.42160071849823,100.54558271886175L52.49121771812439,100.55377084172753L52.955331048965455,100.60916835306796L53.094565048217774,100.62606356433326L53.25700471401215,100.64592841170835L53.39623871326447,100.66309546206277L53.767529377937315,100.7094893332701L53.83714637756348,100.71828703469933L54.09240870952606,100.75081711236228L54.162025709152225,100.75976308965829L54.23164270877838,100.76874201714693L54.254848375320435,100.77174048467525L55.36872036933899,100.91979393765985L55.43833736896515,100.9293165433267L55.50795436859131,100.93886798041208L55.53116003513336,100.94205591154795L56.041684699058536,101.01312535825272L56.320152697563174,101.0525996890101L56.5522093629837,101.08587114600697L56.64503202915191,101.09927775562876L57.225173692703244,101.1843180840039L57.248379359245305,101.18776549790665L57.50364169120788,101.22590122708888L57.68928702354431,101.25390065326675L57.78210968971252,101.26797862306316L57.82852102279663,101.27504232060582L58.57110235214234,101.38988609820471L58.66392501831055,101.404491271083L59.244066681861874,101.49699481808634L59.61535734653472,101.55731426444919L59.638563013076784,101.5611158929226L59.986648011207585,101.61850689091646L60.079470677375795,101.63393993738431L60.450761342048644,101.696219920208L60.4739670085907,101.70014099312964L60.98449167251587,101.78726542118794L61.10052000522614,101.80729501952611L61.2165483379364,101.82740699334585L61.28616533756256,101.83951618913326L61.40219367027283,101.85976408249755L61.471810669898986,101.87195153499243L61.750278668403624,101.92101437180189L61.93592400074005,101.95398927706519L62.098363666534425,101.98302251553648L62.2608033323288,102.01221638619677L62.46965433120727,102.04999378203426L62.562476997375484,102.06687251820327L62.60888833045959,102.07532836138408L62.6552996635437,102.0838006796612L62.724916663169864,102.09653592910838L62.88735632896423,102.12636409097658L63.09620732784271,102.16495288530733L63.32826399326324,102.20815058783063L63.42108665943146,102.22551945811483L63.46749799251556,102.23422654651436L63.537114992141724,102.24730777298404L63.65314332485199,102.26918258210888L63.72276032447815,102.2823461840601L63.7459659910202,102.28674091600064L64.21007932186127,102.3753275088564L64.41893032073975,102.41562147565516L64.55816431999206,102.44263651482854L64.72060398578644,102.47430164993524L64.7438096523285,102.47884053896848L64.95266065120697,102.51981822226409L65.11510031700135,102.55187875968222L65.60241931438446,102.64902004629664L65.69524198055267,102.6676904491893L65.9272986459732,102.71458681083406L66.02012131214143,102.73343843978611L66.2289723110199,102.77604715761636L66.5306459760666,102.83805942012502L66.60026297569274,102.85244629797722L66.73949697494507,102.8813147854854L66.78590830802918,102.89096095437456L67.57490097045898,103.05696402478829L67.71413496971131,103.08664802956379L68.1086313009262,103.17138356865722L68.34068796634675,103.22166556259357L68.4103049659729,103.23681441365008L68.456716299057,103.24692600400999L68.87441829681396,103.33853577703852L69.1992976284027,103.41050311649215L69.24570896148681,103.42083712065224L69.66341095924376,103.51440331136752L69.756233625412,103.53533492122862L69.94187895774841,103.5773546543658L70.33637528896331,103.66732103653747L70.47560928821564,103.69929507969998L71.03254528522491,103.82831979644722L71.3342189502716,103.89896912819609L71.40383594989777,103.91534949270172L71.42704161643982,103.92081510590238L71.47345294952392,103.93175456985183L71.51986428260804,103.94271050889759L71.61268694877624,103.96465533718174L71.70550961494446,103.9866537095289L71.86794928073883,104.0252672165041L72.21603427886964,104.10852411570376L73.00502694129943,104.29984940914507L73.09784960746765,104.32259327960023L73.26028927326202,104.36251655673202L73.46914027214049,104.41407125185827L73.74760827064513,104.48319663719853L73.97966493606567,104.54113955091876L74.02607626914977,104.55276273136506L74.07248760223389,104.56440238690766L74.18851593494416,104.5935509510531L74.25813293457031,104.61107633475225L74.44377826690673,104.65794798375255L74.53660093307495,104.6814579461861L75.00071426391601,104.79974090013958L75.11674259662628,104.82949904284848L75.13994826316834,104.83546302771248L75.18635959625244,104.8473909974405L75.2559765958786,104.86531178345108L75.34879926204681,104.88925009838867L75.37200492858886,104.89524291467121L75.53444459438323,104.93726676658247L75.60406159400941,104.95532759091168L75.72008992671965,104.98548113593199L76.16099759101868,105.10076150358309L76.3930542564392,105.16187587334288L76.53228825569153,105.19868535727221L76.67152225494384,105.23560604810162L76.76434492111206,105.26028162359906L77.04281291961671,105.33458842672862L77.06601858615875,105.34079953803727L77.64616024971008,105.49706170775805L77.85501124858857,105.55377310802915L78.66720957756041,105.77659054806591L78.69041524410248,105.78301171685251L78.73682657718659,105.79585817319978L79.75787590503693,106.08146632404582L79.94352123737336,106.13400540617656L80.10596090316773,106.1801233195207L80.15237223625184,106.1933281092127L80.19878356933593,106.20654525522694L80.3148119020462,106.23963136739033L80.89495356559753,106.40615752211188L80.9181592321396,106.41285464876165L81.15021589756012,106.4799989037707L81.19662723064424,106.4934590574555L81.31265556335448,106.52716710450457L81.63753489494324,106.62192773970229L81.77676889419556,106.66270772184218L81.98561989307403,106.7240733368207L82.33370489120485,106.82686146269516L82.42652755737305,106.85437899230598L82.47293889045716,106.86815217282066L83.05308055400849,107.04129719748451L83.33154855251313,107.12503187447714L83.56360521793366,107.19511693417742L83.70283921718597,107.2373014182777L84.09733554840088,107.35736780140667L84.23656954765319,107.39993533149614L84.25977521419524,107.40704021677958L84.584654545784,107.50678868738495L84.72388854503632,107.54970219449692L84.83991687774657,107.58554376651807L85.3736472082138,107.75127911661676L85.53608687400818,107.80201005692754L85.65211520671843,107.83832528796759L85.95378887176513,107.9330653292949L86.11622853755952,107.98426580985051L86.46431353569031,108.0944347788716L86.74278153419495,108.18300489663105L86.81239853382111,108.205205088908L87.13727786540986,108.3091341152019L87.94947619438172,108.57124054116255L87.97268186092377,108.57877789772411L87.99588752746583,108.58631525428567L88.41358952522278,108.72246545018672L88.76167452335358,108.83657196722578L89.87554651737213,109.20564295597534L90.08439751625062,109.27550560187544L90.29324851512908,109.3455741864794L90.4324825143814,109.39240464773893L90.91980151176453,109.55701969128859L90.96621284484863,109.57275752703816L90.98941851139068,109.58062850429998L92.0800848388672,109.95343933991178L92.26573017120361,110.01744920784796L92.79946050167084,110.2023492137286L93.00831150054933,110.27505381374206L93.10113416671753,110.30743149676415L93.19395683288575,110.33985036752702L93.47242483139038,110.43733351238986L93.54204183101653,110.46176196144265L93.72768716335297,110.52700334282795L93.79730416297912,110.55151004858823L94.3542401599884,110.74834214297096L94.44706282615662,110.78127997926755L94.49347415924072,110.79776331312513L95.14323282241821,111.02954732432829L95.67696315288545,111.2213256829181L96.02504815101624,111.34707185549976L96.21069348335266,111.41434791127928L96.32672181606293,111.45647473254246L96.44275014877319,111.49865509786866L96.58198414802551,111.54934896921274L96.95327481269837,111.68494313061336L97.37097681045533,111.83819035770951L97.39418247699737,111.84672445759779L97.55662214279175,111.90653317597507L97.62623914241792,111.93220137602515L98.18317513942719,112.13827188066338L98.25279213905334,112.16412542554694L98.41523180484772,112.22451900984319L98.48484880447388,112.25043845511199L98.50805447101594,112.25907964312628L98.55446580410003,112.2763743754771L98.57767147064209,112.28502380103954L99.15781313419342,112.50200493820869L99.3666641330719,112.58045522806007L99.92360013008118,112.79052506232742L100.1092454624176,112.8608284170538L100.43412479400635,112.98418981944467L100.4573304605484,112.99301635229243L100.85182679176332,113.14341750650114L101.52479112148285,113.4014092771585L101.57120245456696,113.41926416278385L101.80325911998749,113.50868274800322L102.1977554512024,113.66116800189506L102.31378378391265,113.70613265849755L102.82430844783784,113.90458754986676L103.00995378017426,113.97699971692074L103.26521611213684,114.07678113771874L103.31162744522095,114.09494905017395L103.47406711101532,114.15860470353948L103.61330111026764,114.21324436044968L103.77574077606201,114.2770812398746L103.91497477531432,114.33187741019974L103.9845917749405,114.35930020800677L104.37908810615541,114.51505164974195L104.65755610466005,114.6253400632113L104.7271731042862,114.65295644339996L104.88961277008056,114.71746056422542L105.26090343475342,114.86526689076538L105.30731476783752,114.88377666146901L105.44654876708984,114.93935539886886L105.53937143325805,114.97644495943544L105.91066209793091,115.12512034730572L106.3051584291458,115.28362724889865L106.76927175998688,115.47080493684406L107.18697375774384,115.63990944413804L107.23338509082794,115.65873636044563L107.27979642391205,115.67757151430138L107.34941342353821,115.70583454202018L107.41903042316436,115.73411816360938L107.81352675437927,115.89469680856322L108.06878908634185,115.998885317624L108.3936684179306,116.13180639464841L109.0898384141922,116.41782642290218L109.13624974727631,116.43694989094334L109.69318574428559,116.66700401703402L109.78600841045379,116.70544453549797L109.83241974353791,116.72467509166515L109.97165374279022,116.7824120666815L110.04127074241639,116.81130114806008L110.08768207550048,116.83056877319395L110.29653307437897,116.91736781810013L110.45897274017334,116.98497337580584L110.76064640522003,117.11074837980603L110.94629173755645,117.18829253936039L111.24796540260316,117.31452884605726L111.29437673568725,117.33397769725053L111.36399373531341,117.3631592115886L111.73528439998627,117.51905481041648L111.85131273269654,117.56785816445907L111.89772406578064,117.58738939113388L112.12978073120118,117.68515673140806L112.2226033973694,117.72430567901333L112.89556772708892,118.00893768040302L113.01159605979919,118.05814879307927L113.17403572559355,118.12710942745642L114.19508505344392,118.56235675930685L114.38073038578034,118.64182026758127L114.5431700515747,118.71142754948858L114.63599271774292,118.75123550094621L114.8912550497055,118.86083607914463L115.03048904895783,118.92069834158491L115.16972304821014,118.98061002931412L115.68024771213531,119.20075850374874L115.9355100440979,119.31109634250701L116.05153837680817,119.36130831728406L116.26038937568664,119.45178542744132L116.2835950422287,119.4618475925123L116.56206304073334,119.58268006761966L116.81732537269592,119.6936233661673L116.88694237232208,119.72391283073217L117.11899903774261,119.824962833946L118.20966536521911,120.30176447746287L118.32569369792938,120.3526684062849L118.34889936447144,120.36285001580413L118.58095602989196,120.46476908034828L120.27496968746185,121.21273845279597L120.53023201942445,121.32603769011587L120.5534376859665,121.33634698163148L120.5998490190506,121.35696556466273L120.64626035213472,121.37758826646804L120.71587735176087,121.40853261611122L120.73908301830292,121.41885014517499L121.31922468185424,121.67717553653263L121.43525301456451,121.72893205158867L121.50487001419067,121.75999996445415L121.69051534652709,121.84289853030909L121.94577767848969,121.95700916612222L122.15462867736817,122.05048062503371L122.22424567699433,122.08165974479928L122.24745134353638,122.09205141179646L122.59553634166717,122.24811176158744L122.96682700634003,122.41486033010916L123.10606100559234,122.47746569608496L123.19888367176057,122.51922594645526L123.40773467063903,122.61324520231906L123.45414600372315,122.63415209953571L123.66299700260163,122.72828256229958L123.75581966876985,122.77014578202183L124.01108200073243,122.88536436806176L124.61442933082581,123.158204319268L124.82328032970428,123.25281255982485L125.17136532783509,123.41068105143579L125.33380499362946,123.48443182006491L125.47303899288177,123.54768383357086L125.56586165905,123.5898724364452L125.58906732559204,123.60042473563139L126.02997498989106,123.80105433971343L126.09959198951721,123.83276478133499L126.93499598503112,124.21396555974238L127.07422998428345,124.27761709433382L127.42231498241425,124.43689008790514L127.46872631549834,124.4581429621443L127.86322264671325,124.63892831272165L127.88642831325531,124.64957122493753L128.32733597755433,124.85193895168022L128.35054164409638,124.86259833899241L128.42015864372254,124.89458473847716L128.629009642601,124.99058100589808L128.8842719745636,125.10800725484347L129.46441363811493,125.37524979207858L129.5340306377411,125.40735151723749L129.78929296970367,125.52512374320538L129.85890996932983,125.55725841855691L129.90532130241394,125.57868840008139L129.95173263549805,125.60011838160587L130.2302006340027,125.72876828991205L130.6246969652176,125.9112093876685L131.1120159626007,126.13687290059272L131.2744556283951,126.21216820950085L131.46010096073152,126.29825470649165L131.5529236268997,126.34131648947039L131.7153632926941,126.41670241140822L131.73856895923615,126.42747712439458L131.7617746257782,126.43824771860687L131.99383129119872,126.54601132356679L132.59717862129213,126.82651219455691L132.71320695400237,126.88050520393696L133.08449761867521,127.05338250828578L133.3397599506378,127.1723327036398L133.43258261680603,127.2156045440965L133.45578828334808,127.22642044482363L133.64143361568452,127.31299707592964L133.78066761493682,127.37795426190361L133.85028461456298,127.41044315182579L134.05913561344147,127.50793453423678L134.1519582796097,127.55127639385279L134.31439794540407,127.62714833113175L134.3376036119461,127.63798894450335L134.47683761119842,127.70304909982924L134.61607161045075,127.76812573025146L134.66248294353485,127.78982343209097L134.73209994316102,127.8223741036243L135.5442982721329,128.2024628130308L135.82276627063752,128.33292086315694L136.26367393493652,128.53961742145492L136.31008526802063,128.56138514245376L136.79740426540374,128.7900471229063L137.2615175962448,129.00799617198362L137.81845359325408,129.26974426459952L137.88807059288024,129.30247616219228L138.18974425792695,129.444359691609L138.37538959026338,129.53170653346749L138.58424058914184,129.6299928392754L138.653857588768,129.66276180583483L138.7002689218521,129.68460778354114L138.72347458839417,129.69553489116836L139.7445239162445,130.1765047340515L139.88375791549683,130.24213328020008L139.953374915123,130.27495167204845L140.11581458091734,130.35154027601686L140.41748824596405,130.4938027326487L140.46389957904813,130.51569401686984L140.4871052455902,130.52663759959339L140.6495449113846,130.6032632725285L141.06724690914155,130.80035073090403L141.60097723960874,131.05227966611955L141.71700557231904,131.10705936134835L142.18111890316007,131.32622138939146L142.2275302362442,131.34814150503115L142.3667642354965,131.41390185195021L142.9701115655899,131.69892513687725L143.0861398983002,131.75374601984686L143.48063622951508,131.94015555642684L143.89833822727203,132.13755604163222L144.08398355960844,132.22529622641508L144.6177138900757,132.47756496049197L144.7105365562439,132.52143814196396L144.80335922241213,132.565313382823L144.82656488895415,132.57628167819098L145.42991221904754,132.8614676546941L145.96364254951476,133.11373432938396L146.6366068792343,133.43177370731507L146.89186921119688,133.55239406555748L147.26315987586977,133.72781883167315L147.5880392074585,133.88129053195652L147.61124487400056,133.8922526491634L148.0753582048416,134.1114517461732L148.63229420185087,134.37440458020674L149.00358486652374,134.54964812026302L149.44449253082274,134.75768328013615L149.51410953044893,134.7905222658549L149.63013786315918,134.8452525357948L150.48874752521513,135.25005183027838L150.65118719100954,135.3265930683449L150.74400985717773,135.37032621149825L150.88324385643003,135.4359156292931L151.02247785568238,135.5014926907657L151.13850618839263,135.55613440706296L151.20812318801882,135.5889136705576L151.2545345211029,135.610765826425L151.8114705181122,135.8728866680949L151.99711585044858,135.96021703485707L152.3916121816635,136.1457142629789L152.50764051437378,136.2002530099242L152.55405184745788,136.22206397805084L152.8325198459625,136.3529050741662L152.87893117904665,136.37470780474467L153.01816517829894,136.44010158077083L153.2966331768036,136.57084588569535L153.41266150951387,136.62530431654616L153.64471817493438,136.7341882280551L153.87677484035493,136.84302889243625L154.5265335035324,137.1475339787492L154.57294483661653,137.16927080894246L154.66576750278472,137.21273623178078L155.01385250091553,137.37566463734575L155.96528482913973,137.82039544650928L156.03490182876587,137.85290081152777L156.45260382652282,138.04782385412565L156.8703058242798,138.24255743311596L157.2648021554947,138.4262918259327L157.33441915512083,138.4586962809863L157.45044748783113,138.5126913497534L157.56647582054137,138.56666994342416L157.98417781829835,138.7608619036233L158.0073834848404,138.7716448541578L158.4018798160553,138.95483762818338L158.47149681568146,138.98714529204616L158.6339364814758,139.06250650133953L159.26048947811125,139.35285947992267L159.3069008111954,139.37434712428424L159.46934047698974,139.4495271075182L159.88704247474672,139.64268113664986L160.09589347362518,139.73916547879892L160.30474447250367,139.83558803933687L160.5368011379242,139.9426493933166L160.79206346988678,140.06032482809366L160.884886136055,140.10309005933885L160.90809180259703,140.11378033745663L161.34899946689606,140.3167288113442L161.4650277996063,140.37008752951635L161.5114391326904,140.3914248386241L161.60426179885866,140.43408710051733L161.81311279773712,140.53003394264934L162.23081479549407,140.72171345066127L162.69492812633516,140.93435545933994L162.8109564590454,140.98746087290633L163.0198074579239,141.08299171885648L163.15904145717622,141.14663707528683L163.18224712371824,141.157242918536L163.2750697898865,141.19964981643645L163.34468678951265,141.23144675231364L163.85521145343782,141.46436342638808L164.27291345119477,141.65458488837663L164.36573611736299,141.69681261960474L164.48176445007326,141.74957617492268L164.8530551147461,141.91825232971263L164.89946644783018,141.93931779973124L165.13152311325072,142.04458954637437L165.27075711250305,142.1077035809487L165.31716844558716,142.12873198200066L165.45640244483945,142.19179659128608L165.5028137779236,142.2128085172417L165.5492251110077,142.2338183838103L165.82769310951232,142.35978285141806L165.87410444259643,142.38076182718106L165.92051577568054,142.40173668417L166.45424610614776,142.64264172056747L166.66309710502625,142.73675364884798L166.73271410465242,142.76810369773779L167.10400476932526,142.93513852105787L167.35926710128783,143.04980931014552L167.40567843437194,143.07064206942877L167.54491243362426,143.13311769402114L167.84658609867097,143.26834116575478L167.9626144313812,143.32029744135357L168.1250540971756,143.39298762565778L168.26428809642792,143.45524907399812L168.5659617614746,143.5900009460999L169.169309091568,143.8588971711271L169.70303942203523,144.09607677637158L169.79586208820342,144.13725833898403L169.81906775474548,144.14755115540333L169.98150742053988,144.21956174198476L170.37600375175475,144.39418746592943L170.63126608371735,144.5069842128119L170.88652841567995,144.61962238689236L171.0489680814743,144.69122109606607L171.18820208072663,144.75253934514268L171.7451380777359,144.99733250426917L173.0214497375488,145.55536666952668L173.11427240371705,145.5957862589348L173.41594606876373,145.72699598533006L173.76403106689452,145.8780911529708L173.94967639923098,145.95854316702378L173.972882065773,145.96859297577254L174.06570473194122,146.0087798544453L174.29776139736177,146.10913996300116L174.52981806278228,146.2093538550773L174.55302372932434,146.21936659485934L174.5762293958664,146.22937933464138L174.76187472820283,146.30941947128662L175.22598805904389,146.50910381671792L175.78292405605316,146.7479226940452L175.94536372184754,146.8174125908913L176.0149807214737,146.8471707336002L176.24703738689422,146.9462643191273L176.4558883857727,147.03531427406674L176.52550538539887,147.0649694474237L176.75756205081942,147.1637170559283L176.87359038352966,147.21303113795648L177.7089943790436,147.56691620668283L177.91784537792208,147.65505797193822L177.96425671100616,147.67462832696677L178.05707937717438,147.71374638376645L178.1963133764267,147.7723771327576L178.26593037605286,147.80166985399575L178.42837004184724,147.8699591281983L178.61401537418365,147.94790692761225L178.68363237380984,147.9771090358207L178.86927770614622,148.05490855936787L178.96210037231447,148.0937691927877L179.05492303848268,148.13260099478902L179.5886533689499,148.35536283137571L179.6814760351181,148.3940113479306L179.84391570091248,148.4615798366696L179.9367383670807,148.50015215590403L180.1920006990433,148.60608496578658L180.47046869754791,148.72140755087196L180.84175936222076,148.8747773114969L181.4219010257721,149.11350763518152L181.7699860239029,149.25620771155909L182.09486535549163,149.38902684892508L182.28051068782804,149.4647628666595L182.46615602016448,149.5403814993327L182.60539001941683,149.5970177319769L182.62859568595889,149.60644972461404L183.23194301605224,149.85105239043943L183.556822347641,149.98223740419024L184.13696401119233,150.2155700744465L184.53146034240723,150.37355286203808L184.80992834091185,150.4847340197887L184.87954534053804,150.5124852898284L185.01877933979034,150.5679353155383L185.43648133754732,150.7338621886316L185.48289267063143,150.75225972274163L185.90059466838835,150.91747507761306L185.9934173345566,150.95410230578946L186.48073633193968,151.1458672783635L186.57355899810793,151.18229371630363L186.73599866390228,151.2459617259914L187.03767232894896,151.3639368015826L187.1769063282013,151.41827166921107L187.50178565979004,151.54476333990073L187.78025365829467,151.65286262494794L188.12833865642548,151.78756713114785L188.31398398876192,151.85921732499753L188.33718965530394,151.86816433198706L188.84771431922914,152.06446201543324L188.94053698539733,152.100043074994L189.2654163169861,152.2243064889078L189.54388431549071,152.33048539554147L189.56708998203277,152.33931913624386L189.72952964782715,152.40109868801716L190.05440897941588,152.52434064595977L190.19364297866824,152.5770280039573L190.3560826444626,152.63839876740343L190.40249397754667,152.65591282447386L190.61134497642516,152.73462053770507L190.65775630950927,152.75208722887362L190.68096197605132,152.76081697053056L191.12186964035035,152.92626812521792L191.1914866399765,152.95231834156368L191.40033763885498,153.03035160553972L191.70201130390168,153.14274677194965L192.25894730091096,153.34925077755952L192.6302379655838,153.48619795624452L192.88550029754637,153.58001024371094L193.30320229530335,153.73292590949387L193.53525896072387,153.8175564198483L193.55846462726595,153.82600711456152L193.69769862651825,153.87666082785836L193.86013829231263,153.93565093988775L193.95296095848084,153.9693085319544L193.9761666250229,153.97771700923332L193.99937229156492,153.9861234271252L194.50989695549012,154.17047048758593L194.53310262203217,154.17882233172128L194.62592528820036,154.21220911439232L194.67233662128447,154.2288880900186L194.88118762016296,154.3038260952755L194.97401028633118,154.33707078024088L195.64697461605073,154.5769574497477L195.67018028259278,154.5851939682089L195.87903128147127,154.659210397766L195.9486482810974,154.6838396370551L196.1110879468918,154.7412234271943L196.3431446123123,154.8229955083391L196.36635027885438,154.8311599482539L196.4127616119385,154.84747956084192L196.52878994464874,154.88823894911144L196.66802394390106,154.93706907518552L196.76084661006928,154.96957341051046L196.8072579431534,154.98581167731044L197.17854860782623,155.11536153775253L197.31778260707856,155.16378184580591L197.3409882736206,155.17184331636884L197.52663360595704,155.23624446784237L197.96754127025605,155.38856600046464L198.36203760147094,155.52409323178648L198.96538493156433,155.7299722134301L199.49911526203155,155.91067621821944L199.80078892707826,156.01221944462904L199.8704059267044,156.03559039843748L200.58978158950808,156.2757489070334L200.61298725605013,156.28345410363863L200.98427792072297,156.40639642076712L201.007483587265,156.4140583702445L201.23954025268554,156.49053473761933L201.3091572523117,156.51342585424774L201.35556858539582,156.52867458557563L201.61083091735838,156.6123536591182L201.75006491661074,156.65786302359243L201.81968191623687,156.68058218140314L201.9125045824051,156.71083766608186L202.33020658016204,156.84646786675566L202.3534122467041,156.8539774215922L202.4462349128723,156.88399092829388L202.51585191249845,156.90647325659512L202.56226324558259,156.92144808944687L202.88714257717135,157.02597433798198L202.97996524333954,157.05574380731957L203.23522757530213,157.13738820646796L203.30484457492827,157.1595986956801L203.76895790576935,157.30705183734293L203.9546032381058,157.365732011623L204.1866599035263,157.43883870695578L204.20986557006833,157.44613460038707L204.46512790203093,157.52620974661195L204.99885823249815,157.6925752691445L205.11488656520845,157.72855018647638L205.50938289642335,157.85035314772574L206.53043222427368,158.16190391194476L206.55363789081574,158.16892230297256L206.64646055698395,158.19696703566527L206.73928322315214,158.22496749153666L207.15698522090912,158.35041556784446L207.29621922016142,158.39202960173503L208.29406288146973,158.68729061447812L208.47970821380616,158.74164401658993L208.66535354614257,158.79581567779556L208.68855921268462,158.80257407120976L209.08305554389955,158.9170317137389L209.38472920894623,159.00399911353549L209.47755187511444,159.03066045298496L209.732814207077,159.10374089113301L210.01128220558167,159.18306642047582L210.0808992052078,159.2028329321198L210.12731053829194,159.21599550437753L210.22013320446015,159.2422866690068L210.4057785367966,159.29472947479348L211.79811852931974,159.68208576105945L211.9373525285721,159.72023899503154L211.96055819511415,159.726587570425L212.355054526329,159.83405977211896L212.51749419212342,159.8780637246679L213.05122452259064,160.0216199912068L213.14404718875883,160.04642530808766L213.39930952072143,160.11439228821865L213.4689265203476,160.13286550480237L213.86342285156252,160.23703753876683L214.00265685081482,160.27359680717095L214.3043305158615,160.35243426178562L214.76844384670258,160.47272408840828L214.97729484558107,160.52645761502146L215.3485855102539,160.62137527848085L215.394996843338,160.63318483345415L215.60384784221648,160.68617749558018L215.81269884109497,160.73892148672127L215.99834417343138,160.78559646425938L216.46245750427246,160.9014230843225L216.50886883735654,160.91293763210248L216.57848583698274,160.93018654309168L216.62489717006684,160.94167071491287L216.76413116931914,160.97604806274953L217.0425991678238,161.04446862287577L217.06580483436585,161.05015047171548L217.22824450016023,161.08983434510404L217.29786149978636,161.1067954567546L217.41388983249666,161.1350013364831L217.57632949829102,161.174358797026L217.62274083137513,161.18557576337892L218.8062298250198,161.46738125605805L219.0614921569824,161.52709163870423L219.1311091566086,161.54331008390395L219.24713748931885,161.57027775717543L219.6184281539917,161.6560429897882L219.71125082015993,161.67735764563852L219.73445648670196,161.68267832947632L219.78086781978607,161.6933101724869L220.0129244852066,161.74627940908533L220.1057471513748,161.76737808671996L220.19856981754302,161.78842605194876L220.4074208164215,161.8355970843398L220.43062648296356,161.84082252152706L220.54665481567383,161.866901311868L220.63947748184205,161.88770678427298L220.6626831483841,161.89290004353776L221.0107681465149,161.97041717363726L221.73014380931855,162.1283327737267L222.00861180782317,162.1886313687958L222.17105147361755,162.22359100831764L222.28707980632782,162.24846531466432L222.61195913791656,162.31768260015116L222.82081013679505,162.36184409580855L223.16889513492583,162.43486198007528L223.42415746688843,162.48794319584397L223.58659713268278,162.5215166104654L223.60980279922487,162.5262997942861L223.81865379810333,162.5692014599226L224.70046912670134,162.74741772516919L224.77008612632753,162.76128538006427L224.81649745941164,162.77051426565473L224.88611445903777,162.78433275268424L224.90932012557982,162.78893213621174L225.00214279174807,162.8072974923993L225.74472412109375,162.95231952766298L226.0696034526825,163.0147011927217L226.69615644931795,163.1331715508957L226.83539044857025,163.15916873802522L226.92821311473844,163.17643360926397L227.34591511249542,163.2534647240223L227.4619434452057,163.2746699749362L227.8100284433365,163.33778400951056L227.87964544296264,163.35031615191104L227.9492624425888,163.36281817577608L228.43658143997192,163.44948644960533L228.69184377193451,163.49429201855907L228.99351743698122,163.54671834924946L229.01672310352325,163.55072746096698L229.2487797689438,163.59063323330898L229.31839676856995,163.6025393220497L229.41121943473814,163.61836622628869L229.80571576595307,163.6850272976138L229.85212709903718,163.6928053450355L229.92174409866334,163.70444705996513L230.40906309604645,163.7850828743113L230.45547442913056,163.79268432929447L230.5715027618408,163.81162824452818L230.8267650938034,163.8530053201976L231.01241042613984,163.8828386305334L231.10523309230803,163.89767342506653L231.49972942352295,163.96011133713375L231.63896342277528,163.98191226574855L231.8710200881958,164.017973291201L231.9174314212799,164.02514433429306L232.05666542053223,164.04657534551106L232.1726937532425,164.06434000424179L232.28872208595274,164.08201906969867L232.35833908557893,164.0925851410357L232.70642408370972,164.14495187821362L232.72962975025177,164.14841550978932L233.35618274688719,164.24063048518383L233.54182807922362,164.26747047645893L233.77388474464416,164.30070949810994L234.02914707660676,164.33687297806756L234.51646607398985,164.40474844418702L234.91096240520477,164.45857477192862L234.93416807174683,164.46170967384825L235.67674940109254,164.56019187884823L235.6999550676346,164.56321196994045L235.8391890668869,164.58125927954222L237.04588372707366,164.73240013983286L237.0922950601578,164.73802419712382L237.25473472595215,164.757598027368L237.32435172557828,164.76593410432133L237.4867913913727,164.78526228830532L238.1133443880081,164.85820114359444L238.60066338539124,164.9131578173969L238.8327200508118,164.93878141884642L239.20401071548463,164.9790450740422L239.2504220485687,164.98401450367822L239.29683338165282,164.9889697106725L239.4128617143631,165.00129604308083L240.15544304370883,165.07809019961803L240.27147137641907,165.0897617113039L240.52673370838167,165.1151270527476L240.5499393749237,165.11741174959948L240.57314504146575,165.11969284252405L240.6427620410919,165.12651488386888L241.01405270576478,165.16235960932642L241.64060570240022,165.22078461268126L241.71022270202636,165.22711619813165L242.17433603286744,165.2685077538662L242.31357003211974,165.2806472612566L242.3367756986618,165.28265805963233L242.94012302875518,165.33368590563384L243.10256269454956,165.34701181302606L243.26500236034394,165.36016267251998L244.03078935623168,165.4197992711899L244.10040635585787,165.4250275078564L244.54131402015685,165.45739096823678L244.5645196866989,165.4590584925355L244.7733706855774,165.47390464587525L244.93581035137177,165.485250774409L245.00542735099793,165.49005960403392L245.1678670167923,165.5011545838827L245.23748401641848,165.50585571400111L245.67839168071745,165.53487904167227L245.74800868034362,165.53934311703574L246.00327101230621,165.55543462033128L246.25853334426878,165.57109104593698L246.49059000968933,165.58494642495464L246.53700134277344,165.58767432442178L246.5602070093155,165.58903287630886L246.62982400894165,165.59308692449514L247.18676000595093,165.6243526028722L247.3027883386612,165.63060511107813L247.32599400520326,165.63184479771957L247.41881667137145,165.6367675211011L247.85972433567048,165.65936268128752L247.88293000221253,165.66051582540643L248.09178100109102,165.67073188139167L248.27742633342743,165.67956745623567L248.55589433193205,165.69238768757612L249.41450399398806,165.72864273785663L249.4841209936142,165.7313655290786L249.69297199249266,165.7393386712443L249.71617765903474,165.7402064937246L249.85541165828704,165.74533752088732L249.90182299137115,165.74701892995958L250.11067399024964,165.75440623282415L250.9228723192215,165.78034859279597L251.03890065193175,165.7836926874119L251.57263098239898,165.79790951298827L251.64224798202514,165.7996226293809L251.7118649816513,165.80130314551585L251.92071598052976,165.80614906019642L252.57047464370729,165.8193482629966L253.12741064071656,165.82840015794673L253.3594673061371,165.83155545865807L254.63577896595,165.8424275058377L254.77501296520234,165.84294982931362L254.86783563137055,165.8430862673501L254.9374526309967,165.8430862673501L255.1927149629593,165.8430862673501L255.26233196258545,165.8430862673501" fill="none"></path></g></g></g></g></g></g><g transform="translate(51, 176)" clip-path="url(#clip_1)"><clipPath id="clip_1"><rect width="278" height="23"></rect></clipPath><g><g><line x1="0" y1="0" x2="0" y2="5" style="visibility: inherit;" fill="rgb(0, 0, 0)" stroke="rgb(204, 204, 204)" stroke-width="1px"></line><line x1="23.205666542053223" y1="0" x2="23.205666542053223" y2="5" style="visibility: inherit;" fill="rgb(0, 0, 0)" stroke="rgb(204, 204, 204)" stroke-width="1px"></line><line x1="46.411333084106445" y1="0" x2="46.411333084106445" y2="5" style="visibility: inherit;" fill="rgb(0, 0, 0)" stroke="rgb(204, 204, 204)" stroke-width="1px"></line><line x1="69.61699962615967" y1="0" x2="69.61699962615967" y2="5" style="visibility: inherit;" fill="rgb(0, 0, 0)" stroke="rgb(204, 204, 204)" stroke-width="1px"></line><line x1="92.82266616821289" y1="0" x2="92.82266616821289" y2="5" style="visibility: inherit;" fill="rgb(0, 0, 0)" stroke="rgb(204, 204, 204)" stroke-width="1px"></line><line x1="116.02833271026611" y1="0" x2="116.02833271026611" y2="5" style="visibility: inherit;" fill="rgb(0, 0, 0)" stroke="rgb(204, 204, 204)" stroke-width="1px"></line><line x1="139.23399925231934" y1="0" x2="139.23399925231934" y2="5" style="visibility: inherit;" fill="rgb(0, 0, 0)" stroke="rgb(204, 204, 204)" stroke-width="1px"></line><line x1="162.43966579437256" y1="0" x2="162.43966579437256" y2="5" style="visibility: inherit;" fill="rgb(0, 0, 0)" stroke="rgb(204, 204, 204)" stroke-width="1px"></line><line x1="185.64533233642578" y1="0" x2="185.64533233642578" y2="5" style="visibility: inherit;" fill="rgb(0, 0, 0)" stroke="rgb(204, 204, 204)" stroke-width="1px"></line><line x1="208.850998878479" y1="0" x2="208.850998878479" y2="5" style="visibility: inherit;" fill="rgb(0, 0, 0)" stroke="rgb(204, 204, 204)" stroke-width="1px"></line><line x1="232.05666542053223" y1="0" x2="232.05666542053223" y2="5" style="visibility: inherit;" fill="rgb(0, 0, 0)" stroke="rgb(204, 204, 204)" stroke-width="1px"></line><line x1="255.26233196258545" y1="0" x2="255.26233196258545" y2="5" style="visibility: inherit;" fill="rgb(0, 0, 0)" stroke="rgb(204, 204, 204)" stroke-width="1px"></line><line x1="278.4679985046387" y1="0" x2="278.4679985046387" y2="5" style="visibility: inherit;" fill="rgb(0, 0, 0)" stroke="rgb(204, 204, 204)" stroke-width="1px"></line></g><g transform="translate(0, 8)"><text style="text-anchor: middle; visibility: hidden; font-family: Roboto, sans-serif; font-size: 12px; font-weight: 200;" x="0" y="0" dx="0em" dy="0.95em" fill="rgb(33, 33, 33)" stroke="none" stroke-width="1px">-1k</text><text style="text-anchor: middle; visibility: inherit; font-family: Roboto, sans-serif; font-size: 12px; font-weight: 200;" x="23.205666542053223" y="0" dx="0em" dy="0.95em" fill="rgb(33, 33, 33)" stroke="none" stroke-width="1px">0</text><text style="text-anchor: middle; visibility: inherit; font-family: Roboto, sans-serif; font-size: 12px; font-weight: 200;" x="46.411333084106445" y="0" dx="0em" dy="0.95em" fill="rgb(33, 33, 33)" stroke="none" stroke-width="1px">1k</text><text style="text-anchor: middle; visibility: inherit; font-family: Roboto, sans-serif; font-size: 12px; font-weight: 200;" x="69.61699962615967" y="0" dx="0em" dy="0.95em" fill="rgb(33, 33, 33)" stroke="none" stroke-width="1px">2k</text><text style="text-anchor: middle; visibility: inherit; font-family: Roboto, sans-serif; font-size: 12px; font-weight: 200;" x="92.82266616821289" y="0" dx="0em" dy="0.95em" fill="rgb(33, 33, 33)" stroke="none" stroke-width="1px">3k</text><text style="text-anchor: middle; visibility: inherit; font-family: Roboto, sans-serif; font-size: 12px; font-weight: 200;" x="116.02833271026611" y="0" dx="0em" dy="0.95em" fill="rgb(33, 33, 33)" stroke="none" stroke-width="1px">4k</text><text style="text-anchor: middle; visibility: inherit; font-family: Roboto, sans-serif; font-size: 12px; font-weight: 200;" x="139.23399925231934" y="0" dx="0em" dy="0.95em" fill="rgb(33, 33, 33)" stroke="none" stroke-width="1px">5k</text><text style="text-anchor: middle; visibility: inherit; font-family: Roboto, sans-serif; font-size: 12px; font-weight: 200;" x="162.43966579437256" y="0" dx="0em" dy="0.95em" fill="rgb(33, 33, 33)" stroke="none" stroke-width="1px">6k</text><text style="text-anchor: middle; visibility: inherit; font-family: Roboto, sans-serif; font-size: 12px; font-weight: 200;" x="185.64533233642578" y="0" dx="0em" dy="0.95em" fill="rgb(33, 33, 33)" stroke="none" stroke-width="1px">7k</text><text style="text-anchor: middle; visibility: inherit; font-family: Roboto, sans-serif; font-size: 12px; font-weight: 200;" x="208.850998878479" y="0" dx="0em" dy="0.95em" fill="rgb(33, 33, 33)" stroke="none" stroke-width="1px">8k</text><text style="text-anchor: middle; visibility: inherit; font-family: Roboto, sans-serif; font-size: 12px; font-weight: 200;" x="232.05666542053223" y="0" dx="0em" dy="0.95em" fill="rgb(33, 33, 33)" stroke="none" stroke-width="1px">9k</text><text style="text-anchor: middle; visibility: inherit; font-family: Roboto, sans-serif; font-size: 12px; font-weight: 200;" x="255.26233196258545" y="0" dx="0em" dy="0.95em" fill="rgb(33, 33, 33)" stroke="none" stroke-width="1px">10k</text><text style="text-anchor: middle; visibility: hidden; font-family: Roboto, sans-serif; font-size: 12px; font-weight: 200;" x="278.4679985046387" y="0" dx="0em" dy="0.95em" fill="rgb(33, 33, 33)" stroke="none" stroke-width="1px">11k</text></g><line x1="0" y1="0" x2="278.4679985046387" y2="0" fill="rgb(0, 0, 0)" stroke="rgb(204, 204, 204)" stroke-width="1px"></line></g></g></g></g></svg>