<svg viewBox="0 0 330 200" xmlns="http://www.w3.org/2000/svg"><g><g><g><g><g><line x1="58.72000217437744" y1="173.5999984741211" x2="53.72000217437744" y2="173.5999984741211" style="visibility: inherit;" fill="rgb(0, 0, 0)" stroke="rgb(204, 204, 204)" stroke-width="1px"></line><line x1="58.72000217437744" y1="157.81818043101916" x2="53.72000217437744" y2="157.81818043101916" style="visibility: inherit;" fill="rgb(0, 0, 0)" stroke="rgb(204, 204, 204)" stroke-width="1px"></line><line x1="58.72000217437744" y1="142.03636238791725" x2="53.72000217437744" y2="142.03636238791725" style="visibility: inherit;" fill="rgb(0, 0, 0)" stroke="rgb(204, 204, 204)" stroke-width="1px"></line><line x1="58.72000217437744" y1="126.25454434481534" x2="53.72000217437744" y2="126.25454434481534" style="visibility: inherit;" fill="rgb(0, 0, 0)" stroke="rgb(204, 204, 204)" stroke-width="1px"></line><line x1="58.72000217437744" y1="110.47272630171342" x2="53.72000217437744" y2="110.47272630171342" style="visibility: inherit;" fill="rgb(0, 0, 0)" stroke="rgb(204, 204, 204)" stroke-width="1px"></line><line x1="58.72000217437744" y1="94.6909082586115" x2="53.72000217437744" y2="94.6909082586115" style="visibility: inherit;" fill="rgb(0, 0, 0)" stroke="rgb(204, 204, 204)" stroke-width="1px"></line><line x1="58.72000217437744" y1="78.9090902155096" x2="53.72000217437744" y2="78.9090902155096" style="visibility: inherit;" fill="rgb(0, 0, 0)" stroke="rgb(204, 204, 204)" stroke-width="1px"></line><line x1="58.72000217437744" y1="63.12727217240767" x2="53.72000217437744" y2="63.12727217240767" style="visibility: inherit;" fill="rgb(0, 0, 0)" stroke="rgb(204, 204, 204)" stroke-width="1px"></line><line x1="58.72000217437744" y1="47.34545412930577" x2="53.72000217437744" y2="47.34545412930577" style="visibility: inherit;" fill="rgb(0, 0, 0)" stroke="rgb(204, 204, 204)" stroke-width="1px"></line><line x1="58.72000217437744" y1="31.563636086203825" x2="53.72000217437744" y2="31.563636086203825" style="visibility: inherit;" fill="rgb(0, 0, 0)" stroke="rgb(204, 204, 204)" stroke-width="1px"></line><line x1="58.72000217437744" y1="15.781818043101923" x2="53.72000217437744" y2="15.781818043101923" style="visibility: inherit;" fill="rgb(0, 0, 0)" stroke="rgb(204, 204, 204)" stroke-width="1px"></line><line x1="58.72000217437744" y1="0" x2="53.72000217437744" y2="0" style="visibility: inherit;" fill="rgb(0, 0, 0)" stroke="rgb(204, 204, 204)" stroke-width="1px"></line></g><g transform="translate(48.72000217437744, 0)"><text style="text-anchor: end; visibility: hidden; font-family: Roboto, sans-serif; font-size: 12px; font-weight: 200;" x="0" y="173.5999984741211" dx="0em" dy="0.3em" fill="rgb(33, 33, 33)" stroke="none" stroke-width="1px">-1e-5</text><text style="text-anchor: end; visibility: inherit; font-family: Roboto, sans-serif; font-size: 12px; font-weight: 200;" x="0" y="157.81818043101916" dx="0em" dy="0.3em" fill="rgb(33, 33, 33)" stroke="none" stroke-width="1px">0</text><text style="text-anchor: end; visibility: hidden; font-family: Roboto, sans-serif; font-size: 12px; font-weight: 200;" x="0" y="142.03636238791725" dx="0em" dy="0.3em" fill="rgb(33, 33, 33)" stroke="none" stroke-width="1px">1e-5</text><text style="text-anchor: end; visibility: inherit; font-family: Roboto, sans-serif; font-size: 12px; font-weight: 200;" x="0" y="126.25454434481534" dx="0em" dy="0.3em" fill="rgb(33, 33, 33)" stroke="none" stroke-width="1px">2e-5</text><text style="text-anchor: end; visibility: hidden; font-family: Roboto, sans-serif; font-size: 12px; font-weight: 200;" x="0" y="110.47272630171342" dx="0em" dy="0.3em" fill="rgb(33, 33, 33)" stroke="none" stroke-width="1px">3e-5</text><text style="text-anchor: end; visibility: inherit; font-family: Roboto, sans-serif; font-size: 12px; font-weight: 200;" x="0" y="94.6909082586115" dx="0em" dy="0.3em" fill="rgb(33, 33, 33)" stroke="none" stroke-width="1px">4e-5</text><text style="text-anchor: end; visibility: hidden; font-family: Roboto, sans-serif; font-size: 12px; font-weight: 200;" x="0" y="78.9090902155096" dx="0em" dy="0.3em" fill="rgb(33, 33, 33)" stroke="none" stroke-width="1px">5e-5</text><text style="text-anchor: end; visibility: inherit; font-family: Roboto, sans-serif; font-size: 12px; font-weight: 200;" x="0" y="63.12727217240767" dx="0em" dy="0.3em" fill="rgb(33, 33, 33)" stroke="none" stroke-width="1px">6e-5</text><text style="text-anchor: end; visibility: hidden; font-family: Roboto, sans-serif; font-size: 12px; font-weight: 200;" x="0" y="47.34545412930577" dx="0em" dy="0.3em" fill="rgb(33, 33, 33)" stroke="none" stroke-width="1px">7e-5</text><text style="text-anchor: end; visibility: inherit; font-family: Roboto, sans-serif; font-size: 12px; font-weight: 200;" x="0" y="31.563636086203825" dx="0em" dy="0.3em" fill="rgb(33, 33, 33)" stroke="none" stroke-width="1px">8e-5</text><text style="text-anchor: end; visibility: hidden; font-family: Roboto, sans-serif; font-size: 12px; font-weight: 200;" x="0" y="15.781818043101923" dx="0em" dy="0.3em" fill="rgb(33, 33, 33)" stroke="none" stroke-width="1px">9e-5</text><text style="text-anchor: end; visibility: hidden; font-family: Roboto, sans-serif; font-size: 12px; font-weight: 200;" x="0" y="0" dx="0em" dy="0.3em" fill="rgb(33, 33, 33)" stroke="none" stroke-width="1px">1e-4</text></g><line x1="58.72000217437744" y1="0" x2="58.72000217437744" y2="173.5999984741211" fill="rgb(0, 0, 0)" stroke="rgb(204, 204, 204)" stroke-width="1px"></line></g></g><g transform="translate(58, 0)" clip-path="url(#clip_0)"><clipPath id="clip_0"><rect width="271" height="173"></rect></clipPath><g><g><g><line x1="0" y1="0" x2="0" y2="173.5999984741211" fill="rgb(0, 0, 0)" stroke="rgb(66, 66, 66)" stroke-width="1px" opacity="0.25"></line><line x1="22.606666485468544" y1="0" x2="22.606666485468544" y2="173.5999984741211" fill="rgb(0, 0, 0)" stroke="rgb(66, 66, 66)" stroke-width="1px" opacity="0.25"></line><line x1="45.21333297093709" y1="0" x2="45.21333297093709" y2="173.5999984741211" fill="rgb(0, 0, 0)" stroke="rgb(66, 66, 66)" stroke-width="1px" opacity="0.25"></line><line x1="67.81999945640564" y1="0" x2="67.81999945640564" y2="173.5999984741211" fill="rgb(0, 0, 0)" stroke="rgb(66, 66, 66)" stroke-width="1px" opacity="0.25"></line><line x1="90.42666594187418" y1="0" x2="90.42666594187418" y2="173.5999984741211" fill="rgb(0, 0, 0)" stroke="rgb(66, 66, 66)" stroke-width="1px" opacity="0.25"></line><line x1="113.03333242734274" y1="0" x2="113.03333242734274" y2="173.5999984741211" fill="rgb(0, 0, 0)" stroke="rgb(66, 66, 66)" stroke-width="1px" opacity="0.25"></line><line x1="135.63999891281128" y1="0" x2="135.63999891281128" y2="173.5999984741211" fill="rgb(0, 0, 0)" stroke="rgb(66, 66, 66)" stroke-width="1px" opacity="0.25"></line><line x1="158.24666539827984" y1="0" x2="158.24666539827984" y2="173.5999984741211" fill="rgb(0, 0, 0)" stroke="rgb(66, 66, 66)" stroke-width="1px" opacity="0.25"></line><line x1="180.85333188374835" y1="0" x2="180.85333188374835" y2="173.5999984741211" fill="rgb(0, 0, 0)" stroke="rgb(66, 66, 66)" stroke-width="1px" opacity="0.25"></line><line x1="203.45999836921692" y1="0" x2="203.45999836921692" y2="173.5999984741211" fill="rgb(0, 0, 0)" stroke="rgb(66, 66, 66)" stroke-width="1px" opacity="0.25"></line><line x1="226.06666485468548" y1="0" x2="226.06666485468548" y2="173.5999984741211" fill="rgb(0, 0, 0)" stroke="rgb(66, 66, 66)" stroke-width="1px" opacity="0.25"></line><line x1="248.673331340154" y1="0" x2="248.673331340154" y2="173.5999984741211" fill="rgb(0, 0, 0)" stroke="rgb(66, 66, 66)" stroke-width="1px" opacity="0.25"></line><line x1="271.27999782562256" y1="0" x2="271.27999782562256" y2="173.5999984741211" fill="rgb(0, 0, 0)" stroke="rgb(66, 66, 66)" stroke-width="1px" opacity="0.25"></line></g><g><line x1="0" y1="173.5999984741211" x2="271.27999782562256" y2="173.5999984741211" fill="rgb(0, 0, 0)" stroke="rgb(66, 66, 66)" stroke-width="1px" opacity="0.25"></line><line x1="0" y1="157.81818043101916" x2="271.27999782562256" y2="157.81818043101916" fill="rgb(0, 0, 0)" stroke="rgb(66, 66, 66)" stroke-width="1px" opacity="0.25"></line><line x1="0" y1="142.03636238791725" x2="271.27999782562256" y2="142.03636238791725" fill="rgb(0, 0, 0)" stroke="rgb(66, 66, 66)" stroke-width="1px" opacity="0.25"></line><line x1="0" y1="126.25454434481534" x2="271.27999782562256" y2="126.25454434481534" fill="rgb(0, 0, 0)" stroke="rgb(66, 66, 66)" stroke-width="1px" opacity="0.25"></line><line x1="0" y1="110.47272630171342" x2="271.27999782562256" y2="110.47272630171342" fill="rgb(0, 0, 0)" stroke="rgb(66, 66, 66)" stroke-width="1px" opacity="0.25"></line><line x1="0" y1="94.6909082586115" x2="271.27999782562256" y2="94.6909082586115" fill="rgb(0, 0, 0)" stroke="rgb(66, 66, 66)" stroke-width="1px" opacity="0.25"></line><line x1="0" y1="78.9090902155096" x2="271.27999782562256" y2="78.9090902155096" fill="rgb(0, 0, 0)" stroke="rgb(66, 66, 66)" stroke-width="1px" opacity="0.25"></line><line x1="0" y1="63.12727217240767" x2="271.27999782562256" y2="63.12727217240767" fill="rgb(0, 0, 0)" stroke="rgb(66, 66, 66)" stroke-width="1px" opacity="0.25"></line><line x1="0" y1="47.34545412930577" x2="271.27999782562256" y2="47.34545412930577" fill="rgb(0, 0, 0)" stroke="rgb(66, 66, 66)" stroke-width="1px" opacity="0.25"></line><line x1="0" y1="31.563636086203825" x2="271.27999782562256" y2="31.563636086203825" fill="rgb(0, 0, 0)" stroke="rgb(66, 66, 66)" stroke-width="1px" opacity="0.25"></line><line x1="0" y1="15.781818043101923" x2="271.27999782562256" y2="15.781818043101923" fill="rgb(0, 0, 0)" stroke="rgb(66, 66, 66)" stroke-width="1px" opacity="0.25"></line><line x1="0" y1="0" x2="271.27999782562256" y2="0" fill="rgb(0, 0, 0)" stroke="rgb(66, 66, 66)" stroke-width="1px" opacity="0.25"></line></g></g></g><g><g><line x1="0" y1="157.81818043101916" x2="271.27999782562256" y2="157.81818043101916" fill="rgb(0, 0, 0)" stroke="rgb(153, 153, 153)" stroke-width="1.5px"></line></g></g><g><g><line x1="22.606666485468544" y1="0" x2="22.606666485468544" y2="173.5999984741211" fill="rgb(0, 0, 0)" stroke="rgb(153, 153, 153)" stroke-width="1.5px"></line></g></g><g><g><g><g><g><path style="fill: none;" stroke="rgb(255, 112, 67)" stroke-width="2px" d="M22.606666485468544,157.50254406646857L24.8673331340154,147.65863539699484L27.127999782562256,136.60934991545616L29.38866643110911,124.49649678843012L31.649333079655964,111.48687999010856L33.90999972820282,97.75181388036259L36.17066637674967,83.45116801366635L38.43133302529653,68.72364055765271L40.691999673843384,53.6828101904408L42.952666322390236,38.417482401331576L45.21333297093709,24.513985721465524L47.47399961948395,16.51968882549147L49.7346662680308,12.078193850205999L51.99533291657766,9.789167056444013L54.25599956512451,8.816968704024001L56.51666621367137,8.66156241588304L58.77733286221822,9.023123555648082L61.037999510765076,9.721524726005322L63.29866615931193,10.648278337988383L65.55933280785878,11.737813194612452L67.81999945640564,12.950268543260702L70.0806661049525,14.261181846321406L72.34133275349934,15.655286866565719L74.6019994020462,17.122835033736273L76.86266605059306,18.657347224915682L79.12333269913992,20.254292418303823L81.38399934768677,21.910281063022325L83.64466599623363,23.62259483110739L85.90533264478047,25.388890649983725L88.16599929332733,27.20703228026071L90.42666594187418,29.074993836737427L92.68733259042104,30.990792702503867L94.9479992389679,32.95244926951772L97.20866588751475,34.9579811503899L99.4693325360616,37.00537214360549L101.72999918460846,39.09258576246334L103.99066583315532,41.21755497873946L106.25133248170216,43.37817147499531L108.51199913024902,45.57230216104735L110.77266577879588,47.79778071109475L113.03333242734274,50.05240707892388L115.29399907588959,52.33395180002974L117.55466572443645,54.64016775904538L119.81533237298329,56.968778877701496L122.07599902153015,59.31748481035937L124.336665670077,61.68396605787099L126.59733231862386,64.06588933244191L128.85799896717072,66.46090388687216L131.11866561571756,68.86664620176771L133.3793322642644,71.28074279786478L135.63999891281128,73.7008096268665L137.90066556135812,76.12445859561407L140.161332209905,78.54929688747566L142.42199885845184,80.97293344484969L144.6826655069987,83.39297596899615L146.94333215554553,85.8070360096058L149.2039988040924,88.21273201854146L151.46466545263925,90.60768888552613L153.72533210118613,92.98954225266922L155.98599874973297,95.35594339973916L158.24666539827984,97.70455528565664L160.5073320468267,100.03306165617435L162.76799869537354,102.3391633222578L165.02866534392038,104.62058511334084L167.28933199246725,106.87507430788715L169.5499986410141,109.10040658139727L171.81066528956094,111.29438727865633L174.07133193810782,113.45484988052557L176.33199858665466,115.5796619736879L178.5926652352015,117.66672768421667L180.85333188374835,119.71398684116015L183.11399853229523,121.71941906780589L185.37466518084207,123.68104508816084L187.63533182938895,125.59692980739628L189.8959984779358,127.46518071527954L192.15666512648266,129.2839561144602L194.4173317750295,131.05145972293633L196.67799842357635,132.76594719590037L198.9386650721232,134.42572716815104L201.19933172067007,136.02916187954008L203.45999836921692,137.57466812437974L205.72066501776376,139.06072126592244L207.98133166631064,140.48585420021325L210.24199831485748,141.84866075337587L212.50266496340433,143.14779657170587L214.76333161195117,144.38197879451758L217.02399826049805,145.54998987682694L219.2846649090449,146.6506767251955L221.54533155759177,147.68295362407173L223.8059982061386,148.64580140796994L226.06666485468548,149.53826983547313L228.32733150323233,150.35947843949583L230.58799815177917,151.108616750372L232.84866480032602,151.78494529091665L235.1093314488729,152.3877967476021L237.36999809741974,152.91657609912434L239.63066474596658,153.37076141121696L241.89133139451346,153.74990460060909L244.1519980430603,154.05363160633064L246.41266469160715,154.28164249249525L248.673331340154,154.4337122276443L250.93399798870087,154.5249540687337L253.1946646372477,154.57969917338738L255.45533128579459,154.61254623617955L257.71599793434143,154.63225447385486" fill="none"></path></g></g></g></g><g opacity="0.2"><g><g><g><path style="fill: none;" stroke="rgb(255, 112, 67)" stroke-width="2px" d="M22.606666485468544,157.50254406646857L24.8673331340154,141.7522901953106L27.127999782562256,126.00203585317902L29.38866643110911,110.25178151104748L31.649333079655964,94.50152429821995L33.90999972820282,78.75127282678439L36.17066637674967,63.00101561395683L38.43133302529653,47.25076414252126L40.691999673843384,31.500506929693735L42.952666322390236,15.750249716866206L45.21333297093709,3.784844393255527L47.47399961948395,4.571748092210183L49.7346662680308,5.430453638989296L51.99533291657766,6.360111307583137L54.25599956512451,7.359813958062379L56.51666621367137,8.428562588226317L58.77733286221822,9.56531226473868L61.037999510765076,10.768949157559604L63.29866615931193,12.038267574377969L65.55933280785878,13.372015891746987L67.81999945640564,14.768885072300248L70.0806661049525,16.227508664751806L72.34133275349934,17.746416872760445L74.6019994020462,19.32413989998499L76.86266605059306,20.959104605028973L79.12333269913992,22.64970339814422L81.38399934768677,24.39425979287903L83.64466599623363,26.191062854429987L85.90533264478047,28.03833275129018L88.16599929332733,29.934243720817005L90.42666594187418,31.87693555201612L92.68733259042104,33.864490619973644L94.9479992389679,35.89493388585606L97.20866588751475,37.966278828045986L99.4693325360616,40.07645854543858L101.72999918460846,42.22340613692905L103.99066583315532,44.405008770276915L106.25133248170216,46.619096199322094L108.51199913024902,48.863498177904575L110.77266577879588,51.135998528728614L113.03333242734274,53.43434662614675L115.29399907588959,55.75626887894368L117.55466572443645,58.099491695904135L119.81533237298329,60.46169555467712L122.07599902153015,62.84054370873581L124.336665670077,65.23368792876948L126.59733231862386,67.63877424407544L128.85799896717072,70.05342571838308L131.11866561571756,72.47525967402997L133.3793322642644,74.90188769196165L135.63999891281128,77.33090987033972L137.90066556135812,79.7599320487178L140.161332209905,82.1865543252575L142.42199885845184,84.60838828090439L144.6826655069987,87.02303975521204L146.94333215554553,89.42812607051799L149.2039988040924,91.82127603194363L151.46466545263925,94.20012418600231L153.72533210118613,96.56232230338334L155.98599874973297,98.9055451203438L158.24666539827984,101.2274731145327L160.5073320468267,103.52582121195084L162.76799869537354,105.7983158213829L165.02866534392038,108.04271779996536L167.28933199246725,110.25680809970655L169.5499986410141,112.43840499166247L171.81066528956094,114.58535832454488L174.07133193810782,116.69554378332944L176.33199858665466,118.76688011343141L178.5926652352015,120.79732625000982L180.85333188374835,122.78487557657539L183.11399853229523,124.7275674077745L185.37466518084207,126.62348411869327L187.63533182938895,128.47075688624946L189.8959984779358,130.26755707710444L192.15666512648266,132.01211921323122L194.4173317750295,133.7027151356505L196.67799842357635,135.33767840534645L198.9386650721232,136.91539712652704L201.19933172067007,138.4343139466236L203.45999836921692,139.89292749163926L205.72066501776376,141.28980097823649L207.98133166631064,142.62355360164946L210.24199831485748,143.89287058311982L212.50266496340433,145.0965002992008L214.76333161195117,146.23325212873513L217.02399826049805,147.30200650029104L219.2846649090449,148.30170699774828L221.54533155759177,149.2313689723861L223.8059982061386,150.09007308381726L226.06666485468548,150.87697247672793L228.32733150323233,151.59129134552987L230.58799815177917,152.2323242166862L232.84866480032602,152.79943810173367L235.1093314488729,153.29207393263027L237.36999809741974,153.70974512640768L239.63066474596658,154.05203937935585L241.89133139451346,154.3186193846973L244.1519980430603,154.50922211491294L246.41266469160715,154.6236588217422L248.673331340154,154.66181683036785L250.93399798870087,154.66181683036785L253.1946646372477,154.66181683036785L255.45533128579459,154.66181683036785L257.71599793434143,154.66181683036785" fill="none"></path></g></g></g></g></g></g><g transform="translate(58, 173)" clip-path="url(#clip_1)"><clipPath id="clip_1"><rect width="271" height="26"></rect></clipPath><g><g><line x1="0" y1="0" x2="0" y2="5" style="visibility: inherit;" fill="rgb(0, 0, 0)" stroke="rgb(204, 204, 204)" stroke-width="1px"></line><line x1="22.606666485468544" y1="0" x2="22.606666485468544" y2="5" style="visibility: inherit;" fill="rgb(0, 0, 0)" stroke="rgb(204, 204, 204)" stroke-width="1px"></line><line x1="45.21333297093709" y1="0" x2="45.21333297093709" y2="5" style="visibility: inherit;" fill="rgb(0, 0, 0)" stroke="rgb(204, 204, 204)" stroke-width="1px"></line><line x1="67.81999945640564" y1="0" x2="67.81999945640564" y2="5" style="visibility: inherit;" fill="rgb(0, 0, 0)" stroke="rgb(204, 204, 204)" stroke-width="1px"></line><line x1="90.42666594187418" y1="0" x2="90.42666594187418" y2="5" style="visibility: inherit;" fill="rgb(0, 0, 0)" stroke="rgb(204, 204, 204)" stroke-width="1px"></line><line x1="113.03333242734274" y1="0" x2="113.03333242734274" y2="5" style="visibility: inherit;" fill="rgb(0, 0, 0)" stroke="rgb(204, 204, 204)" stroke-width="1px"></line><line x1="135.63999891281128" y1="0" x2="135.63999891281128" y2="5" style="visibility: inherit;" fill="rgb(0, 0, 0)" stroke="rgb(204, 204, 204)" stroke-width="1px"></line><line x1="158.24666539827984" y1="0" x2="158.24666539827984" y2="5" style="visibility: inherit;" fill="rgb(0, 0, 0)" stroke="rgb(204, 204, 204)" stroke-width="1px"></line><line x1="180.85333188374835" y1="0" x2="180.85333188374835" y2="5" style="visibility: inherit;" fill="rgb(0, 0, 0)" stroke="rgb(204, 204, 204)" stroke-width="1px"></line><line x1="203.45999836921692" y1="0" x2="203.45999836921692" y2="5" style="visibility: inherit;" fill="rgb(0, 0, 0)" stroke="rgb(204, 204, 204)" stroke-width="1px"></line><line x1="226.06666485468548" y1="0" x2="226.06666485468548" y2="5" style="visibility: inherit;" fill="rgb(0, 0, 0)" stroke="rgb(204, 204, 204)" stroke-width="1px"></line><line x1="248.673331340154" y1="0" x2="248.673331340154" y2="5" style="visibility: inherit;" fill="rgb(0, 0, 0)" stroke="rgb(204, 204, 204)" stroke-width="1px"></line><line x1="271.27999782562256" y1="0" x2="271.27999782562256" y2="5" style="visibility: inherit;" fill="rgb(0, 0, 0)" stroke="rgb(204, 204, 204)" stroke-width="1px"></line></g><g transform="translate(0, 8)"><text style="text-anchor: middle; visibility: hidden; font-family: Roboto, sans-serif; font-size: 12px; font-weight: 200;" x="0" y="0" dx="0em" dy="0.95em" fill="rgb(33, 33, 33)" stroke="none" stroke-width="1px">-10</text><text style="text-anchor: middle; visibility: inherit; font-family: Roboto, sans-serif; font-size: 12px; font-weight: 200;" x="22.606666485468544" y="0" dx="0em" dy="0.95em" fill="rgb(33, 33, 33)" stroke="none" stroke-width="1px">0</text><text style="text-anchor: middle; visibility: hidden; font-family: Roboto, sans-serif; font-size: 12px; font-weight: 200;" x="45.21333297093709" y="0" dx="0em" dy="0.95em" fill="rgb(33, 33, 33)" stroke="none" stroke-width="1px">10</text><text style="text-anchor: middle; visibility: inherit; font-family: Roboto, sans-serif; font-size: 12px; font-weight: 200;" x="67.81999945640564" y="0" dx="0em" dy="0.95em" fill="rgb(33, 33, 33)" stroke="none" stroke-width="1px">20</text><text style="text-anchor: middle; visibility: hidden; font-family: Roboto, sans-serif; font-size: 12px; font-weight: 200;" x="90.42666594187418" y="0" dx="0em" dy="0.95em" fill="rgb(33, 33, 33)" stroke="none" stroke-width="1px">30</text><text style="text-anchor: middle; visibility: inherit; font-family: Roboto, sans-serif; font-size: 12px; font-weight: 200;" x="113.03333242734274" y="0" dx="0em" dy="0.95em" fill="rgb(33, 33, 33)" stroke="none" stroke-width="1px">40</text><text style="text-anchor: middle; visibility: hidden; font-family: Roboto, sans-serif; font-size: 12px; font-weight: 200;" x="135.63999891281128" y="0" dx="0em" dy="0.95em" fill="rgb(33, 33, 33)" stroke="none" stroke-width="1px">50</text><text style="text-anchor: middle; visibility: inherit; font-family: Roboto, sans-serif; font-size: 12px; font-weight: 200;" x="158.24666539827984" y="0" dx="0em" dy="0.95em" fill="rgb(33, 33, 33)" stroke="none" stroke-width="1px">60</text><text style="text-anchor: middle; visibility: hidden; font-family: Roboto, sans-serif; font-size: 12px; font-weight: 200;" x="180.85333188374835" y="0" dx="0em" dy="0.95em" fill="rgb(33, 33, 33)" stroke="none" stroke-width="1px">70</text><text style="text-anchor: middle; visibility: inherit; font-family: Roboto, sans-serif; font-size: 12px; font-weight: 200;" x="203.45999836921692" y="0" dx="0em" dy="0.95em" fill="rgb(33, 33, 33)" stroke="none" stroke-width="1px">80</text><text style="text-anchor: middle; visibility: hidden; font-family: Roboto, sans-serif; font-size: 12px; font-weight: 200;" x="226.06666485468548" y="0" dx="0em" dy="0.95em" fill="rgb(33, 33, 33)" stroke="none" stroke-width="1px">90</text><text style="text-anchor: middle; visibility: inherit; font-family: Roboto, sans-serif; font-size: 12px; font-weight: 200;" x="248.673331340154" y="0" dx="0em" dy="0.95em" fill="rgb(33, 33, 33)" stroke="none" stroke-width="1px">100</text><text style="text-anchor: middle; visibility: hidden; font-family: Roboto, sans-serif; font-size: 12px; font-weight: 200;" x="271.27999782562256" y="0" dx="0em" dy="0.95em" fill="rgb(33, 33, 33)" stroke="none" stroke-width="1px">110</text></g><line x1="0" y1="0" x2="271.27999782562256" y2="0" fill="rgb(0, 0, 0)" stroke="rgb(204, 204, 204)" stroke-width="1px"></line></g></g></g></g></svg>