<svg viewBox="0 0 330 200" xmlns="http://www.w3.org/2000/svg"><g><g><g><g><g><line x1="51.53200149536133" y1="177.5999994277954" x2="46.53200149536133" y2="177.5999994277954" style="visibility: inherit;" fill="rgb(0, 0, 0)" stroke="rgb(204, 204, 204)" stroke-width="1px"></line><line x1="51.53200149536133" y1="159.83999948501588" x2="46.53200149536133" y2="159.83999948501588" style="visibility: inherit;" fill="rgb(0, 0, 0)" stroke="rgb(204, 204, 204)" stroke-width="1px"></line><line x1="51.53200149536133" y1="142.07999954223632" x2="46.53200149536133" y2="142.07999954223632" style="visibility: inherit;" fill="rgb(0, 0, 0)" stroke="rgb(204, 204, 204)" stroke-width="1px"></line><line x1="51.53200149536133" y1="124.31999959945678" x2="46.53200149536133" y2="124.31999959945678" style="visibility: inherit;" fill="rgb(0, 0, 0)" stroke="rgb(204, 204, 204)" stroke-width="1px"></line><line x1="51.53200149536133" y1="106.55999965667725" x2="46.53200149536133" y2="106.55999965667725" style="visibility: inherit;" fill="rgb(0, 0, 0)" stroke="rgb(204, 204, 204)" stroke-width="1px"></line><line x1="51.53200149536133" y1="88.7999997138977" x2="46.53200149536133" y2="88.7999997138977" style="visibility: inherit;" fill="rgb(0, 0, 0)" stroke="rgb(204, 204, 204)" stroke-width="1px"></line><line x1="51.53200149536133" y1="71.03999977111816" x2="46.53200149536133" y2="71.03999977111816" style="visibility: inherit;" fill="rgb(0, 0, 0)" stroke="rgb(204, 204, 204)" stroke-width="1px"></line><line x1="51.53200149536133" y1="53.27999982833863" x2="46.53200149536133" y2="53.27999982833863" style="visibility: inherit;" fill="rgb(0, 0, 0)" stroke="rgb(204, 204, 204)" stroke-width="1px"></line><line x1="51.53200149536133" y1="35.51999988555907" x2="46.53200149536133" y2="35.51999988555907" style="visibility: inherit;" fill="rgb(0, 0, 0)" stroke="rgb(204, 204, 204)" stroke-width="1px"></line><line x1="51.53200149536133" y1="17.759999942779537" x2="46.53200149536133" y2="17.759999942779537" style="visibility: inherit;" fill="rgb(0, 0, 0)" stroke="rgb(204, 204, 204)" stroke-width="1px"></line><line x1="51.53200149536133" y1="0" x2="46.53200149536133" y2="0" style="visibility: inherit;" fill="rgb(0, 0, 0)" stroke="rgb(204, 204, 204)" stroke-width="1px"></line></g><g transform="translate(41.53200149536133, 0)"><text style="text-anchor: end; visibility: hidden; font-family: Roboto, sans-serif; font-size: 12px; font-weight: 200;" x="0" y="177.5999994277954" dx="0em" dy="0.3em" fill="rgb(50, 49, 63)" stroke="none" stroke-width="1px">-0.5</text><text style="text-anchor: end; visibility: inherit; font-family: Roboto, sans-serif; font-size: 12px; font-weight: 200;" x="0" y="159.83999948501588" dx="0em" dy="0.3em" fill="rgb(50, 49, 63)" stroke="none" stroke-width="1px">0</text><text style="text-anchor: end; visibility: hidden; font-family: Roboto, sans-serif; font-size: 12px; font-weight: 200;" x="0" y="142.07999954223632" dx="0em" dy="0.3em" fill="rgb(50, 49, 63)" stroke="none" stroke-width="1px">0.5</text><text style="text-anchor: end; visibility: inherit; font-family: Roboto, sans-serif; font-size: 12px; font-weight: 200;" x="0" y="124.31999959945678" dx="0em" dy="0.3em" fill="rgb(50, 49, 63)" stroke="none" stroke-width="1px">1</text><text style="text-anchor: end; visibility: hidden; font-family: Roboto, sans-serif; font-size: 12px; font-weight: 200;" x="0" y="106.55999965667725" dx="0em" dy="0.3em" fill="rgb(50, 49, 63)" stroke="none" stroke-width="1px">1.5</text><text style="text-anchor: end; visibility: inherit; font-family: Roboto, sans-serif; font-size: 12px; font-weight: 200;" x="0" y="88.7999997138977" dx="0em" dy="0.3em" fill="rgb(50, 49, 63)" stroke="none" stroke-width="1px">2</text><text style="text-anchor: end; visibility: hidden; font-family: Roboto, sans-serif; font-size: 12px; font-weight: 200;" x="0" y="71.03999977111816" dx="0em" dy="0.3em" fill="rgb(50, 49, 63)" stroke="none" stroke-width="1px">2.5</text><text style="text-anchor: end; visibility: inherit; font-family: Roboto, sans-serif; font-size: 12px; font-weight: 200;" x="0" y="53.27999982833863" dx="0em" dy="0.3em" fill="rgb(50, 49, 63)" stroke="none" stroke-width="1px">3</text><text style="text-anchor: end; visibility: hidden; font-family: Roboto, sans-serif; font-size: 12px; font-weight: 200;" x="0" y="35.51999988555907" dx="0em" dy="0.3em" fill="rgb(50, 49, 63)" stroke="none" stroke-width="1px">3.5</text><text style="text-anchor: end; visibility: inherit; font-family: Roboto, sans-serif; font-size: 12px; font-weight: 200;" x="0" y="17.759999942779537" dx="0em" dy="0.3em" fill="rgb(50, 49, 63)" stroke="none" stroke-width="1px">4</text><text style="text-anchor: end; visibility: hidden; font-family: Roboto, sans-serif; font-size: 12px; font-weight: 200;" x="0" y="0" dx="0em" dy="0.3em" fill="rgb(50, 49, 63)" stroke="none" stroke-width="1px">4.5</text></g><line x1="51.53200149536133" y1="0" x2="51.53200149536133" y2="177.5999994277954" fill="rgb(0, 0, 0)" stroke="rgb(204, 204, 204)" stroke-width="1px"></line></g></g><g transform="translate(51, 0)" clip-path="url(#clip_0)"><clipPath id="clip_0"><rect width="278" height="177"></rect></clipPath><g><g><g><line x1="0" y1="0" x2="0" y2="177.5999994277954" fill="rgb(0, 0, 0)" stroke="rgb(60, 60, 60)" stroke-width="1px" opacity="0.25"></line><line x1="23.205666542053223" y1="0" x2="23.205666542053223" y2="177.5999994277954" fill="rgb(0, 0, 0)" stroke="rgb(60, 60, 60)" stroke-width="1px" opacity="0.25"></line><line x1="46.411333084106445" y1="0" x2="46.411333084106445" y2="177.5999994277954" fill="rgb(0, 0, 0)" stroke="rgb(60, 60, 60)" stroke-width="1px" opacity="0.25"></line><line x1="69.61699962615967" y1="0" x2="69.61699962615967" y2="177.5999994277954" fill="rgb(0, 0, 0)" stroke="rgb(60, 60, 60)" stroke-width="1px" opacity="0.25"></line><line x1="92.82266616821289" y1="0" x2="92.82266616821289" y2="177.5999994277954" fill="rgb(0, 0, 0)" stroke="rgb(60, 60, 60)" stroke-width="1px" opacity="0.25"></line><line x1="116.02833271026611" y1="0" x2="116.02833271026611" y2="177.5999994277954" fill="rgb(0, 0, 0)" stroke="rgb(60, 60, 60)" stroke-width="1px" opacity="0.25"></line><line x1="139.23399925231934" y1="0" x2="139.23399925231934" y2="177.5999994277954" fill="rgb(0, 0, 0)" stroke="rgb(60, 60, 60)" stroke-width="1px" opacity="0.25"></line><line x1="162.43966579437256" y1="0" x2="162.43966579437256" y2="177.5999994277954" fill="rgb(0, 0, 0)" stroke="rgb(60, 60, 60)" stroke-width="1px" opacity="0.25"></line><line x1="185.64533233642578" y1="0" x2="185.64533233642578" y2="177.5999994277954" fill="rgb(0, 0, 0)" stroke="rgb(60, 60, 60)" stroke-width="1px" opacity="0.25"></line><line x1="208.850998878479" y1="0" x2="208.850998878479" y2="177.5999994277954" fill="rgb(0, 0, 0)" stroke="rgb(60, 60, 60)" stroke-width="1px" opacity="0.25"></line><line x1="232.05666542053223" y1="0" x2="232.05666542053223" y2="177.5999994277954" fill="rgb(0, 0, 0)" stroke="rgb(60, 60, 60)" stroke-width="1px" opacity="0.25"></line><line x1="255.26233196258545" y1="0" x2="255.26233196258545" y2="177.5999994277954" fill="rgb(0, 0, 0)" stroke="rgb(60, 60, 60)" stroke-width="1px" opacity="0.25"></line><line x1="278.4679985046387" y1="0" x2="278.4679985046387" y2="177.5999994277954" fill="rgb(0, 0, 0)" stroke="rgb(60, 60, 60)" stroke-width="1px" opacity="0.25"></line></g><g><line x1="0" y1="177.5999994277954" x2="278.4679985046387" y2="177.5999994277954" fill="rgb(0, 0, 0)" stroke="rgb(60, 60, 60)" stroke-width="1px" opacity="0.25"></line><line x1="0" y1="159.83999948501588" x2="278.4679985046387" y2="159.83999948501588" fill="rgb(0, 0, 0)" stroke="rgb(60, 60, 60)" stroke-width="1px" opacity="0.25"></line><line x1="0" y1="142.07999954223632" x2="278.4679985046387" y2="142.07999954223632" fill="rgb(0, 0, 0)" stroke="rgb(60, 60, 60)" stroke-width="1px" opacity="0.25"></line><line x1="0" y1="124.31999959945678" x2="278.4679985046387" y2="124.31999959945678" fill="rgb(0, 0, 0)" stroke="rgb(60, 60, 60)" stroke-width="1px" opacity="0.25"></line><line x1="0" y1="106.55999965667725" x2="278.4679985046387" y2="106.55999965667725" fill="rgb(0, 0, 0)" stroke="rgb(60, 60, 60)" stroke-width="1px" opacity="0.25"></line><line x1="0" y1="88.7999997138977" x2="278.4679985046387" y2="88.7999997138977" fill="rgb(0, 0, 0)" stroke="rgb(60, 60, 60)" stroke-width="1px" opacity="0.25"></line><line x1="0" y1="71.03999977111816" x2="278.4679985046387" y2="71.03999977111816" fill="rgb(0, 0, 0)" stroke="rgb(60, 60, 60)" stroke-width="1px" opacity="0.25"></line><line x1="0" y1="53.27999982833863" x2="278.4679985046387" y2="53.27999982833863" fill="rgb(0, 0, 0)" stroke="rgb(60, 60, 60)" stroke-width="1px" opacity="0.25"></line><line x1="0" y1="35.51999988555907" x2="278.4679985046387" y2="35.51999988555907" fill="rgb(0, 0, 0)" stroke="rgb(60, 60, 60)" stroke-width="1px" opacity="0.25"></line><line x1="0" y1="17.759999942779537" x2="278.4679985046387" y2="17.759999942779537" fill="rgb(0, 0, 0)" stroke="rgb(60, 60, 60)" stroke-width="1px" opacity="0.25"></line><line x1="0" y1="0" x2="278.4679985046387" y2="0" fill="rgb(0, 0, 0)" stroke="rgb(60, 60, 60)" stroke-width="1px" opacity="0.25"></line></g></g></g><g><g><line x1="0" y1="159.83999948501588" x2="278.4679985046387" y2="159.83999948501588" fill="rgb(0, 0, 0)" stroke="rgb(153, 153, 153)" stroke-width="1.5px"></line></g></g><g><g><line x1="23.205666542053223" y1="0" x2="23.205666542053223" y2="177.5999994277954" fill="rgb(0, 0, 0)" stroke="rgb(153, 153, 153)" stroke-width="1.5px"></line></g></g><g><g><g><g><g><path style="fill: none;" stroke="rgb(255, 112, 67)" stroke-width="2px" d="M31.722146162986757,-0.7372456728846778L32.00061416149139,4.490926449314198L32.18625949382782,6.617834056213931L32.27908215999603,8.262289409634015L32.557550158500675,9.304631993771089L32.603961491584776,13.544874752105235L32.85922382354736,14.08030929256472L33.021663489341734,17.96509411435787L33.34654282093048,20.045727215172565L33.369748487472535,21.151881551185486L33.416159820556636,22.039599847864494L33.57859948635102,23.53470732423586L33.92668448448181,23.782925864877004L34.01950715065003,29.828996191463133L34.25156381607056,37.13416376618838L34.36759214878082,37.16167283334983L34.39079781532288,38.76341056834455L34.530031814575196,37.82042111098294L35.063762145042425,43.86255551586304L35.11017347812653,49.28321914861169L35.13337914466858,49.392292997567516L35.22620181083679,49.03739526727967L35.59749247550964,49.15001778528462L35.71352080821991,49.814636338109274L35.75993214130402,49.347202333434716L36.03840013980866,49.61955363539189L36.13122280597687,49.599628784832625L36.27045680522919,55.77969747515266L36.920215468406674,56.899563404714705L37.013038134574884,61.92802970134534L37.05944946765899,65.13946787713505L37.802030797004704,70.05193538724744L37.82523646354675,74.89329918799426L38.01088179588318,73.99333909935321L38.1501157951355,75.84414477674707L38.17332146167755,76.42222925911744L38.4982007932663,77.97376597981454L38.70705179214478,78.40898195914244L38.8926971244812,81.52256899604501L39.33360478878021,81.68018710504532L39.960157785415646,79.04537339671971L40.05298045158386,80.80598894513813L40.493888115882875,78.29987073683894L40.95800144672394,85.67687049857906L41.213263778686525,87.95789915892132L41.23646944522858,92.5227120235399L41.3757034444809,91.24376424500208L41.51493744373322,93.84346783265612L41.886228108406065,97.24555529913721L41.90943377494812,94.61352758168023L41.95584510803223,94.48993258958264L42.23431310653687,97.51574055015668L42.53598677158356,100.08603074399109L43.11612843513488,98.11296549173458L43.324979434013365,98.674239554973L43.44100776672363,101.96410261621403L43.78909276485443,104.17742517630843L44.04435509681702,105.55586463505408L44.13717776298523,100.31685014381046L44.81014209270478,101.52462924022109L45.08861009120941,102.8370804486151L45.251049757003784,108.55403785210528L46.411333084106445,113.83827271303053L46.4809500837326,112.1351318215576L46.52736141681671,110.92472885466401L46.7826237487793,114.22477087503228L46.94506341457367,115.81916187218708L47.03788608074188,112.88066800402568L47.084297413825986,115.83939405561102L47.29314841270447,117.65225071915587L47.73405607700348,112.09159047112487L48.05893540859223,113.56672995133536L48.082141075134274,113.95609403656661L48.12855240821838,118.67895923837831L48.22137507438659,118.30542605046276L48.430226073265075,117.8607288679163L48.70869407176971,117.27160135532527L48.80151673793792,114.21516916800267L48.84792807102203,114.1578382922682L48.963956403732304,115.11678949507235L49.010367736816406,113.97178217053988L49.24242440223694,119.11151219308256L49.33524706840515,120.37625505866048L49.49768673419952,121.17172589995953L49.54409806728363,122.8781789330053L49.82256606578827,125.3900225497965L49.93859439849854,121.25388575709601L49.96180006504059,121.1744620965875L50.24026806354523,121.41487674701054L50.47232472896576,122.47765324426591L50.51873606204987,123.88223808546071L50.704381394386296,122.9855666935357L50.913232393264764,125.31353723781878L50.936438059806825,125.87013682783778L51.4933740568161,129.83152833285735L51.655813722610475,130.7493338216246L52.14313271999359,127.90982889338582L52.25916105270386,127.64763545328258L52.282366719245914,127.98732622355682L52.32877805233002,127.14325976868736L52.39839505195618,127.42547950015833L52.49121771812439,119.10490346844509L52.63045171737671,122.11864962049752L52.72327438354492,123.8815325657814L52.83930271625519,123.6006297078701L53.34982738018036,125.23911704003568L53.535472712516786,126.81373971086668L53.906763377189634,128.67595026109302L53.9763803768158,133.58168002140587L54.44049370765686,132.27623111149782L54.788578705787664,132.83809152196133L54.881401371955874,133.45444214233976L55.13666370391846,129.89589992712584L55.15986937046051,124.18992683118198L56.1113016986847,127.69748131798363L56.598620696067805,129.5008696018552L56.621826362609866,126.8330483362128L57.03952836036682,126.67471195645763L57.06273402690887,127.55430015232L57.434024691581726,131.7190645327288L57.480436024665835,126.80334811162069L57.80531535625458,131.3860785130085L57.89813802242279,127.09937772621839L58.08378335475922,132.77493364358733L58.26942868709564,132.87359319343187L58.339045686721796,131.93439189286394L58.40866268634796,129.97701625861552L58.6871306848526,132.08740904375276L59.15124401569366,135.17120873485806L59.22086101531983,136.42741768961886L59.545740346908566,137.36369280553953L59.61535734653472,139.60905497660116L59.731385679244994,138.48379877646195L59.80100267887116,137.50786649289438L60.00985367774963,138.5524976692594L60.26511600971222,138.680203195534L60.38114434242248,139.41578738564053L60.42755567550659,140.28794038855082L60.98449167251587,138.70755727031695L61.1701370048523,138.22800836710488L61.2165483379364,136.34062973833932L61.98233533382415,133.814361256977L62.191186332702635,136.34140118052485L62.330420331954954,137.61044282343826L62.53927133083344,139.83671008962298L62.724916663169864,141.04756835012688L62.771327996253966,141.5527336977674L62.84094499588012,140.90214345629934L62.93376766204834,142.21170037771896L63.09620732784271,137.33252543017L63.72276032447815,139.30827471830392L64.41893032073975,140.89706132601756L64.46534165382386,141.68074393572343L64.7438096523285,140.344039627974L64.81342665195466,140.8252309674127L64.99907198429108,138.7949644553052L66.08973831176758,139.3888673473782L66.1825609779358,141.14527652195886L66.39141197681427,143.67838807418732L66.50744030952454,142.74797608275483L66.55385164260863,140.49030561456206L67.04117063999176,142.36687782274768L67.29643297195435,141.7857083601904L67.36604997158051,143.42443105369424L67.50528397083282,142.50489270327077L67.52848963737488,143.85816382750403L67.87657463550568,144.778362341539L67.89978030204773,144.30579779847625L68.15504263401031,145.09520712826372L68.24786530017852,147.30639159993262L68.36389363288879,144.2419086935662L68.4103049659729,141.44051210470352L68.71197863101959,140.09182051262047L68.73518429756164,140.29944387196562L68.85121263027192,139.6301145087829L69.1064749622345,139.58221421639385L69.1528862953186,142.10754446730186L69.33853162765503,143.69494952679372L71.26460195064546,142.5204932773492L71.47345294952392,142.68816272555554L71.70550961494446,142.28474553623994L71.96077194690704,146.13208723828367L72.16962294578552,146.9812460483911L72.28565127849579,148.09202746533077L72.30885694503785,144.39112328269073L72.40167961120606,145.65240632341215L72.4248852777481,145.1734068647171L72.58732494354248,142.17053149024116L72.86579294204712,146.66191140885425L73.56196293830871,145.00300420559225L74.14210460186004,143.62792660849132L74.49018959999086,145.40415799595132L74.62942359924317,146.96633457096848L75.18635959625244,147.94973695137716L75.30238792896272,147.9804898682407L76.16099759101868,147.71991726623048L76.71793358802796,148.55102249334684L76.97319591999053,148.79349947321546L77.04281291961671,149.06996484772637L77.57654325008393,150.12467738255748L77.97103958129884,149.64630574932144L78.66720957756041,150.05849333841613L78.76003224372863,149.88664946011795L78.78323791027069,146.8020305695029L79.75787590503693,146.70661610203692L79.8739042377472,148.3753415370902L80.17557790279388,148.53694960356174L80.36122323513031,148.79785352983052L80.43084023475647,149.88881073853827L80.89495356559753,152.3607187371069L81.08059889793397,149.85022121513072L81.19662723064424,149.84736160090972L81.31265556335448,152.1711649288885L81.63753489494324,151.59046805020296L81.68394622802734,150.44996899292644L81.89279722690581,146.73226801804077L81.93920855998994,147.21254329839866L82.77461255550385,147.12991128763227L83.02987488746643,148.7113627155659L83.05308055400849,149.6077280793312L83.285137219429,149.60627862257L83.37795988559724,151.249745491067L83.5403995513916,151.2800698169047L83.70283921718597,145.38188448762148L84.00451288223267,145.49721332954755L84.1901582145691,148.89046903463804L84.21336388111115,150.95344754305452L84.37580354690552,151.70036587527184L84.46862621307373,149.67725607934165L84.56144887924194,150.8423090783963L85.00235654354096,150.9752571394186L85.18800187587738,151.0541113642185L85.21120754241943,152.56635425326536L85.2808245420456,152.02756998646987L85.44326420783997,152.36328062544132L85.51288120746612,152.01930704720252L85.55929254055023,152.58784977764532L85.6289095401764,153.0431121953284L85.72173220634461,153.52483501391862L85.93058320522309,154.01345055257426L86.0698172044754,154.05294720812793L86.18584553718567,150.88740735773152L86.27866820335389,149.81268390870412L86.55713620185853,148.98935826271432L86.58034186840058,150.42170472682417L86.6731645345688,149.2343536397165L86.78919286727904,151.15059831345536L86.81239853382111,151.1099067060068L87.1140721988678,151.17753556448326L87.13727786540986,153.10457765620606L87.16048353195191,151.84112622225828L87.27651186466217,150.59459167938135L87.39254019737244,149.64622191865647L87.46215719699859,151.30676621714755L87.69421386241913,151.01298202159015L87.8566535282135,150.65539479341413L88.48320652484894,151.98793205113336L88.9937311887741,152.27143042061107L89.22578785419465,153.6753949778731L89.62028418540956,154.89697177009066L89.6434898519516,154.5975717794113L90.08439751625062,151.48048996097168L90.94300717830659,150.8329684660661L91.01262417793274,150.5067507959728L91.31429784297944,151.2354623906454L91.73199984073639,150.8218293648388L91.80161684036254,150.60697529387636L91.96405650615692,152.22076420066463L92.03367350578309,153.59332984079825L92.2193188381195,151.58153872864244L92.5209925031662,151.77221448409165L92.75304916858673,153.1273145744771L93.28677949905396,154.48733281786411L93.63486449718475,154.17089851608006L93.93653816223144,152.34082730797L94.77194215774536,153.95639040932195L94.79514782428741,155.60623333385863L95.23605548858643,155.16533391740924L95.25926115512848,155.9776514418045L95.28246682167054,155.02474514711724L95.51452348709107,152.9559037799135L95.60734615325927,154.5276129275789L95.63055181980133,153.6627557315732L95.6537574863434,153.4034759956528L95.76978581905364,154.04013135711452L95.81619715213776,153.60347247701978L96.21069348335266,152.2557990518749L96.86045214653015,152.24931633209428L96.97648047924042,151.8720415085578L97.30135981082915,151.97691513875935L97.46379947662354,152.0115811992955L97.57982780933379,153.59159750539834L97.88150147438049,153.9825544954446L97.95111847400665,155.52712380243923L97.99752980709076,155.80009408747284L98.15996947288512,155.12688450093577L98.43843747138976,156.01802875216524L98.99537346839904,156.19309671275295L99.06499046802521,154.07133549432692L99.94680579662322,153.4827471448551L100.73579845905304,155.09056928754538L101.10708912372588,154.42671155301593L101.31594012260437,154.612562865006L101.52479112148285,155.23789579409922L101.6408194541931,155.02485110764965L101.75684778690338,154.60705847640162L101.78005345344543,154.07372719787992L101.96569878578185,155.09277432489014L102.22096111774444,154.90954720814875L102.5458404493332,154.37113901565627L102.73148578166962,155.8207811672033L102.91713111400604,155.251340083374L103.03315944671631,155.97953413324277L103.54368411064148,155.78598492798827L103.70612377643586,154.90298388631024L104.05420877456665,154.45509183037547L104.07741444110871,152.67306021497149L104.10062010765076,152.85966423972988L104.23985410690308,154.51913629315374L104.28626543998718,155.8976895801268L104.44870510578156,155.31077748948374L105.05205243587493,156.18570731854675L105.46975443363189,155.1732501818754L105.6089884328842,155.449575457572L105.79463376522065,155.58505971000164L105.98027909755707,156.36276279583677L106.04989609718324,156.7808424722013L106.2123357629776,157.1143576361521L106.49080376148224,157.11938342216283L106.76927175998688,156.18003030549687L107.07094542503357,156.89329105101228L107.09415109157563,157.2797715463067L107.14056242465972,157.3137784964647L107.46544175624848,157.18716051127143L108.02237775325776,156.4517952520651L108.0919947528839,156.05051414572907L108.13840608596801,156.68116051818234L108.18481741905212,155.6070092838342L108.25443441867827,156.03265501438685L108.3472570848465,157.01954220622102L108.41687408447265,156.61282357239125L108.85778174877167,155.70049570235201L109.0898384141922,156.015835366709L109.36830641269684,154.61632457083246L109.48433474540711,155.94075901650973L110.1340934085846,156.18022321353692L110.15729907512664,156.763951962269L110.20371040821075,156.1563806208442L110.31973874092103,154.75487804149827L110.34294440746307,155.52948582706463L110.50538407325745,155.93803235893714L110.55179540634155,156.96677935512577L110.94629173755645,156.83224374178454L110.99270307064057,157.38007071159845L111.01590873718261,157.50370415000683L111.10873140335083,154.99334027606645L111.178348402977,155.49382769474857L111.71207873344422,156.76584438599116L111.94413539886476,156.24174843564597L112.52427706241608,156.28894870118768L112.57068839550018,156.03199804844354L112.80274506092071,156.81165986814383L113.01159605979919,156.95336736140527L113.08121305942537,156.99270869100542L113.77738305568695,157.01955189207536L113.98623405456543,156.17884269096615L114.07905672073365,156.25884734419893L114.21829071998596,156.94439554424076L114.49675871849061,156.627754434873L114.56637571811676,157.51543993179584L114.96087204933167,157.21603902559895L115.05369471549989,156.79885008176726L115.26254571437835,157.62642367488604L115.47139671325684,157.60922698768596L115.61063071250916,158.08174271404468L116.3300063753128,158.03327516118338L116.37641770839691,157.88183989353269L116.58526870727539,157.73469961935407L116.84053103923797,156.47053630824482L116.97976503849029,157.13391417149035L117.14220470428468,156.25605063475936L118.00081436634065,156.30875603380315L118.58095602989196,156.61290649403108L118.72019002914429,157.11238090000592L118.8594240283966,157.00338988572784L118.92904102802277,157.24931558865794L119.43956569194793,157.7353315806146L119.67162235736848,157.80882997043662L120.25176402091981,157.9460839112563L120.50702635288239,158.2696566729201L120.85511135101318,157.66117087693797L121.17999068260193,157.90267027874197L121.31922468185424,158.2769816622493L121.76013234615327,158.3721339834934L121.82974934577942,157.9128626459699L121.89936634540557,157.9188986584665L122.01539467811584,157.92735077132L122.57233067512512,158.1336095383839L123.43094033718108,158.33839940529472L123.54696866989136,158.10884290665484L123.66299700260163,157.65058837862077L123.80223100185394,157.82561112421777L124.77686899662018,158.24050880378067L124.84648599624633,157.87899483780163L125.21777666091918,158.1134711003146L125.4034219932556,158.05583514215274L125.49624465942382,158.19931155008038L125.84432965755464,158.33177837613283L125.89074099063873,157.51757433157726L126.14600332260132,157.12327047143486L126.33164865493774,157.239606367103L126.58691098690034,157.88696155254544L126.86537898540497,157.05430691872155L127.3991093158722,157.50518550987667L127.53834331512452,157.50811079775613L127.97925097942353,157.58846161232043L128.2345133113861,157.88075828191322L128.46656997680662,157.4172291202L128.55939264297484,157.79358073727443L129.0931229734421,157.96334971551215L129.13953430652617,158.47734873540423L129.2323569726944,158.07974235127432L129.37159097194672,158.19202361243944L129.55723630428315,157.46104465442554L130.11417230129243,157.6423066428545L130.1837893009186,157.82552678733208L130.25340630054473,157.30626692047943L131.1120159626007,157.84830804351608L131.22804429531098,158.3661296405457L131.3208669614792,158.73664498626601L131.34407262802125,158.03426810048603L131.4136896276474,157.52321678620132L131.52971796035766,157.44618066241813L131.78498029232026,158.17076672492257L131.97062562465666,158.55757915359533L132.06344829082488,158.14304960848776L132.109859623909,158.3588801587351L132.24909362316131,158.3975202738442L132.43473895549775,158.23591210717692L132.4579446220398,158.34140161326255L132.59717862129213,158.69721527446757L132.66679562091826,158.55424198552262L132.99167495250703,158.18523322058772L133.1541146183014,158.38316054084214L133.66463928222655,158.30730786379758L133.82707894802093,158.63944286279943L133.96631294727325,158.76625273206292L134.05913561344147,158.73049179118843L134.08234127998352,157.9433357662401L134.70889427661896,158.3183520850646L134.77851127624513,158.6028522936481L134.8481282758713,157.41368724983965L134.94095094203948,157.47929521567335L135.31224160671235,158.0423599446581L135.35865293979643,157.47024810138697L135.40506427288057,157.16243405927491L135.42826993942262,157.71637258475292L135.45147560596465,157.79380967547044L135.63712093830108,158.07829457317703L136.51893626689912,158.44703623137772L136.8206099319458,158.81742392601294L137.16869493007658,158.8631025882848L137.60960259437562,158.94656532745947L137.70242526054383,158.85390932884602L137.86486492633819,158.33418749631005L137.9576875925064,158.58480678755444L138.07371592521667,158.82955952654777L138.79309158802033,159.02982449984978L139.02514825344088,158.69325344379862L139.0483539199829,158.87638948324366L139.7909352493286,159.03879692461254L140.3478712463379,159.16479760272077L140.67275057792662,159.0384313964669L140.78877891063692,159.0345340357641L141.0904525756836,158.81963983389443L141.11365824222565,158.92206622706627L141.29930357456206,158.69755343596105L141.3457149076462,158.5733468598969L141.46174324035644,158.69130466412653L142.32035290241242,158.94355188025932L142.4131755685806,158.8958603546232L142.50599823474886,158.75801368910524L142.76126056671143,158.8029312997348L142.78446623325348,158.67601705947936L142.8308775663376,158.53501915030068L142.85408323287965,158.79970726890247L143.59666456222536,158.91503204205912L143.85192689418793,159.11582260865416L143.89833822727203,159.23799744909397L144.0143665599823,158.82347551166785L144.0607778930664,158.8672552071565L144.1768062257767,158.90865138133455L144.31604022502898,158.6593020139709L144.47847989082337,158.85519208726376L144.78015355587007,159.10860357220793L145.12823855400086,157.98692140233683L145.2442668867111,158.30694340824988L145.33708955287935,158.75430945521333L145.40670655250548,157.70762569407378L145.89402554988862,157.92611915780725L146.10287654876709,158.25819948832947L146.6366068792343,158.19664782176042L146.65981254577636,158.53892842948395L146.72942954540252,158.75533311000046L146.77584087848663,157.20113167324786L146.86866354465485,158.03605410384165L147.00789754390718,158.20264580790413L147.65765620708464,157.89780041660677L147.8433015394211,158.1323355632959L148.37703186988833,157.88501734591898L148.5858828687668,157.08925739902386L148.6090885353088,157.6321152703729L148.9339678668976,157.98872354777032L149.09640753269196,158.62313217740493L149.58372653007507,158.85739881561824L149.74616619586942,158.9629122288349L149.79257752895356,159.19948840364808L149.86219452857972,159.33179342253186L149.90860586166383,158.14226432857544L150.95286085605622,158.13081292218504L151.06888918876646,158.57340942309412L151.09209485530852,157.92146940179092L151.2545345211029,157.86635409398096L151.34735718727111,158.37286522982217L151.39376852035522,158.4107756963636L151.9042931842804,158.75126489518658L152.41481784820556,156.8268976547371L153.27342751026154,157.69113045337699L154.1784485054016,157.87435989194202L154.41050517082215,158.53897235798144L154.73538450241088,158.7830010685724L155.19949783325197,158.72550728484177L155.80284516334532,158.71075307996946L156.03490182876587,158.82321873292474L156.19734149456022,159.032943973849L156.42939815998076,159.0645402271056L156.70786615848542,159.17861760765933L156.77748315811155,158.56447230235096L156.8238944911957,158.662220347156L156.84710015773774,158.39650040067002L157.17197948932647,158.8064447737174L157.38083048820496,159.01921437616843L157.56647582054137,159.04907364771975L158.56431948184968,159.178537977381L159.3533121442795,159.09624758155255L159.65498580932618,159.09771221107917L159.67819147586823,159.21519383265775L159.72460280895234,159.30026917030398L161.25617680072784,159.33599631874185L161.37220513343811,159.18670506929215L161.44182213306428,159.29419190346007L161.6274674654007,159.26239231725935L162.0219637966156,159.33219928400254L162.23081479549407,159.36644814913163L162.39325446128848,159.36865103272135L162.53248846054078,159.37046055584233L162.67172245979307,159.42189056886914L162.69492812633516,159.44524875981486L163.507126455307,159.25290692455886L163.69277178764344,159.1320480270361L164.22650211811066,159.32274441863143L164.27291345119477,159.40289479764436L164.2961191177368,159.45509739076155L164.94587778091432,159.39405670327707L165.03870044708253,159.3761919953158L165.0851117801666,158.92391213680543L165.5492251110077,159.16999093634067L165.66525344371794,159.10713522601733L165.71166477680205,158.98172746416842L165.75807610988616,158.96217927904758L166.36142343997957,158.89774840281282L167.22003310203553,159.13749093818674L167.35926710128783,159.20314053681145L167.59132376670837,159.34456709985676L167.6841464328766,159.38462738353138L167.7769690990448,159.46193461069342L167.93940876483916,159.5314687882247L168.10184843063354,159.56262722202354L168.28749376296994,159.18141334804443L168.93725242614747,159.04730330948496L168.98366375923158,159.05467389495294L169.14610342502596,159.1466550838423L169.33174875736236,158.9814629995461L169.35495442390442,159.24003549195658L169.42457142353058,159.27057498389806L169.74945075511934,159.35426971156718L170.07433008670807,159.34104636282618L170.16715275287626,159.39138328845243L170.21356408596037,159.106051143087L170.51523775100708,159.3298693106497L170.77050008296965,159.3765607241649L170.7937057495117,158.59815217399327L170.909734082222,158.9812759864637L170.95614541530608,158.2749603965911L171.02576241493225,158.7849558296981L171.8843720769882,159.01684243306278L172.30207407474518,159.2607414845878L172.74298173904418,159.2026482379388L172.8822157382965,159.34450884211444L173.11427240371705,159.36833266331337L173.43915173530578,159.44614844020307L173.85685373306274,159.32662245277086L173.92647073268893,159.41981475772945L173.94967639923098,159.43236399094198L174.7154633951187,159.54283817165108L174.78508039474488,159.49006732157343L174.99393139362334,159.4085821798514L175.13316539287567,157.86643487404334L175.24919372558594,158.52835705673377L175.27239939212797,158.9834154564935L175.55086739063262,159.217867427626L175.6668957233429,159.3403750971804L176.03818638801573,159.48859332171924L176.15421472072603,159.5376200817664L176.27024305343627,159.53827667743815L176.3630657196045,159.576379741165L176.73435638427736,159.58294793931688L177.0592357158661,159.52527112159015L177.52334904670715,159.10985454634118L177.80181704521178,158.95999919315673L178.08028504371643,159.2165070616729L178.89248337268828,159.41848648965893L179.05492303848268,159.2663949114912L179.17095137119293,158.8295386473447L179.21736270427704,159.03930361048097L179.26377403736115,159.21625890167465L179.40300803661347,159.31611109252452L179.49583070278166,159.40495123994907L179.86712136745453,159.42737532362045L180.12238369941713,159.5188359991579L180.16879503250124,159.48971039059086L180.47046869754791,158.708893231035L180.6793196964264,158.99732889721827L181.0738160276413,159.2003556898981L181.51472369194033,159.10498194686977L181.74678035736082,159.27552991711585L181.88601435661317,159.3318842121069L182.00204268932342,159.14694874293133L182.04845402240755,159.2806359591729L182.18768802165985,159.40766286396232L182.39653902053834,159.43218650211972L182.5589786863327,159.52900572625353L182.76782968521118,159.60697482414633L183.67285068035125,159.59517370250435L183.71926201343535,159.368125500931L183.78887901306155,159.42010336648997L184.04414134502412,159.3441179059949L184.20658101081847,159.18128694501695L184.71710567474366,159.24684318968156L185.0883963394165,159.37159490495515L185.45968700408937,159.32461964056645L185.57571533679962,159.40391153236823L185.62212666988373,159.02527078747485L185.69174366950986,159.14879593413545L185.94700600147246,159.28173749899304L186.08624000072479,158.8454852276561L186.31829666614533,159.1163699105011L186.34150233268738,159.21611092548855L186.68958733081817,159.3502423384409L186.89843832969666,159.2818562574927L186.9216439962387,159.25240291699194L187.68743099212648,159.1022747973956L188.2211613225937,159.27387852782203L188.38360098838805,159.4293462590728L188.45321798801422,159.29925836826948L188.59245198726654,159.45053607738453L189.47426731586455,159.40117739812928L189.77594098091126,159.47414098663234L189.7991466474533,159.56818891496283L189.8455579805374,159.41985979908569L189.98479197978975,159.50506539296296L190.05440897941588,159.4899505292879L190.47211097717286,159.50928200161638L190.8898129749298,159.40160872963602L191.4467489719391,159.4544070487844L191.53957163810728,159.41641294479476L191.81803963661193,159.388061062497L192.02689063549042,159.41995795298033L192.46779829978945,159.518640215432L192.67664929866788,159.55451680930628L192.81588329792024,159.5750671796965L193.41923062801362,159.5826549703053L193.5120532941818,159.32558124170492L193.55846462726595,159.45927035322637L193.86013829231263,159.41746782932142L193.90654962539674,159.52199697129913L193.9761666250229,159.57840702242407L194.09219495773314,159.5798893447072L194.1850176239014,159.61262755389242L194.4170742893219,159.63048190519058L194.6027196216583,159.56322216514647L195.34530095100402,159.5847957032447L195.50774061679837,159.60786153017258L195.76300294876097,159.61830680026605L195.78620861530302,159.65088090803815L195.85582561492922,159.66509352457405L195.92544261455535,159.68106671214738L196.3431446123123,159.6109845482879L196.43596727848055,159.61601404620723L196.52878994464874,159.65098895921136L196.57520127773284,159.6385600887621L196.85366927623747,159.0853437350478L197.41060527324674,159.29162571307737L197.6890732717514,159.43685101554863L197.87471860408783,159.51786846023467L198.01395260334013,159.52345829730208L198.26921493530273,159.57449396208423L198.45486026763916,159.56298901831582L198.50127160072327,159.5414454881371L198.6405055999756,159.5966139132675L198.7797395992279,159.59590820575934L199.05820759773255,159.60327591892465L199.4294982624054,159.64610346808684L199.59193792819977,159.6331356300329L199.63834926128388,159.61426441209957L199.68476059436796,159.49704318314562L199.75437759399415,159.53432299425467L200.47375325679778,159.49842672095156L200.49695892333983,159.46087986278297L200.61298725605013,159.38611725097982L200.63619292259216,159.39025577749007L200.93786658763887,159.499538453599L200.98427792072297,159.5642882960834L201.007483587265,158.80861153177062L201.5644195842743,159.0987171285023L202.3998235797882,159.21110177580252L202.53905757904053,159.08326632946023L202.56226324558259,159.32312914754897L202.6086745786667,159.3861612795808L203.21202190876008,159.402937712188L203.23522757530213,159.49958004852417L203.30484457492827,159.5514883629431L203.32805024147032,159.4791467186271L204.0938372373581,159.39171841674965L204.11704290390014,159.49209645710343L204.44192223548887,159.54026395518267L204.72039023399353,159.38803744045362L205.11488656520845,159.5204494557L205.20770923137664,159.20912707382166L205.39335456371307,159.32801046255747L205.50938289642335,159.40971964615616L205.5325885629654,159.45584549812156L205.67182256221773,159.5165486581202L205.81105656147002,159.5801988865512L206.13593589305876,159.59124876490816L206.43760955810546,159.56120614565378L206.5768435573578,159.53335019083204L206.92492855548858,159.53927834149886L206.94813422203063,159.5398610497796L207.15698522090912,159.58664585526253L207.20339655399323,159.55652032760696L207.22660222053528,159.50200958632632L207.38904188632966,159.56568967689194L207.9227722167969,159.5619881854679L208.54932521343233,159.40857857039745L209.47755187511444,159.48482814993403L209.54716887474058,159.520286821029L209.57037454128266,159.46329157716082L209.61678587436677,159.47466242385715L209.9416652059555,159.5637661205747L210.12731053829194,159.4910051334455L210.2897502040863,159.5857123712886L210.3825728702545,159.58770742950313L210.66104086875913,159.62478434712875L210.6842465353012,159.66709098347934L210.84668620109557,159.61870305390627L211.10194853305816,159.63515699035185L211.70529586315155,159.66714263339793L211.89094119548798,159.6571680647297L212.1694091939926,159.655986729275L212.21582052707672,159.6899925274997L212.331848859787,159.6677005720018L212.65672819137575,159.62759840904306L212.6799338579178,159.63062317075085L212.7263451910019,159.55777182928563L213.1672528553009,159.5903938488676L213.32969252109527,159.64334022945457L213.5153378534317,159.6199264783947L213.53854351997376,159.5758586355703L213.88662851810454,159.63570986075004L213.9098341846466,159.60498265661943L214.18830218315125,159.65050141206L214.2115078496933,159.64682426210388L214.79164951324464,159.00413903132267L215.3021741771698,159.2578144508528L215.4414081764221,159.42959239537896L215.5110251760483,159.5392375922492L215.53423084259035,159.09391930430323L215.62705350875854,159.35544848364077L215.74308184146884,159.47594411636067L215.85911017417908,159.53577567572023L216.97298216819763,159.53887053429324L217.0425991678238,159.5887073076809L217.29786149978636,159.58954504075245L217.36747849941253,159.63429456765985L217.50671249866485,159.5825012176514L217.62274083137513,159.5995541137413L217.80838616371156,159.631878807867L218.08685416221618,159.3653049973341L218.41173349380492,159.47669554900733L218.5277618265152,159.56863766801632L218.99187515735625,159.60983309083392L219.45598848819733,159.62784319122576L219.4791941547394,159.6480866903953L219.57201682090758,159.55502533173993L220.2681868171692,159.58036539616796L220.5698604822159,159.5836794812498L220.96435681343078,159.59112850357036L221.17320781230927,159.56668940875508L221.38205881118776,159.5998703120633L221.59090981006622,159.59391905188548L221.73014380931855,159.62912106176714L221.7533494758606,159.6596322823143L221.93899480819704,159.5781447034407L222.82081013679505,159.5945622144999L222.93683846950532,159.63290118539905L223.21530646800994,159.63679934339075L223.26171780109405,159.67463872635264L223.2849234676361,159.6945985206894L223.42415746688843,159.71586956327712L224.16673879623414,159.62192747725948L224.25956146240236,159.64618356327978L224.978937125206,159.67686825732045L225.1181711244583,159.6633083096877L225.419844789505,159.48086765416963L225.53587312221526,159.5422120981991L225.6751071214676,159.60416042713342L226.13922045230868,159.6499809747591L226.32486578464508,159.6721143555979L226.37127711772916,159.62969113721033L226.88180178165436,159.48882674512382L226.92821311473844,159.56705481344915L227.16026978015898,159.60017762860994L227.41553211212158,159.55770866654007L227.50835477828977,159.61922381001398L227.5547661113739,159.58771315754922L227.71720577716826,159.62820233472664L227.9028511095047,159.65040239621564L227.97246810913086,159.45559065887727L228.2045247745514,159.45305719276595L228.9471061038971,159.4995982701709L229.06313443660736,159.57817886127486L229.22557410240174,159.61281397134866L229.4808364343643,159.59543201261354L229.62007043361663,159.5708907158359L229.782510099411,159.59299430679133L230.03777243137358,159.58156871730347L230.15380076408385,159.59259910574062L230.24662343025207,159.39151238341745L230.6875310945511,159.46143157743688L231.29087842464446,159.55447263225815L231.38370109081268,159.5691532833499L231.59255208969117,159.6239768105754L231.7317860889435,159.65821235757048L231.75499175548555,159.65511605156632L231.84781442165374,159.6668825965332L232.21910508632658,159.65784535559646L232.59039575099948,159.6928488531893L232.84565808296202,159.6648548581529L233.2169487476349,159.54108275346792L233.42579974651338,159.57262991512067L233.58823941230773,159.5574940032377L233.70426774501803,159.50684843036294L234.7949340724945,159.57203463369345L234.88775673866272,159.63710778138935L235.60713240146637,159.64779192888733L235.7927777338028,159.66309786413478L235.81598340034483,159.69273485539316L235.86239473342894,159.60865639373807L235.885600399971,159.63720467781866L236.41933073043822,159.69349935859L236.48894773006438,159.65385655059015L236.55856472969057,159.6609305458666L236.72100439548493,159.68164473057706L236.7906213951111,159.67399243092117L236.90664972782136,159.59737028964093L236.99947239398955,159.6017955032456L237.20832339286804,159.51187159117933L237.2315290594101,159.55989307368912L237.32435172557828,159.56374044813873L237.50999705791472,159.490739058598L237.83487638950348,159.56408306092192L237.9276990556717,159.59781871039624L237.95090472221375,159.61336509277174L238.8327200508118,159.6154776512242L239.1111880493164,159.64363477361138L239.15759938240052,159.62271831718502L239.3200390481949,159.65251835774356L239.55209571361542,159.6640977229193L239.57530138015747,159.69376158951013L239.6681240463257,159.70681070293696L239.7145353794098,159.70473526379843L239.80735804557798,159.69222333775394L239.87697504520418,159.6397918048306L240.08582604408264,159.4993111569122L240.24826570987702,159.5375333268485L240.41070537567137,159.53679512009748L240.5499393749237,159.30821413525845L240.57314504146575,159.4618375771096L240.7123790407181,159.51462913502297L240.82840737342835,159.47874474381678L241.0604640388489,159.47165142594108L241.29252070426944,159.58300914333927L241.43175470352173,159.61024479441352L241.57098870277406,159.62862543065697L241.77983970165252,159.64312933729417L242.24395303249358,159.46554896703293L242.31357003211974,159.5149793210338L242.35998136520385,159.3062354956282L242.63844936370847,159.0647454263453L242.66165503025053,158.5847037418124L242.84730036258696,158.9814452083786L242.98653436183932,159.23927957800066L243.0329456949234,159.25739816896396L243.40423635959624,159.42439694755063L243.4274420261383,159.49585707905302L243.45064769268035,159.56041962028695L243.49705902576446,159.62006449359274L244.14681768894195,159.60619138355653L244.23964035511017,159.61479122353498L244.5645196866989,159.63998451368795L244.7733706855774,159.63936916458826L244.98222168445588,159.65746156395568L245.21427834987642,159.6475112785455L245.33030668258667,159.6399151307421L245.84083134651183,159.64392091859503L246.02647667884824,159.5183939107619L246.1657106781006,159.51309632155906L246.46738434314727,159.52313560246745L247.23317133903504,159.53742455184525L247.58125633716583,159.55926318021824L247.650873336792,159.61603060270681L247.67407900333404,159.45569200897472L247.7436960029602,159.36791683122394L247.95254700183867,158.7925680104372L248.0453696680069,159.14742292469398L248.1381923341751,159.24842803669455L248.41666033267975,159.34489066188485L248.4398659992218,159.369117297166L248.6023056650162,159.5069294009844L249.15924166202547,159.29227297526862L249.20565299510957,159.42919078890492L249.55373799324036,159.56420603990466L249.57694365978242,159.63066270031703L249.6233549928665,159.5877338403859L249.71617765903474,159.63072145828778L249.7857946586609,159.5960277010988L249.9946456575394,159.62090816294676L250.36593632221224,159.64457606405082L250.43555332183837,159.6140421246816L250.59799298763275,159.65368782532641L250.94607798576354,159.64916292891002L251.20134031772614,159.64930699984L251.50301398277284,159.65100586915062L251.80468764781952,159.70141422866382L252.12956697940825,159.61948041172536L252.19918397903442,159.60453337828798L252.3616236448288,159.57797751179783L252.80253130912783,159.62568064941357L252.82573697566988,159.63720267852247L252.94176530838013,159.67246886220505" fill="none"></path></g></g></g></g><g opacity="0.2"><g><g><g><path style="fill: none;" stroke="rgb(255, 112, 67)" stroke-width="2px" d="M31.53650083065033,-1.023840176144661L31.67573482990265,2.687129507943965L31.722146162986757,2.498702537115506L32.00061416149139,12.333184622129288L32.18625949382782,9.808195464004712L32.27908215999603,10.728972438577152L32.557550158500675,10.868145869525229L32.603961491584776,19.905238888504577L32.85922382354736,14.883461103170426L33.021663489341734,23.792271346684174L33.34654282093048,23.16667686627789L33.369748487472535,22.811113055167603L33.416159820556636,23.371177292865113L33.57859948635102,25.77736853877478L33.92668448448181,24.155253675836953L34.01950715065003,38.89810168131589L34.25156381607056,48.09191512825709L34.36759214878082,37.20293643409195L34.39079781532288,41.166017170835126L34.530031814575196,36.40593692494104L35.063762145042425,52.92575712318113L35.11017347812653,57.41421459773356L35.13337914466858,49.55590377100124L35.22620181083679,48.505048671847916L35.59749247550964,49.318951562292014L35.71352080821991,50.811564167346305L35.75993214130402,48.64605132642292L36.03840013980866,50.02808058832761L36.13122280597687,49.56974150899378L36.27045680522919,65.04980051063266L36.920215468406674,58.57936229905772L37.013038134574884,69.47072914629133L37.05944946765899,69.9566251408196L37.802030797004704,77.42063665241604L37.82523646354675,82.15534488911453L38.01088179588318,72.64339896639167L38.1501157951355,78.6203532928378L38.17332146167755,77.28935598267299L38.4982007932663,80.30107106086025L38.70705179214478,79.06180592813426L38.8926971244812,86.19294955139885L39.33360478878021,81.9166142685458L39.960157785415646,75.0931528342313L40.05298045158386,83.44691226776577L40.493888115882875,74.54069342439016L40.95800144672394,96.74237014118926L41.213263778686525,91.37944214943472L41.23646944522858,99.36993132046773L41.3757034444809,89.32534257719534L41.51493744373322,97.74302321413715L41.886228108406065,102.34868649885884L41.90943377494812,90.66548600549477L41.95584510803223,94.30454010143622L42.23431310653687,102.05445249101776L42.53598677158356,103.94146603474273L43.11612843513488,95.15336761334983L43.324979434013365,99.5161506498306L43.44100776672363,106.8988972080756L43.78909276485443,107.49740901644999L44.04435509681702,107.62352382317259L44.13717776298523,92.45832840694503L44.81014209270478,103.33629788483704L45.08861009120941,104.80575726120615L45.251049757003784,117.12947395734055L46.411333084106445,121.76462500441839L46.4809500837326,109.58042048434818L46.52736141681671,109.10912440432367L46.7826237487793,119.17483390558463L46.94506341457367,118.21074836791932L47.03788608074188,108.47292720178358L47.084297413825986,120.27748313298908L47.29314841270447,120.37153571447315L47.73405607700348,103.75060009907838L48.05893540859223,115.77943917165112L48.082141075134274,114.54014016441351L48.12855240821838,125.76325704109586L48.22137507438659,117.7451262685894L48.430226073265075,117.19368309409656L48.70869407176971,116.38791008643875L48.80151673793792,109.63052088701879L48.84792807102203,114.07184197866646L48.963956403732304,116.55521629927863L49.010367736816406,112.25427118374118L49.24242440223694,126.82110722689659L49.33524706840515,122.27336935702733L49.49768673419952,122.3649321619081L49.54409806728363,125.43785848257393L49.82256606578827,129.15778797498334L49.93859439849854,115.04968056804528L49.96180006504059,121.05532660582476L50.24026806354523,121.77549872264508L50.47232472896576,124.07181799014897L50.51873606204987,125.98911534725293L50.704381394386296,121.64055960564819L50.913232393264764,128.80549305424339L50.936438059806825,126.70503621286626L51.4933740568161,135.77361559038673L51.655813722610475,132.12604205477547L52.14313271999359,123.65057150102767L52.25916105270386,127.2543452931277L52.282366719245914,128.49686237896822L52.32877805233002,125.87716008638317L52.39839505195618,127.84880909736476L52.49121771812439,106.6240394208752L52.63045171737671,126.6392688485762L52.72327438354492,126.52585698370721L52.83930271625519,123.17927542100314L53.34982738018036,127.69684803828405L53.535472712516786,129.1756737171132L53.906763377189634,131.46926608643253L53.9763803768158,140.94027466187518L54.44049370765686,130.3180577466357L54.788578705787664,133.6808821376566L54.881401371955874,134.37896807290744L55.13666370391846,124.55808660430493L55.15986937046051,115.6309671872662L56.1113016986847,132.95881304818613L56.598620696067805,132.20595202766253L56.621826362609866,122.83131643774924L57.03952836036682,126.43720738682487L57.06273402690887,128.87368244611352L57.434024691581726,137.966211103342L57.480436024665835,119.42977347995857L57.80531535625458,138.2601741150902L57.89813802242279,120.66932654603325L58.08378335475922,141.2882675196407L58.26942868709564,133.02158251819873L58.339045686721796,130.525589942012L58.40866268634796,127.04095280724296L58.6871306848526,135.25299822145863L59.15124401569366,139.79690827151597L59.22086101531983,138.31173112176003L59.545740346908566,138.7681054794205L59.61535734653472,142.97709823319366L59.731385679244994,136.79591447625316L59.80100267887116,136.04396806754303L60.00985367774963,140.1194444338069L60.26511600971222,138.87176148494592L60.38114434242248,140.5191636708003L60.42755567550659,141.59616989291627L60.98449167251587,136.33698259296617L61.1701370048523,137.50868501228678L61.2165483379364,133.509561795191L61.98233533382415,130.02495853493355L62.191186332702635,140.13196106584664L62.330420331954954,139.51400528780832L62.53927133083344,143.17611098890012L62.724916663169864,142.8638557408827L62.771327996253966,142.3104817192281L62.84094499588012,139.92625809409728L62.93376766204834,144.1760357598484L63.09620732784271,130.01376300884658L63.72276032447815,142.27189865050477L64.41893032073975,143.28024123758806L64.46534165382386,142.85626785028217L64.7438096523285,138.33898316634995L64.81342665195466,141.54701797657071L64.99907198429108,135.7495646871439L66.08973831176758,140.27972168548777L66.1825609779358,143.77989028382981L66.39141197681427,147.47805540253003L66.50744030952454,141.3523580956061L66.55385164260863,137.1037999122729L67.04117063999176,145.18173613502614L67.29643297195435,140.9139541663545L67.36604997158051,145.88251509394996L67.50528397083282,141.12558517763554L67.52848963737488,145.88807051385393L67.87657463550568,146.1586601125915L67.89978030204773,143.5969509838821L68.15504263401031,146.27932112294494L68.24786530017852,150.62316830743595L68.36389363288879,139.64518433401653L68.4103049659729,137.23841722140952L68.71197863101959,138.0687831244959L68.73518429756164,140.61087891098333L68.85121263027192,138.6261204640088L69.1064749622345,139.51036377781028L69.1528862953186,145.89553984366384L69.33853162765503,146.07605711603145L71.26460195064546,140.75880890318248L71.47345294952392,142.93966689786504L71.70550961494446,141.67961975226655L71.96077194690704,151.90309979134926L72.16962294578552,148.25498426355225L72.28565127849579,149.75819959074033L72.30885694503785,138.83976700873063L72.40167961120606,147.54433088449423L72.4248852777481,144.4549076766745L72.58732494354248,137.6662184285273L72.86579294204712,153.39898128677387L73.56196293830871,142.51464340069924L74.14210460186004,141.5653102128399L74.49018959999086,148.06850507714134L74.62942359924317,149.30959943349427L75.18635959625244,149.42484052199015L75.30238792896272,148.02661924353606L76.16099759101868,147.32905836321515L76.71793358802796,149.79768033402132L76.97319591999053,149.15721494301843L77.04281291961671,149.48466290949273L77.57654325008393,151.70674618480416L77.97103958129884,148.9287482994674L78.66720957756041,150.67677472205816L78.76003224372863,149.62888364267064L78.78323791027069,142.1751022335803L79.75787590503693,146.56349440083795L79.8739042377472,150.87842968967016L80.17557790279388,148.77936170326902L80.36122323513031,149.1892094192337L80.43084023475647,151.52524655159988L80.89495356559753,156.06858073495988L81.08059889793397,146.08447493216644L81.19662723064424,149.8430721795782L81.31265556335448,155.65686992085665L81.63753489494324,150.71942273217465L81.68394622802734,148.73922040701163L81.89279722690581,141.1557165557123L81.93920855998994,147.9329562189355L82.77461255550385,147.0059632714827L83.02987488746643,151.08353985746635L83.05308055400849,150.9522761249791L83.285137219429,149.60410443742822L83.37795988559724,153.71494579381252L83.5403995513916,151.32555630566122L83.70283921718597,136.53460649369663L84.00451288223267,145.67020659243673L84.1901582145691,153.98035259227382L84.21336388111115,154.04791530567917L84.37580354690552,152.82074337359782L84.46862621307373,146.6425913854464L84.56144887924194,152.58988857697832L85.00235654354096,151.174679230952L85.18800187587738,151.17239270141835L85.21120754241943,154.8347185868356L85.2808245420456,151.21939358627668L85.44326420783997,152.8668465838985L85.51288120746612,151.50334667984424L85.55929254055023,153.4406638733095L85.6289095401764,153.72600582185305L85.72173220634461,154.24741924180398L85.93058320522309,154.74637386055775L86.0698172044754,154.1121921914584L86.18584553718567,146.13909758213694L86.27866820335389,148.20059873516303L86.55713620185853,147.7543697937296L86.58034186840058,152.57022442298893L86.6731645345688,147.45332700905502L86.78919286727904,154.02496532406366L86.81239853382111,151.0488692948339L87.1140721988678,151.278978852198L87.13727786540986,155.99514079379023L87.16048353195191,149.9459490713366L87.27651186466217,148.72478986506593L87.39254019737244,148.22366727756918L87.46215719699859,153.79758266488415L87.69421386241913,150.5723057282541L87.8566535282135,150.1190139511501L88.48320652484894,153.98673793771223L88.9937311887741,152.69667797482762L89.22578785419465,155.78134181376618L89.62028418540956,156.72933695841692L89.6434898519516,154.1484717933923L90.08439751625062,146.80486723331222L90.94300717830659,149.8616862237077L91.01262417793274,150.01742429083288L91.31429784297944,152.32852978265436L91.73199984073639,150.20137982612886L91.80161684036254,150.2846941874327L91.96405650615692,154.64144756084698L92.03367350578309,155.65217830099874L92.2193188381195,148.5638520604087L92.5209925031662,152.0582281172655L92.75304916858673,155.15996471005528L93.28677949905396,156.52736018294462L93.63486449718475,153.696247063404L93.93653816223144,149.59572049580484L94.77194215774536,156.37973506134995L94.79514782428741,158.08099772066362L95.23605548858643,154.50398479273517L95.25926115512848,157.19612772839736L95.28246682167054,153.5953857050864L95.51452348709107,149.85264172910792L95.60734615325927,156.88517664907695L95.63055181980133,152.36546993756465L95.6537574863434,153.0145563917722L95.76978581905364,154.9951143993071L95.81619715213776,152.94848415687767L96.21069348335266,150.23428891415762L96.86045214653015,152.23959225242334L96.97648047924042,151.3061292732531L97.30135981082915,152.13422558406165L97.46379947662354,152.0635802900998L97.57982780933379,155.96162196455253L97.88150147438049,154.568989980514L97.95111847400665,157.84397776293116L97.99752980709076,156.20954951502327L98.15996947288512,154.1170701211302L98.43843747138976,157.35474512900936L98.99537346839904,156.4556986536345L99.06499046802521,150.88869366668786L99.94680579662322,152.59986462064734L100.73579845905304,157.50230250158083L101.10708912372588,153.43092495122173L101.31594012260437,154.89133983299106L101.52479112148285,156.17589518773912L101.6408194541931,154.70528407797528L101.75684778690338,153.9803695295296L101.78005345344543,153.27373028009734L101.96569878578185,156.6213450154055L102.22096111774444,154.63470653303665L102.5458404493332,153.56352672691756L102.73148578166962,157.9952443945239L102.91713111400604,154.39717845763008L103.03315944671631,157.0718252080459L103.54368411064148,155.49566112010652L103.70612377643586,153.5784823237932L104.05420877456665,153.7832537464733L104.07741444110871,150.00001279186554L104.10062010765076,153.13957027686746L104.23985410690308,157.0083443732895L104.28626543998718,157.96551951058646L104.44870510578156,154.4304093535191L105.05205243587493,157.49810206214124L105.46975443363189,153.6545644768684L105.6089884328842,155.86406337111686L105.79463376522065,155.78828608864615L105.98027909755707,157.5293174245895L106.04989609718324,157.40796198674806L106.2123357629776,157.6146303820783L106.49080376148224,157.12692210117893L106.76927175998688,154.77100063049792L107.07094542503357,157.9631821692854L107.09415109157563,157.85949228924838L107.14056242465972,157.36478892170163L107.46544175624848,156.99723353348153L108.02237775325776,155.34874736325565L108.0919947528839,155.44859248622498L108.13840608596801,157.62713007686224L108.18481741905212,153.99578243231198L108.25443441867827,156.67112361021583L108.3472570848465,158.49987299397225L108.41687408447265,156.0027456216466L108.85778174877167,154.3320038972932L109.0898384141922,156.4888448632445L109.36830641269684,152.51705837701766L109.48433474540711,157.92741068502565L110.1340934085846,156.53941950907765L110.15729907512664,157.63954508536716L110.20371040821075,155.24502360870702L110.31973874092103,152.6526241724793L110.34294440746307,156.69139750541416L110.50538407325745,156.5508521567459L110.55179540634155,158.5098998494087L110.94629173755645,156.63044032177268L110.99270307064057,158.2018111663193L111.01590873718261,157.68915430761945L111.10873140335083,151.22779446515588L111.178348402977,156.2445588227718L111.71207873344422,158.67386942285503L111.94413539886476,155.45560451012815L112.52427706241608,156.35974909950028L112.57068839550018,155.64657206932733L112.80274506092071,157.9811525976943L113.01159605979919,157.1659286012974L113.08121305942537,157.0517206854056L113.77738305568695,157.0598166936803L113.98623405456543,154.91777888930238L114.07905672073365,156.3788543240481L114.21829071998596,157.9727178443035L114.49675871849061,156.15279277082135L114.56637571811676,158.84696817718014L114.96087204933167,156.7669376663036L115.05369471549989,156.1730666660197L115.26254571437835,158.86778406456423L115.47139671325684,157.58343195688585L115.61063071250916,158.7905163035827L116.3300063753128,157.96057383189145L116.37641770839691,157.65468699205667L116.58526870727539,157.51398920808614L116.84053103923797,154.57429134158093L116.97976503849029,158.12898096635863L117.14220470428468,154.93925532966287L118.00081436634065,156.38781413236885L118.58095602989196,157.06913218437293L118.72019002914429,157.86159250896816L118.8594240283966,156.83990336431071L118.92904102802277,157.6182041430531L119.43956569194793,158.4643555685496L119.67162235736848,157.91907755516968L120.25176402091981,158.15196482248575L120.50702635288239,158.75501581541585L120.85511135101318,156.74844218296477L121.17999068260193,158.264919381448L121.31922468185424,158.8384487375103L121.76013234615327,158.5148624653595L121.82974934577942,157.22395563968468L121.89936634540557,157.9279526772114L122.01539467811584,157.94002894060023L122.57233067512512,158.44299768897972L123.43094033718108,158.645584205661L123.54696866989136,157.76450815869504L123.66299700260163,156.9632065865697L123.80223100185394,158.08814524261325L124.77686899662018,158.86285532312505L124.84648599624633,157.33672388883306L125.21777666091918,158.465185494084L125.4034219932556,157.96938120490995L125.49624465942382,158.41452616197185L125.84432965755464,158.53047861521154L125.89074099063873,156.29626826474387L126.14600332260132,156.5318146812213L126.33164865493774,157.4141102106052L126.58691098690034,158.85799433070906L126.86537898540497,155.80532496798577L127.3991093158722,158.18150339660934L127.53834331512452,157.51249872957533L127.97925097942353,157.70898783416686L128.2345133113861,158.3192032863024L128.46656997680662,156.72193537763025L128.55939264297484,158.35810816288603L129.0931229734421,158.2180031828687L129.13953430652617,159.24834726524242L129.2323569726944,157.48333277507945L129.37159097194672,158.3604455041871L129.55723630428315,156.36457621740465L130.11417230129243,157.9141996254979L130.1837893009186,158.1003570040485L130.25340630054473,156.52737712020044L131.1120159626007,158.66136972807107L131.22804429531098,159.1428620360901L131.3208669614792,159.29241800484652L131.34407262802125,156.98070277181606L131.4136896276474,156.75663981477427L131.52971796035766,157.33062647674333L131.78498029232026,159.25764581867924L131.97062562465666,159.13779779660445L132.06344829082488,157.52125529082642L132.109859623909,158.6826259841061L132.24909362316131,158.45548044650786L132.43473895549775,157.993499857176L132.4579446220398,158.499635872391L132.59717862129213,159.23093576627508L132.66679562091826,158.33978205210525L132.99167495250703,157.63172007318536L133.1541146183014,158.6800515212238L133.66463928222655,158.19352884823076L133.82707894802093,159.1376453613022L133.96631294727325,158.9564675359582L134.05913561344147,158.67685037987667L134.08234127998352,156.76260172881757L134.70889427661896,158.88087656330134L134.77851127624513,159.02960260652335L134.8481282758713,155.629939684127L134.94095094203948,157.57770716442383L135.31224160671235,158.88695703813528L135.35865293979643,156.61208033648026L135.40506427288057,156.7007129961068L135.42826993942262,158.5472803729699L135.45147560596465,157.9099653115467L135.63712093830108,158.50502191973692L136.51893626689912,159.0001487186788L136.8206099319458,159.37300546796578L137.16869493007658,158.93162058169256L137.60960259437562,159.0717594362215L137.70242526054383,158.71492533092587L137.86486492633819,157.55460474750606L137.9576875925064,158.960735724421L138.07371592521667,159.19668863503776L138.79309158802033,159.33022195980283L139.02514825344088,158.18839685972188L139.0483539199829,159.15109354241122L139.7909352493286,159.28240808666587L140.3478712463379,159.35379861988312L140.67275057792662,158.84888208708608L140.78877891063692,159.02868799470988L141.0904525756836,158.49729853108994L141.11365824222565,159.07570581682404L141.29930357456206,158.3607842493032L141.3457149076462,158.38703699580066L141.46174324035644,158.86824137047097L142.32035290241242,159.32192270445847L142.4131755685806,158.82432306616911L142.50599823474886,158.55124369082824L142.76126056671143,158.87030771567916L142.78446623325348,158.4856456990962L142.8308775663376,158.32352228653264L142.85408323287965,159.19673944680517L143.59666456222536,159.0880192017941L143.85192689418793,159.41700845854666L143.89833822727203,159.42125970975366L144.0143665599823,158.20169260552865L144.0607778930664,158.93292475038953L144.1768062257767,158.97074564260166L144.31604022502898,158.28527796292536L144.47847989082337,159.14902719720303L144.78015355587007,159.48872079962422L145.12823855400086,156.30439814753018L145.2442668867111,158.78697641711952L145.33708955287935,159.42535852565842L145.40670655250548,156.13760005236446L145.89402554988862,158.25385935340745L146.10287654876709,158.75631998411282L146.6366068792343,158.10432032190684L146.65981254577636,159.0523493410692L146.72942954540252,159.07994013077524L146.77584087848663,154.86982951811896L146.86866354465485,159.2884377497324L147.00789754390718,158.45253336399782L147.65765620708464,157.4405323296607L147.8433015394211,158.4841382833296L148.37703186988833,157.51404001985355L148.5858828687668,155.8956174786812L148.6090885353088,158.4464020773965L148.9339678668976,158.5236359638664L149.09640753269196,159.5747451218568L149.58372653007507,159.2087987729382L149.74616619586942,159.12118234865994L149.79257752895356,159.55435266586784L149.86219452857972,159.53025095085758L149.90860586166383,156.35797068764077L150.95286085605622,158.11363581259948L151.06888918876646,159.23730417445768L151.09209485530852,156.94355936983612L151.2545345211029,157.78368113226605L151.34735718727111,159.13263193358398L151.39376852035522,158.4676413961757L151.9042931842804,159.26199869342108L152.41481784820556,153.94034679406286L153.27342751026154,158.9874796513368L154.1784485054016,158.14920404978957L154.41050517082215,159.5358910570406L154.73538450241088,159.14904413445885L155.19949783325197,158.6392666092458L155.80284516334532,158.688621772661L156.03490182876587,158.99191721235766L156.19734149456022,159.34753183523534L156.42939815998076,159.1119346069905L156.70786615848542,159.34973367848997L156.77748315811155,157.64325434438842L156.8238944911957,158.8088424143635L156.84710015773774,157.99792048094105L157.17197948932647,159.4213613332885L157.38083048820496,159.33836877984496L157.56647582054137,159.09386255504677L158.56431948184968,159.3727344718729L159.3533121442795,158.97281198780985L159.65498580932618,159.0999091553691L159.67819147586823,159.3914162650256L159.72460280895234,159.42788217677335L161.25617680072784,159.38958704139867L161.37220513343811,158.96276819511758L161.44182213306428,159.45542215471195L161.6274674654007,159.21469293795826L162.0219637966156,159.4369097341173L162.23081479549407,159.4178214468253L162.39325446128848,159.37195535810588L162.53248846054078,159.37317484052383L162.67172245979307,159.49903558840933L162.69492812633516,159.4802860462334L163.507126455307,158.96439417167485L163.69277178764344,158.950759680752L164.22650211811066,159.60878900602447L164.27291345119477,159.52312036616377L164.2961191177368,159.5334012804373L164.94587778091432,159.30249567205038L165.03870044708253,159.34939493337387L165.0851117801666,158.2454923490399L165.5492251110077,159.5391091356435L165.66525344371794,159.0128516605324L165.71166477680205,158.793615821395L165.75807610988616,158.9328570013663L166.36142343997957,158.8011020884607L167.22003310203553,159.4971047412476L167.35926710128783,159.30161493474853L167.59132376670837,159.5567069444247L167.6841464328766,159.4447178090433L167.7769690990448,159.57789545143652L167.93940876483916,159.63577005452152L168.10184843063354,159.60936487272184L168.28749376296994,158.6095925370758L168.93725242614747,158.8461382516457L168.98366375923158,159.065729773155L169.14610342502596,159.2846268671763L169.33174875736236,158.7336748731018L169.35495442390442,159.62789423057228L169.42457142353058,159.31638422181032L169.74945075511934,159.47981180307087L170.07433008670807,159.3212113397147L170.16715275287626,159.4668886768918L170.21356408596037,158.6780529250388L170.51523775100708,159.6655965619938L170.77050008296965,159.44659784443766L170.7937057495117,157.43053934873586L170.909734082222,159.5559617051693L170.95614541530608,157.21548701178227L171.02576241493225,159.5499489793586L171.8843720769882,159.3646723381098L172.30207407474518,159.62659006187533L172.74298173904418,159.11550836796533L172.8822157382965,159.55729974837786L173.11427240371705,159.40406839511178L173.43915173530578,159.56287210553765L173.85685373306274,159.14733347162255L173.92647073268893,159.55960321516733L173.94967639923098,159.45118784076075L174.7154633951187,159.70854944271477L174.78508039474488,159.41091104645693L174.99393139362334,159.28635446726838L175.13316539287567,155.55321391533124L175.24919372558594,159.52124033076944L175.27239939212797,159.6660030561331L175.55086739063262,159.56954538432473L175.6668957233429,159.52413660151205L176.03818638801573,159.71092065852744L176.15421472072603,159.61116022183714L176.27024305343627,159.53926157094574L176.3630657196045,159.6335343367553L176.73435638427736,159.59280023654475L177.0592357158661,159.43875589500004L177.52334904670715,158.48672968346773L177.80181704521178,158.73521616338002L178.08028504371643,159.60126886444715L178.89248337268828,159.72145563163804L179.05492303848268,159.0382575442396L179.17095137119293,158.17425425112486L179.21736270427704,159.35395105518538L179.26377403736115,159.48169183846522L179.40300803661347,159.46588937879932L179.49583070278166,159.53821146108584L179.86712136745453,159.46101144912754L180.12238369941713,159.65602701246408L180.16879503250124,159.4460219777403L180.47046869754791,157.53766749170126L180.6793196964264,159.42998239649313L181.0738160276413,159.5048958789178L181.51472369194033,158.96192133232734L181.74678035736082,159.5313518724849L181.88601435661317,159.4164156545935L182.00204268932342,158.86954553916794L182.04845402240755,159.48116678353526L182.18768802165985,159.59820322114646L182.39653902053834,159.4689719593558L182.5589786863327,159.67423456245425L182.76782968521118,159.72392847098553L183.67285068035125,159.5774720200414L183.71926201343535,159.02755319857096L183.78887901306155,159.49807016482845L184.04414134502412,159.23013971525225L184.20658101081847,158.9370405035501L184.71710567474366,159.3451775566785L185.0883963394165,159.55872247786547L185.45968700408937,159.25415674398346L185.57571533679962,159.5228493700709L185.62212666988373,158.45730967013478L185.69174366950986,159.33408365412635L185.94700600147246,159.48114984627946L186.08624000072479,158.19110682065065L186.31829666614533,159.52269693476865L186.34150233268738,159.36572244796972L186.68958733081817,159.5514394578694L186.89843832969666,159.17927713607043L186.9216439962387,159.20822290624082L187.68743099212648,158.87708261800108L188.2211613225937,159.5312841234617L188.38360098838805,159.66254785594893L188.45321798801422,159.1041265320645L188.59245198726654,159.67745264105716L189.47426731586455,159.32713937924638L189.77594098091126,159.58358636938692L189.7991466474533,159.70926080745858L189.8455579805374,159.19736612526995L189.98479197978975,159.6328737837789L190.05440897941588,159.46727823377532L190.47211097717286,159.53827921010907L190.8898129749298,159.24009882166547L191.4467489719391,159.53360452750695L191.53957163810728,159.35942178881032L191.81803963661193,159.34553323905038L192.02689063549042,159.46780328870528L192.46779829978945,159.6666636091095L192.67664929866788,159.60833170011773L192.81588329792024,159.60589273528186L193.41923062801362,159.5940366562185L193.5120532941818,158.93997064880432L193.55846462726595,159.65980402050855L193.86013829231263,159.354764043464L193.90654962539674,159.67879068426572L193.9761666250229,159.66302209911146L194.09219495773314,159.5821128281319L194.1850176239014,159.6617348676703L194.4170742893219,159.65726343213782L194.6027196216583,159.4623325550803L195.34530095100402,159.61715601039205L195.50774061679837,159.6424602705644L195.76300294876097,159.63397470540622L195.78620861530302,159.69974206969627L195.85582561492922,159.68641244937788L195.92544261455535,159.70502649350738L196.3431446123123,159.50586130249866L196.43596727848055,159.62355829308626L196.52878994464874,159.70345132871753L196.57520127773284,159.61991678308823L196.85366927623747,158.25551920447634L197.41060527324674,159.60104868012166L197.6890732717514,159.6546889692555L197.87471860408783,159.63939462726375L198.01395260334013,159.53184305290324L198.26921493530273,159.65104745925746L198.45486026763916,159.54573160266318L198.50127160072327,159.509130192869L198.6405055999756,159.6793665509631L198.7797395992279,159.59484964449712L199.05820759773255,159.61432748867264L199.4294982624054,159.7103447918301L199.59193792819977,159.61368387295207L199.63834926128388,159.5859575851996L199.68476059436796,159.3212113397147L199.75437759399415,159.5902427109182L200.47375325679778,159.44458231099688L200.49695892333983,159.40455957553013L200.61298725605013,159.27397333327508L200.63619292259216,159.39646356725544L200.93786658763887,159.66346246776237L200.98427792072297,159.66141305981L201.007483587265,157.67509638530146L201.5644195842743,159.53387552359982L202.3998235797882,159.37967874675286L202.53905757904053,158.89151315994678L202.56226324558259,159.6829233746821L202.6086745786667,159.48070947762852L203.21202190876008,159.4281023610988L203.23522757530213,159.64454355302843L203.30484457492827,159.6293508345715L203.32805024147032,159.3706342521531L204.0938372373581,159.2605759639335L204.11704290390014,159.64266351763408L204.44192223548887,159.61251520230152L204.72039023399353,159.15969766836005L205.11488656520845,159.71906747856957L205.20770923137664,158.7421435010042L205.39335456371307,159.50633554566122L205.50938289642335,159.53228342155415L205.5325885629654,159.5250342760697L205.67182256221773,159.60760339811813L205.81105656147002,159.67567422919765L206.13593589305876,159.6078235824436L206.43760955810546,159.51614221677218L206.5768435573578,159.49156625859942L206.92492855548858,159.54817056749908L206.94813422203063,159.54073511220076L207.15698522090912,159.6568230634869L207.20339655399323,159.51133203612363L207.22660222053528,159.42024347440537L207.38904188632966,159.66120981274034L207.9227722167969,159.55643594833182L208.54932521343233,159.17846414779177L209.47755187511444,159.59920251923896L209.54716887474058,159.57347482767145L209.57037454128266,159.37779871135854L209.61678587436677,159.49171869390165L209.9416652059555,159.697421665651L210.12731053829194,159.3818636527517L210.2897502040863,159.72777322805322L210.3825728702545,159.59070001682494L210.66104086875913,159.68039972356718L210.6842465353012,159.73055093800522L210.84668620109557,159.5461211595467L211.10194853305816,159.65983789502016L211.70529586315155,159.71512109796703L211.89094119548798,159.64220621172734L212.1694091939926,159.65421472609296L212.21582052707672,159.7410012248368L212.331848859787,159.6342626387549L212.65672819137575,159.56744516460495L212.6799338579178,159.63516031331255L212.7263451910019,159.4484948170878L213.1672528553009,159.63932687824052L213.32969252109527,159.722759800335L213.5153378534317,159.58480585180487L213.53854351997376,159.50975687133376L213.88662851810454,159.72548669851957L213.9098341846466,159.55889185042352L214.18830218315125,159.71877954522088L214.2115078496933,159.6413085371697L214.79164951324464,158.0401111851508L215.3021741771698,159.63832758014806L215.4414081764221,159.68725931216812L215.5110251760483,159.7037053875546L215.53423084259035,158.42594187238427L215.62705350875854,159.7477422526471L215.74308184146884,159.65668756544045L215.85911017417908,159.6255230147596L216.97298216819763,159.54351282215276L217.0425991678238,159.66346246776237L217.29786149978636,159.59080164035976L217.36747849941253,159.70141885802096L217.50671249866485,159.50481119263878L217.62274083137513,159.6251334578761L217.80838616371156,159.6803658490556L218.08685416221618,158.96544428153476L218.41173349380492,159.6437813765172L218.5277618265152,159.7065508465298L218.99187515735625,159.6716262250603L219.45598848819733,159.65485834181354L219.4791941547394,159.67845193914962L219.57201682090758,159.41543329375682L220.2681868171692,159.61837549281L220.5698604822159,159.58865060887257L220.96435681343078,159.60230203705123L221.17320781230927,159.53003076653212L221.38205881118776,159.64964166702566L221.59090981006622,159.58499216161871L221.73014380931855,159.6819240765896L221.7533494758606,159.7053991131351L221.93899480819704,159.4559133351303L222.82081013679505,159.61918848108863L222.93683846950532,159.69040964174783L223.21530646800994,159.64264658037828L223.26171780109405,159.73139780079546L223.2849234676361,159.72453821219452L223.42415746688843,159.74777612715872L224.16673879623414,159.48101434823303L224.25956146240236,159.68256769231022L224.978937125206,159.72289529838145L225.1181711244583,159.64296838823856L225.419844789505,159.20720667089253L225.53587312221526,159.6342287642433L225.6751071214676,159.6970829205349L226.13922045230868,159.71871179619765L226.32486578464508,159.70531442685606L226.37127711772916,159.56605630962895L226.88180178165436,159.2775301569941L226.92821311473844,159.68439691593713L227.16026978015898,159.64986185135112L227.41553211212158,159.4940052234353L227.50835477828977,159.71149652522482L227.5547661113739,159.54044717885208L227.71720577716826,159.6889361004928L227.9028511095047,159.68370248844911L227.97246810913086,159.1633730528697L228.2045247745514,159.44925699359902L228.9471061038971,159.5694098862783L229.06313443660736,159.69604974793083L229.22557410240174,159.66476663645935L229.4808364343643,159.56935907451088L229.62007043361663,159.53407877066948L229.782510099411,159.6261496932244L230.03777243137358,159.5644303330717L230.15380076408385,159.60914468839638L230.24662343025207,159.08988229993264L230.6875310945511,159.56631036846602L231.29087842464446,159.69403421449005L231.38370109081268,159.59117425998747L231.59255208969117,159.7062121014137L231.7317860889435,159.70956567806306L231.75499175548555,159.6504715925601L231.84781442165374,159.68453241398356L232.21910508632658,159.64428949419136L232.59039575099948,159.7453540995786L232.84565808296202,159.62286386559828L233.2169487476349,159.3554245964404L233.42579974651338,159.61995065759984L233.58823941230773,159.5347901354133L233.70426774501803,159.4308800710508L234.7949340724945,159.66981393868917L234.88775673866272,159.7347175029332L235.60713240146637,159.6638181501343L235.7927777338028,159.686056767006L235.81598340034483,159.7371903422807L235.86239473342894,159.48253870125546L235.885600399971,159.6800271039395L236.41933073043822,159.77794137974706L236.48894773006438,159.59439233859038L236.55856472969057,159.67154153878127L236.72100439548493,159.71271600764277L236.7906213951111,159.66251398143731L236.90664972782136,159.48243707772062L236.99947239398955,159.60843332365258L237.20832339286804,159.3769857230799L237.2315290594101,159.63192529745385L237.32435172557828,159.56951150981314L237.50999705791472,159.3812369742869L237.83487638950348,159.6740990644078L237.9276990556717,159.6484221846077L237.95090472221375,159.636684666335L238.8327200508118,159.61864648890287L239.1111880493164,159.68587045719215L239.15759938240052,159.59134363254552L239.3200390481949,159.69721841858137L239.55209571361542,159.6814667706829L239.57530138015747,159.7382573893964L239.6681240463257,159.72638437307722L239.7145353794098,159.70162210509062L239.80735804557798,159.6734554486872L239.87697504520418,159.56114450544555L240.08582604408264,159.28859018503462L240.24826570987702,159.5948665817529L240.41070537567137,159.53568780997094L240.5499393749237,158.9653426579999L240.57314504146575,159.69227273988636L240.7123790407181,159.59381647189304L240.82840737342835,159.4249181570075L241.0604640388489,159.46101144912754L241.29252070426944,159.75004571943654L241.43175470352173,159.65109827102486L241.57098870277406,159.65619638502213L241.77983970165252,159.66488519725L242.24395303249358,159.19917841164107L242.31357003211974,159.5891248520351L242.35998136520385,158.9931197575198L242.63844936370847,158.70251032242095L242.66165503025053,157.86464121501302L242.84730036258696,159.57655740822793L242.98653436183932,159.62603113243375L243.0329456949234,159.28457605540888L243.40423635959624,159.67489511543062L243.4274420261383,159.60304727630665L243.45064769268035,159.65726343213782L243.49705902576446,159.70953180355144L244.14681768894195,159.58538171850222L244.23964035511017,159.62769098350265L244.5645196866989,159.67777444891743L244.7733706855774,159.6384461409387L244.98222168445588,159.6846001630068L245.21427834987642,159.63258585043022L245.33030668258667,159.62852090903706L245.84083134651183,159.64992960037435L246.02647667884824,159.33010339901222L246.1657106781006,159.50514993775488L246.46738434314727,159.53819452383004L247.23317133903504,159.5588579759119L247.58125633716583,159.5920211227777L247.650873336792,159.70118173643968L247.67407900333404,159.2151841183766L247.7436960029602,159.23625406459777L247.95254700183867,157.92954477925704L248.0453696680069,159.6797052960792L248.1381923341751,159.39993570469542L248.41666033267975,159.48958459967025L248.4398659992218,159.40545725008778L248.6023056650162,159.71364755671203L249.15924166202547,158.97028833669492L249.20565299510957,159.63456750935939L249.55373799324036,159.76672891640428L249.57694365978242,159.73034769093556L249.6233549928665,159.52334055048922L249.71617765903474,159.6952028851406L249.7857946586609,159.5439870653153L249.9946456575394,159.6582288557187L250.36593632221224,159.6800779157069L250.43555332183837,159.56824121562778L250.59799298763275,159.71315637629368L250.94607798576354,159.6423755842854L251.20134031772614,159.64952310623502L251.50301398277284,159.65355417311656L251.80468764781952,159.7770267679336L252.12956697940825,159.49657968631763L252.19918397903442,159.5821128281319L252.3616236448288,159.53814371206263L252.80253130912783,159.69723535583717L252.82573697566988,159.65448572218583L252.94176530838013,159.72536813772894" fill="none"></path></g></g></g></g></g></g><g transform="translate(51, 177)" clip-path="url(#clip_1)"><clipPath id="clip_1"><rect width="278" height="22"></rect></clipPath><g><g><line x1="0" y1="0" x2="0" y2="5" style="visibility: inherit;" fill="rgb(0, 0, 0)" stroke="rgb(204, 204, 204)" stroke-width="1px"></line><line x1="23.205666542053223" y1="0" x2="23.205666542053223" y2="5" style="visibility: inherit;" fill="rgb(0, 0, 0)" stroke="rgb(204, 204, 204)" stroke-width="1px"></line><line x1="46.411333084106445" y1="0" x2="46.411333084106445" y2="5" style="visibility: inherit;" fill="rgb(0, 0, 0)" stroke="rgb(204, 204, 204)" stroke-width="1px"></line><line x1="69.61699962615967" y1="0" x2="69.61699962615967" y2="5" style="visibility: inherit;" fill="rgb(0, 0, 0)" stroke="rgb(204, 204, 204)" stroke-width="1px"></line><line x1="92.82266616821289" y1="0" x2="92.82266616821289" y2="5" style="visibility: inherit;" fill="rgb(0, 0, 0)" stroke="rgb(204, 204, 204)" stroke-width="1px"></line><line x1="116.02833271026611" y1="0" x2="116.02833271026611" y2="5" style="visibility: inherit;" fill="rgb(0, 0, 0)" stroke="rgb(204, 204, 204)" stroke-width="1px"></line><line x1="139.23399925231934" y1="0" x2="139.23399925231934" y2="5" style="visibility: inherit;" fill="rgb(0, 0, 0)" stroke="rgb(204, 204, 204)" stroke-width="1px"></line><line x1="162.43966579437256" y1="0" x2="162.43966579437256" y2="5" style="visibility: inherit;" fill="rgb(0, 0, 0)" stroke="rgb(204, 204, 204)" stroke-width="1px"></line><line x1="185.64533233642578" y1="0" x2="185.64533233642578" y2="5" style="visibility: inherit;" fill="rgb(0, 0, 0)" stroke="rgb(204, 204, 204)" stroke-width="1px"></line><line x1="208.850998878479" y1="0" x2="208.850998878479" y2="5" style="visibility: inherit;" fill="rgb(0, 0, 0)" stroke="rgb(204, 204, 204)" stroke-width="1px"></line><line x1="232.05666542053223" y1="0" x2="232.05666542053223" y2="5" style="visibility: inherit;" fill="rgb(0, 0, 0)" stroke="rgb(204, 204, 204)" stroke-width="1px"></line><line x1="255.26233196258545" y1="0" x2="255.26233196258545" y2="5" style="visibility: inherit;" fill="rgb(0, 0, 0)" stroke="rgb(204, 204, 204)" stroke-width="1px"></line><line x1="278.4679985046387" y1="0" x2="278.4679985046387" y2="5" style="visibility: inherit;" fill="rgb(0, 0, 0)" stroke="rgb(204, 204, 204)" stroke-width="1px"></line></g><g transform="translate(0, 8)"><text style="text-anchor: middle; visibility: hidden; font-family: Roboto, sans-serif; font-size: 12px; font-weight: 200;" x="0" y="0" dx="0em" dy="0.95em" fill="rgb(50, 49, 63)" stroke="none" stroke-width="1px">-1k</text><text style="text-anchor: middle; visibility: inherit; font-family: Roboto, sans-serif; font-size: 12px; font-weight: 200;" x="23.205666542053223" y="0" dx="0em" dy="0.95em" fill="rgb(50, 49, 63)" stroke="none" stroke-width="1px">0</text><text style="text-anchor: middle; visibility: inherit; font-family: Roboto, sans-serif; font-size: 12px; font-weight: 200;" x="46.411333084106445" y="0" dx="0em" dy="0.95em" fill="rgb(50, 49, 63)" stroke="none" stroke-width="1px">1k</text><text style="text-anchor: middle; visibility: inherit; font-family: Roboto, sans-serif; font-size: 12px; font-weight: 200;" x="69.61699962615967" y="0" dx="0em" dy="0.95em" fill="rgb(50, 49, 63)" stroke="none" stroke-width="1px">2k</text><text style="text-anchor: middle; visibility: inherit; font-family: Roboto, sans-serif; font-size: 12px; font-weight: 200;" x="92.82266616821289" y="0" dx="0em" dy="0.95em" fill="rgb(50, 49, 63)" stroke="none" stroke-width="1px">3k</text><text style="text-anchor: middle; visibility: inherit; font-family: Roboto, sans-serif; font-size: 12px; font-weight: 200;" x="116.02833271026611" y="0" dx="0em" dy="0.95em" fill="rgb(50, 49, 63)" stroke="none" stroke-width="1px">4k</text><text style="text-anchor: middle; visibility: inherit; font-family: Roboto, sans-serif; font-size: 12px; font-weight: 200;" x="139.23399925231934" y="0" dx="0em" dy="0.95em" fill="rgb(50, 49, 63)" stroke="none" stroke-width="1px">5k</text><text style="text-anchor: middle; visibility: inherit; font-family: Roboto, sans-serif; font-size: 12px; font-weight: 200;" x="162.43966579437256" y="0" dx="0em" dy="0.95em" fill="rgb(50, 49, 63)" stroke="none" stroke-width="1px">6k</text><text style="text-anchor: middle; visibility: inherit; font-family: Roboto, sans-serif; font-size: 12px; font-weight: 200;" x="185.64533233642578" y="0" dx="0em" dy="0.95em" fill="rgb(50, 49, 63)" stroke="none" stroke-width="1px">7k</text><text style="text-anchor: middle; visibility: inherit; font-family: Roboto, sans-serif; font-size: 12px; font-weight: 200;" x="208.850998878479" y="0" dx="0em" dy="0.95em" fill="rgb(50, 49, 63)" stroke="none" stroke-width="1px">8k</text><text style="text-anchor: middle; visibility: inherit; font-family: Roboto, sans-serif; font-size: 12px; font-weight: 200;" x="232.05666542053223" y="0" dx="0em" dy="0.95em" fill="rgb(50, 49, 63)" stroke="none" stroke-width="1px">9k</text><text style="text-anchor: middle; visibility: inherit; font-family: Roboto, sans-serif; font-size: 12px; font-weight: 200;" x="255.26233196258545" y="0" dx="0em" dy="0.95em" fill="rgb(50, 49, 63)" stroke="none" stroke-width="1px">10k</text><text style="text-anchor: middle; visibility: hidden; font-family: Roboto, sans-serif; font-size: 12px; font-weight: 200;" x="278.4679985046387" y="0" dx="0em" dy="0.95em" fill="rgb(50, 49, 63)" stroke="none" stroke-width="1px">11k</text></g><line x1="0" y1="0" x2="278.4679985046387" y2="0" fill="rgb(0, 0, 0)" stroke="rgb(204, 204, 204)" stroke-width="1px"></line></g></g></g></g></svg>