<svg viewBox="0 0 330 200" xmlns="http://www.w3.org/2000/svg"><g><g><g><g><g><line x1="61.91500186920166" y1="177.5999994277954" x2="56.91500186920166" y2="177.5999994277954" style="visibility: inherit;" fill="rgb(0, 0, 0)" stroke="rgb(204, 204, 204)" stroke-width="1px"></line><line x1="61.91500186920166" y1="162.79999947547913" x2="56.91500186920166" y2="162.79999947547913" style="visibility: inherit;" fill="rgb(0, 0, 0)" stroke="rgb(204, 204, 204)" stroke-width="1px"></line><line x1="61.91500186920166" y1="147.99999952316284" x2="56.91500186920166" y2="147.99999952316284" style="visibility: inherit;" fill="rgb(0, 0, 0)" stroke="rgb(204, 204, 204)" stroke-width="1px"></line><line x1="61.91500186920166" y1="133.19999957084656" x2="56.91500186920166" y2="133.19999957084656" style="visibility: inherit;" fill="rgb(0, 0, 0)" stroke="rgb(204, 204, 204)" stroke-width="1px"></line><line x1="61.91500186920166" y1="118.39999961853027" x2="56.91500186920166" y2="118.39999961853027" style="visibility: inherit;" fill="rgb(0, 0, 0)" stroke="rgb(204, 204, 204)" stroke-width="1px"></line><line x1="61.91500186920166" y1="103.59999966621398" x2="56.91500186920166" y2="103.59999966621398" style="visibility: inherit;" fill="rgb(0, 0, 0)" stroke="rgb(204, 204, 204)" stroke-width="1px"></line><line x1="61.91500186920166" y1="88.79999971389769" x2="56.91500186920166" y2="88.79999971389769" style="visibility: inherit;" fill="rgb(0, 0, 0)" stroke="rgb(204, 204, 204)" stroke-width="1px"></line><line x1="61.91500186920166" y1="73.99999976158144" x2="56.91500186920166" y2="73.99999976158144" style="visibility: inherit;" fill="rgb(0, 0, 0)" stroke="rgb(204, 204, 204)" stroke-width="1px"></line><line x1="61.91500186920166" y1="59.19999980926512" x2="56.91500186920166" y2="59.19999980926512" style="visibility: inherit;" fill="rgb(0, 0, 0)" stroke="rgb(204, 204, 204)" stroke-width="1px"></line><line x1="61.91500186920166" y1="44.39999985694885" x2="56.91500186920166" y2="44.39999985694885" style="visibility: inherit;" fill="rgb(0, 0, 0)" stroke="rgb(204, 204, 204)" stroke-width="1px"></line><line x1="61.91500186920166" y1="29.599999904632583" x2="56.91500186920166" y2="29.599999904632583" style="visibility: inherit;" fill="rgb(0, 0, 0)" stroke="rgb(204, 204, 204)" stroke-width="1px"></line><line x1="61.91500186920166" y1="14.799999952316272" x2="56.91500186920166" y2="14.799999952316272" style="visibility: inherit;" fill="rgb(0, 0, 0)" stroke="rgb(204, 204, 204)" stroke-width="1px"></line><line x1="61.91500186920166" y1="0" x2="56.91500186920166" y2="0" style="visibility: inherit;" fill="rgb(0, 0, 0)" stroke="rgb(204, 204, 204)" stroke-width="1px"></line></g><g transform="translate(51.91500186920166, 0)"><text style="text-anchor: end; visibility: hidden; font-family: Roboto, sans-serif; font-size: 12px; font-weight: 200;" x="0" y="177.5999994277954" dx="0em" dy="0.3em" fill="rgb(50, 49, 63)" stroke="none" stroke-width="1px">-0.01</text><text style="text-anchor: end; visibility: inherit; font-family: Roboto, sans-serif; font-size: 12px; font-weight: 200;" x="0" y="162.79999947547913" dx="0em" dy="0.3em" fill="rgb(50, 49, 63)" stroke="none" stroke-width="1px">0</text><text style="text-anchor: end; visibility: hidden; font-family: Roboto, sans-serif; font-size: 12px; font-weight: 200;" x="0" y="147.99999952316284" dx="0em" dy="0.3em" fill="rgb(50, 49, 63)" stroke="none" stroke-width="1px">0.01</text><text style="text-anchor: end; visibility: inherit; font-family: Roboto, sans-serif; font-size: 12px; font-weight: 200;" x="0" y="133.19999957084656" dx="0em" dy="0.3em" fill="rgb(50, 49, 63)" stroke="none" stroke-width="1px">0.02</text><text style="text-anchor: end; visibility: hidden; font-family: Roboto, sans-serif; font-size: 12px; font-weight: 200;" x="0" y="118.39999961853027" dx="0em" dy="0.3em" fill="rgb(50, 49, 63)" stroke="none" stroke-width="1px">0.03</text><text style="text-anchor: end; visibility: inherit; font-family: Roboto, sans-serif; font-size: 12px; font-weight: 200;" x="0" y="103.59999966621398" dx="0em" dy="0.3em" fill="rgb(50, 49, 63)" stroke="none" stroke-width="1px">0.04</text><text style="text-anchor: end; visibility: hidden; font-family: Roboto, sans-serif; font-size: 12px; font-weight: 200;" x="0" y="88.79999971389769" dx="0em" dy="0.3em" fill="rgb(50, 49, 63)" stroke="none" stroke-width="1px">0.05</text><text style="text-anchor: end; visibility: inherit; font-family: Roboto, sans-serif; font-size: 12px; font-weight: 200;" x="0" y="73.99999976158144" dx="0em" dy="0.3em" fill="rgb(50, 49, 63)" stroke="none" stroke-width="1px">0.06</text><text style="text-anchor: end; visibility: hidden; font-family: Roboto, sans-serif; font-size: 12px; font-weight: 200;" x="0" y="59.19999980926512" dx="0em" dy="0.3em" fill="rgb(50, 49, 63)" stroke="none" stroke-width="1px">0.07</text><text style="text-anchor: end; visibility: inherit; font-family: Roboto, sans-serif; font-size: 12px; font-weight: 200;" x="0" y="44.39999985694885" dx="0em" dy="0.3em" fill="rgb(50, 49, 63)" stroke="none" stroke-width="1px">0.08</text><text style="text-anchor: end; visibility: hidden; font-family: Roboto, sans-serif; font-size: 12px; font-weight: 200;" x="0" y="29.599999904632583" dx="0em" dy="0.3em" fill="rgb(50, 49, 63)" stroke="none" stroke-width="1px">0.09</text><text style="text-anchor: end; visibility: inherit; font-family: Roboto, sans-serif; font-size: 12px; font-weight: 200;" x="0" y="14.799999952316272" dx="0em" dy="0.3em" fill="rgb(50, 49, 63)" stroke="none" stroke-width="1px">0.1</text><text style="text-anchor: end; visibility: hidden; font-family: Roboto, sans-serif; font-size: 12px; font-weight: 200;" x="0" y="0" dx="0em" dy="0.3em" fill="rgb(50, 49, 63)" stroke="none" stroke-width="1px">0.11</text></g><line x1="61.91500186920166" y1="0" x2="61.91500186920166" y2="177.5999994277954" fill="rgb(0, 0, 0)" stroke="rgb(204, 204, 204)" stroke-width="1px"></line></g></g><g transform="translate(61, 0)" clip-path="url(#clip_0)"><clipPath id="clip_0"><rect width="268" height="177"></rect></clipPath><g><g><g><line x1="0" y1="0" x2="0" y2="177.5999994277954" fill="rgb(0, 0, 0)" stroke="rgb(60, 60, 60)" stroke-width="1px" opacity="0.25"></line><line x1="22.34041651089986" y1="0" x2="22.34041651089986" y2="177.5999994277954" fill="rgb(0, 0, 0)" stroke="rgb(60, 60, 60)" stroke-width="1px" opacity="0.25"></line><line x1="44.68083302179972" y1="0" x2="44.68083302179972" y2="177.5999994277954" fill="rgb(0, 0, 0)" stroke="rgb(60, 60, 60)" stroke-width="1px" opacity="0.25"></line><line x1="67.02124953269958" y1="0" x2="67.02124953269958" y2="177.5999994277954" fill="rgb(0, 0, 0)" stroke="rgb(60, 60, 60)" stroke-width="1px" opacity="0.25"></line><line x1="89.36166604359944" y1="0" x2="89.36166604359944" y2="177.5999994277954" fill="rgb(0, 0, 0)" stroke="rgb(60, 60, 60)" stroke-width="1px" opacity="0.25"></line><line x1="111.70208255449931" y1="0" x2="111.70208255449931" y2="177.5999994277954" fill="rgb(0, 0, 0)" stroke="rgb(60, 60, 60)" stroke-width="1px" opacity="0.25"></line><line x1="134.04249906539917" y1="0" x2="134.04249906539917" y2="177.5999994277954" fill="rgb(0, 0, 0)" stroke="rgb(60, 60, 60)" stroke-width="1px" opacity="0.25"></line><line x1="156.38291557629904" y1="0" x2="156.38291557629904" y2="177.5999994277954" fill="rgb(0, 0, 0)" stroke="rgb(60, 60, 60)" stroke-width="1px" opacity="0.25"></line><line x1="178.72333208719888" y1="0" x2="178.72333208719888" y2="177.5999994277954" fill="rgb(0, 0, 0)" stroke="rgb(60, 60, 60)" stroke-width="1px" opacity="0.25"></line><line x1="201.06374859809875" y1="0" x2="201.06374859809875" y2="177.5999994277954" fill="rgb(0, 0, 0)" stroke="rgb(60, 60, 60)" stroke-width="1px" opacity="0.25"></line><line x1="223.40416510899863" y1="0" x2="223.40416510899863" y2="177.5999994277954" fill="rgb(0, 0, 0)" stroke="rgb(60, 60, 60)" stroke-width="1px" opacity="0.25"></line><line x1="245.74458161989847" y1="0" x2="245.74458161989847" y2="177.5999994277954" fill="rgb(0, 0, 0)" stroke="rgb(60, 60, 60)" stroke-width="1px" opacity="0.25"></line><line x1="268.08499813079834" y1="0" x2="268.08499813079834" y2="177.5999994277954" fill="rgb(0, 0, 0)" stroke="rgb(60, 60, 60)" stroke-width="1px" opacity="0.25"></line></g><g><line x1="0" y1="177.5999994277954" x2="268.08499813079834" y2="177.5999994277954" fill="rgb(0, 0, 0)" stroke="rgb(60, 60, 60)" stroke-width="1px" opacity="0.25"></line><line x1="0" y1="162.79999947547913" x2="268.08499813079834" y2="162.79999947547913" fill="rgb(0, 0, 0)" stroke="rgb(60, 60, 60)" stroke-width="1px" opacity="0.25"></line><line x1="0" y1="147.99999952316284" x2="268.08499813079834" y2="147.99999952316284" fill="rgb(0, 0, 0)" stroke="rgb(60, 60, 60)" stroke-width="1px" opacity="0.25"></line><line x1="0" y1="133.19999957084656" x2="268.08499813079834" y2="133.19999957084656" fill="rgb(0, 0, 0)" stroke="rgb(60, 60, 60)" stroke-width="1px" opacity="0.25"></line><line x1="0" y1="118.39999961853027" x2="268.08499813079834" y2="118.39999961853027" fill="rgb(0, 0, 0)" stroke="rgb(60, 60, 60)" stroke-width="1px" opacity="0.25"></line><line x1="0" y1="103.59999966621398" x2="268.08499813079834" y2="103.59999966621398" fill="rgb(0, 0, 0)" stroke="rgb(60, 60, 60)" stroke-width="1px" opacity="0.25"></line><line x1="0" y1="88.79999971389769" x2="268.08499813079834" y2="88.79999971389769" fill="rgb(0, 0, 0)" stroke="rgb(60, 60, 60)" stroke-width="1px" opacity="0.25"></line><line x1="0" y1="73.99999976158144" x2="268.08499813079834" y2="73.99999976158144" fill="rgb(0, 0, 0)" stroke="rgb(60, 60, 60)" stroke-width="1px" opacity="0.25"></line><line x1="0" y1="59.19999980926512" x2="268.08499813079834" y2="59.19999980926512" fill="rgb(0, 0, 0)" stroke="rgb(60, 60, 60)" stroke-width="1px" opacity="0.25"></line><line x1="0" y1="44.39999985694885" x2="268.08499813079834" y2="44.39999985694885" fill="rgb(0, 0, 0)" stroke="rgb(60, 60, 60)" stroke-width="1px" opacity="0.25"></line><line x1="0" y1="29.599999904632583" x2="268.08499813079834" y2="29.599999904632583" fill="rgb(0, 0, 0)" stroke="rgb(60, 60, 60)" stroke-width="1px" opacity="0.25"></line><line x1="0" y1="14.799999952316272" x2="268.08499813079834" y2="14.799999952316272" fill="rgb(0, 0, 0)" stroke="rgb(60, 60, 60)" stroke-width="1px" opacity="0.25"></line><line x1="0" y1="0" x2="268.08499813079834" y2="0" fill="rgb(0, 0, 0)" stroke="rgb(60, 60, 60)" stroke-width="1px" opacity="0.25"></line></g></g></g><g><g><line x1="0" y1="162.79999947547913" x2="268.08499813079834" y2="162.79999947547913" fill="rgb(0, 0, 0)" stroke="rgb(153, 153, 153)" stroke-width="1.5px"></line></g></g><g><g><line x1="22.34041651089986" y1="0" x2="22.34041651089986" y2="177.5999994277954" fill="rgb(0, 0, 0)" stroke="rgb(153, 153, 153)" stroke-width="1.5px"></line></g></g><g><g><g><g><g><path style="fill: none;" stroke="rgb(255, 112, 67)" stroke-width="2px" d="M22.45211859345436,161.31999940995127L22.764884424606958,158.72999940296168L23.256373587846753,154.61469330708059L23.412756503423054,151.8469109262585L23.435096919933954,150.30678619687424L23.747862751086554,147.72438711088944L23.770203167597455,146.13246874664432L23.948926499684653,144.24294445983563L24.08296899875005,142.4121162159074L24.19467108130455,140.7298979744662L24.35105399688085,138.89528313931012L24.663819828033446,136.13756673156485L24.753181494077047,134.01256413777529L25.065947325229644,131.08044086426156L25.222330240805945,128.49344747380735L25.267011073827742,126.7051637135016L25.87020231962204,122.43517621564304L25.93722356915474,119.51840865554529L25.98190440217654,117.53172368871292L26.026585235198336,116.10298193515754L26.205308567285538,114.29854894304826L26.629776480992636,110.9662842896776L26.89786147912343,107.54614256036217L26.942542312145235,105.25727409015695L27.478712308406827,101.04235229595085L27.813818556070327,96.73740467641613L27.836158972581227,94.03604088484089L28.148924803733824,90.75762177187298L28.417009801864623,87.36977128183955L28.484031051397324,84.9818623127249L28.662754383484522,82.60191655019338L28.72977563301722,80.81874987097876L28.95317979812622,78.56484970748L29.42232854485512,74.72610942801978L29.489349794387817,72.06766372378985L29.556371043920517,70.11739913674258L30.092541040182116,66.10564080533214L30.360626038312912,62.27778382449263L30.494668537378313,59.270670852571165L30.53934937040011,57.229603476412265L30.80743436853091,54.584161058716425L30.986157700618108,52.04969722109211L31.07551936666171,50.055419725206875L31.343604364792508,47.438051235191004L31.388285197814305,45.63083054446982L31.6340297794342,43.244098141329516L31.790412695010502,40.98325790471738L32.1031785261631,37.969156583926384L32.125518942674,36.04229378763303L32.1701997756958,34.64937651289448L32.3265826912721,32.98482535326238L32.6616889389356,30.210095474781994L32.7510506049792,28.071658353743626L32.974454770088194,25.604593685491896L33.086156852642695,23.532358097470873L33.108497269153595,22.170614740798587L33.242539768219,20.64316993586372L33.756369347969695,18.30609954376217L33.80105018099149,16.90393229114429L33.823390597502396,16.062676047010644L33.91275226354599,15.558129605484357L34.27019892772039,15.25674701739685L34.38190101027489,15.076508504200019L34.42658184329669,14.968625630160158L34.69466684142749,14.905721953627726L34.784028507471085,14.868689877443792L34.918071006536486,14.84763947881375L35.54360266884168,14.841987036167785L35.63296433488528,14.839799703610101L35.67764516790708,14.839109218937066L36.392538496255874,14.850396631167134L36.414878912766774,14.857588099156592L36.593602244853976,14.865369824497815L36.72764474391938,14.872777931539739L36.74998516043027,14.877690334596997L37.062750991582874,14.887522947345781L37.263814740180976,14.898181707446414L37.442538072268164,14.90903181464294L37.86700598597526,14.926939240679546L38.47019723176956,14.95589565703535L38.55955889781316,14.976167365459185L38.98402681152026,15.002797629846766L39.43083514173826,15.03526755917051L39.67657972335815,15.064364938028938L39.69892013986906,15.082718746314915L39.832962638934454,15.099160656780203L39.967005137999855,15.1145745186329L40.32445180217425,15.139176634561341L40.346792218685145,15.154925910707016L40.39147305170695,15.16636031105905L40.65955804983775,15.185394603879978L40.949983464479445,15.210528181733249L41.508493877251944,15.25351069308616L41.70955762585004,15.289833055851515L41.82125970840454,15.317594209735688L42.156365956068036,15.352626060316924L42.40211053768794,15.387583120755034L42.49147220373154,15.413722337889638L43.13934428254764,15.468379199496244L43.40742928067843,15.518088518546518L43.56381219625473,15.557997070072984L44.68083302179972,15.658503890119011L44.74785427133242,15.723655389472022L44.79253510435422,15.76599259644641L45.038279685974125,15.809487791285028L45.19466260155042,15.84729984345319L45.28402426759402,15.876748744844916L45.32870510061582,15.897818769072002L45.529768849213916,15.925924851017536L45.95423676292101,15.97627486634896L46.26700259407362,16.031899580742433L46.28934301058451,16.067113689501046L46.33402384360632,16.091929536488717L46.42338550964991,16.11422909409593L46.62444925824801,16.14447551256588L46.89253425637881,16.185510712702822L46.9818959224224,16.217863866489633L47.02657675544421,16.241157213216976L47.13827883799871,16.26490301854704L47.182959671020505,16.28307606363732L47.40636383612951,16.313815005106655L47.49572550217311,16.340281512777075L47.6521084177494,16.370319904653638L47.696789250771204,16.39241846695759L47.96487424890201,16.430391001286438L48.07657633145651,16.46360593073226L48.0989167479674,16.485629991656864L48.367001746098204,16.524241490431418L48.5904059112072,16.568919586717016L48.635086744229,16.60006661628834L48.8138100763162,16.63624343279834L49.01487382491429,16.67785961976241L49.0372142414252,16.7050611682526L49.573384237686795,16.775806263850782L49.72976715326309,16.8344716257915L50.19891589999199,16.919238780647188L50.31061798254649,16.982109528653453L50.33295839905739,17.02224024351693L50.37763923207919,17.05114843678562L50.44466048161189,17.07576666910675L50.534022147655485,17.10027211984351L50.668064646720886,17.129676399034885L50.75742631276449,17.157181389461048L50.86912839531899,17.1860829842551L51.36061755855878,17.258906686123364L51.53934089064598,17.323154972882453L51.89678755482038,17.403403115869853L51.96380880435308,17.459460465114894L52.410617134571076,17.546531034577328L52.74572338223457,17.639665381089777L52.835085048278174,17.706572848245177L53.080829629898076,17.777283782373654L53.10317004640897,17.822511165099694L54.01912712335587,17.96701748457019L54.488275870084756,18.115851011998974L54.51061628659566,18.208141612684262L54.91274378379186,18.317909264393606L54.93508420030276,18.386822090059027L55.29253086447716,18.47740250662837L55.33721169749896,18.537961083698427L55.649977528651554,18.61810373636059L55.739339194695155,18.67881728716862L55.91806252678236,18.740646890616926L56.09678585886955,18.803344609115896L56.16380710840225,18.85061394742905L56.230828357934946,18.88865272209292L56.49891335606575,18.950458139704505L56.94572168628375,19.05349083006139L57.01274293581645,19.12530960024154L57.325508766969044,19.215414979439064L57.39253001650174,19.279631738953054L57.504232099056246,19.335143157903264L57.57125334858894,19.378678523911756L57.77231709718704,19.435639663461426L58.018061678806944,19.507841368621772L58.12976376136144,19.56856718635488L58.17444459438324,19.611989295014258L58.71061459064484,19.72278617890197L58.88933792273204,19.817898857329613L58.93401875575383,19.88215597661585L59.67125250061353,20.041057390019382L59.87231624921163,20.169791978607897L60.00635874827703,20.269426077521693L60.207422496875125,20.363001655092983L60.38614582896233,20.449387060437257L60.43082666198412,20.50880919355007L60.49784791151682,20.555868656623833L60.58720957756043,20.599356686179807L60.743592493136724,20.65225800411692L61.34678373893102,20.788758368478145L62.016996234258016,20.989598701686628L62.06167706727982,21.11812604440053L62.32976206541062,21.243632719152416L62.39678331494332,21.331101555125862L62.57550664703051,21.416147377440883L63.625506223042805,21.662301761337382L63.714867889086406,21.82690077227421L63.9159316376845,21.963866040758514L64.02763372023901,22.067371147634564L64.0723145532608,22.138026643792895L64.5414632999897,22.270915169963704L64.7872078816096,22.398562194470273L64.8542291311423,22.488276782422933L64.98827163020769,22.56844208582226L65.01061204671859,22.620938779329915L65.3457182943821,22.718769969926303L65.368058710893,22.781914713932874L65.6138032925129,22.868888726964887L65.70316495855648,22.9390116294086L65.81486704111099,23.003571342253196L65.85954787413279,23.051322730081043L66.14997328877449,23.138848169674247L66.17231370528539,23.19591091018401L66.28401578783989,23.25293445643976L66.5297603694598,23.33753250946882L66.57444120248158,23.39748774189901L66.75316453456878,23.4703699846318L68.60741910497347,23.907718508728905L68.80848285357158,24.213979237044292L69.03188701868058,24.44672580430019L69.27763160030048,24.640586195460216L69.47869534889857,24.801508281185892L69.59039743145307,24.922942537828312L69.61273784796397,25.000787232193815L69.70209951400757,25.06745707479558L69.72443993051847,25.112456352967772L69.88082284609476,25.17452133227948L70.14890784422556,25.272187508545105L70.81912033955255,25.48360184050585L71.37763075232506,25.73968964081164L71.71273699998856,25.97170800429823L71.84677949905397,26.142438196864415L72.38294949531556,26.37193219540239L72.49465157787006,26.53629595093034L73.32124698877335,26.834354802092374L73.85741698503494,27.144533238663428L74.10316156665483,27.391349776881402L74.17018281618755,27.556054971326958L74.68401239593824,27.783049889148423L75.06379947662354,28.014884995470354L75.73401197195052,28.32462450075323L75.82337363799412,28.533395249671234L75.84571405450502,28.664400487318353L76.78401154796282,28.986406110201518L76.89571363051732,29.208892411350185L77.18613904515902,29.41882238034597L77.36486237724623,29.592037069736335L77.43188362677893,29.7137279482471L77.87869195699692,29.905757572588218L78.05741528908412,30.068867202278454L78.16911737163862,30.19674809096544L78.28081945419311,30.30355789620593L78.59358528534572,30.452210968294402L78.63826611836751,30.553523535232788L78.8393298669656,30.668982243547003L78.88401069998741,30.750435531888932L79.68826569437981,31.020224013810616L79.93401027599971,31.25024750385947L79.95635069251061,31.394471925017225L80.1797548576196,31.543250992794547L80.2691165236632,31.65748765354192L80.4254994392395,31.76981951343568L80.58188235481579,31.881131993640846L80.8723077694575,32.02979170630791L81.0510311015447,32.1695787641376L81.0733715180556,32.25978482678744L81.2297544336319,32.35832024268424L81.3191160996755,32.44287825113543L81.40847776571908,32.519085101068846L81.8329456794262,32.686338432172086L82.01166901151339,32.83812852385371L82.03400942802429,32.93564226466347L82.10103067755699,33.01348720952649L82.2574135931333,33.10539547787337L82.32443484266598,33.179947711157844L82.3691156756878,33.23763340537298L82.4361369252205,33.29168738012801L82.5254985912641,33.3500814023943L82.72656233986218,33.443674849104255L82.86060483892759,33.53897185671662L82.97230692148209,33.6288380828386L83.06166858752569,33.70895322534113L83.32975358565649,33.83582906851571L83.35209400216739,33.9185398147633L83.44145566821099,33.99452045611439L83.55315775076548,34.07310561453853L83.5754981672764,34.126864003654354L83.86592358191808,34.24522998636269L83.88826399842898,34.32288774525494L83.91060441493988,34.37612498060123L84.02230649749438,34.44131550781336L84.13400858004889,34.51373976055674L84.20102982958157,34.577205856365886L84.42443399469057,34.68215238833078L84.58081691026688,34.79206826344365L85.18400815606117,35.04017268179962L85.67549731930097,35.33871833098816L85.89890148440998,35.586256355275374L86.27868856509528,35.85160653820757L86.30102898160617,36.017710640368705L86.72549689531327,36.24877356720731L87.55209230621657,36.64565595615303L87.61911355574925,36.904859922915115L87.90953897039095,37.1519405206797L88.31166646758716,37.427584389601506L88.37868771711985,37.614274603021556L88.53507063269615,37.77607720594979L88.60209188222886,37.894528820929224L88.78081521431605,38.022683634871505L89.07124062895774,38.19263880454562L89.29464479406676,38.366454099722155L89.80847437381745,38.636807777101744L90.14358062148094,38.90794770992416L90.43400603612264,39.16542296245644L91.23826103051503,39.584314555766106L91.26060144702593,39.84303309670435L91.68506936073304,40.13896694527074L91.70740977724394,40.323950536056245L91.72975019375484,40.442372793660674L91.95315435886384,40.587826572940884L92.04251602490743,40.70491546791538L92.06485644141833,40.7826317832391L92.08719685792924,40.8367245507723L92.19889894048373,40.90652156744936L92.24357977350553,40.96335219859581L92.62336685419082,41.12487255200895L93.24889851649603,41.43296676162926L93.36060059905053,41.655702754289926L93.67336643020312,41.895682969729584L93.82974934577942,42.092988168828924L93.94145142833392,42.249519810542616L94.23187684297561,42.44285254780638L94.29889809250832,42.5818409863247L94.34357892553011,42.680574616021396L94.49996184110641,42.793555295070064L94.76804683923721,42.95370467555984L95.3042168354988,43.235371934252555L95.37123808503151,43.42765219471237L96.2201739124457,43.83939586311015L96.97974807381631,44.35399777694035L97.33719473799069,44.78943548427858L97.5382584865888,45.12216538883914L97.73932223518689,45.39342498776255L97.85102431774139,45.596036227182296L97.96272640029589,45.75750696908051L97.98506681680679,45.86237286031493L98.16379014889398,45.989248178693515L98.40953473051388,46.153508850317465L98.7223005616665,46.36456127133913L98.90102389375369,46.55563810014061L99.07974722584088,46.734848663689974L99.19144930839539,46.882786235591325L99.68293847163518,47.14989720020801L99.83932138721148,47.3670932479032L100.17442763487497,47.619703156323446L100.19676805138589,47.77943779870644L100.21910846789679,47.8834472814671L100.35315096696219,47.99490044105825L100.39783179998398,48.07814060668055L100.55421471556028,48.1854155526557L101.13506554484367,48.46348105246552L101.53719304203986,48.77896241501335L101.67123554110526,49.01792061733839L101.84995887319248,49.22761989173781L102.02868220527967,49.41987407797431L102.09570345481238,49.56016934533503L102.25208637038867,49.70260360853008L102.52017136851947,49.888126298006426L102.78825636665027,50.099744634155016L103.07868178129196,50.335652183726204L103.10102219780286,50.485585947984724L103.14570303082466,50.59233790780261L103.45846886197727,50.774089779305605L103.99463885823886,51.08566460989844L104.06166010777156,51.29799333824283L104.10634094079334,51.44231900956687L104.15102177381516,51.545847257422395L104.21804302334785,51.63338332207403L104.30740468939146,51.71981475842421L104.37442593892415,51.79712361137851L104.79889385263125,52.005025946670926L105.02229801774024,52.21500938057651L105.29038301587104,52.443500713744804L105.40208509842554,52.62337090604033L106.02761676073075,52.971555052198724L106.04995717724165,53.18907090085082L106.09463801026344,53.33679113195626L106.20634009281794,53.468480950610775L106.22868050932884,53.55610902424797L106.38506342490514,53.669038074466L106.42974425792694,53.75405474469167L106.80953133861223,53.95199544093375L106.85421217163405,54.088076438441945L106.87655258814493,54.178383326828325L106.96591425418855,54.267222673104506L107.03293550372123,54.34653202572052L107.54676508347194,54.59395079132464L107.77016924858094,54.82953188172048L108.32867966135343,55.18934026063407L108.37336049437523,55.42274035121163L108.59676465948424,55.650448347322815L108.79782840808232,55.86609602910383L108.86484965761503,56.021852064006076L109.53506215294203,56.379676840788136L109.73612590154012,56.67392829095928L109.82548756758372,56.88587096850408L109.95953006664912,57.06617280437486L110.22761506477993,57.280767508383455L110.29463631431261,57.43616081198786L110.67442339499792,57.6805573914647L110.76378506104152,57.86281650526529L110.9648488096396,58.05240340143351L111.16591255823772,58.2464972356148L111.29995505730311,58.41657053653064L111.99250796914102,58.79639874451007L112.0371888021628,59.0422606283844L112.2382525507609,59.27068403038285L112.4839971323808,59.50675926762826L112.6180396314462,59.70248012772729L112.77442254702251,59.88306126132771L113.6010179579258,60.32619420974222L114.1595283706983,60.819231690041775L114.2935708697637,61.16968123893572L114.4276133688291,61.43462213642326L114.49463461836179,61.62093769659433L114.98612378160159,61.933627586706685L115.2095279467106,62.21274239881334L115.76803835948309,62.60946851132897L116.01378294110299,62.94859842442329L116.34888918876648,63.290150293038614L116.66165501991907,63.6241706500514L116.79569751898447,63.8799729836332L117.22016543269159,64.20910784085797L117.28718668222427,64.43435879752278L117.35420793175696,64.59728823533902L117.46591001431146,64.74136752835743L118.00208001057307,65.05050914279578L118.82867542147636,65.58045996213271L118.94037750403086,65.94508730058466L119.05207958658536,66.21053819348045L119.18612208565077,66.42585604940324L120.12441957910856,66.94832631414954L120.19144082864125,67.2899622500291L120.54888749281565,67.64523990310599L120.72761082490284,67.93364055022883L120.81697249094645,68.14432222523125L121.15207873860996,68.41200294017332L121.19675957163174,68.59146288770883L121.44250415325165,68.80288395877828L121.62122748533885,69.00525294429337L121.86697206695875,69.23059586789856L122.13505706508954,69.47929005744125L122.64888664484025,69.84635320246878L122.78292914390565,70.12349188857641L123.20739705761274,70.47014805307478L123.45314163923264,70.78269843116256L123.67654580434163,71.06535957811889L123.76590747038523,71.27302980590392L124.27973705013594,71.6167885647555L124.32441788315774,71.84212028656533L124.41377954920134,72.01547886876459L124.54782204826674,72.17675429278675L124.72654538035393,72.34990921732593L125.26271537661552,72.68323582704907L125.32973662614823,72.91193911824898L125.39675787568092,73.07787503445053L126.22335328658421,73.53206037758456L126.33505536913871,73.85256268028374L126.42441703518232,74.08326840729195L126.44675745169322,74.23129403252993L126.51377870122592,74.3489203855157L126.62548078378042,74.46752699081925L126.87122536540032,74.6444142750986L127.04994869748751,74.8274832480108L127.13931036353111,74.9758061651615L127.18399119655291,75.08404399021141L127.31803369561831,75.20673655249455L127.49675702770551,75.3573813178267L127.51909744421641,75.45740124126498L127.65313994328181,75.57521378613369L127.7201611928145,75.67480932725927L128.03292702396712,75.869537614501L128.18930993954342,76.05390086750846L128.6807991027832,76.37691818214637L128.8371820183595,76.63836291481218L128.9712245174249,76.8532222125683L129.0605861834685,77.02081119197628L129.0829265999794,77.13103292980965L129.6861178457737,77.45842314329882L129.75313909530638,77.68390863476687L129.8201603448391,77.8482534983941L129.90952201088268,77.98560659459582L130.2669686750571,78.22307594168925L130.3116495080789,78.38494717924682L130.3563303411007,78.50146396182662L130.3786707576116,78.58106884602525L130.4010111741225,78.63853100193893L130.5797345062097,78.75059989327103L131.4286703336239,79.1867778847872L131.71909574826557,79.57483263833144L132.05420199592908,79.95353098996134L132.47866990963618,80.36562852846171L132.56803157567978,80.6518250969382L132.72441449125608,80.8916956442918L132.81377615729969,81.07457145568314L132.9254782398542,81.2329959637005L133.61803115169207,81.63015132595433L133.84143531680107,81.9659572650078L133.86377573331197,82.17719298275875L134.57866906166078,82.61616434375789L135.11483905792235,83.11388335697862L135.42760488907496,83.54926987330377L135.5393069716295,83.85935297493899L135.82973238627116,84.17243666519985L135.85207280278206,84.3700588820219L136.03079613486923,84.5668236710421L136.07547696789106,84.7044331659008L136.18717905044556,84.83587651911836L137.01377446134885,85.27655142594793L137.10313612739245,85.58008407740101L137.19249779343605,85.80133137562817L137.43824237505595,86.04168866859307L137.46058279156685,86.19568827926862L137.50526362458865,86.30765410472345L137.52760404109955,86.3846166295211L138.24249736944836,86.7439238664629L138.48824195106823,87.06716123009356L138.53292278409006,87.28067852880886L138.64462486664453,87.45772610938032L138.68930569966633,87.5835295382601L138.80100778222086,87.70795100230208L138.93505028128624,87.84133072770985L139.09143319686254,87.98987505557737L139.38185861150424,88.2062516080189L139.71696485916775,88.48290458111356L139.82866694172222,88.69784018242818L139.91802860776585,88.86595571503446L139.98504985729852,88.99618956077543L140.45419860402743,89.2798815514605L140.65526235262553,89.53818370828765L141.1690919323762,89.91826069095542L141.1914323488871,90.15609211545268L141.25845359841983,90.3281488802127L141.30313443144163,90.45095561423378L141.3924960974852,90.56378059423282L141.52653859655064,90.69018478624004L142.15207025885582,91.03995874425304L142.33079359094302,91.32807191765593L142.84462317069372,91.72586128589306L143.0456869192918,92.05252483289003L143.0680273358027,92.25829937449744L143.38079316695533,92.51860962810039L143.5371760825316,92.74320420966443L144.0063248292605,93.0831333178852L144.16270774483678,93.35546172089845L144.2073885778586,93.53839174117819L144.2744098273913,93.67744591299589L144.3190906604131,93.78040918918643L145.32440940340362,94.28136711039878L145.4361114859581,94.63070704546416L145.458451902469,94.85006316082227L145.6148348180453,95.04993308878178L145.7041964840889,95.2088548413455L145.7488773171107,95.32370558540592L146.2403664803505,95.60700684545577L146.73185564359028,95.99122624444168L147.5584510544936,96.58169221266014L148.42972729841867,97.31479733768167L148.65313146352767,97.8516945687044L148.96589729468027,98.30960883060958L149.41270562489828,98.77816987663779L149.99355645418166,99.31098353972926L150.2169606192907,99.72738170393211L150.37334353486696,100.04488802691458L150.59674769997596,100.3320157775499L150.86483269810677,100.62017148639565L150.93185394763944,100.82202364945996L150.97653478066127,100.9624363617261L150.99887519717217,101.05633469629959L151.31164102832477,101.24772405299666L151.51270477692287,101.44931699557752L151.69142810901005,101.64735491801272L152.65206601897876,102.17984588541583L153.41164018034937,102.82561861488814L153.70206559499107,103.33763724389232L153.72440601150194,103.65442635123756L153.76908684452374,103.86364905941467L155.24355433424313,104.619610281243L155.35525641679763,105.12081863554734L155.42227766633033,105.45011203506944L155.60100099841753,105.72384177012069L155.98078807910284,106.04974439458519L156.18185182770094,106.33078382512856L156.33823474327724,106.56586195339811L156.47227724234264,106.76383609391313L156.60631974140802,106.93952137731327L156.62866015791894,107.05441344093474L157.41057473580042,107.45465507595503L157.58929806788763,107.77038476636804L158.10312764763833,108.17682014375566L158.1478084806601,108.43953068338664L158.170148897171,108.60657835570663L158.79568055947624,108.97027832322475L158.8850422255198,109.22608004542435L158.9297230585416,109.39834643615889L159.37653138875962,109.68935695053703L159.48823347131412,109.91081858948016L159.5329143043359,110.06243020670826L159.5775951373577,110.17212960553547L160.15844596664112,110.48111133959509L160.9850413775444,111.01140730507471L161.1190838766098,111.38538740827249L161.3424880417188,111.7026988130734L161.43184970776238,111.93022632327279L161.521211373806,112.1038680591083L161.67759428938228,112.27297924786137L161.83397720495861,112.43932359018427L162.0127005370458,112.61321304674927L162.638232199351,112.97629858905621L162.6829130323728,113.21260005533404L162.8392959479491,113.41892334765065L163.01801928003627,113.61641423413816L163.04035969654717,113.74411619350268L163.1073809460799,113.84835083005004L163.4201467772325,114.03963019369792L163.73291260838508,114.28291585642116L163.82227427442868,114.46556479328554L163.86695510745048,114.59348741158975L164.15738052209218,114.78929136575653L164.40312510371209,115.00735854294427L164.42546552022296,115.14733570482973L164.5371676027775,115.27698863685035L164.5818484357993,115.37304087497728L164.64886968533196,115.458051909366L165.47546509623527,115.84586512423961L165.87759259343147,116.24180901238697L166.30206050713855,116.65127084871938L166.43610300620398,116.95113724492086L166.65950717131298,117.22127333157863L166.97227300246558,117.50944601638732L167.37440049966176,117.84409821483658L167.44142174919446,118.07180720001624L167.46376216570536,118.21740183843629L168.20099591056504,118.60003365305727L168.26801716009777,118.85638375071194L168.46908090869584,119.09043846942373L168.60312340776125,119.2843063578803L168.71482549031575,119.44511936533367L168.73716590682665,119.550502537161L169.00525090495745,119.72035996381292L169.11695298751195,119.86664429604585L169.47439965168635,120.09617068444726L169.58610173424086,120.27811194187373L169.69780381679536,120.43146793745159L169.78716548283893,120.55880938645677L170.14461214701336,120.7763018172511L170.45737797816597,121.02995185592401L170.90418630838394,121.35759133930738L171.17227130651472,121.65916837235235L171.44035630464552,121.94489732218271L172.22227088252703,122.42073775773532L172.37865379810333,122.76690297716154L172.49035588065783,123.01788583942313L172.53503671367963,123.1857789043119L172.57971754670143,123.30381147466147L172.71376004576683,123.42648592517048L172.8031217118104,123.53463002669815L173.16056837598484,123.73742831354257L173.40631295760474,123.95369347890602L173.45099379062654,124.1006302194605L173.74141920526822,124.3002925564504L173.94248295386635,124.497128008094L174.32227003455162,124.76039677839309L174.74673794825873,125.08006031532776L174.9701421133677,125.35673217311978L175.10418461243313,125.5735812384731L175.2158866949876,125.74601837959415L175.26056752800943,125.86640027709679L175.3946100270748,125.98934966008103L175.5956737756729,126.1390877339742L175.7520566912492,126.28792537797237L175.9531204398473,126.45296043368602L176.8243966837724,126.8785937299798L176.8690775167942,127.15065403774042L176.93609876632692,127.33889803648515L177.18184334794682,127.54340816686893L177.3382262635231,127.72427541420238L177.8297154267629,128.01503776807874L178.18716209093728,128.32150873932065L178.5446087551117,128.63695719049642L178.65631083766618,128.86724728029006L178.70099167068798,129.02181827386792L178.76801292022068,129.1391419446501L179.0137575018406,129.29953075618536L179.147800000906,129.44476078948875L179.371204166015,129.6134181745188L179.3935445825259,129.72275483840554L179.7286508301894,129.91027089526847L179.9297145787875,130.09573312748455L179.9520549952984,130.21510748955993L180.6892887401581,130.55290174338924L181.20311831990878,130.9399010695032L181.35950123548508,131.22800353350078L181.42652248501776,131.42479550183913L181.5605649840832,131.5906798364834L182.40950081149737,131.99142343254385L182.69992622613907,132.33428264813116L182.72226664264997,132.54786363618507L182.76694747567177,132.69173542761905L182.90098997473717,132.82518178547537L182.96801122426987,132.92878532856795L183.37013872146608,133.13179352759718L183.77226621866225,133.3938126811535L184.30843621492386,133.73698333301607L184.39779788096746,133.97376864882926L184.66588287909823,134.20829453968136L184.86694662769636,134.4181628165941L185.29141454140347,134.6895368777092L185.49247829000154,134.92100571856844L185.62652078906694,135.105558068717L186.20737161835035,135.41334827505386L186.29673328439392,135.62821614484864L186.34141411741575,135.77222050749074L186.63183953205746,135.95646996061242L186.67652036507926,136.0820426255248L186.74354161461196,136.1799041737424L186.85524369716643,136.2761091160581L186.94460536321006,136.3637854419086L187.16800952831906,136.4911279813435L187.34673286040623,136.6271711705609L188.06162618875504,136.94600246948892L188.21800910433132,137.1889003340104L188.46375368595122,137.41551224381945L188.48609410246212,137.55881886722025L188.55311535199485,137.66680804157588L188.62013660152752,137.75358689815778L189.02226409872372,137.93716163818354L189.11162576476733,138.0764361362742L189.20098743081093,138.18909520325425L189.24566826383273,138.27122404393103L189.51375326196353,138.4075242188358L190.0499232582251,138.66240726831026L190.3180082563559,138.90141386397008L190.4967315884431,139.10202626983016L190.6307740875085,139.2652065970622L190.87651866912842,139.4413983266031L191.05524200121562,139.6038774303641L191.09992283423742,139.7155338554113L191.23396533330282,139.82498001585822L191.36800783236822,139.9330195214724L191.63609283049902,140.08234480397255L191.9935394946734,140.28410353171358L192.1499224102497,140.45404800286275L192.1946032432715,140.56996255981497L192.2392840762933,140.65345034676156L192.30630532582603,140.72443450646065L192.9988582376639,140.98169810349043L193.0211986541748,141.1429447406805L193.1329007367293,141.27409928056287L193.1552411532402,141.3596666998904L193.44566656788191,141.50016537327892L193.49034740090372,141.5981461529239L193.5126878174146,141.66377237613054L194.0488578136762,141.86655127784869L194.8531128080686,142.23079849547457L194.987155307134,142.48948018296886L195.0094957236449,142.65137036948374L195.0541765566667,142.76185855928483L195.63502738595008,143.0008916340279L195.65736780246098,143.15092318367874L195.72438905199368,143.26076289296742L195.74672946850458,143.33326905051533L196.4839632133643,143.59329890995102L196.5063036298752,143.75583700748575L196.81906946102777,143.94439320521371L197.08715445915857,144.1351769639884L197.46694153984387,144.3590513059674L197.55630320588747,144.51901556427805L197.73502653797468,144.66615598945998L197.84672862052918,144.78633653762967L197.86906903704008,144.8648167371479L198.00311153610548,144.9500848056618L198.13715403517088,145.03933682935616L198.44991986632346,145.1814215937884L198.74034528096516,145.34844819197326L198.87438778003056,145.48626518957664L199.20949402769406,145.66256570435203L199.23183444420496,145.774566815862L199.43289819280307,145.89764168126308L199.47757902582487,145.9838752768688L199.49991944233577,146.04180646435694L199.65630235791207,146.11982961045203L200.17013193766277,146.3079300943097L200.77332318345705,146.58494227616146L201.66693984389303,146.99092147216L201.73396109342573,147.2523267402749L201.75630150993666,147.4151040054481L201.80098234295846,147.52463085435906L202.11374817411104,147.6730803859569L202.29247150619827,147.80919895661162L202.44885442177454,147.93190214495192L202.53821608781814,148.02891368044982L202.80630108594892,148.15704026221073L202.82864150245985,148.23972571206204L202.98502441803615,148.3299318129511L203.23076899965605,148.44758947975623L203.81161982893943,148.66709464652394L203.99034316102663,148.84425873054894L204.25842815915743,149.01843191037858L204.30310899217923,149.13421133320034L204.41481107473373,149.23182118572296L204.72757690588634,149.36883272526921L204.74991732239724,149.45662309917714L204.79459815541904,149.52045595373784L205.21906606912611,149.6642319859243L205.37544898470242,149.7891147690083L205.55417231678965,149.9080173481676L205.57651273330055,149.9848436554531L205.91161898096402,150.11288554432528L205.93395939747492,150.19515243268745L206.20204439560572,150.30960135913043L206.22438481211663,150.38367718408546L206.7828952248891,150.56240777097963L207.2743843881289,150.786415049122L207.4084268871943,150.95243672952898L207.475448136727,151.06782117888397L207.4977885532379,151.1423036658853L207.5871502192815,151.20797313616265L207.69885230183604,151.27353797159512L207.8105543843905,151.33897165959334L208.8828943769137,151.62524702744824L208.9499156264464,151.8122397894396L209.1956602080663,151.98005602736686L209.262681457599,152.09585670236507L209.3967239566644,152.1954839892049L209.5084260392189,152.28030649373298L209.6871493713061,152.371129080801L209.9552343694369,152.48518173222615L210.26800020058948,152.62259046274917L210.37970228314398,152.7295373823119L210.826510613362,152.89101067512536L211.27331894358,153.08407450090306L211.2956593600909,153.2046921128392L211.3850210261345,153.29615182738794L212.0552335214615,153.49275229430143L212.3456589361032,153.671332733165L212.72544601678848,153.85702696893492L212.92650976538658,154.00969223412855L213.1275735139847,154.14230855293218L213.32863726258276,154.26266311284314L213.4626797616482,154.36193658839858L213.4850201781591,154.4260007349909L213.6637435102463,154.500336060542L214.51267933766047,154.712927045771L214.62438142021497,154.8622748458545L214.89246641834578,155.003890880533L214.93714725136755,155.09748764034418L214.95948766787845,155.15795499282498L215.09353016694388,155.22002998480914L215.8084234952927,155.39307461103851L215.89778516133626,155.51366607223375L216.59033807317414,155.71435760165073L216.72438057223957,155.8592860544235L217.01480598688124,155.99899203699997L217.12650806943574,156.10297079555065L217.26055056850115,156.18944732739408L217.70735889871915,156.3208614364395L217.88608223080635,156.43118993099063L217.93076306382815,156.5052271246466L218.42225222706793,156.63510897836898L218.46693306008973,156.72073566537188L218.69033722519873,156.81042146764423L218.93608180681863,156.90602943197246L219.02544347286224,156.9785033509466L219.07012430588406,157.02952442279133L219.22650722146034,157.08642123894447L219.40523055354754,157.15041882295804L219.47225180308024,157.1999653902301L219.69565596818924,157.26665839517864L220.41054929653805,157.4229449857871L220.52225137909252,157.53460608958156L220.67863429466885,157.62652069704373L220.92437887628873,157.72052770000346L221.05842137535413,157.79797321676045L221.21480429093043,157.86885123647474L221.4605488725503,157.94943808001196L221.57225095510483,158.0149689301566L221.6616126211484,158.06797604547802L222.08608053485554,158.16413733814971L222.66693136413892,158.30812259542543L222.75629303018252,158.4076060776117L222.95735677878062,158.49657523494147L223.09139927784602,158.56933877767517L223.11373969435692,158.6162164705443L223.20310136040052,158.65719103131846L223.5605480245749,158.73267809327896L223.91799468874933,158.82808823275153L224.1637392703692,158.91933453424008L224.5211859345436,159.02287341059045L224.7222496831417,159.11209538083818L224.878632598718,159.1865328692418L224.99033468127251,159.24603434460965L226.0403342572848,159.41744664599523L226.1296959233284,159.53152819102837L226.82224883516628,159.6853576067798L227.0009721672535,159.79920401349082L227.02331258376438,159.87019145323256L227.06799341678618,159.91813373567746L227.09033383329708,159.94956932802916L227.6041634130478,160.0289861971933L227.6711846625805,160.08441321792995L227.7382059121132,160.1254182111191L227.8945888276895,160.16799243764547L227.9616100772222,160.20119202600483L228.0733121597767,160.23380776016913L228.1626738258203,160.26347766590308L228.3637375744184,160.3038227136363L228.3860779909293,160.3305188489978L228.47543965697287,160.3564618062238L228.65416298906007,160.3917276848666L228.96692882021267,160.44687977997373L229.0562904862563,160.48957026260265L229.0786309027672,160.5175764847045L229.92756673018138,160.6229463663339L230.19565172831219,160.71319257736698L230.240332561334,160.7718002550454L230.3967154769103,160.82247531078843L230.62011964201926,160.87477010711666L230.64246005853016,160.90831858700673L230.7318217245738,160.9371025878466L230.77650255759556,160.95868152684804L230.86586422363916,160.98020799349737L230.9328854731719,160.99952503419829L231.13394922176997,161.0301481690237L231.29033213734627,161.06314835169687L231.44671505292254,161.0974197667884L231.58075755198797,161.13026316006983L231.60309796849887,161.1520048920916L231.73714046756427,161.17719746404154L231.84884255011877,161.20234889640238L232.07224671522778,161.237273836466L232.29565088033678,161.27774579003002L232.42969337940215,161.313586833607L232.56373587846758,161.34653506536281L232.76479962706566,161.38325504379517L233.21160795728366,161.4420343494287L233.27862920681636,161.48270430128477L233.32331003983813,161.5106919658133L233.59139503796894,161.54873122030614L233.61373545447984,161.57330463218764L233.79245878656704,161.60193287346712L233.92650128563247,161.62938912534355L233.97118211865427,161.649263835533L234.32862878282864,161.6879369965494L234.35096919933954,161.71278554921608L234.37330961585045,161.72933613219195L234.41799044887225,161.74253983960415L235.04352211117745,161.79494792906897L235.13288377722105,161.8325434270006L235.44564960837363,161.8762250523155L235.64671335697173,161.91568283334976L235.84777710556986,161.9523470043286L236.07118127067886,161.98847408383455L236.18288335323334,162.01709449614947L236.67437251647314,162.06386900190927L236.85309584856032,162.10231328797516L236.98713834762574,162.1330297776769L237.27756376226742,162.16763803817395L238.01479750712713,162.2270328735914L238.34990375479063,162.27907138372925L238.4169250043233,162.31348795439746L238.4392654208342,162.3351959411727L238.50628667036693,162.3513755693571L238.707350418965,162.370374060986L238.79671208500864,162.38581866940885L238.8860737510522,162.39907941457056L239.154158749183,162.41870864504017L239.1764991656939,162.43143797356967L239.33288208127024,162.4456479147738L239.86905207753182,162.47550866399857L239.91373291055362,162.4951191837033L240.24883915821712,162.519179814712L240.27117957472802,162.5344100065768L240.3158604077498,162.54512606525404L240.40522207379342,162.55467288157823L240.47224332332613,162.56270496469472L240.67330707192423,162.57426194431025L241.0307537360986,162.5925286937707L241.0977749856313,162.60552157510085L241.2541579012076,162.61794755532242L241.5892641488711,162.63479214797874L241.835008730491,162.65132217399812L242.12543414513272,162.6683271865073L242.4158595597744,162.68507092417985L242.728625390927,162.70154997587295L242.7956466404597,162.71273340959345L242.952029556036,162.72235428499576L243.3764974697431,162.73522869339467L243.398837886254,162.74329477263927L243.5105399688085,162.7497930708779" fill="none"></path></g></g></g></g><g opacity="0.2"><g><g><g><path style="fill: none;" stroke="rgb(255, 112, 67)" stroke-width="2px" d="M22.45211859345436,161.31999940995127L22.764884424606958,157.17599939876794L23.256373587846753,150.6639994550347L23.412756503423054,148.5919988464117L23.435096919933954,148.29599935019016L23.747862751086554,144.1519995113015L23.770203167597455,143.85600001507996L23.948926499684653,141.4879999102354L24.08296899875005,139.7120001761913L24.19467108130455,138.23199993836877L24.35105399688085,136.16000070810318L24.663819828033446,132.01599949085713L24.753181494077047,130.83199874925612L25.065947325229644,126.6880002887249L25.222330240805945,124.61599830174445L25.267011073827742,124.02399930930136L25.87020231962204,116.03200188446044L25.93722356915474,115.14399788236618L25.98190440217654,114.5519988899231L26.026585235198336,113.95999989748L26.205308567285538,111.59199841427804L26.629776480992636,105.96799695920944L26.89786147912343,102.41599749112129L26.942542312145235,101.82399849867821L27.478712308406827,94.7199995625019L27.813818556070327,90.28000160574912L27.836158972581227,89.98400210952757L28.148924803733824,85.8399981355667L28.417009801864623,82.28799866747856L28.484031051397324,81.40000017881394L28.662754383484522,79.03199869561196L28.72977563301722,78.14400020694733L28.95317979812622,75.18399973130226L29.42232854485512,68.9679992837906L29.489349794387817,68.07999528169634L29.556371043920517,67.19200230646133L30.092541040182116,60.08800337028502L30.360626038312912,56.535998388767254L30.494668537378313,54.76000141143799L30.53934937040011,54.168002418994895L30.80743436853091,50.61599743747713L30.986157700618108,48.24800146770477L31.07551936666171,47.0640034828186L31.343604364792508,43.51199850130081L31.388285197814305,42.919999508857735L31.6340297794342,39.66399953699111L31.790412695010502,37.59199755001068L32.1031785261631,33.44800460290908L32.125518942674,33.15199959325791L32.1701997756958,32.56000060081482L32.3265826912721,30.487998613834385L32.6616889389356,26.048000657081595L32.7510506049792,24.864002672195426L32.974454770088194,21.90399668312073L33.086156852642695,20.424004715442635L33.108497269153595,20.127999705791467L33.242539768219,18.352002728462203L33.756369347969695,14.800493955610591L33.80105018099149,14.800681412217813L33.823390597502396,14.800791680810285L33.91275226354599,14.801309943194944L34.27019892772039,14.804673135265546L34.38190101027489,14.806150734404774L34.42658184329669,14.806801319100408L34.69466684142749,14.811366438829047L34.784028507471085,14.813141763167948L34.918071006536486,14.816063880868661L35.54360266884168,14.833508372198864L35.63296433488528,14.836518704773546L35.67764516790708,14.838073491927503L36.392538496255874,14.867327749512228L36.414878912766774,14.868375301140787L36.593602244853976,14.877042412509653L36.72764474391938,14.883890092102611L36.74998516043027,14.885058939182883L37.062750991582874,14.902271866468901L37.263814740180976,14.914169847597393L37.442538072268164,14.925306975437799L37.86700598597526,14.953800379734417L38.47019723176956,14.999330281569094L38.55955889781316,15.006574928094977L38.98402681152026,15.042743026428148L39.43083514173826,15.083972453156115L39.67657972335815,15.108011006316588L39.69892013986906,15.110249458743922L39.832962638934454,15.123823522478105L39.967005137999855,15.137695311411981L40.32445180217425,15.176079808454006L40.346792218685145,15.178549824925526L40.39147305170695,15.18351191158709L40.65955804983775,15.21394604311135L40.949983464479445,15.248228548513147L41.508493877251944,15.317984460115476L41.70955762585004,15.344316599999509L41.82125970840454,15.359235940561945L42.156365956068036,15.405173836188787L42.40211053768794,15.440018711412208L42.49147220373154,15.452931163591536L43.13934428254764,15.550364491906151L43.40742928067843,15.592652497121918L43.56381219625473,15.617859897362663L44.68083302179972,15.809264120188061L44.74785427133242,15.82138263850154L44.79253510435422,15.829498406908002L45.038279685974125,15.874730583542963L45.19466260155042,15.904017921705453L45.28402426759402,15.920922096932514L45.32870510061582,15.929423805412661L45.529768849213916,15.968083973935855L45.95423676292101,16.05179988934607L46.26700259407362,16.115336652332594L46.28934301058451,16.119934852638977L46.33402384360632,16.129153306970224L46.42338550964991,16.14767843050673L46.62444925824801,16.189845140270783L46.89253425637881,16.247063512908248L46.9818959224224,16.266393597169845L47.02657675544421,16.276097233308008L47.13827883799871,16.300521726542165L47.182959671020505,16.3103356312728L47.40636383612951,16.359923417310696L47.49572550217311,16.379981274282677L47.6521084177494,16.4153774924685L47.696789250771204,16.42556631041358L47.96487424890201,16.48734980277966L48.07657633145651,16.513428324901007L48.0989167479674,16.51866608304376L48.367001746098204,16.58215873859328L48.5904059112072,16.635936731145392L48.635086744229,16.646787160645346L48.8138100763162,16.690508657563356L49.01487382491429,16.740283900208453L49.0372142414252,16.745863490987908L49.573384237686795,16.881923907247995L49.72976715326309,16.922469668702604L50.19891589999199,17.04638951293073L50.31061798254649,17.076415650662803L50.33295839905739,17.082436315812167L50.37763923207919,17.09451072668864L50.44466048161189,17.112694017588467L50.534022147655485,17.137030295948634L50.668064646720886,17.17378281782195L50.75742631276449,17.198438875100294L50.86912839531899,17.229435376446197L51.36061755855878,17.368142238925785L51.53934089064598,17.419527403021085L51.89678755482038,17.523775330350936L51.96380880435308,17.543546488982443L52.410617134571076,17.67713688877101L52.74572338223457,17.77936690085847L52.835085048278174,17.806934048978263L53.080829629898076,17.88335018356635L53.10317004640897,17.890352239188786L54.01912712335587,18.18377696377594L54.488275870084756,18.339101303142137L54.51061628659566,18.346577513712226L54.91274378379186,18.482560741957585L54.93508420030276,18.490191328557152L55.29253086447716,18.613273131482423L55.33721169749896,18.62879894930351L55.649977528651554,18.738317715353837L55.739339194695155,18.769887613380646L55.91806252678236,18.833391295789404L56.09678585886955,18.89739118686434L56.16380710840225,18.921517954898782L56.230828357934946,18.945710884088733L56.49891335606575,19.04316626612185L56.94572168628375,19.208039865596753L57.01274293581645,19.233037755511774L57.325508766969044,19.350573048235354L57.39253001650174,19.37595687822408L57.504232099056246,19.418410286328566L57.57125334858894,19.443981572924493L57.77231709718704,19.521081372785957L58.018061678806944,19.616143926362263L58.12976376136144,19.65965591295457L58.17444459438324,19.677122458003275L58.71061459064484,19.888981504733557L58.88933792273204,19.960567874971055L58.93401875575383,19.978541655545158L59.67125250061353,20.27940951012466L59.87231624921163,20.36289386149067L60.00635874827703,20.418877225892352L60.207422496875125,20.503365021449916L60.38614582896233,20.57896516845367L60.43082666198412,20.597942393219327L60.49784791151682,20.62645785123445L60.58720957756043,20.664588730513763L60.743592493136724,20.731609981022622L61.34678373893102,20.993508915019973L62.016996234258016,21.290859201499394L62.06167706727982,21.310917058471354L62.32976206541062,21.431892731280286L62.39678331494332,21.462304809086042L62.57550664703051,21.543716110913437L63.625506223042805,22.03153333718219L63.714867889086406,22.073799288679453L63.9159316376845,22.16931394348495L64.02763372023901,22.22262880794863L64.0723145532608,22.244009888030362L64.5414632999897,22.47024795921994L64.7872078816096,22.590032731230096L64.8542291311423,22.622848664351906L64.98827163020769,22.68869004092123L65.01061204671859,22.6996838195914L65.3457182943821,22.86551675582087L65.368058710893,22.876631829942774L65.6138032925129,22.999349746512884L65.70316495855648,23.044195983074182L65.81486704111099,23.100410911520072L65.85954787413279,23.122949811822814L66.14997328877449,23.270136329064066L66.17231370528539,23.281505020948657L66.28401578783989,23.338469775823413L66.5297603694598,23.46442958901241L66.57444120248158,23.487420590544325L66.75316453456878,23.579693348730913L68.60741910497347,24.563741294874553L68.80848285357158,24.673370329517375L69.03188701868058,24.79584565518404L69.27763160030048,24.931376782200225L69.47869534889857,25.04289140977444L69.59039743145307,25.10509392279195L69.61273784796397,25.11755427374211L69.70209951400757,25.16746183869818L69.72443993051847,25.17995527022608L69.88082284609476,25.267618801247046L70.14890784422556,25.41868677294356L70.81912033955255,25.800723338446986L71.37763075232506,26.123821341270293L71.71273699998856,26.319735549528104L71.84677949905397,26.39853348571374L72.38294949531556,26.71617319320933L72.49465157787006,26.782841584222247L73.32124698877335,27.281443078835444L73.85741698503494,27.60980089352001L74.10316156665483,27.761574584208383L74.17018281618755,27.803112762995305L74.68401239593824,28.12354226588061L75.06379947662354,28.362637654953268L75.73401197195052,28.78923375867756L75.82337363799412,28.846551373048236L75.84571405450502,28.860908343789028L76.78401154796282,29.46941454452626L76.89571363051732,29.5426218630732L77.18613904515902,29.733717333839664L77.36486237724623,29.851859103821873L77.43188362677893,29.89626426601324L77.87869195699692,30.193802009099883L78.05741528908412,30.313531646813793L78.16911737163862,30.388569423995882L78.28081945419311,30.463772604066712L78.59358528534572,30.675190576427084L78.63826611836751,30.70549238564037L78.8393298669656,30.842170306018325L78.88401069998741,30.872615464401846L79.68826569437981,31.424906736693167L79.93401027599971,31.595282738932774L79.95635069251061,31.61080855675386L80.1797548576196,31.76641959446051L80.2691165236632,31.828842644662984L80.4254994392395,31.938317303276328L80.58188235481579,32.04810071394863L80.8723077694575,32.252781275308514L81.0510311015447,32.37925935088215L81.0733715180556,32.39509392076217L81.2297544336319,32.50612336652947L81.3191160996755,32.56971526381224L81.40847776571908,32.63339537596898L81.8329456794262,32.93721842882692L82.01166901151339,33.065813661376154L82.03400942802429,33.081912875878125L82.10103067755699,33.130254626821L82.2574135931333,33.243257880393685L82.32443484266598,33.29177606108454L82.3691156756878,33.32416194669568L82.4361369252205,33.37276834226051L82.5254985912641,33.437672435793765L82.72656233986218,33.58406501916917L82.86060483892759,33.68191736813521L82.97230692148209,33.76363742202154L83.06166858752569,33.82912593909494L83.32975358565649,34.02614283327752L83.35209400216739,34.04260593413467L83.44145566821099,34.108491418141L83.55315775076548,34.190983352174676L83.5754981672764,34.207501587328075L83.86592358191808,34.422778960425205L83.88826399842898,34.43937438359333L83.91060441493988,34.4559808336207L84.02230649749438,34.53910129863153L84.13400858004889,34.622376139671815L84.20102982958157,34.67240500007962L84.42443399469057,34.839572186278104L84.58081691026688,34.956942076112966L85.18400815606117,35.41232930933357L85.67549731930097,35.78653680477099L85.89890148440998,35.95756339170623L86.27868856509528,36.24963181260589L86.30102898160617,36.26686679361039L86.72549689531327,36.59536795746517L87.55209230621657,37.24097953957164L87.61911355574925,37.29366587305821L87.90953897039095,37.52256141732653L88.31166646758716,37.84105019298421L88.37868771711985,37.89430992315167L88.53507063269615,38.018781110342196L88.60209188222886,38.07220624339837L88.78081521431605,38.21491585578495L89.07124062895774,38.44757155905682L89.29464479406676,38.627177042486935L89.80847437381745,39.04233829317113L90.14358062148094,39.31465760915776L90.43400603612264,39.55163584125482L91.23826103051503,40.21265194573064L91.26060144702593,40.23111090811166L91.68506936073304,40.582867718120305L91.70740977724394,40.601425922234554L91.72975019375484,40.62000618006731L91.95315435886384,40.80600724186121L92.04251602490743,40.880548810377164L92.06485644141833,40.899206256224645L92.08719685792924,40.917863702072125L92.19889894048373,41.01121709246502L92.24357977350553,41.04859814531547L92.62336685419082,41.36715308212862L93.24889851649603,41.89510807605979L93.36060059905053,41.98980674328094L93.67336643020312,42.255653292889036L93.82974934577942,42.38894596747789L93.94145142833392,42.48431727311315L94.23187684297561,42.73285165370202L94.29889809250832,42.790323644102195L94.34357892553011,42.828675060566454L94.49996184110641,42.963026313643105L94.76804683923721,43.19392874629455L95.3042168354988,43.65787282229155L95.37123808503151,43.71607258540207L96.2201739124457,44.45701136570681L96.97974807381631,45.12590064768565L97.33719473799069,45.44259204528593L97.5382584865888,45.62126024567998L97.73932223518689,45.80031438614769L97.85102431774139,45.899953086311896L97.96272640029589,45.99971308192784L97.98506681680679,46.019671697166565L98.16379014889398,46.17956115626142L98.40953473051388,46.39989985775335L98.7223005616665,46.68113990287156L98.90102389375369,46.84225334334291L99.07974722584088,47.00366450901398L99.19144930839539,47.104692593443424L99.68293847163518,47.55056364713307L99.83932138721148,47.692887319445965L100.17442763487497,47.9986180189538L100.19676805138589,48.01903976228096L100.21910846789679,48.0394615056081L100.35315096696219,48.16208018044498L100.39783179998398,48.20300085511401L100.55421471556028,48.346327971618464L101.13506554484367,48.880579302180195L101.53719304203986,49.25218445883512L101.67123554110526,49.37635792082593L101.84995887319248,49.54216880333692L102.02868220527967,49.70825535732908L102.09570345481238,49.77061224637607L102.25208637038867,49.916255003322604L102.52017136851947,50.16641033222092L102.78825636665027,50.417172138377865L103.07868178129196,50.689513508083L103.10102219780286,50.71048659437255L103.14570303082466,50.75246584752938L103.45846886197727,51.04671758656013L103.99463885823886,51.55302685578762L104.06166010777156,51.616486430759416L104.10634094079334,51.658807516552926L104.15102177381516,51.7011396292057L104.21804302334785,51.76468741905146L104.30740468939146,51.84946191294946L104.37442593892415,51.91308689080997L104.79889385263125,52.31687944960955L105.02229801774024,52.529984531434856L105.29038301587104,52.786237713497265L105.40208509842554,52.8931761944836L106.02761676073075,53.4938312714363L106.04995717724165,53.515344673829006L106.09463801026344,53.558371478614376L106.20634009281794,53.66601567859257L106.22868050932884,53.68755113470376L106.38506342490514,53.83843164979305L106.42974425792694,53.88157975003018L106.80953133861223,54.24890648529689L106.85421217163405,54.29219793470421L106.87655258814493,54.313843659407894L106.96591425418855,54.4004816925188L107.03293550372123,54.46549605464453L107.54676508347194,54.9650789397308L107.77016924858094,55.18290351731422L108.32867966135343,55.729052829004445L108.37336049437523,55.77284048707794L108.59676465948424,55.992010341489596L108.79782840808232,56.18956755177533L108.86484965761503,56.25548611635941L109.53506215294203,56.91641400596124L109.73612590154012,57.115305466215986L109.82548756758372,57.20378498482128L109.95953006664912,57.336625558180984L110.22761506477993,57.602659564396305L110.29463631431261,57.669250767394495L110.67442339499792,58.04715226067997L110.76378506104152,58.136205175966175L110.9648488096396,58.336783745685835L111.16591255823772,58.53763798688671L111.29995505730311,58.671680487904425L111.99250796914102,59.36614105647919L112.0371888021628,59.41105345419595L112.2382525507609,59.613319133380564L112.4839971323808,59.860872123496364L112.6180396314462,59.99606141787587L112.77442254702251,60.15393296172834L113.6010179579258,60.99089363236398L114.1595283706983,61.55878791049111L114.2935708697637,61.695355562276596L114.4276133688291,61.83203348265457L114.49463461836179,61.900411036850926L114.98612378160159,62.40266242187518L115.2095279467106,62.63141461697328L115.76803835948309,63.20455768010243L116.01378294110299,63.45729329406476L116.34888918876648,63.80247809596166L116.66165501991907,64.12520118557053L116.79569751898447,64.26367648400591L117.22016543269159,64.70281012669508L117.28718668222427,64.77223523251999L117.35420793175696,64.84168239206339L117.46591001431146,64.95748646788505L118.00208001057307,65.51422156445328L118.82867542147636,66.3753861911381L118.94037750403086,66.4920283082626L119.05207958658536,66.6087145328241L119.18612208565077,66.74883283328742L120.12441957910856,67.73203171126897L120.19144082864125,67.80241615384844L120.54888749281565,68.17815638272131L120.72761082490284,68.36624152091309L120.81697249094645,68.46034473773486L121.15207873860996,68.81352401258648L121.19675957163174,68.8606528090121L121.44250415325165,69.12001556538242L121.62122748533885,69.30880642256606L121.86697206695875,69.56861025330632L122.13505706508954,69.85233134175529L122.64888664484025,70.39694792001008L122.78292914390565,70.53919991773786L123.20739705761274,70.99013229982232L123.45314163923264,71.25152399829425L123.67654580434163,71.4893512985534L123.76590747038523,71.58453514758145L124.27973705013594,72.13242670303285L124.32441788315774,72.18011786928011L124.41377954920134,72.27551674206347L124.54782204826674,72.41866742881999L124.72654538035393,72.60964160413472L125.26271537661552,73.18322574163378L125.32973662614823,73.25499405504887L125.39675787568092,73.32677890875283L126.22335328658421,74.2133383922856L126.33505536913871,74.33331613433259L126.42441703518232,74.42932699780422L126.44675745169322,74.45333247038695L126.51377870122592,74.52535991499437L126.62548078378042,74.6454368987746L126.87122536540032,74.90974520151762L127.04994869748751,75.10208670737909L127.13931036353111,75.19829054088757L127.18399119655291,75.24640072778624L127.31803369561831,75.39077539591928L127.49675702770551,75.58334846582494L127.51909744421641,75.6074311264224L127.65313994328181,75.75193260343677L127.7201611928145,75.82420263894764L128.03292702396712,76.16163004536362L128.18930993954342,76.33044574701965L128.6807991027832,76.86144415410324L128.8371820183595,77.03053001381086L128.9712245174249,77.1755111592025L129.0605861834685,77.27219466108826L129.0829265999794,77.29636553655972L129.6861178457737,77.94950846353252L129.75313909530638,78.02213687196895L129.8201603448391,78.09477079383498L129.90952201088268,78.19163623889834L130.2669686750571,78.57927996232937L130.3116495080789,78.62775403558321L130.3563303411007,78.67623913569632L130.3786707576116,78.70047617232323L130.4010111741225,78.72472423580942L130.5797345062097,78.91870323026922L131.4286703336239,79.84104487206147L131.71909574826557,80.15691476864778L132.05420199592908,80.52157851740611L132.47866990963618,80.98377483621233L132.56803157567978,81.08111994965296L132.72441449125608,81.25150146532219L132.81377615729969,81.34888517277021L132.9254782398542,81.47063272572649L133.61803115169207,82.22588436933505L133.84143531680107,82.46966617358805L133.86377573331197,82.49404655938521L134.57866906166078,83.27462138525661L135.11483905792235,83.86046187680974L135.42760488907496,84.2023496477915L135.5393069716295,84.32447762739183L135.82973238627116,84.64206220059117L135.85207280278206,84.66649220725493L136.03079613486923,84.86197085457245L136.07547696789106,84.91084740818886L136.18717905044556,85.03304154894468L137.01377446134885,85.93756378619231L137.10313612739245,86.03538305458062L137.19249779343605,86.13320232296891L137.43824237505595,86.40222460804041L137.46058279156685,86.42668769528193L137.50526362458865,86.4756028429057L137.52760404109955,86.50006041671759L138.24249736944836,87.28288472187556L138.48824195106823,87.55201727553954L138.53292278409006,87.60095447688181L138.64462486664453,87.72329748023749L138.68930569966633,87.77223468157975L138.80100778222086,87.89458319836504L138.93505028128624,88.04140031582149L139.09143319686254,88.21269154737868L139.38185861150424,88.53081643668118L139.71696485916775,88.89788404075556L139.82866694172222,89.0202435844001L139.91802860776585,89.1181290139439L139.98504985729852,89.19154032938691L140.45419860402743,89.70541953748813L140.65526235262553,89.92563694352833L141.1690919323762,90.48837616495707L141.1914323488871,90.51283925219857L141.25845359841983,90.58623402735273L141.30313443144163,90.63516571526537L141.3924960974852,90.73301806423142L141.52653859655064,90.87979107425086L142.15207025885582,91.56461968127257L142.33079359094302,91.76024167776029L142.84462317069372,92.32254533824874L143.0456869192918,92.54252015338548L143.0680273358027,92.56696118690851L143.38079316695533,92.90907500850486L143.5371760825316,93.08009608201046L144.0063248292605,93.59302698021634L144.16270774483678,93.76395432541835L144.2073885778586,93.81278677159777L144.2744098273913,93.88602717072246L144.3190906604131,93.93485410347225L145.32440940340362,95.03280399221728L145.4361114859581,95.15471694806229L145.458451902469,95.17909733385943L145.6148348180453,95.34973798072099L145.7041964840889,95.44723747019111L145.7488773171107,95.49598170149655L146.2403664803505,96.03195873553057L146.73185564359028,96.56755534292054L147.5584510544936,97.46739116498782L148.42972729841867,98.41445502521393L148.65313146352767,98.65704041523855L148.96589729468027,98.99648022346727L149.41270562489828,99.48101144568014L149.99355645418166,100.11020403436646L150.2169606192907,100.35197895023636L150.37334353486696,100.52114751138832L150.59674769997596,100.76270740350289L150.86483269810677,101.05240504966424L150.93185394763944,101.12480189405646L150.97653478066127,101.17305543012537L150.99887519717217,101.19718219815981L151.31164102832477,101.53480808804225L151.51270477692287,101.75170640944883L151.69142810901005,101.9444118016655L152.65206601897876,102.97858233652055L153.41164018034937,103.79427770909658L153.70206559499107,104.1056651873986L153.72440601150194,104.12961001225545L153.76908684452374,104.1774831216803L155.24355433424313,105.75355211398552L155.35525641679763,105.87263116700382L155.42227766633033,105.94405213435259L155.60100099841753,106.13443637269755L155.98078807910284,106.53859833128193L156.18185182770094,106.75234297094363L156.33823474327724,106.91847914580241L156.47227724234264,107.06079730468569L156.60631974140802,107.20304930241349L156.62866015791894,107.2267515363669L157.41057473580042,108.05501752848555L157.58929806788763,108.24397930198754L158.10312764763833,108.78647320983707L158.1478084806601,108.83359649283305L158.170148897171,108.85714986418661L158.79568055947624,109.51582827450189L158.8850422255198,109.60978262872378L158.9297230585416,109.65674602226068L159.37653138875962,110.12587272210419L159.48823347131412,110.24301104789484L159.5329143043359,110.28984763255039L159.5775951373577,110.3366787037763L160.15844596664112,110.94458394068451L160.9850413775444,111.80685125329413L161.1190838766098,111.9463575630692L161.3424880417188,112.17866592027475L161.43184970776238,112.27151758857185L161.521211373806,112.3643306628616L161.67759428938228,112.52664603099097L161.83397720495861,112.68884010366864L162.0127005370458,112.8740472315967L162.638232199351,113.5209269025167L162.6829130323728,113.56705225475075L162.8392959479491,113.72840828612557L163.01801928003627,113.91265056386945L163.04035969654717,113.93566913254946L163.1073809460799,114.00470278487107L163.4201467772325,114.32654923916974L163.73291260838508,114.64784435050602L163.82227427442868,114.73953819858208L163.86695510745048,114.78537133904607L164.15738052209218,115.08299729700668L164.40312510371209,115.33445930872587L164.42546552022296,115.35730144765795L164.5371676027775,115.47146803488128L164.5818484357993,115.51711923216767L164.64886968533196,115.58556846094915L165.47546509623527,116.42758494654996L165.87759259343147,116.83572484460804L166.30206050713855,117.26546360321797L166.43610300620398,117.40093683922309L166.65950717131298,117.62647746156524L166.97227300246558,117.94170504360035L167.37440049966176,118.34607651251046L167.44142174919446,118.41337067778571L167.46376216570536,118.43579379606635L168.20099591056504,119.17398137498873L168.26801716009777,119.24090889719399L168.46908090869584,119.4415205474914L168.60312340776125,119.57510819056513L168.71482549031575,119.68633887651372L168.73716590682665,119.70857729490197L169.00525090495745,119.97514610379082L169.11695298751195,120.08607079439525L169.47439965168635,120.44046026704936L169.58610173424086,120.55102382801344L169.69780381679536,120.66150193081836L169.78716548283893,120.74982155996457L170.14461214701336,121.10254046344261L170.45737797816597,121.41042691393339L170.90418630838394,121.84905056438235L171.17227130651472,122.11153392191984L171.44035630464552,122.37349074692825L172.22227088252703,123.13449841106421L172.37865379810333,123.28615080630085L172.49035588065783,123.3943601328155L172.53503671367963,123.4376185016451L172.57971754670143,123.48086033018582L172.71376004576683,123.610497600934L172.8031217118104,123.69684617898965L173.16056837598484,124.04162574380918L173.40631295760474,124.27809122695119L173.45099379062654,124.32103533029222L173.74141920526822,124.5997860619352L173.94248295386635,124.79238118555938L174.32227003455162,125.15529993384175L174.74673794825873,125.55955562072974L174.9701421133677,125.77173995980785L175.10418461243313,125.89885483650305L175.2158866949876,126.0046740912757L175.26056752800943,126.04697312335074L175.3946100270748,126.17377373455737L175.5956737756729,126.36369484481393L175.7520566912492,126.51118184396968L175.9531204398473,126.70051301725647L176.8243966837724,127.5170436744205L176.8690775167942,127.55874449938135L176.93609876632692,127.62126403460223L177.18184334794682,127.85017336244461L177.3382262635231,127.9955762852025L177.8297154267629,128.45118129889326L178.18716209093728,128.7812151961835L178.5446087551117,129.1101298672601L178.65631083766618,129.21268241498058L178.70099167068798,129.2536747642347L178.76801292022068,129.31512745082335L179.0137575018406,129.5401139734883L179.147800000906,129.6626058394438L179.371204166015,129.8664042520639L179.3935445825259,129.88675983423553L179.7286508301894,130.19154498056287L179.9297145787875,130.37392647580867L179.9520549952984,130.394169032673L180.6892887401581,131.0595931241332L181.20311831990878,131.52040005867417L181.35950123548508,131.66015722949712L181.42652248501776,131.7199834543467L181.5605649840832,131.83950633844972L182.40950081149737,132.5925388266346L182.69992622613907,132.8485714715121L182.72226664264997,132.86823511826594L182.76694747567177,132.90754311476996L182.90098997473717,133.02535132225992L182.96801122426987,133.08419064320682L183.37013872146608,133.43630582614102L183.77226621866225,133.78684141148798L184.30843621492386,134.2517393108099L184.39779788096746,134.32894662254904L184.66588287909823,134.56008337595952L184.86694662769636,134.73296523196322L185.29141454140347,135.09659796938186L185.49247829000154,135.26820897985726L185.62652078906694,135.38238659393986L186.20737161835035,135.87503358455916L186.29673328439392,135.95051794954082L186.34141411741575,135.98822705145386L186.63183953205746,136.23284414029493L186.67652036507926,136.27040162289336L186.74354161461196,136.3266964960688L186.85524369716643,136.42041652953168L186.94460536321006,136.4952999306843L187.16800952831906,136.68214179049588L187.34673286040623,136.83123595438698L188.06162618875504,137.4242494178809L188.21800910433132,137.5532471307927L188.46375368595122,137.75543010853292L188.48609410246212,137.7737788023215L188.55311535199485,137.82879180310934L188.62013660152752,137.88375518303062L189.02226409872372,138.21252374822214L189.11162576476733,138.28534788341022L189.20098743081093,138.35808380372433L189.24566826383273,138.39441730494622L189.51375326196353,138.61197448119287L190.0499232582251,139.0447318425219L190.3180082563559,139.25992375745992L190.4967315884431,139.40294487862025L190.6307740875085,139.50997708791016L190.87651866912842,139.70568592091448L191.05524200121562,139.8475960860056L191.09992283423742,139.88301849298213L191.23396533330282,139.98914925652855L191.36800783236822,140.0950787798937L191.63609283049902,140.30633272772275L191.9935394946734,140.58674162332514L192.1499224102497,140.7089647095865L192.1946032432715,140.74383439524323L192.2392840762933,140.77868202718147L192.30630532582603,140.83091074600924L192.9988582376639,141.36759349903514L193.0211986541748,141.38481469646558L193.1329007367293,141.47083109038638L193.1552411532402,141.48801782888168L193.44566656788191,141.71091338336174L193.49034740090372,141.74511732239137L193.5126878174146,141.76221171094045L194.0488578136762,142.17071963042594L194.8531128080686,142.77716932191342L194.987155307134,142.87750271421024L195.0094957236449,142.89420564925604L195.0541765566667,142.9275908439865L195.63502738595008,143.35944124614244L195.65736780246098,143.3759705081551L195.72438905199368,143.4255224569004L195.74672946850458,143.44202828683714L196.4839632133643,143.98334369910458L196.5063036298752,143.9996441537878L196.81906946102777,144.22722750180563L197.08715445915857,144.42135260215045L197.46694153984387,144.69486281893586L197.55630320588747,144.75896195174403L197.73502653797468,144.88686662723288L197.84672862052918,144.9666073598842L197.86906903704008,144.98253703642524L198.00311153610548,145.07798690843265L198.13715403517088,145.17321486489766L198.44991986632346,145.39454874043673L198.74034528096516,145.59898808925058L198.87438778003056,145.6929906859817L199.20949402769406,145.92701647651512L199.23183444420496,145.9425684831269L199.43289819280307,146.08225397936474L199.47757902582487,146.11322567027733L199.49991944233577,146.1287032455892L199.65630235791207,146.23686432959465L200.17013193766277,146.59008082009623L200.77332318345705,147.00046054893906L201.66693984389303,147.59989026615781L201.73396109342573,147.6444346424472L201.75630150993666,147.65926990320787L201.80098234295846,147.68892112772554L202.11374817411104,147.89575468335357L202.29247150619827,148.01337681259375L202.44885442177454,148.11595692746232L202.53821608781814,148.17443098369665L202.80630108594892,148.3492301348521L202.82864150245985,148.363753886839L202.98502441803615,148.46524096428465L203.23076899965605,148.62407597996392L203.81161982893943,148.99635239667552L203.99034316102663,149.11000485658644L204.25842815915743,149.27969168012305L204.30310899217923,149.30788046743297L204.41481107473373,149.3782359645069L204.72757690588634,149.57435003458855L204.74991732239724,149.58830866003905L204.79459815541904,149.61620523557886L205.21906606912611,149.879896034204L205.37544898470242,149.97643894363435L205.55417231678965,150.08637121690649L205.57651273330055,150.10008311638128L205.91161898096402,150.30494837763356L205.93395939747492,150.3185527652307L206.20204439560572,150.48127474879485L206.22438481211663,150.494790921518L206.7828952248891,150.83050365132092L207.2743843881289,151.12242596633553L207.4084268871943,151.20146925013944L207.475448136727,151.24089785291648L207.4977885532379,151.25402739638724L207.5871502192815,151.30647734157867L207.69885230183604,151.37188522474383L207.8105543843905,151.43712219159065L208.8828943769137,152.05466007923062L208.9499156264464,152.09272893242664L209.1956602080663,152.23178038425775L209.262681457599,152.2695577148624L209.3967239566644,152.34492491946452L209.5084260392189,152.40754025052513L209.6871493713061,152.50736296140303L209.9552343694369,152.6562607093638L210.26800020058948,152.8287035585337L210.37970228314398,152.88995776165592L210.826510613362,153.13322061434556L211.27331894358,153.3736702395696L211.2956593600909,153.38561853074344L211.3850210261345,153.43334139921103L212.0552335214615,153.78765299467167L212.3456589361032,153.9392033914603L212.72544601678848,154.13556832258985L212.92650976538658,154.238690131919L213.1275735139847,154.34123303113762L213.32863726258276,154.4431949527096L213.4626797616482,154.5108468017317L213.4850201781591,154.5220969548794L213.6637435102463,154.6118390488686L214.51267933766047,155.03181352361452L214.62438142021497,155.0862965459798L214.89246641834578,155.21631493255072L214.93714725136755,155.23788278006094L214.95948766787845,155.24865602154617L215.09353016694388,155.31314247278542L215.8084234952927,155.6526415503826L215.89778516133626,155.69455326402652L216.59033807317414,156.01539489577624L216.72438057223957,156.07667873358267L217.01480598688124,156.20855101086465L217.12650806943574,156.25893893337673L217.26055056850115,156.31916212515924L217.70735889871915,156.51798260000757L217.88608223080635,156.5966826728174L217.93076306382815,156.61628291513057L218.42225222706793,156.82993175895254L218.46693306008973,156.84917569587626L218.69033722519873,156.94495017105277L218.93608180681863,157.04944137846476L219.02544347286224,157.08721422940786L219.07012430588406,157.1060560305584L219.22650722146034,157.17176646317415L219.40523055354754,157.2464151989784L219.47225180308024,157.2742852411382L219.69565596818924,157.3666979026015L220.41054929653805,157.6573748716998L220.52225137909252,157.70209774527325L220.67863429466885,157.76439260823696L220.92437887628873,157.8615382044431L221.05842137535413,157.91414149189595L221.21480429093043,157.97516826604615L221.4605488725503,158.07031834531773L221.57225095510483,158.11326520537358L221.6616126211484,158.14748671846016L222.08608053485554,158.3083792771572L222.66693136413892,158.52410048133908L222.75629303018252,158.55683130089105L222.95735677878062,158.63002897093617L223.09139927784602,158.6784840917757L223.11373969435692,158.68653300984798L223.20310136040052,158.71865287247977L223.5605480245749,158.84590868621973L223.91799468874933,158.97120344196034L224.1637392703692,159.05620398647292L224.5211859345436,159.178181725116L224.7222496831417,159.24592833620977L224.878632598718,159.29818910184724L224.99033468127251,159.3352865576614L226.0403342572848,159.67456509807363L226.1296959233284,159.70265050857807L226.82224883516628,159.91610173040695L227.0009721672535,159.96997362355734L227.02331258376438,159.97667261284514L227.06799341678618,159.9900471593448L227.09033383329708,159.9967227165567L227.6041634130478,160.14811150093945L227.6711846625805,160.16755374903497L227.7382059121132,160.18692570090278L227.8945888276895,160.23185377743505L227.9616100772222,160.25099140854383L228.0733121597767,160.28273136141559L228.1626738258203,160.30798252450398L228.3637375744184,160.3643402852361L228.3860779909293,160.3705630520401L228.47543965697287,160.39537624206272L228.65416298906007,160.44462650283083L228.96692882021267,160.52960792263443L229.0562904862563,160.55360598654607L229.0786309027672,160.55958581785728L229.92756673018138,160.781001188778L230.19565172831219,160.8485618939166L230.240332561334,160.859711771563L230.3967154769103,160.89848789440302L230.62011964201926,160.953212301609L230.64246005853016,160.95864130684186L230.7318217245738,160.9802785891064L230.77650255759556,160.9910499353502L230.86586422363916,161.0124976934714L230.9328854731719,161.02850059524965L231.13394922176997,161.07608287126183L231.29033213734627,161.1126486257066L231.44671505292254,161.14882688942566L231.58075755198797,161.17952824999202L231.60309796849887,161.18461749012428L231.73714046756427,161.21498632196642L231.84884255011877,161.24007604494363L232.07224671522778,161.2896612465614L232.29565088033678,161.33845372037604L232.42969337940215,161.36734839897247L232.56373587846758,161.39595741299652L232.76479962706566,161.4383350114437L233.21160795728366,161.53020330787896L233.27862920681636,161.5437092290689L233.32331003983813,161.55267346260612L233.59139503796894,161.60579010204535L233.61373545447984,161.61016475000994L233.79245878656704,161.6448752353863L233.92650128563247,161.67057350315824L233.97118211865427,161.6790759008171L234.32862878282864,161.74594673807403L234.35096919933954,161.7500583782161L234.37330961585045,161.75416200665575L234.41799044887225,161.76234540072244L235.04352211117745,161.87356006326618L235.13288377722105,161.88893667389806L235.44564960837363,161.94174749028784L235.64671335697173,161.97486950490114L235.84777710556986,162.0073432607969L236.07118127067886,162.04266470309344L236.18288335323334,162.06002511462188L236.67437251647314,162.1340307605489L236.85309584856032,162.15997971707407L236.98713834762574,162.17910451222951L237.27756376226742,162.21955042891952L238.01479750712713,162.31612512671757L238.34990375479063,162.357129148936L238.4169250043233,162.36511281039984L238.4392654208342,162.36775792133557L238.50628667036693,162.37564501163368L238.707350418965,162.39887179842935L238.79671208500864,162.40898558204313L238.8860737510522,162.41897053231312L239.154158749183,162.44815249074455L239.1764991656939,162.450531966364L239.33288208127024,162.46696282657993L239.86905207753182,162.5202997878358L239.91373291055362,162.52453496326038L240.24883915821712,162.55527076122505L240.27117957472802,162.55725529437396L240.3158604077498,162.5612001532699L240.40522207379342,162.56899310606454L240.47224332332613,162.5747530893695L240.67330707192423,162.59159741373355L241.0307537360986,162.61992881796132L241.0977749856313,162.62501089709613L241.2541579012076,162.6365865256547L241.5892641488711,162.66005903696325L241.835008730491,162.67611721302714L242.12543414513272,162.6938347052711L242.4158595597744,162.71018653068873L242.728625390927,162.72626855341258L242.7956466404597,162.72950856017425L242.952029556036,162.73678559809917L243.3764974697431,162.75454030599306L243.398837886254,162.75539389150617L243.5105399688085,162.75954051823587" fill="none"></path></g></g></g></g></g><g><g><span fill="rgb(0, 0, 0)" stroke="none" stroke-width="1px">Alt + Scroll to Zoom</span></g></g></g><g transform="translate(61, 177)" clip-path="url(#clip_1)"><clipPath id="clip_1"><rect width="268" height="22"></rect></clipPath><g><g><line x1="0" y1="0" x2="0" y2="5" style="visibility: inherit;" fill="rgb(0, 0, 0)" stroke="rgb(204, 204, 204)" stroke-width="1px"></line><line x1="22.34041651089986" y1="0" x2="22.34041651089986" y2="5" style="visibility: inherit;" fill="rgb(0, 0, 0)" stroke="rgb(204, 204, 204)" stroke-width="1px"></line><line x1="44.68083302179972" y1="0" x2="44.68083302179972" y2="5" style="visibility: inherit;" fill="rgb(0, 0, 0)" stroke="rgb(204, 204, 204)" stroke-width="1px"></line><line x1="67.02124953269958" y1="0" x2="67.02124953269958" y2="5" style="visibility: inherit;" fill="rgb(0, 0, 0)" stroke="rgb(204, 204, 204)" stroke-width="1px"></line><line x1="89.36166604359944" y1="0" x2="89.36166604359944" y2="5" style="visibility: inherit;" fill="rgb(0, 0, 0)" stroke="rgb(204, 204, 204)" stroke-width="1px"></line><line x1="111.70208255449931" y1="0" x2="111.70208255449931" y2="5" style="visibility: inherit;" fill="rgb(0, 0, 0)" stroke="rgb(204, 204, 204)" stroke-width="1px"></line><line x1="134.04249906539917" y1="0" x2="134.04249906539917" y2="5" style="visibility: inherit;" fill="rgb(0, 0, 0)" stroke="rgb(204, 204, 204)" stroke-width="1px"></line><line x1="156.38291557629904" y1="0" x2="156.38291557629904" y2="5" style="visibility: inherit;" fill="rgb(0, 0, 0)" stroke="rgb(204, 204, 204)" stroke-width="1px"></line><line x1="178.72333208719888" y1="0" x2="178.72333208719888" y2="5" style="visibility: inherit;" fill="rgb(0, 0, 0)" stroke="rgb(204, 204, 204)" stroke-width="1px"></line><line x1="201.06374859809875" y1="0" x2="201.06374859809875" y2="5" style="visibility: inherit;" fill="rgb(0, 0, 0)" stroke="rgb(204, 204, 204)" stroke-width="1px"></line><line x1="223.40416510899863" y1="0" x2="223.40416510899863" y2="5" style="visibility: inherit;" fill="rgb(0, 0, 0)" stroke="rgb(204, 204, 204)" stroke-width="1px"></line><line x1="245.74458161989847" y1="0" x2="245.74458161989847" y2="5" style="visibility: inherit;" fill="rgb(0, 0, 0)" stroke="rgb(204, 204, 204)" stroke-width="1px"></line><line x1="268.08499813079834" y1="0" x2="268.08499813079834" y2="5" style="visibility: inherit;" fill="rgb(0, 0, 0)" stroke="rgb(204, 204, 204)" stroke-width="1px"></line></g><g transform="translate(0, 8)"><text style="text-anchor: middle; visibility: hidden; font-family: Roboto, sans-serif; font-size: 12px; font-weight: 200;" x="0" y="0" dx="0em" dy="0.95em" fill="rgb(50, 49, 63)" stroke="none" stroke-width="1px">-1k</text><text style="text-anchor: middle; visibility: inherit; font-family: Roboto, sans-serif; font-size: 12px; font-weight: 200;" x="22.34041651089986" y="0" dx="0em" dy="0.95em" fill="rgb(50, 49, 63)" stroke="none" stroke-width="1px">0</text><text style="text-anchor: middle; visibility: inherit; font-family: Roboto, sans-serif; font-size: 12px; font-weight: 200;" x="44.68083302179972" y="0" dx="0em" dy="0.95em" fill="rgb(50, 49, 63)" stroke="none" stroke-width="1px">1k</text><text style="text-anchor: middle; visibility: inherit; font-family: Roboto, sans-serif; font-size: 12px; font-weight: 200;" x="67.02124953269958" y="0" dx="0em" dy="0.95em" fill="rgb(50, 49, 63)" stroke="none" stroke-width="1px">2k</text><text style="text-anchor: middle; visibility: inherit; font-family: Roboto, sans-serif; font-size: 12px; font-weight: 200;" x="89.36166604359944" y="0" dx="0em" dy="0.95em" fill="rgb(50, 49, 63)" stroke="none" stroke-width="1px">3k</text><text style="text-anchor: middle; visibility: inherit; font-family: Roboto, sans-serif; font-size: 12px; font-weight: 200;" x="111.70208255449931" y="0" dx="0em" dy="0.95em" fill="rgb(50, 49, 63)" stroke="none" stroke-width="1px">4k</text><text style="text-anchor: middle; visibility: inherit; font-family: Roboto, sans-serif; font-size: 12px; font-weight: 200;" x="134.04249906539917" y="0" dx="0em" dy="0.95em" fill="rgb(50, 49, 63)" stroke="none" stroke-width="1px">5k</text><text style="text-anchor: middle; visibility: inherit; font-family: Roboto, sans-serif; font-size: 12px; font-weight: 200;" x="156.38291557629904" y="0" dx="0em" dy="0.95em" fill="rgb(50, 49, 63)" stroke="none" stroke-width="1px">6k</text><text style="text-anchor: middle; visibility: inherit; font-family: Roboto, sans-serif; font-size: 12px; font-weight: 200;" x="178.72333208719888" y="0" dx="0em" dy="0.95em" fill="rgb(50, 49, 63)" stroke="none" stroke-width="1px">7k</text><text style="text-anchor: middle; visibility: inherit; font-family: Roboto, sans-serif; font-size: 12px; font-weight: 200;" x="201.06374859809875" y="0" dx="0em" dy="0.95em" fill="rgb(50, 49, 63)" stroke="none" stroke-width="1px">8k</text><text style="text-anchor: middle; visibility: inherit; font-family: Roboto, sans-serif; font-size: 12px; font-weight: 200;" x="223.40416510899863" y="0" dx="0em" dy="0.95em" fill="rgb(50, 49, 63)" stroke="none" stroke-width="1px">9k</text><text style="text-anchor: middle; visibility: inherit; font-family: Roboto, sans-serif; font-size: 12px; font-weight: 200;" x="245.74458161989847" y="0" dx="0em" dy="0.95em" fill="rgb(50, 49, 63)" stroke="none" stroke-width="1px">10k</text><text style="text-anchor: middle; visibility: hidden; font-family: Roboto, sans-serif; font-size: 12px; font-weight: 200;" x="268.08499813079834" y="0" dx="0em" dy="0.95em" fill="rgb(50, 49, 63)" stroke="none" stroke-width="1px">11k</text></g><line x1="0" y1="0" x2="268.08499813079834" y2="0" fill="rgb(0, 0, 0)" stroke="rgb(204, 204, 204)" stroke-width="1px"></line></g></g></g></g></svg>