<svg viewBox="0 0 330 200" xmlns="http://www.w3.org/2000/svg"><g><g><g><g><g><line x1="41.149001121520996" y1="177.5999994277954" x2="36.149001121520996" y2="177.5999994277954" style="visibility: inherit;" fill="rgb(0, 0, 0)" stroke="rgb(204, 204, 204)" stroke-width="1px"></line><line x1="41.149001121520996" y1="157.86666615804035" x2="36.149001121520996" y2="157.86666615804035" style="visibility: inherit;" fill="rgb(0, 0, 0)" stroke="rgb(204, 204, 204)" stroke-width="1px"></line><line x1="41.149001121520996" y1="138.1333328882853" x2="36.149001121520996" y2="138.1333328882853" style="visibility: inherit;" fill="rgb(0, 0, 0)" stroke="rgb(204, 204, 204)" stroke-width="1px"></line><line x1="41.149001121520996" y1="118.39999961853029" x2="36.149001121520996" y2="118.39999961853029" style="visibility: inherit;" fill="rgb(0, 0, 0)" stroke="rgb(204, 204, 204)" stroke-width="1px"></line><line x1="41.149001121520996" y1="98.66666634877524" x2="36.149001121520996" y2="98.66666634877524" style="visibility: inherit;" fill="rgb(0, 0, 0)" stroke="rgb(204, 204, 204)" stroke-width="1px"></line><line x1="41.149001121520996" y1="78.93333307902017" x2="36.149001121520996" y2="78.93333307902017" style="visibility: inherit;" fill="rgb(0, 0, 0)" stroke="rgb(204, 204, 204)" stroke-width="1px"></line><line x1="41.149001121520996" y1="59.199999809265144" x2="36.149001121520996" y2="59.199999809265144" style="visibility: inherit;" fill="rgb(0, 0, 0)" stroke="rgb(204, 204, 204)" stroke-width="1px"></line><line x1="41.149001121520996" y1="39.466666539510086" x2="36.149001121520996" y2="39.466666539510086" style="visibility: inherit;" fill="rgb(0, 0, 0)" stroke="rgb(204, 204, 204)" stroke-width="1px"></line><line x1="41.149001121520996" y1="19.733333269755054" x2="36.149001121520996" y2="19.733333269755054" style="visibility: inherit;" fill="rgb(0, 0, 0)" stroke="rgb(204, 204, 204)" stroke-width="1px"></line><line x1="41.149001121520996" y1="0" x2="36.149001121520996" y2="0" style="visibility: inherit;" fill="rgb(0, 0, 0)" stroke="rgb(204, 204, 204)" stroke-width="1px"></line></g><g transform="translate(31.149001121520996, 0)"><text style="text-anchor: end; visibility: hidden; font-family: Roboto, sans-serif; font-size: 12px; font-weight: 200;" x="0" y="177.5999994277954" dx="0em" dy="0.3em" fill="rgb(50, 49, 63)" stroke="none" stroke-width="1px">2</text><text style="text-anchor: end; visibility: inherit; font-family: Roboto, sans-serif; font-size: 12px; font-weight: 200;" x="0" y="157.86666615804035" dx="0em" dy="0.3em" fill="rgb(50, 49, 63)" stroke="none" stroke-width="1px">2.5</text><text style="text-anchor: end; visibility: hidden; font-family: Roboto, sans-serif; font-size: 12px; font-weight: 200;" x="0" y="138.1333328882853" dx="0em" dy="0.3em" fill="rgb(50, 49, 63)" stroke="none" stroke-width="1px">3</text><text style="text-anchor: end; visibility: inherit; font-family: Roboto, sans-serif; font-size: 12px; font-weight: 200;" x="0" y="118.39999961853029" dx="0em" dy="0.3em" fill="rgb(50, 49, 63)" stroke="none" stroke-width="1px">3.5</text><text style="text-anchor: end; visibility: hidden; font-family: Roboto, sans-serif; font-size: 12px; font-weight: 200;" x="0" y="98.66666634877524" dx="0em" dy="0.3em" fill="rgb(50, 49, 63)" stroke="none" stroke-width="1px">4</text><text style="text-anchor: end; visibility: inherit; font-family: Roboto, sans-serif; font-size: 12px; font-weight: 200;" x="0" y="78.93333307902017" dx="0em" dy="0.3em" fill="rgb(50, 49, 63)" stroke="none" stroke-width="1px">4.5</text><text style="text-anchor: end; visibility: hidden; font-family: Roboto, sans-serif; font-size: 12px; font-weight: 200;" x="0" y="59.199999809265144" dx="0em" dy="0.3em" fill="rgb(50, 49, 63)" stroke="none" stroke-width="1px">5</text><text style="text-anchor: end; visibility: inherit; font-family: Roboto, sans-serif; font-size: 12px; font-weight: 200;" x="0" y="39.466666539510086" dx="0em" dy="0.3em" fill="rgb(50, 49, 63)" stroke="none" stroke-width="1px">5.5</text><text style="text-anchor: end; visibility: hidden; font-family: Roboto, sans-serif; font-size: 12px; font-weight: 200;" x="0" y="19.733333269755054" dx="0em" dy="0.3em" fill="rgb(50, 49, 63)" stroke="none" stroke-width="1px">6</text><text style="text-anchor: end; visibility: hidden; font-family: Roboto, sans-serif; font-size: 12px; font-weight: 200;" x="0" y="0" dx="0em" dy="0.3em" fill="rgb(50, 49, 63)" stroke="none" stroke-width="1px">6.5</text></g><line x1="41.149001121520996" y1="0" x2="41.149001121520996" y2="177.5999994277954" fill="rgb(0, 0, 0)" stroke="rgb(204, 204, 204)" stroke-width="1px"></line></g></g><g transform="translate(41, 0)" clip-path="url(#clip_0)"><clipPath id="clip_0"><rect width="288" height="177"></rect></clipPath><g><g><g><line x1="0" y1="0" x2="0" y2="177.5999994277954" fill="rgb(0, 0, 0)" stroke="rgb(60, 60, 60)" stroke-width="1px" opacity="0.25"></line><line x1="24.07091657320658" y1="0" x2="24.07091657320658" y2="177.5999994277954" fill="rgb(0, 0, 0)" stroke="rgb(60, 60, 60)" stroke-width="1px" opacity="0.25"></line><line x1="48.14183314641316" y1="0" x2="48.14183314641316" y2="177.5999994277954" fill="rgb(0, 0, 0)" stroke="rgb(60, 60, 60)" stroke-width="1px" opacity="0.25"></line><line x1="72.21274971961975" y1="0" x2="72.21274971961975" y2="177.5999994277954" fill="rgb(0, 0, 0)" stroke="rgb(60, 60, 60)" stroke-width="1px" opacity="0.25"></line><line x1="96.28366629282633" y1="0" x2="96.28366629282633" y2="177.5999994277954" fill="rgb(0, 0, 0)" stroke="rgb(60, 60, 60)" stroke-width="1px" opacity="0.25"></line><line x1="120.35458286603293" y1="0" x2="120.35458286603293" y2="177.5999994277954" fill="rgb(0, 0, 0)" stroke="rgb(60, 60, 60)" stroke-width="1px" opacity="0.25"></line><line x1="144.4254994392395" y1="0" x2="144.4254994392395" y2="177.5999994277954" fill="rgb(0, 0, 0)" stroke="rgb(60, 60, 60)" stroke-width="1px" opacity="0.25"></line><line x1="168.4964160124461" y1="0" x2="168.4964160124461" y2="177.5999994277954" fill="rgb(0, 0, 0)" stroke="rgb(60, 60, 60)" stroke-width="1px" opacity="0.25"></line><line x1="192.56733258565265" y1="0" x2="192.56733258565265" y2="177.5999994277954" fill="rgb(0, 0, 0)" stroke="rgb(60, 60, 60)" stroke-width="1px" opacity="0.25"></line><line x1="216.63824915885925" y1="0" x2="216.63824915885925" y2="177.5999994277954" fill="rgb(0, 0, 0)" stroke="rgb(60, 60, 60)" stroke-width="1px" opacity="0.25"></line><line x1="240.70916573206586" y1="0" x2="240.70916573206586" y2="177.5999994277954" fill="rgb(0, 0, 0)" stroke="rgb(60, 60, 60)" stroke-width="1px" opacity="0.25"></line><line x1="264.7800823052724" y1="0" x2="264.7800823052724" y2="177.5999994277954" fill="rgb(0, 0, 0)" stroke="rgb(60, 60, 60)" stroke-width="1px" opacity="0.25"></line><line x1="288.850998878479" y1="0" x2="288.850998878479" y2="177.5999994277954" fill="rgb(0, 0, 0)" stroke="rgb(60, 60, 60)" stroke-width="1px" opacity="0.25"></line></g><g><line x1="0" y1="177.5999994277954" x2="288.850998878479" y2="177.5999994277954" fill="rgb(0, 0, 0)" stroke="rgb(60, 60, 60)" stroke-width="1px" opacity="0.25"></line><line x1="0" y1="157.86666615804035" x2="288.850998878479" y2="157.86666615804035" fill="rgb(0, 0, 0)" stroke="rgb(60, 60, 60)" stroke-width="1px" opacity="0.25"></line><line x1="0" y1="138.1333328882853" x2="288.850998878479" y2="138.1333328882853" fill="rgb(0, 0, 0)" stroke="rgb(60, 60, 60)" stroke-width="1px" opacity="0.25"></line><line x1="0" y1="118.39999961853029" x2="288.850998878479" y2="118.39999961853029" fill="rgb(0, 0, 0)" stroke="rgb(60, 60, 60)" stroke-width="1px" opacity="0.25"></line><line x1="0" y1="98.66666634877524" x2="288.850998878479" y2="98.66666634877524" fill="rgb(0, 0, 0)" stroke="rgb(60, 60, 60)" stroke-width="1px" opacity="0.25"></line><line x1="0" y1="78.93333307902017" x2="288.850998878479" y2="78.93333307902017" fill="rgb(0, 0, 0)" stroke="rgb(60, 60, 60)" stroke-width="1px" opacity="0.25"></line><line x1="0" y1="59.199999809265144" x2="288.850998878479" y2="59.199999809265144" fill="rgb(0, 0, 0)" stroke="rgb(60, 60, 60)" stroke-width="1px" opacity="0.25"></line><line x1="0" y1="39.466666539510086" x2="288.850998878479" y2="39.466666539510086" fill="rgb(0, 0, 0)" stroke="rgb(60, 60, 60)" stroke-width="1px" opacity="0.25"></line><line x1="0" y1="19.733333269755054" x2="288.850998878479" y2="19.733333269755054" fill="rgb(0, 0, 0)" stroke="rgb(60, 60, 60)" stroke-width="1px" opacity="0.25"></line><line x1="0" y1="0" x2="288.850998878479" y2="0" fill="rgb(0, 0, 0)" stroke="rgb(60, 60, 60)" stroke-width="1px" opacity="0.25"></line></g></g></g><g><g><line x1="0" y1="256.5333325068156" x2="288.850998878479" y2="256.5333325068156" fill="rgb(0, 0, 0)" stroke="rgb(153, 153, 153)" stroke-width="1.5px"></line></g></g><g><g><line x1="24.07091657320658" y1="0" x2="24.07091657320658" y2="177.5999994277954" fill="rgb(0, 0, 0)" stroke="rgb(153, 153, 153)" stroke-width="1.5px"></line></g></g><g><g><g><g><g><path style="fill: none;" stroke="rgb(255, 112, 67)" stroke-width="2px" d="M24.07091657320658,12.469753479518056L26.47800823052724,19.396738244187492L28.8850998878479,30.957574726453785L31.29219154516856,37.08256817258152L33.69928320248922,40.23802457398117L36.106374859809875,42.378981236158346L38.51346651713053,43.819323634874515L40.920558174451195,44.87670410970536L43.32764983177185,45.392262357155616L45.73474148909251,45.86010434741868L48.14183314641316,49.34383426092093L50.548924803733826,59.04363429758164L52.95601646105448,70.77223817455773L55.363108118375145,79.64353648433108L57.7701997756958,87.94350420085563L60.177291433016464,97.62013108693111L62.58438309033712,104.01805841342225L64.99147474765778,108.78383925619497L67.39856640497844,111.96703118764401L69.80565806229909,113.78761229453586L72.21274971961975,120.0941782331801L74.61984137694041,121.9002887913988L77.02693303426106,125.11680892180652L79.43402469158173,126.50903089149193L81.84111634890239,126.15632089399148L84.24820800622305,127.8351750336527L86.6552996635437,129.39299222771356L89.06239132086436,131.79754641495313L91.46948297818501,133.38412426689192L93.87657463550568,134.261527842727L96.28366629282633,133.82231279737707L98.69075795014699,136.7243082394545L101.09784960746765,138.07552314144118L103.50494126478831,139.17186311224057L105.91203292210896,141.26072595284282L108.31912457942963,141.0837601157772L110.72621623675029,142.0367537949317L113.13330789407094,142.4698301092588L115.5403995513916,141.35565042618637L117.94749120871226,142.24959317650962L120.35458286603293,144.36957718961975L122.76167452335358,146.72811513980648L125.16876618067424,145.74895355342187L127.57585783799489,146.9966007408714L129.98294949531555,146.70224553431922L132.3900411526362,146.84200529352248L134.79713280995688,144.05782669365377L137.20422446727753,147.80247637682538L139.61131612459818,147.5710934854784L142.01840778191882,150.50471206436566L144.4254994392395,150.4428861472318L146.83259109656015,151.88323871231302L149.23968275388083,151.94175252039227L151.64677441120148,150.82833419761087L154.05386606852213,151.75362355118654L156.46095772584277,153.53527278600808L158.86804938316345,151.7735839302583L161.2751410404841,153.31967628062267L163.68223269780478,155.3389265359571L166.08932435512543,155.61883352402774L168.4964160124461,156.33317735296774L170.90350766976675,155.2573300215526L173.3105993270874,155.5512107594881L175.71769098440805,156.49481570938022L178.12478264172873,159.83021623956657L180.53187429904938,158.71237809686173L182.93896595637003,158.08995391795176L185.3460576136907,158.33088519150394L187.75314927101135,157.63722292969L190.160240928332,155.45971657762536L192.56733258565265,157.46543992856655L194.97442424297333,156.98561181890344L197.38151590029398,156.93742981642836L199.78860755761465,158.26129923607309L202.1956992149353,157.67704118038748L204.60279087225598,158.2016870480951L207.00988252957663,160.02976191735968L209.41697418689728,160.7639726644683L211.82406584421793,161.1108473796368L214.2311575015386,161.3817642617582L216.63824915885925,162.26622539944736L219.0453408161799,162.43243115631455L221.45243247350058,161.66602098692334L223.85952413082123,161.16724554377996L226.26661578814188,161.4066979275254L228.67370744546253,160.94368814634845L231.0807991027832,161.74457093383484L233.48789076010385,160.8194777470859L235.89498241742453,159.5402675811847L238.30207407474518,160.68962858077407L240.70916573206586,159.67026854215356L243.1162573893865,162.40722703211836L245.52334904670715,161.68676032869635L247.9304407040278,161.07536318075537L250.33753236134848,161.04358521399072L252.74462401866913,158.96235860984677L255.15171567598978,161.33111185282772L257.5588073333105,163.88476990255245L259.9658989906311,161.96899487451833L262.3729906479518,160.96103122036047L264.7800823052724,161.1420250183354L267.1871739625931,162.48111669517408L269.59426561991376,161.50045763231844L272.0013572772344,161.39366741766275L274.40844893455505,162.26200051242776" fill="none"></path></g></g></g></g><g opacity="0.2"><g><g><g><path style="fill: none;" stroke="rgb(255, 112, 67)" stroke-width="2px" d="M24.07091657320658,12.469753479518056L26.47800823052724,23.552929102989157L28.8850998878479,42.05597774942937L31.29219154516856,44.285560465227725L33.69928320248922,44.35778845164865L36.106374859809875,45.34069504434774L38.51346651713053,45.87903631051693L40.920558174451195,46.41837499286127L43.32764983177185,46.15261063011075L45.73474148909251,46.55479517878242L48.14183314641316,54.53783195726131L50.548924803733826,73.5405484691164L52.95601646105448,88.32684806340392L55.363108118375145,92.93310415207877L57.7701997756958,100.38369947516047L60.177291433016464,112.12824670904955L62.58438309033712,113.61224201473381L64.99147474765778,115.93130048911432L67.39856640497844,116.7413341575657L69.80565806229909,116.5183175465492L72.21274971961975,129.55368127408215L74.61984137694041,124.60939519788961L77.02693303426106,129.9415256128391L79.43402469158173,128.5973473538235L81.84111634890239,125.62725840465252L84.24820800622305,130.3534490835985L86.6552996635437,131.72971403277765L89.06239132086436,135.40437400425543L91.46948297818501,135.76398958333766L93.87657463550568,135.57763272155202L96.28366629282633,133.16349037500066L98.69075795014699,141.07730082517068L101.09784960746765,140.1023453331133L103.50494126478831,140.8163729899111L105.91203292210896,144.39402012397355L108.31912457942963,140.81831136474207L110.72621623675029,143.46624429891912L113.13330789407094,143.11944457672917L115.5403995513916,139.6843809077835L117.94749120871226,143.59050729900702L120.35458286603293,147.54955320503404L122.76167452335358,150.26592206224905L125.16876618067424,144.28021117455182L127.57585783799489,148.86807152150533L129.98294949531555,146.26071272456738L132.3900411526362,147.05164493230555L134.79713280995688,139.8815587941111L137.20422446727753,153.4194509013726L139.61131612459818,147.2240191484657L142.01840778191882,154.90513993263735L144.4254994392395,150.35014727153174L146.83259109656015,154.0437675599243L149.23968275388083,152.02952323251097L151.64677441120148,149.15820671344164L154.05386606852213,153.14155758154857L156.46095772584277,156.2077466382387L158.86804938316345,149.13105064663463L161.2751410404841,155.63881480616874L163.68223269780478,158.36780191895832L166.08932435512543,156.03869400613365L168.4964160124461,157.40469309637774L170.90350766976675,153.6435590244299L173.3105993270874,155.99203186639141L175.71769098440805,157.9102231342184L178.12478264172873,164.833317034846L180.53187429904938,157.0356208828045L182.93896595637003,157.1563176495868L185.3460576136907,158.69228210183215L187.75314927101135,156.59672953696918L190.160240928332,152.19345704952835L192.56733258565265,160.47402495497832L194.97442424297333,156.26586965440887L197.38151590029398,156.86515681271567L199.78860755761465,160.24710336554017L202.1956992149353,156.80065409685903L204.60279087225598,158.9886558496566L207.00988252957663,162.77187422125658L209.41697418689728,161.86528878513127L211.82406584421793,161.6311594523895L214.2311575015386,161.78813958494038L216.63824915885925,163.5929171059811L219.0453408161799,162.68173979161537L221.45243247350058,160.51640573283657L223.85952413082123,160.41908237906486L226.26661578814188,161.7658765031436L228.67370744546253,160.249173474583L231.0807991027832,162.9458951150644L233.48789076010385,159.4318379669624L235.89498241742453,157.621452332333L238.30207407474518,162.41367008015808L240.70916573206586,158.1412284842228L243.1162573893865,166.51266476706556L245.52334904670715,160.60606027356334L247.9304407040278,160.15826745884397L250.33753236134848,160.99591826384372L252.74462401866913,155.84051870363086L255.15171567598978,164.88424171729912L257.5588073333105,167.71525697713952L259.9658989906311,159.09533233246717L262.3729906479518,159.44908573912366L264.7800823052724,161.41351571529776L267.1871739625931,164.4897542104321L269.59426561991376,160.02946903803496L272.0013572772344,161.23348209567925L274.40844893455505,163.56450015457526" fill="none"></path></g></g></g></g></g><g><g opacity="0.995772"><span fill="rgb(0, 0, 0)" stroke="none" stroke-width="1px">Alt + Scroll to Zoom</span></g></g></g><g transform="translate(41, 177)" clip-path="url(#clip_1)"><clipPath id="clip_1"><rect width="288" height="22"></rect></clipPath><g><g><line x1="0" y1="0" x2="0" y2="5" style="visibility: inherit;" fill="rgb(0, 0, 0)" stroke="rgb(204, 204, 204)" stroke-width="1px"></line><line x1="24.07091657320658" y1="0" x2="24.07091657320658" y2="5" style="visibility: inherit;" fill="rgb(0, 0, 0)" stroke="rgb(204, 204, 204)" stroke-width="1px"></line><line x1="48.14183314641316" y1="0" x2="48.14183314641316" y2="5" style="visibility: inherit;" fill="rgb(0, 0, 0)" stroke="rgb(204, 204, 204)" stroke-width="1px"></line><line x1="72.21274971961975" y1="0" x2="72.21274971961975" y2="5" style="visibility: inherit;" fill="rgb(0, 0, 0)" stroke="rgb(204, 204, 204)" stroke-width="1px"></line><line x1="96.28366629282633" y1="0" x2="96.28366629282633" y2="5" style="visibility: inherit;" fill="rgb(0, 0, 0)" stroke="rgb(204, 204, 204)" stroke-width="1px"></line><line x1="120.35458286603293" y1="0" x2="120.35458286603293" y2="5" style="visibility: inherit;" fill="rgb(0, 0, 0)" stroke="rgb(204, 204, 204)" stroke-width="1px"></line><line x1="144.4254994392395" y1="0" x2="144.4254994392395" y2="5" style="visibility: inherit;" fill="rgb(0, 0, 0)" stroke="rgb(204, 204, 204)" stroke-width="1px"></line><line x1="168.4964160124461" y1="0" x2="168.4964160124461" y2="5" style="visibility: inherit;" fill="rgb(0, 0, 0)" stroke="rgb(204, 204, 204)" stroke-width="1px"></line><line x1="192.56733258565265" y1="0" x2="192.56733258565265" y2="5" style="visibility: inherit;" fill="rgb(0, 0, 0)" stroke="rgb(204, 204, 204)" stroke-width="1px"></line><line x1="216.63824915885925" y1="0" x2="216.63824915885925" y2="5" style="visibility: inherit;" fill="rgb(0, 0, 0)" stroke="rgb(204, 204, 204)" stroke-width="1px"></line><line x1="240.70916573206586" y1="0" x2="240.70916573206586" y2="5" style="visibility: inherit;" fill="rgb(0, 0, 0)" stroke="rgb(204, 204, 204)" stroke-width="1px"></line><line x1="264.7800823052724" y1="0" x2="264.7800823052724" y2="5" style="visibility: inherit;" fill="rgb(0, 0, 0)" stroke="rgb(204, 204, 204)" stroke-width="1px"></line><line x1="288.850998878479" y1="0" x2="288.850998878479" y2="5" style="visibility: inherit;" fill="rgb(0, 0, 0)" stroke="rgb(204, 204, 204)" stroke-width="1px"></line></g><g transform="translate(0, 8)"><text style="text-anchor: middle; visibility: hidden; font-family: Roboto, sans-serif; font-size: 12px; font-weight: 200;" x="0" y="0" dx="0em" dy="0.95em" fill="rgb(50, 49, 63)" stroke="none" stroke-width="1px">-10</text><text style="text-anchor: middle; visibility: inherit; font-family: Roboto, sans-serif; font-size: 12px; font-weight: 200;" x="24.07091657320658" y="0" dx="0em" dy="0.95em" fill="rgb(50, 49, 63)" stroke="none" stroke-width="1px">0</text><text style="text-anchor: middle; visibility: inherit; font-family: Roboto, sans-serif; font-size: 12px; font-weight: 200;" x="48.14183314641316" y="0" dx="0em" dy="0.95em" fill="rgb(50, 49, 63)" stroke="none" stroke-width="1px">10</text><text style="text-anchor: middle; visibility: inherit; font-family: Roboto, sans-serif; font-size: 12px; font-weight: 200;" x="72.21274971961975" y="0" dx="0em" dy="0.95em" fill="rgb(50, 49, 63)" stroke="none" stroke-width="1px">20</text><text style="text-anchor: middle; visibility: inherit; font-family: Roboto, sans-serif; font-size: 12px; font-weight: 200;" x="96.28366629282633" y="0" dx="0em" dy="0.95em" fill="rgb(50, 49, 63)" stroke="none" stroke-width="1px">30</text><text style="text-anchor: middle; visibility: inherit; font-family: Roboto, sans-serif; font-size: 12px; font-weight: 200;" x="120.35458286603293" y="0" dx="0em" dy="0.95em" fill="rgb(50, 49, 63)" stroke="none" stroke-width="1px">40</text><text style="text-anchor: middle; visibility: inherit; font-family: Roboto, sans-serif; font-size: 12px; font-weight: 200;" x="144.4254994392395" y="0" dx="0em" dy="0.95em" fill="rgb(50, 49, 63)" stroke="none" stroke-width="1px">50</text><text style="text-anchor: middle; visibility: inherit; font-family: Roboto, sans-serif; font-size: 12px; font-weight: 200;" x="168.4964160124461" y="0" dx="0em" dy="0.95em" fill="rgb(50, 49, 63)" stroke="none" stroke-width="1px">60</text><text style="text-anchor: middle; visibility: inherit; font-family: Roboto, sans-serif; font-size: 12px; font-weight: 200;" x="192.56733258565265" y="0" dx="0em" dy="0.95em" fill="rgb(50, 49, 63)" stroke="none" stroke-width="1px">70</text><text style="text-anchor: middle; visibility: inherit; font-family: Roboto, sans-serif; font-size: 12px; font-weight: 200;" x="216.63824915885925" y="0" dx="0em" dy="0.95em" fill="rgb(50, 49, 63)" stroke="none" stroke-width="1px">80</text><text style="text-anchor: middle; visibility: inherit; font-family: Roboto, sans-serif; font-size: 12px; font-weight: 200;" x="240.70916573206586" y="0" dx="0em" dy="0.95em" fill="rgb(50, 49, 63)" stroke="none" stroke-width="1px">90</text><text style="text-anchor: middle; visibility: inherit; font-family: Roboto, sans-serif; font-size: 12px; font-weight: 200;" x="264.7800823052724" y="0" dx="0em" dy="0.95em" fill="rgb(50, 49, 63)" stroke="none" stroke-width="1px">100</text><text style="text-anchor: middle; visibility: hidden; font-family: Roboto, sans-serif; font-size: 12px; font-weight: 200;" x="288.850998878479" y="0" dx="0em" dy="0.95em" fill="rgb(50, 49, 63)" stroke="none" stroke-width="1px">110</text></g><line x1="0" y1="0" x2="288.850998878479" y2="0" fill="rgb(0, 0, 0)" stroke="rgb(204, 204, 204)" stroke-width="1px"></line></g></g></g></g></svg>