<svg viewBox="0 0 330 200" xmlns="http://www.w3.org/2000/svg"><g><g><g><g><g><line x1="63.96500110626221" y1="175.63999938964844" x2="58.96500110626221" y2="175.63999938964844" style="visibility: inherit;" fill="rgb(0, 0, 0)" stroke="rgb(204, 204, 204)" stroke-width="1px"></line><line x1="63.96500110626221" y1="163.09428514753068" x2="58.96500110626221" y2="163.09428514753068" style="visibility: inherit;" fill="rgb(0, 0, 0)" stroke="rgb(204, 204, 204)" stroke-width="1px"></line><line x1="63.96500110626221" y1="150.54857090541296" x2="58.96500110626221" y2="150.54857090541296" style="visibility: inherit;" fill="rgb(0, 0, 0)" stroke="rgb(204, 204, 204)" stroke-width="1px"></line><line x1="63.96500110626221" y1="138.0028566632952" x2="58.96500110626221" y2="138.0028566632952" style="visibility: inherit;" fill="rgb(0, 0, 0)" stroke="rgb(204, 204, 204)" stroke-width="1px"></line><line x1="63.96500110626221" y1="125.45714242117745" x2="58.96500110626221" y2="125.45714242117745" style="visibility: inherit;" fill="rgb(0, 0, 0)" stroke="rgb(204, 204, 204)" stroke-width="1px"></line><line x1="63.96500110626221" y1="112.9114281790597" x2="58.96500110626221" y2="112.9114281790597" style="visibility: inherit;" fill="rgb(0, 0, 0)" stroke="rgb(204, 204, 204)" stroke-width="1px"></line><line x1="63.96500110626221" y1="100.36571393694196" x2="58.96500110626221" y2="100.36571393694196" style="visibility: inherit;" fill="rgb(0, 0, 0)" stroke="rgb(204, 204, 204)" stroke-width="1px"></line><line x1="63.96500110626221" y1="87.81999969482423" x2="58.96500110626221" y2="87.81999969482423" style="visibility: inherit;" fill="rgb(0, 0, 0)" stroke="rgb(204, 204, 204)" stroke-width="1px"></line><line x1="63.96500110626221" y1="75.27428545270648" x2="58.96500110626221" y2="75.27428545270648" style="visibility: inherit;" fill="rgb(0, 0, 0)" stroke="rgb(204, 204, 204)" stroke-width="1px"></line><line x1="63.96500110626221" y1="62.72857121058874" x2="58.96500110626221" y2="62.72857121058874" style="visibility: inherit;" fill="rgb(0, 0, 0)" stroke="rgb(204, 204, 204)" stroke-width="1px"></line><line x1="63.96500110626221" y1="50.182856968471" x2="58.96500110626221" y2="50.182856968471" style="visibility: inherit;" fill="rgb(0, 0, 0)" stroke="rgb(204, 204, 204)" stroke-width="1px"></line><line x1="63.96500110626221" y1="37.63714272635324" x2="58.96500110626221" y2="37.63714272635324" style="visibility: inherit;" fill="rgb(0, 0, 0)" stroke="rgb(204, 204, 204)" stroke-width="1px"></line><line x1="63.96500110626221" y1="25.091428484235518" x2="58.96500110626221" y2="25.091428484235518" style="visibility: inherit;" fill="rgb(0, 0, 0)" stroke="rgb(204, 204, 204)" stroke-width="1px"></line><line x1="63.96500110626221" y1="12.545714242117759" x2="58.96500110626221" y2="12.545714242117759" style="visibility: inherit;" fill="rgb(0, 0, 0)" stroke="rgb(204, 204, 204)" stroke-width="1px"></line><line x1="63.96500110626221" y1="0" x2="58.96500110626221" y2="0" style="visibility: inherit;" fill="rgb(0, 0, 0)" stroke="rgb(204, 204, 204)" stroke-width="1px"></line></g><g transform="translate(53.96500110626221, 0)"><text style="text-anchor: end; visibility: hidden; font-family: Roboto, sans-serif; font-size: 12px; font-weight: 200;" x="0" y="175.63999938964844" dx="0em" dy="0.3em" fill="rgb(33, 33, 33)" stroke="none" stroke-width="1px">-0.02</text><text style="text-anchor: end; visibility: inherit; font-family: Roboto, sans-serif; font-size: 12px; font-weight: 200;" x="0" y="163.09428514753068" dx="0em" dy="0.3em" fill="rgb(33, 33, 33)" stroke="none" stroke-width="1px">0</text><text style="text-anchor: end; visibility: hidden; font-family: Roboto, sans-serif; font-size: 12px; font-weight: 200;" x="0" y="150.54857090541296" dx="0em" dy="0.3em" fill="rgb(33, 33, 33)" stroke="none" stroke-width="1px">0.02</text><text style="text-anchor: end; visibility: inherit; font-family: Roboto, sans-serif; font-size: 12px; font-weight: 200;" x="0" y="138.0028566632952" dx="0em" dy="0.3em" fill="rgb(33, 33, 33)" stroke="none" stroke-width="1px">0.04</text><text style="text-anchor: end; visibility: hidden; font-family: Roboto, sans-serif; font-size: 12px; font-weight: 200;" x="0" y="125.45714242117745" dx="0em" dy="0.3em" fill="rgb(33, 33, 33)" stroke="none" stroke-width="1px">0.06</text><text style="text-anchor: end; visibility: inherit; font-family: Roboto, sans-serif; font-size: 12px; font-weight: 200;" x="0" y="112.9114281790597" dx="0em" dy="0.3em" fill="rgb(33, 33, 33)" stroke="none" stroke-width="1px">0.08</text><text style="text-anchor: end; visibility: hidden; font-family: Roboto, sans-serif; font-size: 12px; font-weight: 200;" x="0" y="100.36571393694196" dx="0em" dy="0.3em" fill="rgb(33, 33, 33)" stroke="none" stroke-width="1px">0.1</text><text style="text-anchor: end; visibility: inherit; font-family: Roboto, sans-serif; font-size: 12px; font-weight: 200;" x="0" y="87.81999969482423" dx="0em" dy="0.3em" fill="rgb(33, 33, 33)" stroke="none" stroke-width="1px">0.12</text><text style="text-anchor: end; visibility: hidden; font-family: Roboto, sans-serif; font-size: 12px; font-weight: 200;" x="0" y="75.27428545270648" dx="0em" dy="0.3em" fill="rgb(33, 33, 33)" stroke="none" stroke-width="1px">0.14</text><text style="text-anchor: end; visibility: inherit; font-family: Roboto, sans-serif; font-size: 12px; font-weight: 200;" x="0" y="62.72857121058874" dx="0em" dy="0.3em" fill="rgb(33, 33, 33)" stroke="none" stroke-width="1px">0.16</text><text style="text-anchor: end; visibility: hidden; font-family: Roboto, sans-serif; font-size: 12px; font-weight: 200;" x="0" y="50.182856968471" dx="0em" dy="0.3em" fill="rgb(33, 33, 33)" stroke="none" stroke-width="1px">0.18</text><text style="text-anchor: end; visibility: inherit; font-family: Roboto, sans-serif; font-size: 12px; font-weight: 200;" x="0" y="37.63714272635324" dx="0em" dy="0.3em" fill="rgb(33, 33, 33)" stroke="none" stroke-width="1px">0.2</text><text style="text-anchor: end; visibility: hidden; font-family: Roboto, sans-serif; font-size: 12px; font-weight: 200;" x="0" y="25.091428484235518" dx="0em" dy="0.3em" fill="rgb(33, 33, 33)" stroke="none" stroke-width="1px">0.22</text><text style="text-anchor: end; visibility: inherit; font-family: Roboto, sans-serif; font-size: 12px; font-weight: 200;" x="0" y="12.545714242117759" dx="0em" dy="0.3em" fill="rgb(33, 33, 33)" stroke="none" stroke-width="1px">0.24</text><text style="text-anchor: end; visibility: hidden; font-family: Roboto, sans-serif; font-size: 12px; font-weight: 200;" x="0" y="0" dx="0em" dy="0.3em" fill="rgb(33, 33, 33)" stroke="none" stroke-width="1px">0.26</text></g><line x1="63.96500110626221" y1="0" x2="63.96500110626221" y2="175.63999938964844" fill="rgb(0, 0, 0)" stroke="rgb(204, 204, 204)" stroke-width="1px"></line></g></g><g transform="translate(63, 0)" clip-path="url(#clip_0)"><clipPath id="clip_0"><rect width="266" height="175"></rect></clipPath><g><g><g><line x1="0" y1="0" x2="0" y2="175.63999938964844" fill="rgb(0, 0, 0)" stroke="rgb(66, 66, 66)" stroke-width="1px" opacity="0.25"></line><line x1="22.169583241144814" y1="0" x2="22.169583241144814" y2="175.63999938964844" fill="rgb(0, 0, 0)" stroke="rgb(66, 66, 66)" stroke-width="1px" opacity="0.25"></line><line x1="44.33916648228963" y1="0" x2="44.33916648228963" y2="175.63999938964844" fill="rgb(0, 0, 0)" stroke="rgb(66, 66, 66)" stroke-width="1px" opacity="0.25"></line><line x1="66.50874972343445" y1="0" x2="66.50874972343445" y2="175.63999938964844" fill="rgb(0, 0, 0)" stroke="rgb(66, 66, 66)" stroke-width="1px" opacity="0.25"></line><line x1="88.67833296457925" y1="0" x2="88.67833296457925" y2="175.63999938964844" fill="rgb(0, 0, 0)" stroke="rgb(66, 66, 66)" stroke-width="1px" opacity="0.25"></line><line x1="110.84791620572409" y1="0" x2="110.84791620572409" y2="175.63999938964844" fill="rgb(0, 0, 0)" stroke="rgb(66, 66, 66)" stroke-width="1px" opacity="0.25"></line><line x1="133.0174994468689" y1="0" x2="133.0174994468689" y2="175.63999938964844" fill="rgb(0, 0, 0)" stroke="rgb(66, 66, 66)" stroke-width="1px" opacity="0.25"></line><line x1="155.18708268801373" y1="0" x2="155.18708268801373" y2="175.63999938964844" fill="rgb(0, 0, 0)" stroke="rgb(66, 66, 66)" stroke-width="1px" opacity="0.25"></line><line x1="177.3566659291585" y1="0" x2="177.3566659291585" y2="175.63999938964844" fill="rgb(0, 0, 0)" stroke="rgb(66, 66, 66)" stroke-width="1px" opacity="0.25"></line><line x1="199.52624917030334" y1="0" x2="199.52624917030334" y2="175.63999938964844" fill="rgb(0, 0, 0)" stroke="rgb(66, 66, 66)" stroke-width="1px" opacity="0.25"></line><line x1="221.69583241144818" y1="0" x2="221.69583241144818" y2="175.63999938964844" fill="rgb(0, 0, 0)" stroke="rgb(66, 66, 66)" stroke-width="1px" opacity="0.25"></line><line x1="243.86541565259296" y1="0" x2="243.86541565259296" y2="175.63999938964844" fill="rgb(0, 0, 0)" stroke="rgb(66, 66, 66)" stroke-width="1px" opacity="0.25"></line><line x1="266.0349988937378" y1="0" x2="266.0349988937378" y2="175.63999938964844" fill="rgb(0, 0, 0)" stroke="rgb(66, 66, 66)" stroke-width="1px" opacity="0.25"></line></g><g><line x1="0" y1="175.63999938964844" x2="266.0349988937378" y2="175.63999938964844" fill="rgb(0, 0, 0)" stroke="rgb(66, 66, 66)" stroke-width="1px" opacity="0.25"></line><line x1="0" y1="163.09428514753068" x2="266.0349988937378" y2="163.09428514753068" fill="rgb(0, 0, 0)" stroke="rgb(66, 66, 66)" stroke-width="1px" opacity="0.25"></line><line x1="0" y1="150.54857090541296" x2="266.0349988937378" y2="150.54857090541296" fill="rgb(0, 0, 0)" stroke="rgb(66, 66, 66)" stroke-width="1px" opacity="0.25"></line><line x1="0" y1="138.0028566632952" x2="266.0349988937378" y2="138.0028566632952" fill="rgb(0, 0, 0)" stroke="rgb(66, 66, 66)" stroke-width="1px" opacity="0.25"></line><line x1="0" y1="125.45714242117745" x2="266.0349988937378" y2="125.45714242117745" fill="rgb(0, 0, 0)" stroke="rgb(66, 66, 66)" stroke-width="1px" opacity="0.25"></line><line x1="0" y1="112.9114281790597" x2="266.0349988937378" y2="112.9114281790597" fill="rgb(0, 0, 0)" stroke="rgb(66, 66, 66)" stroke-width="1px" opacity="0.25"></line><line x1="0" y1="100.36571393694196" x2="266.0349988937378" y2="100.36571393694196" fill="rgb(0, 0, 0)" stroke="rgb(66, 66, 66)" stroke-width="1px" opacity="0.25"></line><line x1="0" y1="87.81999969482423" x2="266.0349988937378" y2="87.81999969482423" fill="rgb(0, 0, 0)" stroke="rgb(66, 66, 66)" stroke-width="1px" opacity="0.25"></line><line x1="0" y1="75.27428545270648" x2="266.0349988937378" y2="75.27428545270648" fill="rgb(0, 0, 0)" stroke="rgb(66, 66, 66)" stroke-width="1px" opacity="0.25"></line><line x1="0" y1="62.72857121058874" x2="266.0349988937378" y2="62.72857121058874" fill="rgb(0, 0, 0)" stroke="rgb(66, 66, 66)" stroke-width="1px" opacity="0.25"></line><line x1="0" y1="50.182856968471" x2="266.0349988937378" y2="50.182856968471" fill="rgb(0, 0, 0)" stroke="rgb(66, 66, 66)" stroke-width="1px" opacity="0.25"></line><line x1="0" y1="37.63714272635324" x2="266.0349988937378" y2="37.63714272635324" fill="rgb(0, 0, 0)" stroke="rgb(66, 66, 66)" stroke-width="1px" opacity="0.25"></line><line x1="0" y1="25.091428484235518" x2="266.0349988937378" y2="25.091428484235518" fill="rgb(0, 0, 0)" stroke="rgb(66, 66, 66)" stroke-width="1px" opacity="0.25"></line><line x1="0" y1="12.545714242117759" x2="266.0349988937378" y2="12.545714242117759" fill="rgb(0, 0, 0)" stroke="rgb(66, 66, 66)" stroke-width="1px" opacity="0.25"></line><line x1="0" y1="0" x2="266.0349988937378" y2="0" fill="rgb(0, 0, 0)" stroke="rgb(66, 66, 66)" stroke-width="1px" opacity="0.25"></line></g></g></g><g><g><line x1="0" y1="163.09428514753068" x2="266.0349988937378" y2="163.09428514753068" fill="rgb(0, 0, 0)" stroke="rgb(153, 153, 153)" stroke-width="1.5px"></line></g></g><g><g><line x1="22.169583241144814" y1="0" x2="22.169583241144814" y2="175.63999938964844" fill="rgb(0, 0, 0)" stroke="rgb(153, 153, 153)" stroke-width="1.5px"></line></g></g><g><g><g><g><g><path style="fill: none;" stroke="rgb(0, 119, 187)" stroke-width="2px" d="M22.590805322726567,157.13507107414412L22.723822822173435,155.9589101711578L23.078536154031752,153.03851094820135L23.122875320514044,151.4618247951847L23.18938407023748,150.24951084040882L23.43324948589007,148.1378413917132L23.765793234507242,144.9996559197341L23.83230198423068,142.79112674600643L24.275693649053572,138.95530548558799L24.541728647947313,135.1640587951228L24.985120312770206,130.38575619895843L25.628038226763408,123.88369959491757L25.69454697648684,119.61467322920059L25.894073225657145,115.9268284051628L26.248786557515462,111.70771308707558L26.29312572399775,108.92652826475364L27.26858738660812,101.73727083642416L27.37943530281385,96.79714644784953L27.711979051431022,91.95142104343036L27.84499655087789,88.29140288370921L27.95584446708361,85.46817875713144L28.111031549771628,82.89607245239739L28.244049049218496,80.60008375085184L29.019984462658567,74.83148179213381L29.064323629140855,71.11942260391297L29.24168029507001,67.88853295982555L29.707241543134053,63.31540028248032L29.88459820906321,59.56786762086775L30.32798987388611,54.810204377813584L31.525147368907927,45.18092159181016L31.547316952149075,39.2778939998637L31.924199867248532,33.60330764110448L31.99070861697197,29.8221857763691L32.057217366695404,27.177138702841027L32.389761115312574,23.708255133236484L32.45626986503601,21.25055470521163L32.47843944827716,19.650475197719693L32.7001352806886,17.435857267144357L33.12135736227035,13.723401580443182L33.58691861033439,10.743568900869192L33.96380152543386,8.957041477188199L34.07464944163958,7.885715772341179L34.67322818915049,7.247597731433835L34.894924021561934,6.867093639699078L35.027941521008806,6.640372745408981L35.18312860369682,6.506348005777829L35.205298186937966,6.426232275140861L35.936894433895745,6.38998902238897L35.98123360037804,6.369076848605912L36.24726859927178,6.361838802506367L36.402455681959786,6.360819869574329L36.42462526520093,6.360698307575829L36.468964431683226,6.361612443726682L36.53547318140666,6.363667707841518L36.57981234788895,6.365921589888153L36.84584734678269,6.373693634804903L37.06754317919413,6.384081139401668L38.02083525856336,6.418834079709961L38.19819192449252,6.445690540107024L38.37554859042167,6.468025969581168L38.57507483959198,6.48868819865032L38.863279421726865,6.512066727109769L38.95195775469144,6.529585990052263L39.151484003861746,6.548162385756365L39.24016233682632,6.562979836927435L39.28450150330861,6.57372480907539L39.32884066979091,6.582044988380514L39.484027752478916,6.5936886243329935L39.594875668684644,6.605527916541608L39.63921483516693,6.614598160738249L39.75006275137265,6.6250168020621L39.79440191785495,6.633279522698306L39.883080250819525,6.642305093734318L39.9717585837841,6.651844458723212L40.10477608323097,6.663853192493926L40.12694566647212,6.672120284390401L40.63684608101845,6.702392988691231L40.725524413983024,6.725144259000357L41.4571206609408,6.778715408144849L41.612307743628826,6.819805319322408L41.74532524307569,6.85225864105905L42.055699408451716,6.8904065105513785L42.1443777414163,6.918754046985011L42.29956482410431,6.945442617720067L42.343903990586604,6.964256206900102L42.52126065651576,6.986865792618673L42.83163482189178,7.020774976235306L42.85380440513293,7.042597357515953L43.075500237544375,7.070661398758231L43.14200898726781,7.092057559918655L43.34153523643811,7.1187516726559155L43.51889190236727,7.1473121974536244L43.71841815153758,7.178824637447675L43.74058773477872,7.19934731238036L43.873605234225586,7.221415744498965L43.89577481746674,7.236294448191548L44.00662273367246,7.2534622373133235L44.40567523201307,7.294126633039324L44.4721839817365,7.323692449905224L44.671710230906804,7.357112946197488L45.33679772814115,7.431424366905292L45.62500231027604,7.500467457140115L45.758019809722896,7.55337177788817L45.82452855944633,7.5908984706110045L45.868867725928624,7.617288001360322L45.9575460588932,7.640909878097439L46.09056355834007,7.666864322797359L46.20141147454579,7.6923488511728415L46.42310730695724,7.727713798560891L46.556124806404114,7.761140321870696L46.666972722609835,7.791459555347277L46.88866855502128,7.830431980580602L47.819791051149366,7.944760784825374L47.90846938411395,8.022327722548313L47.930638967355094,8.071118711533034L47.95280855059624,8.102647870189072L48.35186104893684,8.162715855114907L48.64006563107172,8.229146540722775L48.92827021320661,8.299963161698892L49.50467937747637,8.406055803813507L49.77071437637011,8.499824604083475L50.01457979202271,8.58411278512071L50.08108854174614,8.642399073746464L50.14759729146957,8.685114138238966L50.59098895629247,8.763129103850574L50.72400645573934,8.825910724698195L50.87919353842735,8.882367741083257L51.01221103787422,8.932476316389256L51.36692436973254,9.00641014193158L51.43343311945597,9.059089521361507L51.67729853510857,9.12145719617804L51.743807284832,9.167335224998014L51.810316034555434,9.2033531164479L51.83248561779658,9.227797948284687L52.89662561337153,9.382468489765834L52.963134363094966,9.484270381144235L53.0296431128184,9.554384732688789L53.05181269605954,9.599470647378357L53.539543527364735,9.693725440099756L53.80557852625847,9.787600157319648L54.02727435866992,9.875387950680565L54.1159526916345,9.94073928476383L54.670192272663115,10.060362913005097L54.69236185590427,10.13539742313599L54.93622727155685,10.216479956714757L55.11358393748601,10.291604728342522L55.20226227045059,10.349993864800563L55.246601436932885,10.391705047444244L55.95602810064952,10.525328520093595L56.044706433614095,10.619310413839624L56.59894601464271,10.763171447896232L56.95365934650103,10.906528943430635L56.97582892974218,10.996136537301565L57.308372678359355,11.104171433299168L57.39705101132393,11.183585353037016L57.751764343182245,11.290125342511294L57.773933926423396,11.357754600172296L58.261664757728575,11.480719129260072L58.3725126739343,11.573435447157406L58.48336059014002,11.648085094452917L58.549869339863456,11.704323438123765L58.660717256069184,11.757213423966336L58.727226005792616,11.80047448796365L58.99326100468635,11.872823573808715L59.17061767061552,11.947415569779377L59.32580475330353,12.01962187544958L59.48099183599154,12.090550062421848L59.68051808516184,12.168828560912846L59.76919641812642,12.23175708474551L59.813535584608715,12.277511736528036L59.857874751091,12.312977020737332L59.924383500814436,12.346295495000662L60.07957058350245,12.394492948315724L60.27909683267276,12.459903222938463L60.5007926650842,12.53999328647962L60.58947099804878,12.604472374703708L60.63381016453107,12.65139291671596L60.7003189142545,12.691917309025254L60.81116683046023,12.736915617788881L60.87767558018366,12.776361448433102L60.89984516342481,12.804182880500552L61.343236828247704,12.904642373573633L61.54276307741801,13.003025082987424L61.67578057686488,13.08759897047931L61.83096765955289,13.16828452792229L61.85313724279404,13.220984396980382L62.052663491964346,13.291358164142544L62.207850574652355,13.363897540808114L62.673411822716396,13.499278810978044L62.76209015568097,13.598158987038406L62.98378598809242,13.701834354051522L63.072464321057005,13.781866717185366L63.27199057022731,13.870176674530954L63.56019515236219,13.981800040403948L63.62670390208562,14.062379968717094L63.75972140153249,14.138021999396209L63.80406056801478,14.192530168462095L64.5578263982137,14.382205904939722L64.69084389766057,14.524083114671972L65.06772681276004,14.689334371908949L65.28942264517148,14.836032898186877L65.35593139489492,14.938375794270222L65.4002705613772,15.009345674454785L65.7993230597178,15.138547027935925L66.10969722509384,15.284123556370838L66.15403639157613,15.381239256247547L66.55308888991674,15.52798634190354L66.64176722288131,15.635828405094578L66.81912388881047,15.740267084258043L67.19600680390994,15.88800180664596L67.3290243033568,16.006875500334477L67.86109430114428,16.200207964861498L68.14929888327916,16.38301062366552L68.2158076330026,16.508182540496183L68.23797721624375,16.588452870024923L68.28231638272602,16.646960643345388L68.32665554920833,16.692425838597682L68.4153338821729,16.74045592958283L68.50401221513748,16.79007356389229L68.6591992978255,16.8563583805969L68.99174304644268,16.974859587019093L69.7455088766416,17.22687515247467L69.83418720960617,17.39959072625098L69.98937429229419,17.540971887237358L70.18890054146448,17.674548547224497L70.45493554035822,17.82005824133595L70.67663137276968,17.96215784546645L70.72097053925195,18.058410015705316L70.76530970573425,18.127164942351836L70.87615762193998,18.195981173853657L70.9426663716634,18.25384551942228L71.12002303759256,18.332885215740955L71.20870137055715,18.402536878476567L71.65209303538003,18.55617375562462L71.76294095158576,18.676498689129012L71.78511053482691,18.754331931851684L71.82944970130922,18.812312181639584L71.89595845103264,18.864048829600335L71.98463678399722,18.917722466055277L72.00680636723837,18.95559484186188L72.16199344992637,19.01805918642309L72.22850219964981,19.07260967541654L72.33935011585552,19.133856667448605L72.7605721974373,19.279612906293494L72.98226802984873,19.424855307541694L73.1152855292956,19.546810039532417L73.24830302874247,19.654893120652154L73.33698136170705,19.74307379395869L73.60301636060079,19.86624761258354L73.62518594384193,19.946025737973354L74.17942552487055,20.141654502560215L74.37895177404086,20.312659007744227L75.15488718748092,20.62595700409394L75.17705677072207,20.820007798571503L75.22139593720436,20.948586007507743L76.19685759981473,21.295805922586865L76.3742142657439,21.553813085752346L76.5294013484319,21.752231817844496L76.57374051491419,21.883767291627862L76.61807968139648,21.97518402716857L76.72892759760221,22.061321302554372L77.28316717863082,22.270471778413086L77.30533676187198,22.402295784590372L77.52703259428343,22.544876951485303L77.57137176076571,22.643156654487836L77.68221967697143,22.733998719880802L77.99259384234747,22.878107038022037L78.12561134179434,23.003135190009683L78.32513759096463,23.136180029652603L78.65768133958181,23.313203747092675L78.74635967254638,23.445437081504284L78.79069883902868,23.537803459238937L79.3449384200573,23.756946599970714L79.61097341895103,23.967611470513724L79.83266925136247,24.16028264711029L79.96568675080934,24.31577582871364L80.34256966590881,24.522603867488446L80.47558716535568,24.68695384107658L80.49775674859683,24.79228265405451L80.80813091397286,24.949801530472527L80.94114841341973,25.084895031096554L81.05199632962544,25.199836910904306L81.56189674417178,25.425526105489556L81.71708382685979,25.608906152567354L81.8279317430655,25.753276107780287L82.11613632520039,25.929482465242472L82.27132340788842,26.083625218665148L82.60386715650559,26.280284498278238L82.86990215539932,26.482028005307665L82.93641090512277,26.624068112782336L83.24678507049879,26.80756953712649L84.02272048393885,27.165515536505954L84.04489006718,27.387409506607007L84.06705965042114,27.527675998055173L84.46611214876175,27.74057792571988L84.79865589737892,27.976220407339852L85.86279589295387,28.466599887053082L86.06232214212417,28.826886711042146L86.26184839129448,29.109316104049537L86.39486589074134,29.32305370077522L86.86042713880539,29.606958473877178L86.90476630528768,29.792182216271375L86.92693588852882,29.910760639888622L87.96890630086263,30.334438697637435L88.14626296679178,30.649167336511326L88.65616338133812,31.012847364770145L88.85568963050842,31.299806536113667L88.944367963473,31.502596268424373L89.03304629643758,31.654925465371647L89.29908129533132,31.83850591324643L89.36559004505474,31.971749455011082L89.54294671098391,32.11338766444041L89.60945546070734,32.22154438033612L90.14152545849481,32.47256155896233L90.2302037914594,32.65432076037387L90.27454295794169,32.77896381453843L90.89529128869374,33.072921058777524L91.40519170324008,33.43064396097097L91.73773545185725,33.76417891289718L91.9150921177864,34.027917509238634L92.02594003399213,34.22599505897587L92.13678795019786,34.38472832554938L92.26980544964472,34.52790490450652L92.62451878150304,34.74202943668798L93.02357127984365,35.01540951489777L93.04574086308479,35.187509877590664L93.2009279457728,35.34732865037444L93.26743669549624,35.4674892061447L93.79950669328372,35.73444653119102L93.86601544300716,35.91906594728638L94.02120252569516,36.086945772499675L94.0877112754186,36.21218225023667L94.10988085865975,36.295497403329435L94.15422002514204,36.3618367670004L94.17638960838318,36.40982112948191L94.73062918941179,36.64378840284461L94.9301554385821,36.85834882467504L95.46222543636958,37.18572985053223L95.63958210229873,37.448636360598556L95.94995626767476,37.7230306508975L95.97212585091592,37.896016220495014L96.34900876601537,38.142024641841545L96.99192668000856,38.53358262973577L97.03626584649086,38.785406097933055L97.2579616789023,39.021051984666876L97.63484459400176,39.30663074299504L97.74569251020749,39.52049693032295L98.23342334151269,39.83647274663224L98.41078000744184,40.094532711154926L98.65464542309444,40.343720189813396L98.69898458957672,40.51041298777713L98.85417167226473,40.67062144633L98.9871891717116,40.818410837936376L99.14237625439961,40.96744924272824L99.27539375384649,41.108686158646194L99.34190250356993,41.21936141711781L99.71878541866938,41.433046141621375L99.98482041756313,41.66554277130915L100.05132916728655,41.83115332592449L100.20651624997457,41.99151630502221L100.56122958183289,42.22749844435085L100.60556874831516,42.386593324252445L100.73858624776204,42.53460443024871L100.82726458072662,42.65848584799677L101.18197791258494,42.87339787272634L101.5588608276844,43.152226941270854L102.00225249250731,43.49652084191371L102.4013049908479,43.86300306498788L102.4456441573302,44.10069336935892L102.48998332381248,44.26111973925072L102.55649207353592,44.384101319917946L102.62300082325935,44.48463472162149L102.99988373835882,44.696799546307616L103.24374915401141,44.92261509148773L103.55412331938743,45.18379549740091L104.21921081662178,45.61096183882924L104.26354998310407,45.88534677169231L104.79561998089156,46.26751523764329L104.88429831385612,46.53316604110782L104.92863748033842,46.71074260187614L105.06165497978529,46.87188416354795L105.12816372950871,46.99588560772749L105.172502895991,47.08850620315263L105.3720291451613,47.226155205019964L105.52721622784932,47.37267256120505L105.8154208099842,47.57951409683987L105.99277747591336,47.77694660359502L106.28098205804825,48.014774682533776L106.32532122453054,48.17585950995367L106.39182997425397,48.30010733214737L106.74654330611229,48.52206645688131L106.85739122231801,48.701391349745066L106.9017303888003,48.827456521632406L107.12342622121176,48.99554401737975L107.21210455417634,49.13341924327886L107.85502246816952,49.48528637889886L107.96587038437525,49.74294118645725L108.12105746706327,49.962744473629044L109.09651912967365,50.50619864371032L109.2738757956028,50.90740836560818L109.42906287829081,51.21395404439896L109.5177412112554,51.43552483988205L109.76160662690799,51.67210628000021L109.89462412635486,51.870658566209634L110.02764162580173,52.04644570487264L110.5153724571069,52.36008577530768L110.7592378727595,52.652607957353204L110.87008578896523,52.875601738060595L111.06961203813552,53.09495184130725L111.09178162137667,53.23607370099093L111.3578166202704,53.43500803488377L111.601682035923,53.65927882887722L111.66819078564644,53.822481388078046L111.88988661805789,54.01595461500299L112.9318570303917,54.58290299830885L113.04270494659741,54.97120307084401L113.06487452983856,55.2138145573553L113.28657036225002,55.45575196287728L114.90494993885358,56.30819732838475L115.14881535450618,56.9267993952985L115.17098493774732,57.30770424586311L115.21532410422961,57.55574559377717L115.25966327071191,57.72407257901509L115.32617202043534,57.85432951272051L115.34834160367647,57.94223850010273L115.9025811847051,58.23925463532572L116.01342910091083,58.466406703393496L116.07993785063427,58.632074593137155L116.25729451656342,58.80986540219018L116.50115993221601,59.02444495155736L116.7006861813863,59.24157687405251L116.76719493110974,59.401337366050306L116.7893645143509,59.50702326669203L117.12190826296806,59.7180060118056L117.47662159482638,60.002269409782215L117.60963909427325,60.23202941607869L117.69831742723784,60.4093720927679L117.89784367640813,60.60468160073067L117.94218284289043,60.741638683820554L118.14170909206072,60.91282152522146L118.23038742502531,61.05511885365684L118.4742528406779,61.24944547171646L119.05066200494767,61.62403773938982L119.25018825411796,61.93825410015952L119.58273200273514,62.27606380514119L119.73791908542316,62.548487855868366L119.87093658487002,62.77175369683043L119.9596149178346,62.94560741596732L119.98178450107575,63.05989507054643L120.4030065826575,63.318183908933015L120.46951533238092,63.50314330388324L121.26762032906214,63.97458392037334L121.400637828509,64.3176373311278L121.73318157712619,64.67407658064289L121.77752074360848,64.9080367941999L122.15440365870793,65.21935981866778L122.17657324194909,65.41621879038641L122.59779532353083,65.72569554130658L122.61996490677197,65.9214617045534L122.68647365649541,66.06916547949987L122.88599990566571,66.24856110351915L123.1298653213183,66.46723675196928L123.68410490234692,66.85114413536367L123.75061365207037,67.11184480982482L123.99447906772296,67.37962877407584L124.06098781744639,67.57068904727882L124.10532698392869,67.70558638727354L124.14966615041097,67.80678970625758L124.41570114930471,67.98916474911248L124.79258406440418,68.27110701512485L125.25814531246822,68.65365968619867L125.41333239515622,68.95438395420656L125.59068906108538,69.21622589398095L125.67936739404996,69.41405157244438L125.83455447673796,69.60402937882691L125.85672405997913,69.7282046038631L125.87889364322027,69.81289454117723L126.10058947563171,69.96560887128904L126.67699863990148,70.3224760430074L126.78784655610721,70.58765121949779L127.14255988796552,70.91023287114552L127.38642530361811,71.21625961814136L127.4751036365827,71.44079434339045L127.49727321982384,71.5857448478028L127.67462988575299,71.75458241586703L127.80764738519986,71.91730783925337L127.87415613492331,72.04566201238751L128.0736823840936,72.2148611848886L128.1623607170582,72.3573666658965L128.3175477997462,72.51461224025289L128.33971738298735,72.61921168761484L128.4727348824342,72.74349145034913L128.60575238188108,72.87959809687788L128.65009154836335,72.981777507034L128.7166002980868,73.07386389485724L129.49253571152687,73.48853007217973L129.7585707104206,73.86068777491487L130.17979279200236,74.27943413658441L130.22413195848463,74.5512646762807L130.6896932065487,74.93058440853167L131.13308487137158,75.36426893773611L131.66515486915907,75.87198829775335L131.7316636188825,76.20757064554668L132.01986820101737,76.54308725152889L132.19722486694653,76.82698982989065L132.39675111611683,77.09027330619756L132.46325986584029,77.27922777399255L132.50759903232256,77.41325795564816L132.5297686155637,77.50400668458794L133.50523027817408,78.013261184674L133.63824777762093,78.38087238268821L133.7047565273444,78.63247208939221L133.8599436100324,78.85585094263719L134.14814819216727,79.12440438765401L134.19248735864957,79.30623508369895L134.2146569418907,79.42568281584336L134.36984402457873,79.56981161240886L134.76889652291936,79.84265132994604L135.27879693746564,80.2445800789937L135.3896448536714,80.53753624580835L135.83303651849428,80.92054674349748L135.87737568497658,81.17108158245946L136.01039318442344,81.38358810688216L136.5868023486932,81.78060791303672L136.69765026489895,82.07065984217174L137.07453317999838,82.42095837089907L137.47358567833902,82.81779904086969L137.65094234426815,83.13886994904493L138.16084275881448,83.57005522018282L138.2495210917791,83.87025337487619L138.33819942474366,84.09185925970284L138.3603690079848,84.23519453860148L138.93677817225455,84.5908686318382L139.44667858680089,85.042815814013L140.08959650079407,85.61472181788162L140.33346191644668,86.07192286746128L140.68817524830501,86.51212416479595L140.99854941368105,86.92136902857857L141.02071899692217,87.17728021702243L141.46411066174505,87.5381011168311L141.99618065953254,88.00324266804321L142.35089399139088,88.44803814576105L142.7721160729726,88.91163092542125L142.83862482269606,89.220840145141L142.94947273890176,89.45811785793131L143.76974731882413,89.98326143563945L143.92493440151216,90.3707254834307L144.01361273447674,90.6445581726618L144.1466302339236,90.87087889502101L144.27964773337047,91.06868122051442L144.39049564957617,91.23903067119933L144.45700439929962,91.37223780982082L144.50134356578192,91.47282520234366L145.03341356356938,91.78103773828713L145.21077022949854,92.04854291896885L145.58765314459802,92.38445344835723L145.69850106080372,92.63757060960982L145.742840227286,92.81006662656925L146.00887522617975,93.03728677722148L146.05321439266206,93.19423524053518L146.1862318921089,93.3502403510908L146.45226689100267,93.56747435450274L146.5631148072084,93.74931082188536L146.78481063961982,93.96137305221517L147.00650647203128,94.19152961225704L147.6272548027833,94.61756293952467L147.67159396926564,94.89373761672327L147.7602723022302,95.10054430688999L148.09281605084738,95.37869215023431L149.00176896373432,95.9661171008238L149.06827771345775,96.34930968485084L149.46733021179833,96.76354435825232L149.86638271013896,97.19622294793953L150.24326562523842,97.629568097539L150.30977437496185,97.92021745865982L150.42062229116758,98.1456656877059L150.5314702073733,98.3319764123932L150.9305227057139,98.62739027106304L150.95269228895506,98.81483460529999L151.3295752040545,99.10052883984044L151.39608395377797,99.30249417907072L151.55127103646595,99.49493521788526L152.14984978397686,99.88495765847942L152.19418895045916,100.13928838262194L152.34937603314717,100.36297666233044L152.7484285314878,100.67983558903435L152.94795478065808,100.96118606001232L153.14748102982838,101.22117350438455L153.36917686223984,101.47840268145997L153.61304227789245,101.74401401333861L153.701720610857,101.94382090849925L153.72389019409815,102.07381320014687L154.1451122756799,102.34371582449828L154.25596019188563,102.55611217683872L154.3002993583679,102.70372703874634L154.3889776913325,102.83263884015503L154.5885039405028,103.00071067416702L154.9875564388434,103.28280698791193L155.4309481036663,103.65313984315057L155.54179601987204,103.92555504351427L155.74132226904234,104.17933820036488L155.8743397684892,104.39179152696434L155.89650935173034,104.5292912908199L155.98518768469495,104.65189100397407L156.05169643441837,104.75551731044025L156.53942726572356,105.03793757443698L156.93847976406414,105.38726328683137L157.02715809702875,105.63679031796968L157.13800601323445,105.83639860779451L157.49271934509275,106.11566379218667L157.53705851157505,106.30314383770234L157.7587543439865,106.51517484732926L157.8917718434334,106.70207400163405L157.93611100991566,106.83409890941235L158.0691285093625,106.97294579672332L158.11346767584484,107.07612438864851L158.15780684232712,107.15789639497093L158.42384184122088,107.3260720580271L158.46818100770315,107.44681613462868L158.51252017418543,107.53909565098618L159.02242058873176,107.82226231706744L159.22194683790207,108.08115408314927L159.2884555876255,108.26613499352403L159.6431689194838,108.53507023139431L159.8870343351364,108.80486362495465L159.93137350161868,108.98644000003317L160.0643910010656,109.15446253896492L160.35259558320047,109.38314318919598L160.46344349940617,109.56948091197879L160.6186305820942,109.75001974437986L160.75164808154105,109.91721598688102L161.03985266367593,110.14495592846339L161.61626182794572,110.53586662333164L162.12616224249206,110.99468993933893L162.21484057545663,111.30892658983792L162.23701015869776,111.50720097381107L162.3921972413858,111.69425870968318L162.76908015648524,111.97161875812405L163.01294557213782,112.24469479269395L163.25681098779043,112.51505086237302L163.41199807047843,112.74496689313442L163.5450155699253,112.94089959307114L164.0770855677128,113.28993539141982L165.29641264597575,114.02703170153545L165.38509097894033,114.50751053805803L165.6732955610752,114.91986996892625L166.0058393096924,115.31016075593513L166.18319597562154,115.62041091545485L166.2053655588627,115.81606346161684L166.29404389182727,115.97145357437208L166.51573972423873,116.15958876235814L166.73743555665018,116.3672326556571L166.7596051398913,116.50128779185881L166.78177472313246,116.59118780434508L166.9591313890616,116.72081465207397L167.4025230538845,116.98740966694139L167.93459305167198,117.37319522434295L168.08978013436,117.6703761064669L168.15628888408344,117.87682370404265L168.3779847164949,118.09439319146145L168.5775109656652,118.3091408401643L168.64401971538862,118.46603128591808L168.86571554780008,118.65354119670788L168.97656346400578,118.8126788811375L169.774668460687,119.24279431307787L169.9741947098573,119.5842114476838L170.0185338763396,119.80756561484432L170.10721220930415,119.97856906282063L170.24022970875106,120.1366117514274L170.30673845847448,120.25913524101671L170.46192554116251,120.39722599144943L170.63928220709164,120.55378565741795L170.7057909568151,120.67533520785473L170.88314762274425,120.82183368345721L170.97182595570882,120.94647694816123L171.0605042886734,121.05798278338382L171.57040470321974,121.3355292329578L171.6590830361843,121.53860311959188L171.81427011887234,121.72433988695207L171.9029484518369,121.87225692488799L172.1468138674895,122.06117639809626L172.41284886638323,122.28357725370314L172.76756219824154,122.56204277122266L173.32180177927017,122.95486650464589L173.65434552788736,123.32549628887502L173.9647196932634,123.67346802644828L174.14207635919252,123.95386623166092L174.3194330251217,124.19361001948816L174.45245052456858,124.39101156451798L174.47462010780973,124.51837167137019L175.0510292720795,124.8260835112578L175.3614034374555,125.13475844120269L175.9156430184841,125.54060233473523L176.29252593358356,125.93349698788654L176.5585609324773,126.27436643883024L176.62506968220077,126.50512967873914L176.75808718164762,126.69602122075669L177.15713967998823,126.96745594163542L177.20147884647054,127.14771300722661L177.60053134481112,127.41209497242127L177.68920967777572,127.60535864854083L178.15477092583973,127.90264951947717L178.24344925880433,128.1154687891458L178.39863634149233,128.30336434746425L178.68684092362722,128.5276587308397L178.8198584230741,128.71361365040303L179.13023258845013,128.94479727172146L179.39626758734386,129.18572561994316L179.728811335961,129.45765902325888L179.9061680018902,129.68857099481542L179.92833758513132,129.83557840586508L180.41606841643653,130.10940218289466L180.50474674940108,130.30734106857955L180.8151209147771,130.54360819141678L181.08115591367084,130.78577046297508L181.103325496912,130.939421494971L181.25851257960002,131.09003077915318L181.56888674497606,131.29693269703847L181.70190424442293,131.47089581427014L181.85709132711094,131.63330537197368L181.9014304935932,131.74731262706368L182.10095674276351,131.8901428715394L182.14529590924582,131.99235673699368L182.16746549248694,132.06194057882925L182.5886875740687,132.26014014043722L182.65519632379213,132.40369371363684L182.85472257296246,132.56361332937797L183.14292715509734,132.76584653926486L183.6749971528848,133.08245593315795L184.0297104847431,133.40191792823035L184.2735759003957,133.6823046036844L184.67262839873632,133.99513257270735L184.89432423114775,134.2628561390208L184.91649381438893,134.43148127319202L185.04951131383578,134.5805537141086L185.2046983965238,134.72577897440064L185.2933767294884,134.84474070301124L185.3155463127295,134.92406854123297L185.33771589597066,134.9796141757643L185.82544672727585,135.18725908397192L185.847616310517,135.319744485153L185.93629464348157,135.43080524794547L185.98063380996385,135.51321338046313L186.18016005913415,135.63352003143024L186.26883839209876,135.7371398779115L186.91175630609195,136.0261479716594L186.9339258893331,136.20734098619565L187.1334521385034,136.38604739936434L187.19996088822683,136.5165600091154L187.35514797091486,136.64912950208415L187.57684380332628,136.80599474779547L187.59901338656744,136.9078338183255L187.64335255304974,136.9843696290217L187.75420046925544,137.06883277778564L187.88721796870232,137.16568438800968L187.9758963016669,137.2545320330889L188.0202354681492,137.3231944713163L188.3749488000075,137.48689465397015L188.50796629945438,137.63090057217943L188.5301358826955,137.72492683443897L188.70749254862469,137.8422410916254L189.12871463020642,138.05666383782852L189.5055975453059,138.3134715740876L190.08200670957567,138.66223493535975L190.591907124122,139.0423660049012L190.88011170625688,139.36646370230602L190.9466204559803,139.58302210788185L191.6338775364558,139.94004945270947L191.65604711969695,140.1615530033902L192.01076045155526,140.41070919315214L192.0329300347964,140.56744798800867L192.25462586720784,140.733806539276L192.3211346169313,140.85526811382204L192.36547378341356,140.9425632464499L192.60933919906617,141.0740669673317L192.74235669851305,141.19600316762342L192.80886544823647,141.29064868881622L192.89754378120102,141.37604523829447L193.29659627954166,141.5555344682879L193.3187658627828,141.67032913908642L193.40744419574736,141.7675861698331L193.47395294547078,141.8471998544466L193.51829211195312,141.90912826803483L193.82866627732915,142.0451253826349L193.9173446102937,142.15487300171037L194.1612100259463,142.29792454310262L194.22771877566973,142.40475788375193L194.67111044049264,142.6082885419188L194.8484671064218,142.785895227796L195.07016293883322,142.96158895877372L195.09233252207437,143.07390349406722L195.33619793772695,143.21701177097975L195.8460983522733,143.46019108490788L195.95694626847904,143.64011671678807L196.3338291835785,143.86324888061458L197.30929084618887,144.29172984790077L197.33146042943002,144.5554545336208L197.42013876239457,144.74020899613944L197.50881709535915,144.87753879458822L197.9078695936998,145.07855980252367L198.04088709314664,145.23852214246358L198.99417917251586,145.61369782362473L199.17153583844504,145.8901997490662L199.34889250437416,146.10732543102247L199.37106208761531,146.2439915792999L199.7479450027148,146.43422208510177L200.03614958484968,146.6305964044131L200.12482791781426,146.77363202711504L200.36869333346684,146.928558349881L200.6347283323606,147.0965242403067L200.70123708208402,147.21599460666934L200.74557624856632,147.30012367187294L200.8342545815309,147.37546161890359L201.01161124746005,147.47025407357756L202.34178624192873,147.893412743768L202.4748037413756,148.1833856637679L202.49697332461676,148.36337270988707L202.8738562397162,148.57299002772356L203.02904332240422,148.74037032724056L203.53894373695056,148.97654539550828L203.62762206991513,149.14170604736515L203.8714874855677,149.3050720368294L203.93799623529114,149.42055983767028L204.31487915039062,149.5883574844364L204.44789664983747,149.72360607322878L204.73610123197236,149.87930403473044L205.17949289679527,150.08646805955385L205.37901914596557,150.26157738375545L205.73373247782388,150.45639654847858L205.77807164430618,150.58445524931213L205.97759789347649,150.71139986534217L206.1771241426468,150.83744141362385L206.35448080857594,150.95720235531724L206.79787247339885,151.13858386884763L206.84221163988113,151.25830096249302L206.90872038960458,151.3464422318964L206.95305955608686,151.4101857351162L207.08607705553374,151.48093935923282L207.35211205442747,151.5880897050936L207.3742816376686,151.65775273232163L207.52946872035662,151.73707569370535L207.59597747008004,151.80070754301482L207.7068253862858,151.86555819707672L207.8620124689738,151.94168480677462L207.90635163545608,151.99796760482664L209.03700038075445,152.29821156845364L209.28086579640706,152.5348202247571L209.3473745461305,152.6921215098766L209.4582224623362,152.81200261055L209.81293579419452,152.96503065686613L209.90161412715912,153.07700256903823L209.92378371040027,153.1492173601319L209.96812287688255,153.20259970771914L210.189818709294,153.28471654568048L210.27849704225858,153.35393749465132L210.36717537522316,153.4153727717074L210.56670162439346,153.49683895071595L210.5888712076346,153.55065963324202L210.69971912384034,153.60761205139198L210.78839745680492,153.66145720146054L210.81056704004607,153.69867512162688L211.14311078866322,153.79430588460866L211.8303678691387,154.00100886420591L212.09640286803247,154.18204885989732L212.25158995072044,154.32373046724928L212.3624378669262,154.43226047355526L212.67281203230223,154.56283027362392L212.87233828147254,154.68293115168413L213.2048820300897,154.82403727240202L213.4487474457423,154.9588942322502L213.6039345284303,155.0715555286676L213.62610411167145,155.14367522429453L213.82563036084173,155.22751472815133L214.66807452400525,155.44633923884479L214.7345832737287,155.5907472521038L214.77892244021098,155.68611868581198L214.8454311899344,155.75640835013442L214.86760077317555,155.802931440676L214.95627910614016,155.84821161675126L215.66570576985677,156.0125118786666L215.97607993523278,156.17008018417025L216.57465868274372,156.3766465148609L216.70767618219057,156.52516920680415L216.79635451515514,156.63060832347878L217.19540701349575,156.76671215160056L217.30625492970148,156.86842624535115L217.63879867831866,156.98913501644802L217.7053074280421,157.07341076767656L217.77181617776552,157.13579819776334L218.23737742582958,157.25518391625891L218.48124284148219,157.36918332102627L218.76944742361707,157.48715699363902L218.7916170068582,157.56173222252767L219.01331283926964,157.64421235146753L219.07982158899307,157.70495853318263L219.16849992195765,157.75637241472498L219.54538283705713,157.8502550982203L219.5897220035394,157.91393961992156L219.65623075326283,157.96315863108825L220.1217920013269,158.06893923408992L220.16613116780917,158.1395954247665L220.27697908401487,158.1999025108073L220.52084449966748,158.27521286380454L220.69820116559666,158.3486093001152L220.7868794985612,158.40667486694963L221.1637624136607,158.50055540124998L221.29677991310754,158.57749857581868L221.518475745519,158.6577637286261L221.5628149120013,158.71270380858428L221.69583241144818,158.7659328883874L221.80668032765388,158.8146685767427L221.9175282438596,158.86062714252745L221.98403699358306,158.89819371232173L222.31658074220022,158.9702514833965L222.33875032544137,159.01676131804328L222.93732907295225,159.131865474857L223.11468573888143,159.22630771856387L223.3363815712929,159.314403896523L223.58024698694547,159.40145759576973L224.0458082350095,159.51787283443585L224.422691150109,159.63861981669828L224.4448607333501,159.71403249765547L225.15428739706675,159.85240465811032L225.1764569803079,159.9382836669478L225.30947447975475,160.0068766450893L226.46229280829428,160.19095067481658L226.5066319747766,160.30671323074424L226.66181905746458,160.39467979170482L226.728327807188,160.45534229415236L226.88351488987604,160.5100165429799L227.48209363738695,160.6117918494536L227.947654885451,160.72482390976037L228.16935071786244,160.81687271208096L228.52406404972075,160.9101752399744L228.56840321620305,160.97085581239827L228.61274238268533,161.01194983323802L228.72359029889108,161.0482619602505L229.43301696260772,161.14266561024596L229.54386487881342,161.2103443739278L229.78773029446603,161.27493705886002L229.80989987770715,161.31585300276248L229.8320694609483,161.3425595720766L229.89857821067173,161.36503448433976L230.25329154253006,161.4124140326317L230.85187029004098,161.49608830841242L230.9183790397644,161.5522800439326L231.36177070458731,161.62513479860198L231.49478820403417,161.68032676063663L231.51695778727532,161.71534329257136L232.09336695154508,161.78460506794906L232.24855403423308,161.83876309193155L232.4037411169211,161.88369330128234L233.13533736387888,161.96704362958906L233.20184611360233,162.02199766430022L233.62306819518406,162.08557289341704L233.6452377784252,162.12529480111172L233.84476402759552,162.16316642936513L233.99995111028355,162.19661830825717L234.06645986000697,162.22123665631122L234.22164694269497,162.24649902919055L234.28815569241843,162.26610184664543L234.70937777400016,162.3053079268447L234.77588652372359,162.33305277989064L235.0197519393762,162.36491578727782L235.26361735502877,162.39883826065596L235.48531318744023,162.43229335281376L235.52965235392253,162.45494589378106L235.55182193716365,162.46982207130867L235.6183306868871,162.48258126026965L236.1504006846746,162.519801522065L236.2612486008803,162.5480460416996L236.28341818412144,162.56616500531933L236.37209651708602,162.58169128786005L236.79331859866778,162.61237298036892L236.81548818190893,162.6318724151496L237.01501443107924,162.65323236414707L237.19237109700836,162.67440322943767L237.45840609590212,162.69922850608327L238.2786806758245,162.74840636791754L238.34518942554791,162.78048774369404L238.54471567471822,162.8072759509041L238.56688525795937,162.8241694938723L238.69990275740622,162.83915750345915L238.74424192388852,162.8497402459638L238.94376817305883,162.86307530779544L239.7197035864989,162.89560737194253L239.83055150270462,162.91828877886266L240.34045191725096,162.9453410168311L240.40696066697438,162.9631922770527L240.47346941669784,162.97549212649176L240.67299566586811,162.98745432014852L241.29374399662018,163.0071127691054L241.82581399440767,163.02746728657044L242.04750982681912,163.04266364145627L243.26683690508207,163.06206203497845L243.39985440452895,163.07419497882842L243.48853273749353,163.08160376061306L243.55504148721695,163.08604902968386L243.79890690286953,163.08871619112634L243.86541565259296,163.09031648799183" fill="none"></path></g></g></g></g><g opacity="0.2"><g><g><g><path style="fill: none;" stroke="rgb(0, 119, 187)" stroke-width="2px" d="M22.590805322726567,157.13507107414412L22.723822822173435,155.25321362936603L23.078536154031752,150.23492769416316L23.122875320514044,149.60764187923712L23.18938407023748,148.66671374105343L23.43324948589007,145.21664234316563L23.765793234507242,140.51200048383643L23.83230198423068,139.57107000883136L24.275693649053572,133.29821419639248L24.541728647947313,129.5344993068363L24.985120312770206,123.26164115757601L25.628038226763408,114.16599859376466L25.69454697648684,113.22507279240233L25.894073225657145,110.40228604102985L26.248786557515462,105.38399952162163L26.29312572399775,104.75671253828492L27.26858738660812,90.95642694673371L27.37943530281385,89.38821416203467L27.711979051431022,84.6835711342948L27.84499655087789,82.80171018428464L27.95584446708361,81.2334973995856L28.111031549771628,79.03799763154986L28.244049049218496,77.1561460288252L29.019984462658567,66.17864718864645L29.064323629140855,65.55136020530973L29.24168029507001,63.042212271962875L29.707241543134053,56.45571296785562L29.88459820906321,53.94657438179425L30.32798987388611,47.6737138957126L31.525147368907927,30.737002734763287L31.547316952149075,30.423354569452176L31.924199867248532,25.091429232018353L31.99070861697197,24.15050343065603L32.057217366695404,23.209568282008203L32.389761115312574,18.50492992791108L32.45626986503601,17.564004126548753L32.47843944827716,17.250355961237645L32.7001352806886,14.11393039183958L33.12135736227035,8.15471807106902L33.58691861033439,6.273819891466474L33.96380152543386,6.277250345248901L34.07464944163958,6.278727216359584L34.67322818915049,6.290420670533457L34.894924021561934,6.296337502261728L35.027941521008806,6.3002914040327544L35.18312860369682,6.305310896351976L35.205298186937966,6.306058679192837L35.936894433895745,6.335624143263153L35.98123360037804,6.337708587932027L36.24726859927178,6.3509817333571945L36.402455681959786,6.359291470176196L36.42462526520093,6.360515964578099L36.468964431683226,6.362983647952923L36.53547318140666,6.366750604013724L36.57981234788895,6.369302412958142L36.84584734678269,6.385351702180009L37.06754317919413,6.399662396296854L38.02083525856336,6.47096349017238L38.19819192449252,6.485975230702549L38.37554859042167,6.501529113792336L38.57507483959198,6.519681542254097L38.863279421726865,6.54713451979898L38.95195775469144,6.555864884465968L39.151484003861746,6.576026979312509L39.24016233682632,6.585206013684001L39.28450150330861,6.589842267297313L39.32884066979091,6.594525257338161L39.484027752478916,6.611154078261683L39.594875668684644,6.623286854854541L39.63921483516693,6.628203527033171L39.75006275137265,6.6406447640478845L39.79440191785495,6.645673603652646L39.883080250819525,6.6558434502882795L39.9717585837841,6.6661535062065616L40.10477608323097,6.681866293150016L40.12694566647212,6.684520922235065L40.63684608101845,6.747802045142407L40.725524413983024,6.7592711644640175L41.4571206609408,6.859072131861644L41.612307743628826,6.881440186088709L41.74532524307569,6.900938623664003L42.055699408451716,6.947628314789881L42.1443777414163,6.961275351635499L42.29956482410431,6.985475473822659L42.343903990586604,6.992476590670164L42.52126065651576,7.02078017119652L42.83163482189178,7.071638751660167L42.85380440513293,7.075330929436895L43.075500237544375,7.112757460621687L43.14200898726781,7.124151801659223L43.34153523643811,7.158792841761816L43.51889190236727,7.190152984650189L43.71841815153758,7.226093297438779L43.74058773477872,7.230131324779399L43.873605234225586,7.254518392676765L43.89577481746674,7.25861250373046L44.00662273367246,7.279213920996007L44.40567523201307,7.355123226628307L44.4721839817365,7.368041175204063L44.671710230906804,7.407243690635894L45.33679772814115,7.542891497966997L45.62500231027604,7.604032092492389L45.758019809722896,7.6327282590102135L45.82452855944633,7.647188509695247L45.868867725928624,7.656872297484319L45.9575460588932,7.6763426932030745L46.09056355834007,7.705795989847239L46.20141147454579,7.730575643736074L46.42310730695724,7.7807612196429545L46.556124806404114,7.811280106835354L46.666972722609835,7.8369384055622L46.88866855502128,7.8888906184306L47.819791051149366,8.11625399119255L47.90846938411395,8.138678129132693L47.930638967355094,8.144305195010126L47.95280855059624,8.149941608173059L48.35186104893684,8.2528178325037L48.64006563107172,8.328792569134556L48.92827021320661,8.406188093163058L49.50467937747637,8.56519476698535L49.77071437637011,8.64047780448842L50.01457979202271,8.710545056676544L50.08108854174614,8.729828506685093L50.14759729146957,8.74918673497772L50.59098895629247,8.880151552267954L50.72400645573934,8.920083155969627L50.87919353842735,8.967053265660823L51.01221103787422,9.007639179348224L51.36692436973254,9.117310880245126L51.43343311945597,9.138108590506398L51.67729853510857,9.21500870840282L51.743807284832,9.236152268228004L51.810316034555434,9.25737995362278L51.83248561779658,9.264465196039877L52.89662561337153,9.614474301987563L52.963134363094966,9.636973218211779L53.0296431128184,9.659556260005608L53.05181269605954,9.66709951941273L53.539543527364735,9.835107629181827L53.80557852625847,9.928412233149508L54.02727435866992,10.00706964072193L54.1159526916345,10.038766285888677L54.670192272663115,10.239798355367036L54.69236185590427,10.247949188332349L54.93622727155685,10.338103757082939L55.11358393748601,10.404291885784112L55.20226227045059,10.43757756948767L55.246601436932885,10.454271821409748L55.95602810064952,10.725763729067658L56.044706433614095,10.76028325445864L56.59894601464271,10.97896299898116L56.95365934650103,11.121565186732212L56.97582892974218,11.13054792810798L57.308372678359355,11.2662237772956L57.39705101132393,11.302706232643827L57.751764343182245,11.449935326722652L57.773933926423396,11.459198486663757L58.261664757728575,11.665165922891745L58.3725126739343,11.71250992400337L58.48336059014002,11.76005956539624L58.549869339863456,11.78868095362997L58.660717256069184,11.836548402730195L58.727226005792616,11.86536608395965L58.99326100468635,11.981347202576252L59.17061767061552,12.05930356373539L59.32580475330353,12.127931333954848L59.48099183599154,12.196942342880256L59.68051808516184,12.286246308649373L59.76919641812642,12.32614987049449L59.813535584608715,12.346143714201844L59.857874751091,12.366174947051256L59.924383500814436,12.39627320639567L60.07957058350245,12.466789128288296L60.27909683267276,12.558018634872603L60.5007926650842,12.660128381791345L60.58947099804878,12.701191007039789L60.63381016453107,12.721773729734336L60.7003189142545,12.752703897489203L60.81116683046023,12.804413080934323L60.87767558018366,12.835530194399396L60.89984516342481,12.845915028601773L61.343236828247704,13.055331613183206L61.54276307741801,13.150599147108132L61.67578057686488,13.214459801717148L61.83096765955289,13.289312864086732L61.85313724279404,13.3000342005675L62.052663491964346,13.396918814885758L62.207850574652355,13.472706605806428L62.673411822716396,13.702350716232978L62.76209015568097,13.746479251128939L62.98378598809242,13.857347404571208L63.072464321057005,13.901915261886153L63.27199057022731,14.002641610549325L63.56019515236219,14.149235089213441L63.62670390208562,14.183249861186823L63.75972140153249,14.251485045414851L63.80406056801478,14.274292422060924L64.5578263982137,14.666719509656104L64.69084389766057,14.736898929270339L65.06772681276004,14.937211257764375L65.28942264517148,15.056080687603789L65.35593139489492,15.091890138395229L65.4002705613772,15.115800494731573L65.7993230597178,15.33234905815766L66.10969722509384,15.502488349023189L66.15403639157613,15.526912806062612L66.55308888991674,15.748106970387532L66.64176722288131,15.797591499881108L66.81912388881047,15.89692510300317L67.19600680390994,16.109603890227845L67.3290243033568,16.185186040867272L67.86109430114428,16.490206661652024L68.14929888327916,16.65721461187146L68.2158076330026,16.69594041574225L68.23797721624375,16.708858364318004L68.28231638272602,16.734722303326095L68.32665554920833,16.7606236314762L68.4153338821729,16.812501066060506L68.50401221513748,16.864500015356462L68.6591992978255,16.955785605653844L68.99174304644268,17.152611396652375L69.7455088766416,17.60489850065801L69.83418720960617,17.658664086915486L69.98937429229419,17.753043628716902L70.18890054146448,17.874913537205238L70.45493554035822,18.03832278250308L70.67663137276968,18.175307251662197L70.72097053925195,18.202788271063618L70.76530970573425,18.230297332321577L70.87615762193998,18.29920552110635L70.9426663716634,18.340642037775226L71.12002303759256,18.45144476021892L71.20870137055715,18.507014372579953L71.65209303538003,18.78662907134666L71.76294095158576,18.856986089385618L71.78511053482691,18.87108179593574L71.82944970130922,18.899282556321484L71.89595845103264,18.941653801541424L71.98463678399722,18.998232920737617L72.00680636723837,19.012403405571817L72.16199344992637,19.111755703264915L72.22850219964981,19.15443540890671L72.33935011585552,19.22572715549672L72.7605721974373,19.49824726456081L72.98226802984873,19.642718909413993L73.1152855292956,19.729742137518492L73.24830302874247,19.81701774233179L73.33698136170705,19.875344803918484L73.60301636060079,20.051008340520816L73.62518594384193,20.06569292605811L74.17942552487055,20.435097649440475L74.37895177404086,20.569165765520264L75.15488718748092,21.095903998618514L75.17705677072207,21.11108399028787L75.22139593720436,21.141453320912102L76.19685759981473,21.81663579520558L76.3742142657439,21.940823830500573L76.5294013484319,22.04985991598273L76.57374051491419,22.081070502302914L76.61807968139648,22.112309130479634L76.72892759760221,22.19052721563307L77.28316717863082,22.584197492201174L77.30533676187198,22.600031793856278L77.52703259428343,22.758748701827752L77.57137176076571,22.79057620899165L77.68221967697143,22.87026181797025L77.99259384234747,23.09426951523387L78.12561134179434,23.1906774179911L78.32513759096463,23.335747289116977L78.65768133958181,23.57873932325279L78.74635967254638,23.64378708312167L78.79069883902868,23.676353025840907L79.3449384200573,24.085661311068392L79.61097341895103,24.283608776328215L79.83266925136247,24.449289412005154L79.96568675080934,24.54901560111867L80.34256966590881,24.832845925650698L80.47558716535568,24.933478801458758L80.49775674859683,24.950275873521466L80.80813091397286,25.18607984509957L80.94114841341973,25.287535282032565L81.05199632962544,25.372249730615927L81.56189674417178,25.764059897367414L81.71708382685979,25.883976223184025L81.8279317430655,25.96983104059968L82.11613632520039,26.193792001435757L82.27132340788842,26.314839348799158L82.60386715650559,26.575273417697925L82.86990215539932,26.784643265851805L82.93641090512277,26.83712827399432L83.24678507049879,27.082821673642737L84.02272048393885,27.702434535575183L84.04489006718,27.72025046175855L84.06705965042114,27.738075735227437L84.46611214876175,28.059930817216934L84.79865589737892,28.329684129769845L85.86279589295387,29.202169106622918L86.06232214212417,29.367316947025742L86.26184839129448,29.532960193560626L86.39486589074134,29.643660095863705L86.86042713880539,30.03281563353015L86.90476630528768,30.070017829862678L86.92693588852882,30.088628275314463L87.96890630086263,30.969955784260634L88.14626296679178,31.121260294822136L88.65616338133812,31.55836740715841L88.85568963050842,31.730245293128924L88.944367963473,31.806780866890435L89.03304629643758,31.883419260792557L89.29908129533132,32.11387658505856L89.36559004505474,32.171614767658085L89.54294671098391,32.32584497858441L89.60945546070734,32.38377945417966L90.14152545849481,32.84908732690168L90.2302037914594,32.926959562491206L90.27454295794169,32.965928395785255L90.89529128869374,33.513856925136245L91.40519170324008,33.967228314261114L91.73773545185725,34.26448134078648L91.9150921177864,34.42352540375083L92.02594003399213,34.52311138358169L92.13678795019786,34.622828225409705L92.26980544964472,34.74266977294222L92.62451878150304,35.06321623496022L93.02357127984365,35.425479632212415L93.04574086308479,35.445660421629995L93.2009279457728,35.58705680955016L93.26743669549624,35.64773003980003L93.79950669328372,36.13488251876052L93.86601544300716,36.195995071429394L94.02120252569516,36.33876551031963L94.0877112754186,36.400036966842194L94.10988085865975,36.42047013296855L94.15422002514204,36.46134581250679L94.17638960838318,36.48179767320417L94.73062918941179,36.994739312888655L94.9301554385821,37.18018945742069L95.46222543636958,37.67680138931801L95.63958210229873,37.84299612569803L95.94995626767476,38.13462208634596L95.97212585091592,38.15549457489133L96.34900876601537,38.511037273861334L96.99192668000856,39.12091961157715L97.03626584649086,39.16314130022892L97.2579616789023,39.37452081476762L97.63484459400176,39.734998880487275L97.74569251020749,39.841296211314805L98.23342334151269,40.3104364710962L98.41078000744184,40.48162265793893L98.65464542309444,40.71750140780112L98.69898458957672,40.76045218472274L98.85417167226473,40.910934134159284L98.9871891717116,41.04009492534596L99.14237625439961,41.191006849916015L99.27539375384649,41.32054153252312L99.34190250356993,41.38537430482524L99.71878541866938,41.75357322837672L99.98482041756313,42.01428771584083L100.05132916728655,42.07956915784747L100.20651624997457,42.23206077366882L100.56122958183289,42.58147165334381L100.60556874831516,42.62523564410486L100.73858624776204,42.75662108924308L100.82726458072662,42.84430797461883L101.18197791258494,43.19576590982068L101.5588608276844,43.570470544087605L102.00225249250731,44.01296169287804L102.4013049908479,44.412726399599116L102.4456441573302,44.457228825915486L102.48998332381248,44.501759294088416L102.55649207353592,44.5685736909188L102.62300082325935,44.635434824176755L102.99988373835882,45.01504678333677L103.24374915401141,45.26133840925788L103.55412331938743,45.575566106270664L104.21921081662178,46.251711350971746L104.26354998310407,46.29692417098694L104.79561998089156,46.84076793656973L104.88429831385612,46.93164224630465L104.92863748033842,46.97710744302862L105.06165497978529,47.11359650605568L105.12816372950871,47.18188777399676L105.172502895991,47.22743709629035L105.3720291451613,47.43262870782096L105.52721622784932,47.592448595482686L105.8154208099842,47.88977640029215L105.99277747591336,48.07309536372773L106.28098205804825,48.37151680094195L106.32532122453054,48.4174867510835L106.39182997425397,48.48647906543789L106.74654330611229,48.85500514398225L106.85739122231801,48.97037868904066L106.9017303888003,49.016554279463456L107.12342622121176,49.24767526100071L107.21210455417634,49.34023208212753L107.85502246816952,50.01308708232885L107.96587038437525,50.129423397794866L108.12105746706327,50.29244940438676L109.09651912967365,51.321379898832205L109.2738757956028,51.50922294845497L109.42906287829081,51.67377256258512L109.5177412112554,51.76788103310672L109.76160662690799,52.02697844017745L109.89462412635486,52.16848699552375L110.02764162580173,52.3101264128672L110.5153724571069,52.83054588096023L110.7592378727595,53.091391230421465L110.87008578896523,53.21009240912169L111.06961203813552,53.42397699617723L111.09178162137667,53.447756490516426L111.3578166202704,53.733409535723034L111.601682035923,53.995685019867416L111.66819078564644,54.06728522687928L111.88988661805789,54.306164455390395L112.9318570303917,55.43332557326765L113.04270494659741,55.55365317964673L113.06487452983856,55.57773178712226L113.28657036225002,55.818658071160236L114.90494993885358,57.58686537664594L115.14881535450618,57.85470249566916L115.17098493774732,57.87906152171001L115.21532410422961,57.92780761564824L115.25966327071191,57.976563056871996L115.32617202043534,58.049714913278635L115.34834160367647,58.07410198117602L115.9025811847051,58.684778838160234L116.01342910091083,58.80713480549513L116.07993785063427,58.88057642775261L116.25729451656342,59.07655161576969L116.50115993221601,59.346314275608115L116.7006861813863,59.56727475779525L116.76719493110974,59.64097810404703L116.7893645143509,59.66555211765462L117.12190826296806,60.034480129475945L117.47662159482638,60.42866450674715L117.60963909427325,60.57666942552337L117.69831742723784,60.67538610780172L117.89784367640813,60.89764586267486L117.94218284289043,60.94707430845538L118.14170909206072,61.16959578732279L118.23038742502531,61.26856484630994L118.4742528406779,61.540935398805864L119.05066200494767,62.18592614089982L119.25018825411796,62.40957864131404L119.58273200273514,62.78277836261375L119.73791908542316,62.95712393195908L119.87093658487002,63.106652458273544L119.9596149178346,63.206387994672575L119.98178450107575,63.2313265524151L120.4030065826575,63.70561716651289L120.46951533238092,63.7805823963086L121.26762032906214,64.68174484510845L121.400637828509,64.83221744725948L121.73318157712619,65.20873545491548L121.77752074360848,65.25897711453544L122.15440365870793,65.68634435536957L122.17657324194909,65.71150724796433L122.59779532353083,66.18991066768682L122.61996490677197,66.21511094942365L122.68647365649541,66.29072114191959L122.88599990566571,66.51765453954805L123.1298653213183,66.79525022464446L123.68410490234692,67.42700521045528L123.75061365207037,67.50289582151655L123.99447906772296,67.78130472045237L124.06098781744639,67.85727945708324L124.10532698392869,67.90793239726564L124.14966615041097,67.95859468473358L124.41570114930471,68.2627273133948L124.79258406440418,68.69402041414342L125.25814531246822,69.22748869280939L125.41333239515622,69.40547035621839L125.59068906108538,69.60898880364257L125.67936739404996,69.71079009013948L125.83455447673796,69.88899608840073L125.85672405997913,69.91446744141734L125.87889364322027,69.93992944714847L126.10058947563171,70.19468036645672L126.67699863990148,70.8577768005849L126.78784655610721,70.98541398423332L127.14255988796552,71.39410534861712L127.38642530361811,71.67529973863512L127.4751036365827,71.77759643126409L127.49727321982384,71.80317060442131L127.67462988575299,72.00783876796332L127.80764738519986,72.1613959743329L127.87415613492331,72.23819327208872L128.0736823840936,72.46865994364022L128.1623607170582,72.57112488740837L128.3175477997462,72.75048060178743L128.33971738298735,72.77611085865774L128.4727348824342,72.9299110944506L128.60575238188108,73.08375806667101L128.65009154836335,73.13504662226813L128.7166002980868,73.21199347659211L129.49253571152687,74.11052933816346L129.7585707104206,74.41892432901759L130.17979279200236,74.90755367908876L130.22413195848463,74.9590104858251L130.6896932065487,75.49956400690813L131.13308487137158,76.01479573154273L131.66515486915907,76.63356733777923L131.7316636188825,76.71094416723669L132.01986820101737,77.0463621605022L132.19722486694653,77.25284369743328L132.39675111611683,77.48519852065793L132.46325986584029,77.56265947568501L132.50759903232256,77.61430322813156L132.5297686155637,77.64012977799759L133.50523027817408,78.77714293480311L133.63824777762093,78.9322891797095L133.7047565273444,79.00987164944819L133.8599436100324,79.19091922250469L134.14814819216727,79.52723455517922L134.19248735864957,79.5789811277664L134.2146569418907,79.60485441405999L134.36984402457873,79.7860048072571L134.76889652291936,80.2519109062518L135.27879693746564,80.84747320256525L135.3896448536714,80.9769704960303L135.83303651849428,81.49506249003117L135.87737568497658,81.54688384090242L136.01039318442344,81.70234789351618L136.5868023486932,82.37613762226857L136.69765026489895,82.50573773587423L137.07453317999838,82.94640616399009L137.47358567833902,83.41306004582565L137.65094234426815,83.6204763113078L138.16084275881448,84.21683312688964L138.2495210917791,84.32055060691624L138.33819942474366,84.42426808694282L138.3603690079848,84.45019745694945L138.93677817225455,85.1243797716933L139.44667858680089,85.72073658727514L140.08959650079407,86.47258082368454L140.33346191644668,86.75772444183082L140.68817524830501,87.17242611079797L140.99854941368105,87.53523632425252L141.02071899692217,87.56114699968815L141.46411066174505,88.07933246654414L141.99618065953254,88.70095499486139L142.35089399139088,89.11523136233781L142.7721160729726,89.60702009491159L142.83862482269606,89.6846539747206L142.94947273890176,89.8140344271168L143.76974731882413,90.77097680220166L143.92493440151216,90.95192155511755L144.01361273447674,91.0553072065085L144.1466302339236,91.21035997855978L144.27964773337047,91.36538470875453L144.39049564957617,91.49455484722671L144.45700439929962,91.57204851775307L144.50134356578192,91.62370629112789L145.03341356356938,92.24335654220239L145.21077022949854,92.44980068999142L145.58765314459802,92.8883192424398L145.69850106080372,93.01724635148872L145.742840227286,93.06881065200842L146.00887522617975,93.3781170031998L146.05321439266206,93.42965793550576L146.1862318921089,93.58424801692425L146.45226689100267,93.89332535962063L146.5631148072084,94.02206552295935L146.78481063961982,94.27946639770988L147.00650647203128,94.53676445231982L147.6272548027833,95.25661293042612L147.67159396926564,95.30799963252112L147.7602723022302,95.41075434214011L148.09281605084738,95.79591391525074L149.00176896373432,96.84725452670806L149.06827771345775,96.92409856089142L149.46733021179833,97.3848963683545L149.86638271013896,97.84524083247037L150.24326562523842,98.27958582193821L150.30977437496185,98.35619150034107L150.42062229116758,98.483838031275L150.5314702073733,98.61144249942416L150.9305227057139,99.07051105906778L150.95269228895506,99.09600110665542L151.3295752040545,99.52907019165107L151.39608395377797,99.60544218791615L151.55127103646595,99.78359677610709L152.14984978397686,100.46999131937064L152.19418895045916,100.52078446883573L152.34937603314717,100.69850908189316L152.7484285314878,101.15512397909025L152.94795478065808,101.38321176647928L153.14748102982838,101.61115467094292L153.36917686223984,101.86424644707304L153.61304227789245,102.1424310111566L153.701720610857,102.24353125124019L153.72389019409815,102.26880163761835L154.1451122756799,102.74856976102538L154.25596019188563,102.87470670534935L154.3002993583679,102.92514933160778L154.3889776913325,103.0260065422681L154.5885039405028,103.25281842518494L154.9875564388434,103.70595145852927L155.4309481036663,104.20863912600853L155.54179601987204,104.33417784405981L155.74132226904234,104.56001293564077L155.8743397684892,104.71047151686355L155.89650935173034,104.73554093660321L155.98518768469495,104.83579057370535L156.05169643441837,104.91095677013952L156.53942726572356,105.46156797043207L156.93847976406414,105.91125185542299L157.02715809702875,106.01108086467711L157.13800601323445,106.13581104253174L157.49271934509275,106.53456156877489L157.53705851157505,106.58436390597583L157.7587543439865,106.83322136176962L157.8917718434334,106.98242273309123L157.93611100991566,107.0321362710798L158.0691285093625,107.18121612768975L158.11346767584484,107.23089227653632L158.15780684232712,107.2805544044546L158.42384184122088,107.57833555261132L158.46818100770315,107.62793224953103L158.51252017418543,107.67751492552246L159.02242058873176,108.24701231618936L159.22194683790207,108.46949173227198L159.2884555876255,108.54360635908623L159.6431689194838,108.93847308819969L159.8870343351364,109.20955371529513L159.93137350161868,109.25880456265095L160.0643910010656,109.40649634736256L160.35259558320047,109.72616416454255L160.46344349940617,109.848987496153L160.6186305820942,110.02082799298147L160.75164808154105,110.16801035063274L161.03985266367593,110.48656584083697L161.61626182794572,111.12223266563402L162.12616224249206,111.68292491334985L162.21484057545663,111.78028156558642L162.23701015869776,111.80461254977072L162.3921972413858,111.97484531349137L162.76908015648524,112.38765883078536L163.01294557213782,112.65430884454875L163.25681098779043,112.9205849668917L163.41199807047843,113.08984093927646L163.5450155699253,113.2347986429762L164.0770855677128,113.81348908894286L165.29641264597575,115.13267616670892L165.38509097894033,115.22822879284193L165.6732955610752,115.53840911522857L166.0058393096924,115.89559693644847L166.18319597562154,116.08578615473441L166.2053655588627,116.10954228085981L166.29404389182727,116.20453874350494L166.51573972423873,116.4417915443372L166.73743555665018,116.67869849560557L166.7596051398913,116.7023704961614L166.78177472313246,116.72603782307445L166.9591313890616,116.91525492366729L167.4025230538845,117.38730218924252L167.93459305167198,117.95187356044528L168.08978013436,118.11614742965284L168.15628888408344,118.1864951004063L168.3779847164949,118.42074742258963L168.5775109656652,118.63126231321858L168.64401971538862,118.70136695454872L168.86571554780008,118.93480606289263L168.97656346400578,119.05138540778191L169.774668460687,119.88796746098845L169.9741947098573,120.09633714959269L170.0185338763396,120.14259686558508L170.10721220930415,120.23507423478507L170.24022970875106,120.37367578433752L170.30673845847448,120.44292047540071L170.46192554116251,120.60436211709853L170.63928220709164,120.78862515637073L170.7057909568151,120.8576595335099L170.88314762274425,121.04158139686095L170.97182595570882,121.13344184521723L171.0605042886734,121.2252415362177L171.57040470321974,121.75184890731877L171.6590830361843,121.843213949543L171.81427011887234,122.00294503799236L171.9029484518369,122.0941324817919L172.1468138674895,122.3445556079087L172.41284886638323,122.6171785371134L172.76756219824154,122.97974104750197L173.32180177927017,123.54410210478072L173.65434552788736,123.88144096521867L173.9647196932634,124.19542563280818L174.14207635919252,124.37446353947988L174.3194330251217,124.55322570122904L174.45245052456858,124.68711388206275L174.47462010780973,124.70941183164847L175.0510292720795,125.28765127108923L175.3614034374555,125.59777083612008L175.9156430184841,126.14936817503398L176.29252593358356,126.52283896761351L176.5585609324773,126.78567061524578L176.62506968220077,126.85127453860252L176.75808718164762,126.98235853378301L177.15713967998823,127.37460802295351L177.20147884647054,127.41809860561337L177.60053134481112,127.80866792021331L177.68920967777572,127.89525416272018L178.15477092583973,128.34858582588163L178.24344925880433,128.43469769364881L178.39863634149233,128.5852076849419L178.68684092362722,128.86410030590292L178.8198584230741,128.992546029748L179.13023258845013,129.29157270369905L179.39626758734386,129.54711814227574L179.728811335961,129.86555912823243L179.9061680018902,130.03493895215024L179.92833758513132,130.05608952243955L180.41606841643653,130.520137848439L180.50474674940108,130.6042493971069L180.8151209147771,130.89800887567267L181.08115591367084,131.14901387031253L181.103325496912,131.16989804296477L181.25851257960002,131.31594470542652L181.56888674497606,131.60728557386636L181.70190424442293,131.73184049011766L181.85709132711094,131.87691970852904L181.9014304935932,131.91832350969864L182.10095674276351,132.104388238253L182.14529590924582,132.14567753517508L182.16746549248694,132.16631634158267L182.5886875740687,132.55743948284913L182.65519632379213,132.6190240734363L182.85472257296246,132.8034927529897L183.14292715509734,133.0691963540951L183.6749971528848,133.55737002399766L184.0297104847431,133.88111092083892L184.2735759003957,134.1028846168655L184.67262839873632,134.4643745262417L184.89432423114775,134.66444148849106L184.91649381438893,134.6844189744488L185.04951131383578,134.80416237548343L185.2046983965238,134.94361686483876L185.2933767294884,135.0231832959271L185.3155463127295,135.0430602985656L185.33771589597066,135.0629326275613L185.82544672727585,135.49872644628334L185.847616310517,135.51847258692464L185.93629464348157,135.59739639213416L185.98063380996385,135.6368255792396L186.18016005913415,135.8139800078809L186.26883839209876,135.8925696476334L186.91175630609195,136.45966011228128L186.9339258893331,136.47913050800003L187.1334521385034,136.65410701911736L187.19996088822683,136.71232892374204L187.35514797091486,136.84798374153726L187.57684380332628,137.04129261636243L187.59901338656744,137.0605924241206L187.64335255304974,137.09917334506596L187.75420046925544,137.19552750093152L187.88721796870232,137.31096180334575L187.9758963016669,137.38780350070772L188.0202354681492,137.42618812865737L188.3749488000075,137.7324449279509L188.50796629945438,137.8469094494934L188.5301358826955,137.86596622782832L188.70749254862469,138.01821247740503L189.12871463020642,138.3782979571332L189.5055975453059,138.69868317847616L190.08200670957567,139.185379977268L190.591907124122,139.6125626092133L190.88011170625688,139.85261024841327L190.9466204559803,139.90785971624555L191.6338775364558,140.47559046995093L191.65604711969695,140.49380832941128L192.01076045155526,140.78444347779507L192.0329300347964,140.8025561802934L192.25462586720784,140.983344366177L192.3211346169313,141.0374604756411L192.36547378341356,141.0735059453917L192.60933919906617,141.27132254865438L192.74235669851305,141.37890746806102L192.80886544823647,141.4326169706054L192.89754378120102,141.50414006251182L193.29659627954166,141.82476831327804L193.3187658627828,141.84252114528422L193.40744419574736,141.91347171595308L193.47395294547078,141.96662038136685L193.51829211195312,142.0020208884172L193.82866627732915,142.24912105453498L193.9173446102937,142.31949443032357L194.1612100259463,142.512501855191L194.22771877566973,142.5650078947259L194.67111044049264,142.91358452916907L194.8484671064218,143.05230525661182L195.07016293883322,143.22512955524027L195.09233252207437,143.2423752970075L195.33619793772695,143.43167418634857L195.8460983522733,143.82496005580003L195.95694626847904,143.91000516460835L196.3338291835785,144.1979471263544L197.30929084618887,144.93445129883003L197.33146042943002,144.95104156220083L197.42013876239457,145.01734068991743L197.50881709535915,145.08353349226135L197.9078695936998,145.38009131442686L198.04088709314664,145.47846565237342L198.99417917251586,146.17646134536642L199.17153583844504,146.30495263722838L199.34889250437416,146.43301395395687L199.37106208761531,146.448990801716L199.7479450027148,146.71956784380458L200.03614958484968,146.92515788338008L200.12482791781426,146.98818546116794L200.36869333346684,147.1609478340299L200.6347283323606,147.34847307594532L200.70123708208402,147.39520015621326L200.74557624856632,147.42631726967832L200.8342545815309,147.48846853944957L201.01161124746005,147.61244275558852L202.34178624192873,148.52815074905368L202.4748037413756,148.61834504376768L202.49697332461676,148.63335327906577L202.8738562397162,148.88741600447833L203.02904332240422,148.99144077651607L203.53894373695056,149.33080799790986L203.62762206991513,149.38944702515047L203.8714874855677,149.55012102102575L203.93799623529114,149.59379153893167L204.31487915039062,149.84005395458556L204.44789664983747,149.92647895641736L204.73610123197236,150.11285097698288L205.17949289679527,150.397214096789L205.37901914596557,150.5242413700579L205.73373247782388,150.7486252955633L205.77807164430618,150.77654330056237L205.97759789347649,150.90181678938728L206.1771241426468,151.0265037360464L206.35448080857594,151.1368437678573L206.79787247339885,151.41065613914324L206.84221163988113,151.43787660296107L206.90872038960458,151.47865413600144L206.95305955608686,151.50580098994584L207.08607705553374,151.58706979540784L207.35211205442747,151.74881522388478L207.3742816376686,151.7622472731636L207.52946872035662,151.85606013578095L207.59597747008004,151.89615531697905L207.7068253862858,151.96283417816952L207.8620124689738,152.05587472132154L207.90635163545608,152.08239180190466L209.03700038075445,152.7485775138941L209.28086579640706,152.88973320921238L209.3473745461305,152.92807343755584L209.4582224623362,152.9918242615601L209.81293579419452,153.19457272634034L209.90161412715912,153.2449604372964L209.92378371040027,153.25753954677242L209.96812287688255,153.28267322909997L210.189818709294,153.40789180262252L210.27849704225858,153.45776891810752L210.36717537522316,153.5075256872916L210.56670162439346,153.61903821922877L210.5888712076346,153.63139065703115L210.69971912384034,153.69304067861688L210.78839745680492,153.74222492656344L210.81056704004607,153.75450200187638L211.14311078866322,153.9377520290813L211.8303678691387,154.31106333360182L212.09640286803247,154.45360885343445L212.25158995072044,154.5362528782772L212.3624378669262,154.59505548301422L212.67281203230223,154.75868497372693L212.87233828147254,154.8630824687744L213.2048820300897,155.0356964534789L213.4487474457423,155.16117967202246L213.6039345284303,155.2405474732937L213.62610411167145,155.25185476773493L213.82563036084173,155.35327398393656L214.66807452400525,155.77457600488495L214.7345832737287,155.8073592719923L214.77892244021098,155.82917583637425L214.8454311899344,155.86184284661806L214.86760077317555,155.8727160764884L214.95627910614016,155.91613188086413L215.66570576985677,156.25896227153962L215.97607993523278,156.4064326424257L216.57465868274372,156.68649601089692L216.70767618219057,156.74795324471899L216.79635451515514,156.78876699849073L217.19540701349575,156.9708678937832L217.30625492970148,157.02099738597704L217.63879867831866,157.17019817309327L217.7053074280421,157.1998243945194L217.77181617776552,157.2293793428935L218.23737742582958,157.43426249400227L218.48124284148219,157.5401824281773L218.76944742361707,157.66411750255816L218.7916170068582,157.67359506586067L219.01331283926964,157.76793254487728L219.07982158899307,157.7960778057553L219.16849992195765,157.83349323703854L219.54538283705713,157.9910791234632L219.5897220035394,158.00946640247344L219.65623075326283,158.03698714783826L220.1217920013269,158.22761013859247L220.16613116780917,158.2455797107814L220.27697908401487,158.29036313986848L220.52084449966748,158.3881783933004L220.69820116559666,158.4587039545812L220.7868794985612,158.49377321720127L221.1637624136607,158.64137620270054L221.29677991310754,158.6929133376717L221.518475745519,158.7781614578372L221.5628149120013,158.79511392852152L221.69583241144818,158.84577650809211L221.80668032765388,158.8877721092756L221.9175282438596,158.9295649912046L221.98403699358306,158.9545435670132L222.31658074220022,159.0783381400087L222.33875032544137,159.0865260700134L222.93732907295225,159.3045217100776L223.11468573888143,159.36797108412418L223.3363815712929,159.44654816346173L223.58024698694547,159.5320381446398L224.0458082350095,159.692495692435L224.422691150109,159.81974029009197L224.4448607333501,159.82715151909125L225.15428739706675,160.05996289879258L225.1764569803079,160.06710218020405L225.30947447975475,160.10976611230154L226.46229280829428,160.46706171940747L226.5066319747766,160.48035706463574L226.66181905746458,160.52662963314572L226.728327807188,160.54633604782362L226.88351488987604,160.59202791622124L227.48209363738695,160.76445480916416L227.947654885451,160.89437200022053L228.16935071786244,160.95494591556186L228.52406404972075,161.05012903181452L228.56840321620305,161.06187667103407L228.61274238268533,161.07359086449767L228.72359029889108,161.10273015076922L229.43301696260772,161.28427108523908L229.54386487881342,161.3118625194506L229.78773029446603,161.37182608625835L229.80989987770715,161.37722691861617L229.8320694609483,161.3826194260478L229.89857821067173,161.39874685273446L230.25329154253006,161.48348335506958L230.85187029004098,161.62159972208352L230.9183790397644,161.63656764721284L231.36177070458731,161.73441693060607L231.49478820403417,161.76311470368861L231.51695778727532,161.76786809047346L232.09336695154508,161.8884977310156L232.24855403423308,161.92000012790533L232.4037411169211,161.95108861530852L233.13533736387888,162.09206912204914L233.20184611360233,162.10442871636698L233.62306819518406,162.18093573709226L233.6452377784252,162.18487766265372L233.84476402759552,162.2199738717453L233.99995111028355,162.24679612659523L234.06645986000697,162.25816417839226L234.22164694269497,162.28439258850958L234.28815569241843,162.29550607282778L234.70937777400016,162.3641170471436L234.77588652372359,162.37467005945948L235.0197519393762,162.4127102983586L235.26361735502877,162.44972197072317L235.48531318744023,162.48247599105048L235.52965235392253,162.48892470523202L235.55182193716365,162.4921363376001L235.6183306868871,162.50172004371112L236.1504006846746,162.575631914758L236.2612486008803,162.59041282115146L236.28341818412144,162.5933434507489L236.37209651708602,162.6049807116712L236.79331859866778,162.6583955191322L236.81548818190893,162.66112156732058L237.01501443107924,162.6852722876433L237.19237109700836,162.70615952737361L237.45840609590212,162.73646642105166L238.2786806758245,162.82217316066894L238.34518942554791,162.82860980735882L238.54471567471822,162.8474582617192L238.56688525795937,162.8495098083246L238.69990275740622,162.86163951783942L238.74424192388852,162.86561435972075L238.94376817305883,162.88307790054296L239.7197035864989,162.9444054681632L239.83055150270462,162.9523108892428L240.34045191725096,162.9859193737838L240.40696066697438,162.98996916738517L240.47346941669784,162.99394190065033L240.67299566586811,163.00539761063365L241.29374399662018,163.0366004425407L241.82581399440767,163.05799906276798L242.04750982681912,163.06545817378498L243.26683690508207,163.09115962526178L243.39985440452895,163.0923943946034L243.48853273749353,163.09271693329003L243.55504148721695,163.09271693329003L243.79890690286953,163.09271693329003L243.86541565259296,163.09271693329003" fill="none"></path></g></g></g></g></g></g><g transform="translate(63, 175)" clip-path="url(#clip_1)"><clipPath id="clip_1"><rect width="266" height="24"></rect></clipPath><g><g><line x1="0" y1="0" x2="0" y2="5" style="visibility: inherit;" fill="rgb(0, 0, 0)" stroke="rgb(204, 204, 204)" stroke-width="1px"></line><line x1="22.169583241144814" y1="0" x2="22.169583241144814" y2="5" style="visibility: inherit;" fill="rgb(0, 0, 0)" stroke="rgb(204, 204, 204)" stroke-width="1px"></line><line x1="44.33916648228963" y1="0" x2="44.33916648228963" y2="5" style="visibility: inherit;" fill="rgb(0, 0, 0)" stroke="rgb(204, 204, 204)" stroke-width="1px"></line><line x1="66.50874972343445" y1="0" x2="66.50874972343445" y2="5" style="visibility: inherit;" fill="rgb(0, 0, 0)" stroke="rgb(204, 204, 204)" stroke-width="1px"></line><line x1="88.67833296457925" y1="0" x2="88.67833296457925" y2="5" style="visibility: inherit;" fill="rgb(0, 0, 0)" stroke="rgb(204, 204, 204)" stroke-width="1px"></line><line x1="110.84791620572409" y1="0" x2="110.84791620572409" y2="5" style="visibility: inherit;" fill="rgb(0, 0, 0)" stroke="rgb(204, 204, 204)" stroke-width="1px"></line><line x1="133.0174994468689" y1="0" x2="133.0174994468689" y2="5" style="visibility: inherit;" fill="rgb(0, 0, 0)" stroke="rgb(204, 204, 204)" stroke-width="1px"></line><line x1="155.18708268801373" y1="0" x2="155.18708268801373" y2="5" style="visibility: inherit;" fill="rgb(0, 0, 0)" stroke="rgb(204, 204, 204)" stroke-width="1px"></line><line x1="177.3566659291585" y1="0" x2="177.3566659291585" y2="5" style="visibility: inherit;" fill="rgb(0, 0, 0)" stroke="rgb(204, 204, 204)" stroke-width="1px"></line><line x1="199.52624917030334" y1="0" x2="199.52624917030334" y2="5" style="visibility: inherit;" fill="rgb(0, 0, 0)" stroke="rgb(204, 204, 204)" stroke-width="1px"></line><line x1="221.69583241144818" y1="0" x2="221.69583241144818" y2="5" style="visibility: inherit;" fill="rgb(0, 0, 0)" stroke="rgb(204, 204, 204)" stroke-width="1px"></line><line x1="243.86541565259296" y1="0" x2="243.86541565259296" y2="5" style="visibility: inherit;" fill="rgb(0, 0, 0)" stroke="rgb(204, 204, 204)" stroke-width="1px"></line><line x1="266.0349988937378" y1="0" x2="266.0349988937378" y2="5" style="visibility: inherit;" fill="rgb(0, 0, 0)" stroke="rgb(204, 204, 204)" stroke-width="1px"></line></g><g transform="translate(0, 8)"><text style="text-anchor: middle; visibility: hidden; font-family: Roboto, sans-serif; font-size: 12px; font-weight: 200;" x="0" y="0" dx="0em" dy="0.95em" fill="rgb(33, 33, 33)" stroke="none" stroke-width="1px">-1k</text><text style="text-anchor: middle; visibility: inherit; font-family: Roboto, sans-serif; font-size: 12px; font-weight: 200;" x="22.169583241144814" y="0" dx="0em" dy="0.95em" fill="rgb(33, 33, 33)" stroke="none" stroke-width="1px">0</text><text style="text-anchor: middle; visibility: inherit; font-family: Roboto, sans-serif; font-size: 12px; font-weight: 200;" x="44.33916648228963" y="0" dx="0em" dy="0.95em" fill="rgb(33, 33, 33)" stroke="none" stroke-width="1px">1k</text><text style="text-anchor: middle; visibility: inherit; font-family: Roboto, sans-serif; font-size: 12px; font-weight: 200;" x="66.50874972343445" y="0" dx="0em" dy="0.95em" fill="rgb(33, 33, 33)" stroke="none" stroke-width="1px">2k</text><text style="text-anchor: middle; visibility: inherit; font-family: Roboto, sans-serif; font-size: 12px; font-weight: 200;" x="88.67833296457925" y="0" dx="0em" dy="0.95em" fill="rgb(33, 33, 33)" stroke="none" stroke-width="1px">3k</text><text style="text-anchor: middle; visibility: inherit; font-family: Roboto, sans-serif; font-size: 12px; font-weight: 200;" x="110.84791620572409" y="0" dx="0em" dy="0.95em" fill="rgb(33, 33, 33)" stroke="none" stroke-width="1px">4k</text><text style="text-anchor: middle; visibility: inherit; font-family: Roboto, sans-serif; font-size: 12px; font-weight: 200;" x="133.0174994468689" y="0" dx="0em" dy="0.95em" fill="rgb(33, 33, 33)" stroke="none" stroke-width="1px">5k</text><text style="text-anchor: middle; visibility: inherit; font-family: Roboto, sans-serif; font-size: 12px; font-weight: 200;" x="155.18708268801373" y="0" dx="0em" dy="0.95em" fill="rgb(33, 33, 33)" stroke="none" stroke-width="1px">6k</text><text style="text-anchor: middle; visibility: inherit; font-family: Roboto, sans-serif; font-size: 12px; font-weight: 200;" x="177.3566659291585" y="0" dx="0em" dy="0.95em" fill="rgb(33, 33, 33)" stroke="none" stroke-width="1px">7k</text><text style="text-anchor: middle; visibility: inherit; font-family: Roboto, sans-serif; font-size: 12px; font-weight: 200;" x="199.52624917030334" y="0" dx="0em" dy="0.95em" fill="rgb(33, 33, 33)" stroke="none" stroke-width="1px">8k</text><text style="text-anchor: middle; visibility: inherit; font-family: Roboto, sans-serif; font-size: 12px; font-weight: 200;" x="221.69583241144818" y="0" dx="0em" dy="0.95em" fill="rgb(33, 33, 33)" stroke="none" stroke-width="1px">9k</text><text style="text-anchor: middle; visibility: inherit; font-family: Roboto, sans-serif; font-size: 12px; font-weight: 200;" x="243.86541565259296" y="0" dx="0em" dy="0.95em" fill="rgb(33, 33, 33)" stroke="none" stroke-width="1px">10k</text><text style="text-anchor: middle; visibility: hidden; font-family: Roboto, sans-serif; font-size: 12px; font-weight: 200;" x="266.0349988937378" y="0" dx="0em" dy="0.95em" fill="rgb(33, 33, 33)" stroke="none" stroke-width="1px">11k</text></g><line x1="0" y1="0" x2="266.0349988937378" y2="0" fill="rgb(0, 0, 0)" stroke="rgb(204, 204, 204)" stroke-width="1px"></line></g></g></g></g></svg>