<svg viewBox="0 0 330 200" xmlns="http://www.w3.org/2000/svg"><g><g><g><g><g><line x1="53.172000885009766" y1="175.63999938964844" x2="48.172000885009766" y2="175.63999938964844" style="visibility: inherit;" fill="rgb(0, 0, 0)" stroke="rgb(204, 204, 204)" stroke-width="1px"></line><line x1="53.172000885009766" y1="163.09428514753068" x2="48.172000885009766" y2="163.09428514753068" style="visibility: inherit;" fill="rgb(0, 0, 0)" stroke="rgb(204, 204, 204)" stroke-width="1px"></line><line x1="53.172000885009766" y1="150.54857090541296" x2="48.172000885009766" y2="150.54857090541296" style="visibility: inherit;" fill="rgb(0, 0, 0)" stroke="rgb(204, 204, 204)" stroke-width="1px"></line><line x1="53.172000885009766" y1="138.0028566632952" x2="48.172000885009766" y2="138.0028566632952" style="visibility: inherit;" fill="rgb(0, 0, 0)" stroke="rgb(204, 204, 204)" stroke-width="1px"></line><line x1="53.172000885009766" y1="125.45714242117745" x2="48.172000885009766" y2="125.45714242117745" style="visibility: inherit;" fill="rgb(0, 0, 0)" stroke="rgb(204, 204, 204)" stroke-width="1px"></line><line x1="53.172000885009766" y1="112.91142817905971" x2="48.172000885009766" y2="112.91142817905971" style="visibility: inherit;" fill="rgb(0, 0, 0)" stroke="rgb(204, 204, 204)" stroke-width="1px"></line><line x1="53.172000885009766" y1="100.36571393694197" x2="48.172000885009766" y2="100.36571393694197" style="visibility: inherit;" fill="rgb(0, 0, 0)" stroke="rgb(204, 204, 204)" stroke-width="1px"></line><line x1="53.172000885009766" y1="87.81999969482422" x2="48.172000885009766" y2="87.81999969482422" style="visibility: inherit;" fill="rgb(0, 0, 0)" stroke="rgb(204, 204, 204)" stroke-width="1px"></line><line x1="53.172000885009766" y1="75.2742854527065" x2="48.172000885009766" y2="75.2742854527065" style="visibility: inherit;" fill="rgb(0, 0, 0)" stroke="rgb(204, 204, 204)" stroke-width="1px"></line><line x1="53.172000885009766" y1="62.72857121058874" x2="48.172000885009766" y2="62.72857121058874" style="visibility: inherit;" fill="rgb(0, 0, 0)" stroke="rgb(204, 204, 204)" stroke-width="1px"></line><line x1="53.172000885009766" y1="50.182856968471" x2="48.172000885009766" y2="50.182856968471" style="visibility: inherit;" fill="rgb(0, 0, 0)" stroke="rgb(204, 204, 204)" stroke-width="1px"></line><line x1="53.172000885009766" y1="37.63714272635324" x2="48.172000885009766" y2="37.63714272635324" style="visibility: inherit;" fill="rgb(0, 0, 0)" stroke="rgb(204, 204, 204)" stroke-width="1px"></line><line x1="53.172000885009766" y1="25.09142848423548" x2="48.172000885009766" y2="25.09142848423548" style="visibility: inherit;" fill="rgb(0, 0, 0)" stroke="rgb(204, 204, 204)" stroke-width="1px"></line><line x1="53.172000885009766" y1="12.545714242117759" x2="48.172000885009766" y2="12.545714242117759" style="visibility: inherit;" fill="rgb(0, 0, 0)" stroke="rgb(204, 204, 204)" stroke-width="1px"></line><line x1="53.172000885009766" y1="0" x2="48.172000885009766" y2="0" style="visibility: inherit;" fill="rgb(0, 0, 0)" stroke="rgb(204, 204, 204)" stroke-width="1px"></line></g><g transform="translate(43.172000885009766, 0)"><text style="text-anchor: end; visibility: hidden; font-family: Roboto, sans-serif; font-size: 12px; font-weight: 200;" x="0" y="175.63999938964844" dx="0em" dy="0.3em" fill="rgb(33, 33, 33)" stroke="none" stroke-width="1px">-0.2</text><text style="text-anchor: end; visibility: inherit; font-family: Roboto, sans-serif; font-size: 12px; font-weight: 200;" x="0" y="163.09428514753068" dx="0em" dy="0.3em" fill="rgb(33, 33, 33)" stroke="none" stroke-width="1px">0</text><text style="text-anchor: end; visibility: hidden; font-family: Roboto, sans-serif; font-size: 12px; font-weight: 200;" x="0" y="150.54857090541296" dx="0em" dy="0.3em" fill="rgb(33, 33, 33)" stroke="none" stroke-width="1px">0.2</text><text style="text-anchor: end; visibility: inherit; font-family: Roboto, sans-serif; font-size: 12px; font-weight: 200;" x="0" y="138.0028566632952" dx="0em" dy="0.3em" fill="rgb(33, 33, 33)" stroke="none" stroke-width="1px">0.4</text><text style="text-anchor: end; visibility: hidden; font-family: Roboto, sans-serif; font-size: 12px; font-weight: 200;" x="0" y="125.45714242117745" dx="0em" dy="0.3em" fill="rgb(33, 33, 33)" stroke="none" stroke-width="1px">0.6</text><text style="text-anchor: end; visibility: inherit; font-family: Roboto, sans-serif; font-size: 12px; font-weight: 200;" x="0" y="112.91142817905971" dx="0em" dy="0.3em" fill="rgb(33, 33, 33)" stroke="none" stroke-width="1px">0.8</text><text style="text-anchor: end; visibility: hidden; font-family: Roboto, sans-serif; font-size: 12px; font-weight: 200;" x="0" y="100.36571393694197" dx="0em" dy="0.3em" fill="rgb(33, 33, 33)" stroke="none" stroke-width="1px">1</text><text style="text-anchor: end; visibility: inherit; font-family: Roboto, sans-serif; font-size: 12px; font-weight: 200;" x="0" y="87.81999969482422" dx="0em" dy="0.3em" fill="rgb(33, 33, 33)" stroke="none" stroke-width="1px">1.2</text><text style="text-anchor: end; visibility: hidden; font-family: Roboto, sans-serif; font-size: 12px; font-weight: 200;" x="0" y="75.2742854527065" dx="0em" dy="0.3em" fill="rgb(33, 33, 33)" stroke="none" stroke-width="1px">1.4</text><text style="text-anchor: end; visibility: inherit; font-family: Roboto, sans-serif; font-size: 12px; font-weight: 200;" x="0" y="62.72857121058874" dx="0em" dy="0.3em" fill="rgb(33, 33, 33)" stroke="none" stroke-width="1px">1.6</text><text style="text-anchor: end; visibility: hidden; font-family: Roboto, sans-serif; font-size: 12px; font-weight: 200;" x="0" y="50.182856968471" dx="0em" dy="0.3em" fill="rgb(33, 33, 33)" stroke="none" stroke-width="1px">1.8</text><text style="text-anchor: end; visibility: inherit; font-family: Roboto, sans-serif; font-size: 12px; font-weight: 200;" x="0" y="37.63714272635324" dx="0em" dy="0.3em" fill="rgb(33, 33, 33)" stroke="none" stroke-width="1px">2</text><text style="text-anchor: end; visibility: hidden; font-family: Roboto, sans-serif; font-size: 12px; font-weight: 200;" x="0" y="25.09142848423548" dx="0em" dy="0.3em" fill="rgb(33, 33, 33)" stroke="none" stroke-width="1px">2.2</text><text style="text-anchor: end; visibility: inherit; font-family: Roboto, sans-serif; font-size: 12px; font-weight: 200;" x="0" y="12.545714242117759" dx="0em" dy="0.3em" fill="rgb(33, 33, 33)" stroke="none" stroke-width="1px">2.4</text><text style="text-anchor: end; visibility: hidden; font-family: Roboto, sans-serif; font-size: 12px; font-weight: 200;" x="0" y="0" dx="0em" dy="0.3em" fill="rgb(33, 33, 33)" stroke="none" stroke-width="1px">2.6</text></g><line x1="53.172000885009766" y1="0" x2="53.172000885009766" y2="175.63999938964844" fill="rgb(0, 0, 0)" stroke="rgb(204, 204, 204)" stroke-width="1px"></line></g></g><g transform="translate(53, 0)" clip-path="url(#clip_0)"><clipPath id="clip_0"><rect width="276" height="175"></rect></clipPath><g><g><g><line x1="0" y1="0" x2="0" y2="175.63999938964844" fill="rgb(0, 0, 0)" stroke="rgb(66, 66, 66)" stroke-width="1px" opacity="0.25"></line><line x1="23.068999926249184" y1="0" x2="23.068999926249184" y2="175.63999938964844" fill="rgb(0, 0, 0)" stroke="rgb(66, 66, 66)" stroke-width="1px" opacity="0.25"></line><line x1="46.13799985249837" y1="0" x2="46.13799985249837" y2="175.63999938964844" fill="rgb(0, 0, 0)" stroke="rgb(66, 66, 66)" stroke-width="1px" opacity="0.25"></line><line x1="69.20699977874756" y1="0" x2="69.20699977874756" y2="175.63999938964844" fill="rgb(0, 0, 0)" stroke="rgb(66, 66, 66)" stroke-width="1px" opacity="0.25"></line><line x1="92.27599970499674" y1="0" x2="92.27599970499674" y2="175.63999938964844" fill="rgb(0, 0, 0)" stroke="rgb(66, 66, 66)" stroke-width="1px" opacity="0.25"></line><line x1="115.34499963124594" y1="0" x2="115.34499963124594" y2="175.63999938964844" fill="rgb(0, 0, 0)" stroke="rgb(66, 66, 66)" stroke-width="1px" opacity="0.25"></line><line x1="138.41399955749512" y1="0" x2="138.41399955749512" y2="175.63999938964844" fill="rgb(0, 0, 0)" stroke="rgb(66, 66, 66)" stroke-width="1px" opacity="0.25"></line><line x1="161.48299948374432" y1="0" x2="161.48299948374432" y2="175.63999938964844" fill="rgb(0, 0, 0)" stroke="rgb(66, 66, 66)" stroke-width="1px" opacity="0.25"></line><line x1="184.55199940999347" y1="0" x2="184.55199940999347" y2="175.63999938964844" fill="rgb(0, 0, 0)" stroke="rgb(66, 66, 66)" stroke-width="1px" opacity="0.25"></line><line x1="207.62099933624268" y1="0" x2="207.62099933624268" y2="175.63999938964844" fill="rgb(0, 0, 0)" stroke="rgb(66, 66, 66)" stroke-width="1px" opacity="0.25"></line><line x1="230.68999926249188" y1="0" x2="230.68999926249188" y2="175.63999938964844" fill="rgb(0, 0, 0)" stroke="rgb(66, 66, 66)" stroke-width="1px" opacity="0.25"></line><line x1="253.75899918874103" y1="0" x2="253.75899918874103" y2="175.63999938964844" fill="rgb(0, 0, 0)" stroke="rgb(66, 66, 66)" stroke-width="1px" opacity="0.25"></line><line x1="276.82799911499023" y1="0" x2="276.82799911499023" y2="175.63999938964844" fill="rgb(0, 0, 0)" stroke="rgb(66, 66, 66)" stroke-width="1px" opacity="0.25"></line></g><g><line x1="0" y1="175.63999938964844" x2="276.82799911499023" y2="175.63999938964844" fill="rgb(0, 0, 0)" stroke="rgb(66, 66, 66)" stroke-width="1px" opacity="0.25"></line><line x1="0" y1="163.09428514753068" x2="276.82799911499023" y2="163.09428514753068" fill="rgb(0, 0, 0)" stroke="rgb(66, 66, 66)" stroke-width="1px" opacity="0.25"></line><line x1="0" y1="150.54857090541296" x2="276.82799911499023" y2="150.54857090541296" fill="rgb(0, 0, 0)" stroke="rgb(66, 66, 66)" stroke-width="1px" opacity="0.25"></line><line x1="0" y1="138.0028566632952" x2="276.82799911499023" y2="138.0028566632952" fill="rgb(0, 0, 0)" stroke="rgb(66, 66, 66)" stroke-width="1px" opacity="0.25"></line><line x1="0" y1="125.45714242117745" x2="276.82799911499023" y2="125.45714242117745" fill="rgb(0, 0, 0)" stroke="rgb(66, 66, 66)" stroke-width="1px" opacity="0.25"></line><line x1="0" y1="112.91142817905971" x2="276.82799911499023" y2="112.91142817905971" fill="rgb(0, 0, 0)" stroke="rgb(66, 66, 66)" stroke-width="1px" opacity="0.25"></line><line x1="0" y1="100.36571393694197" x2="276.82799911499023" y2="100.36571393694197" fill="rgb(0, 0, 0)" stroke="rgb(66, 66, 66)" stroke-width="1px" opacity="0.25"></line><line x1="0" y1="87.81999969482422" x2="276.82799911499023" y2="87.81999969482422" fill="rgb(0, 0, 0)" stroke="rgb(66, 66, 66)" stroke-width="1px" opacity="0.25"></line><line x1="0" y1="75.2742854527065" x2="276.82799911499023" y2="75.2742854527065" fill="rgb(0, 0, 0)" stroke="rgb(66, 66, 66)" stroke-width="1px" opacity="0.25"></line><line x1="0" y1="62.72857121058874" x2="276.82799911499023" y2="62.72857121058874" fill="rgb(0, 0, 0)" stroke="rgb(66, 66, 66)" stroke-width="1px" opacity="0.25"></line><line x1="0" y1="50.182856968471" x2="276.82799911499023" y2="50.182856968471" fill="rgb(0, 0, 0)" stroke="rgb(66, 66, 66)" stroke-width="1px" opacity="0.25"></line><line x1="0" y1="37.63714272635324" x2="276.82799911499023" y2="37.63714272635324" fill="rgb(0, 0, 0)" stroke="rgb(66, 66, 66)" stroke-width="1px" opacity="0.25"></line><line x1="0" y1="25.09142848423548" x2="276.82799911499023" y2="25.09142848423548" fill="rgb(0, 0, 0)" stroke="rgb(66, 66, 66)" stroke-width="1px" opacity="0.25"></line><line x1="0" y1="12.545714242117759" x2="276.82799911499023" y2="12.545714242117759" fill="rgb(0, 0, 0)" stroke="rgb(66, 66, 66)" stroke-width="1px" opacity="0.25"></line><line x1="0" y1="0" x2="276.82799911499023" y2="0" fill="rgb(0, 0, 0)" stroke="rgb(66, 66, 66)" stroke-width="1px" opacity="0.25"></line></g></g></g><g><g><line x1="0" y1="163.09428514753068" x2="276.82799911499023" y2="163.09428514753068" fill="rgb(0, 0, 0)" stroke="rgb(153, 153, 153)" stroke-width="1.5px"></line></g></g><g><g><line x1="23.068999926249184" y1="0" x2="23.068999926249184" y2="175.63999938964844" fill="rgb(0, 0, 0)" stroke="rgb(153, 153, 153)" stroke-width="1.5px"></line></g></g><g><g><g><g><g><path style="fill: none;" stroke="rgb(0, 119, 187)" stroke-width="2px" d="M36.07991588465372,-13.374895226408613L36.31060588391622,2.3203357676086624L36.44901988347371,3.205092679354722L36.61050288295746,14.52725484375941L36.63357188288371,12.187479494643863L37.39484888044993,19.197535200939782L37.44098688030243,20.676948989889905L37.717814879417425,15.505079595503915L37.87929787890116,20.167545169173106L37.90236687882741,27.009692165615583L37.94850487867991,29.683293283153056L38.01771187845866,34.48877810026614L38.06384987831116,30.439966516969754L38.34067787742615,27.140188553085306L38.57136787668864,30.94412891789647L39.563334873517356,38.0453134439819L39.74788687292735,37.82746299181073L39.932438872337336,35.41358625723312L40.14005987167358,35.169968284417685L40.43995687071482,41.80238314818903L40.53223287041982,51.02723556417592L40.73985386975606,55.43809181192021L40.832129869461056,54.21746753700474L40.87826786931356,52.43402137547514L40.92440586916606,54.76842350282563L41.0858888686498,54.98612018310513L41.20123386828105,53.50175458100969L41.24737186813354,49.159022655127615L41.36271686776479,56.05474816907823L41.40885486761729,57.49235241524937L41.50113086732229,61.82103798688311L41.593406867027284,66.91558079875902L41.731820866584776,67.28646195394072L41.75488986651103,64.21427141476812L42.285476864814754,65.07869670478865L42.37775286451975,62.83786569268971L43.13902986208598,70.75644626597467L43.30051286156972,68.6387605469881L43.43892686112722,70.60269874937121L43.761892860094704,75.28952715031267L43.85416885979971,75.6090187095361L44.015651859283444,75.2364187665728L44.06178985913595,67.09602802429853L44.24634185854594,73.16026760203637L44.56930785751343,73.26257620558947L44.592376857439675,72.57324721813019L44.82306685670216,76.49573742437362L44.89227385648091,82.0141835373307L45.099894855817155,91.3205911582657L45.28444685522715,89.1541152550693L45.492067854563395,88.87236297115777L45.51513685448964,85.99134850980161L45.65355085404714,86.43611981069975L45.67661985397339,82.72488555861922L45.79196485360463,91.98979652154489L46.20720685227712,97.40869832886496L46.27641385205587,102.07582563924184L46.48403485139211,102.72935508141603L47.17610484917959,93.28133253901977L47.47600184822083,85.63467527535965L47.61441584777832,88.62942624941678L47.68362284755706,82.04810592038633L47.729760847409565,87.33744686794147L47.82203684711456,89.7385139924559L47.96045084667205,88.77065939976245L48.0757958463033,95.16979953878865L48.306485845565796,99.7305291456031L48.44489984512329,97.14505027169137L48.560244844754536,101.2477071312098L48.79093484401702,106.40103232538793L49.75983284091949,107.14507307328832L49.852108840624496,108.51356760516728L49.87517784055074,113.456670669071L49.898246840476986,106.30781840507595L50.31348883914947,96.9994245124366L50.61338583819071,104.21322391946879L50.913282837231954,98.07281897580371L51.51307683531443,92.73980457946031L51.78990483442942,96.1842797908972L52.04366383361816,102.86291857986383L52.11287083339691,106.52150343962538L52.18207783317566,111.56019133290565L52.643457831700644,100.07193025924194L52.781871831258144,101.21115438143896L52.94335483074188,94.40011011057213L53.08176883029938,94.41169245170096L53.45087282911936,105.32135156962033L53.52007982889811,100.16286197983517L53.77383882808685,106.61140356387172L53.8430458278656,115.31596754734746L53.91225282764435,107.53268050753573L53.9353218275706,111.93642491983763L55.04263382403056,117.03260770229399L55.11184082380931,119.20253761857927L55.18104782358805,118.17045594284659L55.2041168235143,107.76523013643502L55.711634821891785,108.39280714604186L55.98846282100678,108.44205179349514L56.219152820269265,109.25593304808307L56.31142881997426,111.78684558628804L56.88815381813049,114.50860561146034L56.91122281805674,113.76414291556117L57.16498181724548,121.77167077074455L57.34953381665547,120.5548366523575L57.44180981636047,118.95832507059706L57.48794781621297,123.63779143765294L58.22615581385295,127.88862035358382L58.31843181355794,130.45426479236673L58.89515681171417,128.65034428548748L59.264260810534154,133.6201036077984L59.28732981046041,127.22865084763583L59.63336480935415,125.67722083889856L59.72564080905914,121.6927646828426L60.094744807879124,126.91144542607117L60.11781380780538,124.43288271611786L60.625331806182864,120.06399341842345L60.74067680581411,124.28159455365561L60.85602180544535,127.56184043519703L60.9252288052241,131.3873250019748L61.04057380485535,130.04167903670668L61.10978080463409,127.62288524039332L61.386608803749084,120.00393198480971L61.57116080315908,120.43245146687417L61.732643802642826,118.29869203470402L61.894126802126564,124.36014437786527L62.10174780146281,128.00224428138532L62.1940238011678,129.92573237109625L62.24016180102031,133.6742009597733L62.286299800872804,137.3242323274018L62.355506800651554,137.56161666488742L62.51698980013529,136.7457844947427L62.724610799471535,135.55405130020304L62.95530079873403,133.57877595291768L63.04757679843903,132.97792227412785L63.09371479829152,127.02096739231885L63.16292179807027,129.14952998189904L63.27826679770152,128.35863520455496L63.34747379748026,130.74592907499053L63.370542797406515,132.2518034771138L63.8319227959315,130.18418947700096L64.03954379526775,128.76923811844586L64.17795779482523,124.70904849417241L64.33944079430898,131.31577091560135L64.36250979423524,131.1565537130352L64.57013079357148,129.0454315754668L64.73161379305522,127.87774081200409L65.21606279150645,132.78097506971733L65.30833879121144,137.89471628469727L65.53902879047394,132.84206329105095L65.63130479017893,134.4932192540771L65.83892578951517,130.59834243718808L66.13882278855641,128.42906327771163L66.20802978833517,132.26682179707757L66.34644378789265,136.93425340009145L66.39258178774516,135.58041376292402L67.17692778523764,139.94008718563845L67.31534178479512,143.71636645659586L67.70751478354137,143.89804529491929L67.93820478280385,139.0784577696772L68.00741178258261,133.59220987442694L68.0535497824351,140.00287769248024L68.46879178110758,140.07765316644694L68.79175778007507,137.65228663208387L68.83789577992758,136.30267757764565L69.25313777860005,137.9883292898058L69.34541377830506,137.25802041775881L69.52996577771505,133.0046470404885L69.92213877646128,135.65753855771516L70.06055277601878,134.82948408862077L70.61420877424875,135.83430703233006L70.91410577328999,142.1762486519731L70.98331277306875,142.43729385839538L71.006381772995,144.7870543914846L71.05251977284749,141.19289151464199L71.0986577727,139.24839321505019L71.19093377240499,139.16752277831836L71.28320977210998,142.64404882806969L71.44469277159372,144.38737223607978L71.79072777048748,143.80967249609245L72.57507376797994,143.19254669611777L72.66734976768494,141.57398834649965L72.82883276716868,135.287493258677L73.03645376650492,138.05167288702324L73.3132817656199,138.12381619865303L73.5439717648824,143.35676295926635L73.59010976473489,142.7523165265834L73.63624776458741,142.48319929149596L73.75159276421866,143.97127807474232L73.8207997639974,136.47165682330825L74.00535176340739,129.8065083622645L74.09762776311238,136.17159374368472L74.55900776163736,137.8712010755702L74.67435276126861,137.55396564882915L74.69742176119486,134.00637855048197L74.74355976104736,135.9650278317052L74.81276676082611,134.6265304252483L74.90504276053112,138.8330027178808L74.92811176045736,144.13665215021553L75.0895947599411,145.60865647031827L75.15880175971985,143.08980607225337L75.27414675935108,144.18570950407667L75.71245775794984,141.72045059713295L75.94314775721232,140.82963882762598L76.08156175676982,139.74432894308532L76.2199757563273,143.06020875251204L76.31225175603231,145.94625049493777L76.5890797551473,146.14640431779674L76.61214875507355,143.3699448218035L77.18887375322977,145.79999280349486L77.39649475256603,149.22320686280202L78.20390974998473,147.16563380695834L78.226978749911,144.67693252182107L78.27311674976349,146.55792329013457L79.28815274651845,147.98741360175725L79.47270474592845,151.26774472521922L79.63418774541219,150.60006272564712L79.68032574526468,152.85774375572788L79.72646374511719,149.51013833164927L79.84180874474843,148.81634481478153L80.41853374290466,145.175676952996L80.44160274283092,145.02820080083734L80.6722927420934,146.21435582874986L80.71843074194591,150.27026531958091L80.83377574157714,148.44701232554206L81.15674174054465,148.15414533086988L81.29515574010213,147.90852837636618L81.50277673943837,148.60925162592258L81.84881173833212,147.2942191940747L81.94108773803711,142.93640911811696L81.98722573788962,145.70420413838923L82.56395073604584,146.61965871814468L82.84077873516084,148.5899581541315L83.07146873442332,147.9735346333228L83.2098827339808,148.16323744725528L83.60205573272705,150.07999347622982L83.74046973228454,152.12901367810218L83.76353873221079,151.26835481224774L84.0865047311783,150.4961340094845L84.22491873073578,151.52005186434621L84.34026373036701,151.2711261722039L84.87085072867075,151.92670813586574L85.0323337281545,147.73106357630394L85.14767872778575,149.81111753329606L85.44757572682698,148.8171773053535L85.60905872631074,150.94514757891633L85.95509372520446,150.81413582007227L86.23192172431946,152.54631183407844L86.30112872409822,154.37015530553083L86.6240947230657,152.88169124324185L87.43150972048443,150.93653618915005L87.45457872041067,148.47557544508314L87.47764772033692,149.47602666784374L87.8928897190094,150.46869794280448L88.23892471790313,151.28746303654293L89.34623671436309,152.1111085744147L89.55385771369934,151.94421997224558L89.76147871303557,154.2125483761782L89.89989271259307,154.5923825441833L90.38434171104431,155.11305498283792L90.4304797108968,148.84105704668346L90.45354871082306,149.76305877192266L91.53779170735677,150.13880196553723L91.72234370676676,153.00456739429856L92.2529307050705,154.13813580461414L92.46055170440674,148.07024860135172L92.55282770411173,149.37654844135452L92.64510370381673,152.0553416738627L92.92193170293173,154.46840447362206L92.99113870271046,150.822728306388L93.17569070212046,150.93949877601906L93.2448977018992,153.59927062772124L93.79855370012919,153.49968869480338L93.89082969983419,152.5907693055032L93.93696769968668,153.863092307897L94.58289969762167,154.1282832694421L95.1134866959254,154.55054561919738L95.45952169481913,152.32242455638098L95.64407369422912,153.78426978376504L95.75941869386037,151.50331649764576L95.87476369349162,153.07008530720367L96.01317769304912,154.23139459762783L96.38228169186911,153.88173884665258L96.7975236905416,155.89831625701365L96.82059269046783,157.16388578206443L96.98207568995157,156.17242259388158L97.05128268973033,153.6233069514696L97.60493868796031,155.55912307317172L97.67414568773906,157.73699918348308L97.8356286872228,157.97542433643628L97.90483568700155,157.7255524477839L97.9279046869278,157.2379186191369L97.9740426867803,158.1555859651648L97.99711168670653,153.77205196926033L98.57383668486277,154.27935318785975L98.78145768419901,153.87312485874898L99.335113682429,152.72460651742438L99.51966568183899,152.75211076467772L99.84263168080649,156.13705795115695L99.86570068073273,157.44061900903714L100.25787367947898,156.7434736811977L100.92687467734018,157.58690551621186L100.9730126771927,157.00151274723385L101.20370267645518,154.76545753302707L101.59587567520141,157.17465527612978L101.71122067483266,157.51447230218963L102.21873867321015,153.07866312119393L102.40329067262014,156.02936560262864L102.65704967180888,156.24841886306353L102.70318767166138,155.5816614327331L102.86467067114512,157.2175265193094L103.00308467070262,157.76566653027197L103.16456767018636,158.88243846702525L103.30298166974384,158.27348189355337L103.3721886695226,156.8973448391434L103.76436166826885,156.47876754958432L104.04118966738383,154.55386781655722L104.11039666716258,156.52170501372777L104.27187966664631,156.72922479615323L104.64098366546631,156.15296244526104L104.6871216653188,157.88878120863146L104.8255356648763,158.3930413447326L104.9178116645813,158.72721966716736L105.28691566340129,158.32788517700797L105.67908866214752,159.05896643296938L106.14046866067251,158.37442143053113L106.555710659345,158.3745921267239L106.60184865919749,158.57842648386483L106.64798665904998,158.70510611446542L106.71719365882873,158.76014007970548L106.78640065860748,159.27414634661292L107.17857365735372,158.38129978668243L107.43233265654246,158.80377087168213L107.75529865550995,156.14987383743772L108.44736865329742,154.21527840176316L108.49350665314994,154.68327591941872L109.0471626513799,156.4358905286965L109.1394386510849,158.05267544122043L109.1855766509374,156.00859527834197L109.3239906504949,157.60656484636328L109.39319765027363,158.7278846654643L109.43933565012614,158.5151461345217L109.64695664946238,159.42114229895046L109.80843964894612,159.98068871003744L110.10833664798736,160.3779381465725L110.29288864739735,160.08712077672814L110.5927856464386,159.90049832601153L110.6389236462911,159.76942947295746L110.70813064606983,159.39161520215578L111.07723464488983,157.93474609705285L111.19257964452108,158.439332795595L111.23871764437357,158.68386543386265L111.46940764363607,158.63223711385217L111.56168364334107,155.5051041539935L112.23068464120229,156.5560173174738L112.34602964083354,156.9986503787865L112.50751264031727,157.5948339829102L113.52254863707225,158.2455793027959L113.70710063648224,159.38056694918438L113.86858363596598,159.6527675958416L113.96085963567099,159.94786526718275L114.21461863485973,160.65101601871123L114.35303263441722,159.75826834182885L114.49144663397472,155.61007484926625L114.99896463235218,158.0094211666605L115.25272363154093,158.98470965329062L115.36806863117218,159.95869392893692L115.57568963050842,159.32048946084046L115.59875863043466,158.51940661537645L115.87558662954966,157.72233110342458L116.12934562873839,159.11082695111295L116.19855262851715,159.54161729134597L116.42924262777963,159.4520793436146L117.51348562431335,159.61512984714557L117.6288306239446,158.22922738322785L117.65189962387085,159.21201047372412L117.88258962313334,159.77656678909463L119.56662661774953,160.12366378160905L119.82038561693828,160.67434669560203L119.84345461686452,158.81939997630684L119.88959261671701,159.2554311971158L119.93573061656953,160.15731954472943L120.00493761634827,160.5200734433087L120.02800661627451,160.6858954581909L120.60473161443073,159.98651730257802L120.720076614062,160.1961167673448L120.78928361384074,159.8744031942372L120.97383561325073,160.40281200617866L121.22759461243947,161.00769984670814L121.43521561177572,159.08279992282408L121.50442261155446,160.34036295192277L121.52749161148071,160.54387454961272L121.87352661037444,160.26927373775905L122.24263060919444,160.71824554831878L122.38104460875194,160.30264758790602L122.47332060845693,160.51543057183218L122.68094160779317,160.38902169965357L122.72707960764568,160.98588181997954L122.9347006069819,161.17095496053852L123.02697660668692,160.434108819548L123.28073560587566,160.3601854767398L123.88052960395814,157.37590827657664L124.08815060329437,159.1036662049642L124.43418560218811,158.48539976576922L124.59566860167186,158.2510867474587L124.73408260122935,159.485139159422L124.82635860093436,160.06602365967518L124.8494276008606,160.55580754733322L125.28773859945933,160.26359560057955L125.35694559923807,160.2989756902921L126.18742959658304,160.6191134835289L126.32584359614054,161.2176789472343L126.67187859503429,160.89363185752697L126.71801659488678,160.58551668284173L127.11018959363301,160.91020475257733L127.13325859355926,160.97373085661548L127.571569592158,160.6066439354986L127.59463859208424,160.8951234051189L127.663845591863,159.4328638543058L127.87146659119924,160.22756252049513L128.12522559038797,159.99999421317423L128.7019505885442,160.95902089552425L128.77115758832295,161.31895580151348L129.0249165875117,161.5017869741258L129.09412358729045,159.20265580357838L129.14026158714296,160.43801217462618L129.18639958699544,161.218972150812L129.46322758611043,161.1015376443277L129.85540058485668,161.12690082479565L130.3398495833079,161.26556870670748L130.50133258279163,160.8137996092442L130.68588458220165,160.3496905325711L130.77816058190663,159.91032614826617L130.93964358139038,159.81312210221844L130.96271258131662,160.77667782906312L130.9857815812429,161.3218370330196L131.21647158050536,161.53916999888142L131.81626557858786,161.35727173500658L131.9316105782191,160.45326952816643L132.3007145770391,160.4721480221454L132.55447357622782,160.94651421811562L132.64674957593283,160.02580371244315L132.66981857585907,159.9790939709158L132.85437057526906,160.59602783510547L132.99278457482654,160.01445801188083L133.06199157460532,160.42503615827113L133.26961257394154,160.76361757282768L133.36188857364655,161.26260127792935L133.52337157313028,161.53834959869386L133.54644057305654,161.5854574698902L133.68485457261403,161.8992077344583L133.82326857217151,161.68431320803737L133.86940657202402,161.92975845815593L133.9386135718028,161.1499184598723L134.7460285692215,161.32802704824815L135.0228565683365,161.25983922936086L135.46116756693522,161.74824910862472L135.50730556678772,161.91188672887603L135.99175456523895,162.13513448559416L136.45313456376394,162.41359067805456L137.0067905619939,161.84822007430745L137.07599756177265,162.0246328655364L137.37589456081392,162.18344749445723L137.5604465602239,161.73804740203246L137.76806755956014,161.3449883969067L137.83727455933888,161.41113761628213L137.88341255919138,161.67635845270928L137.90648155911762,161.44764889745906L138.9215175558726,158.23192683602622L139.0599315554301,159.73719777925618L139.12913855520887,160.84020381384698L139.2906215546926,160.9049058273101L139.59051855373383,160.76534792539908L139.6366565535863,161.31122240720143L139.65972555351257,161.38860476262278L139.82120855299632,158.5229524321281L140.2364505516688,159.5126406742062L140.7670375499725,160.59589842671218L140.8823825496038,161.0596611331056L141.34376254812875,161.4500861830699L141.38990054798128,161.5655693688698L141.52831454753874,161.57643650255943L142.12810854562122,161.2193548542359L142.2434535452525,161.61780921372468L142.6356265439987,161.8594900959669L143.05086854267122,161.27687600984666L143.2354205420812,161.42297391866958L143.76600754038492,161.89425124358465L143.85828354008993,162.14437841309606L143.95055953979494,162.36418396914695L143.97362853972118,161.6282324135203L144.57342253780365,162.05219918051438L145.10400953610738,162.2933943336609L145.7730105339686,162.30321140105855L146.02676953315733,161.94809601498326L146.39587353197734,161.97700931063878L146.71883953094482,161.9980184328209L146.7419085308711,162.11111395541565L147.20328852939605,162.22152908601123L147.75694452762602,162.35007744840587L148.12604852644603,162.3354983782402L148.56435952504475,162.0826865814112L148.63356652482352,162.31995426128748L148.74891152445474,162.37576349208132L149.60246452172598,162.3953103584041L149.76394752120973,162.28104006064504L149.8562235209147,161.6117510234858L149.9946375204722,161.98931946325936L150.1330515200297,161.92855637740425L150.24839651966093,162.22811025873236L150.3176035194397,161.80680465136362L150.3637415192922,162.0985866629666L150.91739751752218,162.4089985818604L151.10194951693217,162.39259060106227L151.4941225156784,159.41593832941078L151.60946751530963,159.11978164043754L151.65560551516214,159.95767244113827L151.93243351427714,160.92281190129256L151.97857151412964,161.45882328575186L152.11698551368713,161.9389122205869L152.39381351280213,161.98948171575785L152.50915851243337,162.3163761407553L152.73984851169584,162.34246099548065L152.97053851095833,161.49119828751856L153.61647050889331,161.70394748145077L153.66260850874585,161.97178534255087L153.75488450845083,161.6483913948296L154.10091950734457,162.03865459125274L155.0467485043208,162.0886186397472L155.11595550409953,162.0721866746091L155.53119750277202,162.0401213362842L155.9464395014445,162.07954420158862L156.33861250019072,161.69633226819346L156.40781949996946,162.0727313645725L156.52316449960074,162.31469900271145L156.63850949923196,162.48963536039815L157.05375149790447,162.46240113327246L157.0768204978307,161.38083496680503L157.46899349657693,161.79728840047292L157.5382004963557,161.91461744769782L157.69968349583942,162.27231902575195L158.32254649384817,162.4340208765028L158.36868449370067,162.53280077219503L158.5301674931844,162.57530640944972L158.9454094918569,162.531989841393L159.15303049119314,162.59256324221633L159.36065149052936,162.2965088365562L159.5913414897919,162.49032685039506L159.84510048898062,162.1874165803778L159.9373764886856,162.4353643855109L159.96044548861184,162.57153442328803L160.3987564872106,162.66144411041554L160.51410148684184,162.6980652898351L160.56023948669431,162.64456577092506L160.65251548639935,162.18054669070116L160.86013648573555,162.31728034675862L161.27537848440807,162.2866745332467L161.73675848293306,162.50206197892808L161.8521034825643,162.11137599274727L162.05972448190053,162.2813533968477L162.19813848145802,159.15756020269043L162.22120748138425,160.28630838791696L162.3134834810893,161.0810609035335L162.38269048086804,161.64093425502648L162.8902084792455,161.87722966246952L163.305450477918,161.39613371181673L163.397726477623,161.91764201799555L163.51307147725424,161.48697567380754L163.88217547607422,161.961307335129L163.9283134759267,162.21393711990964L164.1590034751892,162.49079553680352L164.2974174747467,162.03347505912495L164.3435554745992,162.291779339292L164.48196947415667,162.35851156764588L164.5281074740092,162.48432458763563L164.5742454738617,162.58343037287503L164.85107347297668,162.61968266463853L164.89721147282918,161.26479574099625L164.9433494726817,161.70410671436937L165.47393647098542,162.086836042861L165.68155747032168,162.36513336497606L165.7507644701004,162.5479527899458L166.11986846892037,162.38293894051114L166.37362746810913,162.62119863886414L166.4197654679616,162.45885566187437L166.55817946751912,162.57208534629257L166.85807646656036,162.53239028596215L166.9734214661916,162.56276058554366L167.13490446567536,162.57885307976176L167.27331846523285,162.53457249554745L167.57321546427409,162.6210330169798L168.1730094623566,162.64515163078664L168.70359646066032,162.71376227674867L168.7958724603653,162.67083001491196L168.81894146029154,162.67170369146982L168.9804244597753,162.6655756212523L169.37259745852154,162.61801289975767L169.62635645771027,162.63887679245917L169.880115456899,162.73417767969406L170.04159845638273,162.74851324638536L170.18001245594024,162.7140662238178L170.73366845417024,162.7511029165404L172.0024634501139,162.77898415271352L172.09473944981895,162.7431646986248L172.39463644886018,162.7693875536809L172.7406714477539,162.58895090737602L172.92522344716392,162.57572314527164L172.94829244709015,162.70274633512653L173.04056844679513,162.25381329782655L173.27125844605763,162.4532116181963L173.50194844532012,162.5903188175805L173.5250174452464,162.6220689107456L173.54808644517263,162.73513620765968L173.73263844458265,162.74470934684868L174.1940184431076,162.5552041394835L174.74767444133758,162.6541584904781L174.90915744082133,162.65579030123538L174.97836444060007,162.7604420007459L175.20905443986257,162.76823209694166L175.41667543919883,162.6979962607936L175.48588243897757,162.71381092040238L175.71657243824006,162.65092630169838L175.83191743787128,162.66983559397366L176.66240143521625,162.71408361433646L176.8700224345525,162.77568848613345L176.91616043440501,162.57275070933989L177.00843643411,162.4893822054446L177.1468504336675,162.59555798290523L177.21605743344625,162.6744583967078L177.37754043293,162.6627297828245L177.56209243233997,162.72183251120245L177.63129943211874,162.72216630149723L177.81585143152873,162.75295986725916L177.90812743123374,162.65541600339196L178.00040343093872,162.6997128168206L178.53099042924245,162.12282417004508L178.62326642894746,162.26022531366476L178.7847494284312,162.40185450725593L178.8770254281362,161.4201945792151L179.13078442732493,161.8780108479094L179.40761242643993,162.15304758036413L179.7767164252599,162.42913630962346L180.35344142341611,162.61520102760306L180.69947642230989,162.65677559733408L181.02244242127736,162.71195469499412L181.20699442068735,162.69786210067537L181.39154642009734,162.77917637856308L181.52996041965486,162.815366299993L181.55302941958112,162.69667654665201L182.15282341766357,162.6765033602328L182.47578941663107,162.50286639023116L183.05251441478728,162.60501244967887L183.44468741353353,162.62801360389574L183.7215154126485,162.73441972343736L183.79072241242727,162.71126933058858L183.92913641198476,162.71428496934539L184.34437841065727,162.69466588751192L184.39051641050975,162.75825898424458L184.80575840918223,161.84187303706415L184.89803440888724,162.20914627383135L185.38248340733844,162.3687782846888L185.47475940704348,162.41175804037616L185.6362424065272,162.18599174612498L185.93613940556844,162.50561465973044L186.07455340512595,162.63378499058194L186.39751940409343,162.70060109413538L186.67434740320843,162.71561311091654L187.02038240210214,162.65064366010515L187.20493440151216,162.70693550580594L187.2280034014384,162.48429886822862L187.7355213998159,162.62692992030586L187.82779739952088,162.72753599552206L188.15076339848835,162.03004266936475L188.42759139760335,162.31535988348313L188.4506603975296,162.41835241686815L188.61214339701334,162.5727413993852L188.93510939598085,162.66256312541378L189.07352339553833,162.60035240602846L189.23500639502208,162.61403074640629L189.28114439487456,162.2236276206182L189.48876539421082,162.35877850400223L189.53490339406332,162.44758615295032L189.55797239398956,162.52238295908487L189.9962833925883,162.5947914158345L190.06549039236705,162.74627615473102L190.27311139170328,162.73183131597474L190.57300839074452,162.77976858264233L191.12666438897452,162.8033622676469L191.4957683877945,162.75596099519043L191.74952738698323,162.6950724386862L192.16476938565575,162.5894322057632L192.3954593849182,162.71701385677557L192.41852838484448,162.6711777165173L192.55694238440196,162.78184237230144L192.71842538388572,162.87024392808124L192.8107013835907,162.16266408488235L192.83377038351693,162.34560299434813L192.8568393834432,162.49112830660866L193.36435738182067,162.64855561312353L193.38742638174693,162.7138903420782L193.47970238145192,162.5757170896002L193.52584038130442,162.36096406761388L193.73346138064065,162.5398877071925L193.82573738034569,162.17335096677033L194.4947383782069,162.41826270091795L194.51780737813314,162.4801658944818L194.7254283774694,162.6593386922807L194.7946353772481,162.71607688946008L194.9561183767319,162.7461236562662L195.18680837599436,162.76215364059908L195.20987737592063,162.28531795530313L195.25601537577313,162.51509098811184L195.37136037540435,162.52668120615894L195.50977437496186,162.59734643502807L195.60205037466685,162.053926512561L195.64818837451935,162.37215229023596L196.01729237333933,162.51082670965926L196.15570637289684,162.61359336043003L196.17877537282308,162.73426239043002L196.36332737223307,162.76111486002785L196.8016383708318,162.68482431170779L197.19381136957804,162.71606563306108L197.79360536766052,162.78781327363288L198.32419236596425,162.70674187091947L198.6240893650055,162.58881246238917L198.69329636478423,162.3764187649503L199.40843536249798,162.47919198074126L199.43150436242422,162.5819301260983L199.8006083612442,162.71592249873095L199.82367736117044,162.7442004494343L200.05436736043293,162.80876210211105L200.12357436021168,162.81629561133389L200.16971236006418,162.8082410006158L200.42347135925291,162.82859356026492L200.56188535881043,162.86851493700513L200.63109235858917,161.2669673349123L200.72336835829415,161.88554756594962L201.13861035696667,162.20147941960326L201.1616793568929,162.3985402892549L201.25395535659788,162.43740414918616L201.32316235637663,162.0358023436575L201.36930035622916,162.3704904734932L201.69226635519664,162.56078653352083L201.78454235490162,162.67180553481765L202.03830135409038,162.76164007950132L202.10750835386912,162.8268831764416L202.5688883523941,162.84476807287461L202.7534403518041,162.79946913803482L202.98413035106657,162.79840833619633L203.00719935099283,162.8501884411058L203.26095835018157,162.86317810609097L203.7915453484853,162.8953436434312L203.90689034811658,162.8732098141893L204.2990633468628,162.39684255895943L205.31409934361776,161.70310367500377L205.33716834354402,161.81201926036874L205.429444343249,162.23151856501664L205.52172034295398,162.4669703222393L205.9369623416265,162.48121400983115L206.07537634118395,162.56175077204105L207.0673433380127,162.69238876448833L207.2518953374227,162.7165244015497L207.43644733683269,162.79582958269458L207.45951633675892,162.752099433119L207.85168933550517,162.85540126046064L208.1515863345464,162.85977316680618L208.2438623342514,162.86316204024254L208.49762133344015,162.80967996619927L208.77444933255512,162.80434340068774L208.84365633233386,162.81913610766316L208.8897943321864,162.71406159142757L208.98207033189138,162.78523492822558L209.1666223313014,162.7163458013979L210.5507623268763,162.7378141194077L210.68917632643382,162.680451381275L210.71224532636006,162.73995526320675L211.10441832510628,162.7987730555423L211.26590132459003,162.8256646340752L211.7964883228938,162.80131162705965L211.88876432259877,162.80955206646686L212.1425233217875,162.85059330340493L212.21173032156625,162.88044654319103L212.6039033203125,162.8048796496931L212.74231731986998,162.80298270551665L213.04221431891122,162.66797346370956L213.5035943174362,162.70553636587127L213.71121531677247,162.76441037097112L214.08031931559245,162.81352987187913L214.12645731544492,162.8107212827499L214.33407831478118,162.82559503250025L214.54169931411744,162.8834302624051L214.7262513135274,162.16199732072636L215.18763131205242,162.4509095182378L215.2337693119049,162.59509928821407L215.30297631168366,162.69140013202093L215.34911431153617,162.7644832663603L215.48752831109366,162.8433652774923L215.76435631020863,162.4702251661528L215.7874253101349,162.62671729257252L215.94890830961864,162.77423757150774L216.0181153093974,162.83527918842722L216.13346030902864,162.8192841756336L216.29494330851236,162.83343675098303L216.34108130836486,162.764481922931L217.51760030460358,162.79447742043098L217.7713593037923,162.83699003158554L217.84056630357108,162.69802126686656L217.9559113032023,162.7459028167875L218.32501530202228,162.7276111617071L218.41729130172732,162.79494398775316L218.44036030165356,162.82311593836718L218.48649830150603,162.8209476551624L218.71718830076856,162.75000118257367L218.80946430047354,162.75324546698258L218.90174030017852,162.7143092541527L219.10936129951477,162.7434478641455L219.132430299441,162.72358974620028L219.2477752990723,162.82586430636303L219.34005129877727,162.66217631867698L219.3631202987035,162.68536756584385L219.70915529759725,162.7323044043961L220.42429429531097,162.7114358822183L220.70112229442597,162.8009721710315L220.8626052939097,162.82351439098713L220.97795029354097,162.85314397422115L221.30091629250845,162.8731590904214L221.5085372918447,162.89325617934827L221.85457229073842,162.85585308447884L222.10833128992718,162.8997186276215L222.2698142894109,162.93131430923214L222.29288328933717,162.9344785445997L222.5005042886734,162.09984139514984L223.37712628587084,162.45312282593994L223.44633328564962,162.273121866026L223.49247128550212,162.54172865778312L223.56167828528086,162.56308725291115L223.5847472852071,162.66532527322875L223.6770232849121,162.7577997806498L224.41523128255207,162.69533819318005L224.73819728151958,162.77282836578263L225.36106027952832,162.8382144550355L225.4994742790858,162.88005437513615L225.59175027879078,162.73584832750151L226.00699227746327,162.77191322671914L226.12233727709452,162.76141545088112L226.4683722759883,162.7689358122773L226.537579275767,162.8331988692307L226.60678627554574,162.88306317995645L227.091235273997,162.90589876732332L227.34499427318573,162.89557535263248L227.64489127222697,162.92456897317726L227.66796027215324,162.89457366018206L227.89865027141573,162.7901447405076L227.96785727119445,162.79832934391413L228.06013327089946,162.84764045991665L228.4523062696457,162.77094624991315L228.4984442694982,162.84245725744253L228.56765126927692,162.8670102799142L229.05210026772818,162.86563784213658L229.09823826758068,162.89217724918254L229.2135832672119,162.86009921728999L229.46734226640064,162.8144347259527L229.65189426581065,162.76061835894862L229.74417026551563,162.65719943492405L230.13634326426188,162.67653078264522L230.27475726381937,162.724920507048L230.50544726308186,162.79397567933222L230.55158526293437,162.66534501790414L230.68999926249188,162.7812262037679L230.8053442621231,162.76969525533747L230.92068926175435,162.84786839130575L230.98989626153312,162.83649306940188L231.33593126042683,162.86577681407874L231.3590002603531,162.88211471476313L231.9818632583618,162.9043605616456L232.1664152577718,162.7752225361472L232.3971052570343,162.46535274296136L232.65086425622306,162.67856743618458L233.13531325467426,162.7483127648373L233.5274862534205,162.8024236006189L233.55055525334677,161.80493589293334L234.28876325098676,162.2402141610963L234.311832250913,162.50075896667045L234.45024625047049,162.70113923273541L235.64983424663544,162.81386563491492L235.69597224648794,162.80362438004465L235.85745524597166,162.3808269927235L235.9266622457504,162.57593791009836L236.08814524523416,162.7271990742699L236.7110082432429,162.71715464582556L237.19545724169413,162.80575542057213L237.42614724095662,162.8363268613635L237.7952512397766,162.8107718819488L237.8413892396291,162.7714260917144L237.88752723948159,162.5370993952836L238.00287223911286,162.60637311840807L238.74108023675285,162.66748738687411L238.85642523638407,162.7582954256316L239.11018423557283,162.82059308400738L239.13325323549907,162.7162758040849L239.1563222354253,162.7692507874885L239.22552923520405,162.67390073005987L239.59463323402406,162.74594346407878L240.21749623203277,162.80256937299825L240.28670323181152,162.81120405343904L240.7480832303365,162.76936427667056L240.886497229894,162.73643561096276L240.90956622982023,162.79471104654698L241.5093602279027,162.79927444871973L241.67084322738648,162.78024901822312L241.83232622687024,162.72927903877527L242.59360322443644,162.81604511675627L242.6628102242152,162.82648017949154L243.10112122281393,162.81684036280473L243.12419022274017,162.82876397046408L243.33181122207642,162.83480543419253L243.49329422156018,162.8846851678335L243.56250122133892,162.8014285972263L243.72398422082264,162.81056744607767L243.79319122060141,162.86207828480883L244.23150221920014,162.91715312946394L244.30070921897888,162.9240076900389L244.5544682181676,162.90416744642562L244.80822721735635,162.75939724509456L245.03891721661884,162.77818188405186L245.08505521647135,162.80664569050322L245.10812421639758,162.8215583952669L245.17733121617636,162.8236383805147L245.73098721440635,162.84375442830384L245.84633221403757,162.8380088785768L245.8694012139638,162.84371441071264L245.96167721366882,162.63649029485666L246.39998821226757,162.54681705558238L246.4230572121938,162.683847293004L246.63067821153007,162.66217746094267L246.81523021094003,162.7795051374728L247.09205821005503,162.7997344881636L247.94561120732627,162.84406863657392L248.014818207105,162.8760531620743L248.22243920644124,162.86779725598376L248.2455082063675,162.75548602543358L248.383922205925,162.79751487237738L248.43006020577747,162.83360793418103L248.63768120511372,162.82214596480748L249.44509620253245,162.81695578127227L249.56044120216367,162.84938827627406L250.09102820046743,162.84339922763513L250.16023520024615,162.80750157972685L250.22944220002492,162.68483882184736L250.43706319936115,162.80878744688542L251.08299519729616,162.8061888296647L251.63665119552613,162.75418722001956L251.86734119478862,162.7983268710143L253.13613619073232,162.83198937688334L253.27455019028983,162.87198817003062L253.3668261899948,162.87802869321303L253.43603318977355,162.82860230126082L253.6897921889623,162.7568193719671L253.75899918874103,162.82048514596318" fill="none"></path></g></g></g></g><g opacity="0.2"><g><g><g><path style="fill: none;" stroke="rgb(0, 119, 187)" stroke-width="2px" d="M35.341707887013754,-29.84466524515976L35.457052886644995,0.41158565786932294L36.07991588465372,-10.13391716569042L36.31060588391622,25.863182251836932L36.44901988347371,4.532228046743916L36.61050288295746,31.51049808860106L36.63357188288371,8.677816471189423L37.39484888044993,29.712618759990235L37.44098688030243,22.896069673265245L37.717814879417425,7.747275504029473L37.87929787890116,27.161243529620293L37.90236687882741,37.272912660229586L37.94850487867991,33.69369495944765L38.01771187845866,41.697005325923136L38.06384987831116,24.366749142031566L38.34067787742615,22.19052160726175L38.57136787668864,36.65003946511103L39.563334873517356,48.69709023310758L39.74788687292735,37.500687313554025L39.932438872337336,31.792771155366992L40.14005987167358,34.80454132519454L40.43995687071482,51.75100544384572L40.53223287041982,64.86451418815601L40.73985386975606,62.054376183536604L40.832129869461056,52.38653112463156L40.87826786931356,49.75885213318076L40.92440586916606,58.27002669385133L41.0858888686498,55.312665203524396L41.20123386828105,51.275206177866515L41.24737186813354,42.644924766304555L41.36271686776479,66.39833644000413L41.40885486761729,59.64875878450613L41.50113086732229,68.31406634433371L41.593406867027284,74.55739501657288L41.731820866584776,67.84278368671326L41.75488986651103,59.60598560600922L42.285476864814754,66.37533463981943L42.37775286451975,59.4766191745413L43.13902986208598,82.63431712590214L43.30051286156972,65.46223196850822L43.43892686112722,73.54860605294587L43.761892860094704,82.3197697517249L43.85416885979971,76.08825604837124L44.015651859283444,74.67751885212785L44.06178985913595,54.88544191088711L44.24634185854594,82.25662696864312L44.56930785751343,73.41603911091912L44.592376857439675,71.53925373694126L44.82306685670216,82.37947273373878L44.89227385648091,90.29185270676629L45.099894855817155,105.28020258966822L45.28444685522715,85.90440140027464L45.492067854563395,88.44973454529048L45.51513685448964,81.66982681776739L45.65355085404714,87.103276762047L45.67661985397339,77.15803418049838L45.79196485360463,105.88716296593338L46.20720685227712,105.53705103984508L46.27641385205587,109.07651660480718L46.48403485139211,103.70964924467731L47.17610484917959,79.10929872542536L47.47600184822083,74.1646893798695L47.61441584777832,93.12155271050247L47.68362284755706,72.17612542684066L47.729760847409565,95.2714582892742L47.82203684711456,93.34011467922755L47.96045084667205,87.3188775107223L48.0757958463033,104.76850974732798L48.306485845565796,106.57162355582477L48.44489984512329,93.26683196082377L48.560244844754536,107.40169242048745L48.79093484401702,114.13102011665511L49.75983284091949,108.26113419513891L49.852108840624496,110.56630940298577L49.87517784055074,120.87132526492654L49.898246840476986,95.58454000908336L50.31348883914947,83.03683367347756L50.61338583819071,115.03392303001706L50.913282837231954,88.8622115603061L51.51307683531443,84.74028298494524L51.78990483442942,101.35099260805251L52.04366383361816,112.88087676331375L52.11287083339691,112.0093807292677L52.18207783317566,119.11822317282609L52.643457831700644,82.8395386487464L52.781871831258144,102.91999056473445L52.94335483074188,84.18354370427188L53.08176883029938,94.42906596339422L53.45087282911936,121.68584024649941L53.52007982889811,92.42512759515739L53.77383882808685,116.2842159399266L53.8430458278656,128.37281352256105L53.91225282764435,95.85774994781815L53.9353218275706,118.5420415382905L55.04263382403056,124.67688187597847L55.11184082380931,122.45743249300722L55.18104782358805,116.62233342924758L55.2041168235143,92.1573914268177L55.711634821891785,109.33417266045217L55.98846282100678,108.515918764675L56.219152820269265,110.47675492996495L56.31142881997426,115.5832143935955L56.88815381813049,118.59124564921876L56.91122281805674,112.64744887171247L57.16498181724548,133.7829625535196L57.34953381665547,118.72958547477695L57.44180981636047,116.5635576979564L57.48794781621297,130.65699098823669L58.22615581385295,134.2648637274802L58.31843181355794,134.3027314505411L58.89515681171417,125.94446352516857L59.264260810534154,141.07474259126477L59.28732981046041,117.64147170739203L59.63336480935415,123.35007582579266L59.72564080905914,115.71608044875862L60.094744807879124,134.73946654091404L60.11781380780538,120.71503865118785L60.625331806182864,113.51065947188181L60.74067680581411,130.60799625650387L60.85602180544535,132.48220925750917L60.9252288052241,137.1255518521414L61.04057380485535,128.02321008880452L61.10978080463409,123.99469454592327L61.386608803749084,108.57550210143434L61.57116080315908,121.07523068997087L61.732643802642826,115.09805288644877L61.894126802126564,133.45232289260719L62.10174780146281,133.4653941366653L62.1940238011678,132.81096450566267L62.24016180102031,139.29690384278885L62.286299800872804,142.79927937884455L62.355506800651554,137.9176931711159L62.51698980013529,135.52203623952562L62.724610799471535,133.76645150839354L62.95530079873403,130.61586293198968L63.04757679843903,132.07664175594306L63.09371479829152,118.08553506960537L63.16292179807027,132.3423738662693L63.27826679770152,127.17229303853881L63.34747379748026,134.3268698806439L63.370542797406515,134.51061508029878L63.8319227959315,127.08276847683167L64.03954379526775,126.6468110806132L64.17795779482523,118.61876405776222L64.33944079430898,141.22585454774475L64.36250979423524,130.917727909186L64.57013079357148,125.87874836911422L64.73161379305522,126.12620466680997L65.21606279150645,140.13582645628725L65.30833879121144,145.56532810716715L65.53902879047394,125.2630838005815L65.63130479017893,136.9699531986163L65.83892578951517,124.75602721185456L66.13882278855641,125.17514453849695L66.20802978833517,138.02345957612644L66.34644378789265,143.93540080461233L66.39258178774516,133.54965430717286L67.17692778523764,146.47959731971008L67.31534178479512,149.38078536303198L67.70751478354137,144.17056355240442L67.93820478280385,131.84907648181408L68.00741178258261,125.36283803155155L68.0535497824351,149.61887941956022L68.46879178110758,140.18981637739697L68.79175778007507,134.01423683053923L68.83789577992758,134.2782639959883L69.25313777860005,140.51680685804604L69.34541377830506,136.16255710968835L69.52996577771505,126.62458697458298L69.92213877646128,139.63687583355517L70.06055277601878,133.5874023849792L70.61420877424875,137.34154144789397L70.91410577328999,151.6891610814377L70.98331277306875,142.82886166802876L71.006381772995,148.31169519111842L71.05251977284749,135.8016471993781L71.0986577727,136.33164576566247L71.19093377240499,139.04621712322063L71.28320977210998,147.85883790269665L71.44469277159372,147.002357348095L71.79072777048748,142.9431228861114L72.57507376797994,142.26685799615578L72.66734976768494,139.14615082207249L72.82883276716868,125.85775062694302L73.03645376650492,142.1979423295426L73.3132817656199,138.23203116609773L73.5439717648824,151.20618310018628L73.59010976473489,141.84564687755898L73.63624776458741,142.07952343886478L73.75159276421866,146.20339624961187L73.8207997639974,125.2222249461572L74.00535176340739,119.80878567069885L74.09762776311238,145.7192218158151L74.55900776163736,140.42061207339844L74.67435276126861,137.07811250871757L74.69742176119486,128.6849979029612L74.74355976104736,138.90300175354008L74.81276676082611,132.61878431556295L74.90504276053112,145.14271115682953L74.92811176045736,152.09212629871763L75.0895947599411,147.81666295047242L75.15880175971985,139.31153047515596L75.27414675935108,145.82956465181167L75.71245775794984,138.02256223671742L75.94314775721232,139.49342117336553L76.08156175676982,138.11636411627427L76.2199757563273,148.03402846665216L76.31225175603231,150.27531310857637L76.5890797551473,146.44663505208518L76.61214875507355,139.20525557781366L77.18887375322977,149.44506477603187L77.39649475256603,154.35802795176278L78.20390974998473,144.07927422319284L78.226978749911,140.94388059411514L78.27311674976349,149.3794094426048L79.28815274651845,150.1316490691913L79.47270474592845,156.1882414104122L79.63418774541219,149.59853972628895L79.68032574526468,156.24426530084904L79.72646374511719,144.4887301955314L79.84180874474843,147.77565453947994L80.41853374290466,139.7146751603177L80.44160274283092,144.80698657259927L80.6722927420934,147.9935883706187L80.71843074194591,156.35412955582746L80.83377574157714,145.71213283448378L81.15674174054465,147.7148448388616L81.29515574010213,147.54010294461062L81.50277673943837,149.66033650025722L81.84881173833212,145.32167054630295L81.94108773803711,136.39969400418028L81.98722573788962,149.8558966687976L82.56395073604584,147.99284058777786L82.84077873516084,151.54540730811175L83.07146873442332,147.0488993521098L83.2098827339808,148.44779166815403L83.60205573272705,152.95512751969156L83.74046973228454,155.20254398091078L83.76353873221079,149.9773665134661L84.0865047311783,149.33780280533963L84.22491873073578,153.05592864663882L84.34026373036701,150.8977376339904L84.87085072867075,152.91008108135844L85.0323337281545,141.43759673696124L85.14767872778575,152.9311984687842L85.44757572682698,147.32626696343974L85.60905872631074,154.1371029892606L85.95509372520446,150.61761818180614L86.23192172431946,155.14457585508768L86.30112872409822,157.10592051270942L86.6240947230657,150.6489951498084L87.43150972048443,148.01880360801235L87.45457872041067,144.78413432898276L87.47764772033692,150.9767035019847L87.8928897190094,151.95770485524554L88.23892471790313,152.51561067715062L89.34623671436309,153.34657688122232L89.55385771369934,151.6938870689919L89.76147871303557,157.61504098207712L89.89989271259307,155.16213379619097L90.38434171104431,155.89406364081984L90.4304797108968,139.43306014245172L90.45354871082306,151.14606135978153L91.53779170735677,150.7024167559591L91.72234370676676,157.3032155374406L92.2529307050705,155.8384884200875L92.46055170440674,138.96841779645808L92.55282770411173,151.3359982013587L92.64510370381673,156.07353152262502L92.92193170293173,158.0879986732611L92.99113870271046,145.35421405553694L93.17569070212046,151.11465448046562L93.2448977018992,157.5889284052745L93.79855370012919,153.3503157954266L93.89082969983419,151.22739022155292L93.93696769968668,155.7715768114878L94.58289969762167,154.5260697117597L95.1134866959254,155.1839391438303L95.45952169481913,148.9802429621564L95.64407369422912,155.9770376248411L95.75941869386037,148.08188656846687L95.87476369349162,155.42023852154048L96.01317769304912,155.9733585332641L96.38228169186911,153.35725522018973L96.7975236905416,158.9231823725552L96.82059269046783,159.0622400696406L96.98207568995157,154.6852278116073L97.05128268973033,149.79963348785168L97.60493868796031,158.46284725572488L97.67414568773906,161.00381334895013L97.8356286872228,158.3330620658661L97.90483568700155,157.35074461480534L97.9279046869278,156.50646787616643L97.9740426867803,159.53208698420661L97.99711168670653,147.19675097540363L98.57383668486277,155.04030501575886L98.78145768419901,153.26378236508288L99.335113682429,151.00182900543743L99.51966568183899,152.79336713555782L99.84263168080649,161.21447873087578L99.86570068073273,159.39596059585736L100.25787367947898,155.69775568943857L100.92687467734018,158.85205326873307L100.9730126771927,156.12342359376686L101.20370267645518,151.4113747117169L101.59587567520141,160.7884518907839L101.71122067483266,158.02419784127935L102.21873867321015,146.4249493497004L102.40329067262014,160.4554193247807L102.65704967180888,156.57699875371588L102.70318767166138,154.58152528723753L102.86467067114512,159.6713241491738L103.00308467070262,158.58787654671585L103.16456767018636,160.55759637215513L103.30298166974384,157.36004703334558L103.3721886695226,154.83313925752842L103.76436166826885,155.85090161524568L104.04118966738383,151.6665182170166L104.11039666716258,159.47346080948358L104.27187966664631,157.04050446979141L104.64098366546631,155.28856891892272L104.6871216653188,160.49250935368713L104.8255356648763,159.1494315488843L104.9178116645813,159.2284871508195L105.28691566340129,157.7288834417689L105.67908866214752,160.1555883169115L106.14046866067251,157.34760392687375L106.555710659345,158.37484817101307L106.60184865919749,158.8841780195762L106.64798665904998,158.89512556036632L106.71719365882873,158.8426910275656L106.78640065860748,160.04515574697405L107.17857365735372,157.04202994678678L107.43233265654246,159.43747749918163L107.75529865550995,152.16902828607115L108.44736865329742,151.31338524825125L108.49350665314994,155.3852721959021L109.0471626513799,159.06481244261315L109.1394386510849,160.47785281000637L109.1855766509374,152.94247503402428L109.3239906504949,160.00351919839522L109.39319765027363,160.40986439411583L109.43933565012614,158.19603833810783L109.64695664946238,160.7801365455936L109.80843964894612,160.82000832666796L110.10833664798736,160.97381230137503L110.29288864739735,159.65089472196166L110.5927856464386,159.62056464993657L110.6389236462911,159.5728261933764L110.70813064606983,158.82489379595324L111.07723464488983,155.74944243939848L111.19257964452108,159.19621284340818L111.23871764437357,159.05066439126418L111.46940764363607,158.55479463383642L111.56168364334107,150.81440471420552L112.23068464120229,158.13238706269425L112.34602964083354,157.6625999707555L112.50751264031727,158.48910938909572L113.52254863707225,159.22169728262452L113.70710063648224,161.08304841876713L113.86858363596598,160.06106856582744L113.96085963567099,160.3905117741945L114.21461863485973,161.7057421460039L114.35303263441722,158.4191468265053L114.49144663397472,149.3877846104224L114.99896463235218,161.60844064275184L115.25272363154093,160.44764238323583L115.36806863117218,161.4196703424064L115.57568963050842,158.36318275869573L115.59875863043466,157.31778234718047L115.87558662954966,156.52671783549678L116.12934562873839,161.1935707226455L116.19855262851715,160.18780280169554L116.42924262777963,159.31777242201758L117.51348562431335,159.859705602442L117.6288306239446,156.15037368735128L117.65189962387085,160.68618510946857L117.88258962313334,160.62340126215037L119.56662661774953,160.6443092703807L119.82038561693828,161.50037106659147L119.84345461686452,156.03697989736403L119.88959261671701,159.90947802832932L119.93573061656953,161.51015206614986L120.00493761634827,161.0642042911776L120.02800661627451,160.93462848051422L120.60473161443073,158.93745006915873L120.720076614062,160.5105159644949L120.78928361384074,159.39183283457584L120.97383561325073,161.1954252240908L121.22759461243947,161.91503160750239L121.43521561177572,156.195450036998L121.50442261155446,162.22670749557074L121.52749161148071,160.84914194614768L121.87352661037444,159.85737251997853L122.24263060919444,161.39170326415842L122.38104460875194,159.67925064728686L122.47332060845693,160.83460504772145L122.68094160779317,160.1994083913856L122.72707960764568,161.88117200046847L122.9347006069819,161.44856467137703L123.02697660668692,159.32883960806222L123.28073560587566,160.24930046252746L123.88052960395814,152.89949247633194L124.08815060329437,161.69530309754555L124.43418560218811,157.55800010697672L124.59566860167186,157.8996172199929L124.73408260122935,161.33621777736698L124.82635860093436,160.93735041005493L124.8494276008606,161.29048337882028L125.28773859945933,159.82527768044903L125.35694559923807,160.3520458248609L126.18742959658304,161.09932017338411L126.32584359614054,162.11552714279242L126.67187859503429,160.407561222966L126.71801659488678,160.12334392081382L127.11018959363301,161.39723685718076L127.13325859355926,161.0690200126727L127.571569592158,160.05601355382325L127.59463859208424,161.3278426095494L127.663845591863,157.23947452808613L127.87146659119924,161.41961051977913L128.12522559038797,159.65864175219292L128.7019505885442,162.39756091904928L128.77115758832295,161.85885816049736L129.0249165875117,161.77603373304424L129.09412358729045,155.75395904775723L129.14026158714296,162.2910467311979L129.18639958699544,162.39041211509073L129.46322758611043,160.92538588460127L129.85540058485668,161.16494559549756L130.3398495833079,161.47357052957523L130.50133258279163,160.13614596304927L130.68588458220165,159.65352691756146L130.77816058190663,159.25127957180874L130.93964358139038,159.66731603314682L130.96271258131662,162.22201141933016L130.9857815812429,162.13957583895433L131.21647158050536,161.86516944767416L131.81626557858786,161.0844243391943L131.9316105782191,159.09726621790625L132.3007145770391,160.50046576311382L132.55447357622782,161.65806351207098L132.64674957593283,158.64473795393445L132.66981857585907,159.9090293586248L132.85437057526906,161.52142863138994L132.99278457482654,159.14210327704393L133.06199157460532,161.04090337785652L133.26961257394154,161.2714896946626L133.36188857364655,162.0110768355818L133.52337157313028,161.95197207984063L133.54644057305654,161.65611927668476L133.68485457261403,162.36983313131037L133.82326857217151,161.36197141840603L133.86940657202402,162.29792633333378L133.9386135718028,159.98015846244692L134.7460285692215,161.5951899308119L135.0228565683365,161.1575575010299L135.46116756693522,162.48086392752055L135.50730556678772,162.15734315925303L135.99175456523895,162.47000612067131L136.45313456376394,162.83127496674518L137.0067905619939,161.00016416868675L137.07599756177265,162.28925205237985L137.37589456081392,162.42166943783846L137.5604465602239,161.06994726339533L137.76806755956014,160.7553998892181L137.83727455933888,161.5103614453453L137.88341255919138,162.07418970734994L137.90648155911762,161.10458456458375L138.9215175558726,153.40834374387694L139.0599315554301,161.99510419410115L139.12913855520887,162.49471286573316L139.2906215546926,161.0019588475048L139.59051855373383,160.55601107253253L139.6366565535863,162.130034129905L139.65972555351257,161.5046782957548L139.82120855299632,154.2244739363861L140.2364505516688,160.99717303732334L140.7670375499725,162.22078505547117L140.8823825496038,161.75530519269574L141.34376254812875,162.0357237580164L141.38990054798128,161.73879414756968L141.52831454753874,161.5927372030939L142.12810854562122,160.68373238175056L142.2434535452525,162.21549075295792L142.6356265439987,162.22201141933016L143.05086854267122,160.40295488066633L143.2354205420812,161.64212078190394L143.76600754038492,162.6011672309573L143.85828354008993,162.5195691673632L143.95055953979494,162.6938923032233L143.97362853972118,160.52430508008027L144.57342253780365,162.68814933100555L145.10400953610738,162.65518706338065L145.7730105339686,162.31793700215505L146.02676953315733,161.41542293587034L146.39587353197734,162.02037925412202L146.71883953094482,162.0295321160941L146.7419085308711,162.28075723930775L147.20328852939605,162.38715178190458L147.75694452762602,162.54289999199787L148.12604852644603,162.31362977299173L148.56435952504475,161.70346888616768L148.63356652482352,162.6758557811019L148.74891152445474,162.45947733827208L149.60246452172598,162.42463065788823L149.76394752120973,162.1096346140065L149.8562235209147,160.60781746774697L149.9946375204722,162.55567212291967L150.1330515200297,161.83741174862163L150.24839651966093,162.6774410807245L150.3176035194397,161.17484624031047L150.3637415192922,162.53625968037107L150.91739751752218,162.87461646020114L151.10194951693217,162.36797862986506L151.4941225156784,154.95095992193353L151.60946751530963,158.67554660697766L151.65560551516214,161.21450864218943L151.93243351427714,162.37052109152398L151.97857151412964,162.26284036244084L152.11698551368713,162.65904562283947L152.39381351280213,162.06533595851423L152.50915851243337,162.8067177782515L152.73984851169584,162.38158827756862L152.97053851095833,160.21430422557543L153.61647050889331,162.0230712723491L153.66260850874585,162.37354213420102L153.75488450845083,161.1633004732477L154.10091950734457,162.62404938588745L155.0467485043208,162.16356471248895L155.11595550409953,162.04753872690188L155.53119750277202,161.99202332879682L155.9464395014445,162.13867849954528L156.33861250019072,161.1215143681007L156.40781949996946,162.63733000914104L156.52316449960074,162.67765045991993L156.63850949923196,162.75203989692818L157.05375149790447,162.4215497925839L157.0768204978307,159.75848571710387L157.46899349657693,162.42196855097478L157.5382004963557,162.09061101853513L157.69968349583942,162.80887139283317L158.32254649384817,162.6765736526291L158.36868449370067,162.68097061573332L158.5301674931844,162.63906486533182L158.9454094918569,162.4670149893079L159.15303049119314,162.68342334345132L159.36065149052936,161.852427228066L159.5913414897919,162.78105387115335L159.84510048898062,161.7330511753519L159.9373764886856,162.80728609321056L159.96044548861184,162.77578947995374L160.3987564872106,162.7963086411068L160.51410148684184,162.75299705896447L160.56023948669431,162.56431649255995L160.65251548639935,161.48451807036534L160.86013648573555,162.5223808308448L161.27537848440807,162.24076581297882L161.73675848293306,162.82514314745018L161.8521034825643,161.52534701347602L162.05972448190053,162.53631950299834L162.19813848145802,154.47187041145455L162.22120748138425,161.9794306657568L162.3134834810893,162.27318967695828L162.38269048086804,162.480744282266L162.8902084792455,162.23167277363402L163.305450477918,160.67448978583758L163.397726477623,162.69990447726377L163.51307147725424,160.84097615752555L163.88217547607422,162.67280482711118L163.9283134759267,162.59288179708062L164.1590034751892,162.9060831621443L164.2974174747467,161.3474943426071L164.3435554745992,162.67923575954254L164.48196947415667,162.45860991017668L164.5281074740092,162.67304411762026L164.5742454738617,162.73208905073417L164.85107347297668,162.67406110228382L164.89721147282918,159.23246535553284L164.9433494726817,162.36307317442905L165.47393647098542,162.66093003559843L165.68155747032168,162.78257934814872L165.7507644701004,162.82218192740038L166.11986846892037,162.13541816635916L166.37362746810913,162.9785881863936L166.4197654679616,162.21534119638974L166.55817946751912,162.74192987291983L166.85807646656036,162.47284769546656L166.9734214661916,162.60831603491584L167.13490446567536,162.60299182108898L167.27331846523285,162.468151619226L167.57321546427409,162.75072379912828L168.1730094623566,162.68132955149693L168.70359646066032,162.8166782456917L168.7958724603653,162.6064316221569L168.81894146029154,162.67301420630662L168.9804244597753,162.65638351592602L169.37259745852154,162.54666881751578L169.62635645771027,162.67017263151138L169.880115456899,162.8771290105464L170.04159845638273,162.77001659642235L170.18001245594024,162.6623956899665L170.73366845417024,162.80665795562425L172.0024634501139,162.8208060069732L172.09473944981895,162.6894355174918L172.39463644886018,162.808721836265L172.7406714477539,162.31829593791866L172.92522344716392,162.5558815021151L172.94829244709015,162.89328111990886L173.04056844679513,161.58041374187658L173.27125844605763,162.75230909875089L173.50194844532012,162.79597961665684L173.5250174452464,162.66969405049323L173.54808644517263,162.90473715303077L173.73263844458265,162.7590690556322L174.1940184431076,162.2709463284357L174.74767444133758,162.80259001697L174.90915744082133,162.65823801737133L174.97836444060007,162.9174195500117L175.20905443986257,162.77991724123527L175.41667543919883,162.59264250657154L175.48588243897757,162.7375329098156L175.71657243824006,162.5565993736423L175.83191743787128,162.69819953238664L176.66240143521625,162.78045564488067L176.8700224345525,162.86809579382887L176.91616043440501,162.26834404414956L177.00843643411,162.36432944960168L177.1468504336675,162.75482164909616L177.21605743344625,162.7928090174116L177.37754043293,162.64513686199956L177.56209243233997,162.81048660376942L177.63129943211874,162.7226669869394L177.81585143152873,162.79915021590205L177.90812743123374,162.50910020759122L178.00040343093872,162.76615803696353L178.53099042924245,161.25749119988177L178.62326642894746,162.46632702909432L178.7847494284312,162.6142982976427L178.8770254281362,159.94770468715382L179.13078442732493,162.56473525095083L179.40761242643993,162.5656026790462L179.7767164252599,162.8432694035125L180.35344142341611,162.89429810457244L180.69947642230989,162.71913745193058L181.02244242127736,162.7947233414842L181.20699442068735,162.67672320919726L181.39154642009734,162.90114779539468L181.52996041965486,162.86965118213786L181.55302941958112,162.51864191664052L182.15282341766357,162.64624358060402L182.47578941663107,162.2424109352287L183.05251441478728,162.75823153885045L183.44468741353353,162.66251533522103L183.7215154126485,162.89402890274974L183.79072241242727,162.67654374131547L183.92913641198476,162.71880842748058L184.34437841065727,162.66523726476174L184.39051641050975,162.85364862934355L184.80575840918223,160.4672941162935L184.89803440888724,162.76005612898214L185.38248340733844,162.60822630097496L185.47475940704348,162.47622767390723L185.6362424065272,161.8473423047482L185.93613940556844,162.9850490301386L186.07455340512595,162.8260404868592L186.39751940409343,162.80082524946556L186.67434740320843,162.73813113608827L187.02038240210214,162.55318948388802L187.20493440151216,162.79137327435717L187.2280034014384,162.15034391186262L187.7355213998159,162.84087649842175L187.82779739952088,162.8784451083463L188.15076339848835,160.98380268012886L188.42759139760335,162.74333570466064L188.4506603975296,162.5728412169457L188.61214339701334,162.80432487316077L188.93510939598085,162.79729571445674L189.07352339553833,162.50703632695047L189.23500639502208,162.63454825697306L189.28114439487456,161.63802293193606L189.48876539421082,162.56150482907833L189.53490339406332,162.5807976263724L189.55797239398956,162.63457816828668L189.9962833925883,162.70340410095898L190.06549039236705,162.9735032630758L190.27311139170328,162.7101640578403L190.57300839074452,162.85167448264372L191.12666438897452,162.83875279515374L191.4957683877945,162.68485908650578L191.74952738698323,162.60373960392982L192.16476938565575,162.43097185637868L192.3954593849182,162.90838633329415L192.41852838484448,162.60242350612992L192.55694238440196,162.94783935597766L192.71842538388572,163.00284626175096L192.8107013835907,161.10129432008398L192.83377038351693,162.62001135854683L192.8568393834432,162.70941627499946L193.36435738182067,162.88469657289585L193.38742638174693,162.81189243551023L193.47970238145192,162.3684572108832L193.52584038130442,162.03883453463433L193.73346138064065,162.80827316656047L193.82573738034569,161.6235458561371L194.4947383782069,162.7856303021394L194.51780737813314,162.5730206848275L194.7254283774694,162.9280978889791L194.7946353772481,162.80118418522918L194.9561183767319,162.79119380647535L195.18680837599436,162.78619861709845L195.20987737592063,161.57006442735917L195.25601537577313,162.85975053732494L195.37136037540435,162.5440665332296L195.50977437496186,162.7033442783317L195.60205037466685,161.2387966288604L195.64818837451935,162.8494909567484L196.01729237333933,162.71883833879423L196.15570637289684,162.76774333658614L196.17877537282308,162.91526593543L196.36332737223307,162.80139356442461L196.8016383708318,162.5703884892277L197.19381136957804,162.76292761509103L197.79360536766052,162.89543473449055L198.32419236596425,162.58513476684936L198.6240893650055,162.4119183495937L198.69329636478423,162.05782821879205L199.40843536249798,162.6333518044277L199.43150436242422,162.73603734413388L199.8006083612442,162.9169110576799L199.82367736117044,162.78661737548933L200.05436736043293,162.90560458112617L200.12357436021168,162.82759587516819L200.16971236006418,162.79615908453863L200.42347135925291,162.85912239973862L200.56188535881043,162.92839700211542L200.63109235858917,158.86464593177308L200.72336835829415,162.81341791250557L201.13861035696667,162.67537720008374L201.1616793568929,162.69413159373238L201.25395535659788,162.4956999390831L201.32316235637663,161.4333996353645L201.36930035622916,162.87252266824675L201.69226635519664,162.8462306235623L201.78454235490162,162.83833403676286L202.03830135409038,162.89639189652684L202.10750835386912,162.92474782185207L202.5688883523941,162.87159541752408L202.7534403518041,162.73152073577512L202.98413035106657,162.7968171334386L203.00719935099283,162.92785859847L203.26095835018157,162.88266260356875L203.7915453484853,162.9435919494416L203.90689034811658,162.84000907032637L204.2990633468628,161.6822916761147L205.31409934361776,160.66249534907027L205.33716834354402,161.9753926384162L205.429444343249,162.8607675219885L205.52172034295398,162.82014795807325L205.9369623416265,162.50257954121895L206.07537634118395,162.68255591535595L207.0673433380127,162.88834575315923L207.2518953374227,162.75272785714176L207.43644733683269,162.91478735441186L207.45951633675892,162.68650420875565L207.85168933550517,163.01035400147313L208.1515863345464,162.86633102632447L208.2438623342514,162.86824535039705L208.49762133344015,162.72945685513437L208.77444933255512,162.79633855242042L208.84365633233386,162.84132516812628L208.8897943321864,162.55644981707417L208.98207033189138,162.8919949334226L209.1666223313014,162.61301211115642L210.5507623268763,162.77001659642235L210.68917632643382,162.59440727407596L210.71224532636006,162.8292110861044L211.10441832510628,162.88699974404568L211.26590132459003,162.86600200187448L211.7964883228938,162.76478211653637L211.88876432259877,162.82191272557768L212.1425233217875,162.91215515881206L212.21173032156625,162.9252264028702L212.6039033203125,162.6915293094462L212.74231731986998,162.80013728925198L213.04221431891122,162.4654596009989L213.5035943174362,162.76188071911383L213.71121531677247,162.8527213786209L214.08031931559245,162.88720912324112L214.12645731544492,162.80650839905607L214.33407831478118,162.8479056571258L214.54169931411744,162.97018310726241L214.7262513135274,161.07984790820825L215.18763131205242,162.88427781450497L215.2337693119049,162.81138394317844L215.30297631168366,162.8358513977312L215.34911431153617,162.87410796786935L215.48752831109366,162.96168829419028L215.76435631020863,161.91051499914363L215.7874253101349,162.86145548220208L215.94890830961864,162.99551798991058L216.0181153093974,162.92684161380646L216.13346030902864,162.79529165644323L216.29494330851236,162.85466561400713L216.34108130836486,162.66104968085295L217.51760030460358,162.83947066668094L217.7713593037923,162.90075894831742L217.84056630357108,162.4895681197881L217.9559113032023,162.8177251416689L218.32501530202228,162.70017367908648L218.41729130172732,162.8959432268223L218.44036030165356,162.86537386428816L218.48649830150603,162.81769523035524L218.71718830076856,162.64358147369057L218.80946430047354,162.75811189359592L218.90174030017852,162.65590493490788L219.10936129951477,162.78715577913474L219.132430299441,162.6938025692824L219.2477752990723,162.9792761466072L219.34005129877727,162.41664433714791L219.3631202987035,162.72015443659413L219.70915529759725,162.80270966222452L220.42429429531097,162.68013309895156L220.70112229442597,162.9352766042513L220.8626052939097,162.85732772092058L220.97795029354097,162.8975883490722L221.30091629250845,162.9031817647218L221.5085372918447,162.92340181273852L221.85457229073842,162.79974844217475L222.10833128992718,162.96551694233546L222.2698142894109,162.97870783164814L222.29288328933717,162.939224897651L222.5005042886734,160.84788567097505L223.37712628587084,162.9830449721251L223.44633328564962,162.0031204261551L223.49247128550212,162.9446388454188L223.56167828528086,162.59512514560316L223.5847472852071,162.81868230370517L223.6770232849121,162.89651154178136L224.41523128255207,162.60164581197543L224.73819728151958,162.88906362468646L225.36106027952832,162.93629358891485L225.4994742790858,162.94281425528712L225.59175027879078,162.51953925604954L226.00699227746327,162.82601057554555L226.12233727709452,162.7456687871241L226.4683722759883,162.7802163543716L226.537579275767,162.9295934546608L226.60678627554574,162.9578596460451L227.091235273997,162.94015214837367L227.34499427318573,162.88009023059618L227.64489127222697,162.96805940399437L227.66796027215324,162.84958069068932L227.89865027141573,162.63350136099587L227.96785727119445,162.81060624902395L228.06013327089946,162.92160713392047L228.4523062696457,162.65590493490788L228.4984442694982,162.94972376873662L228.56765126927692,162.90383981362174L229.05210026772818,162.86357918547012L229.09823826758068,162.93198635975153L229.2135832672119,162.8119821694511L229.46734226640064,162.74593798894682L229.65189426581065,162.6798938084425L229.74417026551563,162.5020710488872L230.13634326426188,162.70552780422702L230.27475726381937,162.79750509365218L230.50544726308186,162.89755843775856L230.55158526293437,162.47239902576206L230.68999926249188,162.95504798256349L230.8053442621231,162.7523988326918L230.92068926175435,162.96512809525822L230.98989626153312,162.81943008654605L231.33593126042683,162.90970243109405L231.3590002603531,162.90662156578972L231.9818632583618,162.9377293319693L232.1664152577718,162.5815154978996L232.3971052570343,162.00054805318257L232.65086425622306,162.99838947601944L233.13531325467426,162.85293075781635L233.5274862534205,162.8835898542914L233.55055525334677,160.30870433140495L234.28876325098676,162.89313156334072L234.311832250913,162.89157617503173L234.45024625047049,163.00170963183285L235.64983424663544,162.98295523818422L235.69597224648794,162.7882624977392L235.85745524597166,161.74663091174185L235.9266622457504,162.86860428616066L236.08814524523416,162.9540908205272L236.7110082432429,162.70208800315908L237.19545724169413,162.93865658269195L237.42614724095662,162.88218402255058L237.7952512397766,162.7724394128267L237.8413892396291,162.71240740636287L237.88752723948159,162.18560935063735L238.00287223911286,162.71028370309483L238.74108023675285,162.75915878957312L238.85642523638407,162.89450748376788L239.11018423557283,162.914039571571L239.13325323549907,162.5597998842012L239.1563222354253,162.84871326259392L239.22552923520405,162.53087564391691L239.59463323402406,162.85400756510717L240.21749623203277,162.88750823637747L240.28670323181152,162.82415607410024L240.7480832303365,162.70660461151783L240.886497229894,162.68704261240106L240.90956622982023,162.8821241999233L241.5093602279027,162.8061195519788L241.67084322738648,162.7517108724782L241.83232622687024,162.65282406960355L242.59360322443644,162.94619423372777L242.6628102242152,162.8421327735944L243.10112122281393,162.80238063777455L243.12419022274017,162.84664938195317L243.33181122207642,162.84386762978517L243.49329422156018,162.959504768295L243.56250122133892,162.67654374131547L243.72398422082264,162.82427571935477L243.79319122060141,162.93934454290553L244.23150221920014,162.99976539644663L244.30070921897888,162.93428953090137L244.5544682181676,162.8744070810057L244.80822721735635,162.5422419430979L245.03891721661884,162.8063588424879L245.08505521647135,162.84934140018024L245.10812421639758,162.84392745241246L245.17733121617636,162.82675835838643L245.73098721440635,162.87392849998756L245.84633221403757,162.82939055398623L245.8694012139638,162.8522727089164L245.96167721366882,162.32565412107266L246.39998821226757,162.41230719667095L246.4230572121938,162.88939264913643L246.63067821153007,162.62967271285066L246.81523021094003,162.955496652268L247.09205821005503,162.8300785141998L247.94561120732627,162.91056985918945L248.014818207105,162.92402995032484L248.22243920644124,162.85541339684798L248.2455082063675,162.58701917960832L248.383922205925,162.86055814279305L248.43006020577747,162.88774752688656L248.63768120511372,162.80495301074708L249.44509620253245,162.80917050596952L249.56044120216367,162.8980370187767L250.09102820046743,162.83441565467677L250.16023520024615,162.75365510786443L250.22944220002492,162.50084468502817L250.43706319936115,162.99471038444244L251.08299519729616,162.80229090383364L251.63665119552613,162.67618480555186L251.86734119478862,162.8645363475064L253.13613619073232,162.88248313568693L253.27455019028983,162.93198635975153L253.3668261899948,162.8870894779866L253.43603318977355,162.75446271333254L253.6897921889623,162.64914497802653L253.75899918874103,162.91598380695723" fill="none"></path></g></g></g></g></g></g><g transform="translate(53, 175)" clip-path="url(#clip_1)"><clipPath id="clip_1"><rect width="276" height="24"></rect></clipPath><g><g><line x1="0" y1="0" x2="0" y2="5" style="visibility: inherit;" fill="rgb(0, 0, 0)" stroke="rgb(204, 204, 204)" stroke-width="1px"></line><line x1="23.068999926249184" y1="0" x2="23.068999926249184" y2="5" style="visibility: inherit;" fill="rgb(0, 0, 0)" stroke="rgb(204, 204, 204)" stroke-width="1px"></line><line x1="46.13799985249837" y1="0" x2="46.13799985249837" y2="5" style="visibility: inherit;" fill="rgb(0, 0, 0)" stroke="rgb(204, 204, 204)" stroke-width="1px"></line><line x1="69.20699977874756" y1="0" x2="69.20699977874756" y2="5" style="visibility: inherit;" fill="rgb(0, 0, 0)" stroke="rgb(204, 204, 204)" stroke-width="1px"></line><line x1="92.27599970499674" y1="0" x2="92.27599970499674" y2="5" style="visibility: inherit;" fill="rgb(0, 0, 0)" stroke="rgb(204, 204, 204)" stroke-width="1px"></line><line x1="115.34499963124594" y1="0" x2="115.34499963124594" y2="5" style="visibility: inherit;" fill="rgb(0, 0, 0)" stroke="rgb(204, 204, 204)" stroke-width="1px"></line><line x1="138.41399955749512" y1="0" x2="138.41399955749512" y2="5" style="visibility: inherit;" fill="rgb(0, 0, 0)" stroke="rgb(204, 204, 204)" stroke-width="1px"></line><line x1="161.48299948374432" y1="0" x2="161.48299948374432" y2="5" style="visibility: inherit;" fill="rgb(0, 0, 0)" stroke="rgb(204, 204, 204)" stroke-width="1px"></line><line x1="184.55199940999347" y1="0" x2="184.55199940999347" y2="5" style="visibility: inherit;" fill="rgb(0, 0, 0)" stroke="rgb(204, 204, 204)" stroke-width="1px"></line><line x1="207.62099933624268" y1="0" x2="207.62099933624268" y2="5" style="visibility: inherit;" fill="rgb(0, 0, 0)" stroke="rgb(204, 204, 204)" stroke-width="1px"></line><line x1="230.68999926249188" y1="0" x2="230.68999926249188" y2="5" style="visibility: inherit;" fill="rgb(0, 0, 0)" stroke="rgb(204, 204, 204)" stroke-width="1px"></line><line x1="253.75899918874103" y1="0" x2="253.75899918874103" y2="5" style="visibility: inherit;" fill="rgb(0, 0, 0)" stroke="rgb(204, 204, 204)" stroke-width="1px"></line><line x1="276.82799911499023" y1="0" x2="276.82799911499023" y2="5" style="visibility: inherit;" fill="rgb(0, 0, 0)" stroke="rgb(204, 204, 204)" stroke-width="1px"></line></g><g transform="translate(0, 8)"><text style="text-anchor: middle; visibility: hidden; font-family: Roboto, sans-serif; font-size: 12px; font-weight: 200;" x="0" y="0" dx="0em" dy="0.95em" fill="rgb(33, 33, 33)" stroke="none" stroke-width="1px">-1k</text><text style="text-anchor: middle; visibility: inherit; font-family: Roboto, sans-serif; font-size: 12px; font-weight: 200;" x="23.068999926249184" y="0" dx="0em" dy="0.95em" fill="rgb(33, 33, 33)" stroke="none" stroke-width="1px">0</text><text style="text-anchor: middle; visibility: inherit; font-family: Roboto, sans-serif; font-size: 12px; font-weight: 200;" x="46.13799985249837" y="0" dx="0em" dy="0.95em" fill="rgb(33, 33, 33)" stroke="none" stroke-width="1px">1k</text><text style="text-anchor: middle; visibility: inherit; font-family: Roboto, sans-serif; font-size: 12px; font-weight: 200;" x="69.20699977874756" y="0" dx="0em" dy="0.95em" fill="rgb(33, 33, 33)" stroke="none" stroke-width="1px">2k</text><text style="text-anchor: middle; visibility: inherit; font-family: Roboto, sans-serif; font-size: 12px; font-weight: 200;" x="92.27599970499674" y="0" dx="0em" dy="0.95em" fill="rgb(33, 33, 33)" stroke="none" stroke-width="1px">3k</text><text style="text-anchor: middle; visibility: inherit; font-family: Roboto, sans-serif; font-size: 12px; font-weight: 200;" x="115.34499963124594" y="0" dx="0em" dy="0.95em" fill="rgb(33, 33, 33)" stroke="none" stroke-width="1px">4k</text><text style="text-anchor: middle; visibility: inherit; font-family: Roboto, sans-serif; font-size: 12px; font-weight: 200;" x="138.41399955749512" y="0" dx="0em" dy="0.95em" fill="rgb(33, 33, 33)" stroke="none" stroke-width="1px">5k</text><text style="text-anchor: middle; visibility: inherit; font-family: Roboto, sans-serif; font-size: 12px; font-weight: 200;" x="161.48299948374432" y="0" dx="0em" dy="0.95em" fill="rgb(33, 33, 33)" stroke="none" stroke-width="1px">6k</text><text style="text-anchor: middle; visibility: inherit; font-family: Roboto, sans-serif; font-size: 12px; font-weight: 200;" x="184.55199940999347" y="0" dx="0em" dy="0.95em" fill="rgb(33, 33, 33)" stroke="none" stroke-width="1px">7k</text><text style="text-anchor: middle; visibility: inherit; font-family: Roboto, sans-serif; font-size: 12px; font-weight: 200;" x="207.62099933624268" y="0" dx="0em" dy="0.95em" fill="rgb(33, 33, 33)" stroke="none" stroke-width="1px">8k</text><text style="text-anchor: middle; visibility: inherit; font-family: Roboto, sans-serif; font-size: 12px; font-weight: 200;" x="230.68999926249188" y="0" dx="0em" dy="0.95em" fill="rgb(33, 33, 33)" stroke="none" stroke-width="1px">9k</text><text style="text-anchor: middle; visibility: inherit; font-family: Roboto, sans-serif; font-size: 12px; font-weight: 200;" x="253.75899918874103" y="0" dx="0em" dy="0.95em" fill="rgb(33, 33, 33)" stroke="none" stroke-width="1px">10k</text><text style="text-anchor: middle; visibility: hidden; font-family: Roboto, sans-serif; font-size: 12px; font-weight: 200;" x="276.82799911499023" y="0" dx="0em" dy="0.95em" fill="rgb(33, 33, 33)" stroke="none" stroke-width="1px">11k</text></g><line x1="0" y1="0" x2="276.82799911499023" y2="0" fill="rgb(0, 0, 0)" stroke="rgb(204, 204, 204)" stroke-width="1px"></line></g></g></g></g></svg>