<svg viewBox="0 0 330 200" xmlns="http://www.w3.org/2000/svg"><g><g><g><g><g><line x1="63.96500110626221" y1="175.63999938964844" x2="58.96500110626221" y2="175.63999938964844" style="visibility: inherit;" fill="rgb(0, 0, 0)" stroke="rgb(204, 204, 204)" stroke-width="1px"></line><line x1="63.96500110626221" y1="163.09428514753068" x2="58.96500110626221" y2="163.09428514753068" style="visibility: inherit;" fill="rgb(0, 0, 0)" stroke="rgb(204, 204, 204)" stroke-width="1px"></line><line x1="63.96500110626221" y1="150.54857090541296" x2="58.96500110626221" y2="150.54857090541296" style="visibility: inherit;" fill="rgb(0, 0, 0)" stroke="rgb(204, 204, 204)" stroke-width="1px"></line><line x1="63.96500110626221" y1="138.0028566632952" x2="58.96500110626221" y2="138.0028566632952" style="visibility: inherit;" fill="rgb(0, 0, 0)" stroke="rgb(204, 204, 204)" stroke-width="1px"></line><line x1="63.96500110626221" y1="125.45714242117745" x2="58.96500110626221" y2="125.45714242117745" style="visibility: inherit;" fill="rgb(0, 0, 0)" stroke="rgb(204, 204, 204)" stroke-width="1px"></line><line x1="63.96500110626221" y1="112.9114281790597" x2="58.96500110626221" y2="112.9114281790597" style="visibility: inherit;" fill="rgb(0, 0, 0)" stroke="rgb(204, 204, 204)" stroke-width="1px"></line><line x1="63.96500110626221" y1="100.36571393694196" x2="58.96500110626221" y2="100.36571393694196" style="visibility: inherit;" fill="rgb(0, 0, 0)" stroke="rgb(204, 204, 204)" stroke-width="1px"></line><line x1="63.96500110626221" y1="87.81999969482423" x2="58.96500110626221" y2="87.81999969482423" style="visibility: inherit;" fill="rgb(0, 0, 0)" stroke="rgb(204, 204, 204)" stroke-width="1px"></line><line x1="63.96500110626221" y1="75.27428545270648" x2="58.96500110626221" y2="75.27428545270648" style="visibility: inherit;" fill="rgb(0, 0, 0)" stroke="rgb(204, 204, 204)" stroke-width="1px"></line><line x1="63.96500110626221" y1="62.72857121058874" x2="58.96500110626221" y2="62.72857121058874" style="visibility: inherit;" fill="rgb(0, 0, 0)" stroke="rgb(204, 204, 204)" stroke-width="1px"></line><line x1="63.96500110626221" y1="50.182856968471" x2="58.96500110626221" y2="50.182856968471" style="visibility: inherit;" fill="rgb(0, 0, 0)" stroke="rgb(204, 204, 204)" stroke-width="1px"></line><line x1="63.96500110626221" y1="37.63714272635324" x2="58.96500110626221" y2="37.63714272635324" style="visibility: inherit;" fill="rgb(0, 0, 0)" stroke="rgb(204, 204, 204)" stroke-width="1px"></line><line x1="63.96500110626221" y1="25.091428484235518" x2="58.96500110626221" y2="25.091428484235518" style="visibility: inherit;" fill="rgb(0, 0, 0)" stroke="rgb(204, 204, 204)" stroke-width="1px"></line><line x1="63.96500110626221" y1="12.545714242117759" x2="58.96500110626221" y2="12.545714242117759" style="visibility: inherit;" fill="rgb(0, 0, 0)" stroke="rgb(204, 204, 204)" stroke-width="1px"></line><line x1="63.96500110626221" y1="0" x2="58.96500110626221" y2="0" style="visibility: inherit;" fill="rgb(0, 0, 0)" stroke="rgb(204, 204, 204)" stroke-width="1px"></line></g><g transform="translate(53.96500110626221, 0)"><text style="text-anchor: end; visibility: hidden; font-family: Roboto, sans-serif; font-size: 12px; font-weight: 200;" x="0" y="175.63999938964844" dx="0em" dy="0.3em" fill="rgb(33, 33, 33)" stroke="none" stroke-width="1px">-0.01</text><text style="text-anchor: end; visibility: inherit; font-family: Roboto, sans-serif; font-size: 12px; font-weight: 200;" x="0" y="163.09428514753068" dx="0em" dy="0.3em" fill="rgb(33, 33, 33)" stroke="none" stroke-width="1px">0</text><text style="text-anchor: end; visibility: hidden; font-family: Roboto, sans-serif; font-size: 12px; font-weight: 200;" x="0" y="150.54857090541296" dx="0em" dy="0.3em" fill="rgb(33, 33, 33)" stroke="none" stroke-width="1px">0.01</text><text style="text-anchor: end; visibility: inherit; font-family: Roboto, sans-serif; font-size: 12px; font-weight: 200;" x="0" y="138.0028566632952" dx="0em" dy="0.3em" fill="rgb(33, 33, 33)" stroke="none" stroke-width="1px">0.02</text><text style="text-anchor: end; visibility: hidden; font-family: Roboto, sans-serif; font-size: 12px; font-weight: 200;" x="0" y="125.45714242117745" dx="0em" dy="0.3em" fill="rgb(33, 33, 33)" stroke="none" stroke-width="1px">0.03</text><text style="text-anchor: end; visibility: inherit; font-family: Roboto, sans-serif; font-size: 12px; font-weight: 200;" x="0" y="112.9114281790597" dx="0em" dy="0.3em" fill="rgb(33, 33, 33)" stroke="none" stroke-width="1px">0.04</text><text style="text-anchor: end; visibility: hidden; font-family: Roboto, sans-serif; font-size: 12px; font-weight: 200;" x="0" y="100.36571393694196" dx="0em" dy="0.3em" fill="rgb(33, 33, 33)" stroke="none" stroke-width="1px">0.05</text><text style="text-anchor: end; visibility: inherit; font-family: Roboto, sans-serif; font-size: 12px; font-weight: 200;" x="0" y="87.81999969482423" dx="0em" dy="0.3em" fill="rgb(33, 33, 33)" stroke="none" stroke-width="1px">0.06</text><text style="text-anchor: end; visibility: hidden; font-family: Roboto, sans-serif; font-size: 12px; font-weight: 200;" x="0" y="75.27428545270648" dx="0em" dy="0.3em" fill="rgb(33, 33, 33)" stroke="none" stroke-width="1px">0.07</text><text style="text-anchor: end; visibility: inherit; font-family: Roboto, sans-serif; font-size: 12px; font-weight: 200;" x="0" y="62.72857121058874" dx="0em" dy="0.3em" fill="rgb(33, 33, 33)" stroke="none" stroke-width="1px">0.08</text><text style="text-anchor: end; visibility: hidden; font-family: Roboto, sans-serif; font-size: 12px; font-weight: 200;" x="0" y="50.182856968471" dx="0em" dy="0.3em" fill="rgb(33, 33, 33)" stroke="none" stroke-width="1px">0.09</text><text style="text-anchor: end; visibility: inherit; font-family: Roboto, sans-serif; font-size: 12px; font-weight: 200;" x="0" y="37.63714272635324" dx="0em" dy="0.3em" fill="rgb(33, 33, 33)" stroke="none" stroke-width="1px">0.1</text><text style="text-anchor: end; visibility: hidden; font-family: Roboto, sans-serif; font-size: 12px; font-weight: 200;" x="0" y="25.091428484235518" dx="0em" dy="0.3em" fill="rgb(33, 33, 33)" stroke="none" stroke-width="1px">0.11</text><text style="text-anchor: end; visibility: inherit; font-family: Roboto, sans-serif; font-size: 12px; font-weight: 200;" x="0" y="12.545714242117759" dx="0em" dy="0.3em" fill="rgb(33, 33, 33)" stroke="none" stroke-width="1px">0.12</text><text style="text-anchor: end; visibility: hidden; font-family: Roboto, sans-serif; font-size: 12px; font-weight: 200;" x="0" y="0" dx="0em" dy="0.3em" fill="rgb(33, 33, 33)" stroke="none" stroke-width="1px">0.13</text></g><line x1="63.96500110626221" y1="0" x2="63.96500110626221" y2="175.63999938964844" fill="rgb(0, 0, 0)" stroke="rgb(204, 204, 204)" stroke-width="1px"></line></g></g><g transform="translate(63, 0)" clip-path="url(#clip_0)"><clipPath id="clip_0"><rect width="266" height="175"></rect></clipPath><g><g><g><line x1="0" y1="0" x2="0" y2="175.63999938964844" fill="rgb(0, 0, 0)" stroke="rgb(66, 66, 66)" stroke-width="1px" opacity="0.25"></line><line x1="22.169583241144814" y1="0" x2="22.169583241144814" y2="175.63999938964844" fill="rgb(0, 0, 0)" stroke="rgb(66, 66, 66)" stroke-width="1px" opacity="0.25"></line><line x1="44.33916648228963" y1="0" x2="44.33916648228963" y2="175.63999938964844" fill="rgb(0, 0, 0)" stroke="rgb(66, 66, 66)" stroke-width="1px" opacity="0.25"></line><line x1="66.50874972343445" y1="0" x2="66.50874972343445" y2="175.63999938964844" fill="rgb(0, 0, 0)" stroke="rgb(66, 66, 66)" stroke-width="1px" opacity="0.25"></line><line x1="88.67833296457925" y1="0" x2="88.67833296457925" y2="175.63999938964844" fill="rgb(0, 0, 0)" stroke="rgb(66, 66, 66)" stroke-width="1px" opacity="0.25"></line><line x1="110.84791620572409" y1="0" x2="110.84791620572409" y2="175.63999938964844" fill="rgb(0, 0, 0)" stroke="rgb(66, 66, 66)" stroke-width="1px" opacity="0.25"></line><line x1="133.0174994468689" y1="0" x2="133.0174994468689" y2="175.63999938964844" fill="rgb(0, 0, 0)" stroke="rgb(66, 66, 66)" stroke-width="1px" opacity="0.25"></line><line x1="155.18708268801373" y1="0" x2="155.18708268801373" y2="175.63999938964844" fill="rgb(0, 0, 0)" stroke="rgb(66, 66, 66)" stroke-width="1px" opacity="0.25"></line><line x1="177.3566659291585" y1="0" x2="177.3566659291585" y2="175.63999938964844" fill="rgb(0, 0, 0)" stroke="rgb(66, 66, 66)" stroke-width="1px" opacity="0.25"></line><line x1="199.52624917030334" y1="0" x2="199.52624917030334" y2="175.63999938964844" fill="rgb(0, 0, 0)" stroke="rgb(66, 66, 66)" stroke-width="1px" opacity="0.25"></line><line x1="221.69583241144818" y1="0" x2="221.69583241144818" y2="175.63999938964844" fill="rgb(0, 0, 0)" stroke="rgb(66, 66, 66)" stroke-width="1px" opacity="0.25"></line><line x1="243.86541565259296" y1="0" x2="243.86541565259296" y2="175.63999938964844" fill="rgb(0, 0, 0)" stroke="rgb(66, 66, 66)" stroke-width="1px" opacity="0.25"></line><line x1="266.0349988937378" y1="0" x2="266.0349988937378" y2="175.63999938964844" fill="rgb(0, 0, 0)" stroke="rgb(66, 66, 66)" stroke-width="1px" opacity="0.25"></line></g><g><line x1="0" y1="175.63999938964844" x2="266.0349988937378" y2="175.63999938964844" fill="rgb(0, 0, 0)" stroke="rgb(66, 66, 66)" stroke-width="1px" opacity="0.25"></line><line x1="0" y1="163.09428514753068" x2="266.0349988937378" y2="163.09428514753068" fill="rgb(0, 0, 0)" stroke="rgb(66, 66, 66)" stroke-width="1px" opacity="0.25"></line><line x1="0" y1="150.54857090541296" x2="266.0349988937378" y2="150.54857090541296" fill="rgb(0, 0, 0)" stroke="rgb(66, 66, 66)" stroke-width="1px" opacity="0.25"></line><line x1="0" y1="138.0028566632952" x2="266.0349988937378" y2="138.0028566632952" fill="rgb(0, 0, 0)" stroke="rgb(66, 66, 66)" stroke-width="1px" opacity="0.25"></line><line x1="0" y1="125.45714242117745" x2="266.0349988937378" y2="125.45714242117745" fill="rgb(0, 0, 0)" stroke="rgb(66, 66, 66)" stroke-width="1px" opacity="0.25"></line><line x1="0" y1="112.9114281790597" x2="266.0349988937378" y2="112.9114281790597" fill="rgb(0, 0, 0)" stroke="rgb(66, 66, 66)" stroke-width="1px" opacity="0.25"></line><line x1="0" y1="100.36571393694196" x2="266.0349988937378" y2="100.36571393694196" fill="rgb(0, 0, 0)" stroke="rgb(66, 66, 66)" stroke-width="1px" opacity="0.25"></line><line x1="0" y1="87.81999969482423" x2="266.0349988937378" y2="87.81999969482423" fill="rgb(0, 0, 0)" stroke="rgb(66, 66, 66)" stroke-width="1px" opacity="0.25"></line><line x1="0" y1="75.27428545270648" x2="266.0349988937378" y2="75.27428545270648" fill="rgb(0, 0, 0)" stroke="rgb(66, 66, 66)" stroke-width="1px" opacity="0.25"></line><line x1="0" y1="62.72857121058874" x2="266.0349988937378" y2="62.72857121058874" fill="rgb(0, 0, 0)" stroke="rgb(66, 66, 66)" stroke-width="1px" opacity="0.25"></line><line x1="0" y1="50.182856968471" x2="266.0349988937378" y2="50.182856968471" fill="rgb(0, 0, 0)" stroke="rgb(66, 66, 66)" stroke-width="1px" opacity="0.25"></line><line x1="0" y1="37.63714272635324" x2="266.0349988937378" y2="37.63714272635324" fill="rgb(0, 0, 0)" stroke="rgb(66, 66, 66)" stroke-width="1px" opacity="0.25"></line><line x1="0" y1="25.091428484235518" x2="266.0349988937378" y2="25.091428484235518" fill="rgb(0, 0, 0)" stroke="rgb(66, 66, 66)" stroke-width="1px" opacity="0.25"></line><line x1="0" y1="12.545714242117759" x2="266.0349988937378" y2="12.545714242117759" fill="rgb(0, 0, 0)" stroke="rgb(66, 66, 66)" stroke-width="1px" opacity="0.25"></line><line x1="0" y1="0" x2="266.0349988937378" y2="0" fill="rgb(0, 0, 0)" stroke="rgb(66, 66, 66)" stroke-width="1px" opacity="0.25"></line></g></g></g><g><g><line x1="0" y1="163.09428514753068" x2="266.0349988937378" y2="163.09428514753068" fill="rgb(0, 0, 0)" stroke="rgb(153, 153, 153)" stroke-width="1.5px"></line></g></g><g><g><line x1="22.169583241144814" y1="0" x2="22.169583241144814" y2="175.63999938964844" fill="rgb(0, 0, 0)" stroke="rgb(153, 153, 153)" stroke-width="1.5px"></line></g></g><g><g><g><g><g><path style="fill: none;" stroke="rgb(0, 119, 187)" stroke-width="2px" d="M22.380194281935694,159.28038789519704L22.64622928082943,156.26941673571648L22.679483655691147,155.0404486360854L22.967688237826028,152.09981145107864L23.222638445099197,148.59746400437774L23.89881073395411,141.5413408461389L23.93206510881583,137.27661471776582L24.03182823340098,134.06051288263004L24.71908531387647,127.13695651812768L24.774509271979333,122.62384496217173L25.007289896011354,118.24122331899292L25.140307395458223,114.65623590549299L25.206816145181655,112.02785899570515L25.594783851901692,107.64058681856193L25.616953435142836,104.84976486324972L25.705631768107416,102.53358875252285L26.027090725104014,98.81542354466544L26.248786557515462,94.97891171114428L26.847365305026372,88.34119156430525L27.279672178228697,81.22729217126091L27.43485926091671,75.83500100166951L28.1221163413922,70.59271617958L28.421405715147653,67.44809984588555L28.598762381076813,65.5619479075342L28.676355922420818,64.43056531732778L28.687440714041394,63.75178268884854L29.053238837520283,63.346312272377325L29.208425920208295,63.10396501721668L29.35252821127574,62.95951392175669L29.50771529396375,62.87397245088336L29.618563210169476,62.82351874758752L30.09520924985409,62.7975799318008L30.183887582818667,62.78292893875936L30.272565915783247,62.77508428870306L30.660533622503284,62.77490906290661L30.704872788985572,62.77536102565286L30.727042372226716,62.77591636077888L30.88222945491473,62.778283531186986L30.904399038155873,62.78000294656321L30.98199257949988,62.78209644742193L31.07067091246446,62.78459760636644L31.137179662187894,62.787055463768574L31.447553827563922,62.793241210107865L32.65579611420631,62.81916928611594L32.9440006963412,62.84094020712606L32.95508548796177,62.854245789154L33.0215942376852,62.86371722622357L33.08810298740864,62.87090313197525L33.28762923657894,62.87984345121109L33.32088361144066,62.88599655364961L33.42064673602581,62.89207758128925L33.96380152543386,62.9094854021448L33.99705590029558,62.92081247841031L34.13007339974244,62.93118312614887L34.296345274051035,62.94198194577804L34.36285402377447,62.95032695574347L34.418277981877324,62.95690056677432L34.99468714614709,62.97790913782114L35.05011110424996,62.99223044206899L35.061195895870526,63.001167204724496L35.26072214504083,63.01281811600939L35.40482443610827,63.02445613313625L35.970148808757465,63.05051488368255L36.15859026630719,63.07280914020817L36.768253805438675,63.10874630243211L36.801508180300395,63.13158356951016L36.956695262988404,63.15130184271165L37.0010344294707,63.16487140173754L37.53310442725817,63.194500677085045L37.61069796860218,63.215508664166045L37.854563384254774,63.23844033744685L37.987580883701646,63.25793483580468L38.09842879990737,63.274469689799716L38.43097254852454,63.29921165810251L38.55290525635083,63.31960912667751L38.70809233903885,63.33900388960951L39.06280567089717,63.367372388432834L39.384264627893764,63.400010932358086L39.561621293822924,63.42839546275008L39.738977959752084,63.454358447019295L39.78331712623437,63.472190802846015L39.9717585837841,63.49255904847429L40.359726290504135,63.525157078264556L40.825287538568176,63.569994695073824L40.92505066315333,63.60243085818171L41.046983370979625,63.628712335555015L41.12457691232363,63.64885575159801L41.224340036908785,63.666598778414894L41.3795271195968,63.68612825465437L41.401696702837945,63.69912464905592L41.43495107769966,63.708844287597834L41.922681909004844,63.74336102049819L42.421497531930605,63.794431043577106L42.62102378110091,63.837504947153676L42.72078690568606,63.86962692624862L42.8648891967535,63.89804175893501L42.89814357161522,63.91721436181489L42.9868219045798,63.934397334219106L43.430213569402696,63.97359770771808L43.61865502695243,64.00963955548757L43.729502943158145,64.03870136450156L43.76275731801987,64.0583780595183L44.36133606553078,64.11129343820438L44.49435356497765,64.1523787341841L44.749303772250805,64.19512625652061L45.19269543707371,64.25288456510884L45.20378022869428,64.2883508946441L45.29245856165886,64.31615509765172L45.33679772814115,64.33610916938504L45.41439126948515,64.35383206247117L46.001885225375496,64.40878688730037L46.0794787667195,64.4477196114395L46.42310730695724,64.49776387659885L46.46744647343954,64.53127136481865L46.556124806404114,64.55835641056993L46.6448031393687,64.58162164106791L46.68914230585098,64.59909909763292L46.910838138262434,64.62730054707178L46.9662620963653,64.64868194138077L46.97734688798587,64.66240063954682L47.199042720397316,64.6886085579406L47.25446667850018,64.70885739516403L47.46507771929105,64.73831787026387L47.64243438522021,64.77070678271761L47.753282301425934,64.79940515958806L47.8862998008728,64.8278035391811L48.17450438300769,64.86931376040388L48.27426750759284,64.90276705100855L48.66223521431287,64.9564705586388L48.67332000593344,64.98966104199586L48.695489589174585,65.0115195673963L49.18322042047978,65.06784157518119L49.271898753444354,65.10959118927882L49.3716618780295,65.14363304639868L49.39383146127065,65.16606221868408L49.449255419373515,65.18453734491744L49.72637520988783,65.22089748067837L49.737460001508396,65.24373054679847L49.84830791771412,65.26763388333403L49.87047750095527,65.28402107132507L49.92590145905813,65.29897569657956L50.08108854174614,65.32236198598976L50.14759729146957,65.34260035721495L50.247360416054725,65.36408692654656L50.41363229036331,65.39264117974723L50.48014104008675,65.41607006318763L51.06763499597709,65.48650648053813L51.943333534002306,65.61536532283364L52.14285978317261,65.7128408536004L52.55299707313379,65.81326183377561L52.7081841558218,65.88955436381706L53.09615186254184,65.97584849507366L54.016189567049345,66.12609301831141L54.28222456594308,66.24533596259172L55.06924477100372,66.4045779618212L55.15792310396831,66.51015466816894L55.55697560230891,66.61902945024305L55.85626497606437,66.71890936456342L55.889519350926086,66.78269961152867L56.53243726491928,66.8964624374921L57.219694345394764,67.04718562475966L57.39705101132393,67.15919681099308L57.59657726049423,67.25082237140126L57.607662052114804,67.30715867241649L57.98454496721427,67.3875211516115L58.09539288342,67.44953523254225L58.12864725828171,67.49089387586744L58.13973204990228,67.51709246011816L58.16190163314343,67.53557840717974L58.172986424764,67.54805711258648L58.81590433875719,67.63668999080592L59.2592960035801,67.7467498195272L59.602924543817835,67.85738348538855L59.90221391757329,67.9629699392514L59.957637875676156,68.03362017209585L60.20150329132875,68.10825844681439L60.41211433211962,68.18107579034918L60.57838620642821,68.24701273598548L60.75574287235737,68.31042169816214L61.07720182935397,68.39199177572009L61.11045620421568,68.44545790844204L61.38757599473,68.51540157222189L62.08591786682606,68.65406356964074L62.28544411599636,68.76522410742582L62.3076136992375,68.83503494562906L62.32978328247865,68.88003970299737L62.39629203220209,68.91640479858584L62.70666619757811,68.98214114218236L62.86185328026613,69.0436761923733L63.48260161101818,69.16985632128655L63.52694077750047,69.25199159215164L63.64887348532677,69.31899520799895L64.22528264959654,69.44370057743815L64.45806327362855,69.55299284915088L64.51348723173142,69.62680504017055L64.53565681497257,69.67439007711053L64.64650473117828,69.719459622229L65.01230285465718,69.80131757044894L65.14532035410404,69.87048787517266L65.7217295183738,69.9996376847835L66.03210368374984,70.12481742122552L66.34247784912587,70.24796283278727L66.76369993070762,70.38759888600647L66.8856326385339,70.4905312364923L66.91888701339563,70.55752138775557L67.55072013576826,70.69787351221765L67.60614409387111,70.79093853573065L67.72807680169741,70.86629468198474L68.53726658999919,71.04235541123L68.67028408944607,71.16972241813242L68.69245367268721,71.249769369052L68.74787763079009,71.30687562329173L68.75896242241065,71.34295648813884L69.03608221292495,71.410159937712L69.09150617102782,71.45962739159954L69.12476054588954,71.49479658998395L69.21343887885412,71.53056213052375L69.43513471126556,71.5887974149609L69.46838908612727,71.6292684397313L69.64574575205643,71.68311838812097L69.88961116770903,71.75625730026543L70.03371345877648,71.8243650726816L70.05588304201761,71.86896117250716L70.61012262304625,71.98959922915763L70.87615762193998,72.1074210874725L70.95375116328398,72.19140978137182L71.02025991300742,72.25322164169123L71.28629491190117,72.33611793471368L71.31954928676288,72.39160242165912L71.97355199237666,72.53861592826362L72.16199344992637,72.65986107813526L72.3947740739584,72.77358292882293L72.92684407174588,72.93616753918039L72.96009844660759,73.03964448440865L73.48108365277449,73.19509133922635L73.79145781815052,73.34440951495323L73.8801361511151,73.45007401255356L73.92447531759738,73.52151885448136L74.01315365056197,73.58050047985847L74.42329094052315,73.69074625636851L74.47871489862601,73.76705235216754L74.83342823048433,73.87809127925416L74.9221065634489,73.96109481863509L75.02186968803404,74.02935222277594L75.25465031206608,74.11349860214824L75.38766781151294,74.18874925854654L75.40983739475409,74.23803115258123L75.83105947633585,74.34642033934237L75.96407697578272,74.43646344851146L76.42963822384675,74.5784734430679L77.18340405404568,74.80761268100953L77.28316717863082,74.96428433147086L77.31642155349255,75.06468834286537L78.15886571665605,75.28829512802946L78.18103529989719,75.42678886177644L78.19212009151776,75.51204993334893L78.77961404740812,75.67851842926645L79.08998821278414,75.83975510890912L79.8215844597419,76.08230729283302L80.25389133294424,76.31477209735097L81.25152257879576,76.65704968650164L81.42887924472491,76.898784658457L81.58406632741291,77.07572605762111L82.26023861626783,77.32173002727363L82.50410403192043,77.5200993861308L83.09159798781077,77.76214997333678L83.31329382022221,77.95406814732915L83.33546340346335,78.0738964333941L83.69017673532169,78.22081845745606L83.95621173421542,78.36548162117664L84.11139881690343,78.4853389988032L84.58804485658804,78.65922857138652L84.89841902196407,78.83031315022542L84.92058860520521,78.93774222988185L84.96492777168751,79.01176008129603L85.13119964599609,79.0920755852482L85.58567610243956,79.23880771038736L85.61893047730129,79.33408178445613L86.20642443319161,79.51954706981711L86.55005297342936,79.70631865773218L86.56113776504993,79.82082312145663L86.74957922259966,79.931068875415L86.78283359746138,80.0045595552872L87.15971651256085,80.13207287802211L87.18188609580199,80.21350128275589L87.259479637146,80.27958350333523L87.65853213548661,80.40809560957585L87.89131275951861,80.53724108121531L88.15734775841236,80.674379001414L88.21277171651522,80.76911233783343L88.27928046623865,80.84090425758802L88.57856983999412,80.95141446602906L88.80026567240556,81.06782951925939L88.85568963050842,81.15022634726711L89.02196150481701,81.23735269925082L89.07738546291986,81.30220995673845L89.55403150260449,81.44965003492432L89.8311512931188,81.60148493868408L89.85332087635994,81.69766706534358L90.0306775422891,81.79604825005336L90.14152545849481,81.88054270552455L90.69576503952344,82.05903546630937L90.90637608031432,82.21490151966084L91.05047837138176,82.34185826140055L91.1169871211052,82.43348149993643L91.26108941217264,82.5219710699851L91.89292253454526,82.72263227782861L92.14787274181843,82.90285910763153L92.2032966999213,83.02402532151515L92.46933169881504,83.15936681842379L92.59126440664133,83.26934266137084L92.71319711446762,83.36413650108301L92.85729940553506,83.4551079635391L93.12333440442879,83.57276632363887L94.17638960838318,83.89474349730897L94.18747440000375,84.09058816951026L94.23181356648604,84.2187396615706L94.45350939889748,84.34892503987456L95.0520881464084,84.57151912845272L95.16293606261412,84.73192472450049L95.37354710340499,84.87926221418769L95.97212585091592,85.11344497282468L96.07188897550105,85.27833234861875L96.1383977252245,85.39352905088379L96.20490647494792,85.47892256577401L96.23816084980965,85.53830016038795L96.31575439115365,85.59293348751378L96.40443272411824,85.6474515309729L96.43768709897995,85.68831879838501L96.57070459842681,85.74549109657819L96.86999397218227,85.85340808780501L96.91433313866457,85.92908152038886L97.03626584649086,86.00454645014155L97.91196438451608,86.26670486532633L98.06715146720408,86.46261355088184L98.15582980016868,86.60224639787691L98.32210167447725,86.72748879514225L99.04261312981447,86.98300319362991L99.36407208681106,87.21714715781891L99.39732646167278,87.36600870414989L99.68553104380766,87.52800638516537L99.92939645946025,87.68684286388925L100.78292541424435,87.99885969623175L100.94919728855292,88.2284634743424L101.0378756215175,88.3888592583444L101.29282582879065,88.55025665604057L101.49235207796097,88.6981817488884L101.93574374278386,88.90075122243232L102.16852436681589,89.08220339831088L102.51215290705363,89.27971127342165L103.09964686294397,89.55029446428992L103.22157957077026,89.74429241809294L103.42110581994056,89.91254058310255L103.53195373614629,90.04232772736587L103.54303852776687,90.1230845862325L103.75364956855775,90.22640165912888L104.00859977583092,90.35491653384626L104.21921081662178,90.48707162304915L104.6515176898241,90.67961825727548L104.68477206468583,90.80387286356401L104.76236560602982,90.89879523192204L104.87321352223555,90.98486544730267L104.90646789709726,91.04524728848351L105.07273977140586,91.12520673372525L105.43853789488475,91.26956413122804L105.64914893567563,91.41178183231862L106.52484747370083,91.72915507686157L106.91281518042086,92.02281231422448L107.10125663797061,92.24924270789087L107.2675285122792,92.42947811678125L107.38946122010549,92.57019278266311L107.45596996982891,92.67240011923356L107.73308976034323,92.8078784065892L107.7885137184461,92.90401260730778L107.84393767654895,92.9765440949583L108.04346392571927,93.07357058872599L108.16539663354557,93.16451880938791L108.19865100840728,93.22802000781908L108.42034684081872,93.32570967200844L108.5090251737833,93.40818148205953L108.61987308998903,93.48750484235448L109.00784079670906,93.63969872231026L109.06326475481191,93.74597631547213L109.73943704366684,93.99268233501313L109.7505218352874,94.14371016430086L110.10523516714572,94.33058894697675L110.67055953979492,94.59653327748904L110.7592378727595,94.78027195612708L111.14720557947953,94.99640869140335L111.26913828730584,95.15941754432895L111.4021557867527,95.29360623020608L111.59059724430243,95.42570337155166L112.25568474153677,95.68744123355575L112.8542634890477,96.00925416082639L112.89860265552997,96.21456629717963L113.05378973821799,96.38056227717344L113.24223119576773,96.53218685632221L113.30873994549115,96.64153649766837L113.77430119355519,96.83593318224231L113.95165785948436,97.00170800345926L114.07359056731066,97.1349801584245L114.26203202486037,97.26722655817909L114.48372785727183,97.40814683714787L114.5391518153747,97.50810146159364L114.56132139861583,97.57423596686976L114.62783014833927,97.63240747023266L114.84952598075073,97.72898376204994L114.88278035561244,97.79618708871006L114.9382043137153,97.8519395836272L115.03796743830046,97.91317682148654L116.03559868415196,98.22845331676379L116.04668347577254,98.42072064326263L116.06885305901369,98.54228576728391L116.37922722438971,98.70213777183214L116.43465118249257,98.81358042416565L116.49007514059544,98.89598307354161L117.13299305458864,99.12590205180754L117.42119763672352,99.34491122925867L117.52096076130866,99.50439598140346L117.88675888478755,99.70314065544565L117.89784367640813,99.82551319214576L117.99760680099328,99.92706830463877L118.41882888257503,100.10690071328763L118.50750721553962,100.23985649201691L118.56293117364247,100.33529414031328L118.91764450550079,100.49288114467728L119.4386297116677,100.73501950768107L119.48296887814999,100.89287649395229L119.73791908542316,101.05992371991093L119.93744533459345,101.21680595296638L119.97069970945518,101.32038165953676L120.20348033348719,101.44867782303812L120.32541304131348,101.56032834201228L120.59144804020723,101.70301297146233L120.66904158155124,101.81071512370832L120.85748303910096,101.92900665900117L120.8796526223421,102.006298475725L120.91290699720383,102.06214797435294L121.14568762123584,102.16201405337006L121.22328116257985,102.24406433395545L121.47823136985302,102.36604255597925L121.66667282740275,102.49303620350726L121.86619907657305,102.62623961689664L121.93270782629648,102.72517030474482L122.0435557425022,102.81621975424912L122.25416678329309,102.93109080961102L122.55345615704854,103.08568318399068L122.64213449001313,103.20383518335105L122.87491511404514,103.3414248734573L123.66193531910578,103.64979601925957L124.3381076079607,104.02919924784986L124.44895552416642,104.28873786208071L124.52654906551044,104.46679356516135L124.8258384392659,104.65980708996116L125.05861906329791,104.84268571729444L125.34682364543279,105.03550091459891L125.44658677001794,105.17996471669771L125.80130010187625,105.36900138267029L126.03408072590828,105.54963784290409L126.51072676559289,105.79575010158727L126.54398114045462,105.95303207467346L126.76567697286605,106.11151055092877L126.84327051421006,106.22904233865022L127.13147509634494,106.38295602315235L127.90741050978502,106.70004475830127L128.00717363437016,106.9192166313036L128.08476717571418,107.0732130629579L128.22886946678162,107.20739328818327L128.4727348824342,107.35863233277786L128.5946675902605,107.48475149627836L128.7166002980868,107.59580620895083L128.89395696401596,107.71391453786165L129.1599919629097,107.86201989429715L129.22650071263314,107.97019833893775L129.4814509199063,108.10916020990908L129.6809771690766,108.25051106668626L130.3571494579315,108.53189686449942L130.45691258251668,108.7297460563267L130.94464341382186,108.99035858221792L131.2550175791979,109.23706574275633L131.2882719540596,109.39477195741136L131.7316636188825,109.61850226313508L131.99769861777622,109.8302275739958L132.71821007311345,110.1672065319965L133.5828238195181,110.62145280787809L133.63824777762093,110.91016203005503L133.67150215248267,111.09308443734999L133.8266892351707,111.2480936992555L133.95970673461755,111.37989236072526L134.2146569418907,111.53332921384464L134.28116569161415,111.64478881260806L134.44743756592274,111.76016389746684L134.6247942318519,111.88112243476958L134.89082923074562,112.03130432983222L135.07927068829537,112.17638672241529L135.7443581855297,112.45746711059599L135.866290893356,112.66168924270096L136.08798672576745,112.8489001293266L136.16558026711147,112.98386391735175L136.2210042252143,113.08101299410035L137.41816172023616,113.48852263520008L137.45141609509787,113.74272716330582L137.6841967191299,113.96313921483339L137.73962067723275,114.11154977185501L138.21626671691735,114.33958463324059L138.33819942474366,114.51195514632617L138.44904734094936,114.6476947591022L138.49338650743167,114.74206395317198L138.81484546442826,114.8923882679443L138.91460858901343,115.01165852311722L139.16955879628657,115.15751850983122L139.18064358790716,115.24826492373211L139.313661087354,115.34147035671418L139.65728962759175,115.49750117486576L139.75705275217692,115.62017663749523L139.94549420972663,115.74866356722038L140.00091816782952,115.8418947482182L140.10068129241466,115.92688295072703L140.18935962537924,116.00369681372702L140.27803795834384,116.07560233410757L140.46647941589356,116.17359925662679L140.79902316451071,116.32917546540179L140.90987108071644,116.45477306459287L141.3200083706776,116.6494291596233L141.41977149526278,116.79523118249543L141.43085628688337,116.88593534026279L141.67472170253595,117.01125512606465L141.75231524387996,117.10900199748308L142.062689409256,117.25784207822676L142.1735373254617,117.37934752525727L142.22896128356456,117.4683505580392L142.35089399139088,117.55716737305127L142.45065711597601,117.6394284387703L142.60584419866402,117.73384273327746L143.02706628024578,117.9127407182618L143.0603206551075,118.02972590789945L143.43720357020698,118.20922604790113L143.48154273668925,118.32978051893642L143.7364929439624,118.47601471026219L143.80300169368587,118.5830274583236L143.825171276927,118.65366043122049L144.26856294174988,118.82446630950417L144.33507169147333,118.94620524462638L144.35724127471448,119.02566645193134L144.47917398254077,119.10863665694556L144.5345979406436,119.17445872189046L144.68978502333164,119.25885445099364L144.7895481479168,119.33835256719833L144.96690481384596,119.43734186197538L145.24402460436025,119.57684354512533L145.45463564515111,119.72139725314695L145.55439876973628,119.83694528973228L145.75392501890659,119.96388704065714L146.05321439266206,120.12642661770212L146.30816459993522,120.29748358958459L146.33033418317635,120.40651131600339L146.34141897479694,120.47512285404221L146.99542168041071,120.70471048873284L147.0286760552724,120.85203655936726L147.12843917985757,120.96914706283674L147.54966126143933,121.16057474916506L148.1149856340885,121.43784044671027L148.66922521511714,121.76319158340284L148.7579035480817,121.98381753472196L149.15695604642232,122.23048984328102L149.34539750397204,122.4324195879847L149.5670933363835,122.61698568079723L149.87746750175953,122.81642359815275L149.91072187662124,122.945585060102L149.98831541796525,123.0452424817603L150.0104850012064,123.11136691650313L150.19892645875612,123.20483333600572L150.2876047917207,123.28621442012762L150.38736791630586,123.36349994660948L150.55363979061443,123.4572806946088L150.7309964565436,123.56409178562178L151.16330332974593,123.75125227909172L151.2963208291928,123.9013826480067L151.42933832863966,124.02927811707485L151.55127103646595,124.14066578590385L151.70645811915398,124.2515792509411L151.72862770239513,124.3244227267549L152.1276802007357,124.48136182891963L152.52673269907635,124.68859940304128L152.8260220728318,124.89764050571225L152.99229394714035,125.0700801439765L153.32483769575757,125.2674869505031L153.5908726946513,125.46100001908394L153.79039894382157,125.63335888970721L154.15619706730047,125.83978877623736L154.45548644105594,126.04781901417917L154.59958873212338,126.21312866304801L154.62175831536453,126.31854161397655L154.6328431069851,126.38490296533726L154.85453893939652,126.48695961145515L154.9099628974994,126.56374467803002L155.0651499801874,126.65333948349839L155.17599789639314,126.73816767854545L155.231421854496,126.80459417572114L155.30901539584002,126.86618625175313L155.5196264366309,126.96210417437374L155.65264393607774,127.05686647156413L156.04061164279778,127.22213553668843L156.72786872327328,127.51288361323282L156.89414059758187,127.7335949793375L157.01607330540816,127.89992440354756L157.06041247189046,128.01204645401944L157.2377691378196,128.12858829150085L157.6035672612985,128.30000248115053L157.70333038588367,128.43049839602386L158.19106121718883,128.64377355190783L158.4127570496003,128.83298486428987L158.446011424462,128.95569349027625L158.62336809039115,129.07825918334495L158.8007247563203,129.20069611914968L159.58774496138096,129.49060869756076L159.6875080859661,129.691930704954L160.03113662620385,129.90690248455283L160.24174766699474,130.09352371895673L160.27500204185645,130.21459043367238L160.51886745750903,130.3538747387359L161.23937891284623,130.6338280514393L161.32805724581084,130.8259151009504L161.56083786984286,131.00441293387948L161.80470328549544,131.17767919830996L162.12616224249206,131.36871639932875L162.63606265703837,131.62112612092446L162.9464368224144,131.85623763703097L163.60043952802818,132.17308398963758L163.77779619395733,132.41073770368018L164.12142473419507,132.6453016131596L164.4428836911917,132.87189571099148L164.720003481706,133.08172376708154L164.77542743980885,133.22237902982843L164.9195297308763,133.34511942628416L165.06363202194373,133.45707444855168L165.13014077166716,133.5419175704416L165.5957020197312,133.7162926726148L165.60678681135178,133.82385278156903L165.8284826437632,133.9470439982497L166.47140055775643,134.1905586807497L166.65984201530617,134.3862352105843L166.9591313890616,134.58223217033037L166.97021618068217,134.70273828670037L167.05889451364675,134.79829426395875L167.19191201309363,134.8904792043404L167.32492951254048,134.98060787236815L167.4912013868491,135.07816116755208L167.53554055333137,135.1482781703244L167.72398201088112,135.239542200902L167.92350826005142,135.34631545892987L168.1230345092217,135.46231760568674L168.28930638353032,135.57514261139937L168.40015429973602,135.67162351528566L168.43340867459776,135.738143341058L168.5664261740446,135.81255793679847L168.5775109656652,135.86008098453726L168.62185013214747,135.90008730071594L168.9322242975235,136.00443100938753L169.22042887965839,136.14146966911204L169.58622700313728,136.3179275238228L169.75249887744584,136.4665473732896L170.15155137578645,136.6580814065972L170.7390453316768,136.92311268878356L170.78338449815908,137.09343139154925L171.00508033057054,137.2520633925793L171.54823511997859,137.48508981680905L171.86969407697518,137.70619620924774L172.3352553250392,137.95620306282643L172.90057969768844,138.24806718825516L173.066851571997,138.46477734512075L173.15552990496158,138.6169611795432L173.222038654685,138.72487786763494L173.77627823571362,138.92763961632676L173.80953261057536,139.05755592701908L173.84278698543707,139.14376217072606L173.9868892765045,139.23123554511443L174.28617865025996,139.35782111036195L174.56329844077428,139.50220579619133L174.6408919821183,139.6079667622151L174.8847573977709,139.73145721775035L175.11753802180291,139.8627297712689L175.26164031287036,139.97682791206753L175.64960801959037,140.1401785695941L175.90455822686354,140.30035682531306L175.93781260172526,140.40456133218237L176.0819148927927,140.50214383479744L176.12625405927497,140.57147169128885L176.66940884868305,140.74472211741607L176.6804936403036,140.85135130511978L176.8911046810945,140.96618459401998L176.9243590559562,141.0431045383283L177.02412218054135,141.11330146216096L177.03520697216194,141.15809013593096L177.10171572188537,141.20097804445842L177.32341155429683,141.2800174241138L177.34558113753795,141.33276526573394L178.2545340504249,141.58167760147364L178.32104280014832,141.74684341418723L179.15240217169125,142.04274812878577L179.46277633706728,142.2933241034256L179.81748966892562,142.52683903049788L179.88399841864904,142.68250654347383L180.1389486259222,142.83544552104826L180.54908591588338,143.02264001901426L180.56017070750397,143.13753002549498L180.6266794572274,143.22189733249013L180.72644258181253,143.29564570522626L180.91488403936228,143.38351056515367L181.04790153880916,143.4669619537764L181.11441028853258,143.53238149712288L181.33610612094404,143.62271380162528L181.3804452874263,143.68711387700455L181.64648028632004,143.78685058451563L181.76841299414636,143.8746335148708L182.32265257517497,144.05381270673547L182.5886875740687,144.2217555636879L182.84363778134187,144.3802617972803L183.24269027968248,144.56539158101052L183.50872527857624,144.73624814627513L183.53089486181736,144.84373530868987L183.54197965343792,144.91071351672028L184.2070671506723,145.09944610078153L184.37333902498085,145.24963313402068L184.43984777470428,145.3545028483284L184.77239152332146,145.49102987666697L184.8721546479066,145.594967830969L184.91649381438893,145.66710926628724L184.98300256411235,145.72505207325176L185.16035923004148,145.7988445438947L185.63700526972613,145.9475703334911L185.77002276917298,146.06584081286647L186.00280339320503,146.187494831909L186.0138881848256,146.26289744090346L186.05822735130786,146.31777559029737L186.10256651779014,146.36033392292393L186.14690568427247,146.3954942897545L186.33534714182218,146.45743721280598L186.4018558915456,146.50899544950195L186.44619505802788,146.54951836963212L186.74548443178335,146.6384045721109L187.0447738055388,146.75605216101155L187.2553848463297,146.87174557321947L187.610098178188,147.01683864613156L187.6211829698086,147.10625374474174L187.63226776142915,147.16226159140646L187.89830276032288,147.25236736876747L188.61881421566008,147.45841723022357L188.75183171510696,147.6099399144254L189.45017358720304,147.8464290842185L189.91573483526707,148.08456597662658L189.96007400174935,148.2365804100154L190.44780483305456,148.42785269616914L190.65841587384543,148.58560283183218L191.0685531638066,148.76357788782224L191.40109691242375,148.9375470033886L191.47869045376777,149.05755619937375L191.5895383699735,149.1518545255435L191.7890646191438,149.24846607563057L192.04401482641697,149.35740655775825L192.2324562839667,149.46031749083843L192.29896503369014,149.5352899923199L192.37655857503415,149.59568576492308L192.89754378120102,149.7349219022558L192.95296773930392,149.82937093211785L193.13032440523307,149.92087908522626L193.1968331549565,149.9888234403787L193.30768107116222,150.05129117887606L193.50720732033253,150.12773598162576L193.69564877788224,150.2102876873551L193.7178183611234,150.2641268746846L194.07253169298173,150.36515396697826L194.29422752539315,150.46851956527328L194.41616023321944,150.55398425313246L194.93714543938637,150.70490325993484L195.07016293883322,150.82075542907228L195.1920956466595,150.91340874002213L195.90152231037618,151.10269308179426L196.24515085061392,151.28043373661697L196.6552881405751,151.4631636314748L196.92132313946883,151.6218593942995L197.021086264054,151.7354134219806L197.08759501377742,151.81575199137342L197.253866888086,151.89440671974583L197.44230834563572,151.9760013063628L197.59749542832375,152.05320041413924L197.63074980318544,152.10556149679496L197.84136084397636,152.17515573196397L198.05197188476723,152.25494263889414L199.3045533378919,152.52592701036397L199.3932316708565,152.70411311175616L199.45974042057992,152.8227037384728L199.72577541947365,152.9404244214599L199.7368602110942,153.0129917193529L200.15808229267597,153.12975405913664L200.4573716664314,153.251469703746L200.5903891658783,153.34735998036726L200.8231697899103,153.44475447698963L201.4771724955241,153.6141817778455L201.62127478659153,153.74009506530567L201.73212270279726,153.8342532495514L201.77646186927956,153.89818018680842L202.05358165979385,153.9828325195685L202.29744707544643,154.07414346718483L203.09555207212765,154.26008553766928L203.33941748778025,154.41127999897535L203.38375665426253,154.50917936362754L203.40592623750368,154.57150787269066L203.41701102912427,154.61069872221805L203.52785894532997,154.65212683725142L203.74955477774142,154.71268075595464L204.0377593598763,154.79515925365L204.4146422749758,154.9045460946411L204.51440539956093,154.98594940671364L205.135153730313,155.1321249116621L205.73373247782388,155.31237885688319L206.02193705995876,155.46463124969097L206.07736101806165,155.56442912624524L206.2990568504731,155.65798214927648L206.86438122312228,155.799176831746L206.90872038960458,155.890516193012L207.2634337214629,155.99804130423755L207.8065885108709,156.14239480806958L208.02828434328237,156.2612828535551L208.3829976751407,156.383881335594L208.49384559134643,156.4733658625062L208.504930382967,156.52864655191888L208.7820501734813,156.60141847954674L208.83747413158417,156.65296840827307L208.88181329806645,156.69019937067162L209.03700038075445,156.7345344477388L209.5025616288185,156.82658892603914L209.77968141933283,156.92039902873262L210.61104079087573,157.09069603486182L211.35372182945412,157.29252985564725L211.69735036969183,157.45903552221523L212.07423328479132,157.6082243544682L212.08531807641188,157.69917900524575L212.32918349206446,157.785344919692L212.75040557364622,157.89108159326128L212.8058295317491,157.96158336846696L212.86125348985195,158.01093252054756L212.97210140605767,158.05460313338963L213.27139077981312,158.11853558537663L213.2824755714337,158.1582859326528L213.36006911277772,158.19185872004246L213.51525619546572,158.23137849745245L213.637188903292,158.2702496746986L213.83671515246232,158.31825540737114L213.85888473570347,158.34979199325798L214.1138349429766,158.4000090072031L214.1249197345972,158.431494221446L214.13600452621776,158.4517398885033L214.1692589010795,158.4679478664046L214.37986994187037,158.50329145959094L214.7678376485904,158.57124198824886L214.95627910614016,158.63450678170722L215.1003813972076,158.68957457865778L215.11146618882816,158.72392796623703L215.2223141050339,158.75764127099742L215.34424681286015,158.7922255159874L215.4550947290659,158.8259772023982L215.54377306203045,158.8565947043992L215.6546209782362,158.88788034998996L216.19777576764423,158.96924478319713L216.2864541006088,159.02817346712973L216.33079326709114,159.06857423906877L216.64116743246714,159.12790417835717L216.79635451515514,159.18090561914042L216.8628632648786,159.22013629033958L217.0180503475666,159.26094333567582L217.04021993080775,159.28788683369544L217.11781347215177,159.31264507418967L217.16215263863404,159.33239928134557L217.19540701349575,159.34792108256636L217.20649180511631,159.35845632087936L217.25083097159865,159.36966130370539L217.52795076211294,159.40673294315607L217.63879867831866,159.44103088726746L217.68313784480097,159.46641801424204L217.8604945107301,159.50080661735242L218.01568159341812,159.53809979670754L218.4147340917587,159.6028794313577L218.4258188833793,159.642916207042L218.5034124247233,159.67510698210143L218.62534513254963,159.70720981896744L218.95788888116678,159.76104981753568L219.16849992195765,159.81502666654384L219.17958471357824,159.84854858797937L219.23500867168107,159.87433344000644L219.53429804543654,159.92022041827443L219.73382429460685,159.96783221028716L219.9555201270183,160.01852384293431L221.18593199690184,160.16816286500605L221.28569512148698,160.2673473106515L221.46305178741613,160.34347242751082L221.49630616227785,160.3922486932767L221.596069286863,160.4307911662413L221.90644345223905,160.48252168050416L222.28332636733847,160.54777333243183L222.29441115895906,160.58792191263456L222.39417428354423,160.6209672207888L222.42742865840592,160.64377081507007L222.85973553160827,160.69574050466025L223.02600740591686,160.74144712378995L223.13685532212259,160.77849213940283L223.30312719643115,160.8150574173797L223.3252967796723,160.83889986675737L223.4139751126369,160.86079866218915L223.59133177856603,160.88902883980253L223.81302761097749,160.92465117695735L224.07906260987122,160.96818208587118L224.32292802552382,161.01435885435578L224.63330219089985,161.06724352316508L224.76631969034673,161.1096449519075L225.23188093841074,161.17186463187244L225.26513531327248,161.2117896689547L225.71961176971595,161.27073187297327L225.80829010268053,161.31282537149497L226.7061582239469,161.4043891861432L226.71724301556748,161.46012544101205L227.68161988655726,161.56105255060183L227.77029821952183,161.6276220419658L228.25802905082702,161.7000564201532L228.2691138424476,161.7442440906168L228.83443821509678,161.80716279260463L228.93420133968195,161.85120134855504L229.49952571233115,161.9124739374845L229.61037362853685,161.95591533766236L229.68796716988086,161.9866243473648L229.74339112798373,162.00835171100317L230.00942612687749,162.03705996333503L230.41956341683866,162.07786948896015L230.60800487438837,162.11295683714093L231.07356612245243,162.15956773329313L231.6056361202399,162.21563793644194L231.62780570348104,162.25042542211924L232.04902778506278,162.29266989764045L232.3261475755771,162.3316728794535L232.53675861636796,162.36523873154403L232.59218257447085,162.3880221809256L232.64760653257372,162.40432330695393L232.847132781744,162.42346940765754L232.90255673984686,162.43752900289826L232.95798069794975,162.44852384234363L233.0909981973966,162.4612100351568L233.32377882142862,162.47929970737897L233.84476402759552,162.51278114197902L234.07754465162753,162.5426122402728L234.4876819415887,162.57712232545848L234.6650386075179,162.6047928783474L235.04192152261732,162.63575579533406L235.16385423044363,162.6588517604495L235.30795652151107,162.67796839984464L235.71809381147224,162.7039282095623L235.79568735281626,162.7221657495472L235.84002651929853,162.73461783093782L236.11714630981285,162.75133626169716L236.40535089194773,162.7706411345388L236.84874255677065,162.79580772341464L237.30321901321412,162.82397028916435L237.3364733880758,162.8417894052424L237.3918973461787,162.8540064614231L237.9461369272073,162.8758792092316L238.16783275961876,162.8944565535556L238.33410463392735,162.90955693494672L238.36735900878907,162.91939394511502L238.38952859203022,162.92581139842207L238.61122442444167,162.93470013762482L238.6777331741651,162.94150434082928L238.93268338143824,162.95105227170805L239.20980317195256,162.96240988889292L239.2319727551937,162.96966073280117L239.37607504626115,162.97679633954098L239.60885567029317,162.98539110341716L239.81946671108406,162.99425295552433L239.8859754608075,163.00070105912513L240.04116254349552,163.00713607977383L240.1630952513218,163.01294183325203L240.26285837590694,163.01796961391048L240.30719754238925,163.02165912438022L240.77275879045325,163.030434984742L240.85035233179727,163.03670493981284L240.89469149827957,163.04102942592507L240.95011545638243,163.0443155465252L240.96120024800302,163.04642394301797L241.4045919128259,163.05273107011303L241.61520295361677,163.05861851116893L241.91449232737224,163.06481630679917L242.1694425346454,163.07050599259907L242.490901491642,163.0760122642278L242.94537794808545,163.0815268260194L243.0562258642912,163.08524193998323L243.18924336373806,163.08788989203705L243.3776848212878,163.08994365883183L243.55504148721695,163.09147601881864L243.64371982018153,163.0924954684302L243.74348294476667,163.0931798189865L243.82107648611068,163.093617782326L243.86541565259296,163.09388472840786" fill="none"></path></g></g></g></g><g opacity="0.2"><g><g><g><path style="fill: none;" stroke="rgb(0, 119, 187)" stroke-width="2px" d="M22.380194281935694,159.28038789519704L22.64622928082943,154.46283404002816L22.679483655691147,153.86063926043954L22.967688237826028,148.64162212151066L23.222638445099197,144.0247991779651L23.89881073395411,131.78018231395757L23.93206510881583,131.1779881185743L24.03182823340098,129.37140553242446L24.71908531387647,116.92605571207488L24.774509271979333,115.92240027765035L25.007289896011354,111.70704090996742L25.140307395458223,109.29826412843431L25.206816145181655,108.09387573766776L25.594783851901692,101.06827367576771L25.616953435142836,100.66681243672643L25.705631768107416,99.06095813327586L26.027090725104014,93.23974913578512L26.248786557515462,89.22511805080143L26.847365305026372,78.38562253390245L27.279672178228697,70.5570933202771L27.43485926091671,67.7468599733455L28.1221163413922,62.729461446060775L28.421405715147653,62.731237430307814L28.598762381076813,62.732742343275035L28.676355922420818,62.733499473401395L28.687440714041394,62.733611640827526L29.053238837520283,62.73810768515817L29.208425920208295,62.740444506535844L29.35252821127574,62.742837411626574L29.50771529396375,62.74566029185081L29.618563210169476,62.7478382093748L30.09520924985409,62.75867171328168L30.183887582818667,62.7609524509463L30.272565915783247,62.76331731418049L30.660533622503284,62.77464622421945L30.704872788985572,62.77603896976054L30.727042372226716,62.776749363459345L30.88222945491473,62.78183428677716L30.904399038155873,62.78258206961802L30.98199257949988,62.78523669870305L31.07067091246446,62.788349344778105L31.137179662187894,62.790742249868856L31.447553827563922,62.80251982961232L32.65579611420631,62.85806140011682L32.9440006963412,62.873596588635586L32.95508548796177,62.87420416219378L33.0215942376852,62.87792438182702L33.08810298740864,62.881681990602324L33.28762923657894,62.89325393006457L33.32088361144066,62.89522620730731L33.42064673602581,62.901199122748636L33.96380152543386,62.93559713342797L33.99705590029558,62.937803092808494L34.13007339974244,62.946739097756705L34.296345274051035,62.9581801752218L34.36285402377447,62.96284447069163L34.418277981877324,62.9667609833206L34.99468714614709,63.009421994391374L35.05011110424996,63.013712398440795L35.061195895870526,63.014572348707766L35.26072214504083,63.03029448293674L35.40482443610827,63.04191315882654L35.970148808757465,63.089603009502056L36.15859026630719,63.1062505249966L36.768253805438675,63.162652045768084L36.801508180300395,63.16583947012723L36.956695262988404,63.18087925251392L37.0010344294707,63.185225740276394L37.53310442725817,63.238944590106314L37.61069796860218,63.24702064478753L37.854563384254774,63.272837847368066L37.987580883701646,63.28717658334145L38.09842879990737,63.29927197079229L38.43097254852454,63.33632461055665L38.55290525635083,63.35020532954001L38.70809233903885,63.36809603400747L39.06280567089717,63.409925136667795L39.384264627893764,63.44896874824594L39.561621293822924,63.470972258338094L39.738977959752084,63.49330292342312L39.78331712623437,63.498939336586076L39.9717585837841,63.52311141691672L40.359726290504135,63.57405412294996L40.825287538568176,63.63725112028771L40.92505066315333,63.65108510284353L41.046983370979625,63.66813455161502L41.12457691232363,63.67907087566253L41.224340036908785,63.69321331864021L41.3795271195968,63.71542246901359L41.401696702837945,63.718619240658256L41.43495107769966,63.723423745410734L41.922681909004844,63.79513611984873L42.421497531930605,63.87103607819551L42.62102378110091,63.902115802518544L42.72078690568606,63.917809894891L42.8648891967535,63.94066400796463L42.89814357161522,63.94597326613471L42.9868219045798,63.96017179282544L43.430213569402696,64.03239826796651L43.61865502695243,64.06370232714181L43.729502943158145,64.08229407802256L43.76275731801987,64.08789310204347L44.36133606553078,64.19066650623346L44.49435356497765,64.21400667815365L44.749303772250805,64.25924754002538L45.19269543707371,64.33952202799115L45.20378022869428,64.34155038894697L45.29245856165886,64.35786140216314L45.33679772814115,64.36604027698499L45.41439126948515,64.38041640210041L46.001885225375496,64.4912191245441L46.0794787667195,64.50611869764815L46.42310730695724,64.57283027433792L46.46744647343954,64.58153259714837L46.556124806404114,64.59898397919682L46.6448031393687,64.61651948681487L46.68914230585098,64.62531528248043L46.910838138262434,64.66960272123006L46.9662620963653,64.68075403284432L46.97734688798587,64.68297868679586L47.199042720397316,64.72792043553123L47.25446667850018,64.73923065099918L47.46507771929105,64.78250858291366L47.64243438522021,64.8192901513982L47.753282301425934,64.84245272489369L47.8862998008728,64.87040110857066L48.17450438300769,64.93157909223811L48.27426750759284,64.95294698691553L48.66223521431287,65.03702582008417L48.67332000593344,65.03944676703144L48.695489589174585,65.04430735549698L49.18322042047978,65.1523245868585L49.271898753444354,65.17221561042524L49.3716618780295,65.19469583207844L49.39383146127065,65.19970597711216L49.449255419373515,65.21225003426751L49.72637520988783,65.27543768431975L49.737460001508396,65.27798014597866L49.84830791771412,65.30348888813734L49.87047750095527,65.30860185331167L49.92590145905813,65.32140763446131L50.08108854174614,65.35744142010502L50.14759729146957,65.37295791405276L50.247360416054725,65.39631678054397L50.41363229036331,65.43547255954823L50.48014104008675,65.45121338834824L51.06763499597709,65.59216110656388L51.943333534002306,65.80865358627692L52.14285978317261,65.85905414975053L52.55299707313379,65.96389330403841L52.7081841558218,66.00399315887927L53.09615186254184,66.10528969195857L54.016189567049345,66.35145980316803L54.28222456594308,66.4242003790122L55.06924477100372,66.64344096066537L55.15792310396831,66.66851972769055L55.55697560230891,66.7823416233542L55.85626497606437,66.86872923604398L55.889519350926086,66.87838498197651L56.53243726491928,67.06710667643728L57.219694345394764,67.27327040566101L57.39705101132393,67.32721359034318L57.59657726049423,67.38826071201348L57.607662052114804,67.39166312393937L57.98454496721427,67.50806487040396L58.09539288342,67.5425563539384L58.12864725828171,67.55293184085525L58.13973204990228,67.55639033649422L58.16190163314343,67.56330732777211L58.172986424764,67.56677517069657L58.81590433875719,67.76963930813503L59.2592960035801,67.91183956260912L59.602924543817835,68.0233339841806L59.90221391757329,68.12134962004566L59.957637875676156,68.13959552136254L60.20150329132875,68.2202158588922L60.41211433211962,68.29030180565134L60.57838620642821,68.34591815443993L60.75574287235737,68.40553514142708L61.07720182935397,68.51434689205699L61.11045620421568,68.52565710752494L61.38757599473,68.62031706789168L62.08591786682606,68.86205656576907L62.28544411599636,68.9319649141035L62.3076136992375,68.9397512029339L62.32978328247865,68.9475468390498L62.39629203220209,68.97095244196856L62.70666619757811,69.0807456575771L62.86185328026613,69.13597876765976L63.48260161101818,69.35912651465638L63.52694077750047,69.37519449844928L63.64887348532677,69.41950063176992L64.22528264959654,69.63075863159696L64.45806327362855,69.71693125671999L64.51348723173142,69.73752332670004L64.53565681497257,69.74576763252047L64.64650473117828,69.78706393990669L65.01230285465718,69.92410449277887L65.14532035410404,69.97424333225818L65.7217295183738,70.19336239919973L66.03210368374984,70.31258702588853L66.34247784912587,70.43268095012985L66.76369993070762,70.5970529658353L66.8856326385339,70.64492976222104L66.91888701339563,70.65800661465049L67.55072013576826,70.90840169891077L67.60614409387111,70.93053607100009L67.72807680169741,70.97932890136586L68.53726658999919,71.30644650509788L68.67028408944607,71.360772928486L68.69245367268721,71.36983979543137L68.74787763079009,71.39253500465132L68.75896242241065,71.39707778540952L69.03608221292495,71.51096511207173L69.09150617102782,71.53382857243088L69.12476054588954,71.54755038756056L69.21343887885412,71.58421044133348L69.43513471126556,71.67615034161659L69.46838908612727,71.68997497688689L69.64574575205643,71.76389331070541L69.88961116770903,71.86596566848212L70.03371345877648,71.92652673130587L70.05588304201761,71.93585532224553L70.61012262304625,72.17055631413338L70.87615762193998,72.28415387494475L70.95375116328398,72.31739282222075L71.02025991300742,72.34593943217041L71.28629491190117,72.46046237424736L71.31954928676288,72.47482915207728L71.97355199237666,72.75913618817034L72.16199344992637,72.84172880294278L72.3947740739584,72.9441657048544L72.92684407174588,73.1800444547166L72.96009844660759,73.19485990225104L73.48108365277449,73.42826162145289L73.79145781815052,73.56838677854361L73.8801361511151,73.60857075895404L73.92447531759738,73.62868611737305L74.01315365056197,73.66897291792412L74.42329094052315,73.85611492113358L74.47871489862601,73.88151149586612L74.83342823048433,74.04464966988415L74.9221065634489,74.08560012770646L75.02186968803404,74.13173832898723L75.25465031206608,74.23971817120668L75.38766781151294,74.30162524314397L75.40983739475409,74.31195399363327L75.83105947633585,74.50900411948406L75.96407697578272,74.57152811226507L76.42963822384675,74.79148843490256L77.18340405404568,75.15132153792197L77.28316717863082,75.19929180716282L77.31642155349255,75.21529435995711L78.15886571665605,75.62370530577559L78.18103529989719,75.63452946239696L78.19212009151776,75.63994154070764L78.77961404740812,75.92822117314276L79.08998821278414,76.08161012837314L79.8215844597419,76.44613556871892L80.25389133294424,76.66346930412791L81.25152257879576,77.17046607022759L81.42887924472491,77.26138711639004L81.58406632741291,77.34113815636724L82.26023861626783,77.69073598175245L82.50410403192043,77.81765342441655L83.09159798781077,78.12522585414573L83.31329382022221,78.24194540831769L83.33546340346335,78.25363886249156L83.69017673532169,78.441201493549L83.95621173421542,78.58247636675752L84.11139881690343,78.66512506524303L84.58804485658804,78.92006293026151L84.89841902196407,79.08694001848382L84.92058860520521,79.09888584936647L84.96492777168751,79.1227868584173L85.13119964599609,79.21254884117644L85.58567610243956,79.4589058980961L85.61893047730129,79.47699289555929L86.20642443319161,79.79774499785853L86.55005297342936,79.98647603960481L86.56113776504993,79.99257981704328L86.74957922259966,80.09643750635254L86.78283359746138,80.11479557509553L87.15971651256085,80.32334286212448L87.18188609580199,80.33564388985654L87.259479637146,80.37870683420428L87.65853213548661,80.60086376893679L87.89131275951861,80.73095928867453L88.15734775841236,80.88008588171202L88.21277171651522,80.91121234246262L88.27928046623865,80.94859213721985L88.57856983999412,81.11717977869063L88.80026567240556,81.24245209910485L88.85568963050842,81.27382158927873L89.02196150481701,81.36804222722645L89.07738546291986,81.3994958429699L89.55403150260449,81.67081015220312L89.8311512931188,81.82923729432376L89.85332087635994,81.84194025533277L90.0306775422891,81.94362002711803L90.14152545849481,82.00728438873132L90.69576503952344,82.32677460748663L90.90637608031432,82.44870059968804L91.05047837138176,82.53229337401011L91.1169871211052,82.57091635774026L91.26108941217264,82.65470542505805L91.89292253454526,83.02362408959387L92.14787274181843,83.17319935233589L92.2032966999213,83.20577464234064L92.46933169881504,83.3623790637867L92.59126440664133,83.43430642579143L92.71319711446762,83.50632726065129L92.85729940553506,83.59156515722323L93.12333440442879,83.74925386378852L94.17638960838318,84.37770925781409L94.18747440000375,84.38435517781218L94.23181356648604,84.4109668996611L94.45350939889748,84.54420310733045L95.0520881464084,84.90541026131994L95.16293606261412,84.97253311857217L95.37354710340499,85.10026844871848L95.97212585091592,85.46471911078018L96.07188897550105,85.52566341230987L96.1383977252245,85.56632410428136L96.20490647494792,85.60701283810937L96.23816084980965,85.62736655230889L96.31575439115365,85.67488347820247L96.40443272411824,85.7292285961616L96.43768709897995,85.74961969950317L96.57070459842681,85.831249543868L96.86999397218227,86.01528357464518L96.91433313866457,86.04259166926464L97.03626584649086,86.11774384477059L97.91196438451608,86.65994248810351L98.06715146720408,86.75647657921512L98.15582980016868,86.81169566836951L98.32210167447725,86.91535239104029L99.04261312981447,87.36627479136135L99.36407208681106,87.5683631041024L99.39732646167278,87.58930102364634L99.68553104380766,87.7710029066886L99.92939645946025,87.92509758197502L100.78292541424435,88.4668849447455L100.94919728855292,88.57286914150842L101.0378756215175,88.62945293434737L101.29282582879065,88.79235275258486L101.49235207796097,88.92006938816014L101.93574374278386,89.20460543274822L102.16852436681589,89.35438166212874L102.51215290705363,89.57597308608784L103.09964686294397,89.95616925059228L103.22157957077026,90.03528934879752L103.42110581994056,90.16491283061697L103.53195373614629,90.23700844376089L103.54303852776687,90.24421987453239L103.75364956855775,90.38137726847344L104.00859977583092,90.54768884592237L104.21921081662178,90.68530425685344L104.6515176898241,90.96843820861494L104.68477206468583,90.99025477299689L104.76236560602982,91.04117878445909L104.87321352223555,91.11397077037357L104.90646789709726,91.13582005025481L105.07273977140586,91.24514590158782L105.43853789488475,91.48610022748231L105.64914893567563,91.6251083839545L106.52484747370083,92.20521494367603L106.91281518042086,92.46329817026884L107.10125663797061,92.58888829839043L107.2675285122792,92.69983123011679L107.38946122010549,92.78126478148592L107.45596996982891,92.82571112408921L107.73308976034323,93.01109583762269L107.7885137184461,93.0482139083856L107.84393767654895,93.08534132643406L108.04346392571927,93.21911032937751L108.16539663354557,93.30094114038081L108.19865100840728,93.32327180546586L108.42034684081872,93.47224416829243L108.5090251737833,93.53188919713615L108.61987308998903,93.60648988279694L109.00784079670906,93.86798954224392L109.06326475481191,93.90539270521492L109.73943704366684,94.3627413643246L109.7505218352874,94.37025190823243L110.10523516714572,94.61090712099059L110.67055953979492,94.99544977325753L110.7592378727595,95.05587997408412L111.14720557947953,95.32061379431781L111.26913828730584,95.4039308237173L111.4021557867527,95.49488925902182L111.59059724430243,95.62384908357002L112.25568474153677,96.08004802656185L112.8542634890477,96.49197355173233L112.89860265552997,96.52253450170952L113.05378973821799,96.62955624716416L113.24223119576773,96.75962372504534L113.30873994549115,96.80556095968763L113.77430119355519,97.12752820910326L113.95165785948436,97.25037023528469L114.07359056731066,97.33488839087234L114.26203202486037,97.46559615781102L114.48372785727183,97.61952725560103L114.5391518153747,97.6580333982623L114.56132139861583,97.67343772478391L114.62783014833927,97.71966472527701L114.84952598075073,97.87384819977581L114.88278035561244,97.89699207870026L114.9382043137153,97.9355683260029L115.03796743830046,98.00503267827555L116.03559868415196,98.70136805967971L116.04668347577254,98.70912163301082L116.06885305901369,98.72463345331583L116.37922722438971,98.94191577865449L116.43465118249257,98.98074440266589L116.49007514059544,99.01958704760555L117.13299305458864,99.47078051920644L117.42119763672352,99.67342499543538L117.52096076130866,99.74362310962066L117.88675888478755,100.00125766650898L117.89784367640813,100.00907199719589L117.99760680099328,100.0794009733783L118.41882888257503,100.37664932626092L118.50750721553962,100.4392901601108L118.56293117364247,100.47845061275783L118.91764450550079,100.72926165122333L119.4386297116677,101.09822705218669L119.48296887814999,101.12966197335913L119.73791908542316,101.31049455884889L119.93744533459345,101.4521293025496L119.97069970945518,101.47574521939235L120.20348033348719,101.64112206829019L120.32541304131348,101.72780412047352L120.59144804020723,101.91703991563739L120.66904158155124,101.97226835207731L120.85748303910096,102.10644396194046L120.8796526223421,102.12223620081078L120.91290699720383,102.14592222229486L121.14568762123584,102.31181317189576L121.22328116257985,102.36713975483352L121.47823136985302,102.54900988901498L121.66667282740275,102.68352667479927L121.86619907657305,102.82604473698073L121.93270782629648,102.87356633651704L122.0435557425022,102.95279392850564L122.25416678329309,103.10339739265383L122.55345615704854,103.31757174556022L122.64213449001313,103.38106318239157L122.87491511404514,103.5478094086167L123.66193531910578,104.11235273796295L124.3381076079607,104.5983040907353L124.44895552416642,104.67804578342698L124.52654906551044,104.7338771197823L124.8258384392659,104.9493273771609L125.05861906329791,105.11700365829437L125.34682364543279,105.32472371055563L125.44658677001794,105.39666041984586L125.80130010187625,105.6525563816292L126.03408072590828,105.82059253325484L126.51072676559289,106.164918489612L126.54398114045462,106.18895503430274L126.76567697286605,106.34922826531174L126.84327051421006,106.4053400202324L127.13147509634494,106.61382654990553L127.90741050978502,107.17567786102468L128.00717363437016,107.2479744408071L128.08476717571418,107.3042077104394L128.22886946678162,107.40866362602131L128.4727348824342,107.58549089966974L128.5946675902605,107.67393024152912L128.7166002980868,107.76238827795952L128.89395696401596,107.89107703122788L129.1599919629097,108.08417792895044L129.22650071263314,108.13246600589865L129.4814509199063,108.31760301636608L129.6809771690766,108.46253735185203L130.3571494579315,108.95397556121917L130.45691258251668,109.02651984406762L130.94464341382186,109.38127737105472L131.2550175791979,109.60712648356396L131.2882719540596,109.63133127939389L131.7316636188825,109.95409772172069L131.99769861777622,110.14781554028691L132.71821007311345,110.67267496899751L133.5828238195181,111.3028222217005L133.63824777762093,111.34322586332044L133.67150215248267,111.36746804829241L133.8266892351707,111.48060759211378L133.95970673461755,111.5775903529299L134.2146569418907,111.7634844935237L134.28116569161415,111.81197821075317L134.44743756592274,111.93322652475504L134.6247942318519,112.06256024072366L134.89082923074562,112.25657717242623L135.07927068829537,112.39401031128988L135.7443581855297,112.87908769286699L135.866290893356,112.96802244085843L136.08798672576745,113.12971645926505L136.16558026711147,113.1863095993895L136.2210042252143,113.22673660922324L137.41816172023616,114.0997870968497L137.45141609509787,114.12403395546441L137.6841967191299,114.29375729212472L137.73962067723275,114.33416560738742L138.21626671691735,114.68163692531895L138.33819942474366,114.77051091595459L138.44904734094936,114.85130417826619L138.49338650743167,114.88361774427665L138.81484546442826,115.11787474010274L138.91460858901343,115.19056390587659L139.16955879628657,115.37630848990223L139.18064358790716,115.38438454458347L139.313661087354,115.48127850618724L139.65728962759175,115.73154740209313L139.75705275217692,115.80418983143946L139.94549420972663,115.94139396180809L140.00091816782952,115.98174151971496L140.10068129241466,116.05436525449025L140.18935962537924,116.11891760822705L140.27803795834384,116.18346061467835L140.46647941589356,116.32059464040563L140.79902316451071,116.56253977856427L140.90987108071644,116.64316946337945L141.3200083706776,116.94141330216897L141.41977149526278,117.01393421680362L141.43085628688337,117.02199157691385L141.67472170253595,117.19923480476749L141.75231524387996,117.25562230461071L142.062689409256,117.48110219934226L142.1735373254617,117.56160569580307L142.22896128356456,117.60185510721207L142.35089399139088,117.6903925955693L142.45065711597601,117.76282003734886L142.60584419866402,117.87546417503816L143.02706628024578,118.18108769573834L143.0603206551075,118.20520369235592L143.43720357020698,118.47847625790362L143.48154273668925,118.51061222548938L143.7364929439624,118.69536599725086L143.80300169368587,118.74354658041571L143.825171276927,118.75960989056583L144.26856294174988,119.08067512692968L144.33507169147333,119.1288136473097L144.35724127471448,119.14485826288879L144.47917398254077,119.23309196446692L144.5345979406436,119.27319181930777L144.68978502333164,119.38544804464837L144.7895481479168,119.45759974150538L144.96690481384596,119.58582580414097L145.24402460436025,119.78609606985022L145.45463564515111,119.9382278151794L145.55439876973628,120.01026734461027L145.75392501890659,120.15429966704447L146.05321439266206,120.3702359832696L146.30816459993522,120.55406904740828L146.33033418317635,120.57005290563157L146.34141897479694,120.57804016110045L146.99542168041071,121.04909194076876L147.0286760552724,121.0730256653189L147.12843917985757,121.14481281804096L147.54966126143933,121.44771627865755L148.1149856340885,121.85373899302805L148.66922521511714,122.25121828844173L148.7579035480817,122.31475646170063L149.15695604642232,122.60049830611959L149.34539750397204,122.73531420504023L149.5670933363835,122.893834820016L149.87746750175953,123.11558047418603L149.91072187662124,123.13932725302594L149.98831541796525,123.19472861424777L150.0104850012064,123.21055356861737L150.19892645875612,123.3450329652596L150.2876047917207,123.40828604631045L150.38736791630586,123.47942823633227L150.55363979061443,123.59795181660779L150.7309964565436,123.72430842214126L151.16330332974593,124.03199301929655L151.2963208291928,124.1265782013792L151.42933832863966,124.22112132067704L151.55127103646595,124.30774728914734L151.70645811915398,124.41794944849697L151.72862770239513,124.43368794047561L152.1276802007357,124.71677048216678L152.52673269907635,124.99945576422371L152.8260220728318,125.2112021597187L152.99229394714035,125.32873960137285L153.32483769575757,125.56359716029299L153.5908726946513,125.75126962195519L153.79039894382157,125.8918971956421L154.15619706730047,126.14943360603256L154.45548644105594,126.3598643710919L154.59958873212338,126.46109313635128L154.62175831536453,126.47666104036934L154.6328431069851,126.48444499237834L154.85453893939652,126.64004458063201L154.9099628974994,126.67892227789233L155.0651499801874,126.78773169170088L155.17599789639314,126.86540997111608L155.231421854496,126.90423392148469L155.30901539584002,126.95857436580107L155.5196264366309,127.10598105830462L155.65264393607774,127.19900991734976L156.04061164279778,127.47003913437487L156.72786872327328,127.94900572804939L156.89414059758187,128.0646620284945L157.01607330540816,128.14941853986264L157.06041247189046,128.18022952972726L157.2377691378196,128.30340104772296L157.6035672612985,128.55712376562505L157.70333038588367,128.62624226833384L158.19106121718883,128.9636862857338L158.4127570496003,129.11680183286296L158.446011424462,129.13975642925584L158.62336809039115,129.26210772294797L158.8007247563203,129.38435152285675L159.58774496138096,129.92547756517732L159.6875080859661,129.99391371604383L160.03113662620385,130.22936015395115L160.24174766699474,130.37345557056253L160.27500204185645,130.3961905057459L160.51886745750903,130.56280119633115L161.23937891284623,131.05375802049448L161.32805724581084,131.11404567521706L161.56083786984286,131.2721596832731L161.80470328549544,131.4375785949557L162.12616224249206,131.65527220085687L162.63606265703837,131.99974070331808L162.9464368224144,132.20890491119076L163.60043952802818,132.64835351854745L163.77779619395733,132.7672182747441L164.12142473419507,132.99714747737875L164.4428836911917,133.21178685773927L164.720003481706,133.39646585121667L164.77542743980885,133.43336192394875L164.9195297308763,133.52923002096773L165.06363202194373,133.625006981953L165.13014077166716,133.6691822532765L165.5957020197312,133.97785532587454L165.60678681135178,133.98519294500045L165.8284826437632,134.13183082327072L166.47140055775643,134.55583070449964L166.65984201530617,134.6797500053362L166.9591313890616,134.87622760994947L166.97021618068217,134.8834974612554L167.05889451364675,134.94162822984637L167.19191201309363,135.02875661491285L167.32492951254048,135.11580087440976L167.4912013868491,135.22449111032802L167.53554055333137,135.2534536744829L167.72398201088112,135.37643824676837L167.92350826005142,135.5064753459717L168.1230345092217,135.63632082582203L168.28930638353032,135.74438011996833L168.40015429973602,135.81634487111512L168.43340867459776,135.83792307971652L168.5664261740446,135.92417983040914L168.5775109656652,135.9313655561455L168.62185013214747,135.96009677498398L168.9322242975235,136.16094657239486L169.22042887965839,136.34702765869886L169.58622700313728,136.58261430588885L169.75249887744584,136.68947714748978L170.15155137578645,136.94538245655863L170.7390453316768,137.32065961206308L170.78338449815908,137.34890944569776L171.00508033057054,137.49001139412434L171.54823511997859,137.83462945315375L171.86969407697518,138.03785579790573L172.3352553250392,138.33121334319452L172.90057969768844,138.68586337639826L173.066851571997,138.78984258041913L173.15552990496158,138.84523693117686L173.222038654685,138.88675289977257L173.77627823571362,139.23178223936443L173.80953261057536,139.25243039305755L173.84278698543707,139.27307153628652L173.9868892765045,139.36244560669695L174.28617865025996,139.54769945823327L174.56329844077428,139.71878282493537L174.6408919821183,139.76660821125083L174.8847573977709,139.91669290105315L175.11753802180291,140.05963860154674L175.26164031287036,140.14797512326547L175.64960801959037,140.38520455588397L175.90455822686354,140.54062420889156L175.93781260172526,140.56086809248632L176.0819148927927,140.64851758872004L176.12625405927497,140.67546347602595L176.66940884868305,141.0045977566069L176.6804936403036,141.01129508667532L176.8911046810945,141.13843452737032L176.9243590559562,141.15848445479074L177.02412218054135,141.21859684790996L177.03520697216194,141.22527314658598L177.10171572188537,141.26530990724962L177.32341155429683,141.39857649359686L177.34558113753795,141.4118870281641L178.2545340504249,141.95504610508326L178.32104280014832,141.99459213325758L179.15240217169125,142.48660520068364L179.46277633706728,142.66918806538527L179.81748966892562,142.87711142110638L179.88399841864904,142.91600781293772L180.1389486259222,143.06485398740992L180.54908591588338,143.30343176596332L180.56017070750397,143.30986503521603L180.6266794572274,143.3484482929828L180.72644258181253,143.40626826433052L180.91488403936228,143.51530785504474L181.04790153880916,143.59213903671053L181.11441028853258,143.6305108121426L181.33610612094404,143.7582122583789L181.3804452874263,143.78371399007344L181.64648028632004,143.93645564578222L181.76841299414636,144.0063079104036L182.32265257517497,144.3225814945325L182.5886875740687,144.47366984911656L182.84363778134187,144.6180211476688L183.24269027968248,144.84308625660583L183.50872527857624,144.99253299417208L183.53089486181736,145.00496605231197L183.54197965343792,145.0111808287659L184.2070671506723,145.38254497687342L184.37333902498085,145.47491368387935L184.43984777470428,145.51180741979005L184.77239152332146,145.6958204191748L184.8721546479066,145.75087476242206L184.91649381438893,145.77532141926457L184.98300256411235,145.81196628369855L185.16035923004148,145.9095332498591L185.63700526972613,146.17065901788567L185.77002276917298,146.2432465319296L186.00280339320503,146.3699758604728L186.0138881848256,146.37600135439513L186.05822735130786,146.40009281438824L186.10256651779014,146.42417142186378L186.14690568427247,146.44823484000034L186.33534714182218,146.5503515973832L186.4018558915456,146.58633280454592L186.44619505802788,146.61030274982738L186.74548443178335,146.77173387582903L187.0447738055388,146.93252354436248L187.2553848463297,147.04528569153135L187.610098178188,147.23447825549974L187.6211829698086,147.24037639265697L187.63226776142915,147.24627336140352L187.89830276032288,147.38752603480899L188.61881421566008,147.76749202240774L188.75183171510696,147.83722394072814L189.45017358720304,148.20116283890815L189.91573483526707,148.44177131523873L189.96007400174935,148.4646020600986L190.44780483305456,148.71476112539975L190.65841587384543,148.8222280353268L191.0685531638066,149.03054047180729L191.40109691242375,149.19850067673815L191.47869045376777,149.23756999335143L191.5895383699735,149.29330201479823L191.7890646191438,149.39338340076114L192.04401482641697,149.52081728094973L192.2324562839667,149.61468389045874L192.29896503369014,149.6477487445421L192.37655857503415,149.68627942382784L192.89754378120102,149.9437761082549L192.95296773930392,149.97104447691095L193.13032440523307,150.05814131488884L193.1968331549565,150.09073997310736L193.30768107116222,150.14499278662208L193.50720732033253,150.24240318575033L193.69564877788224,150.33411524594914L193.7178183611234,150.3448856556788L194.07253169298173,150.51669460541868L194.29422752539315,150.6235679627158L194.41616023321944,150.68218128492128L194.93714543938637,150.93128177013833L195.07016293883322,150.99453368277847L195.1920956466595,151.05238870644686L195.90152231037618,151.38661959445253L196.24515085061392,151.54704471885105L196.6552881405751,151.7372584737615L196.92132313946883,151.85990303853652L197.021086264054,151.90574446350232L197.08759501377742,151.93625984546264L197.253866888086,152.01238881230444L197.44230834563572,152.09839318628826L197.59749542832375,152.16899907580392L197.63074980318544,152.18410312077853L197.84136084397636,152.27954708471745L198.05197188476723,152.37462299928941L199.3045533378919,152.93240356756866L199.3932316708565,152.97139226384442L199.45974042057992,153.00058967854775L199.72577541947365,153.1170054459406L199.7368602110942,153.12184266619238L200.15808229267597,153.3048975688123L200.4573716664314,153.43404317066003L200.5903891658783,153.4911953952991L200.8231697899103,153.5908462219232L201.4771724955241,153.86832272912932L201.62127478659153,153.92896499649595L201.73212270279726,153.97549052592004L201.77646186927956,153.9940705926939L202.05358165979385,154.1098110187086L202.29744707544643,154.21110988860931L203.09555207212765,154.53899864339596L203.33941748778025,154.63807169093442L203.38375665426253,154.65602841060578L203.40592623750368,154.66500063628536L203.41701102912427,154.6694849965091L203.52785894532997,154.7142690098015L203.74955477774142,154.80351163400945L204.0377593598763,154.91887700019305L204.4146422749758,155.0686263561277L204.51440539956093,155.10805437482247L205.135153730313,155.35138816908477L205.73373247782388,155.5827597747148L206.02193705995876,155.69300983890267L206.07736101806165,155.71412594107665L206.2990568504731,155.7983116838233L206.86438122312228,156.01096885545024L206.90872038960458,156.02752523491102L207.2634337214629,156.15932897107587L207.8065885108709,156.35892506381765L208.02828434328237,156.43961492178332L208.3829976751407,156.5677790586524L208.49384559134643,156.6075926528745L208.504930382967,156.61156758603792L208.7820501734813,156.7105763709885L208.83747413158417,156.7302933013626L208.88181329806645,156.74604581426948L209.03700038075445,156.80103706333955L209.5025616288185,156.96467064348963L209.77968141933283,157.06111418277288L210.61104079087573,157.3461415440556L211.35372182945412,157.5952805868254L211.69735036969183,157.7087940220672L212.07423328479132,157.83200760284768L212.08531807641188,157.83561098141206L212.32918349206446,157.91459379136134L212.75040557364622,158.0496866036152L212.8058295317491,158.06733603127543L212.86125348985195,158.08495624866842L212.97210140605767,158.12010905265274L213.27139077981312,158.21443426335713L213.2824755714337,158.2179114535671L213.36006911277772,158.24221790112696L213.51525619546572,158.2906581635674L213.637188903292,158.3285564405678L213.83671515246232,158.39026400637997L213.85888473570347,158.39709687208827L214.1138349429766,158.47533452812075L214.1249197345972,158.47872204281035L214.13600452621776,158.48210838908926L214.1692589010795,158.49225983325655L214.37986994187037,158.55630684937043L214.7678376485904,158.67316778123575L214.95627910614016,158.72940397189475L215.1003813972076,158.77217627408365L215.11146618882816,158.7754580476059L215.2223141050339,158.80821122813802L215.34424681286015,158.84410188347235L215.4550947290659,158.87660473201439L215.54377306203045,158.90252095740078L215.6546209782362,158.93480881837607L216.19777576764423,159.09129143300783L216.2864541006088,159.11656649302873L216.33079326709114,159.1291753969773L216.64116743246714,159.21689908728976L216.79635451515514,159.26040778031526L216.8628632648786,159.27898229713836L217.0180503475666,159.32215390368017L217.04021993080775,159.32830208072482L217.11781347215177,159.34978243493106L217.16215263863404,159.36203059207944L217.19540701349575,159.3712037843975L217.20649180511631,159.3742591783488L217.25083097159865,159.38646877794446L217.52795076211294,159.46234040233205L217.63879867831866,159.49247780343455L217.68313784480097,159.50449870470396L217.8604945107301,159.55238952201796L218.01568159341812,159.59403956574022L218.4147340917587,159.70004888333295L218.4258188833793,159.7029713705684L218.5034124247233,159.72339314469056L218.62534513254963,159.7553640742665L218.95788888116678,159.84180981538805L219.16849992195765,159.8959919400561L219.17958471357824,159.89883147013262L219.23500867168107,159.913010718047L219.53429804543654,159.98905088567645L219.73382429460685,160.03924989830625L219.9555201270183,160.09456129190505L221.18593199690184,160.39262139811373L221.28569512148698,160.41612397911965L221.46305178741613,160.45766010279976L221.49630616227785,160.46541309192554L221.596069286863,160.48860487568822L221.90644345223905,160.56011745189844L222.28332636733847,160.64565081032333L222.29441115895906,160.64814478293866L222.39417428354423,160.67053518302015L222.42742865840592,160.67797620649202L222.85973553160827,160.7736950390455L223.02600740591686,160.81000705248448L223.13685532212259,160.8340596628222L223.30312719643115,160.86990533434496L223.3252967796723,160.87466354082392L223.4139751126369,160.89364685533678L223.59133177856603,160.93137410622262L223.81302761097749,160.97808468268954L224.07906260987122,161.03347844924193L224.32292802552382,161.0836240070827L224.63330219089985,161.14657052637904L224.76631969034673,161.1732470950212L225.23188093841074,161.2651941518198L225.26513531327248,161.27167722457813L225.71961176971595,161.35914517900108L225.80829010268053,161.37596561927757L226.7061582239469,161.5417349081155L226.71724301556748,161.54372982331535L227.68161988655726,161.7124432149865L227.77029821952183,161.72747627901174L228.25802905082702,161.80870798743433L228.2691138424476,161.81052559631217L228.83443821509678,161.90154084558642L228.93420133968195,161.91725918248065L229.49952571233115,162.00438282087873L229.61037362853685,162.02107743792914L229.68796716988086,162.03268786191845L229.74339112798373,162.04094275646074L230.00942612687749,162.08012234183278L230.41956341683866,162.13908377739784L230.60800487438837,162.16558785941206L231.07356612245243,162.22948407752142L231.6056361202399,162.29974324116517L231.62780570348104,162.30260665063517L232.04902778506278,162.35603661092227L232.3261475755771,162.39017735217305L232.53675861636796,162.41558750967985L232.59218257447085,162.42219735499793L232.64760653257372,162.4287749959964L232.847132781744,162.45218855871298L232.90255673984686,162.45861839575932L232.95798069794975,162.4650161015117L233.0909981973966,162.48023932437656L233.32377882142862,162.50643421571223L233.84476402759552,162.56300329387906L234.07754465162753,162.58735888771352L234.4876819415887,162.62888745323698L234.6650386075179,162.64629870768084L235.04192152261732,162.68220017081404L235.16385423044363,162.69349570812267L235.30795652151107,162.7066433589373L235.71809381147224,162.74286792413878L235.79568735281626,162.74952205952454L235.84002651929853,162.7532959530238L236.11714630981285,162.77641390783612L236.40535089194773,162.79959844380127L236.84874255677065,162.83355760672845L237.30321901321412,162.8662141377889L237.3364733880758,162.86851807935952L237.3918973461787,162.87233204569415L237.9461369272073,162.9086883309444L238.16783275961876,162.92232257004167L238.33410463392735,162.93220750703338L238.36735900878907,162.93414946036748L238.38952859203022,162.93543757838265L238.61122442444167,162.9480332464289L238.6777331741651,162.95171064563604L238.93268338143824,162.96537416802622L239.20980317195256,162.97944631467018L239.2319727551937,162.98053699866358L239.37607504626115,162.98749974965074L239.60885567029317,162.9982832492314L239.81946671108406,163.00754573368508L239.8859754608075,163.0103732145264L240.04116254349552,163.0167886107469L240.1630952513218,163.02165046346929L240.26285837590694,163.0255112848982L240.30719754238925,163.02719339008485L240.77275879045325,163.04359877528464L240.85035233179727,163.04610987241912L240.89469149827957,163.0475161550934L240.95011545638243,163.04924472742545L240.96120024800302,163.0495865377571L241.4045919128259,163.06219176075558L241.61520295361677,163.06744967275282L241.91449232737224,163.07411300024452L242.1694425346454,163.07904052129896L242.490901491642,163.0842716716709L242.94537794808545,163.0897986687068L243.0562258642912,163.09081461092896L243.18924336373806,163.0918618201178L243.3776848212878,163.093024309024L243.55504148721695,163.09377455879886L243.64371982018153,163.09402464284753L243.74348294476667,163.09420634482095L243.82107648611068,163.09427472733526L243.86541565259296,163.09428514753068" fill="none"></path></g></g></g></g></g></g><g transform="translate(63, 175)" clip-path="url(#clip_1)"><clipPath id="clip_1"><rect width="266" height="24"></rect></clipPath><g><g><line x1="0" y1="0" x2="0" y2="5" style="visibility: inherit;" fill="rgb(0, 0, 0)" stroke="rgb(204, 204, 204)" stroke-width="1px"></line><line x1="22.169583241144814" y1="0" x2="22.169583241144814" y2="5" style="visibility: inherit;" fill="rgb(0, 0, 0)" stroke="rgb(204, 204, 204)" stroke-width="1px"></line><line x1="44.33916648228963" y1="0" x2="44.33916648228963" y2="5" style="visibility: inherit;" fill="rgb(0, 0, 0)" stroke="rgb(204, 204, 204)" stroke-width="1px"></line><line x1="66.50874972343445" y1="0" x2="66.50874972343445" y2="5" style="visibility: inherit;" fill="rgb(0, 0, 0)" stroke="rgb(204, 204, 204)" stroke-width="1px"></line><line x1="88.67833296457925" y1="0" x2="88.67833296457925" y2="5" style="visibility: inherit;" fill="rgb(0, 0, 0)" stroke="rgb(204, 204, 204)" stroke-width="1px"></line><line x1="110.84791620572409" y1="0" x2="110.84791620572409" y2="5" style="visibility: inherit;" fill="rgb(0, 0, 0)" stroke="rgb(204, 204, 204)" stroke-width="1px"></line><line x1="133.0174994468689" y1="0" x2="133.0174994468689" y2="5" style="visibility: inherit;" fill="rgb(0, 0, 0)" stroke="rgb(204, 204, 204)" stroke-width="1px"></line><line x1="155.18708268801373" y1="0" x2="155.18708268801373" y2="5" style="visibility: inherit;" fill="rgb(0, 0, 0)" stroke="rgb(204, 204, 204)" stroke-width="1px"></line><line x1="177.3566659291585" y1="0" x2="177.3566659291585" y2="5" style="visibility: inherit;" fill="rgb(0, 0, 0)" stroke="rgb(204, 204, 204)" stroke-width="1px"></line><line x1="199.52624917030334" y1="0" x2="199.52624917030334" y2="5" style="visibility: inherit;" fill="rgb(0, 0, 0)" stroke="rgb(204, 204, 204)" stroke-width="1px"></line><line x1="221.69583241144818" y1="0" x2="221.69583241144818" y2="5" style="visibility: inherit;" fill="rgb(0, 0, 0)" stroke="rgb(204, 204, 204)" stroke-width="1px"></line><line x1="243.86541565259296" y1="0" x2="243.86541565259296" y2="5" style="visibility: inherit;" fill="rgb(0, 0, 0)" stroke="rgb(204, 204, 204)" stroke-width="1px"></line><line x1="266.0349988937378" y1="0" x2="266.0349988937378" y2="5" style="visibility: inherit;" fill="rgb(0, 0, 0)" stroke="rgb(204, 204, 204)" stroke-width="1px"></line></g><g transform="translate(0, 8)"><text style="text-anchor: middle; visibility: hidden; font-family: Roboto, sans-serif; font-size: 12px; font-weight: 200;" x="0" y="0" dx="0em" dy="0.95em" fill="rgb(33, 33, 33)" stroke="none" stroke-width="1px">-2k</text><text style="text-anchor: middle; visibility: inherit; font-family: Roboto, sans-serif; font-size: 12px; font-weight: 200;" x="22.169583241144814" y="0" dx="0em" dy="0.95em" fill="rgb(33, 33, 33)" stroke="none" stroke-width="1px">0</text><text style="text-anchor: middle; visibility: hidden; font-family: Roboto, sans-serif; font-size: 12px; font-weight: 200;" x="44.33916648228963" y="0" dx="0em" dy="0.95em" fill="rgb(33, 33, 33)" stroke="none" stroke-width="1px">2k</text><text style="text-anchor: middle; visibility: inherit; font-family: Roboto, sans-serif; font-size: 12px; font-weight: 200;" x="66.50874972343445" y="0" dx="0em" dy="0.95em" fill="rgb(33, 33, 33)" stroke="none" stroke-width="1px">4k</text><text style="text-anchor: middle; visibility: hidden; font-family: Roboto, sans-serif; font-size: 12px; font-weight: 200;" x="88.67833296457925" y="0" dx="0em" dy="0.95em" fill="rgb(33, 33, 33)" stroke="none" stroke-width="1px">6k</text><text style="text-anchor: middle; visibility: inherit; font-family: Roboto, sans-serif; font-size: 12px; font-weight: 200;" x="110.84791620572409" y="0" dx="0em" dy="0.95em" fill="rgb(33, 33, 33)" stroke="none" stroke-width="1px">8k</text><text style="text-anchor: middle; visibility: hidden; font-family: Roboto, sans-serif; font-size: 12px; font-weight: 200;" x="133.0174994468689" y="0" dx="0em" dy="0.95em" fill="rgb(33, 33, 33)" stroke="none" stroke-width="1px">10k</text><text style="text-anchor: middle; visibility: inherit; font-family: Roboto, sans-serif; font-size: 12px; font-weight: 200;" x="155.18708268801373" y="0" dx="0em" dy="0.95em" fill="rgb(33, 33, 33)" stroke="none" stroke-width="1px">12k</text><text style="text-anchor: middle; visibility: hidden; font-family: Roboto, sans-serif; font-size: 12px; font-weight: 200;" x="177.3566659291585" y="0" dx="0em" dy="0.95em" fill="rgb(33, 33, 33)" stroke="none" stroke-width="1px">14k</text><text style="text-anchor: middle; visibility: inherit; font-family: Roboto, sans-serif; font-size: 12px; font-weight: 200;" x="199.52624917030334" y="0" dx="0em" dy="0.95em" fill="rgb(33, 33, 33)" stroke="none" stroke-width="1px">16k</text><text style="text-anchor: middle; visibility: hidden; font-family: Roboto, sans-serif; font-size: 12px; font-weight: 200;" x="221.69583241144818" y="0" dx="0em" dy="0.95em" fill="rgb(33, 33, 33)" stroke="none" stroke-width="1px">18k</text><text style="text-anchor: middle; visibility: inherit; font-family: Roboto, sans-serif; font-size: 12px; font-weight: 200;" x="243.86541565259296" y="0" dx="0em" dy="0.95em" fill="rgb(33, 33, 33)" stroke="none" stroke-width="1px">20k</text><text style="text-anchor: middle; visibility: hidden; font-family: Roboto, sans-serif; font-size: 12px; font-weight: 200;" x="266.0349988937378" y="0" dx="0em" dy="0.95em" fill="rgb(33, 33, 33)" stroke="none" stroke-width="1px">22k</text></g><line x1="0" y1="0" x2="266.0349988937378" y2="0" fill="rgb(0, 0, 0)" stroke="rgb(204, 204, 204)" stroke-width="1px"></line></g></g></g></g></svg>