<svg viewBox="0 0 330 200" xmlns="http://www.w3.org/2000/svg"><g><g><g><g><g><line x1="63.96500110626221" y1="175.63999938964844" x2="58.96500110626221" y2="175.63999938964844" style="visibility: inherit;" fill="rgb(0, 0, 0)" stroke="rgb(204, 204, 204)" stroke-width="1px"></line><line x1="63.96500110626221" y1="162.12923020582934" x2="58.96500110626221" y2="162.12923020582934" style="visibility: inherit;" fill="rgb(0, 0, 0)" stroke="rgb(204, 204, 204)" stroke-width="1px"></line><line x1="63.96500110626221" y1="148.61846102201022" x2="58.96500110626221" y2="148.61846102201022" style="visibility: inherit;" fill="rgb(0, 0, 0)" stroke="rgb(204, 204, 204)" stroke-width="1px"></line><line x1="63.96500110626221" y1="135.1076918381911" x2="58.96500110626221" y2="135.1076918381911" style="visibility: inherit;" fill="rgb(0, 0, 0)" stroke="rgb(204, 204, 204)" stroke-width="1px"></line><line x1="63.96500110626221" y1="121.596922654372" x2="58.96500110626221" y2="121.596922654372" style="visibility: inherit;" fill="rgb(0, 0, 0)" stroke="rgb(204, 204, 204)" stroke-width="1px"></line><line x1="63.96500110626221" y1="108.08615347055289" x2="58.96500110626221" y2="108.08615347055289" style="visibility: inherit;" fill="rgb(0, 0, 0)" stroke="rgb(204, 204, 204)" stroke-width="1px"></line><line x1="63.96500110626221" y1="94.57538428673377" x2="58.96500110626221" y2="94.57538428673377" style="visibility: inherit;" fill="rgb(0, 0, 0)" stroke="rgb(204, 204, 204)" stroke-width="1px"></line><line x1="63.96500110626221" y1="81.06461510291467" x2="58.96500110626221" y2="81.06461510291467" style="visibility: inherit;" fill="rgb(0, 0, 0)" stroke="rgb(204, 204, 204)" stroke-width="1px"></line><line x1="63.96500110626221" y1="67.55384591909555" x2="58.96500110626221" y2="67.55384591909555" style="visibility: inherit;" fill="rgb(0, 0, 0)" stroke="rgb(204, 204, 204)" stroke-width="1px"></line><line x1="63.96500110626221" y1="54.04307673527644" x2="58.96500110626221" y2="54.04307673527644" style="visibility: inherit;" fill="rgb(0, 0, 0)" stroke="rgb(204, 204, 204)" stroke-width="1px"></line><line x1="63.96500110626221" y1="40.53230755145734" x2="58.96500110626221" y2="40.53230755145734" style="visibility: inherit;" fill="rgb(0, 0, 0)" stroke="rgb(204, 204, 204)" stroke-width="1px"></line><line x1="63.96500110626221" y1="27.02153836763822" x2="58.96500110626221" y2="27.02153836763822" style="visibility: inherit;" fill="rgb(0, 0, 0)" stroke="rgb(204, 204, 204)" stroke-width="1px"></line><line x1="63.96500110626221" y1="13.510769183819122" x2="58.96500110626221" y2="13.510769183819122" style="visibility: inherit;" fill="rgb(0, 0, 0)" stroke="rgb(204, 204, 204)" stroke-width="1px"></line><line x1="63.96500110626221" y1="0" x2="58.96500110626221" y2="0" style="visibility: inherit;" fill="rgb(0, 0, 0)" stroke="rgb(204, 204, 204)" stroke-width="1px"></line></g><g transform="translate(53.96500110626221, 0)"><text style="text-anchor: end; visibility: hidden; font-family: Roboto, sans-serif; font-size: 12px; font-weight: 200;" x="0" y="175.63999938964844" dx="0em" dy="0.3em" fill="rgb(33, 33, 33)" stroke="none" stroke-width="1px">-0.01</text><text style="text-anchor: end; visibility: inherit; font-family: Roboto, sans-serif; font-size: 12px; font-weight: 200;" x="0" y="162.12923020582934" dx="0em" dy="0.3em" fill="rgb(33, 33, 33)" stroke="none" stroke-width="1px">0</text><text style="text-anchor: end; visibility: hidden; font-family: Roboto, sans-serif; font-size: 12px; font-weight: 200;" x="0" y="148.61846102201022" dx="0em" dy="0.3em" fill="rgb(33, 33, 33)" stroke="none" stroke-width="1px">0.01</text><text style="text-anchor: end; visibility: inherit; font-family: Roboto, sans-serif; font-size: 12px; font-weight: 200;" x="0" y="135.1076918381911" dx="0em" dy="0.3em" fill="rgb(33, 33, 33)" stroke="none" stroke-width="1px">0.02</text><text style="text-anchor: end; visibility: hidden; font-family: Roboto, sans-serif; font-size: 12px; font-weight: 200;" x="0" y="121.596922654372" dx="0em" dy="0.3em" fill="rgb(33, 33, 33)" stroke="none" stroke-width="1px">0.03</text><text style="text-anchor: end; visibility: inherit; font-family: Roboto, sans-serif; font-size: 12px; font-weight: 200;" x="0" y="108.08615347055289" dx="0em" dy="0.3em" fill="rgb(33, 33, 33)" stroke="none" stroke-width="1px">0.04</text><text style="text-anchor: end; visibility: hidden; font-family: Roboto, sans-serif; font-size: 12px; font-weight: 200;" x="0" y="94.57538428673377" dx="0em" dy="0.3em" fill="rgb(33, 33, 33)" stroke="none" stroke-width="1px">0.05</text><text style="text-anchor: end; visibility: inherit; font-family: Roboto, sans-serif; font-size: 12px; font-weight: 200;" x="0" y="81.06461510291467" dx="0em" dy="0.3em" fill="rgb(33, 33, 33)" stroke="none" stroke-width="1px">0.06</text><text style="text-anchor: end; visibility: hidden; font-family: Roboto, sans-serif; font-size: 12px; font-weight: 200;" x="0" y="67.55384591909555" dx="0em" dy="0.3em" fill="rgb(33, 33, 33)" stroke="none" stroke-width="1px">0.07</text><text style="text-anchor: end; visibility: inherit; font-family: Roboto, sans-serif; font-size: 12px; font-weight: 200;" x="0" y="54.04307673527644" dx="0em" dy="0.3em" fill="rgb(33, 33, 33)" stroke="none" stroke-width="1px">0.08</text><text style="text-anchor: end; visibility: hidden; font-family: Roboto, sans-serif; font-size: 12px; font-weight: 200;" x="0" y="40.53230755145734" dx="0em" dy="0.3em" fill="rgb(33, 33, 33)" stroke="none" stroke-width="1px">0.09</text><text style="text-anchor: end; visibility: inherit; font-family: Roboto, sans-serif; font-size: 12px; font-weight: 200;" x="0" y="27.02153836763822" dx="0em" dy="0.3em" fill="rgb(33, 33, 33)" stroke="none" stroke-width="1px">0.1</text><text style="text-anchor: end; visibility: hidden; font-family: Roboto, sans-serif; font-size: 12px; font-weight: 200;" x="0" y="13.510769183819122" dx="0em" dy="0.3em" fill="rgb(33, 33, 33)" stroke="none" stroke-width="1px">0.11</text><text style="text-anchor: end; visibility: hidden; font-family: Roboto, sans-serif; font-size: 12px; font-weight: 200;" x="0" y="0" dx="0em" dy="0.3em" fill="rgb(33, 33, 33)" stroke="none" stroke-width="1px">0.12</text></g><line x1="63.96500110626221" y1="0" x2="63.96500110626221" y2="175.63999938964844" fill="rgb(0, 0, 0)" stroke="rgb(204, 204, 204)" stroke-width="1px"></line></g></g><g transform="translate(63, 0)" clip-path="url(#clip_0)"><clipPath id="clip_0"><rect width="266" height="175"></rect></clipPath><g><g><g><line x1="0" y1="0" x2="0" y2="175.63999938964844" fill="rgb(0, 0, 0)" stroke="rgb(66, 66, 66)" stroke-width="1px" opacity="0.25"></line><line x1="22.169583241144814" y1="0" x2="22.169583241144814" y2="175.63999938964844" fill="rgb(0, 0, 0)" stroke="rgb(66, 66, 66)" stroke-width="1px" opacity="0.25"></line><line x1="44.33916648228963" y1="0" x2="44.33916648228963" y2="175.63999938964844" fill="rgb(0, 0, 0)" stroke="rgb(66, 66, 66)" stroke-width="1px" opacity="0.25"></line><line x1="66.50874972343445" y1="0" x2="66.50874972343445" y2="175.63999938964844" fill="rgb(0, 0, 0)" stroke="rgb(66, 66, 66)" stroke-width="1px" opacity="0.25"></line><line x1="88.67833296457925" y1="0" x2="88.67833296457925" y2="175.63999938964844" fill="rgb(0, 0, 0)" stroke="rgb(66, 66, 66)" stroke-width="1px" opacity="0.25"></line><line x1="110.84791620572409" y1="0" x2="110.84791620572409" y2="175.63999938964844" fill="rgb(0, 0, 0)" stroke="rgb(66, 66, 66)" stroke-width="1px" opacity="0.25"></line><line x1="133.0174994468689" y1="0" x2="133.0174994468689" y2="175.63999938964844" fill="rgb(0, 0, 0)" stroke="rgb(66, 66, 66)" stroke-width="1px" opacity="0.25"></line><line x1="155.18708268801373" y1="0" x2="155.18708268801373" y2="175.63999938964844" fill="rgb(0, 0, 0)" stroke="rgb(66, 66, 66)" stroke-width="1px" opacity="0.25"></line><line x1="177.3566659291585" y1="0" x2="177.3566659291585" y2="175.63999938964844" fill="rgb(0, 0, 0)" stroke="rgb(66, 66, 66)" stroke-width="1px" opacity="0.25"></line><line x1="199.52624917030334" y1="0" x2="199.52624917030334" y2="175.63999938964844" fill="rgb(0, 0, 0)" stroke="rgb(66, 66, 66)" stroke-width="1px" opacity="0.25"></line><line x1="221.69583241144818" y1="0" x2="221.69583241144818" y2="175.63999938964844" fill="rgb(0, 0, 0)" stroke="rgb(66, 66, 66)" stroke-width="1px" opacity="0.25"></line><line x1="243.86541565259296" y1="0" x2="243.86541565259296" y2="175.63999938964844" fill="rgb(0, 0, 0)" stroke="rgb(66, 66, 66)" stroke-width="1px" opacity="0.25"></line><line x1="266.0349988937378" y1="0" x2="266.0349988937378" y2="175.63999938964844" fill="rgb(0, 0, 0)" stroke="rgb(66, 66, 66)" stroke-width="1px" opacity="0.25"></line></g><g><line x1="0" y1="175.63999938964844" x2="266.0349988937378" y2="175.63999938964844" fill="rgb(0, 0, 0)" stroke="rgb(66, 66, 66)" stroke-width="1px" opacity="0.25"></line><line x1="0" y1="162.12923020582934" x2="266.0349988937378" y2="162.12923020582934" fill="rgb(0, 0, 0)" stroke="rgb(66, 66, 66)" stroke-width="1px" opacity="0.25"></line><line x1="0" y1="148.61846102201022" x2="266.0349988937378" y2="148.61846102201022" fill="rgb(0, 0, 0)" stroke="rgb(66, 66, 66)" stroke-width="1px" opacity="0.25"></line><line x1="0" y1="135.1076918381911" x2="266.0349988937378" y2="135.1076918381911" fill="rgb(0, 0, 0)" stroke="rgb(66, 66, 66)" stroke-width="1px" opacity="0.25"></line><line x1="0" y1="121.596922654372" x2="266.0349988937378" y2="121.596922654372" fill="rgb(0, 0, 0)" stroke="rgb(66, 66, 66)" stroke-width="1px" opacity="0.25"></line><line x1="0" y1="108.08615347055289" x2="266.0349988937378" y2="108.08615347055289" fill="rgb(0, 0, 0)" stroke="rgb(66, 66, 66)" stroke-width="1px" opacity="0.25"></line><line x1="0" y1="94.57538428673377" x2="266.0349988937378" y2="94.57538428673377" fill="rgb(0, 0, 0)" stroke="rgb(66, 66, 66)" stroke-width="1px" opacity="0.25"></line><line x1="0" y1="81.06461510291467" x2="266.0349988937378" y2="81.06461510291467" fill="rgb(0, 0, 0)" stroke="rgb(66, 66, 66)" stroke-width="1px" opacity="0.25"></line><line x1="0" y1="67.55384591909555" x2="266.0349988937378" y2="67.55384591909555" fill="rgb(0, 0, 0)" stroke="rgb(66, 66, 66)" stroke-width="1px" opacity="0.25"></line><line x1="0" y1="54.04307673527644" x2="266.0349988937378" y2="54.04307673527644" fill="rgb(0, 0, 0)" stroke="rgb(66, 66, 66)" stroke-width="1px" opacity="0.25"></line><line x1="0" y1="40.53230755145734" x2="266.0349988937378" y2="40.53230755145734" fill="rgb(0, 0, 0)" stroke="rgb(66, 66, 66)" stroke-width="1px" opacity="0.25"></line><line x1="0" y1="27.02153836763822" x2="266.0349988937378" y2="27.02153836763822" fill="rgb(0, 0, 0)" stroke="rgb(66, 66, 66)" stroke-width="1px" opacity="0.25"></line><line x1="0" y1="13.510769183819122" x2="266.0349988937378" y2="13.510769183819122" fill="rgb(0, 0, 0)" stroke="rgb(66, 66, 66)" stroke-width="1px" opacity="0.25"></line><line x1="0" y1="0" x2="266.0349988937378" y2="0" fill="rgb(0, 0, 0)" stroke="rgb(66, 66, 66)" stroke-width="1px" opacity="0.25"></line></g></g></g><g><g><line x1="0" y1="162.12923020582934" x2="266.0349988937378" y2="162.12923020582934" fill="rgb(0, 0, 0)" stroke="rgb(153, 153, 153)" stroke-width="1.5px"></line></g></g><g><g><line x1="22.169583241144814" y1="0" x2="22.169583241144814" y2="175.63999938964844" fill="rgb(0, 0, 0)" stroke="rgb(153, 153, 153)" stroke-width="1.5px"></line></g></g><g><g><g><g><g><path style="fill: none;" stroke="rgb(255, 112, 67)" stroke-width="2px" d="M22.380194281935694,158.0219562417777L22.64622928082943,154.00637193763598L22.679483655691147,152.6841359162552L22.967688237826028,148.31993546987985L23.222638445099197,143.5470344979151L23.89881073395411,132.82078120819176L23.93206510881583,129.2355652376651L24.03182823340098,126.81175325871888L24.71908531387647,116.61487032707646L24.774509271979333,112.87227234561794L25.007289896011354,108.56539554470744L25.140307395458223,105.47119234655848L25.206816145181655,103.64938617186445L25.594783851901692,97.7606674235966L25.616953435142836,95.73506296869435L25.705631768107416,93.919184339414L26.027090725104014,88.95049981275082L26.248786557515462,84.43864214053114L26.847365305026372,74.85648127268944L27.279672178228697,66.08953787165618L27.43485926091671,61.38689555756721L28.1221163413922,56.18815060168398L28.421405715147653,54.67147119425555L28.598762381076813,54.229748245543405L28.676355922420818,54.101342427120485L28.687440714041394,54.06393345148929L29.053238837520283,54.05643809148231L29.208425920208295,54.056031182782995L29.35252821127574,54.05773686353965L29.50771529396375,54.060387259919274L29.618563210169476,54.06282175400809L30.09520924985409,54.07179275633783L30.183887582818667,54.07615126376669L30.272565915783247,54.0792270651957L30.660533622503284,54.08876305739038L30.704872788985572,54.09260948201918L30.727042372226716,54.094274285883294L30.88222945491473,54.09863746706746L30.904399038155873,54.10048167162852L30.98199257949988,54.103044231936586L31.07067091246446,54.10616577246161L31.137179662187894,54.10890176039178L31.447553827563922,54.11868062043796L32.65579611420631,54.163884358866866L32.9440006963412,54.18892883422643L32.95508548796177,54.196705072501324L33.0215942376852,54.201812258462574L33.08810298740864,54.20616858893101L33.28762923657894,54.21626379619314L33.32088361144066,54.220715382254475L33.42064673602581,54.22656936368089L33.96380152543386,54.254505886399976L33.99705590029558,54.264345310217L34.13007339974244,54.27403178205207L34.296345274051035,54.28558361335361L34.36285402377447,54.29251309399342L34.418277981877324,54.29752269258476L34.99468714614709,54.33151287550677L35.05011110424996,54.34470927699213L35.061195895870526,54.349218305229414L35.26072214504083,54.362522464126826L35.40482443610827,54.3752660720187L35.970148808757465,54.41534888243817L36.15859026630719,54.4397461533562L36.768253805438675,54.48987414676325L36.801508180300395,54.50694180931871L36.956695262988404,54.52339282240158L37.0010344294707,54.531510547968054L37.53310442725817,54.574839480719184L37.61069796860218,54.59364921015947L37.854563384254774,54.61882627515435L37.987580883701646,54.637110712822725L38.09842879990737,54.651672036345914L38.43097254852454,54.68417515553349L38.55290525635083,54.70424958068728L38.70809233903885,54.723752286884604L39.06280567089717,54.76134015906109L39.384264627893764,54.802085069887596L39.561621293822924,54.83075941400534L39.738977959752084,54.85615859574334L39.78331712623437,54.86787270506245L39.9717585837841,54.88972350654034L40.359726290504135,54.93494579458738L40.825287538568176,54.99633598251342L40.92505066315333,55.024809797010384L41.046983370979625,55.04612369978373L41.12457691232363,55.06068588585192L41.224340036908785,55.075721113014204L41.3795271195968,55.097045022307185L41.401696702837945,55.10570901924705L41.43495107769966,55.1119021564386L41.922681909004844,55.16838847983926L42.421497531930605,55.24275328528252L42.62102378110091,55.28816490289424L42.72078690568606,55.31339123705191L42.8648891967535,55.33818270884026L42.89814357161522,55.34946992375489L42.9868219045798,55.36359162101447L43.430213569402696,55.42278506596799L43.61865502695243,55.46393769301331L43.729502943158145,55.49012975508978L43.76275731801987,55.50204687768497L44.36133606553078,55.58388744535441L44.49435356497765,55.62558087450411L44.749303772250805,55.67224977295985L45.19269543707371,55.74708330090252L45.20378022869428,55.77048123827673L45.29245856165886,55.78974995622064L45.33679772814115,55.801612499339825L45.41439126948515,55.816037604403256L46.001885225375496,55.90473254930192L46.0794787667195,55.941991824643644L46.42310730695724,56.00373654443952L46.46744647343954,56.028401189058165L46.556124806404114,56.04890927289173L46.6448031393687,56.0682677834873L46.68914230585098,56.080626924476356L46.910838138262434,56.118003262328756L46.9662620963653,56.13741959919089L46.97734688798587,56.1447853826291L47.199042720397316,56.18120254627496L47.25446667850018,56.200459962345576L47.46507771929105,56.23908088638714L47.64243438522021,56.278402727501046L47.753282301425934,56.307545276528415L47.8862998008728,56.337364468460244L48.17450438300769,56.3927175320514L48.27426750759284,56.42517282446945L48.66223521431287,56.49875664634531L48.67332000593344,56.522089001267005L48.695489589174585,56.532608060663435L49.18322042047978,56.61803861041143L49.271898753444354,56.65815047136814L49.3716618780295,56.68700343915414L49.39383146127065,56.69924854863799L49.449255419373515,56.712388481724474L49.72637520988783,56.764403495056335L49.737460001508396,56.781530408177176L49.84830791771412,56.80598090159899L49.87047750095527,56.81701888497107L49.92590145905813,56.83000589171228L50.08108854174614,56.861272473319204L50.14759729146957,56.88223304499535L50.247360416054725,56.9061637692064L50.41363229036331,56.943006316175264L50.48014104008675,56.96576611643369L51.06763499597709,57.079879192182496L51.943333534002306,57.278267399448495L52.14285978317261,57.3746252471356L52.55299707313379,57.482697561529555L52.7081841558218,57.54482927434666L53.09615186254184,57.640206444941725L54.016189567049345,57.85575182047149L54.28222456594308,57.974152961492905L55.06924477100372,58.17588860585164L55.15792310396831,58.25391700929311L55.55697560230891,58.363486120776344L55.85626497606437,58.461347533404904L55.889519350926086,58.49728520079115L56.53243726491928,58.651672033167564L57.219694345394764,58.85394490238039L57.39705101132393,58.95413818377279L57.59657726049423,59.02994070424676L57.607662052114804,59.05466924845667L57.98454496721427,59.15064183805496L58.09539288342,59.20496426381715L58.12864725828171,59.22873732185663L58.13973204990228,59.2383160247098L58.16190163314343,59.246386945754196L58.172986424764,59.251387751550496L58.81590433875719,59.40752408917301L59.2592960035801,59.56153812455472L59.602924543817835,59.691520431087454L59.90221391757329,59.80420841710997L59.957637875676156,59.85102510701722L60.20150329132875,59.9261654870543L60.41211433211962,60.00154431681561L60.57838620642821,60.065960261966886L60.75574287235737,60.130225377567726L61.07720182935397,60.231955566111175L61.11045620421568,60.27028438545185L61.38757599473,60.35365097971125L62.08591786682606,60.56231109469352L62.28544411599636,60.67654227509072L62.3076136992375,60.71583452552725L62.32978328247865,60.73325173536094L62.39629203220209,60.75618343264243L62.70666619757811,60.84659259233414L62.86185328026613,60.91510518905175L63.48260161101818,61.10525244177257L63.52694077750047,61.17302665920975L63.64887348532677,61.22659845327636L64.22528264959654,61.40331751670424L64.45806327362855,61.52062279554977L64.51348723173142,61.570576598329744L64.53565681497257,61.59144907484087L64.64650473117828,61.6290306840446L65.01230285465718,61.744492664706655L65.14532035410404,61.81643649974605L65.7217295183738,62.00451396046405L66.03210368374984,62.15033677128137L66.34247784912587,62.284484030276936L66.76369993070762,62.44898236987841L66.8856326385339,62.53352010087095L66.91888701339563,62.56817571534236L67.55072013576826,62.76921177593633L67.60614409387111,62.84479091302586L67.72807680169741,62.90406267756259L68.53726658999919,63.170784624206675L68.67028408944607,63.290089240982375L68.69245367268721,63.33183932640107L68.74787763079009,63.36133457548087L68.75896242241065,63.37341088381795L69.03608221292495,63.46377187215052L69.09150617102782,63.50758978990362L69.12476054588954,63.5308469781618L69.21343887885412,63.56558995813297L69.43513471126556,63.645835546100415L69.46838908612727,63.67980801046377L69.64574575205643,63.74608785658165L69.88961116770903,63.84326781859289L70.03371345877648,63.91781984863164L70.05588304201761,63.94670173320249L70.61012262304625,64.13408572285044L70.87615762193998,64.27541561880935L70.95375116328398,64.34202736730626L71.02025991300742,64.38324369000745L71.28629491190117,64.4825981948413L71.31954928676288,64.52256382577973L71.97355199237666,64.75100697014871L72.16199344992637,64.8806860604294L72.3947740739584,64.99665655261812L72.92684407174588,65.21036841084755L72.96009844660759,65.28406848237064L73.48108365277449,65.4835487371576L73.79145781815052,65.64863701440795L73.8801361511151,65.7274815308903L73.92447531759738,65.76584131683L74.01315365056197,65.80775951025225L74.42329094052315,65.96268820240944L74.47871489862601,66.02729129196155L74.83342823048433,66.17054197725436L74.9221065634489,66.24359432643178L75.02186968803404,66.30010421632196L75.25465031206608,66.39893558079136L75.38766781151294,66.47499610052735L75.40983739475409,66.50508104727876L75.83105947633585,66.6641089938404L75.96407697578272,66.75821729396294L76.42963822384675,66.95340820359742L77.18340405404568,67.28476285052824L77.28316717863082,67.41809389271785L77.31642155349255,67.46922788806006L78.15886571665605,67.79555665277327L78.18103529989719,67.89909765517962L78.19212009151776,67.9334581294373L78.77961404740812,68.16329351997415L79.08998821278414,68.34735863279886L79.8215844597419,68.6790422737981L80.25389133294424,68.94160251122943L81.25152257879576,69.40483563483475L81.42887924472491,69.60942350766307L81.58406632741291,69.72997026716384L82.26023861626783,70.03172481672408L82.50410403192043,70.21660681378698L83.09159798781077,70.50510450488898L83.31329382022221,70.67834000153326L83.33546340346335,70.73784057561274L83.69017673532169,70.8982240354779L83.95621173421542,71.05277266293106L84.11139881690343,71.16091731594649L84.58804485658804,71.38687587140107L84.89841902196407,71.58009313101377L84.92058860520521,71.64562080741366L84.96492777168751,71.68297848905411L85.13119964599609,71.762326991563L85.58567610243956,71.97333453492543L85.61893047730129,72.04873937749919L86.20642443319161,72.3153187329146L86.55005297342936,72.5370600651412L86.56113776504993,72.60646242968754L86.74957922259966,72.70591541370686L86.78283359746138,72.74895300637746L87.15971651256085,72.92052926874734L87.18188609580199,72.98000859788861L87.259479637146,73.03021040079592L87.65853213548661,73.21425544548087L87.89131275951861,73.3671894286551L88.15734775841236,73.52554944329486L88.21277171651522,73.59552329672044L88.27928046623865,73.6444563177387L88.57856983999412,73.78728635235743L88.80026567240556,73.92450804861578L88.85568963050842,73.98849481366192L89.02196150481701,74.07901856161985L89.07738546291986,74.12943366827352L89.55403150260449,74.35102160504094L89.8311512931188,74.53651988509243L89.85332087635994,74.60037090206141L90.0306775422891,74.69654231424217L90.14152545849481,74.77316599369979L90.69576503952344,75.03913911181698L90.90637608031432,75.20976714189955L91.05047837138176,75.32332680199751L91.1169871211052,75.38593476234101L91.26108941217264,75.46810222793468L91.89292253454526,75.7733814204172L92.14787274181843,75.97656832956815L92.2032966999213,76.06073631277309L92.46933169881504,76.20471821197455L92.59126440664133,76.301602773633L92.71319711446762,76.3848061821858L92.85729940553506,76.4740921952387L93.12333440442879,76.6203952848559L94.17638960838318,77.14228885360731L94.18747440000375,77.29974903406898L94.23181356648604,77.36601782114583L94.45350939889748,77.4869557908506L95.0520881464084,77.79767624033853L95.16293606261412,77.9395852085955L95.37354710340499,78.07841590366577L95.97212585091592,78.39683407911517L96.07188897550105,78.5362798722512L96.1383977252245,78.60800025760241L96.20490647494792,78.65996620471752L96.23816084980965,78.6906591855171L96.31575439115365,78.73585136433036L96.40443272411824,78.79048354279082L96.43768709897995,78.82198357092602L96.57070459842681,78.89342119586031L96.86999397218227,79.05459985257674L96.91433313866457,79.12248539217397L97.03626584649086,79.19960861309133L97.91196438451608,79.63553420534657L98.06715146720408,79.83642800990808L98.15582980016868,79.93719143250912L98.32210167447725,80.04564861614806L99.04261312981447,80.42112910084622L99.36407208681106,80.6848539682157L99.39732646167278,80.77782598783527L99.68553104380766,80.94351451484992L99.92939645946025,81.10938682792583L100.78292541424435,81.570913569481L100.94919728855292,81.78648825173157L101.0378756215175,81.89257902468871L101.29282582879065,82.04776237642066L101.49235207796097,82.19045493757424L101.93574374278386,82.44906895573547L102.16852436681589,82.63878286331696L102.51215290705363,82.86313426235253L103.09964686294397,83.21852982337614L103.22157957077026,83.38263135899582L103.42110581994056,83.52938192676555L103.53195373614629,83.62720322466836L103.54303852776687,83.66126548225652L103.75364956855775,83.77578889906796L104.00859977583092,83.93603591798255L104.21921081662178,84.08775450544016L104.6515176898241,84.34793508142853L104.68477206468583,84.44054210085973L104.76236560602982,84.50641095065778L104.87321352223555,84.58114574436684L104.90646789709726,84.6196275396824L105.07273977140586,84.7142209807155L105.43853789488475,84.92556067151767L105.64914893567563,85.09326023407436L106.52484747370083,85.58453744633783L106.91281518042086,85.92476892631787L107.10125663797061,86.11987416077521L107.2675285122792,86.26143460764224L107.38946122010549,86.36486020898668L107.45596996982891,86.42894911133959L107.73308976034323,86.5890117847146L107.7885137184461,86.66405118667875L107.84393767654895,86.71427092033663L108.04346392571927,86.83092880234743L108.16539663354557,86.92738574994576L108.19865100840728,86.97257745190004L108.42034684081872,87.0993591258197L108.5090251737833,87.18185641505801L108.61987308998903,87.26282577707478L109.00784079670906,87.4858522634328L109.06326475481191,87.57949447063156L109.73943704366684,87.95554875737169L109.7505218352874,88.07108310996244L110.10523516714572,88.2883094846773L110.67055953979492,88.64493856834557L110.7592378727595,88.7951499646685L111.14720557947953,89.04086104825296L111.26913828730584,89.17613471507562L111.4021557867527,89.28498693430616L111.59059724430243,89.41509868854624L112.25568474153677,89.80092546870242L112.8542634890477,90.22766425816108L112.89860265552997,90.37557353361946L113.05378973821799,90.5003630067415L113.24223119576773,90.63597298218224L113.30873994549115,90.71059646960896L113.77430119355519,90.97787417226122L113.95165785948436,91.14958158170573L114.07359056731066,91.2641619882008L114.26203202486037,91.39727911196631L114.48372785727183,91.55351585374389L114.5391518153747,91.62849643511667L114.56132139861583,91.66213597137616L114.62783014833927,91.70720502587835L114.84952598075073,91.8379241589647L114.88278035561244,91.89374046335661L114.9382043137153,91.93945172910547L115.03796743830046,92.00576331560619L116.03559868415196,92.55605524505505L116.04668347577254,92.7226522899047L116.06885305901369,92.7831257933749L116.37922722438971,92.96645347244642L116.43465118249257,93.04959048713538L116.49007514059544,93.10348251824317L117.13299305458864,93.46323665982725L117.42119763672352,93.72279348827607L117.52096076130866,93.85210744432189L117.88675888478755,94.08630356009321L117.89784367640813,94.16064695249604L117.99760680099328,94.23597836245612L118.41882888257503,94.48461557060853L118.50750721553962,94.6049788619367L118.56293117364247,94.66998328197661L118.91764450550079,94.88019834287984L119.4386297116677,95.22290306792118L119.48296887814999,95.34694076599182L119.73791908542316,95.52103766516494L119.93744533459345,95.67986500430511L119.97069970945518,95.74424881562216L120.20348033348719,95.88914237516329L120.32541304131348,95.99754302541405L120.59144804020723,96.17348103079988L120.66904158155124,96.26696448698735L120.85748303910096,96.39656539811436L120.8796526223421,96.44644983890826L120.91290699720383,96.47907577600085L121.14568762123584,96.61508801828147L121.22328116257985,96.69698798457195L121.47823136985302,96.85957175703695L121.66667282740275,97.00961009403473L121.86619907657305,97.16208582938752L121.93270782629648,97.24284213600315L122.0435557425022,97.32683096921113L122.25416678329309,97.46618505747993L122.55345615704854,97.67017615787043L122.64213449001313,97.77815133779L122.87491511404514,97.93681767450684L123.66193531910578,98.41359082024965L124.3381076079607,98.92332779485885L124.44895552416642,99.13297096513395L124.52654906551044,99.23675601746612L124.8258384392659,99.43133378744993L125.05861906329791,99.61599721156175L125.34682364543279,99.8282974820188L125.44658677001794,99.94513813502958L125.80130010187625,100.17436643441613L126.03408072590828,100.36942220052265L126.51072676559289,100.68891378264209L126.54398114045462,100.80053226546518L126.76567697286605,100.95532703673881L126.84327051421006,101.04331016493329L127.13147509634494,101.22796419852918L127.90741050978502,101.71027319140173L128.00717363437016,101.90623077876691L128.08476717571418,102.0063260995541L128.22886946678162,102.11519755131995L128.4727348824342,102.28181201034353L128.5946675902605,102.39789502903304L128.7166002980868,102.49923712103637L128.89395696401596,102.62694923670105L129.1599919629097,102.81147318203098L129.22650071263314,102.90217197550659L129.4814509199063,103.06981587302865L129.6809771690766,103.22927474751562L130.3571494579315,103.65053947203866L130.45691258251668,103.8288609971066L130.94464341382186,104.15141985223386L131.2550175791979,104.41780829971496L131.2882719540596,104.5140489522461L131.7316636188825,104.78824822096541L131.99769861777622,105.01601679340288L132.71821007311345,105.48271034404534L133.5828238195181,106.0994479045862L133.63824777762093,106.3103414950131L133.67150215248267,106.39040615706716L133.8266892351707,106.50004958902981L133.95970673461755,106.60601109617902L134.2146569418907,106.77868898869471L134.28116569161415,106.8660855275538L134.44743756592274,106.98405249293037L134.6247942318519,107.11711083087273L134.89082923074562,107.30389431378542L135.07927068829537,107.46322257328951L135.7443581855297,107.87959927169489L135.866290893356,108.0689905924055L136.08798672576745,108.24757832808734L136.16558026711147,108.3428760395921L136.2210042252143,108.40152701146471L137.41816172023616,109.08432051320179L137.45141609509787,109.30218351283125L137.6841967191299,109.49520702510591L137.73962067723275,109.58237967691193L138.21626671691735,109.87276760688063L138.33819942474366,110.02532388206075L138.44904734094936,110.13147206949277L138.49338650743167,110.18710519147643L138.81484546442826,110.3819620125286L138.91460858901343,110.49428289744125L139.16955879628657,110.66870369713283L139.18064358790716,110.72579225171972L139.313661087354,110.81634002869114L139.65728962759175,111.0336003869683L139.75705275217692,111.15242747002218L139.94549420972663,111.29173785059805L140.00091816782952,111.36317994280107L140.10068129241466,111.43941383826993L140.18935962537924,111.5108928226883L140.27803795834384,111.58097624613427L140.46647941589356,111.70600002601195L140.79902316451071,111.92698083199994L140.90987108071644,112.05298426087829L141.3200083706776,112.31717671827091L141.41977149526278,112.44961532397251L141.43085628688337,112.49443082402296L141.67472170253595,112.64265809422889L141.75231524387996,112.72893375700947L142.062689409256,112.92604599797058L142.1735373254617,113.04498359209424L142.22896128356456,113.11040199772346L142.35089399139088,113.19701060175153L142.45065711597601,113.27752345281384L142.60584419866402,113.38692002784528L143.02706628024578,113.65189000753753L143.0603206551075,113.74764876149027L143.43720357020698,113.98397013839129L143.48154273668925,114.07747841973176L143.7364929439624,114.24565048293704L143.80300169368587,114.3314925669568L143.825171276927,114.3688061116604L144.26856294174988,114.62450156077837L144.33507169147333,114.73586840222902L144.35724127471448,114.78062092221109L144.47917398254077,114.86096346189527L144.5345979406436,114.91499808049707L144.68978502333164,115.01636724340389L144.7895481479168,115.10097993276085L144.96690481384596,115.22345427904112L145.24402460436025,115.41191516305572L145.45463564515111,115.5829403457805L145.55439876973628,115.68780706957607L145.75392501890659,115.8282472590757L146.05321439266206,116.03389893028834L146.30816459993522,116.23411485918572L146.33033418317635,116.30476498755523L146.34141897479694,116.331484800132L146.99542168041071,116.69844585002541L147.0286760552724,116.82384702103586L147.12843917985757,116.91519910587716L147.54966126143933,117.17282615323786L148.1149856340885,117.55762995451641L148.66922521511714,117.97305533957753L148.7579035480817,118.14280496534938L149.15695604642232,118.41023902237328L149.34539750397204,118.59112170472436L149.5670933363835,118.76480531994316L149.87746750175953,118.9845934682127L149.91072187662124,119.06687761303517L149.98831541796525,119.13314599043339L150.0104850012064,119.16456227568841L150.19892645875612,119.27627119863811L150.2876047917207,119.35711824562986L150.38736791630586,119.43496876700503L150.55363979061443,119.54807079060743L150.7309964565436,119.67743863334915L151.16330332974593,119.94981171473768L151.2963208291928,120.10146221794952L151.42933832863966,120.21782965707817L151.55127103646595,120.31785791849434L151.70645811915398,120.43109107878733L151.72862770239513,120.47615515639998L152.1276802007357,120.70515341731232L152.52673269907635,120.98755756455631L152.8260220728318,121.23146805802435L152.99229394714035,121.39230770070745L153.32483769575757,121.6183427320645L153.5908726946513,121.8274379950666L153.79039894382157,121.99571692804662L154.15619706730047,122.24121598415297L154.45548644105594,122.4733470734028L154.59958873212338,122.61831239156001L154.62175831536453,122.67251219251011L154.6328431069851,122.69427349841168L154.85453893939652,122.81926650117877L154.9099628974994,122.88540720685171L155.0651499801874,122.98768328595978L155.17599789639314,123.07677460148729L155.231421854496,123.13239103454855L155.30901539584002,123.19006353177657L155.5196264366309,123.31929583451294L155.65264393607774,123.42796259390082L156.04061164279778,123.66634264142309L156.72786872327328,124.10114322118433L156.89414059758187,124.31628847124477L157.01607330540816,124.44373446431482L157.06041247189046,124.50444088902496L157.2377691378196,124.61608071014598L157.6035672612985,124.8421333517476L157.70333038588367,124.96084092300674L158.19106121718883,125.25279161846584L158.4127570496003,125.45478593716638L158.446011424462,125.53127027510743L158.62336809039115,125.64689185740747L158.8007247563203,125.7738595551849L159.58774496138096,126.22352191766528L159.6875080859661,126.4070032603856L160.03113662620385,126.64009866573203L160.24174766699474,126.81802973712797L160.27500204185645,126.88732012363232L160.51886745750903,127.03458715995934L161.23937891284623,127.45192483003662L161.32805724581084,127.61975444766917L161.56083786984286,127.78931654585261L161.80470328549544,127.96495423641436L162.12616224249206,128.182223443727L162.63606265703837,128.50831003660042L162.9464368224144,128.76300698544514L163.60043952802818,129.17244115574775L163.77779619395733,129.38262573835468L164.12142473419507,129.61931181005394L164.4428836911917,129.85207841515427L164.720003481706,130.06085689333185L164.77542743980885,130.1499520453382L164.9195297308763,130.24906356646653L165.06363202194373,130.351030379658L165.13014077166716,130.41448663444518L165.5957020197312,130.6683672066578L165.60678681135178,130.74809498611123L165.8284826437632,130.88318123997436L166.47140055775643,131.24591002785166L166.65984201530617,131.44631053467276L166.9591313890616,131.65463409935123L166.97021618068217,131.72100756224842L167.05889451364675,131.78471108866623L167.19191201309363,131.8697445609017L167.32492951254048,131.96094223480472L167.4912013868491,132.07044408007837L167.53554055333137,132.12450146012162L167.72398201088112,132.23405722128606L167.92350826005142,132.3651957902617L168.1230345092217,132.50249043673156L168.28930638353032,132.6249715291606L168.40015429973602,132.71560636302428L168.43340867459776,132.75852428863996L168.5664261740446,132.8368237777555L168.5775109656652,132.86516606807714L168.62185013214747,132.89534846616854L168.9322242975235,133.0573019719448L169.22042887965839,133.24647206697344L169.58622700313728,133.48133549217928L169.75249887744584,133.63139441895078L170.15155137578645,133.87032958122117L170.7390453316768,134.22623304593952L170.78338449815908,134.35169626925165L171.00508033057054,134.49591633913604L171.54823511997859,134.80078661501148L171.86969407697518,135.0447610070426L172.3352553250392,135.33967537481593L172.90057969768844,135.69619738013768L173.066851571997,135.87958194955738L173.15552990496158,135.97536630572876L173.222038654685,136.034989667017L173.77627823571362,136.31547128959275L173.80953261057536,136.4131153464161L173.84278698543707,136.4573654888305L173.9868892765045,136.5384308216392L174.28617865025996,136.70335083546766L174.56329844077428,136.88195196648644L174.6408919821183,136.9705685143715L174.8847573977709,137.11087834984016L175.11753802180291,137.2608394205118L175.26164031287036,137.37198125339995L175.64960801959037,137.58531298676593L175.90455822686354,137.7661073606481L175.93781260172526,137.8343345004518L176.0819148927927,137.92108619501823L176.12625405927497,137.9669628925221L176.66940884868305,138.23131111812543L176.6804936403036,138.31360725658914L176.8911046810945,138.434576662572L176.9243590559562,138.485187027626L177.02412218054135,138.54579864196006L177.03520697216194,138.56858765430533L177.10171572188537,138.60576853604078L177.32341155429683,138.71823599995938L177.34558113753795,138.76122527008746L178.2545340504249,139.18791604238203L178.32104280014832,139.34266207337384L179.15240217169125,139.76298895475634L179.46277633706728,140.02493681603713L179.81748966892562,140.25995915321633L179.88399841864904,140.35824267842898L180.1389486259222,140.50043095097325L180.54908591588338,140.72385630663473L180.56017070750397,140.79400163085967L180.6266794572274,140.84390231560906L180.72644258181253,140.90255881986346L180.91488403936228,141.00282501319495L181.04790153880916,141.09068356262244L181.11441028853258,141.1455952619847L181.33610612094404,141.2589969193596L181.3804452874263,141.3115542928943L181.64648028632004,141.4433606837653L181.76841299414636,141.53510781504787L182.32265257517497,141.80304442091207L182.5886875740687,141.99648096910417L182.84363778134187,142.16302675434935L183.24269027968248,142.38326161285508L183.50872527857624,142.56151758098156L183.53089486181736,142.62304805231165L183.54197965343792,142.64575347795625L184.2070671506723,142.93553434194L184.37333902498085,143.09057794067272L184.43984777470428,143.16398072614473L184.77239152332146,143.3257171741104L184.8721546479066,143.41492103616764L184.91649381438893,143.45960819947476L184.98300256411235,143.50059715087346L185.16035923004148,143.58695698380367L185.63700526972613,143.8112724098408L185.77002276917298,143.93211770187466L186.00280339320503,144.0640307659578L186.0138881848256,144.1071435880361L186.05822735130786,144.13810134373307L186.10256651779014,144.1655000204964L186.14690568427247,144.19184786492437L186.33534714182218,144.2774015354342L186.4018558915456,144.329817493792L186.44619505802788,144.36339911498865L186.74548443178335,144.49628997306488L187.0447738055388,144.65769004166188L187.2553848463297,144.7907956619028L187.610098178188,144.97391455640195L187.6211829698086,145.03188237632665L187.63226776142915,145.05330519160745L187.89830276032288,145.16726038434595L188.61881421566008,145.4902447520932L188.75183171510696,145.63772409319785L189.45017358720304,145.9582774730127L189.91573483526707,146.23533376894858L189.96007400174935,146.33364177221193L190.44780483305456,146.55308437495444L190.65841587384543,146.69910100043194L191.0685531638066,146.90056807587095L191.40109691242375,147.08745965815103L191.47869045376777,147.17182085142844L191.5895383699735,147.23894784267932L191.7890646191438,147.33485713163725L192.04401482641697,147.46002607635367L192.2324562839667,147.56814508770728L192.29896503369014,147.62492651853591L192.37655857503415,147.67088485734408L192.89754378120102,147.88063601043305L192.95296773930392,147.96267442945182L193.13032440523307,148.0530376368851L193.1968331549565,148.1042789165527L193.30768107116222,148.16060705387392L193.50720732033253,148.2513265527532L193.69564877788224,148.3477435649406L193.7178183611234,148.38410935567168L194.07253169298173,148.52572588270527L194.29422752539315,148.64856473302441L194.41616023321944,148.72912408114072L194.93714543938637,148.94257694998078L195.07016293883322,149.05313233830432L195.1920956466595,149.12952674204874L195.90152231037618,149.40667210501226L196.24515085061392,149.60991653815438L196.6552881405751,149.81429458483746L196.92132313946883,149.96748473801122L197.021086264054,150.04716858614265L197.08759501377742,150.09370307487325L197.253866888086,150.16533655476226L197.44230834563572,150.25182855819196L197.59749542832375,150.33091849833804L197.63074980318544,150.36552901422897L197.84136084397636,150.44840763645087L198.05197188476723,150.54509992223487L199.3045533378919,150.99862029989794L199.3932316708565,151.16077563152058L199.45974042057992,151.23038689408818L199.72577541947365,151.33947592786546L199.7368602110942,151.37501812012349L200.15808229267597,151.5249687629373L200.4573716664314,151.66722290490932L200.5903891658783,151.75233748748994L200.8231697899103,151.85317086818026L201.4771724955241,152.09417937991316L201.62127478659153,152.2107912618113L201.73212270279726,152.280315858068L201.77646186927956,152.3147836264721L202.05358165979385,152.41309583812745L202.29744707544643,152.5190394961197L203.09555207212765,152.79997760867232L203.33941748778025,152.95755092578392L203.38375665426253,153.01725364248688L203.40592623750368,153.0415278127592L203.41701102912427,153.05203502267395L203.52785894532997,153.08924921564244L203.74955477774142,153.1681598285392L204.0377593598763,153.27916338209053L204.4146422749758,153.42575454403712L204.51440539956093,153.498621511118L205.135153730313,153.70543132463857L205.73373247782388,153.94223174057151L206.02193705995876,154.09543889558014L206.07736101806165,154.15627560059252L206.2990568504731,154.2382283093873L206.86438122312228,154.42430141459892L206.90872038960458,154.49125836387572L207.2634337214629,154.61130507251576L207.8065885108709,154.7985430553815L208.02828434328237,154.91473945962102L208.3829976751407,155.04638903463177L208.49384559134643,155.11518704483714L208.504930382967,155.13830679747218L208.7820501734813,155.22054815573625L208.83747413158417,155.25959603341613L208.88181329806645,155.28300869892428L209.03700038075445,155.33177390962052L209.5025616288185,155.47077766240903L209.77968141933283,155.58490124755988L210.61104079087573,155.83554773481117L211.35372182945412,156.09869544692964L211.69735036969183,156.26208420733875L212.07423328479132,156.40373934173948L212.08531807641188,156.44785007854833L212.32918349206446,156.52095176848246L212.75040557364622,156.64530053540943L212.8058295317491,156.69506738511885L212.86125348985195,156.7230340432955L212.97210140605767,156.75800296849022L213.27139077981312,156.8401332399164L213.2824755714337,156.8667665029699L213.36006911277772,156.89307614718254L213.51525619546572,156.93769240031645L213.637188903292,156.97961632481832L213.83671515246232,157.03890775633673L213.85888473570347,157.06143065164017L214.1138349429766,157.1276605406529L214.1249197345972,157.14958251790642L214.13600452621776,157.15856569405804L214.1692589010795,157.1689288672317L214.37986994187037,157.22078830023847L214.7678376485904,157.32503322057252L214.95627910614016,157.39835066975715L215.1003813972076,157.45237160024956L215.11146618882816,157.470647938042L215.2223141050339,157.5009576690954L215.34424681286015,157.5371733548456L215.4550947290659,157.57253050698841L215.54377306203045,157.60261492049335L215.6546209782362,157.63601782138966L216.19777576764423,157.76508344354596L216.2864541006088,157.82204186636383L216.33079326709114,157.84828753012962L216.64116743246714,157.92283720382437L216.79635451515514,157.97777941356395L216.8628632648786,158.00798489348102L217.0180503475666,158.04972158315852L217.04021993080775,158.06659644507255L217.11781347215177,158.0879018486662L217.16215263863404,158.10346177525827L217.19540701349575,158.11499948015057L217.20649180511631,158.12069811035184L217.25083097159865,158.13167146046231L217.52795076211294,158.1927248741507L217.63879867831866,158.23353108015755L217.68313784480097,158.25461196718712L217.8604945107301,158.29728249244718L218.01568159341812,158.34149884223658L218.4147340917587,158.4352380437581L218.4258188833793,158.46483817471605L218.5034124247233,158.48905223027106L218.62534513254963,158.52049933864365L218.95788888116678,158.5955934470574L219.16849992195765,158.65883271284574L219.17958471357824,158.6794636109266L219.23500867168107,158.69629896434523L219.53429804543654,158.7591925907391L219.73382429460685,158.81583234604508L219.9555201270183,158.87454396485222L221.18593199690184,159.1189471246778L221.28569512148698,159.20823266141846L221.46305178741613,159.26597373490958L221.49630616227785,159.28874548438552L221.596069286863,159.31307767835986L221.90644345223905,159.37470826787694L222.28332636733847,159.45792029607037L222.29441115895906,159.4841197665L222.39417428354423,159.50884183075837L222.42742865840592,159.52173416772587L222.85973553160827,159.59848065844886L223.02600740591686,159.6485771473713L223.13685532212259,159.68154451241875L223.30312719643115,159.71850192886907L223.3252967796723,159.73292144390481L223.4139751126369,159.75160598948383L223.59133177856603,159.78582745454523L223.81302761097749,159.83143514033858L224.07906260987122,159.8869882010569L224.32292802552382,159.941443753965L224.63330219089985,160.00533907535763L224.76631969034673,160.04433636677206L225.23188093841074,160.12582967024872L225.26513531327248,160.1545688084932L225.71961176971595,160.22965158795597L225.80829010268053,160.26440069832992L226.7061582239469,160.40094014555618L226.71724301556748,160.4423307102586L227.68161988655726,160.58305422732437L227.77029821952183,160.63560762743205L228.25802905082702,160.71288927363923L228.2691138424476,160.73684137119304L228.83443821509678,160.81323101066386L228.93420133968195,160.84752141271977L229.49952571233115,160.92396263348945L229.61037362853685,160.9590124733545L229.68796716988086,160.97809952833217L229.74339112798373,160.9899669879782L230.00942612687749,161.02330521313388L230.41956341683866,161.0779958017502L230.60800487438837,161.11417379677422L231.07356612245243,161.17345618008278L231.6056361202399,161.2443365460117L231.62780570348104,161.26721685245272L232.04902778506278,161.31463619165393L232.3261475755771,161.35451364079896L232.53675861636796,161.3855321237345L232.59218257447085,161.39962927358187L232.64760653257372,161.40876083961248L232.847132781744,161.42927919794315L232.90255673984686,161.44017306202213L232.95798069794975,161.44823207490376L233.0909981973966,161.46219242859107L233.32377882142862,161.4862414490154L233.84476402759552,161.53639550934776L234.07754465162753,161.56961069850993L234.4876819415887,161.6109734677044L234.6650386075179,161.63632680815903L235.04192152261732,161.67110346838533L235.16385423044363,161.6898706659255L235.30795652151107,161.70537526567452L235.71809381147224,161.73752244651484L235.79568735281626,161.75198294562358L235.84002651929853,161.75908286000677L236.11714630981285,161.77878258639893L236.40535089194773,161.80221222346594L236.84874255677065,161.83494623309983L237.30321901321412,161.8694039128261L237.3364733880758,161.88122222214065L237.3918973461787,161.88758117109964L237.9461369272073,161.91715825338028L238.16783275961876,161.9361903443241L238.33410463392735,161.949284599146L238.36735900878907,161.9545887862807L238.38952859203022,161.95711974936765L238.61122442444167,161.96746250302553L238.6777331741651,161.97328646255065L238.93268338143824,161.9854049690344L239.20980317195256,161.99967304350724L239.2319727551937,162.0046709258489L239.37607504626115,162.01143913732227L239.60885567029317,162.02163745875276L239.81946671108406,162.031677656757L239.8859754608075,162.03676523996648L240.04116254349552,162.04314230713575L240.1630952513218,162.04871138645566L240.26285837590694,162.0532812854635L240.30719754238925,162.05589823648225L240.77275879045325,162.0691708614182L240.85035233179727,162.07496108288387L240.89469149827957,162.07772406400323L240.95011545638243,162.0798488244097L240.96120024800302,162.08072987167972L241.4045919128259,162.09059813520264L241.61520295361677,162.09748862382185L241.91449232737224,162.10458117742925L242.1694425346454,162.11040924836658L242.490901491642,162.11609959604078L242.94537794808545,162.12197530022473L243.0562258642912,162.12446562271614L243.18924336373806,162.12599125361285L243.3776848212878,162.12732309091453L243.55504148721695,162.12828402400422L243.64371982018153,162.12875529593492L243.74348294476667,162.12903144810485L243.82107648611068,162.12916422357554L243.86541565259296,162.12921093901122" fill="none"></path></g></g></g></g><g opacity="0.2"><g><g><g><path style="fill: none;" stroke="rgb(255, 112, 67)" stroke-width="2px" d="M22.380194281935694,158.0219562417777L22.64622928082943,152.8338213208266L22.679483655691147,152.185303865885L22.967688237826028,146.56482387011545L23.222638445099197,141.59286070014332L23.89881073395411,128.4063502312121L23.93206510881583,127.75783340541473L24.03182823340098,125.81228292802261L24.71908531387647,112.4095985061077L24.774509271979333,111.32873880749666L25.007289896011354,106.78912102691504L25.140307395458223,104.19505372372554L25.206816145181655,102.89802007213079L25.594783851901692,95.33198708239225L25.616953435142836,94.89964420957858L25.705631768107416,93.17026265201643L26.027090725104014,86.9012683470264L26.248786557515462,82.57781948627473L26.847365305026372,70.904516621922L27.279672178228697,62.47379285340237L27.43485926091671,59.44738771055294L28.1221163413922,54.04403545040019L28.421405715147653,54.045948048820065L28.598762381076813,54.04756872432323L28.676355922420818,54.04838409522854L28.687440714041394,54.04850489091821L29.053238837520283,54.053346784812746L29.208425920208295,54.05586336168102L29.35252821127574,54.05844033639413L29.50771529396375,54.06148036125098L29.618563210169476,54.0638258108922L30.09520924985409,54.07549266125346L30.183887582818667,54.077948840276875L30.272565915783247,54.080495616067566L30.660533622503284,54.09269598072489L30.704872788985572,54.094195860538385L30.727042372226716,54.094960899906326L30.88222945491473,54.100436971171675L30.904399038155873,54.10124227576951L30.98199257949988,54.104101107091864L31.07067091246446,54.10745318748039L31.137179662187894,54.11003016219349L31.447553827563922,54.12271370960953L32.65579611420631,54.18252770861438L32.9440006963412,54.199257911634575L32.95508548796177,54.19991222162032L33.0215942376852,54.20391861199462L33.08810298740864,54.20796526759877L33.28762923657894,54.220427356250404L33.32088361144066,54.22255134712721L33.42064673602581,54.228983717602496L33.96380152543386,54.266027729103314L33.99705590029558,54.26840337766695L34.13007339974244,54.278026767611195L34.296345274051035,54.290347927958194L34.36285402377447,54.295371015387246L34.418277981877324,54.299588798218444L34.99468714614709,54.345531425525444L35.05011110424996,54.35015186065557L35.061195895870526,54.351077960943094L35.26072214504083,54.36800949011276L35.40482443610827,54.38052191030176L35.970148808757465,54.43188021102926L36.15859026630719,54.44980830463876L36.768253805438675,54.51054840393112L36.801508180300395,54.51398101477942L36.956695262988404,54.53017770350356L37.0010344294707,54.53485853647853L37.53310442725817,54.592709605526146L37.61069796860218,54.60140689518285L37.854563384254774,54.62921003642341L37.987580883701646,54.644651752087064L38.09842879990737,54.657677553957186L38.43097254852454,54.69758039678034L38.55290525635083,54.71252886337783L38.70809233903885,54.73179577588124L39.06280567089717,54.77684250182312L39.384264627893764,54.81888946813804L39.561621293822924,54.8425855559296L39.738977959752084,54.866633964482716L39.78331712623437,54.872703947888965L39.9717585837841,54.898735419014265L40.359726290504135,54.953596794742374L40.825287538568176,55.02165509956765L40.92505066315333,55.03655323462775L41.046983370979625,55.05491417945861L41.12457691232363,55.06669175920208L41.224340036908785,55.08192208240878L41.3795271195968,55.10583962896475L41.401696702837945,55.109282306120534L41.43495107769966,55.11445638816169L41.922681909004844,55.191685099094904L42.421497531930605,55.27342351577605L42.62102378110091,55.30689398812394L42.72078690568606,55.323795318371175L42.8648891967535,55.348407440142786L42.89814357161522,55.35412510278748L42.9868219045798,55.36941582383905L43.430213569402696,55.44719818168327L43.61865502695243,55.48091024541053L43.729502943158145,55.50093213097442L43.76275731801987,55.506961849150755L44.36133606553078,55.61764089981693L44.49435356497765,55.64277646957713L44.749303772250805,55.69149739774668L45.19269543707371,55.777946846325214L45.20378022869428,55.780131235046866L45.29245856165886,55.797696941587326L45.33679772814115,55.80650496062624L45.41439126948515,55.82198694151979L46.001885225375496,55.94131295030531L46.0794787667195,55.95735864441735L46.42310730695724,56.02920188085249L46.46744647343954,56.0385736131099L46.556124806404114,56.05736740916207L46.6448031393687,56.076251801981506L46.68914230585098,56.085724197313645L46.910838138262434,56.133418362120956L46.9662620963653,56.14542746693631L46.97734688798587,56.14782324811489L47.199042720397316,56.1962220544453L47.25446667850018,56.20840228648769L47.46507771929105,56.25500929008789L47.64243438522021,56.294620209994335L47.753282301425934,56.31956451991257L47.8862998008728,56.34966277925698L48.17450438300769,56.41554676166807L48.27426750759284,56.43855834055147L48.66223521431287,56.529104776271524L48.67332000593344,56.53171194990704L48.695489589174585,56.536946429793026L49.18322042047978,56.65327267895156L49.271898753444354,56.67469378125421L49.3716618780295,56.69890325072689L49.39383146127065,56.70429879153246L49.449255419373515,56.71780777616128L49.72637520988783,56.785856014679084L49.737460001508396,56.78859405031175L49.84830791771412,56.81606500340569L49.87047750095527,56.821571273593456L49.92590145905813,56.83536211483153L50.08108854174614,56.87416773014012L50.14759729146957,56.89087780054539L50.247360416054725,56.91603350292055L50.41363229036331,56.95820126492514L50.48014104008675,56.97515292670975L51.06763499597709,57.12694277709583L51.943333534002306,57.36008852447911L52.14285978317261,57.414366054373765L52.55299707313379,57.52726975899148L52.7081841558218,57.570454218050855L53.09615186254184,57.679542792136274L54.016189567049345,57.944649065746475L54.28222456594308,58.022985070501726L55.06924477100372,58.25909031228206L55.15792310396831,58.28609821523225L55.55697560230891,58.408675641331556L55.85626497606437,58.50170845499746L55.889519350926086,58.512106950617124L56.53243726491928,58.71534569849795L57.219694345394764,58.93736817612351L57.39705101132393,58.995460836550464L57.59657726049423,59.06120389065694L57.607662052114804,59.06486802657713L57.98454496721427,59.190223753538994L58.09539288342,59.22736842811453L58.12864725828171,59.23854202940962L58.13973204990228,59.24226656317465L58.16190163314343,59.249715630704706L58.172986424764,59.2534502307772L58.81590433875719,59.471919301864766L59.2592960035801,59.625058037452234L59.602924543817835,59.74512895299076L59.90221391757329,59.85068425315314L59.957637875676156,59.87033368534052L60.20150329132875,59.95715558729557L60.41211433211962,60.03263276072848L60.57838620642821,60.09252729019312L60.75574287235737,60.15673019925622L61.07720182935397,60.273912084549956L61.11045620421568,60.28609231659235L61.38757599473,60.38803381237191L62.08591786682606,60.648368656239874L62.28544411599636,60.7236545698308L62.3076136992375,60.73203980395585L62.32978328247865,60.74043510438836L62.39629203220209,60.76564113830089L62.70666619757811,60.883879985879304L62.86185328026613,60.943361796737534L63.48260161101818,61.183674755041615L63.52694077750047,61.200978737587796L63.64887348532677,61.248693035010035L64.22528264959654,61.47620165020839L64.45806327362855,61.56900293880243L64.51348723173142,61.59117901416554L64.53565681497257,61.60005749735677L64.64650473117828,61.644530443772695L65.01230285465718,61.79211257763505L65.14532035410404,61.84610825092048L65.7217295183738,62.08208263070366L66.03210368374984,62.210478382522396L66.34247784912587,62.339810300936115L66.76369993070762,62.51682631784966L66.8856326385339,62.568385944726614L66.91888701339563,62.58246870888141L67.55072013576826,62.85212495346941L67.60614409387111,62.875961969565594L67.72807680169741,62.9285080945749L68.53726658999919,63.280788590901686L68.67028408944607,63.33929396993504L68.69245367268721,63.3490582881839L68.74787763079009,63.37349928272846L68.75896242241065,63.37839150816037L69.03608221292495,63.501039398411976L69.09150617102782,63.52566158649104L69.12476054588954,63.540438925861494L69.21343887885412,63.57991898377079L69.43513471126556,63.67893118407568L69.46838908612727,63.693819252828305L69.64574575205643,63.77342361232517L69.88961116770903,63.88334768993085L70.03371345877648,63.94856729604873L70.05588304201761,63.95861347090684L70.61012262304625,64.21136838524761L70.87615762193998,64.33370421996754L70.95375116328398,64.3695000093417L71.02025991300742,64.4002425123644L71.28629491190117,64.52357491152418L71.31954928676288,64.53904682611027L71.97355199237666,64.84522363421048L72.16199344992637,64.93416952704233L72.3947740739584,65.04448619063946L72.92684407174588,65.29850945972183L72.96009844660759,65.3144645570666L73.48108365277449,65.56582025466862L73.79145781815052,65.71672426999707L73.8801361511151,65.7599993258237L73.92447531759738,65.78166201950572L74.01315365056197,65.82504780471454L74.42329094052315,66.02658534663244L74.47871489862601,66.05393550403672L74.83342823048433,66.22962276836381L74.9221065634489,66.27372326140323L75.02186968803404,66.32341055509019L75.25465031206608,66.43969653901884L75.38766781151294,66.50636569341285L75.40983739475409,66.51748896317056L75.83105947633585,66.72969679100989L75.96407697578272,66.79703032169711L76.42963822384675,67.03391066915286L77.18340405404568,67.42142324163531L77.28316717863082,67.473083531587L77.31642155349255,67.49031704998086L78.15886571665605,67.93014422240074L78.18103529989719,67.94180100645454L78.19212009151776,67.94762939848142L78.77961404740812,68.2580843872577L79.08998821278414,68.4232724928904L79.8215844597419,68.81583835172434L80.25389133294424,69.04989006678018L81.25152257879576,69.59588658411829L81.42887924472491,69.69380155690862L81.58406632741291,69.77968729226866L82.26023861626783,70.15617725806813L82.50410403192043,70.29285758093718L83.09159798781077,70.62408942833783L83.31329382022221,70.74978740975378L83.33546340346335,70.76238036040255L83.69017673532169,70.96437088615674L83.95621173421542,71.11651305730439L84.11139881690343,71.20551934798107L84.58804485658804,71.48006781800098L84.89841902196407,71.65978160531729L84.92058860520521,71.67264634626785L84.96492777168751,71.69838589447643L85.13119964599609,71.79505264514012L85.58567610243956,72.06036024489977L85.61893047730129,72.07983854986013L86.20642443319161,72.42526389079777L86.55005297342936,72.62851270498606L86.56113776504993,72.63508600376598L86.74957922259966,72.746932746099L86.78283359746138,72.76670297397607L87.15971651256085,72.99129236000725L87.18188609580199,73.00453962064178L87.259479637146,73.05091509917011L87.65853213548661,73.29016102888203L87.89131275951861,73.4302638962919L88.15734775841236,73.59086176571692L88.21277171651522,73.62438256960216L88.27928046623865,73.66463773318688L88.57856983999412,73.84619365477077L88.80026567240556,73.98110230752457L88.85568963050842,74.01488483540412L89.02196150481701,74.11635321473244L89.07738546291986,74.15022633937924L89.55403150260449,74.44241098009194L89.8311512931188,74.61302482545263L89.85332087635994,74.6267049373085L90.0306775422891,74.73620623000032L90.14152545849481,74.80476785019924L90.69576503952344,75.14883423962802L90.90637608031432,75.28013915430645L91.05047837138176,75.37016214203791L91.1169871211052,75.41175612451656L91.26108941217264,75.50199050470495L91.89292253454526,75.8992875280512L92.14787274181843,76.06036858023492L92.2032966999213,76.09544966177849L92.46933169881504,76.26410057718195L92.59126440664133,76.34156081318704L92.71319711446762,76.41912171226689L92.85729940553506,76.5109163701136L93.12333440442879,76.68073497718392L94.17638960838318,77.35753309382683L94.18747440000375,77.36469023844016L94.23181356648604,77.39334901581593L94.45350939889748,77.53683416253675L95.0520881464084,77.92582648221774L95.16293606261412,77.9981126361817L95.37354710340499,78.13567376095465L95.97212585091592,78.52815908932878L96.07188897550105,78.59379141405304L96.1383977252245,78.6375798515608L96.20490647494792,78.68139848799099L96.23816084980965,78.70331787251355L96.31575439115365,78.75448994655278L96.40443272411824,78.8130154582011L96.43768709897995,78.83497510795354L96.57070459842681,78.92288417111565L96.86999397218227,79.12107466579876L96.91433313866457,79.15048338308128L97.03626584649086,79.23141649516458L97.91196438451608,79.8153227264462L98.06715146720408,79.9192825168741L98.15582980016868,79.97874922827114L98.32210167447725,80.0903795449935L99.04261312981447,80.57598828380081L99.36407208681106,80.79362185136809L99.39732646167278,80.81617038010772L99.68553104380766,81.0118493310763L99.92939645946025,81.17779744292324L100.78292541424435,81.76126075667604L100.94919728855292,81.8753975839592L101.0378756215175,81.93633397624728L101.29282582879065,82.11176454973382L101.49235207796097,82.24930554189181L101.93574374278386,82.55572897452512L102.16852436681589,82.71702645231952L102.51215290705363,82.95566337042933L103.09964686294397,83.36510539374181L103.22157957077026,83.45031165334743L103.42110581994056,83.58990617222992L103.53195373614629,83.66754760176953L103.54303852776687,83.675313757985L103.75364956855775,83.82302172069076L104.00859977583092,84.00212649640497L104.21921081662178,84.15032770817692L104.6515176898241,84.45524119468926L104.68477206468583,84.47873595633136L104.76236560602982,84.53357719944452L104.87321352223555,84.6119685688909L104.90646789709726,84.63549856260914L105.07273977140586,84.75323409481392L105.43853789488475,85.01272336885414L105.64914893567563,85.16242446043957L106.52484747370083,85.78715460167813L106.91281518042086,86.06509038416273L107.10125663797061,86.20034129137059L107.2675285122792,86.3198182947682L107.38946122010549,86.4075159654734L107.45596996982891,86.45538125750774L107.73308976034323,86.6550263336207L107.7885137184461,86.69499964059617L107.84393767654895,86.73498301387912L108.04346392571927,86.8790419401259L108.16539663354557,86.96716742889869L108.19865100840728,86.9912158374518L108.42034684081872,87.15164761280352L108.5090251737833,87.21588072078903L108.61987308998903,87.29621992073142L109.00784079670906,87.5778349385974L109.06326475481191,87.61811526795081L109.73943704366684,88.11064459314585L109.7505218352874,88.11873287120044L110.10523516714572,88.37790002340154L110.67055953979492,88.79202287968897L110.7592378727595,88.85710155750225L111.14720557947953,89.14219951775391L111.26913828730584,89.23192554941491L111.4021557867527,89.32988078743513L111.59059724430243,89.46876059848704L112.25568474153677,89.9600517678629L112.8542634890477,90.40366387189263L112.89860265552997,90.43657566417576L113.05378973821799,90.55182985158844L113.24223119576773,90.69190252007589L113.30873994549115,90.74137338815217L113.77430119355519,91.0881073490613L113.95165785948436,91.22039876187212L114.07359056731066,91.31141831404341L114.26203202486037,91.45218052459276L114.48372785727183,91.61795247605892L114.5391518153747,91.65942062969414L114.56132139861583,91.67600990440972L114.62783014833927,91.72579282801769L114.84952598075073,91.8918365697856L114.88278035561244,91.91676074708887L114.9382043137153,91.95830439803014L115.03796743830046,92.0331121620161L116.03559868415196,92.78301180352825L116.04668347577254,92.79136180557717L116.06885305901369,92.80806684282868L116.37922722438971,93.04206319319344L116.43465118249257,93.08387863443647L116.49007514059544,93.12570917514071L117.13299305458864,93.61160983686473L117.42119763672352,93.82984234972666L117.52096076130866,93.90544031884927L117.88675888478755,94.18289291857515L117.89784367640813,94.19130835162262L117.99760680099328,94.26704724904982L118.41882888257503,94.58716085984649L118.50750721553962,94.65462021937712L118.56293117364247,94.69679301453546L118.91764450550079,94.966897209806L119.4386297116677,95.36424456468963L119.48296887814999,95.3980975567215L119.73791908542316,95.59284034109508L119.93744533459345,95.74537006508044L119.97069970945518,95.7708025909111L120.20348033348719,95.94890073587801L120.32541304131348,96.0422506382293L120.59144804020723,96.24604303302117L120.66904158155124,96.30551981072567L120.85748303910096,96.45001662134753L120.8796526223421,96.46702364782324L120.91290699720383,96.49253167095995L121.14568762123584,96.67118346283785L121.22328116257985,96.73076593677084L121.47823136985302,96.92662608127391L121.66667282740275,97.07149031211854L121.86619907657305,97.22497130216011L121.93270782629648,97.2761484093531L122.0435557425022,97.36147043149465L122.25416678329309,97.5236587775004L122.55345615704854,97.75430808063034L122.64213449001313,97.82268347414102L122.87491511404514,98.00225633315274L123.66193531910578,98.61022607244865L124.3381076079607,99.13355829851123L124.44895552416642,99.21943396756379L124.52654906551044,99.2795600221003L124.8258384392659,99.51158337620032L125.05861906329791,99.69215783280559L125.34682364543279,99.9158563506254L125.44658677001794,99.99332665293798L125.80130010187625,100.26890691947385L126.03408072590828,100.44986892891684L126.51072676559289,100.8206814973015L126.54398114045462,100.84656700696846L126.76567697286605,101.01916894805508L126.84327051421006,101.07959699181576L127.13147509634494,101.30412094684839L127.90741050978502,101.90919158959207L128.00717363437016,101.98704944474237L128.08476717571418,102.04760835050023L128.22886946678162,102.16009933651154L128.4727348824342,102.3505287081329L128.5946675902605,102.44577107628916L128.7166002980868,102.54103357706035L128.89395696401596,102.67962146519554L129.1599919629097,102.8875762781275L129.22650071263314,102.93957882253326L129.4814509199063,103.13895714149818L129.6809771690766,103.29504027202154L130.3571494579315,103.82428142057076L130.45691258251668,103.90240603286908L130.94464341382186,104.28445260039366L131.2550175791979,104.52767472155745L131.2882719540596,104.55374142475891L131.7316636188825,104.90133605495699L131.99769861777622,105.10995524418217L132.71821007311345,105.67518847510128L133.5828238195181,106.35380859339682L133.63824777762093,106.39732020744907L133.67150215248267,106.42342717588042L133.8266892351707,106.54526976153419L133.95970673461755,106.6497127347208L134.2146569418907,106.84990642459104L134.28116569161415,106.90213042776121L134.44743756592274,107.03270553514783L134.6247942318519,107.17198799849866L134.89082923074562,107.38092930956297L135.07927068829537,107.5289342283392L135.7443581855297,108.05132525465304L135.866290893356,108.14710113710535L136.08798672576745,108.32123315692786L136.16558026711147,108.38217961552344L136.2210042252143,108.42571639534437L137.41816172023616,109.36592461278826L137.45141609509787,109.39203661437334L137.6841967191299,109.5748155923152L137.73962067723275,109.6183322395212L138.21626671691735,109.99253212037054L138.33819942474366,110.08824257182428L138.44904734094936,110.17525070046757L138.49338650743167,110.21004992540188L138.81484546442826,110.46232669013769L138.91460858901343,110.54060733020182L139.16955879628657,110.74063995915252L139.18064358790716,110.74933724880923L139.313661087354,110.85368459207484L139.65728962759175,111.12320494151194L139.75705275217692,111.20143525003876L139.94549420972663,111.34919354428189L140.00091816782952,111.39264476048932L140.10068129241466,111.47085493640115L140.18935962537924,111.54037285581L140.27803795834384,111.60988070891139L140.46647941589356,111.7575635058485L140.79902316451071,112.01811980848088L140.90987108071644,112.10495177674338L141.3200083706776,112.42613744928592L141.41977149526278,112.50423689581555L141.43085628688337,112.51291405285733L141.67472170253595,112.70379137516126L141.75231524387996,112.76451637499243L142.062689409256,113.007340877011L142.1735373254617,113.09403695012263L142.22896128356456,113.1373824701016L142.35089399139088,113.2327305344863L142.45065711597601,113.31072931794121L142.60584419866402,113.43203838929891L143.02706628024578,113.7611714115914L143.0603206551075,113.78714248487188L143.43720357020698,114.08143601700017L143.48154273668925,114.11604398209252L143.7364929439624,114.31500958245105L143.80300169368587,114.36689636432088L143.825171276927,114.3841953137133L144.26856294174988,114.72995787595127L144.33507169147333,114.78179935943749L144.35724127471448,114.79907817621498L144.47917398254077,114.89409908560681L144.5345979406436,114.93728354466619L144.68978502333164,115.05817486426376L144.7895481479168,115.13587669164819L144.96690481384596,115.27396629756349L145.24402460436025,115.48964196832726L145.45463564515111,115.65347615560486L145.55439876973628,115.73105718729964L145.75392501890659,115.88616891915183L146.05321439266206,116.11871572124043L146.30816459993522,116.31668979031288L146.33033418317635,116.3339031760918L146.34141897479694,116.3425048358275L146.99542168041071,116.84979136777801L147.0286760552724,116.87556614806279L147.12843917985757,116.95287538945577L147.54966126143933,117.27907911627365L148.1149856340885,117.71633434713415L148.66922521511714,118.1443889729643L148.7579035480817,118.21281469801234L149.15695604642232,118.52053668430968L149.34539750397204,118.66572303699346L149.5670933363835,118.83643754542886L149.87746750175953,119.07524055761199L149.91072187662124,119.10081401174725L149.98831541796525,119.16047701614002L150.0104850012064,119.17751927469189L150.19892645875612,119.32234324030662L150.2876047917207,119.39046194297673L150.38736791630586,119.4670766091541L150.55363979061443,119.59471738791235L150.7309964565436,119.73079373233303L151.16330332974593,120.06214637542334L151.2963208291928,120.16400734074311L151.42933832863966,120.26582300767926L151.55127103646595,120.35911251218575L151.70645811915398,120.4777917607161L151.72862770239513,120.49474090592382L152.1276802007357,120.79959902774507L152.52673269907635,121.10402933149874L152.8260220728318,121.33206391126257L152.99229394714035,121.45864269458241L153.32483769575757,121.71156621957334L153.5908726946513,121.91367502444034L153.79039894382157,122.06512010379546L154.15619706730047,122.34246700729288L154.45548644105594,122.56908475427987L154.59958873212338,122.67810034763612L154.62175831536453,122.69486578273248L154.6328431069851,122.70324850028064L154.85453893939652,122.87081728763073L154.9099628974994,122.91268557698803L155.0651499801874,123.02986494570489L155.17599789639314,123.11351847738278L155.231421854496,123.15532888547209L155.30901539584002,123.21384936396667L155.5196264366309,123.37259503281663L155.65264393607774,123.47277995794214L156.04061164279778,123.7646575762769L156.72786872327328,124.28046775408022L156.89414059758187,124.40502069302111L157.01607330540816,124.49629693603298L157.06041247189046,124.52947800204099L157.2377691378196,124.66212425219022L157.6035672612985,124.93536410223864L157.70333038588367,125.0097994128481L158.19106121718883,125.37320066235573L158.4127570496003,125.53809432849486L158.446011424462,125.56281466307179L158.62336809039115,125.69457759474025L158.8007247563203,125.82622476387277L159.58774496138096,126.40897588637186L159.6875080859661,126.48267635653578L160.03113662620385,126.73623405889752L160.24174766699474,126.89141373832516L160.27500204185645,126.91589751467647L160.51886745750903,127.09532441222981L161.23937891284623,127.6240471459442L161.32805724581084,127.68897231256847L161.56083786984286,127.85924893662882L161.80470328549544,128.03739237997934L162.12616224249206,128.2718316478729L162.63606265703837,128.64279772744652L162.9464368224144,128.86805148977092L163.60043952802818,129.34130383615505L163.77779619395733,129.46931203513608L164.12142473419507,129.71692809951182L164.4428836911917,129.94807820143856L164.720003481706,130.1469632713373L164.77542743980885,130.18669750351032L164.9195297308763,130.28994006953073L165.06363202194373,130.39308448905334L165.13014077166716,130.44065785817097L165.5957020197312,130.77307501327655L165.60678681135178,130.7809770646429L165.8284826437632,130.93889477970322L166.47140055775643,131.39551003641125L166.65984201530617,131.52896159115832L166.9591313890616,131.74055285766494L166.97021618068217,131.74838192830208L167.05889451364675,131.81098429447695L167.19191201309363,131.9048148630101L167.32492951254048,131.998554834776L167.4912013868491,132.11560585807263L167.53554055333137,132.14679631177785L167.72398201088112,132.2792412357776L167.92350826005142,132.41928118876578L168.1230345092217,132.55911478245076L168.28930638353032,132.67548632999294L168.40015429973602,132.75298683122793L168.43340867459776,132.77622490202944L168.5664261740446,132.86911678739074L168.5775109656652,132.87685526126063L168.62185013214747,132.90779657385593L168.9322242975235,133.12409635568304L169.22042887965839,133.32449137170275L169.58622700313728,133.57820006867658L169.75249887744584,133.6932831288622L170.15155137578645,133.96887346170558L170.7390453316768,134.37301809071036L170.78338449815908,134.40344098847078L171.00508033057054,134.5553969329302L171.54823511997859,134.92652407342337L171.86969407697518,135.1453832139255L172.3352553250392,135.46130672423652L172.90057969768844,135.84323752922515L173.066851571997,135.95521513355536L173.15552990496158,136.0148705882175L173.222038654685,136.05958009285905L173.77627823571362,136.43115015088105L173.80953261057536,136.45338662408903L173.84278698543707,136.47561554756638L173.9868892765045,136.57186454646993L174.28617865025996,136.77136869427827L174.56329844077428,136.95561231995745L174.6408919821183,137.0071165821433L174.8847573977709,137.1687462480843L175.11753802180291,137.32268777169276L175.26164031287036,137.4178194104668L175.64960801959037,137.673297260979L175.90455822686354,137.84067227191025L175.93781260172526,137.86247337732001L176.0819148927927,137.95686514249476L176.12625405927497,137.9858837903627L176.66940884868305,138.3403360925268L176.6804936403036,138.34754860183125L176.8911046810945,138.48446799950275L176.9243590559562,138.50606022903244L177.02412218054135,138.57079665239164L177.03520697216194,138.57798651250425L177.10171572188537,138.62110302398818L177.32341155429683,138.7646208862083L177.34558113753795,138.77895530804992L178.2545340504249,139.36389585242438L178.32104280014832,139.406483882766L179.15240217169125,139.93634410922482L179.46277633706728,140.1329718096727L179.81748966892562,140.35688926968007L179.88399841864904,140.3987776916523L180.1389486259222,140.5590735718531L180.54908591588338,140.8160034872183L180.56017070750397,140.82293162333664L180.6266794572274,140.86448282400852L180.72644258181253,140.9267504854599L180.91488403936228,141.0441777369983L181.04790153880916,141.12691900956145L181.11441028853258,141.16824246002676L181.33610612094404,141.3057670944351L181.3804452874263,141.33323049779847L181.64648028632004,141.49772151163867L181.76841299414636,141.57294702738474L182.32265257517497,141.91354934875434L182.5886875740687,142.07625988446026L182.84363778134187,142.23171512905498L183.24269027968248,142.47409293867946L183.50872527857624,142.63503557913543L183.53089486181736,142.64842502636301L183.54197965343792,142.65511786254416L184.2070671506723,143.05504848358305L184.37333902498085,143.15452247574328L184.43984777470428,143.19425419133938L184.77239152332146,143.39242203683068L184.8721546479066,143.4517113295585L184.91649381438893,143.47803849846582L184.98300256411235,143.51750219862546L185.16035923004148,143.62257431602913L185.63700526972613,143.90378668159622L185.77002276917298,143.9819578505666L186.00280339320503,144.11843558899776L186.0138881848256,144.12492458245256L186.05822735130786,144.15086923167593L186.10256651779014,144.1768000397265L186.14690568427247,144.2027144900274L186.33534714182218,144.3126863825936L186.4018558915456,144.35143537492266L186.44619505802788,144.37724916214884L186.74548443178335,144.5510980670737L187.0447738055388,144.7242561716482L187.2553848463297,144.84569233013772L187.610098178188,145.04943816825752L187.6211829698086,145.05579000827302L187.63226776142915,145.0621405900001L187.89830276032288,145.21425885366747L188.61881421566008,145.62345299415844L188.75183171510696,145.6985489061958L189.45017358720304,146.0904831042358L189.91573483526707,146.34959992489954L189.96007400174935,146.37418688090244L190.44780483305456,146.64358895122675L190.65841587384543,146.75932254653284L191.0685531638066,146.98365901658875L191.40109691242375,147.16453923728352L191.47869045376777,147.20661388594397L191.5895383699735,147.26663298596358L191.7890646191438,147.37441294007752L192.04401482641697,147.51164942643445L192.2324562839667,147.6127365443672L192.29896503369014,147.64834484876468L192.37655857503415,147.68983942645704L192.89754378120102,147.96714354814767L192.95296773930392,147.99650948362344L193.13032440523307,148.09030607836888L193.1968331549565,148.1254123256811L193.30768107116222,148.18383843254313L193.50720732033253,148.28874193929664L193.69564877788224,148.38750877335687L193.7178183611234,148.3991076761427L194.07253169298173,148.58413269893947L194.29422752539315,148.699227083721L194.41616023321944,148.7623491230192L194.93714543938637,149.03061118402218L195.07016293883322,149.09872862840388L195.1920956466595,149.1610340385083L195.90152231037618,149.52097499482207L196.24515085061392,149.69374051340512L196.6552881405751,149.89858609561634L196.92132313946883,150.03066485768176L197.021086264054,150.08003254610645L197.08759501377742,150.11289526514065L197.253866888086,150.1948803063549L197.44230834563572,150.2875004014144L197.59749542832375,150.3635375132005L197.63074980318544,150.37980340778853L197.84136084397636,150.48258921510737L198.05197188476723,150.5849786615695L199.3045533378919,151.18566542740868L199.3932316708565,151.2276532541672L199.45974042057992,151.2590966238477L199.72577541947365,151.38446745027076L199.7368602110942,151.38967676438807L200.15808229267597,151.58681281336337L200.4573716664314,151.7258926922763L200.5903891658783,151.78744124188762L200.8231697899103,151.89475751671355L201.4771724955241,152.19357837062785L201.62127478659153,152.25888542779188L201.73212270279726,152.30898984409478L201.77646186927956,152.32899914677432L202.05358165979385,152.45364268248247L202.29744707544643,152.56273377314477L203.09555207212765,152.91584473983806L203.33941748778025,153.02253879103333L203.38375665426253,153.0418767968333L203.40592623750368,153.05153919371898L203.41701102912427,153.05636850472916L203.52785894532997,153.10459744212096L203.74955477774142,153.20070488357567L204.0377593598763,153.32494450869646L204.4146422749758,153.48621304585686L204.51440539956093,153.52867398906662L205.135153730313,153.79072576750298L205.73373247782388,154.03989518895068L206.02193705995876,154.15862602730684L206.07736101806165,154.18136644503267L206.2990568504731,154.27202801414447L206.86438122312228,154.50104342974268L206.90872038960458,154.51887337685432L207.2634337214629,154.6608158619549L207.8065885108709,154.87576550029218L208.02828434328237,154.96266227040906L208.3829976751407,155.10068518703733L208.49384559134643,155.14356136543034L208.504930382967,155.14784206268325L208.7820501734813,155.25446690801465L208.83747413158417,155.2757005253406L208.88181329806645,155.29266477000954L209.03700038075445,155.35188611516193L209.5025616288185,155.52810689378512L209.77968141933283,155.63196916685936L210.61104079087573,155.93892170977924L211.35372182945412,156.20722529430054L211.69735036969183,156.32947053225323L212.07423328479132,156.46216208078607L212.08531807641188,156.46604264231695L212.32918349206446,156.55110105303154L212.75040557364622,156.69658562007422L212.8058295317491,156.71559269601596L212.86125348985195,156.7345683147469L212.97210140605767,156.77242518057616L213.27139077981312,156.87400617671935L213.2824755714337,156.8777508430993L213.36006911277772,156.90392701739455L213.51525619546572,156.95609345386885L213.637188903292,156.9969069829462L213.83671515246232,157.0633612845901L213.85888473570347,157.07071975535288L214.1138349429766,157.15497569261862L214.1249197345972,157.15862378536127L214.13600452621776,157.1622706198155L214.1692589010795,157.17320294430334L214.37986994187037,157.24217665396444L214.7678376485904,157.3680268882809L214.95627910614016,157.42858893975986L215.1003813972076,157.47465141904019L215.11146618882816,157.47818563667957L215.2223141050339,157.5134582926372L215.34424681286015,157.55210976761265L215.4550947290659,157.5871128352733L215.54377306203045,157.61502261645865L215.6546209782362,157.64979415904745L216.19777576764423,157.8183138978816L216.2864541006088,157.84553319328873L216.33079326709114,157.85911201292566L216.64116743246714,157.953583679416L216.79635451515514,158.00043919498194L216.8628632648786,158.02044252079145L217.0180503475666,158.06693502014414L217.04021993080775,158.07355613388455L217.11781347215177,158.09668882302972L217.16215263863404,158.1098791461126L217.19540701349575,158.11975796860895L217.20649180511631,158.12304839286423L217.25083097159865,158.1361971924288L217.52795076211294,158.2179050956154L217.63879867831866,158.25036075834117L217.68313784480097,158.2633063443236L217.8604945107301,158.31488107066178L218.01568159341812,158.35973496390113L218.4147340917587,158.47389884438562L218.4258188833793,158.47704613833147L218.5034124247233,158.49903881815533L218.62534513254963,158.53346905000635L218.95788888116678,158.62656446352187L219.16849992195765,158.6849144439336L219.17958471357824,158.68797239940065L219.23500867168107,158.70324235869305L219.53429804543654,158.7851317699863L219.73382429460685,158.83919224512607L219.9555201270183,158.8987583613094L221.18593199690184,159.21974616799568L221.28569512148698,159.2450566398482L221.46305178741613,159.28978784996525L221.49630616227785,159.29813722286994L221.596069286863,159.323112989999L221.90644345223905,159.40012653360998L222.28332636733847,159.4922393811445L222.29441115895906,159.49492519780713L222.39417428354423,159.51903793635645L222.42742865840592,159.5270513462492L222.85973553160827,159.6301331659222L223.02600740591686,159.66923841116417L223.13685532212259,159.69514122229708L223.30312719643115,159.7337442531678L223.3252967796723,159.73886847552973L223.4139751126369,159.75931204500512L223.59133177856603,159.79994139211294L223.81302761097749,159.85024508984657L224.07906260987122,159.9098999153645L224.32292802552382,159.9639028238084L224.63330219089985,160.03169138305063L224.76631969034673,160.0604199954345L225.23188093841074,160.15943990275605L225.26513531327248,160.16642167341888L225.71961176971595,160.2606179320282L225.80829010268053,160.27873225232594L226.7061582239469,160.45725302492067L226.71724301556748,160.4594013951359L227.68161988655726,160.64109274001248L227.77029821952183,160.65728219357814L228.25802905082702,160.74476249495632L228.2691138424476,160.74671991990166L228.83443821509678,160.84473634219702L228.93420133968195,160.86166378192928L229.49952571233115,160.95548923866565L229.61037362853685,160.97346805702767L229.68796716988086,160.98597159055458L229.74339112798373,160.99486147698474L230.00942612687749,161.0370548766162L230.41956341683866,161.10055180722472L230.60800487438837,161.1290946647785L231.07356612245243,161.19790597658857L231.6056361202399,161.27356969128184L231.62780570348104,161.27665336301877L232.04902778506278,161.33419332025102L232.3261475755771,161.37096027236726L232.53675861636796,161.3983250573746L232.59218257447085,161.4054433523325L232.64760653257372,161.41252696571547L232.847132781744,161.43774157171794L232.90255673984686,161.444666011614L232.95798069794975,161.4515558485781L233.0909981973966,161.4679500885864L233.32377882142862,161.4961599715633L233.84476402759552,161.5570805172814L234.07754465162753,161.5833096183339L234.4876819415887,161.62803268889763L234.6650386075179,161.6467832706064L235.04192152261732,161.68544638474984L235.16385423044363,161.69761080954376L235.30795652151107,161.71176981811337L235.71809381147224,161.75078088833035L235.79568735281626,161.75794688028424L235.84002651929853,161.76201107328345L236.11714630981285,161.7869073323121L236.40535089194773,161.8118752941207L236.84874255677065,161.84844670034997L237.30321901321412,161.88361527226124L237.3364733880758,161.88609644010654L237.3918973461787,161.8902037884669L237.9461369272073,161.92935671104405L238.16783275961876,161.9440397377642L238.33410463392735,161.9546850545245L238.36735900878907,161.95677638888432L238.38952859203022,161.9581635929007L238.61122442444167,161.97172815848893L238.6777331741651,161.97568843455815L238.93268338143824,161.99040299713218L239.20980317195256,162.00555761659493L239.2319727551937,162.00673219935706L239.37607504626115,162.01423054657397L239.60885567029317,162.02584354612242L239.81946671108406,162.0358185293802L239.8859754608075,162.03886350874777L240.04116254349552,162.0457723969852L240.1630952513218,162.05100823837859L240.26285837590694,162.05516604607124L240.30719754238925,162.05697754396456L240.77275879045325,162.07464488187202L240.85035233179727,162.07734914032454L240.89469149827957,162.07886359858918L240.95011545638243,162.0807251380237L240.96120024800302,162.08109324145775L241.4045919128259,162.09466809699458L241.61520295361677,162.10033046376083L241.91449232737224,162.10750635490575L242.1694425346454,162.1128129160413L242.490901491642,162.1184464625957L242.94537794808545,162.12439861324975L243.0562258642912,162.1254927048736L243.18924336373806,162.12662046861544L243.3776848212878,162.12787237974518L243.55504148721695,162.1286803410412L243.64371982018153,162.1289496623244L243.74348294476667,162.12914534137266L243.82107648611068,162.12921898408038L243.86541565259296,162.12923020582934" fill="none"></path></g></g></g></g></g></g><g transform="translate(63, 175)" clip-path="url(#clip_1)"><clipPath id="clip_1"><rect width="266" height="24"></rect></clipPath><g><g><line x1="0" y1="0" x2="0" y2="5" style="visibility: inherit;" fill="rgb(0, 0, 0)" stroke="rgb(204, 204, 204)" stroke-width="1px"></line><line x1="22.169583241144814" y1="0" x2="22.169583241144814" y2="5" style="visibility: inherit;" fill="rgb(0, 0, 0)" stroke="rgb(204, 204, 204)" stroke-width="1px"></line><line x1="44.33916648228963" y1="0" x2="44.33916648228963" y2="5" style="visibility: inherit;" fill="rgb(0, 0, 0)" stroke="rgb(204, 204, 204)" stroke-width="1px"></line><line x1="66.50874972343445" y1="0" x2="66.50874972343445" y2="5" style="visibility: inherit;" fill="rgb(0, 0, 0)" stroke="rgb(204, 204, 204)" stroke-width="1px"></line><line x1="88.67833296457925" y1="0" x2="88.67833296457925" y2="5" style="visibility: inherit;" fill="rgb(0, 0, 0)" stroke="rgb(204, 204, 204)" stroke-width="1px"></line><line x1="110.84791620572409" y1="0" x2="110.84791620572409" y2="5" style="visibility: inherit;" fill="rgb(0, 0, 0)" stroke="rgb(204, 204, 204)" stroke-width="1px"></line><line x1="133.0174994468689" y1="0" x2="133.0174994468689" y2="5" style="visibility: inherit;" fill="rgb(0, 0, 0)" stroke="rgb(204, 204, 204)" stroke-width="1px"></line><line x1="155.18708268801373" y1="0" x2="155.18708268801373" y2="5" style="visibility: inherit;" fill="rgb(0, 0, 0)" stroke="rgb(204, 204, 204)" stroke-width="1px"></line><line x1="177.3566659291585" y1="0" x2="177.3566659291585" y2="5" style="visibility: inherit;" fill="rgb(0, 0, 0)" stroke="rgb(204, 204, 204)" stroke-width="1px"></line><line x1="199.52624917030334" y1="0" x2="199.52624917030334" y2="5" style="visibility: inherit;" fill="rgb(0, 0, 0)" stroke="rgb(204, 204, 204)" stroke-width="1px"></line><line x1="221.69583241144818" y1="0" x2="221.69583241144818" y2="5" style="visibility: inherit;" fill="rgb(0, 0, 0)" stroke="rgb(204, 204, 204)" stroke-width="1px"></line><line x1="243.86541565259296" y1="0" x2="243.86541565259296" y2="5" style="visibility: inherit;" fill="rgb(0, 0, 0)" stroke="rgb(204, 204, 204)" stroke-width="1px"></line><line x1="266.0349988937378" y1="0" x2="266.0349988937378" y2="5" style="visibility: inherit;" fill="rgb(0, 0, 0)" stroke="rgb(204, 204, 204)" stroke-width="1px"></line></g><g transform="translate(0, 8)"><text style="text-anchor: middle; visibility: hidden; font-family: Roboto, sans-serif; font-size: 12px; font-weight: 200;" x="0" y="0" dx="0em" dy="0.95em" fill="rgb(33, 33, 33)" stroke="none" stroke-width="1px">-2k</text><text style="text-anchor: middle; visibility: inherit; font-family: Roboto, sans-serif; font-size: 12px; font-weight: 200;" x="22.169583241144814" y="0" dx="0em" dy="0.95em" fill="rgb(33, 33, 33)" stroke="none" stroke-width="1px">0</text><text style="text-anchor: middle; visibility: hidden; font-family: Roboto, sans-serif; font-size: 12px; font-weight: 200;" x="44.33916648228963" y="0" dx="0em" dy="0.95em" fill="rgb(33, 33, 33)" stroke="none" stroke-width="1px">2k</text><text style="text-anchor: middle; visibility: inherit; font-family: Roboto, sans-serif; font-size: 12px; font-weight: 200;" x="66.50874972343445" y="0" dx="0em" dy="0.95em" fill="rgb(33, 33, 33)" stroke="none" stroke-width="1px">4k</text><text style="text-anchor: middle; visibility: hidden; font-family: Roboto, sans-serif; font-size: 12px; font-weight: 200;" x="88.67833296457925" y="0" dx="0em" dy="0.95em" fill="rgb(33, 33, 33)" stroke="none" stroke-width="1px">6k</text><text style="text-anchor: middle; visibility: inherit; font-family: Roboto, sans-serif; font-size: 12px; font-weight: 200;" x="110.84791620572409" y="0" dx="0em" dy="0.95em" fill="rgb(33, 33, 33)" stroke="none" stroke-width="1px">8k</text><text style="text-anchor: middle; visibility: hidden; font-family: Roboto, sans-serif; font-size: 12px; font-weight: 200;" x="133.0174994468689" y="0" dx="0em" dy="0.95em" fill="rgb(33, 33, 33)" stroke="none" stroke-width="1px">10k</text><text style="text-anchor: middle; visibility: inherit; font-family: Roboto, sans-serif; font-size: 12px; font-weight: 200;" x="155.18708268801373" y="0" dx="0em" dy="0.95em" fill="rgb(33, 33, 33)" stroke="none" stroke-width="1px">12k</text><text style="text-anchor: middle; visibility: hidden; font-family: Roboto, sans-serif; font-size: 12px; font-weight: 200;" x="177.3566659291585" y="0" dx="0em" dy="0.95em" fill="rgb(33, 33, 33)" stroke="none" stroke-width="1px">14k</text><text style="text-anchor: middle; visibility: inherit; font-family: Roboto, sans-serif; font-size: 12px; font-weight: 200;" x="199.52624917030334" y="0" dx="0em" dy="0.95em" fill="rgb(33, 33, 33)" stroke="none" stroke-width="1px">16k</text><text style="text-anchor: middle; visibility: hidden; font-family: Roboto, sans-serif; font-size: 12px; font-weight: 200;" x="221.69583241144818" y="0" dx="0em" dy="0.95em" fill="rgb(33, 33, 33)" stroke="none" stroke-width="1px">18k</text><text style="text-anchor: middle; visibility: inherit; font-family: Roboto, sans-serif; font-size: 12px; font-weight: 200;" x="243.86541565259296" y="0" dx="0em" dy="0.95em" fill="rgb(33, 33, 33)" stroke="none" stroke-width="1px">20k</text><text style="text-anchor: middle; visibility: hidden; font-family: Roboto, sans-serif; font-size: 12px; font-weight: 200;" x="266.0349988937378" y="0" dx="0em" dy="0.95em" fill="rgb(33, 33, 33)" stroke="none" stroke-width="1px">22k</text></g><line x1="0" y1="0" x2="266.0349988937378" y2="0" fill="rgb(0, 0, 0)" stroke="rgb(204, 204, 204)" stroke-width="1px"></line></g></g></g></g></svg>