<svg viewBox="0 0 330 200" xmlns="http://www.w3.org/2000/svg"><g><g><g><g><g><line x1="53.172000885009766" y1="175.63999938964844" x2="48.172000885009766" y2="175.63999938964844" style="visibility: inherit;" fill="rgb(0, 0, 0)" stroke="rgb(204, 204, 204)" stroke-width="1px"></line><line x1="53.172000885009766" y1="158.0759994506836" x2="48.172000885009766" y2="158.0759994506836" style="visibility: inherit;" fill="rgb(0, 0, 0)" stroke="rgb(204, 204, 204)" stroke-width="1px"></line><line x1="53.172000885009766" y1="140.51199951171876" x2="48.172000885009766" y2="140.51199951171876" style="visibility: inherit;" fill="rgb(0, 0, 0)" stroke="rgb(204, 204, 204)" stroke-width="1px"></line><line x1="53.172000885009766" y1="122.9479995727539" x2="48.172000885009766" y2="122.9479995727539" style="visibility: inherit;" fill="rgb(0, 0, 0)" stroke="rgb(204, 204, 204)" stroke-width="1px"></line><line x1="53.172000885009766" y1="105.38399963378906" x2="48.172000885009766" y2="105.38399963378906" style="visibility: inherit;" fill="rgb(0, 0, 0)" stroke="rgb(204, 204, 204)" stroke-width="1px"></line><line x1="53.172000885009766" y1="87.81999969482422" x2="48.172000885009766" y2="87.81999969482422" style="visibility: inherit;" fill="rgb(0, 0, 0)" stroke="rgb(204, 204, 204)" stroke-width="1px"></line><line x1="53.172000885009766" y1="70.25599975585938" x2="48.172000885009766" y2="70.25599975585938" style="visibility: inherit;" fill="rgb(0, 0, 0)" stroke="rgb(204, 204, 204)" stroke-width="1px"></line><line x1="53.172000885009766" y1="52.69199981689454" x2="48.172000885009766" y2="52.69199981689454" style="visibility: inherit;" fill="rgb(0, 0, 0)" stroke="rgb(204, 204, 204)" stroke-width="1px"></line><line x1="53.172000885009766" y1="35.12799987792968" x2="48.172000885009766" y2="35.12799987792968" style="visibility: inherit;" fill="rgb(0, 0, 0)" stroke="rgb(204, 204, 204)" stroke-width="1px"></line><line x1="53.172000885009766" y1="17.56399993896484" x2="48.172000885009766" y2="17.56399993896484" style="visibility: inherit;" fill="rgb(0, 0, 0)" stroke="rgb(204, 204, 204)" stroke-width="1px"></line><line x1="53.172000885009766" y1="0" x2="48.172000885009766" y2="0" style="visibility: inherit;" fill="rgb(0, 0, 0)" stroke="rgb(204, 204, 204)" stroke-width="1px"></line></g><g transform="translate(43.172000885009766, 0)"><text style="text-anchor: end; visibility: hidden; font-family: Roboto, sans-serif; font-size: 12px; font-weight: 200;" x="0" y="175.63999938964844" dx="0em" dy="0.3em" fill="rgb(33, 33, 33)" stroke="none" stroke-width="1px">-0.5</text><text style="text-anchor: end; visibility: inherit; font-family: Roboto, sans-serif; font-size: 12px; font-weight: 200;" x="0" y="158.0759994506836" dx="0em" dy="0.3em" fill="rgb(33, 33, 33)" stroke="none" stroke-width="1px">0</text><text style="text-anchor: end; visibility: hidden; font-family: Roboto, sans-serif; font-size: 12px; font-weight: 200;" x="0" y="140.51199951171876" dx="0em" dy="0.3em" fill="rgb(33, 33, 33)" stroke="none" stroke-width="1px">0.5</text><text style="text-anchor: end; visibility: inherit; font-family: Roboto, sans-serif; font-size: 12px; font-weight: 200;" x="0" y="122.9479995727539" dx="0em" dy="0.3em" fill="rgb(33, 33, 33)" stroke="none" stroke-width="1px">1</text><text style="text-anchor: end; visibility: hidden; font-family: Roboto, sans-serif; font-size: 12px; font-weight: 200;" x="0" y="105.38399963378906" dx="0em" dy="0.3em" fill="rgb(33, 33, 33)" stroke="none" stroke-width="1px">1.5</text><text style="text-anchor: end; visibility: inherit; font-family: Roboto, sans-serif; font-size: 12px; font-weight: 200;" x="0" y="87.81999969482422" dx="0em" dy="0.3em" fill="rgb(33, 33, 33)" stroke="none" stroke-width="1px">2</text><text style="text-anchor: end; visibility: hidden; font-family: Roboto, sans-serif; font-size: 12px; font-weight: 200;" x="0" y="70.25599975585938" dx="0em" dy="0.3em" fill="rgb(33, 33, 33)" stroke="none" stroke-width="1px">2.5</text><text style="text-anchor: end; visibility: inherit; font-family: Roboto, sans-serif; font-size: 12px; font-weight: 200;" x="0" y="52.69199981689454" dx="0em" dy="0.3em" fill="rgb(33, 33, 33)" stroke="none" stroke-width="1px">3</text><text style="text-anchor: end; visibility: hidden; font-family: Roboto, sans-serif; font-size: 12px; font-weight: 200;" x="0" y="35.12799987792968" dx="0em" dy="0.3em" fill="rgb(33, 33, 33)" stroke="none" stroke-width="1px">3.5</text><text style="text-anchor: end; visibility: inherit; font-family: Roboto, sans-serif; font-size: 12px; font-weight: 200;" x="0" y="17.56399993896484" dx="0em" dy="0.3em" fill="rgb(33, 33, 33)" stroke="none" stroke-width="1px">4</text><text style="text-anchor: end; visibility: hidden; font-family: Roboto, sans-serif; font-size: 12px; font-weight: 200;" x="0" y="0" dx="0em" dy="0.3em" fill="rgb(33, 33, 33)" stroke="none" stroke-width="1px">4.5</text></g><line x1="53.172000885009766" y1="0" x2="53.172000885009766" y2="175.63999938964844" fill="rgb(0, 0, 0)" stroke="rgb(204, 204, 204)" stroke-width="1px"></line></g></g><g transform="translate(53, 0)" clip-path="url(#clip_0)"><clipPath id="clip_0"><rect width="276" height="175"></rect></clipPath><g><g><g><line x1="0" y1="0" x2="0" y2="175.63999938964844" fill="rgb(0, 0, 0)" stroke="rgb(66, 66, 66)" stroke-width="1px" opacity="0.25"></line><line x1="23.068999926249184" y1="0" x2="23.068999926249184" y2="175.63999938964844" fill="rgb(0, 0, 0)" stroke="rgb(66, 66, 66)" stroke-width="1px" opacity="0.25"></line><line x1="46.13799985249837" y1="0" x2="46.13799985249837" y2="175.63999938964844" fill="rgb(0, 0, 0)" stroke="rgb(66, 66, 66)" stroke-width="1px" opacity="0.25"></line><line x1="69.20699977874756" y1="0" x2="69.20699977874756" y2="175.63999938964844" fill="rgb(0, 0, 0)" stroke="rgb(66, 66, 66)" stroke-width="1px" opacity="0.25"></line><line x1="92.27599970499674" y1="0" x2="92.27599970499674" y2="175.63999938964844" fill="rgb(0, 0, 0)" stroke="rgb(66, 66, 66)" stroke-width="1px" opacity="0.25"></line><line x1="115.34499963124594" y1="0" x2="115.34499963124594" y2="175.63999938964844" fill="rgb(0, 0, 0)" stroke="rgb(66, 66, 66)" stroke-width="1px" opacity="0.25"></line><line x1="138.41399955749512" y1="0" x2="138.41399955749512" y2="175.63999938964844" fill="rgb(0, 0, 0)" stroke="rgb(66, 66, 66)" stroke-width="1px" opacity="0.25"></line><line x1="161.48299948374432" y1="0" x2="161.48299948374432" y2="175.63999938964844" fill="rgb(0, 0, 0)" stroke="rgb(66, 66, 66)" stroke-width="1px" opacity="0.25"></line><line x1="184.55199940999347" y1="0" x2="184.55199940999347" y2="175.63999938964844" fill="rgb(0, 0, 0)" stroke="rgb(66, 66, 66)" stroke-width="1px" opacity="0.25"></line><line x1="207.62099933624268" y1="0" x2="207.62099933624268" y2="175.63999938964844" fill="rgb(0, 0, 0)" stroke="rgb(66, 66, 66)" stroke-width="1px" opacity="0.25"></line><line x1="230.68999926249188" y1="0" x2="230.68999926249188" y2="175.63999938964844" fill="rgb(0, 0, 0)" stroke="rgb(66, 66, 66)" stroke-width="1px" opacity="0.25"></line><line x1="253.75899918874103" y1="0" x2="253.75899918874103" y2="175.63999938964844" fill="rgb(0, 0, 0)" stroke="rgb(66, 66, 66)" stroke-width="1px" opacity="0.25"></line><line x1="276.82799911499023" y1="0" x2="276.82799911499023" y2="175.63999938964844" fill="rgb(0, 0, 0)" stroke="rgb(66, 66, 66)" stroke-width="1px" opacity="0.25"></line></g><g><line x1="0" y1="175.63999938964844" x2="276.82799911499023" y2="175.63999938964844" fill="rgb(0, 0, 0)" stroke="rgb(66, 66, 66)" stroke-width="1px" opacity="0.25"></line><line x1="0" y1="158.0759994506836" x2="276.82799911499023" y2="158.0759994506836" fill="rgb(0, 0, 0)" stroke="rgb(66, 66, 66)" stroke-width="1px" opacity="0.25"></line><line x1="0" y1="140.51199951171876" x2="276.82799911499023" y2="140.51199951171876" fill="rgb(0, 0, 0)" stroke="rgb(66, 66, 66)" stroke-width="1px" opacity="0.25"></line><line x1="0" y1="122.9479995727539" x2="276.82799911499023" y2="122.9479995727539" fill="rgb(0, 0, 0)" stroke="rgb(66, 66, 66)" stroke-width="1px" opacity="0.25"></line><line x1="0" y1="105.38399963378906" x2="276.82799911499023" y2="105.38399963378906" fill="rgb(0, 0, 0)" stroke="rgb(66, 66, 66)" stroke-width="1px" opacity="0.25"></line><line x1="0" y1="87.81999969482422" x2="276.82799911499023" y2="87.81999969482422" fill="rgb(0, 0, 0)" stroke="rgb(66, 66, 66)" stroke-width="1px" opacity="0.25"></line><line x1="0" y1="70.25599975585938" x2="276.82799911499023" y2="70.25599975585938" fill="rgb(0, 0, 0)" stroke="rgb(66, 66, 66)" stroke-width="1px" opacity="0.25"></line><line x1="0" y1="52.69199981689454" x2="276.82799911499023" y2="52.69199981689454" fill="rgb(0, 0, 0)" stroke="rgb(66, 66, 66)" stroke-width="1px" opacity="0.25"></line><line x1="0" y1="35.12799987792968" x2="276.82799911499023" y2="35.12799987792968" fill="rgb(0, 0, 0)" stroke="rgb(66, 66, 66)" stroke-width="1px" opacity="0.25"></line><line x1="0" y1="17.56399993896484" x2="276.82799911499023" y2="17.56399993896484" fill="rgb(0, 0, 0)" stroke="rgb(66, 66, 66)" stroke-width="1px" opacity="0.25"></line><line x1="0" y1="0" x2="276.82799911499023" y2="0" fill="rgb(0, 0, 0)" stroke="rgb(66, 66, 66)" stroke-width="1px" opacity="0.25"></line></g></g></g><g><g><line x1="0" y1="158.0759994506836" x2="276.82799911499023" y2="158.0759994506836" fill="rgb(0, 0, 0)" stroke="rgb(153, 153, 153)" stroke-width="1.5px"></line></g></g><g><g><line x1="23.068999926249184" y1="0" x2="23.068999926249184" y2="175.63999938964844" fill="rgb(0, 0, 0)" stroke="rgb(153, 153, 153)" stroke-width="1.5px"></line></g></g><g><g><g><g><g><path style="fill: none;" stroke="rgb(255, 112, 67)" stroke-width="2px" d="M31.500719399293263,-1.2532107758316506L31.904426898002626,3.8115500639403446L31.950564897855124,11.119512708897709L31.973633897781372,-1.3191933981346378L32.135116897265114,-2.619674589490505L32.158185897191366,8.658689862121497L32.238927396933235,4.665656682312253L32.33120339663824,-5.729642099119951L32.40041039641698,-6.336297476738176L32.72337639538447,13.111035834801976L33.98063689136505,12.183397684728511L34.28053389040629,16.67292020336464L34.292068390369415,14.58358016562243L34.361275390148165,20.385450602320052L34.43048238992691,21.05951258588055L34.63810338926315,18.098935258552256L34.67270688915253,26.94953414521228L34.77651738882064,18.750161932590725L35.341707887013754,13.247117257308451L35.376311386903126,21.841070051677942L35.51472538646062,25.46773932625146L35.6877428859075,38.281982588577186L35.75694988568624,38.28343294667395L35.814622385501856,19.728039390719925L36.41441638358434,28.251014986435667L36.47208888339996,25.056397692634285L36.48362338336309,32.478544663810645L36.69124438269933,40.7177412457941L36.84119288221995,35.54581842406611L37.429452380339306,27.915111856390386L37.62553887971242,33.216138324964994L38.25993637768427,34.71546261645763L38.29453987757365,45.20838083713177L38.45602287705739,43.609070973773456L38.50216087690989,34.98139902203129L39.055816875139875,52.18374636858964L39.136558374881744,55.79814411117989L39.39031737407049,66.66578659291856L39.528731373627984,58.42391042475433L39.644076373259225,50.09107922924402L39.99011137215296,52.17540819195659L40.11699087174733,55.84428480093422L40.27847387123108,41.61433401142781L40.647577870051066,53.00332832687582L40.982078368981675,50.98561656055468L41.16663036839167,58.26566557244326L41.35118236780167,64.1317485584171L41.39732036765416,56.71246257205591L41.593406867027284,72.47036743925112L41.99711436573664,61.91613921313783L42.48156336418788,60.485869440373556L42.58537386385599,78.67262316457585L42.712253363450365,79.65994132956612L42.792994863192234,78.49097511380731L42.89680536286036,66.24865483266183L43.05828836234411,72.29183390214487L43.08135736227036,72.84205625715391L43.11596086215973,60.907437289347875L43.62347886053721,69.90641594486681L44.14253135887782,74.42855976819513L44.35015235821406,76.57480819923737L44.45396285788218,66.90352002688739L44.6039113574028,69.95713179763635L44.63851485729218,92.65915779640369L44.73079085699717,93.0704934096502L45.19217085552216,91.10185960347661L45.38825735489528,83.14355205773155L45.50360235452652,79.31388769710682L45.53820585441589,82.27596243962516L46.16106885242463,90.11146352146767L46.29948285198212,70.90479881830986L46.56477635113398,80.20911198566604L47.02615634965897,81.27440656127327L47.03769084962209,94.19079856479688L47.12996684932709,94.53781669797618L47.17610484917959,80.69799547881027L47.25684634892146,83.31160259718817L47.86817484696706,89.44236170085206L47.948916346708934,78.23861387302603L48.306485845565796,101.29500654081103L48.35262384541829,91.87614028718038L48.44489984512329,94.34769085422418L48.53717584482829,81.71113835372108L48.58331384468078,88.00351739513569L48.81400384394328,92.53682884711034L48.87167634375891,92.37900495248535L48.883210843722026,98.25912372966121L49.11390084298452,91.23253969298062L49.171573342800144,91.77956305148906L49.390728842099506,98.71556737987589L49.5752808415095,96.44195443995368L49.69062584114074,90.94480344704202L49.82903984069824,108.52693310293567L50.12893683973949,105.74311867747107L50.2327473394076,116.41833579406413L50.63645483811697,113.85217302435896L50.64798933808009,105.71938702126269L50.67105833800633,107.52210111884176L51.17857633638382,85.26661352700219L51.270852336088815,100.3840807625689L51.374662835756936,96.49198141171922L51.39773183568319,100.26160757172228L51.45540433549881,107.75000841949594L51.743766834576924,101.2173304660955L51.75530133454005,108.61198475262732L51.8706463341713,101.20186265004827L51.89371533409754,112.95496979148389L51.95138783391317,106.30747383055916L52.11287083339691,96.6186227556428L52.18207783317566,104.93754110927753L52.285888332843776,101.61047594479174L52.45890583229065,103.79637634328984L52.5281128320694,101.98159967442571L53.139441330115005,114.1784494678917L54.050666827201844,114.24249811973739L54.25828782653809,113.36255473544914L54.6850643251737,116.21443925643375L54.846547324657436,122.03831572234202L55.2502548233668,112.84584582886569L56.207618320306146,114.72773572910339L56.48444631942114,125.29593152953272L57.303395816802976,110.51822762470943L57.39567181650798,124.30963234970568L57.81091381518046,122.51981390899343L58.12234531418483,121.43856939499666L58.1569488140742,105.57870605092572L58.82594981193542,122.83086047216246L59.541088809649146,113.27157064513807L59.72564080905914,120.00104373256208L59.933261808395386,116.23414826900834L59.944796308358505,115.59568144829703L60.336969307104745,116.69649822592613L60.452314306736,130.10901708575213L60.486917806625364,129.28936745302934L60.49845230658849,118.65488617139759L60.52152130651474,118.24555440904268L60.53305580647787,117.93172778511025L61.20205680433909,127.62804103315871L61.66343680286408,120.79285247268014L62.02100630172094,123.37521238148597L62.332437800725295,137.54822603760115L62.39011030054092,125.63256398722532L62.643869299729666,129.4273624088627L62.863024799029034,133.9964434578288L63.036042298475905,137.66223611602447L63.220594297885896,126.54021280208653L63.555094796816505,120.71808381586307L63.589698296705876,127.79803244950014L63.878060795784,134.21287909166455L64.60473429346085,128.8725618674934L64.8123552927971,113.01986680332993L64.83542429272333,122.63562684196849L64.85849329264958,127.50788485982692L64.92770029242834,132.52516656355039L65.25066629139582,136.21253907894L65.41214929087957,122.23086628076187L66.05808128881455,120.62556512758506L66.10421928866705,120.66685928283502L66.2310987882614,133.4178256162751L66.8308927863439,126.13877123012291L67.07311728556951,133.71623095627356L67.13078978538513,136.73034391227438L67.15385878531139,129.27977739312587L67.26920378494262,131.03882239336167L67.64984228372575,136.77432304653448L67.78825628328323,131.6606718702258L68.38805028136571,136.19083995581244L68.7110162803332,129.19510539383577L69.03398227930069,137.54142256094892L69.47229327789942,132.63758420706841L69.59917277749379,130.1734353644473L69.63377627738316,138.1489071846867L70.29124277528128,133.28858023117905L70.34891527509689,135.42751554526518L70.47579477469127,140.3692266497887L71.31781327199936,139.80239757273117L71.45622727155686,134.88863448310562L71.4792962714831,141.9120136862301L71.53696877129873,132.4929652737129L71.54850327126185,137.35680293892347L71.83686577033997,140.06429262644173L71.89453827015558,140.69093751420425L71.92914177004496,144.3045580829469L72.02141776974996,140.62363014922778L72.25210776901245,134.97056422411623L72.28671126890183,139.974703888358L72.47126326831182,132.71662166936628L72.72502226750056,136.11057379851184L72.87497076702117,137.40520430354235L72.89803976694742,138.66973814230565L73.47476476510367,142.2510328167501L73.75159276421866,141.2080270564463L73.83233426396052,137.09636947360482L73.90154126373928,138.8831548552839L74.17836926285426,139.34417689007017L74.21297276274363,139.83096724487896L74.89350826056798,142.5293924180375L75.0895947599411,137.45792044052385L75.33181925916672,142.62581360779782L75.8854752573967,146.08999976522261L75.92007875728606,141.65502121242986L76.46220025555293,139.0970461044032L76.7851662545204,131.44026141249628L76.87744225422541,146.23320703187812L76.9235802540779,139.7781079597109L77.01585625378291,141.32993122182046L77.44263275241852,137.25340408322208L77.50030525223413,145.72957018766007L77.86940925105412,142.223759968752L77.96168525075913,139.51813886723806L78.06549575042723,139.1652764415768L78.30772024965286,132.56527587023575L78.44613424921036,137.29291061777855L78.4692032491366,145.51037276842737L78.90751424773535,139.1055737001369L79.04592824729285,142.88226696194803L79.53037724574406,143.2017824674313L80.31472324323654,145.28060199594518L80.41853374290466,146.76804709989923L80.45313724279404,140.60219352287706L81.3297592399915,140.84800457596336L81.35282823991776,136.9305236126398L81.36436273988087,139.40548925252372L81.9756912379265,141.1118318253266L82.29865723689397,131.8828525310123L83.05993423446019,140.93110255189004L83.50977973302206,146.85203357784232L84.54788472970327,151.93113263085655L84.73243672911326,148.72214590462616L84.893919728597,142.38717630713734L85.5975242263476,147.15576852104653L85.85128322553633,149.5014904051328L86.46261172358196,141.53394142066608L86.69330172284444,149.6177405302445L86.71637072277068,146.48007755731624L87.08547472159067,139.64374854448124L87.36230272070567,149.09312789389733L87.52378572018941,153.19272513778463L88.01976921860377,152.45134398700154L88.34273521757126,148.47937219230448L88.3658042174975,145.26724420100976L88.41194221735002,139.77535557775175L88.58495971679687,142.14276610158598L89.05787421528498,148.33218228747072L89.09247771517437,148.19951028533427L89.70380621321996,147.17104552508727L90.06137571207681,151.3184222957331L90.07291021203996,145.3372556229109L90.26899671141307,144.86586018439084L90.30360021130244,148.26207578218774L90.69577321004867,149.51789967723286L90.71884220997492,149.01935027712403L90.7995837097168,149.88475014174784L91.21482570838928,144.67574616729124L91.4570502076149,145.2070292339931L91.73387820672988,141.84651661262444L91.79155070654551,139.61442941590644L91.86075770632425,145.6053510095063L92.17218920532864,152.27751709187126L92.40287920459112,152.87023128989802L92.46055170440674,153.2983248817106L92.63356920385361,151.39833966677554L92.69124170366922,147.9108019551433L93.1872252020836,146.3884707810355L93.4755877011617,151.2022411692984L93.49865670108795,150.99576479624196L93.68320870049794,152.06485261325986L93.79855370012919,154.19860515574908L94.37527869828541,153.16402409922873L94.59443419758479,152.59172556057L94.74438269710541,149.1639881564249L94.81358969688416,152.41799354814427L94.96353819640478,151.06234783171095L95.62100469430287,150.49344928702L95.88629819345473,147.4340564259307L95.94397069327037,141.24599104139185L96.22079869238536,148.05514414572806L96.34767819197974,148.75616776291744L96.47455769157409,144.80766676731915L96.62450619109471,144.93588163621484L96.9013341902097,149.32082201907477L97.99711168670653,151.34503599500385L98.00864618666967,153.03360776317692L98.05478418652217,153.73159834572448L98.28547418578465,153.99764887490895L98.90833718379339,154.48822684674602L99.02368218342464,149.5538244309955L99.242837682724,152.6623722281465L99.86570068073273,151.883589720072L99.96951118040084,153.21970711681223L100.0387181801796,151.023211358774L100.10792517995834,144.22489791569728L100.14252867984773,147.23091657609964L100.22327017958959,153.09221029863488L100.31554617929459,153.88077475632238L100.35014967918396,153.12282902476053L100.48856367874146,151.9178562651877L100.79999517774581,153.4407125038934L100.84613317759832,154.8401974656369L100.9730126771927,147.33712271914683L101.88423817427953,151.88758480529228L102.04572117376327,151.74539477276136L102.13799717346828,153.8472664555015L102.31101467291514,154.13464676729265L103.06075717051824,150.7074684887399L103.39525766944885,151.28847010949966L103.42986116933822,151.25774890377033L103.72975816837946,151.70417303667736L103.98351716756821,145.60776501059306L104.8716736647288,152.06266847703137L105.04469116417567,154.40744896146114L105.13696716388067,151.6189810937339L105.40226066303252,152.52310457194872L105.60988166236878,152.42886477726984L106.07126166089375,150.82871697362603L106.31348616011938,154.29304827395597L106.67105565897624,155.02380626658135L107.28238415702184,155.46792092775115L107.40926365661622,152.79996081501895L107.61688465595245,155.13505738975604L107.7322296555837,154.49853786076216L107.74376415554683,148.06921247882022L107.96291965484619,154.1369694357775L108.22821315399806,155.49662224110213L108.44736865329742,146.21119001597387L108.89721415185927,148.5820489370132L108.93181765174866,153.23475586686607L109.01255915149052,153.7083625415053L109.12790415112177,154.95174688978474L109.16250765101114,153.37483359106756L109.33552515045803,151.86393107555494L109.71616364924112,154.18547553923725L109.9353191485405,154.50815863714806L110.84654464562733,155.14278384204763L111.2502521443367,155.16567028330212L111.44633864370982,156.3100809453901L111.6193561431567,154.4788469414399L111.74623564275106,156.00858269886245L111.8154426425298,155.61733924606662L112.1038051416079,153.28987779444748L112.16147764142355,154.13279541442446L112.21915014123917,150.33654018405198L112.42677114057541,151.2044467631964L112.55365064016978,149.93078517320697L112.58825414005915,152.71324345062484L112.81894413932166,153.86271336411608L112.91122013902664,154.61276777858728L113.02656513865789,155.75547596811398L113.43027263736725,156.30318228019638L113.48794513718286,156.74014431435393L114.19154963493347,156.69620521525215L114.20308413489659,156.84883508172382L114.57218813371658,156.50935345133377L115.16044763183594,156.71837524582963L115.25272363154093,156.83481596802835L115.6564311302503,156.09540461765266L115.78331062984466,154.58921144923298L115.92172462940216,155.54898283215962L116.11781112877527,154.64217382619302L116.80988112656276,153.651790001316L117.43274412457149,155.84374018438456L117.47888212442398,155.7908306646627L117.64036512390773,155.60992100149448L117.83645162328085,155.4341388041048L117.9056586230596,154.1775323636866L118.39010762151082,156.29516100345452L118.57465962092083,156.5222485983881L118.70153912051519,156.6363746222316L118.8976256198883,156.32815337745893L119.1283156191508,156.6495260088839L119.18598811896642,155.6906460113479L119.20905711889266,156.48614359422848L119.27826411867142,156.9392953300449L119.50895411793391,156.5835842899664L119.54355761782328,154.9685651705382L119.6012301176389,154.57439669091175L119.70504061730703,156.43571260127402L120.74314561398823,155.9758304697272L120.75468011395135,155.50455279083036L120.77774911387762,154.61402042995886L121.10071511284511,155.65717288523547L121.15838761266072,155.63313020898235L121.21606011247636,156.28415512511253L121.88506111033759,156.50081909291305L122.18495810937883,156.180035420111L122.28876860904693,152.30962633515205L122.66940710783004,154.93799134584557L122.68094160779317,156.48913235153785L122.78475210746129,156.79292375276904L123.22306310606002,156.88314882434517L123.31533910576503,157.017271296824L123.37301160558064,156.1076960484128L123.74211560440064,156.37567089531163L124.28423710266749,156.5639732758096L124.33037510252,154.774608934746L124.59566860167186,154.04870490333104L124.80328960100809,156.3668381190259L124.83789310089747,156.9344382840136L125.08011760012307,157.08879266406552L125.20699709971746,157.25074878911886L125.48382509883244,156.6198813330184L125.56456659857432,157.14949926724321L125.76065309794744,157.32995340511906L125.78372209787368,157.32875763758952L125.81832559776306,157.03505837146292L126.06055009698868,156.01270303471176L126.14129159673055,157.00863478213608L126.40658509588242,156.11883602787333L126.60267159525553,152.68643154093462L126.81029259459179,155.5846252502022L126.87949959437051,157.03790103214624L126.99484459400176,157.3341777940733L127.21400009330114,157.20172164496145L127.52543159230551,157.46891790636568L127.6177075920105,157.2630765027915L127.8599320912361,156.23108257071974L128.67888158861797,155.48648947690756L129.38248608636854,156.83372866942486L129.4978310859998,156.79184105567984L129.57857258574168,156.7841638197161L129.89000408474604,157.3228930505305L130.13222858397165,157.22612967894992L130.4321255830129,157.66788008018813L130.53593608268102,157.16140580820053L130.905040081501,156.61352695400603L131.1472645807266,156.27138843858927L131.64324807914096,157.17506011726223L131.67785157903035,157.33855566013705L131.90854157829284,157.21438484997657L131.98928307803473,157.53048864186297L132.28918007707597,157.6918591490491L133.09659507449467,156.56652766812604L133.2004055741628,156.4360275810628L133.28114707390466,157.19600081116778L133.4310955734253,157.53745410966567L133.68485457261403,157.28840201261323L133.8117340722084,157.18456016073358L133.9386135718028,157.35195554974692L134.12316557121275,156.86574620148727L134.39999357032775,157.20383501104521L134.46920057010652,156.7686066283971L134.73449406925837,156.33944143976044L134.9421150685946,157.13743800957548L135.6457195663452,157.51561007654885L135.74953006601334,157.48846916360068L136.25704806439083,157.70956961412438L136.5800140633583,157.63409706774593L136.6146175632477,157.25742044212527L137.07599756177265,157.52502899357324L137.35282556088765,157.50298385110048L138.10256805849076,156.64647651620243L139.00225905561447,156.0646972163851L139.0599315554301,156.06407270028936L139.09453505531948,157.2274238639133L139.25601805480323,157.64643698495883L139.39443205436072,157.5646201812714L139.65972555351257,157.38779294612226L139.72893255329134,157.60901673284252L139.9019500527382,157.0242970998642L140.08650205214818,157.66501544260828L140.36333005126315,157.72772551442938L140.5594165506363,157.68987150598693L141.25148654842377,157.56515920207883L141.37836604801814,157.58490855875186L141.60905604728063,157.37777833697223L141.68979754702252,157.50267991483986L141.74747004683812,156.85283337547193L142.99319604285557,157.47937323050314L143.02779954274496,157.59097769459206L143.27002404197057,157.60098620965908L143.3276965417862,157.7831254951185L143.82368004020054,157.1980934341934L143.95055953979494,157.44850419300974L144.06590453942616,157.14288752164242L144.11204253927866,156.97091741189848L144.44654303820928,157.31006462971115L144.5503535378774,157.70254059322144L144.81564703702927,157.8317541553262L144.82718153699238,157.81426790505697L144.96559553654987,157.78933327466154L145.32316503540673,157.82512511365707L145.42697553507486,157.91119082977067L145.62306203444797,157.80302418791814L145.68073453426362,156.7257393912619L145.78454503393172,157.33714150476425L145.87682103363673,157.15628858477692L145.96909703334174,156.80481649167456L146.16518353271485,156.95606919966502L146.5112185316086,157.43969090000394L146.6265635312398,157.6270171524071L147.05334002987541,157.7192864829197L147.15715052954354,157.79271733893773L147.1686850295067,157.84167258019588L147.42244402869542,157.90055824413088L147.5031855284373,157.79498603005737L147.8261515274048,157.89005661022466L147.94149652703604,157.88176513723926L147.99916902685166,157.2439735118794L148.12604852644603,157.65942863765414L148.22985902611416,157.7532281030795L148.39134202559788,157.75443235029735L148.82965302419663,157.69387494601887L148.864256524086,157.78501254845958L149.25642952283224,157.73714871605782L149.30256752268474,157.8313287241793L149.5678610218366,157.54954036916848L149.63706802161536,157.8074759786258L149.6601370215416,157.85575411479167L150.12151702006656,157.629345991422L150.19072401984533,157.24464825971415L150.21379301977157,157.5867625080251L150.34067251936597,157.44321343846966L150.39834501918156,157.78269019233022L150.5598280186653,157.51712212886937L150.66363851833344,157.82609252716554L150.84819051774343,157.4963999974761L151.13655301682155,157.7746919401028L151.3557085161209,157.39714300193245L151.45951901578903,157.3544489295254L151.66714001512528,157.66626125412873L151.97857151412964,157.56851138984828L152.2438650132815,157.6247856970059L152.26693401320776,157.82944761435434L152.27846851317088,157.8694751228043L152.95900401099524,157.80241781741054L152.9936075108846,157.83719982953005L153.09741801055273,157.7797110856292L153.53572900915148,157.9290011361763L154.1239885072708,157.92406583055538L154.70071350542702,157.92670429905868L154.79298950513206,157.92491313653363L155.2082315038045,157.89848954209307L155.40431800317762,157.97098973584366L155.63500800244012,157.89458198520174L155.95797400140762,157.87397865223298L155.992577501297,157.8638829012615L156.07331900103887,157.86729149334732L156.09638800096513,157.40976123852215L156.29247450033824,157.77083492412274L156.38475050004322,157.71555205196057L156.48856099971135,157.73204607524613L156.66157849915822,157.66248119163208L156.84613049856821,157.68960519613555L157.29597599713006,157.88917068554633L157.43438999668757,157.98866651845503L157.57280399624506,157.8006003791401L157.69968349583942,157.8852445748863L157.8611664953232,157.81385341829318L157.88423549524944,157.79338669617215L158.2994774939219,157.8708994462258L158.7147194925944,157.90643601978257L159.02615099159874,157.878578517143L159.1991684910456,157.88477008542895L159.54520348993938,157.94307543143626L159.82203148905438,157.87590000529963L160.02965248839058,157.93678528589803L160.4102909871737,157.85983219764685L160.7217224861781,157.8980811925415L160.8716709856987,157.73866662498529L160.89473998562494,157.811279190962L160.90627448558809,157.90463366196622L161.13696448485055,157.36525879355298L161.19463698466618,157.76827633930586L161.35611998414996,157.89563460057153L161.47146498378117,157.93192191080124L161.5291374835968,157.95043977612494L161.6098789833387,157.95195716285693L161.82903448263804,157.97379430446662L161.96744848219552,157.93743005739927L162.3711559809049,157.9319348879116L163.0862949786186,157.73754653151303L163.25931247806548,157.8598121827024L163.38619197765985,157.87720308994946L163.43232997751235,157.8777272876158L163.61688197692237,157.89647563793773L163.99752047570547,157.88183688921177L164.1013309753736,157.93178280902674L164.60884897375107,157.9294320262775L164.83953897301356,157.93609832504515L164.87414247290295,157.92035090174178L165.0586944723129,157.92049634918908L165.24324647172293,157.9106719341358L166.06219596910478,157.89518497610226L166.16600646877288,157.92932389902924L166.52357596762974,157.80072913205865L166.74273146692914,157.93143832359326L166.7773349668185,157.56890548648946L167.03109396600723,157.8330066751509L167.7808364636103,157.92743870917937L167.87311246331535,157.91260422935193L168.11533696254094,157.8647254406661L168.3690959617297,157.7395526223539L168.70359646066032,157.62539530835804L169.23418345896403,157.85429283513892L169.55714945793153,157.94679430318956L170.2376849557559,157.95781847953552L170.42223695516586,157.94301149783144L170.77980645402272,157.88318662706692L171.11430695295334,157.88146683237588L171.40266945203146,157.9709999844107L171.46034195184708,157.91441362310016L171.6102904513677,157.94921718605877L171.76023895088832,157.96796591448657L171.82944595066706,157.9694084023934L172.3138949491183,158.0064983716132L172.32542944908144,157.96182741051845L172.5561194483439,157.96666722022434L173.22512044620515,157.97946531278293L173.42120694557826,157.63302278708068L173.73263844458265,157.89852547861028L173.74417294454574,157.95781275706244L173.83644894425072,157.79614502806325L173.97486294380823,157.95334387098077L174.11327694336572,157.96196049000494L174.28629444281262,157.9915156045557L174.33243244266512,157.97647465969567L174.52851894203823,157.97341093841106L174.73613994137446,157.9604673463642L174.9437609407107,157.98405893793583L175.1167784401576,157.9470685034449L175.2321234397888,157.95751905040595L175.2667269396782,157.92290567140668L175.40514093923568,157.88006706888098L175.41667543919883,157.8026644486338L175.46281343905133,157.94096901968123L175.7857794380188,157.9796936611589L176.08567643706004,157.9785727754345L176.46631493584314,157.92070445582374L176.63933243529002,157.98229134113066L177.0545744339625,157.96372454126558L177.6659029320081,157.93600766896117L177.7120409318606,157.9310451809825L177.9427309311231,157.96526872128283L178.5079214293162,157.7861783102828L178.8424219282468,157.82761932449586L179.32687092669804,157.94569424810493L179.91513042481742,157.95953705232313L180.0881479242643,157.986728383008L180.18042392396927,158.00524669153367L180.24963092374801,157.96720179094797L180.82635592190422,157.91283018110386L180.8609594217936,157.96877321411475L180.895562921683,158.01319125446105L181.04551142120363,157.97706407845524L181.35694292020796,157.9554621335907L181.6453054192861,158.00652935734269L181.72604691902797,157.97118153760363L181.97980591821673,157.81788500537633L182.2220304174423,157.93289006731308L182.37197891696295,157.96390995007062L182.7756864156723,157.99384001406406L183.04097991482416,158.01977548731318L183.07558341471355,157.90825818122462L183.22553191423415,157.9590418499082L183.27166991408666,157.99659298046228L183.83686041227978,157.97838418601506L183.84839491224287,157.9408575286342L184.06755041154227,158.00551424380592L184.10215391143163,158.00933277284636L184.20596441109976,157.9664025747695L184.21749891106288,158.00033144996416L184.28670591084162,157.96799607708408L184.5173959101041,158.01234765009136L184.54046491003038,157.9922347548979L185.48629390700657,157.98195015310316L185.5555009067853,157.95812222810136L186.42058840401967,157.9737918993983L186.74355440298714,157.88980265679848L187.11265840180715,157.9701134586058L187.1818654015859,157.94356566688674L187.44715890073775,157.99344960658507L187.87393539937335,156.54757432135625L187.8854698993365,157.6003358405489L187.95467689911524,157.87078881969904L188.05848739878337,157.906972960243L188.25457389815648,157.9480881254159L188.392987897714,157.97351841064318L188.46219489749274,157.98198766684098L188.69288489675523,157.9689962437816L188.73902289660774,157.98792504754675L189.0158508957227,157.94554093822222L189.14273039531707,157.96200644421486L189.7194553934733,157.99295213170055L189.9962833925883,157.98851617849905L190.26157689174016,157.99523772480188L190.67681889041265,158.02578117900987L190.95364688952765,158.0017074685528L190.97671588945389,157.99268559317755L190.988250389417,157.90129667114738L191.6803203872045,157.98274363462207L191.85333788665136,158.01010763772084L191.9225448864301,158.01731521694214L192.26857988532382,158.0186371203912L192.37239038499195,157.9873826702023L192.41852838484448,157.99922350287645L192.48773538462322,158.00861064483212L192.67228738403318,157.955186340869L193.16827088244756,157.9712743270583L193.30668488200504,157.97843874045253L193.5489093812307,158.00083376398567L193.5604438811938,158.02108238955728L193.60658188104628,157.9761900142186L193.6527198808988,157.93860397415202L193.6988578807513,157.9514896365635L193.89494438012443,157.90008307653437L193.96415137990314,157.96049711233067L194.01028937975565,157.99542877924728L194.32172087876003,158.0041819989961L194.63315237776436,158.0127387134034L194.85230787706377,157.98366798344009L195.22141187588375,158.0000362923626L195.23294637584686,157.95505447747385L195.24448087580998,157.95116999287745L195.52130887492498,157.98751091428514L196.27105137252806,157.9456097591119L196.40946537208558,158.00846731447254L197.13613886976242,157.93123626534253L197.62058786821368,157.98916158555164L197.66672586806615,158.00880340370753L198.17424386644365,157.92317524790994L198.393399365743,157.9440433575687L198.82017586437863,157.98457607166563L199.16621086327234,158.00300536030406L199.24695236301423,158.00693988559564L199.36229736264545,158.01048433298197L199.5699183619817,157.99724078951266L199.8352118611336,157.9781464137031L200.0312983605067,158.01497948973045L200.10050536028544,157.9990277447884L200.18124686002733,157.99275697894768L200.72336835829415,158.01084943454006L200.7810408581098,157.64674089788352L200.9655928575198,157.9161455717636L201.03479985729854,157.97799533757768L201.15014485692976,157.9295488645681L201.357765856266,157.97076141570466L201.55385235563912,157.97648636621756L201.5769213555654,158.02551198762268L201.9460253543854,158.01415221960468L202.17671535364786,157.95984044553578L202.30359485324223,157.97737702067286L202.8457163515091,157.69332205025057L202.98413035106657,157.9345146817819L203.11100985066096,157.98198344613797L203.84921784830092,157.93621607852788L204.2067873471578,158.00591410754404L204.63356384579342,157.9977088878045L204.9103918449084,158.01189217784685L205.01420234457652,158.01449199764735L205.08340934435526,158.00785098074817L205.25642684380213,158.01705948718552L205.45251334317524,157.94712239982104L205.613996342659,157.95298084089796L205.64859984254835,158.01149725393864L205.86775534184775,157.88809951758526L206.0869108411471,157.9870729397464L207.39030933698018,158.01156154261923L207.4825853366852,157.99081928775308L207.55179233646393,157.99813976937844L207.82862033557893,157.98338979562837L207.84015483554202,157.9979152726493L208.27846583414077,157.95367614850923L208.58989733314513,157.99438579682177L208.72831133270265,158.00430438068253L208.97053583192823,158.0067736746152L209.6510713297526,158.0008060984204L209.8010198292732,158.01213244603943L209.91636482890448,157.91959338102106L209.96250282875698,157.96510307137885L210.25086532783507,158.00161228824226L210.5046243270238,158.00266699708632L211.33510832436878,157.98086935312705L211.58886732355754,157.96724658766158L211.63500532341,158.00427798386912L211.65807432333628,158.0261439610326L211.6696088232994,158.02176063859656L211.78495382293065,158.00053347075212L212.01564382219314,158.00669246335167L212.31554082123438,157.88422979730686L212.70771381998063,157.97085803116016L212.81152431964875,158.00454981568714L213.45745631758373,158.00921718916248L214.08031931559245,158.0229373878274L214.38021631463369,158.0303117093244L214.4378888144493,158.02153079410695L214.6685788137118,158.0334824737222L215.25683831183113,158.03834803573488L215.30297631168366,158.03239233403693L215.67208031050365,158.02427299929636L216.23727080869674,158.0193879951746L216.46796080795923,157.96734634776755L216.83706480677924,157.9794738702235L216.9524098064105,157.99473203355876L216.96394430637358,157.99913998030215L217.25230680545172,158.0034156286339L217.30997930526735,157.9215071436874L217.35611730511982,157.98605977880047L217.51760030460358,158.00728099577944L218.0020493030548,157.8530932614334L218.29041180213292,157.92784874306423L219.15549929936725,158.0006483470328L219.92831079689662,158.00366632391717L220.28588029575346,158.0035513972065L220.67805329449973,157.98506486485522L220.68958779446282,157.98896443971032L220.94334679365159,158.01171064652928L221.3816577922503,157.96296989918977L221.43933029206596,158.00990754866055L221.49700279188156,158.02918718399198L221.61234779151283,158.008773951674L221.92377929051716,157.9464107536703L221.9353137904803,157.97805693484847L222.01605529022217,157.8980687158267L222.1775382897059,157.9948936700116L222.3044177893003,158.00189108432596L222.51203878863652,158.02587391892067L222.53510778856278,158.03491669549462L222.80040128771464,157.9982082357989L222.81193578767775,158.02036317227726L222.82347028764087,158.004252425282L222.85807378753026,157.96027029212985L223.0772292868296,157.98414370895097L223.48093678553897,158.00731446526487L223.6770232849121,158.0131553055734L223.82697178443274,157.95101069554528L223.83850628439586,157.9830527630659L223.9538512840271,158.00602345158077L224.08073078362145,158.01161612428996L224.19607578325272,157.98893774758017L224.2883517829577,158.0246057029684L224.40369678258898,158.02188071064805L224.96888728078207,157.98505664897152L225.06116328048705,157.99332624011998L225.10730128033956,157.9756751306659L225.43026727930706,157.99741775764943L225.59175027879078,158.01923105059777L225.66095727856955,158.025173599584L225.82244027805328,158.0059891287092L225.84550927797952,157.99730386143003L225.9262507777214,158.0277127255198L225.97238877757388,157.968828430018L226.00699227746327,158.01771388780406L226.0185267774264,158.03158522739818L226.06466477727892,157.98518646168299L226.353027276357,157.96689432704227L226.4683722759883,157.94850786233454L226.51451027584076,157.92539759514585L226.69906227525075,157.9940504299763L226.8605452747345,157.99334339189485L227.27578727340696,157.93839469587644L227.2873217733701,158.00887467438525L227.368063273112,157.99197963720002L227.49494277270637,157.9913156118886L227.84097777160008,157.97845605070918L228.06013327089946,158.01179675415042L228.07166777086258,158.02162711345633L228.1293402706782,158.0160775196566L228.44077176968256,157.98905455126427L228.6483927690188,157.99591673610504L228.8790827682813,157.9899510863914L230.15941226418815,158.01422828403454L230.26322276385628,158.0300456246418L230.44777476326624,158.02823658130382L230.48237826315562,158.04196314428L230.58618876282375,158.01535074910922L230.90915476179123,157.79681755856453L231.30132776053745,157.9629802030404L231.3128622605006,157.97952719057767L231.41667276016872,157.94176052937274L231.45127626005808,158.00229130415843L231.90112175861995,157.98934573883602L232.07413925806682,158.02251901821597L232.18948425769807,158.02981004979372L232.3625017571449,158.01360464963892L232.38557075707118,157.91034612656628L232.4778467567762,157.9891098762201L232.66239875618615,158.01267813452526L232.89308875544864,158.00058528574286L233.16991675456364,158.02421182807038L233.4236757537524,158.03039922417224L233.74664175271988,157.99741094062847L233.8850557522774,158.00672942356596L234.3695047507286,158.01037544111878L234.40410825061798,158.00285399020035L234.8770227491061,157.98414966775164L234.9692987488111,157.9842855657578L235.90359324582417,158.0045333888966L235.91512774578732,158.0080739057272L236.91862924257913,158.03351404768364L237.01090524228414,157.99267547198207L237.5184232406616,157.98563661378066L237.52995774062475,158.0178070269851L238.11821723874408,158.0214846351033L238.2220277384122,157.95581470729394L238.8102872365316,157.99014796855874L238.9256322361628,158.00783434835685L239.0063737359047,158.01385263636723L239.06404623572033,158.0142343049012L239.34087423483533,157.89781688316384L239.76765073347093,157.95841227535092L239.96373723284404,157.97895234690066L240.44818623129527,157.94662099177404L241.00184222952527,157.79306678040112L241.0249112294515,157.88399350306486L241.46322222805023,157.93340871623272L241.75158472712835,157.94997262125108L241.97074022642772,157.95846192670638L242.02841272624335,157.9735590327373L242.08608522605897,158.00946552284282L242.2937062253952,158.02139704494442L242.35137872521082,157.9857692836954L242.40905122502645,158.0241785994945L242.54746522458393,158.02270473544402L242.78968972380957,158.035414402435L243.33181122207642,157.99327781251998L243.574035721302,157.99003438581389L244.00081221993764,158.00324723494558L244.18536421934763,157.97136164467614L244.57753721809385,158.00619113477515L244.70441671768822,158.0136574397045L244.85436521720885,157.9642024801042L245.28114171584446,158.012591872863L245.36188321558635,157.98955472481714L245.40802121543882,157.92874975399639L245.69638371451697,157.99253882045844L245.9962807135582,157.9920481368063L246.4576607120832,158.01235018285345L246.9305752105713,157.96320408074695L246.96517871046063,157.9956025336681L247.0228512102763,157.9787116559079L247.5995762084325,158.00577574272683L247.83026620769502,158.00018264365534L248.00328370714186,157.9980750892213L248.03788720703125,158.01093177727387L248.0609562069575,158.00458185972474L248.29164620622,158.0047200357222L248.36085320599875,158.02278642431057L248.6261467051506,158.028393868432L248.91450920422872,158.03197615708672L248.93757820415496,158.01475895942417L249.0875267036756,157.9949786460954L249.32975120290118,158.02314393269955L249.54890670220058,158.0328624603293L249.61811370197933,158.0183620649826L249.77959670146308,157.9814676091092L249.90647620105744,157.9970693724826L250.01028670072554,157.9373005824842L250.05642470057808,157.98464697021325L250.54087369902928,158.00841015656383L250.62161519877117,158.00284937051651L250.66775319862364,158.03522605527502L250.7254256984393,158.02716395324543L250.73696019840241,157.95680895088418L251.19834019692738,158.01377726734233L251.41749569622675,157.9891418687968L251.7289271952311,157.97397892473435L251.994220694383,157.98653377335384L252.32872119331358,157.988397185031L252.8016356918017,158.02046315486044L252.91698069143297,158.04242092841338L253.05539469099043,157.95585617527408L253.2514811903636,157.9862228103159L253.43603318977355,157.97711126350148L253.52830918947856,158.01626636371398L253.63211968914666,157.8071415515391L253.71286118888855,157.945881541969L253.75899918874103,157.92918465684892" fill="none"></path></g></g></g></g><g opacity="0.2"><g><g><g><path style="fill: none;" stroke="rgb(255, 112, 67)" stroke-width="2px" d="M31.408443399588265,-4.116562485694885L31.500719399293263,1.3721874952316284L31.904426898002626,5.9004062294959985L31.950564897855124,14.133531200885768L31.973633897781372,-6.449281227588638L32.135116897265114,-3.156031239032761L32.158185897191366,13.3102187037468L32.238927396933235,3.0188124895095862L32.33120339663824,-10.016968715190902L32.40041039641698,-6.586499977111832L32.72337639538447,21.131687426567087L33.98063689136505,11.800812458991997L34.28053389040629,18.524531185626984L34.292068390369415,13.721874952316284L34.361275390148165,22.778312420845023L34.43048238992691,21.33751555085182L34.63810338926315,16.877906191349027L34.67270688915253,30.59978114366531L34.77651738882064,15.368499946594243L35.341707887013754,10.977499961853027L35.376311386903126,25.385468661785126L35.51472538646062,26.963484281301508L35.6877428859075,43.5669529736042L35.75694988568624,38.28403111696244L35.814622385501856,12.075249958038325L36.41441638358434,31.766140514612207L36.47208888339996,23.73884366750717L36.48362338336309,35.53965612649918L36.69124438269933,44.11582797169686L36.84119288221995,33.412765508890146L37.429452380339306,24.76798428893089L37.62553887971242,35.40243737697601L38.25993637768427,35.33382800221443L38.29453987757365,49.53596857786178L38.45602287705739,42.94946860074997L38.50216087690989,31.4230936408043L39.055816875139875,59.27849979400635L39.136558374881744,57.28882792592049L39.39031737407049,71.14792162775993L39.528731373627984,55.024718558788294L39.644076373259225,46.654374837875366L39.99011137215296,53.035046690702444L40.11699087174733,57.357437300682065L40.27847387123108,35.74548425078392L40.647577870051066,57.70048417448997L40.982078368981675,50.153452950716016L41.16663036839167,61.268171662092215L41.35118236780167,66.55109351873398L41.39732036765416,53.652531063556665L41.593406867027284,78.96939035058021L41.99711436573664,57.563265424966815L42.48156336418788,59.895984166860586L42.58537386385599,86.17337470054626L42.712253363450365,80.06714034676551L42.792994863192234,78.00885910391807L42.89680536286036,61.19956228733062L43.05828836234411,74.78421849012375L43.08135736227036,73.06898412108421L43.11596086215973,55.98524980545044L43.62347886053721,73.61785911917687L44.14253135887782,76.29362473487853L44.35015235821406,77.45998410582543L44.45396285788218,62.91479665637016L44.6039113574028,71.21653100252152L44.63851485729218,102.02214027047157L44.73079085699717,93.24014030098915L45.19217085552216,90.28993718624115L45.38825735489528,79.86131222248078L45.50360235452652,77.73442160487176L45.53820585441589,83.49760908484458L46.16106885242463,93.34305436313153L46.29948285198212,62.98340603113175L46.56477635113398,84.04648408293724L47.02615634965897,81.71376534104347L47.03769084962209,99.51789809167386L47.12996684932709,94.68093717098236L47.17610484917959,74.9900466144085L47.25684634892146,84.38953095674515L47.86817484696706,91.9708668678999L47.948916346708934,73.61785911917687L48.306485845565796,110.804140239954L48.35262384541829,87.99152313172817L48.44489984512329,95.36703091859818L48.53717584482829,76.49945285916328L48.58331384468078,90.59867937266827L48.81400384394328,94.40649967193603L48.87167634375891,92.31391374170781L48.883210843722026,100.68425746262074L49.11390084298452,88.33457000553608L49.171573342800144,92.00517155528068L49.390728842099506,101.5761793345213L49.5752808415095,95.50424966812133L49.69062584114074,88.67761687934399L49.82903984069824,115.77831991016865L50.12893683973949,104.59499182403087L50.2327473394076,120.82110895514488L50.63645483811697,112.79381210803986L50.64798933808009,102.36518714427947L50.67105833800633,108.26559337377549L51.17857633638382,76.0877966105938L51.270852336088815,106.61896837949753L51.374662835756936,94.88676529526711L51.39773183568319,101.81631214618683L51.45540433549881,110.83844492733479L51.743766834576924,98.52306215763092L51.75530133454005,111.66175742447376L51.8706463341713,98.14571059644223L51.89371533409754,117.8022964656353L51.95138783391317,103.56585120260715L52.11287083339691,92.62265592813492L52.18207783317566,108.36850743591785L52.285888332843776,100.23829652667045L52.45890583229065,104.69790588617325L52.5281128320694,101.23313246071339L53.139441330115005,119.20878864824772L54.050666827201844,114.26891366541386L54.25828782653809,112.9996402323246L54.6850643251737,117.39064021706581L54.846547324657436,124.4402534738183L55.2502548233668,109.05460118353366L56.207618320306146,115.50388241112232L56.48444631942114,129.65456595569847L57.303395816802976,104.42346838712692L57.39567181650798,129.99761282950638L57.81091381518046,121.78164020180702L58.12234531418483,120.99263239204883L58.1569488140742,99.03763246834278L58.82594981193542,129.94615579843523L59.541088809649146,109.32903868257999L59.72564080905914,122.77647613584995L59.933261808395386,114.68056991398335L59.944796308358505,115.33235897421837L60.336969307104745,117.15050740540028L60.452314306736,135.64073390364646L60.486917806625364,128.95131986439227L60.49845230658849,114.26891366541386L60.52152130651474,118.07673396468162L60.53305580647787,117.8022964656353L61.20205680433909,131.62708548009394L61.66343680286408,117.97381990253925L62.02100630172094,124.4402534738183L62.332437800725295,143.39359325170517L62.39011030054092,120.7181948930025L62.643869299729666,130.99244876354933L62.863024799029034,135.880866715312L63.036042298475905,139.1741167038679L63.220594297885896,121.95316363871098L63.555094796816505,118.31686677634715L63.589698296705876,130.71801126450302L63.878060795784,136.85855030566452L64.60473429346085,126.6700581535697L64.8123552927971,106.48174962997436L64.83542429272333,126.60144877880812L64.85849329264958,129.51734720617534L64.92770029242834,134.59444093853236L65.25066629139582,137.7333198338747L65.41214929087957,116.46441365778446L66.05808128881455,119.96349177062511L66.10421928866705,120.68389020562172L66.2310987882614,138.67669873684645L66.8308927863439,123.13667535334825L67.07311728556951,136.84139796197414L67.13078978538513,137.97345264554022L67.15385878531139,126.20694487392902L67.26920378494262,131.76430422961712L67.64984228372575,139.13981201648713L67.78825628328323,129.5516518935561L68.38805028136571,138.0592143639922L68.7110162803332,126.3098589360714L69.03398227930069,140.98368896320463L69.47229327789942,130.61509720236063L69.59917277749379,129.15714798867702L69.63377627738316,141.43822607100012L70.29124277528128,131.28403860628603L70.34891527509689,136.3096753075719L70.47579477469127,142.40733348950744L71.31781327199936,139.568620608747L71.45622727155686,132.86205422580244L71.4792962714831,144.8086616061628L71.53696877129873,128.60827299058437L71.54850327126185,139.36279248446226L71.83686577033997,141.1809409156442L71.89453827015558,140.94938427582383L71.92914177004496,145.79492136836052L72.02141776974996,139.10550732910633L72.25210776901245,132.63907375782728L72.28671126890183,142.03855810016395L72.47126326831182,129.72317533046007L72.72502226750056,137.51033936589957L72.87497076702117,137.93914795815945L72.89803976694742,139.1912690475583L73.47476476510367,143.72806395366788L73.75159276421866,140.77786083891988L73.83233426396052,135.40060109198092L73.90154126373928,139.6200776398182L74.17836926285426,139.53431592136621L74.21297276274363,140.03173388838766L74.89350826056798,143.6423022352159L75.0895947599411,135.36629640460015L75.33181925916672,144.7572045750916L75.8854752573967,147.51873190924525L75.92007875728606,139.82590576410294L76.46220025555293,138.0420620203018L76.7851662545204,128.28237846046684L76.87744225422541,152.33425240032375L76.9235802540779,137.11583546102045L77.01585625378291,141.96994872540236L77.44263275241852,135.57212452888487L77.50030525223413,149.2253901064396L77.86940925105412,140.77786083891988L77.96168525075913,138.4022612378001L78.06549575042723,139.01974561065435L78.30772024965286,129.84324173629284L78.44613424921036,139.2427260786295L78.4692032491366,148.8994955763221L78.90751424773535,136.46404640078546L79.04592824729285,144.4398862168193L79.53037724574406,143.33356004878877L80.31472324323654,146.13796824216843L80.41853374290466,147.3815131597221L80.45313724279404,138.0592143639922L81.3297592399915,140.94938427582383L81.35282823991776,135.31483937352894L81.36436273988087,140.42623779326678L81.9756912379265,141.8155776321888L82.29865723689397,128.07655033618212L83.05993423446019,144.6628666847944L83.50977973302206,149.29399948120115L84.54788472970327,154.02590229678898L84.73243672911326,147.3986655034125L84.893919728597,139.77444873303173L85.5975242263476,149.1224760442972L85.85128322553633,150.46893502399325L86.46261172358196,138.24789014458656L86.69330172284444,152.951736773178L86.71637072277068,145.1860131673515L87.08547472159067,136.82424561828375L87.36230272070567,152.99032954648138L87.52378572018941,154.88351948130875L88.01976921860377,152.14557661972938L88.34273521757126,146.84121433347465L88.3658042174975,143.94246824979783L88.41194221735002,137.51033936589957L88.58495971679687,143.11915575265883L89.05787421528498,150.88487935848534L89.09247771517437,148.1447924539447L89.70380621321996,146.74687644317746L90.06137571207681,153.02892231978475L90.07291021203996,142.87044676914812L90.26899671141307,144.67144285663963L90.30360021130244,149.66277487054467L90.69577321004867,150.0358383458108L90.71884220997492,148.81373385787012L90.7995837097168,150.2416664700955L91.21482570838928,142.5273998953402L91.4570502076149,145.42614597901704L91.73387820672988,140.46054248064755L91.79155070654551,138.69385108053686L91.86075770632425,148.0761830791831L92.17218920532864,155.0293144026771L92.40287920459112,153.11468403823673L92.46055170440674,153.47488325573502L92.63356920385361,150.61472994536163L92.69124170366922,146.47243894413114L93.1872252020836,145.76061668097972L93.4755877011617,153.18758149892093L93.49865670108795,150.91060787402094L93.68320870049794,152.5057758372277L93.79855370012919,155.078627390787L94.37527869828541,152.73733247704806L94.59443419758479,152.35569282993674L94.74438269710541,147.75028854906557L94.81358969688416,153.76004096958786L94.96353819640478,150.50323971137405L95.62100469430287,150.2588188137859L95.88629819345473,146.17227292954922L95.94397069327037,138.69385108053686L96.22079869238536,150.86343892887234L96.34767819197974,149.04529049769044L96.47455769157409,143.17918895557523L96.62450619109471,144.98876121491193L96.9013341902097,151.1293002560735L97.99711168670653,152.1798813071102L98.00864618666967,153.73002436812968L98.05478418652217,154.0194701679051L98.28547418578465,154.10737592931835L98.90833718379339,154.6905556147918L99.02368218342464,147.51873190924525L99.242837682724,153.94442866425962L99.86570068073273,151.56239693425596L99.96951118040084,153.77076118439436L100.0387181801796,150.11731197834015L100.10792517995834,141.4210737273097L100.14252867984773,148.4706869840622L100.22327017958959,155.5095800260082L100.31554617929459,154.20600190553816L100.35014967918396,152.8102299377322L100.48856367874146,151.4208900988102L100.79999517774581,154.06878315601497L100.84613317759832,155.41738617867233L100.9730126771927,144.24263426437975L101.88423817427953,153.76432905551044L102.04572117376327,151.68675142601134L102.13799717346828,154.7141400873661L102.31101467291514,154.25317085068673L103.06075717051824,149.29399948120115L103.39525766944885,151.52809224687516L103.42986116933822,151.24507857598363L103.72975816837946,151.88829146437345L103.98351716756821,143.09342723712325L104.8716736647288,154.7248603021726L105.04469116417567,155.37450531944634L105.13696716388067,150.46893502399325L105.40226066303252,152.89599165618418L105.60988166236878,152.38999751731754L106.07126166089375,150.16876900941133L106.31348616011938,155.72184027917683L106.67105565897624,155.32519233133644L107.28238415702184,155.65108686145393L107.40926365661622,151.69961568377911L107.61688465595245,156.0981198188849L107.7322296555837,154.23601850699632L107.74376415554683,145.41756980717182L107.96291965484619,156.639490666613L108.22821315399806,156.05738300262018L108.44736865329742,142.38160497397186L108.89721415185927,149.5598608084023L108.93181765174866,155.15366889443249L109.01255915149052,153.9036918479949L109.12790415112177,155.4645551238209L109.16250765101114,152.72446821928023L109.33552515045803,151.24079049006104L109.71616364924112,155.142948679626L109.9353191485405,154.64124262668193L110.84654464562733,155.4045219209045L111.2502521443367,155.17510932404548L111.44633864370982,156.78206952353938L111.6193561431567,153.7235922392458L111.74623564275106,156.639490666613L111.8154426425298,155.4559789519757L112.1038051416079,152.32996431440117L112.16147764142355,154.48043940458447L112.21915014123917,148.77085299864413L112.42677114057541,151.56239693425596L112.55365064016978,149.40548971518874L112.58825414005915,153.86081098876892L112.81894413932166,154.3367885261774L112.91122013902664,154.92211225461213L113.02656513865789,156.22676239656286L113.43027263736725,156.52907245410606L113.48794513718286,156.9203602945432L114.19154963493347,156.67808343991638L114.20308413489659,156.911784122698L114.57218813371658,156.36934125348924L115.16044763183594,156.80458197463304L115.25272363154093,156.88283954272046L115.6564311302503,155.7904496539384L115.78331062984466,153.9680131368339L115.92172462940216,155.94482074715197L116.11781112877527,154.2681791514158L116.80988112656276,153.2433266159147L117.43274412457149,156.7477648361586L117.47888212442398,155.7690092243254L117.64036512390773,155.5353085415438L117.83645162328085,155.3616410616785L117.9056586230596,153.6592709504068L118.39010762151082,157.16853326731362L118.57465962092083,156.61590619403867L118.70153912051519,156.68344354731963L118.8976256198883,156.20103388102726L119.1283156191508,156.78206952353938L119.18598811896642,155.29517572987825L119.20905711889266,156.81423016795887L119.27826411867142,157.12618841882795L119.50895411793391,156.4368786067702L119.54355761782328,154.30248383879663L119.6012301176389,154.41183002982288L119.70504061730703,157.20337396543474L120.74314561398823,155.7861615680158L120.75468011395135,155.31018403060736L120.77774911387762,154.2467387218028L121.10071511284511,156.0873996040784L121.15838761266072,155.62321430295705L121.21606011247636,156.55265692668036L121.88506111033759,156.5901776785031L122.18495810937883,156.04773480929433L122.28876860904693,150.71335592158138L122.66940710783004,156.02200629375875L122.68094160779317,157.12886847252958L122.78475210746129,156.91821625158192L123.22306310606002,156.9203602945432L123.31533910576503,157.07258734479547L123.37301160558064,155.73256049398333L123.74211560440064,156.48619159488007L124.28423710266749,156.64163470957428L124.33037510252,154.03662251159548L124.59566860167186,153.74932075478137L124.80328960100809,157.3229043605272L124.83789310089747,157.16853326731362L125.08011760012307,157.15245294510387L125.20699709971746,157.31754425312394L125.48382509883244,156.3596930601634L125.56456659857432,157.36792926271445L125.76065309794744,157.40437799305656L125.78372209787368,157.32826446793044L125.81832559776306,156.9139281656593L126.06055009698868,155.59105365853756L126.14129159673055,157.41938629378566L126.40658509588242,155.75185688063502L126.60267159525553,151.27080709151923L126.81029259459179,156.7799254805781L126.87949959437051,157.6372746597277L126.99484459400176,157.45637103486806L127.21400009330114,157.14709283770063L127.52543159230551,157.57911749440245L127.6177075920105,157.17818146063948L127.8599320912361,155.8054579546675L128.67888158861797,155.17939740996806L129.38248608636854,157.38936969232745L129.4978310859998,156.77456537317485L129.57857258574168,156.78099750205874L129.89000408474604,157.54508081239183L130.13222858397165,157.18622162174435L130.4321255830129,157.85007092363665L130.53593608268102,156.9525209389627L130.905040081501,156.38756561866032L131.1472645807266,156.1302804633044L131.64324807914096,157.54776086609345L131.67785157903035,157.40598602527754L131.90854157829284,157.16317315991037L131.98928307803473,157.660859132302L132.28918007707597,157.75841308704113L133.09659507449467,156.10240790480748L133.2004055741628,156.38220551125707L133.28114707390466,157.50943609816022L133.4310955734253,157.67827948136255L133.68485457261403,157.185685611004L133.8117340722084,157.14173273029738L133.9386135718028,157.42099432600662L134.12316557121275,156.66521918214858L134.39999357032775,157.34327276865952L134.46920057010652,156.58910565702243L134.73449406925837,156.16244110772388L134.9421150685946,157.46655523893423L135.6457195663452,157.6715793471085L135.74953006601334,157.47727545374073L136.25704806439083,157.80075793552678L136.5800140633583,157.60296997234693L136.6146175632477,157.10206793551333L137.07599756177265,157.63539862213656L137.35282556088765,157.4938917866908L138.10256805849076,156.29322772836312L139.00225905561447,155.82475434131922L139.0599315554301,156.06381513150407L139.09453505531948,157.7072240613401L139.25601805480323,157.81925030606797L139.39443205436072,157.53087652777322L139.65972555351257,157.31486419942232L139.72893255329134,157.70025592171586L139.9019500527382,156.78314154502004L140.08650205214818,157.92926651051968L140.36333005126315,157.75358899037818L140.5594165506363,157.67425940081012L141.25148654842377,157.5137241840828L141.37836604801814,157.5930537736509L141.60905604728063,157.29235174832866L141.68979754702252,157.55419299497734L141.74747004683812,156.58481757109985L142.99319604285557,157.7377766735386L143.02779954274496,157.63700665435752L143.27002404197057,157.6051140153082L143.3276965417862,157.85824508742664L143.82368004020054,156.9568090248853L143.95055953979494,157.5517809466459L144.06590453942616,157.01684222780167L144.11204253927866,156.89999188641085L144.44654303820928,157.44993890598417L144.5503535378774,157.86440921094035L144.81564703702927,157.88504562444288L144.82718153699238,157.8070560617256L144.96559553654987,157.7790495005436L145.32316503540673,157.8398867195705L145.42697553507486,157.94668685958024L145.62306203444797,157.75841308704113L145.68073453426362,156.28143549207599L145.78454503393172,157.58930169846863L145.87682103363673,157.081699527381L145.96909703334174,156.65985907474533L146.16518353271485,157.01845026002266L146.5112185316086,157.63915069731885L146.6265635312398,157.7042760022683L147.05334002987541,157.75734106556047L147.15715052954354,157.82300238125026L147.1686850295067,157.86186315992381L147.42244402869542,157.92484442191198L147.5031855284373,157.7514449474169L147.8261515274048,157.92926651051968L147.94149652703604,157.87834549018882L147.99916902685166,156.98092950819992L148.12604852644603,157.830774536985L148.22985902611416,157.79191375831144L148.39134202559788,157.754929017229L148.82965302419663,157.66889929340687L148.864256524086,157.822600373195L149.25642952283224,157.71740826540625L149.30256752268474,157.87017132639883L149.5678610218366,157.43332257303408L149.63706802161536,157.91385620173534L149.6601370215416,157.8756654364872L150.12151702006656,157.53596862980632L150.19072401984533,157.0859876133036L150.21379301977157,157.7278604748426L150.34067251936597,157.3840095849242L150.39834501918156,157.92270037895068L150.5598280186653,157.4075940574985L150.66363851833344,157.95352099651936L150.84819051774343,157.36042511234993L151.13655301682155,157.88946771305055L151.3557085161209,157.2414307279978L151.45951901578903,157.3368406397756L151.66714001512528,157.7948618173832L151.97857151412964,157.5281964740716L152.2438650132815,157.6479948745342L152.26693401320776,157.91385620173534L152.27846851317088,157.88598364323843L152.95900401099524,157.77476141462103L152.9936075108846,157.85154495317258L153.09741801055273,157.75600103870966L153.53572900915148,157.99057273894434L154.1239885072708,157.92203036552527L154.70071350542702,157.92779248098375L154.79298950513206,157.92417440848658L155.2082315038045,157.8875916754594L155.40431800317762,158.00089094569557L155.63500800244012,157.86306918408954L155.95797400140762,157.865481232421L155.992577501297,157.8597191169625L156.07331900103887,157.86869729686296L156.09638800096513,157.22106231986547L156.29247450033824,157.91975231987888L156.38475050004322,157.69275177135134L156.48856099971135,157.73884869501924L156.66157849915822,157.6337905899156L156.84613049856821,157.7007919324562L157.29597599713006,157.97147735632026L157.43438999668757,158.02970152298803L157.57280399624506,157.72303637817967L157.69968349583942,157.92015432793414L157.8611664953232,157.78440960794686L157.88423549524944,157.7849456186872L158.2994774939219,157.90286798155867L158.7147194925944,157.9210923467297L159.02615099159874,157.86708926464198L159.1991684910456,157.88732367008924L159.54520348993938,157.96712226905512L159.82203148905438,157.84819488604555L160.02965248839058,157.96189616433693L160.4102909871737,157.82809448328337L160.7217224861781,157.91385620173534L160.8716709856987,157.6729193739593L160.89473998562494,157.8412267464213L160.90627448558809,157.94313578842556L161.13696448485055,157.14280475177802L161.19463698466618,157.93449261523782L161.35611998414996,157.9481608891161L161.47146498378117,157.94688786360783L161.5291374835968,157.95807708781214L161.6098789833387,157.95258297772378L161.82903448263804,157.9828005832096L161.96744848219552,157.9224323735805L162.3711559809049,157.9296685185749L163.0862949786186,157.65737506248988L163.25931247806548,157.91023812923814L163.38619197765985,157.88437561101748L163.43232997751235,157.87794348213356L163.61688197692237,157.90420800840948L163.99752047570547,157.87579943917225L164.1013309753736,157.9523819736962L164.60884897375107,157.92846249440916L164.83953897301356,157.93884770250295L164.87414247290295,157.91385620173534L165.0586944723129,157.9205563359894L165.24324647172293,157.90662005674093L166.06219596910478,157.88879769962514L166.16600646877288,157.94340379379574L166.52357596762974,157.74769287223464L166.74273146692914,157.98534663422615L166.7773349668185,157.41938629378566L167.03109396600723,157.94192976425984L167.7808364636103,157.96638525428716L167.87311246331535,157.90648605405588L168.11533696254094,157.84497882160358L168.3690959617297,157.68792767468838L168.70359646066032,157.57831347829196L169.23418345896403,157.94869689985646L169.55714945793153,157.98494462617091L170.2376849557559,157.96236517373472L170.42223695516586,157.9369046635693L170.77980645402272,157.85851309279678L171.11430695295334,157.88075753852027L171.40266945203146,158.00792608666234L171.46034195184708,157.89107574527154L171.6102904513677,157.96357119790045L171.76023895088832,157.9756984409003L171.82944595066706,157.97000332678434L172.3138949491183,158.02179536456825L172.32542944908144,157.94340379379574L172.5561194483439,157.96866329993352L173.22512044620515,157.98474362214327L173.42120694557826,157.49013971150853L173.73263844458265,158.00802658867613L173.74417294454574,157.9822645724693L173.83644894425072,157.72946850706356L173.97486294380823,158.01817729207104L174.11327694336572,157.96551423683414L174.28629444281262,158.00370500208228L174.33243244266512,157.9702713321545L174.52851894203823,157.97214736974567L174.73613994137446,157.95512902874034L174.9437609407107,157.99378880338625L175.1167784401576,157.9318125615362L175.2321234397888,157.9618291629944L175.2667269396782,157.90863009701715L175.40514093923568,157.86239917066413L175.41667543919883,157.7707413340686L175.46281343905133,157.99800988796633L175.7857794380188,157.9956648409774L176.08567643706004,157.97811048923177L176.46631493584314,157.89683786073002L176.63933243529002,158.00769158196343L177.0545744339625,157.95606704753592L177.6659029320081,157.92457641654184L177.7120409318606,157.9289985051495L177.9427309311231,157.97938351474002L178.5079214293162,157.71231616337317L178.8424219282468,157.8447108162334L179.32687092669804,157.99439181546913L179.91513042481742,157.96524623146396L180.0881479242643,157.9979428866238L180.18042392396927,158.01288418601033L180.24963092374801,157.95151095624314L180.82635592190422,157.89040573184613L180.8609594217936,157.9918457644526L180.895562921683,158.03151055923664L181.04551142120363,157.9621641697071L181.35694292020796,157.94655285689512L181.6453054192861,158.02759098069802L181.72604691902797,157.95660305827622L181.97980591821673,157.75466101185884L182.2220304174423,157.9803215335356L182.37197891696295,157.9767034610384L182.7756864156723,158.00618405175626L183.04097991482416,158.03047203842723L183.07558341471355,157.86226516797907L183.22553191423415,157.9799865268229L183.27166991408666,158.01208016989986L183.83686041227978,157.9708743442374L183.84839491224287,157.9253804326523L184.06755041154227,158.03218057266204L184.10215391143163,158.0109076464054L184.20596441109976,157.94869689985646L184.21749891106288,158.01432471487496L184.28670591084162,157.95466001934255L184.5173959101041,158.0306395417836L184.54046491003038,157.9839396060328L185.48629390700657,157.9777084811765L185.5555009067853,157.9482948918012L186.42058840401967,157.98025453219307L186.74355440298714,157.85516302566975L187.11265840180715,158.0032359926845L187.1818654015859,157.9326165776467L187.44715890073775,158.01402320883355L187.87393539937335,155.95125287603585L187.8854698993365,158.03452561965096L187.95467689911524,157.98233157381182L188.05848739878337,157.92189636284022L188.25457389815648,157.96504522743635L188.392987897714,157.98400660737533L188.46219489749274,157.98548063691123L188.69288489675523,157.96363819924298L188.73902289660774,157.99573184231994L189.0158508957227,157.92806048635393L189.14273039531707,157.96879730261864L189.7194553934733,158.0057150423585L189.9962833925883,157.98668666107696L190.26157689174016,157.99800988796633L190.67681889041265,158.03837819684705L190.95364688952765,157.99177876311003L190.97671588945389,157.98896470672335L190.988250389417,157.8636051948299L191.6803203872045,158.01633475515118L191.85333788665136,158.02139335651302L191.9225448864301,158.02028783436108L192.26857988532382,158.01918231220915L192.37239038499195,157.9744924167346L192.41852838484448,158.00410701013752L192.48773538462322,158.0124821779551L192.67228738403318,157.933152588387L193.16827088244756,157.97790948520415L193.30668488200504,157.98139355501624L193.5489093812307,158.01007012962364L193.5604438811938,158.0294335176179L193.60658188104628,157.95767507975688L193.6527198808988,157.9231023870059L193.6988578807513,157.95680406230386L193.89494438012443,157.8788815009291L193.96415137990314,157.98541363556868L194.01028937975565,158.00983562492476L194.32172087876003,158.00779208397725L194.63315237776436,158.01626775380865L194.85230787706377,157.97167836034785L195.22141187588375,158.00678706383914L195.23294637584686,157.93650265551403L195.24448087580998,157.94956791730945L195.52130887492498,158.00249897791653L196.27105137252806,157.9283284917241L196.40946537208558,158.03439161696588L197.13613886976242,157.89938391174655L197.62058786821368,158.01305168936668L197.66672586806615,158.01690426656276L198.17424386644365,157.88785968082956L198.393399365743,157.95264997906634L198.82017586437863,158.00129295375083L199.16621086327234,158.01060614036396L199.24695236301423,158.00856259941648L199.36229736264545,158.01194616721477L199.5699183619817,157.99177876311003L199.8352118611336,157.9702713321545L200.0312983605067,158.03017053238582L200.10050536028544,157.99244877653544L200.18124686002733,157.99017073088908L200.72336835829415,158.01831129475613L200.7810408581098,157.49657184039242L200.9655928575198,158.02725597398532L201.03479985729854,158.00350399805464L201.15014485692976,157.90956811581273L201.357765856266,157.9877586825576L201.55385235563912,157.97884750399973L201.5769213555654,158.04573159419087L201.9460253543854,158.00946711754077L202.17671535364786,157.9374406743096L202.30359485324223,157.9846096194582L202.8457163515091,157.57616943533068L202.98413035106657,158.03398960891062L203.11100985066096,158.00156095912098L203.84921784830092,157.91734027154743L204.2067873471578,158.03465962233602L204.63356384579342,157.9943248141266L204.9103918449084,158.01774178334452L205.01420234457652,158.01556423971195L205.08340934435526,158.00511203027563L205.25642684380213,158.02085734577267L205.45251334317524,157.918278290343L205.613996342659,157.95539703411052L205.64859984254835,158.0356311418029L205.86775534184775,157.83720666586888L206.0869108411471,158.02789248673943L207.39030933698018,158.02166136188316L207.4825853366852,157.9822645724693L207.55179233646393,158.00115895106572L207.82862033557893,157.97730647312127L207.84015483554202,158.0039060061099L208.27846583414077,157.9354306340334L208.58989733314513,158.01117565177557L208.72831133270265,158.00839509606013L208.97053583192823,158.00779208397725L209.6510713297526,157.99834489467904L209.8010198292732,158.01680376454897L209.91636482890448,157.88142755194568L209.96250282875698,157.98387260469028L210.25086532783507,158.01666976186388L210.5046243270238,158.0031019899994L211.33510832436878,157.9718793643755L211.58886732355754,157.96162815896676L211.63500532341,158.01955081959315L211.65807432333628,158.03516213240508L211.6696088232994,158.01995282764838L211.78495382293065,157.99177876311003L212.01564382219314,158.00923261284188L212.31554082123438,157.83372259605676L212.70771381998063,158.00658605981153L212.81152431964875,158.01844529744122L213.45745631758373,158.01114215110428L214.08031931559245,158.02859600083613L214.38021631463369,158.0333530961565L214.4378888144493,158.01790928670087L214.6685788137118,158.0384116975183L215.25683831183113,158.04035473645197L215.30297631168366,158.02993602768694L215.67208031050365,158.0209243471152L216.23727080869674,158.01737327596058L216.46796080795923,157.94588284346972L216.83706480677924,157.98447561677312L216.9524098064105,158.00102494838066L216.96394430637358,158.00095794703813L217.25230680545172,158.00517903161816L217.30997930526735,157.8877256781445L217.35611730511982,158.01268318198274L217.51760030460358,158.01603324910977L218.0020493030548,157.78950170997996L218.29041180213292,157.958680099895L219.15549929936725,158.03067304245488L219.92831079689662,158.004911026248L220.28588029575346,158.00350399805464L220.67805329449973,157.97744047580636L220.68958779446282,157.99057273894434L220.94334679365159,158.02109185047155L221.3816577922503,157.9428677830554L221.43933029206596,158.02926601426154L221.49700279188156,158.03713867201006L221.61234779151283,158.00035493495525L221.92377929051716,157.92069033867446L221.9353137904803,157.99110874968463L222.01605529022217,157.86507922436576L222.1775382897059,158.03482712569237L222.3044177893003,158.00477702356292L222.51203878863652,158.03576514448795L222.53510778856278,158.03864620221722L222.80040128771464,157.98306858857975L222.81193578767775,158.02950051896042L222.82347028764087,157.9976078799111L222.85807378753026,157.94213076828746L223.0772292868296,157.9939898074139L223.48093678553897,158.01687076589153L223.6770232849121,158.01556423971195L223.82697178443274,157.9253804326523L223.83850628439586,157.9962678530603L223.9538512840271,158.01549723836942L224.08073078362145,158.01392270681973L224.19607578325272,157.97958451876767L224.2883517829577,158.03931621564263L224.40369678258898,158.02075684375885L224.96888728078207,157.96986932409928L225.06116328048705,157.99673686245805L225.10730128033956,157.96839529456338L225.43026727930706,158.0063850557839L225.59175027879078,158.02822749345214L225.66095727856955,158.02762448136926L225.82244027805328,157.99807688930886L225.84550927797952,157.99372180204372L225.9262507777214,158.04025423443818L225.97238877757388,157.9445428166189L226.00699227746327,158.037875686778L226.0185267774264,158.0373061753664L226.06466477727892,157.96605024757446L226.353027276357,157.9593501133204L226.4683722759883,157.94092474412173L226.51451027584076,157.91586624201156L226.69906227525075,158.02236487597983L226.8605452747345,157.99305178861832L227.27578727340696,157.91573223932645L227.2873217733701,158.03794268812052L227.368063273112,157.98501162751344L227.49494277270637,157.9910417483421L227.84097777160008,157.97315238988378L228.06013327089946,158.0255474397505L228.07166777086258,158.0256814424356L228.1293402706782,158.01378870413464L228.44077176968256,157.97790948520415L228.6483927690188,157.99874690273427L228.8790827682813,157.98749067718745L230.15941226418815,158.024240913571L230.26322276385628,158.03656916059845L230.44777476326624,158.0274904786842L230.48237826315562,158.04762438211765L230.58618876282375,158.0043750155077L230.90915476179123,157.70668805059975L231.30132776053745,158.03151055923664L231.3128622605006,157.98635165436426L231.41667276016872,157.9261844487628L231.45127626005808,158.02725597398532L231.90112175861995,157.98400660737533L232.07413925806682,158.03620065321448L232.18948425769807,158.03281708541616L232.3625017571449,158.00692106652423L232.38557075707118,157.86775927806738L232.4778467567762,158.0215943605406L232.66239875618615,158.02239837665113L232.89308875544864,157.99559783963488L233.16991675456364,158.03395610823938L233.4236757537524,158.03295108810127L233.74664175271988,157.98380560334772L233.8850557522774,158.0105726396927L234.3695047507286,158.01187916587222L234.40410825061798,157.99975192287238L234.8770227491061,157.97643545566825L234.9692987488111,157.98434161408804L235.90359324582417,158.01288418601033L235.91512774578732,158.0095341188833L236.91862924257913,158.04400630962047L237.01090524228414,157.9758324435854L237.5184232406616,157.98273358186705L237.52995774062475,158.0310750505101L238.11821723874408,158.02300138873397L238.2220277384122,157.92873049977933L238.8102872365316,158.00430801416516L238.9256322361628,158.01512873098545L239.0063737359047,158.01633475515118L239.06404623572033,158.0143917162175L239.34087423483533,157.8498029182665L239.76765073347093,157.98340359529246L239.96373723284404,157.9874236758449L240.44818623129527,157.93328659107212L241.00184222952527,157.72973651243373L241.0249112294515,157.92149435478495L241.46322222805023,157.95378900188953L241.75158472712835,157.95680406230386L241.97074022642772,157.96196316567946L242.02841272624335,157.97978552279528L242.08608522605897,158.02427441424223L242.2937062253952,158.02631795518974L242.35137872521082,157.971075348265L242.40905122502645,158.04001972973927L242.54746522458393,158.02209687060966L242.78968972380957,158.04065624249344L243.33181122207642,157.97589944492793L243.574035721302,157.98869670135318L244.00081221993764,158.00869660210154L244.18536421934763,157.9582110904972L244.57753721809385,158.02055583973126L244.70441671768822,158.0167367632064L244.85436521720885,157.94380580185097L245.28114171584446,158.032549080046L245.36188321558635,157.98005352816543L245.40802121543882,157.90367199766914L245.69638371451697,158.01884730549645L245.9962807135582,157.9918457644526L246.4576607120832,158.0207233430876L246.9305752105713,157.94293478439795L246.96517871046063,158.0089646074717L247.0228512102763,157.9717453616904L247.5995762084325,158.01693776723405L247.83026620769502,157.99787588528125L248.00328370714186,157.99720587185584L248.03788720703125,158.01623425313736L248.0609562069575,158.00196296717624L248.29164620622,158.00477702356292L248.36085320599875,158.03023753372835L248.6261467051506,158.03070654312614L248.91450920422872,158.03345359817033L248.93757820415496,158.0076580812922L249.0875267036756,157.98682066376205L249.32975120290118,158.03476012434984L249.54890670220058,158.03687066663989L249.61811370197933,158.01238167594127L249.77959670146308,157.96625125160207L249.90647620105744,158.00350399805464L250.01028670072554,157.9126501775696L250.05642470057808,158.00417401148005L250.54087369902928,158.01821079274234L250.62161519877117,158.00055593898287L250.66775319862364,158.04857915124884L250.7254256984393,158.02383890551573L250.73696019840241,157.92779248098375L251.19834019692738,158.03727267469512L251.41749569622675,157.9789815066848L251.7289271952311,157.96772528113797L251.994220694383,157.9917117617675L252.32872119331358,157.98916571075097L252.8016356918017,158.0336881028692L252.91698069143297,158.05147695931373L253.05539469099043,157.92015432793414L253.2514811903636,157.99874690273427L253.43603318977355,157.97335339391137L253.52830918947856,158.03241507736092L253.63211968914666,157.7208923352184L253.71286118888855,158.0031019899994L253.75899918874103,157.92229837089545" fill="none"></path></g></g></g></g></g></g><g transform="translate(53, 175)" clip-path="url(#clip_1)"><clipPath id="clip_1"><rect width="276" height="24"></rect></clipPath><g><g><line x1="0" y1="0" x2="0" y2="5" style="visibility: inherit;" fill="rgb(0, 0, 0)" stroke="rgb(204, 204, 204)" stroke-width="1px"></line><line x1="23.068999926249184" y1="0" x2="23.068999926249184" y2="5" style="visibility: inherit;" fill="rgb(0, 0, 0)" stroke="rgb(204, 204, 204)" stroke-width="1px"></line><line x1="46.13799985249837" y1="0" x2="46.13799985249837" y2="5" style="visibility: inherit;" fill="rgb(0, 0, 0)" stroke="rgb(204, 204, 204)" stroke-width="1px"></line><line x1="69.20699977874756" y1="0" x2="69.20699977874756" y2="5" style="visibility: inherit;" fill="rgb(0, 0, 0)" stroke="rgb(204, 204, 204)" stroke-width="1px"></line><line x1="92.27599970499674" y1="0" x2="92.27599970499674" y2="5" style="visibility: inherit;" fill="rgb(0, 0, 0)" stroke="rgb(204, 204, 204)" stroke-width="1px"></line><line x1="115.34499963124594" y1="0" x2="115.34499963124594" y2="5" style="visibility: inherit;" fill="rgb(0, 0, 0)" stroke="rgb(204, 204, 204)" stroke-width="1px"></line><line x1="138.41399955749512" y1="0" x2="138.41399955749512" y2="5" style="visibility: inherit;" fill="rgb(0, 0, 0)" stroke="rgb(204, 204, 204)" stroke-width="1px"></line><line x1="161.48299948374432" y1="0" x2="161.48299948374432" y2="5" style="visibility: inherit;" fill="rgb(0, 0, 0)" stroke="rgb(204, 204, 204)" stroke-width="1px"></line><line x1="184.55199940999347" y1="0" x2="184.55199940999347" y2="5" style="visibility: inherit;" fill="rgb(0, 0, 0)" stroke="rgb(204, 204, 204)" stroke-width="1px"></line><line x1="207.62099933624268" y1="0" x2="207.62099933624268" y2="5" style="visibility: inherit;" fill="rgb(0, 0, 0)" stroke="rgb(204, 204, 204)" stroke-width="1px"></line><line x1="230.68999926249188" y1="0" x2="230.68999926249188" y2="5" style="visibility: inherit;" fill="rgb(0, 0, 0)" stroke="rgb(204, 204, 204)" stroke-width="1px"></line><line x1="253.75899918874103" y1="0" x2="253.75899918874103" y2="5" style="visibility: inherit;" fill="rgb(0, 0, 0)" stroke="rgb(204, 204, 204)" stroke-width="1px"></line><line x1="276.82799911499023" y1="0" x2="276.82799911499023" y2="5" style="visibility: inherit;" fill="rgb(0, 0, 0)" stroke="rgb(204, 204, 204)" stroke-width="1px"></line></g><g transform="translate(0, 8)"><text style="text-anchor: middle; visibility: hidden; font-family: Roboto, sans-serif; font-size: 12px; font-weight: 200;" x="0" y="0" dx="0em" dy="0.95em" fill="rgb(33, 33, 33)" stroke="none" stroke-width="1px">-2k</text><text style="text-anchor: middle; visibility: inherit; font-family: Roboto, sans-serif; font-size: 12px; font-weight: 200;" x="23.068999926249184" y="0" dx="0em" dy="0.95em" fill="rgb(33, 33, 33)" stroke="none" stroke-width="1px">0</text><text style="text-anchor: middle; visibility: hidden; font-family: Roboto, sans-serif; font-size: 12px; font-weight: 200;" x="46.13799985249837" y="0" dx="0em" dy="0.95em" fill="rgb(33, 33, 33)" stroke="none" stroke-width="1px">2k</text><text style="text-anchor: middle; visibility: inherit; font-family: Roboto, sans-serif; font-size: 12px; font-weight: 200;" x="69.20699977874756" y="0" dx="0em" dy="0.95em" fill="rgb(33, 33, 33)" stroke="none" stroke-width="1px">4k</text><text style="text-anchor: middle; visibility: hidden; font-family: Roboto, sans-serif; font-size: 12px; font-weight: 200;" x="92.27599970499674" y="0" dx="0em" dy="0.95em" fill="rgb(33, 33, 33)" stroke="none" stroke-width="1px">6k</text><text style="text-anchor: middle; visibility: inherit; font-family: Roboto, sans-serif; font-size: 12px; font-weight: 200;" x="115.34499963124594" y="0" dx="0em" dy="0.95em" fill="rgb(33, 33, 33)" stroke="none" stroke-width="1px">8k</text><text style="text-anchor: middle; visibility: hidden; font-family: Roboto, sans-serif; font-size: 12px; font-weight: 200;" x="138.41399955749512" y="0" dx="0em" dy="0.95em" fill="rgb(33, 33, 33)" stroke="none" stroke-width="1px">10k</text><text style="text-anchor: middle; visibility: inherit; font-family: Roboto, sans-serif; font-size: 12px; font-weight: 200;" x="161.48299948374432" y="0" dx="0em" dy="0.95em" fill="rgb(33, 33, 33)" stroke="none" stroke-width="1px">12k</text><text style="text-anchor: middle; visibility: hidden; font-family: Roboto, sans-serif; font-size: 12px; font-weight: 200;" x="184.55199940999347" y="0" dx="0em" dy="0.95em" fill="rgb(33, 33, 33)" stroke="none" stroke-width="1px">14k</text><text style="text-anchor: middle; visibility: inherit; font-family: Roboto, sans-serif; font-size: 12px; font-weight: 200;" x="207.62099933624268" y="0" dx="0em" dy="0.95em" fill="rgb(33, 33, 33)" stroke="none" stroke-width="1px">16k</text><text style="text-anchor: middle; visibility: hidden; font-family: Roboto, sans-serif; font-size: 12px; font-weight: 200;" x="230.68999926249188" y="0" dx="0em" dy="0.95em" fill="rgb(33, 33, 33)" stroke="none" stroke-width="1px">18k</text><text style="text-anchor: middle; visibility: inherit; font-family: Roboto, sans-serif; font-size: 12px; font-weight: 200;" x="253.75899918874103" y="0" dx="0em" dy="0.95em" fill="rgb(33, 33, 33)" stroke="none" stroke-width="1px">20k</text><text style="text-anchor: middle; visibility: hidden; font-family: Roboto, sans-serif; font-size: 12px; font-weight: 200;" x="276.82799911499023" y="0" dx="0em" dy="0.95em" fill="rgb(33, 33, 33)" stroke="none" stroke-width="1px">22k</text></g><line x1="0" y1="0" x2="276.82799911499023" y2="0" fill="rgb(0, 0, 0)" stroke="rgb(204, 204, 204)" stroke-width="1px"></line></g></g></g></g></svg>