<svg viewBox="0 0 330 200" xmlns="http://www.w3.org/2000/svg"><g><g><g><g><g><line x1="53.172000885009766" y1="175.63999938964844" x2="48.172000885009766" y2="175.63999938964844" style="visibility: inherit;" fill="rgb(0, 0, 0)" stroke="rgb(204, 204, 204)" stroke-width="1px"></line><line x1="53.172000885009766" y1="158.0759994506836" x2="48.172000885009766" y2="158.0759994506836" style="visibility: inherit;" fill="rgb(0, 0, 0)" stroke="rgb(204, 204, 204)" stroke-width="1px"></line><line x1="53.172000885009766" y1="140.51199951171876" x2="48.172000885009766" y2="140.51199951171876" style="visibility: inherit;" fill="rgb(0, 0, 0)" stroke="rgb(204, 204, 204)" stroke-width="1px"></line><line x1="53.172000885009766" y1="122.9479995727539" x2="48.172000885009766" y2="122.9479995727539" style="visibility: inherit;" fill="rgb(0, 0, 0)" stroke="rgb(204, 204, 204)" stroke-width="1px"></line><line x1="53.172000885009766" y1="105.38399963378906" x2="48.172000885009766" y2="105.38399963378906" style="visibility: inherit;" fill="rgb(0, 0, 0)" stroke="rgb(204, 204, 204)" stroke-width="1px"></line><line x1="53.172000885009766" y1="87.81999969482422" x2="48.172000885009766" y2="87.81999969482422" style="visibility: inherit;" fill="rgb(0, 0, 0)" stroke="rgb(204, 204, 204)" stroke-width="1px"></line><line x1="53.172000885009766" y1="70.25599975585938" x2="48.172000885009766" y2="70.25599975585938" style="visibility: inherit;" fill="rgb(0, 0, 0)" stroke="rgb(204, 204, 204)" stroke-width="1px"></line><line x1="53.172000885009766" y1="52.69199981689454" x2="48.172000885009766" y2="52.69199981689454" style="visibility: inherit;" fill="rgb(0, 0, 0)" stroke="rgb(204, 204, 204)" stroke-width="1px"></line><line x1="53.172000885009766" y1="35.12799987792968" x2="48.172000885009766" y2="35.12799987792968" style="visibility: inherit;" fill="rgb(0, 0, 0)" stroke="rgb(204, 204, 204)" stroke-width="1px"></line><line x1="53.172000885009766" y1="17.56399993896484" x2="48.172000885009766" y2="17.56399993896484" style="visibility: inherit;" fill="rgb(0, 0, 0)" stroke="rgb(204, 204, 204)" stroke-width="1px"></line><line x1="53.172000885009766" y1="0" x2="48.172000885009766" y2="0" style="visibility: inherit;" fill="rgb(0, 0, 0)" stroke="rgb(204, 204, 204)" stroke-width="1px"></line></g><g transform="translate(43.172000885009766, 0)"><text style="text-anchor: end; visibility: hidden; font-family: Roboto, sans-serif; font-size: 12px; font-weight: 200;" x="0" y="175.63999938964844" dx="0em" dy="0.3em" fill="rgb(33, 33, 33)" stroke="none" stroke-width="1px">-0.5</text><text style="text-anchor: end; visibility: inherit; font-family: Roboto, sans-serif; font-size: 12px; font-weight: 200;" x="0" y="158.0759994506836" dx="0em" dy="0.3em" fill="rgb(33, 33, 33)" stroke="none" stroke-width="1px">0</text><text style="text-anchor: end; visibility: hidden; font-family: Roboto, sans-serif; font-size: 12px; font-weight: 200;" x="0" y="140.51199951171876" dx="0em" dy="0.3em" fill="rgb(33, 33, 33)" stroke="none" stroke-width="1px">0.5</text><text style="text-anchor: end; visibility: inherit; font-family: Roboto, sans-serif; font-size: 12px; font-weight: 200;" x="0" y="122.9479995727539" dx="0em" dy="0.3em" fill="rgb(33, 33, 33)" stroke="none" stroke-width="1px">1</text><text style="text-anchor: end; visibility: hidden; font-family: Roboto, sans-serif; font-size: 12px; font-weight: 200;" x="0" y="105.38399963378906" dx="0em" dy="0.3em" fill="rgb(33, 33, 33)" stroke="none" stroke-width="1px">1.5</text><text style="text-anchor: end; visibility: inherit; font-family: Roboto, sans-serif; font-size: 12px; font-weight: 200;" x="0" y="87.81999969482422" dx="0em" dy="0.3em" fill="rgb(33, 33, 33)" stroke="none" stroke-width="1px">2</text><text style="text-anchor: end; visibility: hidden; font-family: Roboto, sans-serif; font-size: 12px; font-weight: 200;" x="0" y="70.25599975585938" dx="0em" dy="0.3em" fill="rgb(33, 33, 33)" stroke="none" stroke-width="1px">2.5</text><text style="text-anchor: end; visibility: inherit; font-family: Roboto, sans-serif; font-size: 12px; font-weight: 200;" x="0" y="52.69199981689454" dx="0em" dy="0.3em" fill="rgb(33, 33, 33)" stroke="none" stroke-width="1px">3</text><text style="text-anchor: end; visibility: hidden; font-family: Roboto, sans-serif; font-size: 12px; font-weight: 200;" x="0" y="35.12799987792968" dx="0em" dy="0.3em" fill="rgb(33, 33, 33)" stroke="none" stroke-width="1px">3.5</text><text style="text-anchor: end; visibility: inherit; font-family: Roboto, sans-serif; font-size: 12px; font-weight: 200;" x="0" y="17.56399993896484" dx="0em" dy="0.3em" fill="rgb(33, 33, 33)" stroke="none" stroke-width="1px">4</text><text style="text-anchor: end; visibility: hidden; font-family: Roboto, sans-serif; font-size: 12px; font-weight: 200;" x="0" y="0" dx="0em" dy="0.3em" fill="rgb(33, 33, 33)" stroke="none" stroke-width="1px">4.5</text></g><line x1="53.172000885009766" y1="0" x2="53.172000885009766" y2="175.63999938964844" fill="rgb(0, 0, 0)" stroke="rgb(204, 204, 204)" stroke-width="1px"></line></g></g><g transform="translate(53, 0)" clip-path="url(#clip_0)"><clipPath id="clip_0"><rect width="276" height="175"></rect></clipPath><g><g><g><line x1="0" y1="0" x2="0" y2="175.63999938964844" fill="rgb(0, 0, 0)" stroke="rgb(66, 66, 66)" stroke-width="1px" opacity="0.25"></line><line x1="23.068999926249184" y1="0" x2="23.068999926249184" y2="175.63999938964844" fill="rgb(0, 0, 0)" stroke="rgb(66, 66, 66)" stroke-width="1px" opacity="0.25"></line><line x1="46.13799985249837" y1="0" x2="46.13799985249837" y2="175.63999938964844" fill="rgb(0, 0, 0)" stroke="rgb(66, 66, 66)" stroke-width="1px" opacity="0.25"></line><line x1="69.20699977874756" y1="0" x2="69.20699977874756" y2="175.63999938964844" fill="rgb(0, 0, 0)" stroke="rgb(66, 66, 66)" stroke-width="1px" opacity="0.25"></line><line x1="92.27599970499674" y1="0" x2="92.27599970499674" y2="175.63999938964844" fill="rgb(0, 0, 0)" stroke="rgb(66, 66, 66)" stroke-width="1px" opacity="0.25"></line><line x1="115.34499963124594" y1="0" x2="115.34499963124594" y2="175.63999938964844" fill="rgb(0, 0, 0)" stroke="rgb(66, 66, 66)" stroke-width="1px" opacity="0.25"></line><line x1="138.41399955749512" y1="0" x2="138.41399955749512" y2="175.63999938964844" fill="rgb(0, 0, 0)" stroke="rgb(66, 66, 66)" stroke-width="1px" opacity="0.25"></line><line x1="161.48299948374432" y1="0" x2="161.48299948374432" y2="175.63999938964844" fill="rgb(0, 0, 0)" stroke="rgb(66, 66, 66)" stroke-width="1px" opacity="0.25"></line><line x1="184.55199940999347" y1="0" x2="184.55199940999347" y2="175.63999938964844" fill="rgb(0, 0, 0)" stroke="rgb(66, 66, 66)" stroke-width="1px" opacity="0.25"></line><line x1="207.62099933624268" y1="0" x2="207.62099933624268" y2="175.63999938964844" fill="rgb(0, 0, 0)" stroke="rgb(66, 66, 66)" stroke-width="1px" opacity="0.25"></line><line x1="230.68999926249188" y1="0" x2="230.68999926249188" y2="175.63999938964844" fill="rgb(0, 0, 0)" stroke="rgb(66, 66, 66)" stroke-width="1px" opacity="0.25"></line><line x1="253.75899918874103" y1="0" x2="253.75899918874103" y2="175.63999938964844" fill="rgb(0, 0, 0)" stroke="rgb(66, 66, 66)" stroke-width="1px" opacity="0.25"></line><line x1="276.82799911499023" y1="0" x2="276.82799911499023" y2="175.63999938964844" fill="rgb(0, 0, 0)" stroke="rgb(66, 66, 66)" stroke-width="1px" opacity="0.25"></line></g><g><line x1="0" y1="175.63999938964844" x2="276.82799911499023" y2="175.63999938964844" fill="rgb(0, 0, 0)" stroke="rgb(66, 66, 66)" stroke-width="1px" opacity="0.25"></line><line x1="0" y1="158.0759994506836" x2="276.82799911499023" y2="158.0759994506836" fill="rgb(0, 0, 0)" stroke="rgb(66, 66, 66)" stroke-width="1px" opacity="0.25"></line><line x1="0" y1="140.51199951171876" x2="276.82799911499023" y2="140.51199951171876" fill="rgb(0, 0, 0)" stroke="rgb(66, 66, 66)" stroke-width="1px" opacity="0.25"></line><line x1="0" y1="122.9479995727539" x2="276.82799911499023" y2="122.9479995727539" fill="rgb(0, 0, 0)" stroke="rgb(66, 66, 66)" stroke-width="1px" opacity="0.25"></line><line x1="0" y1="105.38399963378906" x2="276.82799911499023" y2="105.38399963378906" fill="rgb(0, 0, 0)" stroke="rgb(66, 66, 66)" stroke-width="1px" opacity="0.25"></line><line x1="0" y1="87.81999969482422" x2="276.82799911499023" y2="87.81999969482422" fill="rgb(0, 0, 0)" stroke="rgb(66, 66, 66)" stroke-width="1px" opacity="0.25"></line><line x1="0" y1="70.25599975585938" x2="276.82799911499023" y2="70.25599975585938" fill="rgb(0, 0, 0)" stroke="rgb(66, 66, 66)" stroke-width="1px" opacity="0.25"></line><line x1="0" y1="52.69199981689454" x2="276.82799911499023" y2="52.69199981689454" fill="rgb(0, 0, 0)" stroke="rgb(66, 66, 66)" stroke-width="1px" opacity="0.25"></line><line x1="0" y1="35.12799987792968" x2="276.82799911499023" y2="35.12799987792968" fill="rgb(0, 0, 0)" stroke="rgb(66, 66, 66)" stroke-width="1px" opacity="0.25"></line><line x1="0" y1="17.56399993896484" x2="276.82799911499023" y2="17.56399993896484" fill="rgb(0, 0, 0)" stroke="rgb(66, 66, 66)" stroke-width="1px" opacity="0.25"></line><line x1="0" y1="0" x2="276.82799911499023" y2="0" fill="rgb(0, 0, 0)" stroke="rgb(66, 66, 66)" stroke-width="1px" opacity="0.25"></line></g></g></g><g><g><line x1="0" y1="158.0759994506836" x2="276.82799911499023" y2="158.0759994506836" fill="rgb(0, 0, 0)" stroke="rgb(153, 153, 153)" stroke-width="1.5px"></line></g></g><g><g><line x1="23.068999926249184" y1="0" x2="23.068999926249184" y2="175.63999938964844" fill="rgb(0, 0, 0)" stroke="rgb(153, 153, 153)" stroke-width="1.5px"></line></g></g><g><g><g><g><g><path style="fill: none;" stroke="rgb(0, 119, 187)" stroke-width="2px" d="M31.904426898002626,-1.076140621802073L31.950564897855124,5.007728170024694L31.973633897781372,0.4249243826179684L32.135116897265114,-1.0074578713610576L32.158185897191366,4.719612771441524L32.238927396933235,4.039292657759341L32.33120339663824,-1.5832118959303012L32.40041039641698,-3.584527129365985L32.72337639538447,6.301958695861814L33.98063689136505,8.50150020149494L34.28053389040629,12.510712595564495L34.292068390369415,12.99517753829544L34.361275390148165,16.908431491461695L34.43048238992691,18.68006511525752L34.63810338926315,17.959201545684426L34.67270688915253,23.015433384917667L34.77651738882064,19.956660009573447L35.341707887013754,16.364995990474863L35.376311386903126,19.973185059005278L35.51472538646062,22.769304747926686L35.6877428859075,31.088364038202922L35.75694988568624,33.96663086970783L35.814622385501856,25.210078505038027L36.41441638358434,27.832503308868045L36.47208888339996,26.19503945232358L36.48362338336309,29.932886121993995L36.69124438269933,35.606062861875316L36.84119288221995,34.728743920681204L37.429452380339306,30.744440067981053L37.62553887971242,32.60763899157906L38.25993637768427,33.69811459583321L38.29453987757365,40.03325618864465L38.45602287705739,41.19974115348679L38.50216087690989,37.28908214841377L39.055816875139875,46.08484920665083L39.136558374881744,50.566440694358676L39.39031737407049,58.799033067719186L39.528731373627984,57.289307264146814L39.644076373259225,53.03533429363822L39.99011137215296,53.03521925246392L40.11699087174733,54.76410647175117L40.27847387123108,47.15665758336427L40.647577870051066,51.37418821981456L40.982078368981675,50.885894112175144L41.16663036839167,55.03880513214197L41.35118236780167,59.643720486778776L41.39732036765416,57.24724471748993L41.593406867027284,65.93610297072605L41.99711436573664,62.58696795242236L42.48156336418788,61.510574438197665L42.58537386385599,71.37569454313709L42.712253363450365,74.85227286458847L42.792994863192234,76.11490736032032L42.89680536286036,70.14876933112444L43.05828836234411,72.00294899472416L43.08135736227036,72.42936304526818L43.11596086215973,65.85171774934108L43.62347886053721,68.9581742972754L44.14253135887782,71.89235447231665L44.35015235821406,74.11940632572016L44.45396285788218,69.63756245798015L44.6039113574028,70.2691498757967L44.63851485729218,82.97034603366666L44.73079085699717,87.07826374059566L45.19217085552216,88.36293311885385L45.38825735489528,84.96228476030461L45.50360235452652,82.07113949813149L45.53820585441589,82.64172733281673L46.16106885242463,86.92225814494265L46.29948285198212,77.3467172994183L46.56477635113398,80.02662401282589L47.02615634965897,80.7014805441129L47.03769084962209,88.2280475631373L47.12996684932709,90.8092034062753L47.17610484917959,84.48154068952857L47.25684634892146,84.44473679641521L47.86817484696706,87.45518882500909L47.948916346708934,81.92025694267619L48.306485845565796,93.47381026158732L48.35262384541829,91.28089540964366L48.44489984512329,92.91534961322546L48.53717584482829,86.34899091160058L48.58331384468078,88.04886629602765L48.81400384394328,90.59191964639099L48.87167634375891,91.28071728451773L48.883210843722026,95.04213335575893L49.11390084298452,92.35910801566978L49.171573342800144,92.21753343151414L49.390728842099506,95.96099179271702L49.5752808415095,95.77829494287873L49.69062584114074,92.93802371746483L49.82903984069824,102.07414219454635L50.12893683973949,103.08248204634017L50.2327473394076,110.17793280986206L50.63645483811697,111.22428452913317L50.64798933808009,107.68064557519169L50.67105833800633,107.91462469462522L51.17857633638382,95.18389346101266L51.270852336088815,99.7579234284066L51.374662835756936,97.8094601751508L51.39773183568319,99.41220096356521L51.45540433549881,103.98269854907305L51.743766834576924,101.79884399249619L51.75530133454005,105.74400936528723L51.8706463341713,102.70468985774922L51.89371533409754,108.74373250090365L51.95138783391317,106.67257998158506L52.11287083339691,101.05261036020501L52.18207783317566,103.97896919049013L52.285888332843776,102.48270012496226L52.45890583229065,103.36878242944665L52.5281128320694,102.51452244195335L53.139441330115005,109.1922289244711L54.050666827201844,111.2229028208482L54.25828782653809,111.93359778543876L54.6850643251737,114.11641475808959L54.846547324657436,118.24595024438108L55.2502548233668,114.5694106200421L56.207618320306146,114.94319933647418L56.48444631942114,120.82774598416391L57.303395816802976,114.26603494534912L57.39567181650798,120.55866609901202L57.81091381518046,121.04785574013003L58.12234531418483,121.02576640089754L58.1569488140742,112.23051282787564L58.82594981193542,119.31677001609945L59.541088809649146,115.32167748269167L59.72564080905914,118.30359694395499L59.933261808395386,116.85438613196634L59.944796308358505,116.24557526886714L60.336969307104745,116.60754812348038L60.452314306736,124.22082243554682L60.486917806625364,126.11302140708501L60.49845230658849,121.37537831041655L60.52152130651474,120.05592057212257L60.53305580647787,119.15447092952766L61.20205680433909,124.14351674975417L61.66343680286408,121.67563801086821L62.02100630172094,122.78148419604824L62.332437800725295,131.02632781831102L62.39011030054092,126.90307464818761L62.643869299729666,128.5388242943323L62.863024799029034,131.4756412627242L63.036042298475905,134.55503143918168L63.220594297885896,129.5142843189934L63.555094796816505,125.0353173019349L63.589698296705876,127.30839488696215L63.878060795784,131.1284570544431L64.60473429346085,129.34509749409375L64.8123552927971,120.19975834844598L64.83542429272333,122.76043452059083L64.85849329264958,125.46319959482463L64.92770029242834,129.11569613230773L65.25066629139582,132.56274561293452L65.41214929087957,126.12341283087449L66.05808128881455,123.65944440677474L66.10421928866705,122.46922272631353L66.2310987882614,128.9522131305267L66.8308927863439,126.62599801965533L67.07311728556951,130.71215799658285L67.13078978538513,133.6166758561658L67.15385878531139,130.65278346327108L67.26920378494262,131.0973917698095L67.64984228372575,134.31435986848055L67.78825628328323,132.4092766785108L68.38805028136571,134.66925175270336L68.7110162803332,131.32549462605058L69.03398227930069,135.1887723609122L69.47229327789942,133.35930229749155L69.59917277749379,131.67844057396576L69.63377627738316,135.5823547727795L70.29124277528128,133.86302830618212L70.34891527509689,134.84168710673802L70.47579477469127,137.8679456598458L71.31781327199936,138.54821563940627L71.45622727155686,136.27375107396475L71.4792962714831,139.68771528684397L71.53696877129873,135.2559383683401L71.54850327126185,136.89868001478897L71.83686577033997,138.61158437513106L71.89453827015558,139.54670433540818L71.92914177004496,142.0459911485891L72.02141776974996,140.86979762079602L72.25210776901245,137.5775080756085L72.28671126890183,139.3619280854307L72.47126326831182,135.50642698344245L72.72502226750056,136.30799193642528L72.87497076702117,136.96045434511896L72.89803976694742,137.8527802260947L73.47476476510367,140.20289371712397L73.75159276421866,140.43288056584234L73.83233426396052,138.41996877629776L73.90154126373928,138.90001232170593L74.17836926285426,139.15373376157004L74.21297276274363,139.5049338122971L74.89350826056798,141.1598811814646L75.0895947599411,138.84244727071882L75.33181925916672,141.20835019246795L75.8854752573967,143.73250287917887L75.92007875728606,142.16986403314849L76.46220025555293,140.5187432280098L76.7851662545204,135.62419732099264L76.87744225422541,142.30821935272508L76.9235802540779,140.23126579604326L77.01585625378291,140.9267389677869L77.44263275241852,138.7848931922261L77.50030525223413,142.9610919579115L77.86940925105412,142.08779951031485L77.96168525075913,140.61358420130895L78.06549575042723,139.9760487650471L78.30772024965286,135.92292595354542L78.44613424921036,137.25084600357906L78.4692032491366,141.91030583267624L78.90751424773535,139.73180205991994L79.04592824729285,141.61503572267966L79.53037724574406,142.3024454531233L80.31472324323654,143.83665456874135L80.41853374290466,145.25459800513366L80.45313724279404,142.37644454867709L81.3297592399915,141.8056204395358L81.35282823991776,139.20930801313304L81.36436273988087,139.69607992518652L81.9756912379265,140.54387900798744L82.29865723689397,135.5569475392653L83.05993423446019,139.19931519747695L83.50977973302206,143.23718891096664L84.54788472970327,147.5526742652956L84.73243672911326,147.49107076054233L84.893919728597,144.4044219495381L85.5975242263476,146.29164358744174L85.85128322553633,147.96256016206235L86.46261172358196,144.07669215507204L86.69330172284444,147.6267100023144L86.71637072277068,146.65043126832924L87.08547472159067,142.71995700831104L87.36230272070567,146.82810602357918L87.52378572018941,150.05027140667102L88.01976921860377,150.88839349189436L88.34273521757126,149.26952182852648L88.3658042174975,147.13870039703502L88.41194221735002,143.28735598458084L88.58495971679687,143.22007589181203L89.05787421528498,146.28599727848135L89.09247771517437,147.02951534866668L89.70380621321996,146.916459786471L90.06137571207681,149.3614447997965L90.07291021203996,146.76504558753714L90.26899671141307,145.92760449517812L90.30360021130244,147.42167264532475L90.69577321004867,148.46733892551916L90.71884220997492,148.60589689845955L90.7995837097168,149.26020472711394L91.21482570838928,146.56708279440443L91.4570502076149,146.11070806824947L91.73387820672988,143.8506418332087L91.79155070654551,141.78792553213998L91.86075770632425,144.30322855095721L92.17218920532864,148.59366289164518L92.40287920459112,150.4020713502818L92.46055170440674,151.6311961124631L92.63356920385361,151.2246096456225L92.69124170366922,149.32374136502597L93.1872252020836,147.89849149140747L93.4755877011617,150.01412749441283L93.49865670108795,150.3727196462561L93.68320870049794,151.22594212264474L93.79855370012919,152.76701622990166L94.37527869828541,152.7551427287602L94.59443419758479,152.5953627692308L94.74438269710541,150.65733308116472L94.81358969688416,151.898416236534L94.96353819640478,151.34034562647003L95.62100469430287,150.90773490139637L95.88629819345473,149.0135501126575L95.94397069327037,144.88567049980924L96.22079869238536,147.2767778714345L96.34767819197974,147.98418292193688L96.47455769157409,146.0621853353922L96.62450619109471,145.6328156872001L96.9013341902097,147.83140951474942L97.99711168670653,149.57079823169374L98.00864618666967,151.2344886862681L98.05478418652217,152.34848127892292L98.28547418578465,153.0520391390811L98.90833718379339,153.70744572936536L99.02368218342464,151.23196020131732L99.242837682724,152.31694758649422L99.86570068073273,152.0151273255989L99.96951118040084,152.7173808691171L100.0387181801796,151.67735331280633L100.10792517995834,147.57484147860768L100.14252867984773,147.93317968078946L100.22327017958959,150.96373981887695L100.31554617929459,152.26064465354145L100.35014967918396,152.48047876721773L100.48856367874146,152.05664329985473L100.79999517774581,152.8614992423188L100.84613317759832,153.88385401686023L100.9730126771927,150.02736611586803L101.88423817427953,151.52215129172498L102.04572117376327,151.58799134543952L102.13799717346828,152.83845084221016L102.31101467291514,153.4043388456008L103.06075717051824,151.76020309984094L103.39525766944885,151.66735875865464L103.42986116933822,151.49844668558623L103.72975816837946,151.65438459710114L103.98351716756821,148.23000165310998L104.8716736647288,150.82794511273502L105.04469116417567,152.64656919541954L105.13696716388067,151.77551552684903L105.40226066303252,152.2237059785831L105.60988166236878,152.29022259407685L106.07126166089375,151.44164116021065L106.31348616011938,153.15372080779713L106.67105565897624,154.02230941721285L107.28238415702184,154.67382039490928L107.40926365661622,153.48413851045723L107.61688465595245,154.52973103382828L107.7322296555837,154.4122460230955L107.74376415554683,150.81437553672603L107.96291965484619,153.1444215886808L108.22821315399806,154.30960615425656L108.44736865329742,149.53840568214267L108.89721415185927,149.54698773264653L108.93181765174866,151.78966019736092L109.01255915149052,152.63527285761452L109.12790415112177,153.76698576409706L109.16250765101114,153.34997874617034L109.33552515045803,152.5063034437266L109.71616364924112,153.56096153808636L109.9353191485405,153.9930739735246L110.84654464562733,154.55765315247658L111.2502521443367,154.80463562110413L111.44633864370982,155.59560918207825L111.6193561431567,154.84680240494524L111.74623564275106,155.56387770961234L111.8154426425298,155.5207182065577L112.1038051416079,154.24441664969507L112.16147764142355,154.33882575165083L112.21915014123917,152.11163665044813L112.42677114057541,151.89194076397126L112.55365064016978,150.89736034445826L112.58825414005915,152.08274060218253L112.81894413932166,152.98435977178048L112.91122013902664,153.75946076491314L113.02656513865789,154.74638141757302L113.43027263736725,155.45945783218625L113.48794513718286,156.04381881712902L114.19154963493347,156.29752466624396L114.20308413489659,156.54322844882557L114.57218813371658,156.47367357069106L115.16044763183594,156.60603693226784L115.25272363154093,156.7167579764489L115.6564311302503,156.3462346474447L115.78331062984466,155.39494604320038L115.92172462940216,155.61489592478102L116.11781112877527,155.07620921543494L116.80988112656276,154.34305617562686L117.43274412457149,155.30493963983955L117.47888212442398,155.49056747363392L117.64036512390773,155.50846390079786L117.83645162328085,155.4497347651501L117.9056586230596,154.7335492392528L118.39010762151082,155.70754285047713L118.57465962092083,156.07088818790174L118.70153912051519,156.31591033166887L118.8976256198883,156.26995975141224L119.1283156191508,156.4748036602631L119.18598811896642,156.00295248810914L119.20905711889266,156.32746356004904L119.27826411867142,156.6469535035606L119.50895411793391,156.56292354484444L119.54355761782328,155.6587476624253L119.6012301176389,155.15998060938435L119.70504061730703,155.9773379518045L120.74314561398823,155.90086739828902L120.75468011395135,155.66459405121634L120.77774911387762,155.09745191945095L121.10071511284511,155.49343099330193L121.15838761266072,155.54534431716397L121.21606011247636,155.94826936097053L121.88506111033759,156.20503268798356L122.18495810937883,156.14211353650788L122.28876860904693,153.97061049053727L122.66940710783004,154.79116881182586L122.68094160779317,155.72624867610736L122.78475210746129,156.20303570629716L123.22306310606002,156.48996554159558L123.31533910576503,156.72301426287552L123.37301160558064,156.32683275531866L123.74211560440064,156.39057629114322L124.28423710266749,156.49099965851565L124.33037510252,155.50924879974758L124.59566860167186,154.8052775817611L124.80328960100809,155.8123282932675L124.83789310089747,156.35481028288595L125.08011760012307,156.67386734777313L125.20699709971746,156.93133810991344L125.48382509883244,156.70268009001344L125.56456659857432,156.96877975909385L125.76065309794744,157.1430190526789L125.78372209787368,157.21711721877952L125.81832559776306,157.09584159753143L126.06055009698868,156.49392642193388L126.14129159673055,156.86411037067458L126.40658509588242,156.41920897465877L126.60267159525553,154.35984822140296L126.81029259459179,155.32787912507303L126.87949959437051,156.25163733893487L126.99484459400176,156.73353081730815L127.21400009330114,156.89895562546516L127.52543159230551,157.17102037304005L127.6177075920105,157.17388480807983L127.8599320912361,156.6265140667149L128.67888158861797,156.04766740401618L129.38248608636854,156.58434831934068L129.4978310859998,156.66043514087434L129.57857258574168,156.7086600853481L129.89000408474604,157.0432283761656L130.13222858397165,157.1004256743971L130.4321255830129,157.40028377409294L130.53593608268102,157.22117864004085L130.905040081501,156.8877334314886L131.1472645807266,156.5847522442149L131.64324807914096,156.96995569296632L131.67785157903035,157.1443678258908L131.90854157829284,157.15188995949865L131.98928307803473,157.35547762861998L132.28918007707597,157.51665181198842L133.09659507449467,156.95095424911605L133.2004055741628,156.72345475397245L133.28114707390466,157.03784729164758L133.4310955734253,157.29402016753357L133.68485457261403,157.25068634492175L133.8117340722084,157.207104899072L133.9386135718028,157.29266066984584L134.12316557121275,157.04168407476692L134.39999357032775,157.16231955232396L134.46920057010652,156.93303399420336L134.73449406925837,156.62479683961158L134.9421150685946,156.96150019934063L135.6457195663452,157.24553185844778L135.74953006601334,157.33822929656495L136.25704806439083,157.5232407521497L136.5800140633583,157.5551324402286L136.6146175632477,157.37390663834248L137.07599756177265,157.4785034318601L137.35282556088765,157.48465877379238L138.10256805849076,157.0080863556207L139.00225905561447,156.53475354990007L139.0599315554301,156.34637818254168L139.09453505531948,156.89071653406106L139.25601805480323,157.26213004286382L139.39443205436072,157.36962863682757L139.65972555351257,157.34772286186546L139.72893255329134,157.4887360858056L139.9019500527382,157.2064982694914L140.08650205214818,157.4956055659027L140.36333005126315,157.59879893569288L140.5594165506363,157.6289831217398L141.25148654842377,157.582879546677L141.37836604801814,157.58694923746657L141.60905604728063,157.4691102418114L141.68979754702252,157.5031433430778L141.74747004683812,157.1358130342866L142.99319604285557,157.3765984899874L143.02779954274496,157.48076175573547L143.27002404197057,157.53050265956455L143.3276965417862,157.6615996307094L143.82368004020054,157.37968338837976L143.95055953979494,157.4485224116862L144.06590453942616,157.2758503381324L144.11204253927866,157.12550695744378L144.44654303820928,157.25527973685993L144.5503535378774,157.4989315264921L144.81564703702927,157.6533771656724L144.82718153699238,157.71484872409368L144.96559553654987,157.74052903467367L145.32316503540673,157.7802721086324L145.42697553507486,157.84683800901152L145.62306203444797,157.81146804022336L145.68073453426362,157.19945502096442L145.78454503393172,157.3553936919661L145.87682103363673,157.24591602613205L145.96909703334174,157.01149324557736L146.16518353271485,157.0142760513555L146.5112185316086,157.26422590974082L146.6265635312398,157.44024594675182L147.05334002987541,157.56708399427527L147.15715052954354,157.66945134906527L147.1686850295067,157.74641607340868L147.42244402869542,157.81778741281002L147.5031855284373,157.79125042665277L147.8261515274048,157.84645686019954L147.94149652703604,157.85921231219524L147.99916902685166,157.5078991905971L148.12604852644603,157.63704932915226L148.22985902611416,157.69899510081592L148.39134202559788,157.72136866738117L148.82965302419663,157.70038091779145L148.864256524086,157.7492686999529L149.25642952283224,157.73652452613422L149.30256752268474,157.78998324624007L149.5678610218366,157.64731897695768L149.63706802161536,157.75393386686872L149.6601370215416,157.80262649471612L150.12151702006656,157.6959633487522L150.19072401984533,157.45197305457273L150.21379301977157,157.5623280226807L150.34067251936597,157.4910006475781L150.39834501918156,157.66368054012713L150.5598280186653,157.5612459470757L150.66363851833344,157.71815596685315L150.84819051774343,157.57506362505185L151.13655301682155,157.70082526025132L151.3557085161209,157.51706744734992L151.45951901578903,157.4449767243202L151.66714001512528,157.5849307615454L151.97857151412964,157.56223704655588L152.2438650132815,157.59654017774722L152.26693401320776,157.72346658734244L152.27846851317088,157.78847340970086L152.95900401099524,157.7829886116689L152.9936075108846,157.8104111482704L153.09741801055273,157.78864710444608L153.53572900915148,157.86941735824539L154.1239885072708,157.89046256115736L154.70071350542702,157.9053945290879L154.79298950513206,157.91290648084737L155.2082315038045,157.9027805586922L155.40431800317762,157.94202471349354L155.63500800244012,157.91044250173195L155.95797400140762,157.89245799400757L155.992577501297,157.87936244318956L156.07331900103887,157.87509638465892L156.09638800096513,157.61348275874153L156.29247450033824,157.73599058319647L156.38475050004322,157.7186950584584L156.48856099971135,157.72675651308276L156.66157849915822,157.68957014381587L156.84613049856821,157.69405885927202L157.29597599713006,157.80502625809132L157.43438999668757,157.89489636405L157.57280399624506,157.82615236970187L157.69968349583942,157.86375315299478L157.8611664953232,157.8320157349756L157.88423549524944,157.81318768846023L158.2994774939219,157.84905980569962L158.7147194925944,157.87787282211164L159.02615099159874,157.8735593991238L159.1991684910456,157.87906510750997L159.54520348993938,157.91428797212802L159.82203148905438,157.88785073769503L160.02965248839058,157.9174689083518L160.4102909871737,157.8817191383244L160.7217224861781,157.89457396368877L160.8716709856987,157.80591212779697L160.89473998562494,157.82003797524672L160.90627448558809,157.86927710051825L161.13696448485055,157.57868816102217L161.19463698466618,157.72100994270843L161.35611998414996,157.8118703212715L161.47146498378117,157.86587733820605L161.5291374835968,157.90275723804848L161.6098789833387,157.9226875339186L161.82903448263804,157.946732753635L161.96744848219552,157.93701260161322L162.3711559809049,157.9340749683979L163.0862949786186,157.8233950060347L163.25931247806548,157.85813225531606L163.38619197765985,157.86862959759662L163.43232997751235,157.8723551514114L163.61688197692237,157.88509629421063L163.99752047570547,157.8813775521953L164.1013309753736,157.90977932079562L164.60884897375107,157.91725259024105L164.83953897301356,157.92589063514583L164.87414247290295,157.92107686178161L165.0586944723129,157.92086865146473L165.24324647172293,157.9151692135752L166.06219596910478,157.90462060799518L166.16600646877288,157.9201338823154L166.52357596762974,157.85115747828308L166.74273146692914,157.90483314066032L166.7773349668185,157.71065440191043L167.03109396600723,157.8031645468502L167.7808364636103,157.86845282982497L167.87311246331535,157.88366611951736L168.11533696254094,157.86819120035182L168.3690959617297,157.79608579008647L168.70359646066032,157.70897686536867L169.23418345896403,157.80486487916377L169.55714945793153,157.8768967779666L170.2376849557559,157.91108413627387L170.42223695516586,157.92141234719205L170.77980645402272,157.89625264543392L171.11430695295334,157.89005460266847L171.40266945203146,157.937203196266L171.46034195184708,157.9187522158682L171.6102904513677,157.9366798086811L171.76023895088832,157.95228726156878L171.82944595066706,157.95937368765502L172.3138949491183,157.98434235842032L172.32542944908144,157.96796693257048L172.5561194483439,157.9682454795157L173.22512044620515,157.97484473656672L173.42120694557826,157.78096272654344L173.73263844458265,157.87178827139653L173.74417294454574,157.91597879182564L173.83644894425072,157.8413746779208L173.97486294380823,157.9120957235809L174.11327694336572,157.93346312888218L174.28629444281262,157.96155987816223L174.33243244266512,157.96504445975916L174.52851894203823,157.96788562375374L174.73613994137446,157.9627829857484L174.9437609407107,157.97518531280355L175.1167784401576,157.9578362122966L175.2321234397888,157.95943339257573L175.2667269396782,157.9391120743523L175.40514093923568,157.90842691287702L175.41667543919883,157.85335268135364L175.46281343905133,157.91121556399872L175.7857794380188,157.9449952747902L176.08567643706004,157.95824136056683L176.46631493584314,157.9336799606321L176.63933243529002,157.96328460916465L177.0545744339625,157.96039758451315L177.6659029320081,157.9460691173246L177.7120409318606,157.93924087245458L177.9427309311231,157.95529792936875L178.5079214293162,157.85810522297052L178.8424219282468,157.85274746027568L179.32687092669804,157.90940520235304L179.91513042481742,157.93174161399745L180.0881479242643,157.95822212304796L180.18042392396927,157.98008694823292L180.24963092374801,157.968656551437L180.82635592190422,157.93735622360066L180.8609594217936,157.95915203994142L180.895562921683,157.9880954476595L181.04551142120363,157.97772293647853L181.35694292020796,157.96525490464518L181.6453054192861,157.9901893350663L181.72604691902797,157.97675482435028L181.97980591821673,157.88791729935372L182.2220304174423,157.92487899302648L182.37197891696295,157.94560878023125L182.7756864156723,157.96983888884128L183.04097991482416,157.99409214867566L183.07558341471355,157.941361356397L183.22553191423415,157.95681142456738L183.27166991408666,157.97891892270036L183.83686041227978,157.97570109131516L183.84839491224287,157.95557282785L184.06755041154227,157.98621592577484L184.10215391143163,157.99609261402705L184.20596441109976,157.97713432835883L184.21749891106288,157.99201048296527L184.28670591084162,157.97707029751618L184.5173959101041,157.99849799522315L184.54046491003038,157.992674639547L185.48629390700657,157.9866881761988L185.5555009067853,157.97133086243977L186.42058840401967,157.9749003303411L186.74355440298714,157.92700540847255L187.11265840180715,157.95749764215734L187.1818654015859,157.94754521635306L187.44715890073775,157.97413641334526L187.87393539937335,157.1649829984215L187.8854698993365,157.5128000469133L187.95467689911524,157.70061265767268L188.05848739878337,157.7891261397397L188.25457389815648,157.85949377481836L188.392987897714,157.90929890784116L188.46219489749274,157.93977159946917L188.69288489675523,157.9493182393787L188.73902289660774,157.96788368055522L189.0158508957227,157.95195440287472L189.14273039531707,157.95869156277226L189.7194553934733,157.97750095460677L189.9962833925883,157.98117523719483L190.26157689174016,157.98790909750343L190.67681889041265,158.0080967372409L190.95364688952765,158.00156954758853L190.97671588945389,157.99652761124247L190.988250389417,157.94335864467743L191.6803203872045,157.97254908886694L191.85333788665136,157.99208679592536L191.9225448864301,158.00336721129966L192.26857988532382,158.00969325166346L192.37239038499195,157.99561291769191L192.41852838484448,157.99901055467015L192.48773538462322,158.00439920398415L192.67228738403318,157.9759005577453L193.16827088244756,157.97670412872884L193.30668488200504,157.97857989924378L193.5489093812307,157.99117599139572L193.5604438811938,158.0064790018846L193.60658188104628,157.9869574330335L193.6527198808988,157.96141541462248L193.6988578807513,157.95957087369504L193.89494438012443,157.92729512458868L193.96415137990314,157.95054252898066L194.01028937975565,157.9742597673583L194.32172087876003,157.98767269400588L194.63315237776436,157.99911071792698L194.85230787706377,157.98813777489534L195.22141187588375,157.99559749047287L195.23294637584686,157.97195955648934L195.24448087580998,157.96300290081737L195.52130887492498,157.97880133165705L196.27105137252806,157.95861219568388L196.40946537208558,157.9889239641967L197.13613886976242,157.95310794321662L197.62058786821368,157.97708544167665L197.66672586806615,157.99301297163112L198.17424386644365,157.9509516553105L198.393399365743,157.95163098481282L198.82017586437863,157.97149577238804L199.16621086327234,157.9871399195784L199.24695236301423,157.99570899151362L199.36229736264545,158.00220386179407L199.5699183619817,157.99803382232048L199.8352118611336,157.9869288262541L200.0312983605067,158.00422550870678L200.10050536028544,157.99951481583824L200.18124686002733,157.99577718185859L200.72336835829415,158.00479082701762L200.7810408581098,157.80150323236754L200.9655928575198,157.89180432901463L201.03479985729854,157.93648419663063L201.15014485692976,157.92571776430347L201.357765856266,157.95053413160514L201.55385235563912,157.96185948056296L201.5769213555654,157.99540832601414L201.9460253543854,158.0010318426248L202.17671535364786,157.97559537529872L202.30359485324223,157.97920107296252L202.8457163515091,157.81798841790976L202.98413035106657,157.90438889431013L203.11100985066096,157.94325772023447L203.84921784830092,157.93289074075966L204.2067873471578,157.9735982933902L204.63356384579342,157.98188890168475L204.9103918449084,157.99623005434867L205.01420234457652,158.003963728494L205.08340934435526,158.00442304920665L205.25642684380213,158.01099676783303L205.45251334317524,157.97390937683704L205.613996342659,157.96650443974642L205.64859984254835,157.99415512056902L205.86775534184775,157.93137573868896L206.0869108411471,157.96998243790915L207.39030933698018,157.99065400749876L207.4825853366852,157.98729823348697L207.55179233646393,157.99284252051848L207.82862033557893,157.9866281015596L207.84015483554202,157.99353926337972L208.27846583414077,157.9702958116412L208.58989733314513,157.98664774769495L208.72831133270265,157.995346687041L208.97053583192823,158.00032484581553L209.6510713297526,157.99953286536092L209.8010198292732,158.00644122503616L209.91636482890448,157.95643575579996L209.96250282875698,157.96741049535606L210.25086532783507,157.9871142019592L210.5046243270238,157.9935093171753L211.33510832436878,157.98485733605537L211.58886732355754,157.97556566521993L211.63500532341,157.9931597269692L211.65807432333628,158.00996068914358L211.6696088232994,158.0139575445455L211.78495382293065,158.0050860319713L212.01564382219314,158.00674466431954L212.31554082123438,157.93753583701442L212.70771381998063,157.96515592613326L212.81152431964875,157.98647167465643L213.45745631758373,157.99633986523557L214.08031931559245,158.0092423194758L214.38021631463369,158.01888663014807L214.4378888144493,158.01849569276922L214.6685788137118,158.02646209466883L215.25683831183113,158.03201915138212L215.30297631168366,158.03118590190405L215.67208031050365,158.0270812799885L216.23727080869674,158.02319807837733L216.46796080795923,157.9922719844143L216.83706480677924,157.98915343735783L216.9524098064105,157.99390204176694L216.96394430637358,157.99672440387542L217.25230680545172,158.0001062549725L217.30997930526735,157.95515402424132L217.35611730511982,157.97816568733788L217.51760030460358,157.99331271204665L218.0020493030548,157.91178831121996L218.29041180213292,157.93054502668997L219.15549929936725,157.97059623299594L219.92831079689662,157.98432215029678L220.28588029575346,157.9919948893999L220.67805329449973,157.9861731239625L220.68958779446282,157.98793296995524L220.94334679365159,158.00119652216176L221.3816577922503,157.97786502651923L221.43933029206596,157.99842542161613L221.49700279188156,158.0139107217737L221.61234779151283,158.00848840704631L221.92377929051716,157.97336917969758L221.9353137904803,157.9804650076924L222.01605529022217,157.93431069436176L222.1775382897059,157.974517266894L222.3044177893003,157.98662116956157L222.51203878863652,158.00627875953214L222.53510778856278,158.01922573660616L222.80040128771464,158.00476287739562L222.81193578767775,158.01465793402153L222.82347028764087,158.00783791237734L222.85807378753026,157.9815550547414L223.0772292868296,157.98652895581037L223.48093678553897,157.99866567984284L223.6770232849121,158.0054251037905L223.82697178443274,157.97340723533523L223.83850628439586,157.98255148242524L223.9538512840271,157.9957297848029L224.08073078362145,158.00300695360963L224.19607578325272,157.99363797967283L224.2883517829577,158.01190927406077L224.40369678258898,158.01544830194L224.96888728078207,157.9972167108037L225.06116328048705,157.99702477146545L225.10730128033956,157.9855729807046L225.43026727930706,157.99389781073634L225.59175027879078,158.00762968382267L225.66095727856955,158.0156276028413L225.82244027805328,158.00860731742833L225.84550927797952,158.0026531112745L225.9262507777214,158.01769356053995L225.97238877757388,157.98843326297154L226.00699227746327,158.00821023249412L226.0185267774264,158.01984860964302L226.06466477727892,157.9983292648156L226.353027276357,157.98273760421753L226.4683722759883,157.9660124601792L226.51451027584076,157.94595397291212L226.69906227525075,157.97651833413923L226.8605452747345,157.98313171593085L227.27578727340696,157.9561719252891L227.2873217733701,157.98888023042167L227.368063273112,157.98733278925837L227.49494277270637,157.98881637289188L227.84097777160008,157.98255077968864L228.06013327089946,157.9997494437134L228.07166777086258,158.01012224320226L228.1293402706782,158.01158882757522L228.44077176968256,157.99811709062678L228.6483927690188,157.9983690154698L228.8790827682813,157.99401768015684L230.15941226418815,158.0061069735225L230.26322276385628,158.01829184835287L230.44777476326624,158.0219713004854L230.48237826315562,158.03223253313828L230.58618876282375,158.02108952608606L230.90915476179123,157.89532893589154L231.30132776053745,157.94980158522958L231.3128622605006,157.96442161288346L231.41667276016872,157.94912674723517L231.45127626005808,157.98037843793523L231.90112175861995,157.98182970571128L232.07413925806682,158.00357808471256L232.18948425769807,158.015273684994L232.3625017571449,158.0119326376061L232.38557075707118,157.9542632937906L232.4778467567762,157.9811957204906L232.66239875618615,157.9976767829548L232.89308875544864,157.99684520562684L233.16991675456364,158.01168956667183L233.4236757537524,158.0201941752436L233.74664175271988,158.00563874648526L233.8850557522774,158.00761230376824L234.3695047507286,158.00931904860983L234.40410825061798,158.00549219831487L234.8770227491061,157.99386950125623L234.9692987488111,157.99005834638893L235.90359324582417,157.9991886822375L235.91512774578732,158.00332685689582L236.91862924257913,158.0195986379857L237.01090524228414,158.00209216022554L237.5184232406616,157.99434872888216L237.52995774062475,158.00903925753335L238.11821723874408,158.01462411001359L238.2220277384122,157.98026666591988L238.8102872365316,157.989883205218L238.9256322361628,157.99998141552499L239.0063737359047,158.00652275137546L239.06404623572033,158.0096703373123L239.34087423483533,157.94572336969398L239.76765073347093,157.96079545993337L239.96373723284404,157.971446746298L240.44818623129527,157.95618268420762L241.00184222952527,157.86560421549808L241.0249112294515,157.88796027121282L241.46322222805023,157.9142917634835L241.75158472712835,157.93129668301165L241.97074022642772,157.94356327607878L242.02841272624335,157.95805217476538L242.08608522605897,157.98454107055613L242.2937062253952,158.00125182440956L242.35137872521082,157.98918123395174L242.40905122502645,158.00951663226675L242.54746522458393,158.0145487276039L242.78968972380957,158.02499173355972L243.33181122207642,158.005354818107L243.574035721302,157.99869157140546L244.00081221993764,158.0026935836839L244.18536421934763,157.98490058640922L244.57753721809385,157.99916268773802L244.70441671768822,158.00619231792538L244.85436521720885,157.98123771149562L245.28114171584446,158.00176225891576L245.36188321558635,157.99307876661564L245.40802121543882,157.95731605903705L245.69638371451697,157.98192855762082L245.9962807135582,157.98589544035352L246.4576607120832,157.99982660144715L246.9305752105713,157.97706987462746L246.96517871046063,157.98982776776518L247.0228512102763,157.98259480533525L247.5995762084325,157.99633199009477L247.83026620769502,157.99694954816937L248.00328370714186,157.99705207764396L248.03788720703125,158.0047249478413L248.0609562069575,158.00362015557528L248.29164620622,158.00408290277034L248.36085320599875,158.01454475515357L248.6261467051506,158.0210094703426L248.91450920422872,158.0259871214737L248.93757820415496,158.01865550540109L249.0875267036756,158.00592156874546L249.32975120290118,158.01745699098723L249.54890670220058,158.02522246124826L249.61811370197933,158.02008614712548L249.77959670146308,157.99855218891614L249.90647620105744,158.00053291257151L250.01028670072554,157.96537981857077L250.05642470057808,157.98089749573447L250.54087369902928,157.9958228145376L250.62161519877117,157.9977160643157L250.66775319862364,158.01806129908897L250.7254256984393,158.02037234165968L250.73696019840241,157.9833403973893L251.19834019692738,158.00491330831164L251.41749569622675,157.9945405876609L251.7289271952311,157.98381446505172L251.994220694383,157.98697338373805L252.32872119331358,157.9878503145432L252.8016356918017,158.0061854298736L252.91698069143297,158.02430204164966L253.05539469099043,157.98264295616346L253.2514811903636,157.9890845347918L253.43603318977355,157.98279207843962L253.52830918947856,158.00264127800816L253.63211968914666,157.88994170089222L253.71286118888855,157.93520581653513L253.75899918874103,157.93004283827923" fill="none"></path></g></g></g></g><g opacity="0.2"><g><g><g><path style="fill: none;" stroke="rgb(0, 119, 187)" stroke-width="2px" d="M31.408443399588265,-4.116562485694885L31.500719399293263,1.3721874952316284L31.904426898002626,5.9004062294959985L31.950564897855124,14.133531200885768L31.973633897781372,-6.449281227588638L32.135116897265114,-3.156031239032761L32.158185897191366,13.3102187037468L32.238927396933235,3.0188124895095862L32.33120339663824,-10.016968715190902L32.40041039641698,-6.586499977111832L32.72337639538447,21.131687426567087L33.98063689136505,11.800812458991997L34.28053389040629,18.524531185626984L34.292068390369415,13.721874952316284L34.361275390148165,22.778312420845023L34.43048238992691,21.33751555085182L34.63810338926315,16.877906191349027L34.67270688915253,30.59978114366531L34.77651738882064,15.368499946594243L35.341707887013754,10.977499961853027L35.376311386903126,25.385468661785126L35.51472538646062,26.963484281301508L35.6877428859075,43.5669529736042L35.75694988568624,38.28403111696244L35.814622385501856,12.075249958038325L36.41441638358434,31.766140514612207L36.47208888339996,23.73884366750717L36.48362338336309,35.53965612649918L36.69124438269933,44.11582797169686L36.84119288221995,33.412765508890146L37.429452380339306,24.76798428893089L37.62553887971242,35.40243737697601L38.25993637768427,35.33382800221443L38.29453987757365,49.53596857786178L38.45602287705739,42.94946860074997L38.50216087690989,31.4230936408043L39.055816875139875,59.27849979400635L39.136558374881744,57.28882792592049L39.39031737407049,71.14792162775993L39.528731373627984,55.024718558788294L39.644076373259225,46.654374837875366L39.99011137215296,53.035046690702444L40.11699087174733,57.357437300682065L40.27847387123108,35.74548425078392L40.647577870051066,57.70048417448997L40.982078368981675,50.153452950716016L41.16663036839167,61.268171662092215L41.35118236780167,66.55109351873398L41.39732036765416,53.652531063556665L41.593406867027284,78.96939035058021L41.99711436573664,57.563265424966815L42.48156336418788,59.895984166860586L42.58537386385599,86.17337470054626L42.712253363450365,80.06714034676551L42.792994863192234,78.00885910391807L42.89680536286036,61.19956228733062L43.05828836234411,74.78421849012375L43.08135736227036,73.06898412108421L43.11596086215973,55.98524980545044L43.62347886053721,73.61785911917687L44.14253135887782,76.29362473487853L44.35015235821406,77.45998410582543L44.45396285788218,62.91479665637016L44.6039113574028,71.21653100252152L44.63851485729218,102.02214027047157L44.73079085699717,93.24014030098915L45.19217085552216,90.28993718624115L45.38825735489528,79.86131222248078L45.50360235452652,77.73442160487176L45.53820585441589,83.49760908484458L46.16106885242463,93.34305436313153L46.29948285198212,62.98340603113175L46.56477635113398,84.04648408293724L47.02615634965897,81.71376534104347L47.03769084962209,99.51789809167386L47.12996684932709,94.68093717098236L47.17610484917959,74.9900466144085L47.25684634892146,84.38953095674515L47.86817484696706,91.9708668678999L47.948916346708934,73.61785911917687L48.306485845565796,110.804140239954L48.35262384541829,87.99152313172817L48.44489984512329,95.36703091859818L48.53717584482829,76.49945285916328L48.58331384468078,90.59867937266827L48.81400384394328,94.40649967193603L48.87167634375891,92.31391374170781L48.883210843722026,100.68425746262074L49.11390084298452,88.33457000553608L49.171573342800144,92.00517155528068L49.390728842099506,101.5761793345213L49.5752808415095,95.50424966812133L49.69062584114074,88.67761687934399L49.82903984069824,115.77831991016865L50.12893683973949,104.59499182403087L50.2327473394076,120.82110895514488L50.63645483811697,112.79381210803986L50.64798933808009,102.36518714427947L50.67105833800633,108.26559337377549L51.17857633638382,76.0877966105938L51.270852336088815,106.61896837949753L51.374662835756936,94.88676529526711L51.39773183568319,101.81631214618683L51.45540433549881,110.83844492733479L51.743766834576924,98.52306215763092L51.75530133454005,111.66175742447376L51.8706463341713,98.14571059644223L51.89371533409754,117.8022964656353L51.95138783391317,103.56585120260715L52.11287083339691,92.62265592813492L52.18207783317566,108.36850743591785L52.285888332843776,100.23829652667045L52.45890583229065,104.69790588617325L52.5281128320694,101.23313246071339L53.139441330115005,119.20878864824772L54.050666827201844,114.26891366541386L54.25828782653809,112.9996402323246L54.6850643251737,117.39064021706581L54.846547324657436,124.4402534738183L55.2502548233668,109.05460118353366L56.207618320306146,115.50388241112232L56.48444631942114,129.65456595569847L57.303395816802976,104.42346838712692L57.39567181650798,129.99761282950638L57.81091381518046,121.78164020180702L58.12234531418483,120.99263239204883L58.1569488140742,99.03763246834278L58.82594981193542,129.94615579843523L59.541088809649146,109.32903868257999L59.72564080905914,122.77647613584995L59.933261808395386,114.68056991398335L59.944796308358505,115.33235897421837L60.336969307104745,117.15050740540028L60.452314306736,135.64073390364646L60.486917806625364,128.95131986439227L60.49845230658849,114.26891366541386L60.52152130651474,118.07673396468162L60.53305580647787,117.8022964656353L61.20205680433909,131.62708548009394L61.66343680286408,117.97381990253925L62.02100630172094,124.4402534738183L62.332437800725295,143.39359325170517L62.39011030054092,120.7181948930025L62.643869299729666,130.99244876354933L62.863024799029034,135.880866715312L63.036042298475905,139.1741167038679L63.220594297885896,121.95316363871098L63.555094796816505,118.31686677634715L63.589698296705876,130.71801126450302L63.878060795784,136.85855030566452L64.60473429346085,126.6700581535697L64.8123552927971,106.48174962997436L64.83542429272333,126.60144877880812L64.85849329264958,129.51734720617534L64.92770029242834,134.59444093853236L65.25066629139582,137.7333198338747L65.41214929087957,116.46441365778446L66.05808128881455,119.96349177062511L66.10421928866705,120.68389020562172L66.2310987882614,138.67669873684645L66.8308927863439,123.13667535334825L67.07311728556951,136.84139796197414L67.13078978538513,137.97345264554022L67.15385878531139,126.20694487392902L67.26920378494262,131.76430422961712L67.64984228372575,139.13981201648713L67.78825628328323,129.5516518935561L68.38805028136571,138.0592143639922L68.7110162803332,126.3098589360714L69.03398227930069,140.98368896320463L69.47229327789942,130.61509720236063L69.59917277749379,129.15714798867702L69.63377627738316,141.43822607100012L70.29124277528128,131.28403860628603L70.34891527509689,136.3096753075719L70.47579477469127,142.40733348950744L71.31781327199936,139.568620608747L71.45622727155686,132.86205422580244L71.4792962714831,144.8086616061628L71.53696877129873,128.60827299058437L71.54850327126185,139.36279248446226L71.83686577033997,141.1809409156442L71.89453827015558,140.94938427582383L71.92914177004496,145.79492136836052L72.02141776974996,139.10550732910633L72.25210776901245,132.63907375782728L72.28671126890183,142.03855810016395L72.47126326831182,129.72317533046007L72.72502226750056,137.51033936589957L72.87497076702117,137.93914795815945L72.89803976694742,139.1912690475583L73.47476476510367,143.72806395366788L73.75159276421866,140.77786083891988L73.83233426396052,135.40060109198092L73.90154126373928,139.6200776398182L74.17836926285426,139.53431592136621L74.21297276274363,140.03173388838766L74.89350826056798,143.6423022352159L75.0895947599411,135.36629640460015L75.33181925916672,144.7572045750916L75.8854752573967,147.51873190924525L75.92007875728606,139.82590576410294L76.46220025555293,138.0420620203018L76.7851662545204,128.28237846046684L76.87744225422541,152.33425240032375L76.9235802540779,137.11583546102045L77.01585625378291,141.96994872540236L77.44263275241852,135.57212452888487L77.50030525223413,149.2253901064396L77.86940925105412,140.77786083891988L77.96168525075913,138.4022612378001L78.06549575042723,139.01974561065435L78.30772024965286,129.84324173629284L78.44613424921036,139.2427260786295L78.4692032491366,148.8994955763221L78.90751424773535,136.46404640078546L79.04592824729285,144.4398862168193L79.53037724574406,143.33356004878877L80.31472324323654,146.13796824216843L80.41853374290466,147.3815131597221L80.45313724279404,138.0592143639922L81.3297592399915,140.94938427582383L81.35282823991776,135.31483937352894L81.36436273988087,140.42623779326678L81.9756912379265,141.8155776321888L82.29865723689397,128.07655033618212L83.05993423446019,144.6628666847944L83.50977973302206,149.29399948120115L84.54788472970327,154.02590229678898L84.73243672911326,147.3986655034125L84.893919728597,139.77444873303173L85.5975242263476,149.1224760442972L85.85128322553633,150.46893502399325L86.46261172358196,138.24789014458656L86.69330172284444,152.951736773178L86.71637072277068,145.1860131673515L87.08547472159067,136.82424561828375L87.36230272070567,152.99032954648138L87.52378572018941,154.88351948130875L88.01976921860377,152.14557661972938L88.34273521757126,146.84121433347465L88.3658042174975,143.94246824979783L88.41194221735002,137.51033936589957L88.58495971679687,143.11915575265883L89.05787421528498,150.88487935848534L89.09247771517437,148.1447924539447L89.70380621321996,146.74687644317746L90.06137571207681,153.02892231978475L90.07291021203996,142.87044676914812L90.26899671141307,144.67144285663963L90.30360021130244,149.66277487054467L90.69577321004867,150.0358383458108L90.71884220997492,148.81373385787012L90.7995837097168,150.2416664700955L91.21482570838928,142.5273998953402L91.4570502076149,145.42614597901704L91.73387820672988,140.46054248064755L91.79155070654551,138.69385108053686L91.86075770632425,148.0761830791831L92.17218920532864,155.0293144026771L92.40287920459112,153.11468403823673L92.46055170440674,153.47488325573502L92.63356920385361,150.61472994536163L92.69124170366922,146.47243894413114L93.1872252020836,145.76061668097972L93.4755877011617,153.18758149892093L93.49865670108795,150.91060787402094L93.68320870049794,152.5057758372277L93.79855370012919,155.078627390787L94.37527869828541,152.73733247704806L94.59443419758479,152.35569282993674L94.74438269710541,147.75028854906557L94.81358969688416,153.76004096958786L94.96353819640478,150.50323971137405L95.62100469430287,150.2588188137859L95.88629819345473,146.17227292954922L95.94397069327037,138.69385108053686L96.22079869238536,150.86343892887234L96.34767819197974,149.04529049769044L96.47455769157409,143.17918895557523L96.62450619109471,144.98876121491193L96.9013341902097,151.1293002560735L97.99711168670653,152.1798813071102L98.00864618666967,153.73002436812968L98.05478418652217,154.0194701679051L98.28547418578465,154.10737592931835L98.90833718379339,154.6905556147918L99.02368218342464,147.51873190924525L99.242837682724,153.94442866425962L99.86570068073273,151.56239693425596L99.96951118040084,153.77076118439436L100.0387181801796,150.11731197834015L100.10792517995834,141.4210737273097L100.14252867984773,148.4706869840622L100.22327017958959,155.5095800260082L100.31554617929459,154.20600190553816L100.35014967918396,152.8102299377322L100.48856367874146,151.4208900988102L100.79999517774581,154.06878315601497L100.84613317759832,155.41738617867233L100.9730126771927,144.24263426437975L101.88423817427953,153.76432905551044L102.04572117376327,151.68675142601134L102.13799717346828,154.7141400873661L102.31101467291514,154.25317085068673L103.06075717051824,149.29399948120115L103.39525766944885,151.52809224687516L103.42986116933822,151.24507857598363L103.72975816837946,151.88829146437345L103.98351716756821,143.09342723712325L104.8716736647288,154.7248603021726L105.04469116417567,155.37450531944634L105.13696716388067,150.46893502399325L105.40226066303252,152.89599165618418L105.60988166236878,152.38999751731754L106.07126166089375,150.16876900941133L106.31348616011938,155.72184027917683L106.67105565897624,155.32519233133644L107.28238415702184,155.65108686145393L107.40926365661622,151.69961568377911L107.61688465595245,156.0981198188849L107.7322296555837,154.23601850699632L107.74376415554683,145.41756980717182L107.96291965484619,156.639490666613L108.22821315399806,156.05738300262018L108.44736865329742,142.38160497397186L108.89721415185927,149.5598608084023L108.93181765174866,155.15366889443249L109.01255915149052,153.9036918479949L109.12790415112177,155.4645551238209L109.16250765101114,152.72446821928023L109.33552515045803,151.24079049006104L109.71616364924112,155.142948679626L109.9353191485405,154.64124262668193L110.84654464562733,155.4045219209045L111.2502521443367,155.17510932404548L111.44633864370982,156.78206952353938L111.6193561431567,153.7235922392458L111.74623564275106,156.639490666613L111.8154426425298,155.4559789519757L112.1038051416079,152.32996431440117L112.16147764142355,154.48043940458447L112.21915014123917,148.77085299864413L112.42677114057541,151.56239693425596L112.55365064016978,149.40548971518874L112.58825414005915,153.86081098876892L112.81894413932166,154.3367885261774L112.91122013902664,154.92211225461213L113.02656513865789,156.22676239656286L113.43027263736725,156.52907245410606L113.48794513718286,156.9203602945432L114.19154963493347,156.67808343991638L114.20308413489659,156.911784122698L114.57218813371658,156.36934125348924L115.16044763183594,156.80458197463304L115.25272363154093,156.88283954272046L115.6564311302503,155.7904496539384L115.78331062984466,153.9680131368339L115.92172462940216,155.94482074715197L116.11781112877527,154.2681791514158L116.80988112656276,153.2433266159147L117.43274412457149,156.7477648361586L117.47888212442398,155.7690092243254L117.64036512390773,155.5353085415438L117.83645162328085,155.3616410616785L117.9056586230596,153.6592709504068L118.39010762151082,157.16853326731362L118.57465962092083,156.61590619403867L118.70153912051519,156.68344354731963L118.8976256198883,156.20103388102726L119.1283156191508,156.78206952353938L119.18598811896642,155.29517572987825L119.20905711889266,156.81423016795887L119.27826411867142,157.12618841882795L119.50895411793391,156.4368786067702L119.54355761782328,154.30248383879663L119.6012301176389,154.41183002982288L119.70504061730703,157.20337396543474L120.74314561398823,155.7861615680158L120.75468011395135,155.31018403060736L120.77774911387762,154.2467387218028L121.10071511284511,156.0873996040784L121.15838761266072,155.62321430295705L121.21606011247636,156.55265692668036L121.88506111033759,156.5901776785031L122.18495810937883,156.04773480929433L122.28876860904693,150.71335592158138L122.66940710783004,156.02200629375875L122.68094160779317,157.12886847252958L122.78475210746129,156.91821625158192L123.22306310606002,156.9203602945432L123.31533910576503,157.07258734479547L123.37301160558064,155.73256049398333L123.74211560440064,156.48619159488007L124.28423710266749,156.64163470957428L124.33037510252,154.03662251159548L124.59566860167186,153.74932075478137L124.80328960100809,157.3229043605272L124.83789310089747,157.16853326731362L125.08011760012307,157.15245294510387L125.20699709971746,157.31754425312394L125.48382509883244,156.3596930601634L125.56456659857432,157.36792926271445L125.76065309794744,157.40437799305656L125.78372209787368,157.32826446793044L125.81832559776306,156.9139281656593L126.06055009698868,155.59105365853756L126.14129159673055,157.41938629378566L126.40658509588242,155.75185688063502L126.60267159525553,151.27080709151923L126.81029259459179,156.7799254805781L126.87949959437051,157.6372746597277L126.99484459400176,157.45637103486806L127.21400009330114,157.14709283770063L127.52543159230551,157.57911749440245L127.6177075920105,157.17818146063948L127.8599320912361,155.8054579546675L128.67888158861797,155.17939740996806L129.38248608636854,157.38936969232745L129.4978310859998,156.77456537317485L129.57857258574168,156.78099750205874L129.89000408474604,157.54508081239183L130.13222858397165,157.18622162174435L130.4321255830129,157.85007092363665L130.53593608268102,156.9525209389627L130.905040081501,156.38756561866032L131.1472645807266,156.1302804633044L131.64324807914096,157.54776086609345L131.67785157903035,157.40598602527754L131.90854157829284,157.16317315991037L131.98928307803473,157.660859132302L132.28918007707597,157.75841308704113L133.09659507449467,156.10240790480748L133.2004055741628,156.38220551125707L133.28114707390466,157.50943609816022L133.4310955734253,157.67827948136255L133.68485457261403,157.185685611004L133.8117340722084,157.14173273029738L133.9386135718028,157.42099432600662L134.12316557121275,156.66521918214858L134.39999357032775,157.34327276865952L134.46920057010652,156.58910565702243L134.73449406925837,156.16244110772388L134.9421150685946,157.46655523893423L135.6457195663452,157.6715793471085L135.74953006601334,157.47727545374073L136.25704806439083,157.80075793552678L136.5800140633583,157.60296997234693L136.6146175632477,157.10206793551333L137.07599756177265,157.63539862213656L137.35282556088765,157.4938917866908L138.10256805849076,156.29322772836312L139.00225905561447,155.82475434131922L139.0599315554301,156.06381513150407L139.09453505531948,157.7072240613401L139.25601805480323,157.81925030606797L139.39443205436072,157.53087652777322L139.65972555351257,157.31486419942232L139.72893255329134,157.70025592171586L139.9019500527382,156.78314154502004L140.08650205214818,157.92926651051968L140.36333005126315,157.75358899037818L140.5594165506363,157.67425940081012L141.25148654842377,157.5137241840828L141.37836604801814,157.5930537736509L141.60905604728063,157.29235174832866L141.68979754702252,157.55419299497734L141.74747004683812,156.58481757109985L142.99319604285557,157.7377766735386L143.02779954274496,157.63700665435752L143.27002404197057,157.6051140153082L143.3276965417862,157.85824508742664L143.82368004020054,156.9568090248853L143.95055953979494,157.5517809466459L144.06590453942616,157.01684222780167L144.11204253927866,156.89999188641085L144.44654303820928,157.44993890598417L144.5503535378774,157.86440921094035L144.81564703702927,157.88504562444288L144.82718153699238,157.8070560617256L144.96559553654987,157.7790495005436L145.32316503540673,157.8398867195705L145.42697553507486,157.94668685958024L145.62306203444797,157.75841308704113L145.68073453426362,156.28143549207599L145.78454503393172,157.58930169846863L145.87682103363673,157.081699527381L145.96909703334174,156.65985907474533L146.16518353271485,157.01845026002266L146.5112185316086,157.63915069731885L146.6265635312398,157.7042760022683L147.05334002987541,157.75734106556047L147.15715052954354,157.82300238125026L147.1686850295067,157.86186315992381L147.42244402869542,157.92484442191198L147.5031855284373,157.7514449474169L147.8261515274048,157.92926651051968L147.94149652703604,157.87834549018882L147.99916902685166,156.98092950819992L148.12604852644603,157.830774536985L148.22985902611416,157.79191375831144L148.39134202559788,157.754929017229L148.82965302419663,157.66889929340687L148.864256524086,157.822600373195L149.25642952283224,157.71740826540625L149.30256752268474,157.87017132639883L149.5678610218366,157.43332257303408L149.63706802161536,157.91385620173534L149.6601370215416,157.8756654364872L150.12151702006656,157.53596862980632L150.19072401984533,157.0859876133036L150.21379301977157,157.7278604748426L150.34067251936597,157.3840095849242L150.39834501918156,157.92270037895068L150.5598280186653,157.4075940574985L150.66363851833344,157.95352099651936L150.84819051774343,157.36042511234993L151.13655301682155,157.88946771305055L151.3557085161209,157.2414307279978L151.45951901578903,157.3368406397756L151.66714001512528,157.7948618173832L151.97857151412964,157.5281964740716L152.2438650132815,157.6479948745342L152.26693401320776,157.91385620173534L152.27846851317088,157.88598364323843L152.95900401099524,157.77476141462103L152.9936075108846,157.85154495317258L153.09741801055273,157.75600103870966L153.53572900915148,157.99057273894434L154.1239885072708,157.92203036552527L154.70071350542702,157.92779248098375L154.79298950513206,157.92417440848658L155.2082315038045,157.8875916754594L155.40431800317762,158.00089094569557L155.63500800244012,157.86306918408954L155.95797400140762,157.865481232421L155.992577501297,157.8597191169625L156.07331900103887,157.86869729686296L156.09638800096513,157.22106231986547L156.29247450033824,157.91975231987888L156.38475050004322,157.69275177135134L156.48856099971135,157.73884869501924L156.66157849915822,157.6337905899156L156.84613049856821,157.7007919324562L157.29597599713006,157.97147735632026L157.43438999668757,158.02970152298803L157.57280399624506,157.72303637817967L157.69968349583942,157.92015432793414L157.8611664953232,157.78440960794686L157.88423549524944,157.7849456186872L158.2994774939219,157.90286798155867L158.7147194925944,157.9210923467297L159.02615099159874,157.86708926464198L159.1991684910456,157.88732367008924L159.54520348993938,157.96712226905512L159.82203148905438,157.84819488604555L160.02965248839058,157.96189616433693L160.4102909871737,157.82809448328337L160.7217224861781,157.91385620173534L160.8716709856987,157.6729193739593L160.89473998562494,157.8412267464213L160.90627448558809,157.94313578842556L161.13696448485055,157.14280475177802L161.19463698466618,157.93449261523782L161.35611998414996,157.9481608891161L161.47146498378117,157.94688786360783L161.5291374835968,157.95807708781214L161.6098789833387,157.95258297772378L161.82903448263804,157.9828005832096L161.96744848219552,157.9224323735805L162.3711559809049,157.9296685185749L163.0862949786186,157.65737506248988L163.25931247806548,157.91023812923814L163.38619197765985,157.88437561101748L163.43232997751235,157.87794348213356L163.61688197692237,157.90420800840948L163.99752047570547,157.87579943917225L164.1013309753736,157.9523819736962L164.60884897375107,157.92846249440916L164.83953897301356,157.93884770250295L164.87414247290295,157.91385620173534L165.0586944723129,157.9205563359894L165.24324647172293,157.90662005674093L166.06219596910478,157.88879769962514L166.16600646877288,157.94340379379574L166.52357596762974,157.74769287223464L166.74273146692914,157.98534663422615L166.7773349668185,157.41938629378566L167.03109396600723,157.94192976425984L167.7808364636103,157.96638525428716L167.87311246331535,157.90648605405588L168.11533696254094,157.84497882160358L168.3690959617297,157.68792767468838L168.70359646066032,157.57831347829196L169.23418345896403,157.94869689985646L169.55714945793153,157.98494462617091L170.2376849557559,157.96236517373472L170.42223695516586,157.9369046635693L170.77980645402272,157.85851309279678L171.11430695295334,157.88075753852027L171.40266945203146,158.00792608666234L171.46034195184708,157.89107574527154L171.6102904513677,157.96357119790045L171.76023895088832,157.9756984409003L171.82944595066706,157.97000332678434L172.3138949491183,158.02179536456825L172.32542944908144,157.94340379379574L172.5561194483439,157.96866329993352L173.22512044620515,157.98474362214327L173.42120694557826,157.49013971150853L173.73263844458265,158.00802658867613L173.74417294454574,157.9822645724693L173.83644894425072,157.72946850706356L173.97486294380823,158.01817729207104L174.11327694336572,157.96551423683414L174.28629444281262,158.00370500208228L174.33243244266512,157.9702713321545L174.52851894203823,157.97214736974567L174.73613994137446,157.95512902874034L174.9437609407107,157.99378880338625L175.1167784401576,157.9318125615362L175.2321234397888,157.9618291629944L175.2667269396782,157.90863009701715L175.40514093923568,157.86239917066413L175.41667543919883,157.7707413340686L175.46281343905133,157.99800988796633L175.7857794380188,157.9956648409774L176.08567643706004,157.97811048923177L176.46631493584314,157.89683786073002L176.63933243529002,158.00769158196343L177.0545744339625,157.95606704753592L177.6659029320081,157.92457641654184L177.7120409318606,157.9289985051495L177.9427309311231,157.97938351474002L178.5079214293162,157.71231616337317L178.8424219282468,157.8447108162334L179.32687092669804,157.99439181546913L179.91513042481742,157.96524623146396L180.0881479242643,157.9979428866238L180.18042392396927,158.01288418601033L180.24963092374801,157.95151095624314L180.82635592190422,157.89040573184613L180.8609594217936,157.9918457644526L180.895562921683,158.03151055923664L181.04551142120363,157.9621641697071L181.35694292020796,157.94655285689512L181.6453054192861,158.02759098069802L181.72604691902797,157.95660305827622L181.97980591821673,157.75466101185884L182.2220304174423,157.9803215335356L182.37197891696295,157.9767034610384L182.7756864156723,158.00618405175626L183.04097991482416,158.03047203842723L183.07558341471355,157.86226516797907L183.22553191423415,157.9799865268229L183.27166991408666,158.01208016989986L183.83686041227978,157.9708743442374L183.84839491224287,157.9253804326523L184.06755041154227,158.03218057266204L184.10215391143163,158.0109076464054L184.20596441109976,157.94869689985646L184.21749891106288,158.01432471487496L184.28670591084162,157.95466001934255L184.5173959101041,158.0306395417836L184.54046491003038,157.9839396060328L185.48629390700657,157.9777084811765L185.5555009067853,157.9482948918012L186.42058840401967,157.98025453219307L186.74355440298714,157.85516302566975L187.11265840180715,158.0032359926845L187.1818654015859,157.9326165776467L187.44715890073775,158.01402320883355L187.87393539937335,155.95125287603585L187.8854698993365,158.03452561965096L187.95467689911524,157.98233157381182L188.05848739878337,157.92189636284022L188.25457389815648,157.96504522743635L188.392987897714,157.98400660737533L188.46219489749274,157.98548063691123L188.69288489675523,157.96363819924298L188.73902289660774,157.99573184231994L189.0158508957227,157.92806048635393L189.14273039531707,157.96879730261864L189.7194553934733,158.0057150423585L189.9962833925883,157.98668666107696L190.26157689174016,157.99800988796633L190.67681889041265,158.03837819684705L190.95364688952765,157.99177876311003L190.97671588945389,157.98896470672335L190.988250389417,157.8636051948299L191.6803203872045,158.01633475515118L191.85333788665136,158.02139335651302L191.9225448864301,158.02028783436108L192.26857988532382,158.01918231220915L192.37239038499195,157.9744924167346L192.41852838484448,158.00410701013752L192.48773538462322,158.0124821779551L192.67228738403318,157.933152588387L193.16827088244756,157.97790948520415L193.30668488200504,157.98139355501624L193.5489093812307,158.01007012962364L193.5604438811938,158.0294335176179L193.60658188104628,157.95767507975688L193.6527198808988,157.9231023870059L193.6988578807513,157.95680406230386L193.89494438012443,157.8788815009291L193.96415137990314,157.98541363556868L194.01028937975565,158.00983562492476L194.32172087876003,158.00779208397725L194.63315237776436,158.01626775380865L194.85230787706377,157.97167836034785L195.22141187588375,158.00678706383914L195.23294637584686,157.93650265551403L195.24448087580998,157.94956791730945L195.52130887492498,158.00249897791653L196.27105137252806,157.9283284917241L196.40946537208558,158.03439161696588L197.13613886976242,157.89938391174655L197.62058786821368,158.01305168936668L197.66672586806615,158.01690426656276L198.17424386644365,157.88785968082956L198.393399365743,157.95264997906634L198.82017586437863,158.00129295375083L199.16621086327234,158.01060614036396L199.24695236301423,158.00856259941648L199.36229736264545,158.01194616721477L199.5699183619817,157.99177876311003L199.8352118611336,157.9702713321545L200.0312983605067,158.03017053238582L200.10050536028544,157.99244877653544L200.18124686002733,157.99017073088908L200.72336835829415,158.01831129475613L200.7810408581098,157.49657184039242L200.9655928575198,158.02725597398532L201.03479985729854,158.00350399805464L201.15014485692976,157.90956811581273L201.357765856266,157.9877586825576L201.55385235563912,157.97884750399973L201.5769213555654,158.04573159419087L201.9460253543854,158.00946711754077L202.17671535364786,157.9374406743096L202.30359485324223,157.9846096194582L202.8457163515091,157.57616943533068L202.98413035106657,158.03398960891062L203.11100985066096,158.00156095912098L203.84921784830092,157.91734027154743L204.2067873471578,158.03465962233602L204.63356384579342,157.9943248141266L204.9103918449084,158.01774178334452L205.01420234457652,158.01556423971195L205.08340934435526,158.00511203027563L205.25642684380213,158.02085734577267L205.45251334317524,157.918278290343L205.613996342659,157.95539703411052L205.64859984254835,158.0356311418029L205.86775534184775,157.83720666586888L206.0869108411471,158.02789248673943L207.39030933698018,158.02166136188316L207.4825853366852,157.9822645724693L207.55179233646393,158.00115895106572L207.82862033557893,157.97730647312127L207.84015483554202,158.0039060061099L208.27846583414077,157.9354306340334L208.58989733314513,158.01117565177557L208.72831133270265,158.00839509606013L208.97053583192823,158.00779208397725L209.6510713297526,157.99834489467904L209.8010198292732,158.01680376454897L209.91636482890448,157.88142755194568L209.96250282875698,157.98387260469028L210.25086532783507,158.01666976186388L210.5046243270238,158.0031019899994L211.33510832436878,157.9718793643755L211.58886732355754,157.96162815896676L211.63500532341,158.01955081959315L211.65807432333628,158.03516213240508L211.6696088232994,158.01995282764838L211.78495382293065,157.99177876311003L212.01564382219314,158.00923261284188L212.31554082123438,157.83372259605676L212.70771381998063,158.00658605981153L212.81152431964875,158.01844529744122L213.45745631758373,158.01114215110428L214.08031931559245,158.02859600083613L214.38021631463369,158.0333530961565L214.4378888144493,158.01790928670087L214.6685788137118,158.0384116975183L215.25683831183113,158.04035473645197L215.30297631168366,158.02993602768694L215.67208031050365,158.0209243471152L216.23727080869674,158.01737327596058L216.46796080795923,157.94588284346972L216.83706480677924,157.98447561677312L216.9524098064105,158.00102494838066L216.96394430637358,158.00095794703813L217.25230680545172,158.00517903161816L217.30997930526735,157.8877256781445L217.35611730511982,158.01268318198274L217.51760030460358,158.01603324910977L218.0020493030548,157.78950170997996L218.29041180213292,157.958680099895L219.15549929936725,158.03067304245488L219.92831079689662,158.004911026248L220.28588029575346,158.00350399805464L220.67805329449973,157.97744047580636L220.68958779446282,157.99057273894434L220.94334679365159,158.02109185047155L221.3816577922503,157.9428677830554L221.43933029206596,158.02926601426154L221.49700279188156,158.03713867201006L221.61234779151283,158.00035493495525L221.92377929051716,157.92069033867446L221.9353137904803,157.99110874968463L222.01605529022217,157.86507922436576L222.1775382897059,158.03482712569237L222.3044177893003,158.00477702356292L222.51203878863652,158.03576514448795L222.53510778856278,158.03864620221722L222.80040128771464,157.98306858857975L222.81193578767775,158.02950051896042L222.82347028764087,157.9976078799111L222.85807378753026,157.94213076828746L223.0772292868296,157.9939898074139L223.48093678553897,158.01687076589153L223.6770232849121,158.01556423971195L223.82697178443274,157.9253804326523L223.83850628439586,157.9962678530603L223.9538512840271,158.01549723836942L224.08073078362145,158.01392270681973L224.19607578325272,157.97958451876767L224.2883517829577,158.03931621564263L224.40369678258898,158.02075684375885L224.96888728078207,157.96986932409928L225.06116328048705,157.99673686245805L225.10730128033956,157.96839529456338L225.43026727930706,158.0063850557839L225.59175027879078,158.02822749345214L225.66095727856955,158.02762448136926L225.82244027805328,157.99807688930886L225.84550927797952,157.99372180204372L225.9262507777214,158.04025423443818L225.97238877757388,157.9445428166189L226.00699227746327,158.037875686778L226.0185267774264,158.0373061753664L226.06466477727892,157.96605024757446L226.353027276357,157.9593501133204L226.4683722759883,157.94092474412173L226.51451027584076,157.91586624201156L226.69906227525075,158.02236487597983L226.8605452747345,157.99305178861832L227.27578727340696,157.91573223932645L227.2873217733701,158.03794268812052L227.368063273112,157.98501162751344L227.49494277270637,157.9910417483421L227.84097777160008,157.97315238988378L228.06013327089946,158.0255474397505L228.07166777086258,158.0256814424356L228.1293402706782,158.01378870413464L228.44077176968256,157.97790948520415L228.6483927690188,157.99874690273427L228.8790827682813,157.98749067718745L230.15941226418815,158.024240913571L230.26322276385628,158.03656916059845L230.44777476326624,158.0274904786842L230.48237826315562,158.04762438211765L230.58618876282375,158.0043750155077L230.90915476179123,157.70668805059975L231.30132776053745,158.03151055923664L231.3128622605006,157.98635165436426L231.41667276016872,157.9261844487628L231.45127626005808,158.02725597398532L231.90112175861995,157.98400660737533L232.07413925806682,158.03620065321448L232.18948425769807,158.03281708541616L232.3625017571449,158.00692106652423L232.38557075707118,157.86775927806738L232.4778467567762,158.0215943605406L232.66239875618615,158.02239837665113L232.89308875544864,157.99559783963488L233.16991675456364,158.03395610823938L233.4236757537524,158.03295108810127L233.74664175271988,157.98380560334772L233.8850557522774,158.0105726396927L234.3695047507286,158.01187916587222L234.40410825061798,157.99975192287238L234.8770227491061,157.97643545566825L234.9692987488111,157.98434161408804L235.90359324582417,158.01288418601033L235.91512774578732,158.0095341188833L236.91862924257913,158.04400630962047L237.01090524228414,157.9758324435854L237.5184232406616,157.98273358186705L237.52995774062475,158.0310750505101L238.11821723874408,158.02300138873397L238.2220277384122,157.92873049977933L238.8102872365316,158.00430801416516L238.9256322361628,158.01512873098545L239.0063737359047,158.01633475515118L239.06404623572033,158.0143917162175L239.34087423483533,157.8498029182665L239.76765073347093,157.98340359529246L239.96373723284404,157.9874236758449L240.44818623129527,157.93328659107212L241.00184222952527,157.72973651243373L241.0249112294515,157.92149435478495L241.46322222805023,157.95378900188953L241.75158472712835,157.95680406230386L241.97074022642772,157.96196316567946L242.02841272624335,157.97978552279528L242.08608522605897,158.02427441424223L242.2937062253952,158.02631795518974L242.35137872521082,157.971075348265L242.40905122502645,158.04001972973927L242.54746522458393,158.02209687060966L242.78968972380957,158.04065624249344L243.33181122207642,157.97589944492793L243.574035721302,157.98869670135318L244.00081221993764,158.00869660210154L244.18536421934763,157.9582110904972L244.57753721809385,158.02055583973126L244.70441671768822,158.0167367632064L244.85436521720885,157.94380580185097L245.28114171584446,158.032549080046L245.36188321558635,157.98005352816543L245.40802121543882,157.90367199766914L245.69638371451697,158.01884730549645L245.9962807135582,157.9918457644526L246.4576607120832,158.0207233430876L246.9305752105713,157.94293478439795L246.96517871046063,158.0089646074717L247.0228512102763,157.9717453616904L247.5995762084325,158.01693776723405L247.83026620769502,157.99787588528125L248.00328370714186,157.99720587185584L248.03788720703125,158.01623425313736L248.0609562069575,158.00196296717624L248.29164620622,158.00477702356292L248.36085320599875,158.03023753372835L248.6261467051506,158.03070654312614L248.91450920422872,158.03345359817033L248.93757820415496,158.0076580812922L249.0875267036756,157.98682066376205L249.32975120290118,158.03476012434984L249.54890670220058,158.03687066663989L249.61811370197933,158.01238167594127L249.77959670146308,157.96625125160207L249.90647620105744,158.00350399805464L250.01028670072554,157.9126501775696L250.05642470057808,158.00417401148005L250.54087369902928,158.01821079274234L250.62161519877117,158.00055593898287L250.66775319862364,158.04857915124884L250.7254256984393,158.02383890551573L250.73696019840241,157.92779248098375L251.19834019692738,158.03727267469512L251.41749569622675,157.9789815066848L251.7289271952311,157.96772528113797L251.994220694383,157.9917117617675L252.32872119331358,157.98916571075097L252.8016356918017,158.0336881028692L252.91698069143297,158.05147695931373L253.05539469099043,157.92015432793414L253.2514811903636,157.99874690273427L253.43603318977355,157.97335339391137L253.52830918947856,158.03241507736092L253.63211968914666,157.7208923352184L253.71286118888855,158.0031019899994L253.75899918874103,157.92229837089545" fill="none"></path></g></g></g></g></g></g><g transform="translate(53, 175)" clip-path="url(#clip_1)"><clipPath id="clip_1"><rect width="276" height="24"></rect></clipPath><g><g><line x1="0" y1="0" x2="0" y2="5" style="visibility: inherit;" fill="rgb(0, 0, 0)" stroke="rgb(204, 204, 204)" stroke-width="1px"></line><line x1="23.068999926249184" y1="0" x2="23.068999926249184" y2="5" style="visibility: inherit;" fill="rgb(0, 0, 0)" stroke="rgb(204, 204, 204)" stroke-width="1px"></line><line x1="46.13799985249837" y1="0" x2="46.13799985249837" y2="5" style="visibility: inherit;" fill="rgb(0, 0, 0)" stroke="rgb(204, 204, 204)" stroke-width="1px"></line><line x1="69.20699977874756" y1="0" x2="69.20699977874756" y2="5" style="visibility: inherit;" fill="rgb(0, 0, 0)" stroke="rgb(204, 204, 204)" stroke-width="1px"></line><line x1="92.27599970499674" y1="0" x2="92.27599970499674" y2="5" style="visibility: inherit;" fill="rgb(0, 0, 0)" stroke="rgb(204, 204, 204)" stroke-width="1px"></line><line x1="115.34499963124594" y1="0" x2="115.34499963124594" y2="5" style="visibility: inherit;" fill="rgb(0, 0, 0)" stroke="rgb(204, 204, 204)" stroke-width="1px"></line><line x1="138.41399955749512" y1="0" x2="138.41399955749512" y2="5" style="visibility: inherit;" fill="rgb(0, 0, 0)" stroke="rgb(204, 204, 204)" stroke-width="1px"></line><line x1="161.48299948374432" y1="0" x2="161.48299948374432" y2="5" style="visibility: inherit;" fill="rgb(0, 0, 0)" stroke="rgb(204, 204, 204)" stroke-width="1px"></line><line x1="184.55199940999347" y1="0" x2="184.55199940999347" y2="5" style="visibility: inherit;" fill="rgb(0, 0, 0)" stroke="rgb(204, 204, 204)" stroke-width="1px"></line><line x1="207.62099933624268" y1="0" x2="207.62099933624268" y2="5" style="visibility: inherit;" fill="rgb(0, 0, 0)" stroke="rgb(204, 204, 204)" stroke-width="1px"></line><line x1="230.68999926249188" y1="0" x2="230.68999926249188" y2="5" style="visibility: inherit;" fill="rgb(0, 0, 0)" stroke="rgb(204, 204, 204)" stroke-width="1px"></line><line x1="253.75899918874103" y1="0" x2="253.75899918874103" y2="5" style="visibility: inherit;" fill="rgb(0, 0, 0)" stroke="rgb(204, 204, 204)" stroke-width="1px"></line><line x1="276.82799911499023" y1="0" x2="276.82799911499023" y2="5" style="visibility: inherit;" fill="rgb(0, 0, 0)" stroke="rgb(204, 204, 204)" stroke-width="1px"></line></g><g transform="translate(0, 8)"><text style="text-anchor: middle; visibility: hidden; font-family: Roboto, sans-serif; font-size: 12px; font-weight: 200;" x="0" y="0" dx="0em" dy="0.95em" fill="rgb(33, 33, 33)" stroke="none" stroke-width="1px">-2k</text><text style="text-anchor: middle; visibility: inherit; font-family: Roboto, sans-serif; font-size: 12px; font-weight: 200;" x="23.068999926249184" y="0" dx="0em" dy="0.95em" fill="rgb(33, 33, 33)" stroke="none" stroke-width="1px">0</text><text style="text-anchor: middle; visibility: hidden; font-family: Roboto, sans-serif; font-size: 12px; font-weight: 200;" x="46.13799985249837" y="0" dx="0em" dy="0.95em" fill="rgb(33, 33, 33)" stroke="none" stroke-width="1px">2k</text><text style="text-anchor: middle; visibility: inherit; font-family: Roboto, sans-serif; font-size: 12px; font-weight: 200;" x="69.20699977874756" y="0" dx="0em" dy="0.95em" fill="rgb(33, 33, 33)" stroke="none" stroke-width="1px">4k</text><text style="text-anchor: middle; visibility: hidden; font-family: Roboto, sans-serif; font-size: 12px; font-weight: 200;" x="92.27599970499674" y="0" dx="0em" dy="0.95em" fill="rgb(33, 33, 33)" stroke="none" stroke-width="1px">6k</text><text style="text-anchor: middle; visibility: inherit; font-family: Roboto, sans-serif; font-size: 12px; font-weight: 200;" x="115.34499963124594" y="0" dx="0em" dy="0.95em" fill="rgb(33, 33, 33)" stroke="none" stroke-width="1px">8k</text><text style="text-anchor: middle; visibility: hidden; font-family: Roboto, sans-serif; font-size: 12px; font-weight: 200;" x="138.41399955749512" y="0" dx="0em" dy="0.95em" fill="rgb(33, 33, 33)" stroke="none" stroke-width="1px">10k</text><text style="text-anchor: middle; visibility: inherit; font-family: Roboto, sans-serif; font-size: 12px; font-weight: 200;" x="161.48299948374432" y="0" dx="0em" dy="0.95em" fill="rgb(33, 33, 33)" stroke="none" stroke-width="1px">12k</text><text style="text-anchor: middle; visibility: hidden; font-family: Roboto, sans-serif; font-size: 12px; font-weight: 200;" x="184.55199940999347" y="0" dx="0em" dy="0.95em" fill="rgb(33, 33, 33)" stroke="none" stroke-width="1px">14k</text><text style="text-anchor: middle; visibility: inherit; font-family: Roboto, sans-serif; font-size: 12px; font-weight: 200;" x="207.62099933624268" y="0" dx="0em" dy="0.95em" fill="rgb(33, 33, 33)" stroke="none" stroke-width="1px">16k</text><text style="text-anchor: middle; visibility: hidden; font-family: Roboto, sans-serif; font-size: 12px; font-weight: 200;" x="230.68999926249188" y="0" dx="0em" dy="0.95em" fill="rgb(33, 33, 33)" stroke="none" stroke-width="1px">18k</text><text style="text-anchor: middle; visibility: inherit; font-family: Roboto, sans-serif; font-size: 12px; font-weight: 200;" x="253.75899918874103" y="0" dx="0em" dy="0.95em" fill="rgb(33, 33, 33)" stroke="none" stroke-width="1px">20k</text><text style="text-anchor: middle; visibility: hidden; font-family: Roboto, sans-serif; font-size: 12px; font-weight: 200;" x="276.82799911499023" y="0" dx="0em" dy="0.95em" fill="rgb(33, 33, 33)" stroke="none" stroke-width="1px">22k</text></g><line x1="0" y1="0" x2="276.82799911499023" y2="0" fill="rgb(0, 0, 0)" stroke="rgb(204, 204, 204)" stroke-width="1px"></line></g></g></g></g></svg>