<svg viewBox="0 0 330 200" xmlns="http://www.w3.org/2000/svg"><g><g><g><g><g><line x1="41.149001121520996" y1="176.89999961853027" x2="36.149001121520996" y2="176.89999961853027" style="visibility: inherit;" fill="rgb(0, 0, 0)" stroke="rgb(204, 204, 204)" stroke-width="1px"></line><line x1="41.149001121520996" y1="157.24444410536023" x2="36.149001121520996" y2="157.24444410536023" style="visibility: inherit;" fill="rgb(0, 0, 0)" stroke="rgb(204, 204, 204)" stroke-width="1px"></line><line x1="41.149001121520996" y1="137.58888859219022" x2="36.149001121520996" y2="137.58888859219022" style="visibility: inherit;" fill="rgb(0, 0, 0)" stroke="rgb(204, 204, 204)" stroke-width="1px"></line><line x1="41.149001121520996" y1="117.9333330790202" x2="36.149001121520996" y2="117.9333330790202" style="visibility: inherit;" fill="rgb(0, 0, 0)" stroke="rgb(204, 204, 204)" stroke-width="1px"></line><line x1="41.149001121520996" y1="98.27777756585016" x2="36.149001121520996" y2="98.27777756585016" style="visibility: inherit;" fill="rgb(0, 0, 0)" stroke="rgb(204, 204, 204)" stroke-width="1px"></line><line x1="41.149001121520996" y1="78.62222205268012" x2="36.149001121520996" y2="78.62222205268012" style="visibility: inherit;" fill="rgb(0, 0, 0)" stroke="rgb(204, 204, 204)" stroke-width="1px"></line><line x1="41.149001121520996" y1="58.9666665395101" x2="36.149001121520996" y2="58.9666665395101" style="visibility: inherit;" fill="rgb(0, 0, 0)" stroke="rgb(204, 204, 204)" stroke-width="1px"></line><line x1="41.149001121520996" y1="39.31111102634006" x2="36.149001121520996" y2="39.31111102634006" style="visibility: inherit;" fill="rgb(0, 0, 0)" stroke="rgb(204, 204, 204)" stroke-width="1px"></line><line x1="41.149001121520996" y1="19.65555551317004" x2="36.149001121520996" y2="19.65555551317004" style="visibility: inherit;" fill="rgb(0, 0, 0)" stroke="rgb(204, 204, 204)" stroke-width="1px"></line><line x1="41.149001121520996" y1="0" x2="36.149001121520996" y2="0" style="visibility: inherit;" fill="rgb(0, 0, 0)" stroke="rgb(204, 204, 204)" stroke-width="1px"></line></g><g transform="translate(31.149001121520996, 0)"><text style="text-anchor: end; visibility: hidden; font-family: Roboto, sans-serif; font-size: 12px; font-weight: 200;" x="0" y="176.89999961853027" dx="0em" dy="0.3em" fill="rgb(33, 33, 33)" stroke="none" stroke-width="1px">0.5</text><text style="text-anchor: end; visibility: inherit; font-family: Roboto, sans-serif; font-size: 12px; font-weight: 200;" x="0" y="157.24444410536023" dx="0em" dy="0.3em" fill="rgb(33, 33, 33)" stroke="none" stroke-width="1px">1</text><text style="text-anchor: end; visibility: hidden; font-family: Roboto, sans-serif; font-size: 12px; font-weight: 200;" x="0" y="137.58888859219022" dx="0em" dy="0.3em" fill="rgb(33, 33, 33)" stroke="none" stroke-width="1px">1.5</text><text style="text-anchor: end; visibility: inherit; font-family: Roboto, sans-serif; font-size: 12px; font-weight: 200;" x="0" y="117.9333330790202" dx="0em" dy="0.3em" fill="rgb(33, 33, 33)" stroke="none" stroke-width="1px">2</text><text style="text-anchor: end; visibility: hidden; font-family: Roboto, sans-serif; font-size: 12px; font-weight: 200;" x="0" y="98.27777756585016" dx="0em" dy="0.3em" fill="rgb(33, 33, 33)" stroke="none" stroke-width="1px">2.5</text><text style="text-anchor: end; visibility: inherit; font-family: Roboto, sans-serif; font-size: 12px; font-weight: 200;" x="0" y="78.62222205268012" dx="0em" dy="0.3em" fill="rgb(33, 33, 33)" stroke="none" stroke-width="1px">3</text><text style="text-anchor: end; visibility: hidden; font-family: Roboto, sans-serif; font-size: 12px; font-weight: 200;" x="0" y="58.9666665395101" dx="0em" dy="0.3em" fill="rgb(33, 33, 33)" stroke="none" stroke-width="1px">3.5</text><text style="text-anchor: end; visibility: inherit; font-family: Roboto, sans-serif; font-size: 12px; font-weight: 200;" x="0" y="39.31111102634006" dx="0em" dy="0.3em" fill="rgb(33, 33, 33)" stroke="none" stroke-width="1px">4</text><text style="text-anchor: end; visibility: hidden; font-family: Roboto, sans-serif; font-size: 12px; font-weight: 200;" x="0" y="19.65555551317004" dx="0em" dy="0.3em" fill="rgb(33, 33, 33)" stroke="none" stroke-width="1px">4.5</text><text style="text-anchor: end; visibility: hidden; font-family: Roboto, sans-serif; font-size: 12px; font-weight: 200;" x="0" y="0" dx="0em" dy="0.3em" fill="rgb(33, 33, 33)" stroke="none" stroke-width="1px">5</text></g><line x1="41.149001121520996" y1="0" x2="41.149001121520996" y2="176.89999961853027" fill="rgb(0, 0, 0)" stroke="rgb(204, 204, 204)" stroke-width="1px"></line></g></g><g transform="translate(41, 0)" clip-path="url(#clip_0)"><clipPath id="clip_0"><rect width="288" height="176"></rect></clipPath><g><g><g><line x1="0" y1="0" x2="0" y2="176.89999961853027" fill="rgb(0, 0, 0)" stroke="rgb(66, 66, 66)" stroke-width="1px" opacity="0.25"></line><line x1="24.07091657320658" y1="0" x2="24.07091657320658" y2="176.89999961853027" fill="rgb(0, 0, 0)" stroke="rgb(66, 66, 66)" stroke-width="1px" opacity="0.25"></line><line x1="48.14183314641316" y1="0" x2="48.14183314641316" y2="176.89999961853027" fill="rgb(0, 0, 0)" stroke="rgb(66, 66, 66)" stroke-width="1px" opacity="0.25"></line><line x1="72.21274971961975" y1="0" x2="72.21274971961975" y2="176.89999961853027" fill="rgb(0, 0, 0)" stroke="rgb(66, 66, 66)" stroke-width="1px" opacity="0.25"></line><line x1="96.28366629282633" y1="0" x2="96.28366629282633" y2="176.89999961853027" fill="rgb(0, 0, 0)" stroke="rgb(66, 66, 66)" stroke-width="1px" opacity="0.25"></line><line x1="120.35458286603293" y1="0" x2="120.35458286603293" y2="176.89999961853027" fill="rgb(0, 0, 0)" stroke="rgb(66, 66, 66)" stroke-width="1px" opacity="0.25"></line><line x1="144.4254994392395" y1="0" x2="144.4254994392395" y2="176.89999961853027" fill="rgb(0, 0, 0)" stroke="rgb(66, 66, 66)" stroke-width="1px" opacity="0.25"></line><line x1="168.4964160124461" y1="0" x2="168.4964160124461" y2="176.89999961853027" fill="rgb(0, 0, 0)" stroke="rgb(66, 66, 66)" stroke-width="1px" opacity="0.25"></line><line x1="192.56733258565265" y1="0" x2="192.56733258565265" y2="176.89999961853027" fill="rgb(0, 0, 0)" stroke="rgb(66, 66, 66)" stroke-width="1px" opacity="0.25"></line><line x1="216.63824915885925" y1="0" x2="216.63824915885925" y2="176.89999961853027" fill="rgb(0, 0, 0)" stroke="rgb(66, 66, 66)" stroke-width="1px" opacity="0.25"></line><line x1="240.70916573206586" y1="0" x2="240.70916573206586" y2="176.89999961853027" fill="rgb(0, 0, 0)" stroke="rgb(66, 66, 66)" stroke-width="1px" opacity="0.25"></line><line x1="264.7800823052724" y1="0" x2="264.7800823052724" y2="176.89999961853027" fill="rgb(0, 0, 0)" stroke="rgb(66, 66, 66)" stroke-width="1px" opacity="0.25"></line><line x1="288.850998878479" y1="0" x2="288.850998878479" y2="176.89999961853027" fill="rgb(0, 0, 0)" stroke="rgb(66, 66, 66)" stroke-width="1px" opacity="0.25"></line></g><g><line x1="0" y1="176.89999961853027" x2="288.850998878479" y2="176.89999961853027" fill="rgb(0, 0, 0)" stroke="rgb(66, 66, 66)" stroke-width="1px" opacity="0.25"></line><line x1="0" y1="157.24444410536023" x2="288.850998878479" y2="157.24444410536023" fill="rgb(0, 0, 0)" stroke="rgb(66, 66, 66)" stroke-width="1px" opacity="0.25"></line><line x1="0" y1="137.58888859219022" x2="288.850998878479" y2="137.58888859219022" fill="rgb(0, 0, 0)" stroke="rgb(66, 66, 66)" stroke-width="1px" opacity="0.25"></line><line x1="0" y1="117.9333330790202" x2="288.850998878479" y2="117.9333330790202" fill="rgb(0, 0, 0)" stroke="rgb(66, 66, 66)" stroke-width="1px" opacity="0.25"></line><line x1="0" y1="98.27777756585016" x2="288.850998878479" y2="98.27777756585016" fill="rgb(0, 0, 0)" stroke="rgb(66, 66, 66)" stroke-width="1px" opacity="0.25"></line><line x1="0" y1="78.62222205268012" x2="288.850998878479" y2="78.62222205268012" fill="rgb(0, 0, 0)" stroke="rgb(66, 66, 66)" stroke-width="1px" opacity="0.25"></line><line x1="0" y1="58.9666665395101" x2="288.850998878479" y2="58.9666665395101" fill="rgb(0, 0, 0)" stroke="rgb(66, 66, 66)" stroke-width="1px" opacity="0.25"></line><line x1="0" y1="39.31111102634006" x2="288.850998878479" y2="39.31111102634006" fill="rgb(0, 0, 0)" stroke="rgb(66, 66, 66)" stroke-width="1px" opacity="0.25"></line><line x1="0" y1="19.65555551317004" x2="288.850998878479" y2="19.65555551317004" fill="rgb(0, 0, 0)" stroke="rgb(66, 66, 66)" stroke-width="1px" opacity="0.25"></line><line x1="0" y1="0" x2="288.850998878479" y2="0" fill="rgb(0, 0, 0)" stroke="rgb(66, 66, 66)" stroke-width="1px" opacity="0.25"></line></g></g></g><g><g><line x1="0" y1="196.55555513170032" x2="288.850998878479" y2="196.55555513170032" fill="rgb(0, 0, 0)" stroke="rgb(153, 153, 153)" stroke-width="1.5px"></line></g></g><g><g><line x1="24.07091657320658" y1="0" x2="24.07091657320658" y2="176.89999961853027" fill="rgb(0, 0, 0)" stroke="rgb(153, 153, 153)" stroke-width="1.5px"></line></g></g><g><g><g><g><g><path style="fill: none;" stroke="rgb(255, 112, 67)" stroke-width="2px" d="M33.38636128703753,-3.0658901403851417L33.41043220361074,0.18003706190179108L33.6511413693428,0.20198716548885487L33.915921451648074,0.9634275750517961L34.68619078199069,3.717558865703971L34.80654536485672,4.597023894217297L35.33610552946727,6.098213159747529L35.36017644604047,9.28071789260136L35.38424736261368,13.98202582404761L35.528672862052915,13.126031619164655L35.57681469519933,11.81974660103939L35.91380752722422,16.549824387503445L36.058233026663466,11.823949261626002L36.27487127582232,14.094891680698098L36.70814777414004,15.225618991086238L36.73221869071325,18.537892618007003L37.333991605043416,21.764226212872067L37.35806252161662,23.468428164721782L37.55062985420227,20.261747769564074L37.791339019934334,23.64317393875528L37.95983543594678,21.45134580130733L38.24868643482526,22.88039672650657L38.29682826797168,24.717155977566556L38.80231751600901,19.514113851640253L38.87453026572863,26.600364861580612L39.115239431460694,29.6194143763173L39.83736692865689,31.26552819467375L39.981792428096135,36.68502398738837L40.02993426124255,39.16661694197267L40.67984900871913,39.43573819044407L41.11312550703685,40.366325724652214L41.40197650591533,44.56057811594446L41.907465753952664,40.205003168512036L41.931536670525865,47.48133943957701L42.292600419123964,45.69128370545371L42.485167751709625,51.05272315488365L42.79808966716131,46.37410349399266L43.06286974946658,53.1728286561817L43.64057174722353,51.50727657512806L43.809068163235985,46.858848976807344L44.04977732896805,48.889626391796355L44.33862832784653,50.824841598195995L44.386770160992945,44.09009749551869L44.57933749357859,44.59519808628384L44.98854307532311,51.19273895017291L45.08482674161593,50.26694669979632L45.25332315762838,52.12396764835025L45.518103239933644,55.39622440906377L45.6865996559461,57.57399125596375L45.92730882167816,50.46672636393712L46.047663404544195,51.01590308321746L46.26430165370306,56.83220513024334L46.456868986288704,55.210840112292054L46.96235823432605,55.50071419029687L47.419705649216965,54.76162224773829L47.44377656579018,58.98738124449767L47.46784748236338,62.1268154891784L47.5159893155098,62.779544472614745L47.949265813827516,66.40374935041609L48.14183314641316,64.59269570691542L48.21404589613278,61.500798564744215L48.45475506186486,59.8438174072423L48.647322394450505,62.8475319939149L48.671393311023714,66.99546486615856L48.69546422759692,69.70742503525824L49.15281164248784,70.15642549703321L49.20095347563426,61.169065658832835L49.249095308780674,62.02404282919191L49.7064427236716,63.094580365827895L49.77865547339122,62.248939905449575L49.82679730653762,62.45590502682494L49.85086822311084,62.090044851710594L50.04343555569648,57.305416807837155L50.0675064722697,63.984092000851085L50.1156483054161,66.13410265248399L50.30821563800176,66.82498890044144L50.621137553453444,59.64452714210211L50.93405946890513,66.74454613047709L51.246981384356815,68.04323766158822L51.75247063239416,69.80058159629344L51.99317979812622,75.28903486663586L52.59495271245639,66.86894213038556L52.71530729532242,67.31918836682549L52.73937821189562,66.33774005900666L53.0041582942009,60.09352003263695L53.26893837650617,61.610703554509506L53.89478220740954,66.36616770529399L54.13549137314161,70.23770450452267L54.183633206288015,69.4449379107656L54.424342372020085,70.79402107733968L54.52062603831291,65.59382446856914L54.68912245432536,73.15913542177935L55.14646986921629,78.73952418058784L55.38717903494835,74.99213068793617L55.67603003382683,77.64315731981704L56.20559019843737,72.8913055934385L56.92771769563357,72.2238519150987L57.45727786024411,76.95372083269248L57.962767108281454,72.03022308174015L58.66082368890444,77.6543156019067L58.78117827177047,83.5250650539361L58.97374560435613,80.58025031784875L59.88844043413798,80.19512279523819L60.05693685015043,82.45305216619708L60.41800059874853,89.17685722185601L60.89941893021266,82.95045800605604L60.97163167993228,83.8857821187112L61.477120927969615,80.11436261249288L61.74190101027489,86.26333646910017L62.175177508592604,74.34731461079721L63.21022692124048,81.194126975616L63.2342978378137,78.37358308891874L63.2583687543869,76.6967626196328L63.499077920118964,87.2428379936784L63.667574336131416,90.1212835320758L64.07677991787592,93.62753613366688L65.18404208024343,98.08667923006969L65.23218391338985,90.2635563221664L65.25625482996304,88.11681295319802L65.32846757968267,82.79121422988452L65.49696399569511,96.6297200273881L66.38758790890375,95.98741031717243L66.41165882547696,98.30637291796417L66.60422615806262,101.21276624258759L67.13378632267316,96.86264822353874L67.2782118221124,102.35611522965003L67.3022827386856,93.28100630865416L67.35042457183202,94.2660152864019L67.47077915469805,94.56543847288721L67.9762684027354,95.36181783036145L68.12069390217464,98.30132861960485L68.45768673419953,92.35658185931236L68.52989948391914,86.52716750010032L68.60211223363876,89.43227050515195L68.67432498335837,84.65618174511962L68.81875048279763,90.70552979230418L68.96317598223686,92.79031081090365L69.0594596485297,92.10567585228962L69.08353056510289,87.68853385263883L69.37238156398138,86.46169884848213L70.31114731033644,99.44936607607823L70.79256564180056,101.88893470624305L70.9369911412398,98.43575781429706L71.20177122354508,103.30253030389663L71.41840947270393,97.0271073333819L71.46655130585034,94.7309515669752L71.75540230472883,88.6774756973736L72.18867880304654,98.67558337335245L72.26089155276615,100.99631937562457L72.54974255164464,98.2520847231587L73.53665013114612,104.46491689718009L73.77735929687819,95.64504413934948L73.80143021345138,101.92166377092958L73.82550113002459,110.81656705059055L73.873642963171,106.69391302370347L74.06621029575666,108.5573434050222L74.37913221120834,99.27891561971998L74.42727404435475,99.45139752733478L75.0049760421117,103.40828850889035L75.39011070728303,110.17256172293247L75.46232345700264,103.64296078093392L75.51046529014906,96.29957423977768L75.55860712329546,89.45372330653771L75.75117445588111,99.31603532456901L75.77524537245432,100.16384519782275L76.37701828678449,97.14124333845565L76.73808203538259,94.52629604834824L76.93064936796823,88.9315918193853L76.95472028454145,93.50318382586437L77.29171311656634,101.95400605913707L77.58056411544482,102.8181517349671L77.94162786404291,107.37002295473842L78.06198244690894,102.99250241172854L78.18233702977498,104.72847608929199L78.23047886292139,110.55393386475126L78.5915426115195,108.28414676131716L78.83225177725156,97.74727256930765L78.9766772766908,101.67209396842024L79.3136701087157,109.47677269837105L79.65066294074059,108.77079776887123L79.91544302304585,114.74561559210572L79.93951393961906,115.91225152373732L79.98765577276546,113.53022542266856L80.25243585507074,118.26697456196335L80.34871952136358,108.80540689135361L80.37279043793679,105.08430443309916L80.61349960366886,86.44155149166171L80.73385418653488,91.58786203967102L80.8060669362545,94.05712340304068L80.8301378528277,104.62310631841603L80.92642151912054,103.61444672435626L81.31155618429183,118.057915689701L81.45598168373107,109.55348849658671L81.57633626659711,103.41250922560043L81.74483268260956,106.7093688762795L81.88925818204879,100.41770120673681L82.12996734778086,94.03516634617557L82.44288926323254,104.17252879205444L82.87616576155027,106.74975151412934L82.9724494278431,107.35361661642051L83.04466217756271,103.71365356497941L83.40572592616081,100.39024975526212L83.62236417531966,108.98713160363003L83.7427187581857,111.5464241331041L84.15192433993022,114.16006200265758L84.20006617307662,115.53257693238541L84.36856258908907,117.27555055905643L85.09069008628526,109.08703862595725L85.16290283600489,112.34974999772943L85.83688850005468,112.73588612526116L85.86095941662789,109.19610410209513L86.22202316522598,112.99727397182708L86.31830683151881,110.78169558923449L86.39051958123842,109.50684401922399L86.48680324753126,109.13818734882409L86.6793705801169,107.57689091213678L86.75158332983654,114.42909479737973L86.82379607955615,113.8426805765627L87.0163634121418,103.83040963380623L87.11264707843462,106.66195867357659L87.35335624416669,105.9634177894306L87.66627815961837,102.25456102387665L88.0514128247897,105.70031381293794L88.17176740765572,99.59131712279449L88.19583832422893,103.40310404945302L88.4846893231074,103.63476462947682L88.72539848883946,107.99450480044779L88.77354032198589,97.98524752712488L88.8216821551323,96.46238709267358L88.8698239882787,108.22028979610548L88.94203673799832,107.93631953009996L89.01424948771793,106.40619017765516L89.47159690260888,106.76085297414254L89.97708615064622,106.04098950427945L90.16965348323185,106.2942985903447L90.36222081581752,113.59739598538468L90.60292998154958,114.26633510193759L90.79549731413523,116.42693917205249L90.89178098042805,111.49099451560883L91.13249014616012,106.64683003564389L92.19161047538121,117.96019720919934L92.33603597482045,107.08188123754508L92.38417780796688,109.30769623501595L92.60081605712573,109.3001735752889L92.74524155656496,106.7410915882871L93.01002163887024,117.11492476650928L93.17851805488269,114.2404024172659L93.34701447089513,112.59513780922495L93.37108538746833,119.02838913378629L93.80436188578605,122.4364505014648L93.82843280235926,117.56777198324767L93.87657463550568,119.85803435028284L94.16542563438416,122.17816936517085L94.33392205039661,120.31326940035991L94.38206388354301,118.50634298971583L94.79126946528753,119.82394630698698L94.95976588129997,120.17893451695761L95.0560495475928,119.79373705184166L95.20047504703204,121.17057953732224L95.22454596360524,118.06362444613596L95.27268779675165,124.2923420498352L95.36897146304449,110.95464853591962L96.33180812597276,120.62664649468108L97.00579379002252,133.03726228178556L97.05393562316895,120.61129408260004L97.51128303805987,120.2953981554237L97.92048861980439,119.72349262237628L98.06491411924362,115.82476800121447L98.11305595239004,121.05728293753133L98.20933961868286,131.12035455732436L98.52226153413456,125.2161039134592L98.81111253301303,113.70836879428923L98.95553803245227,116.35458936600996L99.19624719818432,119.927222098778L99.4610272804896,116.23930769515998L100.03872927824656,124.9417866566758L100.1831547776858,118.09200488440439L100.35165119369825,122.68440388563629L100.37572211027145,119.89675229151983L100.44793485999108,123.36242034700032L100.47200577656427,131.74197017725518L100.49607669313748,131.49617715451546L101.04970777432123,128.25553665773603L101.07377869089444,134.50958485745136L101.24227510690689,135.930945751844L101.6755516052246,120.83026899266818L101.74776435494424,124.72817540582834L102.0125444372495,128.23681710208598L102.7346719344457,126.68855693050754L102.78281376759212,123.72665325775272L103.33644484877587,123.72131830125564L103.38458668192227,124.03258342164997L103.57715401450793,116.33702565026131L103.8419340968132,114.09463730527763L104.01043051282564,120.80658443160141L104.03450142939886,123.62480527822639L104.05857234597207,126.85093816469968L104.5399906774362,129.6002108140729L104.5881325105826,128.16842656759522L104.87698350946108,129.183346002511L104.90105442603429,123.9925051615901L105.16583450833956,134.39725345584665L105.21397634148599,131.9472818470335L105.43061459064484,130.02175043098646L105.74353650609652,124.98588698659042L106.730444085598,122.0059678205521L106.7785859187444,120.00231387456266L107.06743691762287,121.0536902107411L107.1637205839157,127.09699185798146L107.38035883307458,128.17407294269677L107.5007134159406,129.16960839697194L107.8377062479655,131.67595030547577L107.86177716453871,128.24844122171004L108.03027358055115,116.9342758962588L108.17469907999039,118.781522515021L108.24691182971002,112.13888859991646L108.31912457942963,124.71503925694206L108.63204649488131,129.7366331295008L108.87275566061338,122.20764225083397L109.01718116005262,121.59643547630536L109.11346482634544,122.64974251950149L109.13753574291866,131.82680675086394L109.20974849263827,133.233559112812L109.54674132466316,133.5022440490167L109.85966324011486,128.77643896225015L110.00408873955409,129.82048077704138L110.62993257045746,126.84594667229238L110.89471265276273,131.04714904809737L110.99099631905555,124.12914890919023L111.03913815220197,125.04159785192834L111.18356365164122,131.26700223340342L111.37613098422686,135.42681157958037L111.4724146505197,131.52519416627862L111.92976206541061,125.6511064231278L111.95383298198382,123.98537783328773L112.02604573170343,123.1454681143424L112.17047123114267,124.95519494983385L112.3148967305819,120.55717425143074L112.38710948030155,120.42329346761221L112.65188956260681,122.99122838882714L113.10923697749774,129.90097679064453L113.51844255924226,131.53745538087455L113.6628680586815,134.9931424767809L114.04800272385279,132.18415745345774L114.12021547357242,134.88962487251382L114.31278280615807,128.38198481264536L114.57756288846333,133.9642295051817L114.62570472160975,137.1735136921535L114.8182720541954,134.20663960429104L114.93862663706143,125.01738205326578L115.2274776359399,134.58377389787398L115.34783221880595,139.8784377850314L115.68482505083085,140.5206723885249L115.92553421656291,137.44253727375812L116.06995971600215,126.47661934237388L116.14217246572177,129.16777497766859L116.16624338229498,133.97754584964974L116.45509438117345,128.0869401063095L116.50323621431986,127.4548722710444L116.6717326303323,132.3548229783146L116.69580354690552,126.83986934186171L116.93651271263758,130.11492041375L117.03279637893041,116.1408539198947L118.21227129101753,124.09935340755594L118.35669679045677,131.97538571065328L118.4529804567496,137.72229259302205L119.00661153793334,138.86186269516784L119.03068245450656,141.73723998529047L119.46395895282429,143.77957174944086L119.48802986939748,134.39056293965263L119.51210078597069,131.36310233674527L119.9213063677152,129.99878533003707L119.99351911743481,127.48582721652573L120.3064410328865,133.49011798231203L120.37865378260612,135.9212050175522L120.95635578036308,138.1765346695684L121.53405777812004,127.9686871738867L121.67848327755928,130.84823616438499L121.82290877699852,143.36975556429803L121.96733427643777,137.19374967530675L122.18397252559662,134.3951341397662L122.30432710846264,142.30782552231304L122.35246894160906,140.49679032800682L122.61724902391434,130.19257864495566L122.85795818964641,127.22378414840423L122.8820291062196,130.74245332120597L123.07459643880526,130.70736749634472L123.45973110397657,125.19859023404628L124.15778768459957,137.4575510363009L124.78363151550293,130.50695463115844L124.85584426522256,125.50863770375815L125.4094753464063,127.16278599892668L125.98717734416326,136.5021378696767L126.20381559332212,142.51939862231112L126.34824109276136,137.56248099026132L126.66116300821304,132.4394037867049L126.82965942422548,135.1008071877178L126.85373034079869,137.72151604062506L127.02222675681114,140.5464971459737L127.14258133967716,134.69187019435947L127.5999287545681,141.38387118915648L128.05727616945904,142.76451473740818L128.17763075232506,137.37756923845882L128.37019808491073,141.8693910276577L128.3942690014839,133.96648185555742L128.6831200003624,129.05456175820893L129.1163964986801,126.0702796068352L130.1273749947548,132.17120471088597L131.35499173998832,134.4161974730378L131.37906265656153,127.41066174914339L131.5957009057204,130.48384879995652L131.76419732173284,127.83325025386797L132.43818298578262,135.14454599050984L132.72703398466112,131.39173523390144L132.7511049012343,133.10793007156448L132.84738856752713,133.0655230378078L132.94367223381997,131.85989371403323L133.16031048297882,140.13915403980818L133.23252323269844,140.79641030763761L133.56951606472333,134.48707274435804L133.762083397309,132.63841339204635L133.882437980175,138.28854426008843L133.93057981332143,140.42483731540986L134.4842108945052,137.6245523223088L134.65270731051763,145.16997975626097L134.8212037265301,136.3557759792887L135.03784197568893,129.71179537591325L135.13412564198177,136.0984392858988L135.2063383917014,142.99779719713428L135.278551141421,136.83836992981614L135.59147305687267,144.0093841290814L135.73589855631192,137.22521081897838L136.0006786386172,133.41761668342383L136.16917505462965,140.25905520804648L136.31360055406887,140.15472141891937L136.3858133037885,144.64586611717718L136.45802605350812,144.84983750774637L136.60245155294737,143.4117367096565L136.7709479689598,139.61679856649815L137.05979896783828,142.15942971860423L137.44493363300958,134.47998449037308L137.73378463188808,141.06716035026267L137.75785554846127,141.70894917682915L137.99856471419335,135.7152944422263L138.16706113020578,143.5372050280414L138.2152029633522,137.48484848996895L138.31148662964503,142.93540132068009L138.64847946166992,137.97110018028312L139.77981254061064,140.10621506200334L140.7185782869657,139.66574333177041L140.98335836927095,133.8272076133225L141.39256395101546,135.3387481723081L141.60920220017434,138.36160793472303L141.99433686534564,142.1460679590648L142.2591169476509,141.52851460978093L142.42761336366334,139.71521755815576L142.5720388631026,141.50758079571446L142.620180696249,138.48783140902717L142.86088986198106,139.4042338259818L142.9812444448471,137.01698894825967L143.22195361057916,140.83789035217646L143.58301735917726,150.00165781680784L143.6552301088969,152.34892904117817L143.89593927462894,152.59381221491412L144.8106341044108,153.9347835255435L145.05134327014287,154.40033677163663L145.82161260048548,140.4098961738379L146.3030309319496,135.13752883194545L146.32710184852283,139.53833014443936L146.49559826453526,140.00355133376186L146.85666201313336,142.94474375773356L146.928874762853,140.35291162426176L146.9529456794262,142.88194261830347L147.12144209543862,140.55234767321957L147.26586759487788,137.91727084731937L147.45843492746351,143.3481738265566L147.62693134347597,139.178807525326L148.13242059151332,122.20415943174909L148.5416261732578,132.89314104518462L148.71012258927027,135.79866598001178L148.8786190052827,138.6617621613666L148.97490267157556,143.00646897543612L149.02304450472198,148.1082073719201L149.04711542129516,150.29660324914886L149.48039191961288,147.25570249141796L149.8655265847842,138.5170768500018L150.2265903333823,142.51557560565072L150.56358316540718,142.77909467362252L150.80429233113924,137.84036605106922L150.90057599743207,135.3847734280376L150.9968596637249,139.23565724296523L151.0209305802981,138.6329748340752L151.28571066260338,144.13381117348973L151.3338524957498,137.79455505318293L151.52641982833543,137.8615586405831L151.64677441120148,137.66185480463537L151.91155449350677,139.18553398471147L152.29668915867805,142.82832345369718L153.30766765475275,140.92545803732423L153.78908598621686,149.26288956458552L154.05386606852213,150.5269359625553L154.53528439998627,144.49442575649232L154.55935531655948,148.96981975510127L154.6797098994255,137.37613604955982L154.7278517325719,137.3080079511384L155.13705731431645,144.5996346366577L155.7388302286466,141.28547226055176L156.1961776435375,144.5255097594586L156.34060314297676,140.8640579090469L156.8460923910141,143.49334908426397L157.49600713849068,151.44911196398112L157.5441489716371,144.79927764965876L157.78485813736916,144.60249498298018L157.80892905394236,148.6373273074758L157.92928363680838,139.9878205031723L158.24220555226006,145.18575479540692L158.36256013512613,150.55073603512048L158.84397846659027,150.76398676866592L159.44575138092043,151.61150521396894L159.56610596378644,151.9650776218169L159.71053146322566,146.49286776321816L159.97531154553093,150.9021293151945L159.99938246210414,150.83266066833198L160.28823346098264,157.3611164391097L160.64929720958074,157.14034395984277L160.93814820845924,154.68161116645376L161.10664462447164,148.87696666034662L161.41956653992335,147.9633244586563L161.44363745649653,148.9845903773404L161.46770837306977,139.21657972117262L161.5880629559358,140.00598891982082L162.14169403711955,142.51354175273903L162.28611953655877,144.05202439371448L162.35833228627843,138.88403919624147L162.7434669514497,143.69450719901695L163.0323179503282,149.23768908748218L163.128601616621,145.98416374242615L163.17674344976743,152.63306361626468L163.27302711606026,148.02549736335973L163.36931078235307,141.7568425780761L163.39338169892628,145.70584247660224L163.75444544752438,146.7212536864057L163.94701278011004,150.38233612280203L164.16365102926892,137.0334134474811L164.69321119387945,135.6630284355568L164.8135657767455,135.768329944577L164.8857785264651,141.72790757596218L165.03020402590434,146.27998365097898L165.22277135848998,142.4942681487467L165.3190550247828,145.906652294759L165.6560478568077,139.51961326387922L165.9448988556862,144.70550363612594L166.3541044374307,145.57279666693935L166.7633100191752,141.06969284809384L166.81145185232162,145.19484897468186L167.07623193462692,143.08707544928134L167.14844468434652,147.26065030546823L167.24472835063932,144.1476539823783L167.29287018378577,146.15173309600073L167.41322476665178,150.11122493078744L168.11128134727477,148.76968186354148L168.4482741792997,150.3995063841545L168.9056215941906,141.96741186578336L169.2666853427887,143.5789452574275L169.3148271759351,138.14959194330558L169.53146542509396,143.55948729426885L169.77217459082604,139.8182188280467L169.9888128399849,136.86783602199756L170.0610255897045,132.38611981603052L170.25359292229018,135.08962125961406L170.3980184217294,134.28776888392093L170.4220893383026,139.06152535692271L170.87943675319354,140.81895456320606L171.33678416808445,151.93611716035588L171.3608550846577,147.31679700956533L171.64970608353613,150.1206572793011L171.67377700010937,148.69388300730884L172.2033371647199,147.3493387800464L172.41997541387875,140.94325626143294L172.49218816359837,150.88191935956905L172.9254646619161,143.38242932701743L173.21431566079457,143.23703349552517L173.62352124253908,143.68665275274208L173.71980490883192,145.9921311406544L173.76794674197834,145.77036643261383L173.88830132484435,148.71058759655068L173.9845849911372,149.0873204803319L174.10493957400323,150.78926640994615L174.20122324029603,155.54308802257248L174.63449973861378,158.19353484664907L175.21220173637073,149.77106453563044L175.5251236518224,144.11444327832552L175.54919456839562,147.68395253068206L175.57326548496883,149.5316165381337L175.62140731811522,155.26908986819691L175.66954915126163,148.48310302240623L176.03061289985976,156.1907179919887L176.07875473300618,149.45752744622823L176.65645673076313,148.58728738765296L176.9693786462148,156.71558524533933L177.08973322908082,152.99850702251018L177.2100878119469,149.78503243319096L177.2823005616665,150.8061807665014L177.49893881082536,157.47647347928216L177.81186072627705,146.69637330739286L177.90814439256985,142.97764962750267L178.46177547375362,145.9213246525228L178.70248463948568,147.95340872579942L178.82283922235172,150.84780220882345L179.01540655493736,151.9213152328478L179.207973887523,154.53508750224347L179.28018663724265,155.98788167332046L179.44868305325508,153.47784048442003L179.93010138471922,155.9831854591527L180.1948814670245,151.31892804417885L180.2670942167441,149.65197166268706L180.74851254820825,153.67149847943446L180.91700896422068,149.4375877527589L180.96515079736707,143.92386467182538L181.01329263051352,142.55218411295317L181.25400179624555,140.2999671184668L181.47064004540442,145.80921638492669L181.49471096197763,154.64154129299203L181.51878187855084,154.61714672904785L181.56692371169729,157.79266879388777L181.8076328774293,151.14213490022715L182.52976037462554,146.32436534367423L182.65011495749155,152.29411947740877L182.91489503979682,153.76630485811353L183.1315332889557,149.01612921107056L183.37224245468775,150.6348314575224L183.42038428783417,158.96515925179096L183.61295162041984,157.7353376854889L184.28693728446962,154.7278603152448L184.38322095076242,151.61422320012065L184.98499386509258,155.23352676244747L185.05720661481223,150.89099699236831L185.58676677942276,158.74470840328505L185.7071213622888,155.27226907892668L185.85154686172802,149.45048294191733L186.23668152689936,155.5343959327989L186.52553252577783,155.89996017185695L186.64588710864385,151.58138951826317L187.05509269038834,158.03145475499352L187.10323452353478,152.99956910475882L187.19951818982761,146.42380669337044L187.2235891064008,149.0946438896593L187.36801460584005,154.12169247147796L187.44022735555967,150.97456612441982L187.6087237715721,152.731967578153L187.75314927101135,150.2652279702473L187.96978752017023,147.9797491113477L188.37899310191472,148.6989940011082L188.6197022676468,148.72591889604212L188.6919150173664,154.9909065221641L188.93262418309848,140.73202661878767L189.26961701512337,144.5287529069887L189.89546084602674,147.99228236699594L190.858297508955,151.416920764923L191.5082122564316,149.01543282397674L191.6526377558708,145.0471744100196L191.79706325531006,155.17075290740718L191.84520508845648,150.91751555409724L192.0137015044689,148.19158956433432L192.03777242104215,157.40539914754743L192.56733258565265,159.4390473351598L192.6395453353723,155.03549677146464L192.78397083481153,157.40209000778734L192.9765381673972,157.4893215465304L193.0246800005436,158.13706160510253L193.14503458340963,141.55470383561513L193.4579564988613,147.64773873446197L193.53016924858093,152.67233445787355L193.57831108172735,157.70615316686343L193.60238199830056,163.37419791980508L193.67459474802016,158.65472142740006L194.32450949549673,157.57210884497132L194.82999874353408,155.30549275570687L194.9022114932537,160.22431779686042L195.14292065898576,159.67194766797513L195.5761971573035,160.80671438278387L195.93726090590158,153.20570417670712L196.03354457219442,152.14240490315828L196.15389915506046,158.12431902185662L196.27425373792647,157.6844325184468L196.51496290365856,148.38268208323723L196.87602665225666,154.7993605933043L196.9963812351227,148.21494180835265L197.0685939848423,142.26679350867585L197.23709040085473,151.9752118834578L197.4296577334404,150.68811056974116L197.50187048316002,149.15756210750078L197.88700514833133,147.37762292459266L198.03143064777055,150.08889104189782L198.4887780626615,156.7525379725185L198.65727447867394,156.7341978192397L198.72948722839354,155.79200218739678L198.9220545609792,156.46001573146697L199.09055097699166,164.37378925172862L199.16276372671126,165.59766374000236L199.30718922615048,160.02329171669882L199.35533105929693,160.35199838642416L200.4625932216644,156.04232491669555L200.67923147082328,163.79461242972553L201.32914621829985,161.4472923256825L201.52171355088552,151.74071438162844L201.5698553840319,154.2254506959661L201.810564549764,146.43700837914466L201.93091913263,149.9576367512222L201.95499004920325,149.49538073694342L202.50862113038698,155.57030221708146L202.9178267121315,152.41540943704763L202.96596854527792,146.1758235403634L203.20667771100997,138.40999517115526L203.3511032104492,144.09884700765897L203.80845062534016,148.52681737861343L203.95287612477938,146.61179944692807L204.3620817065239,159.18613703004127L204.6268617888292,156.85842370696514L204.65093270540237,162.52551097566496L204.723145455122,157.61887977596763L204.86757095456124,149.58579892818028L205.13235103686648,152.06567271075994L205.32491836945215,150.74550623386747L205.61376936833062,152.21999157844002L206.14332953294118,160.962226238834L206.1914713660876,160.03926285932565L206.33589686552685,156.15730285569748L206.74510244727134,155.36866580758246L206.79324428041775,146.83042549402714L207.41908811132112,145.63091445715563L207.49130086104077,149.93570720028288L207.85236460963887,150.67737411667696L208.93555585543317,142.86641711743297L209.15219410459198,150.19394731974072L209.34476143717765,150.90327925455063L209.70582518577575,148.2714941853759L209.94653435150784,147.60178050953166L209.97060526808102,147.86571466559943L209.99467618465422,145.2423473786447L210.06688893437385,152.76397011090845L210.1150307675203,153.88802797930853L210.2835271835327,155.30047578401644L210.3075981001059,150.07042606767473L210.35573993325232,154.91854537700675L210.69273276527724,157.9227615228116L211.05379651387534,154.45230814535773L211.17415109674135,149.23842169489302L211.2945056796074,147.80334803019136L211.3185765961806,157.01574603987245L211.3426475127538,147.58689547634887L211.36671842932702,148.97956406590313L211.7518530944983,160.82882655927543L211.94442042708397,154.34016232694535L212.16105867624285,156.3762017508356L212.40176784197487,150.977211914401L212.81097342371942,152.99220603899713L213.05168258945147,153.74703369488284L213.38867542147636,158.88165111368636L214.2552284181118,161.16745367795662L214.5922212501367,160.8295713082583L214.73664674957593,157.80807398887188L215.38656149705253,153.4566829167603L215.43470333019891,148.38869389036424L215.48284516334533,147.25323209476687L216.0364762445291,146.43258220480212L216.0846180776755,149.95905995828323L216.83081649144492,155.4721101806558L216.97524199088414,153.7719665394782L217.07152565717695,160.50589143288587L217.19188024004302,162.99038150412147L217.31223482290903,161.67079538460158L217.4807312389215,164.01926584017835L217.6010858217875,158.30776802362757L217.74551132122676,162.5273890925987L217.98622048695884,157.239378205244L218.17878781954445,146.0399333370041L218.22692965269087,154.85936028174848L218.78056073387464,151.9302399126387L219.55083006421725,148.76695279009738L219.98410656253495,144.66165947301977L220.00817747910818,139.80662167830647L220.0563193122546,141.92097759849327L220.17667389512062,153.10842461174664L220.24888664484024,152.08421711616728L220.56180856029192,148.65587340084772L220.65809222658476,149.19290503159493L221.42836155692734,147.6285973722657L221.5246452232202,146.81285999862547L221.78942530552547,143.1457654342125L222.15048905412357,150.53218078385996L222.7041201353073,155.12952583611929L222.87261655131974,150.04739487643417L223.017042050759,148.21201240938782L223.25775121649107,145.94430416851895L223.52253129879634,145.87327513457396L223.95580779711406,147.198532738384L223.97987871368724,146.94315760255017L224.12430421312652,143.30726176575612L224.65386437773705,149.51619552176368L224.67793529431026,147.65377670416584L224.96678629318873,150.62387477545238L225.32785004178683,154.82544804443046L225.37599187493325,149.4692337857703L225.68891379038493,150.75265530293487L225.9777647892634,153.88502790011535L226.02590662240982,150.93921892488356L226.26661578814188,151.1240326281452L226.43511220415434,153.41899809555514L226.50732495387396,159.58279016068204L226.60360862016677,159.74251955303217L227.0609560350577,159.45059065214193L227.3979488670826,163.3984931985501L227.446090700229,157.27835972435548L228.26450186371804,156.84469556710016L228.28857278029125,155.29418135422947L228.4570691963037,158.955197771169L228.57742377916972,159.2234121549779L228.74592019518218,168.19113096131338L228.9144166111946,155.73522138324125L229.05884211063386,147.6068903459263L229.2754803597927,146.82319954891184L229.39583494265875,150.92970391255915L229.78096960783003,150.47919415299899L230.0938915232817,153.07792278272103L230.19017518957457,144.55211084900102L230.3346006890138,150.7996618078474L230.7197353541851,154.72724460851785L230.79194810390473,162.02473594900104L231.3455791850885,163.44877905881566L231.92328118284541,154.31062114159218L232.01956484913828,150.73602721925565L232.38062859773635,152.73985394270952L232.74169234633445,157.7586616567843L232.78983417948086,149.7149259809705L232.8379760126273,156.54957322221148L232.8620469292005,150.99308831643245L232.9101887623469,156.6417106626499L233.56010350982348,153.71139023499524L234.3785146733125,154.49603949852664L234.54701108932497,155.65046664875854L234.59515292247139,153.56307471016495L234.88400392134986,153.67197631572031L235.24506766994796,160.7252427637948L235.36542225281397,157.2843798918882L235.99126608371733,155.14032339124645L236.08754975001017,158.0089808311852L236.183833416303,156.96278368938104L236.2801170825958,165.05220949967722L236.30418799916905,167.06535289006507L236.61710991462073,166.005843909656L236.64118083119394,158.60616328236148L236.9300318300724,155.11941061207304L237.02631549636524,152.09982649372523L237.45959199468297,155.14842918538554L237.7484429935614,159.66313424484017L238.20579040845234,163.300599500597L238.398357741038,153.84066507781145L238.78349240620932,153.60474291542025L238.8075633227825,154.08957248677908L239.60190356969835,164.05774814248267L239.8185418188572,164.02360846763116L240.10739281773567,165.5006251003005L240.58881114919978,161.16882734647115L240.66102389891944,158.54710473602464L240.99801673094433,160.65453914888067L241.52757689555486,150.56828838850822L241.69607331156732,152.99572551911618L242.15342072645825,158.8341985912542L242.44227172533672,159.874279611886L242.53855539162953,150.55214206135992L242.97183188994725,152.42143836898288L243.1643992225329,155.44093975040252L243.4291793048382,150.8742724526821L243.95873946944874,157.11540573184755L244.27166138490043,151.26342627586797L244.41608688433965,150.3289110956388L244.51237055063248,158.25053873407532L244.5364414672057,160.87324371528564L245.04193071524304,164.22887123033405L246.0288382947445,154.97020534084587L246.0529092113177,158.12957059074245L246.0769801278909,161.18752960565982L246.34176021019618,164.03573461176296L246.41397295991578,161.5940350827358L246.58246937592824,160.22819890121127L247.1120295405388,167.29854202730644L247.4490223725637,154.43478210936607L247.83415703773497,157.61864725935993L248.09893712004026,150.3582532750566L248.48407178521154,158.0269483974436L248.652568201224,150.9260678195153L248.6766391177972,157.72286916082822L249.13398653268814,161.81978494007623L249.18212836583456,164.8793039504634L249.23027019898097,161.34221892391864L249.85611402988434,164.134006746272L249.95239769617714,155.7950513783249L250.0968231956164,158.192473480546L250.28939052820206,144.71170748151596L250.31346144477527,153.05214433104544L250.3856741944949,156.2543972520763L250.7226670265198,156.81177294019903L251.2281562745571,157.80596231513738L251.68550368944804,156.89537806330475L251.70957460602122,164.37515598407393L251.80585827231408,149.01710801492717L252.23913477063178,152.49222330804372L252.45577301979066,148.01657301224859L252.84090768496193,159.6190405547476L252.9853331844012,157.36383027370601L253.20197143356006,162.40766727013315L253.3945387661457,152.0003438221803L253.90002801418305,161.23673917586328L254.18887901306152,152.9073974900337L254.26109176278115,150.37129570130952L254.47773001194,145.7909007581247L254.64622642795246,148.89221301801663L254.76658101081847,154.35605900740387L255.07950292627018,158.79202771439813L255.9701268394788,156.61473004617017L256.13862325549127,155.40609536524286L256.3311905880769,159.64240073508793L256.7163252532482,159.12754952687303L256.7885380029678,153.7598885754939L256.95703441898024,150.63916535650182L257.22181450128556,143.75074978716012L257.390310917298,150.7788324371392L257.41438183387123,148.95667335281198L257.510665500164,159.87334340840815L257.6791619161765,152.75482247115946L257.94394199848176,149.07494215647736L258.13650933106743,156.6335780572573L258.2327929973602,158.74447644390898L258.30500574707986,159.23344294746607L258.32907666365304,154.6114343714304L258.5938567459583,154.3288846701994L258.6419985791047,156.5621037490375L258.73828224539756,151.7684317617588L259.4363388260206,153.41478186367553L259.86961532433827,152.84363788426913L259.8936862409115,152.9154708947386L259.9177571574847,155.26306581662917L260.06218265692394,150.72070059224785L260.83245198726655,155.93293353672072L261.26572848558425,156.8694178665056L261.43422490159674,154.19175284120823L261.7230759004752,154.81262949193504L261.91564323306085,154.35674651809302L261.9397141496341,156.62551839795617L262.27670698165895,153.23274999451334L262.3729906479518,156.14075988430545L262.75812531312306,153.92506255794953L262.9025508125623,162.27349192297768L263.11918906172116,162.17560217548447L263.5043237268925,163.4660283446955L263.5765364766121,166.34869148186107L263.60060739318527,156.0318535889494L263.84131655891736,156.12690385139484L263.91352930863695,157.0368764271346L264.08202572464944,155.87139662448956L264.2986639738083,151.31315838636942L264.7800823052724,157.4990052022281" fill="none"></path></g></g></g></g><g opacity="0.2"><g><g><g><path style="fill: none;" stroke="rgb(255, 112, 67)" stroke-width="2px" d="M32.61609195669492,-5.813498844749919L32.71237562298775,1.4759811793394144L33.12158120473226,-2.861386526083371L33.38636128703753,-3.5443792902490885L33.41043220361074,5.048927847253143L33.6511413693428,0.23491232079606625L33.915921451648074,2.105588187869416L34.68619078199069,7.848755798368874L34.80654536485672,5.916221436352426L35.33610552946727,8.349997057392702L35.36017644604047,14.05447499105503L35.38424736261368,21.03398772048402L35.528672862052915,11.842040311920245L35.57681469519933,9.860319073924783L35.91380752722422,23.644941067040126L36.058233026663466,4.735136572905393L36.27487127582232,17.501305309278706L36.70814777414004,16.92170995666027L36.73221869071325,23.506303058373707L37.333991605043416,26.603726605161174L37.35806252161662,26.024731092493713L37.55062985420227,15.4517271768305L37.791339019934334,28.715313192540233L37.95983543594678,18.16360359513621L38.24868643482526,25.023973114305083L38.29682826797168,27.472294854156242L38.80231751600901,11.709550662751209L38.87453026572863,37.229741376490786L39.115239431460694,34.14798864842225L39.83736692865689,33.73469892220842L39.981792428096135,44.814267676460275L40.02993426124255,42.88900637384924L40.67984900871913,39.83942006315112L41.11312550703685,41.762207025964415L41.40197650591533,50.8519567028828L41.907465753952664,33.6716407473634L41.931536670525865,58.3958438461745L42.292600419123964,43.00620010426872L42.485167751709625,59.094882329028536L42.79808966716131,39.35617400265619L43.06286974946658,63.37091639946528L43.64057174722353,49.00894845354762L43.809068163235985,39.88620757932625L44.04977732896805,51.93579251427985L44.33862832784653,53.7276644077954L44.386770160992945,33.987981341502746L44.57933749357859,45.35284897243159L44.98854307532311,61.08905024600648L45.08482674161593,48.87825832423147L45.25332315762838,54.90949907118112L45.518103239933644,60.304609550134046L45.6865996559461,60.84064152631376L45.92730882167816,39.80582902589717L46.047663404544195,51.83966816213797L46.26430165370306,65.55665820078218L46.456868986288704,52.778792585365096L46.96235823432605,55.93552530730409L47.419705649216965,53.652984333900456L47.44377656579018,65.32601973963676L47.46784748236338,66.83596685619946L47.5159893155098,63.75863794776927L47.949265813827516,71.84005666711812L48.14183314641316,61.876115241664394L48.21404589613278,56.86295285148743L48.45475506186486,57.358345670989365L48.647322394450505,67.35310387392383L48.671393311023714,73.21736417452405L48.69546422759692,73.77536528890778L49.15281164248784,70.82992618969567L49.20095347563426,47.68802590153226L49.249095308780674,63.30650858473058L49.7064427236716,64.70038667078188L49.77865547339122,60.98047921488211L49.82679730653762,62.76635270888801L49.85086822311084,61.541254589039056L50.04343555569648,50.12847474202701L50.0675064722697,74.00210479037196L50.1156483054161,69.3591186299333L50.30821563800176,67.86131827237762L50.621137553453444,48.873834504593106L50.93405946890513,77.39457461303957L51.246981384356815,69.9912749582549L51.75247063239416,72.43659749835126L51.99317979812622,83.5217147721495L52.59495271245639,54.23880302601012L52.71530729532242,67.99455772148536L52.73937821189562,64.86556759727844L53.0041582942009,50.72718999308239L53.26893837650617,63.88647883731836L53.89478220740954,73.49936393147073L54.13549137314161,76.04500970336571L54.183633206288015,68.25578802012993L54.424342372020085,72.81764582720078L54.52062603831291,57.793529555413336L54.68912245432536,84.50710185159471L55.14646986921629,87.11010731880054L55.38717903494835,69.37104044895872L55.67603003382683,81.61969726763832L56.20559019843737,65.7635280038707L56.92771769563357,71.22267139758898L57.45727786024411,84.04852420908315L57.962767108281454,64.64497645531162L58.66082368890444,86.09045438215657L58.78117827177047,92.3311892319802L58.97374560435613,76.16302821371775L59.88844043413798,79.61743151132234L60.05693685015043,85.83994622263546L60.41800059874853,99.26256480534437L60.89941893021266,73.61085918235605L60.97163167993228,85.28876828769393L61.477120927969615,74.45723335316546L61.74190101027489,95.48679725401115L62.175177508592604,56.4732818233428L63.21022692124048,91.46434552284416L63.2342978378137,74.14276725887288L63.2583687543869,74.18153191570389L63.499077920118964,103.06195105474683L63.667574336131416,94.43895183967186L64.07677991787592,98.88691503605352L65.18404208024343,104.77539387467388L65.23218391338985,78.52887196031145L65.25625482996304,84.89669789974545L65.32846757968267,74.80281614491429L65.49696399569511,117.38747872364345L66.38758790890375,95.02394575184897L66.41165882547696,101.78481681915179L66.60422615806262,105.57235622952268L67.13378632267316,90.33747119496547L67.2782118221124,110.596315738817L67.3022827386856,79.66834292716035L67.35042457183202,95.7435287530235L67.47077915469805,95.01457325261515L67.9762684027354,96.55638686657284L68.12069390217464,102.71059480346997L68.45768673419953,83.43946171887364L68.52989948391914,77.78304596128226L68.60211223363876,93.78992501272944L68.67432498335837,77.49204860507112L68.81875048279763,99.779551863081L68.96317598223686,95.91748233880287L69.0594596485297,91.07872341436854L69.08353056510289,81.06282085316263L69.37238156398138,84.62144634224711L70.31114731033644,118.93086691747237L70.79256564180056,105.54828765149028L70.9369911412398,93.25599247637808L71.20177122354508,110.60268903829598L71.41840947270393,87.61397287760985L71.46655130585034,91.28671791736514L71.75540230472883,79.5972618929712L72.18867880304654,113.67274488732073L72.26089155276615,104.47742337903281L72.54974255164464,94.13573274445986L73.53665013114612,113.7841651582122L73.77735929687819,82.41523500260357L73.80143021345138,111.33659321829975L73.82550113002459,124.15892197008199L73.873642963171,100.50993198337284L74.06621029575666,111.35248897700029L74.37913221120834,85.36127394176663L74.42727404435475,99.71012038875699L75.0049760421117,109.34362498122371L75.39011070728303,120.31897154399564L75.46232345700264,93.8485593679361L75.51046529014906,85.28449442804333L75.55860712329546,79.18494690667771L75.75117445588111,114.10950335161598L75.77524537245432,101.43556000770332L76.37701828678449,92.60734054940502L76.73808203538259,90.60387511318712L76.93064936796823,80.53953547594088L76.95472028454145,100.36057183558296L77.29171311656634,114.63023940904611L77.58056411544482,104.11437024871219L77.94162786404291,114.19782978439537L78.06198244690894,96.42622159721375L78.18233702977498,107.33243660563716L78.23047886292139,119.29212052794011L78.5915426115195,104.87946610616603L78.83225177725156,81.9419612812934L78.9766772766908,107.5593260670891L79.3136701087157,121.18379079329719L79.65066294074059,107.71183537462156L79.91544302304585,123.70784232695749L79.93951393961906,117.6622054211847L79.98765577276546,109.95718627106544L80.25243585507074,125.37209827090555L80.34871952136358,94.613055385439L80.37279043793679,99.50265074571752L80.61349960366886,58.477422079505544L80.73385418653488,99.30732786168502L80.8060669362545,97.76101544809515L80.8301378528277,120.47208069147908L80.92642151912054,102.10145733326661L81.31155618429183,139.72311913771813L81.45598168373107,96.79684770691529L81.57633626659711,94.20104031912098L81.74483268260956,111.6546583522981L81.88925818204879,90.9801997024228L82.12996734778086,84.46136405533375L82.44288926323254,119.3785724608727L82.87616576155027,110.6155855972417L82.9724494278431,108.2594142698573L83.04466217756271,98.25370898781773L83.40572592616081,95.40514404068625L83.62236417531966,121.88245437618187L83.7427187581857,115.38536292731521L84.15192433993022,118.08051880698784L84.20006617307662,117.59134932697714L84.36856258908907,119.89001099906292L85.09069008628526,96.80427072630846L85.16290283600489,117.2438170553877L85.83688850005468,113.31509031655878L85.86095941662789,103.88643106734605L86.22202316522598,118.699028776425L86.31830683151881,107.45832801534561L86.39051958123842,107.59456666420817L86.48680324753126,108.5852023432243L86.6793705801169,105.23494625710575L86.75158332983654,124.70740062524419L86.82379607955615,112.96305924533709L87.0163634121418,88.81200321967157L87.11264707843462,110.90928223323215L87.35335624416669,104.91560646321159L87.66627815961837,96.69127587554573L88.0514128247897,110.86894299652988L88.17176740765572,90.42782208757933L88.19583832422893,109.1207844394408L88.4846893231074,103.98225549951246L88.72539848883946,114.53411505690423L88.77354032198589,82.97136161714056L88.8216821551323,94.17809644099663L88.8698239882787,125.85714385125337L88.94203673799832,107.5103641310917L89.01424948771793,104.11099614898802L89.47159690260888,107.29284716887358L89.97708615064622,104.96119429948482L90.16965348323185,106.67426221944254L90.36222081581752,124.55204207794466L90.60292998154958,115.26974377676703L90.79549731413523,119.66784527722484L90.89178098042805,104.08707753094333L91.13249014616012,99.38058331569644L92.19161047538121,134.9302479695325L92.33603597482045,90.76440728006372L92.38417780796688,112.6464187312223L92.60081605712573,109.28888958569831L92.74524155656496,102.90246860778441L93.01002163887024,132.67567453384254L93.17851805488269,109.92861889340082L93.34701447089513,110.12724089716357L93.37108538746833,128.67826612062828L93.80436188578605,127.54854255298252L93.82843280235926,110.26475420592195L93.87657463550568,123.29342790083564L94.16542563438416,125.65837188750285L94.33392205039661,117.51591945314351L94.38206388354301,115.79595337374968L94.79126946528753,121.80035128289376L94.95976588129997,120.71141683191348L95.0560495475928,119.21594085416774L95.20047504703204,123.23584326554311L95.22454596360524,113.40319180935654L95.27268779675165,133.63541845538404L95.36897146304449,90.94810826504624L96.33180812597276,135.13464343282328L97.00579379002252,151.65318596244228L97.05393562316895,101.97234178382172L97.51128303805987,119.82155426465923L97.92048861980439,118.8656343228051L98.06491411924362,109.97668106947174L98.11305595239004,128.90605534200665L98.20933961868286,146.21496198701385L98.52226153413456,116.35972794766147L98.81111253301303,96.44676611553425L98.95553803245227,120.3239202235911L99.19624719818432,125.28617119793006L99.4610272804896,110.70743608973297L100.03872927824656,137.99550509894956L100.1831547776858,107.81733222599723L100.35165119369825,129.57300238748414L100.37572211027145,115.71527490034512L100.44793485999108,128.56092243022107L100.47200577656427,144.3112949226375L100.49607669313748,131.1274876204059L101.04970777432123,123.39457591256684L101.07377869089444,143.89065715702438L101.24227510690689,138.06298709343295L101.6755516052246,98.17925385390441L101.74776435494424,130.57503502556858L102.0125444372495,133.49977964647243L102.7346719344457,124.36616667313984L102.78281376759212,119.28379774862049L103.33644484877587,123.71331586651002L103.38458668192227,124.49948110224148L103.57715401450793,104.79368899317825L103.8419340968132,110.73105478780215L104.01043051282564,130.87450512108705L104.03450142939886,127.85213654816391L104.05857234597207,131.6901374944096L104.5399906774362,133.72411978813275L104.5881325105826,126.02075019787864L104.87698350946108,130.70572515488473L104.90105442603429,116.20624390020868L105.16583450833956,150.0043758972315L105.21397634148599,128.2723244338138L105.43061459064484,127.13345330691584L105.74353650609652,117.43209181999634L106.730444085598,117.53608907149464L106.7785859187444,116.9968329555785L107.06743691762287,122.63075471500878L107.1637205839157,136.16194432884205L107.38035883307458,129.78969456976967L107.5007134159406,130.6629115783847L107.8377062479655,135.43546316823145L107.86177716453871,123.10717759606149L108.03027358055115,99.96302790808193L108.17469907999039,121.55239244316425L108.24691182971002,102.17493772725965L108.31912457942963,143.5792652424805L108.63204649488131,137.26902393833896L108.87275566061338,110.91415593283375L109.01718116005262,120.6796253145124L109.11346482634544,124.22970308429569L109.13753574291866,145.59240309790766L109.20974849263827,135.34368765573404L109.54674132466316,133.90527145332373L109.85966324011486,121.68773133210036L110.00408873955409,131.38654349922825L110.62993257045746,122.38414551516891L110.89471265276273,137.34895261180483L110.99099631905555,113.75214870082954L111.03913815220197,126.41027126603552L111.18356365164122,140.605108805616L111.37613098422686,141.66652559884582L111.4724146505197,125.67276804632598L111.92976206541061,116.83997480840156L111.95383298198382,121.4867849485276L112.02604573170343,121.88560353592442L112.17047123114267,127.669785203071L112.3148967305819,113.96014320382608L112.38710948030155,120.2224722918844L112.65188956260681,126.84313077064951L113.10923697749774,140.2655993933707L113.51844255924226,133.99217326621954L113.6628680586815,140.17667312064037L114.04800272385279,127.97067991847305L114.12021547357242,138.9478260010979L114.31278280615807,118.62052472284267L114.57756288846333,142.33759654398617L114.62570472160975,141.98743997261124L114.8182720541954,129.75632847249733L114.93862663706143,111.23349572672788L115.2274776359399,148.93336166478628L115.34783221880595,147.82043361576748L115.68482505083085,141.48402429376517L115.92553421656291,132.82533460160792L116.06995971600215,110.02774244529752L116.14217246572177,133.20450843061067L116.16624338229498,141.19220215762147L116.45509438117345,119.2510314912991L116.50323621431986,126.50677051814677L116.6717326303323,139.70474903921988L116.69580354690552,118.56743888718239L116.93651271263758,135.02749702158246L117.03279637893041,95.17975417911174L118.21227129101753,136.0371026390478L118.35669679045677,143.7894341652993L118.4529804567496,146.3426529165752L119.00661153793334,140.57121784838657L119.03068245450656,146.0503059204744L119.46395895282429,146.84306939566645L119.48802986939748,120.30704972497026L119.51210078597069,126.82191143238418L119.9213063677152,127.9523098199748L119.99351911743481,123.71639004625871L120.3064410328865,142.49655413099148L120.37865378260612,139.56783557041248L120.95635578036308,141.5595291475927L121.53405777812004,112.65691593036416L121.67848327755928,135.1675596501324L121.82290877699852,162.15203466416764L121.96733427643777,127.92974084181981L122.18397252559662,130.19721083645547L122.30432710846264,154.17686259613322L122.35246894160906,137.78023753654756L122.61724902391434,114.73626112037891L122.85795818964641,122.7705924035771L122.8820291062196,136.02045708040856L123.07459643880526,130.65473875905283L123.45973110397657,116.93542434059862L124.15778768459957,155.84599223968286L124.78363151550293,120.08106002344476L124.85584426522256,118.01116231265769L125.4094753464063,129.64400844167943L125.98717734416326,150.51116567580175L126.20381559332212,151.54528975126271L126.34824109276136,130.1271045421866L126.66116300821304,124.7547879813703L126.82965942422548,139.09291228923718L126.85373034079869,141.6525793199859L127.02222675681114,144.7839688039967L127.14258133967716,125.90992976693815L127.5999287545681,151.421872681352L128.05727616945904,144.83548005978568L128.17763075232506,129.29715099003482L128.37019808491073,148.60712371145604L128.3942690014839,122.112118097407L128.6831200003624,121.68668161218619L129.1163964986801,121.59385637977459L130.1273749947548,141.32259236696214L131.35499173998832,137.78368661626558L131.37906265656153,116.90235816330176L131.5957009057204,135.09362937617618L131.76419732173284,123.8573524347351L132.43818298578262,146.11148959547265L132.72703398466112,125.76251909898889L132.7511049012343,135.68222232805905L132.84738856752713,133.00191248717277L132.94367223381997,130.05144972837135L133.16031048297882,152.55804452847062L133.23252323269844,141.78229470938174L133.56951606472333,125.0230663994387L133.762083397309,129.86542436357882L133.882437980175,146.76374056215153L133.93057981332143,143.62927689839205L134.4842108945052,133.42412483265718L134.65270731051763,156.48812090718923L134.8212037265301,123.13447031383032L135.03784197568893,119.7458244708501L135.13412564198177,145.67840515087704L135.2063383917014,153.34683406398756L135.278551141421,127.59922902883892L135.59147305687267,154.7659054279793L135.73589855631192,127.04895085382384L136.0006786386172,127.70622548009203L136.16917505462965,150.52121299498037L136.31360055406887,139.99822073522876L136.3858133037885,151.3825831645639L136.45802605350812,145.15579459360015L136.60245155294737,141.25458551252166L136.7709479689598,133.92439135176068L137.05979896783828,145.97337644676333L137.44493363300958,122.9608166480264L137.73378463188808,150.947924140097L137.75785554846127,142.67163241667893L137.99856471419335,126.72481234032199L138.16706113020578,155.2700709067641L138.2152029633522,128.40631368286023L138.31148662964503,151.1112305667468L138.64847946166992,130.52464846968763L139.77981254061064,143.30888738458373L140.7185782869657,139.00503573642104L140.98335836927095,125.06940403565062L141.39256395101546,137.60605901078654L141.60920220017434,142.8958975783454L141.99433686534564,147.8227579955775L142.2591169476509,140.60218458585507L142.42761336366334,136.99527198071803L142.5720388631026,144.1961256520525L142.620180696249,133.95820732899625L142.86088986198106,140.77883745141378L142.9812444448471,133.43612163167643L143.22195361057916,146.56924245805163L143.58301735917726,163.74730901375491L143.6552301088969,155.86983587773364L143.89593927462894,152.96113697551806L144.8106341044108,155.94624049148763L145.05134327014287,155.0986666407763L145.82161260048548,119.42423527713981L146.3030309319496,127.22897781910677L146.32710184852283,146.1395321131802L146.49559826453526,140.70138311774565L146.85666201313336,147.35653239369114L146.928874762853,136.46516342405408L146.9529456794262,146.67548910936603L147.12144209543862,137.0579552555937L147.26586759487788,133.96465560846912L147.45843492746351,151.49452829541244L147.62693134347597,132.92475807348012L148.13242059151332,96.74218729138374L148.5416261732578,148.92661346533794L148.71012258927027,140.15695338225245L148.8786190052827,142.95640643339883L148.97490267157556,149.52352919654044L149.02304450472198,155.76081496664605L149.04711542129516,153.579197064992L149.48039191961288,142.69435135482166L149.8655265847842,125.40913838787753L150.2265903333823,148.51332373912413L150.56358316540718,143.17437327558017L150.80429233113924,130.43227311723928L150.90057599743207,131.70138449349017L150.9968596637249,145.01198296535665L151.0209305802981,137.72895122074019L151.28571066260338,152.38506568261153L151.3338524957498,128.28567087272273L151.52641982833543,137.96206402168335L151.64677441120148,137.36229905071377L151.91155449350677,141.4710527548256L152.29668915867805,148.29250765717572L153.30766765475275,138.0711599127648L153.78908598621686,161.76903685547748L154.05386606852213,152.42300555951L154.53528439998627,135.44566044739784L154.55935531655948,155.68291075301465L154.6797098994255,119.98561049124771L154.7278517325719,137.2058158035062L155.13705731431645,155.53707466493668L155.7388302286466,136.3142286963929L156.1961776435375,149.38556600781885L156.34060314297676,135.37188013342933L156.8460923910141,147.43728584708958L157.49600713849068,163.3827562835569L157.5441489716371,134.8245261781752L157.78485813736916,144.30732098296235L157.80892905394236,154.6895757942192L157.92928363680838,127.013560296717L158.24220555226006,152.98265623375886L158.36256013512613,158.59820789469086L158.84397846659027,151.08386286898408L159.44575138092043,152.88278288192345L159.56610596378644,152.4954362335888L159.71053146322566,138.28455297532005L159.97531154553093,157.51602164315895L159.99938246210414,150.72845769803826L160.28823346098264,167.1538000952763L160.64929720958074,156.80918524094238L160.93814820845924,150.99351197637023L161.10664462447164,140.1699999011859L161.41956653992335,146.59286115612082L161.44363745649653,150.51648925536654L161.46770837306977,124.564563736921L161.5880629559358,141.1901027177931L162.14169403711955,146.27487100211633L162.28611953655877,146.35974835517766L162.35833228627843,131.132061400032L162.7434669514497,150.9102092031802L163.0323179503282,157.55246192017998L163.128601616621,141.1038757248421L163.17674344976743,162.60641342702243L163.27302711606026,141.11414798400236L163.36931078235307,132.35386040015067L163.39338169892628,151.62934232439147L163.75444544752438,148.2443705011109L163.94701278011004,155.87395977739652L164.16365102926892,117.0100294344997L164.69321119387945,133.60745091767038L164.8135657767455,135.9262822081073L164.8857785264651,150.66727402304L165.03020402590434,153.1080977635041L165.22277135848998,136.81569489539834L165.3190550247828,151.02522851377742L165.6560478568077,129.9390547175596L165.9448988556862,152.484339194496L166.3541044374307,146.87373621315945L166.7633100191752,134.31503711982563L166.81145185232162,151.3825831645639L167.07623193462692,139.92541516118055L167.14844468434652,153.52101258974855L167.24472835063932,139.47815949774343L167.29287018378577,149.15785176643436L167.41322476665178,156.05046268296752L168.11128134727477,146.75736726267255L168.4482741792997,152.84424316507406L168.9056215941906,129.3192700882266L169.2666853427887,145.9962453448938L169.3148271759351,130.00556197212265L169.53146542509396,151.67433032071372L169.77217459082604,134.2063161287135L169.9888128399849,132.4422618129239L170.0610255897045,125.6635455070799L170.25359292229018,139.14487342498938L170.3980184217294,133.08499032038122L170.4220893383026,146.2221600664254L170.87943675319354,143.45509837263106L171.33678416808445,168.61186105608067L171.3608550846577,140.3878167833795L171.64970608353613,154.32644768390472L171.67377700010937,146.55372159932045L172.2033371647199,145.33252243915274L172.41997541387875,131.3341324835128L172.49218816359837,165.78991400677316L172.9254646619161,132.13319427819L173.21431566079457,143.01893974828675L173.62352124253908,144.36108163856747L173.71980490883192,149.4503487225229L173.76794674197834,145.43771937055297L173.88830132484435,153.12091934245595L173.9845849911372,149.6524198060037L174.10493957400323,153.34218530436758L174.20122324029603,162.67382044151196L174.63449973861378,162.16920508276397L175.21220173637073,137.13735906910247L175.5251236518224,135.62951139236813L175.54919456839562,153.03821640921686L175.57326548496883,152.30311254931115L175.62140731811522,163.87529986329173L175.66954915126163,138.30412275372024L176.03061289985976,167.75214044636232L176.07875473300618,139.35774162758753L176.65645673076313,147.28192729979006L176.9693786462148,168.90803203186886L177.08973322908082,147.42288968826648L177.2100878119469,144.96482054921216L177.2823005616665,152.33790326646704L177.49893881082536,167.4819125484533L177.81186072627705,130.52622304955892L177.90814439256985,137.39956410766737L178.46177547375362,150.336837190053L178.70248463948568,151.00153483571435L178.82283922235172,155.1893924333595L179.01540655493736,153.53158476888427L179.207973887523,158.45574590633703L179.28018663724265,158.1670729299359L179.44868305325508,149.7127787010694L179.93010138471922,159.7412029212517L180.1948814670245,144.32254192171806L180.2670942167441,147.15153709044938L180.74851254820825,159.70078870455552L180.91700896422068,143.08672166274562L180.96515079736707,135.65328005042505L181.01329263051352,140.49466327464486L181.25400179624555,136.92164162673726L181.47064004540442,154.07309028461654L181.49471096197763,167.89002865509005L181.51878187855084,154.5805548831316L181.56692371169729,162.55595189114763L181.8076328774293,141.1663340597362L182.52976037462554,139.09771100884487L182.65011495749155,161.24875067801057L182.91489503979682,155.97458292917065L183.1315332889557,141.89086574050614L183.37224245468775,153.06288482720024L183.42038428783417,171.4606509431938L183.61295162041984,155.89060533603575L184.28693728446962,150.2166442598787L184.38322095076242,146.94376752743443L184.98499386509258,160.66248210593767L185.05720661481223,144.3772023372496L185.58676677942276,170.52527551966017L185.7071213622888,150.06361009238915L185.85154686172802,140.71780373640325L186.23668152689936,164.66026541912126L186.52553252577783,156.44830653044403L186.64588710864385,145.10353353787247L187.05509269038834,167.7065526100891L187.10323452353478,145.45174062940674L187.19951818982761,136.56016307628792L187.2235891064008,153.10089968409252L187.36801460584005,161.662265344206L187.44022735555967,146.2538766038326L187.6087237715721,155.36806975875274L187.75314927101135,146.56511855838875L187.96978752017023,144.55153082299836L188.37899310191472,149.77786133574895L188.6197022676468,148.76630623844298L188.6919150173664,164.3883879613471L188.93262418309848,119.34370676372299L189.26961701512337,150.22384233929026L189.89546084602674,153.18757655700676L190.858297508955,156.5538783618136L191.5082122564316,145.41320091255733L191.6526377558708,139.09478678908394L191.79706325531006,170.3561206534885L191.84520508845648,144.53765952413232L192.0137015044689,144.10270057968995L192.03777242104215,171.2261135223671L192.56733258565265,162.48951961657843L192.6395453353723,148.43017092592183L192.78397083481153,160.9519798622714L192.9765381673972,157.62016885464496L193.0246800005436,159.10867169296074L193.14503458340963,116.68116718138401L193.4579564988613,156.78729108273222L193.53016924858093,160.20922804299093L193.57831108172735,165.25688123034828L193.60238199830056,171.87626504921758L193.67459474802016,151.5755066887925L194.32450949549673,155.94818997132825L194.82999874353408,151.90556862181015L194.9022114932537,167.60255535859082L195.14292065898576,158.84339247464717L195.5761971573035,162.50886445499702L195.93726090590158,141.80418886759193L196.03354457219442,150.54745599283504L196.15389915506046,167.0971901999041L196.27425373792647,157.02460276333215L196.51496290365856,134.43005643042287L196.87602665225666,164.42437835840488L196.9963812351227,138.33831363092517L197.0685939848423,133.34457105916064L197.23709040085473,166.5378394456307L197.4296577334404,148.75745859916626L197.50187048316002,146.86173941414017L197.88700514833133,144.70771415023046L198.03143064777055,154.1557932178556L198.4887780626615,166.74800836844952L198.65727447867394,156.70668758932152L198.72948722839354,154.3787087396324L198.9220545609792,157.46203604757224L199.09055097699166,176.2444495321211L199.16276372671126,167.433475472413L199.30718922615048,151.6617336817435L199.35533105929693,160.84505839101217L200.4625932216644,149.57781471210262L200.67923147082328,175.42304369927055L201.32914621829985,157.92631216961794L201.52171355088552,137.18084746554734L201.5698553840319,157.95255516747258L201.810564549764,134.75434490391248L201.93091913263,155.2385793093385L201.95499004920325,148.8019967155253L202.50862113038698,164.68268443728851L202.9178267121315,147.68307026699688L202.96596854527792,136.81644469533705L203.20667771100997,126.76125261734302L203.3511032104492,152.6321247624146L203.80845062534016,155.16877293504513L203.95287612477938,143.73927254939997L204.3620817065239,178.0476434047111L204.6268617888292,153.36685372235095L204.65093270540237,171.02614187871464L204.723145455122,150.25893297642162L204.86757095456124,137.5361776564993L205.13235103686648,155.7854833846294L205.32491836945215,148.7652565185288L205.61376936833062,154.4317195952988L206.14332953294118,174.07557822942505L206.1914713660876,158.65481779006302L206.33589686552685,150.33436285025527L206.74510244727134,154.1857102354099L206.79324428041775,134.02306502369416L207.41908811132112,143.83164790184836L207.49130086104077,156.39289631497377L207.85236460963887,151.78987449126805L208.93555585543317,131.14998161856704L209.15219410459198,161.1852426232023L209.34476143717765,151.9672771567655L209.70582518577575,144.32381658161387L209.94653435150784,146.5972099957653L209.97060526808102,148.2616158997011L209.99467618465422,141.30729644821258L210.06688893437385,164.04640420930406L210.1150307675203,155.57411478190866L210.2835271835327,157.41914749107835L210.3075981001059,142.22535149316212L210.35573993325232,162.19072434100477L210.69273276527724,162.42908574151886L211.05379651387534,149.24662807917696L211.17415109674135,141.41759201919598L211.2945056796074,145.65073753313885L211.3185765961806,170.83434305439408L211.3426475127538,133.44361963106348L211.36671842932702,151.06856695023453L211.7518530944983,178.6027202993339L211.94442042708397,144.6071659784502L212.16105867624285,159.43026088667102L212.40176784197487,142.87872715974905L212.81097342371942,156.01469722589133L213.05168258945147,154.8792751787114L213.38867542147636,166.58357724189167L214.2552284181118,164.59615752436204L214.5922212501367,160.32274775371076L214.73664674957593,153.27582800979224L215.38656149705253,146.92959630859292L215.43470333019891,140.7867103507702L215.48284516334533,145.55003940137087L216.0364762445291,145.20160736985497L216.0846180776755,155.24877658850488L216.83081649144492,163.74168551421462L216.97524199088414,151.22175107771182L217.07152565717695,170.60677877299733L217.19188024004302,166.7171166109749L217.31223482290903,159.69141620532173L217.4807312389215,167.5419715235435L217.6010858217875,149.74052129880147L217.74551132122676,168.85682069605537L217.98622048695884,149.307361874212L218.17878781954445,129.24076603464425L218.22692965269087,168.08850069886506L218.78056073387464,147.53655935897405L219.55083006421725,144.02202210628536L219.98410656253495,138.50371949740332L220.00817747910818,132.5240649862365L220.0563193122546,145.0925114787735L220.17667389512062,169.88959513162666L220.24888664484024,150.54790587279825L220.56180856029192,143.5133578278684L220.65809222658476,149.99845247771574L221.42836155692734,145.28213588327182L221.5246452232202,145.58925393816511L221.78942530552547,137.64512358759305L222.15048905412357,161.6118038083312L222.7041201353073,162.0255434145082L222.87261655131974,142.42419843690652L223.017042050759,145.4589387088183L223.25775121649107,142.54274180721566L223.52253129879634,145.76673158365642L223.95580779711406,149.18641914409898L223.97987871368724,146.56009489879943L224.12430421312652,137.8534180105651L224.65386437773705,158.829596155775L224.67793529431026,144.86014847776903L224.96678629318873,155.07902188238222L225.32785004178683,161.12780794789757L225.37599187493325,141.43491239778007L225.68891379038493,152.6777875786817L225.9777647892634,158.58358679588613L226.02590662240982,146.52050546203586L226.26661578814188,151.40125318303762L226.43511220415434,156.8614462966701L226.50732495387396,168.82847825837234L226.60360862016677,159.9821136415574L227.0609560350577,159.0126973008066L227.3979488670826,169.32034701816235L227.446090700229,148.09815951306356L228.26450186371804,156.19419933121713L228.28857278029125,152.9684100349235L228.4570691963037,164.44672239657828L228.57742377916972,159.62573373069122L228.74592019518218,181.6427091708166L228.9144166111946,137.0513570161331L229.05884211063386,135.41439378995386L229.2754803597927,145.64766335339016L229.39583494265875,157.08946045803006L229.78096960783003,149.80342951365876L230.0938915232817,156.97601572730412L230.19017518957457,131.76339294842103L230.3346006890138,160.170988246117L230.7197353541851,160.61861880952347L230.79194810390473,172.97097295972586L231.3455791850885,165.58484372353755L231.92328118284541,140.60338426575697L232.01956484913828,145.37413633575085L232.38062859773635,155.74559402789035L232.74169234633445,165.28687322789645L232.78983417948086,137.6493224672498L232.8379760126273,166.80154408407302L232.8620469292005,142.65836095776388L232.9101887623469,165.11464418197608L233.56010350982348,149.31590959351323L234.3785146733125,155.67301339382377L234.54701108932497,157.38210737410634L234.59515292247139,150.43198680227457L234.88400392134986,153.8353287240534L235.24506766994796,171.30514243590653L235.36542225281397,152.12308558402825L235.99126608371733,151.92423864028387L236.08754975001017,162.31196699109327L236.183833416303,155.3934879766748L236.2801170825958,177.18634821512143L236.30418799916905,170.0850679756469L236.61710991462073,164.41658043904238L236.64118083119394,147.50664234141973L236.9300318300724,149.8892816066404L237.02631549636524,147.57045031620348L237.45959199468297,159.72133322287604L237.7484429935614,166.43519183402208L238.20579040845234,168.75679738423221L238.398357741038,139.65076344363317L238.78349240620932,153.25085967183338L238.8075633227825,154.81681684381732L239.60190356969835,179.01001162603802L239.8185418188572,163.97239895535392L240.10739281773567,167.7161500493045L240.58881114919978,154.6711307157271L240.66102389891944,154.6145208203549L240.99801673094433,163.81569076816473L241.52757689555486,135.4389122479495L241.69607331156732,156.63688121502815L242.15342072645825,167.59190819946122L242.44227172533672,161.43440114283374L242.53855539162953,136.56893573557076L242.97183188994725,155.2253828304173L243.1643992225329,159.970191822532L243.4291793048382,144.02427150610148L243.95873946944874,166.47710565059566L244.27166138490043,142.48545709189864L244.41608688433965,148.92713832529503L244.51237055063248,170.1329801917301L244.5364414672057,164.8073011871012L245.04193071524304,169.26231250290664L246.0288382947445,141.08220650661355L246.0529092113177,162.86861846558733L246.0769801278909,165.77446812803586L246.34176021019618,168.3080421209177L246.41397295991578,157.931485789195L246.58246937592824,158.1794446289245L247.1120295405388,177.9040567164492L247.4490223725637,135.13914223245553L247.83415703773497,162.39444498435074L248.09893712004026,139.46766229860157L248.48407178521154,169.5299910810241L248.652568201224,140.27474695262288L248.6766391177972,167.91807117279757L249.13398653268814,167.9651586089482L249.18212836583456,169.4685824660442L249.23027019898097,156.03659138410148L249.85611402988434,168.3216884798021L249.95239769617714,143.2866183264042L250.0968231956164,161.78860663387766L250.28939052820206,124.49055848297093L250.31346144477527,165.56279960533962L250.3856741944949,161.05777663362258L250.7226670265198,157.64783647238315L251.2281562745571,159.29724637754487L251.68550368944804,155.52950168555577L251.70957460602122,175.59482286522768L251.80585827231408,125.98003606120699L252.23913477063178,157.70489624771855L252.45577301979066,141.30309756855584L252.84090768496193,177.02274186849615L252.9853331844012,153.98101485214363L253.20197143356006,169.9734227647738L253.3945387661457,136.38935865025107L253.90002801418305,175.09133220638776L254.18887901306152,140.41338496128932L254.26109176278115,146.56714301822325L254.47773001194,138.92030834334744L254.64622642795246,153.54418140785452L254.76658101081847,162.55182799148477L255.07950292627018,165.4459807748895L255.9701268394788,153.34878354382818L256.13862325549127,153.59314334385192L256.3311905880769,165.99685878985554L256.7163252532482,158.35527271455067L256.7885380029678,145.7083971484252L256.95703441898024,145.95808052801374L257.22181450128556,133.41812643314753L257.390310917298,161.3209564121078L257.41438183387123,146.22343472632122L257.510665500164,176.24834849180237L257.6791619161765,142.0770410652864L257.94394199848176,143.5551216844542L258.13650933106743,167.9715319084272L258.2327929973602,161.91082402388645L258.30500574707986,159.9668927028017L258.32907666365304,147.6784215073769L258.5938567459583,153.9050601183529L258.6419985791047,159.91193236729467L258.73828224539756,144.57792378084073L259.4363388260206,155.88430701655065L259.86961532433827,151.98692191515954L259.8936862409115,153.02322041044278L259.9177571574847,158.784458199465L260.06218265692394,143.90715275567587L260.83245198726655,163.75128295343004L261.26572848558425,158.27414436118286L261.43422490159674,150.17525530326222L261.7230759004752,155.7439444680252L261.91564323306085,153.67292205733006L261.9397141496341,160.02867621775093L262.27670698165895,148.14359738934905L262.3729906479518,160.50277471899366L262.75812531312306,150.6015165684156L262.9025508125623,174.79613597051988L263.11918906172116,162.02876755424464L263.5043237268925,165.40166759851206L263.5765364766121,170.67268618760943L263.60060739318527,140.55659674958184L263.84131655891736,156.26947924506305L263.91352930863695,158.4018352907442L264.08202572464944,154.12317692052198L264.2986639738083,144.47580102918923L264.7800823052724,166.7777754260161" fill="none"></path></g></g></g></g></g></g><g transform="translate(41, 176)" clip-path="url(#clip_1)"><clipPath id="clip_1"><rect width="288" height="23"></rect></clipPath><g><g><line x1="0" y1="0" x2="0" y2="5" style="visibility: inherit;" fill="rgb(0, 0, 0)" stroke="rgb(204, 204, 204)" stroke-width="1px"></line><line x1="24.07091657320658" y1="0" x2="24.07091657320658" y2="5" style="visibility: inherit;" fill="rgb(0, 0, 0)" stroke="rgb(204, 204, 204)" stroke-width="1px"></line><line x1="48.14183314641316" y1="0" x2="48.14183314641316" y2="5" style="visibility: inherit;" fill="rgb(0, 0, 0)" stroke="rgb(204, 204, 204)" stroke-width="1px"></line><line x1="72.21274971961975" y1="0" x2="72.21274971961975" y2="5" style="visibility: inherit;" fill="rgb(0, 0, 0)" stroke="rgb(204, 204, 204)" stroke-width="1px"></line><line x1="96.28366629282633" y1="0" x2="96.28366629282633" y2="5" style="visibility: inherit;" fill="rgb(0, 0, 0)" stroke="rgb(204, 204, 204)" stroke-width="1px"></line><line x1="120.35458286603293" y1="0" x2="120.35458286603293" y2="5" style="visibility: inherit;" fill="rgb(0, 0, 0)" stroke="rgb(204, 204, 204)" stroke-width="1px"></line><line x1="144.4254994392395" y1="0" x2="144.4254994392395" y2="5" style="visibility: inherit;" fill="rgb(0, 0, 0)" stroke="rgb(204, 204, 204)" stroke-width="1px"></line><line x1="168.4964160124461" y1="0" x2="168.4964160124461" y2="5" style="visibility: inherit;" fill="rgb(0, 0, 0)" stroke="rgb(204, 204, 204)" stroke-width="1px"></line><line x1="192.56733258565265" y1="0" x2="192.56733258565265" y2="5" style="visibility: inherit;" fill="rgb(0, 0, 0)" stroke="rgb(204, 204, 204)" stroke-width="1px"></line><line x1="216.63824915885925" y1="0" x2="216.63824915885925" y2="5" style="visibility: inherit;" fill="rgb(0, 0, 0)" stroke="rgb(204, 204, 204)" stroke-width="1px"></line><line x1="240.70916573206586" y1="0" x2="240.70916573206586" y2="5" style="visibility: inherit;" fill="rgb(0, 0, 0)" stroke="rgb(204, 204, 204)" stroke-width="1px"></line><line x1="264.7800823052724" y1="0" x2="264.7800823052724" y2="5" style="visibility: inherit;" fill="rgb(0, 0, 0)" stroke="rgb(204, 204, 204)" stroke-width="1px"></line><line x1="288.850998878479" y1="0" x2="288.850998878479" y2="5" style="visibility: inherit;" fill="rgb(0, 0, 0)" stroke="rgb(204, 204, 204)" stroke-width="1px"></line></g><g transform="translate(0, 8)"><text style="text-anchor: middle; visibility: hidden; font-family: Roboto, sans-serif; font-size: 12px; font-weight: 200;" x="0" y="0" dx="0em" dy="0.95em" fill="rgb(33, 33, 33)" stroke="none" stroke-width="1px">-1k</text><text style="text-anchor: middle; visibility: inherit; font-family: Roboto, sans-serif; font-size: 12px; font-weight: 200;" x="24.07091657320658" y="0" dx="0em" dy="0.95em" fill="rgb(33, 33, 33)" stroke="none" stroke-width="1px">0</text><text style="text-anchor: middle; visibility: inherit; font-family: Roboto, sans-serif; font-size: 12px; font-weight: 200;" x="48.14183314641316" y="0" dx="0em" dy="0.95em" fill="rgb(33, 33, 33)" stroke="none" stroke-width="1px">1k</text><text style="text-anchor: middle; visibility: inherit; font-family: Roboto, sans-serif; font-size: 12px; font-weight: 200;" x="72.21274971961975" y="0" dx="0em" dy="0.95em" fill="rgb(33, 33, 33)" stroke="none" stroke-width="1px">2k</text><text style="text-anchor: middle; visibility: inherit; font-family: Roboto, sans-serif; font-size: 12px; font-weight: 200;" x="96.28366629282633" y="0" dx="0em" dy="0.95em" fill="rgb(33, 33, 33)" stroke="none" stroke-width="1px">3k</text><text style="text-anchor: middle; visibility: inherit; font-family: Roboto, sans-serif; font-size: 12px; font-weight: 200;" x="120.35458286603293" y="0" dx="0em" dy="0.95em" fill="rgb(33, 33, 33)" stroke="none" stroke-width="1px">4k</text><text style="text-anchor: middle; visibility: inherit; font-family: Roboto, sans-serif; font-size: 12px; font-weight: 200;" x="144.4254994392395" y="0" dx="0em" dy="0.95em" fill="rgb(33, 33, 33)" stroke="none" stroke-width="1px">5k</text><text style="text-anchor: middle; visibility: inherit; font-family: Roboto, sans-serif; font-size: 12px; font-weight: 200;" x="168.4964160124461" y="0" dx="0em" dy="0.95em" fill="rgb(33, 33, 33)" stroke="none" stroke-width="1px">6k</text><text style="text-anchor: middle; visibility: inherit; font-family: Roboto, sans-serif; font-size: 12px; font-weight: 200;" x="192.56733258565265" y="0" dx="0em" dy="0.95em" fill="rgb(33, 33, 33)" stroke="none" stroke-width="1px">7k</text><text style="text-anchor: middle; visibility: inherit; font-family: Roboto, sans-serif; font-size: 12px; font-weight: 200;" x="216.63824915885925" y="0" dx="0em" dy="0.95em" fill="rgb(33, 33, 33)" stroke="none" stroke-width="1px">8k</text><text style="text-anchor: middle; visibility: inherit; font-family: Roboto, sans-serif; font-size: 12px; font-weight: 200;" x="240.70916573206586" y="0" dx="0em" dy="0.95em" fill="rgb(33, 33, 33)" stroke="none" stroke-width="1px">9k</text><text style="text-anchor: middle; visibility: inherit; font-family: Roboto, sans-serif; font-size: 12px; font-weight: 200;" x="264.7800823052724" y="0" dx="0em" dy="0.95em" fill="rgb(33, 33, 33)" stroke="none" stroke-width="1px">10k</text><text style="text-anchor: middle; visibility: hidden; font-family: Roboto, sans-serif; font-size: 12px; font-weight: 200;" x="288.850998878479" y="0" dx="0em" dy="0.95em" fill="rgb(33, 33, 33)" stroke="none" stroke-width="1px">11k</text></g><line x1="0" y1="0" x2="288.850998878479" y2="0" fill="rgb(0, 0, 0)" stroke="rgb(204, 204, 204)" stroke-width="1px"></line></g></g></g></g></svg>