<svg viewBox="0 0 330 200" xmlns="http://www.w3.org/2000/svg"><g><g><g><g><g><line x1="61.91500186920166" y1="176.89999961853027" x2="56.91500186920166" y2="176.89999961853027" style="visibility: inherit;" fill="rgb(0, 0, 0)" stroke="rgb(204, 204, 204)" stroke-width="1px"></line><line x1="61.91500186920166" y1="162.15833298365274" x2="56.91500186920166" y2="162.15833298365274" style="visibility: inherit;" fill="rgb(0, 0, 0)" stroke="rgb(204, 204, 204)" stroke-width="1px"></line><line x1="61.91500186920166" y1="147.4166663487752" x2="56.91500186920166" y2="147.4166663487752" style="visibility: inherit;" fill="rgb(0, 0, 0)" stroke="rgb(204, 204, 204)" stroke-width="1px"></line><line x1="61.91500186920166" y1="132.6749997138977" x2="56.91500186920166" y2="132.6749997138977" style="visibility: inherit;" fill="rgb(0, 0, 0)" stroke="rgb(204, 204, 204)" stroke-width="1px"></line><line x1="61.91500186920166" y1="117.93333307902017" x2="56.91500186920166" y2="117.93333307902017" style="visibility: inherit;" fill="rgb(0, 0, 0)" stroke="rgb(204, 204, 204)" stroke-width="1px"></line><line x1="61.91500186920166" y1="103.19166644414264" x2="56.91500186920166" y2="103.19166644414264" style="visibility: inherit;" fill="rgb(0, 0, 0)" stroke="rgb(204, 204, 204)" stroke-width="1px"></line><line x1="61.91500186920166" y1="88.44999980926512" x2="56.91500186920166" y2="88.44999980926512" style="visibility: inherit;" fill="rgb(0, 0, 0)" stroke="rgb(204, 204, 204)" stroke-width="1px"></line><line x1="61.91500186920166" y1="73.70833317438763" x2="56.91500186920166" y2="73.70833317438763" style="visibility: inherit;" fill="rgb(0, 0, 0)" stroke="rgb(204, 204, 204)" stroke-width="1px"></line><line x1="61.91500186920166" y1="58.96666653951008" x2="56.91500186920166" y2="58.96666653951008" style="visibility: inherit;" fill="rgb(0, 0, 0)" stroke="rgb(204, 204, 204)" stroke-width="1px"></line><line x1="61.91500186920166" y1="44.22499990463257" x2="56.91500186920166" y2="44.22499990463257" style="visibility: inherit;" fill="rgb(0, 0, 0)" stroke="rgb(204, 204, 204)" stroke-width="1px"></line><line x1="61.91500186920166" y1="29.483333269755057" x2="56.91500186920166" y2="29.483333269755057" style="visibility: inherit;" fill="rgb(0, 0, 0)" stroke="rgb(204, 204, 204)" stroke-width="1px"></line><line x1="61.91500186920166" y1="14.74166663487751" x2="56.91500186920166" y2="14.74166663487751" style="visibility: inherit;" fill="rgb(0, 0, 0)" stroke="rgb(204, 204, 204)" stroke-width="1px"></line><line x1="61.91500186920166" y1="0" x2="56.91500186920166" y2="0" style="visibility: inherit;" fill="rgb(0, 0, 0)" stroke="rgb(204, 204, 204)" stroke-width="1px"></line></g><g transform="translate(51.91500186920166, 0)"><text style="text-anchor: end; visibility: hidden; font-family: Roboto, sans-serif; font-size: 12px; font-weight: 200;" x="0" y="176.89999961853027" dx="0em" dy="0.3em" fill="rgb(33, 33, 33)" stroke="none" stroke-width="1px">-0.01</text><text style="text-anchor: end; visibility: inherit; font-family: Roboto, sans-serif; font-size: 12px; font-weight: 200;" x="0" y="162.15833298365274" dx="0em" dy="0.3em" fill="rgb(33, 33, 33)" stroke="none" stroke-width="1px">0</text><text style="text-anchor: end; visibility: hidden; font-family: Roboto, sans-serif; font-size: 12px; font-weight: 200;" x="0" y="147.4166663487752" dx="0em" dy="0.3em" fill="rgb(33, 33, 33)" stroke="none" stroke-width="1px">0.01</text><text style="text-anchor: end; visibility: inherit; font-family: Roboto, sans-serif; font-size: 12px; font-weight: 200;" x="0" y="132.6749997138977" dx="0em" dy="0.3em" fill="rgb(33, 33, 33)" stroke="none" stroke-width="1px">0.02</text><text style="text-anchor: end; visibility: hidden; font-family: Roboto, sans-serif; font-size: 12px; font-weight: 200;" x="0" y="117.93333307902017" dx="0em" dy="0.3em" fill="rgb(33, 33, 33)" stroke="none" stroke-width="1px">0.03</text><text style="text-anchor: end; visibility: inherit; font-family: Roboto, sans-serif; font-size: 12px; font-weight: 200;" x="0" y="103.19166644414264" dx="0em" dy="0.3em" fill="rgb(33, 33, 33)" stroke="none" stroke-width="1px">0.04</text><text style="text-anchor: end; visibility: hidden; font-family: Roboto, sans-serif; font-size: 12px; font-weight: 200;" x="0" y="88.44999980926512" dx="0em" dy="0.3em" fill="rgb(33, 33, 33)" stroke="none" stroke-width="1px">0.05</text><text style="text-anchor: end; visibility: inherit; font-family: Roboto, sans-serif; font-size: 12px; font-weight: 200;" x="0" y="73.70833317438763" dx="0em" dy="0.3em" fill="rgb(33, 33, 33)" stroke="none" stroke-width="1px">0.06</text><text style="text-anchor: end; visibility: hidden; font-family: Roboto, sans-serif; font-size: 12px; font-weight: 200;" x="0" y="58.96666653951008" dx="0em" dy="0.3em" fill="rgb(33, 33, 33)" stroke="none" stroke-width="1px">0.07</text><text style="text-anchor: end; visibility: inherit; font-family: Roboto, sans-serif; font-size: 12px; font-weight: 200;" x="0" y="44.22499990463257" dx="0em" dy="0.3em" fill="rgb(33, 33, 33)" stroke="none" stroke-width="1px">0.08</text><text style="text-anchor: end; visibility: hidden; font-family: Roboto, sans-serif; font-size: 12px; font-weight: 200;" x="0" y="29.483333269755057" dx="0em" dy="0.3em" fill="rgb(33, 33, 33)" stroke="none" stroke-width="1px">0.09</text><text style="text-anchor: end; visibility: inherit; font-family: Roboto, sans-serif; font-size: 12px; font-weight: 200;" x="0" y="14.74166663487751" dx="0em" dy="0.3em" fill="rgb(33, 33, 33)" stroke="none" stroke-width="1px">0.1</text><text style="text-anchor: end; visibility: hidden; font-family: Roboto, sans-serif; font-size: 12px; font-weight: 200;" x="0" y="0" dx="0em" dy="0.3em" fill="rgb(33, 33, 33)" stroke="none" stroke-width="1px">0.11</text></g><line x1="61.91500186920166" y1="0" x2="61.91500186920166" y2="176.89999961853027" fill="rgb(0, 0, 0)" stroke="rgb(204, 204, 204)" stroke-width="1px"></line></g></g><g transform="translate(61, 0)" clip-path="url(#clip_0)"><clipPath id="clip_0"><rect width="268" height="176"></rect></clipPath><g><g><g><line x1="0" y1="0" x2="0" y2="176.89999961853027" fill="rgb(0, 0, 0)" stroke="rgb(66, 66, 66)" stroke-width="1px" opacity="0.25"></line><line x1="22.34041651089986" y1="0" x2="22.34041651089986" y2="176.89999961853027" fill="rgb(0, 0, 0)" stroke="rgb(66, 66, 66)" stroke-width="1px" opacity="0.25"></line><line x1="44.68083302179972" y1="0" x2="44.68083302179972" y2="176.89999961853027" fill="rgb(0, 0, 0)" stroke="rgb(66, 66, 66)" stroke-width="1px" opacity="0.25"></line><line x1="67.02124953269958" y1="0" x2="67.02124953269958" y2="176.89999961853027" fill="rgb(0, 0, 0)" stroke="rgb(66, 66, 66)" stroke-width="1px" opacity="0.25"></line><line x1="89.36166604359944" y1="0" x2="89.36166604359944" y2="176.89999961853027" fill="rgb(0, 0, 0)" stroke="rgb(66, 66, 66)" stroke-width="1px" opacity="0.25"></line><line x1="111.70208255449931" y1="0" x2="111.70208255449931" y2="176.89999961853027" fill="rgb(0, 0, 0)" stroke="rgb(66, 66, 66)" stroke-width="1px" opacity="0.25"></line><line x1="134.04249906539917" y1="0" x2="134.04249906539917" y2="176.89999961853027" fill="rgb(0, 0, 0)" stroke="rgb(66, 66, 66)" stroke-width="1px" opacity="0.25"></line><line x1="156.38291557629904" y1="0" x2="156.38291557629904" y2="176.89999961853027" fill="rgb(0, 0, 0)" stroke="rgb(66, 66, 66)" stroke-width="1px" opacity="0.25"></line><line x1="178.72333208719888" y1="0" x2="178.72333208719888" y2="176.89999961853027" fill="rgb(0, 0, 0)" stroke="rgb(66, 66, 66)" stroke-width="1px" opacity="0.25"></line><line x1="201.06374859809875" y1="0" x2="201.06374859809875" y2="176.89999961853027" fill="rgb(0, 0, 0)" stroke="rgb(66, 66, 66)" stroke-width="1px" opacity="0.25"></line><line x1="223.40416510899863" y1="0" x2="223.40416510899863" y2="176.89999961853027" fill="rgb(0, 0, 0)" stroke="rgb(66, 66, 66)" stroke-width="1px" opacity="0.25"></line><line x1="245.74458161989847" y1="0" x2="245.74458161989847" y2="176.89999961853027" fill="rgb(0, 0, 0)" stroke="rgb(66, 66, 66)" stroke-width="1px" opacity="0.25"></line><line x1="268.08499813079834" y1="0" x2="268.08499813079834" y2="176.89999961853027" fill="rgb(0, 0, 0)" stroke="rgb(66, 66, 66)" stroke-width="1px" opacity="0.25"></line></g><g><line x1="0" y1="176.89999961853027" x2="268.08499813079834" y2="176.89999961853027" fill="rgb(0, 0, 0)" stroke="rgb(66, 66, 66)" stroke-width="1px" opacity="0.25"></line><line x1="0" y1="162.15833298365274" x2="268.08499813079834" y2="162.15833298365274" fill="rgb(0, 0, 0)" stroke="rgb(66, 66, 66)" stroke-width="1px" opacity="0.25"></line><line x1="0" y1="147.4166663487752" x2="268.08499813079834" y2="147.4166663487752" fill="rgb(0, 0, 0)" stroke="rgb(66, 66, 66)" stroke-width="1px" opacity="0.25"></line><line x1="0" y1="132.6749997138977" x2="268.08499813079834" y2="132.6749997138977" fill="rgb(0, 0, 0)" stroke="rgb(66, 66, 66)" stroke-width="1px" opacity="0.25"></line><line x1="0" y1="117.93333307902017" x2="268.08499813079834" y2="117.93333307902017" fill="rgb(0, 0, 0)" stroke="rgb(66, 66, 66)" stroke-width="1px" opacity="0.25"></line><line x1="0" y1="103.19166644414264" x2="268.08499813079834" y2="103.19166644414264" fill="rgb(0, 0, 0)" stroke="rgb(66, 66, 66)" stroke-width="1px" opacity="0.25"></line><line x1="0" y1="88.44999980926512" x2="268.08499813079834" y2="88.44999980926512" fill="rgb(0, 0, 0)" stroke="rgb(66, 66, 66)" stroke-width="1px" opacity="0.25"></line><line x1="0" y1="73.70833317438763" x2="268.08499813079834" y2="73.70833317438763" fill="rgb(0, 0, 0)" stroke="rgb(66, 66, 66)" stroke-width="1px" opacity="0.25"></line><line x1="0" y1="58.96666653951008" x2="268.08499813079834" y2="58.96666653951008" fill="rgb(0, 0, 0)" stroke="rgb(66, 66, 66)" stroke-width="1px" opacity="0.25"></line><line x1="0" y1="44.22499990463257" x2="268.08499813079834" y2="44.22499990463257" fill="rgb(0, 0, 0)" stroke="rgb(66, 66, 66)" stroke-width="1px" opacity="0.25"></line><line x1="0" y1="29.483333269755057" x2="268.08499813079834" y2="29.483333269755057" fill="rgb(0, 0, 0)" stroke="rgb(66, 66, 66)" stroke-width="1px" opacity="0.25"></line><line x1="0" y1="14.74166663487751" x2="268.08499813079834" y2="14.74166663487751" fill="rgb(0, 0, 0)" stroke="rgb(66, 66, 66)" stroke-width="1px" opacity="0.25"></line><line x1="0" y1="0" x2="268.08499813079834" y2="0" fill="rgb(0, 0, 0)" stroke="rgb(66, 66, 66)" stroke-width="1px" opacity="0.25"></line></g></g></g><g><g><line x1="0" y1="162.15833298365274" x2="268.08499813079834" y2="162.15833298365274" fill="rgb(0, 0, 0)" stroke="rgb(153, 153, 153)" stroke-width="1.5px"></line></g></g><g><g><line x1="22.34041651089986" y1="0" x2="22.34041651089986" y2="176.89999961853027" fill="rgb(0, 0, 0)" stroke="rgb(153, 153, 153)" stroke-width="1.5px"></line></g></g><g><g><g><g><g><path style="fill: none;" stroke="rgb(255, 112, 67)" stroke-width="2px" d="M23.099990672270458,152.13399953903692L23.122331088781355,151.94972859008882L23.189352338314055,151.44204367281463L23.368075670401257,150.13411890526208L23.79254358410835,147.0373315430343L24.08296899875005,143.73275401973376L24.21701149781545,141.12354482127168L24.35105399688085,138.88587632798135L24.395734829902647,137.32930545819585L24.887223993142445,133.7951465632979L24.976585659186043,131.21492634142376L25.222330240805945,128.37270160987217L25.244670657316842,126.5532442051461L25.267011073827742,125.34506618860898L25.356372739871343,124.1488100663166L25.44573440591494,122.95955082053611L25.490415238936745,122.01030273635796L25.691478987534843,120.37934962929829L26.182968150774638,116.80619125868431L26.24998940030734,114.30862325693269L26.317010649840036,112.45633373911573L26.406372315883637,110.87324509747992L26.495733981927234,109.45166899179735L26.585095647970835,108.12699574722957L26.719138147036233,106.62459281279047L27.36701022585233,102.30308051223929L27.43403147538503,99.35637808947187L27.99254188815753,94.64002404354196L28.014882304668426,91.6922802934125L28.037222721179326,89.80570157963504L28.282967302799225,87.37648778938059L29.71275395949682,78.37122544519572L29.757434792518616,72.73220222062496L29.802115625540413,69.11292218597661L30.27126437226931,64.46475181136155L30.360626038312912,61.2041171018989L30.74041311899821,57.242870832047124L30.986157700618108,53.568856424168686L31.008498117129008,51.246512458488624L31.231902282238007,48.673774753396955L31.477646863857906,45.832865474662675L32.1925401922067,40.35445087260704L32.3042422747612,36.47773864586098L32.795731438001,31.55717799640055L32.81807185451189,28.486906277836237L32.8404122710228,26.52681231083222L32.974454770088194,24.64315274087146L33.019135603109994,23.277090733451093L33.3319014342626,20.806389670610393L33.46594393332799,18.616365843111428L33.66700768192609,17.066564361600847L34.069135179122284,16.137614864810647L34.09147559563319,15.580324247200556L34.64998600840568,15.249055981459335L34.672326424916584,15.050457576298415L34.851049757003786,14.932743948318109L35.07445392211278,14.864211403780548L35.230836837689075,14.824752566765987L35.49892183581988,14.804288809997853L35.54360266884168,14.79259047932706L36.01275141557058,14.792442694425377L36.07977266510328,14.793447969879331L36.30317683021227,14.797921684444654L36.973389325539266,14.814141852311653L37.10743182460467,14.826931730906892L37.15211265762647,14.835646884150792L37.75530390342077,14.856235159216533L38.157431400616964,14.880129478390602L38.42551639874777,14.902738764921883L38.89466514547666,14.931896367987864L38.91700556198756,14.950168554373246L39.252111809651055,14.973182849984967L39.43083514173826,14.993717660005242L39.72126055637995,15.017399772432398L39.967005137999855,15.0416522585989L40.50317513426145,15.079453406210666L40.65955804983775,15.109264516460444L40.882962214946744,15.137611770427021L41.15104721307755,15.167593711980793L41.19572804609935,15.187788343139003L41.37445137818654,15.208863180867214L41.75423845887184,15.241221085408258L41.84360012491544,15.265407016024119L41.99998304049174,15.288397757294183L42.24572762211164,15.315824795082381L42.40211053768794,15.341159996326342L42.625514702796934,15.369317132810433L42.737216785351436,15.392810239942712L42.93828053394954,15.418979054797607L43.11700386603673,15.445632987737046L43.58615261276563,15.491346421242909L44.01062052647273,15.546878798970782L44.03296094298363,15.581705147749952L44.05530135949453,15.604116665877925L44.09998219251633,15.620603781193664L44.502109689712526,15.65840706021078L44.68083302179972,15.693825375407991L44.74785427133242,15.719904666084727L44.971258436441424,15.751855995798573L45.14998176852862,15.784294737854733L45.172322185039526,15.805431852873456L45.19466260155042,15.819792385028766L45.61913051525752,15.860862447371986L45.66381134827932,15.888984025118479L45.70849218130112,15.909354085542965L46.132960095008215,15.95541377293772L46.199981344540916,15.98849735055422L46.24466217756271,16.011993985107267L46.26700259407362,16.027923996548722L46.44572592616081,16.052221722911735L46.46806634267171,16.068658749593247L46.512747175693505,16.08224214068859L46.69147050778071,16.105413069820937L46.9818959224224,16.144160072534973L47.272321337064106,16.192779922479907L47.5627467517058,16.24785947056329L48.0318954984347,16.323887430665366L48.2552996635437,16.39045613587315L48.8138100763162,16.48416328663375L48.925512158870696,16.551375367988737L48.947852575381596,16.593908083027657L49.19359715700149,16.643911901846355L49.439341738621394,16.698780605167244L50.020192567904786,16.791978712857187L50.24359673301379,16.871643682951788L50.28827756603559,16.924231426335837L50.51168173114459,16.979903613363224L50.601043397188185,17.02304260915881L50.75742631276449,17.06608646695203L51.181894226471584,17.139255618382712L51.40529839158058,17.208528757557616L51.67338338971138,17.280947201430862L52.164872552951174,17.382127005223037L52.835085048278174,17.523975835161973L53.326574211517965,17.670354917960324L53.79572295824686,17.8180638510253L54.44359503706296,17.991612840640595L54.55529711961746,18.11064450819152L54.73402045170466,18.20606882238463L55.58295627911886,18.380024206438403L55.739339194695155,18.506377412026943L56.07444544235865,18.62979138031675L56.52125377257665,18.7683738118744L56.58827502210935,18.86130728133726L57.05742376883825,18.986328667899794L57.303168350458144,19.098157848390084L57.70529584765434,19.226283506773395L58.66593375762304,19.452906543858457L58.68827417413394,19.592425806835294L58.71061459064484,19.679691592065222L58.93401875575383,19.767733925129882L59.090401671330135,19.845715698693382L59.47018875201543,19.95420509685004L60.49784791151682,20.190587017053826L60.54252874453862,20.34000789355546L60.56486916104952,20.433460675005144L60.63189041058222,20.50094629059814L60.788273326158524,20.568180036283362L61.61486873706182,20.752284170770036L61.63720915357272,20.866687494499228L61.815932485659914,20.96697046036889L62.30742164889971,21.115117254182994L62.441464147965114,21.228247885520876L62.463804564476014,21.300176941336208L62.508485397497815,21.351440122209645L62.620187480052316,21.402526102900026L63.089336226781214,21.51934464169204L63.22337872584661,21.614288996919893L63.536144556999204,21.729660924813242L63.603165806531905,21.811471055129648L63.670187056064606,21.873174860413013L63.7372083055973,21.922836837471607L63.8712508046627,21.977996885305227L64.0052933037281,22.036561216220296L64.09465496977171,22.088737261032755L64.1169953862826,22.12430883952461L64.3850803844134,22.19707166054118L65.2563566283385,22.410717200192245L65.70316495855648,22.627777783514393L65.83720745762189,22.784897097325647L66.08295203924179,22.928730168670146L66.28401578783989,23.05583113665702L66.32869662086169,23.14119036397096L66.5967816189925,23.247239414236073L66.99890911618868,23.393885756358568L67.06593036572139,23.495800509712286L67.33401536385217,23.61290757550934L68.24997244079907,23.87742857723222L68.47337660590809,24.084235279412404L68.49571702241897,24.213147602278926L68.51805743892987,24.295318904198233L68.56273827195167,24.354287075184686L68.74146160403888,24.428439371091375L69.03188701868058,24.536309345798L69.07656785170236,24.610824127868288L69.61273784796397,24.77391644915143L69.97018451213837,24.95158160180315L70.03720576167106,25.07322355466446L70.08188659469288,25.156247551732427L70.12656742771466,25.2161183487605L70.30529075980186,25.292363076024763L70.32763117631276,25.343166668610564L70.88614158908527,25.50086732118389L71.22124783674876,25.672643883764138L71.39997116883595,25.81711283667765L71.42231158534686,25.90897837206445L71.73507741649945,26.037009879523474L72.00316241463025,26.17675047182386L72.33826866229374,26.339793910182728L72.44997074484824,26.464155861653772L72.56167282740275,26.565374821377322L72.60635366042455,26.636764486183914L72.94145990808805,26.759895707800457L73.16486407319704,26.88763702230465L73.29890657226244,26.996731160698204L73.61167240341504,27.13827622852975L73.92443823456765,27.29981466374701L74.17018281618755,27.45730017891078L74.19252323269843,27.557313940291976L74.23720406572023,27.628371495045528L74.48294864734014,27.7319770643196L74.57231031338374,27.816392769299284L74.59465072989464,27.87260857816015L74.81805489500364,27.962177656568073L74.92975697755814,28.043939947415897L74.99677822709083,28.10983706703232L75.01911864360173,28.15499444498345L75.10848030964534,28.204596049992283L75.46592697381972,28.32479430833877L75.59996947288512,28.43099694259161L75.71167155543962,28.523200669643025L75.86805447101592,28.61849807955907L76.00209697008133,28.71005016644867L76.22550113519033,28.82246852130477L76.51592654983202,28.965050366748375L76.91805404702822,29.155341546311334L77.00741571307182,29.292910890808496L77.07443696260452,29.39302154021113L77.40954321026803,29.541284612095808L77.61060695886611,29.683437246190493L77.72230904142062,29.7983708199272L78.10209612210592,29.96859788948447L78.1467769551277,30.08269285445996L78.30315987070401,30.19309762532855L78.973372366031,30.44051822030416L79.04039361556372,30.607216197282327L79.66592527786891,30.878589165164247L79.68826569437981,31.04757243523364L80.0233719420433,31.24160515884241L80.1127336080869,31.38282530465212L80.1797548576196,31.486180841006103L80.2691165236632,31.573064968207174L80.4478398557504,31.67505567599866L80.5148611052831,31.75498777687615L80.58188235481579,31.821706680400293L80.760605686903,31.911870642244587L80.84996735294659,31.99109463956278L81.0733715180556,32.10162101952289L81.3637969326973,32.250189314993634L81.7212435968717,32.44113320739123L81.8329456794262,32.58763926287502L81.8552860959371,32.681939626892344L82.12337109406789,32.815456348388224L82.34677525917688,32.959946664303956L82.3914560921987,33.059548542641934L82.4361369252205,33.13222175179231L82.48081775824228,33.188750939507145L82.547839007775,33.242073918909036L82.61486025730768,33.29349514011821L83.03932817101479,33.44788473501032L83.50847691774368,33.67806577601364L83.68720024983088,33.86885077521565L83.86592358191808,34.03615191690238L84.08932774702707,34.202780062514364L84.26805107911429,34.35592538069131L84.35741274515787,34.47445390066956L84.58081691026688,34.612336889620316L85.56379523674647,34.99161402320134L85.69783773581186,35.259968248453035L85.74251856883367,35.43459580319416L85.94358231743176,35.600747561490245L86.07762481649716,35.741463802957824L86.32336939811707,35.901314342063394L86.47975231369337,36.045362700263354L86.63613522926966,36.180043977254385L86.65847564578056,36.267754710462874L87.06060314297676,36.445011958949486L87.08294355948766,36.558312208645496L87.12762439250946,36.640188553030214L87.39570939064026,36.77288922821948L87.55209230621657,36.90141211253841L87.59677313923835,36.99251869159525L87.97656021992366,37.16647551638659L88.13294313549996,37.32016067285524L88.22230480154356,37.440599098413244L88.35634730060896,37.555266854968984L88.37868771711985,37.63114081691794L88.42336855014165,37.69082499019541L88.51273021618525,37.75497705317309L89.40634687662126,38.07881695903888L90.03187853892643,38.47494742238725L90.07655937194825,38.72711060507153L90.50102728565534,39.01640831472882L90.88081436634064,39.31411690615689L91.01485686540605,39.536702011326284L91.05953769842783,39.684922500181834L91.14889936447145,39.803220005157094L91.43932477911314,39.9698682940713L91.70740977724394,40.15848010548744L91.84145227630934,40.31607723206436L92.06485644141833,40.484848128506194L92.31060102303823,40.66798530499058L92.84677101929982,40.95737586690965L92.98081351836522,41.17606849412761L93.13719643394153,41.35995165834036L93.15953685045241,41.47781616758015L93.22655809998513,41.57114309861956L93.24889851649603,41.63467826131441L93.27123893300691,41.68034275636153L93.78506851275762,41.88177119072548L93.80740892926852,42.010219975723224L93.9637918448448,42.14048403768573L94.36591934204101,42.3558778304412L94.43294059157371,42.50805183351623L94.67868517319361,42.683607681208095L95.34889766852062,43.01993961351735L95.39357850154241,43.2372033966387L95.90740808129311,43.545949615990885L95.9520889143149,43.74675862523632L96.1308122464021,43.92956382842334L96.376556828022,44.12514151245437L96.53293974359829,44.29726891644156L96.5552801601092,44.40837871795912L96.5776205766201,44.4828779579949L97.0244289068381,44.684688413782034L97.0691097398599,44.82152927268514L97.33719473799069,44.99831067481845L97.3595351545016,45.112283168967956L97.60527973612149,45.2677122876386L97.6499605691433,45.37682099817017L97.85102431774139,45.513709062009696L98.1414497323831,45.6992747516235L99.05740680932999,46.13887716433769L99.10208764235178,46.418731486041274L99.37017264048258,46.68334630436119L99.45953430652618,46.874406384119595L99.6605980551243,47.061809637354095L99.77230013767878,47.21473639262582L100.08506596883139,47.420095923220586L100.10740638534229,47.551439355756756L100.26378930091857,47.687187741482816L100.39783179998398,47.81751728532877L100.46485304951669,47.92017723463656L100.53187429904938,48.006253000657516L100.82229971369107,48.16415624142733L101.04570387880008,48.34083872489378L101.17974637786547,48.49609337618225L101.26910804390907,48.62211288575286L101.29144846041997,48.705944566213894L101.35846970995267,48.780916678723486L101.67123554110526,48.94124758719028L101.96166095574698,49.144854973489736L102.09570345481238,49.31669072230255L102.67655428409577,49.635738947296105L102.92229886571566,49.918870465029975L103.01166053175926,50.12214769090875L103.05634136478106,50.26082197077329L103.19038386384646,50.39418991193494L103.36910719593367,50.54119182818749L103.45846886197727,50.66292309394797L103.88293677568436,50.895581373167936L103.90527719219526,51.0435940165743L103.97229844172794,51.15766781031823L104.10634094079334,51.276679648836996L104.24038343985875,51.398711427887825L104.30740468939146,51.49726699676271L104.55314927101135,51.649420928530134L104.97761718471845,51.90183533613771L105.35740426540376,52.197935326298946L105.49144676446915,52.42675598613524L105.84889342864354,52.70075214117406L105.91591467817625,52.89082462428593L106.09463801026344,53.07340451480027L106.34038259188334,53.27735255428234L106.38506342490514,53.41690380508254L106.56378675699234,53.56943016439178L106.67548883954683,53.70399211161459L106.94357383767763,53.88819288477144L107.05527592023213,54.04188688771426L107.36804175138474,54.25518426395666L107.59144591649373,54.46983048300768L107.72548841555913,54.65068830549407L107.79250966509184,54.785260011308914L107.81485008160273,54.87468870557213L108.08293507973353,55.03271895226952L108.12761591275533,55.144952375426755L108.28399882833162,55.273289825897095L108.30633924484253,55.35901311382577L108.52974340995152,55.49772555679175L108.61910507599514,55.61590658690141L109.71378548502922,56.11680643192505L109.84782798409462,56.47022920141297L109.93718965013822,56.71756592936197L110.45101922988891,57.069270654589616L110.47335964639983,57.28914610814314L110.87548714359602,57.58069968675698L110.89782756010692,57.76451081249631L110.92016797661782,57.88368085986994L111.29995505730311,58.10638033882445L111.36697630683581,58.26672482909055L111.6574017214775,58.47885908760132L111.72442297101021,58.63292595262738L112.2605929672718,58.94005634667035L112.79676296353341,59.33975854907911L112.9308054625988,59.63354789267501L113.0648479616642,59.86383345457335L113.1988904607296,60.05606507440233L113.39995420932769,60.25257135411748L113.51165629188219,60.41561249247534L113.55633712490399,60.53150266776323L113.8020817065239,60.70047166754157L114.0254858716329,60.89237383657108L114.0478262881438,61.016574244279454L114.22654962023098,61.163606879461014L114.58399628440539,61.39707969635184L115.2318683632215,61.80119108326161L115.81271919250489,62.28118926395816L115.87974044203759,62.59664666622511L116.39357002178828,62.99674522667869L116.92974001804987,63.457412492572466L117.13080376664797,63.8166979633017L117.26484626571337,64.08757284903069L117.55527168035508,64.37005405503676L117.71165459593136,64.6042086299946L117.73399501244226,64.75394500233867L117.89037792801857,64.90850979076653L118.00208001057307,65.04750634090108L118.42654792428016,65.30692419995167L118.85101583798728,65.63895509979118L118.96271792054176,65.8846509847235L119.14144125262897,66.1064788373343L119.16378166913987,66.2488806832963L119.43186666727067,66.44606248408253L119.83399416446686,66.73223741919071L120.77229165792465,67.29680093681152L121.91165289998054,68.11467438829312L121.93399331649144,68.61481782091205L122.13505706508954,68.99969570948923L122.29143998066584,69.29661508841254L122.91697164297105,69.73914368458357L123.18505664110184,70.11815448574251L123.20739705761274,70.355024261758L123.29675872365632,70.53500589868638L123.38612038969994,70.68086783223947L123.58718413829804,70.85364251743283L123.65420538783073,70.9857389514199L123.96697121898333,71.19777290798902L124.14569455107053,71.40092809916035L124.25739663362504,71.57030683478595L124.30207746664684,71.69093315722532L124.81590704639753,71.98200157577969L124.97228996197383,72.22327670310564L125.12867287755013,72.43470880588715L125.32973662614823,72.6473308289044L125.41909829219182,72.8130383989723L125.48611954172453,72.94107249492419L125.55314079125722,73.04650689976553L125.84356620589891,73.2338316079188L125.97760870496431,73.40352462109543L126.22335328658421,73.6104471500965L126.37973620216052,73.801526902065L126.51377870122592,73.97356520207012L126.58079995075862,74.10549219320319L126.64782120029132,74.21335679237208L126.7818636993567,74.33550993428757L126.938246614933,74.47583569130062L127.20633161306381,74.67501633435069L127.56377827723821,74.94796937384766L127.831863275369,75.22691969418474L127.8542036918799,75.40389376919563L128.07760785698892,75.6061280256861L128.2339907725652,75.7947374961515L128.278671605587,75.92712632080456L128.3680332716306,76.0450146870621L128.6807991027832,76.25040855401129L129.7307986787955,76.82644642114892L130.6020749227206,77.54859099248702L130.8478195043405,78.08819702347331L131.2276065850258,78.57637111983558L131.4286703336239,78.95636513342406L131.78611699779827,79.33926259375782L132.03186157941818,79.67555100948988L132.18824449499448,79.94515093209525L132.32228699405988,80.16506358227169L132.36696782708168,80.31639686903497L132.59037199219068,80.50415168453415L132.70207407474518,80.66529407729155L132.9254782398542,80.85898488001585L133.26058448751766,81.12076452592243L133.3276057370504,81.3069536937029L133.55100990215936,81.51575823194187L134.39994572957355,82.01024127314085L134.62334989468255,82.40414954284236L135.33824322303136,82.95175520421787L135.78505155324933,83.47496417556074L135.80739196976026,83.79862304526605L135.96377488533656,84.06096375878404L136.29888113300004,84.36442101401757L136.36590238253277,84.57571120461307L136.38824279904367,84.712223199229L136.54462571461994,84.86230654120645L136.67866821368537,85.01079700802168L136.85739154577254,85.17782288701342L137.01377446134885,85.34623213305241L137.48292320807775,85.6519005735183L137.86271028876305,86.0009817963239L138.01909320433936,86.27865719884385L138.17547611991563,86.51349569923092L138.26483778595926,86.69338986072876L138.30951861898106,86.8208218882603L138.33185903549196,86.90702996843538L138.73398653268814,87.1342299689923L139.09143319686254,87.42654057454307L139.42653944452604,87.7481752694725L139.73930527567865,88.077655554373L139.96270944078765,88.37284114859293L140.05207110683122,88.58895235310854L140.14143277287485,88.75761892380156L140.16377318938575,88.86856772987355L140.40951777100565,89.04238110377304L140.45419860402743,89.16616905210455L140.63292193611463,89.31843273035275L140.74462401866913,89.45853525558249L140.99036860028903,89.64982768089956L141.34781526446343,89.92056298779332L142.28611275792125,90.49228290780721L142.73292108813922,91.03013616869372L142.97866566975912,91.45997579146798L143.42547399997713,91.91260641679187L143.44781441648803,92.19391827888582L143.5595164990425,92.4113750273197L143.6041973320643,92.56131605017927L143.9839844127496,92.81671479431617L144.5424948255221,93.21312865900487L144.9669627392292,93.63569136428028L145.1010052382946,93.94754204166286L145.5701539850235,94.33867125407023L146.1733452308178,94.83547415383607L146.2180260638396,95.15296355714807L146.4414302289486,95.4404757462822L146.4637706454595,95.62268359646964L146.57547272801398,95.78050440007853L146.86589814265568,96.00124894244698L146.97760022521018,96.18216100785136L147.42440855542822,96.48448393652637L147.9829189682007,96.90788587511925L148.0946210507552,97.21030011771894L148.22866354982057,97.44978273919854L148.47440813144047,97.69982894382142L148.49674854795137,97.85952205643L148.76483354608217,98.0713006352184L149.09993979374568,98.34323000932092L149.36802479187648,98.62220756083764L149.52440770745275,98.85712441318023L149.81483312209446,99.1234258440259L149.83717353860536,99.29284573221405L149.85951395511628,99.40413669480773L149.97121603767079,99.51909543737021L150.48504561742146,99.80956407437107L150.61908811648686,100.0415827807578L150.68610936601956,100.20965617664446L151.04355603019397,100.46434466351381L151.31164102832477,100.73245267628826L151.40100269436834,100.93173081850797L151.44568352739014,101.0705010760981L151.53504519343377,101.19216338513014L151.62440685947735,101.30355213830931L151.64674727598825,101.37998048630746L151.98185352365175,101.56971341283673L152.16057685573895,101.76023485701688L152.36164060433705,101.96076739421093L152.85312976757686,102.29163864736176L152.96483185013136,102.53797212874218L153.03185309966403,102.71444986854638L153.16589559872946,102.87767643762422L153.34461893081664,103.05203046579251L153.43398059686027,103.19483654929776L153.74674642801284,103.41411565703426L154.01483142614364,103.66008838712827L154.39461850682895,103.96957609163663L154.77440558751425,104.31697288295834L154.81908642053605,104.54442102221293L155.06483100215596,104.7853947366756L155.13185225168863,104.95846550521196L155.22121391773223,105.10027976830771L155.26589475075406,105.20434983379315L155.37759683330853,105.31423136373749L156.02546891212464,105.65494292135014L156.33823474327724,105.99179228669387L156.76270265698432,106.37336842501789L157.09780890464782,106.74379125172004L157.14248973766962,106.98489465459882L157.34355348626772,107.21434193529339L157.56695765137673,107.44613362726561L157.76802139997483,107.66984890056871L157.83504264950753,107.83227464271427L158.01376598159473,108.00488728068568L158.1478084806601,108.1647865127697L158.170148897171,108.27011026687794L158.59461681087814,108.51146181747394L159.0190847245852,108.83410493739545L159.04142514109614,109.03704207401354L159.3095101392269,109.27093825482537L159.33185055573782,109.42061624458015L159.8233397189776,109.71563683806315L160.0244034675757,109.97646789413676L160.0914247171084,110.16088852100613L160.4935522143046,110.43889272875936L160.7616372124354,110.71708667457855L161.1414242931207,111.04156427313484L161.2307859591643,111.27328245541315L161.2754667921861,111.4308225863139L161.38716887474058,111.5716021452527L161.4765305407842,111.69305537349085L161.5882326233387,111.8121366605624L161.67759428938228,111.92053358212863L162.07972178657852,112.15163850918778L162.6158917828401,112.51119077002195L162.9063171974818,112.84631165777809L162.9286576139927,113.05655972073635L162.9509980305036,113.1918840888159L162.9956788635254,113.29142537691379L163.04035969654717,113.3694946203432L163.3754659442107,113.5537648297755L163.4201467772325,113.6826340824539L163.95631677349408,113.97926772277297L164.24674218813578,114.27576974981436L164.35844427069028,114.49920593555892L164.4701463532448,114.67877186301229L164.5371676027775,114.81380076901124L164.7382313513756,114.97662245748565L165.0286567660173,115.19231011033835L165.11801843206086,115.35798988072577L165.63184801181157,115.66555509312902L165.85525217692057,115.94039861680187L165.96695425947507,116.15041134802131L166.14567759156228,116.34852608994028L166.32440092364945,116.53942185947693L166.39142217318218,116.68094992231276L166.54780508875845,116.82879943123677L166.99461341897646,117.09697895072819L167.24035800059636,117.35637808318003L167.30737925012906,117.53885219951991L167.75418758034706,117.82693769671552L167.91057049592334,118.06217579139762L167.95525132894514,118.2211326206764L167.99993216196697,118.33431410067462L168.22333632707594,118.49118411538544L168.42440007567404,118.66525756992203L168.44674049218494,118.7785784245355L168.46908090869584,118.85544662085535L168.51376174171767,118.91931451239175L168.73716590682665,119.04628993723408L169.40737840215365,119.38762649048307L169.51908048470816,119.6365004033999L169.76482506632803,119.88266207223754L169.96588881492616,120.10946479763966L170.18929298003516,120.33330817258147L170.23397381305693,120.48515029005831L170.41269714514416,120.64634062024469L171.03822880744934,120.98763640978788L171.12759047349294,121.2272620072275L171.68610088626542,121.58830983748015L171.75312213579815,121.83094941768505L172.24461129903793,122.16687434682977L172.35631338159243,122.41158746660874L172.49035588065783,122.61015592760573L172.84780254483223,122.8670068425556L173.11588754296304,123.12414385712663L173.22758962551754,123.32128877476755L173.6073767062028,123.5850200722512L173.65205753922464,123.76034132893474L173.74141920526822,123.89967817087629L173.76375962177912,123.99181327758971L173.89780212084452,124.09825500735731L173.96482337037722,124.18767950963229L174.12120628595352,124.30091694597019L174.25524878501892,124.41986960096614L174.45631253361702,124.56764939562757L174.83609961430233,124.80029204073267L175.05950377941133,125.0243531349524L175.126525028944,125.18409993277457L175.34992919405303,125.36421263739176L175.6626950252056,125.58997724985683L176.243545854489,125.94316210344311L177.137162514925,126.48783481417308L177.7403537607193,127.03771783467913L177.8743962597847,127.41705096911596L178.0084387588501,127.69399266488499L178.0531195918719,127.8765910417452L178.20950250744818,128.04361081042956L178.2318429239591,128.15202507292278L178.72333208719888,128.3970695492979L178.7903533367316,128.56857603155925L178.924395835797,128.7203900884997L179.1031191678842,128.87659249663784L179.147800000906,128.98657486157813L179.2595020834605,129.09318637634254L179.54992749810216,129.26255875470937L179.6169487476349,129.3884631786703L179.6616295806567,129.48018437762266L179.6839699971676,129.54330417260255L179.7509912467003,129.60542519467842L180.35418249249457,129.8602042260804L180.82333123922348,130.18132301681172L180.89035248875618,130.39796445804092L181.11375665386518,130.60772723080743L181.51588415106139,130.87671723618436L181.8509903987249,131.156925240635L181.94035206476846,131.35666245810393L182.052054147323,131.51597692266313L182.16375622987746,131.65099050686712L182.38716039498647,131.81070678249813L182.72226664264997,132.02424122594974L182.83396872520447,132.19150013081338L182.90098997473717,132.3153160108762L183.05737289031345,132.44427869518654L183.23609622240068,132.58402333202196L183.30311747193335,132.69122521065145L183.66056413610778,132.8798157926116L183.79460663517315,133.03944089677776L184.21907454888026,133.28191021681658L184.37545746445656,133.4812576853934L184.44247871398923,133.62392141631486L184.62120204607646,133.77091355209492L184.77758496165276,133.9127242886526L184.84460621118546,134.02075834306672L184.97864871025084,134.13142128036603L185.02332954327267,134.2130826703064L186.05098870277402,134.61093637360335L186.25205245137215,134.9173985849649L186.85524369716643,135.30352858743527L187.03396702925363,135.59484314253834L187.07864786227543,135.78452096930488L187.30205202738443,135.9726446281371L187.41375410993894,136.12259877353014L187.43609452644986,136.21998066074624L187.9499241062005,136.4482537576092L188.32971118688585,136.7100362403864L188.37439201990765,136.8817498939923L188.59779618501665,137.05787040010244L188.73183868408202,137.20729616620736L189.15630659778913,137.43499316282768L189.29034909685453,137.615041911351L189.67013617753983,137.84570189233452L189.91588075915973,138.0631113444849L189.93822117567063,138.20072697768896L190.00524242520333,138.30479306327592L190.13928492426874,138.4101679139502L190.3850295058886,138.5519010516282L190.5637528379758,138.69387117870207L190.83183783610662,138.86418337259641L191.32332699934642,139.12161167726757L191.36800783236822,139.29012795809084L191.50205033143362,139.43336235116848L191.8818374121189,139.63821748632708L191.9265182451407,139.77507728561804L192.5073690744241,140.03768443530086L192.5743903239568,140.21597549460753L192.9094965716203,140.426278639225L193.91481531461082,140.8593470874799L194.1158790632089,141.18000377777958L194.2946023952961,141.4262977170453L194.6297086429596,141.6747341732059L194.8531128080686,141.8906091524755L194.8754532245795,142.0268027098534L194.89779364109037,142.11518521741684L194.96481489062307,142.18819846460835L195.0094957236449,142.24531774157137L195.16587863922118,142.3261028979897L195.18821905573208,142.38120961146427L195.23289988875388,142.42753719041784L195.5456657199065,142.5479149923309L195.88077196756998,142.71881981199388L195.99247405012449,142.85413606371014L196.104176132679,142.96803931514174L196.1265165491899,143.04291693670663L196.1488569657008,143.09437643450215L196.1711973822117,143.1317834105264L196.52864404638606,143.25839358923676L196.7073673784733,143.3862123162475L196.9084311270714,143.5210529540479L197.13183529218037,143.66633816891624L197.51162237286567,143.86239979938472L197.73502653797468,144.0437613518509L198.04779236912728,144.24138179828776L198.8520473635197,144.58609343477252L199.16481319467226,144.87999789069715L199.29885569373766,145.09351057820552L199.90204693953197,145.38776953699102L199.94672777255377,145.57655986795157L199.99140860557557,145.70205913715938L200.50523818532625,145.91722073378364L200.54991901834805,146.05841645331796L201.24247193018596,146.32936947205997L201.37651442925136,146.52770432403395L201.46587609529493,146.67049637262886L201.57757817784946,146.78585258612702L201.68928026040393,146.88468359486134L201.84566317598026,146.98533908519758L201.95736525853474,147.07519534329936L202.09140775760017,147.16438063184924L202.31481192270917,147.27647120658685L202.49353525479634,147.39040334346313L202.53821608781814,147.47040612532064L203.05204566756882,147.6515639161669L203.76693899591763,147.9432282644377L204.16906649311383,148.219968830659L204.19140690962476,148.3916405141212L204.23608774264653,148.5058905232791L204.34778982520103,148.60251134703572L204.41481107473373,148.6772950295638L204.7052364893754,148.79473803832366L204.79459815541904,148.88744357608766L205.50949148376782,149.11945806655274L205.59885314981145,149.28052372193562L205.84459773143132,149.4370500902501L206.17970397909482,149.61210685890242L206.69353355884553,149.84038232886658L206.8499164744218,150.01457254178635L206.98395897348723,150.15088854794425L207.20736313859624,150.2854643602144L207.45310772021614,150.42396110100964L207.85523521741231,150.60085131960645L207.87757563392321,150.7121701635731L208.01161813298862,150.81001263313732L208.50310729622842,150.9817293125953L208.52544771273932,151.08986467803143L208.79353271087012,151.2157954650074L209.1286389585336,151.36710807753335L209.1733197915554,151.4679492979868L209.4637452061971,151.59353313194552L209.7318302043279,151.7285408543969L209.7765110373497,151.81944949201417L209.9999152024587,151.9233480222589L210.156298118035,152.02006901889388L210.2233193675677,152.0927949315184L210.31268103361128,152.15598257422326L210.7371489473184,152.2861567975187L211.049914778471,152.4315969722071L211.0945956114928,152.5284355792404L211.8541697728634,152.7475817115452L211.8765101893743,152.8837565558281L212.0328931049506,152.9981925362358L212.14459518750508,153.0901485377372L212.3009781030814,153.17781542191926L212.45736101865768,153.26276962114585L212.59140351772308,153.34136346339938L212.79246726632118,153.4297599552483L212.90416934887568,153.5056092687077L213.2616160130501,153.62363646445368L213.55204142769176,153.75283448235322L213.6414030937354,153.84821943670073L213.77544559280076,153.9321639542202L214.13289225697517,154.05326072445263L214.1999135065079,154.13909886363965L214.71374308625857,154.29078625863954L215.24991308252015,154.4847090118116L215.33927474856378,154.61805205761402L215.67438099622726,154.76135438136149L216.00948724389076,154.90997738679764L216.05416807691256,155.00745381484444L216.09884890993436,155.0742304893053L216.12118932644526,155.11843778402417L216.16587015946706,155.1532356796371L216.76906140526137,155.28466148948627L217.52863556663195,155.49968309722325L217.68501848220828,155.65630777411016L217.72969931523005,155.75814504537104L217.99778431336085,155.86617479787037L218.33289056102436,155.98905308544389L218.44459264357883,156.0819853523408L219.02544347286224,156.23641694741795L219.11480513890584,156.34407798987112L219.20416680494944,156.42362892297064L219.29352847099304,156.48626614997107L219.31586888750397,156.5275677391632L219.60629430214564,156.60042727977591L219.62863471865654,156.64782052022474L219.89671971678735,156.72015298568581L219.98608138283095,156.77808899160613L220.38820888002715,156.87767186158771L220.65629387815792,156.98009592720723L221.08076179186503,157.10823304430636L221.25948512395223,157.2128670651292L221.61693178812664,157.33057215369922L221.63927220463754,157.40460225675804L222.37650594949721,157.55975836489944L222.57756969809535,157.6824805684022L222.84565469622612,157.7952359287852L223.2924630264441,157.92711923007178L223.35948427597683,158.01577868113407L223.67225010712943,158.11308216607335L224.1637392703692,158.23956667618884L224.3201221859455,158.33681583440614L224.7445900996526,158.45238127943207L225.01267509778341,158.55728616060563L225.10203676382702,158.63198585532862L225.5041642610232,158.72910243308493L225.6828875931104,158.8102951422813L225.9286321747303,158.8902073237083L226.4201213379701,158.99942675137146L226.7105467526118,159.10046127946887L226.84458925167718,159.17729143170874L226.9339509177208,159.23413382575708L226.9562913342317,159.27091756367614L227.4254400809606,159.34851602019873L228.3413971579075,159.49953667789438L228.3637375744184,159.5926315262944L228.3860779909293,159.65096773139032L228.6318225725492,159.7130361842359L228.69884382208187,159.75759357162931L228.8552267376582,159.8012900767632L229.34671590089798,159.87982039210755L229.65948173205058,159.95943982755855L230.01692839622498,160.04360367229825L230.2626729778449,160.11865577621924L230.62011964201926,160.19872339026088L230.77650255759556,160.26183935827132L230.79884297410646,160.30184994648923L231.22331088781357,160.365938218L231.26799172083537,160.40854420945487L231.31267255385717,160.43824820196906L231.89352338314058,160.50874855094096L231.98288504918415,160.55896373982233L232.11692754824958,160.6008705562716L232.29565088033678,160.64154146336548L232.31799129684768,160.66787063284272L232.38501254638035,160.68942902950798L232.69777837753296,160.7288719826222L233.16692712426186,160.79113660549484L233.59139503796894,160.86221416940325L233.61373545447984,160.90660366996846L233.70309712052347,160.9401774703048L234.10522461771964,160.99092386434708L234.30628836631774,161.0362868457232L234.66373503049215,161.08938477984833L234.79777752955755,161.1307386874964L234.99884127815565,161.1695789587766L235.17756461024283,161.20513589093187L235.64671335697173,161.257663620023L235.91479835510253,161.3063739425711L235.98181960463523,161.33982678773503L236.18288335323334,161.3724061476897L236.33926626880964,161.40150319284552L236.45096835136414,161.42568665722186L236.74139376600584,161.457308611791L237.56798917690912,161.5220278412237L237.72437209248542,161.5690213475337L237.90309542457263,161.60635330410068L238.26054208874703,161.64640923347153L238.32756333827973,161.67366212788227L238.483946253856,161.69741344809734L238.7296908354759,161.72297480572024L238.8860737510522,161.7453072207719L238.9084141675631,161.75969321916378L238.9977758336067,161.77223890636617L239.154158749183,161.78649245695226L239.3999033308029,161.8052965420521L239.57862666289014,161.82379100084455L239.66798832893372,161.83841662458795L239.73500957846642,161.84980499201257L239.75734999497732,161.85750258605006L240.00309457659722,161.8714194808909L240.047775409619,161.88141845744713L240.13713707566262,161.8906769864044L240.7850091544787,161.91832301983095L241.1871366516749,161.94726218691525L241.20947706818583,161.96528132735273L241.2318174846967,161.97674523830023L241.3658599837621,161.98747056276088L242.08075331211091,162.01246640358153L242.4828808093071,162.03645562092376L242.6392637248834,162.05406415267854L242.9073487230142,162.06977351758468L243.08607205510137,162.0823709272183L243.1084124716123,162.09031134853547L243.4211783027649,162.10008496054581L243.5105399688085,162.10726437351838L243.86798663298288,162.1163173842652L244.00202913204828,162.12331599060641L244.2030928806464,162.1296477864459L244.56053954482078,162.1365935177828L244.62756079435349,162.14125907967386L244.64990121086439,162.14421801018688L244.8733053759734,162.1474119890549L244.94032662550606,162.14969109557123L245.0967095410824,162.15179206273217L245.2977732896805,162.15376358285243L245.74458161989847,162.15500167650865" fill="none"></path></g></g></g></g><g opacity="0.2"><g><g><g><path style="fill: none;" stroke="rgb(255, 112, 67)" stroke-width="2px" d="M23.099990672270458,152.13399953903692L23.122331088781355,151.83916602071994L23.189352338314055,150.9546661522314L23.368075670401257,148.59599937862032L23.79254358410835,142.99416596290965L24.08296899875005,139.16133365710078L24.21701149781545,137.39233392012366L24.35105399688085,135.62333418314654L24.395734829902647,135.03366577358793L24.887223993142445,128.54733248938868L24.976585659186043,127.3679984161208L25.222330240805945,124.12483177402119L25.244670657316842,123.82999894216657L25.267011073827742,123.53516611031193L25.356372739871343,122.35583203704407L25.44573440591494,121.17650070962557L25.490415238936745,120.58683230006693L25.691478987534843,117.93333406752595L26.182968150774638,111.44699803747733L26.24998940030734,110.56249954191347L26.317010649840036,109.67800104634959L26.406372315883637,108.49866422723234L26.495733981927234,107.31933289981384L26.585095647970835,106.14000157239535L26.719138147036233,104.37099908956885L27.36701022585233,95.82083049068848L27.43403147538503,94.93633199512462L27.99254188815753,87.5655002153615L28.014882304668426,87.27066738350689L28.037222721179326,86.97583455165227L28.282967302799225,83.73266790955266L29.71275395949682,64.86333372066417L29.757434792518616,64.27366805695495L29.802115625540413,63.68400239324569L30.27126437226931,57.49249644920231L30.360626038312912,56.313165121783825L30.74041311899821,51.30100148855645L30.986157700618108,48.05783484645684L31.008498117129008,47.76299652290345L31.231902282238007,44.81466820435723L31.477646863857906,41.571501562257595L32.1925401922067,32.1368289761146L32.3042422747612,30.662670308540257L32.795731438001,24.176337024341013L32.81807185451189,23.88149870078762L32.8404122710228,23.58667136063178L32.974454770088194,21.817663386106492L33.019135603109994,21.22799772239726L33.3319014342626,17.100338076432536L33.46594393332799,15.331330101907266L33.66700768192609,14.741862139353728L34.069135179122284,14.744190619632132L34.09147559563319,14.744388320787845L34.64998600840568,14.75215358284834L34.672326424916584,14.752559968557318L34.851049757003786,14.756173506347839L35.07445392211278,14.761412586974235L35.230836837689075,14.765564311244209L35.49892183581988,14.773593174845672L35.54360266884168,14.775042983320901L36.01275141557058,14.792221017072851L36.07977266510328,14.794955883060215L36.30317683021227,14.80463225629262L36.973389325539266,14.83847210411217L37.10743182460467,14.846116548799742L37.15211265762647,14.84871961401663L37.75530390342077,14.887117571815114L38.157431400616964,14.915970957151686L38.42551639874777,14.936652694718784L38.89466514547666,14.975632772586874L38.91700556198756,14.977576833951385L39.252111809651055,15.00770429340254L39.43083514173826,15.024519875035683L39.72126055637995,15.052922941073124L39.967005137999855,15.078030987848681L40.50317513426145,15.136155127628317L40.65955804983775,15.15398118183511L40.882962214946744,15.180132651376937L41.15104721307755,15.21256662431141L41.19572804609935,15.218080289876308L41.37445137818654,15.240475437459569L41.75423845887184,15.289757942219822L41.84360012491544,15.301685911947843L41.99998304049174,15.322883869199291L42.24572762211164,15.356965351764725L42.40211053768794,15.379162798192272L42.625514702796934,15.411552837536593L42.737216785351436,15.4280499006411L42.93828053394954,15.458232277079958L43.11700386603673,15.485613887146215L43.58615261276563,15.559916571501702L44.01062052647273,15.630177365562606L44.03296094298363,15.633944670918705L44.05530135949453,15.637733943069872L44.09998219251633,15.645334454167273L44.502109689712526,15.715111978736445L44.68083302179972,15.74695284820378L44.74785427133242,15.759023602099827L44.971258436441424,15.799782990369334L45.14998176852862,15.832952850938955L45.172322185039526,15.837137525401548L45.19466260155042,15.841333183261693L45.61913051525752,15.922467540886814L45.66381134827932,15.931166391738188L45.70849218130112,15.939909176179714L46.132960095008215,16.02450330402983L46.199981344540916,16.038122716978947L46.24466217756271,16.047238936936832L46.26700259407362,16.05181901371085L46.44572592616081,16.08866831245625L46.46806634267171,16.093314289615506L46.512747175693505,16.102617227331553L46.69147050778071,16.1401694635195L46.9818959224224,16.202280576606015L47.272321337064106,16.265709697397284L47.5627467517058,16.330478792688393L48.0318954984347,16.437929370818434L48.2552996635437,16.49030919368484L48.8138100763162,16.624724012774646L48.925512158870696,16.652193490021208L48.947852575381596,16.657707155586106L49.19359715700149,16.718917630074362L49.439341738621394,16.78108366014858L50.020192567904786,16.931775874392077L50.24359673301379,16.991141138093695L50.28827756603559,17.00311304141187L50.51168173114459,17.063411893904348L50.601043397188185,17.08775110285214L50.75742631276449,17.13065225364187L51.181894226471584,17.249009345528748L51.40529839158058,17.312438466320017L51.67338338971138,17.389574867240725L52.164872552951174,17.53389671091125L52.835085048278174,17.73674908007037L53.326574211517965,17.88992354215783L53.79572295824686,18.03962725062276L54.44359503706296,18.251936325063507L54.55529711961746,18.289192009517866L54.73402045170466,18.349205293674327L55.58295627911886,18.640957282519082L55.739339194695155,18.695907220409776L56.07444544235865,18.81491233275148L56.52125377257665,18.976247459210878L56.58827502210935,19.000707485531592L57.05742376883825,19.173860747743603L57.303168350458144,19.26590161912556L57.70529584765434,19.418471994348348L58.66593375762304,19.792841099486072L58.68827417413394,19.80170470130054L58.71061459064484,19.810590269910094L58.93401875575383,19.89979742472683L59.090401671330135,19.962688359038665L59.47018875201543,20.116939194084996L60.49784791151682,20.545159897359458L60.54252874453862,20.56413920830791L60.56486916104952,20.573639847179688L60.63189041058222,20.602174713987605L60.788273326158524,20.669030654811234L61.61486873706182,21.028440372500004L61.63720915357272,21.038292480093038L61.815932485659914,21.117394909173342L62.30742164889971,21.337337444904108L62.441464147965114,21.39794383252769L62.463804564476014,21.408070525059227L62.508485397497815,21.428334893519814L62.620187480052316,21.4791550739356L63.089336226781214,21.694572449880052L63.22337872584661,21.756705529761636L63.536144556999204,21.902718816653273L63.603165806531905,21.934186250604267L63.670187056064606,21.96573056833803L63.7372083055973,21.9973298030595L63.8712508046627,22.060736957055685L64.0052933037281,22.124407712592838L64.09465496977171,22.167001328251448L64.1169953862826,22.17766620726242L64.3850803844134,22.306215892066053L65.2563566283385,22.7311855096688L65.70316495855648,22.95336865849765L65.83720745762189,23.020576068042534L66.08295203924179,23.14447977568693L66.28401578783989,23.24648258863731L66.32869662086169,23.269229204941862L66.5967816189925,23.406312989633776L66.99890911618868,23.613855269542324L67.06593036572139,23.648672639742887L67.33401536385217,23.788568174204954L68.24997244079907,24.274210079816523L68.47337660590809,24.394445332682675L68.49571702241897,24.406516086578705L68.51805743892987,24.4185758570772L68.56273827195167,24.442739331664345L68.74146160403888,24.539667814951443L69.03188701868058,24.698114307857917L69.07656785170236,24.722596300973716L69.61273784796397,25.01855493107615L69.97018451213837,25.218079330780768L70.03720576167106,25.2556864839564L70.08188659469288,25.280783547334423L70.12656742771466,25.3059245443026L70.30529075980186,25.406730166921168L70.32763117631276,25.41937205748927L70.88614158908527,25.73741830004386L71.22124783674876,25.930308727634557L71.39997116883595,26.03381626604789L71.42231158534686,26.046776675144628L71.73507741649945,26.229057140712058L72.00316241463025,26.386361360274407L72.33826866229374,26.584359067721024L72.44997074484824,26.650698788860286L72.56167282740275,26.71720326096266L72.60635366042455,26.74384898339375L72.94145990808805,26.944592540225283L73.16486407319704,27.079248994060936L73.29890657226244,27.160372368288524L73.61167240341504,27.350593830277095L73.92443823456765,27.542122316572886L74.17018281618755,27.693528451656462L74.19252323269843,27.707334582363757L74.23720406572023,27.73495782717588L74.48294864734014,27.88738541823064L74.57231031338374,27.943016326768795L74.59465072989464,27.95693229145148L74.81805489500364,28.096531274179977L74.92975697755814,28.166583383687634L74.99677822709083,28.20868274645696L75.01911864360173,28.22273051191014L75.10848030964534,28.27899845750557L75.46592697381972,28.505091695858525L75.59996947288512,28.59030089397085L75.71167155543962,28.661506260220165L75.86805447101592,28.76144419443311L76.00209697008133,28.84737829678305L76.22550113519033,28.9910960535889L76.51592654983202,29.17892313491383L76.91805404702822,29.440778315655763L77.00741571307182,29.499264907554206L77.07443696260452,29.54318751431512L77.40954321026803,29.763679219922874L77.61060695886611,29.896666197332518L77.72230904142062,29.970771180532292L78.10209612210592,30.223938493820384L78.1467769551277,30.253835301923207L78.30315987070401,30.358704781631445L78.973372366031,30.811649112767572L79.04039361556372,30.8572631627496L79.66592527786891,31.285648616987157L79.68826569437981,31.30104734033769L80.0233719420433,31.532654244255525L80.1127336080869,31.59465552336665L80.1797548576196,31.641214145537074L80.2691165236632,31.703391159008827L80.4478398557504,31.828041737685904L80.5148611052831,31.874885928192345L80.58188235481579,31.921785035686508L80.760605686903,32.047116585011025L80.84996735294659,32.109930635540096L81.0733715180556,32.26741058946307L81.3637969326973,32.47304175819973L81.7212435968717,32.72754904598766L81.8329456794262,32.80739834610064L81.8552860959371,32.82339017291831L82.12337109406789,33.015731430632044L82.34677525917688,33.176682138177526L82.3914560921987,33.20895136014893L82.4361369252205,33.241231565517836L82.48081775824228,33.27354472107939L82.547839007775,33.322058388011854L82.61486025730768,33.370626971932026L83.03932817101479,33.679469127348426L83.50847691774368,34.023337337518655L83.68720024983088,34.15502827401863L83.86592358191808,34.28710362943248L84.08932774702707,34.452722280932335L84.26805107911429,34.58564335795674L84.35741274515787,34.65224668063695L84.58081691026688,34.81916137304647L85.56379523674647,35.56052972357284L85.69783773581186,35.662499586330625L85.74251856883367,35.69653713530589L85.94358231743176,35.8499751989343L86.07762481649716,35.9525381651592L86.32336939811707,36.141090150721766L86.47975231369337,36.261435237563305L86.63613522926966,36.38206589274088L86.65847564578056,36.399320810275626L87.06060314297676,36.71089783167939L87.08294355948766,36.72826258318952L87.12762439250946,36.76300306960731L87.39570939064026,36.97194024100338L87.55209230621657,37.09419643901681L87.59677313923835,37.12917856018049L87.97656021992366,37.427410753573625L88.13294313549996,37.55068840755824L88.22230480154356,37.62125673675027L88.35634730060896,37.72726848980261L88.37868771711985,37.7449517598414L88.42336855014165,37.780351250111565L88.51273021618525,37.85120514763963L89.40634687662126,38.56457681783755L90.03187853892643,39.069143117409865L90.07655937194825,39.10535537909797L90.50102728565534,39.45035487921477L90.88081436634064,39.76067979329902L91.01485686540605,39.870579669080385L91.05953769842783,39.907253233465156L91.14889936447145,39.980666262619934L91.43932477911314,40.21984072744257L91.70740977724394,40.44139782261166L91.84145227630934,40.55247292192978L92.06485644141833,40.73800447316894L92.31060102303823,40.942691069717185L92.84677101929982,41.391461709788246L92.98081351836522,41.504107434954534L93.13719643394153,41.635776404659424L93.15953685045241,41.65461293143987L93.22655809998513,41.711133495178714L93.24889851649603,41.72998100535669L93.27123893300691,41.7488394989322L93.78506851275762,42.18391384227138L93.80740892926852,42.20289315321983L93.9637918448448,42.33588013062948L94.36591934204101,42.67896851957441L94.43294059157371,42.736312838128725L94.67868517319361,42.94694145274589L95.34889766852062,43.52443751198126L95.39357850154241,43.56309907132069L95.90740808129311,44.00906894501918L95.9520889143149,44.04797213910447L96.1308122464021,44.203771633203914L96.376556828022,44.4185080385009L96.53293974359829,44.55546002242234L96.5552801601092,44.57504342023546L96.5776205766201,44.59462681804861L97.0244289068381,44.98740409746273L97.0691097398599,45.026790561039775L97.33719473799069,45.26348277801847L97.3595351545016,45.28324191019222L97.60527973612149,45.500855965644604L97.6499605691433,45.54048406396751L97.85102431774139,45.71904115776901L98.1414497323831,45.97762328604415L99.05740680932999,46.79828078340901L99.10208764235178,46.83851296859662L99.37017264048258,47.08026853184106L99.45953430652618,47.16099650375722L99.6605980551243,47.34291451720584L99.77230013767878,47.44412652553339L100.08506596883139,47.728135219112716L100.10740638534229,47.74845450456101L100.26378930091857,47.890810320071935L100.39783179998398,48.01301160109769L100.46485304951669,48.07416715859826L100.53187429904938,48.135366649688976L100.82229971369107,48.401011102582075L101.04570387880008,48.60586245009341L101.17974637786547,48.72897535311493L101.26910804390907,48.81114215010879L101.29144846041997,48.83169208690542L101.35846970995267,48.89337484748789L101.67123554110526,49.18174394989043L101.96166095574698,49.45026605293893L102.09570345481238,49.57444434552178L102.67655428409577,50.11431128478644L102.92229886571566,50.34356774163078L103.01166053175926,50.42706352972692L103.05634136478106,50.46883339057008L103.19038386384646,50.59424182367739L103.36910719593367,50.761694702566345L103.45846886197727,50.84551999258868L103.88293677568436,51.244568791997935L103.90527719219526,51.265612981683816L103.97229844172794,51.328778500934135L104.10634094079334,51.4551974066151L104.24038343985875,51.58175909646407L104.30740468939146,51.64510035007501L104.55314927101135,51.877651826181264L104.97761718471845,52.28045694754907L105.35740426540376,52.64208531154085L105.49144676446915,52.76998697588964L105.84889342864354,53.11174637373226L105.91591467817625,53.17593334895376L106.09463801026344,53.34727435057174L106.34038259188334,53.58327461350544L106.38506342490514,53.62623068128285L106.56378675699234,53.79821970335567L106.67548883954683,53.905835032448806L106.94357383767763,54.16449404450671L107.05527592023213,54.272427892128505L107.36804175138474,54.57513032832024L107.59144591649373,54.79179981158421L107.72548841555913,54.921975039223724L107.79250966509184,54.987117570031174L107.81485008160273,55.00883174696699L108.08293507973353,55.269764322315595L108.12761591275533,55.313302510162615L108.28399882833162,55.46579600160261L108.30633924484253,55.487598045718755L108.52974340995152,55.70579422124072L108.61910507599514,55.79317813206589L109.71378548502922,56.8681561994605L109.84782798409462,57.00036335564482L109.93718965013822,57.08857102128546L110.45101922988891,57.59682774243109L110.47335964639983,57.61895928847342L110.87548714359602,58.01803005467774L110.89782756010692,58.040227501105306L110.92016797661782,58.062435930930405L111.29995505730311,58.44042955725622L111.36697630683581,58.507241564489675L111.6574017214775,58.79706047536747L111.72442297101021,58.86402625016649L112.2605929672718,59.400751937734796L112.79676296353341,59.93931185269223L112.9308054625988,60.07423190806885L113.0648479616642,60.209261797420865L113.1988904607296,60.344412504145794L113.39995420932769,60.54733077369018L113.51165629188219,60.66017420001215L113.55633712490399,60.70533793069505L113.8020817065239,60.95392516720912L114.0254858716329,61.180227090115324L114.0478262881438,61.202874855842026L114.22654962023098,61.38415583223333L114.58399628440539,61.74728892168805L115.2318683632215,62.40735816362621L115.81271919250489,63.00118653500297L115.87974044203759,63.06983276962558L116.39357002178828,63.596893067359005L116.92974001804987,64.14841339141317L117.13080376664797,64.35562616939553L117.26484626571337,64.4938851776242L117.55527168035508,64.7937758640458L117.71165459593136,64.95544049243139L117.73399501244226,64.97854956085473L117.89037792801857,65.14035697340833L118.00208001057307,65.2560011661029L118.42654792428016,65.69605098852753L118.85101583798728,66.13700144955043L118.96271792054176,66.25319481212199L119.14144125262897,66.43922061625044L119.16378166913987,66.46248345223934L119.43186666727067,66.74183518526188L119.83399416446686,67.16149982185297L120.77229165792465,68.14364621324277L121.91165289998054,69.34148456551551L121.93399331649144,69.36503296984046L122.13505706508954,69.57701254235499L122.29143998066584,69.74199415679753L122.91697164297105,70.40293657884011L123.18505664110184,70.68667068748096L123.20739705761274,70.71032892578128L123.29675872365632,70.80497835407891L123.38612038969994,70.89966073256915L123.58718413829804,71.11280454522287L123.65420538783073,71.1838836024005L123.96697121898333,71.5158238428427L124.14569455107053,71.70566088591738L124.25739663362504,71.82437493822431L124.30207746664684,71.87187264088438L124.81590704639753,72.41860420361125L124.97228996197383,72.58518939409458L125.12867287755013,72.75185696005946L125.32973662614823,72.96626386343026L125.41909829219182,73.0615997540741L125.48611954172453,73.13312363885207L125.55314079125722,73.20465850702757L125.84356620589891,73.51481867014873L125.97760870496431,73.65806414086036L126.22335328658421,73.92083094359809L126.37973620216052,74.0881465300178L126.51377870122592,74.23162265207776L126.58079995075862,74.30338267990284L126.64782120029132,74.37515369112543L126.7818636993567,74.51873964716081L126.938246614933,74.68632432682024L127.20633161306381,74.97378729892579L127.56377827723821,75.3573989330931L127.831863275369,75.64534517469039L127.8542036918799,75.66935488171197L128.07760785698892,75.90947941042178L128.2339907725652,76.07765170184959L128.278671605587,76.12570955778418L128.3680332716306,76.2218472364484L128.6807991027832,76.5584993544351L129.7307986787955,77.6905032218554L130.6020749227206,78.63180784949415L130.8478195043405,78.8976060699528L131.2276065850258,79.30863226437901L131.4286703336239,79.52635615380676L131.78611699779827,79.91360878425847L132.03186157941818,80.17998363308796L132.18824449499448,80.34955081600327L132.32228699405988,80.49493255753637L132.36696782708168,80.54339679917992L132.59037199219068,80.78578390778289L132.70207407474518,80.9070076664276L132.9254782398542,81.14952108410228L133.26058448751766,81.5134339947823L133.3276057370504,81.58623744537363L133.55100990215936,81.82896503930033L134.39994572957355,82.75196583493931L134.62334989468255,82.99501194739466L135.33824322303136,83.77316369628122L135.78505155324933,84.25977763257504L135.80739196976026,84.28411134982406L135.96377488533656,84.454474829061L136.29888113300004,84.81960689686791L136.36590238253277,84.89264649050632L136.38824279904367,84.9169911911529L136.54462571461994,85.08743155417261L136.67866821368537,85.23353270824455L136.85739154577254,85.428361705501L137.01377446134885,85.59884600211089L137.48292320807775,86.11040323421716L137.86271028876305,86.5246036305323L138.01909320433936,86.69517030262374L138.17547611991563,86.86575344981148L138.26483778595926,86.96323110297556L138.30951861898106,87.01196992955758L138.33185903549196,87.03634208869799L138.73398653268814,87.47502996982772L139.09143319686254,87.86500648286923L139.42653944452604,88.23062731186667L139.73930527567865,88.57187598172371L139.96270944078765,88.8156195399228L140.05207110683122,88.91311915988196L140.14143277287485,89.01061877984111L140.16377318938575,89.03499093898152L140.40951777100565,89.30310116462226L140.45419860402743,89.35185097460183L140.63292193611463,89.54682824772505L140.74462401866913,89.66868904342708L140.99036860028903,89.9367663188752L141.34781526446343,90.32666594813395L142.28611275792125,91.34986278782804L142.73292108813922,91.83691606002346L142.97866566975912,92.1047352256294L143.42547399997713,92.59155235477772L143.44781441648803,92.61588607202673L143.5595164990425,92.73756014997055L143.6041973320643,92.78622758446858L143.9839844127496,93.19981291052153L144.5424948255221,93.8077494560379L144.9669627392292,94.26953542219343L145.1010052382946,94.41531805773671L145.5701539850235,94.92536507268132L146.1733452308178,95.58067850348483L146.2180260638396,95.62919766211607L146.4414302289486,95.87174402998338L146.4637706454595,95.89599537175084L146.57547272801398,96.01723560549186L146.86589814265568,96.33236575599969L146.97760022521018,96.45352910595794L147.42440855542822,96.9379683295389L147.9829189682007,97.54298878300854L148.0946210507552,97.66392148161846L148.22866354982057,97.80900667141798L148.47440813144047,98.07489825075571L148.49674854795137,98.09906172534288L148.76483354608217,98.38896850340097L149.09993979374568,98.75112407047466L149.36802479187648,99.04067388811274L149.52440770745275,99.20949969169413L149.81483312209446,99.52287799029439L149.83717353860536,99.54697556449631L149.85951395511628,99.57107313869822L149.97121603767079,99.69153355121392L150.48504561742146,100.24526702987234L150.61908811648686,100.38961084033795L150.68610936601956,100.46176627047443L151.04355603019397,100.84637739381786L151.31164102832477,101.13461469544995L151.40100269436834,101.23064803183756L151.44568352739014,101.27865646248321L151.53504519343377,101.3746568486782L151.62440685947735,101.47063526807811L151.64674727598825,101.49462300830463L151.98185352365175,101.85431280263069L152.16057685573895,102.0460170232871L152.36164060433705,102.26156620000201L152.85312976757686,102.787945527088L152.96483185013136,102.90747235081284L153.03185309966403,102.9791664782527L153.16589559872946,103.12251629124096L153.34461893081664,103.313561508045L153.43398059686027,103.40904567455563L153.74674642801284,103.74303431863898L154.01483142614364,104.02904748226928L154.39461850682895,104.43380764839912L154.77440558751425,104.83806806994093L154.81908642053605,104.88559323109483L155.06483100215596,105.14685530836962L155.13185225168863,105.21807165801647L155.22121391773223,105.31300116295135L155.26589475075406,105.36045493202127L155.37759683330853,105.47905365865401L156.02546891212464,106.16601025776916L156.33823474327724,106.49706633470942L156.76270265698432,106.94573263250388L157.09780890464782,107.29942549177329L157.14248973766962,107.346549758917L157.34355348626772,107.55851285633524L157.56695765137673,107.79382116522392L157.76802139997483,108.00542181052336L157.83504264950753,108.0759132559326L158.01376598159473,108.26380623764277L158.1478084806601,108.4046353608957L158.170148897171,108.42809589804031L158.59461681087814,108.87348914336796L159.0190847245852,109.31806961727769L159.04142514109614,109.34144777894075L159.3095101392269,109.62178252604308L159.33185055573782,109.6451332292123L159.8233397189776,110.15816772828767L160.0244034675757,110.36771447824718L160.0914247171084,110.4375194613102L160.4935522143046,110.85589904038916L160.7616372124354,111.13437759330729L161.1414242931207,111.52828067096924L161.2307859591643,111.62085972883065L161.2754667921861,111.66713278266504L161.38716887474058,111.78277148366085L161.4765305407842,111.87523521584811L161.5882326233387,111.99075859116977L161.67759428938228,112.08312896447791L162.07972178657852,112.49829589977655L162.6158917828401,113.05051916127324L162.9063171974818,113.34899298941224L162.9286576139927,113.37193181517374L162.9509980305036,113.39487064093522L162.9956788635254,113.44073730906065L163.04035969654717,113.4865984854873L163.3754659442107,113.83017014392397L163.4201467772325,113.87593796147154L163.95631677349408,114.42421818325153L164.24674218813578,114.72052279037645L164.35844427069028,114.83436021417577L164.4701463532448,114.94812075419232L164.5371676027775,115.01634412800964L164.7382313513756,115.22085499019724L165.0286567660173,115.51584158961742L165.11801843206086,115.60650953630692L165.63184801181157,116.12690291173384L165.85525217692057,116.3526639023112L165.96695425947507,116.46543044485041L166.14567759156228,116.64569820281872L166.32440092364945,116.8257655137819L166.39142217318218,116.89324201656655L166.54780508875845,117.05057369462273L166.99461341897646,117.49924822996533L167.24035800059636,117.74547678185779L167.30737925012906,117.81256337402975L167.75418758034706,118.25906594250888L167.91057049592334,118.41503293342079L167.95525132894514,118.45956786459453L167.99993216196697,118.50408632067199L168.22333632707594,118.72648913745162L168.42440007567404,118.9263677517269L168.44674049218494,118.9485597064557L168.46908090869584,118.9707489153351L168.51376174171767,119.01511634969636L168.73716590682665,119.23675307449761L169.40737840215365,119.89963132035653L169.51908048470816,120.00981127277518L169.76482506632803,120.25190457549397L169.96588881492616,120.44966888574285L170.18929298003516,120.66907323499419L170.23397381305693,120.71291346627355L170.41269714514416,120.88812611552424L171.03822880744934,121.4995800941027L171.12759047349294,121.58670040338691L171.68610088626542,122.12988158285913L171.75312213579815,122.1949087879924L172.24461129903793,122.6707617405468L172.35631338159243,122.7786571462772L172.49035588065783,122.90800861910121L172.84780254483223,123.25228321498042L173.11588754296304,123.50984937898313L173.22758962551754,123.61700615122898L173.6073767062028,123.98061701847666L173.65205753922464,124.02332321396007L173.74141920526822,124.10868343378857L173.76375962177912,124.13001593765988L173.89780212084452,124.25791760200869L173.96482337037722,124.32181626304477L174.12120628595352,124.47077310047702L174.25524878501892,124.59829858346009L174.45631253361702,124.78931908761967L174.83609961430233,125.14925600839034L175.05950377941133,125.36044477628205L175.126525028944,125.42372012950776L175.34992919405303,125.63438169431754L175.6626950252056,125.92862416855442L176.243545854489,126.47293938382259L177.137162514925,127.30484388026804L177.7403537607193,127.86254236543823L177.8743962597847,127.98605067077118L178.0084387588501,128.1094052085386L178.0531195918719,128.1504886070355L178.20950250744818,128.29414046345613L178.2318429239591,128.31464646666257L178.72333208719888,128.76463626386055L178.7903533367316,128.82583575495127L178.924395835797,128.94811117391043L179.1031191678842,129.11089610884503L179.147800000906,129.15154840898853L179.2595020834605,129.25310364848917L179.54992749810216,129.5166173222596L179.6169487476349,129.57731981461166L179.6616295806567,129.6177661760513L179.6839699971676,129.63798386507233L179.7509912467003,129.69860672779222L180.35418249249457,130.24237277318343L180.82333123922348,130.66300120290862L180.89035248875618,130.72292661988476L181.11375665386518,130.92237138995722L181.51588415106139,131.2802022442497L181.8509903987249,131.577237247311L181.94035206476846,131.6562682843073L182.052054147323,131.75494861950196L182.16375622987746,131.85351088317307L182.38716039498647,132.05028119594465L182.72226664264997,132.3445428911272L182.83396872520447,132.44238848810886L182.90098997473717,132.5010398309704L183.05737289031345,132.6377227216521L183.23609622240068,132.79364028727508L183.30311747193335,132.85202802859567L183.66056413610778,133.1627016655518L183.79460663517315,133.27887855302706L184.21907454888026,133.64561419687476L184.37545746445656,133.78027888825858L184.44247871398923,133.8379170126971L184.62120204607646,133.99140175576505L184.77758496165276,134.1254403934891L184.84460621118546,134.1828094246879L184.97864871025084,134.297415686315L185.02332954327267,134.335574755217L186.05098870277402,135.2077169285488L186.25205245137215,135.37709190200718L186.85524369716643,135.88272359114083L187.03396702925363,136.03181497519293L187.07864786227543,136.06903770945468L187.30205202738443,136.2548301163854L187.41375410993894,136.34752999161975L187.43609452644986,136.3660534915703L187.9499241062005,136.79066340290362L188.32971118688585,137.10270996455222L188.37439201990765,137.1393203744011L188.59779618501665,137.3220511592677L188.73183868408202,137.4314348153647L189.15630659778913,137.77653865775812L189.29034909685453,137.88511503413596L189.67013617753983,138.19169186380984L189.91588075915973,138.3892255227104L189.93822117567063,138.40715042749505L190.00524242520333,138.46089219165637L190.13928492426874,138.56823018996164L190.3850295058886,138.76450075814518L190.5637528379758,138.90682636931285L190.83183783610662,139.11965166343793L191.32332699934642,139.50775413427428L191.36800783236822,139.54290237932574L191.50205033143362,139.64821394078493L191.8818374121189,139.94550018906497L191.9265182451407,139.98036698455448L192.5073690744241,140.43159515982506L192.5743903239568,140.48341208356757L192.9094965716203,140.74173335615112L193.91481531461082,141.5089497598623L194.1158790632089,141.6609888132291L194.2946023952961,141.79573862594384L194.6297086429596,142.04738885744678L194.8531128080686,142.21442162137984L194.8754532245795,142.2310930459203L194.89779364109037,142.24775897876196L194.96481489062307,142.2977183353956L195.0094957236449,142.33099665701593L195.16587863922118,142.4472806326172L195.18821905573208,142.4638696816761L195.23289988875388,142.4970285588482L195.5456657199065,142.7284816952005L195.88077196756998,142.97517704148837L195.99247405012449,143.0571104412845L196.104176132679,143.13889419228914L196.1265165491899,143.15523336905403L196.1488569657008,143.1715656811954L196.1711973822117,143.18789387456275L196.52864404638606,143.4483088573023L196.7073673784733,143.5779404067636L196.9084311270714,143.72331391074854L197.13183529218037,143.8842659912187L197.51162237286567,144.15649224508743L197.73502653797468,144.31580368055015L198.04779236912728,144.53781246794304L198.8520473635197,145.1031608894996L199.16481319467226,145.32085457458413L199.29885569373766,145.41377960946804L199.90204693953197,145.8291579751693L199.94672777255377,145.8597453643924L199.99140860557557,145.8903080409711L200.50523818532625,146.23996312872L200.54991901834805,146.27021003261942L201.24247193018596,146.73579900017305L201.37651442925136,146.82520660199486L201.46587609529493,146.88468444552126L201.57757817784946,146.9588869063742L201.68928026040393,147.0329301079628L201.84566317598026,147.13632232070196L201.95736525853474,147.209979730452L202.09140775760017,147.2981585646741L202.31481192270917,147.44460706869324L202.49353525479634,147.56130154877755L202.53821608781814,147.59041029810692L203.05204566756882,147.92330060243629L203.76693899591763,148.3807247868439L204.16906649311383,148.63507967999098L204.19140690962476,148.64914803931453L204.23608774264653,148.67726553701593L204.34778982520103,148.7474425826706L204.41481107473373,148.78947055335593L204.7052364893754,148.9709025514634L204.79459815541904,149.02650188273364L205.50949148376782,149.46747980225038L205.59885314981145,149.52212220500994L205.84459773143132,149.6718396427218L206.17970397909482,149.87469201188094L206.69353355884553,150.1827955338128L206.8499164744218,150.27585786116595L206.98395897348723,150.35536255718114L207.20736313859624,150.48732807861958L207.45310772021614,150.63170621220252L207.85523521741231,150.86618664750165L207.87757563392321,150.87914842952307L208.01161813298862,150.9567763374837L208.50310729622842,151.23930433178222L208.52544771273932,151.2520677261856L208.79353271087012,151.40469164547136L209.1286389585336,151.59407699632223L209.1733197915554,151.61921112866696L209.4637452061971,151.7819088828836L209.7318302043279,151.931052438074L209.7765110373497,151.95581244844004L209.9999152024587,152.079195817626L210.156298118035,152.1651505138463L210.2233193675677,152.2018838004552L210.31268103361128,152.25076403828055L210.7371489473184,152.4814181324618L211.049914778471,152.64975723423976L211.0945956114928,152.6736934897903L211.8541697728634,153.07630091000237L211.8765101893743,153.08801882225245L212.0328931049506,153.16984650684728L212.14459518750508,153.22808253998934L212.3009781030814,153.30931574819235L212.45736101865768,153.39020091998577L212.59140351772308,153.45925422677968L212.79246726632118,153.5623546930217L212.90416934887568,153.61938323889675L213.2616160130501,153.80067725807265L213.55204142769176,153.94663150920252L213.6414030937354,153.99129686822204L213.77544559280076,154.0580807304993L214.13289225697517,154.2349058798013L214.1999135065079,154.26785607242013L214.71374308625857,154.51831735113942L215.24991308252015,154.77559314156966L215.33927474856378,154.81806662631772L215.67438099622726,154.97630786698264L216.00948724389076,155.13291189495186L216.05416807691256,155.1536684569147L216.09884890993436,155.1743955009966L216.12118932644526,155.1847487261024L216.16587015946706,155.20543252305652L216.76906140526137,155.48180020426003L217.52863556663195,155.82221550882875L217.68501848220828,155.89124478944052L217.72969931523005,155.91090095226235L217.99778431336085,156.0282194266194L218.33289056102436,156.17337051680414L218.44459264357883,156.22138375268622L219.02544347286224,156.46806434003366L219.11480513890584,156.50556955355088L219.20416680494944,156.54295532261986L219.29352847099304,156.58022199047178L219.31586888750397,156.5895201229514L219.60629430214564,156.709716590695L219.62863471865654,156.718910380898L219.89671971678735,156.82865168387738L219.98608138283095,156.86499300048658L220.38820888002715,157.02704616656013L220.65629387815792,157.13373202563648L221.08076179186503,157.30043871995508L221.25948512395223,157.36981809636345L221.61693178812664,157.50712978655432L221.63927220463754,157.51564741134627L222.37650594949721,157.79249252711156L222.57756969809535,157.8665638736564L222.84565469622612,157.96436896935958L223.2924630264441,158.1249441820017L223.35948427597683,158.14876785772748L223.67225010712943,158.2590373934823L224.1637392703692,158.42929344136206L224.3201221859455,158.48268957173207L224.7445900996526,158.625729446971L225.01267509778341,158.71464348236591L225.10203676382702,158.7440353974131L225.5041642610232,158.8747772997194L225.6828875931104,158.93208420607587L225.9286321747303,159.0100755958488L226.4201213379701,159.1632558928662L226.7105467526118,159.25201307161498L226.84458925167718,159.29253666006858L226.9339509177208,159.31939741682962L226.9562913342317,159.3260931705547L227.4254400809606,159.46491370498256L228.3413971579075,159.72606766443783L228.3637375744184,159.73227379889448L228.3860779909293,159.73847203903415L228.6318225725492,159.80613886350426L228.69884382208187,159.82442965271943L228.8552267376582,159.86683483446402L229.34671590089798,159.99761586512406L229.65948173205058,160.07886898073508L230.01692839622498,160.16984943940773L230.2626729778449,160.23123393210076L230.62011964201926,160.31882481132334L230.77650255759556,160.35651331028697L230.79884297410646,160.3618658288161L231.22331088781357,160.46207062526614L231.26799172083537,160.47245319663722L231.31267255385717,160.48280419074038L231.89352338314058,160.61449907439882L231.98288504918415,160.63428652314437L232.11692754824958,160.66373078094546L232.29565088033678,160.70254782400633L232.31799129684768,160.70736438705862L232.38501254638035,160.7217666245058L232.69777837753296,160.78803641229354L233.16692712426186,160.88453353980384L233.59139503796894,160.9688305152658L233.61373545447984,160.9731879208163L233.70309712052347,160.99053817080934L234.10522461771964,161.0670434554105L234.30628836631774,161.10433131778734L234.66373503049215,161.16903168103605L234.79777752955755,161.1927695489685L234.99884127815565,161.22783936569692L235.17756461024283,161.25847128916476L235.64671335697173,161.3364552136597L235.91479835510253,161.3794394263933L235.98181960463523,161.39000605548097L236.18288335323334,161.4212751876217L236.33926626880964,161.44514876057926L236.45096835136414,161.4619618537864L236.74139376600584,161.50474154364474L237.56798917690912,161.6191066853727L237.72437209248542,161.6395116069987L237.90309542457263,161.66235123895115L238.26054208874703,161.7064931275278L238.32756333827973,161.71454146949833L238.483946253856,161.73304042842003L238.7296908354759,161.76131684215457L238.8860737510522,161.77880584334937L238.9084141675631,161.78127221675155L238.9977758336067,161.79105743716974L239.154158749183,161.80787278283145L239.3999033308029,161.83350266970183L239.57862666289014,161.85153268903326L239.66798832893372,161.86035506020303L239.73500957846642,161.8668875431495L239.75734999497732,161.8690489771063L240.00309457659722,161.89229482315216L240.047775409619,161.89641692228147L240.13713707566262,161.90456477984029L240.7850091544787,161.95979206997077L241.1871366516749,161.99067093754172L241.20947706818583,161.99231003800892L241.2318174846967,161.99394110472147L241.3658599837621,162.00355854945184L242.08075331211091,162.04996016481252L242.4828808093071,162.0724394469371L242.6392637248834,162.08047695031073L242.9073487230142,162.0933375649439L243.08607205510137,162.1012670416688L243.1084124716123,162.10222198051122L243.4211783027649,162.11474537856128L243.5105399688085,162.1180334929773L243.86798663298288,162.12989690038535L244.00202913204828,162.13381390011833L244.2030928806464,162.13914548020512L244.56053954482078,162.14701211478814L244.62756079435349,162.14825742251043L244.64990121086439,162.14865640595647L244.8733053759734,162.15220295735688L244.94032662550606,162.1531097553458L245.0967095410824,162.15494351347354L245.2977732896805,162.1567208630328L245.74458161989847,162.15685881699298" fill="none"></path></g></g></g></g></g></g><g transform="translate(61, 176)" clip-path="url(#clip_1)"><clipPath id="clip_1"><rect width="268" height="23"></rect></clipPath><g><g><line x1="0" y1="0" x2="0" y2="5" style="visibility: inherit;" fill="rgb(0, 0, 0)" stroke="rgb(204, 204, 204)" stroke-width="1px"></line><line x1="22.34041651089986" y1="0" x2="22.34041651089986" y2="5" style="visibility: inherit;" fill="rgb(0, 0, 0)" stroke="rgb(204, 204, 204)" stroke-width="1px"></line><line x1="44.68083302179972" y1="0" x2="44.68083302179972" y2="5" style="visibility: inherit;" fill="rgb(0, 0, 0)" stroke="rgb(204, 204, 204)" stroke-width="1px"></line><line x1="67.02124953269958" y1="0" x2="67.02124953269958" y2="5" style="visibility: inherit;" fill="rgb(0, 0, 0)" stroke="rgb(204, 204, 204)" stroke-width="1px"></line><line x1="89.36166604359944" y1="0" x2="89.36166604359944" y2="5" style="visibility: inherit;" fill="rgb(0, 0, 0)" stroke="rgb(204, 204, 204)" stroke-width="1px"></line><line x1="111.70208255449931" y1="0" x2="111.70208255449931" y2="5" style="visibility: inherit;" fill="rgb(0, 0, 0)" stroke="rgb(204, 204, 204)" stroke-width="1px"></line><line x1="134.04249906539917" y1="0" x2="134.04249906539917" y2="5" style="visibility: inherit;" fill="rgb(0, 0, 0)" stroke="rgb(204, 204, 204)" stroke-width="1px"></line><line x1="156.38291557629904" y1="0" x2="156.38291557629904" y2="5" style="visibility: inherit;" fill="rgb(0, 0, 0)" stroke="rgb(204, 204, 204)" stroke-width="1px"></line><line x1="178.72333208719888" y1="0" x2="178.72333208719888" y2="5" style="visibility: inherit;" fill="rgb(0, 0, 0)" stroke="rgb(204, 204, 204)" stroke-width="1px"></line><line x1="201.06374859809875" y1="0" x2="201.06374859809875" y2="5" style="visibility: inherit;" fill="rgb(0, 0, 0)" stroke="rgb(204, 204, 204)" stroke-width="1px"></line><line x1="223.40416510899863" y1="0" x2="223.40416510899863" y2="5" style="visibility: inherit;" fill="rgb(0, 0, 0)" stroke="rgb(204, 204, 204)" stroke-width="1px"></line><line x1="245.74458161989847" y1="0" x2="245.74458161989847" y2="5" style="visibility: inherit;" fill="rgb(0, 0, 0)" stroke="rgb(204, 204, 204)" stroke-width="1px"></line><line x1="268.08499813079834" y1="0" x2="268.08499813079834" y2="5" style="visibility: inherit;" fill="rgb(0, 0, 0)" stroke="rgb(204, 204, 204)" stroke-width="1px"></line></g><g transform="translate(0, 8)"><text style="text-anchor: middle; visibility: hidden; font-family: Roboto, sans-serif; font-size: 12px; font-weight: 200;" x="0" y="0" dx="0em" dy="0.95em" fill="rgb(33, 33, 33)" stroke="none" stroke-width="1px">-1k</text><text style="text-anchor: middle; visibility: inherit; font-family: Roboto, sans-serif; font-size: 12px; font-weight: 200;" x="22.34041651089986" y="0" dx="0em" dy="0.95em" fill="rgb(33, 33, 33)" stroke="none" stroke-width="1px">0</text><text style="text-anchor: middle; visibility: inherit; font-family: Roboto, sans-serif; font-size: 12px; font-weight: 200;" x="44.68083302179972" y="0" dx="0em" dy="0.95em" fill="rgb(33, 33, 33)" stroke="none" stroke-width="1px">1k</text><text style="text-anchor: middle; visibility: inherit; font-family: Roboto, sans-serif; font-size: 12px; font-weight: 200;" x="67.02124953269958" y="0" dx="0em" dy="0.95em" fill="rgb(33, 33, 33)" stroke="none" stroke-width="1px">2k</text><text style="text-anchor: middle; visibility: inherit; font-family: Roboto, sans-serif; font-size: 12px; font-weight: 200;" x="89.36166604359944" y="0" dx="0em" dy="0.95em" fill="rgb(33, 33, 33)" stroke="none" stroke-width="1px">3k</text><text style="text-anchor: middle; visibility: inherit; font-family: Roboto, sans-serif; font-size: 12px; font-weight: 200;" x="111.70208255449931" y="0" dx="0em" dy="0.95em" fill="rgb(33, 33, 33)" stroke="none" stroke-width="1px">4k</text><text style="text-anchor: middle; visibility: inherit; font-family: Roboto, sans-serif; font-size: 12px; font-weight: 200;" x="134.04249906539917" y="0" dx="0em" dy="0.95em" fill="rgb(33, 33, 33)" stroke="none" stroke-width="1px">5k</text><text style="text-anchor: middle; visibility: inherit; font-family: Roboto, sans-serif; font-size: 12px; font-weight: 200;" x="156.38291557629904" y="0" dx="0em" dy="0.95em" fill="rgb(33, 33, 33)" stroke="none" stroke-width="1px">6k</text><text style="text-anchor: middle; visibility: inherit; font-family: Roboto, sans-serif; font-size: 12px; font-weight: 200;" x="178.72333208719888" y="0" dx="0em" dy="0.95em" fill="rgb(33, 33, 33)" stroke="none" stroke-width="1px">7k</text><text style="text-anchor: middle; visibility: inherit; font-family: Roboto, sans-serif; font-size: 12px; font-weight: 200;" x="201.06374859809875" y="0" dx="0em" dy="0.95em" fill="rgb(33, 33, 33)" stroke="none" stroke-width="1px">8k</text><text style="text-anchor: middle; visibility: inherit; font-family: Roboto, sans-serif; font-size: 12px; font-weight: 200;" x="223.40416510899863" y="0" dx="0em" dy="0.95em" fill="rgb(33, 33, 33)" stroke="none" stroke-width="1px">9k</text><text style="text-anchor: middle; visibility: inherit; font-family: Roboto, sans-serif; font-size: 12px; font-weight: 200;" x="245.74458161989847" y="0" dx="0em" dy="0.95em" fill="rgb(33, 33, 33)" stroke="none" stroke-width="1px">10k</text><text style="text-anchor: middle; visibility: hidden; font-family: Roboto, sans-serif; font-size: 12px; font-weight: 200;" x="268.08499813079834" y="0" dx="0em" dy="0.95em" fill="rgb(33, 33, 33)" stroke="none" stroke-width="1px">11k</text></g><line x1="0" y1="0" x2="268.08499813079834" y2="0" fill="rgb(0, 0, 0)" stroke="rgb(204, 204, 204)" stroke-width="1px"></line></g></g></g></g></svg>