<svg viewBox="0 0 330 200" xmlns="http://www.w3.org/2000/svg"><g><g><g><g><g><line x1="61.91500186920166" y1="176.5999994277954" x2="56.91500186920166" y2="176.5999994277954" style="visibility: inherit;" fill="rgb(0, 0, 0)" stroke="rgb(204, 204, 204)" stroke-width="1px"></line><line x1="61.91500186920166" y1="156.97777726915146" x2="56.91500186920166" y2="156.97777726915146" style="visibility: inherit;" fill="rgb(0, 0, 0)" stroke="rgb(204, 204, 204)" stroke-width="1px"></line><line x1="61.91500186920166" y1="137.35555511050754" x2="56.91500186920166" y2="137.35555511050754" style="visibility: inherit;" fill="rgb(0, 0, 0)" stroke="rgb(204, 204, 204)" stroke-width="1px"></line><line x1="61.91500186920166" y1="117.73333295186362" x2="56.91500186920166" y2="117.73333295186362" style="visibility: inherit;" fill="rgb(0, 0, 0)" stroke="rgb(204, 204, 204)" stroke-width="1px"></line><line x1="61.91500186920166" y1="98.11111079321968" x2="56.91500186920166" y2="98.11111079321968" style="visibility: inherit;" fill="rgb(0, 0, 0)" stroke="rgb(204, 204, 204)" stroke-width="1px"></line><line x1="61.91500186920166" y1="78.48888863457573" x2="56.91500186920166" y2="78.48888863457573" style="visibility: inherit;" fill="rgb(0, 0, 0)" stroke="rgb(204, 204, 204)" stroke-width="1px"></line><line x1="61.91500186920166" y1="58.86666647593179" x2="56.91500186920166" y2="58.86666647593179" style="visibility: inherit;" fill="rgb(0, 0, 0)" stroke="rgb(204, 204, 204)" stroke-width="1px"></line><line x1="61.91500186920166" y1="39.244444317287886" x2="56.91500186920166" y2="39.244444317287886" style="visibility: inherit;" fill="rgb(0, 0, 0)" stroke="rgb(204, 204, 204)" stroke-width="1px"></line><line x1="61.91500186920166" y1="19.622222158643922" x2="56.91500186920166" y2="19.622222158643922" style="visibility: inherit;" fill="rgb(0, 0, 0)" stroke="rgb(204, 204, 204)" stroke-width="1px"></line><line x1="61.91500186920166" y1="0" x2="56.91500186920166" y2="0" style="visibility: inherit;" fill="rgb(0, 0, 0)" stroke="rgb(204, 204, 204)" stroke-width="1px"></line></g><g transform="translate(51.91500186920166, 0)"><text style="text-anchor: end; visibility: hidden; font-family: Roboto, sans-serif; font-size: 12px; font-weight: 200;" x="0" y="176.5999994277954" dx="0em" dy="0.3em" fill="rgb(33, 33, 33)" stroke="none" stroke-width="1px">-5e-3</text><text style="text-anchor: end; visibility: inherit; font-family: Roboto, sans-serif; font-size: 12px; font-weight: 200;" x="0" y="156.97777726915146" dx="0em" dy="0.3em" fill="rgb(33, 33, 33)" stroke="none" stroke-width="1px">0</text><text style="text-anchor: end; visibility: hidden; font-family: Roboto, sans-serif; font-size: 12px; font-weight: 200;" x="0" y="137.35555511050754" dx="0em" dy="0.3em" fill="rgb(33, 33, 33)" stroke="none" stroke-width="1px">5e-3</text><text style="text-anchor: end; visibility: inherit; font-family: Roboto, sans-serif; font-size: 12px; font-weight: 200;" x="0" y="117.73333295186362" dx="0em" dy="0.3em" fill="rgb(33, 33, 33)" stroke="none" stroke-width="1px">0.01</text><text style="text-anchor: end; visibility: hidden; font-family: Roboto, sans-serif; font-size: 12px; font-weight: 200;" x="0" y="98.11111079321968" dx="0em" dy="0.3em" fill="rgb(33, 33, 33)" stroke="none" stroke-width="1px">0.015</text><text style="text-anchor: end; visibility: inherit; font-family: Roboto, sans-serif; font-size: 12px; font-weight: 200;" x="0" y="78.48888863457573" dx="0em" dy="0.3em" fill="rgb(33, 33, 33)" stroke="none" stroke-width="1px">0.02</text><text style="text-anchor: end; visibility: hidden; font-family: Roboto, sans-serif; font-size: 12px; font-weight: 200;" x="0" y="58.86666647593179" dx="0em" dy="0.3em" fill="rgb(33, 33, 33)" stroke="none" stroke-width="1px">0.025</text><text style="text-anchor: end; visibility: inherit; font-family: Roboto, sans-serif; font-size: 12px; font-weight: 200;" x="0" y="39.244444317287886" dx="0em" dy="0.3em" fill="rgb(33, 33, 33)" stroke="none" stroke-width="1px">0.03</text><text style="text-anchor: end; visibility: hidden; font-family: Roboto, sans-serif; font-size: 12px; font-weight: 200;" x="0" y="19.622222158643922" dx="0em" dy="0.3em" fill="rgb(33, 33, 33)" stroke="none" stroke-width="1px">0.035</text><text style="text-anchor: end; visibility: hidden; font-family: Roboto, sans-serif; font-size: 12px; font-weight: 200;" x="0" y="0" dx="0em" dy="0.3em" fill="rgb(33, 33, 33)" stroke="none" stroke-width="1px">0.04</text></g><line x1="61.91500186920166" y1="0" x2="61.91500186920166" y2="176.5999994277954" fill="rgb(0, 0, 0)" stroke="rgb(204, 204, 204)" stroke-width="1px"></line></g></g><g transform="translate(61, 0)" clip-path="url(#clip_0)"><clipPath id="clip_0"><rect width="268" height="176"></rect></clipPath><g><g><g><line x1="0" y1="0" x2="0" y2="176.5999994277954" fill="rgb(0, 0, 0)" stroke="rgb(66, 66, 66)" stroke-width="1px" opacity="0.25"></line><line x1="22.34041651089986" y1="0" x2="22.34041651089986" y2="176.5999994277954" fill="rgb(0, 0, 0)" stroke="rgb(66, 66, 66)" stroke-width="1px" opacity="0.25"></line><line x1="44.68083302179972" y1="0" x2="44.68083302179972" y2="176.5999994277954" fill="rgb(0, 0, 0)" stroke="rgb(66, 66, 66)" stroke-width="1px" opacity="0.25"></line><line x1="67.02124953269958" y1="0" x2="67.02124953269958" y2="176.5999994277954" fill="rgb(0, 0, 0)" stroke="rgb(66, 66, 66)" stroke-width="1px" opacity="0.25"></line><line x1="89.36166604359944" y1="0" x2="89.36166604359944" y2="176.5999994277954" fill="rgb(0, 0, 0)" stroke="rgb(66, 66, 66)" stroke-width="1px" opacity="0.25"></line><line x1="111.70208255449931" y1="0" x2="111.70208255449931" y2="176.5999994277954" fill="rgb(0, 0, 0)" stroke="rgb(66, 66, 66)" stroke-width="1px" opacity="0.25"></line><line x1="134.04249906539917" y1="0" x2="134.04249906539917" y2="176.5999994277954" fill="rgb(0, 0, 0)" stroke="rgb(66, 66, 66)" stroke-width="1px" opacity="0.25"></line><line x1="156.38291557629904" y1="0" x2="156.38291557629904" y2="176.5999994277954" fill="rgb(0, 0, 0)" stroke="rgb(66, 66, 66)" stroke-width="1px" opacity="0.25"></line><line x1="178.72333208719888" y1="0" x2="178.72333208719888" y2="176.5999994277954" fill="rgb(0, 0, 0)" stroke="rgb(66, 66, 66)" stroke-width="1px" opacity="0.25"></line><line x1="201.06374859809875" y1="0" x2="201.06374859809875" y2="176.5999994277954" fill="rgb(0, 0, 0)" stroke="rgb(66, 66, 66)" stroke-width="1px" opacity="0.25"></line><line x1="223.40416510899863" y1="0" x2="223.40416510899863" y2="176.5999994277954" fill="rgb(0, 0, 0)" stroke="rgb(66, 66, 66)" stroke-width="1px" opacity="0.25"></line><line x1="245.74458161989847" y1="0" x2="245.74458161989847" y2="176.5999994277954" fill="rgb(0, 0, 0)" stroke="rgb(66, 66, 66)" stroke-width="1px" opacity="0.25"></line><line x1="268.08499813079834" y1="0" x2="268.08499813079834" y2="176.5999994277954" fill="rgb(0, 0, 0)" stroke="rgb(66, 66, 66)" stroke-width="1px" opacity="0.25"></line></g><g><line x1="0" y1="176.5999994277954" x2="268.08499813079834" y2="176.5999994277954" fill="rgb(0, 0, 0)" stroke="rgb(66, 66, 66)" stroke-width="1px" opacity="0.25"></line><line x1="0" y1="156.97777726915146" x2="268.08499813079834" y2="156.97777726915146" fill="rgb(0, 0, 0)" stroke="rgb(66, 66, 66)" stroke-width="1px" opacity="0.25"></line><line x1="0" y1="137.35555511050754" x2="268.08499813079834" y2="137.35555511050754" fill="rgb(0, 0, 0)" stroke="rgb(66, 66, 66)" stroke-width="1px" opacity="0.25"></line><line x1="0" y1="117.73333295186362" x2="268.08499813079834" y2="117.73333295186362" fill="rgb(0, 0, 0)" stroke="rgb(66, 66, 66)" stroke-width="1px" opacity="0.25"></line><line x1="0" y1="98.11111079321968" x2="268.08499813079834" y2="98.11111079321968" fill="rgb(0, 0, 0)" stroke="rgb(66, 66, 66)" stroke-width="1px" opacity="0.25"></line><line x1="0" y1="78.48888863457573" x2="268.08499813079834" y2="78.48888863457573" fill="rgb(0, 0, 0)" stroke="rgb(66, 66, 66)" stroke-width="1px" opacity="0.25"></line><line x1="0" y1="58.86666647593179" x2="268.08499813079834" y2="58.86666647593179" fill="rgb(0, 0, 0)" stroke="rgb(66, 66, 66)" stroke-width="1px" opacity="0.25"></line><line x1="0" y1="39.244444317287886" x2="268.08499813079834" y2="39.244444317287886" fill="rgb(0, 0, 0)" stroke="rgb(66, 66, 66)" stroke-width="1px" opacity="0.25"></line><line x1="0" y1="19.622222158643922" x2="268.08499813079834" y2="19.622222158643922" fill="rgb(0, 0, 0)" stroke="rgb(66, 66, 66)" stroke-width="1px" opacity="0.25"></line><line x1="0" y1="0" x2="268.08499813079834" y2="0" fill="rgb(0, 0, 0)" stroke="rgb(66, 66, 66)" stroke-width="1px" opacity="0.25"></line></g></g></g><g><g><line x1="0" y1="156.97777726915146" x2="268.08499813079834" y2="156.97777726915146" fill="rgb(0, 0, 0)" stroke="rgb(153, 153, 153)" stroke-width="1.5px"></line></g></g><g><g><line x1="22.34041651089986" y1="0" x2="22.34041651089986" y2="176.5999994277954" fill="rgb(0, 0, 0)" stroke="rgb(153, 153, 153)" stroke-width="1.5px"></line></g></g><g><g><g><g><g><path style="fill: none;" stroke="rgb(255, 112, 67)" stroke-width="2px" d="M22.38509734392166,156.5068439492408L23.211692754824956,151.06167756269772L23.256373587846753,149.15451735430014L23.479777752955755,147.23101546364109L23.524458585977552,146.04565309106232L23.591479835510253,145.09992562737972L23.79254358410835,143.68944881291793L24.08296899875005,141.62352090908647L24.172330664793652,140.02581528965192L24.19467108130455,138.982799740786L24.30637316385905,137.88839339082045L24.462756079435348,136.57355136203307L24.976585659186043,133.61735426219488L25.021266492207847,131.6575879412525L25.043606908718743,130.3884805353762L25.289351490338646,128.59105255474256L25.46807482242584,126.75929956547641L25.602117321491242,125.09526891226307L26.00424481868744,122.40149416336956L26.026585235198336,120.69114500717075L26.093606484731037,119.38240864817534L26.205308567285538,118.12624647682473L26.451053148905437,116.33649766449737L26.585095647970835,114.69753482989432L26.629776480992636,113.52578825873317L27.16594647725423,110.5622589306542L27.29998897631963,108.21902407540509L27.45637189189593,106.15377699336938L27.70211647351583,103.87857672691109L27.769137723048527,102.23089635242312L27.858499389092128,100.86554170064092L28.305307719310125,98.1625958243499L28.484031051397324,95.78733517978624L28.61807355046272,93.79705747211513L28.86381813208262,91.56683988098597L29.221264796257017,88.7217228943338L29.288286045789718,86.73209203070884L29.399988128344216,85.06738098684785L29.467009377876916,83.78599367519158L29.578711460431418,82.54622583363869L29.824456042051317,80.76631414372537L29.958498541116715,79.13324575308657L29.980838957627615,78.05921879760332L30.092541040182116,76.94387009261251L30.18190270622571,75.89791425946052L30.31594520529111,74.7052193822712L30.82977478504181,71.82330871604792L31.09785978317261,68.96392248563163L31.276583115259807,66.49479752692876L31.343604364792508,64.73076186305983L31.432966030836102,63.2955938545038L31.522327696879703,62.05774643913153L31.678710612456005,60.655733614940026L32.3712635242939,56.89473896006343L32.4159443573157,54.44976740004938L32.7510506049792,51.5699839446492L33.46594393332799,46.82814098947317L33.48828434983889,43.88884929479241L33.66700768192609,42.031149759126514L33.95743309656779,40.916983248264884L34.15849684516589,40.24905058590494L34.247858511209486,39.84860969783493L34.895730590025586,39.611891902943746L34.918071006536486,39.470022042651486L35.25317725419998,39.387622313641984L35.54360266884168,39.34101284914346L35.61062391837438,39.31376061154904L35.63296433488528,39.29765195592554L35.901049333016076,39.29110952935398L35.92338974952698,39.28745892367268L36.03509183208148,39.28669251853433L36.25849599719048,39.28927064802419L36.92870849251747,39.301472359265304L36.973389325539266,39.30958577346643L37.085091408093774,39.31648303562093L37.196793490648275,39.32271200926554L37.35317640622457,39.3294844420862L37.73296348690986,39.34144546089248L37.97870806852976,39.354127849225996L38.64892056385676,39.37833063578821L38.671260980367656,39.39344586733312L38.760622646411264,39.4049126362021L39.16275014360746,39.4230907976405L39.252111809651055,39.43662046774499L39.319133059183756,39.44673239617406L39.52019680778186,39.45892228140051L39.76594138940175,39.4739992704584L39.78828180591265,39.48376767681468L40.458494301239654,39.51245883597875L40.74891971588135,39.540281582001086L41.15104721307755,39.57237854002247L41.26274929563205,39.596063558411146L41.28508971214294,39.61116637082525L41.37445137818654,39.62382450318672L41.664876792828245,39.6433929126189L42.02232345700264,39.67046417021232L42.26806803862254,39.697624912821404L42.46913178722064,39.723082059128686L42.781897618373236,39.753019900765764L42.84891886790593,39.77419016678018L42.91594011743863,39.79012327893264L42.98296136697133,39.80293749027955L43.07232303301494,39.81499730582345L43.11700386603673,39.82443784512084L43.34040803114573,39.84126284368547L43.63083344578743,39.86625238785427L43.89891844391823,39.8953745873797L44.01062052647273,39.91884198194999L44.07764177600542,39.93655102693364L44.14466302553812,39.95082552973805L44.524450106223426,39.98050984248308L44.54679052273432,39.99958649569703L44.70317343831063,40.019959273250976L44.72551385482152,40.033466548984L44.85955635388692,40.049336896284785L45.75317301432292,40.11296951894195L45.95423676292101,40.16387992274053L46.088279261986415,40.20303131736036L46.17764092803001,40.23230570538264L46.22232176105181,40.2527796574549L46.31168342709541,40.270908982666654L46.35636426011721,40.284725136442134L46.40104509313901,40.29596508311169L46.53508759220441,40.31161536916631L46.669130091269814,40.33000250095955L46.803172590335215,40.35012238230352L46.95955550591151,40.37291347131405L47.13827883799871,40.39898854982292L47.40636383612951,40.43353686226372L47.741470083793004,40.478402965790806L47.830831749836605,40.51185763146851L48.07657633145651,40.550102711472235L48.1435975809892,40.57805846690208L48.4563634121418,40.61850705386793L48.545725078185406,40.64962991895484L48.6127463277181,40.673473162077094L48.6797675772508,40.6929690995932L48.970192991892496,40.7274178311014L49.14891632397969,40.76229741332119L49.506362988154095,40.812131223149095L49.7074267367522,40.85856930776781L49.84146923581759,40.89757236595254L50.08721381743749,40.94163182957109L50.46700089812279,41.00058463284603L51.04785172740619,41.08708138741599L51.07019214391708,41.14097941440229L51.29359630902608,41.19345539816802L51.38295797506969,41.2330666147797L51.62870255668958,41.27937983801852L51.89678755482038,41.33210604729767L52.12019171992937,41.38479705727058L52.321255468527475,41.43557515915671L52.410617134571076,41.47462378111742L52.63402129968007,41.51967840679525L52.65636171619097,41.54888659278344L52.81274463176727,41.58171247692096L53.30423379500707,41.65028749489202L53.482957127094274,41.70950537234735L53.68402087569237,41.765553378458485L54.19785045544306,41.85252067651805L54.24253128846487,41.90940274919135L54.26487170497576,41.94588576365302L54.80104170123736,42.024994133714486L54.97976503332456,42.09184779495316L55.51593502958616,42.19105864582804L56.16380710840225,42.323870762287875L56.253168774445854,42.41382690576907L56.275509190956754,42.47037658207598L56.74465793768565,42.55890509994208L57.01274293581645,42.64370601316376L57.05742376883825,42.6998993581756L57.14678543488185,42.74427312266884L57.57125334858894,42.822045845481405L57.77231709718704,42.89324425092923L57.88401917974154,42.94967656789067L58.12976376136144,43.01391860773515L58.42018917600314,43.08874406617904L58.442529592514035,43.13644924657985L58.598912508090336,43.18479139912392L58.91167833924293,43.25359442374883L59.023380421797434,43.30920061545782L59.090401671330135,43.35118995039655L59.760614166657135,43.463812250013625L59.80529499967893,43.53729198647026L60.40848624547323,43.66202791256453L60.47550749500593,43.745936602916416L60.58720957756043,43.81144244060232L60.89997540871302,43.89351147435034L61.43614540497462,44.01714082551958L61.994655817747116,44.17025309221451L62.016996234258016,44.265307545690966L62.486144980986914,44.389830576705556L62.75422997911771,44.50357313246797L63.11167664329211,44.62437939255666L63.31274039189021,44.726690249876285L63.3350808084011,44.791404206797395L63.580825390021005,44.86697187390294L63.670187056064606,44.9257421257805L63.89359122117361,44.99473776061558L64.02763372023901,45.05648868057315L64.1169953862826,45.107153092316L64.1840166358153,45.147788449638526L64.251037885348,45.18242684188155L64.2957187183698,45.21005774225686L65.07763329625129,45.34798852087638L65.77018620808919,45.54058475484289L66.19465412179629,45.72454804704401L66.6638028685252,45.911492287805586L66.93188786665598,46.067857093486296L67.11061119874319,46.19132471788495L67.17763244827589,46.27656304357139L67.22231328129767,46.33515331149825L67.53507911245029,46.4226986104263L67.80316411058108,46.520485440847054L67.95954702615738,46.6057069047989L68.22763202428818,46.70261404748976L68.51805743892987,46.810707982249895L68.65209993799527,46.89874533113071L68.74146160403888,46.96706754085261L68.89784451961518,47.03526811864972L69.36699326634407,47.15847395536227L69.50103576540947,47.25608721079249L69.52337618192038,47.31860832951597L69.56805701494217,47.36404195137556L69.81380159656207,47.43501208790981L69.83614201307297,47.48158242256317L69.97018451213837,47.53349215095843L70.01486534516016,47.57264665678973L70.10422701120378,47.61218008938836L70.26060992678006,47.66405475713246L71.10954575419426,47.84990855932947L71.44465200185776,48.02337033525919L71.46699241836866,48.131593546253306L71.82443908254307,48.26318158523775L72.15954533020656,48.40512482550743L72.20422616322834,48.49872925748955L72.62869407693545,48.63546105454729L72.71805574297905,48.734561316576645L72.82975782553355,48.81539839148457L72.85209824204445,48.86818128305749L72.91911949157715,48.912710501519534L72.98614074110985,48.95230505974872L73.07550240715345,48.993260403611764L73.36592782179514,49.07396738996223L73.47762990434966,49.14407843699188L74.30422531525294,49.34828332806885L74.34890614827474,49.47965117804991L74.57231031338374,49.60283681378264L74.79571447849274,49.721320720632086L74.81805489500364,49.79687884346296L75.01911864360173,49.882531911393684L75.15316114266713,49.96089416506085L75.42124614079793,50.06208333425585L75.44358655730883,50.12732309327316L75.48826739033063,50.17552823550097L75.53294822335243,50.21352137947194L75.68933113892872,50.2681297216705L75.89039488752684,50.34194682989923L76.15847988565763,50.44123638655508L76.22550113519033,50.51460526453206L76.44890530029933,50.60474880437349L76.76167113145192,50.72375514486677L77.25316029469172,50.89799388216346L77.54358570933343,51.06377025410935L77.65528779188793,51.18687904765629L78.41486195325851,51.42287089088777L78.68294695138931,51.62224887842919L79.15209569811822,51.843693073198885L80.0010315255324,52.163051340465L80.3808186062177,52.43902778751611L80.4254994392395,52.61457551576192L80.4701802722613,52.72987478454144L80.6042227713267,52.8290130243285L80.82762693643569,52.93858596641615L81.0733715180556,53.05965650455019L81.27443526665368,53.177742686648585L81.5648606812954,53.31451167567926L81.8552860959371,53.46282367791004L81.9669881784916,53.57738072539838L82.19039234360059,53.697394995260915L82.32443484266598,53.80026573283448L82.3691156756878,53.872292136251346L82.45847734173138,53.93613636761966L82.48081775824228,53.979603658693875L82.83826442241669,54.08853969146868L83.15103025356927,54.226800957126585L83.39677483518918,54.367297911190676L83.48613650123279,54.4725782695607L83.50847691774368,54.54099787894352L83.55315775076548,54.592555357233735L83.66485983331998,54.649787751157234L83.68720024983088,54.68939027762795L83.86592358191808,54.755344232611904L84.17868941307069,54.869041382016874L84.64783815979956,55.049138347844284L84.69251899282138,55.16789521997224L84.78188065886496,55.260567196084686L84.84890190839768,55.33225496993631L85.07230607350668,55.42900086039895L85.11698690652847,55.49781726184292L85.27336982210477,55.5768580785402L85.36273148814837,55.64589632530412L85.45209315419197,55.70895934555863L85.80953981836637,55.833661536147076L86.14464606602988,55.99034729332513L86.39039064764977,56.144656216734646L86.47975231369337,56.25922081989512L86.56911397973697,56.349968070295695L86.85953939437867,56.47614941488656L86.88187981088956,56.557390314141415L86.97124147693317,56.628274919451556L87.10528397599856,56.704071336113586L87.17230522553126,56.76620394239093L87.26166689157486,56.82572006190006L87.55209230621657,56.933887864816526L87.66379438877107,57.026741402963516L88.22230480154356,57.222875694101944L88.26698563456534,57.35183682526827L88.35634730060896,57.451798008446254L88.44570896665256,57.53438846222077L88.71379396478336,57.651953554547944L89.33932562708854,57.882165992265435L89.62975104173024,58.094891909421044L90.21060187101365,58.372607398328604L90.74677186727524,58.67880506974889L90.88081436634064,58.89756708096083L90.90315478285154,59.034672165595374L91.21592061400413,59.19896924766036L91.30528228004773,59.32104719427005L91.32762269655863,59.40017400347171L91.34996311306953,59.45353013022852L91.48400561213494,59.520862064904065L93.09251560091973,59.98979079482095L93.87443017880122,60.48254004730486L93.94145142833392,60.79639989059873L94.34357892553011,61.09429040886397L94.83506808876992,61.407651641067154L95.1925147529443,61.69406185011916L95.21485516945522,61.872071638864725L95.259536002477,61.9912077626797L96.1084718298912,62.29816008878599L96.4659184940656,62.58214891245031L96.97974807381631,62.89671578857668L97.0020884903272,63.0917423830029L97.493577653567,63.347449536048266L97.60527973612149,63.53249622765949L98.0967688993613,63.78310724039671L98.3648538974921,64.00991438410497L98.4765559800466,64.1779105400703L98.63293889562289,64.32344742357971L98.69996014515559,64.42996521291622L99.07974722584088,64.60290372222272L99.32549180746078,64.77743784624137L99.68293847163518,64.98541137692365L99.95102346976599,65.1878757815153L100.06272555232049,65.34178090726652L100.30847013394038,65.505590898623L100.33081055045129,65.61037973366983L100.48719346602758,65.71883139510781L101.15740596135458,65.98001390153252L101.26910804390907,66.16953000044755L101.31378887693087,66.2963710696375L101.33612929344177,66.37904580198041L101.44783137599627,66.46151279128648L101.58187387506167,66.55047200862263L101.60421429157257,66.61043224954801L101.71591637412708,66.67935533823324L101.80527804017066,66.74708896868442L102.63187345107397,67.03278154672364L102.69889470060666,67.2241471290281L103.07868178129196,67.45224572135402L103.25740511337916,67.64254278506691L103.36910719593367,67.79016503704678L103.41378802895545,67.89212418076463L103.48080927848817,67.97339005154605L103.54783052802085,68.04224873038245L103.57017094453175,68.09026852970507L104.06166010777156,68.26687675159002L104.15102177381516,68.39977993430118L104.32974510590235,68.53346559368423L104.35208552241325,68.62042544041913L104.39676635543506,68.68610117460919L104.66485135356585,68.80661960563711L104.75421301960945,68.9060063389649L104.82123426914215,68.98596267862855L105.26804259936014,69.16970666380166L105.75953176259995,69.42987802475518L105.84889342864354,69.61330505084938L105.96059551119804,69.7575450368133L106.20634009281794,69.91940092402146L106.29570175886154,70.0439351558539L106.42974425792694,70.15982475542111L106.45208467443784,70.23622684776362L106.47442509094874,70.28893351183235L106.60846759001414,70.36178504952039L106.76485050559043,70.45365324670024L106.92123342116673,70.55698699441528L107.01059508721033,70.64656291131641L107.07761633674303,70.72100410137121L107.12229716976483,70.77947273120436L107.34570133487382,70.88363781476275L108.03825424671174,71.16105222587075L108.10527549624443,71.34836025303107L108.17229674577713,71.48161322163962L108.32867966135343,71.61029829334564L108.50740299344062,71.74327177615478L108.57442424297334,71.84398542087065L108.59676465948424,71.9113930499826L108.90953049063683,72.04966385302288L108.95421132365863,72.14662030667931L109.06591340621313,72.23979665208762L109.62442381898562,72.47113879655306L109.87016840060552,72.68735536703088L109.98187048316002,72.85231584977036L110.45101922988891,73.09955923587698L111.098891308705,73.4534377084116L111.29995505730311,73.7297318044219L111.38931672334671,73.92396403592524L111.41165713985762,74.0476202422405L111.54569963892301,74.16453856202074L112.0595292186737,74.39880439948071L112.3276142168045,74.62520490175866L112.50633754889171,74.81835440661746L112.8414437965552,75.04187137847855L113.2435712937514,75.30543018695226L113.4446350423495,75.52840966621211L113.53399670839309,75.69103908760708L114.0701667046547,75.96200924433592L114.2488900367419,76.18251164510657L114.74037919998169,76.47440167366051L114.87442169904709,76.69313746847006L114.89676211555799,76.83165078153357L115.27654919624328,77.03849401801328L115.45527252833048,77.22091792233215L115.49995336135228,77.3449627203023L115.67867669343948,77.47778065998925L116.10314460714658,77.6963819156126L116.21484668970108,77.86415038468662L116.30420835574468,77.9941122583858L116.43825085481008,78.11606834840751L116.72867626945178,78.28463843472313L116.90739960153897,78.44455750735926L116.95208043456078,78.55521051600002L116.99676126758258,78.63630973412145L117.30952709873517,78.78800594978284L117.53293126384418,78.95272156050706L117.62229292988776,79.08105347098416L117.82335667848587,79.22448158635893L119.07442000309626,79.72533720736891L119.65527083237967,80.21926621782151L119.83399416446686,80.57523981541955L119.99037708004316,80.84102505611833L120.16910041213035,81.06020011003267L120.68292999188105,81.3636152092236L120.77229165792465,81.57559955574587L120.79463207443555,81.71027544738064L122.20207831462224,82.26407781508057L122.60420581181843,82.73198906800566L122.84995039343833,83.09572597908286L122.87229080994923,83.32151481216862L123.07335455854734,83.52494922512031L123.16271622459092,83.67723170591651L123.60952455480894,83.9198565564678L123.83292871991793,84.14114978994294L123.98931163549423,84.32696598264769L124.25739663362504,84.52944575456992L124.88292829593023,84.86356830631237L124.92760912895203,85.07924631991695L125.06165162801743,85.25428411939075L125.26271537661552,85.42778544937005L125.62016204078992,85.65373847931309L125.64250245730082,85.79693008219218L126.73718286633492,86.2568665430568L126.84888494888942,86.57106184533383L127.16165078004201,86.8666975302679L127.22867202957472,87.0670435577705L127.36271452864011,87.23319502705117L127.42973577817281,87.35586514485647L127.63079952677091,87.49842539182312L127.65313994328181,87.59162810793964L127.67548035979272,87.65521338160714L128.05526744047802,87.82373713587407L128.1446291065216,87.9555468995699L128.2563311890761,88.07301238049332L128.278671605587,88.1511670088008L128.4127141046524,88.24412936793935L128.6584586862723,88.38440861918369L128.8818628513813,88.54544067714446L129.0829265999794,88.71127247089336L129.2616499320666,88.87232046211757L129.5744157632192,89.07672272274557L129.77547951181728,89.26868482383607L129.90952201088268,89.43009248328691L129.9542028439045,89.54235208512121L130.065904926459,89.64824536163123L130.17760700901349,89.75033053870246L130.3786707576116,89.8809930317665L130.8925003373623,90.13689993754353L130.9371811703841,90.30588832656306L131.2276065850258,90.50770111939975L131.2946278345585,90.65196978312652L131.49569158315657,90.80809148907049L131.76377658128737,90.99455279139275L131.80845741430917,91.12189720985108L132.27760616103808,91.36079592039862L132.43398907661438,91.55832743129452L132.59037199219068,91.7310503181553L133.34994615356126,92.09814849363156L133.50632906913756,92.37268447771437L133.59569073518117,92.56842613652358L133.90845656633377,92.79447499636542L134.51164781212807,93.13966886495831L134.80207322676978,93.44774002636753L135.07015822490058,93.72579789705621L135.18186030745505,93.93148007240795L135.29356239000958,94.09373975449645L135.31590280652048,94.19886739348844L135.42760488907496,94.30080020163899L135.87441321929296,94.5174257206962L135.98611530184746,94.68627480051963L136.18717905044556,94.85756872726986L136.23185988346737,94.97590043855358L136.36590238253277,95.09356260708549L136.65632779717447,95.26527848903955L136.70100863019627,95.3838662973845L136.85739154577254,95.50947880737314L137.48292320807775,95.80272947237728L137.52760404109955,95.9942469223691L137.70632737318675,96.17142267238269L137.81802945574125,96.31664721183374L137.88505070527393,96.42713397395792L137.97441237131756,96.52456305715008L138.24249736944836,96.67643743269633L138.37653986851373,96.81427490674798L138.93505028128624,97.09162400732507L139.02441194732984,97.28917926540586L139.11377361337344,97.4388582179889L139.18079486290614,97.55202493783962L139.27015652894974,97.65107222945406L139.2924969454606,97.71828705385634L139.71696485916775,97.90656287364521L140.05207110683122,98.13632949293152L140.11909235636392,98.2975488128042L140.25313485542932,98.44099910132961L140.54356027007103,98.62829019314314L140.76696443518003,98.81852349468973L141.12441109935443,99.05722766095262L141.48185776352884,99.32499972635055L141.79462359468144,99.59462793660643L142.10738942583401,99.8653552140823L142.30845317443212,100.09782138047777L142.39781484047572,100.26842202456851L142.48717650651932,100.4019033552764L143.00100608627,100.66089628252064L143.42547399997713,100.96403136434898L143.67121858159703,101.23142154617669L143.7382398311297,101.4151740684289L143.7605802476406,101.53319741151908L144.16270774483678,101.7438838851001L144.2297289943695,101.89360248664846L144.341431076924,102.02227525263811L144.4978139925003,102.15384955707546L144.8999414896965,102.37255988369299L144.98930315574012,102.53483684938203L145.01164357225102,102.639964624748L145.1456860713164,102.74960940371328L145.9499410657088,103.0946426749547L146.59781314452488,103.52638488992314L146.6424939775467,103.80091978551131L146.75419606010118,104.0043624464277L147.1786639738083,104.27350363431682L147.26802563985188,104.46593824087496L147.6031318875154,104.69742090249166L148.0722806342443,104.99862566062751L148.13930188377697,105.20252511762533L148.16164230028787,105.33258983853963L148.76483354608217,105.6190733551567L148.7871739625931,105.79867974002569L149.41270562489828,106.12233114162217L149.70313103953998,106.41665811992654L149.77015228907266,106.6163534246432L150.23930103580156,106.89776647965641L150.46270520091056,107.14350221139017L150.6637689495087,107.3601094263796L151.46802394390104,107.7663859864955L151.53504519343377,108.03315162637463L151.60206644296647,108.21620779017276L151.82547060807548,108.40266623267163L151.89249185760815,108.5375190724384L151.98185352365175,108.64906196077716L152.83078935106596,109.00660383426404L152.94249143362046,109.25931560109113L153.29993809779484,109.53305366174024L153.38929976383847,109.72780341520286L153.83610809405644,109.9970621232712L154.23823559125265,110.29560242612241L154.32759725729625,110.50514434476823L154.57334183891615,110.71446929654967L154.61802267193795,110.85525705442183L154.68504392147062,110.96251450344162L154.81908642053605,111.07242394175177L154.86376725355785,111.15354923381585L155.24355433424313,111.33116280706395L155.48929891586303,111.52107198300939L155.55632016539576,111.65773357030778L155.57866058190663,111.74730060063784L155.73504349748293,111.85402113070698L155.77972433050473,111.93318629480322L156.00312849561374,112.05630576445039L156.69568140745164,112.36420952009077L157.09780890464782,112.6845582142685L157.65631931742033,113.06475477595427L157.70100015044213,113.30789298737075L157.9020638990402,113.52133644768425L158.1924893136819,113.74689103449627L158.32653181274733,113.92717788602675L158.6839784769217,114.15510576467071L158.9967443080743,114.39649710928379L159.1084463906288,114.5786676925511L159.33185055573782,114.76258457870082L159.5552547208468,114.94747614810615L159.8009993024667,115.14032085362813L159.8233397189776,115.2634691015784L160.0914247171084,115.42659959115365L160.5382330473264,115.67296720072221L160.6052542968591,115.84303455599238L160.850998878479,116.02658561536607L161.18610512614248,116.24771043564124L161.69993470589318,116.55022232193052L161.81163678844771,116.76859301406252L161.9009984544913,116.92909165793372L162.05738137006762,117.07694281194868L162.2361047021548,117.22451824337304L162.3478067847093,117.3498261866922L162.3701472012202,117.43236027324376L162.8839767809709,117.65069726460405L163.06270011305807,117.84030981574661L163.08504052956897,117.96140035154163L163.2190830286344,118.07797077413335L163.6882317753633,118.30136865382461L163.9339763569832,118.51563295668079L164.15738052209218,118.71702685773053L164.1797209386031,118.84514234438556L164.24674218813578,118.9438417646067L164.5148271862666,119.09029859739175L164.64886968533196,119.22174231141148L164.8052526009083,119.35139735944863L164.872273850441,119.45094157014731L165.0286567660173,119.56139112756537L165.0509971825282,119.63490345880449L165.18503968159357,119.7224445087353L165.25206093112627,119.79667353754692L165.2744013476372,119.8484433178358L165.8105713438988,120.05280412385446L165.94461384296417,120.21865835474311L166.39142217318218,120.46204184752239L166.57014550526935,120.66550833802646L167.12865591804186,120.96666487354666L167.37440049966176,121.22595134999462L167.44142174919446,121.40293670279063L167.50844299872716,121.53053114760914L167.66482591430346,121.65699214259206L167.82120882987977,121.78272336071146L168.26801716009777,122.00032107957178L169.07227215449015,122.38569368085332L169.42971881866455,122.7297169585771L169.47439965168635,122.95021115324279L169.72014423330626,123.15987070884799L169.89886756539346,123.34184700526703L169.94354839841526,123.4650662281266L170.56908006072044,123.734998161724L170.63610131025314,123.91790442054658L171.19461172302562,124.20180967567676L171.21695213953655,124.37910449361725L171.23929255604745,124.49243158727441L171.70844130277632,124.70611310183554L171.77546255230905,124.85509221092967L172.24461129903793,125.08957283711484L172.55737713019056,125.32669710542653L172.75844087878863,125.53084075270384L172.84780254483223,125.68079296163155L173.0488662934303,125.83249156223921L173.3616321245829,126.01933404999365L173.45099379062654,126.15877398595471L173.67439795573554,126.3106863376338L173.71907878875734,126.41546807598223L174.12120628595352,126.60082530766917L174.38929128408432,126.79347134654115L174.63503586570422,126.98354485273973L174.679716698726,127.11111582904331L175.1935462784767,127.34284281986804L175.6180141921838,127.60955865665295L175.6626950252056,127.78300099768916L175.7073758582274,127.90047339339822L175.7743971077601,127.99105818014542L176.0871629389127,128.13905843097152L176.37758835355442,128.31458626575684L176.8243966837724,128.55288955811903L177.18184334794682,128.80187309242393L177.2265241809686,128.96448965086384L177.67333251118657,129.19401695090707L177.8520558432738,129.38436350111442L177.94141750931738,129.52485252553922L178.25418334047,129.70095762333946L178.2765237569809,129.81316811232162L178.3658854230245,129.90667023820896L179.147800000906,130.1908548337922L179.1924808339278,130.37434641812698L179.2148212504387,130.49092958926605L179.3935445825259,130.61273481830818L179.7286508301894,130.78279989393366L180.1977995769183,131.02006965394693L180.28716124296187,131.18811685169342L180.82333123922348,131.44256673001314L181.15843748688698,131.6908194904159L181.6275862336159,131.9730252785628L182.14141581336656,132.28753474724144L182.23077747941016,132.50140896397713L182.27545831243197,132.6423078934888L182.40950081149737,132.76453609332395L182.45418164451917,132.85042329019893L183.14673455635707,133.09570676816546L183.50418122053145,133.3422966272482L183.72758538564048,133.55218614859936L183.81694705168405,133.70284980609546L184.75524454514186,134.05139526096568L184.97864871025084,134.32157364825576L185.06801037629447,134.50805609771714L185.11269120931627,134.63212377313602L185.31375495791437,134.7612866268901L185.42545704046884,134.86912897760376L185.82758453766505,135.04274014928527L186.05098870277402,135.20718312283944L186.07332911928495,135.31186783530808L186.29673328439392,135.43477438010416L186.43077578345935,135.5444973758067L186.60949911554656,135.65821140457945L186.74354161461196,135.76228000356772L186.78822244763373,135.83665521980012L186.83290328065553,135.89320709653163L187.01162661274273,135.97478015289693L187.14566911180813,136.0593858081646L187.16800952831906,136.1160869903554L187.50311577598254,136.2389735143194L187.52545619249344,136.31861690227743L187.57013702551524,136.37822003433348L188.03928577224414,136.53765429752124L188.21800910433132,136.68023237988453L188.41907285292942,136.8184320600108L188.59779618501665,136.9480384013599L188.62013660152752,137.03163034748874L189.44673201243083,137.29621988818118L189.51375326196353,137.47225701575178L189.7818382600943,137.64685574319608L189.84885950962703,137.7688201674508L190.2509870068232,137.94489808166136L190.2733274233341,138.05624504917787L190.295667839845,138.12875125572376L190.78715700308481,138.2971722306149L191.39034824887912,138.55036101423298L192.01587991118433,138.85866993115795L192.4850286579132,139.16002585871496L192.7977944890658,139.4179751178013L192.82013490557668,139.57824021651655L192.9318369881312,139.70185213858173L193.06587948719658,139.8089026402786L193.1552411532402,139.89501862436498L193.66907073299092,140.0719585314091L194.1382194797198,140.2916465984662L194.2499215622743,140.45036844889108L194.6520490594705,140.6420878896936L194.8307723915577,140.7998076009293L194.94247447411217,140.92105896790497L194.96481489062307,140.99912770206234L195.0765169731776,141.07253146598143L195.0988573896885,141.1218806735338L195.47864447037378,141.2414181335397L195.5680061364174,141.33422074742975L195.83609113454818,141.45296071422348L196.104176132679,141.5869886079901L196.2382186317444,141.69869404950097L196.7073673784733,141.8746848438712L197.26587779124577,142.10889498874099L197.73502653797468,142.35652130461224L197.82438820401828,142.52539982975222L197.84672862052918,142.63179742047424L197.86906903704008,142.700704988576L197.95843070308368,142.76230511653867L198.29353695074718,142.87494513976185L198.49460069934526,142.98772484359506L198.56162194887798,143.07042244310162L198.60630278189979,143.13005110781344L198.62864319841066,143.17083043520554L198.65098361492156,143.2002979672516L198.71800486445426,143.2329669630481L199.0754515286287,143.33220549285306L199.3211961102486,143.44620441530162L199.74566402395567,143.60809635132213L200.43821693579358,143.8562200655785L200.54991901834805,144.02926613196996L200.72864235043525,144.17166345054278L201.55523776133856,144.4337980311036L201.64459942738213,144.6100138426117L202.04672692457837,144.8005459654976L202.64991817037264,145.04082048852135L202.76162025292714,145.2081449918029L202.89566275199255,145.3362630209611L203.29779024918872,145.49585572637915L203.56587524731952,145.64638440157205L203.74459857940673,145.77304982280566L203.87864107847213,145.87622233671945L204.01268357753753,145.9652234493209L204.4371514912446,146.10393515274836L204.81693857192994,146.26284760363598L205.24140648563701,146.44206095320732L205.37544898470242,146.57591355084242L205.91161898096402,146.7607562925097L205.93395939747492,146.87599082913098L206.00098064700762,146.95810470274884L206.20204439560572,147.04617771725088L206.22438481211663,147.1033222746606L206.38076772769293,147.16765540579436L206.51481022675833,147.23192491004133L206.62651230931283,147.29181930570314L206.96161855697633,147.39142946521727L206.98395897348723,147.4554232111604L207.252043971618,147.54438240406745L207.4084268871943,147.627108784521L207.98927771647772,147.78482911269285L208.07863938252132,147.8959589041573L208.12332021554312,147.97087241859137L208.59246896227202,148.1017667888561L208.7041710448265,148.20062442125064L208.79353271087012,148.27615589710916L208.83821354389192,148.32957043860227L208.9052347934246,148.37374546932375L209.2180006245772,148.4565790752221L209.3743835401535,148.53428107113567L209.4637452061971,148.5968549141227L209.8658727033933,148.70574698530828L209.9775747859478,148.79077349490316L210.29034061710038,148.89662933770572L210.5360851987203,149.0029248216803L210.71480853080752,149.09764652350415L210.826510613362,149.1737472058261L210.8935318628947,149.23094145791438L211.0275743619601,149.28826502282433L211.2062976940473,149.35320957243542L211.2286381105582,149.3959849154354L211.69778685728707,149.50111327919467L211.7871485233307,149.5792134957942L211.8541697728634,149.6373172675079L212.0105526884397,149.6983359919386L212.27863768657048,149.77952870656986L212.45736101865768,149.8577841596129L213.1275735139847,150.01421719845783L213.2392755965392,150.12612430397158L213.30629684607186,150.20406959777475L213.57438184420266,150.29383512383225L214.13289225697517,150.43621522931977L214.28927517255147,150.54617203374846L215.24991308252015,150.76034376931847L215.27225349903108,150.8922424175166L215.65204057971636,151.02875202989935L215.87544474482536,151.1440913945486L215.96480641086896,151.2266033214858L216.43395515759786,151.34536726119723L216.79140182177224,151.4687011605352L216.83608265479404,151.54916888761116L217.12650806943574,151.63925856146292L217.50629515012105,151.74738714454472L217.66267806569735,151.83433272364664L217.75203973174095,151.89905875440618L217.90842264731725,151.95978151789964L217.95310348033902,152.0024473691293L218.19884806195893,152.06215517600026L218.39991181055703,152.12567394792256L218.84672014077506,152.2246407870264L219.20416680494944,152.3320219170679L219.31586888750397,152.41132613451958L219.62863471865654,152.5002432935016L219.71799638470014,152.56531767036412L219.80735805074372,152.61604818400235L220.16480471491815,152.69284773725002L220.27650679747262,152.75328985733907L221.10310220837593,152.8939739235752L221.17012345790863,152.98670644181757L221.50522970557213,153.08363224490816L221.88501678625744,153.1879229147969L221.9073572027683,153.25318944214862L221.974378452301,153.30041111512043L222.01905928532284,153.33410662294452L222.42118678251902,153.40215052298498L222.62225053111712,153.46659589363847L222.93501636226972,153.54161315961028L223.47118635853133,153.6478295109528L223.8286330227057,153.75158402561806L224.0520371878147,153.83853488126653L224.1413988538583,153.9005163063223L224.2754413529237,153.95234806488955L224.6328880170981,154.02206440414892L224.655228433609,154.06628699487268L225.28076009591422,154.15882198369658L225.30310051242512,154.21666458452015L225.52650467753412,154.27445080538365L225.61586634357772,154.3182858884633L225.9733130077521,154.38084652252942L226.0403342572848,154.42511125199388L226.1967171728611,154.4672834668197L226.219057589372,154.49480734460434L226.3084192554156,154.52017947021596L226.55416383703547,154.55955777077165L226.66586591959,154.59406545893643L226.7105467526118,154.61910499408026L227.7158654956023,154.7290462610924L227.8722484111786,154.80932443346268L228.1626738258203,154.88375022752376L228.8105459046364,154.98546719499922L228.89990757067997,155.0542034165969L228.94458840370177,155.09928318492456L229.03395006974537,155.13397714628502L229.12331173578897,155.1623996934238L229.68182214856148,155.22608602760215L230.19565172831219,155.3058186292957L230.3967154769103,155.36954454457225L230.463736726443,155.41303039162185L230.6648004750411,155.45473728720683L231.02224713921547,155.50701979976688L231.06692797223727,155.54175138023416L231.67011921803154,155.60699308271887L231.80416171709697,155.65575612727852L232.25097004731495,155.7164183832866L232.27331046382585,155.7543594852859L232.42969337940215,155.78785961678665L232.65309754451116,155.82308139422457L233.12224629124006,155.8751473591168L233.61373545447984,155.93759605733962L233.94884170214337,155.9956412174365L234.14990545074144,156.04254004674092L234.30628836631774,156.07992639263765L234.55203294793765,156.11663798704066L234.64139461398125,156.14378140282923L234.84245836257935,156.1714308613371L235.08820294419925,156.2016295762795L235.15522419373193,156.22340694983853L235.42330919186273,156.25087706275212L235.51267085790633,156.27207893905336L235.60203252394996,156.28947912098795L235.82543668905896,156.31143868158185L235.87011752208073,156.3268877347881L235.95947918812433,156.34067323611237L235.98181960463523,156.35006719240548L236.00416002114613,156.35682366323334L236.24990460276604,156.37303044112554L236.33926626880964,156.38709726534853L236.54033001740774,156.40515935768067L236.96479793111484,156.43563100021353L237.70203167597455,156.48582466762346L237.74671250899632,156.51778540526206L237.85841459155083,156.5415284237225L238.1935208392143,156.56909028681596L238.2158612557252,156.58649467237765L238.32756333827973,156.6012352541222L238.483946253856,156.61598924928668L238.86373333454134,156.63867128371112L238.9754354170958,156.6562071716344L239.2435204152266,156.67589134680847L239.3999033308029,156.69287628728668L239.57862666289014,156.7088270800849L239.60096707940102,156.71910599419172L240.11479665915172,156.74085951917556L240.49458373983703,156.76455943198496L240.6509666554133,156.78294813994725L240.69564748843513,156.79514932985532L240.7626687379678,156.80420272890623L240.7850091544787,156.81020719791678L240.9190516535441,156.81719050670293L240.94139207005503,156.8219349438987L241.0754345691204,156.82805435623888L241.164796235164,156.83385646437395L241.96905122955638,156.8546616677982L241.99139164606729,156.8675784579705L242.30415747721992,156.88112989822181L242.81798705697062,156.89769727282206L243.1530933046341,156.91240660632306L243.59990163485207,156.92669013895184L243.6892633008957,156.93622831289704L244.31479496320088,156.94757443479315L244.47117787877718,156.9554725594113L244.53819912830988,156.96064015209126L244.62756079435349,156.96427628715358L244.67224162737529,156.96671030997624L244.69458204388616,156.96829303244317L244.8733053759734,156.97012844542482L245.2977732896805,156.97267297118242L245.3647945392132,156.97434259979727L245.47649662176767,156.9755310657569L245.5211774547895,156.97630079582456L245.5658582878113,156.97680898430508L245.74458161989847,156.97719629824363" fill="none"></path></g></g></g></g><g opacity="0.2"><g><g><g><path style="fill: none;" stroke="rgb(255, 112, 67)" stroke-width="2px" d="M22.38509734392166,156.5068439492408L23.211692754824956,147.7945777307719L23.256373587846753,147.3236435542385L23.479777752955755,144.968977240226L23.524458585977552,144.4980439774235L23.591479835510253,143.79164408321975L23.79254358410835,141.67244440060853L24.08296899875005,138.61137819239232L24.172330664793652,137.66950983932549L24.19467108130455,137.43404320792425L24.30637316385905,136.25671005091797L24.462756079435348,134.60844363110925L24.976585659186043,129.1927111088806L25.021266492207847,128.72177784607808L25.043606908718743,128.48631121467682L25.289351490338646,125.89617826926309L25.46807482242584,124.01244521805312L25.602117321491242,122.59964542964565L26.00424481868744,118.36124240949948L26.026585235198336,118.12577760556007L26.093606484731037,117.41937588389449L26.205308567285538,116.2420445543501L26.451053148905437,113.65190978147454L26.585095647970835,112.23910999306705L26.629776480992636,111.76817673026454L27.16594647725423,106.11697757663461L27.29998897631963,104.70417778822713L27.45637189189593,103.05590954095655L27.70211647351583,100.46577842300466L27.769137723048527,99.75937670133908L27.858499389092128,98.81751017573409L28.305307719310125,94.10817754770915L28.484031051397324,92.22444449649917L28.61807355046272,90.81164105316799L28.86381813208262,88.2215135901398L29.221264796257017,84.45404748771983L29.288286045789718,83.74764576605423L29.399988128344216,82.57031443650985L29.467009377876916,81.86391271484426L29.578711460431418,80.6865740754525L29.824456042051317,78.09644661242432L29.958498541116715,76.68364316909313L29.980838957627615,76.44817836515374L30.092541040182116,75.27084703560932L30.18190270622571,74.32898051000434L30.31594520529111,72.91617706667316L30.82977478504181,67.50044271698262L31.09785978317261,64.67484314016767L31.276583115259807,62.791110088957666L31.343604364792508,62.084708367292095L31.432966030836102,61.14284184168709L31.522327696879703,60.2009753160821L31.678710612456005,58.55271437865892L32.3712635242939,51.253246977758415L32.4159443573157,50.782310060032216L32.7510506049792,47.250308761551665L33.46594393332799,39.71537655671174L33.48828434983889,39.479911752772345L33.66700768192609,39.244600455628L33.95743309656779,39.245733481972536L34.15849684516589,39.24715159236509L34.247858511209486,39.24794836572996L34.895730590025586,39.256815210606966L34.918071006536486,39.25721725221312L35.25317725419998,39.26402272012777L35.54360266884168,39.271098652395686L35.61062391837438,39.27288225515742L35.63296433488528,39.2734889724903L35.901049333016076,39.281295889496626L35.92338974952698,39.281983015150715L36.03509183208148,39.285542910826834L36.25849599719048,39.29313784225901L36.92870849251747,39.31977492612696L36.973389325539266,39.321755894768096L37.085091408093774,39.32682892885271L37.196793490648275,39.33205546973241L37.35317640622457,39.33964309131718L37.73296348690986,39.359386989101885L37.97870806852976,39.3731514317263L38.64892056385676,39.41463481563155L38.671260980367656,39.41611871465054L38.760622646411264,39.42211278950556L39.16275014360746,39.45035803979807L39.252111809651055,39.45691497290167L39.319133059183756,39.4619002888177L39.52019680778186,39.477207109240176L39.76594138940175,39.49661475404519L39.78828180591265,39.49842028634909L40.458494301239654,39.55549557472481L40.74891971588135,39.582015701034656L41.15104721307755,39.62052397705453L41.26274929563205,39.6315910859942L41.28508971214294,39.63382058944636L41.37445137818654,39.642811701728924L41.664876792828245,39.672745526767166L42.02232345700264,39.71107105660245L42.26806803862254,39.73836602673501L42.46913178722064,39.761267778589655L42.781897618373236,39.79792666322134L42.84891886790593,39.8059455658018L42.91594011743863,39.814022947161334L42.98296136697133,39.82215880729993L43.07232303301494,39.83308702913928L43.11700386603673,39.83859865406696L43.34040803114573,39.8665003415324L43.63083344578743,39.903736704107445L43.89891844391823,39.93905788666783L44.01062052647273,39.9540430738054L44.07764177600542,39.963114594409184L44.14466302553812,39.97223728394464L44.524450106223426,40.02503631160064L44.54679052273432,40.02820147551798L44.70317343831063,40.05051843958189L44.72551385482152,40.05372746258356L44.85955635388692,40.07314241723596L45.75317301432292,40.20841845292769L45.95423676292101,40.24024552843845L46.088279261986415,40.26175840929011L46.17764092803001,40.27621728741604L46.22232176105181,40.2834905855633L46.31168342709541,40.29810297048428L46.35636426011721,40.30544936710538L46.40104509313901,40.31282500311602L46.53508759220441,40.33509079824825L46.669130091269814,40.3575831986494L46.803172590335215,40.380302204319456L46.95955550591151,40.407100104829865L47.13827883799871,40.43810116758621L47.40636383612951,40.485359330924986L47.741470083793004,40.54570212108143L47.830831749836605,40.562039629985094L48.07657633145651,40.607470331477806L48.1435975809892,40.6199921000469L48.4563634121418,40.67917993431667L48.545725078185406,40.69631421658521L48.6127463277181,40.70923802676045L48.6797675772508,40.722213005867374L48.970192991892496,40.77909092836372L49.14891632397969,40.814616786650866L49.506362988154095,40.886881937890934L49.7074267367522,40.92822643469589L49.84146923581759,40.95607695322965L50.08721381743749,41.00772102499892L50.46700089812279,41.08901383775844L51.04785172740619,41.216826519270924L51.07019214391708,41.22182645488171L51.29359630902608,41.27216937381661L51.38295797506969,41.29248343969725L51.62870255668958,41.348849672876725L51.89678755482038,41.411195361216436L52.12019171992937,41.46383357222998L52.321255468527475,41.51174231198593L52.410617134571076,41.533196714058505L52.63402129968007,41.587260345311954L52.65636171619097,41.59269887176578L52.81274463176727,41.63095130312723L53.30423379500707,41.75315002184867L53.482957127094274,41.79833218853031L53.68402087569237,41.84962538762516L54.19785045544306,41.98297162360749L54.24253128846487,41.99472585820125L54.26487170497576,42.00061028534552L54.80104170123736,42.143656688806644L54.97976503332456,42.1921282868112L55.51593502958616,42.339874922140375L56.16380710840225,42.523088936977594L56.253168774445854,42.54876112099087L56.275509190956754,42.555201096536344L56.74465793768565,42.69169787674124L57.01274293581645,42.77090738299628L57.05742376883825,42.784189375693344L57.14678543488185,42.8108337694087L57.57125334858894,42.938704929700265L57.77231709718704,43.000041859100975L57.88401917974154,43.03432504333281L58.12976376136144,43.11028166750188L58.42018917600314,43.20098225384488L58.442529592514035,43.20800701718107L58.598912508090336,43.25730462794002L58.91167833924293,43.35679896068616L59.023380421797434,43.3926099030213L59.090401671330135,43.41417395280466L59.760614166657135,43.63274569943919L59.80529499967893,43.64751159115525L60.40848624547323,43.84913180170589L60.47550749500593,43.871799638444244L60.58720957756043,43.90970119713124L60.89997540871302,44.016615024972346L61.43614540497462,44.20258485227343L61.994655817747116,44.399921492256915L62.016996234258016,44.40788922590568L62.486144980986914,44.57661512322745L62.75422997911771,44.674186966111584L63.11167664329211,44.805588782689696L63.31274039189021,44.88015653585578L63.3350808084011,44.88847514217899L63.580825390021005,44.98032337456128L63.670187056064606,45.01389750359685L63.89359122117361,45.098231212868214L64.02763372023901,45.14911506050954L64.1169953862826,45.18314970993029L64.1840166358153,45.208741485622326L64.251037885348,45.23438443024606L64.2957187183698,45.251504092819815L65.07763329625129,45.55488468880569L65.77018620808919,45.82947910579264L66.19465412179629,46.00049298534568L66.6638028685252,46.19190864894797L66.93188786665598,46.30240430200733L67.11061119874319,46.37652615448297L67.17763244827589,46.40442053210102L67.22231328129767,46.42303871338854L67.53507911245029,46.5540165588184L67.80316411058108,46.667165686478214L67.95954702615738,46.73353910072663L68.22763202428818,46.84797476152607L68.51805743892987,46.97284888439011L68.65209993799527,47.030801354451945L68.74146160403888,47.069550855435516L68.89784451961518,47.13756898534535L69.36699326634407,47.34328271043112L69.50103576540947,47.40250709393781L69.52337618192038,47.41239000760122L69.56805701494217,47.43219238416498L69.81380159656207,47.541467292711175L69.83614201307297,47.5514379245432L69.97018451213837,47.61135674355138L70.01486534516016,47.63137841553665L70.10422701120378,47.67148023828629L70.26060992678006,47.74186675874863L71.10954575419426,48.128689262624995L71.44465200185776,48.283562999153744L71.46699241836866,48.293928362744516L71.82443908254307,48.46056364371442L72.15954533020656,48.61803968591194L72.20422616322834,48.639135905462716L72.62869407693545,48.84055875013395L72.71805574297905,48.88321170962069L72.82975782553355,48.936654003846456L72.85209824204445,48.94735562041692L72.91911949157715,48.97950432921256L72.98614074110985,49.01169689709253L73.07550240715345,49.054693419406306L73.36592782179514,49.1950278694879L73.47762990434966,49.24924500753641L74.30422531525294,49.6545906646843L74.34890614827474,49.67670295302146L74.57231031338374,49.78761526738172L74.79571447849274,49.89904658090624L74.81805489500364,49.91021602770928L75.01911864360173,50.01101151328982L75.15316114266713,50.078437545561556L75.42124614079793,50.213867088048374L75.44358655730883,50.225182731799094L75.48826739033063,50.24783594884269L75.53294822335243,50.27051109542843L75.68933113892872,50.35004223496838L75.89039488752684,50.45267249224235L76.15847988565763,50.59017072153889L76.22550113519033,50.62465858149747L76.44890530029933,50.73996411413564L76.76167113145192,50.90226465560672L77.25316029469172,51.15935198810853L77.54358570933343,51.31243481202816L77.65528779188793,51.37154223797669L78.41486195325851,51.77685865573505L78.68294695138931,51.92131585974132L79.15209569811822,52.17585936535344L80.0010315255324,52.64208874136422L80.3808186062177,52.85299245809274L80.4254994392395,52.87789710813069L80.4701802722613,52.90282368771074L80.6042227713267,52.97772038400912L80.82762693643569,53.10294537954761L81.0733715180556,53.241262311751186L81.27443526665368,53.354871959796206L81.5648606812954,53.519665159225305L81.8552860959371,53.68529168125619L81.9669881784916,53.74921629663089L82.19039234360059,53.877416400054734L82.32443484266598,53.95457183919483L82.3691156756878,53.98033174137668L82.45847734173138,54.031902714672114L82.48081775824228,54.0448045953052L82.83826442241669,54.25194374063088L83.15103025356927,54.43419285561342L83.39677483518918,54.57804334228681L83.48613650123279,54.630498807115735L83.50847691774368,54.64362729301773L83.55315775076548,54.6698915746691L83.66485983331998,54.73563634204248L83.68720024983088,54.74879406733402L83.86592358191808,54.85427516508783L84.17868941307069,55.039587106124316L84.64783815979956,55.31928379658543L84.69251899282138,55.346030528164164L84.78188065886496,55.399575160253335L84.84890190839768,55.43978663071373L85.07230607350668,55.57411969609292L85.11698690652847,55.60104186400889L85.27336982210477,55.695419303586114L85.36273148814837,55.74945369545001L85.45209315419197,55.80355387594037L85.80953981836637,56.020714822029774L86.14464606602988,56.22537592909222L86.39039064764977,56.37611960184889L86.47975231369337,56.43106772463583L86.56911397973697,56.48608894589659L86.85953939437867,56.66542143177283L86.88187981088956,56.67925166302372L86.97124147693317,56.73460182741676L87.10528397599856,56.817765961106645L87.17230522553126,56.85940285180697L87.26166689157486,56.914994241163704L87.55209230621657,57.09613956919122L87.66379438877107,57.166021710184054L88.22230480154356,57.51707713080958L88.26698563456534,57.54527852201777L88.35634730060896,57.60173978321323L88.44570896665256,57.65827414288251L88.71379396478336,57.82830119303868L89.33932562708854,58.227484648841696L89.62975104173024,58.41398078515444L90.21060187101365,58.78918063168994L90.74677186727524,59.13810157687931L90.88081436634064,59.22571009777877L90.90315478285154,59.240329792547136L91.21592061400413,59.445414870757865L91.30528228004773,59.50416411418457L91.32762269655863,59.51886421727417L91.34996311306953,59.533564320363766L91.48400561213494,59.62185996691735L93.09251560091973,60.69318388969628L93.87443017880122,61.22166392603078L93.94145142833392,61.26718965553949L94.34357892553011,61.54112618626185L94.83506808876992,61.87769348937193L95.1925147529443,62.123677163697174L95.21485516945522,62.13908632198305L95.259536002477,62.16991194840216L96.1084718298912,62.75858857794543L96.4659184940656,63.008132147946775L96.97974807381631,63.368566102766216L97.0020884903272,63.38428227464222L97.493577653567,63.73101026561632L97.60527973612149,63.81006626507629L98.0967688993613,64.15902375950257L98.3648538974921,64.35012509966734L98.4765559800466,64.42990477401834L98.63293889562289,64.54175274884379L98.69996014515559,64.58974189692097L99.07974722584088,64.86231148618249L99.32549180746078,65.03923903226932L99.68293847163518,65.2973716729471L99.95102346976599,65.49157238840277L100.06272555232049,65.57263859589338L100.30847013394038,65.75130588565767L100.33081055045129,65.7675629862401L100.48719346602758,65.88150888726479L101.15740596135458,66.37178766116952L101.26910804390907,66.4538041488201L101.31378887693087,66.48663267342248L101.33612929344177,66.50305790049474L101.44783137599627,66.58521327524562L101.58187387506167,66.68391083462689L101.60421429157257,66.70037261093609L101.71591637412708,66.7827399712611L101.80527804017066,66.8486894143612L102.63187345107397,67.46132041378247L102.69889470060666,67.51119550248477L103.07868178129196,67.7943936098429L103.25740511337916,67.9279883806363L103.36910719593367,68.01159841501659L103.41378802895545,68.04506289634142L103.48080927848817,68.09528885771816L103.54783052802085,68.14553674863704L103.57017094453175,68.162298228689L104.06166010777156,68.53178908441743L104.15102177381516,68.59913470836796L104.32974510590235,68.73399408275878L104.35208552241325,68.75086521052148L104.39676635543506,68.78461477589427L104.66485135356585,68.98739725217898L104.75421301960945,69.05508643895655L104.82123426914215,69.10589718812402L105.26804259936014,69.44532264156132L105.75953176259995,69.82013506618547L105.84889342864354,69.88844558999068L105.96059551119804,69.9739050157592L106.20634009281794,70.16218475483367L106.29570175886154,70.23073650360257L106.42974425792694,70.33365915477192L106.45208467443784,70.35082998627738L106.47442509094874,70.36799350793545L106.60846759001414,70.47106235605246L106.76485050559043,70.59145554247L106.92123342116673,70.71198761598785L107.01059508721033,70.7809267866681L107.07761633674303,70.83266588645338L107.12229716976483,70.86717567595412L107.34570133487382,71.03988544010028L108.03825424671174,71.57717384253273L108.10527549624443,71.62932229377152L108.17229674577713,71.68149267455246L108.32867966135343,71.80332590090467L108.50740299344062,71.94273200036848L108.57442424297334,71.99505588794449L108.59676465948424,72.01250449365054L108.90953049063683,72.25707005758325L108.95421132365863,72.29205498716398L109.06591340621313,72.37956117020006L109.62442381898562,72.81815201325122L109.87016840060552,73.01168022274756L109.98187048316002,73.0997565738796L110.45101922988891,73.47042431503692L111.098891308705,73.98425541721352L111.29995505730311,74.14417294843734L111.38931672334671,74.21531238318026L111.41165713985762,74.23310455171337L111.54569963892301,74.3399160416911L112.0595292186737,74.75020315567069L112.3276142168045,74.96480565517562L112.50633754889171,75.10807866390566L112.8414437965552,75.37714683627017L113.2435712937514,75.70076839966285L113.4446350423495,75.86287888510194L113.53399670839309,75.93498321969955L114.0701667046547,76.36846447942916L114.2488900367419,76.5132652462625L114.74037919998169,76.91223671649139L114.87442169904709,77.02124116068437L114.89676211555799,77.03942075112886L115.27654919624328,77.34875887273284L115.45527252833048,77.49455377881043L115.49995336135228,77.53102991725751L115.67867669343948,77.67700756951972L116.10314460714658,78.02428379904762L116.21484668970108,78.11580308829762L116.30420835574468,78.18905506893455L116.43825085481008,78.2990024834401L116.72867626945178,78.53749356419657L116.90739960153897,78.68443611631346L116.95208043456078,78.72119002896115L116.99676126758258,78.75795856130361L117.30952709873517,79.01555027327494L117.53293126384418,79.19979497659335L117.62229292988776,79.27355133669978L117.82335667848587,79.43962375942111L119.07442000309626,80.4766206388839L119.65527083237967,80.96015973350043L119.83399416446686,81.1092002118166L119.99037708004316,81.23970291716647L120.16910041213035,81.38896269090417L120.68292999188105,81.81873785801L120.77229165792465,81.8935760755293L120.79463207443555,81.91228928483281L122.20207831462224,83.09478136663043L122.60420581181843,83.43385594739328L122.84995039343833,83.64133134569863L122.87229080994923,83.66019806179723L123.07335455854734,83.83010084454786L123.16271622459092,83.90565542711082L123.60952455480894,84.28379383229476L123.83292871991793,84.47308964015564L123.98931163549423,84.60569027170477L124.25739663362504,84.83316541245327L124.88292829593023,85.36475213392603L124.92760912895203,85.40276334032382L125.06165162801743,85.51684081860142L125.26271537661552,85.68803744433905L125.62016204078992,85.99266802422763L125.64250245730082,86.0117174865108L126.73718286633492,86.94677123435373L126.84888494888942,87.04235479874936L127.16165078004201,87.31015105766902L127.22867202957472,87.36756259902441L127.36271452864011,87.48242223097212L127.42973577817281,87.53987032156445L127.63079952677091,87.71226576227308L127.65313994328181,87.73143218211442L127.67548035979272,87.75059129210838L128.05526744047802,88.07652276727447L128.1446291065216,88.15326154511365L128.2563311890761,88.24921060187849L128.278671605587,88.26839895126196L128.4127141046524,88.38357290664722L128.6584586862723,88.59482749605019L128.8818628513813,88.78698876408568L129.0829265999794,88.96002016151674L129.2616499320666,89.11389244895386L129.5744157632192,89.38332611368756L129.77547951181728,89.55662797547186L129.90952201088268,89.67220397246321L129.9542028439045,89.71074148787264L130.065904926459,89.80708527639622L130.17760700901349,89.90345830430931L130.3786707576116,90.07698677136251L130.8925003373623,90.52076029620908L130.9371811703841,90.55937091009233L131.2276065850258,90.81042030865481L131.2946278345585,90.86837277871665L131.49569158315657,91.04227404798644L131.76377658128737,91.2742447448762L131.80845741430917,91.31291383753853L132.27760616103808,91.7191439862199L132.43398907661438,91.85462469763843L132.59037199219068,91.99013464844646L133.34994615356126,92.64879575684593L133.50632906913756,92.78448845383858L133.59569073518117,92.8620386247374L133.90845656633377,93.13354828612822L134.51164781212807,93.65745966784762L134.80207322676978,93.9098467684814L135.07015822490058,94.14288470308927L135.18186030745505,94.24000333543555L135.29356239000958,94.33712927762923L135.31590280652048,94.35655885197639L135.42760488907496,94.45369941386485L135.87441321929296,94.84236399928201L135.98611530184746,94.93954842025478L136.18717905044556,95.11450961739526L136.23185988346737,95.15339800547915L136.36590238253277,95.27005585988336L136.65632779717447,95.52285231197067L136.70100863019627,95.56174800990193L136.85739154577254,95.69789757235608L137.48292320807775,96.24260546988347L137.52760404109955,96.28152309735688L137.70632737318675,96.43718629740313L137.81802945574125,96.53448402101033L137.88505070527393,96.59286411714413L137.97441237131756,96.67070668193831L138.24249736944836,96.90424899601568L138.37653986851373,97.02103111782543L138.93505028128624,97.50764765819072L139.02441194732984,97.58551215252706L139.11377361337344,97.66337664686341L139.18079486290614,97.72177501761568L139.27015652894974,97.79964316687573L139.2924969454606,97.81910929045982L139.71696485916775,98.18897660332853L140.05207110683122,98.48097942186092L140.11909235636392,98.5393777926132L140.25313485542932,98.65617453411771L140.54356027007103,98.90922683086349L140.76696443518003,99.10387344700959L141.12441109935443,99.41528391034699L141.48185776352884,99.72665782444747L141.79462359468144,99.99907025199023L142.10738942583401,100.2714461302961L142.30845317443212,100.44652063007103L142.39781484047572,100.52432299070462L142.48717650651932,100.6021253513382L143.00100608627,101.04938567338701L143.42547399997713,101.41873398709149L143.67121858159703,101.6325068189183L143.7382398311297,101.69080285180719L143.7605802476406,101.71023242615435L144.16270774483678,102.05991359547164L144.2297289943695,102.11818038897101L144.341431076924,102.21528440162254L144.4978139925003,102.35121101373147L144.8999414896965,102.70062537361927L144.98930315574012,102.77825229791561L145.01164357225102,102.79765628779694L145.1456860713164,102.91407657216119L145.9499410657088,103.61219258181681L146.59781314452488,104.17399821237579L146.6424939775467,104.21272212889353L146.75419606010118,104.3095264378023L147.1786639738083,104.67721541615055L147.26802563985188,104.75459015071218L147.6031318875154,105.04464489491666L148.0722806342443,105.4504327978313L148.13930188377697,105.50837430312204L148.16164230028787,105.52768691991106L148.76483354608217,106.0487986300823L148.7871739625931,106.06808931732918L149.41270562489828,106.60780824401685L149.70313103953998,106.85814858738308L149.77015228907266,106.91589638171814L150.23930103580156,107.31988606217628L150.46270520091056,107.51210580899082L150.6637689495087,107.68502024886375L151.46802394390104,108.37580082666933L151.53504519343377,108.43330008619334L151.60206644296647,108.49079203586997L151.82547060807548,108.68235389641994L151.89249185760815,108.73979833208858L151.98185352365175,108.81637629328532L152.83078935106596,109.54291664449433L152.94249143362046,109.63838325133179L153.29993809779484,109.94366075271385L153.38929976383847,110.01992804539677L153.83610809405644,110.40095018537377L154.23823559125265,110.74341288039919L154.32759725729625,110.81945722273689L154.57334183891615,111.02845672422185L154.61802267193795,111.06643869123009L154.68504392147062,111.12340067697134L154.81908642053605,111.23728809921695L154.86376725355785,111.27523717191197L155.24355433424313,111.59758316693612L155.48929891586303,111.80593574692757L155.55632016539576,111.86272595125531L155.57866058190663,111.88165114613297L155.73504349748293,112.01410192581073L155.77972433050473,112.05193404094759L156.00312849561374,112.24098496892108L156.69568140745164,112.82606515355135L157.09780890464782,113.16508125553513L157.65631931742033,113.63504961848291L157.70100015044213,113.67260030449548L157.9020638990402,113.84150163815448L158.1924893136819,114.08522291471432L158.32653181274733,114.19760816332249L158.6839784769217,114.4969975826366L158.9967443080743,114.75858412620337L159.1084463906288,114.85192356745206L159.33185055573782,115.03845990792541L159.5552547208468,115.22481350221416L159.8009993024667,115.42958791191106L159.8233397189776,115.44819147350381L160.0914247171084,115.67129532551655L160.5382330473264,116.04251861507505L160.6052542968591,116.09813558889763L160.850998878479,116.30191220442659L161.18610512614248,116.57939766605396L161.69993470589318,117.00399015136442L161.81163678844771,117.09614905226056L161.9009984544913,117.16983962374053L162.05738137006762,117.29871954297111L162.2361047021548,117.44588139050956L162.3478067847093,117.53778810167093L162.3701472012202,117.55616140307106L162.8839767809709,117.97820275164445L163.06270011305807,118.12472864246047L163.08504052956897,118.14303615523416L163.2190830286344,118.25282640802094L163.6882317753633,118.6364654733615L163.9339763569832,118.83702941096509L164.15738052209218,119.01911770930515L164.1797209386031,119.03731557436811L164.24674218813578,119.09189089493842L164.5148271862666,119.30998384656931L164.64886968533196,119.41890788244106L164.8052526009083,119.54587993150437L164.872273850441,119.60025788619534L165.0286567660173,119.7270654636925L165.0509971825282,119.74517195566312L165.18503968159357,119.85375608363151L165.25206093112627,119.90801708076434L165.2744013476372,119.9260979882691L165.8105713438988,120.35934533288246L165.94461384296417,120.46743970107607L166.39142217318218,120.82711708669127L166.57014550526935,120.97070807378253L167.12865591804186,121.41839967682701L167.37440049966176,121.61488106466656L167.44142174919446,121.66841473198464L167.50844299872716,121.72192281483687L167.66482591430346,121.84668363506647L167.82120882987977,121.97132018789053L168.26801716009777,122.32671765786228L169.07227215449015,122.96375258277564L169.42971881866455,123.24575187516275L169.47439965168635,123.28095244524133L169.72014423330626,123.4743600422558L169.89886756539346,123.61481144989556L169.94354839841526,123.64989506241596L170.56908006072044,124.1398960621201L170.63610131025314,124.19226380878041L171.19461172302562,124.62766755837205L171.21695213953655,124.64504672052797L171.23929255604745,124.66242222776017L171.70844130277632,125.02663537367725L171.77546255230905,125.07856087457083L172.24461129903793,125.4412937763926L172.55737713019056,125.68238350789412L172.75844087878863,125.8370562236198L172.84780254483223,125.90572127502317L173.0488662934303,126.06003946315072L173.3616321245829,126.29959778162527L173.45099379062654,126.36793388989632L173.67439795573554,126.53855486515243L173.71907878875734,126.5726406835049L174.12120628595352,126.87886115519954L174.38929128408432,127.08244040484912L174.63503586570422,127.26865511203758L174.679716698726,127.30247229349868L175.1935462784767,127.6904333061051L175.6180141921838,128.00963241183035L175.6626950252056,128.04316450924344L175.7073758582274,128.0766819869618L175.7743971077601,128.12693536026626L176.0871629389127,128.36105880721064L176.37758835355442,128.5778780179348L176.8243966837724,128.9103444966624L177.18184334794682,129.17534839388128L177.2265241809686,129.20841448852363L177.67333251118657,129.53830790097197L177.8520558432738,129.66988332642546L177.94141750931738,129.73558606217637L178.25418334047,129.9651152700398L178.2765237569809,129.98148384579488L178.3658854230245,130.04692342703993L179.147800000906,130.61713172716708L179.1924808339278,130.64958379462917L179.2148212504387,130.66580434597466L179.3935445825259,130.79544266187136L179.7286508301894,131.0378975073719L180.1977995769183,131.3759742939668L180.28716124296187,131.44018764831318L180.82333123922348,131.8242415474928L181.15843748688698,132.06319863102L181.6275862336159,132.39633396078318L182.14141581336656,132.7592989502594L182.23077747941016,132.82222028908063L182.27545831243197,132.8536562877563L182.40950081149737,132.94787839307665L182.45418164451917,132.9792540855114L183.14673455635707,133.46363198511526L183.50418122053145,133.71218141587235L183.72758538564048,133.867020430626L183.81694705168405,133.92884529233962L184.75524454514186,134.57421344327096L184.97864871025084,134.72684122919094L185.06801037629447,134.7877797719092L185.11269120931627,134.81822528626432L185.31375495791437,134.9550309075212L185.42545704046884,135.0308925036743L185.82758453766505,135.30315690680754L186.05098870277402,135.45384758317067L186.07332911928495,135.46889490401105L186.29673328439392,135.6191341972982L186.43077578345935,135.70908186936063L186.60949911554656,135.82878244773852L186.74354161461196,135.91838290205018L186.78822244763373,135.94821804414872L186.83290328065553,135.9780349116288L187.01162661274273,136.09713973744488L187.14566911180813,136.18629429106613L187.16800952831906,136.20113876364158L187.50311577598254,136.42330330026542L187.52545619249344,136.43808198421442L187.57013702551524,136.46762473241762L188.03928577224414,136.77680569230284L188.21800910433132,136.8940995034295L188.41907285292942,137.02573158020022L188.59779618501665,137.1424479133835L188.62013660152752,137.15701826668203L189.44673201243083,137.6931041992198L189.51375326196353,137.7363127071077L189.7818382600943,137.9087538343625L189.84885950962703,137.95176680383292L190.2509870068232,138.20901495297718L190.2733274233341,138.22326550045264L190.295667839845,138.23751056554258L190.78715700308481,138.54980369295163L191.39034824887912,138.93014418966004L192.01587991118433,139.3211333065454L192.4850286579132,139.61205975005046L192.7977944890658,139.80489900643084L192.82013490557668,139.81863786458942L192.9318369881312,139.88727002167954L193.06587948719658,139.96947839282393L193.1552411532402,140.02419260049456L193.66907073299092,140.33736839197525L194.1382194797198,140.6211786990518L194.2499215622743,140.68845122452848L194.6520490594705,140.9296670508974L194.8307723915577,141.0363871677828L194.94247447411217,141.10293601836844L194.96481489062307,141.11623080329844L195.0765169731776,141.18263711186006L195.0988573896885,141.19590448486235L195.47864447037378,141.42072432354854L195.5680061364174,141.47342466826484L195.83609113454818,141.63107066441404L196.104176132679,141.78803044864006L196.2382186317444,141.8662522117673L196.7073673784733,142.13867103542654L197.26587779124577,142.46021020604564L197.73502653797468,142.72796077841915L197.82438820401828,142.77871761746218L197.84672862052918,142.79139380655727L197.86906903704008,142.8040663407287L197.95843070308368,142.85470530848264L198.29353695074718,143.0439051745966L198.49460069934526,143.15689439934488L198.56162194887798,143.19446884236146L198.60630278189979,143.21949410488122L198.62864319841066,143.2319994262937L198.65098361492156,143.24449926532066L198.71800486445426,143.28197045674293L199.0754515286287,143.48106328756046L199.3211961102486,143.61720279897446L199.74566402395567,143.8509342553529L200.43821693579358,144.22840563696303L200.54991901834805,144.2888352315572L200.72864235043525,144.38525942840198L201.55523776133856,144.8269999019448L201.64459942738213,144.87433755987388L202.04672692457837,145.0863441498265L202.64991817037264,145.4012322730569L202.76162025292714,145.4591317467252L202.89566275199255,145.52844006469837L203.29779024918872,145.73524478450622L203.56587524731952,145.8721774143614L203.74459857940673,145.96304795465608L203.87864107847213,146.0309811075901L204.01268357753753,146.09872511822303L204.4371514912446,146.31200270788958L204.81693857192994,146.5012162799674L205.24140648563701,146.71088097756433L205.37544898470242,146.77669244729506L205.91161898096402,147.03802040501063L205.93395939747492,147.0488426340629L206.00098064700762,147.08127551317563L206.20204439560572,147.17828723900394L206.22438481211663,147.18903911077516L206.38076772769293,147.26415510249507L206.51481022675833,147.32832916641172L206.62651230931283,147.38166089919585L206.96161855697633,147.5408447044885L206.98395897348723,147.55141383007512L207.252043971618,147.677821193428L207.4084268871943,147.75119835520135L207.98927771647772,148.02140960495058L208.07863938252132,148.06265359135398L208.12332021554312,148.08324269024249L208.59246896227202,148.29810834425325L208.7041710448265,148.34891086984243L208.79353271087012,148.38945311089697L208.83821354389192,148.40969225084194L208.9052347934246,148.44000801540597L209.2180006245772,148.58082948406957L209.3743835401535,148.65083406500608L209.4637452061971,148.69071567860328L209.8658727033933,148.86908509208664L209.9775747859478,148.91831325929542L210.29034061710038,149.05541310190952L210.5360851987203,149.16236804764216L210.71480853080752,149.23972907623994L210.826510613362,149.28789822930895L210.8935318628947,149.3167328360468L211.0275743619601,149.3742503701893L211.2062976940473,149.45062639685202L211.2286381105582,149.46014792993537L211.69778685728707,149.65880582483356L211.7871485233307,149.6963638206935L211.8541697728634,149.7244729250785L212.0105526884397,149.78986407858463L212.27863768657048,149.90131777851678L212.45736101865768,149.97516733917737L213.1275735139847,150.24886675672522L213.2392755965392,150.29398496224223L213.30629684607186,150.32098753847944L213.57438184420266,150.4284834129185L214.13289225697517,150.64978538755105L214.28927517255147,150.71110724039153L215.24991308252015,151.08160137267348L215.27225349903108,151.0900903898138L215.65204057971636,151.23351644847344L215.87544474482536,151.31710044152248L215.96480641086896,151.3503712118916L216.43395515759786,151.52351317076437L216.79140182177224,151.65370200954217L216.83608265479404,151.66987047822505L217.12650806943574,151.77439307224063L217.50629515012105,151.90958001916738L217.66267806569735,151.9647510922995L217.75203973174095,151.99614780054551L217.90842264731725,152.05086566313986L217.95310348033902,152.06644614597377L218.19884806195893,152.15171688630667L218.39991181055703,152.220952105806L218.84672014077506,152.37309104568214L219.20416680494944,152.4930936121301L219.31586888750397,152.53028246069715L219.62863471865654,152.6336190319746L219.71799638470014,152.66292923565788L219.80735805074372,152.6921439544597L220.16480471491815,152.80804706712152L220.27650679747262,152.84395303747263L221.10310220837593,153.1050000229294L221.17012345790863,153.12580521918116L221.50522970557213,153.22902094954406L221.88501678625744,153.34435891962997L221.9073572027683,153.35108923317625L221.974378452301,153.37124362457809L222.01905928532284,153.3846498846807L222.42118678251902,153.50421637304564L222.62225053111712,153.56326394961872L222.93501636226972,153.65413905856798L223.47118635853133,153.80715403796657L223.8286330227057,153.90721579761592L224.0520371878147,153.96896116473923L224.1413988538583,153.99348844390593L224.2754413529237,154.03009570274048L224.6328880170981,154.126638913038L224.655228433609,154.1326208809583L225.28076009591422,154.29762446693243L225.30310051242512,154.30342848575546L225.52650467753412,154.36113013667892L225.61586634357772,154.38403851308277L225.9733130077521,154.4746874736286L226.0403342572848,154.49150834619053L226.1967171728611,154.53054178905845L226.219057589372,154.53609316128126L226.3084192554156,154.55823765863346L226.55416383703547,154.61862522160516L226.66586591959,154.64582699118355L226.7105467526118,154.65666429679607L227.7158654956023,154.89395816161064L227.8722484111786,154.92974169201807L228.1626738258203,154.99538891861542L228.8105459046364,155.13804264621237L228.89990757067997,155.1573077489934L228.94458840370177,155.16690283741607L229.03395006974537,155.1860180883257L229.12331173578897,155.20503351413203L229.68182214856148,155.32161552886964L230.19565172831219,155.42541753183602L230.3967154769103,155.46513341748707L230.463736726443,155.47825916219628L230.6648004750411,155.51729763058427L231.02224713921547,155.58544356860696L231.06692797223727,155.5938487509351L231.67011921803154,155.7048556364459L231.80416171709697,155.728900694118L232.25097004731495,155.80741176729876L232.27331046382585,155.81127113828487L232.42969337940215,155.83810981403775L232.65309754451116,155.87591406038143L233.12224629124006,155.95324630645513L233.61373545447984,156.0312691046739L233.94884170214337,156.08270895758187L234.14990545074144,156.1128882906975L234.30628836631774,156.13600591148273L234.55203294793765,156.17170537864524L234.64139461398125,156.1844965265121L234.84245836257935,156.21290504909888L235.08820294419925,156.24692764869312L235.15522419373193,156.25607301017712L235.42330919186273,156.29208223212254L235.51267085790633,156.30388175350515L235.60203252394996,156.3155793938899L235.82543668905896,156.34437802247265L235.87011752208073,156.3500613145975L235.95947918812433,156.36135148809873L235.98181960463523,156.36415812684515L236.00416002114613,156.36695836947513L236.24990460276604,156.39734060796383L236.33926626880964,156.40819750168302L236.54033001740774,156.4322524961789L236.96479793111484,156.48133846401282L237.70203167597455,156.5611151687383L237.74671250899632,156.56572651172L237.85841459155083,156.57714295141315L238.1935208392143,156.61043308145622L238.2158612557252,156.61260125072016L238.32756333827973,156.623346126739L238.483946253856,156.63812024203338L238.86373333454134,156.6726943353478L238.9754354170958,156.68251100351932L239.2435204152266,156.7054176095695L239.3999033308029,156.71835369800402L239.57862666289014,156.73275326928223L239.60096707940102,156.73452436535197L240.11479665915172,156.77348980665133L240.49458373983703,156.80010930119903L240.6509666554133,156.81053120189068L240.69564748843513,156.81345111471745L240.7626687379678,156.8177828274826L240.7850091544787,156.8192139014326L240.9190516535441,156.82766546988216L240.94139207005503,156.82905159969238L241.0754345691204,156.83723347474918L241.164796235164,156.84255962657653L241.96905122955638,156.88586947293462L241.99139164606729,156.88695364322888L242.30415747721992,156.9014570585988L242.81798705697062,156.92254833472248L243.1530933046341,156.93447060657456L243.59990163485207,156.94811543789496L243.6892633008957,156.95053557381485L244.31479496320088,156.96459361763732L244.47117787877718,156.96731974633857L244.53819912830988,156.96839154111117L244.62756079435349,156.96973048974704L244.67224162737529,156.97036134421026L244.69458204388616,156.97066711614357L244.8733053759734,156.97288156489725L245.2977732896805,156.97648975981886L245.3647945392132,156.9768470427195L245.47649662176767,156.97731376469642L245.5211774547895,156.97745539092602L245.5658582878113,156.97757126702584L245.74458161989847,156.97777726915146" fill="none"></path></g></g></g></g></g></g><g transform="translate(61, 176)" clip-path="url(#clip_1)"><clipPath id="clip_1"><rect width="268" height="23"></rect></clipPath><g><g><line x1="0" y1="0" x2="0" y2="5" style="visibility: inherit;" fill="rgb(0, 0, 0)" stroke="rgb(204, 204, 204)" stroke-width="1px"></line><line x1="22.34041651089986" y1="0" x2="22.34041651089986" y2="5" style="visibility: inherit;" fill="rgb(0, 0, 0)" stroke="rgb(204, 204, 204)" stroke-width="1px"></line><line x1="44.68083302179972" y1="0" x2="44.68083302179972" y2="5" style="visibility: inherit;" fill="rgb(0, 0, 0)" stroke="rgb(204, 204, 204)" stroke-width="1px"></line><line x1="67.02124953269958" y1="0" x2="67.02124953269958" y2="5" style="visibility: inherit;" fill="rgb(0, 0, 0)" stroke="rgb(204, 204, 204)" stroke-width="1px"></line><line x1="89.36166604359944" y1="0" x2="89.36166604359944" y2="5" style="visibility: inherit;" fill="rgb(0, 0, 0)" stroke="rgb(204, 204, 204)" stroke-width="1px"></line><line x1="111.70208255449931" y1="0" x2="111.70208255449931" y2="5" style="visibility: inherit;" fill="rgb(0, 0, 0)" stroke="rgb(204, 204, 204)" stroke-width="1px"></line><line x1="134.04249906539917" y1="0" x2="134.04249906539917" y2="5" style="visibility: inherit;" fill="rgb(0, 0, 0)" stroke="rgb(204, 204, 204)" stroke-width="1px"></line><line x1="156.38291557629904" y1="0" x2="156.38291557629904" y2="5" style="visibility: inherit;" fill="rgb(0, 0, 0)" stroke="rgb(204, 204, 204)" stroke-width="1px"></line><line x1="178.72333208719888" y1="0" x2="178.72333208719888" y2="5" style="visibility: inherit;" fill="rgb(0, 0, 0)" stroke="rgb(204, 204, 204)" stroke-width="1px"></line><line x1="201.06374859809875" y1="0" x2="201.06374859809875" y2="5" style="visibility: inherit;" fill="rgb(0, 0, 0)" stroke="rgb(204, 204, 204)" stroke-width="1px"></line><line x1="223.40416510899863" y1="0" x2="223.40416510899863" y2="5" style="visibility: inherit;" fill="rgb(0, 0, 0)" stroke="rgb(204, 204, 204)" stroke-width="1px"></line><line x1="245.74458161989847" y1="0" x2="245.74458161989847" y2="5" style="visibility: inherit;" fill="rgb(0, 0, 0)" stroke="rgb(204, 204, 204)" stroke-width="1px"></line><line x1="268.08499813079834" y1="0" x2="268.08499813079834" y2="5" style="visibility: inherit;" fill="rgb(0, 0, 0)" stroke="rgb(204, 204, 204)" stroke-width="1px"></line></g><g transform="translate(0, 8)"><text style="text-anchor: middle; visibility: hidden; font-family: Roboto, sans-serif; font-size: 12px; font-weight: 200;" x="0" y="0" dx="0em" dy="0.95em" fill="rgb(33, 33, 33)" stroke="none" stroke-width="1px">-1k</text><text style="text-anchor: middle; visibility: inherit; font-family: Roboto, sans-serif; font-size: 12px; font-weight: 200;" x="22.34041651089986" y="0" dx="0em" dy="0.95em" fill="rgb(33, 33, 33)" stroke="none" stroke-width="1px">0</text><text style="text-anchor: middle; visibility: inherit; font-family: Roboto, sans-serif; font-size: 12px; font-weight: 200;" x="44.68083302179972" y="0" dx="0em" dy="0.95em" fill="rgb(33, 33, 33)" stroke="none" stroke-width="1px">1k</text><text style="text-anchor: middle; visibility: inherit; font-family: Roboto, sans-serif; font-size: 12px; font-weight: 200;" x="67.02124953269958" y="0" dx="0em" dy="0.95em" fill="rgb(33, 33, 33)" stroke="none" stroke-width="1px">2k</text><text style="text-anchor: middle; visibility: inherit; font-family: Roboto, sans-serif; font-size: 12px; font-weight: 200;" x="89.36166604359944" y="0" dx="0em" dy="0.95em" fill="rgb(33, 33, 33)" stroke="none" stroke-width="1px">3k</text><text style="text-anchor: middle; visibility: inherit; font-family: Roboto, sans-serif; font-size: 12px; font-weight: 200;" x="111.70208255449931" y="0" dx="0em" dy="0.95em" fill="rgb(33, 33, 33)" stroke="none" stroke-width="1px">4k</text><text style="text-anchor: middle; visibility: inherit; font-family: Roboto, sans-serif; font-size: 12px; font-weight: 200;" x="134.04249906539917" y="0" dx="0em" dy="0.95em" fill="rgb(33, 33, 33)" stroke="none" stroke-width="1px">5k</text><text style="text-anchor: middle; visibility: inherit; font-family: Roboto, sans-serif; font-size: 12px; font-weight: 200;" x="156.38291557629904" y="0" dx="0em" dy="0.95em" fill="rgb(33, 33, 33)" stroke="none" stroke-width="1px">6k</text><text style="text-anchor: middle; visibility: inherit; font-family: Roboto, sans-serif; font-size: 12px; font-weight: 200;" x="178.72333208719888" y="0" dx="0em" dy="0.95em" fill="rgb(33, 33, 33)" stroke="none" stroke-width="1px">7k</text><text style="text-anchor: middle; visibility: inherit; font-family: Roboto, sans-serif; font-size: 12px; font-weight: 200;" x="201.06374859809875" y="0" dx="0em" dy="0.95em" fill="rgb(33, 33, 33)" stroke="none" stroke-width="1px">8k</text><text style="text-anchor: middle; visibility: inherit; font-family: Roboto, sans-serif; font-size: 12px; font-weight: 200;" x="223.40416510899863" y="0" dx="0em" dy="0.95em" fill="rgb(33, 33, 33)" stroke="none" stroke-width="1px">9k</text><text style="text-anchor: middle; visibility: inherit; font-family: Roboto, sans-serif; font-size: 12px; font-weight: 200;" x="245.74458161989847" y="0" dx="0em" dy="0.95em" fill="rgb(33, 33, 33)" stroke="none" stroke-width="1px">10k</text><text style="text-anchor: middle; visibility: hidden; font-family: Roboto, sans-serif; font-size: 12px; font-weight: 200;" x="268.08499813079834" y="0" dx="0em" dy="0.95em" fill="rgb(33, 33, 33)" stroke="none" stroke-width="1px">11k</text></g><line x1="0" y1="0" x2="268.08499813079834" y2="0" fill="rgb(0, 0, 0)" stroke="rgb(204, 204, 204)" stroke-width="1px"></line></g></g></g></g></svg>