<svg viewBox="0 0 330 200" xmlns="http://www.w3.org/2000/svg"><g><g><g><g><g><line x1="51.53200149536133" y1="176.5999994277954" x2="46.53200149536133" y2="176.5999994277954" style="visibility: inherit;" fill="rgb(0, 0, 0)" stroke="rgb(204, 204, 204)" stroke-width="1px"></line><line x1="51.53200149536133" y1="158.93999948501587" x2="46.53200149536133" y2="158.93999948501587" style="visibility: inherit;" fill="rgb(0, 0, 0)" stroke="rgb(204, 204, 204)" stroke-width="1px"></line><line x1="51.53200149536133" y1="141.27999954223634" x2="46.53200149536133" y2="141.27999954223634" style="visibility: inherit;" fill="rgb(0, 0, 0)" stroke="rgb(204, 204, 204)" stroke-width="1px"></line><line x1="51.53200149536133" y1="123.61999959945678" x2="46.53200149536133" y2="123.61999959945678" style="visibility: inherit;" fill="rgb(0, 0, 0)" stroke="rgb(204, 204, 204)" stroke-width="1px"></line><line x1="51.53200149536133" y1="105.95999965667724" x2="46.53200149536133" y2="105.95999965667724" style="visibility: inherit;" fill="rgb(0, 0, 0)" stroke="rgb(204, 204, 204)" stroke-width="1px"></line><line x1="51.53200149536133" y1="88.2999997138977" x2="46.53200149536133" y2="88.2999997138977" style="visibility: inherit;" fill="rgb(0, 0, 0)" stroke="rgb(204, 204, 204)" stroke-width="1px"></line><line x1="51.53200149536133" y1="70.63999977111817" x2="46.53200149536133" y2="70.63999977111817" style="visibility: inherit;" fill="rgb(0, 0, 0)" stroke="rgb(204, 204, 204)" stroke-width="1px"></line><line x1="51.53200149536133" y1="52.979999828338634" x2="46.53200149536133" y2="52.979999828338634" style="visibility: inherit;" fill="rgb(0, 0, 0)" stroke="rgb(204, 204, 204)" stroke-width="1px"></line><line x1="51.53200149536133" y1="35.31999988555907" x2="46.53200149536133" y2="35.31999988555907" style="visibility: inherit;" fill="rgb(0, 0, 0)" stroke="rgb(204, 204, 204)" stroke-width="1px"></line><line x1="51.53200149536133" y1="17.659999942779535" x2="46.53200149536133" y2="17.659999942779535" style="visibility: inherit;" fill="rgb(0, 0, 0)" stroke="rgb(204, 204, 204)" stroke-width="1px"></line><line x1="51.53200149536133" y1="0" x2="46.53200149536133" y2="0" style="visibility: inherit;" fill="rgb(0, 0, 0)" stroke="rgb(204, 204, 204)" stroke-width="1px"></line></g><g transform="translate(41.53200149536133, 0)"><text style="text-anchor: end; visibility: hidden; font-family: Roboto, sans-serif; font-size: 12px; font-weight: 200;" x="0" y="176.5999994277954" dx="0em" dy="0.3em" fill="rgb(33, 33, 33)" stroke="none" stroke-width="1px">-0.5</text><text style="text-anchor: end; visibility: inherit; font-family: Roboto, sans-serif; font-size: 12px; font-weight: 200;" x="0" y="158.93999948501587" dx="0em" dy="0.3em" fill="rgb(33, 33, 33)" stroke="none" stroke-width="1px">0</text><text style="text-anchor: end; visibility: hidden; font-family: Roboto, sans-serif; font-size: 12px; font-weight: 200;" x="0" y="141.27999954223634" dx="0em" dy="0.3em" fill="rgb(33, 33, 33)" stroke="none" stroke-width="1px">0.5</text><text style="text-anchor: end; visibility: inherit; font-family: Roboto, sans-serif; font-size: 12px; font-weight: 200;" x="0" y="123.61999959945678" dx="0em" dy="0.3em" fill="rgb(33, 33, 33)" stroke="none" stroke-width="1px">1</text><text style="text-anchor: end; visibility: hidden; font-family: Roboto, sans-serif; font-size: 12px; font-weight: 200;" x="0" y="105.95999965667724" dx="0em" dy="0.3em" fill="rgb(33, 33, 33)" stroke="none" stroke-width="1px">1.5</text><text style="text-anchor: end; visibility: inherit; font-family: Roboto, sans-serif; font-size: 12px; font-weight: 200;" x="0" y="88.2999997138977" dx="0em" dy="0.3em" fill="rgb(33, 33, 33)" stroke="none" stroke-width="1px">2</text><text style="text-anchor: end; visibility: hidden; font-family: Roboto, sans-serif; font-size: 12px; font-weight: 200;" x="0" y="70.63999977111817" dx="0em" dy="0.3em" fill="rgb(33, 33, 33)" stroke="none" stroke-width="1px">2.5</text><text style="text-anchor: end; visibility: inherit; font-family: Roboto, sans-serif; font-size: 12px; font-weight: 200;" x="0" y="52.979999828338634" dx="0em" dy="0.3em" fill="rgb(33, 33, 33)" stroke="none" stroke-width="1px">3</text><text style="text-anchor: end; visibility: hidden; font-family: Roboto, sans-serif; font-size: 12px; font-weight: 200;" x="0" y="35.31999988555907" dx="0em" dy="0.3em" fill="rgb(33, 33, 33)" stroke="none" stroke-width="1px">3.5</text><text style="text-anchor: end; visibility: inherit; font-family: Roboto, sans-serif; font-size: 12px; font-weight: 200;" x="0" y="17.659999942779535" dx="0em" dy="0.3em" fill="rgb(33, 33, 33)" stroke="none" stroke-width="1px">4</text><text style="text-anchor: end; visibility: hidden; font-family: Roboto, sans-serif; font-size: 12px; font-weight: 200;" x="0" y="0" dx="0em" dy="0.3em" fill="rgb(33, 33, 33)" stroke="none" stroke-width="1px">4.5</text></g><line x1="51.53200149536133" y1="0" x2="51.53200149536133" y2="176.5999994277954" fill="rgb(0, 0, 0)" stroke="rgb(204, 204, 204)" stroke-width="1px"></line></g></g><g transform="translate(51, 0)" clip-path="url(#clip_0)"><clipPath id="clip_0"><rect width="278" height="176"></rect></clipPath><g><g><g><line x1="0" y1="0" x2="0" y2="176.5999994277954" fill="rgb(0, 0, 0)" stroke="rgb(66, 66, 66)" stroke-width="1px" opacity="0.25"></line><line x1="23.205666542053223" y1="0" x2="23.205666542053223" y2="176.5999994277954" fill="rgb(0, 0, 0)" stroke="rgb(66, 66, 66)" stroke-width="1px" opacity="0.25"></line><line x1="46.411333084106445" y1="0" x2="46.411333084106445" y2="176.5999994277954" fill="rgb(0, 0, 0)" stroke="rgb(66, 66, 66)" stroke-width="1px" opacity="0.25"></line><line x1="69.61699962615967" y1="0" x2="69.61699962615967" y2="176.5999994277954" fill="rgb(0, 0, 0)" stroke="rgb(66, 66, 66)" stroke-width="1px" opacity="0.25"></line><line x1="92.82266616821289" y1="0" x2="92.82266616821289" y2="176.5999994277954" fill="rgb(0, 0, 0)" stroke="rgb(66, 66, 66)" stroke-width="1px" opacity="0.25"></line><line x1="116.02833271026611" y1="0" x2="116.02833271026611" y2="176.5999994277954" fill="rgb(0, 0, 0)" stroke="rgb(66, 66, 66)" stroke-width="1px" opacity="0.25"></line><line x1="139.23399925231934" y1="0" x2="139.23399925231934" y2="176.5999994277954" fill="rgb(0, 0, 0)" stroke="rgb(66, 66, 66)" stroke-width="1px" opacity="0.25"></line><line x1="162.43966579437256" y1="0" x2="162.43966579437256" y2="176.5999994277954" fill="rgb(0, 0, 0)" stroke="rgb(66, 66, 66)" stroke-width="1px" opacity="0.25"></line><line x1="185.64533233642578" y1="0" x2="185.64533233642578" y2="176.5999994277954" fill="rgb(0, 0, 0)" stroke="rgb(66, 66, 66)" stroke-width="1px" opacity="0.25"></line><line x1="208.850998878479" y1="0" x2="208.850998878479" y2="176.5999994277954" fill="rgb(0, 0, 0)" stroke="rgb(66, 66, 66)" stroke-width="1px" opacity="0.25"></line><line x1="232.05666542053223" y1="0" x2="232.05666542053223" y2="176.5999994277954" fill="rgb(0, 0, 0)" stroke="rgb(66, 66, 66)" stroke-width="1px" opacity="0.25"></line><line x1="255.26233196258545" y1="0" x2="255.26233196258545" y2="176.5999994277954" fill="rgb(0, 0, 0)" stroke="rgb(66, 66, 66)" stroke-width="1px" opacity="0.25"></line><line x1="278.4679985046387" y1="0" x2="278.4679985046387" y2="176.5999994277954" fill="rgb(0, 0, 0)" stroke="rgb(66, 66, 66)" stroke-width="1px" opacity="0.25"></line></g><g><line x1="0" y1="176.5999994277954" x2="278.4679985046387" y2="176.5999994277954" fill="rgb(0, 0, 0)" stroke="rgb(66, 66, 66)" stroke-width="1px" opacity="0.25"></line><line x1="0" y1="158.93999948501587" x2="278.4679985046387" y2="158.93999948501587" fill="rgb(0, 0, 0)" stroke="rgb(66, 66, 66)" stroke-width="1px" opacity="0.25"></line><line x1="0" y1="141.27999954223634" x2="278.4679985046387" y2="141.27999954223634" fill="rgb(0, 0, 0)" stroke="rgb(66, 66, 66)" stroke-width="1px" opacity="0.25"></line><line x1="0" y1="123.61999959945678" x2="278.4679985046387" y2="123.61999959945678" fill="rgb(0, 0, 0)" stroke="rgb(66, 66, 66)" stroke-width="1px" opacity="0.25"></line><line x1="0" y1="105.95999965667724" x2="278.4679985046387" y2="105.95999965667724" fill="rgb(0, 0, 0)" stroke="rgb(66, 66, 66)" stroke-width="1px" opacity="0.25"></line><line x1="0" y1="88.2999997138977" x2="278.4679985046387" y2="88.2999997138977" fill="rgb(0, 0, 0)" stroke="rgb(66, 66, 66)" stroke-width="1px" opacity="0.25"></line><line x1="0" y1="70.63999977111817" x2="278.4679985046387" y2="70.63999977111817" fill="rgb(0, 0, 0)" stroke="rgb(66, 66, 66)" stroke-width="1px" opacity="0.25"></line><line x1="0" y1="52.979999828338634" x2="278.4679985046387" y2="52.979999828338634" fill="rgb(0, 0, 0)" stroke="rgb(66, 66, 66)" stroke-width="1px" opacity="0.25"></line><line x1="0" y1="35.31999988555907" x2="278.4679985046387" y2="35.31999988555907" fill="rgb(0, 0, 0)" stroke="rgb(66, 66, 66)" stroke-width="1px" opacity="0.25"></line><line x1="0" y1="17.659999942779535" x2="278.4679985046387" y2="17.659999942779535" fill="rgb(0, 0, 0)" stroke="rgb(66, 66, 66)" stroke-width="1px" opacity="0.25"></line><line x1="0" y1="0" x2="278.4679985046387" y2="0" fill="rgb(0, 0, 0)" stroke="rgb(66, 66, 66)" stroke-width="1px" opacity="0.25"></line></g></g></g><g><g><line x1="0" y1="158.93999948501587" x2="278.4679985046387" y2="158.93999948501587" fill="rgb(0, 0, 0)" stroke="rgb(153, 153, 153)" stroke-width="1.5px"></line></g></g><g><g><line x1="23.205666542053223" y1="0" x2="23.205666542053223" y2="176.5999994277954" fill="rgb(0, 0, 0)" stroke="rgb(153, 153, 153)" stroke-width="1.5px"></line></g></g><g><g><g><g><g><path style="fill: none;" stroke="rgb(255, 112, 67)" stroke-width="2px" d="M31.49008949756622,-4.184065427730413L32.023819828033446,1.020159486999745L32.30228782653809,2.76397703292293L32.48793315887451,5.917847997987293L32.557550158500675,9.429470986804114L32.650372824668885,9.410432579923064L32.743195490837095,11.318391975870052L32.90563515663147,8.701579002569234L33.62501081943512,20.577623743398153L33.67142215251923,22.127588496574788L34.01950715065003,27.057152052319434L34.762088479995725,35.42811563209395L34.78529414653778,33.425389725570845L34.99414514541626,37.19774317921317L35.2726131439209,40.2253727782191L35.48146414279938,42.16526010753554L35.59749247550964,47.93702537593773L36.24725113868714,54.79066655724311L36.29366247177124,56.12967940001169L36.61854180335999,64.42015531871856L36.920215468406674,65.88798665767118L36.98983246803284,72.3899419125558L37.036243801116946,74.55885274199771L37.29150613307952,73.41545767043569L37.33791746616364,72.278219701226L37.4539457988739,74.64239937076663L37.662796797752385,79.08641094686769L38.33576112747192,76.39704349581916L38.40537812709808,81.93343789460131L38.5446121263504,76.88412844283003L38.614229125976564,72.67782024140028L38.77666879177094,77.16478798337367L39.17116512298584,69.66129361276472L39.44963312149048,76.94808769927229L40.12259745121003,81.19976485957476L40.21542011737824,82.41365995403395L40.238625783920284,87.59472282636024L40.65632778167724,92.22328034463601L40.74915044784546,91.7972763161753L40.81876744747162,97.76589690139258L41.027618446350104,99.22073368812349L41.28288077831268,99.68188527321489L41.30608644485474,108.01595119816291L42.00225644111634,104.11665189036634L42.30393010616303,103.30895657806867L42.744837770462034,108.55101258990841L42.837660436630244,106.22309057509749L42.93048310279846,113.4571449554336L43.02330576896667,107.784711161L43.2553624343872,102.31538443595538L43.626653099060064,105.21381828813115L43.88191543102264,110.53381437884957L44.16038342952728,111.61478237703469L44.41564576148987,106.96159061011629L44.50846842765808,111.63788084803302L44.55487976074219,116.11264570803158L44.69411375999451,114.49331079032056L44.717319426536555,116.81711498038365L44.76373075962067,122.76856996500729L45.01899309158325,117.74280418969026L45.297461090087886,122.8566143514806L45.575929088592524,118.9817309153874L45.71516308784484,120.17478839116092L45.784780087471006,118.43779720097874L45.831191420555115,122.97374370414714L46.225687751770025,122.8312743838827L46.24889341831207,116.2041338773729L46.411333084106445,114.21750984534059L46.457744417190554,116.34368385287002L46.57377274990082,126.1249460911568L47.525205078125,122.88765817554757L47.710850410461425,123.13381471596595L47.91970140933991,123.43747800006318L47.96611274242401,121.55542634342089L47.989318408966064,124.31260256340558L48.082141075134274,124.42855673788084L48.12855240821838,118.88452574512974L48.174963741302484,117.1479814119058L48.3141977405548,118.00355627066708L48.45343173980712,124.0928866414898L48.59266573905945,115.79763663609755L48.75510540485382,120.71316934006654L48.94075073719024,125.90070855968806L49.24242440223694,129.62492947717428L49.56730373382568,128.98884973227965L49.706537733078,124.90209423133223L49.91538873195648,129.61805641046826L50.07782839775086,130.55767742524543L50.309885063171386,127.96918747108323L50.402707729339596,133.66462667822483L50.47232472896576,125.51655198314691L50.541941728591915,128.8730645612592L50.84361539363861,116.53186265756852L51.029260725975035,122.43735326421967L51.44696272373199,125.20036967663697L51.609402389526366,129.99384272193527L51.748636388778685,133.88065542767526L52.07351572036743,127.12674637645742L52.39839505195618,130.73662479785332L53.00174238204956,127.07983946721339L53.02494804859162,133.8222628687804L53.25700471401215,135.81877319077347L53.39623871326447,135.74079181486118L53.69791237831116,134.48181817878827L53.95317471027374,138.81888210076158L54.13882004261016,139.85959445802857L54.32446537494659,139.08105215037202L54.4172880411148,129.83350931375892L54.649344706535345,130.8679253629225L54.67255037307739,133.2179270375986L54.834990038871766,130.13079353549114L55.34551470279694,117.11015873408529L55.554365701675415,121.5215934874633L55.740011034011836,128.0725387994967L56.29694703102112,125.53291057311061L56.320152697563174,128.37530562020234L56.34335836410523,136.08615583700697L56.900294361114504,135.0558394473326L57.52684735774994,139.05960272355227L57.6428756904602,142.35359152135572L58.36225135326386,140.15448994052002L58.40866268634796,139.0522219844789L58.66392501831055,141.47101354462418L58.919187350273134,141.0013970074431L59.19765534877777,136.3041959470972L59.29047801494598,139.42672343617187L59.33688934803009,144.27152629694248L59.7777970123291,141.86089838707952L60.033059344291686,147.10665272299408L60.10267634391784,147.2286015501661L60.40435000896454,145.60798886953552L60.65961234092712,141.96398577176666L60.68281800746918,145.29654947139517L60.845257673263546,142.41317962593877L61.1701370048523,138.99325611281228L61.28616533756256,143.01095689249655L61.35578233718872,142.94945761734053L62.051952333450316,138.3224024274711L62.16798066616059,140.47122252024795L62.724916663169864,141.20788506110307L62.79453366279602,142.04374025035563L62.910561995506285,138.86946406917653L63.23544132709503,141.44069082643574L63.86199432373047,145.76554515790968L64.37251898765564,143.89490515895827L64.39572465419769,142.22786796311L64.88304365158082,146.51551354838958L65.46318531513214,148.19787910068393L65.5328023147583,147.31378513253168L65.74165331363677,147.58710450587196L65.76485898017883,145.95825690228668L66.02012131214143,148.95250814172033L66.1825609779358,143.94428925410844L66.34500064373016,145.87691454616808L66.48423464298249,147.33894308956445L66.5770573091507,148.29732464405026L66.64667430877685,143.0687196844134L66.71629130840302,147.8599093440753L66.76270264148712,141.21477942071783L67.57490097045898,143.17598696989114L68.50312763214112,143.00385139634375L68.73518429756164,147.05041134736308L69.22250329494476,147.92555215699028L69.5009712934494,148.8801721638358L69.68661662578582,148.2196328926423L69.756233625412,150.44935045911282L69.87226195812225,152.4475985993944L70.12752429008485,153.64460729802275L70.40599228858949,152.1234072510182L70.61484328746795,151.48824154320522L70.84689995288849,149.27420572308915L71.14857361793518,150.732860760075L71.2878076171875,144.95127719250712L71.38063028335571,146.9524646074847L71.5430699491501,150.0156473873507L72.07680027961732,148.6561312843803L72.16962294578552,151.18821177288368L72.19282861232757,148.61463866811408L72.26244561195374,148.2740565689308L72.49450227737428,146.23159708588432L72.51770794391632,147.51445793578068L72.65694194316865,144.9311026792391L72.70335327625274,143.70488493442127L72.79617594242096,147.90336948150406L72.95861560821534,149.46174500290564L73.84043093681335,150.28337724970777L74.18851593494416,151.47471560431532L74.2117216014862,153.5397799652439L74.58301226615905,153.09398301597105L74.93109726428986,139.90853394099744L75.32559359550477,136.46960774324114L75.48803326129914,136.53808478135184L75.51123892784119,141.73090255490885L75.62726726055145,134.61200670435275L75.6504729270935,137.14921140828673L75.72008992671965,140.25353996282595L75.85932392597198,141.96620386849622L75.88252959251405,141.32588937550574L76.18420325756074,146.8149656753298L77.11242991924286,149.1278632406279L77.18204691886902,149.43750534775305L77.20525258541107,145.9473935292119L77.4373092508316,148.69355042142777L77.66936591625213,151.36469242941777L77.83180558204651,151.06621138060615L77.90142258167266,151.90140863670462L78.04065658092499,153.11177259353443L78.31912457942963,154.1154374999365L78.34233024597168,151.89067832305457L78.38874157905578,150.1329701571627L78.4351529121399,151.64822879422272L78.59759257793426,143.161927708073L78.89926624298096,143.87464325339624L79.08491157531738,146.90837291394297L79.15452857494354,150.39555345389337L79.38658524036408,153.02281404663813L80.15237223625184,147.353008560529L80.221989235878,150.80881885015944L80.57007423400879,146.28017699357153L81.38227256298066,140.03713581194143L81.42868389606475,145.3407676166108L81.93920855998994,148.80060880788778L82.56576155662536,143.4744901091374L83.07628622055054,144.18333450223605L83.47078255176545,144.95032936941L83.51719388484955,147.0155986722091L83.56360521793366,148.74638171225658L83.70283921718597,152.2880142479011L83.93489588260651,148.7214594859712L84.32939221382141,147.8384434948579L84.39900921344757,145.5872581733455L84.70068287849425,147.62023056322454L85.00235654354096,150.28717683425987L85.11838487625121,152.84461058499033L85.35044154167176,154.67624258739545L85.48967554092407,154.368802848083L85.53608687400818,146.31925797529178L85.6289095401764,151.0825628808861L85.86096620559692,152.8497303980895L86.0234058713913,151.23656302156613L86.37149086952209,153.0335347790764L86.60354753494262,154.5480440040438L86.69637020111084,155.26273098496537L86.71957586765289,156.12086311841634L86.765987200737,156.10499386505037L86.88201553344726,155.4805412847498L86.90522119998931,153.78654356896922L87.09086653232573,155.03983865773273L87.4157458639145,150.43291545979963L87.90306486129761,150.67669585746557L87.94947619438172,153.29141904412177L88.04229886054992,145.54790130171827L88.11191586017608,147.50726011729554L88.34397252559661,147.232047774624L88.39038385868074,148.81254841512285L88.5528235244751,151.5866711812016L88.64564619064332,150.60580964434192L88.73846885681152,150.93209020461362L89.36502185344696,152.28862843447655L89.45784451961516,143.98755970270918L89.71310685157776,143.46999193551602L89.80592951774598,146.5139242867922L89.8987521839142,149.19030054050685L90.20042584896088,150.24295783749673L90.22363151550293,138.37943397004346L90.31645418167113,145.31710158645106L90.45568818092346,147.1797199860134L90.52530518054962,151.45655981434254L90.61812784671784,153.26448231731226L90.91980151176453,154.68995395763855L91.12865251064301,155.82397693116556L91.61597150802612,156.2654245295326L91.66238284111023,150.17424525758466L91.75520550727845,146.78534311347653L91.91764517307281,147.92862449738308L92.12649617195129,147.8227820509957L93.00831150054933,151.26034139115535L93.07792850017547,149.40003740835226L93.68127583026886,149.3490168804535L94.23821182727814,136.21331354172315L94.37744582653045,138.7540293220988L94.40065149307252,145.39936294853655L94.72553082466126,149.0460605620259L94.81835349082948,151.61467886033165L94.84155915737152,150.09499157286544L94.86476482391357,146.7396233001L95.28246682167054,150.3631802722785L96.76762948036193,145.39850954707552L97.48700514316559,148.84700286749572L97.55662214279175,150.42296836818159L97.9743241405487,152.04815154822705L98.6240828037262,154.213673073491L98.85613946914673,155.88776516223973L98.87934513568878,156.4048026924589L99.01857913494109,155.89863825034493L99.80757179737091,156.62075879562L100.29489079475404,156.2347338842287L100.71259279251099,155.14932951144937L100.73579845905304,151.57746092068243L101.24632312297821,152.96569302626466L101.36235145568847,152.48404879777965L101.87287611961365,154.87984789652086L102.15134411811829,155.62101632286547L102.26737245082856,155.54402304442507L102.42981211662293,153.83605816184675L102.49942911624908,155.59706230432818L102.89392544746399,154.3495866722825L103.14918777942658,155.08900802651536L103.52047844409944,155.480060253288L103.79894644260408,156.1745155624711L103.91497477531432,151.95112723957777L104.17023710727692,154.0861507492682L104.19344277381896,155.7491658304072L104.35588243961335,156.62043166661002L105.05205243587493,155.34701051008904L105.1680807685852,153.81723125615747L105.21449210166932,152.49666741604085L105.23769776821136,150.71084632710392L105.35372610092163,153.61005117064187L105.49296010017396,151.89916966899904L105.516165766716,150.31451406083735L105.63219409942627,151.74982554660752L106.18913009643555,153.20988304159798L106.58362642765044,153.76438567928247L106.6532434272766,155.28049265356663L107.04773975849152,156.61279392172867L107.27979642391205,157.43281610101602L107.34941342353821,157.80426843485796L107.39582475662232,158.14387433185524L107.46544175624848,158.3630515662927L107.53505875587463,158.329426559834L107.97596642017363,157.4600970176945L108.06878908634185,157.85297341054152L108.16161175251008,157.08648562645018L108.3472570848465,156.77081341451245L108.37046275138854,154.4700570668471L108.57931375026703,150.13200597779178L108.69534208297729,152.041939103682L108.78816474914551,154.0088130390563L108.85778174877167,155.8459057819413L109.32189507961273,154.47733514173274L109.83241974353791,155.92200610475825L109.99485940933228,156.95426339395158L110.04127074241639,155.91260336855257L110.29653307437897,156.96058622972845L110.38935574054717,157.17439181691918L110.52858973979949,157.67335839557165L110.55179540634155,157.2579955472274L110.57500107288361,157.49253076634096L110.71423507213593,157.55823139023965L110.8766747379303,157.85828335553128L111.03911440372467,157.8432180997915L111.13193706989289,155.24812719691425L111.20155406951903,156.23390138230042L111.24796540260316,156.30205473800112L111.48002206802367,157.11384713954874L112.19939773082733,156.85815488268864L112.29222039699555,157.34133596205683L112.33863173007964,157.9291169842009L112.50107139587404,157.9175157622418L112.68671672821046,156.97775693638562L112.7563337278366,157.57499489882858L112.77953939437867,157.22366092078127L113.1044187259674,157.1862915636644L113.15083005905151,157.78257356067087L113.45250372409821,157.94837217844204L113.8470000553131,155.98608084797263L114.1022623872757,157.03409886474608L114.21829071998596,156.1529063838043L114.70560971736907,157.1108041716724L115.37857404708862,155.9833533967836L115.58742504596711,156.90063756535824L115.68024771213531,155.6293894200615L115.70345337867737,156.6118374266429L115.84268737792968,154.68251424656543L116.37641770839691,155.67119669875223L116.65488570690155,156.28617936335314L116.84053103923797,156.69526612995253L117.18861603736877,152.91321637190705L117.60631803512574,154.30662566536864L117.8151690340042,155.71093002866687L117.90799170017242,154.36983382071338L118.46492769718171,155.98146161057315L118.65057302951813,156.98152922676462L119.1610976934433,157.50439352719832L119.30033169269562,157.9437930152544L119.32353735923766,157.88406845132334L119.71803369045257,157.9033134247003L119.90367902278899,157.57597466763698L119.95009035587312,157.57197314617403L120.13573568820954,158.02179714638177L120.66946601867676,157.53011482778263L120.69267168521881,157.28253219428194L120.78549435138703,157.8510428535574L120.92472835063936,158.02674843178752L121.22640201568603,158.13583657363557L121.41204734802245,158.27997476122383L121.45845868110656,157.30765530904338L121.50487001419067,153.68571750500223L121.82974934577942,155.31995336981143L122.13142301082611,156.28605128522813L122.15462867736817,157.14833039489054L122.36347967624664,152.53929651011063L123.66299700260163,154.69839044551324L124.266344332695,156.02090161623747L124.45198966503143,157.05364397463512L124.61442933082581,157.6689239722074L124.80007466316223,157.4476288378983L125.33380499362946,157.70924836248028L125.42662765979767,157.0619053825699L125.44983332633973,157.54615193554616L126.91179031848907,157.95117081422669L127.32949231624603,158.27480762945498L127.58475464820862,158.32169729963562L127.60796031475067,158.4801468972202L127.81681131362916,158.4325591244949L127.90963397979736,157.12908898452187L128.37374731063844,156.3700735508539L128.60580397605895,157.32426297993354L128.95388897418977,156.70092172182243L129.04671164035796,156.8411739232973L129.69647030353545,157.56321513469354L129.74288163661956,158.07757734295785L129.88211563587188,155.3433639587814L130.09096663475037,156.71254874811356L130.46225729942321,157.41392980032472L130.48546296596527,157.81136841707882L131.62254062652588,157.71525736946532L131.73856895923615,157.36871867152067L132.06344829082488,157.95158274267214L132.13306529045104,158.1931358414752L132.27229928970337,157.8913938740793L132.34191628932953,157.9642974232877L132.550767288208,158.27214730952534L132.57397295475008,158.4353265711717L132.59717862129213,158.59143969437716L132.99167495250703,158.45255477364378L133.08449761867521,158.54330157942877L133.2005259513855,158.65175149377947L133.22373161792754,157.79728128423653L133.36296561717987,157.6381440792402L133.61822794914247,157.20151246535562L133.85028461456298,156.79186381976893L134.10554694652558,157.50495744181003L134.24478094577788,157.78632960672027L134.56966027736664,158.09042695307966L134.77851127624513,158.3628345183187L134.91774527549742,158.49997876457857L134.96415660858156,158.3997261893908L135.0801849412918,158.48282501002492L135.21941894054413,158.61161212807738L135.40506427288057,158.68346804760807L135.9387946033478,158.5923854327691L135.9852059364319,158.63905666431867L136.28687960147857,158.68527558971283L136.35649660110474,158.6886468376064L136.56534759998323,158.60239114424573L136.84381559848785,158.592351717352L136.89022693157196,158.65795324408916L137.37754592895507,158.63323414324924L137.53998559474945,158.2023406723746L137.70242526054383,158.40422139744007L138.49141792297362,155.98828776794582L138.653857588768,156.08850468483718L138.74668025493622,157.09167279578364L139.07155958652496,157.66406667392172L139.69811258316042,157.92965305598847L139.9997862482071,157.59210181066663L140.27825424671175,158.0352216961472L140.394282579422,157.22881775200358L140.51031091213227,157.87405558205438L140.53351657867432,158.07838968692715L140.6495449113846,158.10656778687553L141.11365824222565,158.266293860249L141.2296865749359,158.4747411066914L141.4385375738144,158.39902719812733L141.4849489068985,158.5527373411132L141.69379990577698,158.6227051872307L141.92585657119753,158.01666392434464L141.97226790428164,158.35350004080829L142.134707570076,158.42145943817187L142.78446623325348,158.57937377860307L142.8308775663376,158.5171020891811L143.016522898674,158.59329382369512L143.13255123138427,158.68225883374583L143.20216823101043,158.68753740658252L143.29499089717862,158.35445961729195L143.57345889568327,158.53615581967864L143.7126928949356,158.6447423887683L144.29283455848693,158.02783827164103L144.38565722465515,158.25969225937507L144.47847989082337,158.14895186962192L144.54809689044953,158.18668482049108L144.64091955661772,158.41961914599523L144.66412522315977,158.53189377947274L145.1050328874588,158.62194795157558L145.4531178855896,158.689400071493L145.52273488521575,158.53666120002651L145.66196888446808,158.54676982994195L145.96364254951476,158.66725206074312L146.1956992149353,158.59666829177658L146.56698987960814,158.69587073379546L146.93828054428099,158.2359344675356L147.26315987586977,158.40971849489665L147.5880392074585,158.546271442947L147.796890206337,158.63353872201378L147.88971287250519,158.29877818006366L147.9825355386734,158.50323200372682L148.51626586914062,158.5166880202024L148.95717353343966,158.59347653465028L149.21243586540223,158.6916921297223L149.2820528650284,158.66716656149882L149.30525853157044,158.7089860714558L149.7229605293274,158.63022395696566L149.79257752895356,158.5911585827763L149.90860586166383,158.65324920417697L150.0710455274582,158.67508988077824L150.48874752521513,158.73006995799005L150.58157019138335,156.5002627235629L150.60477585792543,156.52600545368364L150.74400985717773,157.43981089109135L151.57941385269166,157.96572812577645L152.25237818241118,158.30469542818153L152.29878951549532,158.52055228053146L152.41481784820556,158.25577757485954L152.8557255125046,158.33975930828677L153.0877821779251,158.52520681958515L153.2966331768036,158.559299057083L153.7839521741867,158.05062268742898L153.85356917381287,158.12073497965486L153.87677484035493,157.98182615928772L154.50332783699034,158.2842544253878L154.5265335035324,158.443938191759L155.1762921667099,158.38830619133023L155.4779658317566,158.52205241777756L155.54758283138275,158.6183605783986L156.03490182876587,158.7341893588605L156.2669584941864,158.75674491586398L156.47580949306487,158.74408574526808L157.31121348857877,158.77693772202758L157.38083048820496,158.76369270091465L157.45044748783113,158.7850371005055L157.68250415325167,157.21424813381878L157.7521211528778,157.5724535826002L158.19302881717684,158.0560386551978L158.72675914764403,157.73993561136518L158.86599314689636,158.12526932763618L159.21407814502714,158.36617048510172L159.3069008111954,158.54719744655267L159.77101414203642,158.31067617336964L160.1887161397934,158.28355772061133L160.28153880596162,158.53437205153332L160.5368011379242,158.66143021498178L160.5832124710083,158.71648475423274L160.6760351371765,158.6735268774436L160.79206346988678,158.57359394848544L160.8384748029709,158.08862576963602L161.2329711341858,158.39193447221723L161.48823346614836,158.54166410915366L161.55785046577455,158.61207308888822L161.5810561323166,158.6550729933281L161.74349579811096,158.7362221179416L161.78990713119506,158.79602723903596L162.0219637966156,158.82949855327755L162.74133945941927,158.81457716102773L163.15904145717622,158.81729238594275L163.73918312072752,158.8288380247659L163.78559445381163,158.8346605801825L163.99444545269012,158.8407410274866L164.2961191177368,158.84255689841402L164.43535311698915,158.78891702051305L164.806643781662,158.81639379914557L165.13152311325072,158.7373526754725L165.24755144596102,158.73121083804895L165.61884211063386,158.75937711488615L165.71166477680205,158.82067883549547L165.96692710876465,158.83342986153025L165.9901327753067,158.8430476097131L166.36142343997957,156.8997132539518L166.73271410465242,157.5323724247062L166.98797643661499,157.97502395722802L167.05759343624115,158.18133142966752L167.40567843437194,158.3980292429083L167.93940876483916,156.2247243299174L168.1250540971756,156.98380534028203L168.14825976371765,157.73855451315796L168.31069942951203,158.16663970421965L168.58916742801668,158.3991576585351L168.61237309455873,158.44335681644296L168.6355787611008,158.61221047820698L169.169309091568,158.72823574894818L169.35495442390442,158.75877773036717L169.37816009044647,158.7781808000744L169.5173940896988,158.82903055803152L170.0047130870819,157.59073991032503L170.37600375175475,158.09147834726122L170.49203208446502,158.36330367269923L170.51523775100708,158.4809122958438L170.58485475063324,158.45118065609068L170.8633227491379,158.61865633838642L171.0025567483902,158.57710399797995L171.16499641418457,158.67381144832237L171.23461341381073,158.7470879326386L171.39705307960512,158.8059689995716L171.42025874614717,158.78278218276768L171.55949274539947,158.78417600083884L171.62910974502563,158.82839699613083L171.65231541156768,158.75851315074735L172.20925140857696,158.8112477296851L172.3484854078293,158.42361977113086L172.81259873867037,158.60709153285828L172.99824407100675,158.7045768573916L173.57838573455808,158.5971821883913L173.83364806652068,158.7059069464886L173.90326506614687,158.76068635704493L173.972882065773,158.78546989695963L174.13532173156736,158.64148732977276L174.46020106315612,158.65229569563982L175.0867540597916,158.65422666854397L175.59727872371676,158.5395939013433L175.9685693883896,155.92141044068947L176.0149807214737,157.08373674460134L176.27024305343627,157.77695573863193L176.4558883857727,158.19655192996026L176.50229971885682,158.12863712992393L177.1520583820343,158.42531885183615L177.22167538166045,158.60502554733148L177.80181704521178,158.66539585994846L177.82502271175383,158.74090680471556L177.84822837829591,158.80733309959578L178.335547375679,158.8384378313252L178.4051643753052,158.67089675250915L178.89248337268828,158.74824939346155L179.21736270427704,158.62874816729126L179.42621370315553,158.7248195868072L179.51903636932374,158.76952786824617L179.75109303474426,158.6738786248599L180.05276669979094,158.72470831675875L180.14558936595918,158.76832933131843L180.37764603137973,158.81200403045162L180.70252536296846,158.62369708610024L180.84175936222076,158.65218478182396L181.1202273607254,158.74373201937829L181.37548969268798,158.70469609829934L181.4219010257721,158.75578305981483L181.9556313562393,158.73434664436363L182.39653902053834,158.79440343499334L182.44295035362245,158.71305628416556L182.48936168670653,158.70862973790986L182.5589786863327,158.7530502565371L182.88385801792143,158.68986119837564L183.18553168296816,158.77316893923344L183.6496450138092,158.80546286420096L184.02093567848206,158.84174847510815L184.06734701156617,158.8438350425219L184.53146034240723,158.84813199638802L184.71710567474366,158.82543386263723L184.80992834091185,158.80674894236412L185.1348076725006,158.52849300815535L185.15801333904267,158.6789618861768L185.9238003349304,158.73021045249604L186.06303433418273,158.76079791015917L186.10944566726684,158.80348354507862L186.1326513338089,158.84808583935984L186.31829666614533,158.8773061316311L186.66638166427612,158.85864845725757L187.15370066165926,158.8606848401394L187.24652332782745,158.84611571532986L187.80345932483672,158.85832554958031L188.1515443229675,158.83605014712592L188.63886332035065,158.8544958644125L189.17259365081787,158.84272569415046L189.2654163169861,158.6389233887733L189.31182765007017,158.7201459111376L189.45106164932253,158.77143939158887L189.4974729824066,158.82173859686185L190.2168486452103,158.83498191707758L190.58813930988313,158.86334027791528L190.82019597530365,158.82604357279212L191.3539263057709,158.8431429360649L191.88765663623812,158.85399538849933L192.1197133016586,158.86915685382846L192.21253596782685,158.88547553476033L192.25894730091096,158.8847304579532L192.46779829978945,158.83731475357385L192.5838266324997,158.85805711850657L193.00152863025667,158.6319270835273L193.2335852956772,158.59455179659622L193.2567909622192,158.62936209788495L193.48884762763976,158.70810353359767L193.62808162689208,158.78504401260489L193.8137269592285,158.801539629451L193.95296095848084,158.8432951156054L193.99937229156492,158.57505028965704L194.04578362464903,158.70973242907985L194.23142895698547,158.76624223618873L194.3706629562378,158.795189868517L194.69554228782656,158.80269583808266L194.74195362091066,158.69959996338355L194.7651592874527,158.7642856510447L194.8115706205368,158.80872899111338L195.29888961791994,158.82763425299223L195.48453495025635,158.85468752359404L195.69338594913484,158.86866940966846L195.87903128147127,158.85470598706428L195.9022369480133,158.84546562881704L196.76084661006928,158.87448096881042L196.83046360969544,158.83604247096105L197.10893160820007,158.79791598729045L197.17854860782623,158.75747063913724L197.5962506055832,158.80164886459383L197.61945627212523,158.57803354726025L197.75869027137756,158.71260700125302L198.15318660259248,158.61820890807846L198.7797395992279,158.73095902867567L199.4294982624054,158.80672689122986L199.9168172597885,158.83369521532862L200.24169659137723,158.7910778090995L200.2649022579193,158.78392565448692L200.3809305906296,158.8152044299635L200.5201645898819,158.77361036732L200.61298725605013,158.81387919502552L201.14671758651735,158.85464659358476L201.63403658390044,158.8558854370314L201.75006491661074,158.87891392979475L202.16776691436766,158.84034601585685L202.3534122467041,158.85576645511333L202.46944057941437,158.8605724601367L202.49264624595642,158.88278381424777L202.6086745786667,158.89399528553471L202.63188024520875,158.88364449349652L203.02637657642364,158.8581938449961L203.11919924259186,158.87508472593322L203.3976672410965,158.87016934304526L203.67613523960114,158.88994318910554L203.81536923885346,158.87288660602732L204.30268823623658,158.88744391586567L204.8828298997879,158.82493037719485L205.37014889717102,158.81703703050772L205.46297156333924,158.84672584233022L205.4861772298813,158.8758905621872L205.50938289642335,158.86033213560256L205.60220556259154,158.88036933297457L205.95029056072235,158.8747682994041L206.1591415596008,158.8091331128132L206.228758559227,158.82043934810653L206.2751698923111,158.8074709225985L206.29837555885317,158.83826452842357L206.3215812253952,158.87431351824716L206.39119822502136,158.88416369541315L206.76248888969423,158.89787496440715L207.0177512216568,158.86727106797042L207.4586588859558,158.86195108846456L208.17803454875948,158.86859476357094L208.29406288146973,158.8348012446361L208.47970821380616,158.83524739272954L209.33831787586212,158.6439487064739L209.43114054203033,158.7417410730112L209.8488425397873,158.58299445079143L210.47539553642272,158.68604960792052L210.591423869133,158.74715513262026L210.73065786838532,158.79919172314715L211.14835986614227,158.82038938550357L211.4268278646469,158.84861599373144L211.61247319698333,158.87831474167731L211.75170719623566,158.74454015319802L211.89094119548798,158.81418841689765L212.331848859787,158.81083437752199L212.7263451910019,158.73552605569657L213.1672528553009,158.76789459018207L213.3064868545532,158.8137507388639L213.86342285156252,158.8489375924158L213.88662851810454,158.8151114646737L213.9562455177307,158.84492377431624L214.1650965166092,158.87124557779907L214.18830218315125,158.86449747649013L214.35074184894563,158.873800864807L214.48997584819793,158.84266758114362L214.60600418090823,158.78103405883869L214.95408917903902,158.78420500733733L214.97729484558107,158.8102790546297L215.2557628440857,158.84678047756643L215.41820250988005,158.85539644977973L216.02154983997346,158.77616796209213L216.11437250614168,158.67333558157276L216.16078383922576,158.76288978436287L216.6481028366089,158.8167435676332L216.76413116931914,158.84048668479116L216.8569538354874,158.83892812703655L216.90336516857147,158.86637494267026L216.97298216819763,158.86718007586342L217.29786149978636,158.8923095752246L217.46030116558077,158.89448975672516L217.55312383174896,158.90257504150685L217.9708258295059,158.89843938073994L218.08685416221618,158.83546192124336L218.41173349380492,158.84006311020303L218.66699582576751,158.86027201993343L218.85264115810395,158.86570103095448L218.96866949081422,158.87878062686636L219.03828649044036,158.87858469852645L219.17752048969268,158.86599067061567L219.3631658220291,158.83517897440353L219.38637148857117,158.8540001078005L219.87369048595428,158.8566562674809L219.9665131521225,158.87742276901315L220.03613015174867,158.6091755480393L220.19856981754302,158.70472243862292L220.47703781604767,158.76560757979755L220.6626831483841,158.75097974437995L221.3588531446457,158.80978617279325L221.47488147735595,158.75785599508964L221.5444984769821,158.81671441344434L221.82296647548674,158.1711186542855L222.40310813903807,158.2341537144207L222.56554780483248,158.45351683365382L223.56339146614073,158.63264230391673L223.58659713268278,158.7279644794244L224.14353312969206,158.60294202604206L224.21315012931825,158.73103835941532L224.30597279548644,158.79524790127107L224.79329179286958,158.83260143095373L225.16458245754242,158.86575193679005L225.2109937906265,158.89035123228098L225.5126674556732,158.88884154540708L225.90716378688813,158.84587143288192L226.0696034526825,158.851320963166L226.16242611885073,158.85027915791292L226.32486578464508,158.87018770506566L226.37127711772916,158.8634854945505L226.62653944969176,158.80333352267135L226.83539044857025,158.83583598251008L227.29950377941134,158.85768184927485L227.67079444408418,158.84078386100808L227.78682277679442,158.86826310991833L228.11170210838318,158.86559132705116L228.2045247745514,158.87298856247747L228.2973474407196,158.83377272907003L228.73825510501862,158.86757301704782L228.78466643810273,158.8769329094133L229.6432761001587,158.88304062797312L229.71289309978485,158.89782090543528L230.06097809791567,158.89472459441228L230.45547442913056,158.7634941580712L230.47868009567262,158.61119052785256L230.54829709529875,158.69919467116162L230.59470842838286,158.7351822157953L231.01241042613984,158.79784200318463L231.22126142501833,158.84197252830702L231.54614075660706,158.82405562562877L232.10307675361634,158.832249240064L232.47436741828918,158.85301025730658L232.70642408370972,158.86801336117415L232.7992467498779,158.87558703136065L232.93848074913026,158.8733001635484L233.3097714138031,158.88467398398186L233.33297708034516,158.86371589718155L233.98273574352265,158.88456882514444L234.0059414100647,158.8865442965559L234.23799807548522,158.89670293752803L234.33082074165344,158.88349058128028L234.70211140632628,158.86182018661913L234.77172840595244,158.88670546190673L234.93416807174683,158.88646545403273L234.95737373828888,158.84611649338393L235.16622473716737,158.71366093204261L235.30545873641967,158.76911133137295L235.42148706912997,158.81869799242705L235.46789840221405,158.835690574428L236.51215339660646,158.82071760564375L236.67459306240082,158.84768115091686L236.9762667274475,158.85423919144196L237.64923105716707,158.8799943663333L237.74205372333526,158.88291036956312L237.78846505641937,158.83465977329877L237.8812877225876,158.7428554881315L237.9741103887558,158.78867603865245L238.55425205230713,158.83642579230028L239.08798238277436,158.85296969512632L239.29683338165282,158.85172649645287L239.366450381279,158.87457943123727L239.57530138015747,158.8935222826366L239.94659204483034,158.89256309956477L239.99300337791442,158.90025358853518L240.61955637454986,158.89051185626815L240.75879037380219,158.79617279864L241.22290370464324,158.6741285226003L241.2461093711853,158.7560359591594L241.40854903697968,158.699116944876L241.64060570240022,158.73650987811519L242.12792469978334,158.77535637408948L242.63844936370847,158.6092536582741L242.98653436183932,158.6874693170269L243.19538536071775,158.63822479291247L243.35782502651216,158.68736338092322L243.61308735847473,158.7662673709719L243.70591002464295,158.82341848078963L243.91476102352144,158.84315775512587L244.170023355484,158.86436540966307L244.23964035511017,158.8688307403272L244.5181083536148,158.75984148205623L244.610931019783,158.7594710897248L244.70375368595126,158.81387046669775L244.93581035137177,158.8367956916679L244.98222168445588,158.85716632040297L245.0750443506241,158.8814609632299L245.09825001716612,158.87402203244466L245.12145568370818,158.88702708059412L245.37671801567078,158.85022605231634L245.46954068183896,158.86898364627692L245.67839168071745,158.86273611225587L246.1192993450165,158.8786589174631L246.88508634090422,158.88989005266941L246.93149767398836,158.8932670928739L247.0475260066986,158.86803640485348L247.3956110048294,158.8885691116156L247.41881667137145,158.8788797559468L247.53484500408175,158.82483097424478L247.6972846698761,158.84268484715048L248.09178100109102,158.84862754810663L248.20780933380126,158.86997820280237L248.4862773323059,158.84624843460543L248.6487169981003,158.74695903740277L248.8343623304367,158.8156262739098L248.8575679969788,158.84954418328144L249.39129832744598,158.88124636166796L249.7857946586609,158.8856152258152L249.94823432445526,158.89758042397298L249.9946456575394,158.89060561987884L250.06426265716553,158.80456915992877L250.08746832370758,158.783774676437L250.22670232295988,158.58027055165812L250.24990798950193,158.70277966352265L250.38914198875426,158.66413162758678L250.48196465492248,158.73950153678504L251.31736865043638,158.7577764609069L251.34057431697843,158.81372946760246L251.66545364856722,158.78754625167176L252.19918397903442,158.8182929870019L252.54726897716523,158.84434008823396L253.0113823080063,158.86872613092723L253.1042049741745,158.86268939113165L253.753963637352,158.87096445720113L253.91640330314638,158.73226145226434L253.98602030277252,158.75666605276214L254.07884296894073,158.80791634162873L254.12525430202484,158.84074143559627L254.1484599685669,158.86142005825778L254.33410530090333,158.87130768535405L254.77501296520234,158.8858363614375L254.8446299648285,158.90071769823214L254.96065829753874,158.89030527570117L255.00706963062285,158.8981713246393L255.053480963707,158.90957044693099L255.26233196258545,158.91125967084147" fill="none"></path></g></g></g></g><g opacity="0.2"><g><g><g><path style="fill: none;" stroke="rgb(255, 112, 67)" stroke-width="2px" d="M31.25803283214569,-0.04176788316544844L31.3508554983139,0.6332550028309925L31.49008949756622,-5.9073260306642545L32.023819828033446,8.826496858608152L32.30228782653809,5.379703351709763L32.48793315887451,10.648654445477579L32.557550158500675,14.696905469958438L32.650372824668885,9.381874969601627L32.743195490837095,14.180331069776738L32.90563515663147,4.776359542629507L33.62501081943512,38.391690854610346L33.67142215251923,24.452535626337347L34.01950715065003,34.45149738593173L34.762088479995725,47.98456100175099L34.78529414653778,30.421300865786915L34.99414514541626,42.85627335967584L35.2726131439209,44.76681717672764L35.48146414279938,45.075091101510054L35.59749247550964,56.59467327854071L36.24725113868714,65.07112832920103L36.29366247177124,58.13819866416452L36.61854180335999,76.8558691967788L36.920215468406674,68.08973366610007L36.98983246803284,82.14287479488266L37.036243801116946,77.81221898616059L37.29150613307952,71.70036506309262L37.33791746616364,70.57236274741155L37.4539457988739,78.18866887507755L37.662796797752385,85.75242831101932L38.33576112747192,72.36299231924642L38.40537812709808,90.2380294927745L38.5446121263504,69.31016426517309L38.614229125976564,66.36835793925565L38.77666879177094,83.89523959633371L39.17116512298584,58.40605205685134L39.44963312149048,87.87827882903366L40.12259745121003,87.57728060002847L40.21542011737824,84.23450259572274L40.238625783920284,95.36631713484968L40.65632778167724,99.1661166220496L40.74915044784546,91.15827027348422L40.81876744747162,106.71882777921854L41.027618446350104,101.40298886821984L41.28288077831268,100.37361265085201L41.30608644485474,120.51705008558491L42.00225644111634,98.2677029286715L42.30393010616303,102.09741360962215L42.744837770462034,116.41409660766803L42.837660436630244,102.7312075528811L42.93048310279846,124.30822652593778L43.02330576896667,99.2760604693496L43.2553624343872,94.11139434838842L43.626653099060064,109.56146906639478L43.88191543102264,118.51380851492723L44.16038342952728,113.23623437431235L44.41564576148987,99.9818029597387L44.50846842765808,118.65231620490812L44.55487976074219,122.82479299802944L44.69411375999451,112.06430841375405L44.717319426536555,120.30282126547826L44.76373075962067,131.69575244194274L45.01899309158325,110.20415552671474L45.297461090087886,130.52732959416608L45.575929088592524,113.16940576124762L45.71516308784484,121.96437460482122L45.784780087471006,115.83231041570542L45.831191420555115,129.77766345889978L46.225687751770025,122.61757040348601L46.24889341831207,106.26342311760817L46.411333084106445,111.23757379729213L46.457744417190554,119.53294486416416L46.57377274990082,140.79683944858698L47.525205078125,118.03172630213376L47.710850410461425,123.50304952659354L47.91970140933991,123.89297292620904L47.96611274242401,118.73234885845741L47.989318408966064,128.44836689338263L48.082141075134274,124.60248799959373L48.12855240821838,110.56847925600306L48.174963741302484,114.54316491206993L48.3141977405548,119.28691855880896L48.45343173980712,133.2268821977239L48.59266573905945,103.35476162800916L48.75510540485382,128.08646839602005L48.94075073719024,133.6820173891203L49.24242440223694,135.21126085340364L49.56730373382568,128.0347301149377L49.706537733078,118.77196097991109L49.91538873195648,136.69199967917228L50.07782839775086,131.9671089474112L50.309885063171386,124.08645253983997L50.402707729339596,142.20778548893722L50.47232472896576,113.29443994053L50.541941728591915,133.9078334284277L50.84361539363861,98.02005980203248L51.029260725975035,131.29558917419635L51.44696272373199,129.34489429526292L51.609402389526366,137.1840522898827L51.748636388778685,139.71087448628532L52.07351572036743,116.99588279963064L52.39839505195618,136.1514424299472L53.00174238204956,121.59466147125349L53.02494804859162,143.9358979711309L53.25700471401215,138.8135386737631L53.39623871326447,135.6238197509927L53.69791237831116,132.59335772467892L53.95317471027374,145.32447798372158L54.13882004261016,141.420662993929L54.32446537494659,137.91323868888722L54.4172880411148,115.96219505883928L54.649344706535345,132.41954943666786L54.67255037307739,136.74292954961274L54.834990038871766,125.50009328232991L55.34551470279694,97.57920653197652L55.554365701675415,128.13874561753036L55.740011034011836,137.89895676754676L56.29694703102112,121.72346823353146L56.320152697563174,132.63889819083997L56.34335836410523,147.6524311622139L56.900294361114504,133.510364862821L57.52684735774994,145.06524763788184L57.6428756904602,147.29457471806091L58.36225135326386,136.85583756926644L58.40866268634796,137.39882005041727L58.66392501831055,145.09920088484213L58.919187350273134,140.29697220167145L59.19765534877777,129.25839435657835L59.29047801494598,144.11051466978387L59.33688934803009,151.53873058809842L59.7777970123291,138.24495652228507L60.033059344291686,154.9752842268659L60.10267634391784,147.41152479092415L60.40435000896454,143.1770698485896L60.65961234092712,136.49798112511343L60.68281800746918,150.2953950208379L60.845257673263546,138.08812485775417L61.1701370048523,133.86337084312254L61.28616533756256,149.03750806202297L61.35578233718872,142.85720870460645L62.051952333450316,131.38181964266695L62.16798066616059,143.69445265941323L62.724916663169864,142.31287887238577L62.79453366279602,143.29752303423447L62.910561995506285,134.1080497974079L63.23544132709503,145.29753096232452L63.86199432373047,152.2528266551206L64.37251898765564,141.08894516053115L64.39572465419769,139.72731216933752L64.88304365158082,152.94698192630895L65.46318531513214,150.72142742912547L65.5328023147583,145.98764418030333L65.74165331363677,147.99708356588235L65.76485898017883,143.51498549690876L66.02012131214143,153.4438850008708L66.1825609779358,136.43196092269062L66.34500064373016,148.77585248425748L66.48423464298249,149.53198590465908L66.5770573091507,149.73489697577898L66.64667430877685,135.22581224495806L66.71629130840302,155.04669383356813L66.76270264148712,131.24708453568164L67.57490097045898,146.11779829365113L68.50312763214112,142.7456480360226L68.73518429756164,153.12025127389205L69.22250329494476,149.2382633714311L69.5009712934494,150.31210217410407L69.68661662578582,147.22882398585207L69.756233625412,153.79392680881864L69.87226195812225,155.44497080981674L70.12752429008485,155.44012034596525L70.40599228858949,149.84160718051135L70.61484328746795,150.53549298148573L70.84689995288849,145.95315199291508L71.14857361793518,152.92084331555378L71.2878076171875,136.27890184115532L71.38063028335571,149.95424572995108L71.5430699491501,154.61042155714966L72.07680027961732,146.61685712992477L72.16962294578552,154.9863325056387L72.19282861232757,144.75427901095972L72.26244561195374,147.76318342015583L72.49450227737428,143.1679078613146L72.51770794391632,149.43874921062525L72.65694194316865,141.05606979442672L72.70335327625274,141.8655583171945L72.79617594242096,154.2010963021283L72.95861560821534,151.799308285008L73.84043093681335,151.5158256199109L74.18851593494416,153.26172313622664L74.2117216014862,156.6373765066368L74.58301226615905,152.4252875920618L74.93109726428986,120.13036032853705L75.32559359550477,131.31121844660666L75.48803326129914,136.64080033851786L75.51123892784119,149.52012921524437L75.62726726055145,123.9336629285186L75.6504729270935,140.95501846418773L75.72008992671965,144.91003279463476L75.85932392597198,144.5351997270016L75.88252959251405,140.36541763602L76.18420325756074,155.04858012506594L77.11242991924286,152.59720958857505L77.18204691886902,149.90196850844077L77.20525258541107,140.7122258014002L77.4373092508316,152.81278575975156L77.66936591625213,155.37140544140274L77.83180558204651,150.6184898073887L77.90142258167266,153.15420452085237L78.04065658092499,154.92731852877915L78.31912457942963,155.62093485953955L78.34233024597168,148.5535395577317L78.38874157905578,147.4964079083249L78.4351529121399,153.9211167498128L78.59759257793426,130.43247607884842L78.89926624298096,144.9437165713811L79.08491157531738,151.4589674047631L79.15452857494354,155.62632426381896L79.38658524036408,156.96370493575523L80.15237223625184,138.84830033136532L80.221989235878,155.99253428460506L80.57007423400879,139.4872142086897L81.38227256298066,130.67257403949625L81.42868389606475,153.2962153236149L81.93920855998994,153.99037059480324L82.56576155662536,135.4853120610118L83.07628622055054,145.2466010918841L83.47078255176545,146.100821670171L83.51719388484955,150.11350262640772L83.56360521793366,151.34255627232778L83.70283921718597,157.60046305136785L83.93489588260651,143.3716273430764L84.32939221382141,146.51391950818797L84.39900921344757,142.21048019107693L84.70068287849425,150.66968914804312L85.00235654354096,154.28759624081286L85.11838487625121,156.68076121108606L85.35044154167176,157.4236905910031L85.48967554092407,153.90764323911426L85.53608687400818,134.24494066610495L85.6289095401764,158.2275202392775L85.86096620559692,155.50048167389468L86.0234058713913,148.816811956781L86.37149086952209,155.7289924153418L86.60354753494262,156.8198078414949L86.69637020111084,156.33476145634776L86.71957586765289,157.40806131859281L86.765987200737,156.0811899850014L86.88201553344726,154.54386241429893L86.90522119998931,151.24554699529835L87.09086653232573,156.919781290878L87.4157458639145,143.52253066289995L87.90306486129761,151.0423664539645L87.94947619438172,157.213503824106L88.04229886054992,133.93262468811298L88.11191586017608,150.44629834066146L88.34397252559661,146.8192292606167L88.39038385868074,151.18329937587114L88.5528235244751,155.74785533031974L88.64564619064332,149.1345173390524L88.73846885681152,151.4215110450212L89.36502185344696,154.32343577927094L89.45784451961516,131.53595660505817L89.71310685157776,142.69364028472629L89.80592951774598,151.07982281370641L89.8987521839142,153.20486492107884L90.20042584896088,151.82194378298155L90.22363151550293,120.5841481688636L90.31645418167113,155.72360301106238L90.45568818092346,149.97364758535696L90.52530518054962,157.87181955683627L90.61812784671784,155.97636607176682L90.91980151176453,156.828161418128L91.12865251064301,157.52501139145608L91.61597150802612,156.92759592708316L91.66238284111023,141.03747634966277L91.75520550727845,141.70198989731435L91.91764517307281,149.64354657324293L92.12649617195129,147.66401838141465L93.00831150054933,156.41668040139484L93.07792850017547,146.60958143414754L93.68127583026886,149.27248608860538L94.23821182727814,116.5097585336276L94.37744582653045,142.56510299266228L94.40065149307252,155.36736338819318L94.72553082466126,154.51610698225994L94.81835349082948,155.46760630779028L94.84155915737152,147.81546064166614L94.86476482391357,141.70657089095184L95.28246682167054,155.7985157305462L96.76762948036193,137.95150345927104L97.48700514316559,154.01974284812604L97.55662214279175,152.7869166192104L97.9743241405487,154.48592631829524L98.6240828037262,157.46195536138694L98.85613946914673,158.39890329536283L98.87934513568878,157.18035898778763L99.01857913494109,155.13939158717403L99.80757179737091,157.70393961353255L100.29489079475404,155.65569651714176L100.71259279251099,153.52122295228037L100.73579845905304,146.21965803453205L101.24632312297821,155.04804118463798L101.36235145568847,151.76158245505212L101.87287611961365,158.4735465446327L102.15134411811829,156.7327689623824L102.26737245082856,155.42853312676453L102.42981211662293,151.27411083797924L102.49942911624908,158.2385685180503L102.89392544746399,152.478373224214L103.14918777942658,156.19814005786466L103.52047844409944,156.06663859344698L103.79894644260408,157.2161985262457L103.91497477531432,145.61604475523782L104.17023710727692,157.2886860138038L104.19344277381896,158.24368845211575L104.35588243961335,157.92733042091422L105.05205243587493,153.43687877530755L105.1680807685852,151.52256237526018L105.21449210166932,150.51582165586586L105.23769776821136,148.03211469369853L105.35372610092163,157.9588584359488L105.49296010017396,149.33284741653478L105.516165766716,147.93753064859484L105.63219409942627,153.90279277526278L106.18913009643555,155.39996928408362L106.58362642765044,154.59613963580924L106.6532434272766,157.55465311499285L107.04773975849152,158.6112458239717L107.27979642391205,158.66284936994708L107.34941342353821,158.3614469356209L107.39582475662232,158.6532831773511L107.46544175624848,158.69181741794893L107.53505875587463,158.2789890501459L107.97596642017363,156.15610270448525L108.06878908634185,158.4422879998121L108.16161175251008,155.93675395031315L108.3472570848465,156.29730509660584L108.37046275138854,151.01892254534906L108.57931375026703,143.6249293442088L108.69534208297729,154.90683879251736L108.78816474914551,156.95912394211774L108.85778174877167,158.60154489626876L109.32189507961273,152.42447918141988L109.83241974353791,158.0890125492966L109.99485940933228,158.50264932774152L110.04127074241639,154.35011333045404L110.29653307437897,158.53256052149226L110.38935574054717,157.4951001977053L110.52858973979949,158.42180826355033L110.55179540634155,156.63495127471106L110.57500107288361,157.84433359501128L110.71423507213593,157.6567823260877L110.8766747379303,158.3083613034687L111.03911440372467,157.82062021618185L111.13193706989289,151.35549084259839L111.20155406951903,157.71256266037963L111.24796540260316,156.4042847715522L111.48002206802367,158.33153574187017L112.19939773082733,156.47461649739853L112.29222039699555,158.0661075811091L112.33863173007964,158.81078851741694L112.50107139587404,157.9001139293032L112.68671672821046,155.5681186976013L112.7563337278366,158.470851842493L112.77953939437867,156.69665995371034L113.1044187259674,157.1302375279891L113.15083005905151,158.67699655618054L113.45250372409821,158.19707010509882L113.8470000553131,153.04264385226853L114.1022623872757,158.60612588990625L114.21829071998596,154.83111766239162L114.70560971736907,158.54765085347464L115.37857404708862,154.29217723445035L115.58742504596711,158.27656381822015L115.68024771213531,153.72251720211642L115.70345337867737,158.085509436515L115.84268737792968,151.78852947644918L116.37641770839691,157.15422037703246L116.65488570690155,157.20865336025454L116.84053103923797,157.3088962798516L117.18861603736877,147.24014173483883L117.60631803512574,156.396739605561L117.8151690340042,157.81738657361421L117.90799170017242,152.3581895087831L118.46492769718171,158.39890329536283L118.65057302951813,158.48163065105183L119.1610976934433,158.28868997784883L119.30033169269562,158.60289224733862L119.32353735923766,157.7944816054267L119.71803369045257,157.9321808847657L119.90367902278899,157.08496653204202L119.95009035587312,157.5659708639796L120.13573568820954,158.6965331466934L120.66946601867676,156.79259134988388L120.69267168521881,156.91115824403096L120.78549435138703,158.7038088424706L120.92472835063936,158.29030679913268L121.22640201568603,158.29946878640766L121.41204734802245,158.49618204260622L121.45845868110656,155.8491761307727L121.50487001419067,148.2528107989405L121.82974934577942,157.7713071670252L122.13142301082611,157.73519815835317L122.15462867736817,158.44174905938416L122.36347967624664,145.62574568294076L123.66299700260163,157.93703134861715L124.266344332695,158.0046683723238L124.45198966503143,158.60275751223162L124.61442933082581,158.5918439685658L124.80007466316223,157.11568613643468L125.33380499362946,158.10167764935323L125.42662765979767,156.09089091270434L125.44983332633973,158.2725217650106L126.91179031848907,158.55869913224743L127.32949231624603,158.76026285229744L127.58475464820862,158.3920318049066L127.60796031475067,158.71782129359707L127.81681131362916,158.36117746540694L127.90963397979736,155.17388377456228L128.37374731063844,155.23155040035198L128.60580397605895,158.75554712355296L128.95388897418977,155.76590983465576L129.04671164035796,157.05155222550965L129.69647030353545,158.64627695178788L129.74288163661956,158.84912065535428L129.88211563587188,151.24204388251673L130.09096663475037,158.76632593211178L130.46225729942321,158.46600137864152L130.48546296596527,158.4075263422099L131.62254062652588,157.57109079804505L131.73856895923615,156.84891062460375L132.06344829082488,158.82587884939932L132.13306529045104,158.55546548967976L132.27229928970337,157.43878092298547L132.34191628932953,158.07365274710028L132.550767288208,158.73392213888184L132.57397295475008,158.68009546364118L132.59717862129213,158.82560937918532L132.99167495250703,158.24422739254368L133.08449761867521,158.67942178810625L133.2005259513855,158.81442636530556L133.22373161792754,156.51557596992205L133.36296561717987,157.39943827174574L133.61822794914247,156.54656504452868L133.85028461456298,156.1773908513889L134.10554694652558,158.5745978748717L134.24478094577788,158.2083878540856L134.56966027736664,158.54657297261875L134.77851127624513,158.77144586617723L134.91774527549742,158.7056951339684L134.96415660858156,158.24934732660913L135.0801849412918,158.6074732409761L135.21941894054413,158.8047928051561L135.40506427288057,158.79125192690407L135.9387946033478,158.45576151051063L135.9852059364319,158.70906351164302L136.28687960147857,158.75460397780407L136.35649660110474,158.6937037094467L136.56534759998323,158.47300760420475L136.84381559848785,158.5772925770114L136.89022693157196,158.75635553419488L137.37754592895507,158.59615549198935L137.53998559474945,157.5560004660627L137.70242526054383,158.70704248503824L138.49141792297362,152.36438732370442L138.653857588768,156.23883006017422L138.74668025493622,158.59642496220332L139.07155958652496,158.52265749112885L139.69811258316042,158.32803262908857L139.9997862482071,157.08577494268394L140.27825424671175,158.69990152436804L140.394282579422,156.01921183578816L140.51031091213227,158.84191232713056L140.53351657867432,158.38489084423637L140.6495449113846,158.1488349367981L141.11365824222565,158.5058829703092L141.2296865749359,158.787411976355L141.4385375738144,158.2854563352812L141.4849489068985,158.78330255559194L141.69379990577698,158.727656956407L141.92585657119753,157.10760203001556L141.97226790428164,158.85875421550372L142.134707570076,158.52339853421728L142.78446623325348,158.81624528924985L142.8308775663376,158.42369455504814L143.016522898674,158.7075814254662L143.13255123138427,158.81570634882192L143.20216823101043,158.69545526583752L143.29499089717862,157.8548429333561L143.57345889568327,158.8087001232587L143.7126928949356,158.8076222424028L144.29283455848693,157.1024820959501L144.38565722465515,158.6074732409761L144.47847989082337,157.98284128499216L144.54809689044953,158.2432842467948L144.64091955661772,158.7690206342515L144.66412522315977,158.70030572968898L145.1050328874588,158.7570292097298L145.4531178855896,158.79057825136914L145.52273488521575,158.30755289282678L145.66196888446808,158.56193277481506L145.96364254951476,158.8479754069449L146.1956992149353,158.4907926383268L146.56698987960814,158.84467439682376L146.93828054428099,157.54603006814577L147.26315987586977,158.67039453593824L147.5880392074585,158.75110086502247L147.796890206337,158.764439640614L147.88971287250519,157.79663736713846L147.9825355386734,158.80991273922155L148.51626586914062,158.5368720449158L148.95717353343966,158.7086593063221L149.21243586540223,158.83901552233039L149.2820528650284,158.6303782091636L149.30525853157044,158.7717153363912L149.7229605293274,158.5120807852305L149.79257752895356,158.53256052149226L149.90860586166383,158.74638513627798L150.0710455274582,158.70785089568017L150.48874752521513,158.81254007380775L150.58157019138335,153.15555187192223L150.60477585792543,156.56461954886473L150.74400985717773,158.81051904720297L151.57941385269166,158.75460397780407L152.25237818241118,158.81314638178918L152.29878951549532,158.8443375590563L152.41481784820556,157.8586155163517L152.8557255125046,158.46573190842756L153.0877821779251,158.80337808653275L153.2966331768036,158.61043741332978L153.7839521741867,157.28760813294792L153.85356917381287,158.2259034179937L153.87677484035493,157.773462928737L154.50332783699034,158.7378968245379L154.5265335035324,158.6834638413158L155.1762921667099,158.30485819068707L155.4779658317566,158.72267175744855L155.54758283138275,158.76282281933018L156.03490182876587,158.90793252955336L156.2669584941864,158.79057825136914L156.47580949306487,158.7250969893743L157.31121348857877,158.82621568716678L157.38083048820496,158.74382516924524L157.45044748783113,158.81705369989177L157.68250415325167,154.85806468378868L157.7521211528778,158.10976175577235L158.19302881717684,158.78141626409416L158.72675914764403,157.2657810456163L158.86599314689636,158.70326990204268L159.21407814502714,158.72752222130003L159.3069008111954,158.8187378887291L159.77101414203642,157.9558942635951L160.1887161397934,158.24288004147382L160.28153880596162,158.91059354791633L160.5368011379242,158.85201746015446L160.5832124710083,158.79906656310922L160.6760351371765,158.60909006225992L160.79206346988678,158.42369455504814L160.8384748029709,157.36117350136192L161.2329711341858,158.846897526089L161.48823346614836,158.7662585645583L161.55785046577455,158.7176865584901L161.5810561323166,158.71957284998788L161.74349579811096,158.8579458048618L161.78990713119506,158.88573492067752L162.0219637966156,158.87970552463995L162.74133945941927,158.792195072653L163.15904145717622,158.8213652233153L163.73918312072752,158.84615648300058L163.78559445381163,158.8433944133074L163.99444545269012,158.84986169844268L164.2961191177368,158.8452807048052L164.43535311698915,158.7084572036616L164.806643781662,158.85760896709434L165.13152311325072,158.61879098996286L165.24755144596102,158.72199808191363L165.61884211063386,158.80162653014196L165.71166477680205,158.91263141640948L165.96692710876465,158.8525564005824L165.9901327753067,158.85747423198737L166.36142343997957,153.98471172030986L166.73271410465242,158.48136118083784L166.98797643661499,158.63900125601066L167.05759343624115,158.4907926383268L167.40567843437194,158.7230759627695L167.93940876483916,152.964766960431L168.1250540971756,158.12242685582896L168.14825976371765,158.87067827247193L168.31069942951203,158.80876749081216L168.58916742801668,158.7479345900083L168.61237309455873,158.50965555330475L168.6355787611008,158.865490970853L169.169309091568,158.90227365506L169.35495442390442,158.80459070249563L169.37816009044647,158.80728540463534L169.5173940896988,158.90530519496716L170.0047130870819,155.73330393876532L170.37600375175475,158.84258600266548L170.49203208446502,158.77104166085627L170.51523775100708,158.65732523056067L170.58485475063324,158.40658319646099L170.8633227491379,158.86986986183L171.0025567483902,158.5147754873702L171.16499641418457,158.81887262383606L171.23461341381073,158.8570026591129L171.39705307960512,158.8942905999711L171.42025874614717,158.7480019575618L171.55949274539947,158.78626672794562L171.62910974502563,158.8947284890688L171.65231541156768,158.65368738267208L172.20925140857696,158.89034959809177L172.3484854078293,157.8421778332995L172.81259873867037,158.88229917544942L172.99824407100675,158.8508048441916L173.57838573455808,158.4360901848908L173.83364806652068,158.86899408363462L173.90326506614687,158.84285547287945L173.972882065773,158.82264520683165L174.13532173156736,158.42551347899243L174.46020106315612,158.66850824444046L175.0867540597916,158.6571231279002L175.59727872371676,158.36764475054224L175.9685693883896,151.9941352497088L176.0149807214737,158.82722620046917L176.27024305343627,158.8167842296778L176.4558883857727,158.8259462169528L176.50229971885682,158.0267649298694L177.1520583820343,158.87034143470447L177.22167538166045,158.8745855905745L177.80181704521178,158.75595132887392L177.82502271175383,158.85417322186623L177.84822837829591,158.9069725419161L178.335547375679,158.88509492891936L178.4051643753052,158.4195851342851L178.89248337268828,158.86427835489013L179.21736270427704,158.44949632803582L179.42621370315553,158.86892671608112L179.51903636932374,158.83659029040464L179.75109303474426,158.5304047597805L180.05276669979094,158.80095285460703L180.14558936595918,158.83376085315794L180.37764603137973,158.87751607915143L180.70252536296846,158.3412366695731L180.84175936222076,158.69491632540957L181.1202273607254,158.8810528757098L181.37548969268798,158.6461422166809L181.4219010257721,158.8324135020881L181.9556313562393,158.7021920211868L182.39653902053834,158.88448862093793L182.44295035362245,158.5910355579239L182.48936168670653,158.7019899185263L182.5589786863327,158.81968103447798L182.88385801792143,158.59507761113346L183.18553168296816,158.8981305505202L183.6496450138092,158.85390375165224L184.02093567848206,158.89617689146888L184.06734701156617,158.8469648936425L184.53146034240723,158.85457742718717L184.71710567474366,158.79138666201106L184.80992834091185,158.77872156195446L185.1348076725006,158.1111091068422L185.15801333904267,158.90466520320896L185.9238003349304,158.80708330197484L186.06303433418273,158.8066790966539L186.10944566726684,158.86751199745777L186.1326513338089,158.91498928078173L186.31829666614533,158.92113657003793L186.66638166427612,158.83066194569727L187.15370066165926,158.86373941446217L187.24652332782745,158.82426202811547L187.80345932483672,158.876640300956L188.1515443229675,158.80263704344435L188.63886332035065,158.88216444034242L189.17259365081787,158.8250704387574L189.2654163169861,158.3332199307075L189.31182765007017,158.84197969468406L189.45106164932253,158.84837961226586L189.4974729824066,158.89718740477127L190.2168486452103,158.85484689740116L190.58813930988313,158.90587781917185L190.82019597530365,158.77009851510738L191.3539263057709,158.86879198097412L191.88765663623812,158.87027406715097L192.1197133016586,158.89189905182212L192.21253596782685,158.90995355615814L192.25894730091096,158.8836128427425L192.46779829978945,158.76619119700482L192.5838266324997,158.88917066590565L193.00152863025667,158.2927320310584L193.2335852956772,158.53848886619963L193.2567909622192,158.68157754981803L193.48884762763976,158.82621568716678L193.62808162689208,158.90045473111567L193.8137269592285,158.82628305472025L193.95296095848084,158.90592834483695L193.99937229156492,158.1726830507345L194.04578362464903,158.91175563821406L194.23142895698547,158.85100694685207L194.3706629562378,158.83861131700942L194.69554228782656,158.8139547924311L194.74195362091066,158.54495615133493L194.7651592874527,158.86131418253643L194.8115706205368,158.87539400121642L195.29888961791994,158.85599214581052L195.48453495025635,158.89526742949676L195.69338594913484,158.8896422387801L195.87903128147127,158.83376085315794L195.9022369480133,158.8316050914462L196.76084661006928,158.91800397880053L196.83046360969544,158.778384724187L197.10893160820007,158.74072626178457L197.17854860782623,158.69680261690738L197.5962506055832,158.86791620277873L197.61945627212523,158.24261057125986L197.75869027137756,158.91446718224216L198.15318660259248,158.47661176831662L198.7797395992279,158.90008420957147L199.4294982624054,158.92037868506114L199.9168172597885,158.8741477014768L200.24169659137723,158.7271516997558L200.2649022579193,158.77319742256805L200.3809305906296,158.86212259317836L200.5201645898819,158.7112192733548L200.61298725605013,158.87428243658377L201.14671758651735,158.91579769142362L201.63403658390044,158.85774370220133L201.75006491661074,158.91345666893977L202.16776691436766,158.78249414495002L202.3534122467041,158.87889711399802L202.46944057941437,158.86778146767173L202.49264624595642,158.91610084541435L202.6086745786667,158.91081249246517L202.63188024520875,158.8681183054392L203.02637657642364,158.82001787224544L203.11919924259186,158.90042104733894L203.3976672410965,158.86279626871328L203.67613523960114,158.91960395819598L203.81536923885346,158.84730173140997L204.30268823623658,158.90927988062322L204.8828298997879,158.73116006918863L205.37014889717102,158.80519701047706L205.46297156333924,158.89125906006393L205.4861772298813,158.9196376419727L205.50938289642335,158.8369944957256L205.60220556259154,158.9104251290326L205.95029056072235,158.86636674904838L206.1591415596008,158.71068033292687L206.228758559227,158.83739870104654L206.2751698923111,158.78801828433643L206.29837555885317,158.88445493716117L206.3215812253952,158.92838700298256L206.39119822502136,158.8989389611621L206.76248888969423,158.91844186789822L207.0177512216568,158.8213652233153L207.4586588859558,158.85397111920574L208.17803454875948,158.87856027623056L208.29406288146973,158.78411096623387L208.47970821380616,158.83591661486972L209.33831787586212,158.3570006770904L209.43114054203033,158.88842962281723L209.8488425397873,158.34487451746173L210.47539553642272,158.8406323436142L210.591423869133,158.8388134196699L210.73065786838532,158.87724660893747L211.14835986614227,158.8521858790382L211.4268278646469,158.8909559060732L211.61247319698333,158.92286286359618L211.75170719623566,158.54387827047904L211.89094119548798,158.91866081244706L212.331848859787,158.8058033184585L212.7263451910019,158.62256357295846L213.1672528553009,158.81644739191034L213.3064868545532,158.88253496188662L213.86342285156252,158.90171787274366L213.88662851810454,158.7643722730605L213.9562455177307,158.8896422387801L214.1650965166092,158.9107282830233L214.18830218315125,158.8543753245267L214.35074184894563,158.8877559472823L214.48997584819793,158.79596765564855L214.60600418090823,158.68858377538126L214.95408917903902,158.78896143008532L214.97729484558107,158.84939012556825L215.2557628440857,158.90153261197156L215.41820250988005,158.8683204080997L216.02154983997346,158.65732523056067L216.11437250614168,158.51908701079373L216.16078383922576,158.89722108854804L216.6481028366089,158.89752424253874L216.76413116931914,158.87610136052808L216.8569538354874,158.83659029040464L216.90336516857147,158.90754516612077L216.97298216819763,158.86838777565316L217.29786149978636,158.9300038242664L217.46030116558077,158.89776002897597L217.55312383174896,158.91470296867936L217.9708258295059,158.89223588958959L218.08685416221618,158.74099573199857L218.41173349380492,158.8469648936425L218.66699582576751,158.890585384529L218.85264115810395,158.87384454748607L218.96866949081422,158.89840002073416L219.03828649044036,158.8782908060166L219.17752048969268,158.8470996287495L219.3631658220291,158.78896143008532L219.38637148857117,158.88223180789592L219.87369048595428,158.8606405070015L219.9665131521225,158.90857252131156L220.03613015174867,158.20680471657852L220.19856981754302,158.8480427744984L220.47703781604767,158.8569352915594L220.6626831483841,158.72903799125362L221.3588531446457,158.8979958154132L221.47488147735595,158.6799607285342L221.5444984769821,158.90500204097643L221.82296647548674,157.20272501554717L222.40310813903807,158.3287063046235L222.56554780483248,158.78256151250352L223.56339146614073,158.9013305093111L223.58659713268278,158.8709477426859L224.14353312969206,158.41540834596853L224.21315012931825,158.92318285947528L224.30597279548644,158.89156221405466L224.79329179286958,158.88863172547772L225.16458245754242,158.91547769554455L225.2109937906265,158.92725017551737L225.5126674556732,158.88657701509618L225.90716378688813,158.78141626409416L226.0696034526825,158.85949525859215L226.16242611885073,158.84871645003332L226.32486578464508,158.9000505257947L226.37127711772916,158.8534321787778L226.62653944969176,158.71310556485258L226.83539044857025,158.88458967226816L227.29950377941134,158.890450649422L227.67079444408418,158.81543687860795L227.78682277679442,158.90948198328368L228.11170210838318,158.86158365275043L228.2045247745514,158.88408441561697L228.2973474407196,158.77494897895886L228.73825510501862,158.9182734490145L228.78466643810273,158.8909727479616L229.6432761001587,158.89220220581282L229.71289309978485,158.91999132162854L230.06097809791567,158.8900801278778L230.45547442913056,158.56664850355955L230.47868009567262,158.3827350825246L230.54829709529875,158.83120088612523L230.59470842838286,158.78916353274582L231.01241042613984,158.89183168426862L231.22126142501833,158.9081683159906L231.54614075660706,158.79718027161144L232.10307675361634,158.84453966171677L232.47436741828918,158.88415178317047L232.70642408370972,158.8905180169755L232.7992467498779,158.8869475366404L232.93848074913026,158.86986986183L233.3097714138031,158.90173471463203L233.33297708034516,158.83227876698112L233.98273574352265,158.91584821708875L234.0059414100647,158.88950750367312L234.23799807548522,158.9119408989862L234.33082074165344,158.86367204690868L234.70211140632628,158.82931459462742L234.77172840595244,158.9240333748381L234.93416807174683,158.88610544222175L234.95737373828888,158.7855930524107L235.16622473716737,158.5149775900307L235.30545873641967,158.85228693036842L235.42148706912997,158.89307798400824L235.46789840221405,158.86117944742946L236.51215339660646,158.79825815246733L236.67459306240082,158.88812646882653L236.9762667274475,158.86407625222964L237.64923105716707,158.91862712867032L237.74205372333526,158.88728437440787L237.78846505641937,158.76228387890222L237.8812877225876,158.6051490603806L237.9741103887558,158.85740686443387L238.55425205230713,158.90805042277196L239.08798238277436,158.8777855493654L239.29683338165282,158.84986169844268L239.366450381279,158.9088588334139L239.57530138015747,158.92193655973566L239.94659204483034,158.89112432495693L239.99300337791442,158.91178932199082L240.61955637454986,158.87589925786762L240.75879037380219,158.6546642121977L241.22290370464324,158.4910621085408L241.2461093711853,158.87889711399802L241.40854903697968,158.6137384234509L241.64060570240022,158.79259927797392L242.12792469978334,158.83362611805097L242.63844936370847,158.36009958455105L242.98653436183932,158.8047928051561L243.19538536071775,158.5643580067408L243.35782502651216,158.76107126293937L243.61308735847473,158.8846233560449L243.70591002464295,158.90914514551622L243.91476102352144,158.87276666663018L244.170023355484,158.89617689146888L244.23964035511017,158.8755287363234L244.5181083536148,158.59635759464982L244.610931019783,158.7589155012276L244.70375368595126,158.89546953215722L244.93581035137177,158.87118352912313L244.98222168445588,158.88772226350557L245.0750443506241,158.91790292747027L245.09825001716612,158.86286363626678L245.12145568370818,158.90653465281838L245.37671801567078,158.79502450989966L245.46954068183896,158.8971200372178L245.67839168071745,158.8533648112243L246.1192993450165,158.90254312527395L246.88508634090422,158.90673675547887L246.93149767398836,158.89833265318066L247.0475260066986,158.83019037282284L247.3956110048294,158.91936817175875L247.41881667137145,158.8643457224436L247.53484500408175,158.74375780169174L247.6972846698761,158.86946565650905L248.09178100109102,158.85754159954087L248.20780933380126,158.90200418484602L248.4862773323059,158.81065378230997L248.6487169981003,158.59802494159877L248.8343623304367,158.91862712867032L248.8575679969788,158.90042104733894L249.39129832744598,158.92879962924772L249.7857946586609,158.8921685220361L249.94823432445526,158.91552822120966L249.9946456575394,158.88014341373764L250.06426265716553,158.6755144700037L250.08746832370758,158.7525829511993L250.22670232295988,158.27501436448983L250.24990798950193,158.88654333131944L250.38914198875426,158.606159573683L250.48196465492248,158.8525564005824L251.31736865043638,158.78518884708973L251.34057431697843,158.89765897764573L251.66545364856722,158.74827142777576L252.19918397903442,158.8644130899971L252.54726897716523,158.88341074008204L253.0113823080063,158.90530519496716L253.1042049741745,158.85363428143827L253.753963637352,158.88337705630528L253.91640330314638,158.52420694485917L253.98602030277252,158.79327295350885L254.07884296894073,158.88479177492863L254.12525430202484,158.88997907654758L254.1484599685669,158.89243799225005L254.33410530090333,158.88613912599848L254.77501296520234,158.90762937556264L254.8446299648285,158.92303970342408L254.96065829753874,158.87468664190473L255.00706963062285,158.9099703980465L255.053480963707,158.9266691303685L255.26233196258545,158.91379350670724" fill="none"></path></g></g></g></g></g></g><g transform="translate(51, 176)" clip-path="url(#clip_1)"><clipPath id="clip_1"><rect width="278" height="23"></rect></clipPath><g><g><line x1="0" y1="0" x2="0" y2="5" style="visibility: inherit;" fill="rgb(0, 0, 0)" stroke="rgb(204, 204, 204)" stroke-width="1px"></line><line x1="23.205666542053223" y1="0" x2="23.205666542053223" y2="5" style="visibility: inherit;" fill="rgb(0, 0, 0)" stroke="rgb(204, 204, 204)" stroke-width="1px"></line><line x1="46.411333084106445" y1="0" x2="46.411333084106445" y2="5" style="visibility: inherit;" fill="rgb(0, 0, 0)" stroke="rgb(204, 204, 204)" stroke-width="1px"></line><line x1="69.61699962615967" y1="0" x2="69.61699962615967" y2="5" style="visibility: inherit;" fill="rgb(0, 0, 0)" stroke="rgb(204, 204, 204)" stroke-width="1px"></line><line x1="92.82266616821289" y1="0" x2="92.82266616821289" y2="5" style="visibility: inherit;" fill="rgb(0, 0, 0)" stroke="rgb(204, 204, 204)" stroke-width="1px"></line><line x1="116.02833271026611" y1="0" x2="116.02833271026611" y2="5" style="visibility: inherit;" fill="rgb(0, 0, 0)" stroke="rgb(204, 204, 204)" stroke-width="1px"></line><line x1="139.23399925231934" y1="0" x2="139.23399925231934" y2="5" style="visibility: inherit;" fill="rgb(0, 0, 0)" stroke="rgb(204, 204, 204)" stroke-width="1px"></line><line x1="162.43966579437256" y1="0" x2="162.43966579437256" y2="5" style="visibility: inherit;" fill="rgb(0, 0, 0)" stroke="rgb(204, 204, 204)" stroke-width="1px"></line><line x1="185.64533233642578" y1="0" x2="185.64533233642578" y2="5" style="visibility: inherit;" fill="rgb(0, 0, 0)" stroke="rgb(204, 204, 204)" stroke-width="1px"></line><line x1="208.850998878479" y1="0" x2="208.850998878479" y2="5" style="visibility: inherit;" fill="rgb(0, 0, 0)" stroke="rgb(204, 204, 204)" stroke-width="1px"></line><line x1="232.05666542053223" y1="0" x2="232.05666542053223" y2="5" style="visibility: inherit;" fill="rgb(0, 0, 0)" stroke="rgb(204, 204, 204)" stroke-width="1px"></line><line x1="255.26233196258545" y1="0" x2="255.26233196258545" y2="5" style="visibility: inherit;" fill="rgb(0, 0, 0)" stroke="rgb(204, 204, 204)" stroke-width="1px"></line><line x1="278.4679985046387" y1="0" x2="278.4679985046387" y2="5" style="visibility: inherit;" fill="rgb(0, 0, 0)" stroke="rgb(204, 204, 204)" stroke-width="1px"></line></g><g transform="translate(0, 8)"><text style="text-anchor: middle; visibility: hidden; font-family: Roboto, sans-serif; font-size: 12px; font-weight: 200;" x="0" y="0" dx="0em" dy="0.95em" fill="rgb(33, 33, 33)" stroke="none" stroke-width="1px">-1k</text><text style="text-anchor: middle; visibility: inherit; font-family: Roboto, sans-serif; font-size: 12px; font-weight: 200;" x="23.205666542053223" y="0" dx="0em" dy="0.95em" fill="rgb(33, 33, 33)" stroke="none" stroke-width="1px">0</text><text style="text-anchor: middle; visibility: inherit; font-family: Roboto, sans-serif; font-size: 12px; font-weight: 200;" x="46.411333084106445" y="0" dx="0em" dy="0.95em" fill="rgb(33, 33, 33)" stroke="none" stroke-width="1px">1k</text><text style="text-anchor: middle; visibility: inherit; font-family: Roboto, sans-serif; font-size: 12px; font-weight: 200;" x="69.61699962615967" y="0" dx="0em" dy="0.95em" fill="rgb(33, 33, 33)" stroke="none" stroke-width="1px">2k</text><text style="text-anchor: middle; visibility: inherit; font-family: Roboto, sans-serif; font-size: 12px; font-weight: 200;" x="92.82266616821289" y="0" dx="0em" dy="0.95em" fill="rgb(33, 33, 33)" stroke="none" stroke-width="1px">3k</text><text style="text-anchor: middle; visibility: inherit; font-family: Roboto, sans-serif; font-size: 12px; font-weight: 200;" x="116.02833271026611" y="0" dx="0em" dy="0.95em" fill="rgb(33, 33, 33)" stroke="none" stroke-width="1px">4k</text><text style="text-anchor: middle; visibility: inherit; font-family: Roboto, sans-serif; font-size: 12px; font-weight: 200;" x="139.23399925231934" y="0" dx="0em" dy="0.95em" fill="rgb(33, 33, 33)" stroke="none" stroke-width="1px">5k</text><text style="text-anchor: middle; visibility: inherit; font-family: Roboto, sans-serif; font-size: 12px; font-weight: 200;" x="162.43966579437256" y="0" dx="0em" dy="0.95em" fill="rgb(33, 33, 33)" stroke="none" stroke-width="1px">6k</text><text style="text-anchor: middle; visibility: inherit; font-family: Roboto, sans-serif; font-size: 12px; font-weight: 200;" x="185.64533233642578" y="0" dx="0em" dy="0.95em" fill="rgb(33, 33, 33)" stroke="none" stroke-width="1px">7k</text><text style="text-anchor: middle; visibility: inherit; font-family: Roboto, sans-serif; font-size: 12px; font-weight: 200;" x="208.850998878479" y="0" dx="0em" dy="0.95em" fill="rgb(33, 33, 33)" stroke="none" stroke-width="1px">8k</text><text style="text-anchor: middle; visibility: inherit; font-family: Roboto, sans-serif; font-size: 12px; font-weight: 200;" x="232.05666542053223" y="0" dx="0em" dy="0.95em" fill="rgb(33, 33, 33)" stroke="none" stroke-width="1px">9k</text><text style="text-anchor: middle; visibility: inherit; font-family: Roboto, sans-serif; font-size: 12px; font-weight: 200;" x="255.26233196258545" y="0" dx="0em" dy="0.95em" fill="rgb(33, 33, 33)" stroke="none" stroke-width="1px">10k</text><text style="text-anchor: middle; visibility: hidden; font-family: Roboto, sans-serif; font-size: 12px; font-weight: 200;" x="278.4679985046387" y="0" dx="0em" dy="0.95em" fill="rgb(33, 33, 33)" stroke="none" stroke-width="1px">11k</text></g><line x1="0" y1="0" x2="278.4679985046387" y2="0" fill="rgb(0, 0, 0)" stroke="rgb(204, 204, 204)" stroke-width="1px"></line></g></g></g></g></svg>