<svg viewBox="0 0 330 200" xmlns="http://www.w3.org/2000/svg"><g><g><g><g><g><line x1="61.91500186920166" y1="177.5999994277954" x2="56.91500186920166" y2="177.5999994277954" style="visibility: inherit;" fill="rgb(0, 0, 0)" stroke="rgb(204, 204, 204)" stroke-width="1px"></line><line x1="61.91500186920166" y1="161.45454493435946" x2="56.91500186920166" y2="161.45454493435946" style="visibility: inherit;" fill="rgb(0, 0, 0)" stroke="rgb(204, 204, 204)" stroke-width="1px"></line><line x1="61.91500186920166" y1="145.3090904409235" x2="56.91500186920166" y2="145.3090904409235" style="visibility: inherit;" fill="rgb(0, 0, 0)" stroke="rgb(204, 204, 204)" stroke-width="1px"></line><line x1="61.91500186920166" y1="129.16363594748756" x2="56.91500186920166" y2="129.16363594748756" style="visibility: inherit;" fill="rgb(0, 0, 0)" stroke="rgb(204, 204, 204)" stroke-width="1px"></line><line x1="61.91500186920166" y1="113.01818145405163" x2="56.91500186920166" y2="113.01818145405163" style="visibility: inherit;" fill="rgb(0, 0, 0)" stroke="rgb(204, 204, 204)" stroke-width="1px"></line><line x1="61.91500186920166" y1="96.87272696061567" x2="56.91500186920166" y2="96.87272696061567" style="visibility: inherit;" fill="rgb(0, 0, 0)" stroke="rgb(204, 204, 204)" stroke-width="1px"></line><line x1="61.91500186920166" y1="80.72727246717974" x2="56.91500186920166" y2="80.72727246717974" style="visibility: inherit;" fill="rgb(0, 0, 0)" stroke="rgb(204, 204, 204)" stroke-width="1px"></line><line x1="61.91500186920166" y1="64.58181797374378" x2="56.91500186920166" y2="64.58181797374378" style="visibility: inherit;" fill="rgb(0, 0, 0)" stroke="rgb(204, 204, 204)" stroke-width="1px"></line><line x1="61.91500186920166" y1="48.436363480307854" x2="56.91500186920166" y2="48.436363480307854" style="visibility: inherit;" fill="rgb(0, 0, 0)" stroke="rgb(204, 204, 204)" stroke-width="1px"></line><line x1="61.91500186920166" y1="32.290908986871884" x2="56.91500186920166" y2="32.290908986871884" style="visibility: inherit;" fill="rgb(0, 0, 0)" stroke="rgb(204, 204, 204)" stroke-width="1px"></line><line x1="61.91500186920166" y1="16.145454493435953" x2="56.91500186920166" y2="16.145454493435953" style="visibility: inherit;" fill="rgb(0, 0, 0)" stroke="rgb(204, 204, 204)" stroke-width="1px"></line><line x1="61.91500186920166" y1="0" x2="56.91500186920166" y2="0" style="visibility: inherit;" fill="rgb(0, 0, 0)" stroke="rgb(204, 204, 204)" stroke-width="1px"></line></g><g transform="translate(51.91500186920166, 0)"><text style="text-anchor: end; visibility: hidden; font-family: Roboto, sans-serif; font-size: 12px; font-weight: 200;" x="0" y="177.5999994277954" dx="0em" dy="0.3em" fill="rgb(50, 49, 63)" stroke="none" stroke-width="1px">-1e-5</text><text style="text-anchor: end; visibility: inherit; font-family: Roboto, sans-serif; font-size: 12px; font-weight: 200;" x="0" y="161.45454493435946" dx="0em" dy="0.3em" fill="rgb(50, 49, 63)" stroke="none" stroke-width="1px">0</text><text style="text-anchor: end; visibility: hidden; font-family: Roboto, sans-serif; font-size: 12px; font-weight: 200;" x="0" y="145.3090904409235" dx="0em" dy="0.3em" fill="rgb(50, 49, 63)" stroke="none" stroke-width="1px">1e-5</text><text style="text-anchor: end; visibility: inherit; font-family: Roboto, sans-serif; font-size: 12px; font-weight: 200;" x="0" y="129.16363594748756" dx="0em" dy="0.3em" fill="rgb(50, 49, 63)" stroke="none" stroke-width="1px">2e-5</text><text style="text-anchor: end; visibility: hidden; font-family: Roboto, sans-serif; font-size: 12px; font-weight: 200;" x="0" y="113.01818145405163" dx="0em" dy="0.3em" fill="rgb(50, 49, 63)" stroke="none" stroke-width="1px">3e-5</text><text style="text-anchor: end; visibility: inherit; font-family: Roboto, sans-serif; font-size: 12px; font-weight: 200;" x="0" y="96.87272696061567" dx="0em" dy="0.3em" fill="rgb(50, 49, 63)" stroke="none" stroke-width="1px">4e-5</text><text style="text-anchor: end; visibility: hidden; font-family: Roboto, sans-serif; font-size: 12px; font-weight: 200;" x="0" y="80.72727246717974" dx="0em" dy="0.3em" fill="rgb(50, 49, 63)" stroke="none" stroke-width="1px">5e-5</text><text style="text-anchor: end; visibility: inherit; font-family: Roboto, sans-serif; font-size: 12px; font-weight: 200;" x="0" y="64.58181797374378" dx="0em" dy="0.3em" fill="rgb(50, 49, 63)" stroke="none" stroke-width="1px">6e-5</text><text style="text-anchor: end; visibility: hidden; font-family: Roboto, sans-serif; font-size: 12px; font-weight: 200;" x="0" y="48.436363480307854" dx="0em" dy="0.3em" fill="rgb(50, 49, 63)" stroke="none" stroke-width="1px">7e-5</text><text style="text-anchor: end; visibility: inherit; font-family: Roboto, sans-serif; font-size: 12px; font-weight: 200;" x="0" y="32.290908986871884" dx="0em" dy="0.3em" fill="rgb(50, 49, 63)" stroke="none" stroke-width="1px">8e-5</text><text style="text-anchor: end; visibility: hidden; font-family: Roboto, sans-serif; font-size: 12px; font-weight: 200;" x="0" y="16.145454493435953" dx="0em" dy="0.3em" fill="rgb(50, 49, 63)" stroke="none" stroke-width="1px">9e-5</text><text style="text-anchor: end; visibility: hidden; font-family: Roboto, sans-serif; font-size: 12px; font-weight: 200;" x="0" y="0" dx="0em" dy="0.3em" fill="rgb(50, 49, 63)" stroke="none" stroke-width="1px">1e-4</text></g><line x1="61.91500186920166" y1="0" x2="61.91500186920166" y2="177.5999994277954" fill="rgb(0, 0, 0)" stroke="rgb(204, 204, 204)" stroke-width="1px"></line></g></g><g transform="translate(61, 0)" clip-path="url(#clip_0)"><clipPath id="clip_0"><rect width="268" height="177"></rect></clipPath><g><g><g><line x1="0" y1="0" x2="0" y2="177.5999994277954" fill="rgb(0, 0, 0)" stroke="rgb(60, 60, 60)" stroke-width="1px" opacity="0.25"></line><line x1="22.34041651089986" y1="0" x2="22.34041651089986" y2="177.5999994277954" fill="rgb(0, 0, 0)" stroke="rgb(60, 60, 60)" stroke-width="1px" opacity="0.25"></line><line x1="44.68083302179972" y1="0" x2="44.68083302179972" y2="177.5999994277954" fill="rgb(0, 0, 0)" stroke="rgb(60, 60, 60)" stroke-width="1px" opacity="0.25"></line><line x1="67.02124953269958" y1="0" x2="67.02124953269958" y2="177.5999994277954" fill="rgb(0, 0, 0)" stroke="rgb(60, 60, 60)" stroke-width="1px" opacity="0.25"></line><line x1="89.36166604359944" y1="0" x2="89.36166604359944" y2="177.5999994277954" fill="rgb(0, 0, 0)" stroke="rgb(60, 60, 60)" stroke-width="1px" opacity="0.25"></line><line x1="111.70208255449931" y1="0" x2="111.70208255449931" y2="177.5999994277954" fill="rgb(0, 0, 0)" stroke="rgb(60, 60, 60)" stroke-width="1px" opacity="0.25"></line><line x1="134.04249906539917" y1="0" x2="134.04249906539917" y2="177.5999994277954" fill="rgb(0, 0, 0)" stroke="rgb(60, 60, 60)" stroke-width="1px" opacity="0.25"></line><line x1="156.38291557629904" y1="0" x2="156.38291557629904" y2="177.5999994277954" fill="rgb(0, 0, 0)" stroke="rgb(60, 60, 60)" stroke-width="1px" opacity="0.25"></line><line x1="178.72333208719888" y1="0" x2="178.72333208719888" y2="177.5999994277954" fill="rgb(0, 0, 0)" stroke="rgb(60, 60, 60)" stroke-width="1px" opacity="0.25"></line><line x1="201.06374859809875" y1="0" x2="201.06374859809875" y2="177.5999994277954" fill="rgb(0, 0, 0)" stroke="rgb(60, 60, 60)" stroke-width="1px" opacity="0.25"></line><line x1="223.40416510899863" y1="0" x2="223.40416510899863" y2="177.5999994277954" fill="rgb(0, 0, 0)" stroke="rgb(60, 60, 60)" stroke-width="1px" opacity="0.25"></line><line x1="245.74458161989847" y1="0" x2="245.74458161989847" y2="177.5999994277954" fill="rgb(0, 0, 0)" stroke="rgb(60, 60, 60)" stroke-width="1px" opacity="0.25"></line><line x1="268.08499813079834" y1="0" x2="268.08499813079834" y2="177.5999994277954" fill="rgb(0, 0, 0)" stroke="rgb(60, 60, 60)" stroke-width="1px" opacity="0.25"></line></g><g><line x1="0" y1="177.5999994277954" x2="268.08499813079834" y2="177.5999994277954" fill="rgb(0, 0, 0)" stroke="rgb(60, 60, 60)" stroke-width="1px" opacity="0.25"></line><line x1="0" y1="161.45454493435946" x2="268.08499813079834" y2="161.45454493435946" fill="rgb(0, 0, 0)" stroke="rgb(60, 60, 60)" stroke-width="1px" opacity="0.25"></line><line x1="0" y1="145.3090904409235" x2="268.08499813079834" y2="145.3090904409235" fill="rgb(0, 0, 0)" stroke="rgb(60, 60, 60)" stroke-width="1px" opacity="0.25"></line><line x1="0" y1="129.16363594748756" x2="268.08499813079834" y2="129.16363594748756" fill="rgb(0, 0, 0)" stroke="rgb(60, 60, 60)" stroke-width="1px" opacity="0.25"></line><line x1="0" y1="113.01818145405163" x2="268.08499813079834" y2="113.01818145405163" fill="rgb(0, 0, 0)" stroke="rgb(60, 60, 60)" stroke-width="1px" opacity="0.25"></line><line x1="0" y1="96.87272696061567" x2="268.08499813079834" y2="96.87272696061567" fill="rgb(0, 0, 0)" stroke="rgb(60, 60, 60)" stroke-width="1px" opacity="0.25"></line><line x1="0" y1="80.72727246717974" x2="268.08499813079834" y2="80.72727246717974" fill="rgb(0, 0, 0)" stroke="rgb(60, 60, 60)" stroke-width="1px" opacity="0.25"></line><line x1="0" y1="64.58181797374378" x2="268.08499813079834" y2="64.58181797374378" fill="rgb(0, 0, 0)" stroke="rgb(60, 60, 60)" stroke-width="1px" opacity="0.25"></line><line x1="0" y1="48.436363480307854" x2="268.08499813079834" y2="48.436363480307854" fill="rgb(0, 0, 0)" stroke="rgb(60, 60, 60)" stroke-width="1px" opacity="0.25"></line><line x1="0" y1="32.290908986871884" x2="268.08499813079834" y2="32.290908986871884" fill="rgb(0, 0, 0)" stroke="rgb(60, 60, 60)" stroke-width="1px" opacity="0.25"></line><line x1="0" y1="16.145454493435953" x2="268.08499813079834" y2="16.145454493435953" fill="rgb(0, 0, 0)" stroke="rgb(60, 60, 60)" stroke-width="1px" opacity="0.25"></line><line x1="0" y1="0" x2="268.08499813079834" y2="0" fill="rgb(0, 0, 0)" stroke="rgb(60, 60, 60)" stroke-width="1px" opacity="0.25"></line></g></g></g><g><g><line x1="0" y1="161.45454493435946" x2="268.08499813079834" y2="161.45454493435946" fill="rgb(0, 0, 0)" stroke="rgb(153, 153, 153)" stroke-width="1.5px"></line></g></g><g><g><line x1="22.34041651089986" y1="0" x2="22.34041651089986" y2="177.5999994277954" fill="rgb(0, 0, 0)" stroke="rgb(153, 153, 153)" stroke-width="1.5px"></line></g></g><g><g><g><g><g><path style="fill: none;" stroke="rgb(255, 112, 67)" stroke-width="2px" d="M22.34041651089986,161.1316358407172L24.574458161989845,154.41781785636854L26.808499813079834,146.88189946484172L29.042541464169823,138.62059883136803L31.276583115259807,129.74768092021313L33.51062476634979,120.37998628786367L35.74466641743978,110.6265496954949L37.97870806852976,100.58196832517584L40.21274971961975,90.3237074424879L42.44679137070973,79.91233176901822L44.68083302179972,69.39345733335877L46.91487467288971,58.80038851304119L49.14891632397969,48.15686202000405L51.38295797506969,37.47943721210074L53.61699962615967,26.779475819212927L55.85104127724966,19.514743689743284L58.085082928339645,15.622471869983281L60.31912457942963,13.780128688883611L62.553166230519615,13.194300347368028L64.7872078816096,13.388638086981356L67.02124953269958,14.0768707689117L69.25529118378958,15.08670154762653L71.48933283487956,16.314158857547113L73.72337448596954,17.696260539364786L75.95741613705952,19.194573944146285L78.19145778814952,20.785381517688997L80.4254994392395,22.453766478413204L82.6595410903295,24.190078439125845L84.89358274141946,25.9877987036323L87.12762439250946,27.842268835880304L89.36166604359944,29.749932489036784L91.59570769468944,31.707871095316097L93.82974934577942,33.713525272830225L96.0637909968694,35.76454646071871L98.29783264795938,37.85867970344193L100.53187429904938,39.993726211991294L102.76591595013937,42.16750210357449L104.99995760122935,44.377808945693204L107.23399925231934,46.62243957682621L109.46804090340932,48.89916280275007L111.70208255449931,51.205718913088276L113.9361242055893,53.539821690068436L116.17016585667929,55.89916901159616L118.40420750776926,58.28143041727171L120.63824915885925,60.68425139533692L122.87229080994923,63.1052583042994L125.10633246103923,65.54206367536953L127.34037411212921,67.99226234549785L129.5744157632192,70.45343618561213L131.80845741430917,72.92315693755734L134.04249906539917,75.39898556678533L136.27654071648914,77.87847892238605L138.51058236757916,80.35918903416061L140.74462401866913,82.83866973928278L142.97866566975912,85.31447360987745L145.2127073208491,87.78415715798606L147.4467489719391,90.24528395854584L149.68079062302908,92.69542417370428L151.91483227411905,95.13215896635383L154.14887392520905,97.55308549772509L156.38291557629904,99.95581287752465L158.616957227389,102.33797148138166L160.850998878479,104.69720914342453L163.08504052956897,107.03119826971842L165.319082180659,109.33763423264543L167.55312383174896,111.6142414559514L169.78716548283893,113.8587747163011L172.02120713392895,116.06901757473848L174.25524878501892,118.24278848398136L176.48929043610892,120.37794327806186L178.72333208719888,122.47237431663781L180.95737373828888,124.52401467052522L183.19141538937888,126.53083945828146L185.42545704046884,128.49086899762787L187.65949869155884,130.40216717209418L189.89354034264883,132.26284984889654L192.1275819937388,134.07107935703644L194.3616236448288,135.82507115941974L196.59566529591876,137.52309491928696L198.8297069470088,139.1634751400716L201.06374859809875,140.74459213668314L203.29779024918872,142.26488614248638L205.53183190027875,143.72285624927937L207.7658735513687,145.11706388285813L209.9999152024587,146.44613371361865L212.23395685354868,147.70875332186614L214.46799850463867,148.90367710857763L216.70204015572867,150.02972541133482L218.93608180681863,151.0857874980927L221.17012345790863,152.07082072028405L223.40416510899863,152.9838529415229L225.6382067600886,153.8239834074588L227.8722484111786,154.59038297400474L230.10629006226856,155.2822951253268L232.34033171335858,155.8990371720057L234.57437336444855,156.44000038256573L236.80841501553851,156.9046507966024L239.04245666662854,157.2925300063429L241.2764983177185,157.60325533189865L243.5105399688085,157.83651992641654L245.74458161989847,157.9920935733799L247.97862327098846,158.08543776155793L250.21266492207846,158.14144427446473L252.44670657316843,158.1750481822088L254.68074822425842,158.19521052685525" fill="none"></path></g></g></g></g><g opacity="0.2"><g><g><g><path style="fill: none;" stroke="rgb(255, 112, 67)" stroke-width="2px" d="M22.34041651089986,161.1316358407172L24.574458161989845,150.38952706575935L26.808499813079834,139.647417808976L29.042541464169823,128.9053092864029L31.276583115259807,118.16319929540929L33.51062476634979,107.42109224125676L35.74466641743978,96.67897931342208L37.97870806852976,85.93687225926952L40.21274971961975,75.19476520511698L42.44679137070973,64.4526522772823L44.68083302179972,53.71055109681188L46.91487467288971,42.96843229529507L49.14891632397969,32.226325241142526L51.38295797506969,21.484218186989985L53.61699962615967,10.742111132837424L55.85104127724966,8.622769147485215L58.085082928339645,9.785711219332283L60.31912457942963,11.017081687968181L62.553166230519615,12.31564708014609L64.7872078816096,13.680126933162171L67.02124953269958,15.109182047491258L69.25529118378958,16.601414486786947L71.48933283487956,18.15532058842451L73.72337448596954,19.76939668977925L75.95741613705952,21.442033401948134L78.19145778814952,23.17158609393539L80.4254994392395,24.95633965055968L82.6595410903295,26.794543714546936L84.89358274141946,28.684377444437555L87.12762439250946,30.62397300931488L89.36166604359944,32.61142733616949L91.59570769468944,34.64477861517073L93.82974934577942,36.72200629966662L96.0637909968694,38.84107809564095L98.29783264795938,40.9998794775277L100.53187429904938,43.19629591976088L102.76591595013937,45.42816590731746L104.99995760122935,47.69326918835309L107.23399925231934,49.98938551102352L109.46804090340932,52.314247634027396L111.70208255449931,54.665553073970614L113.9361242055893,57.04097585273057L116.17016585667929,59.43818999218467L118.40420750776926,61.85482252475326L120.63824915885925,64.28848286181032L122.87229080994923,66.73676866736562L125.10633246103923,69.19727173174675L127.34037411212921,71.66756035055278L129.5744157632192,74.14519694570068L131.80845741430917,76.62773806542532L134.04249906539917,79.11272851059722L136.27654071648914,81.59771895576912L138.51058236757916,84.08025420181161L140.74462401866913,86.55789079695951L142.97866566975912,89.02817941576554L145.2127073208491,91.48868248014668L147.4467489719391,93.93697415938409L149.68079062302908,96.37063449644116L151.91483227411905,98.78726115532763L154.14887392520905,101.18447529478172L156.38291557629904,103.55990394722383L158.616957227389,105.91120938716705L160.850998878479,108.23606563648877L163.08504052956897,110.53218195915919L165.319082180659,112.79728817703591L167.55312383174896,115.02915229091036L169.78716548283893,117.22557460682567L172.02120713392895,119.38438186239453L174.25524878501892,121.50344484784567L176.48929043610892,123.58067546918264L178.72333208719888,125.61402087450175L180.95737373828888,127.60147520135637L183.19141538937888,129.5410766399158L185.42545704046884,131.43091330664748L187.65949869155884,133.26911443379367L189.89354034264883,135.0538738641001L192.1275819937388,136.7834236192463L194.3616236448288,138.45605886299464L196.59566529591876,140.0701305590878L198.8297069470088,141.62404547124854L201.06374859809875,143.11626763160052L203.29779024918872,144.5453271511912L205.53183190027875,145.90981140946886L207.7658735513687,147.20837533322623L209.9999152024587,148.4397384597595L212.23395685354868,149.60268273423733L214.46799850463867,150.69606278864487L216.70204015572867,151.71879786547058L218.93608180681863,152.66988062822955L221.17012345790863,153.54837055357106L223.40416510899863,154.35340127338125L225.6382067600886,155.08417910636263L227.8722484111786,155.73998232382368L230.10629006226856,156.3201633523099L232.34033171335858,156.82415024202405L234.57437336444855,157.2514451984058L236.80841501553851,157.60162641765731L239.04245666662854,157.87434882095368L241.2764983177185,158.06934332023232L243.5105399688085,158.18641681819332L245.74458161989847,158.22545404382495L247.97862327098846,158.22545404382495L250.21266492207846,158.22545404382495L252.44670657316843,158.22545404382495L254.68074822425842,158.22545404382495" fill="none"></path></g></g></g></g></g></g><g transform="translate(61, 177)" clip-path="url(#clip_1)"><clipPath id="clip_1"><rect width="268" height="22"></rect></clipPath><g><g><line x1="0" y1="0" x2="0" y2="5" style="visibility: inherit;" fill="rgb(0, 0, 0)" stroke="rgb(204, 204, 204)" stroke-width="1px"></line><line x1="22.34041651089986" y1="0" x2="22.34041651089986" y2="5" style="visibility: inherit;" fill="rgb(0, 0, 0)" stroke="rgb(204, 204, 204)" stroke-width="1px"></line><line x1="44.68083302179972" y1="0" x2="44.68083302179972" y2="5" style="visibility: inherit;" fill="rgb(0, 0, 0)" stroke="rgb(204, 204, 204)" stroke-width="1px"></line><line x1="67.02124953269958" y1="0" x2="67.02124953269958" y2="5" style="visibility: inherit;" fill="rgb(0, 0, 0)" stroke="rgb(204, 204, 204)" stroke-width="1px"></line><line x1="89.36166604359944" y1="0" x2="89.36166604359944" y2="5" style="visibility: inherit;" fill="rgb(0, 0, 0)" stroke="rgb(204, 204, 204)" stroke-width="1px"></line><line x1="111.70208255449931" y1="0" x2="111.70208255449931" y2="5" style="visibility: inherit;" fill="rgb(0, 0, 0)" stroke="rgb(204, 204, 204)" stroke-width="1px"></line><line x1="134.04249906539917" y1="0" x2="134.04249906539917" y2="5" style="visibility: inherit;" fill="rgb(0, 0, 0)" stroke="rgb(204, 204, 204)" stroke-width="1px"></line><line x1="156.38291557629904" y1="0" x2="156.38291557629904" y2="5" style="visibility: inherit;" fill="rgb(0, 0, 0)" stroke="rgb(204, 204, 204)" stroke-width="1px"></line><line x1="178.72333208719888" y1="0" x2="178.72333208719888" y2="5" style="visibility: inherit;" fill="rgb(0, 0, 0)" stroke="rgb(204, 204, 204)" stroke-width="1px"></line><line x1="201.06374859809875" y1="0" x2="201.06374859809875" y2="5" style="visibility: inherit;" fill="rgb(0, 0, 0)" stroke="rgb(204, 204, 204)" stroke-width="1px"></line><line x1="223.40416510899863" y1="0" x2="223.40416510899863" y2="5" style="visibility: inherit;" fill="rgb(0, 0, 0)" stroke="rgb(204, 204, 204)" stroke-width="1px"></line><line x1="245.74458161989847" y1="0" x2="245.74458161989847" y2="5" style="visibility: inherit;" fill="rgb(0, 0, 0)" stroke="rgb(204, 204, 204)" stroke-width="1px"></line><line x1="268.08499813079834" y1="0" x2="268.08499813079834" y2="5" style="visibility: inherit;" fill="rgb(0, 0, 0)" stroke="rgb(204, 204, 204)" stroke-width="1px"></line></g><g transform="translate(0, 8)"><text style="text-anchor: middle; visibility: hidden; font-family: Roboto, sans-serif; font-size: 12px; font-weight: 200;" x="0" y="0" dx="0em" dy="0.95em" fill="rgb(50, 49, 63)" stroke="none" stroke-width="1px">-10</text><text style="text-anchor: middle; visibility: inherit; font-family: Roboto, sans-serif; font-size: 12px; font-weight: 200;" x="22.34041651089986" y="0" dx="0em" dy="0.95em" fill="rgb(50, 49, 63)" stroke="none" stroke-width="1px">0</text><text style="text-anchor: middle; visibility: inherit; font-family: Roboto, sans-serif; font-size: 12px; font-weight: 200;" x="44.68083302179972" y="0" dx="0em" dy="0.95em" fill="rgb(50, 49, 63)" stroke="none" stroke-width="1px">10</text><text style="text-anchor: middle; visibility: inherit; font-family: Roboto, sans-serif; font-size: 12px; font-weight: 200;" x="67.02124953269958" y="0" dx="0em" dy="0.95em" fill="rgb(50, 49, 63)" stroke="none" stroke-width="1px">20</text><text style="text-anchor: middle; visibility: inherit; font-family: Roboto, sans-serif; font-size: 12px; font-weight: 200;" x="89.36166604359944" y="0" dx="0em" dy="0.95em" fill="rgb(50, 49, 63)" stroke="none" stroke-width="1px">30</text><text style="text-anchor: middle; visibility: inherit; font-family: Roboto, sans-serif; font-size: 12px; font-weight: 200;" x="111.70208255449931" y="0" dx="0em" dy="0.95em" fill="rgb(50, 49, 63)" stroke="none" stroke-width="1px">40</text><text style="text-anchor: middle; visibility: inherit; font-family: Roboto, sans-serif; font-size: 12px; font-weight: 200;" x="134.04249906539917" y="0" dx="0em" dy="0.95em" fill="rgb(50, 49, 63)" stroke="none" stroke-width="1px">50</text><text style="text-anchor: middle; visibility: inherit; font-family: Roboto, sans-serif; font-size: 12px; font-weight: 200;" x="156.38291557629904" y="0" dx="0em" dy="0.95em" fill="rgb(50, 49, 63)" stroke="none" stroke-width="1px">60</text><text style="text-anchor: middle; visibility: inherit; font-family: Roboto, sans-serif; font-size: 12px; font-weight: 200;" x="178.72333208719888" y="0" dx="0em" dy="0.95em" fill="rgb(50, 49, 63)" stroke="none" stroke-width="1px">70</text><text style="text-anchor: middle; visibility: inherit; font-family: Roboto, sans-serif; font-size: 12px; font-weight: 200;" x="201.06374859809875" y="0" dx="0em" dy="0.95em" fill="rgb(50, 49, 63)" stroke="none" stroke-width="1px">80</text><text style="text-anchor: middle; visibility: inherit; font-family: Roboto, sans-serif; font-size: 12px; font-weight: 200;" x="223.40416510899863" y="0" dx="0em" dy="0.95em" fill="rgb(50, 49, 63)" stroke="none" stroke-width="1px">90</text><text style="text-anchor: middle; visibility: inherit; font-family: Roboto, sans-serif; font-size: 12px; font-weight: 200;" x="245.74458161989847" y="0" dx="0em" dy="0.95em" fill="rgb(50, 49, 63)" stroke="none" stroke-width="1px">100</text><text style="text-anchor: middle; visibility: hidden; font-family: Roboto, sans-serif; font-size: 12px; font-weight: 200;" x="268.08499813079834" y="0" dx="0em" dy="0.95em" fill="rgb(50, 49, 63)" stroke="none" stroke-width="1px">110</text></g><line x1="0" y1="0" x2="268.08499813079834" y2="0" fill="rgb(0, 0, 0)" stroke="rgb(204, 204, 204)" stroke-width="1px"></line></g></g></g></g></svg>