<svg viewBox="0 0 330 200" xmlns="http://www.w3.org/2000/svg"><g><g><g><g><g><line x1="51.53200149536133" y1="176.89999961853027" x2="46.53200149536133" y2="176.89999961853027" style="visibility: inherit;" fill="rgb(0, 0, 0)" stroke="rgb(204, 204, 204)" stroke-width="1px"></line><line x1="51.53200149536133" y1="159.20999965667724" x2="46.53200149536133" y2="159.20999965667724" style="visibility: inherit;" fill="rgb(0, 0, 0)" stroke="rgb(204, 204, 204)" stroke-width="1px"></line><line x1="51.53200149536133" y1="141.51999969482424" x2="46.53200149536133" y2="141.51999969482424" style="visibility: inherit;" fill="rgb(0, 0, 0)" stroke="rgb(204, 204, 204)" stroke-width="1px"></line><line x1="51.53200149536133" y1="123.82999973297119" x2="46.53200149536133" y2="123.82999973297119" style="visibility: inherit;" fill="rgb(0, 0, 0)" stroke="rgb(204, 204, 204)" stroke-width="1px"></line><line x1="51.53200149536133" y1="106.13999977111816" x2="46.53200149536133" y2="106.13999977111816" style="visibility: inherit;" fill="rgb(0, 0, 0)" stroke="rgb(204, 204, 204)" stroke-width="1px"></line><line x1="51.53200149536133" y1="88.44999980926514" x2="46.53200149536133" y2="88.44999980926514" style="visibility: inherit;" fill="rgb(0, 0, 0)" stroke="rgb(204, 204, 204)" stroke-width="1px"></line><line x1="51.53200149536133" y1="70.75999984741212" x2="46.53200149536133" y2="70.75999984741212" style="visibility: inherit;" fill="rgb(0, 0, 0)" stroke="rgb(204, 204, 204)" stroke-width="1px"></line><line x1="51.53200149536133" y1="53.06999988555909" x2="46.53200149536133" y2="53.06999988555909" style="visibility: inherit;" fill="rgb(0, 0, 0)" stroke="rgb(204, 204, 204)" stroke-width="1px"></line><line x1="51.53200149536133" y1="35.379999923706045" x2="46.53200149536133" y2="35.379999923706045" style="visibility: inherit;" fill="rgb(0, 0, 0)" stroke="rgb(204, 204, 204)" stroke-width="1px"></line><line x1="51.53200149536133" y1="17.689999961853022" x2="46.53200149536133" y2="17.689999961853022" style="visibility: inherit;" fill="rgb(0, 0, 0)" stroke="rgb(204, 204, 204)" stroke-width="1px"></line><line x1="51.53200149536133" y1="0" x2="46.53200149536133" y2="0" style="visibility: inherit;" fill="rgb(0, 0, 0)" stroke="rgb(204, 204, 204)" stroke-width="1px"></line></g><g transform="translate(41.53200149536133, 0)"><text style="text-anchor: end; visibility: hidden; font-family: Roboto, sans-serif; font-size: 12px; font-weight: 200;" x="0" y="176.89999961853027" dx="0em" dy="0.3em" fill="rgb(33, 33, 33)" stroke="none" stroke-width="1px">-0.5</text><text style="text-anchor: end; visibility: inherit; font-family: Roboto, sans-serif; font-size: 12px; font-weight: 200;" x="0" y="159.20999965667724" dx="0em" dy="0.3em" fill="rgb(33, 33, 33)" stroke="none" stroke-width="1px">0</text><text style="text-anchor: end; visibility: hidden; font-family: Roboto, sans-serif; font-size: 12px; font-weight: 200;" x="0" y="141.51999969482424" dx="0em" dy="0.3em" fill="rgb(33, 33, 33)" stroke="none" stroke-width="1px">0.5</text><text style="text-anchor: end; visibility: inherit; font-family: Roboto, sans-serif; font-size: 12px; font-weight: 200;" x="0" y="123.82999973297119" dx="0em" dy="0.3em" fill="rgb(33, 33, 33)" stroke="none" stroke-width="1px">1</text><text style="text-anchor: end; visibility: hidden; font-family: Roboto, sans-serif; font-size: 12px; font-weight: 200;" x="0" y="106.13999977111816" dx="0em" dy="0.3em" fill="rgb(33, 33, 33)" stroke="none" stroke-width="1px">1.5</text><text style="text-anchor: end; visibility: inherit; font-family: Roboto, sans-serif; font-size: 12px; font-weight: 200;" x="0" y="88.44999980926514" dx="0em" dy="0.3em" fill="rgb(33, 33, 33)" stroke="none" stroke-width="1px">2</text><text style="text-anchor: end; visibility: hidden; font-family: Roboto, sans-serif; font-size: 12px; font-weight: 200;" x="0" y="70.75999984741212" dx="0em" dy="0.3em" fill="rgb(33, 33, 33)" stroke="none" stroke-width="1px">2.5</text><text style="text-anchor: end; visibility: inherit; font-family: Roboto, sans-serif; font-size: 12px; font-weight: 200;" x="0" y="53.06999988555909" dx="0em" dy="0.3em" fill="rgb(33, 33, 33)" stroke="none" stroke-width="1px">3</text><text style="text-anchor: end; visibility: hidden; font-family: Roboto, sans-serif; font-size: 12px; font-weight: 200;" x="0" y="35.379999923706045" dx="0em" dy="0.3em" fill="rgb(33, 33, 33)" stroke="none" stroke-width="1px">3.5</text><text style="text-anchor: end; visibility: inherit; font-family: Roboto, sans-serif; font-size: 12px; font-weight: 200;" x="0" y="17.689999961853022" dx="0em" dy="0.3em" fill="rgb(33, 33, 33)" stroke="none" stroke-width="1px">4</text><text style="text-anchor: end; visibility: hidden; font-family: Roboto, sans-serif; font-size: 12px; font-weight: 200;" x="0" y="0" dx="0em" dy="0.3em" fill="rgb(33, 33, 33)" stroke="none" stroke-width="1px">4.5</text></g><line x1="51.53200149536133" y1="0" x2="51.53200149536133" y2="176.89999961853027" fill="rgb(0, 0, 0)" stroke="rgb(204, 204, 204)" stroke-width="1px"></line></g></g><g transform="translate(51, 0)" clip-path="url(#clip_0)"><clipPath id="clip_0"><rect width="278" height="176"></rect></clipPath><g><g><g><line x1="0" y1="0" x2="0" y2="176.89999961853027" fill="rgb(0, 0, 0)" stroke="rgb(66, 66, 66)" stroke-width="1px" opacity="0.25"></line><line x1="30.94088872273763" y1="0" x2="30.94088872273763" y2="176.89999961853027" fill="rgb(0, 0, 0)" stroke="rgb(66, 66, 66)" stroke-width="1px" opacity="0.25"></line><line x1="61.88177744547526" y1="0" x2="61.88177744547526" y2="176.89999961853027" fill="rgb(0, 0, 0)" stroke="rgb(66, 66, 66)" stroke-width="1px" opacity="0.25"></line><line x1="92.82266616821289" y1="0" x2="92.82266616821289" y2="176.89999961853027" fill="rgb(0, 0, 0)" stroke="rgb(66, 66, 66)" stroke-width="1px" opacity="0.25"></line><line x1="123.76355489095052" y1="0" x2="123.76355489095052" y2="176.89999961853027" fill="rgb(0, 0, 0)" stroke="rgb(66, 66, 66)" stroke-width="1px" opacity="0.25"></line><line x1="154.70444361368817" y1="0" x2="154.70444361368817" y2="176.89999961853027" fill="rgb(0, 0, 0)" stroke="rgb(66, 66, 66)" stroke-width="1px" opacity="0.25"></line><line x1="185.64533233642578" y1="0" x2="185.64533233642578" y2="176.89999961853027" fill="rgb(0, 0, 0)" stroke="rgb(66, 66, 66)" stroke-width="1px" opacity="0.25"></line><line x1="216.58622105916342" y1="0" x2="216.58622105916342" y2="176.89999961853027" fill="rgb(0, 0, 0)" stroke="rgb(66, 66, 66)" stroke-width="1px" opacity="0.25"></line><line x1="247.52710978190103" y1="0" x2="247.52710978190103" y2="176.89999961853027" fill="rgb(0, 0, 0)" stroke="rgb(66, 66, 66)" stroke-width="1px" opacity="0.25"></line><line x1="278.4679985046387" y1="0" x2="278.4679985046387" y2="176.89999961853027" fill="rgb(0, 0, 0)" stroke="rgb(66, 66, 66)" stroke-width="1px" opacity="0.25"></line></g><g><line x1="0" y1="176.89999961853027" x2="278.4679985046387" y2="176.89999961853027" fill="rgb(0, 0, 0)" stroke="rgb(66, 66, 66)" stroke-width="1px" opacity="0.25"></line><line x1="0" y1="159.20999965667724" x2="278.4679985046387" y2="159.20999965667724" fill="rgb(0, 0, 0)" stroke="rgb(66, 66, 66)" stroke-width="1px" opacity="0.25"></line><line x1="0" y1="141.51999969482424" x2="278.4679985046387" y2="141.51999969482424" fill="rgb(0, 0, 0)" stroke="rgb(66, 66, 66)" stroke-width="1px" opacity="0.25"></line><line x1="0" y1="123.82999973297119" x2="278.4679985046387" y2="123.82999973297119" fill="rgb(0, 0, 0)" stroke="rgb(66, 66, 66)" stroke-width="1px" opacity="0.25"></line><line x1="0" y1="106.13999977111816" x2="278.4679985046387" y2="106.13999977111816" fill="rgb(0, 0, 0)" stroke="rgb(66, 66, 66)" stroke-width="1px" opacity="0.25"></line><line x1="0" y1="88.44999980926514" x2="278.4679985046387" y2="88.44999980926514" fill="rgb(0, 0, 0)" stroke="rgb(66, 66, 66)" stroke-width="1px" opacity="0.25"></line><line x1="0" y1="70.75999984741212" x2="278.4679985046387" y2="70.75999984741212" fill="rgb(0, 0, 0)" stroke="rgb(66, 66, 66)" stroke-width="1px" opacity="0.25"></line><line x1="0" y1="53.06999988555909" x2="278.4679985046387" y2="53.06999988555909" fill="rgb(0, 0, 0)" stroke="rgb(66, 66, 66)" stroke-width="1px" opacity="0.25"></line><line x1="0" y1="35.379999923706045" x2="278.4679985046387" y2="35.379999923706045" fill="rgb(0, 0, 0)" stroke="rgb(66, 66, 66)" stroke-width="1px" opacity="0.25"></line><line x1="0" y1="17.689999961853022" x2="278.4679985046387" y2="17.689999961853022" fill="rgb(0, 0, 0)" stroke="rgb(66, 66, 66)" stroke-width="1px" opacity="0.25"></line><line x1="0" y1="0" x2="278.4679985046387" y2="0" fill="rgb(0, 0, 0)" stroke="rgb(66, 66, 66)" stroke-width="1px" opacity="0.25"></line></g></g></g><g><g><line x1="0" y1="159.20999965667724" x2="278.4679985046387" y2="159.20999965667724" fill="rgb(0, 0, 0)" stroke="rgb(153, 153, 153)" stroke-width="1.5px"></line></g></g><g><g><line x1="30.94088872273763" y1="0" x2="30.94088872273763" y2="176.89999961853027" fill="rgb(0, 0, 0)" stroke="rgb(153, 153, 153)" stroke-width="1.5px"></line></g></g><g><g><g><g><g><path style="fill: none;" stroke="rgb(255, 112, 67)" stroke-width="2px" d="M42.79124910354614,-0.17836134098812054L42.82218999226888,5.6926017439114736L42.837660436630244,10.250515346895762L42.853130880991614,10.459412455073668L42.94595354715983,9.84636273633537L43.03877621332804,12.336125443502956L43.13159887949625,8.681835694238778L43.2089511013031,12.698954977059214L43.487419099807745,7.6113831180833875L44.30735265096029,16.504826579731485L45.003522647221885,16.23942823703106L45.62234042167663,19.94885099675095L45.86986753145853,28.68179338061624L46.287569529215496,31.757087334278697L46.364921751022344,32.947553395998185L46.90638730367025,32.80751098287014L47.10750308036804,36.347349617144666L47.2776779683431,33.494833603728566L47.44785285631816,37.07515403187502L47.49426418940226,33.07954257581514L48.0202592976888,36.208006302445845L48.09761151949564,39.40549122808186L48.46890218416849,44.663963011222L48.716429293950405,45.169433049710385L48.886604181925456,49.22711632508331L48.917545070648195,42.010721367270975L49.072249514261884,37.52680950277912L49.165072180430094,37.060803886245395L49.75294906616211,39.154569255103716L50.09329884211222,44.11270174419275L50.17065106391907,43.64667433893827L50.63476439476013,50.72318913602622L51.06793683687846,53.58995499662313L52.0889861647288,54.47196911989096L52.27463149706523,57.73122916267159L52.41386549631755,59.419772432568074L52.5840403842926,57.32510961336587L52.955331048965455,61.276572256072356L53.032683270772296,59.46796600976657L53.280210380554195,55.571367407816226L53.49679660161337,57.60837392019519L53.63603060086569,56.37064318632075L53.71338282267253,64.58424204662903L53.88355771064759,63.28132993460034L54.70349126180013,54.52879842859002L54.7653730392456,66.57788138586994L54.78084348360697,67.85415058530683L55.2140159257253,65.18891156305122L55.33777948061625,59.2781545725697L55.4615430355072,58.366143457316646L55.538895257314046,65.12178424556136L55.863774588902785,70.87004649195296L55.987538143793735,70.09716830812046L56.06489036560059,72.19597566353528L56.14224258740743,71.30034405054731L56.529003696441656,71.92516698454521L56.776530806223555,69.7009242454218L57.085939693450925,77.34636956463882L57.41081902503967,76.21054278962858L58.277163909276325,81.74924005532533L58.40092746416728,80.19297035763861L58.43186835289002,81.1882218405309L58.5401614634196,78.8427528788237L58.69486590703329,69.69264144037112L58.91145212809245,79.52125725300638L59.15897923787435,85.09262367122174L59.360095014572146,84.51306608920298L59.406506347656254,73.15224304750518L59.561210791269936,68.68136936513343L59.576681235631305,66.78169027731326L59.66950390179952,71.37374945044446L60.05626501083374,75.30546604614656L60.07173545519511,80.57162032591214L60.16455812136332,83.86727561625662L60.5203783416748,79.96949740115505L60.90713945070903,78.90421570799563L60.98449167251587,78.87915983469661L61.06184389432271,83.79921953127626L61.10825522740682,83.61863319411405L61.2165483379364,86.50804752915113L61.38672322591146,80.80347979184313L62.03648188908895,82.00935614387164L62.113834110895795,82.23526972776826L62.253068110148114,85.81844598346467L62.48512477556864,95.5497918603043L62.68624055226644,92.70825547202102L62.73265188535054,95.80578425125358L62.94923810640971,94.44025475755703L63.05753121693929,97.82727872707316L63.660878547032674,93.3766868483484L64.24875543276468,95.18100878971136L64.27969632148742,90.53562229158804L64.35704854329427,83.50018289760251L64.46534165382386,94.04211715112854L64.62004609743754,100.66989395930547L65.20792298316955,95.1009350037608L65.45545009295145,94.76685422538944L65.5328023147583,98.0151675612324L65.54827275911967,96.75722223530305L65.84221120198568,98.55311247443073L66.19803142229716,94.02996498935973L66.66214475313822,98.53535425374545L66.67761519749959,99.93332408228143L66.8168491967519,99.89780925887625L66.87873097419738,102.2359408199503L66.89420141855875,101.12549336125768L66.95608319600423,106.24942294789685L67.09531719525654,105.68191242160091L67.55943052609761,104.91840197160367L67.59037141482035,109.5709230862146L67.79148719151814,107.15258284568353L68.03901430130006,108.74512462375682L68.44124585469564,105.56330161602652L68.58047985394796,110.54476727528922L68.73518429756164,111.81768752232547L68.76612518628438,114.92338879269428L68.92082962989807,111.45675771704414L68.96724096298217,109.43837663621848L68.98271140734354,106.31355862417423L69.04459318478902,106.90159865880455L69.24570896148681,104.78082968259748L69.81811540285747,111.89967333248906L69.92640851338705,111.99694823564859L69.95734940210978,110.2180483957396L69.97281984647115,107.43191509950454L70.06564251263937,105.72136549294109L70.08111295700073,108.24691001943938L70.12752429008485,109.04082722151318L70.23581740061442,106.0679568623292L70.2976991780599,99.53949463629846L70.42146273295084,100.62215827195419L70.85463517506916,99.23096597618104L70.99386917432149,99.70745274432713L71.07122139612834,105.6131643273979L72.78844072024027,109.65012759209405L72.83485205332438,112.58740911120232L73.02049738566082,117.69456356843308L73.11332005182902,114.93675269392503L73.26802449544272,113.26754404400737L73.37631760597229,119.34906395902203L73.77854915936787,121.12637628743302L73.87137182553609,111.55889700819188L74.02607626914977,106.8757173302129L74.14983982404073,111.08666322227488L74.35095560073853,116.4041240925582L74.44377826690673,120.0861394625452L75.41841626167297,117.68033606021194L76.45493603388468,114.71861711412694L76.50134736696879,116.02675456306523L76.56322914441427,116.82980318534312L76.70246314366658,121.55014943941362L77.21298780759176,120.3081722641181L77.61521936098734,122.1346437903093L77.89368735949198,122.79518686321279L78.82191402117411,114.8220178519561L78.85285490989685,115.19004281043517L79.27055690765381,112.47441928477473L79.81202246030172,112.56562008632248L79.95125645955403,121.47635360967733L80.05954957008362,122.80151467962742L80.13690179189047,124.60886823164606L80.1678426806132,125.98361489592259L80.6164855670929,124.57416104994132L81.08059889793397,126.11141293154995L81.42094867388407,129.16122841139617L81.62206445058186,123.1831540168003L81.68394622802734,116.41037644929088L81.83865067164102,115.58495488166065L82.07070733706156,121.11500727171739L82.67405466715495,123.15252737123244L82.89064088821412,127.26121734219818L82.90611133257548,125.54481506182225L83.0917566649119,123.46068899738383L83.32381333033244,127.02939950555519L83.41663599650066,126.22009706926197L83.43210644086201,125.8752290623828L83.57134044011434,128.35711483204696L83.66416310628256,129.26905929863014L83.71057443936665,128.6355610030987L83.81886754989624,124.11096085979037L84.14374688148497,123.3818989506757L84.15921732584636,129.89775253117955L84.17468777020771,128.75971946331563L84.1901582145691,130.19802066599695L84.32939221382141,129.33273352329059L84.40674443562826,130.6263705446707L84.93273954391479,129.96378264951736L85.11838487625121,126.03225184692594L85.1338553206126,125.30863803408592L85.53608687400818,127.13055477874829L86.27866820335389,130.6134581925848L86.58807709058127,136.6986471774613L86.74278153419495,136.3685388362497L86.7582519785563,134.85273942884675L87.53177419662477,132.239663337273L87.54724464098612,131.16573189635153L87.65553775151571,127.62917572663405L87.67100819587708,128.8981582619982L88.28982597033182,132.33537082126972L88.5992348575592,132.95199109981837L89.4501092974345,133.43168898997752L89.58934329668682,135.02671493560962L90.31645418167113,137.03663856651426L90.34739507039387,135.72454261010614L90.53304040273031,137.36812144154186L90.91980151176453,136.74679364621343L90.93527195612589,135.99901302207107L91.05903551101684,135.47085085808422L91.29109217643737,136.8402476234386L91.9717917283376,134.1652386565L91.98726217269896,135.75950064919866L92.34308239301046,138.21861193398493L92.35855283737183,138.52110667674648L92.40496417045593,138.91814101278337L92.49778683662414,136.44067021401162L92.69890261332195,134.91823332808784L93.08566372235616,135.19148255872062L93.28677949905396,130.01776829025113L94.1531243832906,132.2661305531983L94.43159238179524,134.48509879104867L94.57082638104755,133.2398552275964L95.12776237805684,134.4973292176485L95.4990530427297,136.29743361980098L95.59187570889792,136.87599707088972L95.73110970815023,141.79944009383277L96.27257526079813,140.82729549736396L96.39633881568909,140.77209583551186L96.55104325930277,139.35559515149117L96.65933636983235,143.74704824540123L96.75215903600056,143.44121673894801L96.7830999247233,143.63375450113531L96.9842157014211,145.84426917358334L97.44832903226217,143.16112177842282L97.54115169843038,141.961064990223L97.89697191874187,141.15708331616577L98.45390791575115,140.96438101764974L98.48484880447388,140.34226678074558L98.68596458117166,134.94215649834442L99.52136857668557,133.648352028198L99.62966168721516,135.9025777471679L99.8617183526357,140.63574515978516L100.52694746017455,141.30396705368895L100.69712234814962,143.15587104261522L101.40876278877259,142.1135550208149L101.43970367749532,141.86571367047043L101.7491125647227,143.5522761750317L101.78005345344543,144.32411274139656L102.29057811737061,144.96112927739807L102.32151900609335,144.96454926756482L102.41434167226156,141.9622488816689L103.01768900235494,142.1396296779688L103.28068655649821,144.9905508713881L103.49727277755737,142.064172811306L103.57462499936422,143.90033156321408L103.60556588808694,143.48200838501953L103.82215210914612,144.90675435791206L103.83762255350749,145.458499815226L103.86856344223023,147.81821780057172L103.9304452196757,147.63923311975438L103.99232699712118,148.05264135188898L104.08514966328939,143.95098587635513L104.27079499562582,144.62990280154904L104.4254994392395,143.58811761433134L104.4719107723236,139.52680935731107L104.8277309926351,137.17988342695298L105.04431721369426,141.69351581983548L105.1216694355011,143.2093423986391L105.13713987986246,138.67873687144635L105.26090343475342,143.72660637224578L105.80236898740132,146.37837365154124L105.94160298665363,145.40954504758793L106.22007098515827,145.33549654134865L106.69965476036072,142.6125991053683L106.88530009269715,144.59864881346454L107.11735675811768,145.25822360101748L107.41129520098369,146.0526251041593L107.48864742279054,147.1554719220524L107.75164497693379,141.21822374344904L107.87540853182475,142.26133201019363L107.89087897618612,144.08281595569926L108.01464253107707,147.52823662188467L108.9428691927592,146.56430580059333L108.95833963712056,147.6832544330647L109.12851452509562,145.65574872517894L109.17492585817972,141.95553000428973L109.70092096646627,144.77409035024615L109.82468452135723,145.41024004886452L110.04127074241639,146.3048200189071L110.81479296048482,146.36077228663737L111.3717289574941,146.39760977580858L111.7739605108897,147.75410122822578L111.95960584322611,149.53436525347598L112.42371917406717,147.976610313693L112.59389406204224,148.70941044070986L112.64030539512635,146.0940186698703L112.70218717257181,147.96112872324738L113.08894828160604,150.77802706057497L113.63041383425394,146.97534765440616L114.2956429417928,148.0237065104821L114.46581782976787,149.1631286376022L114.49675871849061,151.01071135472372L114.51222916285197,149.9868299593216L114.62052227338155,148.1105068468476L114.9454016049703,148.82070909967163L114.96087204933167,144.19761168173665L115.42498538017273,144.38831822702429L115.59516026814778,147.57190424169465L115.95098048845927,144.5731726365952L117.00297070503235,148.43699565778354L117.15767514864604,149.57308590554098L117.28143870353699,150.46679547366006L117.869315589269,150.4854613096417L118.25607669830323,148.95693763950214L118.64283780733744,148.7179095107853L118.99865802764893,151.0459531995147L119.02959891637167,152.5646249019916L119.5555940246582,150.14005797217496L119.60200535774231,147.56589949699674L120.20535268783568,150.2949581441293L120.88605223973592,152.54332132486587L121.13357934951782,146.29688984783127L121.17999068260193,147.87244257122478L121.45845868110656,148.75544783515602L121.58222223599752,149.60462977700575L121.70598579088846,149.642925671037L121.75239712397259,150.9830167757825L122.04633556683858,149.63353204508036L122.10821734428406,149.7262104368909L122.17009912172954,150.70157006398804L122.1855695660909,149.11956109821563L122.20104001045227,152.06301408132967L122.8817395623525,152.3636468789969L123.28397111574809,149.74303791617635L123.71714355786641,150.95311712782086L124.05749333381652,151.5408265661166L124.13484555562337,148.65569312657894L124.47519533157349,150.49951220981046L124.66084066390991,152.84396329453057L124.70725199699403,153.02243465296718L124.72272244135539,152.27983817908992L124.7691337744395,152.72161453662454L124.80007466316223,152.10166748989457L125.0166608842214,151.82484887407816L125.0630722173055,150.32185841547906L125.10948355038961,148.1001973066179L125.18683577219645,150.3690655932509L125.24871754964192,152.40893151616007L125.54265599250793,152.88895655551846L125.5581264368693,151.0794692338031L125.71283088048298,152.75635473093476L126.42447132110595,151.9625252939595L126.5482348759969,152.44196162324366L126.57917576471964,153.78010213253813L126.82670287450154,153.56703151476853L126.93499598503112,151.69618321219647L127.3991093158722,152.40597233766394L127.46099109331766,153.58575465531285L127.4919319820404,152.66541848300702L127.6930477587382,152.94988554002634L127.75492953618368,152.80688247108137L128.26545420010885,154.43215408183514L128.5748630873362,154.66971185578618L128.62127442042032,152.86833319427058L128.76050841967265,149.34471178265818L129.50308974901836,150.97943365722082L129.54950108210247,153.08740503941553L129.59591241518658,154.255445681441L131.23577951749166,154.8809061752172L131.34407262802125,153.3941922868995L131.6070701821645,152.20375857430338L131.8081859588623,152.66060787180817L131.90100862503053,152.48353283519515L132.0557130686442,152.13796966799143L132.69000128746032,153.54744636989557L132.7054717318217,149.5761866464205L132.86017617543538,151.74814152639058L132.96846928596497,152.20881524964642L133.04582150777182,151.76016594207263L133.1541146183014,152.19181735943502L133.3397599506378,153.82827767404515L133.75746194839476,152.0379125510403L134.5309841664632,153.27649037776763L135.55203349431355,154.23309611875385L135.5829743830363,154.37015413826236L135.61391527175903,154.57264186413687L135.75314927101135,154.73184343817888L135.9387946033478,154.26696690761625L136.54214193344117,153.09795348204278L136.78966904322306,152.67683863898492L137.0681370417277,154.27663146011255L137.23831192970277,154.32547323446562L137.4703685951233,154.2063449040118L137.5167799282074,152.24172803250255L137.7178957049052,153.9510793022948L137.8107183710734,154.2859443686382L137.84165925979613,152.48415976896408L137.87260014851887,152.59860002342728L138.12012725830078,154.09234893560537L139.07929480870567,155.5553930509771L139.41964458465577,155.51967527168182L139.4351150290171,154.59638823703088L139.72905347188313,153.63981843715243L139.9920510260264,155.05440897786403L140.02299191474916,153.8074964672105L140.6418096892039,153.2180936046411L141.02857079823812,154.00562639940912L141.35345012982685,155.01678735623634L141.41533190727233,154.68537623582242L141.94132701555887,154.750789053971L141.95679745992024,153.21004031882393L142.15791323661804,154.37567040367293L142.25073590278626,152.92169801061743L142.5910856787364,152.73679414178312L142.88502412160236,154.63848880955064L142.90049456596375,155.03337069360725L142.91596501032512,155.2102138561532L142.96237634340923,154.46421111294015L143.0087876764933,154.57657505723543L143.03972856521608,155.62744901861575L143.10161034266153,155.1945921263747L143.163492120107,155.17508689859312L143.24084434191386,156.19251117059363L143.53478278477988,155.02694761018236L143.6121350065867,155.23975009696863L143.6585463396708,154.78120200656434L143.78230989456176,155.79022851454283L143.8132507832845,156.19327941427312L144.0607778930664,156.68706072871447L144.15360055923463,157.00929658885647L144.33924589157104,156.8656060316939L145.06635677655538,156.88110055948167L145.29841344197592,157.04771130169402L145.4531178855896,156.53696569694677L145.68517455101014,156.83823418361803L145.91723121643068,156.4480976022913L146.92281009991964,157.00660517510156L147.13939632097882,154.71266519931052L147.17033720970153,153.4936422321734L147.32504165331522,154.2790077454953L147.66539142926533,153.8534723251976L148.05215253829954,154.7459928063836L148.31515009244285,156.07428356628606L148.4234432029724,156.29593353005993L148.56267720222473,156.1957327281875L148.6709703127543,156.79070045671097L148.7173816458384,156.93667839347435L148.90302697817484,156.71970541803L149.1041427548726,155.66466740196967L149.35166986465455,155.4603711996853L149.49090386390688,156.31274634181287L150.419130525589,156.68726395668153L150.43460096995037,157.2744338143719L150.4500714143117,156.34522566094878L150.5583645248413,155.69257814947113L150.9605960782369,156.359377244062L151.4556502978007,155.9909447548419L151.73411829630533,155.55880158256582L151.8424114068349,156.11456320857053L152.02805673917135,156.60635993602915L152.12087940533956,156.32179463268983L152.38387695948285,157.12538747983518L152.50764051437378,156.25415129956139L152.7551676241557,156.6680866676243L153.01816517829894,156.49800553706945L153.08004695574442,156.40454056843484L153.1419287331899,155.24178387052433L153.2811627324422,155.26740186865095L153.48227850914003,156.08238031655947L153.49774895350137,156.76274632165948L155.21496827761334,155.28290069746768L155.29232049942016,156.26624203717913L155.3851431655884,156.73002851852428L155.4779658317566,156.92821277627849L155.80284516334532,156.24967510572193L155.84925649642943,154.78559552019362L155.9111382738749,155.56291297831876L156.09678360621135,156.04377159281114L156.28242893854775,151.65635139256148L156.375251604716,153.5315075543174L156.62277871449788,155.0474839562165L156.77748315811155,155.68017767759173L156.8238944911957,155.38502795117859L156.8703058242798,155.7636928290981L156.94765804608662,156.57579869123398L157.22612604459127,156.61584553467523L157.44271226565044,155.88291461222093L157.45818271001178,156.46998907960534L157.7057098197937,156.90618136117334L158.07700048446654,156.55721167283727L158.49470248222352,157.23821428784726L158.7886409250895,157.39087014817665L158.97428625742594,156.6590213748902L159.06710892359413,155.43695901812427L159.22181336720786,155.8029493086035L159.2836951446533,156.2460708414178L159.40745869954426,156.53847768133727L159.43839958826703,156.16685875241103L159.5466926987966,156.3406815226176L159.7478084754944,156.92328756163977L160.15004002888998,157.45707702999272L160.27380358378093,157.46466614136628L160.42850802739463,157.65711647362997L160.50586024920145,157.41101814654618L160.78432824770607,157.65159656095773L161.38767557779948,158.01526009167566L161.5887913544973,157.9879317213781L162.03743424097698,158.10204487653039L162.45513623873393,157.33756901531444L162.57889979362488,156.14870132547682L162.60984068234762,155.6143159681464L162.74907468159992,155.78074279713144L162.8264269034068,156.24710710296065L162.88830868085228,156.88649674586344L162.919249569575,156.99542482846215L163.08942445755005,157.13630752624718L163.18224712371824,157.39440083472948L163.213188012441,155.84231326576048L163.47618556658426,156.47407868060327L163.72371267636618,157.12141934677712L163.92482845306395,157.7129445498764L164.7447620042165,158.0032928994143L164.76023244857788,156.80354150865747L164.83758467038473,156.895957945401L164.99228911399842,157.1150651404682L165.02323000272114,156.56736367222996L165.25528666814168,156.17755011868948L165.4409320004781,156.68272479014723L165.45640244483945,156.53243156848688L165.92051577568054,157.1539477421103L165.9359862200419,157.677774178747L166.02880888621013,157.94029785456135L166.1835133298238,157.5416254615179L166.21445421854656,157.89745126024852L166.27633599599204,157.96677820647258L166.33821777343752,157.65768394527578L166.40009955088297,157.83992328009876L166.46198132832845,157.17451959872767L166.4929222170512,157.62322913978548L166.66309710502625,157.87463961787654L167.22003310203553,157.75553093399986L167.71508732159933,157.8072878456005L167.97808487574258,157.69957201910526L168.05543709754946,158.13490312393662L168.3184346516927,158.28278602169894L168.44219820658367,158.13173873755792L168.7206662050883,157.63127871817684L168.82895931561788,157.9979407544264L169.07648642539976,157.94077592843396L169.15383864720664,157.67630944605457L169.21572042465212,157.6592067810531L169.33948397954308,157.45869994320464L169.69530419985452,157.48915061617143L169.7571859773,157.2710450896751L170.05112442016602,157.6760697883688L170.23676975250243,157.94240638487847L170.37600375175475,158.25830769242324L170.4069446404775,158.1573249943002L170.62353086153664,158.06963460644187L171.05670330365498,158.08018352056334L171.87663685480754,158.17027152058895L172.01587085405984,157.05691280883954L172.17057529767357,157.58446258165318L173.20709506988524,152.05006058845154L173.531974401474,154.48228641503712L174.05796950976054,155.63573952639416L174.16626262029013,155.71367125781398L174.58396461804708,156.2241665627557L175.23372328122457,157.12781436088767L175.58954350153604,157.83328247361888L175.88348194440206,158.17431628638124L176.17742038726809,158.09613303155768L176.31665438652038,158.30152475963803L176.84264949480695,158.2274424446168L177.2448810482025,158.36192831217625L177.32223327000935,158.46672440114136L177.61617171287537,158.3834360544694L177.81728748957315,158.11492935553125L177.83275793393454,158.01501800876588L178.57533926328023,157.54491563823663L178.68363237380984,157.7527195102729L178.69910281817118,158.057875679541L179.10133437156676,157.77596445351574L179.92126792271932,157.68868687360785L180.19973592122395,157.32790061807626L180.6793196964264,157.74961958298556L180.80308325131733,157.9042082283788L180.84949458440147,158.17276550764285L180.8649650287628,158.3273136325397L181.00419902801514,158.44522678781902L181.03513991673788,158.33434014463512L181.1279625829061,158.38908679921033L181.2207852490743,158.46898323850925L182.10260057767232,158.201807180649L182.59765479723612,157.99464204896358L182.84518190701803,158.030923124025L183.03082723935444,158.34950457359759L183.27835434913635,158.37310914743776L183.41758834838865,158.36583961029396L183.52588145891824,158.20769991897893L183.63417456944785,158.2348505430137L183.91264256795245,158.43687835905058L184.0828174559275,158.30792579872394L184.11375834465028,158.02600284084988L184.31487412134805,157.81393051763405L185.21215989430746,157.33812912579893L185.6298618920644,157.39156985979125L185.76909589131674,157.80722894962796L186.21773877779643,158.23048501411702L186.6354407755534,158.3380567103771L186.86749744097392,158.13807030975826L187.30066988309227,158.3034193348605L187.85760588010154,158.30029905348724L188.1515443229675,158.43374178000136L188.63112809816997,158.29486883300794L189.1416527620951,158.49159534191796L189.23447542826335,158.56096323284254L189.28088676134746,158.567223402288L189.4974729824066,158.6008875239103L189.512943426768,158.67966036809528L190.47211097717286,158.72654617543714L190.85887208620707,158.63240028583837L190.96716519673666,158.64749765182708L191.4776898606618,158.58154308635258L191.8489805253347,158.6044046883639L193.2722614065806,158.67148641080814L193.48884762763976,158.53941342316193L193.59714073816934,158.57745333698634L193.8291974035899,158.679690096389L194.1076654020945,158.6927690295761L194.44801517804464,158.6534599717434L194.50989695549012,158.6109255929928L194.83477628707885,158.30476084708494L195.1132442855835,158.52098729164658L195.12871472994487,158.47203083699156L195.15965561866759,158.42443682568802L195.36077139536542,158.42524858290506L195.53094628334046,158.35047971698742L195.88676650365193,158.00508058680563L196.1033527247111,158.19725353764483L196.31993894577025,158.09882833522056L196.42823205629983,156.7102159656565L196.5519956111908,157.4196869378083L196.69122961044312,157.75100270001383L197.2945769405365,157.03929809496947L197.4028700510661,157.54646907077307L197.41834049542746,158.09743184249092L197.4802222728729,158.39389060911083L197.57304493904115,158.56420788570063L197.6813380495707,158.58290952807968L197.95980604807536,158.44801849905164L198.30015582402547,158.56361844236827L198.45486026763916,158.6749522089269L198.59409426689146,158.63831606771797L198.60956471125283,158.3638707452313L198.74879871050518,158.41163687037306L198.99632582028707,158.50459338980187L199.05820759773255,158.67012001728693L199.2747938187917,158.42379321803406L199.38308692932128,158.56198583110293L199.39855737368265,158.6130768903459L199.6770253721873,158.60737222726402L199.7698480383555,158.5466707124974L199.89361159324645,158.443685564279L200.34225447972617,158.1165282802415L200.46601803461712,158.45304474546205L201.06936536471048,158.58876828440503L201.1157766977946,158.6334382171763L201.30142203013102,158.55947606267648L201.48706736246743,158.51725819380005L201.81194669405622,158.5462099888366L202.41529402414957,158.71981537948648L202.64735068957012,158.55329483760465L202.67829157829286,158.6339913225109L202.69376202265423,158.4489754981377L202.91034824371337,158.60487078809447L203.45181379636128,158.24498294473577L203.48275468508405,158.47699571810128L203.62198868433634,158.61482674943312L203.6374591286977,158.58237409284575L203.7457522392273,158.477389315484L203.91592712720237,158.41439844906694L203.99327934900919,158.4883271192834L204.53474490165712,158.58961213195948L204.5966266791026,158.5069973976868L204.8286833445231,158.3311022634503L204.87509467760722,158.43100736691363L204.8905651219686,158.30936987823574L205.07621045430503,158.52893532751338L205.5867351182302,158.55000412612722L205.78785089492797,158.66035933330744L206.37572778066001,158.68656913128584L206.53043222427368,158.76459438737993L206.74701844533286,158.58653254261995L206.99454555511474,158.5486350413282L207.19566133181254,158.28925068229879L207.27301355361936,158.47829110190452L207.30395444234213,158.41615419681995L207.52054066340128,158.451266737451L207.75259732882182,158.37729262079924L207.89183132807412,158.4659826439294L208.15482888221743,158.53282802069313L208.21671065966288,158.606163380835L208.29406288146973,158.6941088717277L208.43329688072205,158.58491937950322L208.47970821380616,158.6047839035889L208.4951786581675,158.30202058136535L208.61894221305846,158.20285257808774L208.86646932284037,158.20198013292833L209.14493732134503,158.23371305919574L209.2068190987905,158.42693733911673L209.62452109654745,157.9769948941294L209.77922554016112,158.29984525227468L209.90298909505208,158.56816356026266L209.9494004281362,158.663643024811L210.2433388710022,158.6197616974105L210.35163198153177,158.68045768105597L210.7848044236501,158.66502210668222L210.89309753417967,158.68188979032195L211.15609508832299,158.57156853675184L211.326269976298,158.59976959849314L211.51191530863443,158.3834454698055L211.55832664171854,158.49215935389503L211.91414686203004,158.47570747822604L211.9296173063914,157.80543056201245L212.0688513056437,158.21107787184602L212.14620352745058,158.33316062446283L212.2235557492574,158.519780026765L212.30090797106425,158.74182829754758L212.39373063723247,158.65312247656018L212.4246715259552,158.5680204897738L212.44014197031655,158.5587981342817L212.78049174626668,158.65753789886213L212.93519618988037,158.57671612986067L213.73965929667153,158.48287516816697L214.4048884042104,158.35827881273354L214.54412240346275,158.55061473363875L214.6524155139923,157.95157091418736L214.93088351249696,157.9672635334508L215.07011751174926,158.00539944186096L215.20935151100159,158.40145641640018L215.27123328844706,158.5497984260233L215.3331150658925,158.54397793314914L215.36405595461528,158.60704987678304L215.54970128695172,158.68109038480426L215.58064217567443,158.6609209244975L215.82816928545634,158.64585004055618L216.06022595087686,158.6989179379139L216.09116683959962,158.78622887579388L216.77186639149986,158.81013803684985L216.81827772458396,158.77630138942231L216.95751172383626,158.69971941756666L217.29786149978636,158.5759769912128L217.60727038701376,158.6548076916866L217.90120882987975,158.44354210190835L217.994031496048,158.527137621245L218.6747310479482,158.6098482469858L218.8294354915619,158.56081594649552L219.71125082015993,158.71292313136172L219.83501437505086,158.36010193298515L220.0206597073873,158.5638283719989L220.12895281791685,158.62765182098235L220.3145981502533,158.682330518633L220.42289126078288,158.61251112001304L220.5002434825897,158.52389494786078L220.54665481567383,158.42186828056344L220.88700459162396,158.2471745582618L221.44394058863324,158.46870125020246L221.7842903645833,158.60774463046593L221.83070169766745,158.6413149610997L221.8461721420288,158.72472827750758L221.95446525255838,158.5669047315457L222.15558102925618,158.53391613972417L222.32575591723125,158.5661920915746L222.44951947212218,158.6668329768407L222.55781258265176,158.74708420717624L222.66610569318138,158.8219038295974L222.86722146987915,158.87203220582202L223.11474857966104,158.34454600033726L223.17663035710652,158.49335612540824L223.2849234676361,158.65935573177956L223.34680524508158,158.43374626778797L223.36227568944295,158.63314526762625L223.5943323548635,158.50450491342593L223.6252732435862,158.44065514301565L223.95015257517494,158.5419790237545L224.80102701505024,158.68018869626917L224.95573145866393,158.7892975136375L225.20325856844585,158.7188000815734L225.4353152338664,158.70835312373106L225.6209605662028,158.56493454343766L225.9148990090688,158.72648832942002L225.97678078651427,158.3517754451662L226.16242611885073,158.50894978898543L226.2088374519348,158.5417648019037L226.37901233990988,158.634820234057L226.44089411735536,158.44501903342947L226.68842122713724,158.61502156744567L227.15253455797833,158.6788282789778L227.1680050023397,158.7778191081343L227.4000616677602,158.77826133524752L228.17358388582866,158.00434623800425L228.31281788508096,158.36813621595843L228.76146077156068,158.60365860052087L228.77693121592205,158.57119239906473L229.02445832570393,158.5254216931403L229.2410445467631,158.6936570535875L229.2874558798472,158.462262943424L229.36480810165406,158.22622541247202L229.70515787760417,158.49653998102525L229.72062832196553,158.658620750966L229.9372145430247,158.71818726721094L230.24662343025207,158.74269817307584L230.40132787386574,158.6424963763885L231.23673186937967,158.75755855605496L231.54614075660706,158.74559047767696L231.63896342277528,158.48559508651763L231.68537475585936,158.46704517818577L231.9174314212799,158.33987319547302L232.08760630925497,158.49152418321026L232.28872208595274,158.68921730552972L232.3660743077596,158.67133060048042L232.59813097318013,158.76287428828985L232.7218945280711,158.78149518794348L233.04677385965982,158.80068458868027L233.07771474838256,158.8394879476914L233.2943009694417,158.1949141600949L233.7584143002828,158.38586974591038L233.89764829953512,158.31543446132403L234.4545842965444,158.41807062912693L234.67117051760357,158.48556375252542L234.76399318377176,158.53118825814528L235.42922229131062,158.66367291612448L235.5375154018402,158.60034481778737L236.24915584246315,158.73804407962206L236.31103761990863,158.68507881340685L236.43480117479962,158.307629885136L236.6359169514974,158.58068924413735L237.10003028233845,158.63428627335009L237.59508450190225,158.3980281096206L237.64149583498636,158.54263980317262L237.7343185011546,158.6599896592037L238.44595894177755,158.63325249356404L238.63160427411395,158.64787401247352L238.89460182825727,158.5932678346004L239.219481159846,158.692768837064L239.45153782526654,158.7131949177528L239.68359449068706,158.58368439215536L239.7609467124939,158.38648096096574L239.86923982302346,158.63207580210198L240.03941471099853,158.6978064862566L240.36429404258726,158.70037273496368L240.78199604034424,158.74715241328957L240.87481870651246,158.77754160089535L240.9985822614034,158.74389495609998L241.1996980381012,158.76222569167388L241.30799114863078,158.8052915767967L241.50910692532858,158.65988879866939L241.8494567012787,158.76035504764795L242.03510203361512,158.85173050009305L242.25168825467426,158.49899151767826L242.8395651404063,158.5167329238773L243.2417966938019,158.56902765459188L243.44291247049966,158.4814742259431L243.7832622464498,158.2709533232693L243.89155535697938,158.41589140669046L243.9689075787862,158.4373697292965L244.80431157430013,158.32608985301067L245.0208977953593,158.58212879604991L245.40765890439351,158.43553826481576L245.5159520149231,158.5671433633264L245.59330423672992,158.64529663849902L245.6706564585368,158.65115955095666L245.71706779162088,158.69298007850003L245.74800868034362,158.77802339892511L245.84083134651183,158.72437132133751L246.13476978937783,158.5498470520206L246.1502402337392,158.53307502564118L246.1657106781006,158.67311875834238L246.1966515668233,158.7295853514161L246.27400378863018,158.70224564186498L246.92376245180765,158.7277886239052L247.0165851179759,158.846874727847L247.72822555859884,158.6874569906855L247.80557778040566,158.41154844472456L248.0376344458262,158.3935999354821L248.0840457789103,158.61178374081982L248.17686844507853,158.64584386553992L248.25422066688537,158.5691598539115L248.37798422177633,158.6333880331225L248.51721822102866,158.69427497722197L248.57909999847413,158.67682154809498L248.61004088719687,158.65660509061536L248.82662710825602,158.74289095688218L249.05868377367656,158.8346118173764L249.44544488271077,158.76210336409937L249.538267548879,158.3774903064185L249.80126510302227,158.43133453174312L249.8786173248291,158.58243637002644L249.89408776919046,158.6802505644117L249.90955821355186,158.8353843475585L250.00238087972005,158.80745590493893L250.24990798950193,158.80492404380433L250.29631932258607,158.82688866120378L250.420082877477,158.69630379059603L250.45102376619974,158.5871270931514L250.54384643236796,158.62238518884718L251.2554868729909,158.4854162367912L251.64224798202514,158.5307758351312L251.88977509180705,157.8252720980346L251.9671273136139,158.19326372308882L252.1218317572276,158.37181496957476L252.24559531211855,158.39197492297612L252.27653620084126,158.36055850497405L252.55500419934592,158.33482549073554L252.74064953168235,158.58804499862964L252.92629486401876,158.5094042246153L253.9628146362305,158.57518461897186L254.0401668580373,158.414906151915L254.13298952420553,158.56874636484292L254.25675307909646,158.62911801281012L254.6435141881307,157.48832005381124L255.46344773928325,158.02086555252086L255.91209062576294,158.29863499356034L255.98944284756976,158.44127306814792L256.14414729118346,158.3407135793175L256.1750881799062,158.53257159580258L256.3297926235199,158.4380333452326L256.36073351224263,158.41254106193756L256.6856128438314,158.34965738945087L256.70108328819276,158.54379531900375L256.9950217310587,158.62386479251225L257.2116079521179,158.5026076488574L257.3508419513702,158.58157987906094L257.55195772806803,158.7033553679016L257.6138395055135,158.62582784231682L258.00060061454775,158.65378445607783L258.0315415032705,158.5252831866106L258.1088937250773,158.64690340228495L258.48018438975015,158.62245852445332L259.08353171984356,158.72391461386138L259.1299430529277,158.77960565032987L259.42388149579364,158.72604947772078L259.56311549504596,158.55900577078415L259.6868790499369,158.59568701703006L259.73329038302103,158.74186263462707L260.12005149205527,158.6103325015076L260.50681260108945,158.57330724381123L261.3731574853261,158.49124905648551L261.54333237330115,158.61412022282056L261.5897437063853,158.69348441736037L261.7135072612762,158.72129022050393L261.8063299274445,158.62643946190795L262.16215014775594,158.66265415913742L262.3787363688151,158.6372265597301L262.99755414326984,158.0196527101248" fill="none"></path></g></g></g></g><g opacity="0.2"><g><g><g><path style="fill: none;" stroke="rgb(255, 112, 67)" stroke-width="2px" d="M41.78567022005717,-7.633698179949723L42.17243132909139,9.144282626460344L42.79124910354614,-0.07902141554003057L42.82218999226888,14.499046370711577L42.837660436630244,17.087385751116376L42.853130880991614,10.77275811733343L42.94595354715983,8.926788158240376L43.03877621332804,16.07076950422415L43.13159887949625,3.2004010703691206L43.2089511013031,18.724633901272323L43.487419099807745,-0.01997467036706687L44.30735265096029,29.844991772189683L45.003522647221885,15.841330722980635L45.62234042167663,25.51298513632865L45.86986753145853,41.78120695641119L46.287569529215496,36.370028264771825L46.364921751022344,34.73325248857727L46.90638730367025,32.59744736317807L47.10750308036804,41.65710756855625L47.2776779683431,29.216059583604515L47.44785285631816,42.44563467409463L47.49426418940226,27.086125391725357L48.0202592976888,40.90070189239194L48.09761151949564,44.2017186165358L48.46890218416849,52.55167068593219L48.716429293950405,45.92763810744291L48.886604181925456,55.313641238142736L48.917545070648195,31.186128930552513L49.072249514261884,30.800941706041346L49.165072180430094,36.36179546144486L49.75294906616211,42.29521730839114L50.09329884211222,51.549900477826306L50.17065106391907,42.947633231056535L50.63476439476013,61.33796133165814L51.06793683687846,57.890103787518456L52.0889861647288,55.79499030479273L52.27463149706523,62.6201192268425L52.41386549631755,61.952587337412844L52.5840403842926,54.18311538456256L52.955331048965455,67.2037662201321L53.032683270772296,56.755056640307885L53.280210380554195,49.7264695048907L53.49679660161337,60.6638836887636L53.63603060086569,54.514047085509084L53.71338282267253,76.90464033709141L53.88355771064759,61.32696176655736L54.70349126180013,41.400001169574544L54.7653730392456,84.65150582178977L54.78084348360697,69.76855438446218L55.2140159257253,61.19105302966782L55.33777948061625,50.41201908684743L55.4615430355072,56.998126784437055L55.538895257314046,75.25524542792846L55.863774588902785,79.49243986154033L55.987538143793735,68.93785103237168L56.06489036560059,75.34418669665756L56.14224258740743,69.95689663106532L56.529003696441656,72.86240138554204L56.776530806223555,66.3645601367367L57.085939693450925,88.8145375434644L57.41081902503967,74.5068026271132L58.277163909276325,90.05728595387045L58.40092746416728,77.85856581110856L58.43186835289002,82.68109906486934L58.5401614634196,75.3245494362629L58.69486590703329,55.96747428269227L58.91145212809245,94.26418097195928L59.15897923787435,93.4496732985448L59.360095014572146,83.64372971617486L59.406506347656254,56.11100848495844L59.561210791269936,61.97505884157581L59.576681235631305,63.932171645583004L59.66950390179952,78.26183821014128L60.05626501083374,81.2030409396997L60.07173545519511,88.4708517455605L60.16455812136332,88.81075855177333L60.5203783416748,74.12283007850273L60.90713945070903,77.30629316825652L60.98449167251587,78.84157602474806L61.06184389432271,91.17930907614573L61.10825522740682,83.34775368837073L61.2165483379364,90.84216903170672L61.38672322591146,72.24662818588114L62.03648188908895,83.81817067191442L62.113834110895795,82.57414010361317L62.253068110148114,91.19321036700931L62.48512477556864,110.14681067556376L62.68624055226644,88.44595088959613L62.73265188535054,100.45207742010244L62.94923810640971,92.3919605170122L63.05753121693929,102.90781468134738L63.660878547032674,86.70079903026125L64.24875543276468,97.88749170175579L64.27969632148742,83.56754254440311L64.35704854329427,72.9470238066242L64.46534165382386,109.8550185314176L64.62004609743754,110.61155917157085L65.20792298316955,86.74749657044377L65.45545009295145,94.2657330578324L65.5328023147583,102.88763756499684L65.54827275911967,94.87030424640908L65.84221120198568,101.24694783312225L66.19803142229716,87.24524376175323L66.66214475313822,105.29343815032406L66.67761519749959,102.0302788250854L66.8168491967519,99.8445370237685L66.87873097419738,105.74313816156136L66.89420141855875,99.45982217321871L66.95608319600423,113.9353173278556L67.09531719525654,104.83064663215701L67.55943052609761,103.77313629660784L67.59037141482035,116.54970475813097L67.79148719151814,103.5250724848869L68.03901430130006,111.13393729086674L68.44124585469564,100.7905671044311L68.58047985394796,118.01696576418327L68.73518429756164,113.72706789287986L68.76612518628438,119.5819406982475L68.92082962989807,106.25681110356891L68.96724096298217,106.41080501498L68.98271140734354,101.62633160610785L69.04459318478902,107.78365871075003L69.24570896148681,101.59967621828692L69.81811540285747,122.57793880732642L69.92640851338705,112.14286059038785L69.95734940210978,107.54969863587611L69.97281984647115,103.25271515515196L70.06564251263937,103.15554108309588L70.08111295700073,112.03522680918685L70.12752429008485,110.23170302462385L70.23581740061442,101.6086513235532L70.2976991780599,89.74680129725239L70.42146273295084,102.24615372543776L70.85463517506916,97.14417753252128L70.99386917432149,100.42218289654629L71.07122139612834,114.47173170200404L72.78844072024027,115.70557248913828L72.83485205332438,116.99333138986476L73.02049738566082,125.3552952542792L73.11332005182902,110.80003638216294L73.26802449544272,110.76373106913088L73.37631760597229,128.4713438315441L73.77854915936787,123.79234478004946L73.87137182553609,97.20767808933014L74.02607626914977,99.85094781324442L74.14983982404073,117.40308206036788L74.35095560073853,124.38031539798321L74.44377826690673,125.60916251752569L75.41841626167297,114.07163095671204L76.45493603388468,110.27603869499944L76.50134736696879,117.98896073647266L76.56322914441427,118.03437611875997L76.70246314366658,128.63066882051933L77.21298780759176,118.44520650117484L77.61521936098734,124.87435107959608L77.89368735949198,123.78600147256803L78.82191402117411,102.86226433507109L78.85285490989685,115.7420802481538L79.27055690765381,108.40098399628404L79.81202246030172,112.70242128864412L79.95125645955403,134.84245389470962L80.05954957008362,124.78925628455254L80.13690179189047,127.31989855967403L80.1678426806132,128.04573489233735L80.6164855670929,122.45998028096948L81.08059889793397,128.41729075396287L81.42094867388407,133.73595163116553L81.62206445058186,114.21604242490649L81.68394622802734,106.25121009802679L81.83865067164102,114.34682253021528L82.07070733706156,129.41008585680245L82.67405466715495,126.20880752050506L82.89064088821412,133.42425229864673L82.90611133257548,122.97021164125836L83.0917566649119,120.33449990072621L83.32381333033244,132.38246526781222L83.41663599650066,125.00614341482215L83.43210644086201,125.35792705206404L83.57134044011434,132.07994348654321L83.66416310628256,130.63697599850494L83.71057443936665,127.68531355980157L83.81886754989624,117.32406064482784L84.14374688148497,122.28830608700373L84.15921732584636,139.67153290193528L84.17468777020771,127.05266986151982L84.1901582145691,132.35547247001887L84.32939221382141,128.03480280923102L84.40674443562826,132.56682607674085L84.93273954391479,128.96990080678734L85.11838487625121,120.13495564303885L85.1338553206126,124.22321731482589L85.53608687400818,129.86342989574186L86.27866820335389,135.83781331333958L86.58807709058127,145.82643065477603L86.74278153419495,135.87337632443231L86.7582519785563,132.5790403177423L87.53177419662477,128.32004919991232L87.54724464098612,129.55483473496932L87.65553775151571,122.32434147205787L87.67100819587708,130.8016320650444L88.28982597033182,137.49118966017704L88.5992348575592,133.8769215176413L89.4501092974345,134.15123582521628L89.58934329668682,137.41925385405776L90.31645418167113,140.05152401287123L90.34739507039387,133.75639867549398L90.53304040273031,139.8334896886954L90.91980151176453,135.81480195322072L90.93527195612589,134.87734208585752L91.05903551101684,134.67860761210395L91.29109217643737,138.8943427714701L91.9717917283376,130.15272520609213L91.98726217269896,138.15089363824663L92.34308239301046,141.90727886116437L92.35855283737183,138.97484879088879L92.40496417045593,139.51369251683863L92.49778683662414,132.724464015854L92.69890261332195,132.63457799920215L93.08566372235616,135.6013564046698L93.28677949905396,122.2571968875469L94.1531243832906,135.63867394761908L94.43159238179524,137.8135511478242L94.57082638104755,131.37198988241798L95.12776237805684,136.38354020272672L95.4990530427297,138.99759022302968L95.59187570889792,137.74384224752285L95.73110970815023,149.18460462824734L96.27257526079813,139.36907860266072L96.39633881568909,140.68929634273374L96.55104325930277,137.23084412546015L96.65933636983235,150.3342278862663L96.75215903600056,142.9824694792682L96.7830999247233,143.92256114441625L96.9842157014211,149.16004118225536L97.44832903226217,139.13640068568202L97.54115169843038,140.16097980792327L97.89697191874187,139.95111080507994L98.45390791575115,140.67532756987566L98.48484880447388,139.40909542538938L98.68596458117166,126.8419910747427L99.52136857668557,131.70764532297835L99.62966168721516,139.2839163256227L99.8617183526357,147.73549627871105L100.52694746017455,142.30629989454465L100.69712234814962,145.93372702600462L101.40876278877259,140.5500809881145L101.43970367749532,141.49395164495363L101.7491125647227,146.08211993187362L101.78005345344543,145.4818675909439L102.29057811737061,145.91665408140034L102.32151900609335,144.96967925281498L102.41434167226156,137.45879830282502L103.01768900235494,142.4057008724187L103.28068655649821,149.26693266151707L103.49727277755737,137.67460572118287L103.57462499936422,146.65456969107618L103.60556588808694,142.85452361772766L103.82215210914612,147.04387331725084L103.83762255350749,146.28611800119688L103.86856344223023,151.35779477859032L103.9304452196757,147.37075609852835L103.99232699712118,148.67275370009085L104.08514966328939,137.7985026630544L104.27079499562582,145.6482781893399L104.4254994392395,142.0254398335048L104.4719107723236,133.43484697178064L104.8277309926351,133.65949453141585L105.04431721369426,148.46396440915922L105.1216694355011,145.48308226684458L105.13713987986246,131.88282858065722L105.26090343475342,151.29841062344494L105.80236898740132,150.35602457048444L105.94160298665363,143.95630214165794L106.22007098515827,145.22442378198977L106.69965476036072,138.52825295139772L106.88530009269715,147.5777233756089L107.11735675811768,146.24758578234687L107.41129520098369,147.244227358872L107.48864742279054,148.80974214889213L107.75164497693379,132.31235147554398L107.87540853182475,143.82599441031053L107.89087897618612,146.81504187395765L108.01464253107707,152.6963676211628L108.9428691927592,145.11840956865635L108.95833963712056,149.36167738177173L109.12851452509562,142.61449016335027L109.17492585817972,136.4052019229559L109.70092096646627,149.0019308691808L109.82468452135723,146.3644645967921L110.04127074241639,147.64668997397095L110.81479296048482,146.44470068823284L111.3717289574941,146.45286600956533L111.7739605108897,149.78883840685157L111.95960584322611,152.20476129135133L112.42371917406717,145.63997790401845L112.59389406204224,149.8086106312352L112.64030539512635,142.17093101361095L112.70218717257181,150.76179380331305L113.08894828160604,155.00337456656635L113.63041383425394,141.27132854515295L114.2956429417928,149.596244794596L114.46581782976787,150.87226182828235L114.49675871849061,153.782085430406L114.51222916285197,148.45100786621842L114.62052227338155,145.2960221781366L114.9454016049703,149.88601247890765L114.96087204933167,137.2629655548342L115.42498538017273,144.67437804495566L115.59516026814778,152.34728326370023L115.95098048845927,140.07507522894593L117.00297070503235,154.23273018956607L117.15767514864604,151.27722127717718L117.28143870353699,151.80735982583863L117.869315589269,150.5134600636142L118.25607669830323,146.66415213429283L118.64283780733744,148.35936731770997L118.99865802764893,154.5380187326089L119.02959891637167,154.84263245570693L119.5555940246582,146.50320757744996L119.60200535774231,143.7046617842294L120.20535268783568,154.3885461148282L120.88605223973592,155.9158660959707L121.13357934951782,136.92724263227936L121.17999068260193,150.23577165631505L121.45845868110656,150.0799557310529L121.58222223599752,150.87840268978036L121.70598579088846,149.70036951208385L121.75239712397259,152.99315343290073L122.04633556683858,147.60930494902712L122.10821734428406,149.86522802460675L122.17009912172954,152.16460950463372L122.1855695660909,146.74654764955702L122.20104001045227,156.47819355600078L122.8817395623525,152.8145960754977L123.28397111574809,145.81212447194557L123.71714355786641,152.7682359452876L124.05749333381652,152.42239072356026L124.13484555562337,144.32799296727242L124.47519533157349,153.26524083465776L124.66084066390991,156.36063992161073L124.70725199699403,153.2901416906221L124.72272244135539,151.16594346827404L124.7691337744395,153.38427907292643L124.80007466316223,151.17174691979963L125.0166608842214,151.40962095035357L125.0630722173055,148.06737272758036L125.10948355038961,144.7677056433262L125.18683577219645,153.7723680232004L125.24871754964192,155.46873040052378L125.54265599250793,153.6089941145561L125.5581264368693,148.36523825123004L125.71283088048298,155.2716829766323L126.42447132110595,150.7717811384966L126.5482348759969,153.16111611716988L126.57917576471964,155.78731289647985L126.82670287450154,153.2474255881141L126.93499598503112,148.88991075833837L127.3991093158722,153.47065602586517L127.46099109331766,155.35542813178617L127.4919319820404,151.28491422454826L127.6930477587382,153.37658612555535L127.75492953618368,152.59237786766388L128.26545420010885,156.8700614979658L128.5748630873362,155.02604851671276L128.62127442042032,150.16626520199716L128.76050841967265,144.0592796652396L129.50308974901836,153.4315164690648L129.54950108210247,156.2493621127076L129.59591241518658,156.00750664447915L131.23577951749166,155.81909691588154L131.34407262802125,151.164121454423L131.6070701821645,150.41810800540915L131.8081859588623,153.3458818180654L131.90100862503053,152.2179202802756L132.0557130686442,151.61962491718586L132.69000128746032,155.6616614227518L132.7054717318217,143.6192970612079L132.86017617543538,155.00607384634569L132.96846928596497,152.89982583453022L133.04582150777182,151.08719198071194L133.1541146183014,152.8392944854786L133.3397599506378,156.28296814596033L133.75746194839476,149.352364866533L134.5309841664632,155.1343571178586L135.55203349431355,155.6680047302332L135.5829743830363,154.57574116752514L135.61391527175903,154.87637345294863L135.75314927101135,154.9706457992419L135.9387946033478,153.56965211177229L136.54214193344117,151.3444333436826L136.78966904322306,152.04516637439812L137.0681370417277,156.676320691804L137.23831192970277,154.3987358959952L137.4703685951233,154.02765240833105L137.5167799282074,149.2948027252387L137.7178957049052,156.51510620698318L137.8107183710734,154.7882419681533L137.84165925979613,149.7814828694529L137.87260014851887,152.77026040512212L138.12012725830078,156.33297230387254L139.07929480870567,157.74995922403468L139.41964458465577,155.46609860273892L139.4351150290171,153.21145768505448L139.72905347188313,152.20496373733477L139.9920510260264,157.17629478893141L140.02299191474916,151.9371277012302L140.6418096892039,152.33398931078702L141.02857079823812,155.18692559156116L141.35345012982685,156.53352879147715L141.41533190727233,154.1882595552015L141.94132701555887,154.84890828119387L141.95679745992024,150.89891721610329L142.15791323661804,156.12411553094645L142.25073590278626,150.74073942103425L142.5910856787364,152.4594383385316L142.88502412160236,157.4910308112019L142.90049456596375,155.62569351969213L142.91596501032512,155.47547859997212L142.96237634340923,153.34520699812057L143.0087876764933,154.74512097367844L143.03972856521608,157.20375996068614L143.10161034266153,154.5453067880131L143.163492120107,155.14582905692077L143.24084434191386,157.71864757859439L143.53478278477988,153.27860226956545L143.6121350065867,155.5589538271481L143.6585463396708,154.09337987095788L143.78230989456176,157.3037682765105L143.8132507832845,156.79785576386857L144.0607778930664,157.4277327003765L144.15360055923463,157.49265037906954L144.33924589157104,156.65007019594995L145.06635677655538,156.90434235116336L145.29841344197592,157.29762741501256L145.4531178855896,155.77084728982592L145.68517455101014,157.29013691362488L145.91723121643068,155.86289273030124L146.92281009991964,157.84436653431695L147.13939632097882,151.271755235624L147.17033720970153,151.66510778146767L147.32504165331522,155.45705601547817L147.66539142926533,153.21516919475107L148.05215253829954,156.08477352816263L148.31515009244285,158.0667197061397L148.4234432029724,156.6284084757208L148.56267720222473,156.0454315253788L148.6709703127543,157.68315204949613L148.7173816458384,157.15564529861948L148.90302697817484,156.39424595486344L149.1041427548726,154.08211037787916L149.35166986465455,155.15392689625878L149.49090386390688,157.59130905500425L150.419130525589,157.24904037898452L150.43460096995037,158.15518860090742L150.4500714143117,154.95141343081414L150.5583645248413,154.71360688225468L150.9605960782369,157.3595758859483L151.4556502978007,155.43829602101178L151.73411829630533,154.9105868241517L151.8424114068349,156.94820564757757L152.02805673917135,157.3440550272171L152.12087940533956,155.89494667768085L152.38387695948285,158.3307767505532L152.50764051437378,154.94729702915063L152.7551676241557,157.28898971971867L153.01816517829894,156.24288384123722L153.08004695574442,156.26434311548292L153.1419287331899,153.49764882365852L153.2811627324422,155.30582886584088L153.48227850914003,157.30484798842227L153.49774895350137,157.78329532930948L155.21496827761334,153.06313226118002L155.29232049942016,157.74125404674632L155.3851431655884,157.425708240542L155.4779658317566,157.22548916290978L155.80284516334532,155.2318685998871L155.84925649642943,152.5894761419011L155.9111382738749,156.72888916550656L156.09678360621135,156.76505951454965L156.28242893854775,145.07522109218698L156.375251604716,156.34424179695125L156.62277871449788,157.32144855906517L156.77748315811155,156.6292182596546L156.8238944911957,154.94230336155888L156.8703058242798,156.33169014597732L156.94765804608662,157.79395748443787L157.22612604459127,156.6759157998371L157.44271226565044,154.78351822853946L157.45818271001178,157.35060078068202L157.7057098197937,157.56046978352535L158.07700048446654,156.03375714033317L158.49470248222352,158.2597182103622L158.7886409250895,157.61985393867073L158.97428625742594,155.5612482149605L159.06710892359413,153.60386548297538L159.22181336720786,156.35193474432234L159.2836951446533,156.9107531406393L159.40745869954426,156.97708794121647L159.43839958826703,155.60943035902164L159.5466926987966,156.60141567792743L159.7478084754944,157.79719662017305L160.15004002888998,158.25776123252217L160.27380358378093,157.4760498084266L160.42850802739463,157.9457919720255L160.50586024920145,157.04187065592052L160.78432824770607,158.01246418257506L161.38767557779948,158.56075538775258L161.5887913544973,157.9469391659317L162.03743424097698,158.27321460925887L162.45513623873393,156.1908552234905L162.57889979362488,154.3653997907204L162.60984068234762,154.81273793215078L162.74907468159992,156.030383040609L162.8264269034068,156.94665356170444L162.88830868085228,157.84558121021766L162.919249569575,157.1588169523602L163.08942445755005,157.3476315729247L163.18224712371824,157.7815407974529L163.213188012441,153.51418191230695L163.47618556658426,157.42172680286748L163.72371267636618,158.09243034603787L163.92482845306395,158.60023235452536L164.7447620042165,158.43881542372108L164.76023244857788,155.00391442252223L164.83758467038473,157.0345826005163L164.99228911399842,157.4437259330691L165.02323000272114,155.74581146987256L165.25528666814168,155.59282978837874L165.4409320004781,157.44048679733388L165.45640244483945,156.30699173599643L165.92051577568054,158.08622200254538L165.9359862200419,158.46351383370202L166.02880888621013,158.33408336828288L166.1835133298238,156.94361687195268L166.21445421854656,158.43118995834448L166.27633599599204,158.0707686258087L166.33821777343752,157.19404255348056L166.40009955088297,158.11328228233324L166.46198132832845,156.17641407667108L166.4929222170512,158.29629345137218L166.66309710502625,158.25175533501314L167.22003310203553,157.5768679081848L167.71508732159933,157.88492321300146L167.97808487574258,157.53799827936237L168.05543709754946,158.78789978118365L168.3184346516927,158.50461036834238L168.44219820658367,157.90516781134647L168.7206662050883,156.88058868910522L168.82895931561788,158.54793380880074L169.07648642539976,157.85502868944533L169.15383864720664,157.27960972248547L169.21572042465212,157.63355278355084L169.33948397954308,157.15793968643194L169.69530419985452,157.53482662562166L169.7571859773,156.94388679993062L170.05112442016602,158.2836068364093L170.23676975250243,158.34191127964297L170.37600375175475,158.73215965374038L170.4069446404775,158.0058509471157L170.62353086153664,157.93809902465435L171.05670330365498,158.09600689174547L171.87663685480754,158.30540352062744L172.01587085405984,155.38687474121545L172.17057529767357,158.37578724087362L173.20709506988524,143.7484575986491L173.531974401474,158.13062515491546L174.05796950976054,157.36591919342973L174.16626262029013,155.83056885494372L174.58396461804708,156.9899095201683L175.23372328122457,158.48328605808567L175.58954350153604,158.89148464271565L175.88348194440206,158.68586700552478L176.17742038726809,157.97885814932235L176.31665438652038,158.60961235175856L176.84264949480695,158.116318972085L177.2448810482025,158.56365711351535L177.32223327000935,158.62391853458902L177.61617171287537,158.25850353446148L177.81728748957315,157.712169307124L177.83275793393454,157.86515098861784L178.57533926328023,156.83976208244277L178.68363237380984,158.06442531832727L178.69910281817118,158.5156099334432L179.10133437156676,157.3530976144779L179.92126792271932,157.557770503746L180.19973592122395,156.7867212347788L180.6793196964264,158.38219803034954L180.80308325131733,158.13609119646864L180.84949458440147,158.57560142653892L180.8649650287628,158.55913581988497L181.00419902801514,158.62209652073798L181.03513991673788,158.16801017985927L181.1279625829061,158.4712067810731L181.2207852490743,158.58882789745766L182.10260057767232,157.80104309385862L182.59765479723612,157.68389435143544L182.84518190701803,158.08534473661712L183.03082723935444,158.82737674795644L183.27835434913635,158.40851600819806L183.41758834838865,158.35493530457825L183.52588145891824,157.97049038200637L183.63417456944785,158.2755764790658L183.91264256795245,158.73992008310597L184.0828174559275,158.11449695823396L184.11375834465028,157.60311840403884L184.31487412134805,157.49582203281025L185.21215989430746,156.62442703804626L185.6298618920644,157.4717309607797L185.76909589131674,158.43071758438307L186.21773877779643,158.8653691108506L186.6354407755534,158.49941425476717L186.86749744097392,157.83809070882998L187.30066988309227,158.5514428725139L187.85760588010154,158.29561863142735L188.1515443229675,158.63390586977258L188.63112809816997,158.0865594125178L189.1416527620951,158.78668510528294L189.23447542826335,158.6650150692294L189.28088676134746,158.57661365645617L189.4974729824066,158.65138370634375L189.512943426768,158.7978196343727L190.47211097717286,158.79687488644996L190.85887208620707,158.4911814514402L190.96716519673666,158.67014370081014L191.4776898606618,158.48261123814083L191.8489805253347,158.6386970913809L193.2722614065806,158.77210899447456L193.48884762763976,158.3413039416926L193.59714073816934,158.6345132077229L193.8291974035899,158.83304523549305L194.1076654020945,158.71238742935677L194.44801517804464,158.59449638499427L194.50989695549012,158.54712402486692L194.83477628707885,157.84551372822315L195.1132442855835,158.84532695848904L195.12871472994487,158.39859615500902L195.15965561866759,158.35304580873273L195.36077139536542,158.42646621873064L195.53094628334046,158.23832641811097L195.88676650365193,157.4869818915329L196.1033527247111,158.4855129639036L196.31993894577025,157.95119053158416L196.42823205629983,154.62729741131042L196.5519956111908,158.483893396036L196.69122961044312,158.24797634332208L197.2945769405365,155.97174118740296L197.4028700510661,158.30722553447848L197.41834049542746,158.92387600006768L197.4802222728729,158.8385787590407L197.57304493904115,158.81968380058535L197.6813380495707,158.61096199164822L197.95980604807536,158.24568195550964L198.30015582402547,158.7370183573432L198.45486026763916,158.84195285876487L198.59409426689146,158.5833618559045L198.60956471125283,157.9522027615014L198.74879871050518,158.48328605808567L198.99632582028707,158.64402816894508L199.05820759773255,158.91840995851453L199.2747938187917,158.05430301915476L199.38308692932128,158.76927475070624L199.39855737368265,158.68971347921033L199.6770253721873,158.59881523264121L199.7698480383555,158.45561844034748L199.89361159324645,158.28920784195142L200.34225447972617,157.62579235418525L200.46601803461712,158.95781944329283L201.06936536471048,158.79235359281958L201.1157766977946,158.7004431163332L201.30142203013102,158.44853283092672L201.48706736246743,158.4539313904854L201.81194669405622,158.58963768139145L202.41529402414957,158.9802234654613L202.64735068957012,158.3035140247819L202.67829157829286,158.75503604987026L202.69376202265423,158.1714517615779L202.91034824371337,158.83871372302966L203.45181379636128,157.7051511796977L203.48275468508405,158.82501487814952L203.62198868433634,158.82157329643087L203.6374591286977,158.53369510796475L203.7457522392273,158.31991214944136L203.91592712720237,158.31991214944136L203.99327934900919,158.5992201246081L204.53474490165712,158.74153965097358L204.5966266791026,158.38307529627784L204.8286833445231,158.0672595620956L204.87509467760722,158.5808650221086L204.8905651219686,158.12691364521888L205.07621045430503,158.85828350142984L205.5867351182302,158.58160732404795L205.78785089492797,158.8258921440778L206.37572778066001,158.72588382825344L206.53043222427368,158.88163227152108L206.74701844533286,158.31943977548L206.99454555511474,158.49178878939054L207.19566133181254,157.9001741437547L207.27301355361936,158.76185173131307L207.30395444234213,158.32294883919312L207.52054066340128,158.50393554839755L207.75259732882182,158.26633144582158L207.89183132807412,158.59901767862468L208.15482888221743,158.6330960858388L208.21671065966288,158.7161664210478L208.29406288146973,158.82602710806677L208.43329688072205,158.42113514116645L208.47970821380616,158.6345806897174L208.4951786581675,157.84787559803007L208.61894221305846,158.05410057317133L208.86646932284037,158.20067146518923L209.14493732134503,158.28131244859688L209.2068190987905,158.7167737589982L209.62452109654745,157.30208122664843L209.77922554016112,158.7841207894926L209.90298909505208,158.97064102224468L209.9494004281362,158.8068622216335L210.2433388710022,158.55393970630976L210.35163198153177,158.77150165652418L210.7848044236501,158.64186874512163L210.89309753417967,158.70719131578153L211.15609508832299,158.40608665639664L211.326269976298,158.64207119110506L211.51191530863443,158.05895927677412L211.55832664171854,158.65523018002932L211.91414686203004,158.4510296647226L211.9296173063914,156.80001518769203L212.0688513056437,158.81954883659637L212.14620352745058,158.51628475338802L212.2235557492574,158.79970913021825L212.30090797106425,159.0749007037215L212.39373063723247,158.5200637450791L212.4246715259552,158.4403675095942L212.44014197031655,158.54496460104346L212.78049174626668,158.8056475457328L212.93519618988037,158.4554834763585L213.73965929667153,158.3421137256264L214.4048884042104,158.17138427958344L214.54412240346275,158.83911861499655L214.6524155139923,157.05300518501028L214.93088351249696,157.9908024623459L215.07011751174926,158.0626033044762L215.20935151100159,158.99554187820902L215.27123328844706,158.772311440458L215.3331150658925,158.53524719383788L215.36405595461528,158.70165779223387L215.54970128695172,158.79215114683612L215.58064217567443,158.63066673403736L215.82816928545634,158.6232437146442L216.06022595087686,158.7785197839505L216.09116683959962,158.91719528261385L216.77186639149986,158.84600177843387L216.81827772458396,158.72554641828103L216.95751172383626,158.58484645978317L217.29786149978636,158.39036335168203L217.60727038701376,158.7730537423973L217.90120882987975,158.12664371724097L217.994031496048,158.65253090024999L218.6747310479482,158.73391418559694L218.8294354915619,158.48726749576016L219.71125082015993,158.94108390866094L219.83501437505086,157.83087013542027L220.0206597073873,158.8694180305196L220.12895281791685,158.72338699445754L220.3145981502533,158.76434856510897L220.42289126078288,158.50778202208312L220.5002434825897,158.39097068963238L220.54665481567383,158.26882827961745L220.88700459162396,157.9851339748093L221.44394058863324,158.80099128811344L221.7842903645833,158.81630970086118L221.83070169766745,158.69167045705035L221.8461721420288,158.84984825211941L221.95446525255838,158.33016941260283L222.15558102925618,158.48443325199187L222.32575591723125,158.6146060193503L222.44951947212218,158.8177943047398L222.55781258265176,158.86746105267957L222.66610569318138,158.93413326322914L222.86722146987915,158.94722477015895L223.11474857966104,157.5533166921101L223.17663035710652,158.71657131301473L223.2849234676361,158.9083551413365L223.34680524508158,158.09533207180064L223.36227568944295,158.93224376738362L223.5943323548635,158.31154438212545L223.6252732435862,158.34488048740022L223.95015257517494,158.6939648448628L224.80102701505024,158.88750320504116L224.95573145866393,158.95296073969004L225.20325856844585,158.6130539334772L225.4353152338664,158.6926826869676L225.6209605662028,158.34980667299752L225.9148990090688,158.96881900839364L225.97678078651427,157.7897061187854L226.16242611885073,158.7447113047143L226.2088374519348,158.59098732128112L226.37901233990988,158.77440338228698L226.44089411735536,158.16031723248815L226.68842122713724,158.87002536846992L227.15253455797833,158.77453834627593L227.1680050023397,158.9263053518691L227.4000616677602,158.77892467591735L228.17358388582866,156.84347359213936L228.31281788508096,158.91382118288968L228.76146077156068,158.95694217736454L228.77693121592205,158.52249309688048L229.02445832570393,158.45676563425368L229.2410445467631,158.94601009425824L229.2874558798472,158.1151717781788L229.36480810165406,157.8721691160441L229.70515787760417,158.90201183385508L229.72062832196553,158.90174190587712L229.9372145430247,158.80753704157834L230.24662343025207,158.77946453187323L230.40132787386574,158.49219368135746L231.23673186937967,158.93015182555465L231.54614075660706,158.72763836010998L231.63896342277528,158.0956019997786L231.68537475585936,158.439220315688L231.9174314212799,158.14911522140392L232.08760630925497,158.71900066481612L232.28872208595274,158.98575698900893L232.3660743077596,158.64450054290646L232.59813097318013,158.90018982000402L232.7218945280711,158.80942653742386L233.04677385965982,158.82946868978544L233.07771474838256,158.8976929862081L233.2943009694417,157.22805347870016L233.7584143002828,158.6723031246336L233.89764829953512,158.2097815344445L234.4545842965444,158.57202488083132L234.67117051760357,158.58680343762316L234.76399318377176,158.599625016575L235.42922229131062,158.86239990309332L235.5375154018402,158.50535267028172L236.24915584246315,158.94459297237407L236.31103761990863,158.60563091408403L236.43480117479962,157.74145649272978L236.6359169514974,158.99027828263934L237.10003028233845,158.71468181716918L237.59508450190225,158.0436408640264L237.64149583498636,158.75955734350063L237.7343185011546,158.83601444325032L238.44595894177755,158.5931467451046L238.63160427411395,158.66980629083773L238.89460182825727,158.51135856779072L239.219481159846,158.84202034075932L239.45153782526654,158.743834038786L239.68359449068706,158.38941860375925L239.7609467124939,158.0906758141813L239.86923982302346,159.00046806380632L240.03941471099853,158.79640251248858L240.36429404258726,158.70422210802425L240.78199604034424,158.81732193077843L240.87481870651246,158.82312538230397L240.9985822614034,158.6934249889069L241.1996980381012,158.7897217950347L241.30799114863078,158.86989040448097L241.50910692532858,158.44178463147838L241.8494567012787,158.91105442111584L242.03510203361512,158.9887936787607L242.25168825467426,157.96988304405605L242.8395651404063,158.54334503317588L243.2417966938019,158.64746975066373L243.44291247049966,158.35014408296993L243.7832622464498,157.95517196925866L243.89155535697938,158.63329853182222L243.9689075787862,158.46958721320553L244.80431157430013,158.15917003858195L245.0208977953593,158.96618721060875L245.40765890439351,158.21565246796453L245.5159520149231,158.7645510110924L245.59330423672992,158.7625265512579L245.6706564585368,158.65995391964316L245.71706779162088,158.7557108698151L245.74800868034362,158.9055883795627L245.84083134651183,158.64389320495613L246.13476978937783,158.28806064804522L246.1502402337392,158.5079169860721L246.1657106781006,158.88318435739419L246.1966515668233,158.81428524102668L246.27400378863018,158.66123607753835L246.92376245180765,158.7661030969655L247.0165851179759,159.02550388375968L247.72822555859884,158.44833038494326L247.80557778040566,157.9976856257832L248.0376344458262,158.36667717161836L248.0840457789103,158.93905944882644L248.17686844507853,158.69693405262004L248.25422066688537,158.45413383646883L248.37798422177633,158.729730301939L248.51721822102866,158.78560539337124L248.57909999847413,158.65064140440447L248.61004088719687,158.62628040439594L248.82662710825602,158.8723197562824L249.05868377367656,158.9721931081178L249.44544488271077,158.6533406841838L249.538267548879,157.80057071989722L249.80126510302227,158.51210086973006L249.8786173248291,158.80908912745144L249.89408776919046,158.82697185598954L249.90955821355186,159.06808502227867L250.00238087972005,158.76556324100966L250.24990798950193,158.80112625210242L250.29631932258607,158.85983558730297L250.420082877477,158.50042648468443L250.45102376619974,158.4233620469844L250.54384643236796,158.6752723323909L251.2554868729909,158.2799628087072L251.64224798202514,158.59881523264121L251.88977509180705,156.76701649238967L251.9671273136139,158.74525116067016L252.1218317572276,158.63964183930366L252.24559531211855,158.4222148530782L252.27653620084126,158.31343387797097L252.55500419934592,158.2962259693777L252.74064953168235,158.96787426047084L252.92629486401876,158.39144306359375L253.9628146362305,158.67385521050673L254.0401668580373,158.17448845132967L254.13298952420553,158.79950668423479L254.25675307909646,158.71967548476096L254.6435141881307,155.77712311531286L255.46344773928325,158.81968380058535L255.91209062576294,158.71528915511954L255.98944284756976,158.65523018002932L256.14414729118346,158.1898743460719L256.1750881799062,158.8203586205302L256.3297926235199,158.2962259693777L256.36073351224263,158.374302636995L256.6856128438314,158.25533188072077L256.70108328819276,158.83500221333307L256.9950217310587,158.74396900277497L257.2116079521179,158.32072193337515L257.3508419513702,158.7000382243663L257.55195772806803,158.8860186011625L257.6138395055135,158.50953655393968L258.00060061454775,158.69571937671935L258.0315415032705,158.33253128240975L258.1088937250773,158.82933372579646L258.48018438975015,158.5857912077059L259.08353171984356,158.87609874797343L259.1299430529277,158.86314220503263L259.42388149579364,158.64571521880717L259.56311549504596,158.3084402103792L259.6868790499369,158.65070888639892L259.73329038302103,158.9611260610225L260.12005149205527,158.41303730182844L260.50681260108945,158.51776935726664L261.3731574853261,158.368161775497L261.54333237330115,158.79842697232309L261.5897437063853,158.8125307091701L261.7135072612762,158.7629989252193L261.8063299274445,158.48416332401393L262.16215014775594,158.71697620498162L262.3787363688151,158.59908516061913L262.99755414326984,157.09329193571685" fill="none"></path></g></g></g></g></g></g><g transform="translate(51, 176)" clip-path="url(#clip_1)"><clipPath id="clip_1"><rect width="278" height="23"></rect></clipPath><g><g><line x1="0" y1="0" x2="0" y2="5" style="visibility: inherit;" fill="rgb(0, 0, 0)" stroke="rgb(204, 204, 204)" stroke-width="1px"></line><line x1="30.94088872273763" y1="0" x2="30.94088872273763" y2="5" style="visibility: inherit;" fill="rgb(0, 0, 0)" stroke="rgb(204, 204, 204)" stroke-width="1px"></line><line x1="61.88177744547526" y1="0" x2="61.88177744547526" y2="5" style="visibility: inherit;" fill="rgb(0, 0, 0)" stroke="rgb(204, 204, 204)" stroke-width="1px"></line><line x1="92.82266616821289" y1="0" x2="92.82266616821289" y2="5" style="visibility: inherit;" fill="rgb(0, 0, 0)" stroke="rgb(204, 204, 204)" stroke-width="1px"></line><line x1="123.76355489095052" y1="0" x2="123.76355489095052" y2="5" style="visibility: inherit;" fill="rgb(0, 0, 0)" stroke="rgb(204, 204, 204)" stroke-width="1px"></line><line x1="154.70444361368817" y1="0" x2="154.70444361368817" y2="5" style="visibility: inherit;" fill="rgb(0, 0, 0)" stroke="rgb(204, 204, 204)" stroke-width="1px"></line><line x1="185.64533233642578" y1="0" x2="185.64533233642578" y2="5" style="visibility: inherit;" fill="rgb(0, 0, 0)" stroke="rgb(204, 204, 204)" stroke-width="1px"></line><line x1="216.58622105916342" y1="0" x2="216.58622105916342" y2="5" style="visibility: inherit;" fill="rgb(0, 0, 0)" stroke="rgb(204, 204, 204)" stroke-width="1px"></line><line x1="247.52710978190103" y1="0" x2="247.52710978190103" y2="5" style="visibility: inherit;" fill="rgb(0, 0, 0)" stroke="rgb(204, 204, 204)" stroke-width="1px"></line><line x1="278.4679985046387" y1="0" x2="278.4679985046387" y2="5" style="visibility: inherit;" fill="rgb(0, 0, 0)" stroke="rgb(204, 204, 204)" stroke-width="1px"></line></g><g transform="translate(0, 8)"><text style="text-anchor: middle; visibility: hidden; font-family: Roboto, sans-serif; font-size: 12px; font-weight: 200;" x="0" y="0" dx="0em" dy="0.95em" fill="rgb(33, 33, 33)" stroke="none" stroke-width="1px">-2k</text><text style="text-anchor: middle; visibility: inherit; font-family: Roboto, sans-serif; font-size: 12px; font-weight: 200;" x="30.94088872273763" y="0" dx="0em" dy="0.95em" fill="rgb(33, 33, 33)" stroke="none" stroke-width="1px">0</text><text style="text-anchor: middle; visibility: inherit; font-family: Roboto, sans-serif; font-size: 12px; font-weight: 200;" x="61.88177744547526" y="0" dx="0em" dy="0.95em" fill="rgb(33, 33, 33)" stroke="none" stroke-width="1px">2k</text><text style="text-anchor: middle; visibility: inherit; font-family: Roboto, sans-serif; font-size: 12px; font-weight: 200;" x="92.82266616821289" y="0" dx="0em" dy="0.95em" fill="rgb(33, 33, 33)" stroke="none" stroke-width="1px">4k</text><text style="text-anchor: middle; visibility: inherit; font-family: Roboto, sans-serif; font-size: 12px; font-weight: 200;" x="123.76355489095052" y="0" dx="0em" dy="0.95em" fill="rgb(33, 33, 33)" stroke="none" stroke-width="1px">6k</text><text style="text-anchor: middle; visibility: inherit; font-family: Roboto, sans-serif; font-size: 12px; font-weight: 200;" x="154.70444361368817" y="0" dx="0em" dy="0.95em" fill="rgb(33, 33, 33)" stroke="none" stroke-width="1px">8k</text><text style="text-anchor: middle; visibility: inherit; font-family: Roboto, sans-serif; font-size: 12px; font-weight: 200;" x="185.64533233642578" y="0" dx="0em" dy="0.95em" fill="rgb(33, 33, 33)" stroke="none" stroke-width="1px">10k</text><text style="text-anchor: middle; visibility: inherit; font-family: Roboto, sans-serif; font-size: 12px; font-weight: 200;" x="216.58622105916342" y="0" dx="0em" dy="0.95em" fill="rgb(33, 33, 33)" stroke="none" stroke-width="1px">12k</text><text style="text-anchor: middle; visibility: inherit; font-family: Roboto, sans-serif; font-size: 12px; font-weight: 200;" x="247.52710978190103" y="0" dx="0em" dy="0.95em" fill="rgb(33, 33, 33)" stroke="none" stroke-width="1px">14k</text><text style="text-anchor: middle; visibility: hidden; font-family: Roboto, sans-serif; font-size: 12px; font-weight: 200;" x="278.4679985046387" y="0" dx="0em" dy="0.95em" fill="rgb(33, 33, 33)" stroke="none" stroke-width="1px">16k</text></g><line x1="0" y1="0" x2="278.4679985046387" y2="0" fill="rgb(0, 0, 0)" stroke="rgb(204, 204, 204)" stroke-width="1px"></line></g></g></g></g></svg>