<svg viewBox="0 0 330 200" xmlns="http://www.w3.org/2000/svg"><g><g><g><g><g><line x1="61.91500186920166" y1="176.89999961853027" x2="56.91500186920166" y2="176.89999961853027" style="visibility: inherit;" fill="rgb(0, 0, 0)" stroke="rgb(204, 204, 204)" stroke-width="1px"></line><line x1="61.91500186920166" y1="162.15833298365274" x2="56.91500186920166" y2="162.15833298365274" style="visibility: inherit;" fill="rgb(0, 0, 0)" stroke="rgb(204, 204, 204)" stroke-width="1px"></line><line x1="61.91500186920166" y1="147.4166663487752" x2="56.91500186920166" y2="147.4166663487752" style="visibility: inherit;" fill="rgb(0, 0, 0)" stroke="rgb(204, 204, 204)" stroke-width="1px"></line><line x1="61.91500186920166" y1="132.6749997138977" x2="56.91500186920166" y2="132.6749997138977" style="visibility: inherit;" fill="rgb(0, 0, 0)" stroke="rgb(204, 204, 204)" stroke-width="1px"></line><line x1="61.91500186920166" y1="117.93333307902017" x2="56.91500186920166" y2="117.93333307902017" style="visibility: inherit;" fill="rgb(0, 0, 0)" stroke="rgb(204, 204, 204)" stroke-width="1px"></line><line x1="61.91500186920166" y1="103.19166644414264" x2="56.91500186920166" y2="103.19166644414264" style="visibility: inherit;" fill="rgb(0, 0, 0)" stroke="rgb(204, 204, 204)" stroke-width="1px"></line><line x1="61.91500186920166" y1="88.44999980926512" x2="56.91500186920166" y2="88.44999980926512" style="visibility: inherit;" fill="rgb(0, 0, 0)" stroke="rgb(204, 204, 204)" stroke-width="1px"></line><line x1="61.91500186920166" y1="73.70833317438763" x2="56.91500186920166" y2="73.70833317438763" style="visibility: inherit;" fill="rgb(0, 0, 0)" stroke="rgb(204, 204, 204)" stroke-width="1px"></line><line x1="61.91500186920166" y1="58.96666653951008" x2="56.91500186920166" y2="58.96666653951008" style="visibility: inherit;" fill="rgb(0, 0, 0)" stroke="rgb(204, 204, 204)" stroke-width="1px"></line><line x1="61.91500186920166" y1="44.22499990463257" x2="56.91500186920166" y2="44.22499990463257" style="visibility: inherit;" fill="rgb(0, 0, 0)" stroke="rgb(204, 204, 204)" stroke-width="1px"></line><line x1="61.91500186920166" y1="29.483333269755057" x2="56.91500186920166" y2="29.483333269755057" style="visibility: inherit;" fill="rgb(0, 0, 0)" stroke="rgb(204, 204, 204)" stroke-width="1px"></line><line x1="61.91500186920166" y1="14.74166663487751" x2="56.91500186920166" y2="14.74166663487751" style="visibility: inherit;" fill="rgb(0, 0, 0)" stroke="rgb(204, 204, 204)" stroke-width="1px"></line><line x1="61.91500186920166" y1="0" x2="56.91500186920166" y2="0" style="visibility: inherit;" fill="rgb(0, 0, 0)" stroke="rgb(204, 204, 204)" stroke-width="1px"></line></g><g transform="translate(51.91500186920166, 0)"><text style="text-anchor: end; visibility: hidden; font-family: Roboto, sans-serif; font-size: 12px; font-weight: 200;" x="0" y="176.89999961853027" dx="0em" dy="0.3em" fill="rgb(33, 33, 33)" stroke="none" stroke-width="1px">-0.01</text><text style="text-anchor: end; visibility: inherit; font-family: Roboto, sans-serif; font-size: 12px; font-weight: 200;" x="0" y="162.15833298365274" dx="0em" dy="0.3em" fill="rgb(33, 33, 33)" stroke="none" stroke-width="1px">0</text><text style="text-anchor: end; visibility: hidden; font-family: Roboto, sans-serif; font-size: 12px; font-weight: 200;" x="0" y="147.4166663487752" dx="0em" dy="0.3em" fill="rgb(33, 33, 33)" stroke="none" stroke-width="1px">0.01</text><text style="text-anchor: end; visibility: inherit; font-family: Roboto, sans-serif; font-size: 12px; font-weight: 200;" x="0" y="132.6749997138977" dx="0em" dy="0.3em" fill="rgb(33, 33, 33)" stroke="none" stroke-width="1px">0.02</text><text style="text-anchor: end; visibility: hidden; font-family: Roboto, sans-serif; font-size: 12px; font-weight: 200;" x="0" y="117.93333307902017" dx="0em" dy="0.3em" fill="rgb(33, 33, 33)" stroke="none" stroke-width="1px">0.03</text><text style="text-anchor: end; visibility: inherit; font-family: Roboto, sans-serif; font-size: 12px; font-weight: 200;" x="0" y="103.19166644414264" dx="0em" dy="0.3em" fill="rgb(33, 33, 33)" stroke="none" stroke-width="1px">0.04</text><text style="text-anchor: end; visibility: hidden; font-family: Roboto, sans-serif; font-size: 12px; font-weight: 200;" x="0" y="88.44999980926512" dx="0em" dy="0.3em" fill="rgb(33, 33, 33)" stroke="none" stroke-width="1px">0.05</text><text style="text-anchor: end; visibility: inherit; font-family: Roboto, sans-serif; font-size: 12px; font-weight: 200;" x="0" y="73.70833317438763" dx="0em" dy="0.3em" fill="rgb(33, 33, 33)" stroke="none" stroke-width="1px">0.06</text><text style="text-anchor: end; visibility: hidden; font-family: Roboto, sans-serif; font-size: 12px; font-weight: 200;" x="0" y="58.96666653951008" dx="0em" dy="0.3em" fill="rgb(33, 33, 33)" stroke="none" stroke-width="1px">0.07</text><text style="text-anchor: end; visibility: inherit; font-family: Roboto, sans-serif; font-size: 12px; font-weight: 200;" x="0" y="44.22499990463257" dx="0em" dy="0.3em" fill="rgb(33, 33, 33)" stroke="none" stroke-width="1px">0.08</text><text style="text-anchor: end; visibility: hidden; font-family: Roboto, sans-serif; font-size: 12px; font-weight: 200;" x="0" y="29.483333269755057" dx="0em" dy="0.3em" fill="rgb(33, 33, 33)" stroke="none" stroke-width="1px">0.09</text><text style="text-anchor: end; visibility: inherit; font-family: Roboto, sans-serif; font-size: 12px; font-weight: 200;" x="0" y="14.74166663487751" dx="0em" dy="0.3em" fill="rgb(33, 33, 33)" stroke="none" stroke-width="1px">0.1</text><text style="text-anchor: end; visibility: hidden; font-family: Roboto, sans-serif; font-size: 12px; font-weight: 200;" x="0" y="0" dx="0em" dy="0.3em" fill="rgb(33, 33, 33)" stroke="none" stroke-width="1px">0.11</text></g><line x1="61.91500186920166" y1="0" x2="61.91500186920166" y2="176.89999961853027" fill="rgb(0, 0, 0)" stroke="rgb(204, 204, 204)" stroke-width="1px"></line></g></g><g transform="translate(61, 0)" clip-path="url(#clip_0)"><clipPath id="clip_0"><rect width="268" height="176"></rect></clipPath><g><g><g><line x1="0" y1="0" x2="0" y2="176.89999961853027" fill="rgb(0, 0, 0)" stroke="rgb(66, 66, 66)" stroke-width="1px" opacity="0.25"></line><line x1="29.787222014533146" y1="0" x2="29.787222014533146" y2="176.89999961853027" fill="rgb(0, 0, 0)" stroke="rgb(66, 66, 66)" stroke-width="1px" opacity="0.25"></line><line x1="59.57444402906629" y1="0" x2="59.57444402906629" y2="176.89999961853027" fill="rgb(0, 0, 0)" stroke="rgb(66, 66, 66)" stroke-width="1px" opacity="0.25"></line><line x1="89.36166604359944" y1="0" x2="89.36166604359944" y2="176.89999961853027" fill="rgb(0, 0, 0)" stroke="rgb(66, 66, 66)" stroke-width="1px" opacity="0.25"></line><line x1="119.14888805813258" y1="0" x2="119.14888805813258" y2="176.89999961853027" fill="rgb(0, 0, 0)" stroke="rgb(66, 66, 66)" stroke-width="1px" opacity="0.25"></line><line x1="148.93611007266574" y1="0" x2="148.93611007266574" y2="176.89999961853027" fill="rgb(0, 0, 0)" stroke="rgb(66, 66, 66)" stroke-width="1px" opacity="0.25"></line><line x1="178.72333208719888" y1="0" x2="178.72333208719888" y2="176.89999961853027" fill="rgb(0, 0, 0)" stroke="rgb(66, 66, 66)" stroke-width="1px" opacity="0.25"></line><line x1="208.51055410173205" y1="0" x2="208.51055410173205" y2="176.89999961853027" fill="rgb(0, 0, 0)" stroke="rgb(66, 66, 66)" stroke-width="1px" opacity="0.25"></line><line x1="238.29777611626517" y1="0" x2="238.29777611626517" y2="176.89999961853027" fill="rgb(0, 0, 0)" stroke="rgb(66, 66, 66)" stroke-width="1px" opacity="0.25"></line><line x1="268.08499813079834" y1="0" x2="268.08499813079834" y2="176.89999961853027" fill="rgb(0, 0, 0)" stroke="rgb(66, 66, 66)" stroke-width="1px" opacity="0.25"></line></g><g><line x1="0" y1="176.89999961853027" x2="268.08499813079834" y2="176.89999961853027" fill="rgb(0, 0, 0)" stroke="rgb(66, 66, 66)" stroke-width="1px" opacity="0.25"></line><line x1="0" y1="162.15833298365274" x2="268.08499813079834" y2="162.15833298365274" fill="rgb(0, 0, 0)" stroke="rgb(66, 66, 66)" stroke-width="1px" opacity="0.25"></line><line x1="0" y1="147.4166663487752" x2="268.08499813079834" y2="147.4166663487752" fill="rgb(0, 0, 0)" stroke="rgb(66, 66, 66)" stroke-width="1px" opacity="0.25"></line><line x1="0" y1="132.6749997138977" x2="268.08499813079834" y2="132.6749997138977" fill="rgb(0, 0, 0)" stroke="rgb(66, 66, 66)" stroke-width="1px" opacity="0.25"></line><line x1="0" y1="117.93333307902017" x2="268.08499813079834" y2="117.93333307902017" fill="rgb(0, 0, 0)" stroke="rgb(66, 66, 66)" stroke-width="1px" opacity="0.25"></line><line x1="0" y1="103.19166644414264" x2="268.08499813079834" y2="103.19166644414264" fill="rgb(0, 0, 0)" stroke="rgb(66, 66, 66)" stroke-width="1px" opacity="0.25"></line><line x1="0" y1="88.44999980926512" x2="268.08499813079834" y2="88.44999980926512" fill="rgb(0, 0, 0)" stroke="rgb(66, 66, 66)" stroke-width="1px" opacity="0.25"></line><line x1="0" y1="73.70833317438763" x2="268.08499813079834" y2="73.70833317438763" fill="rgb(0, 0, 0)" stroke="rgb(66, 66, 66)" stroke-width="1px" opacity="0.25"></line><line x1="0" y1="58.96666653951008" x2="268.08499813079834" y2="58.96666653951008" fill="rgb(0, 0, 0)" stroke="rgb(66, 66, 66)" stroke-width="1px" opacity="0.25"></line><line x1="0" y1="44.22499990463257" x2="268.08499813079834" y2="44.22499990463257" fill="rgb(0, 0, 0)" stroke="rgb(66, 66, 66)" stroke-width="1px" opacity="0.25"></line><line x1="0" y1="29.483333269755057" x2="268.08499813079834" y2="29.483333269755057" fill="rgb(0, 0, 0)" stroke="rgb(66, 66, 66)" stroke-width="1px" opacity="0.25"></line><line x1="0" y1="14.74166663487751" x2="268.08499813079834" y2="14.74166663487751" fill="rgb(0, 0, 0)" stroke="rgb(66, 66, 66)" stroke-width="1px" opacity="0.25"></line><line x1="0" y1="0" x2="268.08499813079834" y2="0" fill="rgb(0, 0, 0)" stroke="rgb(66, 66, 66)" stroke-width="1px" opacity="0.25"></line></g></g></g><g><g><line x1="0" y1="162.15833298365274" x2="268.08499813079834" y2="162.15833298365274" fill="rgb(0, 0, 0)" stroke="rgb(153, 153, 153)" stroke-width="1.5px"></line></g></g><g><g><line x1="29.787222014533146" y1="0" x2="29.787222014533146" y2="176.89999961853027" fill="rgb(0, 0, 0)" stroke="rgb(153, 153, 153)" stroke-width="1.5px"></line></g></g><g><g><g><g><g><path style="fill: none;" stroke="rgb(255, 112, 67)" stroke-width="2px" d="M30.278711177772944,152.4288330573539L30.44254089885288,150.40185390604162L30.74041311899821,146.77284689667803L30.755306730005476,145.03632073226242L30.934030062092674,142.61605952333326L30.96381728410721,141.04283571405264L31.21700867123074,138.08462308757916L31.39573200331794,134.9242241773335L31.842540333535936,129.48828619250622L32.00637005461587,124.95683854415196L32.0361572766304,122.01884356312335L32.51275282886293,116.4807835448015L33.019135603109994,109.15069597868944L33.063816436131795,104.404698482612L33.61488004340066,97.19389623380026L33.71913532045152,92.0438182759898L33.97232670757506,86.9494944460825L34.34466698275672,80.94481990059194L34.44892225980759,76.51682105748938L34.61275198088752,72.56288035687375L34.76168809096019,69.01125125951033L34.77658170196745,66.76238678364571L35.40211336427265,60.459847563131625L35.446794197294444,56.32455700775056L36.072325859599644,48.890180771084026L36.42977252377404,41.59916414892438L36.44466613478131,37.10662668528055L36.72764474391938,32.17037405506424L37.04041057507197,26.732021126844614L37.129772241115575,22.761411699460226L37.189346685144635,19.907314011280448L37.323389184210036,17.841080377757027L37.41275085025363,16.60141498999431L37.50211251629724,15.857738809278404L37.9191336245007,15.412772041749253L38.26168667766783,15.147624016855785L38.589346119827695,14.990973517938901L38.887218339973025,14.899777395553677L38.976580006016626,14.846004294529783L39.09572889407476,14.815080408493722L39.140409727096554,14.797053279980899L39.602111668321825,14.792392098866593L39.64679250134362,14.790263180770054L40.22764333062702,14.798778627160548L40.59998360580868,14.81127313150029L41.19572804609935,14.832380460335278L41.22551526811388,14.845782941950064L41.24040887912114,14.854197866434987L41.25530249012841,14.85962025664217L41.344664156172016,14.865136270659635L41.43402582221561,14.870761179271444L41.52338748825921,14.876504144948042L41.597855543295545,14.881957689424242L41.86594054142634,14.892746853386083L42.65530192481147,14.923954963022412L43.32551442013847,14.966724682697926L43.92125886042913,15.016101866470763L44.15955663654539,15.05582850911189L44.561684133741586,15.09751471237792L44.63615218877793,15.125944467651896L45.15742857403225,15.16787312620496L45.351045517126714,15.202695711171659L45.51487523820665,15.231949824358821L45.678704959286584,15.25802980212091L45.72338579230838,15.276032629210627L46.22976856655545,15.314380686493786L46.30423662159178,15.341576392005802L46.66168328576617,15.378459128866195L46.89998106188245,15.414735387013483L47.06381078296237,15.446434526636638L47.09359800497691,15.467277254402093L47.24253411504957,15.488982584840581L47.33189578109317,15.507589742412797L47.897852999369306,15.555271637095853L48.22551244152916,15.605926649447175L48.2999804965655,15.641420346675364L48.7467888267835,15.694045608154292L49.16380993498696,15.755974482482126L50.146788261466554,15.868895283307067L50.325511593553756,15.95106237473304L50.45955409261916,16.01130209353809L50.623383813699085,16.060964290512853L50.98083047787349,16.120825364443164L51.055298532909816,16.163103592656256L51.29359630902608,16.20905341657335L51.502106863127814,16.254921651224628L51.636149362193215,16.294344201589293L51.71061741722954,16.324658064076136L51.87444713830948,16.3576168545795L52.663808521694605,16.450853484985476L52.72338296572367,16.51249364987259L52.73827657673094,16.550905590485023L53.1552976849344,16.614481491773663L53.27444657299254,16.664396841350303L53.393595461050666,16.706208120439086L53.46806351608701,16.738750418142224L53.780829347239596,16.78996070198639L53.89997823529773,16.83290919707499L53.974446290334065,16.866366672405857L54.0489143453704,16.894155896036192L54.42125462055207,16.949925932096413L54.65955239666833,17.00884746922938L54.957424616813654,17.076509153711672L55.27019044796626,17.1516072127525L56.104232664373185,17.29154502948319L56.22338155243132,17.389399520729707L56.253168774445854,17.45160054253621L56.35742405149672,17.501169840556294L56.50636016156938,17.548520002303846L56.71487071567111,17.601805298100103L56.95316849178738,17.662526616977534L57.14678543488185,17.722564926296126L57.19146626790365,17.764070823939065L57.34040237797631,17.80732542313402L57.35529598898358,17.835119000078627L57.44465765502718,17.862879591042375L57.81699793020884,17.92622856524102L57.83189154121611,17.96612270077802L57.92125320725971,18.00139844172011L58.26380626042684,18.066462329571696L58.6361465356085,18.154012132535602L58.71061459064484,18.216339204919286L58.785082645681165,18.263572179185992L58.829763478702965,18.29782542498132L58.93401875575383,18.332229633435478L59.09784847683377,18.374764266483933L59.72338013913896,18.48534487021878L59.7978481941753,18.561973692556762L59.931890693240696,18.62653928795561L60.15529485834969,18.696493461002508L60.34891180144416,18.76575751103706L60.39359263446596,18.813642378040626L60.602103188567696,18.872063618471834L60.70635846561856,18.922058176743455L61.28720929490195,19.03646891183689L61.85316651317808,19.189270144841483L61.882953735192615,19.285432110840386L61.95742179022895,19.35435432272521L62.06167706727982,19.41147541536397L62.21061317735248,19.468387049955883L62.77657039562861,19.58973781381655L63.01486817174487,19.6998215300234L63.089336226781214,19.777588848242758L63.10422983778848,19.826595292888843L63.38720844692654,19.900837781792205L63.72976150009367,20.000278296037198L64.17656983031168,20.13256922247515L64.19146344131893,20.214386485950715L64.32550594038433,20.285500752782514L64.3850803844134,20.337988470281992L64.39997399542067,20.371941381830553L64.45954843944973,20.402158646314213L64.59359093851513,20.442523794983597L65.04039926873313,20.541588148379162L65.07018649074766,20.606057156489655L65.26380343384213,20.677565739922336L65.5021012099584,20.761162181186723L65.88933509614733,20.878138643217323L66.02337759521272,20.97165325680984L66.17231370528539,21.05380146385226L66.20210092729992,21.108314091947538L66.35103703737259,21.16721487525721L66.39571787039439,21.21043703131744L66.41061148140166,21.239001947004038L66.47018592543073,21.266671777977013L66.6638028685252,21.317642924141726L67.21486647579405,21.44721238382659L67.31912175284492,21.543876256918754L67.34890897485946,21.60729159244057L67.36380258586671,21.648047102907437L67.45316425191032,21.688790984418294L67.46805786291758,21.71595680255563L67.51273869593939,21.740423547848486L67.61699397299026,21.774197133307077L67.67656841701933,21.80540074853166L67.79571730507745,21.846063352591568L68.2127384132809,21.947876294245727L68.3467809123463,22.034054532577695L68.42124896738265,22.099745537324335L70.07443978918923,22.4575600481277L70.11912062221103,22.68106622615449L70.29784395429824,22.850545259766147L70.38720562034183,22.969986243716185L70.5361417304145,23.071341154315302L70.64039700746537,23.15300937592298L71.02763089365429,23.279996824777886L71.11699255969789,23.37430311331316L71.26592866977056,23.46117470348955L71.3850775578287,23.537614899748082L71.57869450092316,23.623164229493355L71.66805616696675,23.69287564146281L72.60635366042455,23.930369519133176L73.60422559791141,24.28620296618584L73.64890643093321,24.509381604329352L73.70848087496228,24.656209656081064L73.84252337402768,24.773447637484182L74.33401253726747,24.95147165580444L74.72124642345639,25.144035648067874L74.9893314215872,25.31940719986272L75.8829480820232,25.626830086284908L75.91273530403774,25.8180979179718L76.31486280123393,26.0252904973183L76.83613918648825,26.27069141276192L76.97018168555365,26.4492961520422L77.07443696260452,26.580921218610598L77.14890501764086,26.67739940087079L77.17869223965539,26.742298111216176L77.61060695886611,26.883413688054944L78.05741528908412,27.074802118012077L78.38507473124398,27.26854869062901L78.57869167433844,27.431691348334294L78.63826611836751,27.54404427419662L78.78720222844018,27.64770124159478L79.01060639354918,27.76448290780555L79.59145722283257,27.977669970832185L79.79996777693431,28.157375518085964L79.81486138794158,28.268906841447592L79.99358472002876,28.380409442757372L80.21698888513777,28.503273610687106L80.30635055118138,28.59944656937492L80.32124416218863,28.660893486469107L80.45528666125404,28.731528994121415L80.54464832729764,28.796474590618196L80.58932916031944,28.846737274545973L80.69358443737029,28.903290185869853L81.0063502685229,29.016741730850992L81.02124387953016,29.088608520029346L81.03613749053743,29.135528849085063L81.0510311015447,29.1674813020672L81.1850736006101,29.220912187462062L81.25954165564643,29.272042290186757L81.76592442989349,29.433146000924985L81.94464776198069,29.57614498490805L81.95954137298796,29.665810531231816L82.34677525917688,29.82057803592824L83.06166858752569,30.101786233114392L83.35954080767102,30.34973220119984L83.50847691774368,30.538272861221543L83.52337052875095,30.65537764050293L84.26805107911429,30.92617538035003L84.28294469012154,31.092695914552877L84.3871999671724,31.22090146713663L84.40209357817969,31.30187108234046L84.99783801847033,31.513200442845736L85.29571023861567,31.72200449853868L86.11485884401534,32.07499912310474L86.24890134308073,32.32435911742985L86.94890106042226,32.6715181088134L86.97868828243679,32.88827071974904L87.157411614524,33.06915345012372L87.52975188970566,33.28405509684021L87.54464550071292,33.417266429833525L87.66379438877107,33.53137356277276L87.88719855388005,33.66411268493812L88.54251743819978,33.9336151681071L88.55741104920705,34.09965290335715L88.89996410237418,34.29932550937503L88.91485771338145,34.42349167848847L88.95953854640324,34.51108358982376L89.04890021244685,34.589853909872495L89.24251715554132,34.694032067951994L89.61485743072298,34.86647837881223L89.80847437381745,35.027358580947435L90.64251659022436,35.373135139274524L90.91060158835516,35.66137737313612L91.04464408742056,35.87482948357918L91.58081408368216,36.16571863497224L91.93826074785656,36.4495017844551L92.02762241390016,36.64717305432666L92.16166491296556,36.806937196869036L92.68294129821989,37.06362337588751L92.80209018627802,37.25456126582681L92.95102629635069,37.41536410343212L93.05528157340156,37.544273188891296L93.14464323944516,37.64945056953216L93.17443046145969,37.72184016551717L93.36804740455416,37.825717756448185L93.81485573477215,38.02813974330407L93.90421740081575,38.177710433119L94.24677045398289,38.375564625669895L94.78294045024448,38.66448026283329L94.81272767225902,38.84732369396456L95.00634461535347,39.0188135604832L95.81059960974586,39.380006237012964L95.91485488679673,39.630401333146295L96.13825905190573,39.85295747358612L96.7786843252182,40.19493407635682L96.94251404629813,40.45371023129453L97.6276201526324,40.834245407794604L97.65740737464692,41.072403244531145L97.95527959479226,41.313858562734545L97.98506681680679,41.46860802472422L98.4765559800466,41.72490823074352L98.50634320206113,41.88862613244897L98.59570486810472,42.01668778118981L99.17655569738812,42.288190115067415L99.42974708451165,42.536353433814504L99.63825763861338,42.75565500329167L99.71272569364972,42.91241867885682L99.74251291566424,43.01655524977822L99.95102346976599,43.149691192023894L99.96591708077325,43.234625120239535L99.99570430278779,43.295694596264354L100.05527874681685,43.35256330678824L100.11485319084592,43.40692473808856L100.20421485688951,43.46992606782232L100.38293818897672,43.56859246146813L100.53187429904938,43.678601494673835L100.57655513207118,43.759869443818324L100.91910818523831,43.92587139200188L101.12761873934005,44.09705355935717L101.20208679437637,44.225362962755675L101.21698040538364,44.30747565476628L101.33612929344177,44.39775527638557L101.8574056786961,44.631984868621565L101.9914481777615,44.81898678891473L102.25953317589229,45.024313972149514L102.72123511711756,45.30850492322606L102.89995844920477,45.5415501727445L103.12336261431376,45.75969773363105L103.40634122345183,45.9900519182817L103.48080927848817,46.15448838903768L103.73400066561169,46.34245408020636L103.85314955366982,46.49733505435641L103.86804316467709,46.595531276306446L103.98719205273522,46.69661207595153L104.88080871317122,47.07504539343175L104.89570232417849,47.30742574168807L105.05953204525842,47.5054262130411L105.10421287828021,47.64021392931161L105.61059565252728,47.90278270789221L105.72974454058541,48.103203159035246L105.93825509468715,48.2986082290461L106.68293564505046,48.68544974705997L107.21910564131207,49.112808712609514L107.606339527501,49.51082644637898L107.7850628595882,49.815155249643944L108.23187118980618,50.16199825841031L108.39570091088612,50.430490783342925L108.44038174390793,50.60807018132993L108.49995618793699,50.736602188637455L108.87229646311866,50.95140047786052L109.393572848373,51.27376298245222L110.03399812168546,51.7060386281807L110.19782784276539,52.0267089473249L110.22761506477993,52.230265877352664L110.24250867578718,52.35797960131942L110.34676395283805,52.47367797742743L110.65952978399065,52.66050073607264L110.67442339499792,52.77819592400498L111.1212317252159,53.0170611136352L111.28506144629584,53.22222554227941L111.62761449946296,53.4748843568432L112.64038004795711,54.01152241644821L112.78931615802976,54.39037728467135L112.90846504608791,54.66323615852249L113.47442226436402,55.04382525729137L113.84676253954571,55.415349500161064L114.21910281472736,55.781812658366626L114.56165586789449,56.13408882059148L114.59144308990903,56.35698269198398L115.09782586415609,56.687053835878594L115.14250669717788,56.902454683686976L115.72335752646127,57.25780820084051L116.37867641078101,57.72717510855151L116.61697418689728,58.10221124593203L116.66165501991907,58.34476682419258L116.92974001804987,58.5955958066817L117.048888906108,58.79294837007916L117.16803779416614,58.95825022889376L117.21271862718794,59.075026747040965L117.49569723632601,59.25663125662358L117.55527168035508,59.38909843310792L117.61484612438414,59.492096389810335L117.6297397353914,59.55977347819499L117.64463334639868,59.606262438948L118.2999522307184,59.89344307779699L118.68718611690734,60.2194443395577L119.1042072251108,60.58096029984752L119.43186666727067,60.928510799716605L119.50633472230699,61.166766566739255L119.83399416446686,61.44066409242015L120.01271749655406,61.67653088596564L120.05739832957586,61.83594072000547L120.07229194058313,61.9375528019729L120.11697277360491,62.016418595783904L120.14675999561945,62.075674828516554L120.35527054972118,62.19482540350966L120.399951382743,62.28424065329017L120.44463221576478,62.35582349466116L120.51910027080112,62.428665614227555L120.57867471483019,62.4962971191677L120.86165332396824,62.65062448041101L120.87654693497552,62.74920904549561L121.02548304504818,62.868302774958565L121.71058915138245,63.21610129473302L121.82973803944057,63.4729404081294L121.8595252614551,63.639086073229656L122.09782303757137,63.8351989159696L122.20207831462224,63.995091195114846L122.64888664484025,64.27222626185153L122.7084610888693,64.46270152999381L122.73824831088383,64.5890816082498L122.9318652539783,64.74359471517718L122.99143969800737,64.86052756094698L123.48292886124717,65.13080477158064L123.7808010813925,65.41448701498008L123.8254819144143,65.60293758765356L123.9595244134797,65.7707535779541L124.67441774182849,66.16400573571758L124.71909857485029,66.41827294411273L124.7637794078721,66.5891535762459L126.34250217464236,67.34128401960871L126.44675745169322,67.83561281062268L126.69994883881674,68.2368335368344L126.8935657819112,68.55764812070228L126.98292744795482,68.78711577385938L127.13186355802748,68.98646155290002L127.7425016093254,69.35926708712566L127.75739522033268,69.58913186379633L127.90633133040534,69.78889824134427L128.0105866074562,69.95207219441023L128.08505466249255,70.08092558383697L128.18930993954342,70.20158030086381L128.3680332716306,70.34831315898707L128.7701607688268,70.60379696603194L129.51484131919014,71.06779218989797L130.49781964566972,71.7575131687171L130.52760686768426,72.18383168233161L130.5573940896988,72.45210871682336L130.6914365887642,72.66927698272862L130.8701599208514,72.87454841719767L131.4510107501348,73.24165253723392L131.68930852625104,73.56211434833006L131.95739352438184,73.86719971443762L132.12122324546178,74.11923106400991L132.34462741057078,74.36456660727025L132.38930824359258,74.53059786996837L132.58292518668705,74.71184084474264L132.67228685273065,74.8582728632451L132.70207407474518,74.95869708113193L132.73186129675972,75.03151661864933L132.970159072876,75.17576573899396L133.8935629553265,75.65255971914222L134.22122239748637,76.07732346796388L134.2361160084936,76.33848838412413L134.5190946176317,76.6150535445291L134.77228600475522,76.88830702477263L134.80207322676978,77.0648878234098L135.39781766706045,77.4235906401327L135.7701579422421,77.7969468945828L136.0829237733947,78.15388392095676L136.14249821742376,78.39337385150749L136.6488809916708,78.75247200570531L136.66377460267807,78.97427051528389L136.85739154577254,79.18976464280927L136.94675321181617,79.35710980508125L137.27441265397601,79.59707414826227L137.55739126311408,79.86164386911732L137.57228487412135,80.02673410540822L137.58717848512862,80.13213665096069L137.63185931815042,80.21442558630534L137.67654015117222,80.28284635552534L137.70632737318675,80.33659782129267L137.7659018172158,80.39424890590315L137.82547626124486,80.45424415517856L137.89994431628122,80.52199650371033L138.1829229254193,80.68335984514877L138.2573909804556,80.81195062241444L138.3020718134774,80.9081722669026L138.42122070153553,81.0167539908449L138.4510079235501,81.09461740620213L138.68930569966633,81.24306588010789L138.77866736570996,81.37029128750396L138.95739069779714,81.52295675148291L139.65739041513868,81.91367787846411L139.88079458024768,82.24362876969583L140.02973069032032,82.5052920267671L140.25313485542932,82.75784773628402L140.47653902053833,83.00496088406338L141.44462373601067,83.56764554197767L141.6531342901124,83.99456014544134L141.6829215121269,84.26346722210155L141.83185762219958,84.48860963104629L142.15951706435945,84.76407607704643L142.53185733954112,85.08891395738398L142.78504872666466,85.39233704663694L142.88930400371552,85.61907795141838L143.0233465027809,85.81258323685549L143.12760177983176,85.97338004938594L143.17228261285356,86.08901318221331L143.35100594494077,86.23501763650509L143.54462288803524,86.40563502436406L143.7829206641515,86.61018620107L143.91696316321693,86.79039741977735L144.81057982365292,87.281765644672L144.82547343466018,87.58297452361784L144.84036704566742,87.77008779499438L144.9446223227183,87.92707136588358L145.33185620890723,88.18734585597261L145.80845176113976,88.54792036495628L146.07653675927057,88.87924147247067L146.1807920363214,89.12274535168353L146.35951536840864,89.34549202392222L146.4488770344522,89.51746329796066L146.70206842157577,89.72921914374228L146.82121730963388,89.90736302320653L147.05951508575015,90.11642350483709L147.31270647287369,90.35040871169943L147.37228091690275,90.51633843177598L147.43185536093182,90.64143485978096L147.56589785999722,90.77395345915222L147.7595148030917,90.9364529739048L147.77440841409893,91.04033623340636L149.42759923590555,91.81084710562799L149.50206729094188,92.30503184197994L149.59142895698548,92.63979346406258L149.68079062302908,92.87889902090411L149.99355645418166,93.15620384074725L150.03823728720346,93.34170443441059L150.09781173123253,93.478492862939L150.27653506331976,93.6370191536498L150.45525839540693,93.808574981593L150.54462006145053,93.94972191507873L150.7829178375668,94.13629646410664L150.93185394763944,94.311905359022L150.97653478066127,94.4363664309336L151.02121561368307,94.53013880904294L151.09568366871937,94.61822772861929L151.36376866685018,94.78562253994676L151.57227922095194,94.97511940403291L151.58717283195918,95.09517910633956L151.82547060807548,95.26896512253053L152.18291727224985,95.52579832074989L152.58504476944606,95.85143474577565L152.8680233785841,96.16746043604573L153.04674671067133,96.43324571214502L153.1361083767149,96.63079192371539L153.2850444867876,96.8127685415645L153.34461893081664,96.94732835726997L153.46376781887477,97.07880534664675L153.49355504088933,97.17037516775156L153.5978103179402,97.26970316655152L153.79142726103464,97.41171279093027L154.17866114722358,97.66165195521562L154.2978100352817,97.8622796699576L154.44674614535438,98.04596899558011L154.5212142003907,98.18783234930378L154.7892991985215,98.38684819402377L155.37015002780493,98.75282399222257L155.56376697089937,99.05453013786601L155.9956816901101,99.41861850540384L156.39780918730628,99.80734713798319L156.5169580753644,100.09100470227612L156.54674529737898,100.27380378786837L156.68078779644435,100.44018393068222L156.7552558514807,100.57150581047561L156.81483029550978,100.6754904589485L156.84461751752428,100.75047481165115L157.00844723860422,100.86471354808049L157.09780890464782,100.9710177106793L157.12759612666235,101.04738498513947L157.3807875137859,101.20013751158176L157.61908528990216,101.39236619539686L157.81270223299663,101.58937814647001L158.60206361638174,102.0401098743052L158.616957227389,102.31681603764244L158.69142528242537,102.51417097546629L158.840361392498,102.6952244510085L158.87014861451254,102.816382002888L159.09355277962155,102.98298018962039L159.27227611170875,103.15801501720212L159.28716972271602,103.2692920569897L159.73397805293402,103.52356464697904L159.7488716639413,103.68237336081366L159.83823332998486,103.81512735148108L159.98716944005753,103.95720278745817L160.0169566620721,104.05492958200844L160.07653110610116,104.13852433130762L160.13610555013022,104.21363546009712L160.19567999415926,104.2836520232218L160.25525443818833,104.35060745358861L160.2850416602029,104.40325126137515L160.44887138128283,104.50340250352787L160.9850413775444,104.78763363908992L161.46163692977694,105.157066273113L161.71482831690045,105.48425214040795L161.7892963719368,105.71158297211628L162.04248775906032,105.95338694064945L162.16163664711848,106.14803739486564L162.42972164524926,106.3762783989093L162.53397692230013,106.55653493119323L162.7722746984164,106.76362290224142L162.84674275345273,106.91877417882877L162.9063171974818,107.0365775892453L163.02546608553993,107.15666735098742L163.36801913870704,107.37064427768057L163.4275935827361,107.5236925545319L163.7105721918742,107.73259135833793L163.88929552396138,107.93179838243448L164.02333802302678,108.10668990388959L164.05312524504131,108.22392622200704L164.26163579914302,108.38032293260038L164.67865690734652,108.64604893377182L165.46801829073164,109.13000878489815L165.60206078979704,109.47538296041382L165.7509968998697,109.74367735272297L166.74886883735655,110.31275310709034L167.06163466850916,110.7817201985047L167.56801744275623,111.26915777791451L167.6722727198071,111.60398109319118L168.07440021700327,111.96806200964176L168.6999318793085,112.43969983959526L169.04248493247562,112.86098767606568L169.3254635416137,113.22782515807636L169.60844215075176,113.56182108640954L169.74248464981716,113.8161075850978L170.24886742406423,114.17190528898622L170.63610131025314,114.54040797755242L170.71056936528947,114.79128338474251L170.99354797442754,115.05483437977773L171.187164917522,115.29019363825888L171.20205852852928,115.43734462137799L171.91695185687806,115.81000745528735L172.02120713392895,116.07497522080567L172.0361007449362,116.23986384965322L172.42333463112513,116.4922197138336L173.21269601451024,116.95525638401527L173.48078101264105,117.33856403443447L173.94248295386635,117.74979774922446L174.06163184192445,118.04322400768031L174.10631267494628,118.23677851171394L174.12120628595352,118.35874229988792L174.25524878501892,118.48437947612099L174.28503600703345,118.57141296997088L174.37439767307706,118.65857345053382L174.46375933912066,118.74578925466926L175.31269516653484,119.12882334536954L175.78929071876738,119.54346911856707L176.02758849488364,119.88444133637532L176.20631182697082,120.158063008975L176.44460960308712,120.41415057484508L176.5786521021525,120.61943716454061L176.68290737920336,120.78273476458938L176.78716265625425,120.92080931567678L177.05524765438503,121.10661900490409L177.21907737546496,121.28092985236704L177.2488645974795,121.39693030756798L177.44248154057397,121.5406652190617L178.3063109789954,121.95636196187665L178.70843847619165,122.3584151848339L178.84248097525702,122.65042116875438L179.27439569446776,122.98886880005844L179.67652319166396,123.34342698774573L179.89992735677293,123.64011349945214L180.31694846497643,123.97443123520199L180.85311846123804,124.3752063785487L181.13609707037608,124.7209660017497L181.59779901160135,125.09968369682599L182.08928817484113,125.5084863502979L182.17864984088473,125.78669946322405L182.22333067390653,125.97008265717362L182.43184122800827,126.15682172029976L182.44673483901553,126.27433928350919L183.37013872146608,126.68282653716483L183.74247899664775,127.06341008140689L183.84673427369862,127.32961558591217L184.3382234369384,127.66731166566771L184.6956701011128,127.99885353218079L186.06588231378132,128.68794791416602L186.27439286788305,129.17542495439588L186.3786481449339,129.50486481955582L186.6020523100429,129.7815850374624L186.8701373081737,130.0422523180872L187.19779675033357,130.31397067224975L187.25737119436263,130.49792725373976L187.57013702551524,130.7179528536307L187.83822202364604,130.94367416801427L187.8531156346533,131.0843053986999L187.88290285666784,131.179077726203L188.0765197997623,131.30342421552803L188.24034952084224,131.4350271556356L188.58290257400935,131.63284136281607L188.7914131281111,131.82366335046572L188.99992368221282,132.01012964879288L189.1041789592637,132.15793612114126L189.22332784732183,132.28762871594392L189.35737034638723,132.41151633048497L189.93822117567063,132.68471539340158L190.0424764527215,132.88419358068603L190.05737006372877,133.00895701939953L190.1169445077578,133.10411349962058L190.20630617380144,133.19162920225844L190.3105614508523,133.27959193275927L190.57864644898308,133.4233450528804L190.90630589114295,133.6204161111085L191.05524200121562,133.78889460971206L191.189284500281,133.9351212760825L191.2041781112883,134.02786790186232L191.3382206103537,134.128577462416L191.57651838646993,134.26894146438127L191.63609283049902,134.3731101088514L191.84460338460073,134.50532621473664L191.9488586616516,134.61945018333353L191.96375227265887,134.6928912568591L192.23183727078967,134.8262146777596L192.32119893683327,134.935899050529L192.4403478248914,135.04124661031398L192.87226254410214,135.24730741126467L192.99141143216028,135.41022052143677L193.57226226144368,135.6986280870904L193.61694309446546,135.8862827418898L193.79566642655269,136.0572336209167L193.97438975863986,136.2180337287288L194.28715558979246,136.41610253227927L194.86800641907587,136.72254793276437L195.09141058418487,136.97820046269487L195.1211978061994,137.14114753651262L195.13609141720667,137.24369246039325L195.3446019713084,137.3719929800637L195.86587835656272,137.615118048108L195.89566557857728,137.77045199089565L196.02970807764265,137.90617458014287L196.04460168864992,137.99232879795375L196.1488569657008,138.07703522496482L196.31268668678072,138.17964580057074L196.38715474181703,138.2647144199896L196.9084311270714,138.4796114078356L196.96800557110046,138.62720270458473L197.19140973620944,138.78557015407551L197.23609056923127,138.894527456908L197.2509841802385,138.96454561908723L197.4297075123257,139.06220829338824L197.9211966755655,139.27313738429513L198.11481361865998,139.4594176121308L198.68077083693612,139.74482502638534L198.8297069470088,139.96153140486416L199.0382175011105,140.15503817139066L199.27651527722676,140.34346021572665L199.47013222032123,140.51508680306725L199.54460027535757,140.64054686857492L199.5743874973721,140.72481007291634L199.78289805147384,140.83816502178405L200.00630221658284,140.97324591150084L200.1403447156482,141.0944283291105L200.39353610277178,141.2427266198837L200.45311054680081,141.34944927307288L200.52757860183715,141.4356407711828L200.66162110090258,141.5271759778286L200.70630193392438,141.59535241513677L200.72119554493162,141.6406752508422L200.84034443298975,141.7031646494289L201.07864220910602,141.81105802262073L201.34672720723682,141.95468614355323L201.4063016512659,142.0583507816753L201.80842914846207,142.2381652771015L201.95736525853474,142.38942741124114L202.07651414659287,142.51481095080834L202.12119497961467,142.6030086228538L202.40417358875274,142.7378441507809L202.5084288658036,142.84883228841738L202.92544997400708,143.03526941491307L203.02970525105795,143.17696699188707L203.28289663818148,143.33423158123765L203.4467263592614,143.4751786121918L203.6254496913486,143.61042697286143L203.6701305243704,143.7042228223602L204.01268357753753,143.85714709119966L204.02757718854483,143.95309072032498L204.1616196876102,144.0483156729442L204.23608774264653,144.12633557493731L204.31055579768287,144.1940060864007L204.3850238527192,144.2554406033921L204.4743855187628,144.31726547785473L204.50417274077734,144.36267373613003L204.51906635178457,144.39407316121458L204.84672579394444,144.50405524572852L204.99566190401714,144.61130362929444L205.770129676395,144.8884922319759L206.41055494970746,145.2286286430467L206.54459744877286,145.46884037589575L206.64885272582373,145.64100857869366L206.91693772395453,145.8161722229645L207.0509802230199,145.9570702446375L207.18502272208534,146.07732102557145L207.2445971661144,146.1653155942526L207.30417161014344,146.233938862146L207.33395883215798,146.28301922160094L207.5126821642452,146.3598163148973L207.5424693862597,146.41377076525077L207.78076716237598,146.50899647705316L208.00417132748495,146.62480246794183L208.03395854949952,146.70208976642692L208.68927743381926,146.91904089934673L208.73395826684106,147.06076446580062L208.86800076590643,147.18039685709263L209.1956602080663,147.33637336989688L209.49353242821164,147.5060352314677L209.7765110373497,147.67969232515287L209.8658727033933,147.8064953560294L210.52119158771302,148.04714306740095L210.67012769778572,148.2286292177537L211.5190635251999,148.54682053148022L211.638212413258,148.76681606138177L211.8169357453452,148.94229719935194L211.92119102239607,149.07287570413885L212.0999143544833,149.1944463205185L212.20416963153414,149.29252639229523L212.27863768657048,149.36929549595678L212.3233185195923,149.42609597509804L212.65097796175218,149.5386130977722L213.18714795801375,149.73327267299405L213.5148074001736,149.9270340272161L213.55948823319542,150.05374264084807L213.57438184420266,150.1332489968774L213.67863712125353,150.2052920194428L213.87225406434803,150.2935673363305L214.03608378542796,150.38449773839858L214.15523267348607,150.46657872636405L214.25948795053694,150.53984828414738L214.36374322758783,150.60777359556937L214.55736017068227,150.69288111461216L214.7956579467985,150.7982609981357L214.85523239082758,150.87502074860356L214.95948766787845,150.94471232121964L215.01906211190752,151.00000746317463L215.0339557229148,151.0365517834483L215.2573598880238,151.1088441179551L215.28714711003832,151.15891472321437L215.59991294119092,151.25897377442053L216.4190615465906,151.49991180349033L216.56799765666324,151.67697971136576L216.80629543277954,151.83498081533617L217.02969959788854,151.97802907184553L217.2084229299757,152.10226202441828L217.49140153911378,152.23725523977475L217.55097598314285,152.33092298931507L217.72969931523005,152.4250234997593L217.77438014825185,152.49093172458942L217.93820986933179,152.56502603478808L217.99778431336085,152.62201000955605L218.23608208947712,152.7061166412151L218.68289041969513,152.8493384328669L218.6977840307024,152.93834466248956L218.92118819581137,153.0377001897195L219.6658687461747,153.24850738698362L219.7999112452401,153.4018823575383L220.23182596445085,153.57988070786726L220.24671957545812,153.68962601445463L220.48501735157436,153.8024450709099L220.6935279056761,153.910978817704L220.7382087386979,153.98481933425705L220.81267679373423,154.04363326150857L221.1403362358941,154.14239686892043L221.15522984690136,154.2045260934844L221.3637404010031,154.28186804201297L221.6616126211484,154.3850873061682L221.81054873122108,154.47523960629962L222.61480372561348,154.67957397966262L222.91267594575882,154.85689663607215L223.00203761180242,154.97960936198223L223.04671844482422,155.06137953929428L223.27012260993322,155.15098548477428L223.43395233101316,155.23430180523718L223.6275692741076,155.31902137512014L223.70203732914393,155.38315428605532L223.92544149425294,155.46134835061002L224.0445903823111,155.52932957289914L224.35735621346367,155.6250298022719L224.3871434354782,155.68765057863058L224.59565398957994,155.76148555517764L225.04246231979795,155.88265604546638L225.17650481886335,155.9781966673136L225.71267481512496,156.12584383384376L225.9211853692267,156.24911166232332L226.01054703527026,156.33785834647134L226.65097230858274,156.49572651354424L226.7552275856336,156.60725434599556L227.44033369196785,156.78305166195608L227.49990813599692,156.8978692344603L227.61905702405505,156.98537636220755L227.81267396714952,157.06795661363108L228.25948229736753,157.18607795951417L228.73607784960004,157.32881170483395L228.78075868262184,157.42112079642698L228.87012034866547,157.4898090678978L229.5552264549997,157.63145559080724L229.73394978708689,157.7421905104803L229.98714117421045,157.84478482550296L230.29990700536305,157.950480394209L230.52331117047206,158.04507246183917L230.74671533558106,158.13270793647732L230.82118339061736,158.1955169610491L230.92543866766823,158.24746637688438L231.08926838874817,158.30092079082354L231.40203421990077,158.3750958223907L231.80416171709697,158.47288020445595L231.89352338314058,158.5432603711045L232.0126722711987,158.60102723276282L232.20628921429315,158.66075791568926L232.31054449134402,158.7100034842368L232.50416143443852,158.7642780228312L232.83182087659839,158.8381799982604L233.01054420868556,158.90479867145504L233.21905476278727,158.97051921527122L233.78501198106343,159.0785318757983L234.17224586725237,159.1891572641209L234.3658628103468,159.27810392822826L234.69352225250668,159.36915671875965L234.79777752955755,159.43564359779782L234.87224558459386,159.48396369803027L235.67650057898626,159.60184899375557L235.88501113308803,159.6949895971908L236.25735140826967,159.79023708310922L236.36160668532054,159.858256941545L236.43607474035687,159.90679389197348L236.5105427953932,159.94360746094262L236.555223628415,159.97029435087396L236.5850108504295,159.98936556698624L236.67437251647314,160.00995341667624L236.95735112561118,160.0509461593296L236.97224473661845,160.0770356842795L236.98713834762574,160.09418197432882L237.01692556964025,160.10745084838936L237.0913936246766,160.12284141156772L237.7169252869818,160.19315160869692L237.8062869530254,160.24386866913594L238.49139305935967,160.33808793839873L238.56586111439597,160.4013807421893L238.78926527950497,160.4594373015391L238.83394611252677,160.49825086530876L238.9233077785704,160.52946167144708L238.9977758336067,160.55475313777816L239.11692472166484,160.5803615587771L239.25096722073027,160.60736070657407L239.31054166475934,160.62869562006438L239.34032888677385,160.64405618030892L239.54883944087558,160.67103775009858L239.77224360598458,160.70596580974586L240.14458388116626,160.75747547137826L240.23394554720983,160.79558757845277L240.4871369343334,160.83860690591823L240.5616049893697,160.87027076551468L240.576498600377,160.890435449445L240.59139221138426,160.90369928937412L240.68075387742783,160.91861907663088L240.9190516535441,160.94589530620885L240.96373248656593,160.96565803719903L241.08288137462404,160.9865144420436L241.11266859663857,161.00126433307383L241.20203026268217,161.0167897364547L241.88713636901642,161.07565266364784L242.2594766441981,161.13668708425544L242.49777442031436,161.1893182008904L242.57224247535072,161.22582838204352L242.72117858542336,161.25749492128207L242.8403274734815,161.2842047093744L242.87011469549603,161.3021443362817L243.13819969362683,161.3298858021423L243.31692302571403,161.35760266716406L243.4956463578012,161.38510751672732L244.49351829528808,161.45869936386524L244.56798635032442,161.50686785709365L244.65734801636802,161.54053969472136L244.77649690442612,161.56702687955405L245.1488371796078,161.60199022993314L245.93819856299297,161.66055699614535L246.37011328220368,161.71462836594156L246.44458133724,161.75021816289544L246.59351744731265,161.77776268721772L246.6233046693272,161.7955109958793L246.77224077939988,161.8121853099317L246.8020280014144,161.8233784306886L247.11479383256702,161.84224103125894L247.12968744357426,161.85412185111778L247.41266605271232,161.87169017394461L247.62117660681406,161.88960511184075L247.75521910587946,161.9049516990462L247.94883604897393,161.92060336186336L248.008410493003,161.93193012330454L248.38075076818467,161.95032435622457L248.4105379901992,161.9622514779015L248.48500604523554,161.97161004224526L248.8424527094099,161.98731563246153L249.42330353869335,162.01143900282352L249.46798437171512,162.02695674813424L249.75096298085316,162.04258877822446L249.8850054799186,162.05478817451925L250.00415436797672,162.06452063519973L250.04883520099852,162.07124210846317L250.4211754761802,162.08214103385725L250.79351575136184,162.09468212616898L251.62755796776875,162.11251342375604L251.7913876888487,162.1247268873745L251.83606852187052,162.13243900368735L251.95521740992862,162.13802948955177L252.04457907597225,162.14204807443696L252.38713212913936,162.1465441694535L252.5956426832411,162.15015249130013L253.19138712353177,162.1534246882412" fill="none"></path></g></g></g></g><g opacity="0.2"><g><g><g><path style="fill: none;" stroke="rgb(255, 112, 67)" stroke-width="2px" d="M30.278711177772944,152.4288330573539L30.44254089885288,149.18566641525427L30.74041311899821,143.28900016768895L30.755306730005476,142.99416596290965L30.934030062092674,139.45616648895543L30.96381728410721,138.86650082524616L31.21700867123074,133.85433170032005L31.39573200331794,130.3163322263658L31.842540333535936,121.4713335414802L32.00637005461587,118.22816689938057L32.0361572766304,117.63849848982194L32.51275282886293,108.20383139537772L33.019135603109994,98.17949863722423L33.063816436131795,97.29500014166035L33.61488004340066,86.38616888794301L33.71913532045152,84.32233357326191L33.97232670757506,79.31016444833578L34.34466698275672,71.93933266857267L34.44892225980759,69.87549735389155L34.61275198088752,66.63233071179194L34.76168809096019,63.68400239324569L34.77658170196745,63.3891640696923L35.40211336427265,51.00616316500306L35.446794197294444,50.12167016113797L36.072325859599644,37.73866925644873L36.42977252377404,30.662670308540257L36.44466613478131,30.367831984986864L36.72764474391938,24.766002688050264L37.04041057507197,18.57449674400688L37.129772241115575,16.805499752879143L37.189346685144635,15.626168425460659L37.323389184210036,14.741730338583253L37.41275085025363,14.741917056341432L37.50211251629724,14.742224591472535L37.9191336245007,14.745321909578706L38.26168667766783,14.749901986352725L38.589346119827695,14.75599777198721L38.887218339973025,14.762983212822405L38.976580006016626,14.765344643293428L39.09572889407476,14.768694579542998L39.140409727096554,14.770012587247752L39.602111668321825,14.785400327200751L39.64679250134362,14.787069803626778L40.22764333062702,14.811551796742577L40.59998360580868,14.830014888006662L41.19572804609935,14.864041453584392L41.22551526811388,14.865886664371047L41.24040887912114,14.866820253161908L41.25530249012841,14.867753841952787L41.344664156172016,14.873410291685676L41.43402582221561,14.879198542189059L41.52338748825921,14.885118593462916L41.597855543295545,14.890138006138514L41.86594054142634,14.908930599328787L42.65530192481147,14.970767127476819L43.32551442013847,15.03087926221112L43.92125886042913,15.090167642129966L44.15955663654539,15.115418473073532L44.561684133741586,15.160044017276977L44.63615218877793,15.168589100562809L45.15742857403225,15.230766114034562L45.351045517126714,15.254929588621707L45.51487523820665,15.275830994139586L45.678704959286584,15.297149768763976L45.72338579230838,15.303036869845215L46.22976856655545,15.371902772418593L46.30423662159178,15.382369950273851L46.66168328576617,15.433783234156778L46.89998106188245,15.469149774234328L47.06381078296237,15.4939832360714L47.09359800497691,15.498541346050335L47.24253411504957,15.521540580498286L47.33189578109317,15.53550047877114L47.897852999369306,15.626794479120417L48.22551244152916,15.681909167974187L48.2999804965655,15.694660892517678L48.7467888267835,15.772983500372664L49.16380993498696,15.848867793973856L50.146788261466554,16.038276484544507L50.325511593553756,16.07431301187197L50.45955409261916,16.101661671745607L50.623383813699085,16.135457585975004L50.98083047787349,16.21061697533858L51.055298532909816,16.226520934975948L51.29359630902608,16.277978152449027L51.502106863127814,16.32372400320153L51.636149362193215,16.353478027136344L51.71061741722954,16.370128857806392L51.87444713830948,16.40705504033458L52.663808521694605,16.59070843059445L52.72338296572367,16.60495389720334L52.73827657673094,16.60852350140371L53.1552976849344,16.709845343706647L53.27444657299254,16.739269865715272L53.393595461050666,16.76892503907223L53.46806351608701,16.78756386469696L53.780829347239596,16.866776127752654L53.89997823529773,16.897331939707854L53.974446290334065,16.916552885402172L54.0489143453704,16.935839731481746L54.42125462055207,17.033580986186763L54.65955239666833,17.09722977492883L54.957424616813654,17.178001680435145L55.27019044796626,17.264254301313738L56.104232664373185,17.501451754579225L56.22338155243132,17.536181257599484L56.253168774445854,17.544902075245943L56.35742405149672,17.57552378758638L56.50636016156938,17.619545244925153L56.71487071567111,17.681733241794458L56.95316849178738,17.753608595293684L57.14678543488185,17.81262239027403L57.19146626790365,17.826329670403467L57.34040237797631,17.872207321926428L57.35529598898358,17.876809365495532L57.44465765502718,17.904520477487978L57.81699793020884,18.021252026539L57.83189154121611,18.025963904083493L57.92125320725971,18.05431205313323L58.26380626042684,18.164058161349057L58.6361465356085,18.28533683698146L58.71061459064484,18.30982981349481L58.785082645681165,18.334421640586L58.829763478702965,18.349205293674327L58.93401875575383,18.38383594611673L59.09784847683377,18.438566216056625L59.72338013913896,18.651215775821075L59.7978481941753,18.67691692606377L59.931890693240696,18.72338768105389L60.15529485834969,18.80142472057284L60.34891180144416,18.869653586088926L60.39359263446596,18.88546967854597L60.602103188567696,18.95969547911867L60.70635846561856,18.9970500141509L61.28720929490195,19.208085014477046L61.85316651317808,19.418471994348348L61.882953735192615,19.429675059838754L61.95742179022895,19.457737640552455L62.06167706727982,19.49715705432214L62.21061317735248,19.55375450184376L62.77657039562861,19.771763959607565L63.01486817174487,19.86494710433365L63.089336226781214,19.8942398255718L63.10422983778848,19.900104959857952L63.38720844692654,20.01220151514725L63.72976150009367,20.149439067404725L64.17656983031168,20.331005612132074L64.19146344131893,20.337112381164093L64.32550594038433,20.392172153030177L64.3850803844134,20.416720046531214L64.39997399542067,20.422870749153404L64.45954843944973,20.44748454303968L64.59359093851513,20.503071517987664L65.04039926873313,20.69018467847253L65.07018649074766,20.702760668655376L65.26380343384213,20.784828615071376L65.5021012099584,20.886556843083273L65.88933509614733,21.053603336263265L66.02337759521272,21.111925177198614L66.17231370528539,21.17702377441591L66.20210092729992,21.190083034090506L66.35103703737259,21.255566050221677L66.39571787039439,21.275270265407745L66.41061148140166,21.28184932053398L66.47018592543073,21.308176524436433L66.6638028685252,21.394099643388838L67.21486647579405,21.64156657335387L67.31912175284492,21.688872066556993L67.34890897485946,21.702414595723337L67.36380258586671,21.709180368607733L67.45316425191032,21.74990680668462L67.46805786291758,21.756705529761636L67.51273869593939,21.777123665787784L67.61699397299026,21.82485751149495L67.67656841701933,21.85220617136859L67.79571730507745,21.90705725868141L68.2127384132809,22.10059570672695L68.3467809123463,22.16332189007569L68.42124896738265,22.19828204444428L70.07443978918923,22.994281814332698L70.11912062221103,23.016325493194703L70.29784395429824,23.104763810183673L70.38720562034183,23.149147719641253L70.5361417304145,23.22337352021397L70.64039700746537,23.27551170833451L71.02763089365429,23.470477998060193L71.11699255969789,23.515762546116033L71.26592866977056,23.59148208875413L71.3850775578287,23.652275194135893L71.57869450092316,23.751488224111224L71.66805616696675,23.797442759416956L72.60635366042455,24.28661033563874L73.60422559791141,24.81995313676484L73.64890643093321,24.844149561544622L73.70848087496228,24.87645173370862L73.84252337402768,24.94930460958888L74.33401253726747,25.218507683284813L74.72124642345639,25.432881636462994L74.9893314215872,25.582464527555L75.8829480820232,26.08796441591818L75.91273530403774,26.10499966550212L76.31486280123393,26.336079366338055L76.83613918648825,26.63879278592735L76.97018168555365,26.71720326096266L77.07443696260452,26.77835881846323L77.14890501764086,26.82211667426105L77.17869223965539,26.839646176734274L77.61060695886611,27.095087053313065L78.05741528908412,27.361884762947824L78.38507473124398,27.55916854955436L78.57869167433844,27.6764053348922L78.63826611836751,27.712573662990152L78.78720222844018,27.803186692691966L79.01060639354918,27.939655407121673L79.59145722283257,28.29745056537212L79.79996777693431,28.426933838966633L79.81486138794158,28.43620382649006L79.99358472002876,28.547663344722068L80.21698888513777,28.687569862581668L80.30635055118138,28.74370600740664L80.32124416218863,28.75306386211039L80.45528666125404,28.837482255599863L80.54464832729764,28.89389298536332L80.58932916031944,28.922131300437666L80.69358443737029,28.988119552855654L81.0063502685229,29.186919048322675L81.02124387953016,29.1964087037969L81.03613749053743,29.20590934266866L81.0510311015447,29.21540998154042L81.1850736006101,29.30105851555434L81.25954165564643,29.348737444273805L81.76592442989349,29.674801567032308L81.94464776198069,29.79064346088262L81.95954137298796,29.800308850717474L82.34677525917688,30.052729292972884L83.06166858752569,30.52359852889366L83.35954080767102,30.721651153327983L83.50847691774368,30.821083851254112L83.52337052875095,30.831034809425002L84.26805107911429,31.332371990120674L84.28294469012154,31.342476715857106L84.3871999671724,31.413209796012225L84.40209357817969,31.42332550514621L84.99783801847033,31.830194483603663L85.29571023861567,32.03521058207809L86.11485884401534,32.604491059953816L86.24890134308073,32.69839910891751L86.94890106042226,33.19225659588871L86.97868828243679,33.213399636152474L87.157411614524,33.340477545685786L87.52975188970566,33.606407566914925L87.54464550071292,33.61708342932343L87.66379438877107,33.702534262181615L87.88719855388005,33.863221368186174L88.54251743819978,34.337868892860584L88.55741104920705,34.34870950623218L88.89996410237418,34.59883441840181L88.91485771338145,34.609740932158644L88.95953854640324,34.642471456826684L89.04890021244685,34.70800938994556L89.24251715554132,34.850299305071275L89.61485743072298,35.12514784510256L89.80847437381745,35.26867888415023L90.64251659022436,35.89179997676514L90.91060158835516,36.09374072392849L91.04464408742056,36.19500764924372L91.58081408368216,36.6020523620618L91.93826074785656,36.875176508679374L92.02762241390016,36.943679959133945L92.16166491296556,37.04658341068259L92.68294129821989,37.44865264441525L92.80209018627802,37.54096810073568L92.95102629635069,37.656568359840136L93.05528157340156,37.737636817080016L93.14464323944516,37.80721664049348L93.17443046145969,37.83042455949467L93.36804740455416,37.98153414284468L93.81485573477215,38.331772723587875L93.90421740081575,38.40206646784142L94.24677045398289,38.67234591449622L94.78294045024448,39.097853718578406L94.81272767225902,39.1215888406615L95.00634461535347,39.2760483602611L95.81059960974586,39.92179525180762L95.91485488679673,40.00599397734629L96.13825905190573,40.186791684245875L96.7786843252182,40.70789898051285L96.94251404629813,40.84187446370106L97.6276201526324,41.40504817254477L97.65740737464692,41.42963999963595L97.95527959479226,41.67604154003965L97.98506681680679,41.70073221770869L98.4765559800466,42.1093585397725L98.50634320206113,42.13420298500711L98.59570486810472,42.208780254301075L99.17655569738812,42.69544361588383L99.42974708451165,42.90859841193512L99.63825763861338,43.08460735750741L99.71272569364972,43.147564192204484L99.74251291566424,43.17276010616037L99.95102346976599,43.34939510539242L99.96591708077325,43.36202601256299L99.99570430278779,43.387298810301644L100.05527874681685,43.43786637257401L100.11485319084592,43.48846688503902L100.20421485688951,43.56442806242298L100.38293818897672,43.716592051936786L100.53187429904938,43.84361504448242L100.57655513207118,43.88177136753504L100.91910818523831,44.17487431427719L101.12761873934005,44.35382681039012L101.20208679437637,44.41782706785344L101.21698040538364,44.43064469278217L101.33612929344177,44.53317470881447L101.8574056786961,44.98332925697552L101.9914481777615,45.0994896693545L102.25953317589229,45.33230474700167L102.72123511711756,45.73479134984082L102.89995844920477,45.89111804702216L103.12336261431376,46.086919074960846L103.40634122345183,46.33558319525771L103.48080927848817,46.40114309517165L103.73400066561169,46.62440261695939L103.85314955366982,46.729656515581496L103.86804316467709,46.7428256092315L103.98719205273522,46.848233275419176L104.88080871317122,47.64269536965206L104.89570232417849,47.65599626407254L105.05953204525842,47.80242692007067L105.10421287828021,47.84239550371733L105.61059565252728,48.296635875763116L105.72974454058541,48.403833835749765L105.93825509468715,48.5917158340624L106.68293564505046,49.2657120240808L107.21910564131207,49.753847160933844L107.606339527501,50.107853047033146L107.7850628595882,50.271648454541406L108.23187118980618,50.68226277155985L108.39570091088612,50.83322957074185L108.44038174390793,50.87443927831049L108.49995618793699,50.92940019959872L108.87229646311866,51.273597911695134L109.393572848373,51.757306739339725L110.03399812168546,52.35445209677343L110.19782784276539,52.50771442604122L110.22761506477993,52.53560127239429L110.24250867578718,52.54955018726959L110.34676395283805,52.64722554158939L110.65952978399065,52.94073487404047L110.67442339499792,52.95473870590348L111.1212317252159,53.37535889808055L111.28506144629584,53.52997218524568L111.62761449946296,53.85387257868889L112.64038004795711,54.816479505855725L112.78931615802976,54.958659587006025L112.90846504608791,55.07252446929921L113.47442226436402,55.61470890544469L113.84676253954571,55.97263586446563L114.21910281472736,56.33150739567496L114.56165586789449,56.66250306392878L114.59144308990903,56.69132349907271L115.09782586415609,57.18216055172053L115.14250669717788,57.22555595539954L115.72335752646127,57.790838476570826L116.37867641078101,58.43122547011801L116.61697418689728,58.664765452002825L116.66165501991907,58.708600191583415L116.92974001804987,58.97183928041534L117.048888906108,59.08897721517532L117.16803779416614,59.20620301711563L117.21271862718794,59.25019152426178L117.49569723632601,59.529038020997504L117.55527168035508,59.58779919783443L117.61484612438414,59.64659332486397L117.6297397353914,59.661289110771975L117.64463334639868,59.67599588007754L118.2999522307184,60.324214036070444L118.68718611690734,60.70844623219875L119.1042072251108,61.12323424028229L119.43186666727067,61.44983654952024L119.50633472230699,61.52415021727326L119.83399416446686,61.85151038094145L120.01271749655406,62.0303310762839L120.05739832957586,62.0750554710652L120.07229194058313,62.089970924924L120.11697277360491,62.13471728650039L120.14675999561945,62.16455917761553L120.35527054972118,62.37355126599928L120.399951382743,62.418363527960906L120.44463221576478,62.46319775671762L120.51910027080112,62.53792879357715L120.57867471483019,62.59774437657788L120.86165332396824,62.88211552227604L120.87654693497552,62.89708589312252L121.02548304504818,63.04694336915301L121.71058915138245,63.73779907439473L121.82973803944057,63.858199078223976L121.8595252614551,63.88830457088004L122.09782303757137,64.12936818007948L122.20207831462224,64.23492961383272L122.64888664484025,64.68792886195655L122.7084610888693,64.74841443220721L122.73824831088383,64.77865172563375L122.9318652539783,64.97536437556823L122.99143969800737,65.03592682960166L123.48292886124717,65.53622058753109L123.7808010813925,65.84001038007925L123.8254819144143,65.88561344666373L123.9595244134797,66.02247756340486L124.67441774182849,66.75388397236284L124.71909857485029,66.79967375670547L124.7637794078721,66.84547452444566L126.34250217464236,68.46947968465297L126.44675745169322,68.57710599714363L126.69994883881674,68.838664626152L126.8935657819112,69.03886999650408L126.98292744795482,69.13131725359501L127.13186355802748,69.28548022146104L127.7425016093254,69.91847538846405L127.75739522033268,69.93392902880228L127.90633133040534,70.0885478076662L128.0105866074562,70.19683312400926L128.08505466249255,70.27420566797706L128.18930993954342,70.38256237640411L128.3680332716306,70.56841244617193L128.7701607688268,70.98702267659922L129.51484131919014,71.76378502569702L130.49781964566972,72.79209463694582L130.52760686768426,72.82330945275342L130.5573940896988,72.854524268561L130.6914365887642,72.9950293815865L130.8701599208514,73.18245556890123L131.4510107501348,73.79230871728831L131.68930852625104,74.04280706497427L131.95739352438184,74.32482776359893L132.12122324546178,74.49727808836842L132.34462741057078,74.73256992216078L132.38930824359258,74.77964476401557L132.58292518668705,74.98370530690406L132.67228685273065,75.07792089099885L132.70207407474518,75.10933340796214L132.73186129675972,75.14074592492545L132.970159072876,75.39213941951091L133.8935629553265,76.36775068936463L134.22122239748637,76.71446909119638L134.2361160084936,76.7302357583645L134.5190946176317,77.02990128513656L134.77228600475522,77.29818724513794L134.80207322676978,77.32975902136556L135.39781766706045,77.96164486521708L135.7701579422421,78.35698127625794L136.0829237733947,78.68928946051771L136.14249821742376,78.7526087473336L136.6488809916708,79.29111923700209L136.66377460267807,79.30696827965176L136.85739154577254,79.51300583409737L136.94675321181617,79.6081275484892L137.27441265397601,79.95702066303379L137.55739126311408,80.25849845039988L137.57228487412135,80.27436945984464L137.58717848512862,80.29024046928936L137.63185931815042,80.33785898932236L137.67654015117222,80.38547750935537L137.70632737318675,80.41722501994361L137.7659018172158,80.48072553281888L137.82547626124486,80.5442370290917L137.89994431628122,80.62362502650804L138.1829229254193,80.92540485730646L138.2573909804556,81.00483678831294L138.3020718134774,81.05250473363488L138.42122070153553,81.17962657675837L138.4510079235501,81.211412529238L138.68930569966633,81.46573859096652L138.77866736570996,81.56112939859807L138.95739069779714,81.75195494745134L139.65739041513868,82.49975956893594L139.88079458024768,82.73855510654343L140.02973069032032,82.89778691237399L140.25313485542932,83.13668130055936L140.47653902053833,83.37563060573243L141.44462373601067,84.41167252884912L141.6531342901124,84.63493205063686L141.6829215121269,84.6668278370919L141.83185762219958,84.82632324446338L142.15951706435945,85.17727574604666L142.53185733954112,85.57617077789035L142.78504872666466,85.84747168051635L142.88930400371552,85.95918930859054L143.0233465027809,86.10284116501113L143.12760177983176,86.21457526818162L143.17228261285356,86.26246288145435L143.35100594494077,86.45402431794274L143.54462288803524,86.66156110615252L143.7829206641515,86.91701296612887L143.91696316321693,87.0607142478384L144.81057982365292,88.01881798201399L144.82547343466018,88.0347878420366L144.84036704566742,88.05075770205917L144.9446223227183,88.16254672221737L145.33185620890723,88.57775759110618L145.80845176113976,89.08878212843177L146.07653675927057,89.37622313374224L146.1807920363214,89.48800117050288L146.35951536840864,89.67961203228023L146.4488770344522,89.77542020901826L146.70206842157577,90.04685291241475L146.82121730963388,90.17457884240291L147.05951508575015,90.43001422728294L147.31270647287369,90.70138652199294L147.37228091690275,90.76523301189073L147.43185536093182,90.8290795017885L147.56589785999722,90.9727313582091L147.7595148030917,91.18020224603363L147.77440841409893,91.19616112265871L149.42759923590555,92.96661341396043L149.50206729094188,93.04630894650788L149.59142895698548,93.14193589718653L149.68079062302908,93.2375573561664L149.99355645418166,93.57216107051197L150.03823728720346,93.61995532490559L150.09781173123253,93.68367550573166L150.27653506331976,93.87480858971603L150.45525839540693,94.06590872350776L150.54462006145053,94.16144231530733L150.7829178375668,94.4161582876485L150.93185394763944,94.57531870139505L150.97653478066127,94.62305803880098L151.02121561368307,94.6707973762069L151.09568366871937,94.75036110798388L151.36376866685018,95.03671475693791L151.57227922095194,95.2593647001622L151.58717283195918,95.27526865979955L151.82547060807548,95.529644146817L152.18291727224985,95.91104811807887L152.58504476944606,96.33988938331431L152.8680233785841,96.64149897145087L153.04674671067133,96.83192362629394L153.1361083767149,96.92711124107099L153.2850444867876,97.08573346833809L153.34461893081664,97.14916808082815L153.46376781887477,97.2760208307119L153.49355504088933,97.30772989940878L153.5978103179402,97.41869516475148L153.79142726103464,97.62472722749834L154.17866114722358,98.0365607016437L154.2978100352817,98.16322124207052L154.44674614535438,98.3215029840139L154.5212142003907,98.40062737988927L154.7892991985215,98.68537196110377L155.37015002780493,99.30178768952074L155.56376697089937,99.5070893563312L155.9956816901101,99.96475105671061L156.39780918730628,100.39044008685217L156.5169580753644,100.51649104871555L156.54674529737898,100.54800241625671L156.68078779644435,100.68975414490296L156.7552558514807,100.76848863016569L156.81483029550978,100.83146743165783L156.84461751752428,100.86295134070514L157.00844723860422,101.03607165272453L157.09780890464782,101.13047395457751L157.12759612666235,101.16193589682972L157.3807875137859,101.42926630124516L157.61908528990216,101.68070922111954L157.81270223299663,101.88489607307972L158.60206361638174,102.71620746605802L158.616957227389,102.73187528264828L158.69142528242537,102.81020338220202L158.840361392498,102.96680466432184L158.87014861451254,102.99811833070727L159.09355277962155,103.23287746971899L159.27227611170875,103.42056725857469L159.28716972271602,103.43620761667108L159.73397805293402,103.90497353196302L159.7488716639413,103.9205864315656L159.83823332998486,104.01425833748219L159.98716944005753,104.17031594142381L160.0169566620721,104.20151977383384L160.07653110610116,104.26391645525638L160.13610555013022,104.3263021532814L160.19567999415926,104.38867686790886L160.25525443818833,104.45104059913878L160.2850416602029,104.48221697305497L160.44887138128283,104.65362936675697L160.9850413775444,105.21398034243299L161.46163692977694,105.71121522414761L161.71482831690045,105.97503094135035L161.7892963719368,106.0525792196788L162.04248775906032,106.31609289344921L162.16163664711848,106.4400130761899L162.42972164524926,106.71863990497482L162.53397692230013,106.8269197296191L162.7722746984164,107.07425485881366L162.84674275345273,107.15150109370978L162.9063171974818,107.21328270487011L163.02546608553993,107.33680199360059L163.36801913870704,107.69160966772027L163.4275935827361,107.75326496980891L163.7105721918742,108.04593956404699L163.88929552396138,108.23060891857928L164.02333802302678,108.36902718607229L164.05312524504131,108.3997806991832L164.26163579914302,108.61491799849038L164.67865690734652,109.04463793552901L165.46801829073164,109.85594856158765L165.60206078979704,109.99344422368729L165.7509968998697,110.1461189411867L166.74886883735655,111.16636673864144L167.06163466850916,111.48517083562626L167.56801744275623,112.00031414702923L167.6722727198071,112.10621606610619L168.07440021700327,112.51418338431759L168.6999318793085,113.14715658452553L169.04248493247562,113.49291943077134L169.3254635416137,113.77808138109235L169.60844215075176,114.06281497890929L169.74248464981716,114.1975373331302L170.24886742406423,114.70560184481887L170.63610131025314,115.09316201040168L170.71056936528947,115.16759649552765L170.99354797442754,115.45016087233051L171.187164917522,115.64323252598062L171.20205852852928,115.65807109605666L171.91695185687806,116.36900170615138L172.02120713392895,116.47242686908317L172.0361007449362,116.48719679292455L172.42333463112513,116.87075351010418L173.21269601451024,117.64981138928775L173.48078101264105,117.91352551006325L173.94248295386635,118.3666483214094L174.06163184192445,118.48336339536412L174.10631267494628,118.52711026776441L174.12120628595352,118.54168798214884L174.25524878501892,118.6728352404706L174.28503600703345,118.70196321074566L174.37439767307706,118.78931417137821L174.46375933912066,118.87661296087245L175.31269516653484,119.70337448141996L175.78929071876738,120.16543777836335L176.02758849488364,120.39589966308768L176.20631182697082,120.56849551787455L176.44460960308712,120.7982819236502L176.5786521021525,120.9273670490839L176.68290737920336,121.02768116466257L176.78716265625425,121.12792114230786L177.05524765438503,121.38533353874503L177.21907737546496,121.54239612356149L177.2488645974795,121.5709309903694L177.44248154057397,121.75626758630223L178.3063109789954,122.5799070760991L178.70843847619165,122.96149501926975L178.84248097525702,123.08843014463508L179.27439569446776,123.4965402470145L179.67652319166396,123.8752642692767L179.89992735677293,124.08514326701179L180.31694846497643,124.47590783882679L180.85311846123804,124.97636909356868L181.13609707037608,125.2396054365512L181.59779901160135,125.66776023944043L182.08928817484113,126.12169033050574L182.17864984088473,126.20401913261331L182.22333067390653,126.24515744809794L182.43184122800827,126.43693031498897L182.44673483901553,126.45061562832332L183.37013872146608,127.29555741764827L183.74247899664775,127.63428539776996L183.84673427369862,127.72892384267006L184.3382234369384,128.17385578530104L184.6956701011128,128.4961663319504L186.06588231378132,129.72158948714386L186.27439286788305,129.90664051474067L186.3786481449339,129.99902461729576L186.6020523100429,130.1966653643223L186.8701373081737,130.43325323902437L187.19779675033357,130.72154820349354L187.25737119436263,130.77386212597472L187.57013702551524,131.04799125346716L187.83822202364604,131.2822561395896L187.8531156346533,131.29525224472835L187.88290285666784,131.32123621745768L188.0765197997623,131.48994394951552L188.24034952084224,131.63243156579696L188.58290257400935,131.92956267358673L188.7914131281111,132.10989633194026L188.99992368221282,132.2898290962836L189.1041789592637,132.3796458296638L189.22332784732183,132.48216760814793L189.35737034638723,132.59734775229649L189.93822117567063,133.09451398777648L190.0424764527215,133.1834108616127L190.05737006372877,133.19610217746975L190.1169445077578,133.24684821995214L190.20630617380144,133.3229027562152L190.3105614508523,133.4115360285105L190.57864644898308,133.63897473306207L190.90630589114295,133.91602269845066L191.05524200121562,134.04161235761737L191.189284500281,134.15446127563814L191.2041781112883,134.16698784053207L191.3382206103537,134.2796418032465L191.57651838646993,134.47948746732916L191.63609283049902,134.52936307555655L191.84460338460073,134.70365037356453L191.9488586616516,134.79063613622887L191.96375227265887,134.80305286714741L192.23183727078967,135.02619980911035L192.32119893683327,135.10042560968307L192.4403478248914,135.19926794999145L192.87226254410214,135.55639861269074L192.99141143216028,135.6545901866949L193.57226226144368,136.1312394355709L193.61694309446546,136.1677647240889L193.79566642655269,136.31365993945695L193.97438975863986,136.459233890447L194.28715558979246,136.71320573760488L194.86800641907587,137.1822160334921L195.09141058418487,137.36167925759062L195.1211978061994,137.38556814723927L195.13609141720667,137.3975098462142L195.3446019713084,137.5644437595694L195.86587835656272,137.97980565017437L195.89566557857728,138.00345290507715L196.02970807764265,138.1097584640137L196.04460168864992,138.12156012467003L196.1488569657008,138.20409486548144L196.31268668678072,138.33356166397965L196.38715474181703,138.3923173491178L196.9084311270714,138.80195688960464L196.96800557110046,138.84858964970846L197.19140973620944,139.02312132831167L197.23609056923127,139.05796341115672L197.2509841802385,139.0695728623561L197.4297075123257,139.20870230483976L197.9211966755655,139.58953102065547L198.11481361865998,139.7388379538843L198.68077083693612,140.17293614776716L198.8297069470088,140.28659097258236L199.0382175011105,140.44529832118042L199.27651527722676,140.6260932822306L199.47013222032123,140.77252668407812L199.54460027535757,140.8287369668365L199.5743874973721,140.85120487942845L199.78289805147384,141.0081974450856L200.00630221658284,141.17586724607597L200.1403447156482,141.27620195552504L200.39353610277178,141.46517405604348L200.45311054680081,141.50953325285658L200.52757860183715,141.56492801834764L200.66162110090258,141.66447878779732L200.70630193392438,141.69761707109902L200.72119554493162,141.7086595044004L200.84034443298975,141.79689874730897L201.07864220910602,141.97289808240845L201.34672720723682,142.17012832495197L201.4063016512659,142.2138477388584L201.80842914846207,142.5078870202408L201.95736525853474,142.61632061245064L202.07651414659287,142.7028862601591L202.12119497961467,142.73530513092194L202.40417358875274,142.94009744267152L202.5084288658036,143.0153144948722L202.92544997400708,143.31492510465654L203.02970525105795,143.38951335734805L203.28289663818148,143.57012846526354L203.4467263592614,143.68659915862298L203.6254496913486,143.8132995138659L203.6701305243704,143.84491659660836L204.01268357753753,144.08653349445888L204.02757718854483,144.0970061640129L204.1616196876102,144.19115310187308L204.23608774264653,144.24336542792702L204.31055579768287,144.2955118535957L204.3850238527192,144.34759237887917L204.4743855187628,144.41000278954863L204.50417274077734,144.430786123543L204.51906635178457,144.4411722988414L204.84672579394444,144.66902837249944L204.99566190401714,144.77217620464333L205.770129676395,145.30427513599807L206.41055494970746,145.7388332596529L206.54459744877286,145.8291579751693L206.64885272582373,145.89926088289056L206.91693772395453,146.0789176893707L207.0509802230199,146.16841727714697L207.18502272208534,146.2576971969724L207.2445971661144,146.29730744727433L207.30417161014344,146.3368737639861L207.33395883215798,146.35663976078334L207.5126821642452,146.47501195484182L207.5424693862597,146.49470244078097L207.78076716237598,146.65183504475675L208.00417132748495,146.79851145427483L208.03395854949952,146.81802071415458L208.68927743381926,147.2444675987264L208.73395826684106,147.27334981548148L208.86800076590643,147.35984544403064L209.1956602080663,147.57033813910326L209.49353242821164,147.76052802382392L209.7765110373497,147.94017796568062L209.8658727033933,147.99669990234415L210.52119158771302,148.40811463445831L210.67012769778572,148.50085844328282L211.5190635251999,149.02410750207002L211.638212413258,149.0968093562341L211.8169357453452,149.20551890630713L211.92119102239607,149.26874346131922L212.0999143544833,149.37680224508802L212.20416963153414,149.4396464999603L212.27863768657048,149.48444915144907L212.3233185195923,149.51129669380998L212.65097796175218,149.70738878178346L213.18714795801375,150.0252620358268L213.5148074001736,150.21767605854922L213.55948823319542,150.24380556129597L213.57438184420266,150.2525085309214L213.67863712125353,150.31335655329087L213.87225406434803,150.42598031166207L214.03608378542796,150.52089334150065L214.15523267348607,150.58970020831225L214.25948795053694,150.64975262082245L214.36374322758783,150.70966156270225L214.55736017068227,150.8205423931764L214.7956579467985,150.95633082342098L214.85523239082758,150.99016037430533L214.95948766787845,151.04924968014376L215.01906211190752,151.08295017610703L215.0339557229148,151.0913682638588L215.2573598880238,151.2172826197153L215.28714711003832,151.2340206311033L215.59991294119092,151.40906235122978L216.4190615465906,151.86131884709502L216.56799765666324,151.94258157317887L216.80629543277954,152.07198247129185L217.02969959788854,152.1926014566095L217.2084229299757,152.28861145327738L217.49140153911378,152.4397450628095L217.55097598314285,152.4714246136255L217.72969931523005,152.56617426542564L217.77438014825185,152.5897940618346L217.93820986933179,152.6761675000861L217.99778431336085,152.70748597170797L218.23608208947712,152.83227658870368L218.68289041969513,153.06417112034458L218.6977840307024,153.07185400692353L218.92118819581137,153.18673348056444L219.6658687461747,153.56471818287974L219.7999112452401,153.63194481337035L220.23182596445085,153.84687823336068L220.24671957545812,153.8542439743357L220.48501735157436,153.97167365559284L220.6935279056761,154.07377943789515L220.7382087386979,154.09558010908657L220.81267679373423,154.13185415238584L221.1403362358941,154.29054228003818L221.15522984690136,154.29771993033035L221.3637404010031,154.3978809648058L221.6616126211484,154.53991620240106L221.81054873122108,154.61046805649676L222.61480372561348,154.9860755397071L222.91267594575882,155.12288062068646L223.00203761180242,155.16367845084733L223.04671844482422,155.1840348052623L223.27012260993322,155.28539440299429L223.43395233101316,155.35927628593154L223.6275692741076,155.44610072994453L223.70203732914393,155.47935365245806L223.92544149425294,155.5786394474421L224.0445903823111,155.63130140633282L224.35735621346367,155.76858014633106L224.3871434354782,155.7815817431686L224.59565398957994,155.8722380199982L225.04246231979795,156.06441178089946L225.17650481886335,156.12150760008444L225.71267481512496,156.34731458363902L225.9211853692267,156.43401340504263L226.01054703527026,156.4709783726934L226.65097230858274,156.73252876415359L226.7552275856336,156.77454609467256L227.44033369196785,157.04674763589682L227.49990813599692,157.07009559321665L227.61905702405505,157.1166370538284L227.81267396714952,157.1918269907664L228.25948229736753,157.36325997833876L228.73607784960004,157.54291232281366L228.78075868262184,157.55958443381647L228.87012034866547,157.59284147510408L229.5552264549997,157.84392537517135L229.73394978708689,157.90829288998992L229.98714117421045,157.99867629803694L230.29990700536305,158.10902374726805L230.52331117047206,158.18696056328443L230.74671533558106,158.26416114843454L230.82118339061736,158.28973049790676L230.92543866766823,158.3253905006373L231.08926838874817,158.38110241173231L231.40203421990077,158.48635836974145L231.80416171709697,158.61955677755375L231.89352338314058,158.64883062107737L232.0126722711987,158.6876775252503L232.20628921429315,158.75035394007895L232.31054449134402,158.78387183705811L232.50416143443852,158.8456898307228L232.83182087659839,158.94903296140419L233.01054420868556,159.004726681247L233.21905476278727,159.06910003099551L233.78501198106343,159.24055086658888L234.17224586725237,159.35509534660483L234.3658628103468,159.4115239243893L234.69352225250668,159.50573590455676L234.79777752955755,159.53537391635507L234.87224558459386,159.55644384837896L235.67650057898626,159.7786769373435L235.88501113308803,159.83470050234368L236.25735140826967,159.9331083119869L236.36160668532054,159.96028672919866L236.43607474035687,159.9795993176162L236.5105427953932,159.99882781439632L236.555223628415,160.01032468577094L236.5850108504295,160.01797239115464L236.67437251647314,160.04083519121127L236.95735112561118,160.11243527330967L236.97224473661845,160.11616997170432L236.98713834762574,160.11990140940281L237.01692556964025,160.1273541594802L237.0913936246766,160.14592725633528L237.7169252869818,160.2986169043907L237.8062869530254,160.31994425979443L238.49139305935967,160.47941684229292L238.56586111439597,160.4963199478752L238.78926527950497,160.5465221405638L238.83394611252677,160.55647121096325L238.9233077785704,160.5762778806545L238.9977758336067,160.59269033727483L239.11692472166484,160.61877419027553L239.25096722073027,160.64785942826953L239.31054166475934,160.66069799029984L239.34032888677385,160.66709702067575L239.54883944087558,160.71151010478306L239.77224360598458,160.75835789921683L240.14458388116626,160.83473996382682L240.23394554720983,160.85275573906455L240.4871369343334,160.9031358971164L240.5616049893697,160.91776655490932L240.576498600377,160.9206824753405L240.59139221138426,160.92359504926773L240.68075387742783,160.940998757516L240.9190516535441,160.98680965057582L240.96373248656593,160.99530213368436L241.08288137462404,161.01779904931047L241.11266859663857,161.02338916961915L241.20203026268217,161.04007784152603L241.88713636901642,161.16394705443753L242.2594766441981,161.22823871516684L242.49777442031436,161.26826487584276L242.57224247535072,161.2805936537732L242.72117858542336,161.30499473013995L242.8403274734815,161.32426939151284L242.87011469549603,161.32905377664267L243.13819969362683,161.3714980009332L243.31692302571403,161.3991779646967L243.4956463578012,161.4263647910722L244.49351829528808,161.5690871345721L244.56798635032442,161.57912059693624L244.65734801636802,161.59104745116295L244.77649690442612,161.6067576568031L245.1488371796078,161.65443525550177L245.93819856299297,161.74840714546366L246.37011328220368,161.79573542063588L246.44458133724,161.80360285832623L246.59351744731265,161.81907947370112L246.6233046693272,161.8221334588717L246.77224077939988,161.83719678101028L246.8020280014144,161.84016811182394L247.11479383256702,161.87053493211445L247.12968744357426,161.87194308090605L247.41266605271232,161.8980426581849L247.62117660681406,161.91647751868499L247.75521910587946,161.92797157985436L247.94883604897393,161.94408085608907L248.008410493003,161.94892026546634L248.38075076818467,161.97791570560466L248.4105379901992,161.98014216041685L248.48500604523554,161.98564788876087L248.8424527094099,162.01087401778594L249.42330353869335,162.04762405836647L249.46798437171512,162.05023336610031L249.75096298085316,162.0660368233598L249.8850054799186,162.0730872689614L250.00415436797672,162.07911932622042L250.04883520099852,162.0813243183583L250.4211754761802,162.09848942194841L250.79351575136184,162.11349376463656L251.62755796776875,162.13926037013658L251.7913876888487,162.14304708280216L251.83606852187052,162.14400717815667L251.95521740992862,162.14641521834838L252.04457907597225,162.14807595176472L252.38713212913936,162.15328831197837L252.5956426832411,162.15556497407005L253.19138712353177,162.15833298365274" fill="none"></path></g></g></g></g></g></g><g transform="translate(61, 176)" clip-path="url(#clip_1)"><clipPath id="clip_1"><rect width="268" height="23"></rect></clipPath><g><g><line x1="0" y1="0" x2="0" y2="5" style="visibility: inherit;" fill="rgb(0, 0, 0)" stroke="rgb(204, 204, 204)" stroke-width="1px"></line><line x1="29.787222014533146" y1="0" x2="29.787222014533146" y2="5" style="visibility: inherit;" fill="rgb(0, 0, 0)" stroke="rgb(204, 204, 204)" stroke-width="1px"></line><line x1="59.57444402906629" y1="0" x2="59.57444402906629" y2="5" style="visibility: inherit;" fill="rgb(0, 0, 0)" stroke="rgb(204, 204, 204)" stroke-width="1px"></line><line x1="89.36166604359944" y1="0" x2="89.36166604359944" y2="5" style="visibility: inherit;" fill="rgb(0, 0, 0)" stroke="rgb(204, 204, 204)" stroke-width="1px"></line><line x1="119.14888805813258" y1="0" x2="119.14888805813258" y2="5" style="visibility: inherit;" fill="rgb(0, 0, 0)" stroke="rgb(204, 204, 204)" stroke-width="1px"></line><line x1="148.93611007266574" y1="0" x2="148.93611007266574" y2="5" style="visibility: inherit;" fill="rgb(0, 0, 0)" stroke="rgb(204, 204, 204)" stroke-width="1px"></line><line x1="178.72333208719888" y1="0" x2="178.72333208719888" y2="5" style="visibility: inherit;" fill="rgb(0, 0, 0)" stroke="rgb(204, 204, 204)" stroke-width="1px"></line><line x1="208.51055410173205" y1="0" x2="208.51055410173205" y2="5" style="visibility: inherit;" fill="rgb(0, 0, 0)" stroke="rgb(204, 204, 204)" stroke-width="1px"></line><line x1="238.29777611626517" y1="0" x2="238.29777611626517" y2="5" style="visibility: inherit;" fill="rgb(0, 0, 0)" stroke="rgb(204, 204, 204)" stroke-width="1px"></line><line x1="268.08499813079834" y1="0" x2="268.08499813079834" y2="5" style="visibility: inherit;" fill="rgb(0, 0, 0)" stroke="rgb(204, 204, 204)" stroke-width="1px"></line></g><g transform="translate(0, 8)"><text style="text-anchor: middle; visibility: hidden; font-family: Roboto, sans-serif; font-size: 12px; font-weight: 200;" x="0" y="0" dx="0em" dy="0.95em" fill="rgb(33, 33, 33)" stroke="none" stroke-width="1px">-2k</text><text style="text-anchor: middle; visibility: inherit; font-family: Roboto, sans-serif; font-size: 12px; font-weight: 200;" x="29.787222014533146" y="0" dx="0em" dy="0.95em" fill="rgb(33, 33, 33)" stroke="none" stroke-width="1px">0</text><text style="text-anchor: middle; visibility: inherit; font-family: Roboto, sans-serif; font-size: 12px; font-weight: 200;" x="59.57444402906629" y="0" dx="0em" dy="0.95em" fill="rgb(33, 33, 33)" stroke="none" stroke-width="1px">2k</text><text style="text-anchor: middle; visibility: inherit; font-family: Roboto, sans-serif; font-size: 12px; font-weight: 200;" x="89.36166604359944" y="0" dx="0em" dy="0.95em" fill="rgb(33, 33, 33)" stroke="none" stroke-width="1px">4k</text><text style="text-anchor: middle; visibility: inherit; font-family: Roboto, sans-serif; font-size: 12px; font-weight: 200;" x="119.14888805813258" y="0" dx="0em" dy="0.95em" fill="rgb(33, 33, 33)" stroke="none" stroke-width="1px">6k</text><text style="text-anchor: middle; visibility: inherit; font-family: Roboto, sans-serif; font-size: 12px; font-weight: 200;" x="148.93611007266574" y="0" dx="0em" dy="0.95em" fill="rgb(33, 33, 33)" stroke="none" stroke-width="1px">8k</text><text style="text-anchor: middle; visibility: inherit; font-family: Roboto, sans-serif; font-size: 12px; font-weight: 200;" x="178.72333208719888" y="0" dx="0em" dy="0.95em" fill="rgb(33, 33, 33)" stroke="none" stroke-width="1px">10k</text><text style="text-anchor: middle; visibility: inherit; font-family: Roboto, sans-serif; font-size: 12px; font-weight: 200;" x="208.51055410173205" y="0" dx="0em" dy="0.95em" fill="rgb(33, 33, 33)" stroke="none" stroke-width="1px">12k</text><text style="text-anchor: middle; visibility: inherit; font-family: Roboto, sans-serif; font-size: 12px; font-weight: 200;" x="238.29777611626517" y="0" dx="0em" dy="0.95em" fill="rgb(33, 33, 33)" stroke="none" stroke-width="1px">14k</text><text style="text-anchor: middle; visibility: hidden; font-family: Roboto, sans-serif; font-size: 12px; font-weight: 200;" x="268.08499813079834" y="0" dx="0em" dy="0.95em" fill="rgb(33, 33, 33)" stroke="none" stroke-width="1px">16k</text></g><line x1="0" y1="0" x2="268.08499813079834" y2="0" fill="rgb(0, 0, 0)" stroke="rgb(204, 204, 204)" stroke-width="1px"></line></g></g></g></g></svg>