<svg viewBox="0 0 330 200" xmlns="http://www.w3.org/2000/svg"><g><g><g><g><g><line x1="41.149001121520996" y1="176.55199909210205" x2="36.149001121520996" y2="176.55199909210205" style="visibility: inherit;" fill="rgb(0, 0, 0)" stroke="rgb(204, 204, 204)" stroke-width="1px"></line><line x1="41.149001121520996" y1="151.33028493608748" x2="36.149001121520996" y2="151.33028493608748" style="visibility: inherit;" fill="rgb(0, 0, 0)" stroke="rgb(204, 204, 204)" stroke-width="1px"></line><line x1="41.149001121520996" y1="126.1085707800729" x2="36.149001121520996" y2="126.1085707800729" style="visibility: inherit;" fill="rgb(0, 0, 0)" stroke="rgb(204, 204, 204)" stroke-width="1px"></line><line x1="41.149001121520996" y1="100.88685662405831" x2="36.149001121520996" y2="100.88685662405831" style="visibility: inherit;" fill="rgb(0, 0, 0)" stroke="rgb(204, 204, 204)" stroke-width="1px"></line><line x1="41.149001121520996" y1="75.66514246804374" x2="36.149001121520996" y2="75.66514246804374" style="visibility: inherit;" fill="rgb(0, 0, 0)" stroke="rgb(204, 204, 204)" stroke-width="1px"></line><line x1="41.149001121520996" y1="50.443428312029155" x2="36.149001121520996" y2="50.443428312029155" style="visibility: inherit;" fill="rgb(0, 0, 0)" stroke="rgb(204, 204, 204)" stroke-width="1px"></line><line x1="41.149001121520996" y1="25.22171415601459" x2="36.149001121520996" y2="25.22171415601459" style="visibility: inherit;" fill="rgb(0, 0, 0)" stroke="rgb(204, 204, 204)" stroke-width="1px"></line><line x1="41.149001121520996" y1="0" x2="36.149001121520996" y2="0" style="visibility: inherit;" fill="rgb(0, 0, 0)" stroke="rgb(204, 204, 204)" stroke-width="1px"></line></g><g transform="translate(31.149001121520996, 0)"><text style="text-anchor: end; visibility: hidden; font-family: Roboto, sans-serif; font-size: 12px; font-weight: 200;" x="0" y="176.55199909210205" dx="0em" dy="0.3em" fill="rgb(33, 33, 33)" stroke="none" stroke-width="1px">2</text><text style="text-anchor: end; visibility: inherit; font-family: Roboto, sans-serif; font-size: 12px; font-weight: 200;" x="0" y="151.33028493608748" dx="0em" dy="0.3em" fill="rgb(33, 33, 33)" stroke="none" stroke-width="1px">2.5</text><text style="text-anchor: end; visibility: inherit; font-family: Roboto, sans-serif; font-size: 12px; font-weight: 200;" x="0" y="126.1085707800729" dx="0em" dy="0.3em" fill="rgb(33, 33, 33)" stroke="none" stroke-width="1px">3</text><text style="text-anchor: end; visibility: inherit; font-family: Roboto, sans-serif; font-size: 12px; font-weight: 200;" x="0" y="100.88685662405831" dx="0em" dy="0.3em" fill="rgb(33, 33, 33)" stroke="none" stroke-width="1px">3.5</text><text style="text-anchor: end; visibility: inherit; font-family: Roboto, sans-serif; font-size: 12px; font-weight: 200;" x="0" y="75.66514246804374" dx="0em" dy="0.3em" fill="rgb(33, 33, 33)" stroke="none" stroke-width="1px">4</text><text style="text-anchor: end; visibility: inherit; font-family: Roboto, sans-serif; font-size: 12px; font-weight: 200;" x="0" y="50.443428312029155" dx="0em" dy="0.3em" fill="rgb(33, 33, 33)" stroke="none" stroke-width="1px">4.5</text><text style="text-anchor: end; visibility: inherit; font-family: Roboto, sans-serif; font-size: 12px; font-weight: 200;" x="0" y="25.22171415601459" dx="0em" dy="0.3em" fill="rgb(33, 33, 33)" stroke="none" stroke-width="1px">5</text><text style="text-anchor: end; visibility: hidden; font-family: Roboto, sans-serif; font-size: 12px; font-weight: 200;" x="0" y="0" dx="0em" dy="0.3em" fill="rgb(33, 33, 33)" stroke="none" stroke-width="1px">5.5</text></g><line x1="41.149001121520996" y1="0" x2="41.149001121520996" y2="176.55199909210205" fill="rgb(0, 0, 0)" stroke="rgb(204, 204, 204)" stroke-width="1px"></line></g></g><g transform="translate(41, 0)" clip-path="url(#clip_0)"><clipPath id="clip_0"><rect width="288" height="176"></rect></clipPath><g><g><g><line x1="0" y1="0" x2="0" y2="176.55199909210205" fill="rgb(0, 0, 0)" stroke="rgb(66, 66, 66)" stroke-width="1px" opacity="0.25"></line><line x1="24.07091657320658" y1="0" x2="24.07091657320658" y2="176.55199909210205" fill="rgb(0, 0, 0)" stroke="rgb(66, 66, 66)" stroke-width="1px" opacity="0.25"></line><line x1="48.14183314641316" y1="0" x2="48.14183314641316" y2="176.55199909210205" fill="rgb(0, 0, 0)" stroke="rgb(66, 66, 66)" stroke-width="1px" opacity="0.25"></line><line x1="72.21274971961975" y1="0" x2="72.21274971961975" y2="176.55199909210205" fill="rgb(0, 0, 0)" stroke="rgb(66, 66, 66)" stroke-width="1px" opacity="0.25"></line><line x1="96.28366629282633" y1="0" x2="96.28366629282633" y2="176.55199909210205" fill="rgb(0, 0, 0)" stroke="rgb(66, 66, 66)" stroke-width="1px" opacity="0.25"></line><line x1="120.35458286603293" y1="0" x2="120.35458286603293" y2="176.55199909210205" fill="rgb(0, 0, 0)" stroke="rgb(66, 66, 66)" stroke-width="1px" opacity="0.25"></line><line x1="144.4254994392395" y1="0" x2="144.4254994392395" y2="176.55199909210205" fill="rgb(0, 0, 0)" stroke="rgb(66, 66, 66)" stroke-width="1px" opacity="0.25"></line><line x1="168.4964160124461" y1="0" x2="168.4964160124461" y2="176.55199909210205" fill="rgb(0, 0, 0)" stroke="rgb(66, 66, 66)" stroke-width="1px" opacity="0.25"></line><line x1="192.56733258565265" y1="0" x2="192.56733258565265" y2="176.55199909210205" fill="rgb(0, 0, 0)" stroke="rgb(66, 66, 66)" stroke-width="1px" opacity="0.25"></line><line x1="216.63824915885925" y1="0" x2="216.63824915885925" y2="176.55199909210205" fill="rgb(0, 0, 0)" stroke="rgb(66, 66, 66)" stroke-width="1px" opacity="0.25"></line><line x1="240.70916573206586" y1="0" x2="240.70916573206586" y2="176.55199909210205" fill="rgb(0, 0, 0)" stroke="rgb(66, 66, 66)" stroke-width="1px" opacity="0.25"></line><line x1="264.7800823052724" y1="0" x2="264.7800823052724" y2="176.55199909210205" fill="rgb(0, 0, 0)" stroke="rgb(66, 66, 66)" stroke-width="1px" opacity="0.25"></line><line x1="288.850998878479" y1="0" x2="288.850998878479" y2="176.55199909210205" fill="rgb(0, 0, 0)" stroke="rgb(66, 66, 66)" stroke-width="1px" opacity="0.25"></line></g><g><line x1="0" y1="176.55199909210205" x2="288.850998878479" y2="176.55199909210205" fill="rgb(0, 0, 0)" stroke="rgb(66, 66, 66)" stroke-width="1px" opacity="0.25"></line><line x1="0" y1="151.33028493608748" x2="288.850998878479" y2="151.33028493608748" fill="rgb(0, 0, 0)" stroke="rgb(66, 66, 66)" stroke-width="1px" opacity="0.25"></line><line x1="0" y1="126.1085707800729" x2="288.850998878479" y2="126.1085707800729" fill="rgb(0, 0, 0)" stroke="rgb(66, 66, 66)" stroke-width="1px" opacity="0.25"></line><line x1="0" y1="100.88685662405831" x2="288.850998878479" y2="100.88685662405831" fill="rgb(0, 0, 0)" stroke="rgb(66, 66, 66)" stroke-width="1px" opacity="0.25"></line><line x1="0" y1="75.66514246804374" x2="288.850998878479" y2="75.66514246804374" fill="rgb(0, 0, 0)" stroke="rgb(66, 66, 66)" stroke-width="1px" opacity="0.25"></line><line x1="0" y1="50.443428312029155" x2="288.850998878479" y2="50.443428312029155" fill="rgb(0, 0, 0)" stroke="rgb(66, 66, 66)" stroke-width="1px" opacity="0.25"></line><line x1="0" y1="25.22171415601459" x2="288.850998878479" y2="25.22171415601459" fill="rgb(0, 0, 0)" stroke="rgb(66, 66, 66)" stroke-width="1px" opacity="0.25"></line><line x1="0" y1="0" x2="288.850998878479" y2="0" fill="rgb(0, 0, 0)" stroke="rgb(66, 66, 66)" stroke-width="1px" opacity="0.25"></line></g></g></g><g><g><line x1="0" y1="277.43885571616033" x2="288.850998878479" y2="277.43885571616033" fill="rgb(0, 0, 0)" stroke="rgb(153, 153, 153)" stroke-width="1.5px"></line></g></g><g><g><line x1="24.07091657320658" y1="0" x2="24.07091657320658" y2="176.55199909210205" fill="rgb(0, 0, 0)" stroke="rgb(153, 153, 153)" stroke-width="1.5px"></line></g></g><g><g><g><g><g><path style="fill: none;" stroke="rgb(255, 112, 67)" stroke-width="2px" d="M24.07091657320658,7.913993043802078L26.47800823052724,8.248273794537527L28.8850998878479,9.308367811975964L31.29219154516856,12.206313009350946L33.69928320248922,19.7516867566457L36.106374859809875,29.772029326540316L38.51346651713053,41.271991942631075L40.920558174451195,50.826990180756724L43.32764983177185,62.05198368245006L45.73474148909251,68.23124735557403L48.14183314641316,74.39427243894897L50.548924803733826,79.9714139844464L52.95601646105448,86.93526266021347L55.363108118375145,88.20447472895862L57.7701997756958,95.2170154093398L60.177291433016464,97.5416663281264L62.58438309033712,102.82192352866709L64.99147474765778,106.55480614156212L67.39856640497844,110.38206643394093L69.80565806229909,113.76260212401948L72.21274971961975,117.11067320235284L74.61984137694041,121.23060194215036L77.02693303426106,116.5890701407983L79.43402469158173,118.14013931772897L81.84111634890239,120.9319488728318L84.24820800622305,126.01781748025986L86.6552996635437,130.73439569472853L89.06239132086436,132.42004633175128L91.46948297818501,130.72417348711602L93.87657463550568,129.0505385223232L96.28366629282633,127.99433529392861L98.69075795014699,129.68967071505932L101.09784960746765,129.45168398305336L103.50494126478831,128.52550477886305L105.91203292210896,132.12320590666044L108.31912457942963,131.490450554501L110.72621623675029,134.29681102651443L113.13330789407094,134.8942262800009L115.5403995513916,131.1792873814573L117.94749120871226,133.32199226873183L120.35458286603293,141.5014836996152L122.76167452335358,135.43525924932376L125.16876618067424,135.69361697520935L127.57585783799489,138.25909949683862L129.98294949531555,138.12859923217826L132.3900411526362,142.54334986712917L134.79713280995688,140.21534616849792L137.20422446727753,142.35819886158484L139.61131612459818,142.2965263362368L142.01840778191882,143.50032197477051L144.4254994392395,145.8347718578417L146.83259109656015,144.19796688328788L149.23968275388083,144.56747255672806L151.64677441120148,149.9162429048211L154.05386606852213,151.0700976254188L156.46095772584277,151.4923640473788L158.86804938316345,150.148276831481L161.2751410404841,152.97534501592068L163.68223269780478,149.5844282195896L166.08932435512543,150.85998278109795L168.4964160124461,151.36903721710084L170.90350766976675,148.54516909240027L173.3105993270874,146.92179583422822L175.71769098440805,149.7070574829443L178.12478264172873,152.27143861570426L180.53187429904938,156.67904401553116L182.93896595637003,153.84565075632307L185.3460576136907,154.82545560449617L187.75314927101135,158.37546404704807L190.160240928332,156.70458573019954L192.56733258565265,156.86841773786807L194.97442424297333,154.32101739421958L197.38151590029398,153.15747538561695L199.78860755761465,153.91882751495632L202.1956992149353,151.85810485339255L204.60279087225598,154.00903028793303L207.00988252957663,155.56235343017087L209.41697418689728,153.08795250161842L211.82406584421793,150.4305114726998L214.2311575015386,154.24161253974427L216.63824915885925,155.4796117946775L219.0453408161799,153.93604406312144L221.45243247350058,153.955852403524L223.85952413082123,153.82564974806095L226.26661578814188,154.41147142246086L228.67370744546253,151.62506218035873L231.0807991027832,154.60214725105723L233.48789076010385,158.1062032701251L235.89498241742453,156.67129108633196L238.30207407474518,155.29842218139854L240.70916573206586,159.09420464594717L243.1162573893865,157.0885942170228L245.52334904670715,156.84091852591195L247.9304407040278,153.04466368825672L250.33753236134848,155.0575193765321L252.74462401866913,156.43722832367322L255.15171567598978,154.59883667794992L257.5588073333105,153.4746395962906L259.9658989906311,153.53264057614177L262.3729906479518,155.03963307346538L264.7800823052724,156.95343220697887L267.1871739625931,158.3958787477342L269.59426561991376,158.40395232583614L272.0013572772344,160.01829905623492L274.40844893455505,155.56816020112714" fill="none"></path></g></g></g></g><g opacity="0.2"><g><g><g><path style="fill: none;" stroke="rgb(255, 112, 67)" stroke-width="2px" d="M24.07091657320658,7.913993043802039L26.47800823052724,8.448842244978804L28.8850998878479,10.326058068716902L31.29219154516856,15.614296561463815L33.69928320248922,29.602926721113743L36.106374859809875,43.63377042402979L38.51346651713053,57.71712248304266L40.920558174451195,64.75826933992695L43.32764983177185,78.60666875470997L45.73474148909251,77.40673375405764L48.14183314641316,83.58291188010377L50.548924803733826,88.30677574468862L52.95601646105448,97.35829749968207L55.363108118375145,90.10580631350564L57.7701997756958,105.72758345158243L60.177291433016464,101.0270031823717L62.58438309033712,110.74007490159278L64.99147474765778,112.15318228241371L67.39856640497844,116.12237382792495L69.80565806229909,118.83309666478493L72.21274971961975,122.13259620367788L74.61984137694041,127.41035948383654L77.02693303426106,109.62686407771876L79.43402469158173,120.46672470923191L81.84111634890239,125.1196433624986L84.24820800622305,133.64659870249545L86.6552996635437,137.80925094800062L89.06239132086436,134.94851969941465L91.46948297818501,128.1803657823017L93.87657463550568,126.54008700012648L96.28366629282633,126.41003080158524L98.69075795014699,132.2326735094403L101.09784960746765,129.09470391345536L103.50494126478831,127.13623603891789L105.91203292210896,137.5197574437389L108.31912457942963,130.54131754257813L110.72621623675029,138.50635169111558L113.13330789407094,135.79034915468472L115.5403995513916,125.60687905433335L117.94749120871226,136.53604959248298L120.35458286603293,153.7707208295393L122.76167452335358,126.33592258118473L125.16876618067424,136.08115356385127L127.57585783799489,142.1073232781714L129.98294949531555,137.93284883522165L132.3900411526362,149.16547581886718L134.79713280995688,136.7233406207688L137.20422446727753,145.57247790109497L139.61131612459818,142.20401754821685L142.01840778191882,145.30601543254681L144.4254994392395,149.33644668242016L146.83259109656015,141.74275942146895L149.23968275388083,145.1217310668868L151.64677441120148,157.93939842694655L154.05386606852213,152.80087970631354L156.46095772584277,152.12576368031836L158.86804938316345,148.13214600763519L161.2751410404841,157.21594729257913L163.68223269780478,144.49805302509367L166.08932435512543,152.7733146233603L168.4964160124461,152.13261887110514L170.90350766976675,144.30936690534952L173.3105993270874,144.48673594697019L175.71769098440805,153.88494995601837L178.12478264172873,156.11801031484413L180.53187429904938,163.29045211527148L182.93896595637003,149.59556086751087L185.3460576136907,156.29516287675577L187.75314927101135,163.70047671087593L190.160240928332,154.19826825492686L192.56733258565265,157.11416574937084L194.97442424297333,150.49991687874692L197.38151590029398,151.41216237271303L199.78860755761465,155.0608557089654L202.1956992149353,148.7670208610468L204.60279087225598,157.23541843974374L207.00988252957663,157.89233814352767L209.41697418689728,149.37635110878966L211.82406584421793,146.44434992932196L214.2311575015386,159.95826414031092L216.63824915885925,157.33661067707737L219.0453408161799,151.6206924657874L221.45243247350058,153.98556491412785L223.85952413082123,153.63034576486638L226.26661578814188,155.29020393406074L228.67370744546253,147.44544831720543L231.0807991027832,159.06777485710506L233.48789076010385,163.3622872987269L235.89498241742453,154.51892281064227L238.30207407474518,153.2391188239984L240.70916573206586,164.7878783427701L243.1162573893865,154.08017857363626L245.52334904670715,156.46940498924562L247.9304407040278,147.3502814317739L250.33753236134848,158.0768029089452L252.74462401866913,158.5067917443849L255.15171567598978,151.84124920936495L257.5588073333105,151.78834397380155L259.9658989906311,153.61964204591857L262.3729906479518,157.30012181945077L264.7800823052724,159.82413090724913L267.1871739625931,160.5595485588672L269.59426561991376,158.41606269298902L272.0013572772344,162.43981915183312L274.40844893455505,148.89295191846543" fill="none"></path></g></g></g></g></g></g><g transform="translate(41, 176)" clip-path="url(#clip_1)"><clipPath id="clip_1"><rect width="288" height="23"></rect></clipPath><g><g><line x1="0" y1="0" x2="0" y2="5" style="visibility: inherit;" fill="rgb(0, 0, 0)" stroke="rgb(204, 204, 204)" stroke-width="1px"></line><line x1="24.07091657320658" y1="0" x2="24.07091657320658" y2="5" style="visibility: inherit;" fill="rgb(0, 0, 0)" stroke="rgb(204, 204, 204)" stroke-width="1px"></line><line x1="48.14183314641316" y1="0" x2="48.14183314641316" y2="5" style="visibility: inherit;" fill="rgb(0, 0, 0)" stroke="rgb(204, 204, 204)" stroke-width="1px"></line><line x1="72.21274971961975" y1="0" x2="72.21274971961975" y2="5" style="visibility: inherit;" fill="rgb(0, 0, 0)" stroke="rgb(204, 204, 204)" stroke-width="1px"></line><line x1="96.28366629282633" y1="0" x2="96.28366629282633" y2="5" style="visibility: inherit;" fill="rgb(0, 0, 0)" stroke="rgb(204, 204, 204)" stroke-width="1px"></line><line x1="120.35458286603293" y1="0" x2="120.35458286603293" y2="5" style="visibility: inherit;" fill="rgb(0, 0, 0)" stroke="rgb(204, 204, 204)" stroke-width="1px"></line><line x1="144.4254994392395" y1="0" x2="144.4254994392395" y2="5" style="visibility: inherit;" fill="rgb(0, 0, 0)" stroke="rgb(204, 204, 204)" stroke-width="1px"></line><line x1="168.4964160124461" y1="0" x2="168.4964160124461" y2="5" style="visibility: inherit;" fill="rgb(0, 0, 0)" stroke="rgb(204, 204, 204)" stroke-width="1px"></line><line x1="192.56733258565265" y1="0" x2="192.56733258565265" y2="5" style="visibility: inherit;" fill="rgb(0, 0, 0)" stroke="rgb(204, 204, 204)" stroke-width="1px"></line><line x1="216.63824915885925" y1="0" x2="216.63824915885925" y2="5" style="visibility: inherit;" fill="rgb(0, 0, 0)" stroke="rgb(204, 204, 204)" stroke-width="1px"></line><line x1="240.70916573206586" y1="0" x2="240.70916573206586" y2="5" style="visibility: inherit;" fill="rgb(0, 0, 0)" stroke="rgb(204, 204, 204)" stroke-width="1px"></line><line x1="264.7800823052724" y1="0" x2="264.7800823052724" y2="5" style="visibility: inherit;" fill="rgb(0, 0, 0)" stroke="rgb(204, 204, 204)" stroke-width="1px"></line><line x1="288.850998878479" y1="0" x2="288.850998878479" y2="5" style="visibility: inherit;" fill="rgb(0, 0, 0)" stroke="rgb(204, 204, 204)" stroke-width="1px"></line></g><g transform="translate(0, 8)"><text style="text-anchor: middle; visibility: hidden; font-family: Roboto, sans-serif; font-size: 12px; font-weight: 200;" x="0" y="0" dx="0em" dy="0.95em" fill="rgb(33, 33, 33)" stroke="none" stroke-width="1px">-10</text><text style="text-anchor: middle; visibility: inherit; font-family: Roboto, sans-serif; font-size: 12px; font-weight: 200;" x="24.07091657320658" y="0" dx="0em" dy="0.95em" fill="rgb(33, 33, 33)" stroke="none" stroke-width="1px">0</text><text style="text-anchor: middle; visibility: inherit; font-family: Roboto, sans-serif; font-size: 12px; font-weight: 200;" x="48.14183314641316" y="0" dx="0em" dy="0.95em" fill="rgb(33, 33, 33)" stroke="none" stroke-width="1px">10</text><text style="text-anchor: middle; visibility: inherit; font-family: Roboto, sans-serif; font-size: 12px; font-weight: 200;" x="72.21274971961975" y="0" dx="0em" dy="0.95em" fill="rgb(33, 33, 33)" stroke="none" stroke-width="1px">20</text><text style="text-anchor: middle; visibility: inherit; font-family: Roboto, sans-serif; font-size: 12px; font-weight: 200;" x="96.28366629282633" y="0" dx="0em" dy="0.95em" fill="rgb(33, 33, 33)" stroke="none" stroke-width="1px">30</text><text style="text-anchor: middle; visibility: inherit; font-family: Roboto, sans-serif; font-size: 12px; font-weight: 200;" x="120.35458286603293" y="0" dx="0em" dy="0.95em" fill="rgb(33, 33, 33)" stroke="none" stroke-width="1px">40</text><text style="text-anchor: middle; visibility: inherit; font-family: Roboto, sans-serif; font-size: 12px; font-weight: 200;" x="144.4254994392395" y="0" dx="0em" dy="0.95em" fill="rgb(33, 33, 33)" stroke="none" stroke-width="1px">50</text><text style="text-anchor: middle; visibility: inherit; font-family: Roboto, sans-serif; font-size: 12px; font-weight: 200;" x="168.4964160124461" y="0" dx="0em" dy="0.95em" fill="rgb(33, 33, 33)" stroke="none" stroke-width="1px">60</text><text style="text-anchor: middle; visibility: inherit; font-family: Roboto, sans-serif; font-size: 12px; font-weight: 200;" x="192.56733258565265" y="0" dx="0em" dy="0.95em" fill="rgb(33, 33, 33)" stroke="none" stroke-width="1px">70</text><text style="text-anchor: middle; visibility: inherit; font-family: Roboto, sans-serif; font-size: 12px; font-weight: 200;" x="216.63824915885925" y="0" dx="0em" dy="0.95em" fill="rgb(33, 33, 33)" stroke="none" stroke-width="1px">80</text><text style="text-anchor: middle; visibility: inherit; font-family: Roboto, sans-serif; font-size: 12px; font-weight: 200;" x="240.70916573206586" y="0" dx="0em" dy="0.95em" fill="rgb(33, 33, 33)" stroke="none" stroke-width="1px">90</text><text style="text-anchor: middle; visibility: inherit; font-family: Roboto, sans-serif; font-size: 12px; font-weight: 200;" x="264.7800823052724" y="0" dx="0em" dy="0.95em" fill="rgb(33, 33, 33)" stroke="none" stroke-width="1px">100</text><text style="text-anchor: middle; visibility: hidden; font-family: Roboto, sans-serif; font-size: 12px; font-weight: 200;" x="288.850998878479" y="0" dx="0em" dy="0.95em" fill="rgb(33, 33, 33)" stroke="none" stroke-width="1px">110</text></g><line x1="0" y1="0" x2="288.850998878479" y2="0" fill="rgb(0, 0, 0)" stroke="rgb(204, 204, 204)" stroke-width="1px"></line></g></g></g></g></svg>