<svg viewBox="0 0 330 200" xmlns="http://www.w3.org/2000/svg"><g><g><g><g><g><line x1="61.91500186920166" y1="176.89999961853027" x2="56.91500186920166" y2="176.89999961853027" style="visibility: inherit;" fill="rgb(0, 0, 0)" stroke="rgb(204, 204, 204)" stroke-width="1px"></line><line x1="61.91500186920166" y1="162.15833298365274" x2="56.91500186920166" y2="162.15833298365274" style="visibility: inherit;" fill="rgb(0, 0, 0)" stroke="rgb(204, 204, 204)" stroke-width="1px"></line><line x1="61.91500186920166" y1="147.4166663487752" x2="56.91500186920166" y2="147.4166663487752" style="visibility: inherit;" fill="rgb(0, 0, 0)" stroke="rgb(204, 204, 204)" stroke-width="1px"></line><line x1="61.91500186920166" y1="132.6749997138977" x2="56.91500186920166" y2="132.6749997138977" style="visibility: inherit;" fill="rgb(0, 0, 0)" stroke="rgb(204, 204, 204)" stroke-width="1px"></line><line x1="61.91500186920166" y1="117.93333307902017" x2="56.91500186920166" y2="117.93333307902017" style="visibility: inherit;" fill="rgb(0, 0, 0)" stroke="rgb(204, 204, 204)" stroke-width="1px"></line><line x1="61.91500186920166" y1="103.19166644414264" x2="56.91500186920166" y2="103.19166644414264" style="visibility: inherit;" fill="rgb(0, 0, 0)" stroke="rgb(204, 204, 204)" stroke-width="1px"></line><line x1="61.91500186920166" y1="88.44999980926512" x2="56.91500186920166" y2="88.44999980926512" style="visibility: inherit;" fill="rgb(0, 0, 0)" stroke="rgb(204, 204, 204)" stroke-width="1px"></line><line x1="61.91500186920166" y1="73.70833317438763" x2="56.91500186920166" y2="73.70833317438763" style="visibility: inherit;" fill="rgb(0, 0, 0)" stroke="rgb(204, 204, 204)" stroke-width="1px"></line><line x1="61.91500186920166" y1="58.96666653951008" x2="56.91500186920166" y2="58.96666653951008" style="visibility: inherit;" fill="rgb(0, 0, 0)" stroke="rgb(204, 204, 204)" stroke-width="1px"></line><line x1="61.91500186920166" y1="44.22499990463257" x2="56.91500186920166" y2="44.22499990463257" style="visibility: inherit;" fill="rgb(0, 0, 0)" stroke="rgb(204, 204, 204)" stroke-width="1px"></line><line x1="61.91500186920166" y1="29.483333269755057" x2="56.91500186920166" y2="29.483333269755057" style="visibility: inherit;" fill="rgb(0, 0, 0)" stroke="rgb(204, 204, 204)" stroke-width="1px"></line><line x1="61.91500186920166" y1="14.74166663487751" x2="56.91500186920166" y2="14.74166663487751" style="visibility: inherit;" fill="rgb(0, 0, 0)" stroke="rgb(204, 204, 204)" stroke-width="1px"></line><line x1="61.91500186920166" y1="0" x2="56.91500186920166" y2="0" style="visibility: inherit;" fill="rgb(0, 0, 0)" stroke="rgb(204, 204, 204)" stroke-width="1px"></line></g><g transform="translate(51.91500186920166, 0)"><text style="text-anchor: end; visibility: hidden; font-family: Roboto, sans-serif; font-size: 12px; font-weight: 200;" x="0" y="176.89999961853027" dx="0em" dy="0.3em" fill="rgb(33, 33, 33)" stroke="none" stroke-width="1px">-0.01</text><text style="text-anchor: end; visibility: inherit; font-family: Roboto, sans-serif; font-size: 12px; font-weight: 200;" x="0" y="162.15833298365274" dx="0em" dy="0.3em" fill="rgb(33, 33, 33)" stroke="none" stroke-width="1px">0</text><text style="text-anchor: end; visibility: hidden; font-family: Roboto, sans-serif; font-size: 12px; font-weight: 200;" x="0" y="147.4166663487752" dx="0em" dy="0.3em" fill="rgb(33, 33, 33)" stroke="none" stroke-width="1px">0.01</text><text style="text-anchor: end; visibility: inherit; font-family: Roboto, sans-serif; font-size: 12px; font-weight: 200;" x="0" y="132.6749997138977" dx="0em" dy="0.3em" fill="rgb(33, 33, 33)" stroke="none" stroke-width="1px">0.02</text><text style="text-anchor: end; visibility: hidden; font-family: Roboto, sans-serif; font-size: 12px; font-weight: 200;" x="0" y="117.93333307902017" dx="0em" dy="0.3em" fill="rgb(33, 33, 33)" stroke="none" stroke-width="1px">0.03</text><text style="text-anchor: end; visibility: inherit; font-family: Roboto, sans-serif; font-size: 12px; font-weight: 200;" x="0" y="103.19166644414264" dx="0em" dy="0.3em" fill="rgb(33, 33, 33)" stroke="none" stroke-width="1px">0.04</text><text style="text-anchor: end; visibility: hidden; font-family: Roboto, sans-serif; font-size: 12px; font-weight: 200;" x="0" y="88.44999980926512" dx="0em" dy="0.3em" fill="rgb(33, 33, 33)" stroke="none" stroke-width="1px">0.05</text><text style="text-anchor: end; visibility: inherit; font-family: Roboto, sans-serif; font-size: 12px; font-weight: 200;" x="0" y="73.70833317438763" dx="0em" dy="0.3em" fill="rgb(33, 33, 33)" stroke="none" stroke-width="1px">0.06</text><text style="text-anchor: end; visibility: hidden; font-family: Roboto, sans-serif; font-size: 12px; font-weight: 200;" x="0" y="58.96666653951008" dx="0em" dy="0.3em" fill="rgb(33, 33, 33)" stroke="none" stroke-width="1px">0.07</text><text style="text-anchor: end; visibility: inherit; font-family: Roboto, sans-serif; font-size: 12px; font-weight: 200;" x="0" y="44.22499990463257" dx="0em" dy="0.3em" fill="rgb(33, 33, 33)" stroke="none" stroke-width="1px">0.08</text><text style="text-anchor: end; visibility: hidden; font-family: Roboto, sans-serif; font-size: 12px; font-weight: 200;" x="0" y="29.483333269755057" dx="0em" dy="0.3em" fill="rgb(33, 33, 33)" stroke="none" stroke-width="1px">0.09</text><text style="text-anchor: end; visibility: inherit; font-family: Roboto, sans-serif; font-size: 12px; font-weight: 200;" x="0" y="14.74166663487751" dx="0em" dy="0.3em" fill="rgb(33, 33, 33)" stroke="none" stroke-width="1px">0.1</text><text style="text-anchor: end; visibility: hidden; font-family: Roboto, sans-serif; font-size: 12px; font-weight: 200;" x="0" y="0" dx="0em" dy="0.3em" fill="rgb(33, 33, 33)" stroke="none" stroke-width="1px">0.11</text></g><line x1="61.91500186920166" y1="0" x2="61.91500186920166" y2="176.89999961853027" fill="rgb(0, 0, 0)" stroke="rgb(204, 204, 204)" stroke-width="1px"></line></g></g><g transform="translate(61, 0)" clip-path="url(#clip_0)"><clipPath id="clip_0"><rect width="268" height="176"></rect></clipPath><g><g><g><line x1="0" y1="0" x2="0" y2="176.89999961853027" fill="rgb(0, 0, 0)" stroke="rgb(66, 66, 66)" stroke-width="1px" opacity="0.25"></line><line x1="22.34041651089986" y1="0" x2="22.34041651089986" y2="176.89999961853027" fill="rgb(0, 0, 0)" stroke="rgb(66, 66, 66)" stroke-width="1px" opacity="0.25"></line><line x1="44.68083302179972" y1="0" x2="44.68083302179972" y2="176.89999961853027" fill="rgb(0, 0, 0)" stroke="rgb(66, 66, 66)" stroke-width="1px" opacity="0.25"></line><line x1="67.02124953269958" y1="0" x2="67.02124953269958" y2="176.89999961853027" fill="rgb(0, 0, 0)" stroke="rgb(66, 66, 66)" stroke-width="1px" opacity="0.25"></line><line x1="89.36166604359944" y1="0" x2="89.36166604359944" y2="176.89999961853027" fill="rgb(0, 0, 0)" stroke="rgb(66, 66, 66)" stroke-width="1px" opacity="0.25"></line><line x1="111.70208255449931" y1="0" x2="111.70208255449931" y2="176.89999961853027" fill="rgb(0, 0, 0)" stroke="rgb(66, 66, 66)" stroke-width="1px" opacity="0.25"></line><line x1="134.04249906539917" y1="0" x2="134.04249906539917" y2="176.89999961853027" fill="rgb(0, 0, 0)" stroke="rgb(66, 66, 66)" stroke-width="1px" opacity="0.25"></line><line x1="156.38291557629904" y1="0" x2="156.38291557629904" y2="176.89999961853027" fill="rgb(0, 0, 0)" stroke="rgb(66, 66, 66)" stroke-width="1px" opacity="0.25"></line><line x1="178.72333208719888" y1="0" x2="178.72333208719888" y2="176.89999961853027" fill="rgb(0, 0, 0)" stroke="rgb(66, 66, 66)" stroke-width="1px" opacity="0.25"></line><line x1="201.06374859809875" y1="0" x2="201.06374859809875" y2="176.89999961853027" fill="rgb(0, 0, 0)" stroke="rgb(66, 66, 66)" stroke-width="1px" opacity="0.25"></line><line x1="223.40416510899863" y1="0" x2="223.40416510899863" y2="176.89999961853027" fill="rgb(0, 0, 0)" stroke="rgb(66, 66, 66)" stroke-width="1px" opacity="0.25"></line><line x1="245.74458161989847" y1="0" x2="245.74458161989847" y2="176.89999961853027" fill="rgb(0, 0, 0)" stroke="rgb(66, 66, 66)" stroke-width="1px" opacity="0.25"></line><line x1="268.08499813079834" y1="0" x2="268.08499813079834" y2="176.89999961853027" fill="rgb(0, 0, 0)" stroke="rgb(66, 66, 66)" stroke-width="1px" opacity="0.25"></line></g><g><line x1="0" y1="176.89999961853027" x2="268.08499813079834" y2="176.89999961853027" fill="rgb(0, 0, 0)" stroke="rgb(66, 66, 66)" stroke-width="1px" opacity="0.25"></line><line x1="0" y1="162.15833298365274" x2="268.08499813079834" y2="162.15833298365274" fill="rgb(0, 0, 0)" stroke="rgb(66, 66, 66)" stroke-width="1px" opacity="0.25"></line><line x1="0" y1="147.4166663487752" x2="268.08499813079834" y2="147.4166663487752" fill="rgb(0, 0, 0)" stroke="rgb(66, 66, 66)" stroke-width="1px" opacity="0.25"></line><line x1="0" y1="132.6749997138977" x2="268.08499813079834" y2="132.6749997138977" fill="rgb(0, 0, 0)" stroke="rgb(66, 66, 66)" stroke-width="1px" opacity="0.25"></line><line x1="0" y1="117.93333307902017" x2="268.08499813079834" y2="117.93333307902017" fill="rgb(0, 0, 0)" stroke="rgb(66, 66, 66)" stroke-width="1px" opacity="0.25"></line><line x1="0" y1="103.19166644414264" x2="268.08499813079834" y2="103.19166644414264" fill="rgb(0, 0, 0)" stroke="rgb(66, 66, 66)" stroke-width="1px" opacity="0.25"></line><line x1="0" y1="88.44999980926512" x2="268.08499813079834" y2="88.44999980926512" fill="rgb(0, 0, 0)" stroke="rgb(66, 66, 66)" stroke-width="1px" opacity="0.25"></line><line x1="0" y1="73.70833317438763" x2="268.08499813079834" y2="73.70833317438763" fill="rgb(0, 0, 0)" stroke="rgb(66, 66, 66)" stroke-width="1px" opacity="0.25"></line><line x1="0" y1="58.96666653951008" x2="268.08499813079834" y2="58.96666653951008" fill="rgb(0, 0, 0)" stroke="rgb(66, 66, 66)" stroke-width="1px" opacity="0.25"></line><line x1="0" y1="44.22499990463257" x2="268.08499813079834" y2="44.22499990463257" fill="rgb(0, 0, 0)" stroke="rgb(66, 66, 66)" stroke-width="1px" opacity="0.25"></line><line x1="0" y1="29.483333269755057" x2="268.08499813079834" y2="29.483333269755057" fill="rgb(0, 0, 0)" stroke="rgb(66, 66, 66)" stroke-width="1px" opacity="0.25"></line><line x1="0" y1="14.74166663487751" x2="268.08499813079834" y2="14.74166663487751" fill="rgb(0, 0, 0)" stroke="rgb(66, 66, 66)" stroke-width="1px" opacity="0.25"></line><line x1="0" y1="0" x2="268.08499813079834" y2="0" fill="rgb(0, 0, 0)" stroke="rgb(66, 66, 66)" stroke-width="1px" opacity="0.25"></line></g></g></g><g><g><line x1="0" y1="162.15833298365274" x2="268.08499813079834" y2="162.15833298365274" fill="rgb(0, 0, 0)" stroke="rgb(153, 153, 153)" stroke-width="1.5px"></line></g></g><g><g><line x1="22.34041651089986" y1="0" x2="22.34041651089986" y2="176.89999961853027" fill="rgb(0, 0, 0)" stroke="rgb(153, 153, 153)" stroke-width="1.5px"></line></g></g><g><g><g><g><g><path style="fill: none;" stroke="rgb(255, 112, 67)" stroke-width="2px" d="M22.45211859345436,160.68416625014584L22.72020359158516,158.47291625714522L22.742544008096058,157.64557790465227L22.943607756694156,156.06113621792375L23.055309839248654,154.6135869282582L23.144671505292255,153.32580256526106L23.323394837379453,151.6220540508452L23.412756503423054,150.1510582870944L23.613820252021153,148.2122291360851L24.485096495946248,142.43413221926735L24.686160244544347,137.9244517306242L25.043606908718743,133.33808748993172L25.244670657316842,129.5298782853086L25.311691906849543,126.89406161412475L25.423393989404044,124.72395003118578L26.182968150774638,119.41167058128367L26.607436064481735,113.98415114725559L27.27764855980873,107.18986758513151L27.38935064236323,102.52403529757747L27.41169105887413,99.60678044987884L27.50105272491773,97.38475292524348L27.568073974450428,95.69776355230329L27.858499389092128,93.1524369127639L27.903180222113928,91.38938641076474L28.104243970712027,89.27015804718742L28.260626886288325,87.17309154766309L28.461690634886427,84.85345245967633L28.573392717440925,82.87200450050759L28.774456466039023,80.62173572131968L29.13190313021342,77.38464005006715L29.15424354672432,75.32444995693862L29.198924379746117,73.85246979170049L29.31062646230062,72.37961607566658L29.467009377876916,70.67036974153355L29.578711460431418,69.0551541018702L29.71275395949682,67.37842593209331L29.735094376007716,66.25445371114442L29.802115625540413,65.2262731801671L29.869136875073114,64.25556326833083L30.003179374138515,62.96553852521619L30.31594520529111,60.54045542738191L30.852115201552706,56.25500598940068L31.142540616194406,52.15060340516558L31.187221449216207,49.45209558985842L31.231902282238007,47.59712463546514L31.477646863857906,45.18687540603182L31.611689362923304,43.03312707199045L31.6340297794342,41.62294274219321L31.678710612456005,40.540965878848255L32.080838109652206,37.768978978121154L32.1478593591849,35.75198524279247L32.1701997756958,34.423858065538816L32.2595614417394,33.15524922822087L32.4606251903375,31.33268353447425L32.527646439870196,29.88534252332223L32.5946676894029,28.663140715085426L32.6840293554465,27.458082705817127L32.795731438001,26.1453844332265L33.22019935170809,23.117029357538392L33.756369347969695,19.767081090957802L33.80105018099149,17.75718681811281L33.93509268005689,16.55156218289598L34.11381601214409,15.82878050523303L34.27019892772039,15.395796862641756L34.33722017725309,15.136353752449232L34.739347674449284,14.983354655256313L34.918071006536486,14.8930796925191L34.98509225606919,14.839538571856998L35.18615600466728,14.809456811402107L35.36487933675448,14.793446273712533L35.65530475139618,14.7875918796983L36.01275141557058,14.789443534648116L36.21381516416868,14.793933020701196L36.437219329277674,14.80068617606369L36.459559745788575,14.805164225105724L37.129772241115575,14.822063570947215L37.17445307413737,14.833253191256874L37.59892098784447,14.850590105543L37.621261404355366,14.861585357581792L37.84466556946436,14.874271704401048L38.20211223363876,14.892295773360152L38.42551639874777,14.910038541903617L38.738282229900356,14.930920729536618L38.78296306292216,14.944961357617833L38.96168639500936,14.95957158396089L39.00636722803116,14.969914935653419L39.54253722429275,14.996062403241856L39.56487764080366,15.012620768880048L40.01168597102165,15.040652034049234L40.19040930310885,15.06506691088915L40.30211138566335,15.084566105346596L40.346792218685145,15.09822945350114L40.458494301239654,15.111391958081768L40.52551555077235,15.122307698474055L40.59253680030505,15.131906133866392L40.81594096541404,15.148024735661167L41.17338762958844,15.17494422423426L41.28508971214294,15.196653516533143L41.37445137818654,15.214182284903734L41.75423845887184,15.24441254783018L41.977642623980834,15.274579722571433L42.08934470653534,15.298813156602293L42.29040845513344,15.324595822742358L42.33508928815524,15.342600390578534L43.00530178348224,15.392938969063817L43.07232303301494,15.427254300193853L43.18402511556943,15.454758645962794L43.51913136323293,15.492489964188747L43.54147177974383,15.516569776881493L43.58615261276563,15.53390849472957L44.21168427507082,15.586127716551255L44.25636510809262,15.620538994314357L44.412748023668925,15.652076897972496L44.524450106223426,15.678872539523772L44.90423718690872,15.72231176440522L45.12764135201772,15.76489872259272L45.418066766659415,15.812408905866382L45.529768849213916,15.849504032706552L45.93189634641012,15.903331786698534L45.95423676292101,15.937412142854168L46.512747175693505,16.003494176645116L46.82551300684611,16.069565058040965L47.00423633893331,16.124584343433956L47.07125758846601,16.163412722006743L47.20530008753141,16.198431231004655L47.36168300310771,16.233259450508253L47.40636383612951,16.25813237211978L47.5627467517058,16.287070940347213L48.0542359149456,16.34949676470923L48.0989167479674,16.391121557032456L48.2999804965655,16.435027416425665L48.3893421626091,16.469867688398242L48.4340229956309,16.495037803186165L48.7691292432944,16.542536501441752L48.8138100763162,16.575411505974913L48.947852575381596,16.60832976581938L49.7074267367522,16.704986471298422L49.93083090186119,16.786291657523954L50.04253298441569,16.846844578062708L50.176575483481095,16.897406420238294L50.19891589999199,16.93012472613023L50.33295839905739,16.964117600288215L50.98083047787349,17.055510006479047L51.40529839158058,17.158281390415425L52.05317047039667,17.295272754462946L52.14253213644028,17.3880643548377L52.43295755108198,17.47851714503198L52.54465963363648,17.546302791481263L52.92444671432177,17.633508638046685L53.013808380365376,17.696912197423917L53.17019129594167,17.754460847080576L53.482957127094274,17.828455580913907L53.59465920964877,17.887095691143283L54.130829205910366,17.99171240316734L54.24253128846487,18.06916942957174L54.26487170497576,18.11859158931402L54.37657378753026,18.163024144888688L55.00210544983546,18.27387361705412L55.091467115879055,18.35260562513546L55.98508377631506,18.524769993599847L56.342530440489455,18.67940062141964L56.766998354196545,18.834151720389023L56.78933877070745,18.930297399032533L57.16912585139274,19.04441310941818L57.21380668441455,19.11957801478971L57.25848751743634,19.171385617229806L57.70529584765434,19.270220168077216L58.15210417787234,19.39847906169837L58.93401875575383,19.599006406909748L58.95635917226474,19.722907794993517L59.44784833550453,19.876869473287947L59.93933749874433,20.050312740824978L60.02869916478793,20.16927218841092L60.18508208036423,20.266832276696928L60.36380541245142,20.355467232286074L60.47550749500593,20.42755722284377L60.922315825223926,20.547185370309858L61.14571999033292,20.657597457974834L61.19040082335472,20.731603382595804L61.32444332242012,20.79936642725565L61.34678373893102,20.84392555685763L61.43614540497462,20.886305786074214L61.59252832055092,20.93922317096634L61.65954957008362,20.98279613101324L61.92763456821442,21.05650241174696L62.21805998285612,21.152734764216756L62.508485397497815,21.262974815937994L62.932953311204905,21.4067451074217L63.15635747631391,21.534287283624796L63.2680595588684,21.631562423978508L63.9829528872172,21.824447767896913L64.6308249660333,22.06465601524389L64.697846215566,22.221794093057028L64.921250380675,22.359650274464066L64.94359079718589,22.44673976888806L65.144654545784,22.538480976376892L65.1893353788058,22.60232999233792L65.90422870715459,22.783111641439415L65.92656912366549,22.89607943053252L65.97124995668729,22.972866489970865L66.41805828690529,23.109644015875002L66.4627391199271,23.200844324811428L66.5297603694598,23.2692849703798L66.90954745014508,23.38858629507499L67.11061119874319,23.501917180619692L67.17763244827589,23.583886593616885L67.28933453083039,23.656405764507376L67.35635578036307,23.713949655738286L67.89252577662467,23.86167967223811L67.95954702615738,23.964582918862487L68.02656827569007,24.040616463715647L68.40635535637537,24.167689466781304L68.69678077101707,24.306771482624317L68.80848285357158,24.414511574128753L69.59039743145307,24.65116442121983L69.67975909749667,24.81302729230311L69.88082284609476,24.95502757065897L70.05954617818196,25.08030835197404L70.21592909375828,25.190693986634095L70.39465242584546,25.297339877016892L70.79677992304167,25.452902586572876L70.95316283861796,25.582090021875747L71.06486492117246,25.685294846582124L71.53401366790135,25.85586990322684L71.73507741649945,26.005144798220933L72.09252408067385,26.178693186164285L72.42763032833736,26.362183856192523L72.47231116135914,26.482905793668817L72.53933241089186,26.57130002945913L72.69571532646815,26.661675729209012L73.18720448970795,26.834108866739257L73.20954490621885,26.942972580846895L73.36592782179514,27.046192317541205L73.56699157039324,27.157052998917262L73.74571490248044,27.267239396360374L73.87975740154585,27.366217953623796L73.99145948410035,27.453067975189903L74.10316156665483,27.532702382363826L74.12550198316575,27.585996692233074L74.14784239967665,27.623491337078534L74.23720406572023,27.66807793311748L74.48294864734014,27.75580092716273L74.70635281244914,27.86414251591083L75.17550155917803,28.046990538041708L75.19784197568895,28.162340424296566L75.51060780684153,28.310793372618292L75.57762905637422,28.416911374592818L75.64465030590694,28.497654768913097L75.71167155543962,28.56319536543593L76.02443738659224,28.68260187149047L76.09145863612493,28.77147652918334L76.15847988565763,28.84204965129526L76.51592654983202,28.9767990447427L76.58294779936473,29.075046382513886L76.60528821587563,29.13979841243655L76.94039446353912,29.266037934574317L77.07443696260452,29.376897766470638L77.11911779562632,29.45513954082173L77.34252196073531,29.56086774906439L77.65528779188793,29.70703601763736L77.87869195699692,29.85413958603441L78.43720236976941,30.092017568357242L78.48188320279122,30.246782161454384L78.52656403581301,30.351691901093105L78.8393298669656,30.499258232880553L78.92869153300921,30.612066947156553L78.9510319495201,30.685823797882062L79.0850744485855,30.766573541661973L79.2191169476509,30.851606888454896L79.3754998632272,30.94542260670397L79.62124444484711,31.069211605572857L79.79996777693431,31.19276531297495L80.20209527413051,31.378361449007226L80.33613777319592,31.527053895543233L80.4925206887722,31.659934958723333L80.7829461034139,31.821085719272066L80.91698860247931,31.955497556111368L81.0063502685229,32.061340572170806L81.1627331840992,32.16903039342883L81.3414565161864,32.28429092891831L81.43081818223,32.378832078605534L81.63188193082809,32.492811023112374L81.76592442989349,32.59947333356252L81.89996692895889,32.70183792411802L82.03400942802429,32.801711749917004L82.72656233986218,33.06170522161898L82.86060483892759,33.256687972546786L82.9052856719494,33.38669514586739L83.26273233612378,33.56917352725656L83.50847691774368,33.7508390513614L83.68720024983088,33.91251474042427L83.93294483145078,34.08219949206116L83.95528524796167,34.19063113508015L84.87124232490858,34.529189899704974L85.36273148814837,34.88070207252204L85.38507190465927,35.098379542455675L85.54145482023557,35.276451875223074L85.63081648627917,35.41046820039651L85.80953981836637,35.545333680501976L86.32336939811707,35.78363626858987L86.43507148067157,35.9609914623826L86.68081606229146,36.14322956191273L87.28400730808576,36.439852529758255L87.66379438877107,36.73658759138191L87.95421980341276,37.005883088474235L88.19996438503266,37.24497241984618L88.44570896665256,37.46620604668589L88.57975146571796,37.64148272478114L89.13826187849045,37.924746719422615L89.29464479406676,38.14482016250126L89.60741062521934,38.37741064278509L89.80847437381745,38.58182848346533L89.85315520683925,38.71891576559954L89.92017645637193,38.82284496826424L90.23294228752455,38.98660121594878L90.36698478658994,39.12843708599671L90.70209103425343,39.322840986980644L90.83613353331883,39.48334223062621L90.92549519936244,39.60892032129513L91.72975019375484,39.94931413176345L91.84145227630934,40.19057764782998L92.39996268908183,40.52125831766146L92.62336685419082,40.79439775641988L92.80209018627802,41.0182156233691L92.86911143581072,41.17501791513581L92.98081351836522,41.3066537230633L93.20421768347423,41.46090662783826L93.24889851649603,41.56853637884564L93.58400476415953,41.74645849869986L93.60634518067043,41.860785921555724L93.82974934577942,42.00522053860075L94.03081309437752,42.1603122688586L94.20953642646471,42.314329556717134L94.27655767599742,42.42963372326386L95.1478339199225,42.798069872556205L95.21485516945522,43.04227577742709L95.37123808503151,43.242872783116646L95.46059975107511,43.39417341407897L95.8627272482713,43.62457913553895L95.88506766478221,43.77059881387299L96.3988972445329,44.03758268277236L96.66698224266369,44.29176452689697L96.8680459912618,44.51494520650064L97.270173488458,44.79066684993531L97.4265564040343,45.01141222600562L97.98506681680679,45.34216249754602L98.2531518149376,45.63621654601407L98.43187514702478,45.876528415185305L98.54357722957928,46.060703890450256L98.85634306073189,46.283415564873934L99.03506639281909,46.481321805288964L99.14676847537359,46.6402999314051L99.21378972490628,46.759845888302934L99.28081097443899,46.85575451046482L99.3925130569935,46.95363071952741L99.70527888814608,47.125533766572175L100.12974680185317,47.38282977594701L100.17442763487497,47.55347159664858L100.79995929718018,47.88430257117547L100.93400179624558,48.1319320897658L101.09038471182187,48.33791342982103L101.22442721088727,48.51076936185787L101.26910804390907,48.63091847715825L101.33612929344177,48.72767665721243L101.76059720714886,48.94232406064673L102.29676720341047,49.26979337748089L102.43080970247587,49.51610005218009L102.94463928222656,49.85543451009048L103.45846886197727,50.251468703089756L103.63719219406445,50.55622413801046L103.65953261057535,50.74747750140116L104.08400052428244,51.022130214176315L104.19570260683696,51.22910248175255L104.37442593892415,51.420851310602984L104.46378760496775,51.56972068561719L104.64251093705495,51.72676593985499L104.82123426914215,51.88881337552527L105.04463843425114,52.07096546670375L105.11165968378386,52.20576456385682L105.17868093331654,52.312165044671715L105.37974468191464,52.45265626791012L105.69251051306725,52.65643279364811L106.36272300839424,53.035758538467014L106.38506342490514,53.271947395593344L106.85421217163405,53.59445182673021L106.96591425418855,53.83109727094793L107.01059508721033,53.99035483176985L107.30102050185204,54.19829588524735L107.56910549998284,54.427024965084804L107.65846716602644,54.59896555585346L108.32867966135343,54.96313936944603L108.59676465948424,55.28641209005243L108.61910507599514,55.489118506857814L108.64144549250602,55.61948074802356L108.79782840808232,55.75892833732684L109.11059423923491,55.96526826134926L109.60208340247472,56.28239319253697L109.66910465200742,56.49908541901186L109.71378548502922,56.64671373119129L109.73612590154012,56.744103796684776L109.80314715107282,56.82897707053821L110.07123214920362,56.98578098713215L110.13825339873631,57.106364078672094L110.18293423175811,57.19638841691681L110.24995548129081,57.27692572824229L110.31697673082351,57.35177961013426L110.36165756384533,57.41438838938531L110.49570006291071,57.50507376079648L110.58506172895432,57.59492621082404L110.74144464453062,57.710911450375434L110.76378506104152,57.78937278595927L111.0765508921941,57.96080800761209L111.16591255823772,58.099250955273135L111.32229547381401,58.24462773479146L111.34463589032491,58.340763534586635L111.45633797287941,58.4429980682434L111.9031463030974,58.68288929220044L112.10421005169552,58.90734111725809L112.3722950498263,59.14952649412844L112.64038004795711,59.40253212980605L112.7074012974898,59.58128876877485L112.90846504608791,59.769468425228006L112.9531458791097,59.90037141762879L112.9754862956206,59.98791520569272L113.7350604569912,60.34718580501743L114.1371879541874,60.72570663722799L114.1818687872092,60.970950529212736L114.47229420185089,61.23606294733803L114.65101753393809,61.4678185231304L114.91910253206888,61.71605123350859L115.70101710995039,62.18436609339236L115.72335752646127,62.474501982793626L115.83505960901577,62.69432717050737L115.87974044203759,62.84452941015465L115.94676169157029,62.96211364115107L115.99144252459207,63.05098009348598L116.41591043829919,63.27852740337832L116.77335710247357,63.56207515541997L116.81803793549538,63.75059880084431L116.84037835200628,63.872912681878084L117.15314418315887,64.07521534410031L117.24250584920247,64.23346601029463L117.62229292988776,64.48529886710803L117.68931417942048,64.66411628322705L117.75633542895316,64.79913322164745L118.18080334266027,65.05595243243681L118.58293083985647,65.37693448784533L118.69463292241096,65.61593955909285L118.85101583798728,65.82436431527587L118.96271792054176,65.99589651401433L118.98505833705266,66.10811218093494L119.27548375169437,66.29639954151155L120.72761082490284,67.01655174728343L120.92867457350096,67.53301753064586L121.46484456976255,68.0682411713041L121.91165289998054,68.57753852898867L121.97867414951325,68.9113706354303L122.24675914764404,69.22475935372218L122.42548247973124,69.48825291915347L122.71590789437293,69.76907973919938L122.89463122646013,70.0131701631331L123.16271622459092,70.27310927423162L123.22973747412364,70.45746043017161L123.34143955667814,70.61540297709281L123.74356705387434,70.88071650556115L123.76590747038523,71.04938549139835L123.78824788689613,71.16006994833639L124.19037538409233,71.39729881439428L125.01697079499563,71.89149806092858L125.12867287755013,72.23564162058092L125.17335371057192,72.46117955774454L125.26271537661552,72.63461910286418L125.50845995823542,72.84355889968273L125.86590662240981,73.12161177369008L126.06697037100793,73.3744039605985L126.42441703518232,73.67902967352121L126.49143828471502,73.89050032568683L126.5361191177368,74.03651579550021L126.55845953424772,74.13369381332475L126.73718286633492,74.26856369158861L127.07228911399841,74.49315065504459L127.11696994702022,74.6470666651453L127.20633161306381,74.7777549186575L127.31803369561831,74.90410381098668L127.56377827723821,75.08542185982925L127.5861186937491,75.2038077852254L127.7201611928145,75.33242309708376L127.7425016093254,75.4191895769689L127.9882461909453,75.57687899571796L128.30101202209792,75.8060238900711L128.7701607688268,76.14550649083404L128.9042032678922,76.40695114891409L129.0382457669576,76.6215906148205L129.172288266023,76.8081667355383L129.4403732641538,77.03574781394552L129.4627136806647,77.18193768735013L129.5520753467083,77.30821432015448L129.7978199283282,77.49006673999273L129.86484117786088,77.62812164109205L130.289309091568,77.89435535386811L130.4680324236552,78.13136597990443L130.6467557557424,78.35086911405104L130.8925003373623,78.58890126611998L131.92015949686368,79.17689742975747L132.14356366197268,79.62657748095738L132.70207407474518,80.13874955514547L132.72441449125608,80.4557511396858L132.81377615729969,80.68475204055844L133.01483990589776,80.90946839484245L133.0595207389196,81.06370587086533L133.86377573331197,81.50578399977975L134.04249906539917,81.84875598815722L134.13186073144277,82.0934072283969L134.19888198097547,82.26935230296985L134.80207322676978,82.63740936883336L134.82441364328068,82.86797050521251L134.89143489281335,83.03548348426426L135.13717947443325,83.24299153052623L135.22654114047685,83.40641053576624L135.42760488907496,83.5920347641731L135.47228572209676,83.72287188165744L135.56164738814036,83.84030150970791L135.94143446882566,84.07623515387003L136.47760446508727,84.45149567985618L136.81271071275074,84.82275754287883L136.87973196228344,85.07473928486584L137.08079571088155,85.31361098929628L137.68398695667582,85.72003690665696L137.72866778969765,85.98338359434719L137.79568903923035,86.17063160789127L137.88505070527393,86.32196708392433L137.90739112178483,86.42251503652082L138.57760361711186,86.77527896425045L138.73398653268814,87.05517936648135L139.20313527941704,87.42785892467633L139.64994360963505,87.8464658995116L139.78398610870042,88.15612985638829L139.87334777474405,88.38092807849794L140.02973069032032,88.58405564739539L140.14143277287485,88.75468090037366L140.29781568845112,88.92530249111277L140.40951777100565,89.07642196051658L140.45419860402743,89.18659356615068L140.47653902053833,89.26244539318732L140.74462401866913,89.42494285328323L140.83398568471273,89.56143458728589L140.87866651773453,89.66282735499982L141.6382406791051,90.05506287291144L142.21909150838852,90.54375601802519L142.71058067162832,91.05128215456587L142.88930400371552,91.43370966527729L143.5371760825316,91.945516372255L143.64887816508613,92.30126563426015L144.0510056622823,92.68987182538646L144.16270774483678,92.9716788110857L144.3637714934349,93.22830507425498L144.4978139925003,93.440633426605L144.74355857412021,93.67498676325577L144.8776010731856,93.87392719622011L144.9446223227183,94.0224523764664L145.1456860713164,94.19903486926061L145.1903669043382,94.32441838854378L145.32440940340362,94.4579461775744L145.7265369005998,94.71289217966935L145.9722814822197,94.97265574856297L146.128664397796,95.19645499039973L146.352068562905,95.42776626272573L146.75419606010118,95.74113193333397L147.1563235572974,96.10361821225666L147.29036605636279,96.37924070942846L147.31270647287369,96.55430156436147L147.5807914710045,96.77555560336742L148.0499402177334,97.11155360156204L148.36270604888597,97.44855352866769L148.49674854795137,97.70875680733774L148.60845063050587,97.91320352703458L148.76483354608217,98.10350951758113L148.92121646165847,98.28530690716292L149.14462062676748,98.49094258536226L149.21164187630018,98.64328281823481L149.27866312583288,98.76363919387275L149.41270562489828,98.89374870436633L149.63610979000728,99.06827060785537L149.81483312209446,99.25011356083098L150.10525853673616,99.48448937491465L150.149939369758,99.64437974264935L150.86483269810677,100.04827305354435L150.90951353112857,100.30983877249375L151.13291769623757,100.56289391573254L151.19993894577024,100.74355183017875L151.75844935854278,101.09195358520262L151.80313019156458,101.32018043703916L152.29461935480438,101.66799997758116L152.31695977131525,101.88626922456089L152.49568310340246,102.09383997058757L152.56270435293516,102.24709960941063L152.58504476944606,102.348628522L153.34461893081664,102.734601716418L153.45632101337117,103.01392606881447L153.47866142988204,103.19106744939381L153.74674642801284,103.41185419709187L154.88610767006872,104.02986051402638L155.04249058564506,104.46716218625093L155.08717141866686,104.74853568061117L155.17653308471043,104.95533816923978L155.69036266446113,105.2975587242717L155.75738391399383,105.53131389344387L155.86908599654834,105.7189252084585L156.13717099467914,105.9450691147449L156.18185182770094,106.09967545911847L156.20419224421184,106.20189816770373L156.3158943267663,106.3105109259039L156.65100057442984,106.51739955595717L157.36589390277862,106.94325984447934L158.1478084806601,107.52781005104589L158.6392976438999,108.08481497081827L158.9967443080743,108.56876556473682L159.19780805667241,108.94326654956186L159.48823347131412,109.28935784674422L159.73397805293402,109.59960414811215L159.91270138502122,109.86029185467524L160.67227554639183,110.33281324984169L160.8063180454572,110.67199214235187L161.0297222105662,110.96819715641278L161.1414242931207,111.19223056223535L161.43184970776238,111.44694077558276L161.5658922068278,111.65522866780725L161.744615538915,111.85409111174994L162.05738137006762,112.10255575974533L162.191423869133,112.30692057839798L162.2361047021548,112.44795862726347L163.3978063607216,113.00999679743718L163.4424871937434,113.36552243320142L163.50950844327608,113.60628532511144L163.6882317753633,113.82388370115328L164.04567843953768,114.10050653729867L164.8052526009083,114.57589353107439L164.872273850441,114.88836235655855L164.98397593299546,115.12121606708517L165.0063163495064,115.26999838308936L165.36376301368077,115.50423544013775L165.43078426321347,115.67192423972568L165.67652884483337,115.87198669250085L165.69886926134427,116.00105800864232L165.74355009436607,116.09656409392083L165.83291176040967,116.1899789595187L165.94461384296417,116.2911410859316L166.23503925760588,116.46898727993688L166.25737967411678,116.58469808730327L166.79354967037835,116.86981872928554L166.88291133642198,117.07677057921757L166.97227300246558,117.2368002854641L167.06163466850916,117.36865583704403L167.08397508502006,117.45672612868555L167.39674091617266,117.63482296921221L167.46376216570536,117.76848825190314L167.59780466477076,117.9022677297352L167.79886841336887,118.06281856075026L167.93291091243424,118.2126118452231L168.06695341149967,118.35590337316121L168.15631507754324,118.47746339961265L168.29035757660867,118.60373589227565L168.46908090869584,118.75054110149944L168.69248507380485,118.9273052771083L168.73716590682665,119.05108439606401L169.09461257100105,119.2669179766653L169.49674006819725,119.55526441360298L169.54142090121903,119.74589403877815L169.56376131772993,119.86908049871L169.67546340028446,119.98701602868739L169.85418673237166,120.12814358135111L169.89886756539346,120.23039794237178L170.39035672863324,120.48473434545393L170.43503756165507,120.65484591966087L170.70312255978584,120.8618537359773L170.85950547536214,121.0471788363956L170.90418630838394,121.17582322031775L170.94886714140574,121.27045478098319L171.08290964047114,121.37953116476736L171.23929255604745,121.50592606466466L171.26163297255835,121.59046405213394L171.41801588813462,121.7020535387608L171.93184546788532,121.9684942868899L172.15524963299433,122.21484749969301L172.17759004950523,122.37130006621932L172.49035588065783,122.58598348737209L172.78078129529953,122.8267121643129L173.24993004202844,123.15139790749998L173.38397254109384,123.3975841954038L173.74141920526822,123.6820238907577L174.03184461990992,123.96348602567016L174.07652545293172,124.14938537612454L174.45631253361702,124.40535886072259L174.47865295012792,124.56742542940128L174.9701421133677,124.85086251573853L176.1318437719345,125.4579091237122L176.37758835355442,125.91400661887677L176.5339712691307,126.24602210378296L177.0924816819032,126.6529768674897L177.2712050139904,126.96340487469197L177.6509920946757,127.29008990825605L177.807375010252,127.54378133891355L177.8297154267629,127.70422825376399L178.0084387588501,127.8662990356738L178.18716209093728,128.0292321071644L178.38822583953538,128.2007608412938L178.61163000464438,128.38547803328748L178.63397042115528,128.50447779957366L178.7903533367316,128.6330209817247L179.147800000906,128.84043195263024L179.2148212504387,128.9892572843525L180.10843791087467,129.40204978613932L180.1977995769183,129.68191542872057L180.51056540807087,129.9622718548823L180.57758665760358,130.15453276115258L181.27013956944148,130.51740236514945L181.31482040246328,130.75103248054396L181.51588415106139,130.96270038602626L181.53822456757229,131.09763553569823L181.73928831617036,131.24991841576468L182.052054147323,131.45193049725958L182.27545831243197,131.65194032848402L183.25843663891158,132.11640754085602L183.30311747193335,132.41065573595188L184.24141496539116,132.9123406786758L184.71056371212003,133.3746142803458L184.93396787722904,133.72846133011487L185.17971245884894,134.02466953710194L185.20205287535984,134.21001034914815L186.20737161835035,134.661802305701L186.31907370090482,134.9704648626928L186.63183953205746,135.26063512053298L186.76588203112283,135.47960225750688L187.05630744576453,135.7079329897734L187.16800952831906,135.88212670490122L187.19034994482996,135.994075399093L187.21269036134086,136.0686748840436L187.57013702551524,136.23204099002496L188.73183868408202,136.71179852016087L188.77651951710385,137.01422031839917L188.88822159965832,137.23205370501265L189.60311492800713,137.59431341228913L189.7818382600943,137.8692123547048L190.13928492426874,138.14881948880756L190.5637528379758,138.45202224100967L190.76481658657391,138.69782113574183L190.80949741959571,138.85947125208676L190.96588033517202,139.0059882072492L191.39034824887912,139.22778050465578L191.47970991492272,139.3889387830989L191.79247574607533,139.58364190143L191.8818374121189,139.72838521648399L192.4403478248914,139.9889210066982L192.753113656044,140.24188978913682L192.8424753220876,140.42120259204265L192.8871561551094,140.54254203667563L192.9318369881312,140.62908867962685L193.49034740090372,140.85202816508937L193.66907073299092,141.0402118453263L193.7360919825236,141.17349131337554L193.9818365641435,141.32796761726442L194.763751142025,141.65585242368095L194.8754532245795,141.8859486725767L194.987155307134,142.05731302578312L195.0318361401558,142.17343802382624L195.0765169731776,142.25641007288343L195.14353822271028,142.3261204804739L195.5456657199065,142.48706496636453L196.0818357161681,142.7412587893489L196.2828994647662,142.9525307682777L196.4616227968534,143.13135800582216L196.79672904451687,143.33585906408405L196.9531119600932,143.5037366098011L197.31055862426757,143.70727872159964L197.4222607068221,143.86140631408998L197.53396278937657,143.98582423713898L197.80204778750738,144.1368859384816L198.40523903330165,144.39815717927348L198.53928153236708,144.59259572315887L199.23183444420496,144.9024952541033L199.38821735978127,145.1317386649795L199.52225985884667,145.3063048020824L199.58928110837937,145.42952130485511L199.90204693953197,145.5893759729808L200.61694026788075,145.879839341985L200.88502526601155,146.12640624180412L201.66693984389303,146.48309738450337L201.86800359249116,146.75028489429172L201.93502484202384,146.9282757276746L202.35949275573094,147.14649295155456L202.40417358875274,147.2890980882973L202.71693941990534,147.45609372721123L203.72225816289586,147.81458931800836L203.90098149498303,148.07505194851436L203.96800274451576,148.24829887601666L204.19140690962476,148.40863854133582L204.52651315728824,148.58893672378935L205.06268315354984,148.83042881757805L205.33076815168064,149.0414067834881L205.42012981772422,149.1899361946388L205.50949148376782,149.30095363768342L205.88927856445312,149.46016128397756L206.02332106351852,149.58818299922436L206.06800189654035,149.6758064374008L206.13502314607302,149.74457661831858L206.15736356258392,149.7912321242311L206.40310814420383,149.87837431854865L206.60417189280193,149.97881194829264L206.67119314233463,150.05507678718436L206.8275760579109,150.13807984240634L207.4084268871943,150.32505497492141L207.43076730370524,150.44247913505686L207.4977885532379,150.52863494709086L207.6765118853251,150.62207934879368L207.96693729996682,150.74561864841084L208.12332021554312,150.8558825486153L208.54778812925022,151.0194592315554L208.6371497952938,151.13798795588852L208.9052347934246,151.26998973265466L209.1062985420227,151.3945936928787L209.4190643731753,151.53953805719667L209.486085622708,151.64147284995443L209.9105535364151,151.79685425223278L210.2456597840786,151.9637583513708L210.7371489473184,152.17082226380722L210.7818297803402,152.3047136447817L211.1392764445146,152.4618688270229L211.42970185915627,152.61804843897443L211.67544644077617,152.76375023717318L211.8094889398416,152.8793876643717L211.8541697728634,152.95815296262398L212.23395685354868,153.08470952596198L212.3456589361032,153.1838101952252L213.03821184794108,153.3853191517479L213.1275735139847,153.52435399622536L213.4850201781591,153.6798353266596L213.9094880918662,153.85774351458457L214.28927517255147,154.03932133521127L214.37863683859507,154.16575496939507L214.82544516881308,154.3283570811443L215.02650891741118,154.4645749650044L215.13821099996568,154.56768021068737L215.40629599809645,154.68054641208198L215.56267891367278,154.77782465237735L215.87544474482536,154.89488138130747L216.21055099248886,155.0273635496364L216.36693390806516,155.13567712996684L216.45629557410876,155.21707200282484L216.47863599061967,155.27000326255745L216.67969973921777,155.33847951637196L216.76906140526137,155.39580779152718L216.81374223828314,155.43830858191L216.90310390432677,155.47998128526194L217.01480598688124,155.5251344992294L217.10416765292484,155.5682929415308L217.43927390058838,155.65401869208404L217.81906098127365,155.7724613795407L217.86374181429545,155.85135403568637L218.08714597940445,155.9376480150317L218.22118847846983,156.0126573088695L218.31055014451346,156.0730926366208L218.62331597566606,156.162983566778L218.86906055728593,156.25864789631444L218.93608180681863,156.3273648852009L219.07012430588406,156.39115168205984L219.11480513890584,156.43691883065625L219.15948597192764,156.4718622458503L219.38289013703664,156.53006517035283L219.53927305261294,156.59087547951756L219.82969846725462,156.67505212630329L219.85203888376554,156.7292057006976L220.09778346538542,156.8016238683154L220.14246429840725,156.85229511713615L220.16480471491815,156.8863035785484L220.47757054607075,156.95687340156334L220.61161304513612,157.0205344818741L221.01374054233233,157.1220395707714L221.14778304139773,157.20382879016353L221.17012345790863,157.2563728008364L221.32650637348493,157.3121081256346L221.6839530376593,157.40032901574233L222.04139970183374,157.50726760197162L222.10842095136644,157.58147067740015L222.2201230339209,157.64266504553746L222.39884636600812,157.70590025602442L222.48820803205172,157.75702777481774L222.55522928158445,157.7975622972629L222.82331427971525,157.86104156880813L222.86799511273702,157.9056130431803L222.91267594575882,157.9388276202189L222.95735677878062,157.96521583982758L222.97969719529152,157.9842740462803L223.314803442955,158.0437216568641L223.40416510899863,158.09207783217474L223.6275692741076,158.15259713861857L224.45416468501094,158.3028219317272L224.655228433609,158.4200315689899L224.9679942647616,158.53197948549376L224.99033468127251,158.60209810139028L225.28076009591422,158.68223923701765L225.4818238445123,158.7563753017258L225.52650467753412,158.80661224086145L225.8839513417085,158.88235321486079L226.7328871691227,159.03292648715055L226.84458925167718,159.13677055631777L226.9339509177208,159.2098213005225L226.9562913342317,159.2563300485354L227.1796954993407,159.31084800093538L227.53714216351509,159.38549345282783L227.55948258002599,159.43287527704712L227.6265038295587,159.46906922176177L227.8052271616459,159.51135515821028L228.0733121597767,159.56720770763886L228.0956525762876,159.60323903463032L228.47543965697287,159.66721839251724L228.7658650716146,159.737391067328L228.96692882021267,159.8011906578981L229.36905631740888,159.88210260708266L229.41373715043068,159.93532410464752L229.63714131553968,159.99044089600554L229.70416256507238,160.03040504351725L229.79352423111598,160.0635317411275L229.86054548064868,160.09023600065154L229.92756673018138,160.11305858372148L230.06160922924676,160.14026747882085L230.17331131180129,160.1677693839243L230.4190558934212,160.20858255202526L230.687140891552,160.25915917976923L230.82118339061736,160.30237975771905L230.86586422363916,160.33257846797076L231.02224713921547,160.36553084114524L231.35735338687897,160.41656801636364L231.37969380338987,160.44924950259463L231.53607671896617,160.48318445162155L231.69245963454244,160.51771688700566L232.04990629871688,160.57024783711503L232.11692754824958,160.6076410146472L232.18394879778225,160.63592317773814L232.36267212986948,160.66834337008154L232.40735296289125,160.6916266318419L232.83182087659839,160.74136127713646L233.18926754077276,160.80043338149446L233.59139503796894,160.867792235003L233.79245878656704,160.92377997975538L233.94884170214337,160.96930677449595L234.50735211491585,161.03797434770652L234.73075628002485,161.09515916736473L234.86479877909025,161.13890795537299L234.88713919560115,161.16671906730807L235.13288377722105,161.20037587309952L235.57969210743906,161.25043741841193L235.69139418999353,161.28774202542823L235.95947918812433,161.32724193417982L236.11586210370064,161.36071473494596L236.13820252021154,161.38218177432577L236.85309584856032,161.4376433945825L236.87543626507124,161.47219831936337L237.03181918064752,161.50178742792994L237.25522334575652,161.5319207609604L237.36692542831102,161.55607073542893L237.41160626133282,161.57296632443308L237.63501042644182,161.59493966160917L237.65735084295272,161.60928965453303L237.79139334201813,161.62482838933272L237.90309542457263,161.63983752918008L237.9477762575944,161.65109495281533L238.30522292176883,161.67540365643725L238.37224417130153,161.69318897729136L238.4616058373451,161.70808210201028L238.6850100024541,161.72734839423595L238.9530950005849,161.75088137716799L239.2658608317375,161.7783860585965L239.3999033308029,161.80043270303864L239.46692458033561,161.81638926598004L239.86905207753182,161.84172784584908L240.15947749217352,161.8676693671564L240.2935199912389,161.88800731269956L240.3382008242607,161.90177538579042L240.42756249030433,161.91312826199106L240.49458373983703,161.9222252637659L240.71798790494603,161.9350920925409L240.7626687379678,161.9442553310156L240.8743708205223,161.953304867245L241.2541579012076,161.97020856683795L241.3211791507403,161.9822791022282L241.4999024828275,161.99452203136002L242.05841289560001,162.01616715561337L242.2594766441981,162.0338094745663L242.57224247535072,162.05111793228374L242.6169233083725,162.06241191738374L242.7733062239488,162.07226803380706L243.2647953871886,162.08683323365966L243.30947622021037,162.09628153138553L243.57756121834117,162.1059349144571L243.86798663298288,162.1155197088284L244.49351829528808,162.12758953463143L245.0073478750388,162.1381313259393L245.23075204014776,162.14535917821559L245.67756037036577,162.14995903372653L245.74458161989847,162.15271894703312" fill="none"></path></g></g></g></g><g opacity="0.2"><g><g><g><path style="fill: none;" stroke="rgb(255, 112, 67)" stroke-width="2px" d="M22.45211859345436,160.68416625014584L22.72020359158516,157.14616626134483L22.742544008096058,156.85133308625905L22.943607756694156,154.197832794331L23.055309839248654,152.72366657567088L23.144671505292255,151.54433318886532L23.323394837379453,149.18566641525427L23.412756503423054,148.0063323419864L23.613820252021153,145.35283273652072L24.485096495946248,133.85433170032005L24.686160244544347,131.20083346777906L25.043606908718743,126.48349992055692L25.244670657316842,123.82999894216657L25.311691906849543,122.9455004466027L25.423393989404044,121.4713335414802L26.182968150774638,111.44699803747733L26.607436064481735,105.84516874054073L27.27764855980873,97.00016730980575L27.38935064236323,95.52599765883386L27.41169105887413,95.23116482697922L27.50105272491773,94.05183349956074L27.568073974450428,93.16733500399688L27.858499389092128,89.33449720648923L27.903180222113928,88.74483154278L28.104243970712027,86.09133056438962L28.260626886288325,84.02750074140727L28.461690634886427,81.37399976301691L28.573392717440925,79.8998356037438L28.774456466039023,77.24633462535341L29.13190313021342,72.52899833228193L29.15424354672432,72.23416550042728L29.198924379746117,71.64449983671805L29.31062646230062,70.17033567744494L29.467009377876916,68.10650036276381L29.578711460431418,66.63233071179194L29.71275395949682,64.86333372066417L29.735094376007716,64.56849539711078L29.802115625540413,63.68400239324569L29.869136875073114,62.799498405983044L30.003179374138515,61.03050141485531L30.31594520529111,56.90283078549305L30.852115201552706,49.82683183758458L31.142540616194406,45.993999531775714L31.187221449216207,45.40433386806646L31.231902282238007,44.81466820435723L31.477646863857906,41.571501562257595L31.611689362923304,39.80250457112986L31.6340297794342,39.507666247576466L31.678710612456005,38.91800058386724L32.080838109652206,33.610998627086474L32.1478593591849,32.726494639823855L32.1701997756958,32.43166729966799L32.2595614417394,31.252335972249508L32.4606251903375,28.59883499385913L32.527646439870196,27.714331006596485L32.5946676894029,26.829838002731393L32.6840293554465,25.650495691915356L32.795731438001,24.176337024341013L33.22019935170809,18.57449674400688L33.756369347969695,14.742158691087297L33.80105018099149,14.742345408845477L33.93509268005689,14.743125230070778L34.11381601214409,14.744607988738625L34.27019892772039,14.746321398754805L34.33722017725309,14.747189087160447L34.739347674449284,14.753856009466986L34.918071006536486,14.757667248413238L34.98509225606919,14.759226890863857L35.18615600466728,14.764334170719778L35.36487933675448,14.769430467178164L35.65530475139618,14.778810288676983L36.01275141557058,14.792221017072851L36.21381516416868,14.800667249780826L36.437219329277674,14.81081590910743L36.459559745788575,14.811881298668766L37.129772241115575,14.84741258970941L37.17445307413737,14.850037621721384L37.59892098784447,14.87659547697217L37.621261404355366,14.878078235640018L37.84466556946436,14.893301224629923L38.20211223363876,14.919331876798807L38.42551639874777,14.936652694718784L38.738282229900356,14.962244010986073L38.78296306292216,14.966022299739706L38.96168639500936,14.981486923475476L39.00636722803116,14.985429963192203L39.54253722429275,15.03528360462451L39.56487764080366,15.037458317337354L40.01168597102165,15.082698931803023L40.19040930310885,15.10168922614901L40.30211138566335,15.113814897032743L40.346792218685145,15.11872447573295L40.458494301239654,15.13113571495272L40.52551555077235,15.138681309062434L40.59253680030505,15.14630378695492L40.81594096541404,15.17220263835333L41.17338762958844,15.21532345709386L41.28508971214294,15.229217454981477L41.37445137818654,15.240475437459569L41.75423845887184,15.289757942219822L41.977642623980834,15.31983048468329L42.08934470653534,15.335163307648585L42.29040845513344,15.363269821952457L42.33508928815524,15.369607242332808L43.00530178348224,15.468446836791799L43.07232303301494,15.478727296888877L43.18402511556943,15.496015164616235L43.51913136323293,15.549086941527637L43.54147177974383,15.552689495920642L43.58615261276563,15.559916571501702L44.21168427507082,15.664456549283752L44.25636510809262,15.67215591095901L44.412748023668925,15.699383753459724L44.524450106223426,15.719066001850706L44.90423718690872,15.78747060172742L45.12764135201772,15.828779159873914L45.418066766659415,15.883674180776904L45.529768849213916,15.905146722966837L45.93189634641012,15.984073417686513L45.95423676292101,15.98853267708759L46.512747175693505,16.102617227331553L46.82551300684611,16.168671380134796L47.00423633893331,16.20711327152345L47.07125758846601,16.221655289865893L47.20530008753141,16.250958994501577L47.36168300310771,16.285501779763674L47.40636383612951,16.295441754537013L47.5627467517058,16.330478792688393L48.0542359149456,16.44313550125221L48.0989167479674,16.4535587455173L48.2999804965655,16.50088620551549L48.3893421626091,16.522128096357108L48.4340229956309,16.53279297536808L48.7691292432944,16.61378454882519L48.8138100763162,16.624724012774646L48.947852575381596,16.657707155586106L49.7074267367522,16.849971529517045L49.93083090186119,16.908249436862224L50.04253298441569,16.93767395887085L50.176575483481095,16.973249183501665L50.19891589999199,16.97920218496814L50.33295839905739,17.015106911525127L50.98083047787349,17.19259861576529L51.40529839158058,17.312438466320017L52.05317047039667,17.50075980053423L52.14253213644028,17.527251755399778L52.43295755108198,17.614196330323367L52.54465963363648,17.647981261155213L52.92444671432177,17.764317407894808L53.013808380365376,17.79201753648972L53.17019129594167,17.840783821565605L53.482957127094274,17.93944768166395L53.59465920964877,17.975055856487383L54.130829205910366,18.14863747120344L54.24253128846487,18.185354969178363L54.26487170497576,18.19272482892745L54.37657378753026,18.229672978250704L55.00210544983546,18.44014782530233L55.091467115879055,18.47070363725753L55.98508377631506,18.78301654629644L56.342530440489455,18.911346563149294L56.766998354196545,19.066278368843086L56.78933877070745,19.074515916997797L57.16912585139274,19.21558667499659L57.21380668441455,19.23232537284696L57.25848751743634,19.249097020889952L57.70529584765434,19.418471994348348L58.15210417787234,19.590867402130126L58.93401875575383,19.89979742472683L58.95635917226474,19.908759877119156L59.44784833550453,20.107811990729576L59.93933749874433,20.310477642130536L60.02869916478793,20.347711359789827L60.18508208036423,20.41317240912593L60.36380541245142,20.488419665669813L60.47550749500593,20.535692208680317L60.922315825223926,20.72662759150897L61.14571999033292,20.823215589472326L61.19040082335472,20.84261226952729L61.32444332242012,20.90101099424541L61.34678373893102,20.910764251260588L61.43614540497462,20.949876129899152L61.59252832055092,21.018599248304522L61.65954957008362,21.048155571083623L61.92763456821442,21.16706183284747L62.21805998285612,21.297083292921418L62.508485397497815,21.428334893519814L62.932953311204905,21.62240054464724L63.15635747631391,21.72560054792945L63.2680595588684,21.777475134509057L63.9829528872172,22.113775783774486L64.6308249660333,22.424968386264357L64.697846215566,22.457501209776705L64.921250380675,22.566434546574595L64.94359079718589,22.57737401052405L65.144654545784,22.6760927876101L65.1893353788058,22.698103516279485L65.90422870715459,23.05428411509161L65.92656912366549,23.065531114172185L65.97124995668729,23.088047079128387L66.41805828690529,23.314810304731253L66.4627391199271,23.33764478821611L66.5297603694598,23.371945938732324L66.90954745014508,23.567538282117766L67.11061119874319,23.671913508936722L67.17763244827589,23.706840713112694L67.28933453083039,23.76518452084311L67.35635578036307,23.800265492584643L67.89252577662467,24.08327469698787L67.95954702615738,24.11893778879899L68.02656827569007,24.154666780995367L68.40635535637537,24.358298971379806L68.69678077101707,24.51539450638889L68.80848285357158,24.576121711385415L69.59039743145307,25.00614369185638L69.67975909749667,25.05582159892806L69.88082284609476,25.168027988192748L70.05954617818196,25.268229523946644L70.21592909375828,25.35627243862419L70.39465242584546,25.45730871259109L70.79677992304167,25.6862466509068L70.95316283861796,25.775871174830048L71.06486492117246,25.84010208364172L71.53401366790135,26.111732488193898L71.73507741649945,26.229057140712058L72.09252408067385,26.439015768079315L72.42763032833736,26.637419861234893L72.47231116135914,26.66398869988323L72.53933241089186,26.703891383144647L72.69571532646815,26.797239278833825L73.18720448970795,27.09275857303466L73.20954490621885,27.106268152008386L73.36592782179514,27.20102192258264L73.56699157039324,27.323344020981313L73.74571490248044,27.432518992525086L73.87975740154585,27.514685789518925L73.99145948410035,27.583343007539057L74.10316156665483,27.65215399312473L74.12550198316575,27.66593815703696L74.14784239967665,27.6797333043467L74.23720406572023,27.73495782717588L74.48294864734014,27.88738541823064L74.70635281244914,28.02665489903295L75.17550155917803,28.32126257123801L75.19784197568895,28.335365253678873L75.51060780684153,28.53347279510088L75.57762905637422,28.576088377554594L75.64465030590694,28.618769860393527L75.71167155543962,28.661506260220165L76.02443738659224,28.861711630572245L76.09145863612493,28.904788515722604L76.15847988565763,28.947909334463134L76.51592654983202,29.17892313491383L76.58294779936473,29.2224173891707L76.60528821587563,29.236926457320525L76.94039446353912,29.455397217780995L77.07443696260452,29.54318751431512L77.11911779562632,29.572502202348357L77.34252196073531,29.71946006142839L77.65528779188793,29.926288420496856L77.87869195699692,30.074794938629974L78.43720236976941,30.44883454184151L78.48188320279122,30.478929051100064L78.52656403581301,30.50905651055122L78.8393298669656,30.720607730561714L78.92869153300921,30.781280018570552L78.9510319495201,30.796459073970286L79.0850744485855,30.887698157331858L79.2191169476509,30.979156908644228L79.3754998632272,31.086146184077606L79.62124444484711,31.254895103876226L79.79996777693431,31.378095874078074L80.20209527413051,31.656755653055615L80.33613777319592,31.75009256534726L80.4925206887722,31.85925655349348L80.7829461034139,32.06281186009515L80.91698860247931,32.157115311370276L81.0063502685229,32.22010509625994L81.1627331840992,32.33056512531586L81.3414565161864,32.457181732152506L81.43081818223,32.520643803136394L81.63188193082809,32.66377943987264L81.76592442989349,32.75946679923776L81.89996692895889,32.855384809951204L82.03400942802429,32.95152248861545L82.72656233986218,33.451695429171934L82.86060483892759,33.54916209893847L82.9052856719494,33.581705905848324L83.26273233612378,33.84289109934035L83.50847691774368,34.023337337518655L83.68720024983088,34.15502827401863L83.93294483145078,34.336726619516455L83.95528524796167,34.35327859960867L84.87124232490858,35.03702804664225L85.36273148814837,35.407970331747606L85.38507190465927,35.42489574735616L85.54145482023557,35.54356037437414L85.63081648627917,35.61149268815666L85.80953981836637,35.74763190066018L86.32336939811707,36.141090150721766L86.43507148067157,36.227024253071704L86.68081606229146,36.4165867112079L87.28400730808576,36.884786981526545L87.66379438877107,37.181690183817395L87.95421980341276,37.409826334112694L88.19996438503266,37.6036064169041L88.44570896665256,37.79805648694544L88.57975146571796,37.90439774192397L89.13826187849045,38.349642711384845L89.29464479406676,38.47493032711921L89.60741062521934,38.72629636321082L89.80847437381745,38.88845524448567L89.85315520683925,38.92454668880083L89.92017645637193,38.978738772261295L90.23294228752455,39.23223558747557L90.36698478658994,39.34119089106855L90.70209103425343,39.6144468384566L90.83613353331883,39.724094096094575L90.92549519936244,39.79728745729855L91.72975019375484,40.45990484746592L91.84145227630934,40.55247292192978L92.39996268908183,41.01727932240868L92.62336685419082,41.204106914557514L92.80209018627802,41.353942423792944L92.86911143581072,41.410221352785925L92.98081351836522,41.504107434954534L93.20421768347423,41.69228598500074L93.24889851649603,41.72998100535669L93.58400476415953,42.0133416784812L93.60634518067043,42.03227705583947L93.82974934577942,42.221872464168285L94.03081309437752,42.39294986424531L94.20953642646471,42.54535548850501L94.27655767599742,42.60258997308394L95.1478339199225,43.35072409649473L95.21485516945522,43.408584634733415L95.37123808503151,43.54376829165096L95.46059975107511,43.62112436052247L95.8627272482713,43.97018771772895L95.88506766478221,43.989628331374064L96.3988972445329,44.438058486121406L96.66698224266369,44.673037293083894L96.8680459912618,44.84971622590612L97.270173488458,45.204249315087324L97.4265564040343,45.34253029011107L97.98506681680679,45.8382879048566L98.2531518149376,46.077297618716145L98.43187514702478,46.23699621894214L98.54357722957928,46.3369671033477L98.85634306073189,46.61748307650943L99.03506639281909,46.77818116591152L99.14676847537359,46.87876712057931L99.21378972490628,46.93916482364965L99.28081097443899,46.99961744370766L99.3925130569935,47.10044503312132L99.70527888814608,47.38338833713931L100.12974680185317,47.76877379000928L100.17442763487497,47.80943432770093L100.79995929718018,48.380549032965774L100.93400179624558,48.503376367651285L101.09038471182187,48.64688543990387L101.22442721088727,48.7700532599131L101.26910804390907,48.81114215010879L101.33612929344177,48.872813927293734L101.76059720714886,49.26429516579819L102.29676720341047,49.76099735273213L102.43080970247587,49.88556006422888L102.94463928222656,50.36443619695606L103.45846886197727,50.84551999258868L103.63719219406445,51.013357290391525L103.65953261057535,51.03435754648726L104.08400052428244,51.43410928333904L104.19570260683696,51.53956088311686L104.37442593892415,51.7084745538786L104.46378760496775,51.79302474813855L104.64251093705495,51.962333821211686L104.82123426914215,52.131884529030714L105.04463843425114,52.34419360347144L105.11165968378386,52.40796320958643L105.17868093331654,52.47176576589406L105.37974468191464,52.663393102767685L105.69251051306725,52.96209758225504L106.36272300839424,53.604747155695364L106.38506342490514,53.62623068128285L106.85421217163405,54.078208473435495L106.96591425418855,54.18606543727452L107.01059508721033,54.229241173002734L107.30102050185204,54.510207465463594L107.56910549998284,54.770118584841015L107.65846716602644,54.856876442006424L108.32867966135343,55.50940008983487L108.59676465948424,55.77132117096204L108.61910507599514,55.79317813206589L108.64144549250602,55.81502410977218L108.79782840808232,55.96809972128176L109.11059423923491,56.274778147382875L109.60208340247472,56.75808058931848L109.66910465200742,56.8241237587242L109.71378548502922,56.8681561994605L109.73612590154012,56.890188894924975L109.80314715107282,56.95628698131837L110.07123214920362,57.220986862023054L110.13825339873631,57.287238715982014L110.18293423175811,57.33142492428388L110.24995548129081,57.39773169523052L110.31697673082351,57.464060432972246L110.36165756384533,57.50830155826182L110.49570006291071,57.64110181791328L110.58506172895432,57.729704885865345L110.74144464453062,57.88488930970256L110.76378506104152,57.90706478933504L111.0765508921941,58.21796084009134L111.16591255823772,58.30691537676468L111.32229547381401,58.462692904069L111.34463589032491,58.48496723427934L111.45633797287941,58.59634986872858L111.9031463030974,59.042726128136024L112.10421005169552,59.244018854844526L112.3722950498263,59.512804559433945L112.64038004795711,59.7820405833225L112.7074012974898,59.84942372722803L112.90846504608791,60.051737909907715L112.9531458791097,60.09672590622996L112.9754862956206,60.11923088778863L113.7350604569912,60.886091704004485L114.1371879541874,61.29348788554384L114.1818687872092,61.33881636718981L114.47229420185089,61.633731574525996L114.65101753393809,61.815451886818906L114.91910253206888,62.08840029907583L115.70101710995039,62.88683838321806L115.72335752646127,62.90970581689554L115.83505960901577,63.02406495207801L115.87974044203759,63.06983276962558L115.94676169157029,63.138489987645684L115.99144252459207,63.184279771988344L116.41591043829919,63.61984836821681L116.77335710247357,63.98739678348245L116.81803793549538,64.0333842689808L116.84037835200628,64.05638350342875L117.15314418315887,64.37866933743364L117.24250584920247,64.4708420095861L117.62229292988776,64.86304815232816L117.68931417942048,64.93234240740559L117.75633542895316,65.00165862927807L118.18080334266027,65.4411812486208L118.58293083985647,65.85840757095812L118.69463292241096,65.97444716596412L118.85101583798728,66.13700144955043L118.96271792054176,66.25319481212199L118.98505833705266,66.2764356813158L119.27548375169437,66.57883058237647L120.72761082490284,68.09678005594125L120.92867457350096,68.30771620568954L121.46484456976255,68.8710766322914L121.91165289998054,69.34148456551551L121.97867414951325,69.41211879509278L122.24675914764404,69.69484243115997L122.42548247973124,69.8834932673004L122.71590789437293,70.19031996926826L122.89463122646013,70.37930579903363L123.16271622459092,70.66301794087939L123.22973747412364,70.73398716408161L123.34143955667814,70.85231679747463L123.74356705387434,71.27868679826368L123.76590747038523,71.30238897015415L123.78824788689613,71.32609663374342L124.19037538409233,71.75314211348113L125.01697079499563,72.63279693073002L125.12867287755013,72.75185696005946L125.17335371057192,72.79948646349L125.26271537661552,72.89477842054369L125.50845995823542,73.15696859491055L125.86590662240981,73.53869108470109L126.06697037100793,73.75359224096117L126.42441703518232,74.13596824290526L126.49143828471502,74.20770630393525L126.5361191177368,74.25553900022028L126.55845953424772,74.27946084006156L126.73718286633492,74.47086850898441L127.07228911399841,74.83003110022854L127.11696994702022,74.87794068029633L127.20633161306381,74.97378729892579L127.31803369561831,75.09362714948051L127.56377827723821,75.3573989330931L127.5861186937491,75.38138667331961L127.7201611928145,75.52534606487133L127.7425016093254,75.54933929679662L127.9882461909453,75.81341312384154L128.30101202209792,76.14974123160084L128.7701607688268,76.65473039197843L128.9042032678922,76.7991181360342L129.0382457669576,76.94354981368012L129.172288266023,77.08803091661497L129.4403732641538,77.37711943155637L129.4627136806647,77.40122249745706L129.5520753467083,77.497629269361L129.7978199283282,77.76284536975007L129.86484117786088,77.83520399274104L130.289309091568,78.2937059230322L130.4680324236552,78.48688191895894L130.6467557557424,78.68012381527092L130.8925003373623,78.94594949422343L131.92015949686368,80.05889167521372L132.14356366197268,80.30109755775726L132.70207407474518,80.9070076664276L132.72441449125608,80.9312535164963L132.81377615729969,81.02825339186741L133.01483990589776,81.24654292626846L133.0595207389196,81.2950620848997L133.86377573331197,82.16890119315137L134.04249906539917,82.36321397072346L134.13186073144277,82.46038408875643L134.19888198097547,82.5332699148293L134.80207322676978,83.18949496762859L134.82441364328068,83.2138122097813L134.89143489281335,83.28675295284188L135.13717947443325,83.55425359991916L135.22654114047685,83.65153904362629L135.42760488907496,83.87047110678343L135.47228572209676,83.91912755788391L135.56164738814036,84.01644595178365L135.94143446882566,84.4301356201132L136.47760446508727,85.01438646883541L136.81271071275074,85.3796503374128L136.87973196228344,85.45271189784633L137.08079571088155,85.67191854594192L137.68398695667582,86.32967578269802L137.72866778969765,86.3784036258825L137.79568903923035,86.4515036282074L137.88505070527393,86.54897029797394L137.90739112178483,86.57333696541556L138.57760361711186,87.30442485584489L138.73398653268814,87.47502996982772L139.20313527941704,87.9868782619688L139.64994360963505,88.47437636176456L139.78398610870042,88.62062579170328L139.87334777474405,88.71812541166244L140.02973069032032,88.88874700074155L140.14143277287485,89.01061877984111L140.29781568845112,89.18123487722147L140.40951777100565,89.30310116462226L140.45419860402743,89.35185097460183L140.47653902053833,89.37622313374224L140.74462401866913,89.66868904342708L140.83398568471273,89.76617218828991L140.87866651773453,89.81491650657073L141.6382406791051,90.64341614977887L142.21909150838852,91.27679573569577L142.71058067162832,91.8125713593769L142.88930400371552,92.0073509313444L143.5371760825316,92.71322643272154L143.64887816508613,92.83488952726785L144.0510056622823,93.27278111207595L144.16270774483678,93.39438928963453L144.3637714934349,93.61324446900888L144.4978139925003,93.75912595513005L144.74355857412021,94.02651676823194L144.8776010731856,94.17233784566662L144.9446223227183,94.24524014683581L145.1456860713164,94.46390860845197L145.1903669043382,94.51249366746846L145.32440940340362,94.65823786112037L145.7265369005998,95.09531118281174L145.9722814822197,95.36230110190345L146.128664397796,95.53215385315481L146.352068562905,95.77473317121472L146.75419606010118,96.21118043924636L147.1563235572974,96.64734763064072L147.29036605636279,96.79267445518612L147.31270647287369,96.81689284676096L147.5807914710045,97.10743666187638L148.0499402177334,97.615550598854L148.36270604888597,97.95405341932612L148.49674854795137,98.09906172534288L148.60845063050587,98.21987360657985L148.76483354608217,98.38896850340097L148.92121646165847,98.55800299153563L149.14462062676748,98.79939610266126L149.21164187630018,98.87179316754364L149.27866312583288,98.94417375732968L149.41270562489828,99.08891297010672L149.63610979000728,99.33005346308893L149.81483312209446,99.52287799029439L150.10525853673616,99.83605309604016L150.149939369758,99.88421529425138L150.86483269810677,100.65411301988692L150.90951353112857,100.70218735091781L151.13291769623757,100.9424766305907L151.19993894577024,101.01453870184811L151.75844935854278,101.61455621773844L151.80313019156458,101.66252071479394L152.29461935480438,102.18972928839418L152.31695977131525,102.21367309503052L152.49568310340246,102.40519608962754L152.56270435293516,102.47698906764523L152.58504476944606,102.50092189088404L153.34461893081664,103.313561508045L153.45632101337117,103.4329125974092L153.47866142988204,103.45677952026278L153.74674642801284,103.74303431863898L154.88610767006872,104.95686998942816L155.04249058564506,105.12311469458776L155.08717141866686,105.1705959221515L155.17653308471043,105.26554190218269L155.69036266446113,105.8108895568196L155.75738391399383,105.88194664720214L155.86908599654834,106.00034218098038L156.13717099467914,106.2842849741745L156.18185182770094,106.33158497567885L156.20419224421184,106.35523223058162L156.3158943267663,106.47343006320418L156.65100057442984,106.82773250103705L157.36589390277862,107.58205027726262L158.1478084806601,108.4046353608957L158.6392976438999,108.92032235047687L158.9967443080743,109.29469145561461L159.19780805667241,109.50501802679946L159.48823347131412,109.80849479251773L159.73397805293402,110.06497360016405L159.91270138502122,110.2513234145199L160.67227554639183,111.04159534259142L160.8063180454572,111.18076048111709L161.0297222105662,111.41250467750419L161.1414242931207,111.52828067096924L161.43184970776238,111.82900609560387L161.5658922068278,111.96766050614396L161.744615538915,112.15238477766395L162.05738137006762,112.47525273173842L162.191423869133,112.61346780637693L162.2361047021548,112.65951570056177L163.3978063607216,113.85305405269774L163.4424871937434,113.89881088684778L163.50950844327608,113.96742966297651L163.6882317753633,114.15028126521601L164.04567843953768,114.51544079151678L164.8052526009083,115.28897402173793L164.872273850441,115.35706559478476L164.98397593299546,115.47049663287513L165.0063163495064,115.49317185709566L165.36376301368077,115.8555910257103L165.43078426321347,115.92345743910755L165.67652884483337,116.17208037166364L165.69886926134427,116.19466498285448L165.74355009436607,116.2398232218386L165.83291176040967,116.33010125791546L165.94461384296417,116.44288427555097L166.23503925760588,116.73575657094479L166.25737967411678,116.75826429835283L166.79354967037835,117.29749969225895L166.88291133642198,117.38719835411558L166.97227300246558,117.4768448448339L167.06163466850916,117.56643916441394L167.08397508502006,117.58883156614782L167.39674091617266,117.9019682300022L167.46376216570536,117.96898617593953L167.59780466477076,118.10293694648328L167.79886841336887,118.3036448072728L167.93291091243424,118.43730177193235L168.06695341149967,118.57084066506836L168.15631507754324,118.65980343928986L168.29035757660867,118.79314463127015L168.46908090869584,118.9707489153351L168.69248507380485,119.19245154052159L168.73716590682665,119.23675307449761L169.09461257100105,119.59066834756722L169.49674006819725,119.98778406900949L169.54142090121903,120.03183847654088L169.56376131772993,120.0538601886078L169.67546340028446,120.1639193236535L169.85418673237166,120.33983491034672L169.89886756539346,120.38377948390273L170.39035672863324,120.86623895007718L170.43503756165507,120.91001328097131L170.70312255978584,121.1723654604519L170.85950547536214,121.32516648702303L170.90418630838394,121.36878979620097L170.94886714140574,121.4124021219814L171.08290964047114,121.54314574044356L171.23929255604745,121.69551841451064L171.26163297255835,121.71727103333784L171.41801588813462,121.86943776870105L171.93184546788532,122.36815540908351L172.15524963299433,122.58437731889774L172.17759004950523,122.60597891600877L172.49035588065783,122.90800861910121L172.78078129529953,123.18780517972411L173.24993004202844,123.63842652228062L173.38397254109384,123.76686362725947L173.74141920526822,124.10868343378857L174.03184461990992,124.38567922803887L174.07652545293172,124.4282344018061L174.45631253361702,124.78931908761967L174.47865295012792,124.81052528241928L174.9701421133677,125.27601814524442L176.1318437719345,126.3684790356727L176.37758835355442,126.59815286162359L176.5339712691307,126.74404533114226L177.0924816819032,127.26340901304984L177.2712050139904,127.42904688549535L177.6509920946757,127.7801174586022L177.807375010252,127.92431848489979L177.8297154267629,127.94489862603963L178.0084387588501,128.1094052085386L178.18716209093728,128.27363171440027L178.38822583953538,128.45805394248794L178.61163000464438,128.66255382127798L178.63397042115528,128.68297744900292L178.7903533367316,128.82583575495127L179.147800000906,129.15154840898853L179.2148212504387,129.21249528193584L180.10843791087467,130.0212385388196L180.1977995769183,130.10171389259236L180.51056540807087,130.38280649412494L180.57758665760358,130.442924120558L181.27013956944148,131.06170677114477L181.31482040246328,131.1014776536357L181.51588415106139,131.2802022442497L181.53822456757229,131.30003826020624L181.73928831617036,131.47834273586432L182.052054147323,131.75494861950196L182.27545831243197,131.95195507532063L183.25843663891158,132.81310835941403L183.30311747193335,132.85202802859567L184.24141496539116,133.6648680927617L184.71056371212003,134.06802468285076L184.93396787722904,134.2592319047685L185.17971245884894,134.46898184758254L185.20205287535984,134.48802156721743L186.20737161835035,135.3394902405303L186.31907370090482,135.4334586981805L186.63183953205746,135.69589050729326L186.76588203112283,135.8080529629678L187.05630744576453,136.0504290881732L187.16800952831906,136.14341727759296L187.19034994482996,136.1619984403806L187.21269036134086,136.18057411146947L187.57013702551524,136.47709014899704L188.73183868408202,137.4314348153647L188.77651951710385,137.46785301575667L188.88822159965832,137.55880378493282L189.60311492800713,138.13770297320386L189.7818382600943,138.28156076832835L190.13928492426874,138.56823018996164L190.5637528379758,138.90682636931285L190.76481658657391,139.06651947784007L190.80949741959571,139.1019464266041L190.96588033517202,139.22576363999286L191.39034824887912,139.56046895076565L191.47970991492272,139.63067620076356L191.79247574607533,139.87569657892666L191.8818374121189,139.94550018906497L192.4403478248914,140.37972469201952L192.753113656044,140.62134296279473L192.8424753220876,140.69017179640142L192.8871561551094,140.72455120362508L192.9318369881312,140.7589086440537L193.49034740090372,141.18643739328317L193.66907073299092,141.32248736568167L193.7360919825236,141.3734105154494L193.9818365641435,141.55968207309778L194.763751142025,142.1476796333057L194.8754532245795,142.2310930459203L194.987155307134,142.3143595555928L195.0318361401558,142.3476255208909L195.0765169731776,142.38086814646923L195.14353822271028,142.43068609185954L195.5456657199065,142.7284816952005L196.0818357161681,143.1225495238255L196.2828994647662,143.26943873667093L196.4616227968534,143.3995988621388L196.79672904451687,143.64261065147684L196.9531119600932,143.7555529283767L197.31055862426757,144.01259188929748L197.4222607068221,144.09259770282543L197.53396278937657,144.1724511217125L197.80204778750738,144.36347849049554L198.40523903330165,144.7900640404613L198.53928153236708,144.88425353898694L199.23183444420496,145.36734455051993L199.38821735978127,145.4756037812938L199.52225985884667,145.5681540077367L199.58928110837937,145.61434605901422L199.90204693953197,145.8291579751693L200.61694026788075,146.3155343954913L200.88502526601155,146.4962565915328L201.66693984389303,147.01813409855225L201.86800359249116,147.1510661589742L201.93502484202384,147.1952619777489L202.35949275573094,147.4738187873745L202.40417358875274,147.50300579341135L202.71693941990534,147.70658718558218L203.72225816289586,148.352332704204L203.90098149498303,148.46574589427337L203.96800274451576,148.50816926727012L204.19140690962476,148.64914803931453L204.52651315728824,148.85938399746965L205.06268315354984,149.19266695826107L205.33076815168064,149.35787373235317L205.42012981772422,149.41273031136478L205.50949148376782,149.46747980225038L205.88927856445312,149.69897275341873L206.02332106351852,149.78021557209456L206.06800189654035,149.80724159466547L206.13502314607302,149.84773188969527L206.15736356258392,149.86121538309985L206.40310814420383,150.00908761002503L206.60417189280193,150.1294683929086L206.67119314233463,150.16947404552192L206.8275760579109,150.2625844252393L207.4084268871943,150.60551767369398L207.43076730370524,150.61861537526L207.4977885532379,150.65786866514188L207.6765118853251,150.76224595134784L207.96693729996682,150.93092759783656L208.12332021554312,151.0212783989221L208.54778812925022,151.2648242559655L208.6371497952938,151.3157810423882L208.9052347934246,151.4679923978039L209.1062985420227,151.5814996332147L209.4190643731753,151.7569546036736L209.486085622708,151.79437503909105L209.9105535364151,152.0299263556503L210.2456597840786,152.2141145000779L210.7371489473184,152.4814181324618L210.7818297803402,152.5055507162434L211.1392764445146,152.69760160038467L211.42970185915627,152.85231785690172L211.67544644077617,152.98230293447133L211.8094889398416,153.05284380516952L211.8541697728634,153.07630091000237L212.23395685354868,153.27454437096895L212.3456589361032,153.33246119912002L213.03821184794108,153.68758258653193L213.1275735139847,153.7329062629415L213.4850201781591,153.91305732231095L213.9094880918662,154.12460579647205L214.28927517255147,154.31168806615133L214.37863683859507,154.35540542067073L214.82544516881308,154.57226024876817L215.02650891741118,154.66890179079454L215.13821099996568,154.7223380792118L215.40629599809645,154.84984571417388L215.56267891367278,154.9237420128204L215.87544474482536,155.0704664747027L216.21055099248886,155.22608680212977L216.36693390806516,155.29814750046248L216.45629557410876,155.33916431211182L216.47863599061967,155.3494001521564L216.67969973921777,155.44119389709374L216.76906140526137,155.48180020426003L216.81374223828314,155.50205976748418L216.90310390432677,155.54249034028985L217.01480598688124,155.59286432018058L217.10416765292484,155.63303060498296L217.43927390058838,155.78260731791386L217.81906098127365,155.9501254107257L217.86374181429545,155.96969301990487L218.08714597940445,156.06708898404975L218.22118847846983,156.12517124962625L218.31055014451346,156.1637456282477L218.62331597566606,156.29781996201376L218.86906055728593,156.4021443906191L218.93608180681863,156.43044036853053L219.07012430588406,156.4868318773483L219.11480513890584,156.50556955355088L219.15948597192764,156.5242773686414L219.38289013703664,156.61736955710663L219.53927305261294,156.68209094326465L219.82969846725462,156.80131709648185L219.85203888376554,156.8104360622891L220.09778346538542,156.9102511197421L220.14246429840725,156.9283019903673L220.16480471491815,156.93731627066674L220.47757054607075,157.06272813608578L220.61161304513612,157.11602610234027L221.01374054233233,157.2742972041173L221.14778304139773,157.32651261925176L221.17012345790863,157.33518881684572L221.32650637348493,157.3957111128319L221.6839530376593,157.53266035090397L222.04139970183374,157.66767548131554L222.10842095136644,157.69277529054293L222.2201230339209,157.73445659774342L222.39884636600812,157.80075307175488L222.48820803205172,157.83371905300768L222.55522928158445,157.8583640809307L222.82331427971525,157.95626047612598L222.86799511273702,157.97247025473857L222.91267594575882,157.9886494857768L222.95735677878062,158.0047981692406L222.97969719529152,158.01286135595933L223.314803442955,158.13289307273985L223.40416510899863,158.1646120951407L223.6275692741076,158.24337609828433L224.45416468501094,158.52815912139022L224.655228433609,158.59584602488394L224.9679942647616,158.69990136024956L224.99033468127251,158.70727602523505L225.28076009591422,158.8024509404587L225.4818238445123,158.86757939878808L225.52650467753412,158.88196764956496L225.8839513417085,158.9959646758598L226.7328871691227,159.2587863955852L226.84458925167718,159.29253666006858L226.9339509177208,159.31939741682962L226.9562913342317,159.3260931705547L227.1796954993407,159.39262492953534L227.53714216351509,159.49746163066655L227.55948258002599,159.50394801337603L227.6265038295587,159.52336013883377L227.8052271616459,159.57478406288305L228.0733121597767,159.65098653178174L228.0956525762876,159.65728602511746L228.47543965697287,159.76318742934765L228.7658650716146,159.84265007954414L228.96692882021267,159.89689004375325L229.36905631740888,160.00347053085946L229.41373715043068,160.01515635099486L229.63714131553968,160.07311608304255L229.70416256507238,160.09035126478483L229.79352423111598,160.11322178754287L229.86054548064868,160.13029238993764L229.92756673018138,160.14729245832635L230.06160922924676,160.18108082146992L230.17331131180129,160.2090222415795L230.4190558934212,160.2698023041767L230.687140891552,160.33502412138515L230.82118339061736,160.3672106246438L230.86586422363916,160.37787653334829L231.02224713921547,160.414959400907L231.35735338687897,160.4931237791912L231.37969380338987,160.49827173194112L231.53607671896617,160.53408687516193L231.69245963454244,160.56951554008182L232.04990629871688,160.64904426227912L232.11692754824958,160.66373078094546L232.18394879778225,160.67834642237455L232.36267212986948,160.71697365859666L232.40735296289125,160.72655152448237L232.83182087659839,160.8159632450783L233.18926754077276,160.8890415380315L233.59139503796894,160.9688305152658L233.79245878656704,161.00776159688394L233.94884170214337,161.0375969666068L234.50735211491585,161.1409757075224L234.73075628002485,161.18093639685208L234.86479877909025,161.20453113738537L234.88713919560115,161.2084357352107L235.13288377722105,161.2508610817867L235.57969210743906,161.32552973638053L235.69139418999353,161.34369893595263L235.95947918812433,161.38649179730726L236.11586210370064,161.41092393609517L236.13820252021154,161.41438233339545L236.85309584856032,161.52083582496758L236.87543626507124,161.52403070653472L237.03181918064752,161.54617109077975L237.25522334575652,161.5771207605061L237.36692542831102,161.5922956971318L237.41160626133282,161.59830970793925L237.63501042644182,161.62789966737333L237.65735084295272,161.6308146439188L237.79139334201813,161.64813649153228L237.90309542457263,161.66235123895115L237.9477762575944,161.66798108826814L238.30522292176883,161.71186671187016L238.37224417130153,161.71986695857254L238.4616058373451,161.73042178908864L238.6850100024541,161.75624783257445L238.9530950005849,161.78618085156606L239.2658608317375,161.81964308073933L239.3999033308029,161.83350266970183L239.46692458033561,161.84032411039212L239.86905207753182,161.8797357156526L240.15947749217352,161.90658164911738L240.2935199912389,161.91851423101429L240.3382008242607,161.92242749542675L240.42756249030433,161.930157576292L240.49458373983703,161.93587076642822L240.71798790494603,161.95439233570343L240.7626687379678,161.95800018872765L240.8743708205223,161.96687917158906L241.2541579012076,161.99556411622743L241.3211791507403,162.00038490531355L241.4999024828275,162.0128864250578L242.05841289560001,162.04863484199336L242.2594766441981,162.0602729529957L242.57224247535072,162.07708061885992L242.6169233083725,162.07935289503374L242.7733062239488,162.0870522084421L243.2647953871886,162.10868103343853L243.30947622021037,162.1104539779743L243.57756121834117,162.12041498906447L243.86798663298288,162.12989690038535L244.49351829528808,162.145694273336L245.0073478750388,162.1539440129011L245.23075204014776,162.15620095663002L245.67756037036577,162.15685881699298L245.74458161989847,162.15685881699298" fill="none"></path></g></g></g></g></g></g><g transform="translate(61, 176)" clip-path="url(#clip_1)"><clipPath id="clip_1"><rect width="268" height="23"></rect></clipPath><g><g><line x1="0" y1="0" x2="0" y2="5" style="visibility: inherit;" fill="rgb(0, 0, 0)" stroke="rgb(204, 204, 204)" stroke-width="1px"></line><line x1="22.34041651089986" y1="0" x2="22.34041651089986" y2="5" style="visibility: inherit;" fill="rgb(0, 0, 0)" stroke="rgb(204, 204, 204)" stroke-width="1px"></line><line x1="44.68083302179972" y1="0" x2="44.68083302179972" y2="5" style="visibility: inherit;" fill="rgb(0, 0, 0)" stroke="rgb(204, 204, 204)" stroke-width="1px"></line><line x1="67.02124953269958" y1="0" x2="67.02124953269958" y2="5" style="visibility: inherit;" fill="rgb(0, 0, 0)" stroke="rgb(204, 204, 204)" stroke-width="1px"></line><line x1="89.36166604359944" y1="0" x2="89.36166604359944" y2="5" style="visibility: inherit;" fill="rgb(0, 0, 0)" stroke="rgb(204, 204, 204)" stroke-width="1px"></line><line x1="111.70208255449931" y1="0" x2="111.70208255449931" y2="5" style="visibility: inherit;" fill="rgb(0, 0, 0)" stroke="rgb(204, 204, 204)" stroke-width="1px"></line><line x1="134.04249906539917" y1="0" x2="134.04249906539917" y2="5" style="visibility: inherit;" fill="rgb(0, 0, 0)" stroke="rgb(204, 204, 204)" stroke-width="1px"></line><line x1="156.38291557629904" y1="0" x2="156.38291557629904" y2="5" style="visibility: inherit;" fill="rgb(0, 0, 0)" stroke="rgb(204, 204, 204)" stroke-width="1px"></line><line x1="178.72333208719888" y1="0" x2="178.72333208719888" y2="5" style="visibility: inherit;" fill="rgb(0, 0, 0)" stroke="rgb(204, 204, 204)" stroke-width="1px"></line><line x1="201.06374859809875" y1="0" x2="201.06374859809875" y2="5" style="visibility: inherit;" fill="rgb(0, 0, 0)" stroke="rgb(204, 204, 204)" stroke-width="1px"></line><line x1="223.40416510899863" y1="0" x2="223.40416510899863" y2="5" style="visibility: inherit;" fill="rgb(0, 0, 0)" stroke="rgb(204, 204, 204)" stroke-width="1px"></line><line x1="245.74458161989847" y1="0" x2="245.74458161989847" y2="5" style="visibility: inherit;" fill="rgb(0, 0, 0)" stroke="rgb(204, 204, 204)" stroke-width="1px"></line><line x1="268.08499813079834" y1="0" x2="268.08499813079834" y2="5" style="visibility: inherit;" fill="rgb(0, 0, 0)" stroke="rgb(204, 204, 204)" stroke-width="1px"></line></g><g transform="translate(0, 8)"><text style="text-anchor: middle; visibility: hidden; font-family: Roboto, sans-serif; font-size: 12px; font-weight: 200;" x="0" y="0" dx="0em" dy="0.95em" fill="rgb(33, 33, 33)" stroke="none" stroke-width="1px">-1k</text><text style="text-anchor: middle; visibility: inherit; font-family: Roboto, sans-serif; font-size: 12px; font-weight: 200;" x="22.34041651089986" y="0" dx="0em" dy="0.95em" fill="rgb(33, 33, 33)" stroke="none" stroke-width="1px">0</text><text style="text-anchor: middle; visibility: inherit; font-family: Roboto, sans-serif; font-size: 12px; font-weight: 200;" x="44.68083302179972" y="0" dx="0em" dy="0.95em" fill="rgb(33, 33, 33)" stroke="none" stroke-width="1px">1k</text><text style="text-anchor: middle; visibility: inherit; font-family: Roboto, sans-serif; font-size: 12px; font-weight: 200;" x="67.02124953269958" y="0" dx="0em" dy="0.95em" fill="rgb(33, 33, 33)" stroke="none" stroke-width="1px">2k</text><text style="text-anchor: middle; visibility: inherit; font-family: Roboto, sans-serif; font-size: 12px; font-weight: 200;" x="89.36166604359944" y="0" dx="0em" dy="0.95em" fill="rgb(33, 33, 33)" stroke="none" stroke-width="1px">3k</text><text style="text-anchor: middle; visibility: inherit; font-family: Roboto, sans-serif; font-size: 12px; font-weight: 200;" x="111.70208255449931" y="0" dx="0em" dy="0.95em" fill="rgb(33, 33, 33)" stroke="none" stroke-width="1px">4k</text><text style="text-anchor: middle; visibility: inherit; font-family: Roboto, sans-serif; font-size: 12px; font-weight: 200;" x="134.04249906539917" y="0" dx="0em" dy="0.95em" fill="rgb(33, 33, 33)" stroke="none" stroke-width="1px">5k</text><text style="text-anchor: middle; visibility: inherit; font-family: Roboto, sans-serif; font-size: 12px; font-weight: 200;" x="156.38291557629904" y="0" dx="0em" dy="0.95em" fill="rgb(33, 33, 33)" stroke="none" stroke-width="1px">6k</text><text style="text-anchor: middle; visibility: inherit; font-family: Roboto, sans-serif; font-size: 12px; font-weight: 200;" x="178.72333208719888" y="0" dx="0em" dy="0.95em" fill="rgb(33, 33, 33)" stroke="none" stroke-width="1px">7k</text><text style="text-anchor: middle; visibility: inherit; font-family: Roboto, sans-serif; font-size: 12px; font-weight: 200;" x="201.06374859809875" y="0" dx="0em" dy="0.95em" fill="rgb(33, 33, 33)" stroke="none" stroke-width="1px">8k</text><text style="text-anchor: middle; visibility: inherit; font-family: Roboto, sans-serif; font-size: 12px; font-weight: 200;" x="223.40416510899863" y="0" dx="0em" dy="0.95em" fill="rgb(33, 33, 33)" stroke="none" stroke-width="1px">9k</text><text style="text-anchor: middle; visibility: inherit; font-family: Roboto, sans-serif; font-size: 12px; font-weight: 200;" x="245.74458161989847" y="0" dx="0em" dy="0.95em" fill="rgb(33, 33, 33)" stroke="none" stroke-width="1px">10k</text><text style="text-anchor: middle; visibility: hidden; font-family: Roboto, sans-serif; font-size: 12px; font-weight: 200;" x="268.08499813079834" y="0" dx="0em" dy="0.95em" fill="rgb(33, 33, 33)" stroke="none" stroke-width="1px">11k</text></g><line x1="0" y1="0" x2="268.08499813079834" y2="0" fill="rgb(0, 0, 0)" stroke="rgb(204, 204, 204)" stroke-width="1px"></line></g></g></g></g></svg>