<svg viewBox="0 0 330 200" xmlns="http://www.w3.org/2000/svg"><g><g><g><g><g><line x1="51.53200149536133" y1="176.89999961853027" x2="46.53200149536133" y2="176.89999961853027" style="visibility: inherit;" fill="rgb(0, 0, 0)" stroke="rgb(204, 204, 204)" stroke-width="1px"></line><line x1="51.53200149536133" y1="162.15833298365274" x2="46.53200149536133" y2="162.15833298365274" style="visibility: inherit;" fill="rgb(0, 0, 0)" stroke="rgb(204, 204, 204)" stroke-width="1px"></line><line x1="51.53200149536133" y1="147.41666634877524" x2="46.53200149536133" y2="147.41666634877524" style="visibility: inherit;" fill="rgb(0, 0, 0)" stroke="rgb(204, 204, 204)" stroke-width="1px"></line><line x1="51.53200149536133" y1="132.6749997138977" x2="46.53200149536133" y2="132.6749997138977" style="visibility: inherit;" fill="rgb(0, 0, 0)" stroke="rgb(204, 204, 204)" stroke-width="1px"></line><line x1="51.53200149536133" y1="117.9333330790202" x2="46.53200149536133" y2="117.9333330790202" style="visibility: inherit;" fill="rgb(0, 0, 0)" stroke="rgb(204, 204, 204)" stroke-width="1px"></line><line x1="51.53200149536133" y1="103.19166644414264" x2="46.53200149536133" y2="103.19166644414264" style="visibility: inherit;" fill="rgb(0, 0, 0)" stroke="rgb(204, 204, 204)" stroke-width="1px"></line><line x1="51.53200149536133" y1="88.44999980926514" x2="46.53200149536133" y2="88.44999980926514" style="visibility: inherit;" fill="rgb(0, 0, 0)" stroke="rgb(204, 204, 204)" stroke-width="1px"></line><line x1="51.53200149536133" y1="73.7083331743876" x2="46.53200149536133" y2="73.7083331743876" style="visibility: inherit;" fill="rgb(0, 0, 0)" stroke="rgb(204, 204, 204)" stroke-width="1px"></line><line x1="51.53200149536133" y1="58.9666665395101" x2="46.53200149536133" y2="58.9666665395101" style="visibility: inherit;" fill="rgb(0, 0, 0)" stroke="rgb(204, 204, 204)" stroke-width="1px"></line><line x1="51.53200149536133" y1="44.22499990463257" x2="46.53200149536133" y2="44.22499990463257" style="visibility: inherit;" fill="rgb(0, 0, 0)" stroke="rgb(204, 204, 204)" stroke-width="1px"></line><line x1="51.53200149536133" y1="29.48333326975504" x2="46.53200149536133" y2="29.48333326975504" style="visibility: inherit;" fill="rgb(0, 0, 0)" stroke="rgb(204, 204, 204)" stroke-width="1px"></line><line x1="51.53200149536133" y1="14.741666634877529" x2="46.53200149536133" y2="14.741666634877529" style="visibility: inherit;" fill="rgb(0, 0, 0)" stroke="rgb(204, 204, 204)" stroke-width="1px"></line><line x1="51.53200149536133" y1="0" x2="46.53200149536133" y2="0" style="visibility: inherit;" fill="rgb(0, 0, 0)" stroke="rgb(204, 204, 204)" stroke-width="1px"></line></g><g transform="translate(41.53200149536133, 0)"><text style="text-anchor: end; visibility: hidden; font-family: Roboto, sans-serif; font-size: 12px; font-weight: 200;" x="0" y="176.89999961853027" dx="0em" dy="0.3em" fill="rgb(33, 33, 33)" stroke="none" stroke-width="1px">-0.5</text><text style="text-anchor: end; visibility: inherit; font-family: Roboto, sans-serif; font-size: 12px; font-weight: 200;" x="0" y="162.15833298365274" dx="0em" dy="0.3em" fill="rgb(33, 33, 33)" stroke="none" stroke-width="1px">0</text><text style="text-anchor: end; visibility: hidden; font-family: Roboto, sans-serif; font-size: 12px; font-weight: 200;" x="0" y="147.41666634877524" dx="0em" dy="0.3em" fill="rgb(33, 33, 33)" stroke="none" stroke-width="1px">0.5</text><text style="text-anchor: end; visibility: inherit; font-family: Roboto, sans-serif; font-size: 12px; font-weight: 200;" x="0" y="132.6749997138977" dx="0em" dy="0.3em" fill="rgb(33, 33, 33)" stroke="none" stroke-width="1px">1</text><text style="text-anchor: end; visibility: hidden; font-family: Roboto, sans-serif; font-size: 12px; font-weight: 200;" x="0" y="117.9333330790202" dx="0em" dy="0.3em" fill="rgb(33, 33, 33)" stroke="none" stroke-width="1px">1.5</text><text style="text-anchor: end; visibility: inherit; font-family: Roboto, sans-serif; font-size: 12px; font-weight: 200;" x="0" y="103.19166644414264" dx="0em" dy="0.3em" fill="rgb(33, 33, 33)" stroke="none" stroke-width="1px">2</text><text style="text-anchor: end; visibility: hidden; font-family: Roboto, sans-serif; font-size: 12px; font-weight: 200;" x="0" y="88.44999980926514" dx="0em" dy="0.3em" fill="rgb(33, 33, 33)" stroke="none" stroke-width="1px">2.5</text><text style="text-anchor: end; visibility: inherit; font-family: Roboto, sans-serif; font-size: 12px; font-weight: 200;" x="0" y="73.7083331743876" dx="0em" dy="0.3em" fill="rgb(33, 33, 33)" stroke="none" stroke-width="1px">3</text><text style="text-anchor: end; visibility: hidden; font-family: Roboto, sans-serif; font-size: 12px; font-weight: 200;" x="0" y="58.9666665395101" dx="0em" dy="0.3em" fill="rgb(33, 33, 33)" stroke="none" stroke-width="1px">3.5</text><text style="text-anchor: end; visibility: inherit; font-family: Roboto, sans-serif; font-size: 12px; font-weight: 200;" x="0" y="44.22499990463257" dx="0em" dy="0.3em" fill="rgb(33, 33, 33)" stroke="none" stroke-width="1px">4</text><text style="text-anchor: end; visibility: hidden; font-family: Roboto, sans-serif; font-size: 12px; font-weight: 200;" x="0" y="29.48333326975504" dx="0em" dy="0.3em" fill="rgb(33, 33, 33)" stroke="none" stroke-width="1px">4.5</text><text style="text-anchor: end; visibility: inherit; font-family: Roboto, sans-serif; font-size: 12px; font-weight: 200;" x="0" y="14.741666634877529" dx="0em" dy="0.3em" fill="rgb(33, 33, 33)" stroke="none" stroke-width="1px">5</text><text style="text-anchor: end; visibility: hidden; font-family: Roboto, sans-serif; font-size: 12px; font-weight: 200;" x="0" y="0" dx="0em" dy="0.3em" fill="rgb(33, 33, 33)" stroke="none" stroke-width="1px">5.5</text></g><line x1="51.53200149536133" y1="0" x2="51.53200149536133" y2="176.89999961853027" fill="rgb(0, 0, 0)" stroke="rgb(204, 204, 204)" stroke-width="1px"></line></g></g><g transform="translate(51, 0)" clip-path="url(#clip_0)"><clipPath id="clip_0"><rect width="278" height="176"></rect></clipPath><g><g><g><line x1="0" y1="0" x2="0" y2="176.89999961853027" fill="rgb(0, 0, 0)" stroke="rgb(66, 66, 66)" stroke-width="1px" opacity="0.25"></line><line x1="23.205666542053223" y1="0" x2="23.205666542053223" y2="176.89999961853027" fill="rgb(0, 0, 0)" stroke="rgb(66, 66, 66)" stroke-width="1px" opacity="0.25"></line><line x1="46.411333084106445" y1="0" x2="46.411333084106445" y2="176.89999961853027" fill="rgb(0, 0, 0)" stroke="rgb(66, 66, 66)" stroke-width="1px" opacity="0.25"></line><line x1="69.61699962615967" y1="0" x2="69.61699962615967" y2="176.89999961853027" fill="rgb(0, 0, 0)" stroke="rgb(66, 66, 66)" stroke-width="1px" opacity="0.25"></line><line x1="92.82266616821289" y1="0" x2="92.82266616821289" y2="176.89999961853027" fill="rgb(0, 0, 0)" stroke="rgb(66, 66, 66)" stroke-width="1px" opacity="0.25"></line><line x1="116.02833271026611" y1="0" x2="116.02833271026611" y2="176.89999961853027" fill="rgb(0, 0, 0)" stroke="rgb(66, 66, 66)" stroke-width="1px" opacity="0.25"></line><line x1="139.23399925231934" y1="0" x2="139.23399925231934" y2="176.89999961853027" fill="rgb(0, 0, 0)" stroke="rgb(66, 66, 66)" stroke-width="1px" opacity="0.25"></line><line x1="162.43966579437256" y1="0" x2="162.43966579437256" y2="176.89999961853027" fill="rgb(0, 0, 0)" stroke="rgb(66, 66, 66)" stroke-width="1px" opacity="0.25"></line><line x1="185.64533233642578" y1="0" x2="185.64533233642578" y2="176.89999961853027" fill="rgb(0, 0, 0)" stroke="rgb(66, 66, 66)" stroke-width="1px" opacity="0.25"></line><line x1="208.850998878479" y1="0" x2="208.850998878479" y2="176.89999961853027" fill="rgb(0, 0, 0)" stroke="rgb(66, 66, 66)" stroke-width="1px" opacity="0.25"></line><line x1="232.05666542053223" y1="0" x2="232.05666542053223" y2="176.89999961853027" fill="rgb(0, 0, 0)" stroke="rgb(66, 66, 66)" stroke-width="1px" opacity="0.25"></line><line x1="255.26233196258545" y1="0" x2="255.26233196258545" y2="176.89999961853027" fill="rgb(0, 0, 0)" stroke="rgb(66, 66, 66)" stroke-width="1px" opacity="0.25"></line><line x1="278.4679985046387" y1="0" x2="278.4679985046387" y2="176.89999961853027" fill="rgb(0, 0, 0)" stroke="rgb(66, 66, 66)" stroke-width="1px" opacity="0.25"></line></g><g><line x1="0" y1="176.89999961853027" x2="278.4679985046387" y2="176.89999961853027" fill="rgb(0, 0, 0)" stroke="rgb(66, 66, 66)" stroke-width="1px" opacity="0.25"></line><line x1="0" y1="162.15833298365274" x2="278.4679985046387" y2="162.15833298365274" fill="rgb(0, 0, 0)" stroke="rgb(66, 66, 66)" stroke-width="1px" opacity="0.25"></line><line x1="0" y1="147.41666634877524" x2="278.4679985046387" y2="147.41666634877524" fill="rgb(0, 0, 0)" stroke="rgb(66, 66, 66)" stroke-width="1px" opacity="0.25"></line><line x1="0" y1="132.6749997138977" x2="278.4679985046387" y2="132.6749997138977" fill="rgb(0, 0, 0)" stroke="rgb(66, 66, 66)" stroke-width="1px" opacity="0.25"></line><line x1="0" y1="117.9333330790202" x2="278.4679985046387" y2="117.9333330790202" fill="rgb(0, 0, 0)" stroke="rgb(66, 66, 66)" stroke-width="1px" opacity="0.25"></line><line x1="0" y1="103.19166644414264" x2="278.4679985046387" y2="103.19166644414264" fill="rgb(0, 0, 0)" stroke="rgb(66, 66, 66)" stroke-width="1px" opacity="0.25"></line><line x1="0" y1="88.44999980926514" x2="278.4679985046387" y2="88.44999980926514" fill="rgb(0, 0, 0)" stroke="rgb(66, 66, 66)" stroke-width="1px" opacity="0.25"></line><line x1="0" y1="73.7083331743876" x2="278.4679985046387" y2="73.7083331743876" fill="rgb(0, 0, 0)" stroke="rgb(66, 66, 66)" stroke-width="1px" opacity="0.25"></line><line x1="0" y1="58.9666665395101" x2="278.4679985046387" y2="58.9666665395101" fill="rgb(0, 0, 0)" stroke="rgb(66, 66, 66)" stroke-width="1px" opacity="0.25"></line><line x1="0" y1="44.22499990463257" x2="278.4679985046387" y2="44.22499990463257" fill="rgb(0, 0, 0)" stroke="rgb(66, 66, 66)" stroke-width="1px" opacity="0.25"></line><line x1="0" y1="29.48333326975504" x2="278.4679985046387" y2="29.48333326975504" fill="rgb(0, 0, 0)" stroke="rgb(66, 66, 66)" stroke-width="1px" opacity="0.25"></line><line x1="0" y1="14.741666634877529" x2="278.4679985046387" y2="14.741666634877529" fill="rgb(0, 0, 0)" stroke="rgb(66, 66, 66)" stroke-width="1px" opacity="0.25"></line><line x1="0" y1="0" x2="278.4679985046387" y2="0" fill="rgb(0, 0, 0)" stroke="rgb(66, 66, 66)" stroke-width="1px" opacity="0.25"></line></g></g></g><g><g><line x1="0" y1="162.15833298365274" x2="278.4679985046387" y2="162.15833298365274" fill="rgb(0, 0, 0)" stroke="rgb(153, 153, 153)" stroke-width="1.5px"></line></g></g><g><g><line x1="23.205666542053223" y1="0" x2="23.205666542053223" y2="176.89999961853027" fill="rgb(0, 0, 0)" stroke="rgb(153, 153, 153)" stroke-width="1.5px"></line></g></g><g><g><g><g><g><path style="fill: none;" stroke="rgb(255, 112, 67)" stroke-width="2px" d="M23.32169487476349,-0.16527465148886938L23.60016287326813,1.315849686805097L23.62336853981018,0.46893559309336663L23.83221953868866,0.4556816780792182L23.948247871398923,2.3583892080254354L24.041070537567137,2.9775388721733607L24.22671586990356,0.21007448888451283L24.31953853607178,1.7088833107744583L24.528389534950257,3.110659018588616L25.43341053009033,4.224337048117431L25.642261528968813,3.5534181654293695L26.01355219364166,4.574850641914175L26.22240319252014,4.8351677465040055L26.2920201921463,5.042489292655078L26.408048524856568,4.8926499107208565L27.197041187286377,3.713909651195707L27.63794885158539,4.526695160275117L28.334118847846984,3.8390275968659875L28.450147180557252,4.182293659776109L28.473352847099303,4.905485815038329L28.566175513267517,6.223282739334117L28.635792512893676,6.908894038185767L28.93746617794037,6.408453625773483L28.983877511024474,6.436178449013512L29.192728509902953,6.940259584855574L29.35516817569733,5.123634143645248L29.564019174575808,5.585478395583212L29.680047507286073,5.911014252003446L29.88889850616455,5.811934081506308L30.2601891708374,7.310060755580695L30.283394837379454,8.059508898454311L30.32980617046356,7.341244255082045L30.44583450317383,7.834428970225296L30.6082741689682,7.380457346056301L30.72430250167847,7.474636580214479L30.86353650093079,7.092061271039137L30.88674216747284,8.266906377942608L30.956359167099,9.029757976909638L31.025976166725158,8.617648517646426L31.165210165977477,7.595059713021863L31.49008949756622,7.61266552603135L32.0470254945755,10.099345838598504L32.34869915962219,10.730396245507103L32.3951104927063,11.176980857992199L32.44152182579041,11.577646214598198L32.696784157752994,12.772105866600768L32.83601815700531,12.341880173470258L32.85922382354736,11.9374887815553L32.90563515663147,14.078228015604815L33.323337154388426,15.474354256886972L33.39295415401459,17.60943882759294L33.416159820556636,18.383002477495186L33.508982486724854,18.078790678245902L33.717833485603336,17.094779950216665L33.78745048522949,18.40457650206049L33.857067484855655,17.43787955443757L33.949890151023865,18.628971319077262L34.06591848373413,19.412997868189837L34.50682614803314,22.800840371159627L35.063762145042425,26.004358477228184L35.11017347812653,26.708059436473462L35.249407477378845,26.539722584298328L35.43505280971527,33.51128337481549L35.59749247550964,31.344074192246353L35.6671094751358,31.428029329540763L36.08481147289276,35.61196699600096L36.27045680522919,35.40379495411569L36.34007380485535,34.05742264083886L36.548924803733826,37.93532400981758L36.734570136070246,38.76389707167911L37.036243801116946,42.49606024233514L37.407534465789794,44.40741814553767L37.61638546466828,47.187837009913004L37.848442130088806,49.57391679785613L37.87164779663086,49.63754718445667L38.56781779289246,50.72770222841851L38.614229125976564,53.4190541742509L39.055136790275576,48.494252738359776L39.07834245681763,53.92310993145948L39.31039912223816,56.473685319094805L39.68168978691101,57.13938375636037L39.913746452331544,62.99537439864821L40.238625783920284,63.167777779161305L40.28503711700439,59.08090286602506L40.47068244934082,60.684400798598574L40.51709378242492,64.35803856647597L41.0740297794342,67.30447817852335L41.09723544597626,66.01716212751093L41.56134877681732,69.25446263311366L41.746994109153746,68.82399605845414L41.86302244186402,70.65864767856252L41.90943377494812,69.40967061471969L42.025462107658385,72.22319872114785L42.09507910728455,71.94014403214686L42.164696106910704,74.1850644153416L42.39675277233124,75.0491379867335L42.76804343700409,72.29760712288717L42.88407176971435,76.69001612654093L42.97689443588256,75.95390362635602L43.37139076709747,77.09345172698167L43.603447432518,76.05112613246096L43.719475765228275,79.6994554623741L43.92832676410675,80.00683011414354L43.97473809719086,81.23823804961496L44.67090809345246,77.69213361918986L44.74052509307862,77.68453028762121L44.85655342578888,79.52868251554872L45.204638423919675,78.35632939259942L45.22784409046173,80.95485649689829L45.27425542354584,83.54019394358461L45.924014086723325,84.96619481783159L45.970425419807434,82.42569648800882L46.13286508560181,82.73857229592723L46.24889341831207,82.31029964103575L46.64338974952698,87.33341971845717L46.87544641494751,88.3769974779804L47.1771200799942,86.03926745398948L47.29314841270447,88.84838316128658L47.710850410461425,91.0947404298126L47.73405607700348,84.46975958869945L48.3141977405548,87.04473092657626L48.63907707214356,88.41169622785519L48.824722404479985,93.79700984142549L48.89433940410614,95.41173431371263L49.03357340335846,88.87382694275662L49.19601306915283,93.37679437538604L49.24242440223694,94.16314340954912L49.40486406803131,97.22497926031383L49.91538873195648,95.53086046944782L49.96180006504059,93.09852697467409L50.17065106391907,89.19891047529609L50.26347373008728,93.4324266943071L50.309885063171386,98.25345033325033L50.65797006130219,96.85450208944894L50.704381394386296,96.83706383597574L50.84361539363861,97.91580526285004L51.63260805606842,95.92772077641119L51.86466472148895,93.76029512021884L51.98069305419922,96.65886184523586L52.11992705345154,97.32501567396207L52.14313271999359,102.45924470415224L52.282366719245914,101.42774429442298L52.955331048965455,103.66751629889066L53.39623871326447,97.7363256283026L54.06920304298401,98.40837237608754L54.162025709152225,98.29981697859651L54.46369937419891,93.99346288081918L54.57972770690918,95.15017737636691L54.974224038124085,101.30021530367006L55.0670467042923,106.90782890929L55.22948637008667,106.36971088570428L55.554365701675415,107.40230590674432L55.67039403438568,106.34641996033477L56.227330031394956,109.50715350831015L56.34335836410523,114.17042289290875L56.366564030647275,113.06635066265684L56.48259236335755,113.5377173018174L57.132351026535034,106.74997634932788L57.225173692703244,104.06973275800623L58.153400354385376,108.04414706684223L58.52469101905823,114.14334203848188L58.965598683357236,112.32649272315535L58.9888043498993,112.75241112802507L59.38330068111419,109.31341294897409L59.4297120141983,109.45006202569088L59.4761233472824,107.62773208139792L59.940236678123476,109.85883457304624L60.40435000896454,115.29081888940848L61.2165483379364,116.83585434935704L61.239754004478456,115.53477762547183L61.750278668403624,117.13590858643187L62.2608033323288,120.0935593317566L62.353625998497016,119.60095721029309L62.51606566429138,124.63013019412111L62.7017109966278,124.41180486694505L62.817739329338075,126.25247609145683L63.28185266017914,128.26406177200224L63.51390932559967,123.63204363166176L63.56032065868378,122.15287337117995L63.6995546579361,122.86374973622435L63.72276032447815,118.58210178814143L63.81558299064636,117.69280734397765L63.978022656440736,119.57686310583935L64.04763965606689,116.09780396577965L64.32610765457153,115.34585964656821L64.62778131961822,120.98195135541162L64.92945498466491,123.41186282452215L65.37036264896392,126.52491809068434L65.60241931438446,121.41976927841876L65.71844764709472,119.94516115320202L66.46102897644043,123.73559384387737L67.13399330615998,120.95655427738677L67.20361030578614,121.7433382068624L67.43566697120667,124.53840874264391L67.45887263774871,124.64053378286134L67.6677236366272,122.06749169434568L67.71413496971131,119.9423090587619L68.456716299057,117.53840566168984L68.47992196559906,120.77418540901293L68.52633329868317,122.65872094806099L68.99044662952423,127.32414914252963L69.03685796260834,119.44919414782129L69.1064749622345,122.19042902063822L69.5009712934494,126.45338135429118L69.70982229232789,129.58850620528463L69.77943929195403,130.4810148846954L69.8954676246643,130.3580757781693L69.96508462429045,129.75383635561974L70.52202062129973,131.37263154211672L70.59163762092591,127.80781397283795L70.66125462055206,125.65952094003937L71.05575095176697,126.62313908421199L71.35742461681366,124.6209784536561L71.47345294952392,129.48946253912163L72.28565127849579,131.94288027463296L72.37847394466401,133.12792999340186L72.58732494354248,133.1145181198859L72.7729702758789,133.00594531799425L72.93540994167329,134.56581305201553L73.1210552740097,126.06035033825576L73.53875727176667,132.50184733822147L73.70119693756104,134.65843884785392L73.81722527027131,136.72411784254544L74.3045442676544,137.09033072474347L74.5133952665329,136.24818428286986L74.88468593120575,135.0849244775345L75.23277092933655,137.1501763164427L75.27918226242065,138.89155091673115L75.34879926204681,133.18334001896088L75.51123892784119,137.64982539718048L76.02176359176636,139.61116834685313L76.04496925830841,135.00933347105715L76.20740892410278,132.88924401117728L76.41625992298125,129.29965619870637L76.60190525531769,133.6466239917938L76.74113925457002,130.34250468497328L76.85716758728027,131.43820178524248L76.97319591999053,132.31432918952467L76.9964015865326,135.06630411209542L77.01960725307465,133.23319124447713L77.11242991924286,134.13391722635882L77.36769225120544,134.50472557535477L77.59974891662598,131.1656008919118L78.08706791400908,129.70427642552553L78.11027358055115,130.44158357174194L78.4351529121399,126.91436202798468L78.50476991176605,131.052170374458L78.57438691139221,133.99564493467273L78.64400391101837,129.62554692443086L78.96888324260712,130.66308166711613L79.03850024223327,130.32477138127467L79.10811724185945,132.2560832372922L79.47940790653229,136.30312220878983L79.54902490615845,134.41452240458614L79.5722305727005,137.26939093804498L79.92031557083129,133.57749916796053L80.05954957008362,135.80373656083032L80.10596090316773,135.52339769866586L80.33801756858826,131.88601252697072L80.662896900177,126.04551746699822L80.89495356559753,128.39737539427753L81.47509522914886,128.71584418996824L81.52150656223297,127.61833428872426L81.56791789531708,129.55916729348343L81.89279722690581,131.18115003094002L81.98561989307403,132.75169028858087L82.00882555961608,137.9683464677413L82.1480595588684,137.71526534580192L82.28729355812072,139.6356762532323L82.44973322391509,139.69367976314425L82.70499555587769,140.41745053876863L82.89064088821412,138.84092952052362L83.30834288597107,136.72814075496805L83.4475768852234,137.6084193800409L83.61001655101776,139.33884576880064L83.91169021606446,142.10920694245792L84.05092421531677,137.41857870999357L84.14374688148497,133.97958842957672L84.30618654727937,137.9930828285446L84.49183187961579,140.25962473749735L84.584654545784,142.72521986848113L84.79350554466248,141.06664170959573L84.93273954391479,135.9131193502092L85.07197354316712,138.94506441593916L85.21120754241943,136.30274936610064L85.93058320522309,137.53673557171527L86.0698172044754,135.9168320680368L86.11622853755952,132.99569504917523L86.48751920223236,137.04830887127878L86.74278153419495,138.70412664995808L86.92842686653137,139.91691130523847L87.18368919849395,139.07292644688863L87.206894865036,137.83415344575056L88.15832719326019,139.26207782957434L88.66885185718537,140.30026904903627L88.69205752372741,140.3222566198389L88.8544971895218,142.36321561455173L88.94731985569001,144.39246880759754L89.13296518802643,144.95688499281846L89.66669551849365,139.94443748140006L89.78272385120393,136.02006862150503L90.0379861831665,137.09701919503908L90.66453917980193,140.12442667849479L91.05903551101684,137.9094743241325L91.36070917606354,138.16585740791334L91.61597150802612,138.5785032010238L91.87123383998872,142.57705484625097L92.01046783924103,145.22038067742452L92.59060950279236,147.15537055759856L92.75304916858673,143.3729934738206L93.07792850017547,143.43446279500452L93.28677949905396,144.9535639025443L93.33319083213806,144.3716480291508L93.4028078317642,141.60061471110228L93.72768716335297,143.4097183964618L93.8669211626053,144.60699827253652L94.21500616073608,141.1543491071595L94.3542401599884,140.353940432015L94.44706282615662,139.49138723418176L95.28246682167054,140.77182308249903L95.3984951543808,139.2173543413712L95.97863681793213,141.24524315866967L96.21069348335266,143.39995367836966L96.39633881568909,140.13293164695455L96.46595581531524,140.81657299597194L96.58198414802551,142.20050049177948L96.81404081344604,144.54740234528734L96.86045214653015,146.48278028029074L97.20853714466095,149.57554416939078L97.231742811203,142.60844908610565L97.46379947662354,142.9368215455568L97.67265047550201,143.82371345083112L97.85829580783843,144.36772542502482L97.92791280746461,141.6542037220534L98.83293380260467,138.1018866155731L98.90255080223083,142.53982352664633L99.06499046802521,143.0741585792879L99.15781313419342,141.23004969783662L99.57551513195037,142.52263675484474L99.59872079849244,143.6920364028528L100.13245112895964,147.14842617045846L100.41091912746428,145.49718645354443L100.61977012634277,143.00069438649004L101.03747212409974,144.74170994147835L101.1999117898941,147.2619930358359L101.78005345344543,148.19847399751265L102.05852145195007,148.13212769987652L102.24416678428649,146.83854945178985L102.36019511699676,142.17186307498713L102.68507444858551,145.29816499243285L102.87071978092193,146.97473929518534L102.9867481136322,144.08692780714907L103.05636511325835,140.12834732629278L103.12598211288453,133.95607718419149L103.2420104455948,137.92609269163663L103.56688977718353,141.8992824380257L104.00779744148254,142.7908094838608L104.05420877456665,144.6496549611315L104.70396743774414,144.49096967364204L104.84320143699647,143.5791588859049L105.00564110279083,146.7406803840861L105.14487510204314,148.94398403194756L105.19128643512725,144.84230336004566L105.26090343475342,146.72205175805024L105.70181109905242,142.80310238142576L106.25874709606171,146.0881438506778L106.39798109531402,149.26034823403333L106.93171142578126,144.9615807030638L107.46544175624848,144.66676564973005L107.6510870885849,146.02725141605032L107.67429275512696,147.58217829345946L108.11520041942596,145.04552517954346L108.23122875213623,144.48497178059682L108.41687408447265,143.56728235875445L108.50969675064087,144.42533284649159L108.69534208297729,148.64789384402908L108.88098741531373,148.54295194024564L109.11304408073424,149.071264033639L109.18266108036042,147.31358485127777L109.25227807998657,146.71121917489054L109.46112907886506,148.85441648830727L109.78600841045379,147.23905899353488L110.48217840671539,149.2379950360269L110.50538407325745,146.6244215272273L110.99270307064057,146.72758148531943L111.10873140335083,147.68035225734621L111.15514273643494,147.83508846464576L111.45681640148163,147.38739941321356L111.73528439998627,145.68504103356202L111.82810706615449,147.42543909999455L112.52427706241608,148.48182469886106L112.80274506092071,148.14492756753745L112.82595072746277,144.14755693100125L112.84915639400482,147.4075222805097L113.01159605979919,143.87744027869704L113.33647539138794,145.87124895346747L113.8470000553131,145.9183157922777L113.91661705493928,145.92910055299075L113.96302838802337,148.2473695764305L113.98623405456543,145.60738402602183L114.05585105419159,148.39775553017506L114.33431905269623,150.43741592679274L114.40393605232238,147.7098039777886L114.45034738540649,147.10874801373367L114.51996438503265,142.96426404062825L114.58958138465881,144.33702637925703L114.63599271774292,145.03172569097654L114.77522671699525,148.2044424507153L114.86804938316345,149.85407027932308L115.03048904895783,151.7388156813246L115.05369471549989,152.11757609400814L115.37857404708862,148.68242704301773L115.47139671325684,147.07267968552657L115.63383637905122,150.32792000196034L115.65704204559326,152.68825054653337L115.77307037830353,153.42418538088833L116.23718370914459,153.22909865154688L116.44603470802308,151.10326509615868L116.72450270652772,152.6244212603008L117.00297070503235,147.62423013216087L117.0725877046585,148.46818228302672L117.28143870353699,147.64803751398816L117.3278500366211,149.5682520033608L117.35105570316314,152.03972117112912L118.14004836559296,153.22759388590686L118.55775036334992,154.14942172167937L118.60416169643402,151.94257233076684L118.90583536148071,149.51762892021182L119.09148069381713,147.9594379163174L119.36994869232177,151.11611409749563L120.18214702129363,150.6628935920869L120.20535268783568,151.64819583406353L120.32138102054596,153.00190122291357L120.36779235363007,152.897269091176L120.43740935325623,151.34720914771776L120.48382068634032,149.35694107231615L120.92472835063936,148.61979078771486L121.2960190153122,150.1813559491401L121.3424303483963,148.13030480026168L121.36563601493836,149.40125414043194L121.69051534652709,151.60325967486108L121.78333801269532,153.02894761697698L122.1778343439102,152.15391959770903L122.24745134353638,150.5354020535413L122.31706834316253,148.2853727675915L122.75797600746155,149.90681235310677L123.17567800521851,151.27683013594884L123.29170633792877,151.16070611834604L123.45414600372315,153.18052169096978L123.57017433643341,152.94181808112913L123.59338000297547,150.19572541200787L123.89505366802216,147.29983286457775L125.4034219932556,150.57978607194295L125.6122729921341,153.3700485931403L126.16920898914337,153.6440222023229L126.63332231998443,153.75320609634505L126.7029393196106,154.14191019833746L126.98140731811525,151.70608481372597L127.16705265045167,151.21680267748124L127.46872631549834,147.9673645793749L127.65437164783476,148.78426104834654L127.9328396463394,150.5440951499326L128.00245664596557,152.20656876529725L128.11848497867584,146.9080953192068L128.53618697643282,150.7407953703434L128.55939264297484,151.21061862661014L128.5825983095169,151.67988758505237L129.00030030727387,152.1263299666388L129.85890996932983,151.84046064285815L129.9749383020401,151.84311007635137L130.0213496351242,152.07906470328808L130.11417230129243,154.1745336417203L130.369434633255,154.52654404878498L130.74072529792784,154.31983430118817L130.94957629680633,153.7656107377985L131.3208669614792,154.7190134866401L131.39048396110533,155.09713437779797L131.43689529418944,156.17729423873698L131.46010096073152,153.87568469443704L131.64574629306793,152.88946614158675L131.99383129119872,151.5406095257711L132.04024262428285,153.23669956546644L132.13306529045104,155.2688104123524L132.24909362316131,155.198990873866L132.5043559551239,151.8473547553438L132.52756162166594,152.00990064454587L132.66679562091826,150.4825067389035L132.69000128746032,148.17081267757956L132.94526361942292,149.74159954098653L133.27014295101168,151.0883337939825L133.75746194839476,151.4476190824656L133.8966959476471,153.34090510840323L134.03592994689942,153.91677616975372L134.17516394615174,155.7496469529742L134.45363194465637,154.93832432713327L134.47683761119842,155.63075611122773L134.56966027736664,155.94643180584166L134.82492260932924,154.41693585912918L134.89453960895537,154.28954242249478L135.3354472732544,152.32223838109147L135.52109260559084,154.44003843662503L135.70673793792724,155.80143676452903L135.96200026988984,153.27663487644855L137.02946093082429,152.82949884831277L137.2615175962448,154.972393882319L137.84165925979613,152.44629797433785L137.86486492633819,151.6435427132698L137.9576875925064,154.21340285316958L138.1665385913849,154.21560476298018L138.212949924469,153.6926582937251L139.0483539199829,152.22411602857414L139.23399925231934,152.43457941224688L139.32682191848752,154.20555110599778L139.39643891811372,155.44489195979847L140.02299191474916,155.31640416337189L140.0461975812912,154.761876374546L140.11581458091734,153.87378288665218L140.37107691287994,154.82082942693472L140.46389957904813,154.85700681259908L140.67275057792662,155.80537599224357L140.71916191101073,153.34155422196338L140.81198457717898,154.73423762709464L141.20648090839387,153.59033084399775L141.76341690540315,153.44321289805816L142.11150190353393,155.07562051983L142.18111890316007,154.96460105003788L142.38996990203856,153.53442569363312L143.016522898674,154.4616241258428L143.06293423175813,152.56312817784823L143.13255123138427,152.899974298394L143.2253738975525,152.783589450758L143.24857956409454,154.08836676980303L143.94474956035614,154.913386913784L144.1071892261505,155.3316944664431L144.59450822353364,155.6194116970357L145.0586215543747,153.4074982783263L145.197855553627,154.80466582638948L145.29067821979524,155.74733850669503L145.4531178855896,156.80580810858686L145.5691462182999,155.57256087645672L145.73158588409424,156.83968451110172L145.84761421680452,154.10659578946905L145.89402554988862,155.9689006121901L145.91723121643068,156.77663112713662L146.1956992149353,157.3367592939333L146.28852188110352,156.02328382686125L146.3349332141876,155.38383888646675L147.12392587661742,156.40157050166653L147.7272732067108,156.73805262119856L148.23779787063597,155.96291508278915L148.4234432029724,155.15279712194993L149.09640753269196,153.69028437926997L149.21243586540223,154.57320201774826L149.63013786315918,153.94298210366213L149.74616619586942,152.61146453714917L149.9550171947479,153.540497947983L150.09425119400026,150.7374496331996L150.34951352596283,153.29286006593773L150.48874752521513,155.04571522962775L150.5583645248413,154.90713592114741L150.76721552371978,153.81992374014092L150.8136268568039,153.1391415238632L150.95286085605622,154.81341397783365L151.37056285381317,153.5080012970551L151.62582518577574,153.7901144294954L151.78826485157015,154.15933145861382L152.02032151699066,155.6281988621158L152.4380235147476,156.4015256190454L152.8557255125046,157.56537743799038L152.9949595117569,157.4272267137376L153.01816517829894,156.92907457913336L153.2966331768036,155.71404774126432L153.7839521741867,156.68973928918408L154.10883150577544,153.89396888434584L154.24806550502777,154.1868009283725L154.36409383773804,152.48123711258063L154.5265335035324,154.54189345299076L154.68897316932677,153.74485231746897L154.92102983474732,155.2556594235537L154.99064683437348,154.91368180126557L155.0602638339996,155.13097750135503L155.19949783325197,154.8327767744447L155.43155449867248,153.92786254764806L155.6171998310089,153.2484429247265L155.9188734960556,151.43084485223585L155.96528482913973,153.26691262749148L156.70786615848542,150.5754128767318L156.7542774915695,152.86916012274645L156.98633415699004,155.1892566331962L157.0559511566162,156.16438828354953L157.63609282016756,153.99521216292024L157.68250415325167,153.93519523705172L158.19302881717684,155.73246842566076L158.2162344837189,155.80233642527014L158.4018798160553,155.50394552685603L158.47149681568146,156.43971353667314L158.49470248222352,156.81418173584993L159.2836951446533,155.6549194184925L159.39972347736358,155.60363512340913L159.42292914390563,156.80357866774898L159.7013971424103,157.3153178533753L160.884886136055,157.08477730269828L161.04732580184938,156.56137821777168L161.09373713493346,157.38321819195826L161.18655980110168,157.50634089471598L161.7202901315689,154.43775798526454L161.78990713119506,154.68780776663937L161.90593546390534,155.64775653325387L162.18440346241,153.30382487992276L162.23081479549407,156.07244192262226L162.25402046203612,153.69411746446826L162.3700487947464,155.53775012220402L162.7181337928772,157.04589746398483L163.4607151222229,157.89765504539676L164.27291345119477,155.70783274103897L164.78343811511994,154.02114632689992L165.15472877979278,154.05593767084093L165.36357977867127,156.50438725275276L165.66525344371794,157.31265081792037L165.92051577568054,157.50037326531978L166.10616110801698,156.14239412198114L166.8951537704468,156.52028340647732L167.0343877696991,156.1136759649503L167.26644443511964,155.45948845556956L167.38247276782988,157.24459741792185L167.6841464328766,155.16801015065195L167.8233804321289,151.76292638879775L168.00902576446535,151.80122328753632L168.33390509605408,154.6407649125271L168.47313909530638,155.31271268586872L168.5195504283905,156.08545773966102L169.7262450885773,157.32157116278776L169.7726564216614,158.22539844940738L169.84227342128753,157.63143299826788L170.02791875362396,157.4321967987378L170.3992094182968,156.5919473779372L171.18820208072663,157.56889254037822L171.2578190803528,156.8988823105346L171.37384741306303,156.82393890589123L171.39705307960512,156.84461034973936L171.76834374427796,157.496495089771L171.83796074390412,156.49178337189926L172.0932230758667,155.63956538356382L172.11642874240874,156.2834138661273L172.16284007549285,157.3869890750293L172.25566274166107,155.72534673233878L172.37169107437134,154.8706808530899L172.67336473941802,155.06297819189936L172.69657040596007,155.8506122242285L173.25350640296935,156.30171087538213L173.3463290691376,158.0773535070428L173.43915173530578,157.69875936808367L173.531974401474,158.32727457475758L173.55518006801606,156.8079147137971L173.8800593996048,157.52353711819504L173.94967639923098,158.14143275942226L174.08891039848328,158.8670579531467L174.29776139736177,158.1884403044496L174.43699539661407,158.33993065356117L174.5762293958664,158.96867885305886L174.6690520620346,158.9835494623817L174.80828606128694,158.91718441613008L174.99393139362334,154.62739436381173L175.22598805904389,156.2397208722013L175.27239939212797,153.14085423564958L175.64369005680086,154.6098137036337L176.06139205455779,155.51267115266805L176.1078033876419,156.91160939801114L176.13100905418395,157.23455513543377L176.24703738689422,157.5479681541064L176.43268271923066,157.94064386658175L176.47909405231476,158.11272624325994L176.9896187162399,158.20205188440514L177.03603004932404,157.79053886911458L177.3144980478287,158.5804694111793L177.47693771362304,159.36920874668502L177.52334904670715,154.6947233628122L177.56976037979126,156.93345644819158L177.7089943790436,157.33179091866467L177.87143404483797,157.98769536286687L177.89463971138002,156.62034037134055L178.05707937717438,157.38289750901788L178.5908097076416,157.3752559096521L178.82286637306214,158.2353852273428L178.8460720396042,157.83822898661353L179.17095137119293,158.02828844915834L179.4726250362396,155.56559164933157L179.95994403362275,157.0121258483878L180.09917803287507,157.90029096616658L180.47046869754791,157.90964222963353L180.7721423625946,155.87763416428785L180.8185536956787,156.71818224269686L181.21305002689363,154.9957177417813L181.23625569343568,154.68481374416191L181.74678035736082,156.68565520877294L182.95347501754762,156.7712450686832L183.20873734951022,154.9871112286794L183.37117701530457,156.0387821931925L183.9513186788559,152.02639371949482L184.13696401119233,155.23254032236943L184.53146034240723,156.05001844252618L184.6939000082016,155.75985110843826L184.71710567474366,156.54314025771947L184.9027510070801,157.80589221847902L185.0883963394165,158.7984032297351L185.29724733829497,159.06358547349257L185.5293040037155,157.7460313224634L185.55250967025756,156.73899409954507L185.71494933605194,157.08455834414954L186.08624000072479,158.17064742307494L186.15585700035095,158.99145573660184L187.08408366203307,158.27734016935685L187.1769063282013,157.38812626467546L187.50178565979004,158.23872111071537L187.57140265941618,159.16908595200394L188.29077832221986,152.49480962802926L188.33718965530394,155.7247860162249L188.54604065418243,157.26280606783928L188.5692463207245,157.67664640241603L188.77809731960295,157.40981555127408L189.1029766511917,157.29969870450293L189.33503331661223,158.08025769922878L190.3560826444626,157.62193034781848L190.40249397754667,156.2805609661476L191.37713197231292,157.2301362297242L191.86445096969604,158.29726867520904L192.09650763511658,157.24170312713426L192.35176996707915,154.6505086923429L192.3749756336212,156.32176877774637L193.41923062801362,157.47662924455403L193.53525896072387,157.97872893823777L193.86013829231263,157.75470890938934L193.99937229156492,158.32390915456037L194.30104595661163,157.34206240184747L194.4170742893219,157.212146828681L194.44027995586396,157.93957259494218L194.463485622406,156.85901032471418L194.83477628707885,156.81083532751447L196.04147094726562,157.21404003386996L196.08788228034976,157.53107031754323L196.20391061306,157.9873699919952L196.94649194240571,158.14856733586993L197.13213727474212,158.81195454386994L197.503427939415,158.0188396900455L197.944335603714,157.31497161238966L198.15318660259248,158.047425149394L198.19959793567656,157.8893667044444L198.36203760147094,158.78806904225354L198.80294526576995,158.87120213822396L198.8957679319382,159.14629190539546L199.22064726352693,158.2619332694872L199.31346992969512,155.6212236024412L199.89361159324645,157.7595320038823L200.2184909248352,157.16896944390837L200.31131359100343,157.15683310194927L200.35772492408753,158.35066331658362L200.40413625717164,156.65133098284056L200.98427792072297,155.42204253173668L201.1699232530594,155.34075435142347L201.23954025268554,155.73277383120103L201.49480258464814,157.26818360077712L202.30700091362002,157.88904461107907L202.42302924633026,158.81201184626124L202.53905757904053,156.71024074046028L202.58546891212464,156.80358669425763L202.63188024520875,157.7143212086626L202.70149724483488,158.54675060992616L203.11919924259186,159.11396017314564L203.67613523960114,158.67428403084202L203.8849862384796,159.13444767627578L204.07063157081603,159.2743447046704L204.41871656894682,159.05087994283718L204.58115623474123,156.17446779392137L204.95244689941407,157.47826963489985L205.06847523212434,158.0516939665609L205.18450356483459,156.86051069706227L205.46297156333924,158.22858750709653L206.08952455997468,159.12323640108374L206.228758559227,159.1496144252019L206.94813422203063,158.39414453672583L207.110573887825,158.52993542748385L207.2498078870773,157.0060583011752L207.3194248867035,156.72788478738488L207.64430421829223,157.4417331771097L208.38688554763792,157.78029115828173L208.66535354614257,158.4985160108766L209.47755187511444,159.53528177490722L209.68640287399293,158.9131082190409L209.75601987361907,159.47735392887697L210.1969275379181,158.87625956959377L210.2433388710022,159.18578913523652L210.56821820259094,158.3590295233916L211.61247319698333,157.3848413313717L211.79811852931974,158.02456426607918L211.86773552894593,158.4141789844311L212.09979219436647,157.81481511155033L212.44787719249726,158.09116959783148L213.00481318950654,159.3961683324724L213.2832811880112,159.06715428016338L213.37610385417938,159.33530412871883L213.4689265203476,159.06637872098926L213.86342285156252,158.05022905223046L214.00265685081482,158.72168491624228L214.04906818389895,156.90739251790137L214.1186851835251,158.27183256636428L214.14189085006714,159.34299172480067L214.39715318202974,159.83488745619033L214.60600418090823,160.111444852543L214.67562118053436,159.62784259945386L214.83806084632872,159.89575734197797L215.4414081764221,159.75796584389795L215.46461384296418,160.13770006524825L215.53423084259035,159.50339063653868L215.71987617492675,159.83746179489017L216.02154983997346,159.96261707805579L216.1839895057678,160.17791533849345L216.62489717006684,160.73774188955088L216.71771983623503,157.16460832574614L216.9961878347397,158.1212783999952L217.20503883361818,158.4626475155622L217.5299181652069,157.1691662613878L217.59953516483307,157.7098311732393L218.04044282913208,158.76971637822464L218.3885278272629,159.25385800162456L218.89905249118806,159.05471611769119L218.94546382427217,159.59453007343387L219.316754488945,159.7117660857732L219.6184281539917,159.93900333035066L219.87369048595428,159.9521685431668L220.0129244852066,159.3784853484005L220.05933581829072,159.09444687662173L220.45383214950562,159.1825698084185L220.5698604822159,157.93567287175202L221.28923614501952,157.0296943246555L221.38205881118776,158.63003265513296L221.7533494758606,158.2220607092669L222.19425714015964,159.26204474071835L222.5887534713745,159.45194598307575L222.68157613754272,158.67375226742163L223.14568946838378,158.43494767338117L223.35454046726227,158.8644970741282L223.47056879997254,158.97707294444268L223.74903679847716,158.35205075724835L223.91147646427154,158.77046824206926L224.2363557958603,159.0042208483759L224.5844407939911,157.9753468577352L224.74688045978547,157.4330624412163L224.83970312595366,158.30556467537957L224.86290879249572,156.82010454610892L225.0717597913742,158.30907587196273L225.16458245754242,158.52597416677722L225.2109937906265,158.78833286485704L225.30381645679475,158.82205358781687L225.419844789505,159.52799306153662L225.5126674556732,157.45901930353196L225.86075245380403,158.87656059536354L226.25524878501892,158.62757874034654L226.30166011810303,159.23675472732407L226.53371678352357,159.643221890162L226.67295078277587,159.64659635952597L226.7657734489441,159.79746382697655L227.09065278053285,159.61164554003742L227.34591511249542,158.69756871348486L227.41553211212158,159.35322633911858L227.5547661113739,159.59165976116677L227.60117744445802,159.98253619213685L227.64758877754213,159.81439698963652L227.87964544296264,158.97517047249542L228.04208510875702,158.38147861758097L228.3437587738037,158.5505208556928L228.36696444034578,158.7239044986774L228.62222677230832,158.73969072968202L228.66863810539246,158.2867758420846L228.69184377193451,157.97950888642976L229.01672310352325,157.17433685778784L229.15595710277557,158.66164039752312L229.57365910053252,159.15054767634808L229.71289309978485,158.51230310979994L229.7360987663269,156.32855435908553L229.89853843212128,156.3787871054383L230.26982909679413,158.38644161358928L230.641119761467,158.61380506236782L230.71073676109313,158.28142571595882L230.8267650938034,157.95501948849383L231.01241042613984,158.53173211885886L231.10523309230803,159.25498404623997L231.17485009193422,159.45722452761086L231.45331809043887,158.9737276998788L231.49972942352295,159.366344941428L231.54614075660706,159.11260334435846L231.59255208969117,158.794825053649L231.61575775623322,159.26557160115317L231.963842754364,159.69708725546946L232.05666542053223,159.74662251317542L232.28872208595274,152.067493039993L233.14733174800875,155.05225709742226L233.35618274688719,155.08165552387814L233.68106207847595,156.87852484630065L233.70426774501803,157.54291433157653L234.0059414100647,158.12937290738748L234.21479240894317,157.10038649375863L234.2612037420273,158.0511412333863L234.63249440670015,158.08569706497215L235.51430973529816,158.91749665561952L235.6303380680084,157.38703293192188L235.72316073417664,158.63341962274322L235.7463664007187,158.63215651047412L235.97842306613924,159.63449599711006L236.34971373081208,159.30442322523925L236.37291939735414,158.19937656826374L236.44253639698027,157.47104849741666L236.6281817293167,156.09969595929144L236.90664972782136,157.10047286733902L236.92985539436341,158.46395792379124L237.32435172557828,159.0198814090946L237.62602539062502,157.23000207386607L237.83487638950348,158.59494123535302L238.25257838726046,158.99427919654931L238.29898972034454,159.39642360397943L238.53104638576508,159.90363429469838L238.60066338539124,159.69655966093646L238.69348605155943,159.68228803768906L238.76310305118562,160.31599619323535L238.8327200508118,160.45818959802207L238.97195405006408,159.6309691234934L239.08798238277436,159.28653880835833L239.34324471473695,159.25025016134967L239.62171271324158,159.27240775155312L239.7609467124939,159.07994970449536L239.80735804557798,158.70615380137832L239.9697977113724,158.61231895484445L240.31788270950318,159.47100641012443L240.34108837604524,159.78743942154247L240.50352804183962,159.98508215175707L240.66596770763397,159.78890927361715L241.03725837230684,158.0442146597387L241.106875371933,157.81102829889787L241.17649237155914,156.97339764743145L241.36213770389557,157.8474519440127L241.40854903697968,159.02738212237492L241.8494567012787,159.11500074810462L242.22074736595155,157.40330016577062L242.63844936370847,157.16192769014395L242.84730036258696,157.32129054190094L243.00974002838134,158.31889508521823L243.58988169193267,159.22904467373655L243.82193835735322,158.39105622599513L243.96117235660552,158.24544535415083L243.98437802314757,158.87642466231992L244.23964035511017,158.8586455056241L244.70375368595126,155.24308986630408L244.8197820186615,155.7592924291711L245.09825001716612,156.15712295768844L245.26068968296053,157.83507725314055L245.28389534950256,158.08888573596616L246.02647667884824,157.75386084949884L246.04968234539032,158.157821998162L246.21212201118468,158.15829823113515L246.44417867660522,158.97630828607052L246.5602070093155,159.29872424879755L246.60661834239957,159.67873904718218L246.83867500782011,159.93666494376725L246.86188067436217,159.80084301347281L247.0011146736145,159.76917406122308L247.11714300632477,159.82566254770197L247.16355433940885,157.62043558063604L247.53484500408175,158.37288809271834L247.60446200370788,157.49017308703668L247.6972846698761,158.81530919600175L247.9293413352966,159.4851442796196L248.20780933380126,159.48372794276128L248.53268866539,157.95501830354792L248.67192266464235,158.2456077512817L248.7415396642685,159.18095587171118L249.15924166202547,159.27318737630748L249.46091532707214,158.0548486211876L249.60014932632447,158.88533373246497L249.64656065940855,158.3629821266683L249.7393833255768,159.01539596223472L249.80900032520296,158.22831621791852L250.04105699062347,158.81985453236493L250.08746832370758,159.3095840520124L250.20349665641783,158.46628267476135L250.59799298763275,158.94976783952245L250.6676099872589,159.18389387095422L250.85325531959535,158.93047708801376L251.43339698314668,156.28258295828326L251.64224798202514,157.0787276474823L251.9671273136139,158.7469318076777L252.013538646698,159.15295553442752L252.17597831249236,158.39295505452233L252.68650297641753,159.28054377074162L252.73291430950164,158.41876153645927L253.0113823080063,158.04522639815605L253.31305597305297,157.9901926993513L253.9628146362305,158.56115882469294L254.4965449666977,159.3368379404923L254.7286016321182,159.5922414431396L255.1927149629593,158.63774411128506L255.26233196258545,159.0144273985609" fill="none"></path></g></g></g></g><g opacity="0.2"><g><g><g><path style="fill: none;" stroke="rgb(255, 112, 67)" stroke-width="2px" d="M23.32169487476349,-0.16527465148890866L23.60016287326813,2.204524289781457L23.62336853981018,-0.3441019368698845L23.83221953868866,0.440095074022483L23.948247871398923,4.842564159123268L24.041070537567137,3.834045751569047L24.22671586990356,-3.747443858648694L24.31953853607178,3.8941609616546518L24.528389534950257,5.178005906701091L25.43341053009033,5.878019129475433L25.642261528968813,2.5531250262835417L26.01355219364166,6.101440766210854L26.22240319252014,5.224793422876246L26.2920201921463,5.353065447390091L26.408048524856568,4.6680669683883025L27.197041187286377,1.9466306008641L27.63794885158539,5.745529480306376L28.334118847846984,2.8077008504721195L28.450147180557252,4.697140461011569L28.473352847099303,5.990207945304064L28.566175513267517,8.199905854662575L28.635792512893676,7.9372884261314L28.93746617794037,5.657802887477973L28.983877511024474,6.477765355446536L29.192728509902953,7.696377705825708L29.35516817569733,2.3987037289074036L29.564019174575808,6.278243591757328L29.680047507286073,6.3993175368595985L29.88889850616455,5.663313917027463L30.2601891708374,9.557249938700497L30.283394837379454,9.183680864239559L30.32980617046356,6.263847432934199L30.44583450317383,8.574205984063756L30.6082741689682,6.699499942319872L30.72430250167847,7.615905427404269L30.86353650093079,6.518198317141159L30.88674216747284,10.02917402012099L30.956359167099,10.174035368278656L31.025976166725158,7.999484331046915L31.165210165977477,6.0611765095024195L31.49008949756622,7.639074245510218L32.0470254945755,13.829366304457526L32.34869915962219,11.676971855414504L32.3951104927063,11.84685777652643L32.44152182579041,12.178644249403078L32.696784157752994,14.563795344418395L32.83601815700531,11.696541633814686L32.85922382354736,11.330901693705528L32.90563515663147,17.28933686660699L33.323337154388426,17.568543618782005L33.39295415401459,20.812065683626006L33.416159820556636,19.543347952342938L33.508982486724854,17.622472979373324L33.717833485603336,15.618763858175353L33.78745048522949,20.369271329824187L33.857067484855655,15.987834133004071L33.949890151023865,20.415608966036107L34.06591848373413,20.58903769185841L34.50682614803314,27.882604125613707L35.063762145042425,30.809635636330622L35.11017347812653,27.763610875341328L35.249407477378845,26.28721730603562L35.43505280971527,43.96862456059111L35.59749247550964,28.093260418392674L35.6671094751358,31.55396203548238L36.08481147289276,41.88787349569125L36.27045680522919,35.091536891287745L36.34007380485535,32.037864170923655L36.548924803733826,43.752176063285646L36.734570136070246,40.00675666447145L37.036243801116946,48.09430499831919L37.407534465789794,47.27445500034142L37.61638546466828,51.358465306476006L37.848442130088806,53.15303647977089L37.87164779663086,49.73299276435742L38.56781779289246,52.36293479436122L38.614229125976564,57.45608209299948L39.055136790275576,41.10705058452308L39.07834245681763,62.066395721109075L39.31039912223816,60.29954840054779L39.68168978691101,58.137931412258695L39.913746452331544,71.77936036207998L40.238625783920284,63.426382849930945L40.28503711700439,52.95059049632073L40.47068244934082,63.089647697458844L40.51709378242492,69.86849521829208L41.0740297794342,71.72413759659443L41.09723544597626,64.08618805099226L41.56134877681732,74.1104133915178L41.746994109153746,68.17829619646486L41.86302244186402,73.41062510872507L41.90943377494812,67.53620501895543L42.025462107658385,76.44349088079011L42.09507910728455,71.51556199864535L42.164696106910704,77.55244499013375L42.39675277233124,76.34524834382137L42.76804343700409,68.17031082711765L42.88407176971435,83.27862963202156L42.97689443588256,74.84973487607871L43.37139076709747,78.80277387792012L43.603447432518,74.48763774067993L43.719475765228275,85.17194945724381L43.92832676410675,80.4678920917977L43.97473809719086,83.08534995282207L44.67090809345246,72.3729769735522L44.74052509307862,77.67312529026822L44.85655342578888,82.29491085743999L45.204638423919675,76.59779970817544L45.22784409046173,84.85264715334657L45.27425542354584,87.41820011361415L45.924014086723325,87.10519612920203L45.970425419807434,78.61494899327468L46.13286508560181,83.20788600780483L46.24889341831207,81.66789065869852L46.64338974952698,94.86809983458926L46.87544641494751,89.94236411726524L47.1771200799942,82.53267241800313L47.29314841270447,93.06205672223223L47.710850410461425,94.46427633260163L47.73405607700348,74.53228832702976L48.3141977405548,90.90718793339147L48.63907707214356,90.46214417977353L48.824722404479985,101.87498026178099L48.89433940410614,97.83382102214335L49.03357340335846,79.06696588632258L49.19601306915283,100.13124552433027L49.24242440223694,95.34266696079368L49.40486406803131,101.81773303646088L49.91538873195648,92.9896822831488L49.96180006504059,89.45002673251355L50.17065106391907,83.34948572622912L50.26347373008728,99.78270102282357L50.309885063171386,105.48498579166517L50.65797006130219,94.75607972374684L50.704381394386296,96.81090645576597L50.84361539363861,99.53391740316147L51.63260805606842,92.945594046753L51.86466472148895,90.50915663593031L51.98069305419922,101.00671193276139L52.11992705345154,98.32424641705137L52.14313271999359,110.16058824943747L52.282366719245914,99.88049367982904L52.955331048965455,107.02717430559215L53.39623871326447,88.83953962242049L54.06920304298401,99.41644249776499L54.162025709152225,98.13698388235997L54.46369937419891,87.53393173415316L54.57972770690918,96.88524911968852L54.974224038124085,110.52527219462473L55.0670467042923,115.31924931772L55.22948637008667,105.56253385032568L55.554365701675415,108.95119843830435L55.67039403438568,104.76259104072051L56.227330031394956,114.2482538302732L56.34335836410523,121.16532696980659L56.366564030647275,111.41024231727897L56.48259236335755,114.24476726055826L57.132351026535034,96.56836492059364L57.225173692703244,100.04936737102372L58.153400354385376,114.00576853009625L58.52469101905823,123.29213449594135L58.965598683357236,109.60121875016557L58.9888043498993,113.39128873532962L59.38330068111419,104.15491568039761L59.4297120141983,109.65503564076607L59.4761233472824,104.8942371649585L59.940236678123476,113.20548831051866L60.40435000896454,123.4387953639519L61.2165483379364,119.15340753927984L61.239754004478456,113.58316253964404L61.750278668403624,119.5376050278719L62.2608033323288,124.5300354497437L62.353625998497016,118.86205402809782L62.51606566429138,132.17388966986317L62.7017109966278,124.08431687618094L62.817739329338075,129.0134829282245L63.28185266017914,131.28144029282038L63.51390932559967,116.68401642115106L63.56032065868378,119.93411798045719L63.6995546579361,123.93006428379095L63.72276032447815,112.15962986601699L63.81558299064636,116.35886567773196L63.978022656440736,122.4029467486319L64.04763965606689,110.8792152556901L64.32610765457153,114.21794316775112L64.62778131961822,129.43608891867672L64.92945498466491,127.05673002818793L65.37036264896392,131.19450098992758L65.60241931438446,113.7620460600204L65.71844764709472,117.73324896537696L66.46102897644043,129.42124287989037L67.13399330615998,116.78799492765091L67.20361030578614,122.92351410107585L67.43566697120667,128.73101454631615L67.45887263774871,124.79372134318754L67.6677236366272,118.20792856157215L67.71413496971131,116.7545351053862L68.456716299057,113.93255056608177L68.47992196559906,125.62785502999759L68.52633329868317,125.48552425663303L68.99044662952423,134.3222914342326L69.03685796260834,107.63676165575879L69.1064749622345,126.30228132986366L69.5009712934494,132.8478098547706L69.70982229232789,134.29119348177483L69.77943929195403,131.8197779038116L69.8954676246643,130.17366711838014L69.96508462429045,128.84747722179537L70.52202062129973,133.80082432186222L70.59163762092591,122.46058761891982L70.66125462055206,122.43708139084146L71.05575095176697,128.06856630047088L71.35742461681366,121.61773750782231L71.47345294952392,136.79218866731995L72.28565127849579,135.62300687789988L72.37847394466401,134.90550457155527L72.58732494354248,133.09440030961196L72.7729702758789,132.84308611515675L72.93540994167329,136.90561465304745L73.1210552740097,113.30215626761611L73.53875727176667,142.16409283816998L73.70119693756104,137.89332611230262L73.81722527027131,139.82263633458265L74.3045442676544,137.6396500480405L74.5133952665329,134.98496462005946L74.88468593120575,133.34003476953148L75.23277092933655,140.24805407480503L75.27918226242065,141.50361281716383L75.34879926204681,124.62102367230545L75.51123892784119,144.34955346450988L76.02176359176636,142.55318277136212L76.04496925830841,128.10658115736322L76.20740892410278,129.70910982135746L76.41625992298125,123.91527448000005L76.60190525531769,140.16707568142496L76.74113925457002,125.38632572474245L76.85716758728027,133.08174743564632L76.97319591999053,133.62852029594796L76.9964015865326,139.19426649595152L77.01960725307465,130.4835219430497L77.11242991924286,135.48500619918136L77.36769225120544,135.06093809884865L77.59974891662598,126.15691386674735L78.08706791400908,127.51228972594618L78.11027358055115,131.54754429106652L78.4351529121399,121.62352971234878L78.50476991176605,137.25888289416798L78.57438691139221,138.4108567749948L78.64400391101837,123.07039990906804L78.96888324260712,132.21938378114402L79.03850024223327,129.81730595251247L79.10811724185945,135.15305102131848L79.47940790653229,142.3736806660363L79.54902490615845,131.58162269828063L79.5722305727005,141.55169373823324L79.92031557083129,128.03966151283385L80.05954957008362,139.14309265013495L80.10596090316773,135.10288940541918L80.33801756858826,126.42993476942803L80.662896900177,117.28477487703941L80.89495356559753,131.92516228519645L81.47509522914886,129.19354738350438L81.52150656223297,125.97206943685825L81.56791789531708,132.47041680062222L81.89279722690581,133.61412413712483L81.98561989307403,135.1075006750422L82.00882555961608,145.79333073648195L82.1480595588684,137.33564366289283L82.28729355812072,142.51629261437787L82.44973322391509,139.78068502801216L82.70499555587769,141.5031067022052L82.89064088821412,136.4761479931561L83.30834288597107,133.55895760663466L83.4475768852234,138.9288373176502L83.61001655101776,141.93448535194025L83.91169021606446,146.26474870294382L84.05092421531677,130.38263636129705L84.14374688148497,128.82110300895147L84.30618654727937,144.0133244269964L84.49183187961579,143.65943760092645L84.584654545784,146.42361256495678L84.79350554466248,138.57877447126762L84.93273954391479,128.18283581112945L85.07197354316712,143.49298201453408L85.21120754241943,132.33927679134285L85.93058320522309,139.38771488013722L86.0698172044754,133.48697681251906L86.11622853755952,128.61398952088285L86.48751920223236,143.12722960443412L86.74278153419495,141.187853317977L86.92842686653137,141.7360882881591L87.18368919849395,137.80694915936388L87.206894865036,135.97599394404338L88.15832719326019,141.40396440531003L88.66885185718537,141.8575558782292L88.69205752372741,140.3552379760428L88.8544971895218,145.42465410662103L88.94731985569001,147.43634859716622L89.13296518802643,145.80350927064987L89.66669551849365,132.42576621427241L89.78272385120393,130.13351533166252L90.0379861831665,138.71244505534014L90.66453917980193,144.66553790367834L91.05903551101684,134.58704579258907L91.36070917606354,138.5504320335846L91.61597150802612,139.19747189068949L91.87123383998872,148.57488231409175L92.01046783924103,149.1853694241848L92.59060950279236,150.0578553778596L92.75304916858673,137.6994278481537L93.07792850017547,143.5266667767804L93.28677949905396,147.23221556385397L93.33319083213806,143.49877421906058L93.4028078317642,137.44406473402947L93.72768716335297,146.12337392450112L93.8669211626053,146.40291808664855L94.21500616073608,135.97537535909396L94.3542401599884,139.15332741929828L94.44706282615662,138.1975574374319L95.28246682167054,142.6924768549749L95.3984951543808,136.88565122967944L95.97863681793213,144.28707638461734L96.21069348335266,146.63201945791965L96.39633881568909,135.23239859983187L96.46595581531524,141.842035019498L96.58198414802551,144.27639173549082L96.81404081344604,148.0677551255491L96.86045214653015,149.38584718279586L97.20853714466095,154.21469000304083L97.231742811203,132.15780646117793L97.46379947662354,143.4293802347335L97.67265047550201,145.15405130874265L97.85829580783843,145.18374338631534L97.92791280746461,137.5839211675963L98.83293380260467,132.77341095585265L98.90255080223083,149.19672889325616L99.06499046802521,143.8756611582503L99.15781313419342,138.46388637565965L99.57551513195037,144.4615173403569L99.59872079849244,145.44613587486492L100.13245112895964,152.333010821867L100.41091912746428,143.02032687817336L100.61977012634277,139.2559562859084L101.03747212409974,147.35323327396085L101.1999117898941,151.0424176773722L101.78005345344543,149.60319544002778L102.05852145195007,148.03260825342235L102.24416678428649,144.89818207965982L102.36019511699676,135.17183350978303L102.68507444858551,149.98761786860146L102.87071978092193,149.48960074931406L102.9867481136322,139.75521057509468L103.05636511325835,134.19047660500837L103.12598211288453,124.69767197103948L103.2420104455948,143.88111595280438L103.56688977718353,147.85906705760922L104.00779744148254,144.12810005261358L104.05420877456665,147.4379231770375L104.70396743774414,144.25294174240784L104.84320143699647,142.21144270429917L105.00564110279083,151.48296263135794L105.14487510204314,152.24893950373976L105.19128643512725,138.6897823521928L105.26090343475342,149.5416743550571L105.70181109905242,136.924678316489L106.25874709606171,151.01570605455586L106.39798109531402,154.0186548090666L106.93171142578126,138.51342940660956L107.46544175624848,144.2245430697294L107.6510870885849,148.06798006553072L107.67429275512696,149.9145686095732L108.11520041942596,141.24054550866944L108.23122875213623,143.64414168217687L108.41687408447265,142.19074822599092L108.50969675064087,145.7124085780973L108.69534208297729,154.98173534033535L108.88098741531373,148.38553908457047L109.11304408073424,149.86373217372906L109.18266108036042,144.67706607773593L109.25227807998657,145.80767066030967L109.46112907886506,152.06921245843236L109.78600841045379,144.8160227513763L110.48217840671539,152.23639909976495L110.50538407325745,142.7040612640279L110.99270307064057,146.8823214224576L111.10873140335083,149.1095084153864L111.15514273643494,148.0671927755951L111.45681640148163,146.71586583606526L111.73528439998627,143.13150346408474L111.82810706615449,150.0360361996433L112.52427706241608,150.06640309716082L112.80274506092071,147.639581870552L112.82595072746277,138.15150097619698L112.84915639400482,152.29747030477242L113.01159605979919,138.582317275978L113.33647539138794,148.86196196562318L113.8470000553131,145.98891605049297L113.91661705493928,145.94527769406037L113.96302838802337,151.72477311159005L113.98623405456543,141.64740570040885L114.05585105419159,152.58331278640495L114.33431905269623,153.4969065217192L114.40393605232238,143.61838605428238L114.45034738540649,146.20716406765132L114.51996438503265,136.74753808097012L114.58958138465881,146.39616988720022L114.63599271774292,146.07377465855583L114.77522671699525,152.96351759032345L114.86804938316345,152.32851202223478L115.03048904895783,154.56593378432686L115.05369471549989,152.6857167130335L115.37857404708862,143.52970346653214L115.47139671325684,144.65805864928976L115.63383637905122,155.21078047661103L115.65704204559326,156.22874636339293L115.77307037830353,154.52808763242078L116.23718370914459,152.93646855753468L116.44603470802308,147.91451476307643L116.72450270652772,154.90615550651395L117.00297070503235,140.12394343995098L117.0725877046585,149.73411050932555L117.28143870353699,146.41782036043028L117.3278500366211,152.4485737374198L117.35105570316314,155.74692492278155L118.14004836559296,155.00940295807354L118.55775036334992,155.53216347533817L118.60416169643402,148.63229824439804L118.90583536148071,145.8802138043793L119.09148069381713,145.62215141047577L119.36994869232177,155.85112836926297L120.18214702129363,149.98306283397383L120.20535268783568,153.1261491970284L120.32138102054596,155.03245930618868L120.36779235363007,152.74032089356965L120.43740935325623,149.0221192325304L120.48382068634032,146.37153895921378L120.92472835063936,147.5140653608129L121.2960190153122,152.52370369127797L121.3424303483963,145.05372807694403L121.36563601493836,151.30767815068734L121.69051534652709,154.90626797650475L121.78333801269532,155.16747953015087L122.1778343439102,150.84137756880713L122.24745134353638,148.1076257372897L122.31706834316253,144.91032883866683L122.75797600746155,152.3389717313797L123.17567800521851,153.33185681021192L123.29170633792877,150.9865200919418L123.45414600372315,156.2102450499054L123.57017433643341,152.5837626663682L123.59338000297547,146.07658640832597L123.89505366802216,142.95599404343253L125.4034219932556,155.49971588299073L125.6122729921341,157.55544237493632L126.16920898914337,154.05498261609682L126.63332231998443,153.9169819373783L126.7029393196106,154.72496635132606L126.98140731811525,148.05234673680874L127.16705265045167,150.48287947311414L127.46872631549834,143.09320743221542L127.65437164783476,150.00960575180397L127.9328396463394,153.1838463023117L128.00245664596557,154.7002791883442L128.11848497867584,138.96038515007118L128.53618697643282,156.48984544704822L128.55939264297484,151.91535351101024L128.5825983095169,152.38379102271574L129.00030030727387,152.79599353901844L129.85890996932983,151.41165665718714L129.9749383020401,151.8470842265912L130.0213496351242,152.4329966436932L130.11417230129243,157.3177370493686L130.369434633255,155.054559659382L130.74072529792784,154.00976967979295L130.94957629680633,152.93427539271397L131.3208669614792,156.14911760990253L131.39048396110533,155.6643157145348L131.43689529418944,157.79753403014547L131.46010096073152,150.42327037798714L131.64574629306793,151.41013831231126L131.99383129119872,149.51732460204767L132.04024262428285,155.78083462500945L132.13306529045104,158.31697668268134L132.24909362316131,155.0942615661364L132.5043559551239,146.81990057756047L132.52756162166594,152.253719478349L132.66679562091826,148.1914158804399L132.69000128746032,144.70327158559363L132.94526361942292,152.09777983609698L133.27014295101168,153.10843517347652L133.75746194839476,151.9865470151902L133.8966959476471,156.18083414730972L134.03592994689942,154.78058276177944L134.17516394615174,158.49895312780487L134.45363194465637,153.72134038837189L134.47683761119842,156.66940378736945L134.56966027736664,156.41994534776254L134.82492260932924,152.12269193906045L134.89453960895537,154.0984522675432L135.3354472732544,149.37128231898654L135.52109260559084,157.6167385199254L135.70673793792724,157.84353425638497L135.96200026988984,149.48943204432786L137.02946093082429,152.15879480610906L137.2615175962448,158.1867364333284L137.84165925979613,148.6571541123661L137.86486492633819,150.43940982166774L137.9576875925064,158.06819306301927L138.1665385913849,154.21890762769604L138.212949924469,152.90823858984245L139.0483539199829,150.02130263084777L139.23399925231934,152.75027448775595L139.32682191848752,156.8620086466241L139.39643891811372,157.3039032404995L140.02299191474916,155.12367246873205L140.0461975812912,153.93008469130714L140.11581458091734,152.54164265481145L140.37107691287994,156.24139923735856L140.46389957904813,154.9112728910956L140.67275057792662,157.22792976171027L140.71916191101073,149.6458215665431L140.81198457717898,156.82326273479157L141.20648090839387,151.87447066935238L141.76341690540315,153.22253597914883L142.11150190353393,157.52423195248775L142.18111890316007,154.7980718453497L142.38996990203856,151.38916265902603L143.016522898674,155.85242177415725L143.06293423175813,149.7153842558564L143.13255123138427,153.4052434792126L143.2253738975525,152.60901217930405L143.24857956409454,156.04553274837053L143.94474956035614,156.1509171297554L144.1071892261505,155.9591557954318L144.59450822353364,156.05098754292462L145.0586215543747,150.0896281502622L145.197855553627,156.90041714848425L145.29067821979524,157.16134752715334L145.4531178855896,158.39351251142457L145.5691462182999,153.72269002826155L145.73158588409424,158.74036996306918L145.84761421680452,150.00696270702005L145.89402554988862,158.7623578462717L145.91723121643068,157.98822689955645L146.1956992149353,158.17695154412831L146.28852188110352,154.05307062625312L146.3349332141876,154.424671475875L147.12392587661742,157.92816792446624L147.7272732067108,157.24277580049662L148.23779787063597,154.80020877517504L148.4234432029724,153.93762018069114L149.09640753269196,151.49651526525L149.21243586540223,155.8975784754657L149.63013786315918,152.99765223253294L149.74616619586942,150.6141881873797L149.9550171947479,154.93404806423374L150.09425119400026,146.53287716102446L150.34951352596283,157.12597571504497L150.48874752521513,157.6749979751627L150.5583645248413,154.69926695842696L150.76721552371978,152.18910546863117L150.8136268568039,152.1179681994466L150.95286085605622,157.32482265878934L151.37056285381317,151.54988227588728L151.62582518577574,154.21328412815578L151.78826485157015,154.71315700229147L152.02032151699066,157.83149996736879L152.4380235147476,157.56151575443982L152.8557255125046,159.31115516640784L152.9949595117569,157.22000062735847L153.01816517829894,156.18184637722698L153.2966331768036,153.89150748446082L153.7839521741867,158.15327661106372L154.10883150577544,149.70031327708844L154.24806550502777,154.62604899441249L154.36409383773804,149.92289138889282L154.5265335035324,157.632877963606L154.68897316932677,152.54929061418625L154.92102983474732,157.52187008268083L154.99064683437348,154.40071536783339L155.0602638339996,155.4569210514892L155.19949783325197,154.3854756840792L155.43155449867248,152.5704912074531L155.6171998310089,152.2293134903442L155.9188734960556,148.70444774349986L155.96528482913973,156.0210142903749L156.70786615848542,146.53816325059233L156.7542774915695,156.3097809917684L156.98633415699004,158.66940139887083L157.0559511566162,157.6270857590795L157.63609282016756,150.7414479819763L157.68250415325167,153.8451698482489L158.19302881717684,158.42837820857434L158.2162344837189,155.90713842468418L158.4018798160553,155.05635917923487L158.47149681568146,157.84336555139876L158.49470248222352,157.3758840346151L159.2836951446533,153.91602594245646L159.39972347736358,155.52670868078408L159.42292914390563,158.60349398425873L159.7013971424103,158.0829266318148L160.884886136055,156.73896647668275L161.04732580184938,155.77627959038182L161.09373713493346,158.61597815323816L161.18655980110168,157.69102494885252L161.7202901315689,149.8348836210874L161.78990713119506,155.06288243870162L161.90593546390534,157.08767968317565L162.18440346241,149.78792739992605L162.23081479549407,160.22536748667153L162.25402046203612,150.12663077723724L162.3700487947464,158.30319910880766L162.7181337928772,159.3081184766561L163.4607151222229,159.17529141751461L164.27291345119477,152.4230992845023L164.78343811511994,151.49111670569133L165.15472877979278,154.1081246867525L165.36357977867127,160.1770616256205L165.66525344371794,158.5250461656718L165.92051577568054,157.78195693641888L166.10616110801698,154.10542540697315L166.8951537704468,157.0871173332216L167.0343877696991,155.50376480265973L167.26644443511964,154.47820719149846L167.38247276782988,159.92226086145033L167.6841464328766,152.05312924974714L167.8233804321289,146.65530074601642L168.00902576446535,151.8586686356442L168.33390509605408,158.90007735001322L168.47313909530638,156.32063434588113L168.5195504283905,157.24457532034953L169.7262450885773,159.17574129747786L169.7726564216614,159.5811393793368L169.84227342128753,156.74048482155862L170.02791875362396,157.13334249944273L170.3992094182968,155.3315732467363L171.18820208072663,159.03431028403975L171.2578190803528,155.89386696576912L171.37384741306303,156.71152379892615L171.39705307960512,156.8756175155116L171.76834374427796,158.47432219981843L171.83796074390412,154.9847157950917L172.0932230758667,154.3612384010606L172.11642874240874,157.24918658997254L172.16284007549285,159.04235188838234L172.25566274166107,153.23288321830296L172.37169107437134,153.58868203421662L172.67336473941802,155.35142420011348L172.69657040596007,157.03206327272224L173.25350640296935,156.97835885211256L173.3463290691376,160.7408174545338L173.43915173530578,157.13086815964502L173.531974401474,159.2700473847684L173.55518006801606,154.5288749223564L173.8800593996048,158.596970724792L173.94967639923098,159.06827622126306L174.08891039848328,159.9554957437334L174.29776139736177,157.170513831404L174.43699539661407,158.5671661772285L174.5762293958664,159.9118011523054L174.6690520620346,159.00585537636593L174.80828606128694,158.81763684675266L174.99393139362334,148.1927092853342L175.22598805904389,158.65821063478566L175.27239939212797,148.49255428082202L175.64369005680086,156.81325290560986L176.06139205455779,156.86695732621956L176.1078033876419,159.01001676602573L176.13100905418395,157.71897374156774L176.24703738689422,158.01808768211535L176.43268271923066,158.5296574352948L176.47909405231476,158.37084980827726L176.9896187162399,158.3360403461229L177.03603004932404,157.17326934617873L177.3144980478287,159.76536522427645L177.47693771362304,160.55231774994354L177.52334904670715,147.682995287003L177.56976037979126,160.29155607626066L177.7089943790436,157.92929262437428L177.87143404483797,158.9715520291702L177.89463971138002,154.56930788405103L178.05707937717438,158.52673321553388L178.5908097076416,157.3637935106035L178.82286637306214,159.5255792038788L178.8460720396042,157.2424946255196L179.17095137119293,158.31337764297555L179.4726250362396,151.87154644959142L179.95994403362275,159.18192714697216L180.09917803287507,159.2325386428347L180.47046869754791,157.923669124834L180.7721423625946,152.8296220662693L180.8185536956787,157.97900436031037L181.21305002689363,152.41202099040797L181.23625569343568,154.21845774773283L181.74678035736082,159.6869174056895L182.95347501754762,156.8996298585486L183.20873734951022,152.31091046867368L183.37117701530457,157.61628863996216L183.9513186788559,146.00781100894832L184.13696401119233,160.0417602266813L184.53146034240723,157.2762356227613L184.6939000082016,155.32460010730634L184.71710567474366,157.71807398164128L184.9027510070801,159.70002015961836L185.0883963394165,160.28716974661924L185.29724733829497,159.4613588391288L185.5293040037155,155.7697000959197L185.55250967025756,155.2284382651675L185.71494933605194,157.6029047110563L186.08624000072479,159.79978104146298L186.15585700035095,160.2226682068922L187.08408366203307,157.20616681848938L187.1769063282013,156.05430540765337L187.50178565979004,159.51461337977526L187.57140265941618,160.56463321393676L188.29077832221986,142.48339514206722L188.33718965530394,160.56975059851843L188.54604065418243,159.56983614526084L188.5692463207245,158.29740690428116L188.77809731960295,157.00956927456113L189.1029766511917,157.1345234343462L189.33503331661223,159.25109619131763L190.3560826444626,156.93443932070295L190.40249397754667,154.26850689364133L191.37713197231292,158.65449912508907L191.86445096969604,159.8979673434363L192.09650763511658,155.6583548050221L192.35176996707915,150.76371704015583L192.3749756336212,158.82865890585163L193.41923062801362,159.2089199447655L193.53525896072387,158.73187847876338L193.86013829231263,157.41867886611666L193.99937229156492,159.17770952231695L194.30104595661163,155.8692922727781L194.4170742893219,157.0172734689313L194.44027995586396,159.03071124433396L194.463485622406,155.23816691937222L194.83477628707885,156.73857283171492L196.04147094726562,157.81884709340315L196.08788228034976,158.00661574305317L196.20391061306,158.67181950367316L196.94649194240571,158.39036335168203L197.13213727474212,159.80703535586994L197.503427939415,156.82916740930887L197.944335603714,156.25916949590587L198.15318660259248,159.14610545490055L198.19959793567656,157.65227903701998L198.36203760147094,160.13612254896725L198.80294526576995,158.99590178217963L198.8957679319382,159.55892655615267L199.22064726352693,156.9353953156248L199.31346992969512,151.6601591018722L199.89361159324645,160.96699460604395L200.2184909248352,156.28312560394747L200.31131359100343,157.1386285890106L200.35772492408753,160.14140863853513L200.40413625717164,154.102332482226L200.98427792072297,153.5781098550809L201.1699232530594,155.21882208095363L201.23954025268554,156.32080305086734L201.49480258464814,159.5712982551413L202.30700091362002,158.820336126532L202.42302924633026,160.19646269903447L202.53905757904053,153.55758408175885L202.58546891212464,156.94360562495362L202.63188024520875,159.08042298027007L202.70149724483488,159.79539471182156L203.11919924259186,159.96477451797486L203.67613523960114,158.01476981738656L203.8849862384796,159.82469314442642L204.07063157081603,159.48419024726232L204.41871656894682,158.71568280008736L204.58115623474123,151.85984957054765L204.95244689941407,159.4339723963676L205.06847523212434,158.9118304640524L205.18450356483459,155.07373579281435L205.46297156333924,160.2807027221479L206.08952455997468,160.46520974206456L206.228758559227,159.18918146137912L206.94813422203063,157.26093970401175L207.110573887825,158.73362176362085L207.2498078870773,154.72024261171222L207.3194248867035,156.31062451669945L207.64430421829223,158.51250576169696L208.38688554763792,158.2881281300397L208.66535354614257,159.57585328976893L209.47755187511444,161.09043042095314L209.68640287399293,157.9798478852414L209.75601987361907,160.32372249363107L210.1969275379181,157.97461803066895L210.2433388710022,159.65008348370066L210.56821820259094,157.11889010562422L211.61247319698333,155.9235590433418L211.79811852931974,158.98414866814042L211.86773552894593,158.99860106195896L212.09979219436647,156.91576930222922L212.44787719249726,158.5057013272532L213.00481318950654,161.35366643443376L213.2832811880112,158.57363320169983L213.37610385417938,159.73752890155205L213.4689265203476,158.6629906093949L213.86342285156252,156.52600454909225L214.00265685081482,159.72886871226L214.04906818389895,154.18595392039L214.1186851835251,160.3184926390586L214.14189085006714,160.94973046245528L214.39715318202974,160.57273105327477L214.60600418090823,160.52628094707202L214.67562118053436,158.90243921982014L214.83806084632872,160.29762945576417L215.4414081764221,159.5512785967779L215.46461384296418,160.7073013972737L215.53423084259035,158.55192649347433L215.71987617492675,160.3385685324174L216.02154983997346,160.15035000280417L216.1839895057678,160.50086272914996L216.62489717006684,161.577481716137L216.71771983623503,151.80490798003908L216.9961878347397,159.55628351136875L217.20503883361818,158.97470118891275L217.5299181652069,155.22894438012614L217.59953516483307,158.52082854101658L218.04044282913208,160.35954418570267L218.3885278272629,159.98007043672442L218.89905249118806,158.7560032917912L218.94546382427217,160.40425100704792L219.316754488945,159.88762010428218L219.6184281539917,160.27985919721687L219.87369048595428,159.971916362391L220.0129244852066,158.51796055625104L220.05933581829072,158.66838916895358L220.45383214950562,159.31475420611363L220.5698604822159,156.06532746675234L221.28923614501952,155.67072650401073L221.38205881118776,161.03054015084913L221.7533494758606,157.61010279046786L222.19425714015964,160.82202078789547L222.5887534713745,159.7367978466118L222.68157613754272,157.50646169394045L223.14568946838378,158.07674078232048L223.35454046726227,159.50882117524876L223.47056879997254,159.14593674991434L223.74903679847716,157.41451747645684L223.91147646427154,159.39809446930062L224.2363557958603,159.35484975783584L224.5844407939911,156.43203587177413L224.74688045978547,156.61963581643795L224.83970312595366,159.61431802662446L224.86290879249572,154.59191435220296L225.0717597913742,160.54253286074345L225.16458245754242,158.85132160899897L225.2109937906265,159.18187091197674L225.30381645679475,158.87263467225662L225.419844789505,160.58690227211628L225.5126674556732,154.3555586665249L225.86075245380403,161.00287253311095L226.25524878501892,158.254105957821L226.30166011810303,160.15051870779038L226.53371678352357,160.25292263441892L226.67295078277587,159.65165806357194L226.7657734489441,160.0237650281524L227.09065278053285,159.33291810962874L227.34591511249542,157.32645347365602L227.41553211212158,160.33671277756912L227.5547661113739,159.94930989423906L227.60117744445802,160.56885083859197L227.64758877754213,159.56218818588604L227.87964544296264,157.71633069678379L228.04208510875702,157.49094083520927L228.3437587738037,158.8040842128606L228.36696444034578,158.9839799631542L228.62222677230832,158.76337007618895L228.66863810539246,157.60740351068853L228.69184377193451,157.51860845294746L229.01672310352325,155.96657881482497L229.15595710277557,160.89259570712602L229.57365910053252,159.8839085945856L229.71289309978485,157.5549362599777L229.7360987663269,153.05293123301394L229.89853843212128,156.45413622496744L230.26982909679413,161.3979233758158L230.641119761467,158.95485023553556L230.71073676109313,157.78285669634533L230.8267650938034,157.4654101472964L231.01241042613984,159.39680106440633L231.10523309230803,160.33986193731167L231.17485009193422,159.7605852496672L231.45331809043887,158.2484824582807L231.49972942352295,159.95527080375177L231.54614075660706,158.73199094875417L231.59255208969117,158.3181576175848L231.61575775623322,159.9716914224094L231.963842754364,160.3443607369439L232.05666542053223,159.82092539973442L232.28872208595274,140.5487988302193L233.14733174800875,159.5294031835662L233.35618274688719,155.12575316356197L233.68106207847595,159.57382882993443L233.70426774501803,158.5394985594903L234.0059414100647,159.0090607711039L234.21479240894317,155.5569068733154L234.2612037420273,159.47727334282777L234.63249440670015,158.13753081235095L235.51430973529816,160.16519604159052L235.6303380680084,155.09133734637544L235.72316073417664,160.50299965897526L235.7463664007187,158.63026184207047L235.97842306613924,161.13800522706393L236.34971373081208,158.80931406743306L236.37291939735414,156.54180658280043L236.44253639698027,156.37855639114605L236.6281817293167,154.0426671521036L236.90664972782136,158.60163822941044L236.92985539436341,160.50918550846959L237.32435172557828,159.8537666370497L237.62602539062502,154.54518307102322L237.83487638950348,160.64234997758345L238.25257838726046,159.5932861383438L238.29898972034454,159.9996402151246L238.53104638576508,160.66445033077676L238.60066338539124,159.3859477102936L238.69348605155943,159.660880602818L238.76310305118562,161.26655842655478L238.8327200508118,160.67147970520213L238.97195405006408,158.3901384117004L239.08798238277436,158.76989333565567L239.34324471473695,159.19581719083666L239.62171271324158,159.30564413685838L239.7609467124939,158.79126263390876L239.80735804557798,158.14545994670274L239.9697977113724,158.4715666850437L240.31788270950318,160.75903759304433L240.34108837604524,160.26208893866956L240.50352804183962,160.28154624707895L240.66596770763397,159.49464995640724L241.03725837230684,155.4271727389211L241.106875371933,157.46124875763658L241.17649237155914,155.71695167023185L241.36213770389557,159.1585333888846L241.40854903697968,160.79727738991824L241.8494567012787,159.2464286866992L242.22074736595155,154.8357492922696L242.63844936370847,156.799868976704L242.84730036258696,157.56033481953637L243.00974002838134,159.81530190019416L243.58988169193267,160.59426905651404L243.82193835735322,157.13407355438298L243.96117235660552,158.0270290463844L243.98437802314757,159.82289362457354L244.23964035511017,158.83197677058038L244.70375368595126,149.81975640732404L244.8197820186615,156.53359627347163L245.09825001716612,156.75386875046448L245.26068968296053,160.35200869631868L245.28389534950256,158.4695984602046L246.02647667884824,157.25132351979786L246.04968234539032,158.76376372115678L246.21212201118468,158.1590125805948L246.44417867660522,160.20332336847363L246.5602070093155,159.7823481928881L246.60661834239957,160.2487612447591L246.83867500782011,160.32355378864486L246.86188067436217,159.5971101180312L247.0011146736145,159.72167063284846L247.11714300632477,159.91039527742032L247.16355433940885,154.31259513003715L247.53484500408175,159.5015668608418L247.60446200370788,156.16610057851418L247.6972846698761,160.80301335944932L247.9293413352966,160.4898969050464L248.20780933380126,159.4816034374738L248.53268866539,155.6619538447279L248.67192266464235,158.68149192288243L248.7415396642685,160.58397805235532L249.15924166202547,159.41153463320188L249.46091532707214,156.22734048850785L249.60014932632447,160.131061399381L249.64656065940855,157.57945471797333L249.7393833255768,159.9940167155843L249.80900032520296,157.04769660144424L250.04105699062347,159.70716200403453L250.08746832370758,160.04417833148364L250.20349665641783,157.20133060888475L250.59799298763275,159.6749955866641L250.6676099872589,159.5350829181019L250.85325531959535,158.55035191360307L251.43339698314668,152.31074176368747L251.64224798202514,158.27294468128093L251.9671273136139,161.24923804797072L252.013538646698,159.76199112455228L252.17597831249236,157.25295433466454L252.68650297641753,160.61192684507054L252.73291430950164,157.12608818503577L253.0113823080063,157.48492369070118L253.31305597305297,157.9076421511442L253.9628146362305,159.4176080127054L254.4965449666977,160.50035661419133L254.7286016321182,159.97534669711058L255.1927149629593,157.20599811350317L255.26233196258545,159.57945232947472" fill="none"></path></g></g></g></g></g></g><g transform="translate(51, 176)" clip-path="url(#clip_1)"><clipPath id="clip_1"><rect width="278" height="23"></rect></clipPath><g><g><line x1="0" y1="0" x2="0" y2="5" style="visibility: inherit;" fill="rgb(0, 0, 0)" stroke="rgb(204, 204, 204)" stroke-width="1px"></line><line x1="23.205666542053223" y1="0" x2="23.205666542053223" y2="5" style="visibility: inherit;" fill="rgb(0, 0, 0)" stroke="rgb(204, 204, 204)" stroke-width="1px"></line><line x1="46.411333084106445" y1="0" x2="46.411333084106445" y2="5" style="visibility: inherit;" fill="rgb(0, 0, 0)" stroke="rgb(204, 204, 204)" stroke-width="1px"></line><line x1="69.61699962615967" y1="0" x2="69.61699962615967" y2="5" style="visibility: inherit;" fill="rgb(0, 0, 0)" stroke="rgb(204, 204, 204)" stroke-width="1px"></line><line x1="92.82266616821289" y1="0" x2="92.82266616821289" y2="5" style="visibility: inherit;" fill="rgb(0, 0, 0)" stroke="rgb(204, 204, 204)" stroke-width="1px"></line><line x1="116.02833271026611" y1="0" x2="116.02833271026611" y2="5" style="visibility: inherit;" fill="rgb(0, 0, 0)" stroke="rgb(204, 204, 204)" stroke-width="1px"></line><line x1="139.23399925231934" y1="0" x2="139.23399925231934" y2="5" style="visibility: inherit;" fill="rgb(0, 0, 0)" stroke="rgb(204, 204, 204)" stroke-width="1px"></line><line x1="162.43966579437256" y1="0" x2="162.43966579437256" y2="5" style="visibility: inherit;" fill="rgb(0, 0, 0)" stroke="rgb(204, 204, 204)" stroke-width="1px"></line><line x1="185.64533233642578" y1="0" x2="185.64533233642578" y2="5" style="visibility: inherit;" fill="rgb(0, 0, 0)" stroke="rgb(204, 204, 204)" stroke-width="1px"></line><line x1="208.850998878479" y1="0" x2="208.850998878479" y2="5" style="visibility: inherit;" fill="rgb(0, 0, 0)" stroke="rgb(204, 204, 204)" stroke-width="1px"></line><line x1="232.05666542053223" y1="0" x2="232.05666542053223" y2="5" style="visibility: inherit;" fill="rgb(0, 0, 0)" stroke="rgb(204, 204, 204)" stroke-width="1px"></line><line x1="255.26233196258545" y1="0" x2="255.26233196258545" y2="5" style="visibility: inherit;" fill="rgb(0, 0, 0)" stroke="rgb(204, 204, 204)" stroke-width="1px"></line><line x1="278.4679985046387" y1="0" x2="278.4679985046387" y2="5" style="visibility: inherit;" fill="rgb(0, 0, 0)" stroke="rgb(204, 204, 204)" stroke-width="1px"></line></g><g transform="translate(0, 8)"><text style="text-anchor: middle; visibility: hidden; font-family: Roboto, sans-serif; font-size: 12px; font-weight: 200;" x="0" y="0" dx="0em" dy="0.95em" fill="rgb(33, 33, 33)" stroke="none" stroke-width="1px">-1k</text><text style="text-anchor: middle; visibility: inherit; font-family: Roboto, sans-serif; font-size: 12px; font-weight: 200;" x="23.205666542053223" y="0" dx="0em" dy="0.95em" fill="rgb(33, 33, 33)" stroke="none" stroke-width="1px">0</text><text style="text-anchor: middle; visibility: inherit; font-family: Roboto, sans-serif; font-size: 12px; font-weight: 200;" x="46.411333084106445" y="0" dx="0em" dy="0.95em" fill="rgb(33, 33, 33)" stroke="none" stroke-width="1px">1k</text><text style="text-anchor: middle; visibility: inherit; font-family: Roboto, sans-serif; font-size: 12px; font-weight: 200;" x="69.61699962615967" y="0" dx="0em" dy="0.95em" fill="rgb(33, 33, 33)" stroke="none" stroke-width="1px">2k</text><text style="text-anchor: middle; visibility: inherit; font-family: Roboto, sans-serif; font-size: 12px; font-weight: 200;" x="92.82266616821289" y="0" dx="0em" dy="0.95em" fill="rgb(33, 33, 33)" stroke="none" stroke-width="1px">3k</text><text style="text-anchor: middle; visibility: inherit; font-family: Roboto, sans-serif; font-size: 12px; font-weight: 200;" x="116.02833271026611" y="0" dx="0em" dy="0.95em" fill="rgb(33, 33, 33)" stroke="none" stroke-width="1px">4k</text><text style="text-anchor: middle; visibility: inherit; font-family: Roboto, sans-serif; font-size: 12px; font-weight: 200;" x="139.23399925231934" y="0" dx="0em" dy="0.95em" fill="rgb(33, 33, 33)" stroke="none" stroke-width="1px">5k</text><text style="text-anchor: middle; visibility: inherit; font-family: Roboto, sans-serif; font-size: 12px; font-weight: 200;" x="162.43966579437256" y="0" dx="0em" dy="0.95em" fill="rgb(33, 33, 33)" stroke="none" stroke-width="1px">6k</text><text style="text-anchor: middle; visibility: inherit; font-family: Roboto, sans-serif; font-size: 12px; font-weight: 200;" x="185.64533233642578" y="0" dx="0em" dy="0.95em" fill="rgb(33, 33, 33)" stroke="none" stroke-width="1px">7k</text><text style="text-anchor: middle; visibility: inherit; font-family: Roboto, sans-serif; font-size: 12px; font-weight: 200;" x="208.850998878479" y="0" dx="0em" dy="0.95em" fill="rgb(33, 33, 33)" stroke="none" stroke-width="1px">8k</text><text style="text-anchor: middle; visibility: inherit; font-family: Roboto, sans-serif; font-size: 12px; font-weight: 200;" x="232.05666542053223" y="0" dx="0em" dy="0.95em" fill="rgb(33, 33, 33)" stroke="none" stroke-width="1px">9k</text><text style="text-anchor: middle; visibility: inherit; font-family: Roboto, sans-serif; font-size: 12px; font-weight: 200;" x="255.26233196258545" y="0" dx="0em" dy="0.95em" fill="rgb(33, 33, 33)" stroke="none" stroke-width="1px">10k</text><text style="text-anchor: middle; visibility: hidden; font-family: Roboto, sans-serif; font-size: 12px; font-weight: 200;" x="278.4679985046387" y="0" dx="0em" dy="0.95em" fill="rgb(33, 33, 33)" stroke="none" stroke-width="1px">11k</text></g><line x1="0" y1="0" x2="278.4679985046387" y2="0" fill="rgb(0, 0, 0)" stroke="rgb(204, 204, 204)" stroke-width="1px"></line></g></g></g></g></svg>