<svg viewBox="0 0 330 200" xmlns="http://www.w3.org/2000/svg"><g><g><g><g><g><line x1="41.149001121520996" y1="176.5999994277954" x2="36.149001121520996" y2="176.5999994277954" style="visibility: inherit;" fill="rgb(0, 0, 0)" stroke="rgb(204, 204, 204)" stroke-width="1px"></line><line x1="41.149001121520996" y1="158.93999948501587" x2="36.149001121520996" y2="158.93999948501587" style="visibility: inherit;" fill="rgb(0, 0, 0)" stroke="rgb(204, 204, 204)" stroke-width="1px"></line><line x1="41.149001121520996" y1="141.27999954223634" x2="36.149001121520996" y2="141.27999954223634" style="visibility: inherit;" fill="rgb(0, 0, 0)" stroke="rgb(204, 204, 204)" stroke-width="1px"></line><line x1="41.149001121520996" y1="123.61999959945678" x2="36.149001121520996" y2="123.61999959945678" style="visibility: inherit;" fill="rgb(0, 0, 0)" stroke="rgb(204, 204, 204)" stroke-width="1px"></line><line x1="41.149001121520996" y1="105.95999965667724" x2="36.149001121520996" y2="105.95999965667724" style="visibility: inherit;" fill="rgb(0, 0, 0)" stroke="rgb(204, 204, 204)" stroke-width="1px"></line><line x1="41.149001121520996" y1="88.2999997138977" x2="36.149001121520996" y2="88.2999997138977" style="visibility: inherit;" fill="rgb(0, 0, 0)" stroke="rgb(204, 204, 204)" stroke-width="1px"></line><line x1="41.149001121520996" y1="70.63999977111817" x2="36.149001121520996" y2="70.63999977111817" style="visibility: inherit;" fill="rgb(0, 0, 0)" stroke="rgb(204, 204, 204)" stroke-width="1px"></line><line x1="41.149001121520996" y1="52.979999828338634" x2="36.149001121520996" y2="52.979999828338634" style="visibility: inherit;" fill="rgb(0, 0, 0)" stroke="rgb(204, 204, 204)" stroke-width="1px"></line><line x1="41.149001121520996" y1="35.31999988555907" x2="36.149001121520996" y2="35.31999988555907" style="visibility: inherit;" fill="rgb(0, 0, 0)" stroke="rgb(204, 204, 204)" stroke-width="1px"></line><line x1="41.149001121520996" y1="17.659999942779535" x2="36.149001121520996" y2="17.659999942779535" style="visibility: inherit;" fill="rgb(0, 0, 0)" stroke="rgb(204, 204, 204)" stroke-width="1px"></line><line x1="41.149001121520996" y1="0" x2="36.149001121520996" y2="0" style="visibility: inherit;" fill="rgb(0, 0, 0)" stroke="rgb(204, 204, 204)" stroke-width="1px"></line></g><g transform="translate(31.149001121520996, 0)"><text style="text-anchor: end; visibility: hidden; font-family: Roboto, sans-serif; font-size: 12px; font-weight: 200;" x="0" y="176.5999994277954" dx="0em" dy="0.3em" fill="rgb(33, 33, 33)" stroke="none" stroke-width="1px">0.5</text><text style="text-anchor: end; visibility: inherit; font-family: Roboto, sans-serif; font-size: 12px; font-weight: 200;" x="0" y="158.93999948501587" dx="0em" dy="0.3em" fill="rgb(33, 33, 33)" stroke="none" stroke-width="1px">1</text><text style="text-anchor: end; visibility: hidden; font-family: Roboto, sans-serif; font-size: 12px; font-weight: 200;" x="0" y="141.27999954223634" dx="0em" dy="0.3em" fill="rgb(33, 33, 33)" stroke="none" stroke-width="1px">1.5</text><text style="text-anchor: end; visibility: inherit; font-family: Roboto, sans-serif; font-size: 12px; font-weight: 200;" x="0" y="123.61999959945678" dx="0em" dy="0.3em" fill="rgb(33, 33, 33)" stroke="none" stroke-width="1px">2</text><text style="text-anchor: end; visibility: hidden; font-family: Roboto, sans-serif; font-size: 12px; font-weight: 200;" x="0" y="105.95999965667724" dx="0em" dy="0.3em" fill="rgb(33, 33, 33)" stroke="none" stroke-width="1px">2.5</text><text style="text-anchor: end; visibility: inherit; font-family: Roboto, sans-serif; font-size: 12px; font-weight: 200;" x="0" y="88.2999997138977" dx="0em" dy="0.3em" fill="rgb(33, 33, 33)" stroke="none" stroke-width="1px">3</text><text style="text-anchor: end; visibility: hidden; font-family: Roboto, sans-serif; font-size: 12px; font-weight: 200;" x="0" y="70.63999977111817" dx="0em" dy="0.3em" fill="rgb(33, 33, 33)" stroke="none" stroke-width="1px">3.5</text><text style="text-anchor: end; visibility: inherit; font-family: Roboto, sans-serif; font-size: 12px; font-weight: 200;" x="0" y="52.979999828338634" dx="0em" dy="0.3em" fill="rgb(33, 33, 33)" stroke="none" stroke-width="1px">4</text><text style="text-anchor: end; visibility: hidden; font-family: Roboto, sans-serif; font-size: 12px; font-weight: 200;" x="0" y="35.31999988555907" dx="0em" dy="0.3em" fill="rgb(33, 33, 33)" stroke="none" stroke-width="1px">4.5</text><text style="text-anchor: end; visibility: inherit; font-family: Roboto, sans-serif; font-size: 12px; font-weight: 200;" x="0" y="17.659999942779535" dx="0em" dy="0.3em" fill="rgb(33, 33, 33)" stroke="none" stroke-width="1px">5</text><text style="text-anchor: end; visibility: hidden; font-family: Roboto, sans-serif; font-size: 12px; font-weight: 200;" x="0" y="0" dx="0em" dy="0.3em" fill="rgb(33, 33, 33)" stroke="none" stroke-width="1px">5.5</text></g><line x1="41.149001121520996" y1="0" x2="41.149001121520996" y2="176.5999994277954" fill="rgb(0, 0, 0)" stroke="rgb(204, 204, 204)" stroke-width="1px"></line></g></g><g transform="translate(41, 0)" clip-path="url(#clip_0)"><clipPath id="clip_0"><rect width="288" height="176"></rect></clipPath><g><g><g><line x1="0" y1="0" x2="0" y2="176.5999994277954" fill="rgb(0, 0, 0)" stroke="rgb(66, 66, 66)" stroke-width="1px" opacity="0.25"></line><line x1="28.8850998878479" y1="0" x2="28.8850998878479" y2="176.5999994277954" fill="rgb(0, 0, 0)" stroke="rgb(66, 66, 66)" stroke-width="1px" opacity="0.25"></line><line x1="57.7701997756958" y1="0" x2="57.7701997756958" y2="176.5999994277954" fill="rgb(0, 0, 0)" stroke="rgb(66, 66, 66)" stroke-width="1px" opacity="0.25"></line><line x1="86.6552996635437" y1="0" x2="86.6552996635437" y2="176.5999994277954" fill="rgb(0, 0, 0)" stroke="rgb(66, 66, 66)" stroke-width="1px" opacity="0.25"></line><line x1="115.5403995513916" y1="0" x2="115.5403995513916" y2="176.5999994277954" fill="rgb(0, 0, 0)" stroke="rgb(66, 66, 66)" stroke-width="1px" opacity="0.25"></line><line x1="144.4254994392395" y1="0" x2="144.4254994392395" y2="176.5999994277954" fill="rgb(0, 0, 0)" stroke="rgb(66, 66, 66)" stroke-width="1px" opacity="0.25"></line><line x1="173.3105993270874" y1="0" x2="173.3105993270874" y2="176.5999994277954" fill="rgb(0, 0, 0)" stroke="rgb(66, 66, 66)" stroke-width="1px" opacity="0.25"></line><line x1="202.1956992149353" y1="0" x2="202.1956992149353" y2="176.5999994277954" fill="rgb(0, 0, 0)" stroke="rgb(66, 66, 66)" stroke-width="1px" opacity="0.25"></line><line x1="231.0807991027832" y1="0" x2="231.0807991027832" y2="176.5999994277954" fill="rgb(0, 0, 0)" stroke="rgb(66, 66, 66)" stroke-width="1px" opacity="0.25"></line><line x1="259.9658989906311" y1="0" x2="259.9658989906311" y2="176.5999994277954" fill="rgb(0, 0, 0)" stroke="rgb(66, 66, 66)" stroke-width="1px" opacity="0.25"></line><line x1="288.850998878479" y1="0" x2="288.850998878479" y2="176.5999994277954" fill="rgb(0, 0, 0)" stroke="rgb(66, 66, 66)" stroke-width="1px" opacity="0.25"></line></g><g><line x1="0" y1="176.5999994277954" x2="288.850998878479" y2="176.5999994277954" fill="rgb(0, 0, 0)" stroke="rgb(66, 66, 66)" stroke-width="1px" opacity="0.25"></line><line x1="0" y1="158.93999948501587" x2="288.850998878479" y2="158.93999948501587" fill="rgb(0, 0, 0)" stroke="rgb(66, 66, 66)" stroke-width="1px" opacity="0.25"></line><line x1="0" y1="141.27999954223634" x2="288.850998878479" y2="141.27999954223634" fill="rgb(0, 0, 0)" stroke="rgb(66, 66, 66)" stroke-width="1px" opacity="0.25"></line><line x1="0" y1="123.61999959945678" x2="288.850998878479" y2="123.61999959945678" fill="rgb(0, 0, 0)" stroke="rgb(66, 66, 66)" stroke-width="1px" opacity="0.25"></line><line x1="0" y1="105.95999965667724" x2="288.850998878479" y2="105.95999965667724" fill="rgb(0, 0, 0)" stroke="rgb(66, 66, 66)" stroke-width="1px" opacity="0.25"></line><line x1="0" y1="88.2999997138977" x2="288.850998878479" y2="88.2999997138977" fill="rgb(0, 0, 0)" stroke="rgb(66, 66, 66)" stroke-width="1px" opacity="0.25"></line><line x1="0" y1="70.63999977111817" x2="288.850998878479" y2="70.63999977111817" fill="rgb(0, 0, 0)" stroke="rgb(66, 66, 66)" stroke-width="1px" opacity="0.25"></line><line x1="0" y1="52.979999828338634" x2="288.850998878479" y2="52.979999828338634" fill="rgb(0, 0, 0)" stroke="rgb(66, 66, 66)" stroke-width="1px" opacity="0.25"></line><line x1="0" y1="35.31999988555907" x2="288.850998878479" y2="35.31999988555907" fill="rgb(0, 0, 0)" stroke="rgb(66, 66, 66)" stroke-width="1px" opacity="0.25"></line><line x1="0" y1="17.659999942779535" x2="288.850998878479" y2="17.659999942779535" fill="rgb(0, 0, 0)" stroke="rgb(66, 66, 66)" stroke-width="1px" opacity="0.25"></line><line x1="0" y1="0" x2="288.850998878479" y2="0" fill="rgb(0, 0, 0)" stroke="rgb(66, 66, 66)" stroke-width="1px" opacity="0.25"></line></g></g></g><g><g><line x1="0" y1="194.25999937057497" x2="288.850998878479" y2="194.25999937057497" fill="rgb(0, 0, 0)" stroke="rgb(153, 153, 153)" stroke-width="1.5px"></line></g></g><g><g><line x1="28.8850998878479" y1="0" x2="28.8850998878479" y2="176.5999994277954" fill="rgb(0, 0, 0)" stroke="rgb(153, 153, 153)" stroke-width="1.5px"></line></g></g><g><g><g><g><g><path style="fill: none;" stroke="rgb(255, 112, 67)" stroke-width="2px" d="M30.805959030389783,-0.2971185869684399L31.094810029268263,2.0194815931351653L31.22479297876358,1.3418779582538982L31.600299277305602,2.4508177321163314L31.67251202702522,0.49793370040730406L32.10578852534294,3.913607624618406L32.16355872511864,4.517703672395678L32.264656574726104,3.729360202919032L32.293541674613955,4.9876595547825L32.36575442433357,6.903108656059539L32.39463952422142,4.336847009913217L32.59683522343636,6.109735141172878L32.94345642209053,8.346657088848493L32.95789897203445,4.152872500265716L33.116767021417616,3.5052537642265627L33.23230742096901,2.5827274541426894L33.391175470352174,0.28889172077135417L33.60781371951103,2.0228175379051816L33.85333706855774,2.2810890443993155L33.92554981827736,2.7114774539866353L34.0122051179409,4.850504918317835L34.142188067436216,5.85534296745874L34.17107316732407,4.785671047218648L34.45992416620255,5.792217241883538L34.86431556463241,6.3483409311569465L34.878758114576335,6.25962057803682L34.95097086429596,7.980553314865247L35.64421326160431,8.678996833826083L35.904179160594936,9.427598069311836L35.96194936037064,10.987919238162014L36.669634307622914,9.709282354937848L36.684076857566836,9.654390842191429L36.756289607286455,10.725744871596705L36.98737040638924,11.876939794850912L37.43508945465088,11.477730574211858L37.55062985420227,10.176357663653324L37.88280850291252,12.179295962835514L38.258314801454546,10.305460655120823L38.76380404949189,12.431805608683538L38.77824659943581,12.165677069441344L39.15375289797783,9.218438370448116L39.38483369708061,12.73917566981831L39.39927624702453,13.218062665323465L39.84699529528618,14.999741934201293L40.17917394399643,14.023228048296783L40.208059043884276,12.026373676403797L40.49691004276276,15.1029478985492L40.88685889124871,13.746912614329837L40.944629091024396,12.782495912060334L40.97351419091225,13.076390443535637L41.219037539958954,18.75743774639161L41.34902048945427,15.844860795803308L41.536773638725286,21.412056636661873L41.55121618866921,20.154915873602572L41.84006718754769,22.46757970905238L41.85450973749161,22.7080702564707L42.35999898552895,23.741050403575418L42.37444153547287,21.1147194532838L42.47553938508033,22.01529825545613L42.77883293390274,14.11513781264294L43.39986258149147,21.29788589919277L43.52984553098678,21.4087846121392L43.64538593053818,24.303171212336327L43.73204123020172,23.921848131709602L44.33862832784653,21.790971831000455L44.65636442661285,26.763589127244348L44.91633032560348,32.26002314430967L44.974100525379185,26.578058144191385L45.36404937386513,26.681908429612786L45.595130172967906,26.44513361037963L45.69622802257538,32.35946567187255L46.57722356915474,29.8699649832641L46.736091618537905,25.349709861887856L46.75053416848183,18.5098928925241L47.183810666799545,24.13277260736849L47.212695766687396,28.37707785655005L47.29935106635094,24.728918045173643L47.41489146590233,29.78402823839204L48.26700191259384,24.90954481939754L48.671393311023714,29.327567787422495L48.772491160631176,28.323530109132367L49.03245705962181,36.62294823259259L49.37907825827598,35.87999490768137L49.48017610788346,33.902015276097565L49.566831407547,28.592683534674762L49.754584556818,30.992905608196985L50.04343555569648,38.09296427952815L50.072320655584335,36.40697752893637L50.70779285311699,38.45144717522229L50.82333325266838,48.14129913210538L50.924431102275854,49.23433468066229L50.98220130205154,46.54449467420121L51.184397001266476,44.36141568437579L51.299937400817875,42.56442003766444L51.81986919879913,48.17223675761279L52.07983509778976,42.597279388127404L52.38312864661217,36.48145054426174L52.78752004504204,42.7266516616281L53.01860084414482,43.37613138139125L53.061928493976595,49.98759003659576L53.10525614380837,49.863125918023705L53.26412419319153,51.901417288667L53.81294109106064,45.85303480429079L54.10179208993912,43.562625548585565L54.72282173752785,41.96092018754983L55.0550003862381,37.89207004618365L55.60381728410721,42.75879216424755L55.96488103270531,45.907605646746994L56.138191632032395,48.0716186193897L56.16707673192025,45.14082612981319L56.55702558040619,51.41285942962761L56.975859528779985,48.88960878779528L57.20694032788277,40.45030085067198L57.322480727434154,38.468619978558735L57.46690622687339,45.081447825275625L57.553561526536946,45.70054597237827L57.7701997756958,47.7396482268185L57.8279699754715,56.87025490908719L58.34790177345276,50.771531797756396L58.39122942328453,60.440698919266474L59.07002927064895,58.106004180692956L59.12779947042465,50.97775962173139L59.402207919359206,44.60452325081266L59.4599781191349,41.12685065321369L59.589961068630224,41.95526808130306L60.42762896537781,45.250739763220324L60.45651406526566,35.93969993296959L60.83202036380768,39.77849739099846L61.13531391263008,40.02143355681768L61.164199012517926,50.89275650085407L61.2075266623497,48.702257845556794L61.366394711732866,50.88608623503821L61.42416491150856,49.959591863621014L61.438607461452484,56.69984380721821L61.55414786100388,60.274874277875035L61.82855630993843,60.56556022985161L61.8718839597702,58.734412786539735L61.972981809377664,55.28882738601813L62.088522208929064,53.96160303539693L62.464028507471085,45.61169496317051L62.50735615730286,58.36501104860776L62.5940114569664,55.50197653350057L63.17171345472336,50.83243299464472L63.47500700354576,57.72088271273664L64.18269195079803,56.11811735709844L64.2837898004055,66.2586579063271L64.42821529984474,57.128855637210606L64.81816414833068,59.17175321255415L65.02035984754562,57.05455207132614L65.16478534698486,57.51196661048349L65.32365339636803,48.514511158697644L65.45363634586334,47.43569931161825L65.64138949513436,51.74723002787964L65.81470009446144,49.27357868033211L66.06022344350815,53.04357199784585L66.32018934249878,53.98190335030893L66.34907444238662,54.11593252816695L66.36351699233056,47.556711750730884L66.46461484193802,43.59768148161098L66.95566154003143,48.11283226753938L67.15785723924637,56.376673941801506L67.27339763879776,62.395910125782564L67.37449548840523,67.16601207411655L67.4755933380127,67.67185263917911L67.51892098784447,74.21202950439579L67.85109963655472,60.492815886991075L68.25549103498459,61.88943151469763L68.5010143840313,63.056989910029046L69.22314188122749,59.037430785275454L69.32423973083496,58.97582588752539L69.55532052993775,64.03055653589331L69.65641837954522,57.37885101098061L69.67086092948914,55.08605593149732L69.7141885793209,59.755592822960374L69.80084387898445,57.728812928805404L70.01748212814331,52.4933811747692L70.08969487786293,56.42307443097973L70.16190762758255,56.47115339267819L70.23412037730218,59.8387367207934L70.29189057707787,64.78088277753217L70.30633312702179,65.5778513878393L70.63851177573204,60.744532113469816L70.73960962533951,64.87965331902228L70.75405217528343,60.95819459947564L70.76849472522736,57.94721921118859L70.94180532455445,60.85444948418328L71.37508182287216,58.20728546494345L71.5195073223114,58.556370103762845L71.62060517191887,68.38701235368342L71.6928179216385,69.50151994203648L72.14053696990013,72.7232661432703L73.19484311580658,66.35380183646832L73.23817076563834,58.789532291613185L73.51257921457291,61.41631828928627L73.80143021345138,55.73369768118454L73.85920041322707,65.23042816146844L74.32136201143264,73.74701709968605L74.45134496092795,69.73195450097181L74.52355771064758,59.116471045481525L74.66798321008683,64.85191771885526L74.85573635935783,65.39479104843277L74.98571930885315,59.926016194104506L75.36122560739518,64.75755627841447L75.52009365677834,67.12651325918442L75.56342130661011,69.6330709463275L75.88115740537643,72.75918929969521L76.11223820447923,67.67622318826652L76.21333605408668,63.16699284254435L76.80548060178758,71.0057971607606L77.07988905072212,67.98886590951724L77.23875710010529,63.57767286544106L77.44095279932023,64.52719872656188L77.58537829875947,69.9721963014125L77.61426339864731,74.90699989462989L77.8453441977501,77.7379435133837L77.90311439752578,71.60015418024155L77.9175569474697,61.37514799047019L78.42304619550706,66.26842835952677L78.72633974432945,71.83989611465776L78.97186309337616,81.4810771318506L79.20294389247894,76.96172980631437L79.70843314051628,71.4458526822858L80.0839394390583,68.94926414937528L80.30057768821717,70.2142430275127L80.97937753558159,77.35331492844948L81.06603283524514,74.48744382215662L81.21045833468438,72.6366891641772L81.51375188350677,69.18693849488909L81.57152208328246,66.66965975003936L81.61484973311426,73.16727358680185L81.99035603165626,70.02453130376391L82.27920703053474,74.77822780085661L82.56805802941322,80.20485633530211L82.75581117868423,81.82013711118779L83.24685787677765,78.28961110277334L83.34795572638511,73.15104639252039L83.36239827632905,75.2419243037546L83.6945769250393,84.0069092781135L84.33004912257194,82.3240780806313L84.47447462201119,83.74543184449944L84.51780227184297,78.9165993763565L84.7199979710579,80.24844627459007L85.54322331786156,82.23179516286694L85.58655096769333,77.64608771767209L85.61543606758117,74.20883460897849L85.6298786175251,76.23833404886363L86.4675465142727,76.70062786197086L86.58308691382409,84.39406696149962L86.62641456365586,80.94151853940114L87.23300166130066,73.41321765323669L87.76737600922584,82.97947807322114L87.81070365905761,71.57341049770963L88.04178445816041,71.22036426120643L88.31619290709496,75.21388867853024L88.4606184065342,79.92200387074978L88.72058430552482,86.56801451422791L89.35605650305749,81.06512248746161L89.70267770171165,72.49182231655847L90.09262655019761,63.93155273533966L90.208166949749,64.66299710773336L90.94473699688912,64.74187847232622L91.03139229655265,66.20839911997969L91.24803054571152,68.23064963963608L91.40689859509469,62.59813611252732L91.42134114503861,62.68943129922526L91.53688154459,74.55457589617039L92.57674514055252,75.11136232159618L92.79338338971138,87.65892910187813L92.8078259396553,91.84458337765598L92.88003868937493,86.90070521532552L93.18333223819732,83.43133132248686L93.38552793741225,82.69021351320198L93.7032640361786,80.13413591308554L93.71770658612252,86.82210642232394L94.45427663326264,79.60234622275782L94.58425958275795,79.89220068984991L94.67091488242149,89.80961736685539L94.68535743236541,81.1920764534638L94.69979998230933,69.82586579879461L95.23417433023452,73.2562204579867L95.47969767928124,75.45129717517764L95.58079552888871,80.33626357357039L95.73966357827187,65.27231894088243L96.15849752664565,82.19794621776826L96.663986774683,71.9817516660193L96.75064207434654,75.00162658012889L97.18391857266427,78.48962931247057L97.2705738723278,75.9601544775945L97.50165467143059,73.26515421183115L97.58830997109413,75.63154359635125L97.76162057042121,80.15917720478666L97.96381626963615,79.93958297140246L98.02158646941184,89.90568375949354L98.35376511812211,89.02708476360296L98.46930551767349,84.09761742745172L98.83036926627159,90.73296885503002L99.00367986559868,89.33515003540215L99.321415964365,85.7926754577083L99.36474361419677,82.14589661812073L99.65359461307524,81.22000084958528L99.94244561195373,82.797077608849L100.49126250982285,89.02674530866528L100.54903270959855,90.93368445377436L100.9534241080284,90.20354786756705L101.4300282561779,80.45513528805026L101.50224100589752,85.20505187836159L101.68999415516852,81.87890621046978L101.77664945483208,75.93847129444L102.36879400253295,80.59515373859547L102.67208755135536,80.696131780709L103.2353469991684,87.40824052656409L103.24978954911232,90.07839988247824L103.5964107477665,88.61193038145753L103.65418094754219,93.25785878256971L104.37630844473838,89.28863883707312L104.47740629434587,94.14725952575961L105.21397634148599,98.49833092113542L105.25730399131776,90.2347996908113L105.37284439086915,82.36117491958294L105.48838479042054,89.85558796891641L105.51726989030838,85.4637877377165L106.10941443800927,88.53983236686882L106.18162718772888,88.46898698260104L106.22495483756066,90.0816735943336L106.29716758728027,88.07694826021283L106.94708233475686,84.56022622641734L107.32258863329888,76.93769473298555L107.49589923262596,78.31243439309289L107.55366943240166,80.95833094814944L107.82807788133621,82.36222493036239L108.00138848066331,92.24137968030239L108.03027358055115,80.87192980676946L108.14581398010255,91.80964044034161L108.52132027864455,95.42016673239382L108.57909047842026,91.80405592113627L108.63686067819594,86.88994309317641L108.69463087797166,89.71150635304672L108.8390563774109,91.79126880112373L108.91126912713051,95.50060193948472L109.61895407438278,93.05975918015044L109.77782212376594,87.9427464563063L109.79226467370987,83.21114716478525L109.96557527303695,83.86155739057838L109.9944603729248,79.87620008564187L110.05223057270051,82.42644964540929L110.19665607213975,85.93496885117794L110.42773687124252,88.45676216650193L110.90434101939202,92.01250321865793L110.91878356933594,92.407326029413L110.99099631905555,86.65117521013772L111.12097926855087,90.437367904343L111.20763456821442,89.49627100075847L111.22207711815834,92.16266851220128L111.3809451675415,83.5841050439895L111.74200891613961,81.46080002211252L111.88643441557885,93.61419440688633L112.63744701266289,99.00007958518651L112.65188956260681,96.00520498113974L112.99851076126099,101.00283692887425L113.01295331120491,100.59566290420427L113.22959156036377,97.04067438758048L113.5473276591301,94.27095010901499L113.87950630784034,96.85292110063504L114.12502965688705,91.40676472901497L114.55830615520478,92.84038299408161L114.60163380503654,98.51162125931053L114.83271460413933,90.99254781706826L114.86159970402717,85.73151845752079L115.12156560301781,86.61024424302397L115.43930170178413,96.58540183337169L115.97367604970933,99.64504690365092L116.13254409909248,97.0179760501224L116.2047568488121,91.44667593376224L116.46472274780274,96.0189905648628L116.66691844701766,94.94951055094566L116.95576944589614,93.76791202188379L117.9523053920269,94.57668999059348L118.53000738978386,95.4821147294423L118.63110523939133,102.80739591796454L118.68887543916702,104.05819754531873L118.74664563894272,98.11123887668369L119.07882428765298,98.98872937154741L119.12215193748474,101.28928082214132L119.2810199868679,95.27540291518623L119.35323273658753,103.0735078051976L119.642083735466,110.74922982983603L119.65652628540992,111.61482068002762L119.75762413501741,108.55803598053829L119.91649218440057,105.56543186992074L120.0609176838398,92.47311214645184L120.13313043355942,88.81391048432124L120.27755593299865,93.10704361030598L120.39309633255004,94.02498104742111L120.49419418215753,97.57739917013048L121.11522382974624,91.69407831069171L122.08287467598916,96.71526493602278L122.12620232582093,99.82024351248498L122.79055962324142,90.66251868845546L122.97831277251244,100.0482984797102L123.00719787240028,96.14119445543746L123.0216404223442,100.6145015073095L123.33937652111054,103.33297792582096L123.51268712043762,98.72995121778138L123.7437679195404,104.68978119130982L123.96040616869925,101.95414782380665L123.98929126858712,109.14193241703123L124.01817636847497,108.22774332662036L124.1626018679142,103.22044097690872L124.49478051662444,99.14569693016898L124.59587836623191,108.01372207801894L124.79807406544685,100.29083145948033L125.02915486454964,99.22199939003889L125.21690801382064,92.66343066681424L125.34689096331597,100.90413936901422L125.44798881292344,102.56862703992644L125.50575901269913,100.39341862126342L125.910150411129,110.41628242496317L125.9823631608486,105.08236747368701L126.64672045826912,97.71929653154572L127.20997990608215,99.09676122897764L127.33996285557747,103.77345741167063L127.45550325512886,95.77482436894121L127.55660110473633,96.71500978959993L128.06209035277368,107.35331888533014L128.19207330226897,106.16152357507512L128.22095840215684,111.65716893349591L128.40871155142784,105.69415835140471L128.58202215075494,104.87976904641886L128.85643059968947,95.92128243300931L128.91420079946516,107.92084839816964L128.95752844929694,104.4165035087745L129.05862629890441,96.81543770013077L129.56411554694176,94.60355449395541L129.80963889598848,97.92241442336069L130.05516224503518,107.57616980930167L130.30068559408187,103.91823737202306L130.58953659296037,99.01206861668338L130.61842169284822,100.49821515796422L130.9217152416706,103.6706450797374L130.93615779161453,103.58773029753817L131.06614074110985,101.0321240144629L131.08058329105376,104.15313062138273L131.54274488925935,112.70301785857721L131.60051508903504,103.3172365028093L131.68717038869858,109.02348441897043L131.93269373774527,115.4602065780942L132.14933198690414,104.56553896312994L132.87145948410034,102.97960684734826L133.07365518331528,108.19487342459725L133.2180806827545,122.98427899966998L133.29029343247416,118.30917556244127L133.40583383202554,111.17431999606667L133.62247208118438,106.23342020818504L134.31571447849274,111.02854461695446L134.4168123281002,110.0626236997167L134.53235272765158,114.89120360865772L134.56123782753943,106.50889428466087L134.61900802731515,107.19486414049433L134.74899097681046,104.50605650715526L135.25448022484778,107.16293167283752L135.26892277479172,102.58548824976297L135.39890572428703,98.80705906449633L135.54333122372628,99.98776515300501L135.6877567231655,102.02785670951033L135.78885457277298,98.7875716615406L136.06326302170754,105.41869735790347L136.14991832137108,112.6697921071592L136.48209697008133,113.48392186856202L136.5831948196888,112.76988889555976L136.66985011935233,105.85111732614727L136.7709479689598,106.97476076999637L137.05979896783828,118.87863295714689L137.117569167614,118.44911272707634L137.305322316885,115.28478707306115L137.68082861542703,121.17770734144176L137.92635196447372,115.24842602483714L137.95523706436157,116.49591535529176L139.0673134100437,115.03081893388138L139.31283675909043,113.60473654667474L139.45726225852965,112.34075889912106L139.80388345718384,114.47370686542958L140.03496425628663,113.69634003176286L140.25160250544548,118.82113045421812L140.42491310477257,102.24478156579714L140.4393556547165,101.75734979609246L140.52601095438004,106.89743719493903L140.58378115415573,111.52603900668387L140.80041940331458,110.01485110860209L140.81486195325851,113.72330083038528L141.0315002024174,112.70190131362259L141.52254690051078,115.33140805912383L141.62364475011825,116.86556571984693L141.78251279950143,104.01214422321456L142.54796794652938,116.13099720580493L142.69239344596863,119.02783732984544L142.77904874563217,117.41556433993004L142.7934912955761,111.51692257733957L143.18344014406205,118.53717037741721L143.50117624282836,120.54092981291025L143.5300613427162,116.75480676722445L143.5878315424919,118.96733287645553L143.67448684215546,118.34062360325774L143.79002724170687,115.80258461860987L144.1222058904171,113.87989437731011L144.17997609019278,112.94495531116743L144.51215473890304,112.19646754957965L144.52659728884697,115.18559924672113L144.64213768839838,114.43226137872674L144.69990788817407,122.65841216374741L144.7865631878376,125.0000745669929L145.04652908682823,118.80523051134776L145.16206948637964,124.27690806308118L145.277609885931,122.68751586723258L145.36426518559455,110.49616421650605L145.4942481350899,105.58098548147862L145.7108863842487,109.84861393485254L146.37524368166925,109.38864548443722L146.44745643138884,114.00581234755244L146.50522663116453,116.32650141341156L146.62076703071597,114.78947720983085L146.67853723049166,119.3193996329075L146.7796350800991,114.40218404410952L147.1406988286972,114.45658231171029L147.1984690284729,109.14015668388946L147.60286042690277,112.52836564745552L148.00725182533265,109.18584530326615L148.42608577370643,114.27990314210848L148.51274107336997,121.47639737179449L148.80159207224847,127.9041109498892L148.888247371912,122.95429082205727L149.04711542129516,111.99606204028424L149.40817916989326,109.25059292897853L149.65370251893998,109.9624692914652L149.89922586798667,120.19820310940273L150.15919176697733,114.01865680678591L150.72245121479037,115.71946568982044L150.79466396450997,111.61567848375417L151.40125106215478,110.82247771842711L151.9067403101921,120.17699234700804L152.06560835957526,116.54924412284674L152.2678040587902,116.4800947847929L152.48444230794908,114.09556167148594L152.7444082069397,107.90052757943674L152.75885075688365,114.69408503204623L152.87439115643502,123.13482855929432L152.90327625632287,114.07100525120556L152.9899315559864,119.78371208471394L153.37988040447235,124.1785725708452L153.639846303463,122.20717094532651L153.79871435284613,114.54322101274337L153.87092710256576,119.68943293079961L153.91425475239754,119.03605120703622L154.05868025183676,119.70096519303519L154.1886632013321,117.98497661028605L155.06965874791146,122.48846925813842L155.17075659751893,122.45948422825745L155.41627994656562,125.71594073390091L155.9362117445469,120.01955526266065L156.09507979393004,116.00085929680476L156.7449945414066,119.81157422276623L157.23604123950005,124.82533816096128L157.35158163905143,120.18325630818781L157.7993006873131,114.78535873697143L157.85707088708878,119.91062532461197L158.31923248529435,124.69366054632077L158.5358707344532,128.72093708941412L158.63696858406067,119.90500303335354L158.6514111340046,126.76924987234916L158.6658536839485,127.49875193570205L158.8969344830513,128.28924357784413L159.53240668058396,123.12700315048421L159.6912747299671,125.27441156262152L160.1678788781166,127.19462952655806L160.31230437755585,133.32193497141702L160.87556382536886,133.22667838849242L160.97666167497636,133.0526552069386L161.1788573741913,134.66037419651153L161.3810530734062,126.03202765502905L161.5543636727333,124.94148163096145L162.0887380206585,125.05632979527866L162.11762312054634,118.96196985397542L162.2187209701538,119.90658473976347L162.26204861998556,121.45128802475712L162.3920315694809,113.5340167321729L162.72421021819116,120.04651186080321L163.0563888669014,124.7457932676913L163.46078026533127,127.72903831978994L163.60520576477052,120.93167025436131L164.00959716320037,122.21635340163327L164.31289071202278,115.85178065320382L164.55841406106947,124.71541010148154L164.60174171090125,127.15249308373832L164.6306268107891,126.78816597471383L164.87615015983582,131.23563509335048L164.90503525972366,133.05339909902713L165.06390330910682,133.59199387507152L165.5260649073124,125.65518805994186L165.77158825635908,135.24382165693441L165.90157120585442,116.23568027060367L165.9593414056301,120.32061701337224L166.11820945501327,127.65879864769042L166.43594555377962,129.70885540201812L166.6236987030506,124.99402622314436L167.0858603012562,130.47521285637492L167.2302858006954,126.52172420670269L167.4035964000225,128.2812561255827L167.4613665997982,131.61521120092544L167.54802189946173,126.238432933364L167.59134954929354,119.89311351101004L167.73577504873276,116.87193952472862L167.89464309811592,124.25221148256797L168.0101834976673,116.44559158534146L168.02462604761124,127.74443697803186L168.05351114749908,127.18380673742836L168.44345999598502,132.9594172512412L168.61677059531212,129.99662549930218L168.71786844491956,131.2161598500486L169.06448964357378,132.83015288805768L169.18003004312516,124.53639935732863L169.2666853427887,116.85520523105399L169.87327244043348,124.94481448929163L170.46541698813436,127.71444351534252L170.76871053695677,120.8345001944891L171.2597572350502,125.70185414963778L171.3752976346016,130.41658783649325L171.47639548420906,126.7315245662944L171.7363613831997,124.80636755417652L171.99632728219032,126.57219573124048L172.53070163011552,129.91515628364462L172.5740292799473,125.43478456481392L172.90620792865755,123.45683112349931L173.09396107792853,124.54309420759564L173.1228461778164,124.09627588973797L173.26727167725562,125.49081611922216L173.4261397266388,120.08070870366683L173.44058227658272,124.03793338504687L173.4983524763584,127.7013059094248L173.59945032596588,126.6185026219377L173.65722052574156,131.68956550395643L173.77276092529297,129.97626953275713L173.88830132484435,132.80610837430535L174.07605447411538,132.67797372128368L174.4515607726574,133.64248751838159L174.48044587254523,132.32727829179052L175.08703297019005,131.17237388739213L175.14480316996574,127.48168290241539L175.73694771766665,128.4884613551915L176.22799441576004,135.35749532550327L176.28576461553573,133.4144346482384L176.38686246514322,128.33775007950223L176.5601730644703,139.09785712189625L177.0512197625637,145.39822145770043L177.08010486245155,141.92963740933007L177.19564526200296,132.86077402077112L177.4122835111618,129.4626330440039L177.4267260611057,124.51861702814755L177.54226646065712,125.55445987758979L177.6433643102646,121.54048507248947L177.77334725975993,125.73331202106795L177.90333020925522,124.06211474064628L177.91777275919915,122.03101719481715L177.97554295897484,115.75620820152444L178.37993435740472,125.17833277258701L178.9143087053299,128.05266898663095L178.95763635516167,132.54144227592533L179.44868305325508,142.77979139961553L179.59310855269433,128.61900171476282L180.2430233001709,133.86833825360029L180.34412114977835,137.53699370305296L180.38744879961015,132.91207530050605L180.76295509815216,127.57882794158351L180.86405294775963,129.37353688919708L181.41286984562873,132.15438410282994L181.42731239557267,132.81644812885074L181.5284102451801,131.35245577656804L181.57173789501192,126.24146476734025L181.58618044495583,125.09163874079809L181.745048494339,126.23125724858365L181.97612929344177,132.14396312024815L182.19276754260065,134.16544208642418L183.24707368850707,136.21285177177543L183.29040133833882,137.76552414443566L183.36261408805848,132.3047551522204L183.39149918794632,137.58152087151177L183.55036723732948,134.41818307628012L183.89698843598367,125.94031060844897L184.026971385479,120.65132278514392L184.24360963463783,124.34602522271604L184.30137983441352,128.37557281463978L185.15349028110504,127.8250600158861L185.16793283104897,131.78374805027607L185.18237538099288,134.34605404046988L185.29791578054426,136.44547165986475L186.5110899758339,137.28070664449788L186.66995802521706,135.4936682603675L186.6988431251049,137.38599484186585L186.74217077493665,137.32294896115184L186.95880902409553,135.6091514369331L187.39208552241325,128.23969984724485L187.4065280723572,132.21075954861152L187.44985572218897,134.1007499242504L187.69537907123566,140.43317488840546L187.73870672106744,137.87903421487744L187.75314927101135,134.69184101485257L187.81091947078704,126.13789273110338L187.85424712061882,132.66628138298378L188.02755771994592,138.97044341159227L188.6197022676468,133.58289619435806L188.86522561669352,136.86416355824412L188.9807660162449,133.2622201372036L189.12519151568415,135.3947116329232L189.2262893652916,132.5405873420882L189.32738721489906,127.76199983196513L189.5873531138897,132.11694547753967L189.65956586360932,140.73381702023573L190.04951471209526,149.34259545228986L190.19394021153448,144.61022155238092L190.3672508108616,146.389840044149L190.4972337603569,138.51750563839167L190.62721670985223,132.6136907226389L190.78608475923537,133.3982849989137L190.9593953585625,144.43410634978252L190.98828045845033,139.25425892754544L191.26268890738487,143.2377555720758L191.45044205665587,147.3111531444044L191.62375265598297,152.18583996483807L191.66708030581472,145.97372551199595L191.811505805254,144.23406913853808L191.85483345508575,144.54436313966582L191.8837185549736,142.03327743360336L192.3458801531792,146.02036915622804L192.6058460521698,150.21365531189696L192.7358290016651,141.91858980888205L192.952467250824,142.21567542894917L192.9669098007679,134.52628580475297L193.18354804992674,132.20837657113668L193.60238199830056,134.26620304127752L193.61682454824447,141.05974607331947L193.96344574689866,135.52783057235743L193.9923308467865,128.7970805748264L194.5267051947117,139.1904043027405L194.5989179444313,136.23234430902488L194.81555619359017,138.84874102561815L194.87332639336586,138.31086388296L195.10440719246864,127.30226931533821L195.30660289168358,131.41838924290778L195.86986233949662,136.02186108877603L196.01428783893584,135.72691240688567L196.10094313859938,139.29407013874507L196.1587133383751,128.16179801788687L196.4620068871975,128.7871794116451L197.02526633501054,131.88440772028162L197.21301948428152,141.36829366146878L197.2996747839451,145.08459422671777L197.50187048316002,148.78961619927082L197.54519813299177,148.7617446855059L197.83404913187024,145.98966189237586L198.2817681801319,142.9085946856913L198.38286602973938,141.9673414131839L199.2494190263748,143.50806801951762L199.50938492536545,146.72820157719786L199.61048277497292,142.75411440306183L199.79823592424393,140.74029143087543L199.92821887373927,140.9330541310611L199.9571039736271,139.44652269996732L200.1881847727299,138.38265489777638L200.27484007239343,138.19222065910242L200.47703577160834,141.5580331942218L200.6359038209915,135.93378251984518L201.1702781689167,141.79050018223268L202.57120551347734,144.29048741747226L202.93226926207544,141.40835513902553L202.99003946185113,141.90592372616803L203.2788904607296,140.43356052628133L203.74105205893517,143.2051288005614L203.92880520820617,143.71810562700975L204.4920646560192,145.326759180822L204.723145455122,143.8276192593265L204.83868585467337,140.88239828302835L205.01199645400047,142.29363992401167L205.53192825198175,141.38753506076552L205.71968140125276,141.0823532821818L205.7341239511967,136.666891140366L205.77745160102845,137.2406123494723L206.0085324001312,134.33648943360564L206.06630259990692,129.8866484443227L206.1240727996826,137.21866978270097L206.22517064929008,136.32217309971284L206.28294084906577,144.584094397345L206.34071104884148,137.74367952616154L206.6440045976639,131.56992630717838L206.93285559654237,139.04240959958432L207.04839599609375,140.34609715613158L207.13505129575728,141.9445619151984L207.58277034401894,146.45331800523087L207.78496604323388,145.98569462485312L207.9149489927292,145.3588783186956L208.2326850914955,142.9525999429463L208.2904552912712,148.69086084832767L208.53597864031792,149.14315611584624L208.6370764899254,152.76685052623765L208.69484668970108,151.19858399978412L208.9403700387478,154.01913185370668L209.34476143717765,148.20746962357717L209.4314167368412,144.54184048065832L209.63361243605613,143.7199677817035L209.6769400858879,140.89942992426626L210.5723781824112,141.59450551749813L210.60126328229904,145.69251399627612L211.0634248805046,144.25839069039475L211.13563763022424,147.54207218049893L211.23673547983168,140.8469274039077L211.30894822955133,147.21363271011884L211.52558647871015,140.52887159560686L211.71333962798118,142.35231452957788L211.88665022730828,142.94007270493108L212.05996082663535,142.79143217109342L212.11773102641104,148.6626864606287L212.78208832383157,147.26442788086092L213.0998244225979,151.21975204485878L213.12870952248574,152.63826746920236L213.2442499220371,147.97092315892527L213.30202012181283,146.50913680767954L213.50421582102774,148.94768040366958L213.73529662013053,142.36930338297333L213.82195191979406,143.09906746912293L213.9374923193455,140.30500796253446L214.12524546861647,141.95033158619742L214.34188371777535,143.5109853227461L214.5440794169903,140.08702613837366L214.6885049164295,141.45478761007027L214.77516021609307,144.46138686881804L214.80404531598091,138.0964377286111L215.06401121497154,139.17748766830755L215.35286221385005,145.50972949115126L215.56950046300886,146.0549792279695L217.38926175594332,140.88528701633766L218.0536190533638,149.6602366350073L218.06806160330774,149.2308426856458L218.2846998524666,154.9802363258623L218.4146828019619,147.94807402100525L218.87684440016747,144.84179640987531L219.10792519927023,146.74099275214752L219.4978740477562,151.8312672585771L219.5556442475319,144.54877013069245L219.61341444730758,139.44305228237252L219.70006974697114,136.16380287901146L219.74339739680292,137.19386684422557L220.0322483956814,140.43288031251802L220.50885254383087,145.190850884374L221.21653749108316,144.90350274450435L221.23098004102707,145.072350939555L221.3754055404663,144.4438536760887L221.40429064035413,148.1864967902562L221.6064863395691,146.0586080330347L221.70758418917654,132.25425842524976L222.28528618693352,141.39691309996851L222.31417128682136,143.96433211664754L222.41526913642883,149.44449194894847L222.47303933620452,145.3786109739634L222.54525208592415,143.6937606702185L222.574137185812,145.83247224290318L222.92075838446618,141.28934895514786L222.94964348435403,142.79229799735725L222.9929711341858,146.02210144223943L223.1229540836811,149.2575095364587L223.2240519332886,139.3725690065038L223.25293703317644,139.21101586368496L223.39736253261566,145.77350137584997L224.8705026268959,150.49148621089353L225.37599187493325,142.52064442597091L225.86703857302666,146.46883955255896L226.28587252140045,152.67827306504267L226.35808527112005,153.4141072544859L226.4880682206154,154.30864109187928L226.57472352027892,151.00848280567303L226.8635745191574,151.35499366137174L226.87801706910133,150.2336305562952L227.44127651691437,153.09971111928286L227.65791476607322,154.59424404032436L227.84566791534422,159.0849688777398L227.8601104652882,157.9372705223744L228.82776131153108,150.14288364887787L228.84220386147499,153.23321844907696L229.20326761007308,154.56394649153708L229.39102075934412,153.81600154712123L229.91095255732537,150.26749176214614L230.66196515440942,153.612026559461L230.77750555396082,153.08141590310242L230.79194810390473,150.05293367334178L231.6296160006523,147.95222693528132L231.93290954947474,151.3803690393629L232.00512229919434,154.04569109793616L232.8139050960541,157.4555624888344L233.30495179414748,154.97169102652697L233.37716454386708,147.99131674481177L234.28704519033434,147.11762970166424L234.35925794005394,144.3409429042166L234.60478128910066,152.02220581987584L234.67699403882025,151.64350106101725L234.72032168865204,155.9211465077562L234.90807483792307,152.61223217740525L235.02361523747444,153.52961672408634L235.1680407369137,153.94280627211975L235.31246623635292,149.5679315332522L235.3702364361286,150.91001244490033L235.81795548439027,154.1443732887061L236.10680648326874,156.5454335496012L236.72783613085747,157.46421368976272L236.814491430521,155.9162010189428L236.8722616302967,152.86879164719232L236.9733594799042,156.46631741159055L237.17555517911913,157.10720357216826L237.27665302872657,153.22222225134274L237.47884872794154,152.63182241194795L238.5620399737358,150.70859218746708L238.7353505730629,153.8733184369789L239.1541845214367,150.8930187044481L239.22639727115632,151.8276467479531L239.32749512076379,149.2641050722164L239.3419376707077,153.1020725176169L239.65967376947404,150.80602041919158L239.67411631941795,157.11128137767454L239.93408221840858,156.68337302500242L240.3095885169506,156.46764137996547L240.42512891650202,150.95197786205546L240.43957146644593,152.53704808872226L240.64176716566084,154.71323655253988L240.7139799153805,159.5099093057986L240.82952031493187,159.48800925010886L241.34945211291313,155.23677642647186L241.40722231268882,152.1778428557624L241.4505499625206,157.76603679694958L241.55164781212807,162.72397165011378L242.62039650797843,158.8027203162898L242.73593690752983,155.00668704996866L243.11144320607187,153.86200071077275L243.50139205455778,158.66637208648459L243.9779962027073,152.30430722824252L244.18019190192223,154.461815791497L244.42571525096892,154.5007783614963L244.72900879979133,154.30345979825393L244.93120449900627,153.1068374931478L245.176727848053,154.09296679621303L245.20561294794084,158.72823356783132L245.37892354726793,149.06342675218337L245.6677745461464,148.68544801022045L245.88441279530525,151.78203691394256L246.88094874143601,146.7249803603684L247.27089758992196,150.90368259259725L247.40088053941727,155.44103862994655L247.5453060388565,160.1725682736784L247.60307623863218,159.1342947272652L247.76194428801537,155.75923130413517L247.9641399872303,156.72800732747092L248.33964628577232,159.5444475252946L248.397416485548,152.02387362451532L249.350624781847,152.27325659405864L249.4661651813984,153.4352859696723L249.49505028128624,147.86244370935034L249.95721187949178,140.84397304523964L251.47367962360383,148.48626557784934L251.6469902229309,152.32278337279072L251.99361142158506,153.5277885967667L252.1813645708561,154.3268901195776L252.41244536995887,157.98025205447448L252.47021556973456,155.6695027810275L252.5424283194542,153.2772017492711L252.5568708693981,157.13887796730222L252.57131341934203,155.2675890034395L252.62908361911775,160.45575414227136L252.6579687190056,162.22717660638185L252.9757048177719,161.67107998633398L253.12013031721114,163.98944007211867L253.22122816681863,163.04113130206758L253.5534068155289,162.5311600168965L254.04445351362227,158.11780445636785L254.20332156300546,159.6181503290216L254.21776411294937,159.6709009766976L254.47773001194,163.1520395743413L254.54994276165962,158.0282985619607L254.75213846087456,155.25666900482133L254.89656396031378,152.56501567572622L254.96877671003344,154.6318760528141L254.99766180992128,155.63776876908358L255.04098945975304,152.87389681698264L255.22874260902407,154.0690206884785L255.2576277089119,156.05185050043892L255.41649575829504,157.27385786627022" fill="none"></path></g></g></g></g><g opacity="0.2"><g><g><g><path style="fill: none;" stroke="rgb(255, 112, 67)" stroke-width="2px" d="M30.170486832857133,-3.8061320372282275L30.56043568134308,1.0423107876384243L30.574878231287002,1.1028742182283207L30.719303730726242,0.5899376659352207L30.805959030389783,0.13574562028770742L31.094810029268263,5.48681776176309L31.22479297876358,0.3268000019928916L31.600299277305602,4.112923875833811L31.67251202702522,-2.430015022033679L32.10578852534294,9.035673112202858L32.16355872511864,5.423694364140461L32.264656574726104,2.546965094896958L32.293541674613955,6.874993569032821L32.36575442433357,9.77617726019417L32.39463952422142,0.48753898462637935L32.59683522343636,8.769032335478922L32.94345642209053,11.702013511888795L32.95789897203445,-2.137774574982533L33.116767021417616,2.5338284219658895L33.23230742096901,1.198940349508856L33.391175470352174,-3.1518583577075177L33.60781371951103,4.623704666415138L33.85333706855774,2.6684961613977105L33.92554981827736,3.3570599256461797L34.0122051179409,8.059045689219776L34.142188067436216,7.362599921212677L34.17107316732407,3.1811632434768438L34.45992416620255,7.302036490622781L34.86431556463241,7.182526450726808L34.878758114576335,6.126540049729382L34.95097086429596,10.561952404132539L35.64421326160431,9.726662108377067L35.904179160594936,10.550499920038787L35.96194936037064,13.328400988308571L36.669634307622914,7.791327031639954L36.684076857566836,9.572053573111415L36.756289607286455,12.332775915240571L36.98737040638924,13.603732179433056L37.43508945465088,10.878916743315498L37.55062985420227,8.22429829793728L37.88280850291252,15.183703411496394L38.258314801454546,7.494707693611785L38.76380404949189,15.621323038984709L38.77824659943581,11.766484260581278L39.15375289797783,4.797580321979694L39.38483369708061,18.020281618858288L39.39927624702453,13.936393158579817L39.84699529528618,17.67226083751521L40.17917394399643,12.558457219440978L40.208059043884276,9.031092118565365L40.49691004276276,19.717809231766296L40.88685889124871,11.712859688001117L40.944629091024396,11.335870858656195L40.97351419091225,13.517232240748486L41.219037539958954,27.279008700675323L41.34902048945427,11.475995369920925L41.536773638725286,29.762850397949652L41.55121618866921,18.269204729013662L41.84006718754769,25.936575462227125L41.85450973749161,23.068806077598136L42.35999898552895,25.290520624232528L42.37444153547287,17.17522302784636L42.47553938508033,23.36616645871473L42.77883293390274,2.264897148423188L43.39986258149147,32.072008029017525L43.52984553098678,21.575132681558898L43.64538593053818,28.644751112632008L43.73204123020172,23.349863510769495L44.33862832784653,18.59465737993668L44.65636442661285,34.22251507161019L44.91633032560348,40.50467416990759L44.974100525379185,18.05511064401398L45.36404937386513,26.83768385774493L45.595130172967906,26.089971381529896L45.69622802257538,41.23096376411195L46.57722356915474,26.135713950351427L46.736091618537905,18.569327179823457L46.75053416848183,8.250167438478456L47.183810666799545,32.56709217963507L47.212695766687396,34.74353573032241L47.29935106635094,19.256678328109047L47.41489146590233,37.36669352821954L48.26700191259384,17.597819690905823L48.671393311023714,35.954602239459916L48.772491160631176,26.817473591697134L49.03245705962181,49.07207541778297L49.37907825827598,34.76556492031449L49.48017610788346,30.935045828721915L49.566831407547,20.62868592254054L49.754584556818,34.59323871848028L50.04343555569648,48.74305228652483L50.072320655584335,33.87799740304871L50.70779285311699,41.51815164465114L50.82333325266838,62.676077067430015L50.924431102275854,50.873888003497626L50.98220130205154,42.50973466450961L51.184397001266476,41.08679719963766L51.299937400817875,39.868926567597384L51.81986919879913,56.583961837535384L52.07983509778976,34.234843333899335L52.38312864661217,27.307707278463198L52.78752004504204,52.094453337677635L53.01860084414482,44.350350961036014L53.061928493976595,59.9047780194025L53.10525614380837,49.67642974016562L53.26412419319153,54.95885434463199L53.81294109106064,36.78046107772644L54.10179208993912,40.12701166502774L54.72282173752785,39.55836214599623L55.0550003862381,31.788794834134393L55.60381728410721,50.05887534134345L55.96488103270531,50.630825870496125L56.138191632032395,51.31763807835378L56.16707673192025,40.74463739544845L56.55702558040619,60.82090937934919L56.975859528779985,45.104732825046824L57.20694032788277,27.791338944986993L57.322480727434154,35.4960986703889L57.46690622687339,55.000689595350934L57.553561526536946,46.629193193032194L57.7701997756958,50.79830160847888L57.8279699754715,70.56616493249021L58.34790177345276,41.623447130760184L58.39122942328453,74.9444496015316L59.07002927064895,54.603962072832644L59.12779947042465,40.285392783288984L59.402207919359206,35.04466869443459L59.4599781191349,35.91034175681526L59.589961068630224,43.19789422343712L60.42762896537781,50.19394728609623L60.45651406526566,21.97314018759352L60.83202036380768,45.536693578041735L61.13531391263008,40.385837805546544L61.164199012517926,67.19974091690855L61.2075266623497,45.41650986261084L61.366394711732866,54.161828819260336L61.42416491150856,48.5698503064952L61.438607461452484,66.81022172261402L61.55414786100388,65.6374199838603L61.82855630993843,61.00158915781648L61.8718839597702,55.987691621571855L61.972981809377664,50.120449285235736L62.088522208929064,51.97076650946511L62.464028507471085,33.08683285483093L62.50735615730286,77.49498517676366L62.5940114569664,51.207424760839785L63.17171345472336,43.82811768636094L63.47500700354576,68.0535572898745L64.18269195079803,53.71396932364115L64.2837898004055,81.46946873017004L64.42821529984474,43.434152233535855L64.81816414833068,62.236099575569455L65.02035984754562,53.87875035948417L65.16478534698486,58.19808841921949L65.32365339636803,35.018327981018956L65.45363634586334,45.817481540999154L65.64138949513436,58.21452610227169L65.81470009446144,45.56310165901087L66.06022344350815,58.698561974116444L66.32018934249878,55.389400379003575L66.34907444238662,54.31697629495392L66.36351699233056,37.71788058457679L66.46461484193802,37.65913607793118L66.95566154003143,54.88555844643196L67.15785723924637,68.77243645319467L67.27339763879776,71.42476440175415L67.37449548840523,74.32116499661751L67.4755933380127,68.43061348677293L67.51892098784447,84.02229480222087L67.85109963655472,39.91399546088397L68.25549103498459,63.98435495625745L68.5010143840313,64.80832750302616L69.22314188122749,53.008092098145056L69.32423973083496,58.88341854090032L69.55532052993775,71.61265250844517L69.65641837954522,47.40129272361156L69.67086092948914,51.64686331227239L69.7141885793209,66.75989816015499L69.80084387898445,54.68864308757293L70.01748212814331,44.64023354371494L70.08969487786293,62.31761431529557L70.16190762758255,56.54327183522582L70.23412037730218,64.89011171296625L70.29189057707787,72.19410186264031L70.30633312702179,66.77330430330002L70.63851177573204,53.49455320191555L70.73960962533951,71.08233512735097L70.75405217528343,55.076006520155715L70.76849472522736,53.43075612875799L70.94180532455445,65.21529489367532L71.37508182287216,54.23653943608369L71.5195073223114,59.07999706199189L71.62060517191887,83.13297572856428L71.6928179216385,71.17328132456606L72.14053696990013,77.55588544512102L73.19484311580658,56.79960537626539L73.23817076563834,47.44312797433048L73.51257921457291,65.35649728579591L73.80143021345138,47.209766769031916L73.85920041322707,79.47552388189433L74.32136201143264,86.52190050701248L74.45134496092795,63.709360602900404L74.52355771064758,43.1932458622461L74.66798321008683,73.45508772891588L74.85573635935783,66.209101042799L74.98571930885315,51.72285391261212L75.36122560739518,72.00486640487944L75.52009365677834,70.6799487303393L75.56342130661011,73.39290747704217L75.88115740537643,77.44836682974673L76.11223820447923,60.05177402112349L76.21333605408668,56.40314732396109L76.80548060178758,82.76400363808497L77.07988905072212,63.4634690326522L77.23875710010529,56.96088329932681L77.44095279932023,65.95148751824308L77.58537829875947,78.13969266368841L77.61426339864731,82.30920528445603L77.8453441977501,81.98435894151444L77.90311439752578,62.39347018052831L77.9175569474697,46.03763870581315L78.42304619550706,73.60834891311168L78.72633974432945,80.1970977473542L78.97186309337616,95.94284865763984L79.20294389247894,70.18270881800998L79.70843314051628,63.17203699624298L80.0839394390583,65.2043813500095L80.30057768821717,72.1117113447188L80.97937753558159,88.06192277985465L81.06603283524514,70.18863716271736L81.21045833468438,69.86055717720811L81.51375188350677,64.0123124909569L81.57152208328246,62.8937416327648L81.61484973311426,82.91369434194567L81.99035603165626,65.31041787920694L82.27920703053474,81.90877254649567L82.56805802941322,88.34479913697032L82.75581117868423,84.2430582750163L83.24685787677765,72.99382209015167L83.34795572638511,65.44319932714097L83.36239827632905,78.37824117060592L83.6945769250393,97.15438673965181L84.33004912257194,79.79983128440799L84.47447462201119,85.8774624903017L84.51780227184297,71.67335067414206L84.7199979710579,82.24621662194039L85.54322331786156,85.20681849528228L85.58655096769333,70.76752654987976L85.61543606758117,69.0529549459381L85.6298786175251,79.28258320869136L86.4675465142727,77.39406858163164L86.58308691382409,95.9342256107928L86.62641456365586,75.76269590625344L87.23300166130066,62.12076632399004L87.76737600922584,97.3288687031978L87.81070365905761,54.464309134442374L88.04178445816041,70.69079490645163L88.31619290709496,81.20417530451596L88.4606184065342,86.98417665907908L88.72058430552482,96.5370304794451L89.35605650305749,72.8107844473121L89.70267770171165,59.63187206020376L90.09262655019761,51.09114836351145L90.208166949749,65.76016366632393L90.94473699688912,64.86020051921551L91.03139229655265,68.40818009145988L91.24803054571152,71.26402541912066L91.40689859509469,54.149365821864194L91.42134114503861,62.82637407927214L91.53688154459,92.35229279158813L92.57674514055252,75.9465419597349L92.79338338971138,106.48027927230106L92.8078259396553,98.12306479132275L92.88003868937493,79.4848879718298L93.18333223819732,78.22727048322886L93.38552793741225,81.57853679927467L93.7032640361786,76.30001951291086L93.71770658612252,96.85406218618155L94.45427663326264,68.77270592340864L94.58425958275795,80.32698239048804L94.67091488242149,104.6857423823636L94.68535743236541,68.26576508337638L94.69979998230933,52.776549816790805L95.23417433023452,78.40175244677485L95.47969767928124,78.74391225096406L95.58079552888871,87.66371317115954L95.73966357827187,42.67640199185044L96.15849752664565,107.58638713309702L96.663986774683,56.65745983839588L96.75064207434654,79.53143895129324L97.18391857266427,83.72163341098312L97.2705738723278,72.16594222528039L97.50165467143059,69.22265381318613L97.58830997109413,79.18112767313141L97.76162057042121,86.95062761743975L97.96381626963615,79.61019162132615L98.02158646941184,104.85483494163017L98.35376511812211,87.70918626976709L98.46930551767349,76.70341642322492L98.83036926627159,100.68599599639748L99.00367986559868,87.2384218059604L99.321415964365,80.47896359116748L99.36474361419677,76.67572835873943L99.65359461307524,79.83115719678207L99.94244561195373,85.16269274774459L100.49126250982285,98.37124685838972L100.54903270959855,93.79409317143799L100.9534241080284,89.10834298825611L101.4300282561779,65.83251641877504L101.50224100589752,92.32992676382855L101.68999415516852,76.88968770863212L101.77664945483208,67.0278189203953L102.36879400253295,87.58017740482865L102.67208755135536,80.84759884387933L103.2353469991684,97.47640364534672L103.24978954911232,94.08363891634946L103.5964107477665,86.41222612992641L103.65418094754219,100.22675138423801L104.37630844473838,83.33480891882829L104.47740629434587,101.43519055878932L105.21397634148599,105.02493801419914L105.25730399131776,77.83950284532511L105.37284439086915,70.5507377627404L105.48838479042054,101.09720754291666L105.51726989030838,78.87608739091667L106.10941443800927,93.15389931059727L106.18162718772888,88.36271890619938L106.22495483756066,92.50070351193244L106.29716758728027,85.06986025903171L106.94708233475686,79.28514317572407L107.32258863329888,65.50389749283787L107.49589923262596,80.37454388325386L107.55366943240166,84.92717578073425L107.82807788133621,84.46806590368178L108.00138848066331,107.06011180521236L108.03027358055115,63.817754996470114L108.14581398010255,108.21620639069988L108.52132027864455,100.83595617047212L108.57909047842026,86.37988970424993L108.63686067819594,79.51877385123663L108.69463087797166,93.94385124285219L108.8390563774109,94.9109124732393L108.91126912713051,101.06460164702622L109.61895407438278,89.398495041149L109.77782212376594,80.26722737054007L109.79226467370987,76.11374822750366L109.96557527303695,84.83717272926805L109.9944603729248,73.89816412823711L110.05223057270051,86.25182398506041L110.19665607213975,91.19774765983092L110.42773687124252,92.23945213948792L110.90434101939202,97.34611479689192L110.91878356933594,92.99956024554558L110.99099631905555,78.01694898122477L111.12097926855087,96.1166569456509L111.20763456821442,88.08462564538166L111.22207711815834,96.16226477936544L111.3809451675415,70.71625984167184L111.74200891613961,78.27584248929708L111.88643441557885,111.84428598404702L112.63744701266289,107.0789073526368L112.65188956260681,91.5128930750696L112.99851076126099,108.49928485047604L113.01295331120491,99.98490186719937L113.22959156036377,91.70819161264481L113.5473276591301,90.11636369116678L113.87950630784034,100.72587758806512L114.12502965688705,83.23753017158487L114.55830615520478,94.99081039168158L114.60163380503654,107.0184786571539L114.83271460413933,79.71393765370485L114.86159970402717,77.83997441819957L115.12156560301781,87.9283329212787L115.43930170178413,111.54813821889329L115.97367604970933,104.23451450906978L116.13254409909248,93.0773697698296L116.2047568488121,83.08972575922198L116.46472274780274,102.87746251151367L116.66691844701766,93.34529053006992L116.95576944589614,91.995514228291L117.9523053920269,95.78985694365801L118.53000738978386,96.84025183771556L118.63110523939133,113.79531770074792L118.68887543916702,105.93439998635003L118.74664563894272,89.19080087373112L119.07882428765298,100.304965113843L119.12215193748474,104.74010799803219L119.2810199868679,86.25458605475359L119.35323273658753,114.77066514021462L119.642083735466,122.2628128667937L119.65652628540992,112.91320695531505L119.75762413501741,103.9728589313043L119.91649218440057,101.0765257039944L120.0609176838398,72.8346325612485L120.13313043355942,83.32510799112532L120.27755593299865,99.54674329928312L120.39309633255004,95.40188720309379L120.49419418215753,102.90602635419455L121.11522382974624,82.86909702153352L122.08287467598916,104.24704487401942L122.12620232582093,104.47771137717828L122.79055962324142,76.92593145241116L122.97831277251244,114.12696816659226L123.00719787240028,90.28053841902837L123.0216404223442,107.32446208511755L123.33937652111054,107.41069255358815L123.51268712043762,91.82541115572204L123.7437679195404,113.62952615160248L123.96040616869925,97.85069777255194L123.98929126858712,119.92360930686809L124.01817636847497,106.85645969100406L124.1626018679142,95.70948745234128L124.49478051662444,93.03358086005937L124.59587836623191,121.31575979979388L124.79807406544685,88.7064955316724L125.02915486454964,97.61875128587673L125.21690801382064,82.82557758197726L125.34689096331597,113.26520242231419L125.44798881292344,105.06535854629473L125.50575901269913,97.13060599326892L125.910150411129,125.45057813051281L125.9823631608486,97.08149504677277L126.64672045826912,86.67469011833381L127.20997990608215,101.1629582751255L127.33996285557747,110.78850168571006L127.45550325512886,83.7768748048471L127.55660110473633,98.12528792058802L128.06209035277368,123.31078252892547L128.19207330226897,104.37383060969259L128.22095840215684,119.90063697112708L128.40871155142784,96.74964247826793L128.58202215075494,103.65818508894009L128.85643059968947,82.48355251289505L128.91420079946516,125.92019734591014L128.95752844929694,99.15998617468176L129.05862629890441,85.4138389871652L129.56411554694176,91.28572968469234L129.80963889598848,102.90070431746864L130.05516224503518,122.05680288821313L130.30068559408187,98.43133871610516L130.58953659296037,91.65281548367383L130.61842169284822,102.72743496988551L130.9217152416706,108.42928996239715L130.93615779161453,103.4633581242393L131.06614074110985,97.19871458985L131.08058329105376,108.83464053176249L131.54274488925935,125.52784871436887L131.60051508903504,89.23856446915744L131.68717038869858,117.58285629321216L131.93269373774527,125.11528981677984L132.14933198690414,88.22353754068354L132.87145948410034,100.60070867367577L133.07365518331528,116.01777329047073L133.2180806827545,145.1683873622791L133.29029343247416,111.2965204065982L133.40583383202554,100.47203664650479L133.62247208118438,98.82207052636258L134.31571447849274,118.2212312301086L134.4168123281002,108.61374232386007L134.53235272765158,122.13407347206922L134.56123782753943,93.93543029866561L134.61900802731515,108.22381892424454L134.74899097681046,100.47284505714669L135.25448022484778,111.14824442136086L135.26892277479172,95.71932311515121L135.39890572428703,93.13941528659635L135.54333122372628,101.75882428576807L135.6877567231655,105.08799404426827L135.78885457277298,93.927144089586L136.06326302170754,115.36538590244783L136.14991832137108,123.54643423104281L136.48209697008133,114.70511651066627L136.5831948196888,111.69883943605637L136.66985011935233,95.47295997202855L136.7709479689598,108.66022593577L137.05979896783828,136.73444123787266L137.117569167614,117.80483238197047L137.305322316885,110.53829859203833L137.68082861542703,130.01708774401268L137.92635196447372,106.35450404993026L137.95523706436157,118.3671493509737L139.0673134100437,112.83317430176575L139.31283675909043,111.46561296586478L139.45726225852965,110.44479242779053L139.80388345718384,117.67312881489232L140.03496425628663,112.53028978126275L140.25160250544548,126.50831608790105L140.42491310477257,77.38025823316565L140.4393556547165,101.0262021415354L140.52601095438004,114.60756829320889L140.58378115415573,118.46894172430112L140.80041940331458,107.7480692614794L140.81486195325851,119.28597541306007L141.0315002024174,111.16980203847851L141.52254690051078,119.2756681773757L141.62364475011825,119.16680221093156L141.78251279950143,84.73201197826603L142.54796794652938,134.30927667969044L142.69239344596863,123.37309751590618L142.77904874563217,114.99715485505695L142.7934912955761,102.66895993345389L143.18344014406205,129.06754207753366L143.50117624282836,123.54656896614978L143.5300613427162,111.07562219869578L143.5878315424919,122.28612204030213L143.67448684215546,117.40055969346105L143.79002724170687,111.99552614163804L144.1222058904171,110.99585901536048L144.17997609019278,111.5425467119534L144.51215473890304,111.073735907198L144.52659728884697,119.6692967924333L144.64213768839838,113.30225457673515L144.69990788817407,134.99763834127845L144.7865631878376,128.51256817186112L145.04652908682823,109.51296442788006L145.16206948637964,132.4844243906813L145.277609885931,120.30342757345971L145.36426518559455,92.20913674041623L145.4942481350899,98.20821737893749L145.7108863842487,116.2500566149134L146.37524368166925,108.69869280881431L146.44745643138884,120.93156264222526L146.50522663116453,119.80753501220025L146.62076703071597,112.48394090445981L146.67853723049166,126.11428326752247L146.7796350800991,107.02636066091253L147.1406988286972,114.53817971311145L147.1984690284729,101.16551824215821L147.60286042690277,117.61067909280465L148.00725182533265,104.17206478698208L148.42608577370643,121.92098990037192L148.51274107336997,132.27113871632355L148.80159207224847,137.54568131703127L148.888247371912,115.52956063030942L149.04711542129516,95.55871886762469L149.40817916989326,105.13238926201993L149.65370251893998,111.03028383519523L149.89922586798667,135.55180383630903L150.15919176697733,104.74933735286066L150.72245121479037,118.2706790143722L150.79466396450997,105.45999767465474L151.40125106215478,109.63267657043653L151.9067403101921,134.2087642898794L152.06560835957526,111.1076217866048L152.2678040587902,116.37637077771214L152.48444230794908,110.51876200152546L152.7444082069397,98.60797644136292L152.75885075688365,124.88442121096051L152.87439115643502,135.79594385016645L152.90327625632287,100.47527028907243L152.9899315559864,128.35277233497655L153.37988040447235,130.77086330004204L153.639846303463,119.2500685070485L153.79871435284613,103.04729611386864L153.87092710256576,127.4087508078839L153.91425475239754,118.05597862139112L154.05868025183676,120.69833617203366L154.1886632013321,115.41099373616234L155.06965874791146,129.24370822991696L155.17075659751893,122.416006683436L155.41627994656562,130.60062549236608L155.9362117445469,111.47497705580025L156.09507979393004,109.97281534802096L156.7449945414066,125.5276466117084L157.23604123950005,132.3459840682539L157.35158163905143,113.22013352902758L157.7993006873131,106.68851238014685L157.85707088708878,127.59852520607274L158.31923248529435,131.86821337888395L158.5358707344532,134.76185190405414L158.63696858406067,106.68110194926265L158.6514111340046,137.06562013084258L158.6658536839485,128.59300503073138L158.8969344830513,129.47498104105725L159.53240668058396,115.38364250944431L159.6912747299671,128.4955241808275L160.1678788781166,130.07495647246287L160.31230437755585,142.51289313870546L160.87556382536886,133.08379351410548L160.97666167497636,132.79162043460784L161.1788573741913,137.07195268087088L161.3810530734062,113.08950784280532L161.5543636727333,123.30566259486005L162.0887380206585,125.2286020417545L162.11762312054634,109.82042994202055L162.2187209701538,121.32350706844554L162.26204861998556,123.76834295224762L162.3920315694809,101.65810979329655L162.72421021819116,129.81525455374867L163.0563888669014,131.79471537802345L163.46078026533127,132.2039058979379L163.60520576477052,110.73561815621832L164.00959716320037,124.14337812254126L164.31289071202278,106.30492153055965L164.55841406106947,138.01085427389808L164.60174171090125,130.80811755712347L164.6306268107891,126.24167531117709L164.87615015983582,137.90683877130542L164.90503525972366,135.78004510754218L165.06390330910682,134.39988603913807L165.5260649073124,113.74997933724734L165.77158825635908,149.62677205242326L165.90157120585442,87.72346819110754L165.9593414056301,126.44802212752512L166.11820945501327,138.66607109916768L166.43594555377962,132.78394053350968L166.6236987030506,117.92178245483373L167.0858603012562,138.6969928062208L167.2302858006954,120.5914912321943L167.4035964000225,130.92055400390274L167.4613665997982,136.61614381393957L167.54802189946173,118.17326553202184L167.59134954929354,110.37513437747913L167.73577504873276,112.34017854530649L167.89464309811592,135.32261941932703L168.0101834976673,104.73566173950167L168.02462604761124,144.69270506706744L168.05351114749908,126.34286137652308L168.44345999598502,141.62283302196047L168.61677059531212,125.55243787139369L168.71786844491956,133.04546137616816L169.06448964357378,135.2511424450713L169.18003004312516,112.0957690612351L169.2666853427887,105.33341404164202L169.87327244043348,137.0792283766481L170.46541698813436,131.86888705441888L170.76871053695677,110.51458521320893L171.2597572350502,133.00288508236082L171.3752976346016,137.48868836677647L171.47639548420906,121.20392966099607L171.7363613831997,121.91863203599968L171.99632728219032,129.22093799683643L172.53070163011552,134.92959711225086L172.5740292799473,118.7142269865679L172.90620792865755,120.48990096152738L173.09396107792853,126.17248883374015L173.1228461778164,123.42604841295142L173.26727167725562,127.58262646344846L173.4261397266388,111.9655475803338L173.44058227658272,129.9737704071169L173.4983524763584,133.19636469599172L173.59945032596588,124.99429769070701L173.65722052574156,139.2961598269845L173.77276092529297,127.40632557595819L173.88830132484435,137.0508666366277L174.07605447411538,132.48577174175117L174.4515607726574,135.08925821402846L174.48044587254523,130.3544644519039L175.08703297019005,129.44001728079456L175.14480316996574,121.94564642495024L175.73694771766665,129.9986290343557L176.22799441576004,145.6610462809709L176.28576461553573,130.49984363234108L176.38686246514322,120.72272322639802L176.5601730644703,155.23801768548728L177.0512197625637,154.8487679614067L177.08010486245155,136.7267613367745L177.19564526200296,119.25747893793269L177.4122835111618,124.36542157885305L177.4267260611057,117.102593004363L177.54226646065712,127.10822415175318L177.6433643102646,115.51952286483902L177.77334725975993,132.02255244393564L177.90333020925522,121.55531882001378L177.91777275919915,118.98437087607346L177.97554295897484,106.3439947115854L178.37993435740472,139.31151962918085L178.9143087053299,132.36417330769692L178.95763635516167,139.27460220986686L179.44868305325508,158.13731508515085L179.59310855269433,107.37781718748374L180.2430233001709,141.74234306185645L180.34412114977835,143.03997687723205L180.38744879961015,125.9746976966857L180.76295509815216,119.57895690319964L180.86405294775963,132.06560031061744L181.41286984562873,136.32565492327922L181.42731239557267,133.8095441678819L181.5284102451801,129.15646724814397L181.57173789501192,118.57497825349856L181.58618044495583,123.36689970098487L181.745048494339,127.94068501026194L181.97612929344177,141.01302192774492L182.19276754260065,137.1976605356882L183.24707368850707,139.28396629980233L183.29040133833882,140.094532703426L183.36261408805848,124.1136016638975L183.39149918794632,145.49666945044882L183.55036723732948,129.67317638343266L183.89698843598367,113.22350190670221L184.026971385479,112.71784105018634L184.24360963463783,129.88807887907424L184.30137983441352,134.4198942025254L185.15349028110504,126.99929081775554L185.16793283104897,137.72178010186107L185.18237538099288,138.18951302576062L185.29791578054426,139.59459808895699L186.5110899758339,138.5335591214476L186.66995802521706,132.813110684172L186.6988431251049,140.22448471411334L186.74217077493665,137.22838014008084L186.95880902409553,133.03845515060493L187.39208552241325,117.18552246271247L187.4065280723572,138.1673491006615L187.44985572218897,136.93573548770874L187.69537907123566,149.931812334638L187.73870672106744,134.04782320458543L187.75314927101135,129.91105121481525L187.81091947078704,113.30697030547964L187.85424712061882,142.45886436080437L188.02755771994592,148.42668645450505L188.6197022676468,125.50157536850674L188.86522561669352,141.78606460407318L188.9807660162449,127.85930500564282L189.12519151568415,138.59344887650258L189.2262893652916,128.25940090583572L189.32738721489906,120.59411856678054L189.5873531138897,138.64936394590148L189.65956586360932,153.65912433427985L190.04951471209526,162.25576310037104L190.19394021153448,137.51166070251747L190.3672508108616,149.0592677818011L190.4972337603569,126.70900402975568L190.62721670985223,123.75796834900976L190.78608475923537,134.57517641332598L190.9593953585625,160.9878383760857L190.98828045845033,131.48448779418976L191.26268890738487,149.21300053887134L191.45044205665587,153.42124950289727L191.62375265598297,159.4978701954886L191.66708030581472,136.65555383273278L191.811505805254,141.6245845783513L191.85483345508575,145.0098041413574L191.8837185549736,138.2666488745097L192.3458801531792,152.00100674016502L192.6058460521698,156.50358454540037L192.7358290016651,129.47599155435964L192.952467250824,142.6613038590498L192.9669098007679,122.9922013684587L193.18354804992674,128.73151272071226L193.60238199830056,137.35294274648876L193.61682454824447,151.25006062138237L193.96344574689866,127.2299573209144L193.9923308467865,118.70095557852983L194.5267051947117,154.78038989461166L194.5989179444313,131.7952543184514L194.81555619359017,142.7733361005081L194.87332639336586,137.50404816897282L195.10440719246864,110.78937746390548L195.30660289168358,137.59256913426216L195.86986233949662,142.92706885757835L196.01428783893584,135.28448938405018L196.10094313859938,144.64480673653415L196.1587133383751,111.46338983659953L196.4620068871975,129.72525150228248L197.02526633501054,136.53025018323643L197.21301948428152,155.59412257324948L197.2996747839451,150.65904507459126L197.50187048316002,154.34714915810036L197.54519813299177,148.71993741485858L197.83404913187024,141.83153770268072L198.2817681801319,138.28699387566448L198.38286602973938,140.5554615044228L199.2494190263748,145.8191579290182L199.50938492536545,151.55840191371826L199.61048277497292,136.7929836418578L199.79823592424393,137.71955697259583L199.92821887373927,141.22219818133962L199.9571039736271,137.21672555332663L200.1881847727299,136.78685319448996L200.27484007239343,137.90656930109145L200.47703577160834,146.60675199690087L200.6359038209915,127.49740650828025L201.1702781689167,150.57557667581386L202.57120551347734,148.04046827033162L202.93226926207544,137.08515672135545L202.99003946185113,142.6522766068818L203.2788904607296,138.22501572645123L203.74105205893517,147.3624812119815L203.92880520820617,144.4875708666823L204.4920646560192,147.7397395115404L204.723145455122,141.57890937708325L204.83868585467337,136.4645668185811L205.01199645400047,144.4105023854867L205.53192825198175,140.0283777658962L205.71968140125276,140.62458061430624L205.7341239511967,130.04369792764228L205.77745160102845,138.10119416313174L206.0085324001312,129.9803050598057L206.06630259990692,123.21188696039826L206.1240727996826,148.21670179026842L206.22517064929008,134.97742807523065L206.28294084906577,156.9769763437933L206.34071104884148,127.48305721938632L206.6440045976639,122.30929647870363L206.93285559654237,150.2511345381932L207.04839599609375,142.3016284909525L207.13505129575728,144.3422590537986L207.58277034401894,153.21645214027959L207.78496604323388,145.28425955428648L207.9149489927292,144.4186538594593L208.2326850914955,139.3431823793224L208.2904552912712,157.29825220639978L208.53597864031792,149.82159901712402L208.6370764899254,158.20239214182476L208.69484668970108,148.84618421010381L208.9403700387478,158.24995363459055L209.34476143717765,139.4899762783829L209.4314167368412,139.04339676628007L209.63361243605613,142.4871587332713L209.6769400858879,136.66862313811035L210.5723781824112,142.63711890734595L210.60126328229904,151.83952671444314L211.0634248805046,142.1072057315727L211.13563763022424,152.46759441565519L211.23673547983168,130.8042102390209L211.30894822955133,156.76369066943553L211.52558647871015,130.50172992383887L211.71333962798118,145.08747893053442L211.88665022730828,143.82170996796086L212.05996082663535,142.5684713703369L212.11773102641104,157.4695678949316L212.78208832383157,145.16704001120925L213.0998244225979,157.15273829085564L213.12870952248574,154.7660406057177L213.2442499220371,140.9699066935096L213.30202012181283,144.31645728081094L213.50421582102774,152.60549579765467L213.73529662013053,132.5017378519289L213.82195191979406,144.1937135983473L213.9374923193455,136.1139187026518L214.12524546861647,144.41831702169185L214.34188371777535,145.8519659275691L214.5440794169903,134.951087361815L214.6885049164295,143.5064298176152L214.77516021609307,148.9712857569397L214.80404531598091,128.54901401830065L215.06401121497154,140.79906257785223L215.35286221385005,155.00809222541685L215.56950046300886,146.87285383319687L217.38926175594332,133.13074869888987L218.0536190533638,162.82266106301176L218.06806160330774,148.58675176160358L218.2846998524666,163.60432678618707L218.4146828019619,137.39983056371966L218.87684440016747,140.18237999318043L219.10792519927023,149.5897872655558L219.4978740477562,159.46667901822147L219.5556442475319,133.62502443886552L219.61341444730758,131.7844755098926L219.70006974697114,131.2449287739699L219.74339739680292,138.73896279204672L220.0322483956814,145.2914005149567L220.50885254383087,152.32780674215792L221.21653749108316,144.47248053469994L221.23098004102707,145.32562323213097L221.3754055404663,143.5011077808893L221.40429064035413,153.80046146150744L221.6064863395691,142.86677489720242L221.70758418917654,111.54773401357232L222.28528618693352,155.11089511204665L222.31417128682136,147.81546064166614L222.41526913642883,157.66473169739984L222.47303933620452,139.2797895114858L222.54525208592415,141.1664852146012L222.574137185812,149.04053960193013L222.92075838446618,134.47466402351492L222.94964348435403,145.04672156067136L222.9929711341858,150.86680660956262L223.1229540836811,154.11062167778763L223.2240519332886,124.54515821157148L223.25293703317644,138.9686861494567L223.39736253261566,155.61722964409745L224.8705026268959,157.56846346345884L225.37599187493325,130.56438174858704L225.86703857302666,152.39113224244102L226.28587252140045,161.99242333376824L226.35808527112005,154.51785853865076L226.4880682206154,155.65044184796935L226.57472352027892,146.05824537636363L226.8635745191574,151.8747599449198L226.87801706910133,148.55158589868043L227.44127651691437,157.3988319637643L227.65791476607322,156.83604342188664L227.84566791534422,165.821056133863L227.8601104652882,156.21572298932625L228.82776131153108,138.45130333863307L228.84220386147499,157.8687206493756L229.20326761007308,156.5600385552272L229.39102075934412,152.69408413049752L229.91095255732537,144.94472708468348L230.66196515440942,158.6288287554333L230.77750555396082,152.28549991856454L230.79194810390473,145.51021032870085L231.6296160006523,144.80116682819062L231.93290954947474,156.5225821954853L232.00512229919434,158.04367418579605L232.8139050960541,162.57036957518176L233.30495179414748,151.24588383306582L233.37716454386708,137.52075532223898L234.28704519033434,145.807099136943L234.35925794005394,140.17591270804513L234.60478128910066,163.54410019336464L234.67699403882025,151.0754439227294L234.72032168865204,162.33761467786462L234.90807483792307,147.6488606818788L235.02361523747444,154.905693544108L235.1680407369137,154.56259059416988L235.31246623635292,143.0056194249508L235.3702364361286,152.92313381237255L235.81795548439027,158.99591455441478L236.10680648326874,160.14702394094382L236.72783613085747,158.84238390000502L236.814491430521,153.5941820127129L236.8722616302967,148.2976775895666L236.9733594799042,161.86260605818788L237.17555517911913,158.06853281303484L237.27665302872657,147.39475027010448L237.47884872794154,151.7462226528558L238.5620399737358,147.82374685074575L238.7353505730629,158.6204078112467L239.1541845214367,146.42256910565192L239.22639727115632,153.22958881321065L239.32749512076379,145.4187925586113L239.3419376707077,158.8590236857177L239.65967376947404,147.36194227155357L239.67411631941795,166.56917281539899L239.93408221840858,156.04151049599423L240.3095885169506,156.14404391241004L240.42512891650202,142.67848258519044L240.43957146644593,154.91465342872252L240.64176716566084,157.97751924826625L240.7139799153805,166.7049184356867L240.82952031493187,159.45515916657422L241.34945211291313,148.8599271910163L241.40722231268882,147.58944249969827L241.4505499625206,166.14832770873036L241.55164781212807,170.1608739298601L242.62039650797843,152.92084331555378L242.73593690752983,149.31263715048698L243.11144320607187,152.14497120197885L243.50139205455778,165.87292915005236L243.9779962027073,142.7612099408794L244.18019190192223,157.6980786363787L244.42571525096892,154.55922221649524L244.72900879979133,154.00748195339037L244.93120449900627,151.31190403548862L245.176727848053,155.57216075081087L245.20561294794084,165.68113372525877L245.37892354726793,134.56621652871144L245.6677745461464,148.11847989727613L245.88441279530525,156.42692026952574L246.88094874143601,139.1393955300071L247.27089758992196,157.17173594094055L247.40088053941727,162.2470726859705L247.5453060388565,167.26986273927614L247.60307623863218,157.57688440764542L247.76194428801537,150.69663616944018L247.9641399872303,158.18117136247457L248.33964628577232,163.76910782203012L248.397416485548,140.74301277334635L249.350624781847,152.6473310483736L249.4661651813984,155.17833003309278L249.49505028128624,139.50318031886746L249.95721187949178,130.3162670490736L251.47367962360383,159.94970437676383L251.6469902229309,158.07756006520285L251.99361142158506,155.33529643273067L252.1813645708561,155.52554240379396L252.41244536995887,163.46029495681978L252.47021556973456,152.20337887085697L252.5424283194542,149.6887502016365L252.5568708693981,162.9313922943489L252.57131341934203,152.46065555764545L252.62908361911775,168.23800185051914L252.6579687190056,164.8843103025476L252.9757048177719,160.83693505626215L253.12013031721114,167.46698020079566L253.22122816681863,161.61866814699096L253.5534068155289,161.76620308913988L254.04445351362227,151.49777111557486L254.20332156300546,161.86866913800222L254.21776411294937,159.7500269482116L254.47773001194,168.37374747080685L254.54994276165962,150.34268704338973L254.75213846087456,151.0992246691123L254.89656396031378,148.52753568208354L254.96877671003344,157.732166618446L254.99766180992128,157.1466078434878L255.04098945975304,148.7280888888312L255.22874260902407,155.86170649572233L255.2576277089119,159.02609521837948L255.41649575829504,159.10686891501717" fill="none"></path></g></g></g></g></g></g><g transform="translate(41, 176)" clip-path="url(#clip_1)"><clipPath id="clip_1"><rect width="288" height="23"></rect></clipPath><g><g><line x1="0" y1="0" x2="0" y2="5" style="visibility: inherit;" fill="rgb(0, 0, 0)" stroke="rgb(204, 204, 204)" stroke-width="1px"></line><line x1="28.8850998878479" y1="0" x2="28.8850998878479" y2="5" style="visibility: inherit;" fill="rgb(0, 0, 0)" stroke="rgb(204, 204, 204)" stroke-width="1px"></line><line x1="57.7701997756958" y1="0" x2="57.7701997756958" y2="5" style="visibility: inherit;" fill="rgb(0, 0, 0)" stroke="rgb(204, 204, 204)" stroke-width="1px"></line><line x1="86.6552996635437" y1="0" x2="86.6552996635437" y2="5" style="visibility: inherit;" fill="rgb(0, 0, 0)" stroke="rgb(204, 204, 204)" stroke-width="1px"></line><line x1="115.5403995513916" y1="0" x2="115.5403995513916" y2="5" style="visibility: inherit;" fill="rgb(0, 0, 0)" stroke="rgb(204, 204, 204)" stroke-width="1px"></line><line x1="144.4254994392395" y1="0" x2="144.4254994392395" y2="5" style="visibility: inherit;" fill="rgb(0, 0, 0)" stroke="rgb(204, 204, 204)" stroke-width="1px"></line><line x1="173.3105993270874" y1="0" x2="173.3105993270874" y2="5" style="visibility: inherit;" fill="rgb(0, 0, 0)" stroke="rgb(204, 204, 204)" stroke-width="1px"></line><line x1="202.1956992149353" y1="0" x2="202.1956992149353" y2="5" style="visibility: inherit;" fill="rgb(0, 0, 0)" stroke="rgb(204, 204, 204)" stroke-width="1px"></line><line x1="231.0807991027832" y1="0" x2="231.0807991027832" y2="5" style="visibility: inherit;" fill="rgb(0, 0, 0)" stroke="rgb(204, 204, 204)" stroke-width="1px"></line><line x1="259.9658989906311" y1="0" x2="259.9658989906311" y2="5" style="visibility: inherit;" fill="rgb(0, 0, 0)" stroke="rgb(204, 204, 204)" stroke-width="1px"></line><line x1="288.850998878479" y1="0" x2="288.850998878479" y2="5" style="visibility: inherit;" fill="rgb(0, 0, 0)" stroke="rgb(204, 204, 204)" stroke-width="1px"></line></g><g transform="translate(0, 8)"><text style="text-anchor: middle; visibility: hidden; font-family: Roboto, sans-serif; font-size: 12px; font-weight: 200;" x="0" y="0" dx="0em" dy="0.95em" fill="rgb(33, 33, 33)" stroke="none" stroke-width="1px">-2k</text><text style="text-anchor: middle; visibility: inherit; font-family: Roboto, sans-serif; font-size: 12px; font-weight: 200;" x="28.8850998878479" y="0" dx="0em" dy="0.95em" fill="rgb(33, 33, 33)" stroke="none" stroke-width="1px">0</text><text style="text-anchor: middle; visibility: inherit; font-family: Roboto, sans-serif; font-size: 12px; font-weight: 200;" x="57.7701997756958" y="0" dx="0em" dy="0.95em" fill="rgb(33, 33, 33)" stroke="none" stroke-width="1px">2k</text><text style="text-anchor: middle; visibility: inherit; font-family: Roboto, sans-serif; font-size: 12px; font-weight: 200;" x="86.6552996635437" y="0" dx="0em" dy="0.95em" fill="rgb(33, 33, 33)" stroke="none" stroke-width="1px">4k</text><text style="text-anchor: middle; visibility: inherit; font-family: Roboto, sans-serif; font-size: 12px; font-weight: 200;" x="115.5403995513916" y="0" dx="0em" dy="0.95em" fill="rgb(33, 33, 33)" stroke="none" stroke-width="1px">6k</text><text style="text-anchor: middle; visibility: inherit; font-family: Roboto, sans-serif; font-size: 12px; font-weight: 200;" x="144.4254994392395" y="0" dx="0em" dy="0.95em" fill="rgb(33, 33, 33)" stroke="none" stroke-width="1px">8k</text><text style="text-anchor: middle; visibility: inherit; font-family: Roboto, sans-serif; font-size: 12px; font-weight: 200;" x="173.3105993270874" y="0" dx="0em" dy="0.95em" fill="rgb(33, 33, 33)" stroke="none" stroke-width="1px">10k</text><text style="text-anchor: middle; visibility: inherit; font-family: Roboto, sans-serif; font-size: 12px; font-weight: 200;" x="202.1956992149353" y="0" dx="0em" dy="0.95em" fill="rgb(33, 33, 33)" stroke="none" stroke-width="1px">12k</text><text style="text-anchor: middle; visibility: inherit; font-family: Roboto, sans-serif; font-size: 12px; font-weight: 200;" x="231.0807991027832" y="0" dx="0em" dy="0.95em" fill="rgb(33, 33, 33)" stroke="none" stroke-width="1px">14k</text><text style="text-anchor: middle; visibility: inherit; font-family: Roboto, sans-serif; font-size: 12px; font-weight: 200;" x="259.9658989906311" y="0" dx="0em" dy="0.95em" fill="rgb(33, 33, 33)" stroke="none" stroke-width="1px">16k</text><text style="text-anchor: middle; visibility: hidden; font-family: Roboto, sans-serif; font-size: 12px; font-weight: 200;" x="288.850998878479" y="0" dx="0em" dy="0.95em" fill="rgb(33, 33, 33)" stroke="none" stroke-width="1px">18k</text></g><line x1="0" y1="0" x2="288.850998878479" y2="0" fill="rgb(0, 0, 0)" stroke="rgb(204, 204, 204)" stroke-width="1px"></line></g></g></g></g></svg>