<svg viewBox="0 0 330 200" xmlns="http://www.w3.org/2000/svg"><g><g><g><g><g><line x1="51.53200149536133" y1="176.5999994277954" x2="46.53200149536133" y2="176.5999994277954" style="visibility: inherit;" fill="rgb(0, 0, 0)" stroke="rgb(204, 204, 204)" stroke-width="1px"></line><line x1="51.53200149536133" y1="158.93999948501587" x2="46.53200149536133" y2="158.93999948501587" style="visibility: inherit;" fill="rgb(0, 0, 0)" stroke="rgb(204, 204, 204)" stroke-width="1px"></line><line x1="51.53200149536133" y1="141.27999954223634" x2="46.53200149536133" y2="141.27999954223634" style="visibility: inherit;" fill="rgb(0, 0, 0)" stroke="rgb(204, 204, 204)" stroke-width="1px"></line><line x1="51.53200149536133" y1="123.61999959945678" x2="46.53200149536133" y2="123.61999959945678" style="visibility: inherit;" fill="rgb(0, 0, 0)" stroke="rgb(204, 204, 204)" stroke-width="1px"></line><line x1="51.53200149536133" y1="105.95999965667727" x2="46.53200149536133" y2="105.95999965667727" style="visibility: inherit;" fill="rgb(0, 0, 0)" stroke="rgb(204, 204, 204)" stroke-width="1px"></line><line x1="51.53200149536133" y1="88.2999997138977" x2="46.53200149536133" y2="88.2999997138977" style="visibility: inherit;" fill="rgb(0, 0, 0)" stroke="rgb(204, 204, 204)" stroke-width="1px"></line><line x1="51.53200149536133" y1="70.63999977111817" x2="46.53200149536133" y2="70.63999977111817" style="visibility: inherit;" fill="rgb(0, 0, 0)" stroke="rgb(204, 204, 204)" stroke-width="1px"></line><line x1="51.53200149536133" y1="52.97999982833861" x2="46.53200149536133" y2="52.97999982833861" style="visibility: inherit;" fill="rgb(0, 0, 0)" stroke="rgb(204, 204, 204)" stroke-width="1px"></line><line x1="51.53200149536133" y1="35.31999988555909" x2="46.53200149536133" y2="35.31999988555909" style="visibility: inherit;" fill="rgb(0, 0, 0)" stroke="rgb(204, 204, 204)" stroke-width="1px"></line><line x1="51.53200149536133" y1="17.659999942779535" x2="46.53200149536133" y2="17.659999942779535" style="visibility: inherit;" fill="rgb(0, 0, 0)" stroke="rgb(204, 204, 204)" stroke-width="1px"></line><line x1="51.53200149536133" y1="0" x2="46.53200149536133" y2="0" style="visibility: inherit;" fill="rgb(0, 0, 0)" stroke="rgb(204, 204, 204)" stroke-width="1px"></line></g><g transform="translate(41.53200149536133, 0)"><text style="text-anchor: end; visibility: hidden; font-family: Roboto, sans-serif; font-size: 12px; font-weight: 200;" x="0" y="176.5999994277954" dx="0em" dy="0.3em" fill="rgb(33, 33, 33)" stroke="none" stroke-width="1px">0.01</text><text style="text-anchor: end; visibility: inherit; font-family: Roboto, sans-serif; font-size: 12px; font-weight: 200;" x="0" y="158.93999948501587" dx="0em" dy="0.3em" fill="rgb(33, 33, 33)" stroke="none" stroke-width="1px">0.02</text><text style="text-anchor: end; visibility: hidden; font-family: Roboto, sans-serif; font-size: 12px; font-weight: 200;" x="0" y="141.27999954223634" dx="0em" dy="0.3em" fill="rgb(33, 33, 33)" stroke="none" stroke-width="1px">0.03</text><text style="text-anchor: end; visibility: inherit; font-family: Roboto, sans-serif; font-size: 12px; font-weight: 200;" x="0" y="123.61999959945678" dx="0em" dy="0.3em" fill="rgb(33, 33, 33)" stroke="none" stroke-width="1px">0.04</text><text style="text-anchor: end; visibility: hidden; font-family: Roboto, sans-serif; font-size: 12px; font-weight: 200;" x="0" y="105.95999965667727" dx="0em" dy="0.3em" fill="rgb(33, 33, 33)" stroke="none" stroke-width="1px">0.05</text><text style="text-anchor: end; visibility: inherit; font-family: Roboto, sans-serif; font-size: 12px; font-weight: 200;" x="0" y="88.2999997138977" dx="0em" dy="0.3em" fill="rgb(33, 33, 33)" stroke="none" stroke-width="1px">0.06</text><text style="text-anchor: end; visibility: hidden; font-family: Roboto, sans-serif; font-size: 12px; font-weight: 200;" x="0" y="70.63999977111817" dx="0em" dy="0.3em" fill="rgb(33, 33, 33)" stroke="none" stroke-width="1px">0.07</text><text style="text-anchor: end; visibility: inherit; font-family: Roboto, sans-serif; font-size: 12px; font-weight: 200;" x="0" y="52.97999982833861" dx="0em" dy="0.3em" fill="rgb(33, 33, 33)" stroke="none" stroke-width="1px">0.08</text><text style="text-anchor: end; visibility: hidden; font-family: Roboto, sans-serif; font-size: 12px; font-weight: 200;" x="0" y="35.31999988555909" dx="0em" dy="0.3em" fill="rgb(33, 33, 33)" stroke="none" stroke-width="1px">0.09</text><text style="text-anchor: end; visibility: inherit; font-family: Roboto, sans-serif; font-size: 12px; font-weight: 200;" x="0" y="17.659999942779535" dx="0em" dy="0.3em" fill="rgb(33, 33, 33)" stroke="none" stroke-width="1px">0.1</text><text style="text-anchor: end; visibility: hidden; font-family: Roboto, sans-serif; font-size: 12px; font-weight: 200;" x="0" y="0" dx="0em" dy="0.3em" fill="rgb(33, 33, 33)" stroke="none" stroke-width="1px">0.11</text></g><line x1="51.53200149536133" y1="0" x2="51.53200149536133" y2="176.5999994277954" fill="rgb(0, 0, 0)" stroke="rgb(204, 204, 204)" stroke-width="1px"></line></g></g><g transform="translate(51, 0)" clip-path="url(#clip_0)"><clipPath id="clip_0"><rect width="278" height="176"></rect></clipPath><g><g><g><line x1="0" y1="0" x2="0" y2="176.5999994277954" fill="rgb(0, 0, 0)" stroke="rgb(66, 66, 66)" stroke-width="1px" opacity="0.25"></line><line x1="27.846799850463867" y1="0" x2="27.846799850463867" y2="176.5999994277954" fill="rgb(0, 0, 0)" stroke="rgb(66, 66, 66)" stroke-width="1px" opacity="0.25"></line><line x1="55.693599700927734" y1="0" x2="55.693599700927734" y2="176.5999994277954" fill="rgb(0, 0, 0)" stroke="rgb(66, 66, 66)" stroke-width="1px" opacity="0.25"></line><line x1="83.5403995513916" y1="0" x2="83.5403995513916" y2="176.5999994277954" fill="rgb(0, 0, 0)" stroke="rgb(66, 66, 66)" stroke-width="1px" opacity="0.25"></line><line x1="111.38719940185547" y1="0" x2="111.38719940185547" y2="176.5999994277954" fill="rgb(0, 0, 0)" stroke="rgb(66, 66, 66)" stroke-width="1px" opacity="0.25"></line><line x1="139.23399925231934" y1="0" x2="139.23399925231934" y2="176.5999994277954" fill="rgb(0, 0, 0)" stroke="rgb(66, 66, 66)" stroke-width="1px" opacity="0.25"></line><line x1="167.0807991027832" y1="0" x2="167.0807991027832" y2="176.5999994277954" fill="rgb(0, 0, 0)" stroke="rgb(66, 66, 66)" stroke-width="1px" opacity="0.25"></line><line x1="194.92759895324707" y1="0" x2="194.92759895324707" y2="176.5999994277954" fill="rgb(0, 0, 0)" stroke="rgb(66, 66, 66)" stroke-width="1px" opacity="0.25"></line><line x1="222.77439880371094" y1="0" x2="222.77439880371094" y2="176.5999994277954" fill="rgb(0, 0, 0)" stroke="rgb(66, 66, 66)" stroke-width="1px" opacity="0.25"></line><line x1="250.6211986541748" y1="0" x2="250.6211986541748" y2="176.5999994277954" fill="rgb(0, 0, 0)" stroke="rgb(66, 66, 66)" stroke-width="1px" opacity="0.25"></line><line x1="278.4679985046387" y1="0" x2="278.4679985046387" y2="176.5999994277954" fill="rgb(0, 0, 0)" stroke="rgb(66, 66, 66)" stroke-width="1px" opacity="0.25"></line></g><g><line x1="0" y1="176.5999994277954" x2="278.4679985046387" y2="176.5999994277954" fill="rgb(0, 0, 0)" stroke="rgb(66, 66, 66)" stroke-width="1px" opacity="0.25"></line><line x1="0" y1="158.93999948501587" x2="278.4679985046387" y2="158.93999948501587" fill="rgb(0, 0, 0)" stroke="rgb(66, 66, 66)" stroke-width="1px" opacity="0.25"></line><line x1="0" y1="141.27999954223634" x2="278.4679985046387" y2="141.27999954223634" fill="rgb(0, 0, 0)" stroke="rgb(66, 66, 66)" stroke-width="1px" opacity="0.25"></line><line x1="0" y1="123.61999959945678" x2="278.4679985046387" y2="123.61999959945678" fill="rgb(0, 0, 0)" stroke="rgb(66, 66, 66)" stroke-width="1px" opacity="0.25"></line><line x1="0" y1="105.95999965667727" x2="278.4679985046387" y2="105.95999965667727" fill="rgb(0, 0, 0)" stroke="rgb(66, 66, 66)" stroke-width="1px" opacity="0.25"></line><line x1="0" y1="88.2999997138977" x2="278.4679985046387" y2="88.2999997138977" fill="rgb(0, 0, 0)" stroke="rgb(66, 66, 66)" stroke-width="1px" opacity="0.25"></line><line x1="0" y1="70.63999977111817" x2="278.4679985046387" y2="70.63999977111817" fill="rgb(0, 0, 0)" stroke="rgb(66, 66, 66)" stroke-width="1px" opacity="0.25"></line><line x1="0" y1="52.97999982833861" x2="278.4679985046387" y2="52.97999982833861" fill="rgb(0, 0, 0)" stroke="rgb(66, 66, 66)" stroke-width="1px" opacity="0.25"></line><line x1="0" y1="35.31999988555909" x2="278.4679985046387" y2="35.31999988555909" fill="rgb(0, 0, 0)" stroke="rgb(66, 66, 66)" stroke-width="1px" opacity="0.25"></line><line x1="0" y1="17.659999942779535" x2="278.4679985046387" y2="17.659999942779535" fill="rgb(0, 0, 0)" stroke="rgb(66, 66, 66)" stroke-width="1px" opacity="0.25"></line><line x1="0" y1="0" x2="278.4679985046387" y2="0" fill="rgb(0, 0, 0)" stroke="rgb(66, 66, 66)" stroke-width="1px" opacity="0.25"></line></g></g></g><g><g><line x1="0" y1="194.25999937057497" x2="278.4679985046387" y2="194.25999937057497" fill="rgb(0, 0, 0)" stroke="rgb(153, 153, 153)" stroke-width="1.5px"></line></g></g><g><g><line x1="27.846799850463867" y1="0" x2="27.846799850463867" y2="176.5999994277954" fill="rgb(0, 0, 0)" stroke="rgb(153, 153, 153)" stroke-width="1.5px"></line></g></g><g><g><g><g><g><path style="fill: none;" stroke="rgb(255, 112, 67)" stroke-width="2px" d="M28.65435704612732,178.1116460202972L29.08598244380951,171.89261181495533L29.461914241790772,164.3753302200624L29.475837641716005,159.7716013944988L29.615071640968324,155.6093001535405L29.698612040519713,152.2720758313292L29.97708003902435,147.44510083061093L30.10239063835144,143.2804361223917L30.46439903640747,137.10872004264778L30.53401603603363,132.70094733263326L30.951718033790588,125.8179640791659L31.007411633491518,121.12374077137835L31.10487543296814,117.31849333854561L31.1327222328186,114.75292080327209L31.20233923244476,112.50722302201677L31.230186032295226,110.8772726442497L31.425113631248475,107.92138126252682L31.75927522945404,102.75712318311356L31.77319862937927,99.51730383524466L31.926356028556825,96.01933548398453L32.03774322795868,92.79031905889349L32.19090062713623,89.29883037805939L32.399751626014705,85.08473873622742L32.63644942474365,80.15452040698938L32.70606642436981,76.48999384712891L32.789606823921204,73.44359433447671L32.91491742324829,70.34423425388444L32.942764223098756,68.20205877306313L33.221232221603394,64.09115302128015L33.611087419509886,57.66877104427728L33.62501081943512,53.674064771596605L33.69462781906128,50.57083959191551L34.36295101547241,41.92746549201708L34.613572214126584,34.19840010609691L34.669265813827515,28.99584184252263L35.351512410163885,24.462204018811146L35.36543581008911,21.742058167611408L35.43505280971527,20.110165391728568L35.65782720851898,19.131803400627028L36.08945260620117,18.546959862249494L36.20083980560303,18.196758993321968L36.52107800388336,17.988991073255995L36.883086401939394,17.867572384731293L37.370405399322514,17.800063208085902L37.38432879924775,17.759726120982783L37.746337197303774,17.7402395974655L37.96911159610748,17.731758168326305L37.983034996032714,17.726879834447505L38.414660393714904,17.730873797623563L38.73489859199524,17.738970102125514L38.7627453918457,17.744348930748178L39.041213390350336,17.75296036911109L39.41714518833161,17.765985025672933L39.472838788032526,17.775020856517095L39.500685587883,17.781058136567264L39.73738338661194,17.790059382696537L39.862693985939025,17.79841798701962L40.04369818496704,17.80783309295097L40.057621584892274,17.813829520457475L40.33608958339691,17.824516759348445L40.350012983322145,17.831292255901094L40.837331980705265,17.848678434917826L40.85125538063049,17.85951013717674L40.94871918010711,17.868814385564228L41.24111057853699,17.8830810332891L41.83981677532196,17.910682881965965L41.96512737464905,17.93144393708515L42.076514574050904,17.947695258130743L42.1600549736023,17.960330224141973L42.744837770462034,17.98902145820647L43.05115256881714,18.01793604797439L43.30177376747131,18.0451846743445L43.35746736717224,18.063775926556232L43.7333991651535,18.09043574136683L43.956173563957215,18.11593150791366L44.05363736343384,18.135460492295532L44.90296475887299,18.185935278543422L45.056122158050535,18.223572687185047L45.07004555797577,18.246828807904947L45.487747555732724,18.281413793594005L45.5155943555832,18.30356476697848L45.599134755134585,18.321092138553027L45.71052195453643,18.337308488094056L46.53200255012512,18.39085878612959L46.92185774803162,18.444893946016283L47.01932154750824,18.482899180561983L47.26994274616242,18.520275817822327L47.604104344367975,18.56258575463911L47.701568143844604,18.593866377659772L47.785108543396,18.61772942270507L47.96611274242401,18.643189211509092L48.24458074092865,18.675906965437985L48.27242754077911,18.697300752984404L48.88505713748932,18.749862829712455L48.99644433689117,18.78881050663346L49.0939081363678,18.8187106076208L49.149601736068725,18.840403251466334L49.344529335021974,18.86666603559717L49.45591653442383,18.890070976015114L49.95715893173218,18.939255592974508L50.20778013038635,18.98677139443908L50.500171528816225,19.036659547371517L50.890026726722716,19.0957183798363L51.112801125526424,19.14811135567092L51.15457132530212,19.182752363052703L51.19634152507783,19.206752715543033L51.34949892425537,19.23300540597984L51.87858812141418,19.29054069267772L52.15705611991882,19.347572101125195L52.7557623167038,19.431411359813126L53.07600051498413,19.508935617108996L53.60508971214295,19.601460105285984L53.95317471027374,19.687953346618574L54.12025550937653,19.75491751842198L54.14810230922699,19.79761704166989L54.52403410720825,19.857657364981264L54.92781270503998,19.931381073473418L55.15058710384369,19.99673081611656L55.26197430324554,20.046587893008354L55.401208302497864,20.08988617730997L55.48474870204926,20.123938728129833L55.693599700927734,20.164696312652097L55.74929330062866,20.1946086878164L56.25053569793702,20.26228178833677L56.29230589771271,20.307085594562018L56.946705694198606,20.400745965696782L57.002399293899536,20.462715798235543L57.26694389247894,20.52751839469081L57.32263749217987,20.57225777186376L57.44794809150696,20.61232754363059L58.25550528717041,20.723331444687513L58.28335208702088,20.79298111449917L58.64536048507691,20.874765138182294L58.93775188350678,20.95657197291753L58.965598683357236,21.008792875468167L59.00736888313293,21.04484114574304L59.160526282310485,21.083822516022437L59.216219882011416,21.113548098690462L59.23014328193665,21.1329676384164L59.3415304813385,21.157340251063815L59.60607507991791,21.202405531886747L59.647845279693605,21.234281480197666L59.74530907917023,21.264717429844858L59.85669627857208,21.29596304295084L60.218704676628114,21.357288809857838L60.26047487640381,21.399031574711653L60.3440152759552,21.434003421583878L60.90095127296448,21.521969877621355L61.19334267139435,21.6104756069554L61.87558926773072,21.748435846506013L61.97305306720734,21.843506568748793L62.11228706645966,21.918180353985093L62.48821886444092,22.011041900981695L62.683146463394166,22.091921663027172L62.822380462646485,22.15853349789519L62.97553786182403,22.218489815078872L63.100848461151124,22.270894972733153L63.28185266017914,22.326195654824332L63.44893345928192,22.381533673469967L63.68563125801086,22.44633607771751L63.93625245666504,22.51894866482343L63.964099256515496,22.566279326520338L63.978022656440736,22.59656190980023L64.07548645591736,22.627941815960895L64.54888205337525,22.71154260972243L64.7438096523285,22.78866589664676L64.85519685173034,22.850423879924453L64.95266065120697,22.901067968572185L65.0501244506836,22.945091088252955L65.0918946504593,22.977357516271095L65.41213284873962,23.041874686282505L65.80198804664612,23.136168483010927L66.03868584537506,23.22682326955307L66.73485584163666,23.382877990170858L66.83231964111327,23.490915900190686L67.055094039917,23.588817167585546L67.15255783939362,23.662099846014645L67.16648123931884,23.708148373668152L67.20825143909454,23.742024778228686L67.29179183864593,23.774866249262317L67.50064283752441,23.825997042968815L67.57025983715057,23.86719643633581L67.63987683677674,23.90245804185959L67.7094938364029,23.93417276394776L67.76518743610383,23.9616646461082L67.77911083602905,23.980280800721456L68.09934903430938,24.040402494664036L68.19681283378601,24.091464791681716L68.21073623371124,24.12424424756977L68.22465963363648,24.146059261870196L68.39174043273925,24.184958464382312L68.80944243049622,24.273360305911172L68.94867642974853,24.34825376099264L69.04614022922516,24.408542267911688L69.11575722885132,24.45570470422662L69.5473826265335,24.55260654568565L70.56379082107544,24.775503423571543L70.60556102085114,24.916109882905243L70.87010561943055,25.044136354112915L71.14857361793518,25.167241114413137L71.2042672176361,25.25040385082934L71.64981601524352,25.375168949587863L71.77512661457061,25.471238262012946L71.84474361419677,25.54069022368969L71.9839776134491,25.606050569310604L72.16498181247711,25.676182168028152L72.2902924118042,25.73975032420481L72.65230080986024,25.840343045234526L72.80545820903778,25.92729307221163L72.84722840881348,25.98673141584893L73.15354320716858,26.075935837787622L73.37631760597229,26.168647459959146L73.4737814054489,26.241484737943395L74.04464080238343,26.386812111795646L74.30918540096282,26.521571081490826L74.46234280014039,26.63009979114107L74.65727039909363,26.73057971942479L74.79650439834595,26.81623050766696L74.82435119819641,26.8726998625748L75.04712559700013,26.947354634652914L75.10281919670105,27.002373681996357L75.11674259662628,27.037942972199104L75.60406159400941,27.149341281306135L75.89645299243928,27.270695354198235L76.1331507911682,27.387907226157257L76.35592518997193,27.50022854537313L76.84324418735504,27.660220144414353L77.20525258541107,27.825645788657464L77.41410358428956,27.96520591931636L78.06850338077545,28.176403514155833L78.15204378032685,28.319521859862924L78.29127777957916,28.432787251344138L78.58366917800903,28.55854574189352L78.63936277770996,28.645048062377924L78.68113297748566,28.70524408469235L79.04314137554168,28.813555505210587L79.32160937404632,28.93444163765008L79.60007737255096,29.063188382649365L79.78108157157898,29.177151746302417L80.25447716903687,29.342181151395746L80.35194096851347,29.461214326165244L80.36586436843872,29.535497352050363L80.68610256671906,29.646113685454814L81.29873216342925,29.840002895932933L81.43796616268158,29.98553604618678L81.47973636245729,30.081629507563484L81.67466396141053,30.180321898028748L82.46829775714875,30.40820358127503L82.51006795692444,30.553879844421033L82.5379147567749,30.64725394650087L82.55183815670013,30.70626784293503L83.35939535236359,30.916173933611866L83.47078255176545,31.066396222725896L83.51255275154114,31.165645268276307L84.09733554840088,31.353545674280387L84.61250134563446,31.580484447233147L84.65427154541015,31.72595285433097L84.87704594421388,31.862980626371883L85.14159054279328,32.0045228413909L85.2808245420456,32.12078460895664L85.53144574069977,32.24714094061017L86.14407533740997,32.4623476813408L86.47823693561554,32.66812863332766L86.85416873359681,32.878353982002025L86.96555593299867,33.030299385138534L87.67564932918549,33.28714870389143L87.75918972873687,33.46087909509793L87.96804072761536,33.61428511769123L88.1211981267929,33.742491423438445L88.13512152671814,33.82270990129979L88.24650872612,33.897203806410715L89.24899352073669,34.18132338197217L89.45784451961516,34.40216289972503L89.4717679195404,34.538029724961255L89.54138491916656,34.63638118229591L89.83377631759643,34.76627009129718L90.02870391654967,34.89163966791894L90.33501871490479,35.041697292260174L90.34894211483002,35.135142349260455L91.05903551101684,35.366091341855494L91.18434611034394,35.535718232190625L91.26788650989532,35.65823094145117L91.28180990982055,35.73519641721411L91.29573330974578,35.784838815968634L91.81089910697936,35.94313838968881L92.04759690570832,36.09750157970667L92.14506070518495,36.21463496748059L92.29821810436249,36.32350397687994L92.70199670219421,36.49098196168302L93.18931569957734,36.715567154424534L93.27285609912873,36.871681152852766L93.6905580968857,37.072542908314794L93.77409849643708,37.21457547398872L93.99687289524078,37.35729953600718L94.08041329479217,37.46453895814697L94.24749409389496,37.572182053820235L94.44242169284821,37.68740936432623L94.49811529254913,37.771040300810995L94.81835349082948,37.90478094448332L94.92974069023131,38.01417758684265L95.27782568836213,38.171209132133235L95.4449064874649,38.30944854504297L95.75122128582001,38.47336483423291L95.79299148559569,38.58278288626213L96.07145948410033,38.722380133618074L96.34992748260497,38.88036384194624L96.8790166797638,39.11694171468471L96.93471027946472,39.27387245588981L97.32456547737121,39.473224282773636L97.78403767490387,39.71750219449616L97.85365467453002,39.8830265921297L98.03465887355804,40.03169848982345L98.11819927310944,40.14372238718533L98.68905867004395,40.36753470893219L98.98145006847382,40.582473694927295L99.52446266555786,40.86200356858047L99.5383860654831,41.0336003901883L99.87254766368866,41.229736230577544L99.9282412633896,41.362985955376026L100.62441125965118,41.63843327263675L100.72187505912781,41.8312065719426L101.43196845531465,42.14822059011743L101.47373865509033,42.35032884777596L101.58512585449219,42.50334602504463L101.69651305389405,42.62695592189041L101.72435985374452,42.70907965225418L102.29521925067903,42.92203073000903L102.36483625030517,43.06983269764578L102.40660645008087,43.17054530223443L102.47622344970704,43.25103576451214L103.10277644634247,43.480611917855406L103.4647848443985,43.72369309545528L103.63186564350127,43.91830433194564L103.68755924320222,44.05134981157053L103.95210384178162,44.208623470411446L104.1191846408844,44.35201861324238L104.14703144073486,44.44623454098215L104.25841864013672,44.53551630742169L104.62042703819274,44.69579978248989L104.67612063789367,44.80842755032545L104.7318142375946,44.89247242000167L104.78750783729554,44.95937281387241L104.92674183654786,45.040749361258555L104.99635883617401,45.110217129127584L105.67860543251038,45.35501096362937L105.83176283168793,45.547691937615326L105.84568623161316,45.66746888937927L106.01276703071593,45.78939757362684L106.04061383056641,45.870907308190446L106.09630743026733,45.936523460048875L106.23554142951966,46.017718928320676L106.45831582832335,46.1334827142793L106.91778802585603,46.341728672229564L106.93171142578126,46.47089198218314L107.00132842540741,46.56947917025255L107.12663902473449,46.666630993736156L107.2101794242859,46.750284919098306L107.22410282421112,46.804708798769354L107.37726022338867,46.88392042174351L107.72534522151948,47.037540766098736L107.8645792207718,47.17225453012447L108.58859601688386,47.475290453263334L108.60251941680909,47.6614014255917L108.93668101501464,47.87619299673365L108.95060441493987,48.00936788404409L109.15945541381836,48.153908826152495L109.46577021217347,48.33567427274333L109.78600841045379,48.54440594132629L110.02270620918274,48.74351767535286L110.4404082069397,48.99376197898641L110.48217840671539,49.15701365555693L110.70495280551911,49.32495849696006L110.73279960536956,49.43448318375601L110.98342080402375,49.579139084492645L111.28973560237884,49.76267348436813L111.80490139961243,50.03612359988232L111.95805879878998,50.2489088313102L112.02767579841614,50.398742842648005L112.27829699707031,50.5685527466912L112.47322459602356,50.732722097557144L112.7516925945282,50.92038571774228L113.7124071893692,51.342348326907924L114.26934318637848,51.77609198812809L114.3668069858551,52.06802725045235L114.42250058555602,52.26130922711841L114.47819418525697,52.39540975856976L114.79843238353729,52.58028978535421L114.84020258331299,52.70485973100711L114.99335998249053,52.829664211588096L115.06297698211671,52.92732029087128L115.34144498062135,53.077160131792915L115.35536838054657,53.17163239856711L115.4528321800232,53.26031008345054L115.60598957920075,53.36384236207566L115.74522357845306,53.47176640253563L115.81484057807923,53.55944684735959L115.95407457733154,53.65794399698071L116.0654617767334,53.7537944450377L116.16292557621003,53.84348850993501L116.761631772995,54.0955918690168L117.69449956798555,54.55778145928507L117.73626976776123,54.84907398079577L118.37674616432189,55.23876251552402L118.55775036334992,55.533516956821224L118.58559716320038,55.71974844818735L118.59952056312561,55.83618201939103L118.90583536148071,56.00939872582334L119.07291616058349,56.16981223281421L119.29569055938721,56.341485681469905L119.50454155826569,56.515320417452735L119.53238835811615,56.62907376889188L119.56023515796662,56.70677828960478L119.69946915721894,56.80070565600066L120.01970735549926,56.966055409063145L120.11717115497589,57.09849114880682L120.31209875392913,57.244472788636934L120.53487315273286,57.408213423432265L120.71587735176087,57.56842016425238L120.84118795108795,57.70749628718612L120.93865175056457,57.82437310936708L120.9943453502655,57.91361474597922L121.384200548172,58.10118431776609L121.45381754779815,58.23770469940947L122.09429394435882,58.54075618582529L122.63730654144287,58.91088465277688L122.76261714076996,59.176519066752924L122.87400434017181,59.37465184766719L122.97146813964844,59.527462658197535L123.45878713703156,59.789162744552726L123.58409773635863,59.989998021586665L123.61194453620911,60.12023590452276L123.79294873523712,60.261746239288435L123.9600295343399,60.405209580785325L124.22457413291932,60.58414954770095L124.28026773262023,60.71108695999404L124.32203793239594,60.80192816570514L124.41950173187256,60.89071139506128L124.90682072925567,61.11571070008997L125.14351852798463,61.334324995789835L125.38021632671355,61.549239863145324L125.6169141254425,61.7620719138372L125.89538212394714,61.988617239732456L125.92322892379761,62.13444430777896L126.21562032222748,62.32594447240129L126.2295437221527,62.44580240206452L126.35485432147979,62.562358690231584L126.36877772140502,62.637255557111786L126.81432651901245,62.8412179451134L126.87002011871338,62.983505647825524L126.95356051826478,63.09875683204482L127.1902583169937,63.252653819634105L127.3991093158722,63.419869995276734L128.09527931213378,63.77050700351835L128.29020691108704,64.0511725138806L128.42944091033937,64.26982380453136L128.49905790996553,64.4261563604089L128.61044510936736,64.56020800714727L128.81929610824585,64.71618012763406L129.487619304657,65.05213922597643L129.5850831041336,65.28914580764692L129.69647030353545,65.47186502436688L129.7243171033859,65.59162800287335L129.78001070308684,65.68375395001634L129.90532130241394,65.78466577270325L130.39264029979705,66.02298952427441L130.40656369972228,66.17107318335987L130.53187429904938,66.30572278900593L130.6711082983017,66.4374382123619L130.81034229755403,66.56743523106479L130.90780609703066,66.68113824563763L131.17235069561005,66.84636933141076L131.25589109516145,66.97617074589404L131.57612929344177,67.17172902650138L131.6735930929184,67.32492142783025L131.7571334924698,67.44758910417897L131.8545972919464,67.5570839845835L132.13306529045104,67.72543748555076L132.18875889015197,67.84700195303651L132.36976308918,67.98677661491882L132.73177148723602,68.20450810916431L132.96846928596497,68.42281956087413L132.99631608581544,68.56412735161872L134.0684178800583,69.04745426205596L134.30511567878725,69.42574400811463L134.44434967803954,69.70470665992171L134.77851127624513,69.99700369492382L135.00128567504882,70.25578084191294L135.2101366739273,70.4893198063207L135.3772174730301,70.69211606207398L135.39114087295533,70.81902006401175L135.4746812725067,70.92652521917931L135.53037487220766,71.01193856931317L135.73922587108612,71.1416697792124L135.75314927101135,71.22474001672788L135.96200026988984,71.35314956849798L136.43539586734772,71.60857194979233L136.53285966682435,71.79859858921373L136.68601706600188,71.97044014397778L137.42395726203918,72.35274674443247L137.5631912612915,72.63491949857493L137.6467316608429,72.83591221665253L137.66065506076814,72.96179198997618L138.0365868587494,73.1800811733835L138.3429016571045,73.42756370933942L138.37074845695497,73.58665309440781L138.42644205665587,73.70330645243857L138.50998245620727,73.80511384701195L138.62136965560913,73.90863457936625L138.94160785388948,74.09287702493486L138.99730145359038,74.22468011325701L139.31753965187073,74.42609196983078L139.33146305179594,74.55226006788293L139.44285025119783,74.67055511502795L139.49854385089876,74.76283713210704L139.58208425045012,74.8501743517228L139.8327054491043,74.99854386867861L139.94409264850617,75.13024923969782L140.05547984790803,75.25197717551556L140.1390202474594,75.35705562963615L140.26433084678652,75.46818629341386L140.47318184566495,75.61506365887747L141.11365824222565,75.94957111578469L141.18327524185182,76.17709629716327L141.23896884155272,76.33506902439588L141.3503560409546,76.47279421299686L141.40604964065554,76.57690273383326L141.50351344013214,76.6769620990381L141.85159843826293,76.8713854611986L141.90729203796388,77.00955499089163L142.29714723587037,77.24322845127809L142.68700243377685,77.53443058295558L143.0907810316086,77.86578142383253L143.17432143115997,78.09702835274742L143.45278942966462,78.34397511671368L143.536329829216,78.52462170420306L143.68948722839355,78.69258783681674L144.03757222652436,78.92888682379765L144.2742700252533,79.16292292264032L144.51096782398224,79.39568023495178L144.76158902263643,79.63318599378677L145.30460161972047,79.98799724130187L145.37421861934664,80.22813100734463L145.95900141620635,80.60136094755752L146.4463204135895,81.01659644815385L146.59947781276702,81.32592644708524L146.79440541172028,81.5881708278123L147.00325641059877,81.82769534532936L147.25387760925295,82.07009299552611L147.26780100917819,82.22101572554568L147.37918820858002,82.35545300894972L147.40703500843048,82.44709418497541L147.49057540798185,82.53500478236037L147.86650720596313,82.73603344173682L148.11712840461732,82.95560725773528L148.27028580379485,83.14785603131497L148.339902803421,83.2907207305924L148.38167300319674,83.3929498638547L148.52090700244904,83.50933926643185L148.64621760177613,83.6287354276063L149.4955449972153,84.03680563383529L149.5930087966919,84.32030778602426L149.82970659542084,84.58434207819391L150.3309489927292,84.94188903651275L150.48410639190675,85.21731642724339L151.11065938854216,85.63196964994762L151.58405498600007,86.06946967970137L151.6954421854019,86.3764059674082L152.1270675830841,86.73287341581505L152.18276118278504,86.96900096678209L152.62830998039246,87.28876467763818L152.83716097927092,87.56416656511792L152.93462477874758,87.76840982691492L152.9485481786728,87.89652939642662L152.962471578598,87.97897475056712L153.18524597740173,88.11762765662252L153.79787557411194,88.44632413338037L153.95103297328947,88.7049728072762L154.41050517082215,89.04457805775482L154.54973917007447,89.30426417207605L155.0927517671585,89.67832566162454L155.19021556663515,89.94196205054219L155.3851431655884,90.17856918972043L155.58007076454163,90.39898772605068L155.74715156364442,90.59850903417431L156.262317360878,90.92578493552247L156.29016416072847,91.13337401600508L156.38762796020507,91.29722169510525L156.42939815998076,91.41237482248359L156.55470875930786,91.53200025866526L156.8749469575882,91.73297648810194L157.19518515586853,91.98283950829834L157.585040353775,92.29023950288551L157.72427435302734,92.5309498276196L158.11412955093382,92.83300293990757L158.4065209493637,93.13252275765126L158.64321874809264,93.4080334146001L158.68498894786833,93.590247485769L158.7128357477188,93.71084946750014L158.94953354644775,93.87905679065247L158.97738034629822,93.99125998666376L159.13053774547578,94.12062057902016L159.57608654308316,94.37879776706464L159.81278434181212,94.6296765281678L159.93809494113924,94.83102418299572L159.99378854084014,94.97442459021802L160.14694594001767,95.12259824492311L160.45326073837282,95.33580610012035L160.63426493740081,95.53720881435673L161.07981373500826,95.83899284956269L161.21904773426056,96.07663096325963L161.38612853336335,96.28710506243706L161.44182213306428,96.43602344099003L161.52536253261565,96.55932666246409L161.56713273239137,96.6502873240647L161.70636673164367,96.76146299213914L161.85952413082123,96.89044127524359L161.9709113302231,97.01312239864984L161.98483473014832,97.09239415765906L162.0126815299988,97.15128075145049L162.38861332798004,97.33953179106356L162.55569412708283,97.52046838141278L162.65315792655943,97.6686929827411L162.987319524765,97.89364704451185L163.09870672416687,98.07397152910917L163.18224712371824,98.21618157129124L163.76702992057798,98.53969663446304L164.3378893175125,98.96644741324573L164.63028071594238,99.34169897702148L165.10367631340026,99.75990006076434L165.21506351280215,100.0562543364417L165.31252731227875,100.27382428458903L165.56314851093293,100.50661230517291L165.81376970958712,100.74854695848902L166.3289355068207,101.10396556909238L166.3707057065964,101.33426651588717L166.69094390487672,101.6031822424607L166.8719481039047,101.83843598982233L166.8997949037552,101.99095651289119L167.0390289030075,102.13932335771723L167.19218630218506,102.29088739601363L167.2061097021103,102.38751258786249L167.26180330181123,102.46823214691074L167.35926710128783,102.55646600134658L167.41496070098876,102.6321533894921L167.52634790039062,102.72305997334742L167.63773509979248,102.8230980746286L167.8187392988205,102.95705682535554L168.18074769687652,103.18531438188829L168.208594496727,103.33364508509501L168.79337729358673,103.66156674595285L168.84907089328763,103.88107734413182L169.41993029022217,104.24605438318775L169.89332588768005,104.6585012731278L169.94901948738098,104.92872964030113L170.0464832868576,105.13069772660765L170.21356408596037,105.32016190956452L170.68695968341828,105.62730898048032L170.71480648326875,105.82297865540697L170.8261936826706,105.98590355832661L171.03504468154907,106.1690126640446L171.0489680814743,106.28456752789144L171.16035528087616,106.39942091261813L171.2578190803528,106.50816400945669L171.38312967967988,106.62462236593953L171.50844027900695,106.74570724666391L171.52236367893218,106.82404757551458L171.5780572786331,106.89381200603428L171.96791247653962,107.09498177063094L172.48307827377317,107.42618618169301L172.5248484735489,107.64197702957848L172.99824407100675,107.96485957391506L173.1374780702591,108.21546731540727L173.76403106689452,108.62175234876798L173.86149486637115,108.90532811933639L173.90326506614687,109.09253125674536L174.2652734642029,109.35267755129608L174.3627372636795,109.54855955239826L174.89182646083833,109.88208070835526L174.90574986076354,110.08787753925543L175.00321366024016,110.25113670444195L175.0449838600159,110.36613935244156L175.05890725994112,110.44082507856727L175.21206465911865,110.54814097246759L175.43483905792237,110.70343723284702L175.64369005680086,110.88182968115277L176.66009825134276,111.40338612772074L176.70186845111846,111.73334872373381L176.77148545074465,111.95970486325044L176.79933225059509,112.10686840079688L176.95248964977264,112.257594666743L177.28665124797823,112.48420498844285L177.4119618473053,112.671225787139L177.62081284618378,112.86851611809173L177.6765064458847,113.009574235066L178.49798704147338,113.42866532443607L178.5119104413986,113.68578569456865L178.52583384132384,113.84572363315873L178.6372210407257,113.98701212839705L179.80678663444522,114.54737120620258L179.95994403362275,114.9458147988797L179.9877908334732,115.19619659823667L180.02956103324888,115.36339388038682L180.23841203212737,115.5485427361765L180.65611402988435,115.829227234023L180.67003742980958,116.0032878599711L180.71180762958528,116.12467928035063L180.94850542831423,116.29356552720657L180.9902756280899,116.41184705704067L181.00419902801514,116.48846327063627L181.05989262771607,116.55702744466426L181.10166282749177,116.61511046771147L181.26874362659456,116.71773046142638L181.83960302352907,117.01071789853778L182.07630082225802,117.28240649427438L182.18768802165985,117.49053486019595L182.32692202091218,117.67179536416819L182.4243858203888,117.82001168470086L182.5218496198654,117.94839623207965L182.7724708185196,118.12685197014419L182.84208781814573,118.26209347128703L183.21801961612704,118.49527851926148L183.35725361537934,118.69147829684333L183.52433441448213,118.8767236095886L183.6496450138092,119.03850435570264L183.7749556131363,119.18619320411268L183.92811301231384,119.3366609797542L184.09519381141664,119.49440130270882L184.1230406112671,119.6002848254256L184.3875852098465,119.7705767220712L184.5685894088745,119.9457693407914L184.73567020797728,120.1182629916964L184.77744040775298,120.23860107061259L184.91667440700533,120.36693214251092L184.958444606781,120.4607647793879L184.98629140663147,120.52828790118778L185.4318402042389,120.74828104187941L185.68246140289304,120.98116510073977L185.80777200222016,121.17132120246323L186.01662300109865,121.36942430793874L186.03054640102388,121.49388609910811L186.23939739990232,121.65253577662031L186.64317599773406,121.90996823060742L186.6570993976593,122.0700197362486L186.99126099586488,122.30020680670579L187.0191077957153,122.44949258929769L187.53427359294892,122.74567981910579L187.60389059257506,122.9512944292439L187.81274159145354,123.15834369663585L187.86843519115448,123.3048808645303L188.0912095899582,123.48200727965344L188.28613718891145,123.66629528198085L188.8291497859955,123.9939968661382L188.9683837852478,124.2462434160751L189.0519241847992,124.43095933737658L189.10761778450012,124.56402807744522L189.40000918293,124.76058360791242L189.94302178001405,125.09503519050014L190.12402597904205,125.36781047465037L190.20756637859347,125.56474100622259L190.40249397754667,125.76049569430022L190.44426417732237,125.89456934573505L190.72273217582702,126.08578053119021L191.15435757350923,126.37202608627364L191.25182137298583,126.58247292095116L192.08722536849976,127.04002622914793L192.33784656715392,127.41378588357956L192.43531036663057,127.67661223215816L192.61631456565857,127.90590448770666L192.74162516498566,128.0930239398485L192.76947196483613,128.21630336411252L192.99224636363985,128.37829620087132L193.07578676319122,128.50848621486765L193.27071436214445,128.6635544954055L193.42387176132203,128.81702626444715L193.9390375585556,129.1121619741162L195.28960735130312,129.81995761800664L195.6376923494339,130.38102798471294L195.69338594913484,130.7394778186349L195.97185394763946,131.06352263139763L196.4174027452469,131.43208938174368L196.5984069442749,131.72389431140203L197.14141954135894,132.11069559531808L197.36419394016266,132.42951472233455L197.4755811395645,132.66414774565473L197.6426619386673,132.8699056702266L198.14390433597566,133.18805265456348L198.3249085350037,133.44915573041135L198.33883193492892,133.61121487483467L198.3806021347046,133.7246475213225L198.60337653350828,133.87903757639808L198.65907013320924,133.99324238428633L198.71476373291017,134.0833334123172L198.81222753238677,134.17511649063664L198.8679211320877,134.25174132320092L198.92361473178866,134.31926331367688L199.21600613021852,134.4728303152124L199.49447412872314,134.67251913112165L199.605861328125,134.83531870919464L199.68940172767637,134.9652243568225L200.12102712535858,135.2094971823545L200.31595472431184,135.43108096419596L200.4412653236389,135.61222534949866L200.74758012199402,135.83861572804824L200.80327372169495,135.9958338903218L201.03997152042388,136.18099256537337L201.13743531990053,136.32946097332243L201.19312891960146,136.43989174314987L201.4298267183304,136.59682535312044L201.81968191623687,136.84013359837246L201.90322231578827,137.01804445017103L202.09814991474153,137.1992426340398L202.1399201145172,137.32390607586936L203.0031709098816,137.7275788530839L203.03101770973205,137.98036922518224L203.47656650733947,138.30125969032554L203.54618350696563,138.5202041556167L203.64364730644223,138.68852825359025L203.71326430606842,138.81590921467404L203.92211530494689,138.9714512461847L204.1031195039749,139.1332782145039L204.2702003030777,139.2935551608003L204.43728110218046,139.45285077875442L204.4929747018814,139.56946077340538L205.1334510984421,139.88089076588358L205.43976589679718,140.18296569865834L205.46761269664765,140.3746763130201L205.57899989604948,140.5315508269269L205.63469349575044,140.64658973962185L205.82962109470367,140.78877135563226L206.0523954935074,140.95760293384416L206.13593589305876,141.09019884614972L206.24732309246065,141.21146375116214L206.42832729148864,141.3519481377902L206.63717829036713,141.51430618546678L206.8321058893204,141.68450823461296L206.9713398885727,141.83857616355164L207.0548802881241,141.96216651977002L207.08272708797455,142.04670086298356L207.33334828662873,142.19077684562765L207.6118162851334,142.38080531179918L207.82066728401182,142.57240955022868L209.57501567459107,143.335659797263L210.21549207115174,144.02871875985534L210.22941547107698,144.44965538750628L210.43826646995547,144.7786913792638L210.56357706928253,145.021954489234L211.00912586688997,145.33063131235147L211.23190026569364,145.5970389920861L211.60783206367492,145.8936699962852L211.66352566337585,146.09188649607555L211.71921926307678,146.23104903013055L211.80275966262818,146.3448816862232L211.84452986240387,146.4283429267322L212.12299786090853,146.5794025811051L212.58247005844115,146.83628754855988L213.26471665477754,147.23641272953824L213.27864005470278,147.48149698414377L213.41787405395507,147.678619260504L213.44572085380554,147.80690039217686L213.6406484527588,147.9538826432294L213.7381122522354,148.07704654345832L214.29504824924467,148.35038573624718L214.32289504909514,148.52434307110354L214.4203588485718,148.6635393920014L214.4760524482727,148.76694640209084L214.54566944789886,148.8538416039026L214.57351624774932,148.91591675490236L214.9076778459549,149.07227083793128L214.93552464580537,149.1759963179833L214.97729484558107,149.25309983559393L215.10260544490814,149.34394031944802L215.20006924438476,149.43309153199817L215.22791604423523,149.49647818472L215.36715004348756,149.58395822377125L216.7873368358612,150.13820162769684L217.2746558332443,150.64180467770478L217.74805143070222,151.1095827959541L218.15183002853394,151.531076800699L218.22144702816007,151.80821236507802L218.3467576274872,152.0180957737765L218.43029802703856,152.17307149757667L218.7087660255432,152.36275042347918L218.72268942546845,152.4813879799752L219.2657020225525,152.7405457247053L219.47455302143098,152.96814075882338L219.65555722045897,153.16709565994427L219.66948062038423,153.29126459148557L220.60234841537476,153.68599208969306L220.6162718153,153.9275916851731L220.96435681343078,154.19145122705808L221.1453610124588,154.41147010494373L221.64660340976715,154.71390555274118L222.37062020587922,155.14036366634804L222.48200740528108,155.43380647176454L222.4959308052063,155.61456551562594L223.30348800086975,155.9943635002224L223.59587939929963,156.32005287347994L223.6654963989258,156.5387201453422L224.4452067947388,156.92945795560763L224.91860239219665,157.32065914934518L224.9882193918228,157.57838088516982L225.86539358711244,158.021654946385L225.9350105867386,158.31043487876966L226.17170838546753,158.56117289317194L226.2413253850937,158.7343706719325L226.2830955848694,158.85193653186118L226.4640997838974,158.98155291860488L226.57548698329924,159.0956314935931L226.7147209825516,159.20941489685052L226.8539549818039,159.32296461885073L226.90964858150483,159.40919158741684L227.341273979187,159.60087465052982L227.61974197769166,159.80588727670929L228.21844817447663,160.12163973866757L228.301988574028,160.33790271266915L228.35768217372893,160.48552342492587L228.45514597320556,160.60533360789452L228.65007357215882,160.73961233523565L228.74753737163545,160.8513331178131L228.9424649705887,160.9805911018083L229.98671996498106,161.38957057148377L230.15380076408385,161.6876838900773L230.55757936191557,161.99362392900892L230.62719636154176,162.19904819716726L230.72466016101836,162.3528813116398L230.7385835609436,162.44954691357503L231.0448983592987,162.6034489870686L231.05882175922395,162.7001428066912L231.3094429578781,162.83640151191085L231.67145135593412,163.03083554712174L231.782838555336,163.1820849964947L231.79676195526125,163.2771556631042L231.99168955421447,163.39462886378885L232.06130655384064,163.48666776977223L232.1726937532425,163.57634593281068L232.67393615055084,163.78472715581364L232.72962975025177,163.92688330062742L232.77139995002747,164.02501498008263L232.8688637495041,164.11383044433904L233.89919534397126,164.4817617235619L234.01058254337312,164.73633584509489L234.37259094142914,164.99870785359866L234.7485227394104,165.2695335456711L235.20799493694307,165.57001665759194L235.40292253589632,165.808642615597L235.63962033462522,166.0224896487134L235.9320117330551,166.2378480633395L236.12693933200836,166.4249419720138L236.36363713073732,166.6073138616382L236.39148393058775,166.72497373144532L236.55856472969057,166.84493809650974L236.8370327281952,166.9989939480307L237.04588372707366,167.15281811572223L238.00659832191468,167.52565768768568L238.38253011989593,167.85830608050514L238.50784071922303,168.09410517619912L238.64707471847532,168.2757564847031L238.70276831817625,168.40079772100236L238.8559257173538,168.5199074213712L239.05085331630707,168.64736791522944L239.4128617143631,168.82749419252843L239.46855531406402,168.95147633301275L240.38749970912932,169.28680896739883L240.4988869085312,169.51944235375194L240.52673370838167,169.66687425813151L240.97228250598906,169.88060086651106L242.43423949813845,170.41505725812317L242.60132029724122,170.78168313289856L242.93548189544677,171.09326866221986L243.1164860944748,171.3296778955247L243.33926049327852,171.53223712732034L243.39495409297942,171.66892378707095L243.46457109260558,171.7698592234356L243.4784944925308,171.8342033312757L243.49241789245605,171.87659132622852L243.548111492157,171.91714498110528L243.57595829200744,171.94903365566623L243.88227309036256,172.05110592389175L244.02150708961486,172.14993827443993L244.1189708890915,172.2355097148584L244.43920908737184,172.3729350231706L244.9126046848297,172.58197278855258L245.06576208400728,172.7481771594366L245.07968548393248,172.85160302375036L245.33030668258667,172.98019715913787L245.39992368221283,173.07579682391153L245.5948512811661,173.18470398526412L245.73408528041838,173.28678399320336L245.80370228004458,173.36637320913707L245.83154907989504,173.4214582232297L245.8733192796707,173.4655018532801L246.05432347869873,173.53948794514915L246.0821702785492,173.59118608512495L246.2214042778015,173.65869528866142" fill="none"></path></g></g></g></g><g opacity="0.2"><g><g><g><path style="fill: none;" stroke="rgb(255, 112, 67)" stroke-width="2px" d="M28.306272047996522,182.60439947149754L28.570816646575928,175.89359938008488L28.65435704612732,173.77439969747363L29.08598244380951,162.8252002408385L29.461914241790772,153.28880002437234L29.475837641716005,152.935600625509L29.615071640968324,149.40360005801318L29.698612040519713,147.284400375402L29.97708003902435,140.22039924041036L30.10239063835144,137.04159807177786L30.46439903640747,127.8584005436063L30.53401603603363,126.09239697042706L30.951718033790588,115.49640184680224L31.007411633491518,114.08359767248633L31.10487543296814,111.6112018804431L31.1327222328186,110.90479650385383L31.20233923244476,109.13879950953724L31.230186032295226,108.4324007118106L31.425113631248475,103.48760254886152L31.75927522945404,95.01079723955395L31.77319862937927,94.65759784069064L31.926356028556825,90.7723978743315L32.03774322795868,87.94680268342496L32.19090062713623,84.06160271706582L32.399751626014705,78.76360515525342L32.63644942474365,72.75919563798908L32.70606642436981,70.99320522253514L32.789606823921204,68.87399567162994L32.91491742324829,65.69519450299741L32.942764223098756,64.98879570527077L33.221232221603394,57.92479457027913L33.611087419509886,48.03519824438095L33.62501081943512,47.68200542438028L33.69462781906128,45.916001851201045L34.36295101547241,28.96240439031122L34.613572214126584,22.604802053046214L34.669265813827515,21.192004457592944L35.351512410163885,17.66174728869825L35.36543581008911,17.661839392775292L35.43505280971527,17.66232622861108L35.65782720851898,17.664260414228934L36.08945260620117,17.66969455477434L36.20083980560303,17.671457689963404L36.52107800388336,17.67733919316872L36.883086401939394,17.685444351948306L37.370405399322514,17.698799443119213L37.38432879924775,17.699220490328543L37.746337197303774,17.711009812189758L37.96911159610748,17.719036024617594L37.983034996032714,17.719562333629256L38.414660393714904,17.736864742387624L38.73489859199524,17.751114558878356L38.7627453918457,17.75241717368222L39.041213390350336,17.76587752665546L39.41714518833161,17.78552201051572L39.472838788032526,17.788574602783356L39.500685587883,17.790114056642466L39.73738338661194,17.803561251890414L39.862693985939025,17.810955893504257L40.04369818496704,17.82195575184798L40.057621584892274,17.82282416171722L40.33608958339691,17.84054761768492L40.350012983322145,17.841455500730035L40.837331980705265,17.87475770344291L40.85125538063049,17.875757690565067L40.94871918010711,17.882770758145455L41.24111057853699,17.904481004876487L41.83981677532196,17.95208565498126L41.96512737464905,17.962585519763905L42.076514574050904,17.972072239699102L42.1600549736023,17.979282673158863L42.744837770462034,18.03205830930321L43.05115256881714,18.061307932626292L43.30177376747131,18.08605761389967L43.35746736717224,18.091662804873863L43.7333991651535,18.130425463582725L43.956173563957215,18.154175157733945L44.05363736343384,18.16475396886834L44.90296475887299,18.261647457915203L45.056122158050535,18.280028800147477L45.07004555797577,18.281712988984793L45.487747555732724,18.33329127212761L45.5155943555832,18.33679122705516L45.599134755134585,18.347383195914844L45.71052195453643,18.361633012405576L46.53200255012512,18.471184233182896L46.92185774803162,18.525946685846264L47.01932154750824,18.539907032380583L47.26994274616242,18.576340773712843L47.604104344367975,18.626050659864262L47.701568143844604,18.64078731219078L47.785108543396,18.653523990272987L47.96611274242401,18.681378894715166L48.24458074092865,18.724983596331313L48.27242754077911,18.729391434303977L48.88505713748932,18.828705944804483L48.99644433689117,18.847232022014964L49.0939081363678,18.86356075910176L49.149601736068725,18.872942217234623L49.344529335021974,18.906060211793417L49.45591653442383,18.925178386642017L49.95715893173218,19.013032518413596L50.20778013038635,19.058045096635936L50.500171528816225,19.11149177677015L50.890026726722716,19.184306628533506L51.112801125526424,19.22670081942283L51.15457132530212,19.234713874125376L51.19634152507783,19.242753244278504L51.34949892425537,19.27238444163504L51.87858812141418,19.376843622724536L52.15705611991882,19.43311921379643L52.7557623167038,19.557170247845022L53.07600051498413,19.62522200305284L53.60508971214295,19.74024683755144L53.95317471027374,19.817693208617413L54.12025550937653,19.855363776127078L54.14810230922699,19.861666326541723L54.52403410720825,19.94771784994836L54.92781270503998,20.041966636211626L55.15058710384369,20.094755430081264L55.26197430324554,20.12137350834604L55.401208302497864,20.154833603762413L55.48474870204926,20.175017554359627L55.693599700927734,20.225832689435535L55.74929330062866,20.239477250562857L56.25053569793702,20.36379143911728L56.29230589771271,20.374291303899923L56.946705694198606,20.54123652239892L57.002399293899536,20.555670547043732L57.26694389247894,20.624722289373707L57.32263749217987,20.639366837623186L57.44794809150696,20.672432201280813L58.25550528717041,20.889837296272844L58.28335208702088,20.897455619216643L58.64536048507691,20.997441173707017L58.93775188350678,21.079282225020364L58.965598683357236,21.08712422929412L59.00736888313293,21.098913551155334L59.160526282310485,21.142294571441525L59.216219882011416,21.158136472692533L59.23014328193665,21.162096948005285L59.3415304813385,21.193899170034925L59.60607507991791,21.270003453121163L59.647845279693605,21.282095402664083L59.74530907917023,21.310371354315592L59.85669627857208,21.34283146260981L60.218704676628114,21.449277460218326L60.26047487640381,21.46164572199237L60.3440152759552,21.486461191892204L60.90095127296448,21.65391956167757L61.19334267139435,21.743234200956508L61.87558926773072,21.955376205831925L61.97305306720734,21.98611265211295L62.11228706645966,22.030191031839593L62.48821886444092,22.150334221476598L62.683146463394166,22.213241306095426L62.822380462646485,22.25845125019714L62.97553786182403,22.30842429085439L63.100848461151124,22.349502709214562L63.28185266017914,22.40914667796109L63.44893345928192,22.46454070143845L63.68563125801086,22.543539684088827L63.93625245666504,22.627867545482275L63.964099256515496,22.637275319065722L63.978022656440736,22.64198578472009L64.07548645591736,22.675011675201844L64.54888205337525,22.836943800364764L64.7438096523285,22.904350827033298L64.85519685173034,22.943060854840994L64.95266065120697,22.977034101543737L65.0501244506836,23.011125767774104L65.0918946504593,23.02575715829829L65.41213284873962,23.13865044129966L65.80198804664612,23.27760917810356L66.03868584537506,23.36280544936625L66.73485584163666,23.616960071097537L66.83231964111327,23.65297276522047L67.055094039917,23.735669068677765L67.15255783939362,23.772023863658276L67.16648123931884,23.777221165148433L67.20825143909454,23.792839385069485L67.29179183864593,23.824128455812755L67.50064283752441,23.90269323352851L67.57025983715057,23.928995526386288L67.63987683677674,23.955350450145232L67.7094938364029,23.98174484708005L67.76518743610383,24.00290246934884L67.77911083602905,24.008205032641328L68.09934903430938,24.130585035577894L68.19681283378601,24.168058237208186L68.21073623371124,24.17341343140184L68.22465963363648,24.178781783320787L68.39174043273925,24.243307268150474L68.80944243049622,24.40596306820443L68.94867642974853,24.46059394361488L69.04614022922516,24.49897502829029L69.11575722885132,24.526448358699014L69.5473826265335,24.69795930787417L70.56379082107544,25.10984874040038L70.60556102085114,25.127019571905834L70.87010561943055,25.236176060924407L71.14857361793518,25.351898254863457L71.2042672176361,25.3751479554536L71.64981601524352,25.562316597725683L71.77512661457061,25.61534223065057L71.84474361419677,25.644868166204773L71.9839776134491,25.704091087741972L72.16498181247711,25.781379566104448L72.2902924118042,25.835102558469785L72.65230080986024,25.99123212677914L72.80545820903778,26.057718112677264L72.84722840881348,26.075888931304874L73.15354320716858,26.20974247069566L73.37631760597229,26.307714893216428L73.4737814054489,26.350740654919747L74.04464080238343,26.604803172573995L74.30918540096282,26.723709536033596L74.46234280014039,26.792892855616486L74.65727039909363,26.88129961185031L74.79650439834595,26.944706690030216L74.82435119819641,26.957403894936547L75.04712559700013,27.05933679277007L75.10281919670105,27.08490225301152L75.11674259662628,27.091296907503207L75.60406159400941,27.31643874496666L75.89645299243928,27.45272646353638L76.1331507911682,27.563725034095768L76.35592518997193,27.668710524196925L76.84324418735504,27.90020754297619L77.20525258541107,28.07378425502212L77.41410358428956,28.174546115304693L78.06850338077545,28.493199906415086L78.15204378032685,28.53419937842351L78.29127777957916,28.602685338565948L78.58366917800903,28.747183477717584L78.63936277770996,28.774801543104516L78.68113297748566,28.795538118163975L79.04314137554168,28.97602263598796L79.32160937404632,29.115770836309352L79.60007737255096,29.256308500148236L79.78108157157898,29.348096791781984L80.25447716903687,29.58972525903573L80.35194096851347,29.63976408831944L80.36586436843872,29.646921890878033L80.68610256671906,29.812038185561505L81.29873216342925,30.130836711650105L81.43796616268158,30.20383577156754L81.47973636245729,30.22576969962853L81.67466396141053,30.328360483726627L82.46829775714875,30.750026106144446L82.51006795692444,30.772394239140056L82.5379147567749,30.787315099620656L82.55183815670013,30.794788687586248L83.35939535236359,31.231033069627088L83.47078255176545,31.29172965639694L83.51255275154114,31.314518836601877L84.09733554840088,31.63539628328654L84.61250134563446,31.920892606662264L84.65427154541015,31.944155464977698L84.87704594421388,32.068522284433286L85.14159054279328,32.21683616391947L85.2808245420456,32.295177260305266L85.53144574069977,32.43667543809043L86.14407533740997,32.785157792436735L86.47823693561554,32.97680006130794L86.85416873359681,33.1936920050136L86.96555593299867,33.25821748984329L87.67564932918549,33.67242268202081L87.75918972873687,33.72147468190765L87.96804072761536,33.84439415158117L88.1211981267929,33.93480088205931L88.13512152671814,33.94303761809181L88.24650872612,34.008944664077106L89.24899352073669,34.60750274531432L89.45784451961516,34.73342217635431L89.4717679195404,34.7418299628156L89.54138491916656,34.78390836829793L89.83377631759643,34.96110345479903L90.02870391654967,35.079694032851634L90.33501871490479,35.26678372877197L90.34894211483002,35.275309934760884L91.05903551101684,35.712514830748006L91.18434611034394,35.790158567693354L91.26788650989532,35.842000005342L91.28180990982055,35.85064463085854L91.29573330974578,35.85930241410037L91.81089910697936,36.18058775026907L92.04759690570832,36.32904636473346L92.14506070518495,36.39033504914143L92.29821810436249,36.48680749097896L92.70199670219421,36.742198938887654L93.18931569957734,37.052444943536756L93.27285609912873,37.105852150495096L93.6905580968857,37.37383554150779L93.77409849643708,37.42762432249958L93.99687289524078,37.57138562903489L94.08041329479217,37.625398091356644L94.24749409389496,37.7336466973301L94.44242169284821,37.86025033008525L94.49811529254913,37.89648670553814L94.81835349082948,38.10539190999184L94.92974069023131,38.17827255038165L95.27782568836213,38.40675645006915L95.4449064874649,38.51680766440755L95.75122128582001,38.719239268017816L95.79299148559569,38.746909964305914L96.07145948410033,38.93177600465198L96.34992748260497,39.117339404438496L96.8790166797638,39.47180852379245L96.93471027946472,39.50926856769745L97.32456547737121,39.772252023099355L97.78403767490387,40.08391906207994L97.85365467453002,40.13131318858005L98.03465887355804,40.254706336364066L98.11819927310944,40.31175823322816L98.68905867004395,40.70325319155249L98.98145006847382,40.90488217391997L99.52446266555786,41.2812983790602L99.5383860654831,41.290995622600065L99.87254766368866,41.5239399911614L99.9282412633896,41.56286054257376L100.62441125965118,42.05160424852782L100.72187505912781,42.120366520901385L101.43196845531465,42.623741617379636L101.47373865509033,42.6534912342638L101.58512585449219,42.73287179094763L101.69651305389405,42.81237076715908L101.72435985374452,42.83226524779988L102.29521925067903,43.241457346641326L102.36483625030517,43.29153564910091L102.40660645008087,43.32161420911736L102.47622344970704,43.37177145792869L103.10277644634247,43.824976147870316L103.4647848443985,44.088314861855096L103.63186564350127,44.21022118668117L103.68755924320222,44.250918031007885L103.95210384178162,44.44453395867282L104.1191846408844,44.56711132748876L104.14703144073486,44.587558432591806L104.25841864013672,44.66943895708103L104.62042703819274,44.93622499509219L104.67612063789367,44.97736920207882L104.7318142375946,45.01853972451603L104.78750783729554,45.059723404678536L104.92674183654786,45.16281418233771L104.99635883617401,45.21441878093111L105.67860543251038,45.72220171538203L105.83176283168793,45.836713398594256L105.84568623161316,45.84713431702515L106.01276703071593,45.97229059999823L106.04061383056641,45.9931719100359L106.09630743026733,46.03494768783652L106.23554142951966,46.13951213072835L106.45831582832335,46.30712839321721L106.91778802585603,46.65409760915499L106.93171142578126,46.66463694711351L107.00132842540741,46.71735995235669L107.12663902473449,46.81235872896157L107.2101794242859,46.87576580714148L107.22410282421112,46.88634461827587L107.37726022338867,47.00273785620479L107.72534522151948,47.26797128263155L107.8645792207718,47.374325176163026L108.58859601688386,47.92984433797163L108.60251941680909,47.94056788408423L108.93668101501464,48.19838035344657L108.95060441493987,48.20913021500975L109.15945541381836,48.37072023931509L109.46577021217347,48.60832244262963L109.78600841045379,48.85750344420072L110.02270620918274,49.0421852763927L110.4404082069397,49.36912843443676L110.48217840671539,49.40189117041268L110.70495280551911,49.576875759064805L110.73279960536956,49.59877021394992L110.98342080402375,49.79612293559765L111.28973560237884,50.037975084181355L111.80490139961243,50.44629877315356L111.95805879878998,50.568086678452005L112.02767579841614,50.62349385965466L112.27829699707031,50.82326760275603L112.47322459602356,50.97897612385606L112.7516925945282,51.20188114801995L113.7124071893692,51.97529224065637L114.26934318637848,52.42670747995835L114.3668069858551,52.505930143938684L114.42250058555602,52.55123219211744L114.47819418525697,52.59656055574678L114.79843238353729,52.85760982553083L114.84020258331299,52.89171464948649L114.99335998249053,53.01687093245957L115.06297698211671,53.07380440979604L115.34144498062135,53.30191989317538L115.35536838054657,53.31334079872843L115.4528321800232,53.393326610775674L115.60598957920075,53.51914078001333L115.74522357845306,53.63365246322556L115.81484057807923,53.690967514595485L115.95407457733154,53.80568972141238L116.0654617767334,53.897570117123166L116.16292557621003,53.9780296072809L116.761631772995,54.47374690763948L117.69449956798555,55.25106584468749L117.73626976776123,55.286012763061805L118.37674616432189,55.82329531761634L118.55775036334992,55.975648618767025L118.58559716320038,55.99909568523654L118.59952056312561,56.01083237619659L118.90583536148071,56.26922378547175L119.07291616058349,56.410432493300505L119.29569055938721,56.59899585445349L119.50454155826569,56.77607252142697L119.53238835811615,56.799703796050565L119.56023515796662,56.82333507067416L119.69946915721894,56.94159670559448L120.01970735549926,57.214080038656874L120.11717115497589,57.297144758422334L120.31209875392913,57.463445248382044L120.53487315273286,57.65382437562526L120.71587735176087,57.8087302754825L120.84118795108795,57.91611047158672L120.93865175056457,57.99968834263855L120.9943453502655,58.047477200897404L121.384200548172,58.38253867544634L121.45381754779815,58.442485271874574L122.09429394435882,58.995333415449L122.63730654144287,59.46607735320424L122.76261714076996,59.574970687716984L122.87400434017181,59.671851019038556L122.97146813964844,59.75667887399308L123.45878713703156,60.181712874085534L123.58409773635863,60.29125093713756L123.61194453620911,60.3155927289269L123.79294873523712,60.47401174143698L123.9600295343399,60.6204045930306L124.22457413291932,60.85255949807444L124.28026773262023,60.90149307843366L124.32203793239594,60.93818997427175L124.41950173187256,61.02388623909552L124.90682072925567,61.45320965763301L125.14351852798463,61.662246439339626L125.38021632671355,61.87161216417853L125.6169141254425,62.08131998987501L125.89538212394714,62.32843522857533L125.92322892379761,62.35318490984871L126.21562032222748,62.61319471933473L126.2295437221527,62.625589296559355L126.35485432147979,62.737193122482154L126.36877772140502,62.74960085743207L126.81432651901245,63.1471615271158L126.87002011871338,63.196937201893675L126.95356051826478,63.27163360837372L127.1902583169937,63.483499301018014L127.3991093158722,63.67069425874068L128.09527931213378,64.29646251588079L128.29020691108704,64.47217077942395L128.42944091033937,64.59780074050752L128.49905790996553,64.66065519422519L128.61044510936736,64.76128547725484L128.81929610824585,64.95013830836425L129.487619304657,65.55607787349001L129.5850831041336,65.64465568015262L129.69647030353545,65.74594384944686L129.7243171033859,65.77127247063306L129.78001070308684,65.82194287073077L129.90532130241394,65.93603350673366L130.39264029979705,66.38047515163116L130.40656369972228,66.39319867198807L130.53187429904938,66.50769719747501L130.6711082983017,66.6350113473959L130.81034229755403,66.76243075911913L130.90780609703066,66.8516927674969L131.17235069561005,67.09421596007047L131.25589109516145,67.17087286761895L131.57612929344177,67.46506644741238L131.6735930929184,67.55471002982361L131.7571334924698,67.63159061870205L131.8545972919464,67.72132630519032L132.13306529045104,67.9779677370017L132.18875889015197,68.02934865426515L132.36976308918,68.19643860774235L132.73177148723602,68.53110535053254L132.96846928596497,68.75028673843893L132.99631608581544,68.77608903773563L134.0684178800583,69.77244462771182L134.30511567878725,69.99317862720261L134.44434967803954,70.12315063763239L134.77851127624513,70.43544924742697L135.00128567504882,70.64394656239664L135.2101366739273,70.83962825293234L135.3772174730301,70.99631044570394L135.39114087295533,71.00937606691843L135.4746812725067,71.08778295193069L135.53037487220766,71.14005859451396L135.73922587108612,71.33626659406133L135.75314927101135,71.34934537300111L135.96200026988984,71.54576389615315L136.43539586734772,71.99170552173385L136.53285966682435,72.0836385483458L136.68601706600188,72.2282024761239L137.42395726203918,72.92620664511453L137.5631912612915,73.05817862978863L137.6467316608429,73.13740129376896L137.66065506076814,73.15061164996166L138.0365868587494,73.50751494849455L138.3429016571045,73.79878751327325L138.37074845695497,73.8252871720104L138.42644205665587,73.87828648948471L138.50998245620727,73.95782493887204L138.62136965560913,74.06391567789768L138.94160785388948,74.36924069328775L138.99730145359038,74.42238474574026L139.31753965187073,74.7282097546914L139.33146305179594,74.74151221496115L139.44285025119783,74.84799768574554L139.49854385089876,74.90126015772567L139.58208425045012,74.98118018114646L139.8327054491043,75.2210981441123L139.94409264850617,75.32780729622665L140.05547984790803,75.43456907924217L140.1390202474594,75.51467331081703L140.26433084678652,75.6348822890805L140.47318184566495,75.8353797070729L141.11365824222565,76.45133230114553L141.18327524185182,76.51838406923119L141.23896884155272,76.57202811524478L141.3503560409546,76.67938199589841L141.40604964065554,76.73306551508787L141.50351344013214,76.8270511468453L141.85159843826293,77.16302050443936L141.90729203796388,77.21680928543115L142.29714723587037,77.59373864185775L142.68700243377685,77.97123378047189L143.0907810316086,78.36280768514797L143.17432143115997,78.4438987461197L143.45278942966462,78.71439526266307L143.536329829216,78.79559158543714L143.68948722839355,78.94453703573731L144.03757222652436,79.28333530426904L144.2742700252533,79.51397707090436L144.51096782398224,79.74481620341905L144.76158902263643,79.98944463203927L145.30460161972047,80.5202141125745L145.37421861934664,80.58833165640877L145.95900141620635,81.16120585787691L146.4463204135895,81.63944969904833L146.59947781276702,81.78992144548232L146.79440541172028,81.98153739890294L147.00325641059877,82.18698212160497L147.25387760925295,82.43368947082125L147.26780100917819,82.44739982057503L147.37918820858002,82.55710893405585L147.40703500843048,82.58455594901399L147.49057540798185,82.66687067843783L147.86650720596313,83.03757643080154L148.11712840461732,83.28496798173298L148.27028580379485,83.43622919168446L148.339902803421,83.5050177795086L148.38167300319674,83.54629356374815L148.52090700244904,83.6839233702976L148.64621760177613,83.80782966936799L149.4955449972153,84.64891094317878L149.5930087966919,84.74556101430774L149.82970659542084,84.98039351644842L150.3309489927292,85.47820947399099L150.48410639190675,85.63045751333934L151.11065938854216,86.25394948400401L151.58405498600007,86.725719724332L151.6954421854019,86.83681039896842L152.1270675830841,87.26757458842535L152.18276118278504,87.32319229323267L152.62830998039246,87.76841024392233L152.83716097927092,87.9772693963375L152.93462477874758,88.07477471961043L152.9485481786728,88.08870875069417L152.962471578598,88.1026427817779L153.18524597740173,88.3256070157056L153.79787557411194,88.93936884851719L153.95103297328947,89.09294581811999L154.41050517082215,89.55398593347272L154.54973917007447,89.69379334355793L155.0927517671585,90.2394178959473L155.19021556663515,90.33741663391865L155.3851431655884,90.53347989848781L155.58007076454163,90.72961553054607L155.74715156364442,90.89779099635983L156.262317360878,91.41669878754473L156.29016416072847,91.44475763672894L156.38762796020507,91.54299321375554L156.42939815998076,91.58510451355109L156.55470875930786,91.71143841293777L156.8749469575882,92.034440832257L157.19518515586853,92.35763403859298L157.585040353775,92.75133949476628L157.72427435302734,92.89201531472074L158.11412955093382,93.28608260833956L158.4065209493637,93.5818024842668L158.64321874809264,93.82129940002332L158.68498894786833,93.86356859252238L158.7128357477188,93.89175244009685L158.94953354644775,94.131367775381L158.97738034629822,94.15956478068075L159.13053774547578,94.31466146755471L159.57608654308316,94.7660635491314L159.81278434181212,95.00599466982254L159.93809494113924,95.1330456652376L159.99378854084014,95.18952520105152L160.14694594001767,95.34485872698073L160.45326073837282,95.6556178829162L160.63426493740081,95.83931288571132L161.07981373500826,96.29166890237165L161.21904773426056,96.43308813380507L161.38612853336335,96.60281621120322L161.44182213306428,96.65940100881947L161.52536253261565,96.74428149467516L161.56713273239137,96.78672831646566L161.70636673164367,96.92822649425082L161.85952413082123,97.08390869990026L161.9709113302231,97.19714408375921L161.98483473014832,97.2113017961729L162.0126815299988,97.23961064213763L162.38861332798004,97.62190835048318L162.55569412708283,97.79187326693659L162.65315792655943,97.8910298847336L162.987319524765,98.23107813716803L163.09870672416687,98.34445825600518L163.18224712371824,98.42949663456437L163.76702992057798,99.02496922922072L164.3378893175125,99.6065735814198L164.63028071594238,99.90457632268512L165.10367631340026,100.38720168637862L165.21506351280215,100.5007857499578L165.31252731227875,100.60017920681005L165.56314851093293,100.8557943360487L165.81376970958712,101.11144893846323L166.3289355068207,101.6370934849974L166.3707057065964,101.67971793607933L166.69094390487672,102.00655583232106L166.8719481039047,102.19131661086479L166.8997949037552,102.2197372974945L167.0390289030075,102.3618736249563L167.19218630218506,102.51823345345827L167.2061097021103,102.53245037563576L167.26180330181123,102.58931148548314L167.35926710128783,102.68881678300036L167.41496070098876,102.74568447171038L167.52634790039062,102.8594198491304L167.63773509979248,102.97315522655043L167.8187392988205,103.15799495144591L168.18074769687652,103.52770071668746L168.208594496727,103.55614113990512L168.79337729358673,104.15344923723964L168.84907089328763,104.21034324140024L169.41993029022217,104.79351994177165L169.89332588768005,105.27717160803789L169.94901948738098,105.33407219106113L170.0464832868576,105.43364985606746L170.21356408596037,105.60435818399984L170.68695968341828,106.08802958685402L170.71480648326875,106.11648316779696L170.8261936826706,106.2302909127061L171.03504468154907,106.44367632262156L171.0489680814743,106.4578998236617L171.16035528087616,106.57170098970819L171.2578190803528,106.67127865471453L171.38312967967988,106.79930990066381L171.50844027900695,106.92733456775045L171.52236367893218,106.9415580687906L171.5780572786331,106.99845865181383L171.96791247653962,107.39673641752596L172.48307827377317,107.92299279828619L172.5248484735489,107.96566330140664L172.99824407100675,108.44918339041996L173.1374780702591,108.59137892764558L173.76403106689452,109.2311798988091L173.86149486637115,109.33069177518898L173.90326506614687,109.37333596285885L174.2652734642029,109.74289699312219L174.3627372636795,109.84238255405148L174.89182646083833,110.38236244229078L174.90574986076354,110.39657278560564L175.00321366024016,110.49602545222172L175.0449838600159,110.538643324441L175.05890725994112,110.55285366775585L175.21206465911865,110.70911481331812L175.43483905792237,110.93638162341615L175.64369005680086,111.1494183536114L176.66009825134276,112.18572079757269L176.70186845111846,112.22829261775345L176.77148545074465,112.29923907252541L176.79933225059509,112.3276137071166L176.95248964977264,112.48368406566215L177.28665124797823,112.82412047099267L177.4119618473053,112.95175698518321L177.62081284618378,113.16445161452087L177.6765064458847,113.22116141052739L178.49798704147338,114.0573019584912L178.5119104413986,114.07146624976754L178.52583384132384,114.08563054104387L178.6372210407257,114.19894487125457L179.80678663444522,115.3879098229109L179.95994403362275,115.54348018789536L179.9877908334732,115.57176929727216L180.02956103324888,115.61418980361206L180.23841203212737,115.82626601986102L180.65611402988435,116.2502539807928L180.67003742980958,116.26437879889326L180.71180762958528,116.30676641091995L180.94850542831423,116.54689489749046L180.9902756280899,116.58926935179184L181.00419902801514,116.60338759102966L181.05989262771607,116.65987370570622L181.10166282749177,116.70223500228232L181.26874362659456,116.87166045199876L181.83960302352907,117.45019905420492L182.07630082225802,117.68993938787932L182.18768802165985,117.80272740907836L182.32692202091218,117.94368612012657L182.4243858203888,118.04233616549986L182.5218496198654,118.14097305314785L182.7724708185196,118.39453557724102L182.84208781814573,118.46495572300131L183.21801961612704,118.84505609122317L183.35725361537934,118.98577796321614L183.52433441448213,119.15459157870653L183.6496450138092,119.28117547487375L183.7749556131363,119.40772647672773L183.92811301231384,119.56236264321649L184.09519381141664,119.73101178714074L184.1230406112671,119.75911010950081L184.3875852098465,120.0260145670396L184.5685894088745,120.20855826887171L184.73567020797728,120.37700346805394L184.77744040775298,120.41910818898685L184.91667440700533,120.55942875035842L184.958444606781,120.6015137347034L184.98629140663147,120.6295725838876L185.4318402042389,121.07827075291688L185.68246140289304,121.33049118903031L185.80777200222016,121.45655535504851L186.01662300109865,121.66657896615199L186.03054640102388,121.68057878586218L186.23939739990232,121.89051029288862L186.64317599773406,122.29611691158811L186.6570993976593,122.31009699471038L186.99126099586488,122.6454874123916L187.0191077957153,122.67342126318553L187.53427359294892,123.18996066381796L187.60389059257506,123.25971634445104L187.81274159145354,123.46891759772379L187.86843519115448,123.52468661637197L188.0912095899582,123.74769690233819L188.28613718891145,123.94272728547196L188.8291497859955,124.48554924237423L188.9683837852478,124.62461324098047L189.0519241847992,124.7080332193288L189.10761778450012,124.76363118754819L189.40000918293,125.05541690361326L189.94302178001405,125.59671256438172L190.12402597904205,125.77697340087575L190.20756637859347,125.86013680358089L190.40249397754667,126.05412772641664L190.44426417732237,126.0956798228873L190.72273217582702,126.37259730937295L191.15435757350923,126.80139441889878L191.25182137298583,126.89814317296744L192.08722536849976,127.7263561914431L192.33784656715392,127.97442536522705L192.43531036663057,128.07085175502607L192.61631456565857,128.24984287102947L192.74162516498566,128.37370311806131L192.76947196483613,128.40122250050857L192.99224636363985,128.6212854560095L193.07578676319122,128.70377123586212L193.27071436214445,128.8961569162123L193.42387176132203,129.0472339180097L193.9390375585556,129.55486553861977L195.28960735130312,130.88165108384229L195.6376923494339,131.2226335347724L195.69338594913484,131.27715256951788L195.97185394763946,131.54958985054176L196.4174027452469,131.98493950726277L196.5984069442749,132.16160170588955L197.14141954135894,132.69089752119214L197.36419394016266,132.90774341285928L197.4755811395645,133.01609728063508L197.6426619386673,133.17854255708437L198.14390433597566,133.66527313106883L198.3249085350037,133.84081034418318L198.33883193492892,133.85430359146966L198.3806021347046,133.89479649105436L198.60337653350828,134.1106226590114L198.65907013320924,134.16454959611875L198.71476373291017,134.21846995436346L198.81222753238677,134.31279110811585L198.8679211320877,134.3666785720473L198.92361473178866,134.42054629939085L199.21600613021852,134.7031808175157L199.49447412872314,134.97205235498555L199.605861328125,135.07951807630417L199.68940172767637,135.16008282826422L200.12102712535858,135.57590642065261L200.31595472431184,135.76345663695815L200.4412653236389,135.88394192745272L200.74758012199402,136.1782012958726L200.80327372169495,136.23166113373213L201.03997152042388,136.45873057795077L201.13743531990053,136.55216358524598L201.19312891960146,136.60553789789108L201.4298267183304,136.83222576807628L201.81968191623687,137.20509596625047L201.90322231578827,137.28491072786892L202.09814991474153,137.47103990984297L202.1399201145172,137.51090123861366L203.0031709098816,138.3330880189058L203.03101770973205,138.35955478332974L203.47656650733947,138.7825953880405L203.54618350696563,138.84862085355343L203.64364730644223,138.94101440055059L203.71326430606842,139.0069806562997L203.92211530494689,139.20476429345072L204.1031195039749,139.3760186669827L204.2702003030777,139.53397058024493L204.43728110218046,139.69179420568557L204.4929747018814,139.74437576538187L205.1334510984421,140.3480357546009L205.43976589679718,140.63607809782053L205.46761269664765,140.66224223456274L205.57899989604948,140.76686259778705L205.63469349575044,140.81914810866428L205.82962109470367,141.00204377964795L206.0523954935074,141.21085030116197L206.13593589305876,141.28909271460807L206.24732309246065,141.39336110868084L206.42832729148864,141.5626747177323L206.63717829036713,141.75784325698166L206.8321058893204,141.93981130833225L206.9713398885727,142.0696780569597L207.0548802881241,142.14755205409764L207.08272708797455,142.17350237780389L207.33334828662873,142.4068908195938L207.6118162851334,142.6658480110565L207.82066728401182,142.85981590787299L209.57501567459107,144.48053516781442L210.21549207115174,145.0683072037439L210.22941547107698,145.08106032898272L210.43826646995547,145.27224536690005L210.56357706928253,145.38684915418932L211.00912586688997,145.7936465470277L211.23190026569364,145.99665051168813L211.60783206367492,146.33861650258382L211.66352566337585,146.3892112457611L211.71921926307678,146.43979283121308L211.80275966262818,146.51563067036216L211.84452986240387,146.55353478749575L212.12299786090853,146.80599206266442L212.58247005844115,147.22161499974212L213.26471665477754,147.8366005010058L213.27864005470278,147.84912336605203L213.41787405395507,147.97430267504436L213.44572085380554,147.99932208968622L213.6406484527588,148.1743560198082L213.7381122522354,148.26179239380176L214.29504824924467,148.7603945254305L214.32289504909514,148.78527907338812L214.4203588485718,148.87233387334823L214.4760524482727,148.92205691722495L214.54566944789886,148.98418440662024L214.57351624774932,149.00902948140197L214.9076778459549,149.3068019624747L214.93552464580537,149.3315845380613L214.97729484558107,149.3687551120099L215.10260544490814,149.4802010452292L215.20006924438476,149.56681835082335L215.22791604423523,149.59155816380277L215.36715004348756,149.71517828234806L216.7873368358612,150.96956673358522L217.2746558332443,151.39720925271672L217.74805143070222,151.8112499733281L218.15183002853394,152.16331780781636L218.22144702816007,152.2239157116465L218.3467576274872,152.33292088682424L218.43029802703856,152.40553508327687L218.7087660255432,152.64726881233295L218.72268942546845,152.65934431471928L219.2657020225525,153.1292823418004L219.47455302143098,153.30953331000046L219.65555722045897,153.4655280116256L219.66948062038423,153.4775179887975L220.60234841537476,154.27808333700432L220.6162718153,154.28999107839317L220.96435681343078,154.58724053988556L221.1453610124588,154.74149842177218L221.64660340976715,155.16755872443738L222.37062020587922,155.78005083675833L222.48200740528108,155.8739706798893L222.4959308052063,155.88570408141803L223.30348800086975,156.56406047711707L223.59587939929963,156.80858693336629L223.6654963989258,156.86672105313562L224.4452067947388,157.51556467100576L224.91860239219665,157.90746093995148L224.9882193918228,157.9649634889068L225.86539358711244,158.68656603820781L225.9350105867386,158.7436047773466L226.17170838546753,158.93727991477536L226.2413253850937,158.99416734007332L226.2830955848694,159.02828532175425L226.4640997838974,159.1759774987204L226.57548698329924,159.2667493560754L226.7147209825516,159.38009000173668L226.8539549818039,159.49328920185107L226.90964858150483,159.538532040266L227.341273979187,159.88839924519925L227.61974197769166,160.11340621597847L228.21844817447663,160.59526843160506L228.301988574028,160.66229717367145L228.35768217372893,160.70695449331092L228.45514597320556,160.78504888234752L228.65007357215882,160.94103042624732L228.74753737163545,161.01891429167927L228.9424649705887,161.17447807780107L229.98671996498106,162.00303977599697L230.15380076408385,162.13485386796756L230.55757936191557,162.45253398740638L230.62719636154176,162.50718459940478L230.72466016101836,162.5836309833486L230.7385835609436,162.5945453164779L231.0448983592987,162.83430209730895L231.05882175922395,162.84518353612503L231.3094429578781,163.04078956974033L231.67145135593412,163.32248659993812L231.782838555336,163.40895917055408L231.79676195526125,163.41976166301842L231.99168955421447,163.57083866481582L232.06130655384064,163.6247261287473L232.1726937532425,163.71086317736834L232.67393615055084,164.09729899031808L232.72962975025177,164.14011751784807L232.77139995002747,164.17221249926544L232.8688637495041,164.2470536407237L233.89919534397126,165.0336586423962L234.01058254337312,165.1181970273943L234.37259094142914,165.39226586635434L234.7485227394104,165.67577208377972L235.20799493694307,166.02074132547318L235.40292253589632,166.16658155260455L235.63962033462522,166.34326019838795L235.9320117330551,166.56088568527863L236.12693933200836,166.7055828350253L236.36363713073732,166.8808716960748L236.39148393058775,166.90146353615603L236.55856472969057,167.0248846441063L236.8370327281952,167.23007772531213L237.04588372707366,167.38355436725956L238.00659832191468,168.08491704563087L238.38253011989593,168.3572786697343L238.50784071922303,168.44780381974007L238.64707471847532,168.54823344745904L238.70276831817625,168.58835957545125L238.8559257173538,168.69857197192445L239.05085331630707,168.83855865601677L239.4128617143631,169.09768360847693L239.46855531406402,169.13744954373928L240.38749970912932,169.7898079189779L240.4988869085312,169.8683924332816L240.52673370838167,169.8880221147009L240.97228250598906,170.2011907790804L242.43423949813845,171.21674184554126L242.60132029724122,171.33162194506167L242.93548189544677,171.5606469562018L243.1164860944748,171.684291745482L243.33926049327852,171.8360759750138L243.39495409297942,171.87395377669682L243.46457109260558,171.92126237798254L243.4784944925308,171.93071949303584L243.49241789245605,171.9401733186578L243.548111492157,171.97797546342036L243.57595829200744,171.9968666675077L243.88227309036256,172.20421432623002L244.02150708961486,172.29818680026216L244.1189708890915,172.36386687548617L244.43920908737184,172.57907298563885L244.9126046848297,172.89552943662557L245.06576208400728,172.99748371576268L245.07968548393248,173.00674182022095L245.33030668258667,173.17308836221918L245.39992368221283,173.21919632107202L245.5948512811661,173.34806472729298L245.73408528041838,173.43990400511223L245.80370228004458,173.48575703303757L245.83154907989504,173.5040857443687L245.8733192796707,173.53156729835572L246.05432347869873,173.65046708295267L246.0821702785492,173.66873329508866L246.2214042778015,173.7599590939662" fill="none"></path></g></g></g></g></g></g><g transform="translate(51, 176)" clip-path="url(#clip_1)"><clipPath id="clip_1"><rect width="278" height="23"></rect></clipPath><g><g><line x1="0" y1="0" x2="0" y2="5" style="visibility: inherit;" fill="rgb(0, 0, 0)" stroke="rgb(204, 204, 204)" stroke-width="1px"></line><line x1="27.846799850463867" y1="0" x2="27.846799850463867" y2="5" style="visibility: inherit;" fill="rgb(0, 0, 0)" stroke="rgb(204, 204, 204)" stroke-width="1px"></line><line x1="55.693599700927734" y1="0" x2="55.693599700927734" y2="5" style="visibility: inherit;" fill="rgb(0, 0, 0)" stroke="rgb(204, 204, 204)" stroke-width="1px"></line><line x1="83.5403995513916" y1="0" x2="83.5403995513916" y2="5" style="visibility: inherit;" fill="rgb(0, 0, 0)" stroke="rgb(204, 204, 204)" stroke-width="1px"></line><line x1="111.38719940185547" y1="0" x2="111.38719940185547" y2="5" style="visibility: inherit;" fill="rgb(0, 0, 0)" stroke="rgb(204, 204, 204)" stroke-width="1px"></line><line x1="139.23399925231934" y1="0" x2="139.23399925231934" y2="5" style="visibility: inherit;" fill="rgb(0, 0, 0)" stroke="rgb(204, 204, 204)" stroke-width="1px"></line><line x1="167.0807991027832" y1="0" x2="167.0807991027832" y2="5" style="visibility: inherit;" fill="rgb(0, 0, 0)" stroke="rgb(204, 204, 204)" stroke-width="1px"></line><line x1="194.92759895324707" y1="0" x2="194.92759895324707" y2="5" style="visibility: inherit;" fill="rgb(0, 0, 0)" stroke="rgb(204, 204, 204)" stroke-width="1px"></line><line x1="222.77439880371094" y1="0" x2="222.77439880371094" y2="5" style="visibility: inherit;" fill="rgb(0, 0, 0)" stroke="rgb(204, 204, 204)" stroke-width="1px"></line><line x1="250.6211986541748" y1="0" x2="250.6211986541748" y2="5" style="visibility: inherit;" fill="rgb(0, 0, 0)" stroke="rgb(204, 204, 204)" stroke-width="1px"></line><line x1="278.4679985046387" y1="0" x2="278.4679985046387" y2="5" style="visibility: inherit;" fill="rgb(0, 0, 0)" stroke="rgb(204, 204, 204)" stroke-width="1px"></line></g><g transform="translate(0, 8)"><text style="text-anchor: middle; visibility: hidden; font-family: Roboto, sans-serif; font-size: 12px; font-weight: 200;" x="0" y="0" dx="0em" dy="0.95em" fill="rgb(33, 33, 33)" stroke="none" stroke-width="1px">-2k</text><text style="text-anchor: middle; visibility: inherit; font-family: Roboto, sans-serif; font-size: 12px; font-weight: 200;" x="27.846799850463867" y="0" dx="0em" dy="0.95em" fill="rgb(33, 33, 33)" stroke="none" stroke-width="1px">0</text><text style="text-anchor: middle; visibility: inherit; font-family: Roboto, sans-serif; font-size: 12px; font-weight: 200;" x="55.693599700927734" y="0" dx="0em" dy="0.95em" fill="rgb(33, 33, 33)" stroke="none" stroke-width="1px">2k</text><text style="text-anchor: middle; visibility: inherit; font-family: Roboto, sans-serif; font-size: 12px; font-weight: 200;" x="83.5403995513916" y="0" dx="0em" dy="0.95em" fill="rgb(33, 33, 33)" stroke="none" stroke-width="1px">4k</text><text style="text-anchor: middle; visibility: inherit; font-family: Roboto, sans-serif; font-size: 12px; font-weight: 200;" x="111.38719940185547" y="0" dx="0em" dy="0.95em" fill="rgb(33, 33, 33)" stroke="none" stroke-width="1px">6k</text><text style="text-anchor: middle; visibility: inherit; font-family: Roboto, sans-serif; font-size: 12px; font-weight: 200;" x="139.23399925231934" y="0" dx="0em" dy="0.95em" fill="rgb(33, 33, 33)" stroke="none" stroke-width="1px">8k</text><text style="text-anchor: middle; visibility: inherit; font-family: Roboto, sans-serif; font-size: 12px; font-weight: 200;" x="167.0807991027832" y="0" dx="0em" dy="0.95em" fill="rgb(33, 33, 33)" stroke="none" stroke-width="1px">10k</text><text style="text-anchor: middle; visibility: inherit; font-family: Roboto, sans-serif; font-size: 12px; font-weight: 200;" x="194.92759895324707" y="0" dx="0em" dy="0.95em" fill="rgb(33, 33, 33)" stroke="none" stroke-width="1px">12k</text><text style="text-anchor: middle; visibility: inherit; font-family: Roboto, sans-serif; font-size: 12px; font-weight: 200;" x="222.77439880371094" y="0" dx="0em" dy="0.95em" fill="rgb(33, 33, 33)" stroke="none" stroke-width="1px">14k</text><text style="text-anchor: middle; visibility: inherit; font-family: Roboto, sans-serif; font-size: 12px; font-weight: 200;" x="250.6211986541748" y="0" dx="0em" dy="0.95em" fill="rgb(33, 33, 33)" stroke="none" stroke-width="1px">16k</text><text style="text-anchor: middle; visibility: hidden; font-family: Roboto, sans-serif; font-size: 12px; font-weight: 200;" x="278.4679985046387" y="0" dx="0em" dy="0.95em" fill="rgb(33, 33, 33)" stroke="none" stroke-width="1px">18k</text></g><line x1="0" y1="0" x2="278.4679985046387" y2="0" fill="rgb(0, 0, 0)" stroke="rgb(204, 204, 204)" stroke-width="1px"></line></g></g></g></g></svg>