<svg viewBox="0 0 330 200" xmlns="http://www.w3.org/2000/svg"><g><g><g><g><g><line x1="51.53200149536133" y1="176.89999961853027" x2="46.53200149536133" y2="176.89999961853027" style="visibility: inherit;" fill="rgb(0, 0, 0)" stroke="rgb(204, 204, 204)" stroke-width="1px"></line><line x1="51.53200149536133" y1="159.20999965667724" x2="46.53200149536133" y2="159.20999965667724" style="visibility: inherit;" fill="rgb(0, 0, 0)" stroke="rgb(204, 204, 204)" stroke-width="1px"></line><line x1="51.53200149536133" y1="141.51999969482424" x2="46.53200149536133" y2="141.51999969482424" style="visibility: inherit;" fill="rgb(0, 0, 0)" stroke="rgb(204, 204, 204)" stroke-width="1px"></line><line x1="51.53200149536133" y1="123.82999973297119" x2="46.53200149536133" y2="123.82999973297119" style="visibility: inherit;" fill="rgb(0, 0, 0)" stroke="rgb(204, 204, 204)" stroke-width="1px"></line><line x1="51.53200149536133" y1="106.13999977111816" x2="46.53200149536133" y2="106.13999977111816" style="visibility: inherit;" fill="rgb(0, 0, 0)" stroke="rgb(204, 204, 204)" stroke-width="1px"></line><line x1="51.53200149536133" y1="88.44999980926514" x2="46.53200149536133" y2="88.44999980926514" style="visibility: inherit;" fill="rgb(0, 0, 0)" stroke="rgb(204, 204, 204)" stroke-width="1px"></line><line x1="51.53200149536133" y1="70.75999984741212" x2="46.53200149536133" y2="70.75999984741212" style="visibility: inherit;" fill="rgb(0, 0, 0)" stroke="rgb(204, 204, 204)" stroke-width="1px"></line><line x1="51.53200149536133" y1="53.06999988555909" x2="46.53200149536133" y2="53.06999988555909" style="visibility: inherit;" fill="rgb(0, 0, 0)" stroke="rgb(204, 204, 204)" stroke-width="1px"></line><line x1="51.53200149536133" y1="35.379999923706045" x2="46.53200149536133" y2="35.379999923706045" style="visibility: inherit;" fill="rgb(0, 0, 0)" stroke="rgb(204, 204, 204)" stroke-width="1px"></line><line x1="51.53200149536133" y1="17.689999961853022" x2="46.53200149536133" y2="17.689999961853022" style="visibility: inherit;" fill="rgb(0, 0, 0)" stroke="rgb(204, 204, 204)" stroke-width="1px"></line><line x1="51.53200149536133" y1="0" x2="46.53200149536133" y2="0" style="visibility: inherit;" fill="rgb(0, 0, 0)" stroke="rgb(204, 204, 204)" stroke-width="1px"></line></g><g transform="translate(41.53200149536133, 0)"><text style="text-anchor: end; visibility: hidden; font-family: Roboto, sans-serif; font-size: 12px; font-weight: 200;" x="0" y="176.89999961853027" dx="0em" dy="0.3em" fill="rgb(33, 33, 33)" stroke="none" stroke-width="1px">-0.5</text><text style="text-anchor: end; visibility: inherit; font-family: Roboto, sans-serif; font-size: 12px; font-weight: 200;" x="0" y="159.20999965667724" dx="0em" dy="0.3em" fill="rgb(33, 33, 33)" stroke="none" stroke-width="1px">0</text><text style="text-anchor: end; visibility: hidden; font-family: Roboto, sans-serif; font-size: 12px; font-weight: 200;" x="0" y="141.51999969482424" dx="0em" dy="0.3em" fill="rgb(33, 33, 33)" stroke="none" stroke-width="1px">0.5</text><text style="text-anchor: end; visibility: inherit; font-family: Roboto, sans-serif; font-size: 12px; font-weight: 200;" x="0" y="123.82999973297119" dx="0em" dy="0.3em" fill="rgb(33, 33, 33)" stroke="none" stroke-width="1px">1</text><text style="text-anchor: end; visibility: hidden; font-family: Roboto, sans-serif; font-size: 12px; font-weight: 200;" x="0" y="106.13999977111816" dx="0em" dy="0.3em" fill="rgb(33, 33, 33)" stroke="none" stroke-width="1px">1.5</text><text style="text-anchor: end; visibility: inherit; font-family: Roboto, sans-serif; font-size: 12px; font-weight: 200;" x="0" y="88.44999980926514" dx="0em" dy="0.3em" fill="rgb(33, 33, 33)" stroke="none" stroke-width="1px">2</text><text style="text-anchor: end; visibility: hidden; font-family: Roboto, sans-serif; font-size: 12px; font-weight: 200;" x="0" y="70.75999984741212" dx="0em" dy="0.3em" fill="rgb(33, 33, 33)" stroke="none" stroke-width="1px">2.5</text><text style="text-anchor: end; visibility: inherit; font-family: Roboto, sans-serif; font-size: 12px; font-weight: 200;" x="0" y="53.06999988555909" dx="0em" dy="0.3em" fill="rgb(33, 33, 33)" stroke="none" stroke-width="1px">3</text><text style="text-anchor: end; visibility: hidden; font-family: Roboto, sans-serif; font-size: 12px; font-weight: 200;" x="0" y="35.379999923706045" dx="0em" dy="0.3em" fill="rgb(33, 33, 33)" stroke="none" stroke-width="1px">3.5</text><text style="text-anchor: end; visibility: inherit; font-family: Roboto, sans-serif; font-size: 12px; font-weight: 200;" x="0" y="17.689999961853022" dx="0em" dy="0.3em" fill="rgb(33, 33, 33)" stroke="none" stroke-width="1px">4</text><text style="text-anchor: end; visibility: hidden; font-family: Roboto, sans-serif; font-size: 12px; font-weight: 200;" x="0" y="0" dx="0em" dy="0.3em" fill="rgb(33, 33, 33)" stroke="none" stroke-width="1px">4.5</text></g><line x1="51.53200149536133" y1="0" x2="51.53200149536133" y2="176.89999961853027" fill="rgb(0, 0, 0)" stroke="rgb(204, 204, 204)" stroke-width="1px"></line></g></g><g transform="translate(51, 0)" clip-path="url(#clip_0)"><clipPath id="clip_0"><rect width="278" height="176"></rect></clipPath><g><g><g><line x1="0" y1="0" x2="0" y2="176.89999961853027" fill="rgb(0, 0, 0)" stroke="rgb(66, 66, 66)" stroke-width="1px" opacity="0.25"></line><line x1="23.205666542053223" y1="0" x2="23.205666542053223" y2="176.89999961853027" fill="rgb(0, 0, 0)" stroke="rgb(66, 66, 66)" stroke-width="1px" opacity="0.25"></line><line x1="46.411333084106445" y1="0" x2="46.411333084106445" y2="176.89999961853027" fill="rgb(0, 0, 0)" stroke="rgb(66, 66, 66)" stroke-width="1px" opacity="0.25"></line><line x1="69.61699962615967" y1="0" x2="69.61699962615967" y2="176.89999961853027" fill="rgb(0, 0, 0)" stroke="rgb(66, 66, 66)" stroke-width="1px" opacity="0.25"></line><line x1="92.82266616821289" y1="0" x2="92.82266616821289" y2="176.89999961853027" fill="rgb(0, 0, 0)" stroke="rgb(66, 66, 66)" stroke-width="1px" opacity="0.25"></line><line x1="116.02833271026611" y1="0" x2="116.02833271026611" y2="176.89999961853027" fill="rgb(0, 0, 0)" stroke="rgb(66, 66, 66)" stroke-width="1px" opacity="0.25"></line><line x1="139.23399925231934" y1="0" x2="139.23399925231934" y2="176.89999961853027" fill="rgb(0, 0, 0)" stroke="rgb(66, 66, 66)" stroke-width="1px" opacity="0.25"></line><line x1="162.43966579437256" y1="0" x2="162.43966579437256" y2="176.89999961853027" fill="rgb(0, 0, 0)" stroke="rgb(66, 66, 66)" stroke-width="1px" opacity="0.25"></line><line x1="185.64533233642578" y1="0" x2="185.64533233642578" y2="176.89999961853027" fill="rgb(0, 0, 0)" stroke="rgb(66, 66, 66)" stroke-width="1px" opacity="0.25"></line><line x1="208.850998878479" y1="0" x2="208.850998878479" y2="176.89999961853027" fill="rgb(0, 0, 0)" stroke="rgb(66, 66, 66)" stroke-width="1px" opacity="0.25"></line><line x1="232.05666542053223" y1="0" x2="232.05666542053223" y2="176.89999961853027" fill="rgb(0, 0, 0)" stroke="rgb(66, 66, 66)" stroke-width="1px" opacity="0.25"></line><line x1="255.26233196258545" y1="0" x2="255.26233196258545" y2="176.89999961853027" fill="rgb(0, 0, 0)" stroke="rgb(66, 66, 66)" stroke-width="1px" opacity="0.25"></line><line x1="278.4679985046387" y1="0" x2="278.4679985046387" y2="176.89999961853027" fill="rgb(0, 0, 0)" stroke="rgb(66, 66, 66)" stroke-width="1px" opacity="0.25"></line></g><g><line x1="0" y1="176.89999961853027" x2="278.4679985046387" y2="176.89999961853027" fill="rgb(0, 0, 0)" stroke="rgb(66, 66, 66)" stroke-width="1px" opacity="0.25"></line><line x1="0" y1="159.20999965667724" x2="278.4679985046387" y2="159.20999965667724" fill="rgb(0, 0, 0)" stroke="rgb(66, 66, 66)" stroke-width="1px" opacity="0.25"></line><line x1="0" y1="141.51999969482424" x2="278.4679985046387" y2="141.51999969482424" fill="rgb(0, 0, 0)" stroke="rgb(66, 66, 66)" stroke-width="1px" opacity="0.25"></line><line x1="0" y1="123.82999973297119" x2="278.4679985046387" y2="123.82999973297119" fill="rgb(0, 0, 0)" stroke="rgb(66, 66, 66)" stroke-width="1px" opacity="0.25"></line><line x1="0" y1="106.13999977111816" x2="278.4679985046387" y2="106.13999977111816" fill="rgb(0, 0, 0)" stroke="rgb(66, 66, 66)" stroke-width="1px" opacity="0.25"></line><line x1="0" y1="88.44999980926514" x2="278.4679985046387" y2="88.44999980926514" fill="rgb(0, 0, 0)" stroke="rgb(66, 66, 66)" stroke-width="1px" opacity="0.25"></line><line x1="0" y1="70.75999984741212" x2="278.4679985046387" y2="70.75999984741212" fill="rgb(0, 0, 0)" stroke="rgb(66, 66, 66)" stroke-width="1px" opacity="0.25"></line><line x1="0" y1="53.06999988555909" x2="278.4679985046387" y2="53.06999988555909" fill="rgb(0, 0, 0)" stroke="rgb(66, 66, 66)" stroke-width="1px" opacity="0.25"></line><line x1="0" y1="35.379999923706045" x2="278.4679985046387" y2="35.379999923706045" fill="rgb(0, 0, 0)" stroke="rgb(66, 66, 66)" stroke-width="1px" opacity="0.25"></line><line x1="0" y1="17.689999961853022" x2="278.4679985046387" y2="17.689999961853022" fill="rgb(0, 0, 0)" stroke="rgb(66, 66, 66)" stroke-width="1px" opacity="0.25"></line><line x1="0" y1="0" x2="278.4679985046387" y2="0" fill="rgb(0, 0, 0)" stroke="rgb(66, 66, 66)" stroke-width="1px" opacity="0.25"></line></g></g></g><g><g><line x1="0" y1="159.20999965667724" x2="278.4679985046387" y2="159.20999965667724" fill="rgb(0, 0, 0)" stroke="rgb(153, 153, 153)" stroke-width="1.5px"></line></g></g><g><g><line x1="23.205666542053223" y1="0" x2="23.205666542053223" y2="176.89999961853027" fill="rgb(0, 0, 0)" stroke="rgb(153, 153, 153)" stroke-width="1.5px"></line></g></g><g><g><g><g><g><path style="fill: none;" stroke="rgb(255, 112, 67)" stroke-width="2px" d="M30.933153500556948,-4.516716482186525L31.234827165603637,0.9680627251898367L31.443678164482115,7.547786717909858L31.95420282840729,9.18865465636566L32.116642494201656,13.115282407798L32.30228782653809,15.700023019807885L32.71998982429504,20.122334223475693L32.95204648971558,23.290554577932426L33.04486915588379,20.53817138614728L33.30013148784637,21.316984034831364L33.369748487472535,28.660713854714345L33.39295415401459,28.17213178037053L33.416159820556636,28.899067357174513L33.62501081943512,33.013051388198924L34.042712817192076,34.375034018059665L34.06591848373413,38.09411131554885L34.69247148036957,41.74367831171151L34.97093947887421,48.21361246990581L35.202996144294744,50.11797262728963L35.34223014354706,50.091395685300625L35.45825847625732,56.316157377133216L35.85275480747223,59.548516468511586L36.38648513793945,55.34990466911861L36.40969080448151,55.78401959605384L36.52571913719177,52.53105200583628L36.7113644695282,56.403750366758096L36.734570136070246,62.322270193430164L37.036243801116946,63.7220830981008L37.05944946765899,69.48910118611323L37.33791746616364,67.25774566020284L37.4539457988739,68.85199674568035L37.662796797752385,71.80587946968615L37.87164779663086,72.05962129303329L38.1501157951355,69.40639694118701L38.28934979438782,71.96455100521197L38.8462857913971,79.04406103115775L38.98551979064942,86.62116669774879L39.00872545719147,86.82906665796203L39.12475378990174,92.54339422274454L39.21757645606995,93.42570616017129L39.44963312149048,90.80659940241483L39.774512453079225,86.79258406823806L39.913746452331544,92.74937786788165L40.099391784667965,88.8156503766263L40.30824278354645,94.03631414933898L40.56350511550903,101.32247210859921L40.633122115135194,93.09627724762532L40.70273911476135,96.41474195386658L41.25967511177063,93.67708749618245L41.30608644485474,98.53336179669347L41.46852611064911,102.87785263123905L41.60776010990143,89.08820399715772L41.67737710952759,92.49878719751841L41.70058277606964,102.55157884241297L42.698426437377925,103.27619985519821L42.88407176971435,106.96322669779951L42.93048310279846,106.85303646681565L43.16253976821899,113.3561325343963L43.324979434013365,113.88588791781203L43.34818510055542,111.86327662959306L43.580241765975956,109.80461934334733L43.69627009868622,105.12176987344363L43.88191543102264,108.20958161738254L43.951532430648804,112.16838171157241L43.99794376373291,105.12981556646264L44.09076642990112,109.38184753775654L44.13717776298523,110.76870539491874L44.2532060956955,114.06369696547733L44.36923442840576,118.21914565372519L44.50846842765808,116.1118433891679L44.69411375999451,111.57490921156275L44.85655342578888,114.51521684769628L44.9957874250412,115.90636096387223L45.18143275737763,113.64921139593355L45.343872423171995,117.76104418671808L45.483106422424314,112.55633185075486L45.691957421302796,105.55563813979019L45.87760275363922,102.70896470814374L45.924014086723325,110.07847659027432L46.01683675289154,110.12991479281956L46.364921751022344,111.72112338358937L46.4809500837326,115.5828918820022L46.57377274990082,112.98839748016663L46.71300674915314,112.20237220886337L47.29314841270447,120.06664586782745L47.571616411209106,115.720029830679L48.035729742050165,118.46249160859534L48.54625440597535,114.48210276645632L48.824722404479985,114.11530610232168L48.87113373756409,118.88074387067797L49.17280740261078,122.81920558026783L49.91538873195648,119.27588054966662L50.0546227312088,117.43104251312148L50.17065106391907,116.27557964796415L50.28667939662934,110.1317002560532L50.309885063171386,113.88313008167437L50.495530395507814,114.25412856032446L50.72758706092834,121.54616838239194L51.029260725975035,121.93212668975252L51.122083392143246,125.56506412410951L51.14528905868531,119.87483345289097L51.284523057937626,125.48927304887897L51.400551390647884,118.20957499776898L51.5397853899002,119.94077882851154L52.25916105270386,124.59426863625198L52.8857140493393,124.21357508266972L53.07135938167572,127.78007639228812L53.187387714385984,129.95868485009484L53.51226704597474,130.59596966194118L53.69791237831116,127.28345841590341L53.88355771064759,122.9599949472438L54.27805404186248,127.3824517172505L54.53331637382507,133.7568559622707L54.7189617061615,136.23992946615527L54.7653730392456,136.97178881365085L54.834990038871766,129.30863826530359L54.95101837158203,133.70040232059634L54.99742970466614,129.40943275357068L55.13666370391846,129.05279522243967L55.50795436859131,130.9749417427338L55.57757136821747,133.19981673450863L55.7632167005539,131.80744342612854L55.786422367095945,132.67129704058559L55.809628033638,135.14394175509426L55.97206769943238,136.24112668338762L56.737854695320124,138.60368191464266L57.06273402690887,138.8704850906672L57.225173692703244,136.7477051085045L57.31799635887146,138.5944855225121L57.434024691581726,139.02381987040272L58.13019468784332,141.9928200246818L58.339045686721796,138.01962555568394L58.36225135326386,141.79479051078397L58.66392501831055,141.9744259263294L58.71033635139466,131.59831248390878L59.17444968223572,131.44429638290248L59.592151679992675,136.588300544625L59.87061967849731,136.91274598584687L60.00985367774963,138.1301703589702L60.28832167625427,139.17633274583525L60.40435000896454,142.5734912315525L60.450761342048644,140.51546730105449L60.8684633398056,138.50128989206817L60.89166900634766,141.61935103378204L60.93808033943176,140.5849258995138L61.2165483379364,141.61277496578862L61.35578233718872,141.5611967177856L61.471810669898986,138.08742638163258L61.58783900260926,138.33955278574237L61.72707300186158,143.24660869302608L62.16798066616059,144.35857112318337L62.237597665786744,142.07937673094187L62.49285999774933,141.16328764589304L62.60888833045959,141.65355872265056L62.678505330085756,140.6538216064806L63.09620732784271,138.91847331200555L63.3514696598053,142.37558709478532L63.6995546579361,145.25774980240828L63.7459659910202,146.4592302589308L64.16366798877716,143.88594448294108L64.23328498840331,144.07577440521004L64.27969632148742,146.9249335373654L64.30290198802948,146.94675832022472L64.62778131961822,145.89096539012124L64.76701531887055,142.06691394008683L65.0918946504593,137.55988343494488L65.13830598354339,141.82863360742368L65.55600798130035,141.41022974089591L65.67203631401063,142.60400391566634L65.74165331363677,141.34806664255493L65.76485898017883,140.00643918596208L65.85768164634705,140.27183511570405L66.275383644104,141.48635610328043L66.64667430877685,142.7429128566753L67.15719897270203,144.99883414912568L67.29643297195435,140.7996714977271L67.43566697120667,143.33738254466414L67.55169530391693,146.4345800465061L67.69092930316926,147.498095616586L67.94619163513184,144.74380411756064L68.0622199678421,144.48416555547377L68.34068796634675,146.35130366324898L68.66556729793548,146.6945988434324L68.71197863101959,146.3873888798952L69.22250329494476,145.63081558855376L69.33853162765503,143.8725256387784L69.4081486272812,142.64282728879678L69.57058829307556,146.6955280743857L69.82585062503814,146.59433335039517L69.94187895774841,148.85100219215596L70.01149595737458,146.316906917462L70.10431862354278,145.56512365540698L70.28996395587922,148.25013093140154L71.2878076171875,146.55462553850347L71.5430699491501,146.92332149106002L71.937566280365,144.76166885899218L72.28565127849579,145.67832963398672L72.44809094429016,147.25694064449482L72.91220427513122,147.68419897250186L72.93540994167329,150.27178695072917L73.14426094055176,149.88307170596306L73.26028927326202,150.90767994347596L73.28349493980407,152.07352984573282L73.97966493606567,146.16603966400524L74.2117216014862,147.73705863597857L74.35095560073853,146.83390250605297L74.49018959999086,146.00240310057268L74.79186326503753,149.1814071206181L74.8614802646637,151.21902278920047L75.53444459438323,148.5773032582532L75.60406159400941,145.00800398109757L75.69688426017761,147.11584658581646L75.92894092559814,149.97860675640774L75.99855792522429,143.87877071863787L76.3930542564392,146.32812202774815L76.53228825569153,146.3142896248849L76.9964015865326,147.61128090606022L77.34448658466339,149.97354801326844L77.59974891662598,151.42554003716225L77.92462824821472,149.21483256344226L77.99424524784088,147.029848159797L78.64400391101837,150.09833098839053L78.66720957756041,150.67726445352716L78.71362091064454,150.82374413143097L78.96888324260712,152.15133016242865L79.20093990802765,153.47119115184705L79.68825890541078,149.90244825477942L80.10596090316773,149.44271885507587L80.12916656970978,148.63304465329455L80.24519490242005,151.16703239255958L80.2684005689621,151.61189700804235L80.38442890167236,149.57098555159575L80.68610256671906,151.4968490865836L80.73251389980315,150.76592154819215L80.80213089942933,151.5584255541188L81.08059889793397,150.92473991075025L81.54471222877503,150.63587215246184L81.6607405614853,151.75723405084926L81.91600289344788,150.74429698209113L81.93920855998994,151.5530897762337L81.98561989307403,151.52963219270788L82.07844255924225,148.21849536332527L82.12485389232636,148.96386230155235L82.28729355812072,149.46506806007528L83.02987488746643,149.74843514620792L83.14590322017669,151.12066062600795L83.16910888671876,151.42910829597972L83.40116555213928,151.3114796635081L83.56360521793366,152.64865786734197L83.61001655101776,150.93151102920612L83.77245621681213,149.82340269028637L83.91169021606446,152.2734525666921L83.95810154914855,153.73322522937403L84.05092421531677,154.1878662174179L84.30618654727937,153.2116670635479L84.77029987812043,152.0971856552519L85.00235654354096,152.59434273976706L85.42005854129792,152.6365563178106L85.55929254055023,150.33629297795244L85.60570387363434,152.14395740063497L85.69852653980256,150.7482148578109L86.0698172044754,152.09718595337822L86.32507953643798,152.9203349375932L86.765987200737,153.6469562306965L86.78919286727904,150.88136724588423L86.97483819961549,151.07817359525694L87.32292319774628,153.22155401611377L87.53177419662477,153.4699521286535L87.5549798631668,147.6288572810672L87.87985919475555,149.1032108750843L88.04229886054992,151.84176936233553L88.34397252559661,153.00861653762254L88.36717819213868,148.09541058487986L88.5992348575592,144.71743775879048L88.73846885681152,149.0699699368316L88.8544971895218,152.0623576205205L88.9937311887741,151.4456058487285L89.24899352073669,151.70119385290766L89.36502185344696,151.37971634943224L89.57387285232544,151.9995829889049L89.66669551849365,152.54406792888142L89.78272385120393,151.05063453766144L90.24683718204498,153.38782580821305L90.45568818092346,149.17161670265503L90.7341561794281,145.81539876368547L90.82697884559632,149.2391511733927L90.87339017868041,147.49589386886115L91.0822411775589,151.43950417264827L91.12865251064301,148.86042784239118L91.22147517681123,151.8502824037153L91.29109217643737,154.28408640499904L91.40712050914765,154.67307864694664L91.45353184223175,155.5933057319671L91.68558850765228,156.04278837297124L91.73199984073639,154.0282124443111L91.89443950653077,154.6318982949498L92.03367350578309,152.98047408274655L92.63702083587647,154.56446253693272L92.82266616821289,151.51930070167865L92.9619001674652,153.5348713015904L93.07792850017547,155.09528198963784L93.12433983325957,153.59858655895786L93.24036816596984,152.10111324715504L93.68127583026886,153.38027322205227L93.72768716335297,154.22712803250303L93.82050982952117,154.47373469375148L94.09897782802581,152.42461991411042L94.53988549232484,152.36607162180377L94.58629682540894,153.99793685974396L94.77194215774536,152.9857433236967L95.28246682167054,147.6215944181366L95.32887815475463,151.75521438816997L95.46811215400696,151.37355596254295L95.56093482017518,153.11449529012577L95.58414048671722,152.90235519981022L95.81619715213776,151.7140382499597L95.83940281867982,153.7969350826873L96.25710481643677,149.5677020790265L96.34992748260497,152.94096415922544L96.4891614818573,154.74244676793202L96.5355728149414,154.80989174000445L96.67480681419373,154.5334092915583L96.8372464799881,154.9985574493037L96.86045214653015,155.84217371700115L97.27815414428711,153.5293236472728L97.5334164762497,154.39016764721785L97.60303347587585,155.51760203964187L97.69585614204406,152.9192424612109L97.74226747512817,154.006708581004L97.85829580783843,152.31499872851595L97.90470714092255,153.85969983176696L98.09035247325897,155.1616933902474L98.41523180484772,156.5103861061432L98.99537346839904,155.8577257927881L99.15781313419342,153.42180307109754L99.27384146690368,154.57814593207175L99.64513213157655,154.47528621458318L99.94680579662322,155.7761398239008L100.17886246204377,155.50557943621592L100.41091912746428,154.91562330096266L100.64297579288483,155.61758087668898L100.66618145942688,156.2538880205378L100.92144379138946,155.35678054019573L101.03747212409974,154.73977806082726L101.06067779064179,156.00382852280705L101.36235145568847,154.89478907745948L101.98890445232392,155.53252370211854L102.36019511699676,154.57211082990779L102.45301778316498,152.96193097990468L102.82430844783784,154.29757991613556L102.96354244709015,155.55822473953023L103.00995378017426,156.40177137764175L104.05420877456665,153.36531059251323L104.26305977344514,153.59191754597379L104.33267677307128,154.9229878403509L104.49511643886565,154.60995863265566L104.54152777194977,154.07814489295998L104.58793910503387,155.57953191071982L104.65755610466005,156.39493191635975L104.84320143699647,156.4468346098958L105.00564110279083,156.71772625601798L105.23769776821136,156.49912293884913L105.63219409942627,157.01322377979795L105.79463376522065,157.36076985557204L105.98027909755707,156.7487704337141L106.00348476409911,155.14279031146887L106.02669043064117,156.3035354244588L106.93171142578126,154.9280693192304L107.88314375400543,156.09267171662168L107.99917208671569,156.28323975100096L108.0919947528839,156.25041583805915L108.48649108409882,154.2293674907036L108.67213641643524,155.62904746713554L108.69534208297729,156.47792503305325L108.81137041568756,156.93928537092512L108.90419308185578,156.48513660940418L109.22907241344451,156.8825546081271L109.29868941307069,157.44178781633707L109.41471774578095,157.75289925926006L110.08768207550048,157.2258495585598L110.1340934085846,156.86597238410775L110.27332740783692,157.11299955439037L110.31973874092103,156.0533151481051L110.34294440746307,154.76781485424567L110.69102940559388,155.3208083304698L111.10873140335083,156.07747105347167L111.15514273643494,156.23068794146144L111.27117106914521,151.78772007378055L111.94413539886476,153.6802131165358L112.59389406204224,155.1487460813634L112.84915639400482,156.55671128759064L113.82379438877106,157.01770681230107L114.07905672073365,157.71995355553074L114.17187938690185,157.1284508498685L114.33431905269623,157.65362240572568L115.00728338241576,157.57778864879884L115.10010604858398,157.24859408983457L115.30895704746247,157.2070957257016L115.74986471176148,155.81935733943314L115.95871571063995,156.38645283004425L116.2835950422287,156.14239703057817L116.49244604110717,150.59616232352906L116.84053103923797,153.12534575729953L117.3278500366211,155.46740481175542L117.74555203437805,156.67138194408167L117.83837470054627,157.1579591419547L118.0704313659668,157.7928489566431L118.4185163640976,158.0159289639606L118.44172203063965,158.0595130525301L118.62736736297607,157.7879329460111L118.67377869606018,157.4131184122197L118.92904102802277,156.25176855809997L119.60200535774231,156.2861935378501L119.74123935699463,156.75171682613248L120.01970735549926,156.89023636581177L120.08932435512543,157.05386760543692L120.11253002166748,155.86287032660138L120.50702635288239,156.1549413602054L120.53023201942445,155.54787871472084L120.69267168521881,156.75329931191146L120.87831701755523,157.26927397597066L120.92472835063936,157.61848420156684L120.97113968372345,156.8114885648246L120.9943453502655,156.8348367596877L121.2960190153122,157.15240668058962L121.3424303483963,156.4146933098151L121.66730967998505,157.3201395947461L121.96898334503175,157.4963323085129L122.0386003446579,157.9215886770507L122.06180601119996,156.90230454315792L122.15462867736817,156.92687332841825L122.71156467437744,157.08610704616225L122.73477034091948,157.6723223550963L122.7811816740036,157.66399461069113L122.87400434017181,158.0845394212603L123.10606100559234,157.11984203349277L123.15247233867645,157.62502736741564L123.17567800521851,157.75244244693238L123.66299700260163,158.03892245427255L124.31275566577912,158.19110571628747L124.5680179977417,156.56543079865892L125.38021632671355,154.71448745885655L125.4034219932556,155.29080936027304L125.86753532409668,156.7317812859927L125.93715232372284,157.58446061759764L126.0531806564331,157.76106060314729L127.12064131736756,156.80528588607325L127.14384698390961,156.68303266374252L127.25987531661988,156.96126192160256L127.72398864746094,156.6955319204889L128.02566231250762,157.36355813617598L128.21130764484406,157.90735471549965L128.4433643102646,158.27528255008897L128.5825983095169,158.34520349677334L128.629009642601,158.15866203146317L128.65221530914306,158.11562277224573L128.90747764110566,158.1622208931948L129.16273997306823,157.75273448472518L129.20915130615236,156.6137699822679L129.39479663848877,157.18539442139777L129.62685330390931,157.80037550823934L130.13737796783448,158.1849929902666L130.32302330017092,158.4949333554109L130.369434633255,157.58714940791074L130.39264029979705,157.7501762119568L131.7153632926941,158.19541659478273L131.83139162540436,157.79251860485383L131.90100862503053,158.16853698119522L131.99383129119872,157.76008718683414L132.109859623909,157.39098540435702L132.29550495624542,157.9431649124261L132.75961828708648,157.74843697387064L133.10770328521727,158.0767924247432L133.13090895175935,158.36485240222368L133.17732028484346,158.3998631631791L133.78066761493682,158.3005357271896L134.10554694652558,158.54001946514626L134.12875261306763,158.545020712858L134.3840149450302,158.62119893630282L134.70889427661896,158.69508635126599L134.87133394241334,158.6987136611715L135.40506427288057,158.72869262884197L135.59070960521697,158.5701741046735L135.66032660484314,158.66034155422602L135.6835322713852,155.07473316950154L135.86917760372162,156.44814166011872L135.91558893680573,156.5740990179573L136.84381559848785,157.0121057286318L137.37754592895507,157.4606741894504L137.63280826091767,158.0207436405583L137.67921959400178,157.80999220632307L137.9576875925064,157.92358829655825L138.653857588768,158.26051323832777L138.72347458839417,158.55255422004137L138.97873692035674,158.6726325231777L139.0019425868988,158.37811731102573L139.02514825344088,158.68031440218428L139.48926158428193,158.7501524019928L139.67490691661837,158.13672405705088L139.72131824970245,157.71090246280795L139.9301692485809,158.14229523170968L139.953374915123,158.46934169307454L140.23184291362764,158.65247806296367L140.30145991325378,158.80071665056153L140.46389957904813,158.812487394229L140.53351657867432,158.11268944461492L140.55672224521638,156.89868256376596L140.99762990951538,157.54207941191268L141.46174324035644,157.99632832082455L141.7402112388611,158.3685890612203L142.01867923736572,158.6006371863472L142.134707570076,158.15409535650977L142.5292039012909,158.3816770476999L142.6220265674591,158.41238730226624L143.29499089717862,158.3826852965405L143.34140223026276,157.96723318881115L143.80551556110382,158.1527079254333L144.82656488895415,158.28974389650148L144.8497705554962,158.60998797008415L145.197855553627,158.54432620250944L145.5459405517578,158.69744177582683L146.01005388259887,158.66716870980233L146.03325954914092,158.6243604458023L146.07967088222503,158.36470191612946L146.2421105480194,158.28213825873914L146.3813445472717,157.7298322126059L146.4509615468979,158.03267136187864L146.497372879982,158.41104437616468L146.5901955461502,158.67591208724258L147.07751454353334,158.2284665042594L147.21674854278564,158.22949524763834L147.23995420932772,158.34637047376168L147.75047887325286,158.49256131361736L147.7736845397949,158.58802275049746L147.796890206337,158.73254033509363L148.30741487026214,158.23364213772453L148.79473386764525,158.54884824666436L149.09640753269196,158.61286029425608L149.93181152820586,158.66883983417455L150.27989652633667,158.72831365120948L150.32630785942078,158.66809253087064L150.53515885829924,158.78868004265556L150.65118719100954,158.8837874782663L150.72080419063568,158.63413277830685L151.5097968530655,158.72187657891274L151.57941385269166,158.57526202596569L152.06673285007477,158.70898514247432L152.11314418315888,158.77523674312252L152.20596684932707,158.44675195601448L152.34520084857942,158.60909717916599L152.3916121816635,158.75941019673186L152.87893117904665,158.83010920726457L152.92534251213075,158.85665684848172L153.11098784446716,158.79681664980606L153.38945584297178,158.8928263334168L153.45907284259798,158.91382990977542L153.50548417568208,158.66927167101335L153.5286898422241,158.7856895134435L153.55189550876617,158.67590314958682L153.85356917381287,158.85312846819974L153.87677484035493,158.8778374388404L154.01600883960725,158.96009083011262L155.24590916633605,158.94298659670866L155.3851431655884,159.0294392511599L155.71002249717714,159.03115822553062L155.7796394968033,159.04028744949102L156.59183782577514,158.92591696166477L156.7542774915695,158.96326839310575L157.4968588209152,159.0097838203998L157.9145608186722,158.94041103352896L158.1002061510086,158.87800290710558L158.12341181755065,158.9502027758882L158.16982315063476,158.98469605227928L158.42508548259735,159.0174847915254L159.0980498123169,158.97736898796077L159.1908724784851,158.2741607133412L160.30474447250367,158.32965736314048L160.72244647026062,158.64824223289807L160.74565213680268,158.66785392477584L160.79206346988678,158.8022222274799L160.8384748029709,158.9273273398658L160.90809180259703,158.95285862334651L161.325793800354,158.9874772438572L161.39541079998017,159.01353900453114L162.48607712745667,158.95437901825008L162.57889979362488,158.94619973784833L162.8573677921295,158.89964228261215L162.90377912521362,158.92264321890647L163.066218791008,158.4989445140484L163.43750945568084,158.69850121483762L163.62315478801727,158.40897043516833L163.69277178764344,158.53093107439514L163.99444545269012,157.76036658450656L164.1568851184845,158.0949902454222L164.94587778091432,158.49826441101732L164.96908344745637,158.7491905192418L165.68845911026,158.83107650659022L165.7348704433441,158.87783273279342L165.82769310951232,158.848067895642L165.8973101091385,158.89188753630896L165.96692710876465,158.90068798773902L165.9901327753067,158.96961727579378L166.08295544147492,158.94484249403294L166.24539510726927,158.72345572905948L166.45424610614776,157.59550718662558L166.6398914384842,158.08890283830496L166.75591977119447,158.3610246104677L166.9415651035309,158.46245717402076L167.01118210315704,158.69893185459614L167.0343877696991,158.85061504854036L167.5217067670822,158.56504844289182L167.80017476558686,158.64984313776384L167.9626144313812,158.8044532766069L168.26428809642792,158.82687612886326L168.35711076259614,158.80607597981728L168.6355787611008,158.91247217187166L169.21572042465212,158.70400654296492L169.23892609119414,158.79173838342368L169.2621317577362,158.89793119852095L169.4013657569885,159.00849288814968L169.58701108932496,158.927867614341L169.63342242240904,158.90524357915066L169.7262450885773,158.88378726108078L169.79586208820342,158.94006901818543L169.81906775474548,158.72283204576783L170.16715275287626,158.7831130003339L171.0489680814743,158.76991174590952L171.07217374801635,158.85573697999124L171.23461341381073,158.7424410899118L171.60590407848358,158.88268599804212L172.0004004096985,158.94669631576642L172.25566274166107,158.84735825926154L172.37169107437134,158.91429766141385L172.60374773979188,158.92101722623926L172.69657040596007,158.23659765741502L172.90542140483856,158.32315325147405L172.92862707138062,158.4420017536392L172.99824407100675,158.63307789874742L173.3231234025955,157.80656570515143L173.3463290691376,158.28231813116122L173.50876873493195,158.57824279231096L173.71761973381044,158.77893041670967L173.94967639923098,158.56449733472235L174.08891039848328,158.769576437447L174.32096706390382,158.79882392674986L174.64584639549255,158.84679330344468L174.94752006053923,158.94267902477588L175.1099597263336,159.0139227988536L175.27239939212797,158.88569668207714L175.45804472446443,158.8277099560622L175.69010138988494,158.9453462495923L175.87574672222138,158.959675035109L175.89895238876343,158.95634148979437L175.9221580553055,159.01180902910764L175.99177505493165,159.02341433606756L176.0149807214737,159.0527005640186L176.20062605381014,158.98246472956743L177.91784537792208,158.9452899036907L177.9410510444641,159.0171898724635L177.96425671100616,159.0488039290694L177.9874623775482,159.09832821013504L178.26593037605286,159.01024620920418L178.335547375679,158.99421518483584L178.5908097076416,158.95576826217152L178.7996607065201,159.03370715791564L179.3333910369873,159.0801735745864L179.635064702034,158.9965461769045L179.70468170166015,158.82590088174365L179.91353270053864,158.92172181884374L180.09917803287507,158.98302036559264L180.21520636558532,158.84494014953663L180.23841203212737,158.78743825703097L180.47046869754791,158.77906614979156L180.56329136371613,158.82446543172588L181.09702169418335,158.95141639593515L181.30587269306184,158.99041789189926L181.37548969268798,158.98358685594914L181.4219010257721,159.04356913634052L182.14127668857574,158.99458517712188L182.1644823551178,159.0365097733607L182.28051068782804,159.06538953719948L182.4197446870804,159.10192277113273L182.67500701904297,159.0831645652181L183.09270901679992,159.02487469151438L183.27835434913635,159.05014869196694L183.4407940149307,158.75862092371037L183.556822347641,158.81343996477568L183.62643934726714,158.89459451186937L183.74246767997744,158.78710691209324L183.81208467960357,158.84343411515061L183.9049073457718,158.96219026803962L183.99773001193998,158.97036179132996L184.3922263431549,158.85391858282415L184.46184334278107,158.96163827440313L184.9955736732483,159.0195218899022L185.0883963394165,159.06695217056338L185.15801333904267,159.08152254449544L185.39007000446318,159.0774971754984L185.43648133754732,159.087120741916L185.62212666988373,158.9287246855874L185.66853800296784,158.9869251648631L186.06303433418273,158.87181948229306L186.08624000072479,158.95089254704098L186.34150233268738,155.9185121432635L186.68958733081817,157.13131984111357L186.7824099969864,157.90802338061633L186.99126099586488,158.34270686607988L187.24652332782745,158.53463133738938L187.478579993248,158.74145356148134L187.6178139925003,158.88109474746545L187.64101965904234,158.9317862889613L187.84987065792083,159.02684896457384L188.03551599025727,159.02509625634747L188.05872165679932,158.9622311244649L188.2675726556778,158.91819573065166L188.63886332035065,158.92168251431877L188.7084803199768,158.99230929811637L188.8245086526871,158.9754361772385L188.8709199857712,159.01470912467363L189.0565653181076,158.9293299612407L189.17259365081787,159.01217568982057L189.8455579805374,159.06118131422585L189.93838064670564,159.06205330160145L190.0079976463318,159.06967559984648L190.37928831100464,159.04911868404787L190.47211097717286,159.05654326255342L190.72737330913543,158.89447944006955L190.91301864147187,158.94616041200518L191.02904697418214,159.02313772980864L191.46995463848114,159.03668982795855L191.74842263698577,158.98487008294944L192.86229463100435,158.90168213620282L192.88550029754637,159.0029560285954L192.90870596408843,159.06473259394824L192.93191163063048,159.06739621237227L193.90654962539674,159.0629210039232L194.27784029006958,159.03407985779202L194.30104595661163,159.02260561443666L195.4613292837143,158.67760928326388L195.69338594913484,158.81209736944393L196.18070494651795,158.95746496466487L196.2503219461441,159.008947057519L196.4591729450226,159.0049076328869L196.96969760894777,158.50395399566216L197.06252027511596,158.7088759376035L197.22495994091034,158.85506990166834L197.41060527324674,158.9405458778904L197.4338109397888,158.9985526702742L197.61945627212523,158.978426402195L197.6426619386673,159.03753064912854L197.6890732717514,159.04869967927465L197.7354846048355,158.92651048789907L197.944335603714,158.90343056976712L198.31562626838684,158.95509413913243L199.15103026390074,158.97958701648344L199.19744159698487,159.0066454442834L199.24385293006898,159.01518755359226L199.75437759399415,159.07572903304734L200.07925692558288,159.0741560326185L200.10246259212494,159.07013505341277L200.14887392520905,159.02850193069557L200.1720795917511,159.01917787978542L200.75222125530243,158.93954220489215L200.79863258838654,159.03044979501846L200.8682495880127,159.0774363657121L200.89145525455476,159.09641026768185L201.2627459192276,159.1089418027699L201.44839125156403,159.09232916259546L201.4715969181061,159.04331649648273L201.75006491661074,159.07126859212596L202.09814991474153,159.0913734600394L204.72039023399353,159.09029088826207L204.76680156707764,159.0819483978246L205.43976589679718,158.0403384899039L205.9270848941803,158.48361251782347L206.0199075603485,158.39729393057416L206.3679925584793,158.6280363927276L206.669666223526,158.83370743292403L206.7160775566101,158.91825392461837L206.76248888969423,159.00264183848327L206.99454555511474,158.96068929037102L207.3194248867035,158.96960966511665L207.64430421829223,158.9694283664164L207.94597788333894,158.99609644260727L207.969183549881,158.9490960982721L208.17803454875948,158.98030703961416L208.2012402153015,158.97044823155622L208.34047421455384,159.0502215833165L208.61894221305846,159.03418014559688L208.96702721118925,159.0477960818652L209.36152354240417,159.02275100594144L209.40793487548828,158.88521714760208L209.57037454128266,158.9900808348799L209.66319720745088,159.02897545721052L209.89525387287142,159.0757689718913L209.9416652059555,159.09763673720732L210.70745220184327,159.08913616536447L210.84668620109557,158.96162348426586L210.98592020034792,159.02229327399255L211.10194853305816,159.05577992566688L211.40362219810484,159.03926968286365L212.74955085754394,159.0368135493727L212.9119905233383,159.04754061388076L213.4689265203476,159.08149600993588L213.65457185268403,159.09467566695704L213.9562455177307,159.05137812375574L214.1650965166092,159.00512800669213L214.4203588485718,159.04202568716906L214.51318151473998,159.0513292201045L215.97513850688932,159.07557685953986L216.16078383922576,159.08730469583165L216.71771983623503,157.65258858546918L216.81054250240325,158.19295505270475L217.55312383174896,158.23337265704674L217.71556349754334,158.58186070674574L217.7851804971695,158.75186796536033L217.80838616371156,158.91309451888773L217.85479749679564,159.01100463770817L218.1796768283844,159.02854620316887L218.34211649417878,159.02346930532073L218.45814482688903,159.01358049237126L218.66699582576751,158.9335384782599L218.8062298250198,159.01127271471233L218.8294354915619,158.97513984215044L219.20072615623474,158.9223779119543L219.24713748931885,158.88383759039928L219.54881115436552,158.98520418088924L219.82727915287018,158.9997314869676L219.98971881866456,158.9626410927593L220.5002434825897,159.0070050811883L221.61411547660825,158.96414401272563L221.7533494758606,158.65233070783626L222.28707980632782,158.85433040869492L223.02966113567354,158.88737175161705L223.3081291341782,158.7034144304294L223.35454046726227,158.3976391744907L223.4937744665146,158.66163362994791L223.60980279922487,158.7922277214951L224.21315012931825,158.9352049343407L225.3270221233368,158.8453491268067L225.44305045604705,158.93900526782255L225.4662561225891,158.96761231308727L225.69831278800964,159.04791269428478L225.74472412109375,159.07698202216557L225.86075245380403,159.0608985640347L226.11601478576662,159.06333451436814L226.7657734489441,159.04503060838405L227.09065278053285,159.05606089139405L227.11385844707488,159.06645805289114L227.27629811286928,159.0803623043627L227.48514911174772,159.07874451285986L227.6940001106262,159.11208168395356L227.87964544296264,158.99442071786365L228.22773044109346,159.01254946455643L228.39017010688784,159.04709939623692L228.43658143997192,158.99149372308557L228.5526097726822,159.05840856299707L228.69184377193451,159.03690591678398L228.71504943847657,159.06090348363963L229.80571576595307,159.00120679381024L229.89853843212128,158.288706332031L229.94494976520537,158.34138093490947L230.26982909679413,158.6679764873212L230.3858574295044,158.71929291179256L230.4322687625885,158.85752759809182L230.80355942726135,158.93116939103157L230.91958775997162,158.969658986461L231.15164442539213,158.9602804079733L231.84781442165374,158.97842041933768L232.31192775249482,159.04453169044154L232.6600127506256,158.9487890829735L232.8688637495041,158.97413042932487L233.28656574726105,159.03133603050216L233.5186224126816,159.0743780648958L233.58823941230773,159.05968709604414L234.23799807548522,159.09697621336423L234.3540264081955,159.09443533139296L234.58608307361604,159.08515037284465L234.8645510721207,159.0733575578243L235.003785071373,159.05557922448702L235.02699073791504,159.07002902283136L235.2822530698776,159.03820970514792L235.35187006950378,159.080364772731L235.4911040687561,159.02238503208832L235.51430973529816,159.06393281986234L236.7906213951111,158.98771947919505L237.13870639324188,159.03708710142067L237.2315290594101,159.08887550994382L237.74205372333526,159.1041240273514L237.9741103887558,159.11450131009548L238.1133443880081,159.07782262764943L238.18296138763426,159.09693894561997L238.53104638576508,159.08256313251516L238.64707471847532,159.00578083022404L238.69348605155943,159.06727774805591L238.78630871772768,159.09588910983246L238.92554271697998,159.0545220448835L239.3200390481949,159.0362745521768L239.59850704669955,159.0361771612657L239.83056371212004,159.00633217435407L239.8537693786621,158.78377928573678L240.1090317106247,158.87960535541654L240.15544304370883,158.92233593683144L240.2018543767929,159.01804758875193L240.48032237529756,159.0154965832074L240.68917337417602,158.99812120757596L240.73558470726013,159.02850909246067L241.13008103847503,158.9510928444107L241.15328670501708,158.99162738646984L241.2461093711853,159.00803922195186L241.36213770389557,159.07724348558867L241.54778303623198,159.09364924542405L241.82625103473663,159.0902932232043L241.96548503398895,159.07425685141882L242.1975416994095,159.0477645297267L242.45280403137207,159.0042555045688L242.94012302875518,158.99175445956192L243.58988169193267,159.01375696054592L243.65949869155884,158.98903358023665L243.89155535697938,159.0347174047038L243.91476102352144,158.84988333033493L245.58556901454926,158.9474752558695L245.7015973472595,158.9846251225401L245.7712143468857,159.03174841651236L245.910448346138,159.06075119843612L246.1657106781006,158.98224745703058L246.58341267585755,159.0291881196993L246.72264667510987,159.055597985444L246.792263674736,159.0734953575231L247.18676000595093,159.0442439508397L247.23317133903504,158.80620243805464L247.37240533828734,158.95360409225776L247.4420223379135,159.0242838238316L247.46522800445558,159.0749379625018L248.11498666763305,159.062209451229L248.1846036672592,158.925816698991L248.25422066688537,158.8954023274446L248.7879509973526,158.96066942088936L248.99680199623108,159.03232900549943L249.20565299510957,158.99983939723634L250.48196465492248,159.00605627217666L250.94607798576354,159.0112170154239L251.03890065193175,159.06192875667975L251.08531198501586,159.0067616396305L251.87430464744568,158.96556353006295L252.2223896455765,158.98964764273282L252.5008576440811,159.03983657461313L252.54726897716523,159.08027467889727L252.64009164333345,159.04627358743082L253.42908430576324,159.04804751593815L253.63793530464173,159.07852052623844L253.7075523042679,159.04511312464433L253.753963637352,159.06563885877128L254.3805166339874,159.0952296898352L254.70539596557617,159.02371900617092L254.82142429828644,159.05919968076427L254.96065829753874,159.06184955864396L255.00706963062285,159.06739393024847L255.26233196258545,159.06596982079958" fill="none"></path></g></g></g></g><g opacity="0.2"><g><g><g><path style="fill: none;" stroke="rgb(255, 112, 67)" stroke-width="2px" d="M30.6082741689682,-7.099308265635765L30.933153500556948,1.4738067595171742L31.234827165603637,9.1952315322953L31.443678164482115,17.41737270414014L31.95420282840729,11.649956563622974L32.116642494201656,19.005224034334237L32.30228782653809,19.577133937580943L32.71998982429504,26.755801028729177L32.95204648971558,28.04288510951083L33.04486915588379,16.40959659852524L33.30013148784637,22.485203007848025L33.369748487472535,39.676308584485376L33.39295415401459,27.439258668856933L33.416159820556636,29.989470722378616L33.62501081943512,39.18402743472907L34.042712817192076,36.418007962849515L34.06591848373413,43.67272726178053L34.69247148036957,47.218028805954226L34.97093947887421,57.91851370719596L35.202996144294744,52.9745128633651L35.34223014354706,50.05153027231719L35.45825847625732,65.6532999148818L35.85275480747223,64.39705510557906L36.38648513793945,49.05198697002925L36.40969080448151,56.43519198645663L36.52571913719177,47.65160062050999L36.7113644695282,62.21279790814079L36.734570136070246,71.20004993343828L37.036243801116946,65.8218024551068L37.05944946765899,78.13962831813187L37.33791746616364,63.910712371337276L37.4539457988739,71.2433733738966L37.662796797752385,76.23670355569483L37.87164779663086,72.44023402805396L38.1501157951355,65.42656041341762L38.28934979438782,75.8017821012494L38.8462857913971,89.66332607007644L38.98551979064942,97.98682519763533L39.00872545719147,87.14091659828192L39.12475378990174,101.11488556991826L39.21757645606995,94.7491740663114L39.44963312149048,86.87793926578014L39.774512453079225,80.77156106697294L39.913746452331544,101.68456856734701L40.099391784667965,82.91505913974324L40.30824278354645,101.86730980840802L40.56350511550903,112.25170904748957L40.633122115135194,80.75698495616452L40.70273911476135,101.39243901322844L41.25967511177063,89.57060580965627L41.30608644485474,105.81777324745998L41.46852611064911,109.39458888305744L41.60776010990143,68.40373104603567L41.67737710952759,97.61466199805945L41.70058277606964,117.63076630975483L42.698426437377925,104.3631313743761L42.88407176971435,112.49376696170147L42.93048310279846,106.68775112033983L43.16253976821899,123.11077663576725L43.324979434013365,114.68052099293563L43.34818510055542,108.8293596972646L43.580241765975956,106.7166334139787L43.69627009868622,98.09749566858808L43.88191543102264,112.84129923329091L43.951532430648804,118.10658185285719L43.99794376373291,94.57196634879801L44.09076642990112,115.7598954946974L44.13717776298523,112.84899218066202L44.2532060956955,119.00618432131523L44.36923442840576,124.45231868609699L44.50846842765808,112.95088999233194L44.69411375999451,104.76950794515506L44.85655342578888,118.92567830189655L44.9957874250412,117.99307713813614L45.18143275737763,110.26348704402552L45.343872423171995,123.92879337289487L45.483106422424314,104.74926334681004L45.691957421302796,95.0545975733432L45.87760275363922,98.43895456067402L45.924014086723325,121.1327444134702L46.01683675289154,110.20707209663742L46.364921751022344,114.10793626974409L46.4809500837326,121.37554462962144L46.57377274990082,109.09665587741328L46.71300674915314,111.02333430190846L47.29314841270447,131.86305635627357L47.571616411209106,109.20010577495633L48.035729742050165,122.57618427546986L48.54625440597535,108.51151950324784L48.824722404479985,113.56511110611973L48.87113373756409,126.02890052321236L49.17280740261078,128.72689814465267L49.91538873195648,113.9608930037648L50.0546227312088,114.66378545830376L50.17065106391907,114.54238535022814L50.28667939662934,100.91588116818674L50.309885063171386,119.51027482010613L50.495530395507814,114.81062627829961L50.72758706092834,132.48422811549315L51.029260725975035,122.51106415079339L51.122083392143246,131.01447027564498L51.14528905868531,111.33948744606313L51.284523057937626,133.91093244286094L51.400551390647884,107.29002792110406L51.5397853899002,122.53758457462537L52.25916105270386,131.57450334786265L52.8857140493393,123.64253475229634L53.07135938167572,133.12982835671573L53.187387714385984,133.22659753680492L53.51226704597474,131.5518968797107L53.69791237831116,122.31469154684673L53.88355771064759,116.47479974425441L54.27805404186248,134.01613687226055L54.53331637382507,143.31846232980095L54.7189617061615,139.96453972198216L54.7653730392456,138.06957783489415L54.834990038871766,117.81391244278275L54.95101837158203,140.2880484035355L54.99742970466614,122.97297840303217L55.13666370391846,128.51783892574312L55.50795436859131,133.8581615231749L55.57757136821747,136.53712922217093L55.7632167005539,129.71888346355846L55.786422367095945,133.96707746227113L55.809628033638,138.85290882685732L55.97206769943238,137.88690407582763L56.737854695320124,142.14751476152523L57.06273402690887,139.27068985470396L57.225173692703244,133.56353513526048L57.31799635887146,141.36465614352346L57.434024691581726,139.6678213922387L58.13019468784332,146.44632025610045L58.339045686721796,132.05983385218715L58.36225135326386,147.457537943434L58.66392501831055,142.24387904964752L58.71033635139466,116.0341423202779L59.17444968223572,131.21327223139306L59.592151679992675,144.3043067872088L59.87061967849731,137.39941414767964L60.00985367774963,139.95630691865517L60.28832167625427,140.74557632613286L60.40435000896454,147.66922896012838L60.450761342048644,137.4284314053075L60.8684633398056,135.48002377858867L60.89166900634766,146.29644274635282L60.93808033943176,139.03328819811142L61.2165483379364,143.15454856520083L61.35578233718872,141.48382934578112L61.471810669898986,132.87677087740303L61.58783900260926,138.71774239190708L61.72707300186158,150.6071925539516L62.16798066616059,146.02651476841928L62.237597665786744,138.66058514257966L62.49285999774933,139.7891540183198L62.60888833045959,142.3889653377868L62.678505330085756,139.15421593222564L63.09620732784271,136.315450870293L63.3514696598053,147.56125776895496L63.6995546579361,149.58099386384274L63.7459659910202,148.2614509437146L64.16366798877716,140.0260158189565L64.23328498840331,144.36051928861343L64.27969632148742,151.19867223559848L64.30290198802948,146.97949549451369L64.62778131961822,144.30727599496603L64.76701531887055,136.3308367650352L65.0918946504593,130.79933767723196L65.13830598354339,148.23175886614192L65.55600798130035,140.78262394110425L65.67203631401063,144.39466517782202L65.74165331363677,139.46416073288785L65.76485898017883,137.99399800107275L65.85768164634705,140.669929010317L66.275383644104,143.308137584645L66.64667430877685,144.62774798676764L67.15719897270203,148.38271608780124L67.29643297195435,134.50092752062918L67.43566697120667,147.14394911506972L67.55169530391693,151.08037629926912L67.69092930316926,149.0933689717058L67.94619163513184,140.61236686902268L68.0622199678421,144.09470771234336L68.34068796634675,149.15201082491186L68.66556729793548,147.20954161370756L68.71197863101959,145.9265739345894L69.22250329494476,144.4959556515416L69.33853162765503,141.23509071411536L69.4081486272812,140.7982797638244L69.57058829307556,152.77457925276903L69.82585062503814,146.44254126440936L69.94187895774841,152.23600545479712L70.01149595737458,142.51576400542106L70.10431862354278,144.4374487623245L70.28996395587922,152.2776418453934L71.2878076171875,144.01136744915638L71.5430699491501,147.47636541989485L71.937566280365,141.51918991089042L72.28565127849579,147.05332079647852L72.44809094429016,149.62485716025694L72.91220427513122,148.32508646451242L72.93540994167329,154.15316891807015L73.14426094055176,149.29999883881393L73.26028927326202,152.44459229974527L73.28349493980407,153.82230469911812L73.97966493606567,137.3048043914139L74.2117216014862,150.09358709393857L74.35095560073853,145.47916831116456L74.49018959999086,144.75515399235226L74.79186326503753,153.94991315068617L74.8614802646637,154.27544629207407L75.53444459438323,144.61472396183237L75.60406159400941,139.65405506536408L75.69688426017761,150.27761049289475L75.92894092559814,154.27274701229473L75.99855792522429,134.72901666198302L76.3930542564392,150.00214899141358L76.53228825569153,146.29354102059006L76.9964015865326,149.55676782782322L77.34448658466339,153.5169486740808L77.59974891662598,153.60352807300296L77.92462824821472,145.89877135286224L77.99424524784088,143.75237155432913L78.64400391101837,154.70105523128078L78.66720957756041,151.54566465123207L78.71362091064454,151.0434636482867L78.96888324260712,154.14270920892523L79.20093990802765,155.45098263597467L79.68825890541078,144.54933390917793L80.10596090316773,148.75312475552053L80.12916656970978,147.4185333506226L80.24519490242005,154.96801400145705L80.2684005689621,152.2791939312665L80.38442890167236,146.50961836692588L80.68610256671906,154.38564438906542L80.73251389980315,149.66953024060493L80.80213089942933,152.74718156300878L81.08059889793397,149.97421144569742L81.54471222877503,150.20257051502924L81.6607405614853,153.4392768984304L81.91600289344788,149.2248913789539L81.93920855998994,152.76627896744756L81.98561989307403,151.49444581741918L82.07844255924225,143.25179011925138L82.12485389232636,150.08191270889293L82.28729355812072,150.2168766978597L83.02987488746643,150.17348577540687L83.14590322017669,153.17899884570798L83.16910888671876,151.89177980093737L83.40116555213928,151.13503671480066L83.56360521793366,154.65442517309273L83.61001655101776,148.35579077200236L83.77245621681213,148.16124018190678L83.91169021606446,155.94852738130066L83.95810154914855,155.92288422339698L84.05092421531677,154.86982769948372L84.30618654727937,151.74736833274292L84.77029987812043,150.42546354280785L85.00235654354096,153.3400783665398L85.42005854129792,152.69987668487593L85.55929254055023,146.8858979681652L85.60570387363434,154.85545403465878L85.69852653980256,148.6546010435748L86.0698172044754,154.12064259672914L86.32507953643798,154.15505841391567L86.765987200737,154.73688817035145L86.78919286727904,146.7329837686659L86.97483819961549,151.373383119316L87.32292319774628,156.436624647399L87.53177419662477,153.84254929746314L87.5549798631668,138.86721500968778L87.87985919475555,151.3147412661099L88.04229886054992,155.9496070932124L88.34397252559661,154.75888730055303L88.36717819213868,140.7256016557658L88.5992348575592,139.65047851965645L88.73846885681152,155.5987682038933L88.8544971895218,156.55093914605388L88.9937311887741,150.52047819104044L89.24899352073669,152.0845758591764L89.36502185344696,150.89750009421914L89.57387285232544,152.92938294811393L89.66669551849365,153.3607953388462L89.78272385120393,148.8104844508314L90.24683718204498,156.8936127140405L90.45568818092346,142.84730304431795L90.7341561794281,140.78107185523115L90.82697884559632,154.3747797879536L90.87339017868041,144.88100791206378L91.0822411775589,157.35491962832893L91.12865251064301,144.99181334700552L91.22147517681123,156.3350642457015L91.29109217643737,157.9347924069247L91.40712050914765,155.256567009868L91.45353184223175,156.9736463594978L91.68558850765228,156.71701233447746L91.73199984073639,151.00634855132083L91.89443950653077,155.53742707090785L92.03367350578309,150.50333776444168L92.63702083587647,156.94044521821198L92.82266616821289,146.95155794879756L92.9619001674652,156.55822720145807L93.07792850017547,157.435898021709L93.12433983325957,151.35354341293785L93.24036816596984,149.8549032794508L93.68127583026886,155.29901318439806L93.72768716335297,155.49741024817922L93.82050982952117,154.84364468562418L94.09897782802581,149.3509477446489L94.53988549232484,152.27824918334372L94.58629682540894,156.44573471665424L94.77194215774536,151.46745301962582L95.28246682167054,139.57537105979645L95.32887815475463,157.95564434322003L95.46811215400696,150.80106832410237L95.56093482017518,155.72590428149996L95.58414048671722,152.58414506433692L95.81619715213776,149.93156282518393L95.83940281867982,156.9212803317787L96.25710481643677,143.22385257353525L96.34992748260497,158.0008572795239L96.4891614818573,157.44467068099183L96.5355728149414,154.91105919811307L96.67480681419373,154.11868561888915L96.8372464799881,155.69627968592178L96.86045214653015,157.10759811854732L97.27815414428711,150.0600485426803L97.5334164762497,155.68143364713544L97.60303347587585,157.20875362827792L97.69585614204406,149.0217030935644L97.74226747512817,155.63790776069365L97.85829580783843,149.7774339497839L97.90470714092255,156.1767514866435L98.09035247325897,157.11468372796807L98.41523180484772,158.5334251799868L98.99537346839904,154.87873532275555L99.15781313419342,149.76791898856172L99.27384146690368,156.31266022353302L99.64513213157655,154.32099663835035L99.94680579662322,157.72742023787723L100.17886246204377,155.09973885468864L100.41091912746428,154.0306890980828L100.64297579288483,156.67051724027843L100.66618145942688,157.20834873631102L100.92144379138946,154.01111931968262L101.03747212409974,153.81427434177456L101.06067779064179,157.8999042157768L101.36235145568847,153.2312299094381L101.98890445232392,156.48912563910707L102.36019511699676,153.13149152159167L102.45301778316498,150.5466612049L102.82430844783784,156.30105332048188L102.96354244709015,157.4491919746222L103.00995378017426,157.6670913348091L104.05420877456665,148.8106194148204L104.26305977344514,153.93182797616464L104.33267677307128,156.9195932819166L104.49511643886565,154.14041482111278L104.54152777194977,153.28042428341652L104.58793910503387,157.83161243735958L104.65755610466005,157.61803192481966L104.84320143699647,156.5246886501998L105.00564110279083,157.12406372520127L105.23769776821136,156.17121796309584L105.63219409942627,157.7843750412212L105.79463376522065,157.88208896923314L105.98027909755707,155.83077130092715L106.00348476409911,152.7338201281011L106.02669043064117,158.04465309394365L106.93171142578126,152.8648701613878L107.88314375400543,157.8395753127086L107.99917208671569,156.5690918025699L108.0919947528839,156.20117996864647L108.48649108409882,151.1977949696702L108.67213641643524,157.72856743178343L108.69534208297729,157.75124138192987L108.81137041568756,157.6313258777329L108.90419308185578,155.80391346712278L109.22907241344451,157.47868160621147L109.29868941307069,158.28063762865204L109.41471774578095,158.21956642364458L110.08768207550048,156.43527500750932L110.1340934085846,156.3261566224297L110.27332740783692,157.4835403098143L110.31973874092103,154.46378853867716L110.34294440746307,152.83956441345654L110.69102940559388,156.150298544806L111.10873140335083,157.2124651379745L111.15514273643494,156.46051327344614L111.27117106914521,145.12326827225914L111.94413539886476,156.51895268066872L112.59389406204224,157.35154552860476L112.84915639400482,158.66865909693152L113.82379438877106,157.7092000993667L114.07905672073365,158.77332367037525L114.17187938690185,156.24119679137513L114.33431905269623,158.44137973951146L115.00728338241576,157.46403801340855L115.10010604858398,156.75480225138816L115.30895704746247,157.14484817950213L115.74986471176148,153.73774976003043L115.95871571063995,157.23709606596094L116.2835950422287,155.77631333137904L116.49244604110717,142.27681026295542L116.84053103923797,156.9191209079552L117.3278500366211,158.98049339343925L117.74555203437805,158.47734764257112L117.83837470054627,157.88782493876423L118.0704313659668,158.74518367867566L118.4185163640976,158.35054897493683L118.44172203063965,158.12488918538438L118.62736736297607,157.38056278623262L118.67377869606018,156.85089661153253L118.92904102802277,154.50974377692037L119.60200535774231,156.33783100747533L119.74123935699463,157.45000175855603L120.01970735549926,157.09801567533069L120.08932435512543,157.29931446487464L120.11253002166748,154.07637440834807L120.50702635288239,156.5930479106115L120.53023201942445,154.63728474649398L120.69267168521881,158.5614302076974L120.87831701755523,158.04323597205948L120.92472835063936,158.1422995399611L120.97113968372345,155.60099510971122L120.9943453502655,156.86985905198233L121.2960190153122,157.62876156194253L121.3424303483963,155.30812325365332L121.66730967998505,158.67830902214266L121.96898334503175,157.76062137916304L122.0386003446579,158.5594732298574L122.06180601119996,155.37337834231877L122.15462867736817,156.96372650630875L122.71156467437744,157.32495762277833L122.73477034091948,158.55164531849732L122.7811816740036,157.65150299408342L122.87400434017181,158.715356637114L123.10606100559234,155.67279595184155L123.15247233867645,158.38280536829987L123.17567800521851,157.94356506620753L123.66299700260163,158.46864246528276L124.31275566577912,158.41938060930988L124.5680179977417,154.1269184222161L125.38021632671355,151.93807244915297L125.4034219932556,156.15529221239777L125.86753532409668,158.89323917457224L125.93715232372284,158.86347961500505L126.0531806564331,158.02596058147174L127.12064131736756,155.37162381046218L127.14384698390961,156.4996528302465L127.25987531661988,157.37860580839262L127.72398864746094,156.29693691881837L128.02566231250762,158.3655974597066L128.21130764484406,158.72304958448512L128.4433643102646,158.82717430197297L128.5825983095169,158.45008491679982L128.629009642601,157.87884983349795L128.65221530914306,158.05106388341957L128.90747764110566,158.23211807461848L129.16273997306823,157.13850487202072L129.20915130615236,154.90532322858198L129.39479663848877,158.04283108009258L129.62685330390931,158.7228471385017L130.13737796783448,158.76191921330755L130.32302330017092,158.95984390312734L130.369434633255,156.2254734866605L130.39264029979705,157.99471641802594L131.7153632926941,158.8632771690216L131.83139162540436,157.18817161996049L131.90100862503053,158.73256454570728L131.99383129119872,157.1474124952925L132.109859623909,156.83733273064135L132.29550495624542,158.77143417452973L132.75961828708648,157.45634506603747L133.10770328521727,158.569325601052L133.13090895175935,158.79694236844443L133.17732028484346,158.45237930461226L133.78066761493682,158.1515445732053L134.10554694652558,158.89924507208124L134.12875261306763,158.5525225844256L134.3840149450302,158.73546627147007L134.70889427661896,158.8059174737107L134.87133394241334,158.70415462602978L135.40506427288057,158.77366108034767L135.59070960521697,158.3323963184208L135.66032660484314,158.79559272855477L135.6835322713852,149.69632059241485L135.86917760372162,158.50825439604452L135.91558893680573,156.76303505471515L136.84381559848785,157.6691157946436L137.37754592895507,158.13352688067826L137.63280826091767,158.86084781722022L137.67921959400178,157.49386505497023L137.9576875925064,158.09398243191097L138.653857588768,158.76590065098208L138.72347458839417,158.99061569261175L138.97873692035674,158.8527499778822L139.0019425868988,157.93634449279782L139.02514825344088,159.13361003892206L139.48926158428193,158.85490940170567L139.67490691661837,157.21658153963799L139.72131824970245,157.07217007144354L139.9301692485809,158.78938438506228L139.953374915123,158.9599113851218L140.23184291362764,158.92718261779737L140.30145991325378,159.02307453195826L140.46389957904813,158.83014350973028L140.53351657867432,157.0629925201938L140.55672224521638,155.07767224249255L140.99762990951538,158.50717468413276L141.46174324035644,158.67770168419227L141.7402112388611,158.92698017181394L142.01867923736572,158.94870937403758L142.134707570076,157.48428261175357L142.5292039012909,158.72304958448512L142.6220265674591,158.45845268411577L143.29499089717862,158.33813228795188L143.34140223026276,157.3440550272171L143.80551556110382,158.43092003036654L144.82656488895415,158.4952978531037L144.8497705554962,159.09035408045818L145.197855553627,158.4458335511474L145.5459405517578,158.9271151358029L146.01005388259887,158.62175911076557L146.03325954914092,158.56014804980222L146.07967088222503,157.9752141216202L146.2421105480194,158.15829277265365L146.3813445472717,156.9013731434061L146.4509615468979,158.48693008578775L146.497372879982,158.97860389759373L146.5901955461502,159.07321365385943L147.07751454353334,157.5572981297846L147.21674854278564,158.23103836270676L147.23995420932772,158.5216833129467L147.75047887325286,158.7118475734009L147.7736845397949,158.7312149058176L147.796890206337,158.9493167119879L148.30741487026214,157.48529484167082L148.79473386764525,159.0216574100741L149.09640753269196,158.7088783656436L149.93181152820586,158.7528091440523L150.27989652633667,158.81752437676187L150.32630785942078,158.5777608503624L150.53515885829924,158.96956131033292L150.65118719100954,159.02644863168243L150.72080419063568,158.2596507283677L151.5097968530655,158.8534922798215L151.57941385269166,158.35534019654514L152.06673285007477,158.9095698172372L152.11314418315888,158.8746141440948L152.20596684932707,157.95402477535245L152.34520084857942,158.85261501389323L152.3916121816635,158.98487972308067L152.87893117904665,158.93615772306364L152.92534251213075,158.89647831030743L153.11098784446716,158.70705635179255L153.38945584297178,159.03684085883287L153.45907284259798,158.9453352743134L153.50548417568208,158.3024343128702L153.5286898422241,158.9603162770887L153.55189550876617,158.51122360380177L153.85356917381287,159.11896644611917L153.87677484035493,158.91490089480138L154.01600883960725,159.0834709170209L155.24590916633605,158.9173302466028L155.3851431655884,159.1591182328368L155.71002249717714,159.03373668708664L155.7796394968033,159.05398128543166L156.59183782577514,158.75436122992542L156.7542774915695,159.0192955402672L157.4968588209152,159.07955696134084L157.9145608186722,158.83635185322274L158.1002061510086,158.78439071747053L158.12341181755065,159.05850257906204L158.16982315063476,159.03643596686598L158.42508548259735,159.06666790039455L159.0980498123169,158.91719528261385L159.1908724784851,157.21934830141183L160.30474447250367,158.41290233783948L160.72244647026062,159.12611953753438L160.74565213680268,158.69727146259245L160.79206346988678,159.00377468153602L160.8384748029709,159.11498500844462L160.90809180259703,158.9911555485676L161.325793800354,159.03940517462323L161.39541079998017,159.052631645542L162.48607712745667,158.8656390388285L162.57889979362488,158.9339308172457L162.8573677921295,158.82980609975786L162.90377912521362,158.957144623348L163.066218791008,157.86339645676125L163.43750945568084,158.9978362660215L163.62315478801727,157.97467426566436L163.69277178764344,158.7138720332354L163.99444545269012,156.60451984967366L164.1568851184845,158.59692573679567L164.94587778091432,159.10317565941003L164.96908344745637,159.12557968157853L165.68845911026,158.9539054876128L165.7348704433441,158.94796707209824L165.82769310951232,158.80342063991483L165.8973101091385,158.95761699730937L165.96692710876465,158.91388866488413L165.9901327753067,159.07301120787596L166.08295544147492,158.90768032139167L166.24539510726927,158.39137558159928L166.45424610614776,155.90358437297473L166.6398914384842,158.82899631582404L166.75591977119447,158.76920726871177L166.9415651035309,158.6146060193503L167.01118210315704,159.05364387545924L167.0343877696991,159.07813983945672L167.5217067670822,158.13669853441897L167.80017476558686,158.77703518007183L167.9626144313812,159.03636848487147L168.26428809642792,158.8605104072478L168.35711076259614,158.77487575624835L168.6355787611008,159.07206645995322L169.21572042465212,158.3913080996048L169.23892609119414,158.9233361441118L169.2621317577362,159.05722042116687L169.4013657569885,159.17433542259278L169.58701108932496,158.80692970362796L169.63342242240904,158.87130752636514L169.7262450885773,158.85160278397598L169.79586208820342,159.02449165384243L169.81906775474548,158.39697658714138L170.16715275287626,158.87353443218308L171.0489680814743,158.75010986427296L171.07217374801635,158.98447483111377L171.23461341381073,158.5724972547927L171.60590407848358,159.09305336023752L172.0004004096985,159.04271179235295L172.25566274166107,158.6983511745042L172.37169107437134,159.01470676464234L172.60374773979188,158.9310965734774L172.69657040596007,157.2099683041786L172.90542140483856,158.4529866425626L172.92862707138062,158.62027450688694L172.99824407100675,158.91969211640972L173.3231234025955,156.56679741475747L173.3463290691376,158.99594677017595L173.50876873493195,159.0221297840355L173.71761973381044,159.07996185330776L173.94967639923098,158.24284771174135L174.08891039848328,159.07719509153392L174.32096706390382,158.84269516070415L174.64584639549255,158.91874736848695L174.94752006053923,159.08650760677264L175.1099597263336,159.1207884599702L175.27239939212797,158.69335750691243L175.45804472446443,158.7407298670398L175.69010138988494,159.12180068988746L175.87574672222138,158.98116821338408L175.89895238876343,158.9513411718224L175.9221580553055,159.09501033807757L175.99177505493165,159.0408222965074L176.0149807214737,159.09662990594515L176.20062605381014,158.87711097789068L177.91784537792208,158.88952766487566L177.9410510444641,159.12503982562268L177.96425671100616,159.09622501397826L177.9874623775482,159.17261463173347L178.26593037605286,158.87812320780793L178.335547375679,158.9701686482833L178.5908097076416,158.89809787817504L178.7996607065201,159.15061550153186L179.3333910369873,159.14987319959255L179.635064702034,158.87110508038168L179.70468170166015,158.5699329390023L179.91353270053864,159.06545322449384L180.09917803287507,159.074968185716L180.21520636558532,158.63781982545262L180.23841203212737,158.7011854182725L180.47046869754791,158.76650798893243L180.56329136371613,158.8925643546274L181.09702169418335,159.14184284224902L181.30587269306184,159.0489201358454L181.37548969268798,158.973340302024L181.4219010257721,159.13354255692755L182.14127668857574,158.92110923829387L182.1644823551178,159.099396667719L182.28051068782804,159.10870918295768L182.4197446870804,159.15672262203262L182.67500701904297,159.05502725634616L183.09270901679992,158.93743988095886L183.27835434913635,159.08805969264577L183.4407940149307,158.32132927132554L183.556822347641,158.8956685263736L183.62643934726714,159.01632633250992L183.74246767997744,158.62587551242905L183.81208467960357,158.92792491973668L183.9049073457718,159.14032449737314L183.99773001193998,158.98261907626548L184.3922263431549,158.6792537700654L184.46184334278107,159.1232178117716L184.9955736732483,159.10634731315076L185.0883963394165,159.13809759155518L185.15801333904267,159.1033781053935L185.39007000446318,159.07145912200284L185.43648133754732,159.10155609154245L185.62212666988373,158.6911306010945L185.66853800296784,159.07422588377668L186.06303433418273,158.699160958438L186.08624000072479,159.06950214416284L186.34150233268738,151.36994153759733L186.68958733081817,158.95053138788862L186.7824099969864,159.07307868987047L186.99126099586488,158.99473209427524L187.24652332782745,158.82251804435364L187.478579993248,159.05168689761922L187.6178139925003,159.09055652644165L187.64101965904234,159.00782360120502L187.84987065792083,159.16944297799273L188.03551599025727,159.02246719400793L188.05872165679932,158.86793342664097L188.2675726556778,158.85214263993183L188.63886332035065,158.92691268981943L188.7084803199768,159.09824947381276L188.8245086526871,158.95012649592172L188.8709199857712,159.07361854582632L189.0565653181076,158.80126121609138L189.17259365081787,159.13644428269035L189.8455579805374,159.1346897508338L189.93838064670564,159.06336128266483L190.0079976463318,159.08110904721397L190.37928831100464,159.01828331034994L190.47211097717286,159.0676801303118L190.72737330913543,158.65138370634375L190.91301864147187,159.02368186990861L191.02904697418214,159.1386037065138L191.46995463848114,159.0570179751834L191.74842263698577,158.9071404654358L192.86229463100435,158.77690021608285L192.88550029754637,159.15486686718432L192.90870596408843,159.15739744197745L192.93191163063048,159.0713916400084L193.90654962539674,159.05620819124962L194.27784029006958,158.9908181385952L194.30104595661163,159.00539424940362L195.4613292837143,158.1601147865047L195.69338594913484,159.01382949871405L196.18070494651795,159.17551635749624L196.2503219461441,159.08617019680023L196.4591729450226,158.99884849593874L196.96969760894777,157.75252353982503L197.06252027511596,159.01625885051544L197.22495994091034,159.07436084776563L197.41060527324674,159.0687598422235L197.4338109397888,159.0855628588499L197.61945627212523,158.9482370000762L197.6426619386673,159.12618701952889L197.6890732717514,159.06545322449384L197.7354846048355,158.74322670083566L197.944335603714,158.86881069256924L198.31562626838684,159.03258949318044L199.15103026390074,159.01632633250992L199.19744159698487,159.04723308598332L199.24385293006898,159.02800071755556L199.75437759399415,159.16654125222996L200.07925692558288,159.07179653197525L200.10246259212494,159.06410358460417L200.14887392520905,158.9660522466198L200.1720795917511,159.00519180342016L200.75222125530243,158.82008869255222L200.79863258838654,159.16681118020787L200.8682495880127,159.14791622175252L200.89145525455476,159.12487112063647L201.2627459192276,159.12773910540201L201.44839125156403,159.06741020233383L201.4715969181061,158.96979749731364L201.75006491661074,159.11319673559083L202.09814991474153,159.12153076190953L204.72039023399353,159.0886670305961L204.76680156707764,159.06943466216833L205.43976589679718,156.47792362802284L205.9270848941803,159.14852355970288L206.0199075603485,158.2678160497002L206.3679925584793,158.9741500859578L206.669666223526,159.1422139932187L206.7160775566101,159.04507366215987L206.76248888969423,159.12922370928064L206.99454555511474,158.89776046820262L207.3194248867035,158.98299022723515L207.64430421829223,158.96915641836605L207.94597788333894,159.03609855689356L207.969183549881,158.87859558176933L208.17803454875948,159.02712345162726L208.2012402153015,158.95566001946938L208.34047421455384,159.16988161095688L208.61894221305846,159.01011798901746L208.96702721118925,159.06821998626765L209.36152354240417,158.98518339205586L209.40793487548828,158.67891636009298L209.57037454128266,159.14737636579665L209.66319720745088,159.08731739070643L209.89525387287142,159.14595924391253L209.9416652059555,159.13043838518135L210.70745220184327,159.07638530760013L210.84668620109557,158.77035446261797L210.98592020034792,159.11329795858254L211.10194853305816,159.10600990317835L211.40362219810484,159.01450431865888L212.74955085754394,159.0331293491363L212.9119905233383,159.0636312106428L213.4689265203476,159.1324291040186L213.65457185268403,159.11444515248877L213.9562455177307,158.98643180895377L214.1650965166092,158.93575283109678L214.4203588485718,159.0973722078845L214.51318151473998,159.06528451950763L215.97513850688932,159.11194831869287L216.16078383922576,159.10489645026937L216.71771983623503,155.50051441992545L216.81054250240325,159.00350475355808L217.55312383174896,158.29399906355977L217.71556349754334,159.1045927812942L217.7851804971695,159.00687885328225L217.80838616371156,159.1549343491788L217.85479749679564,159.15786981593882L218.1796768283844,159.05485855135996L218.34211649417878,159.01585395854855L218.45814482688903,158.99874727294699L218.66699582576751,158.81347545709286L218.8062298250198,159.12787406939097L218.8294354915619,158.92094053330766L219.20072615623474,158.84323501666003L219.24713748931885,158.82602710806677L219.54881115436552,159.13725406662414L219.82727915287018,159.02152244608513L219.98971881866456,158.90700550144683L220.5002434825897,159.07355106383184L221.61411547660825,158.8998524100316L221.7533494758606,158.18461075050217L222.28707980632782,159.15732995998295L223.02966113567354,158.93693376600024L223.3081291341782,158.4274784486479L223.35454046726227,157.93897629058264L223.4937744665146,159.05762531313374L223.60980279922487,158.98811885881585L224.21315012931825,159.14967075360912L225.3270221233368,158.7105654155057L225.44305045604705,159.0794894793464L225.4662561225891,159.01052288098435L225.69831278800964,159.168363266081L225.74472412109375,159.12058601398675L225.86075245380403,159.0367733768384L226.11601478576662,159.0669884398683L226.7657734489441,159.01757474940788L227.09065278053285,159.07260631590907L227.11385844707488,159.08205379513674L227.27629811286928,159.10121868157003L227.48514911174772,159.07631782560566L227.6940001106262,159.16208744059404L227.87964544296264,158.81792926872876L228.22773044109346,159.03974258459564L228.39017010688784,159.0989242937576L228.43658143997192,158.9080852133586L228.5526097726822,159.15878082286437L228.69184377193451,159.00465194746428L228.71504943847657,159.0968998339231L229.80571576595307,158.9116617590662L229.89853843212128,157.21995563936215L229.94494976520537,158.42039283922713L230.26982909679413,159.15786981593882L230.3858574295044,158.7962675484996L230.4322687625885,159.0648796275407L230.80355942726135,159.0416320804412L230.91958775997162,159.0273933796052L231.15164442539213,158.9462125402417L231.84781442165374,159.0056304363843L232.31192775249482,159.1436985970973L232.6600127506256,158.80517517177142L232.8688637495041,159.01214244885196L233.28656574726105,159.1171444322681L233.5186224126816,159.13894111648622L233.58823941230773,159.0376506427667L234.23799807548522,159.1529098893443L234.3540264081955,159.09062400843615L234.58608307361604,159.07122293502218L234.8645510721207,159.05566833529375L235.003785071373,159.02891172448108L235.02699073791504,159.09170372034785L235.2822530698776,158.99048072862277L235.35187006950378,159.1435973741056L235.4911040687561,158.93541542112436L235.51430973529816,159.12625450152336L236.7906213951111,158.8733994681941L237.13870639324188,159.11113853475908L237.2315290594101,159.16655812272856L237.74205372333526,159.12699680346267L237.9741103887558,159.13006723421168L238.1133443880081,159.02280460398035L238.18296138763426,159.12561342257575L238.53104638576508,159.0609994128579L238.64707471847532,158.89060737678736L238.69348605155943,159.15952312480366L238.78630871772768,159.13880615249727L238.92554271697998,158.99247144746005L239.3200390481949,159.00890331311675L239.59850704669955,159.03603107489906L239.83056371212004,158.96156469398667L239.8537693786621,158.44994995281084L240.1090317106247,159.0233444599362L240.15544304370883,158.98643180895377L240.2018543767929,159.16161506663266L240.48032237529756,159.0116700748906L240.68917337417602,158.97205814412882L240.73558470726013,159.07409091978772L241.13008103847503,158.83496847233582L241.15328670501708,159.05242919955853L241.2461093711853,159.0326569751749L241.36213770389557,159.1810498810439L241.54778303623198,159.1182578851771L241.82625103473663,159.0852591898747L241.96548503398895,159.05020229374057L242.1975416994095,159.00802604718845L242.45280403137207,158.93899196683196L242.94012302875518,158.9730028920516L243.58988169193267,159.04676071202195L243.65949869155884,158.9519485097728L243.89155535697938,159.10324314140453L243.91476102352144,158.57263221878165L245.58556901454926,159.09386314417134L245.7015973472595,159.04034992254603L245.7712143468857,159.10243335747074L245.910448346138,159.10425537132178L246.1657106781006,158.8644918449223L246.58341267585755,159.09959911370242L246.72264667510987,159.095212784061L246.792263674736,159.10034141564174L247.18676000595093,159.00036684081462L247.23317133903504,158.44914016887705L247.37240533828734,159.17470657356242L247.4420223379135,159.13030342119237L247.46522800445558,159.15091917050702L248.11498666763305,159.0431166843198L248.1846036672592,158.72122757063406L248.25422066688537,158.8497807701249L248.7879509973526,159.05857006105654L248.99680199623108,159.13981838241452L249.20565299510957,158.95110498484175L250.48196465492248,159.01538158458717L250.94607798576354,159.01895813029478L251.03890065193175,159.13799636856348L251.08531198501586,158.92401096405663L251.87430464744568,158.90376636571162L252.2223896455765,159.0257738117376L252.5008576440811,159.1151199724336L252.54726897716523,159.1409318353235L252.64009164333345,158.9952719502311L253.42908430576324,159.0507084086992L253.63793530464173,159.12423004168886L253.7075523042679,158.99500202225317L253.753963637352,159.0964274599617L254.3805166339874,159.13961593643106L254.70539596557617,158.9164529806745L254.82142429828644,159.11242069265427L254.96065829753874,159.0658243754635L255.00706963062285,159.0757104876553L255.26233196258545,159.06383365662623" fill="none"></path></g></g></g></g></g></g><g transform="translate(51, 176)" clip-path="url(#clip_1)"><clipPath id="clip_1"><rect width="278" height="23"></rect></clipPath><g><g><line x1="0" y1="0" x2="0" y2="5" style="visibility: inherit;" fill="rgb(0, 0, 0)" stroke="rgb(204, 204, 204)" stroke-width="1px"></line><line x1="23.205666542053223" y1="0" x2="23.205666542053223" y2="5" style="visibility: inherit;" fill="rgb(0, 0, 0)" stroke="rgb(204, 204, 204)" stroke-width="1px"></line><line x1="46.411333084106445" y1="0" x2="46.411333084106445" y2="5" style="visibility: inherit;" fill="rgb(0, 0, 0)" stroke="rgb(204, 204, 204)" stroke-width="1px"></line><line x1="69.61699962615967" y1="0" x2="69.61699962615967" y2="5" style="visibility: inherit;" fill="rgb(0, 0, 0)" stroke="rgb(204, 204, 204)" stroke-width="1px"></line><line x1="92.82266616821289" y1="0" x2="92.82266616821289" y2="5" style="visibility: inherit;" fill="rgb(0, 0, 0)" stroke="rgb(204, 204, 204)" stroke-width="1px"></line><line x1="116.02833271026611" y1="0" x2="116.02833271026611" y2="5" style="visibility: inherit;" fill="rgb(0, 0, 0)" stroke="rgb(204, 204, 204)" stroke-width="1px"></line><line x1="139.23399925231934" y1="0" x2="139.23399925231934" y2="5" style="visibility: inherit;" fill="rgb(0, 0, 0)" stroke="rgb(204, 204, 204)" stroke-width="1px"></line><line x1="162.43966579437256" y1="0" x2="162.43966579437256" y2="5" style="visibility: inherit;" fill="rgb(0, 0, 0)" stroke="rgb(204, 204, 204)" stroke-width="1px"></line><line x1="185.64533233642578" y1="0" x2="185.64533233642578" y2="5" style="visibility: inherit;" fill="rgb(0, 0, 0)" stroke="rgb(204, 204, 204)" stroke-width="1px"></line><line x1="208.850998878479" y1="0" x2="208.850998878479" y2="5" style="visibility: inherit;" fill="rgb(0, 0, 0)" stroke="rgb(204, 204, 204)" stroke-width="1px"></line><line x1="232.05666542053223" y1="0" x2="232.05666542053223" y2="5" style="visibility: inherit;" fill="rgb(0, 0, 0)" stroke="rgb(204, 204, 204)" stroke-width="1px"></line><line x1="255.26233196258545" y1="0" x2="255.26233196258545" y2="5" style="visibility: inherit;" fill="rgb(0, 0, 0)" stroke="rgb(204, 204, 204)" stroke-width="1px"></line><line x1="278.4679985046387" y1="0" x2="278.4679985046387" y2="5" style="visibility: inherit;" fill="rgb(0, 0, 0)" stroke="rgb(204, 204, 204)" stroke-width="1px"></line></g><g transform="translate(0, 8)"><text style="text-anchor: middle; visibility: hidden; font-family: Roboto, sans-serif; font-size: 12px; font-weight: 200;" x="0" y="0" dx="0em" dy="0.95em" fill="rgb(33, 33, 33)" stroke="none" stroke-width="1px">-1k</text><text style="text-anchor: middle; visibility: inherit; font-family: Roboto, sans-serif; font-size: 12px; font-weight: 200;" x="23.205666542053223" y="0" dx="0em" dy="0.95em" fill="rgb(33, 33, 33)" stroke="none" stroke-width="1px">0</text><text style="text-anchor: middle; visibility: inherit; font-family: Roboto, sans-serif; font-size: 12px; font-weight: 200;" x="46.411333084106445" y="0" dx="0em" dy="0.95em" fill="rgb(33, 33, 33)" stroke="none" stroke-width="1px">1k</text><text style="text-anchor: middle; visibility: inherit; font-family: Roboto, sans-serif; font-size: 12px; font-weight: 200;" x="69.61699962615967" y="0" dx="0em" dy="0.95em" fill="rgb(33, 33, 33)" stroke="none" stroke-width="1px">2k</text><text style="text-anchor: middle; visibility: inherit; font-family: Roboto, sans-serif; font-size: 12px; font-weight: 200;" x="92.82266616821289" y="0" dx="0em" dy="0.95em" fill="rgb(33, 33, 33)" stroke="none" stroke-width="1px">3k</text><text style="text-anchor: middle; visibility: inherit; font-family: Roboto, sans-serif; font-size: 12px; font-weight: 200;" x="116.02833271026611" y="0" dx="0em" dy="0.95em" fill="rgb(33, 33, 33)" stroke="none" stroke-width="1px">4k</text><text style="text-anchor: middle; visibility: inherit; font-family: Roboto, sans-serif; font-size: 12px; font-weight: 200;" x="139.23399925231934" y="0" dx="0em" dy="0.95em" fill="rgb(33, 33, 33)" stroke="none" stroke-width="1px">5k</text><text style="text-anchor: middle; visibility: inherit; font-family: Roboto, sans-serif; font-size: 12px; font-weight: 200;" x="162.43966579437256" y="0" dx="0em" dy="0.95em" fill="rgb(33, 33, 33)" stroke="none" stroke-width="1px">6k</text><text style="text-anchor: middle; visibility: inherit; font-family: Roboto, sans-serif; font-size: 12px; font-weight: 200;" x="185.64533233642578" y="0" dx="0em" dy="0.95em" fill="rgb(33, 33, 33)" stroke="none" stroke-width="1px">7k</text><text style="text-anchor: middle; visibility: inherit; font-family: Roboto, sans-serif; font-size: 12px; font-weight: 200;" x="208.850998878479" y="0" dx="0em" dy="0.95em" fill="rgb(33, 33, 33)" stroke="none" stroke-width="1px">8k</text><text style="text-anchor: middle; visibility: inherit; font-family: Roboto, sans-serif; font-size: 12px; font-weight: 200;" x="232.05666542053223" y="0" dx="0em" dy="0.95em" fill="rgb(33, 33, 33)" stroke="none" stroke-width="1px">9k</text><text style="text-anchor: middle; visibility: inherit; font-family: Roboto, sans-serif; font-size: 12px; font-weight: 200;" x="255.26233196258545" y="0" dx="0em" dy="0.95em" fill="rgb(33, 33, 33)" stroke="none" stroke-width="1px">10k</text><text style="text-anchor: middle; visibility: hidden; font-family: Roboto, sans-serif; font-size: 12px; font-weight: 200;" x="278.4679985046387" y="0" dx="0em" dy="0.95em" fill="rgb(33, 33, 33)" stroke="none" stroke-width="1px">11k</text></g><line x1="0" y1="0" x2="278.4679985046387" y2="0" fill="rgb(0, 0, 0)" stroke="rgb(204, 204, 204)" stroke-width="1px"></line></g></g></g></g></svg>