<svg viewBox="0 0 330 200" xmlns="http://www.w3.org/2000/svg"><g><g><g><g><g><line x1="51.53200149536133" y1="176.57899951934814" x2="46.53200149536133" y2="176.57899951934814" style="visibility: inherit;" fill="rgb(0, 0, 0)" stroke="rgb(204, 204, 204)" stroke-width="1px"></line><line x1="51.53200149536133" y1="160.5263631994074" x2="46.53200149536133" y2="160.5263631994074" style="visibility: inherit;" fill="rgb(0, 0, 0)" stroke="rgb(204, 204, 204)" stroke-width="1px"></line><line x1="51.53200149536133" y1="144.47372687946665" x2="46.53200149536133" y2="144.47372687946665" style="visibility: inherit;" fill="rgb(0, 0, 0)" stroke="rgb(204, 204, 204)" stroke-width="1px"></line><line x1="51.53200149536133" y1="128.42109055952594" x2="46.53200149536133" y2="128.42109055952594" style="visibility: inherit;" fill="rgb(0, 0, 0)" stroke="rgb(204, 204, 204)" stroke-width="1px"></line><line x1="51.53200149536133" y1="112.36845423958518" x2="46.53200149536133" y2="112.36845423958518" style="visibility: inherit;" fill="rgb(0, 0, 0)" stroke="rgb(204, 204, 204)" stroke-width="1px"></line><line x1="51.53200149536133" y1="96.31581791964443" x2="46.53200149536133" y2="96.31581791964443" style="visibility: inherit;" fill="rgb(0, 0, 0)" stroke="rgb(204, 204, 204)" stroke-width="1px"></line><line x1="51.53200149536133" y1="80.26318159970371" x2="46.53200149536133" y2="80.26318159970371" style="visibility: inherit;" fill="rgb(0, 0, 0)" stroke="rgb(204, 204, 204)" stroke-width="1px"></line><line x1="51.53200149536133" y1="64.21054527976297" x2="46.53200149536133" y2="64.21054527976297" style="visibility: inherit;" fill="rgb(0, 0, 0)" stroke="rgb(204, 204, 204)" stroke-width="1px"></line><line x1="51.53200149536133" y1="48.157908959822215" x2="46.53200149536133" y2="48.157908959822215" style="visibility: inherit;" fill="rgb(0, 0, 0)" stroke="rgb(204, 204, 204)" stroke-width="1px"></line><line x1="51.53200149536133" y1="32.10527263988147" x2="46.53200149536133" y2="32.10527263988147" style="visibility: inherit;" fill="rgb(0, 0, 0)" stroke="rgb(204, 204, 204)" stroke-width="1px"></line><line x1="51.53200149536133" y1="16.052636319940746" x2="46.53200149536133" y2="16.052636319940746" style="visibility: inherit;" fill="rgb(0, 0, 0)" stroke="rgb(204, 204, 204)" stroke-width="1px"></line><line x1="51.53200149536133" y1="0" x2="46.53200149536133" y2="0" style="visibility: inherit;" fill="rgb(0, 0, 0)" stroke="rgb(204, 204, 204)" stroke-width="1px"></line></g><g transform="translate(41.53200149536133, 0)"><text style="text-anchor: end; visibility: hidden; font-family: Roboto, sans-serif; font-size: 12px; font-weight: 200;" x="0" y="176.57899951934814" dx="0em" dy="0.3em" fill="rgb(33, 33, 33)" stroke="none" stroke-width="1px">-0.5</text><text style="text-anchor: end; visibility: inherit; font-family: Roboto, sans-serif; font-size: 12px; font-weight: 200;" x="0" y="160.5263631994074" dx="0em" dy="0.3em" fill="rgb(33, 33, 33)" stroke="none" stroke-width="1px">0</text><text style="text-anchor: end; visibility: hidden; font-family: Roboto, sans-serif; font-size: 12px; font-weight: 200;" x="0" y="144.47372687946665" dx="0em" dy="0.3em" fill="rgb(33, 33, 33)" stroke="none" stroke-width="1px">0.5</text><text style="text-anchor: end; visibility: inherit; font-family: Roboto, sans-serif; font-size: 12px; font-weight: 200;" x="0" y="128.42109055952594" dx="0em" dy="0.3em" fill="rgb(33, 33, 33)" stroke="none" stroke-width="1px">1</text><text style="text-anchor: end; visibility: hidden; font-family: Roboto, sans-serif; font-size: 12px; font-weight: 200;" x="0" y="112.36845423958518" dx="0em" dy="0.3em" fill="rgb(33, 33, 33)" stroke="none" stroke-width="1px">1.5</text><text style="text-anchor: end; visibility: inherit; font-family: Roboto, sans-serif; font-size: 12px; font-weight: 200;" x="0" y="96.31581791964443" dx="0em" dy="0.3em" fill="rgb(33, 33, 33)" stroke="none" stroke-width="1px">2</text><text style="text-anchor: end; visibility: hidden; font-family: Roboto, sans-serif; font-size: 12px; font-weight: 200;" x="0" y="80.26318159970371" dx="0em" dy="0.3em" fill="rgb(33, 33, 33)" stroke="none" stroke-width="1px">2.5</text><text style="text-anchor: end; visibility: inherit; font-family: Roboto, sans-serif; font-size: 12px; font-weight: 200;" x="0" y="64.21054527976297" dx="0em" dy="0.3em" fill="rgb(33, 33, 33)" stroke="none" stroke-width="1px">3</text><text style="text-anchor: end; visibility: hidden; font-family: Roboto, sans-serif; font-size: 12px; font-weight: 200;" x="0" y="48.157908959822215" dx="0em" dy="0.3em" fill="rgb(33, 33, 33)" stroke="none" stroke-width="1px">3.5</text><text style="text-anchor: end; visibility: inherit; font-family: Roboto, sans-serif; font-size: 12px; font-weight: 200;" x="0" y="32.10527263988147" dx="0em" dy="0.3em" fill="rgb(33, 33, 33)" stroke="none" stroke-width="1px">4</text><text style="text-anchor: end; visibility: hidden; font-family: Roboto, sans-serif; font-size: 12px; font-weight: 200;" x="0" y="16.052636319940746" dx="0em" dy="0.3em" fill="rgb(33, 33, 33)" stroke="none" stroke-width="1px">4.5</text><text style="text-anchor: end; visibility: hidden; font-family: Roboto, sans-serif; font-size: 12px; font-weight: 200;" x="0" y="0" dx="0em" dy="0.3em" fill="rgb(33, 33, 33)" stroke="none" stroke-width="1px">5</text></g><line x1="51.53200149536133" y1="0" x2="51.53200149536133" y2="176.57899951934814" fill="rgb(0, 0, 0)" stroke="rgb(204, 204, 204)" stroke-width="1px"></line></g></g><g transform="translate(51, 0)" clip-path="url(#clip_0)"><clipPath id="clip_0"><rect width="278" height="176"></rect></clipPath><g><g><g><line x1="0" y1="0" x2="0" y2="176.57899951934814" fill="rgb(0, 0, 0)" stroke="rgb(66, 66, 66)" stroke-width="1px" opacity="0.25"></line><line x1="27.846799850463867" y1="0" x2="27.846799850463867" y2="176.57899951934814" fill="rgb(0, 0, 0)" stroke="rgb(66, 66, 66)" stroke-width="1px" opacity="0.25"></line><line x1="55.693599700927734" y1="0" x2="55.693599700927734" y2="176.57899951934814" fill="rgb(0, 0, 0)" stroke="rgb(66, 66, 66)" stroke-width="1px" opacity="0.25"></line><line x1="83.5403995513916" y1="0" x2="83.5403995513916" y2="176.57899951934814" fill="rgb(0, 0, 0)" stroke="rgb(66, 66, 66)" stroke-width="1px" opacity="0.25"></line><line x1="111.38719940185547" y1="0" x2="111.38719940185547" y2="176.57899951934814" fill="rgb(0, 0, 0)" stroke="rgb(66, 66, 66)" stroke-width="1px" opacity="0.25"></line><line x1="139.23399925231934" y1="0" x2="139.23399925231934" y2="176.57899951934814" fill="rgb(0, 0, 0)" stroke="rgb(66, 66, 66)" stroke-width="1px" opacity="0.25"></line><line x1="167.0807991027832" y1="0" x2="167.0807991027832" y2="176.57899951934814" fill="rgb(0, 0, 0)" stroke="rgb(66, 66, 66)" stroke-width="1px" opacity="0.25"></line><line x1="194.92759895324707" y1="0" x2="194.92759895324707" y2="176.57899951934814" fill="rgb(0, 0, 0)" stroke="rgb(66, 66, 66)" stroke-width="1px" opacity="0.25"></line><line x1="222.77439880371094" y1="0" x2="222.77439880371094" y2="176.57899951934814" fill="rgb(0, 0, 0)" stroke="rgb(66, 66, 66)" stroke-width="1px" opacity="0.25"></line><line x1="250.6211986541748" y1="0" x2="250.6211986541748" y2="176.57899951934814" fill="rgb(0, 0, 0)" stroke="rgb(66, 66, 66)" stroke-width="1px" opacity="0.25"></line><line x1="278.4679985046387" y1="0" x2="278.4679985046387" y2="176.57899951934814" fill="rgb(0, 0, 0)" stroke="rgb(66, 66, 66)" stroke-width="1px" opacity="0.25"></line></g><g><line x1="0" y1="176.57899951934814" x2="278.4679985046387" y2="176.57899951934814" fill="rgb(0, 0, 0)" stroke="rgb(66, 66, 66)" stroke-width="1px" opacity="0.25"></line><line x1="0" y1="160.5263631994074" x2="278.4679985046387" y2="160.5263631994074" fill="rgb(0, 0, 0)" stroke="rgb(66, 66, 66)" stroke-width="1px" opacity="0.25"></line><line x1="0" y1="144.47372687946665" x2="278.4679985046387" y2="144.47372687946665" fill="rgb(0, 0, 0)" stroke="rgb(66, 66, 66)" stroke-width="1px" opacity="0.25"></line><line x1="0" y1="128.42109055952594" x2="278.4679985046387" y2="128.42109055952594" fill="rgb(0, 0, 0)" stroke="rgb(66, 66, 66)" stroke-width="1px" opacity="0.25"></line><line x1="0" y1="112.36845423958518" x2="278.4679985046387" y2="112.36845423958518" fill="rgb(0, 0, 0)" stroke="rgb(66, 66, 66)" stroke-width="1px" opacity="0.25"></line><line x1="0" y1="96.31581791964443" x2="278.4679985046387" y2="96.31581791964443" fill="rgb(0, 0, 0)" stroke="rgb(66, 66, 66)" stroke-width="1px" opacity="0.25"></line><line x1="0" y1="80.26318159970371" x2="278.4679985046387" y2="80.26318159970371" fill="rgb(0, 0, 0)" stroke="rgb(66, 66, 66)" stroke-width="1px" opacity="0.25"></line><line x1="0" y1="64.21054527976297" x2="278.4679985046387" y2="64.21054527976297" fill="rgb(0, 0, 0)" stroke="rgb(66, 66, 66)" stroke-width="1px" opacity="0.25"></line><line x1="0" y1="48.157908959822215" x2="278.4679985046387" y2="48.157908959822215" fill="rgb(0, 0, 0)" stroke="rgb(66, 66, 66)" stroke-width="1px" opacity="0.25"></line><line x1="0" y1="32.10527263988147" x2="278.4679985046387" y2="32.10527263988147" fill="rgb(0, 0, 0)" stroke="rgb(66, 66, 66)" stroke-width="1px" opacity="0.25"></line><line x1="0" y1="16.052636319940746" x2="278.4679985046387" y2="16.052636319940746" fill="rgb(0, 0, 0)" stroke="rgb(66, 66, 66)" stroke-width="1px" opacity="0.25"></line><line x1="0" y1="0" x2="278.4679985046387" y2="0" fill="rgb(0, 0, 0)" stroke="rgb(66, 66, 66)" stroke-width="1px" opacity="0.25"></line></g></g></g><g><g><line x1="0" y1="160.5263631994074" x2="278.4679985046387" y2="160.5263631994074" fill="rgb(0, 0, 0)" stroke="rgb(153, 153, 153)" stroke-width="1.5px"></line></g></g><g><g><line x1="27.846799850463867" y1="0" x2="27.846799850463867" y2="176.57899951934814" fill="rgb(0, 0, 0)" stroke="rgb(153, 153, 153)" stroke-width="1.5px"></line></g></g><g><g><g><g><g><path style="fill: none;" stroke="rgb(255, 112, 67)" stroke-width="2px" d="M36.03375900650024,-0.7511361513325925L36.08945260620117,3.450489477483188L36.256533405303955,-0.22328589631635518L36.64638860321045,-2.1436774419788307L36.81346940231324,2.144619830773432L36.924856601715085,3.4552241369199406L37.036243801116946,5.366666143717056L37.42609899902344,4.966912814009986L37.48179259872436,5.157079797229839L37.760260597229006,10.474793754641333L38.1501157951355,11.28016617024088L38.20580939483642,12.902896013053342L38.26150299453735,10.742313418839078L38.53997099304199,13.365334299275307L38.59566459274292,20.669269779969756L38.98551979064942,20.701097685493217L39.1526005897522,20.050037064627816L39.20829418945313,16.208361840019457L39.31968138885498,20.79369337083158L39.65384298706055,29.770333019494554L39.765230186462404,30.954572020549993L39.87661738586426,25.358419349256163L40.155085384368896,22.414820132472425L40.210778984069826,27.31494979112646L40.3778597831726,31.528722852402L40.65632778167724,30.645779645540838L41.49173177719116,45.477165421891186L41.54742537689209,37.19829864966516L42.27144217300415,41.50579730501391L42.32713577270508,52.51647043314423L42.38282937240601,56.509391330443826L42.995458969116214,58.3433393850179L43.16253976821899,60.82396571989443L43.385314167022706,78.20355619957662L43.608088565826414,65.28810193949454L43.7751693649292,70.92793127939797L43.94225016403198,72.26524625369288L44.05363736343384,77.94724109809292L44.33210536193848,77.19475473029743L44.44349256134033,75.68834062904146L44.49918616104126,78.32669611505776L45.056122158050535,76.1189906252007L45.27889655685425,84.79417521993815L45.50167095565796,77.72478181540613L45.61305815505982,77.64792459011387L45.66875175476074,87.93794448878381L45.835832553863526,79.27441445760402L46.67123654937744,94.07219839337468L46.72693014907837,108.95001173322692L47.11678534698486,89.49121038340218L47.17247894668579,92.63012642351126L47.50664054489136,92.17125996811323L47.618027744293215,90.058726607957L47.84080214309692,105.49250278688122L48.174963741302484,100.59956762171741L48.230657341003415,88.5724072678202L48.286350940704345,98.56503409913695L48.342044540405276,109.26700491060872L48.95467413711548,91.66006301894326L49.4002229347229,89.90789908447672L49.62299733352661,102.64648557851139L49.734384532928466,82.93755692025057L50.01285253143311,101.13694434191721L50.29132052993775,98.55043618482262L50.402707729339596,110.83819101318174L51.0153373260498,110.91039308436548L51.34949892425537,114.78174448766269L51.405192523956295,102.02805722146346L51.62796692276001,111.76892489403944L52.18490291976929,127.29863239995358L52.24059651947021,117.13900067861877L52.35198371887207,114.69337114529158L52.57475811767578,118.051536020861L52.63045171737671,117.25230969141087L52.74183891677857,121.09554485256456L52.96461331558228,120.33105532286248L53.07600051498413,124.97689857491878L53.29877491378784,120.68676407469715L53.577242912292476,126.66799751256302L53.80001731109619,107.27208135978118L53.967098110198975,110.01814465324172L54.078485309600836,116.96933541907731L54.301259708404544,126.04384546390476L54.356953308105474,115.34390327057851L54.63542130661011,121.19693392040028L54.691114906311036,111.53726910502924L55.025276504516604,108.57945031429779L55.13666370391846,129.21292626305095L55.415131702423096,123.60652008798168L56.306229297637934,130.9257361827157L56.361922897338864,134.58715888283442L56.417616497039795,130.61335468362236L56.473310096740725,121.82842634216443L56.529003696441656,98.43138529722775L56.69608449554443,105.45711381268728L56.75177809524536,100.54028319791784L56.80747169494629,122.5892118342242L57.58718209075928,126.55924055508163L57.6428756904602,130.11043944177155L57.75426288986206,112.07678116861969L57.80995648956299,122.78009424461689L57.86565008926392,119.78103581782955L57.97703728866577,125.63346614888708L58.19981168746948,110.55023263616158L58.31119888687134,127.36457528074453L58.533973285675046,123.47494869505992L58.64536048507691,122.75339012158823L58.868134883880614,120.65356516741369L59.20229648208618,130.00277456552772L59.31368368148804,134.40116953612332L59.536458080291744,119.00276614863031L59.81492607879638,118.05742556183506L60.42755567550659,133.2862690333856L60.48324927520752,116.60985154970105L60.650330074310304,124.17150740653834L60.76171727371216,123.76634926306853L60.81741087341309,109.45043818730701L60.98449167251587,109.65634276106493L61.095878871917726,130.60273037044684L61.48573406982422,114.90202448881605L61.764202068328856,133.93348004562992L62.042670066833495,134.52550087138968L62.098363666534425,131.04944004967413L62.54391246414185,122.79272662536644L62.59960606384277,135.36601097827275L62.766686862945555,134.58562762415866L62.87807406234741,129.0332943250186L62.93376766204834,128.18906940878273L63.156542060852054,120.64294254989424L63.37931645965576,136.8755521084364L63.71347805786133,137.75792002296328L63.76917165756226,132.50509219490363L64.04763965606689,106.86329877843819L64.15902685546875,123.51329401981121L64.38180125427246,134.01454114666114L64.54888205337525,116.51837085899517L64.6602692527771,132.43852468111982L65.0501244506836,129.5830667077331L65.21720524978637,136.83020086200767L65.49567324829101,127.62628132031865L65.55136684799194,129.81163596254137L65.77414124679565,127.02701126310097L65.99691564559936,139.88445384433683L66.44246444320679,137.2981692137378L66.55385164260863,127.01148497456387L66.72093244171143,111.64463938301635L67.44494923782348,129.8009714005344L67.72341723632813,138.2117753791017L68.05757883453369,132.478144851856L68.16896603393555,141.97855886486929L68.28035323333741,130.5521466555818L68.33604683303834,137.76415698720223L68.44743403244019,133.99135420857652L68.50312763214112,124.0045340753223L68.61451483154298,135.9245322426358L68.6702084312439,135.4227480200326L68.72590203094482,137.5752581387942L69.00437002944946,130.11270058751342L69.33853162765503,128.22873721704744L70.45240362167358,114.13557836799528L70.50809722137451,125.23591954271085L70.897952419281,141.27959258952833L71.06503321838379,129.0180643537375L71.12072681808472,133.4327842686692L71.23211401748658,130.09128968301033L71.34350121688843,125.57217564517451L71.45488841629029,118.96464421568345L71.78905001449584,133.27691679135415L72.6801476097107,144.85512916532574L72.73584120941162,145.4916972331169L72.84722840881348,153.36380058886613L73.01430920791626,154.35521551049607L73.45985800552367,145.98558692006165L73.51555160522462,138.126682824608L74.01679400253295,130.107884394089L74.23956840133667,146.7339540824579L74.2952620010376,145.1772534665682L74.40664920043945,123.19951644109109L74.46234280014039,136.49344706003134L74.68511719894408,127.02354989995804L74.85219799804688,138.67556326831442L74.96358519744872,143.66128965371075L75.29774679565429,132.77541815322726L75.63190839385986,147.07292359246543L75.79898919296265,135.86216788637955L75.9103763923645,127.24112542543138L76.1331507911682,133.37506055961677L76.35592518997193,129.54412572802008L76.41161878967284,139.1160447801552L77.13563558578493,129.49605449412394L77.24702278518676,139.0263868878669L77.58118438339234,137.458478234827L77.74826518249512,146.8537073033545L77.85965238189698,145.48024094917116L78.08242678070067,148.79046783826686L78.13812038040162,139.88782964613844L78.47228197860717,122.56069469670226L78.58366917800903,137.91966965201618L79.02921797561645,135.46881117584064L79.58615397262574,139.7130626806054L79.69754117202758,139.817458018753L79.80892837142945,139.67463367476842L80.36586436843872,141.7155338371256L80.7557195663452,147.56953825927528L80.92280036544801,136.8237408128726L81.08988116455079,141.6608276619378L81.5354299621582,136.63182732689L82.42652755737305,140.66596362907575L82.59360835647583,147.57474986981802L82.81638275527953,148.50980260835559L83.1505443534851,153.17412732324954L83.26193155288696,140.32372238054813L83.5403995513916,140.13658674714895L83.70748035049438,143.17780853920732L83.76317395019531,135.36336613499543L83.81886754989624,148.30642957180066L83.9302547492981,142.81211338817184L84.3201099472046,146.01071638594928L84.43149714660645,143.84072502902322L84.82135234451293,142.0936348582406L85.04412674331665,149.13529534618135L85.15551394271851,132.00551836007224L85.60106274032593,141.9851879921531L85.65675634002685,132.73964031378105L86.1579987373352,138.6141861817965L86.71493473434448,141.1001404218735L86.93770913314819,138.38922486160013L87.04909633255005,145.7129879444496L87.49464513015747,143.73774225182495L87.5503387298584,147.56915666042195L87.66172592926026,135.89155657447967L87.88450032806396,138.73633203595065L88.38574272537232,134.57760779986023L89.05406592178343,145.41368987795158L89.27684032058716,147.4695033472685L89.38822751998902,152.643913504421L89.5553083190918,135.94659127709298L89.66669551849365,152.20288311794056L89.77808271789551,147.88454795160098L90.33501871490479,136.6849268483751L90.39071231460571,141.80324894400465L90.5577931137085,140.9173972879024L90.61348671340943,150.52975109119006L90.7805675125122,148.28056980760556L90.94764831161498,150.00520632458236L91.05903551101684,138.03355927695372L91.33750350952148,139.52830621376177L91.72735870742798,144.64999576926192L92.00582670593262,134.22180765812004L92.06152030563355,144.09519441590285L92.61845630264283,150.4668806520689L92.72984350204469,148.3968065953323L93.28677949905396,155.62971620707717L93.39816669845581,147.17915429974116L93.45386029815674,144.17456827209423L93.73232829666138,147.43228013542364L93.84371549606324,150.99612581985085L94.12218349456788,152.78741595373813L94.34495789337159,136.07757459658734L94.40065149307252,148.7944615107421L95.06897468948364,151.30415919947487L95.51452348709107,155.0456667547681L95.73729788589478,148.61964332667162L96.01576588439941,151.51110324067346L96.12715308380128,154.93448021488973L96.34992748260497,151.9895223061974L97.1853314781189,152.01703615852296L97.29671867752074,147.71947790158694L97.51949307632447,142.18612703100624L97.57518667602538,135.05803681711407L97.63088027572633,146.45521754075574L97.74226747512817,139.43218120070142L97.90934827423096,136.5531133458511L98.07642907333374,144.43149293548527L98.13212267303467,141.29286502511044L98.46628427124024,138.75287162625898L98.68905867004395,141.1713860175152L98.96752666854859,153.02156675024014L99.07891386795045,148.32806263531236L99.30168826675414,146.02210291209263L99.46876906585693,152.43047998911962L99.74723706436157,155.09831947639222L99.91431786346436,143.6888143940314L100.192785861969,151.44355421949643L100.24847946166992,144.9172866100165L100.4155602607727,143.351749909169L100.63833465957642,140.060674416556L101.13957705688478,146.02699651392683L101.52943225479126,138.46477051201646L101.69651305389405,144.13909477660894L101.75220665359497,150.86182016652828L102.25344905090333,154.6655074577021L102.81038504791259,149.25595223929932L102.97746584701538,154.14567823945927L103.31162744522095,143.42751075839203L103.6457890434265,146.22293153494073L103.86856344223023,153.71605173383236L104.48119303894042,152.58710122940155L104.53688663864136,148.5248968981802L104.75966103744506,143.5623954283178L105.09382263565064,142.2928883687622L105.31659703445435,142.63032840261195L105.48367783355714,146.02133392302198L106.8203242263794,149.91316499251644L107.0430986251831,147.80861145262384L107.60003462219238,145.13019227757385L107.87850262069703,152.47177586434435L107.98988982009887,143.2484561899264L108.04558341979981,144.73963396350396L108.10127701950073,148.25503552222625L108.15697061920167,148.99020659531573L108.60251941680909,143.54960691964624L109.0480682144165,148.4574879679947L109.10376181411743,140.88711112237226L109.21514901351928,144.92542160291308L109.27084261322022,152.230147015485L109.93916580963135,155.7103364666715L109.99485940933228,149.31534538095576L110.10624660873412,152.70376699072642L110.71887620544433,128.53388059049772L110.88595700454712,142.01006046688778L111.10873140335083,145.7872248762003L111.33150580215454,153.21497225450662L111.55428020095826,135.73096954934715L111.94413539886476,142.6886155066866L111.99982899856568,144.70562452034628L112.05552259826659,138.38366440371448L112.16690979766845,148.4148315010866L112.33399059677123,154.18840645669493L113.00231379318237,155.7021372345744L113.33647539138794,151.93045933001704L113.50355619049073,150.26966269941687L113.55924979019164,151.4224481490952L114.11618578720093,150.6208848291326L114.28326658630371,154.35633012403648L114.33896018600464,155.73183615396258L114.89589618301392,155.69943935991563L115.06297698211671,155.04888237753616L115.11867058181763,151.42713766951036L115.23005778121949,155.10106365168136L115.4528321800232,152.72067840622617L115.50852577972412,149.11972395564914L115.6756065788269,147.9214584999272L115.89838097763062,145.22070841013036L116.17684897613526,148.2094594069846L116.78947857284545,141.72347514797687L117.06794657135009,151.89819462106303L117.17933377075195,153.86323719416444L117.62488256835937,157.59537245754962L118.51598016357421,151.5186989821137L118.96152896118164,141.2194343813949L119.07291616058349,143.87267481702514L119.23999695968628,152.6943931588046L119.57415855789185,153.81958216972757L119.62985215759277,153.58349060381622L120.01970735549926,150.54990164401525L120.46525615310668,146.30157925110612L120.6880305519104,144.55505080875517L120.91080495071411,153.1271672545705L121.13357934951782,149.4389946635618L121.30066014862061,134.9376715461876L121.41204734802245,148.57951485636107L121.74620894622802,141.58122085088235L121.85759614562988,150.91580534513128L121.91328974533081,155.97007197990138L122.24745134353638,150.40432241290335L122.3031449432373,147.43928913411952L122.6930001411438,150.2306750071601L122.80438734054566,155.1772156267228L122.97146813964844,151.6099675617499L123.0828553390503,153.73020327735765L123.13854893875121,148.15459901383056L123.19424253845216,137.0804176287377L123.58409773635863,148.92792404781844L123.80687213516235,155.6418884729281L123.86256573486327,151.95952523832474L123.97395293426513,154.41639450320676L124.25242093276977,157.8873788345528L124.6979697303772,158.09410175009884L124.75366333007813,158.48359424942873L124.97643772888183,152.32501988414154L125.0878249282837,142.99746776583402L125.53337372589111,142.21836793319028L125.58906732559204,151.23983690535647L126.20169692230225,156.20580001230368L126.75863291931152,158.2379620750916L126.87002011871338,149.80876645416572L127.25987531661988,156.3315708686223L127.3155689163208,158.62614294943776L127.37126251602172,146.9737458033828L127.53834331512452,146.9307162788996L127.7054241142273,146.77698053817286L127.92819851303099,147.151620142696L128.1509729118347,148.77977206167913L129.20915130615236,154.9341726939718L129.43192570495606,157.4570178230237L129.65470010375978,155.67537396489377L129.82178090286254,149.95773883977458L129.9331681022644,153.1527569451029L130.1559425010681,154.19431716350314L130.26732970046996,148.8069717262888L130.76857209777833,150.60842037635132L130.99134649658203,152.1096524681558L131.49258889389037,141.4960429132454L131.77105689239502,145.85595750867992L131.82675049209595,154.02664092526692L131.88244409179688,155.794802964664L132.60646088790895,143.26296938083837L132.77354168701171,150.877494843279L133.05200968551637,155.02490442046255L133.44186488342285,158.02940073993176L133.66463928222655,159.0988344392113L133.83172008132937,155.72847196241636L134.16588167953492,152.43595420010308L134.22157527923582,156.4624961250688L134.27726887893678,157.1542197596424L134.44434967803954,156.4014669234246L134.7228176765442,150.0661690137947L135.05697927474975,148.3118985912L135.11267287445068,142.05454148812547L135.66960887145996,153.6441611282393L135.7253024711609,152.22834297316453L135.9480768699646,155.39426461429557L136.00377046966554,149.51382168648726L136.22654486846923,138.22034632270402L136.3379320678711,152.31862421582042L136.67209366607668,141.97610501994484L136.83917446517944,154.23183389658053L137.06194886398316,151.7314503575779L137.1176424636841,150.9616579874988L137.22902966308595,153.33026830614833L137.28472326278686,158.03620813713616L137.39611046218872,156.8053573512555L138.00874005889892,148.1001445832986L138.12012725830078,152.63691942720453L138.5656760559082,142.20388244612988L138.62136965560913,142.0829672943251L138.78845045471192,152.95134450435032L140.73772644424437,155.0577310114018L141.23896884155272,157.78618175043346L141.29466244125365,143.74895780350246L141.68451763916016,145.75870558269722L141.90729203796388,143.68651768728756L142.29714723587037,147.74604133501504L142.3528408355713,150.96519085268295L143.0211640319824,147.71509328463344L143.1882448310852,145.98550710095043L143.68948722839355,155.50732864520384L144.13503602600096,158.0994202462452L144.24642322540285,148.02996992220915L144.69197202301024,148.5455434112782L144.7476656227112,151.15209886359625L144.85905282211303,146.49204568347784L145.02613362121582,155.615285572385L145.3602952194214,156.15626096377972L145.4159888191223,158.25386510456957L145.63876321792603,153.9955958182267L145.69445681762696,151.25817844687865L145.91723121643068,155.1569083530602L145.97292481613158,153.9477638792742L146.1956992149353,152.2898513417919L146.36278001403807,157.0873851666066L146.86402241134644,152.6864629587479L147.03110321044923,144.18492031041987L147.5880392074585,154.7844672510528L148.14497520446778,155.2460132204665L148.70191120147706,147.99835527237198L149.09176639938354,156.22706099348733L149.70439599609375,158.12575118081173L150.09425119400026,156.60349998092346L150.48410639190675,153.2611013521851L150.59549359130858,154.24417652013074L150.92965518951416,154.97513703318546L151.04104238891603,154.4255035205693L151.20812318801882,158.50506325966668L151.26381678771972,157.71384855790387L151.5979783859253,148.51924873115564L151.820752784729,138.48950852950324L152.4333823814392,143.3084834559137L152.600463180542,152.86716375004113L152.87893117904665,156.1985133693063L153.60294797515868,156.71709632083267L154.15988397216796,158.53215415826668L154.93959436798096,154.10777816560687L155.99777276229858,158.2564868705194L156.27624076080323,159.33624405790772L156.33193436050416,159.79381972894953L156.6104023590088,153.50952183113148L156.88887035751344,150.8640609716764L157.0559511566162,153.0469059096644L157.33441915512083,156.5922253041567L157.77996795272827,159.0211202813019L157.94704875183106,155.1439077906577L158.33690394973755,155.69225198310394L158.39259754943848,157.47126674641243L158.44829114913938,154.67197693723077L158.55967834854127,156.94163363611227L158.89383994674682,158.1181385752208L159.2836951446533,155.74383228911586L160.0634055404663,158.35247697515095L160.6760351371765,158.26219415186023L160.95450313568114,154.5215805730798L161.06589033508303,158.42837440647477L161.17727753448486,157.3401611052818L161.2329711341858,149.93373095571803L161.40005193328858,153.94161083543756L161.4557455329895,157.76408919386967L163.12655352401734,156.0958280817783L163.29363432312013,158.63197250350262L163.51640872192385,156.97865556321202L163.57210232162475,145.99280114022739L163.8505703201294,155.03841635151738L163.90626391983034,158.55368673145963L164.57458711624145,152.61987129446496L165.0201359138489,156.55247339310597L165.13152311325072,156.48711396625123L165.18721671295165,157.14270950999375L165.40999111175537,158.50762743398272L165.8555399093628,159.39156020797083L166.3010887069702,159.7096039056426L166.52386310577393,158.27273573976973L166.74663750457765,155.47761328063393L167.02510550308227,156.43528628389595L167.1364927024841,158.96832856908998L167.30357350158692,153.39184805455827L167.41496070098876,153.4232180175968L167.47065430068972,154.44044882004712L167.58204150009155,157.93339317856032L167.8605094985962,159.23266317429506L168.08328389739992,156.88248648426875L168.13897749710083,146.74489366972242L168.19467109680176,137.58274316844378L168.30605829620362,143.37427682522028L168.41744549560548,154.93606593331435L168.6959134941101,158.21737271288538L168.80730069351196,150.46925551491472L169.25284949111938,150.58320777548747L170.75657668304441,145.88561642047648L170.81227028274535,152.57014733288975L170.9236574821472,147.9003584539963L171.42489987945558,156.06935893287203L171.4805934791565,157.5237916930584L171.81475507736207,146.89848045825443L171.87044867706297,155.8084984642134L172.0375294761658,158.7630128232455L172.0932230758667,157.06262510647744L172.26030387496948,159.37586442946065L172.65015907287597,160.01179035663873L172.76154627227783,158.27680072722762L173.04001427078245,158.63014862544384L173.70833746719362,156.37309702846437L173.76403106689452,157.38698423987998L174.20957986450196,154.93555295703382L174.2652734642029,142.29406448016934L174.59943506240845,153.24324976215337L174.65512866210938,148.08456755878126L174.82220946121217,154.12720271291928L174.8779030609131,156.23371764525817L174.933596660614,158.99715903789792L175.1006774597168,153.09372757231603L176.15885585403444,154.79751358959203L176.60440465164183,158.37481156924156L176.66009825134276,157.7984838495909L176.71579185104372,159.42193092562962L176.82717905044555,159.3480760984114L177.21703424835204,158.68339428127808L177.38411504745483,158.02267359260227L177.4955022468567,156.1207977078761L177.66258304595948,158.78083046246053L177.8853574447632,159.5587758548954L178.38659984207152,158.77915258048276L178.60937424087524,152.40487868164806L178.7207614402771,156.29343111344937L178.9435358390808,156.27747752533682L178.99922943878175,155.91891665118524L179.22200383758545,158.7278923004851L179.27769743728638,158.5478654468924L179.3333910369873,159.29309979411406L179.61185903549196,159.7856976860319L179.89032703399658,160.0150493422464L179.94602063369751,159.70871241102174L180.16879503250124,159.2650866867082L180.44726303100586,151.4701730070216L180.5029566307068,157.42551359151508L180.55865023040772,157.63866350889083L180.7257310295105,158.76124120902173L180.78142462921141,150.57070263232245L181.22697342681886,156.14951856800081L181.2826670265198,155.2808002473253L181.3383606262207,158.2654730002481L181.61682862472534,159.36748797128917L181.67252222442627,158.82234336066017L181.89529662322997,153.29231915935142L182.0623774223328,157.79339488569352L182.22945822143555,158.883207740395L182.3408454208374,157.81800455738417L182.45223262023927,158.45550868492256L182.61931341934206,150.4285887280714L183.00916861724855,148.69939022007006L183.67749181365966,156.4672658804852L183.78887901306155,158.5833220703909L184.51289580917359,159.8389794701317L184.5685894088745,157.49425923153296L185.18121900558472,153.19189632754282L185.738155002594,154.35661793784348L185.84954220199586,158.42846710454558L185.9609294013977,157.93802683577357L186.12801020050048,159.33364848582377L186.29509099960327,153.9757153905598L186.46217179870604,155.22494430412357L186.68494619750976,135.47720560084161L186.7406397972107,149.19848970769L187.0191077957153,156.74182925698503L187.1304949951172,159.13748023890244L187.24188219451904,159.73552945673404L187.29757579421997,159.37859973553248L187.5203501930237,156.7857588380242L188.24436698913576,153.61393154727827L188.3557541885376,157.68165987065373L188.41144778823852,159.2773870765169L188.52283498764038,159.46077225991772L188.80130298614503,150.45800405919633L188.91269018554686,156.5280646716781L189.02407738494873,157.20798966386516L189.1354645843506,159.22935980758692L189.581013381958,159.83649687210988L190.02656217956545,159.84730887066388L190.19364297866824,159.73185258445505L190.24933657836914,159.22453654332332L190.4164173774719,152.60747046385148L190.5278045768738,157.77207218393684L190.58349817657472,154.77785967140903L190.7505789756775,157.93771685568103L191.08474057388307,159.16504180957847L191.3075149726868,159.61675698355282L191.3632085723877,159.4616448730273L192.14291896820066,159.96624056875592L192.30999976730345,160.28218205607655L192.47708056640627,160.25379510461693L192.64416136550904,160.22484737958928L192.86693576431273,160.2086293801813L193.03401656341555,160.0267699939386L193.14540376281738,158.3540964956855L193.47956536102294,147.6744873815134L193.7580333595276,155.5818415993832L193.8137269592285,158.41174255350901L194.09219495773314,157.38716356005912L194.203582157135,159.40689125186518L194.5934373550415,159.57395184800282L194.7605181541443,159.67964686480363L194.87190535354614,159.39900356891317L194.92759895324707,158.3390867445523L195.09467975234986,159.08835415074543L195.2060669517517,157.72980480615422L195.54022854995728,158.91289939318665L196.04147094726562,159.5672207291911L196.31993894577025,157.98290168659838L196.5984069442749,159.04348671840117L196.87687494277952,157.5076484205244L197.6008917388916,156.71643629309986L197.65658533859252,157.8388947071758L197.71227893829345,158.20283674345794L198.26921493530273,158.9557534838109L198.65907013320924,159.6641804810022L198.826150932312,159.64813900274444L199.10461893081663,157.01772106136687L199.605861328125,155.62197336319826L199.66155492782593,158.21337933151358L199.9957165260315,158.2114871601959L200.32987812423707,157.12452429103112L200.49695892333983,156.50687631854598L200.71973332214355,158.12965169507163L200.77542692184448,159.19446115501543L200.8311205215454,159.792003794147L200.94250772094728,154.63043611874662L201.165282119751,158.34291216041973L201.33236291885376,159.22936396135427L201.38805651855466,159.73613657278682L201.61083091735838,154.95700473063L201.66652451705932,158.5384565688816L201.72221811676027,149.75910071109504L202.0006861152649,150.62483379122503L202.11207331466676,149.21100458657568L202.66900931167604,155.7201547175915L203.05886450958252,159.00950485393156L203.33733250808714,158.73367219790984L203.44871970748903,159.53532854813997L203.6158005065918,159.87677285461177L204.28412370300293,159.4093019754153L204.4512045021057,159.648162899321L204.6182853012085,153.11372470730933L204.89675329971314,148.5500857442477L205.39799569702149,155.16402941841673L205.56507649612425,158.7056972135539L205.67646369552614,159.67792081080722L206.06631889343262,160.24681204166612L206.28909329223634,158.17903527921382L206.34478689193725,159.59006566762343L206.7903356895447,160.08056788252398L207.01311008834838,158.93612192737996L207.06880368804931,157.57801645815078L207.2358844871521,159.11283368513767L207.34727168655397,159.98917341095145L207.73712688446045,160.0790623010208L207.95990128326417,159.2655209294468L208.1826756820679,154.62937364266276L208.40545008087156,157.6177167996775L208.51683728027345,159.46212449438212L208.850998878479,157.1820545964737L209.630709274292,156.85887897581944L209.74209647369383,158.77643112420586L209.90917727279663,159.8086062244292L210.0762580718994,159.266374362521L210.2433388710022,159.7801647388123L210.2990324707031,159.3873844465119L210.57750046920776,160.14816297596L211.0230492668152,159.81095556058864L211.35721086502076,160.27615070435985L211.52429166412355,159.86238999930407L211.57998526382448,160.1589705897669L212.02553406143187,158.9390076699276L212.4710828590393,159.529171351546L213.19509965515135,160.05122878384205L213.58495485305787,159.47239081288507L213.91911645126342,159.10304712337555L214.19758444976807,159.55010738061088L214.6431332473755,156.62997500621435L214.81021404647825,148.22880795978762L215.2557628440857,150.8370399985526L215.31145644378662,157.42440771791L215.36715004348756,157.40845225651486L215.58992444229125,159.39871175434783L215.64561804199218,160.17010770143764L215.7013116416931,160.39856090843546L215.81269884109497,154.9945134755038L215.97977964019773,156.5752671313326L216.09116683959962,158.9357638206221L216.36963483810425,159.8867891161567L216.42532843780518,156.20276837725004L216.59240923690797,158.76165456612244L216.87087723541262,157.93466304298565L216.92657083511352,159.60657369687718L217.0936516342163,159.11701120339225L217.37211963272094,157.86918774822564L217.4835068321228,156.31814792827416L217.65058763122556,158.17216628648595L217.70628123092652,157.44192360756026L217.76197483062745,159.31702590309203L217.92905562973021,157.04884393422276L218.2632172279358,158.16225148933455L218.4859916267395,159.1871178485192L218.7087660255432,158.62302536299546L219.09862122344973,159.60338391797563L219.15431482315066,160.104874437265L219.2657020225525,159.1128110849803L219.43278282165528,159.53094392814216L220.2681868171692,159.680435125151L220.3238804168701,160.1556992700457L220.54665481567383,160.16357448195097L220.6580420150757,160.13171337968248L221.04789721298215,160.22179732818935L221.15928441238404,158.75652999748812L221.27067161178587,159.52642211471195L221.43775241088866,159.32081200390004L221.71622040939332,159.8712272263445L221.77191400909425,160.14135062658264L221.82760760879515,158.063457068082L221.88330120849608,159.72599846165286L221.93899480819704,159.20125433998479L221.99468840789797,159.04031115492592L222.21746280670166,153.84663980101163L222.32885000610352,156.2451539118941L222.44023720550535,158.65292616110258L222.60731800460815,158.61798799244224L222.77439880371094,159.67883337420903L222.83009240341187,156.96024218627596L222.99717320251463,157.41660298283492L223.60980279922487,159.0478089834654L223.88827079772952,159.50315337676557L223.94396439743042,159.76344690994546L224.27812599563597,145.03205474099002L224.77936839294435,155.5607459334819L224.83506199264528,158.89131067027566L225.1135299911499,156.67505235531044L225.2806107902527,158.41951082123728L225.61477238845825,158.1234280989745L225.83754678726197,158.61824744273486L226.06032118606566,159.74059132665744L226.17170838546753,156.52277696884445L226.5058699836731,159.21508642595552L226.67295078277587,159.8309005895108L226.8957251815796,159.1311855287181L227.00711238098145,153.6157943016222L227.06280598068238,158.09376198090135L227.2855803794861,154.98270881759544L227.50835477828977,158.1079350902575L227.67543557739256,159.70816964144424L227.7311291770935,160.15764451065843L227.89820997619628,160.29373688089441L228.39945237350466,160.34695905661434L228.84500117111205,157.06492112971304L229.1234691696167,159.41504835516164L229.17916276931763,155.41678519746281L229.23485636901856,157.81562691771532L229.2905499687195,159.1483748883271L229.45763076782225,160.01303947069349L229.68040516662597,146.98673001230745L230.0702603645325,156.00810937323783L231.40690675735473,158.99808584607183L231.57398755645752,159.64782054569898L231.68537475585936,160.10207184626805L231.79676195526125,158.4742169508697L231.963842754364,159.82287269411836L232.07522995376587,160.21863212879086L232.18661715316773,160.04331603964027L232.2980043525696,158.78449130699113L232.35369795227052,159.8726193580438L232.40939155197142,157.03522408862358L233.41187634658812,158.96383771869623L233.91311874389646,159.80129495961918L233.9688123435974,160.2382690272941L234.3586675415039,158.96126200766406L234.58144194030763,159.9057347104069L234.63713554000856,159.8772244292089L234.91560353851318,160.29450970575854L234.9712971382141,160.22199678893776L235.1383779373169,160.1407103184067L235.58392673492432,160.32748945239157L235.7510075340271,160.4585789959238L235.80670113372804,160.2085943015708L236.3079435310364,160.38555151229113L236.47502433013915,160.231453561855L236.5307179298401,160.38777070690827L236.64210512924194,151.51470855174722L236.69779872894287,157.71479695866347L236.86487952804566,158.95687628627016L236.9205731277466,159.9664975897449L236.9762667274475,157.09624911143717L237.366121925354,159.3873715317581L237.47750912475587,159.84042974441203L237.5888963241577,160.1635210299335L238.25721952056887,160.17943520979574L238.42430031967163,159.89333727405028L238.47999391937256,157.42866461872367L238.5356875190735,159.46551345683773L238.59138111877442,158.90962314883637L238.81415551757814,157.94725913902585L238.9812363166809,159.42813113511468L239.8166403121948,158.6489292807108L239.87233391189577,159.8584457719146L239.9280275115967,158.6237351490715L240.26218910980225,159.13249792624347L240.37357630920408,158.84681255423362L240.5963507080078,158.5475282366338L240.81912510681153,155.74840230154442L240.87481870651246,158.93688017120044L241.15328670501708,159.97402091042986L241.71022270202636,158.88904022060134L242.21146509933473,159.9918448288778L242.32285229873656,159.85523513808965L242.3785458984375,160.10480081707104L242.43423949813845,154.21821999732472L242.60132029724122,158.49446023739313L242.71270749664308,159.47746233222168L242.87978829574584,158.7768888645222L243.38103069305419,159.97339845873287L243.548111492157,158.5101423197763L243.71519229125977,159.87564599724232L244.27212828826904,160.30987147774408L244.94045148468018,160.34038208774072L245.21891948318483,159.23193988485403L245.5530810813904,159.52003972168433L245.60877468109132,160.0483009823356L245.72016188049315,159.37735494023306L245.94293627929687,159.6087215579393L246.27709787750243,159.67109893824443L246.44417867660522,159.70995463608037L246.55556587600708,157.98238657409277L246.66695307540894,159.50009281828335L246.8340338745117,159.77428797797413L246.9454210739136,159.76509407930405L247.0011146736145,160.28597587459714L247.11250187301636,160.40872567759322L247.27958267211915,157.47577750745305L248.05929306793215,159.36203789539218L248.11498666763305,159.24216647557873L248.28206746673584,160.02829600370256L248.72761626434325,160.35241666395666L248.78330986404418,160.4101705664763L249.28455226135253,160.30993515717392L249.34024586105346,160.32962482827938L249.61871385955808,160.43925441876644L249.67440745925902,160.2592760604447L249.73010105895997,158.09581849633838L249.89718185806274,159.04461573338003L249.95287545776367,159.87984881343928L250.2313434562683,160.2262412263366L250.50981145477294,160.34817926085722L250.67689225387574,155.66546182478544L251.12244105148318,158.9942883486575L251.34521545028684,159.04486778773102L251.45660264968873,152.62340439067492L251.95784504699708,154.5998239986082L252.23631304550173,158.65327456486406L252.57047464370729,159.5384524020565L252.62616824340822,143.23444240116055L252.8489426422119,155.16662510536966L252.90463624191284,157.62608308703858L253.29449143981932,159.42439903014727L253.68434663772584,157.58407213988863L254.0185082359314,158.91308745223583L254.18558903503416,159.90199926962865L254.29697623443604,154.4708941024398L254.35266983413695,158.64141827352887L254.74252503204343,159.84540804355962L255.07668663024904,160.22845115219488L255.18807382965088,159.8048486499404L255.2437674293518,150.83876140197785L255.35515462875367,157.47619843105525L255.57792902755736,159.5004719726839L255.80070342636108,160.1898184716922L256.0791714248657,150.3448498004902L256.2462522239685,157.3095067377023L256.74749462127687,159.3459742446934L256.85888182067873,159.96441762944804L257.08165621948245,160.3251332202437L257.19304341888426,160.3650228167552L257.415817817688,160.3290789721526L257.58289861679077,160.12077339453185L257.91706021499635,160.0763519959012L258.0841410140991,160.25005620993946L258.58538341140746,160.10683496901157L258.8081578102112,160.25567610075362L259.19801300811764,160.2804603538593L259.36509380722043,159.242095826785L259.75494900512695,159.85432542250217L259.8106426048279,160.26882524809596L259.97772340393067,159.80994790012517L260.08911060333253,159.91337327072196L260.5346594009399,160.3064935968763L260.59035300064085,151.8520010260149L260.75743379974364,157.73408334734313L261.0915953979492,159.60246282150658L261.3700633964539,159.93095041143084L262.2054673919678,160.33600299749034L262.2611609916687,159.76790962384953L262.70670978927615,159.35646254784703L262.98517778778074,158.41575182838272L263.3193393859863,157.20777794127906L263.4307265853882,159.44388807399343L263.4864201850891,160.09212041871834L263.8205817832947,160.37611125298042L264.37751778030395,152.0889943747046L264.54459857940674,157.4327103785363L264.6559857788086,159.34231862510492L264.71167937850953,159.92600991843693L264.76737297821046,160.20403984201351L264.9901473770142,160.34172515696855L265.54708337402343,160.18733298991512L265.60277697372436,160.38859255272686L265.7141641731262,158.07441057086132L266.2711001701355,159.6745732763193L266.32679376983646,159.91597867188406L266.4938745689392,160.2938707252037L266.93942336654663,160.32813819287378L267.2735849647522,159.4692129080555L267.3292785644531,160.08951733736865" fill="none"></path></g></g></g></g><g opacity="0.2"><g><g><g><path style="fill: none;" stroke="rgb(255, 112, 67)" stroke-width="2px" d="M36.03375900650024,-0.05345898249553732L36.08945260620117,5.320577185106401L36.256533405303955,-1.8584344730941973L36.64638860321045,-2.9984181877361307L36.81346940231324,4.053283934830763L36.924856601715085,4.038556689366658L37.036243801116946,6.217423568707678L37.42609899902344,4.788987921597008L37.48179259872436,5.241720593229408L37.760260597229006,12.841637539153945L38.1501157951355,11.638626725160899L38.20580939483642,13.625151492224177L38.26150299453735,9.780666830662748L38.53997099304199,14.532806020625515L38.59566459274292,23.920154358082318L38.98551979064942,20.71526386309614L39.1526005897522,19.76025863799987L39.20829418945313,14.498483271841167L39.31968138885498,22.83456347414102L39.65384298706055,33.76571598450639L39.765230186462404,31.481661055701807L39.87661738586426,22.867646194980882L40.155085384368896,21.10466325563804L40.210778984069826,29.4959323559609L40.3778597831726,33.404217220715374L40.65632778167724,30.25279336271821L41.49173177719116,52.078418050671395L41.54742537689209,33.51348511520617L42.27144217300415,43.42300768918648L42.32713577270508,57.4171746578034L42.38282937240601,58.28658733675635L42.995458969116214,59.15960528214047L43.16253976821899,61.9280595221227L43.385314167022706,85.93898086394385L43.608088565826414,59.539604956683434L43.7751693649292,73.43814433819891L43.94225016403198,72.86046736941951L44.05363736343384,80.47622146236343L44.33210536193848,76.85983305214569L44.44349256134033,75.01785574004312L44.49918616104126,79.50099306548121L45.056122158050535,75.13637026266315L45.27889655685425,88.65538454823168L45.50167095565796,74.57828879720402L45.61305815505982,77.61371646093754L45.66875175476074,92.51789554194904L45.835832553863526,75.41839242060492L46.67123654937744,100.65849528964252L46.72693014907837,115.57192865327674L47.11678534698486,80.83035660342239L47.17247894668579,94.02721622171009L47.50664054489136,91.96702460935228L47.618027744293215,89.11846609505507L47.84080214309692,112.36187137518853L48.174963741302484,98.42178723028611L48.230657341003415,83.2192780929642L48.286350940704345,103.01261945180393L48.342044540405276,114.03030983825799L48.95467413711548,83.82344726369332L49.4002229347229,89.12803421191067L49.62299733352661,108.31626107007594L49.734384532928466,74.16537480067784L50.01285253143311,109.23724972612725L50.29132052993775,97.39921579120244L50.402707729339596,116.3073073240699L51.0153373260498,110.94252926633742L51.34949892425537,116.50483152843661L51.405192523956295,96.35156057697016L51.62796692276001,116.10445559223797L52.18490291976929,134.21069874651653L52.24059651947021,112.61708366970095L52.35198371887207,113.60485395415749L52.57475811767578,119.54621056085432L52.63045171737671,116.89658467772499L52.74183891677857,122.80611772776012L52.96461331558228,119.99079119692574L53.07600051498413,127.0447016408629L53.29877491378784,118.77728224511873L53.577242912292476,129.33016499646862L53.80001731109619,98.63921694495919L53.967098110198975,111.24038091680507L54.078485309600836,120.06321801427578L54.301259708404544,130.08278924108228L54.356953308105474,110.58150125389572L54.63542130661011,123.80204004777761L54.691114906311036,107.237880718997L55.025276504516604,107.2629644941456L55.13666370391846,138.39661208995267L55.415131702423096,121.1111832354942L56.306229297637934,134.1834219589846L56.361922897338864,136.21680944878318L56.417616497039795,128.84466726547598L56.473310096740725,117.9183715312265L56.529003696441656,88.01767338705362L56.69608449554443,108.5841721692791L56.75177809524536,98.35186725955225L56.80747169494629,132.4028968341987L57.58718209075928,128.3262475580066L57.6428756904602,131.6910308537665L57.75426288986206,104.05023962507808L57.80995648956299,127.54399659636131L57.86565008926392,118.44619478394152L57.97703728866577,128.23830508236355L58.19981168746948,103.83688592818548L58.31119888687134,134.8484156485647L58.533973285675046,121.74372761357024L58.64536048507691,122.43223399351125L58.868134883880614,119.71896099705855L59.20229648208618,134.1639833727808L59.31368368148804,136.35883666176414L59.536458080291744,112.14914151951491L59.81492607879638,117.63666703476433L60.42755567550659,140.06442479817977L60.48324927520752,109.18739983730963L60.650330074310304,127.5370998977318L60.76171727371216,123.58601875990568L60.81741087341309,103.07861649462704L60.98449167251587,109.74798814938492L61.095878871917726,139.92568901739713L61.48573406982422,107.91384903861046L61.764202068328856,142.40412789461644L62.042670066833495,134.78900147013826L62.098363666534425,129.50229159145388L62.54391246414185,119.11777325154162L62.59960606384277,140.96221268447962L62.766686862945555,134.23828936828127L62.87807406234741,126.56202459071926L62.93376766204834,127.8133161223656L63.156542060852054,117.28426180923286L63.37931645965576,144.1004708136835L63.71347805786133,138.15065025081626L63.76917165756226,130.16712836391753L64.04763965606689,95.45047743122525L64.15902685546875,130.9239855434281L64.38180125427246,138.68850663086604L64.54888205337525,108.73105807199931L64.6602692527771,139.5243734921233L65.0501244506836,128.31214032651474L65.21720524978637,140.05580392489287L65.49567324829101,123.52973909656112L65.55136684799194,130.7843082599469L65.77414124679565,125.78761183040207L65.99691564559936,145.60713060014703L66.44246444320679,136.1470483087891L66.55385164260863,122.4330185790934L66.72093244171143,104.80506070932176L67.44494923782348,137.88211339677073L67.72341723632813,141.95531241002473L68.05757883453369,129.9261821316368L68.16896603393555,146.20706683597922L68.28035323333741,125.46640249306658L68.33604683303834,140.9741269035882L68.44743403244019,132.31212985045988L68.50312763214112,119.55953320676402L68.61451483154298,141.22996495294296L68.6702084312439,135.19941053367165L68.72590203094482,138.53331177546843L69.00437002944946,126.79121543463123L69.33853162765503,127.39021016776485L70.45240362167358,107.86290072997782L70.50809722137451,130.17653382278658L70.897952419281,148.42041816527947L71.06503321838379,123.5606211505242L71.12072681808472,135.39771740999714L71.23211401748658,128.6040348674281L71.34350121688843,123.56077806764063L71.45488841629029,116.02371982221054L71.78905001449584,139.64711903601687L72.6801476097107,150.0084375629894L72.73584120941162,145.77502521704704L72.84722840881348,156.8675691344886L73.01430920791626,154.79648111145275L73.45985800552367,142.2603765069781L73.51555160522462,134.62878909426158L74.01679400253295,126.53882382096783L74.23956840133667,154.13399666051805L74.2952620010376,144.48438671845548L74.40664920043945,113.4175178806186L74.46234280014039,142.41039883840358L74.68511719894408,122.80862457437627L74.85219799804688,143.86171950740945L74.96358519744872,145.88037018362704L75.29774679565429,127.93026147382132L75.63190839385986,153.43655318102807L75.79898919296265,130.87240956632976L75.9103763923645,123.40401404107872L76.1331507911682,136.10519353841605L76.35592518997193,127.83902756597995L76.41161878967284,143.3763786935332L77.13563558578493,125.21432471363603L77.24702278518676,143.26821113248081L77.58118438339234,136.76062293838729L77.74826518249512,151.0353988540864L77.85965238189698,144.86892933488147L78.08242678070067,150.26380581780654L78.13812038040162,135.92538374559575L78.47228197860717,114.84861729146185L78.58366917800903,144.75574521016168L79.02921797561645,134.3779666517625L79.58615397262574,141.6021225989111L79.69754117202758,139.8639229958476L79.80892837142945,139.61106445808164L80.36586436843872,142.623911366036L80.7557195663452,150.17507779976964L80.92280036544801,132.0409292326818L81.08988116455079,143.81375071036564L81.5354299621582,134.39348613730226L82.42652755737305,142.46150406415265L82.59360835647583,150.64975877465707L82.81638275527953,148.92598215094165L83.1505443534851,155.2501562425954L83.26193155288696,134.60417798408562L83.5403995513916,140.05329516465335L83.70748035049438,144.53141592642405L83.76317395019531,131.88526171231152L83.81886754989624,154.06721503211278L83.9302547492981,140.36666630066077L84.3201099472046,147.4343720554803L84.43149714660645,142.8748907256515L84.82135234451293,141.3160282504356L85.04412674331665,152.26944481191225L85.15551394271851,124.38128236047457L85.60106274032593,146.42700626770352L85.65675634002685,128.62456995982356L86.1579987373352,141.22886844675133L86.71493473434448,142.2066056038731L86.93770913314819,137.18263238679637L87.04909633255005,148.9726975246774L87.49464513015747,142.85858665452957L87.5503387298584,149.27446827580908L87.66172592926026,130.69401202755736L87.88450032806396,140.00250377313716L88.38574272537232,132.72661493177375L89.05406592178343,150.23668594739107L89.27684032058716,148.3845185908373L89.38822751998902,154.94697467263336L89.5553083190918,128.51483514123024L89.66669551849365,159.43834249219063L89.77808271789551,145.96251438045562L90.33501871490479,131.70012439202605L90.39071231460571,144.08134606171257L90.5577931137085,140.52311649298983L90.61348671340943,154.8080819747343L90.7805675125122,147.2794891206922L90.94764831161498,150.7728191095952L91.05903551101684,132.7051383366797L91.33750350952148,140.19359820297691L91.72735870742798,146.92959169858858L92.00582670593262,129.58035977050199L92.06152030563355,148.48970759711256L92.61845630264283,153.302833485507L92.72984350204469,147.47544415389459L93.28677949905396,158.84898811519486L93.39816669845581,143.41792154329679L93.45386029815674,142.83726697655197L93.73232829666138,148.8822443751714L93.84371549606324,152.58234615338205L94.12218349456788,153.58469537749144L94.34495789337159,128.64024636247976L94.40065149307252,154.45457880779367L95.06897468948364,152.42119227480677L95.51452348709107,156.71096202504316L95.73729788589478,145.7595057315073L96.01576588439941,152.7980536070211L96.12715308380128,156.45817979300912L96.34992748260497,150.67876069365803L97.1853314781189,152.02928220840198L97.29671867752074,145.8066918565923L97.51949307632447,139.72330612329117L97.57518667602538,131.88541862942796L97.63088027572633,151.5279511576367L97.74226747512817,136.30632109559056L97.90934827423096,135.27167852028188L98.07642907333374,147.9380549493687L98.13212267303467,139.8959034696257L98.46628427124024,137.62235433312856L98.68905867004395,142.24783461940382L98.96752666854859,158.29592464862063L99.07891386795045,146.23904635294565L99.30168826675414,144.99575089655553L99.46876906585693,155.28276342802758L99.74723706436157,156.285739363791L99.91431786346436,138.61059536893438L100.192785861969,154.89508581811384L100.24847946166992,142.0125316624445L100.4155602607727,142.6549503371155L100.63833465957642,138.59586046897678L101.13957705688478,148.68252715842138L101.52943225479126,135.0989242568309L101.69651305389405,146.66466106778594L101.75220665359497,153.8540158603074L102.25344905090333,156.35847810175053L102.81038504791259,146.84823113053048L102.97746584701538,156.32203027421255L103.31162744522095,138.65699690843724L103.6457890434265,147.4671361580289L103.86856344223023,157.0511399148419L104.48119303894042,152.08462036904794L104.53688663864136,146.71686375653834L104.75966103744506,141.35365199953515L105.09382263565064,141.7278476543935L105.31659703445435,142.78051847548147L105.48367783355714,147.53062539742413L106.8203242263794,151.6453672604417L107.0430986251831,146.8719026516312L107.60003462219238,143.93806351180015L107.87850262069703,155.73941711394738L107.98988982009887,139.14327922501204L108.04558341979981,145.40333736561652L108.10127701950073,149.81969401946105L108.15697061920167,149.31742146599717L108.60251941680909,141.12806833567774L109.0480682144165,150.64192057332897L109.10376181411743,137.51763703501427L109.21514901351928,146.72281990928093L109.27084261322022,155.48138318177425L109.93916580963135,157.25932252297991L109.99485940933228,146.46901986881642L110.10624660873412,154.21190840085555L110.71887620544433,117.77618548750574L110.88595700454712,148.00812896678394L111.10873140335083,147.46839053814867L111.33150580215454,156.5209638621921L111.55428020095826,127.94907239155941L111.94413539886476,145.785371221803L111.99982899856568,145.6033684165994L112.05552259826659,135.5698440049824L112.16690979766845,152.8795706137898L112.33399059677123,156.75814791092523L113.00231379318237,156.3758786790641L113.33647539138794,150.25173563839323L113.50355619049073,149.53046419909197L113.55924979019164,151.93553762669768L114.11618578720093,150.26411965203943L114.28326658630371,156.01892716280872L114.33896018600464,156.34405560080828L114.89589618301392,155.68501997759415L115.06297698211671,154.7593281137025L115.11867058181763,149.81514725033128L115.23005778121949,156.73627926224302L115.4528321800232,151.6612005802143L115.50852577972412,147.5169870036582L115.6756065788269,147.3881264762822L115.89838097763062,144.0186404510878L116.17684897613526,149.53971274084458L116.78947857284545,138.8366497841411L117.06794657135009,156.42682698769673L117.17933377075195,154.73785151860847L117.62488256835937,159.2564962452991L118.51598016357421,148.81405240634163L118.96152896118164,136.63536863425418L119.07291616058349,145.05359686062934L119.23999695968628,156.62082270977L119.57415855789185,154.32038883932913L119.62985215759277,153.4784093866187L120.01970735549926,149.1996915289593L120.46525615310668,144.41070743460904L120.6880305519104,143.77769421880706L120.91080495071411,156.942502320049L121.13357934951782,147.79743807681226L121.30066014862061,128.4833254188014L121.41204734802245,154.6513179481724L121.74620894622802,138.46637322994675L121.85759614562988,155.0705048021091L121.91328974533081,158.2196588635852L122.24745134353638,147.92708127614702L122.3031449432373,146.11959224125042L122.6930001411438,151.47308374834003L122.80438734054566,157.37885509323337L122.97146813964844,150.0222328738718L123.0828553390503,154.67389200626977L123.13854893875121,145.67297168266535L123.19424253845216,132.15144672323393L123.58409773635863,154.2010916447503L123.80687213516235,158.63018477774568L123.86256573486327,150.32055431887704L123.97395293426513,155.5099143494259L124.25242093276977,159.4322678144005L124.6979697303772,158.18611137146905L124.75366333007813,158.65695218265648L124.97643772888183,149.58392031115244L125.0878249282837,138.8458983258937L125.53337372589111,141.8716009556552L125.58906732559204,155.2551728062628L126.20169692230225,158.41608416973105L126.75863291931152,159.142450392055L126.87002011871338,146.05704354774207L127.25987531661988,159.23478439413185L127.3155689163208,159.64742647673714L127.37126251602172,141.7874187499364L127.53834331512452,146.91156440962098L127.7054241142273,146.70855480386095L127.92819851303099,147.3183672499115L128.1509729118347,149.50444083486815L129.20915130615236,157.67341459389397L129.43192570495606,158.57990264924914L129.65470010375978,154.8823879702348L129.82178090286254,147.41289546038627L129.9331681022644,154.57481702666524L130.1559425010681,154.65790176938071L130.26732970046996,146.40913589585236L130.76857209777833,151.41022122059883L130.99134649658203,152.777830913641L131.49258889389037,136.77206640614656L131.77105689239502,147.79649753092536L131.82675049209595,157.66330348640682L131.88244409179688,156.58178838104305L132.60646088790895,137.68521686086976L132.77354168701171,154.2666188930358L133.05200968551637,156.8708612842957L133.44186488342285,159.36666210755678L133.66463928222655,159.57482516085597L133.83172008132937,154.22836843228222L134.16588167953492,150.97049831745497L134.22157527923582,158.2546564038108L134.27726887893678,157.46209675306528L134.44434967803954,156.06642664372075L134.7228176765442,147.24641214072244L135.05697927474975,147.53109614877343L135.11267287445068,139.26947503184374L135.66960887145996,158.8025467484056L135.7253024711609,151.5981811353567L135.9480768699646,156.80337424647527L136.00377046966554,146.89651471861882L136.22654486846923,133.19377058275427L136.3379320678711,158.5935802722942L136.67209366607668,137.37278722756093L136.83917446517944,159.68669588213513L137.06194886398316,150.61856288646112L137.1176424636841,150.61903363781042L137.22902966308595,154.38450526878427L137.28472326278686,160.13075939139088L137.39611046218872,156.2575220303722L138.00874005889892,144.22557011432355L138.12012725830078,154.65617759472335L138.5656760559082,137.5602763909695L138.62136965560913,142.0291495677993L138.78845045471192,157.78871470765637L140.73772644424437,155.99525564170798L141.23896884155272,159.00057890017587L141.29466244125365,137.50117604677592L141.68451763916016,146.65321760002666L141.90729203796388,142.76421440435956L142.29714723587037,149.5528813400729L142.3528408355713,152.39799150505536L143.0211640319824,146.26851806648423L143.1882448310852,145.2156912850915L143.68948722839355,159.74536482385997L144.13503602600096,159.25312575653524L144.24642322540285,143.54819145428561L144.69197202301024,148.7750183168176L144.7476656227112,152.3122420417956L144.85905282211303,144.4179179674714L145.02613362121582,159.675918355309L145.3602952194214,156.39704191833113L145.4159888191223,159.18748082041245L145.63876321792603,152.10029677170414L145.69445681762696,150.03979036830177L145.91723121643068,156.89218120147626L145.97292481613158,153.4095897493232L146.1956992149353,151.5519365129703L146.36278001403807,159.22270368979L146.86402241134644,150.7276709934004L147.03110321044923,140.4009967039386L147.5880392074585,159.50218467549638L148.14497520446778,155.45144119529223L148.70191120147706,144.7725190758212L149.09176639938354,159.88954851097796L149.70439599609375,158.97083294048792L150.09425119400026,155.9259662098749L150.48410639190675,151.77344415904722L150.59549359130858,154.68173020759787L150.92965518951416,155.300477839574L151.04104238891603,154.1808689513702L151.20812318801882,160.32082106261754L151.26381678771972,157.36168941318863L151.5979783859253,144.42685458861453L151.820752784729,134.02540450911462L152.4333823814392,145.45334512836223L152.600463180542,157.12160526823658L152.87893117904665,157.68125279522204L153.60294797515868,156.94791069810162L154.15988397216796,159.34001227088183L154.93959436798096,152.1385472324577L155.99777276229858,160.1030219588331L156.27624076080323,159.81682962686094L156.33193436050416,159.99748057675427L156.6104023590088,150.71246438528183L156.88887035751344,149.68660151399985L157.0559511566162,154.018461171081L157.33441915512083,158.17019983234115L157.77996795272827,160.1021891439619L157.94704875183106,153.41821205782762L158.33690394973755,155.93631269303668L158.39259754943848,158.26308256591966L158.44829114913938,153.42605025915572L158.55967834854127,157.95182765815778L158.89383994674682,158.64178528222286L159.2836951446533,154.68706012709228L160.0634055404663,159.51355004350182L160.6760351371765,158.22201046750538L160.95450313568114,152.85668319986542L161.06589033508303,160.16723640168527L161.17727753448486,156.8558118324965L161.2329711341858,146.6372273631376L161.40005193328858,155.72546488594855L161.4557455329895,159.46542349213138L163.12655352401734,155.35330723998044L163.29363432312013,159.7607766680851L163.51640872192385,156.2427861736029L163.57210232162475,141.10314339126893L163.8505703201294,159.0644994224384L163.90626391983034,160.1182868427634L164.57458711624145,149.97880893233437L165.0201359138489,158.3028223040618L165.13152311325072,156.45802335429852L165.18721671295165,157.43450637050344L165.40999111175537,159.11513425564252L165.8555399093628,159.78498693396554L166.3010887069702,159.85116092714972L166.52386310577393,157.63320482201127L166.74663750457765,154.2335414346602L167.02510550308227,156.86153380557903L167.1364927024841,160.09575201394512L167.30357350158692,150.90983071572043L167.41496070098876,153.43718037108798L167.47065430068972,154.89320472634003L167.58204150009155,159.48805627454595L167.8605094985962,159.81095097586484L168.08328389739992,155.83645408466168L168.13897749710083,142.23278588521336L168.19467109680176,133.50479178926196L168.30605829620362,145.95201145858326L168.41744549560548,160.08206455367994L168.6959134941101,159.67783873616264L168.80730069351196,147.0206715597486L169.25284949111938,150.63392641169614L170.75657668304441,143.79478096188777L170.81227028274535,155.54534317251878L170.9236574821472,145.8218975078992L171.42489987945558,159.70527244081097L171.4805934791565,158.17114037822805L171.81475507736207,142.16929568900642L171.87044867706297,159.77422902177895L172.0375294761658,160.07802788478L172.0932230758667,156.3058051400547L172.26030387496948,160.40545649807166L172.65015907287597,160.29483253231913L172.76154627227783,157.50457990951284L173.04001427078245,158.78741907725106L173.70833746719362,155.36851336969318L173.76403106689452,157.83825195825568L174.20957986450196,153.84445348432195L174.2652734642029,136.6675060251487L174.59943506240845,158.1165865639613L174.65512866210938,145.78850669369658L174.82220946121217,156.81669928441423L174.8779030609131,157.17129943595233L174.933596660614,160.22713006236762L175.1006774597168,150.46618871191254L176.15885585403444,155.55584609439117L176.60440465164183,159.96701934053064L176.66009825134276,157.54196804373484L176.71579185104372,160.14450563577398L176.82717905044555,159.3152042967016L177.21703424835204,158.3875532412823L177.38411504745483,157.72859559822055L177.4955022468567,155.27429803663958L177.66258304595948,159.96477567692872L177.8853574447632,159.90502900644157L178.38659984207152,158.4321526259754L178.60937424087524,149.56777411395862L178.7207614402771,158.02417410332623L178.9435358390808,156.27037679536767L178.99922943878175,155.75932597309463L179.22200383758545,159.9781300172255L179.27769743728638,158.46773788777884L179.3333910369873,159.62479369432256L179.61185903549196,160.00494645873522L179.89032703399658,160.1171307152436L179.94602063369751,159.57236591562113L180.16879503250124,159.0676347747305L180.44726303100586,148.00076055999347L180.5029566307068,160.07615651062488L180.55865023040772,157.73353370332973L180.7257310295105,159.2608856189066L180.78142462921141,146.92520280338692L181.22697342681886,158.63257537174206L181.2826670265198,154.89414527222692L181.3383606262207,159.59391116195363L181.61682862472534,159.8579801838334L181.67252222442627,158.57970674205652L181.89529662322997,150.83097890790188L182.0623774223328,159.79676385059724L182.22945822143555,159.3682689531812L182.3408454208374,157.3438967822869L182.45223262023927,158.7392532966015L182.61931341934206,146.85591337155384L183.00916861724855,147.92974695350298L183.67749181365966,159.9246440646006L183.78887901306155,159.525150547979L184.51289580917359,160.39785588504523L184.5685894088745,156.45065542591388L185.18121900558472,151.27697179802118L185.738155002594,154.87502004185015L185.84954220199586,160.24079303423377L185.9609294013977,157.71973839244734L186.12801020050048,159.95482112775363L186.29509099960327,151.5909706024943L186.46217179870604,155.78095948530512L186.68494619750976,126.68774964620168L186.7406397972107,155.30565084195197L187.0191077957153,160.09926940320307L187.1304949951172,160.20375264125877L187.24188219451904,160.00171321264753L187.29757579421997,159.21973506193407L187.5203501930237,155.63171982583845L188.24436698913576,152.2021933889694L188.3557541885376,159.49215166776307L188.41144778823852,159.98762404097621L188.52283498764038,159.54239456698053L188.80130298614503,146.4509916230371L188.91269018554686,159.22976795006593L189.02407738494873,157.51061523842245L189.1354645843506,160.12904478485035L189.581013381958,160.10672550776462L190.02656217956545,159.8521211474769L190.19364297866824,159.68046452643145L190.24933657836914,158.99873691807971L190.4164173774719,149.6623023244334L190.5278045768738,160.07076774721182L190.58349817657472,153.4451754895325L190.7505789756775,159.3441272787385L191.08474057388307,159.71130782952127L191.3075149726868,159.81780940202694L191.3632085723877,159.39260653481654L192.14291896820066,160.19082940442703L192.30999976730345,160.42280341170482L192.47708056640627,160.241160449921L192.64416136550904,160.21196313203362L192.86693576431273,160.20141096425982L193.03401656341555,159.94582679890573L193.14540376281738,157.60961175946878L193.47956536102294,142.92113534803792L193.7580333595276,159.1012998350825L193.8137269592285,159.67129384522974L194.09219495773314,156.931137071645L194.203582157135,160.305845195617L194.5934373550415,159.64830829830686L194.7605181541443,159.72669031158782L194.87190535354614,159.2740929690082L194.92759895324707,157.86733185740903L195.09467975234986,159.4218431118834L195.2060669517517,157.12513255451537L195.54022854995728,159.43947906487162L196.04147094726562,159.8584504567769L196.31993894577025,157.27774234394153L196.5984069442749,159.51553901579317L196.87687494277952,156.82406721279887L197.6008917388916,156.36427829418838L197.65658533859252,158.33848602442347L197.71227893829345,158.3648225052714L198.26921493530273,159.29086671506627L198.65907013320924,159.97949191905846L198.826150932312,159.64099915404014L199.10461893081663,155.84695700653404L199.605861328125,155.0007446189267L199.66155492782593,159.36677967579263L199.9957165260315,158.21064497989846L200.32987812423707,156.6407315689173L200.49695892333983,156.23196941749765L200.71973332214355,158.8519274406929L200.77542692184448,159.6683936892101L200.8311205215454,160.05796207861596L200.94250772094728,152.3330909684239L201.165282119751,159.9952858899505L201.33236291885376,159.62391187275287L201.38805651855466,159.9616943246961L201.61083091735838,152.82987668527696L201.66652451705932,160.13251316740977L201.72221811676027,145.8515261385542L202.0006861152649,151.01016007544473L202.11207331466676,148.5817280041595L202.66900931167604,158.61729090307256L203.05886450958252,160.47355086837194L203.33733250808714,158.61090274985392L203.44871970748903,159.8921351317684L203.6158005065918,160.02874517598937L204.28412370300293,159.20123690201572L204.4512045021057,159.75447672094373L204.6182853012085,150.2053331420787L204.89675329971314,146.51887071444568L205.39799569702149,158.10780781674632L205.56507649612425,160.28204646341266L205.67646369552614,160.11064460842866L206.06631889343262,160.50001796522758L206.28909329223634,157.25869533292004L206.34478689193725,160.21809653414098L206.7903356895447,160.29888389724854L207.01311008834838,158.42674424792278L207.06880368804931,156.97354176953436L207.2358844871521,159.79596042778502L207.34727168655397,160.3792205721518L207.73712688446045,160.11907065093607L207.95990128326417,158.90342448082717L208.1826756820679,152.56588612195537L208.40545008087156,158.9477886094471L208.51683728027345,160.28304583826804L208.850998878479,156.16722579798267L209.630709274292,156.7150378036207L209.74209647369383,159.6299080919848L209.90917727279663,160.26801363897948L210.0762580718994,159.02503416964853L210.2433388710022,160.00884600456044L210.2990324707031,159.2125631603435L210.57750046920776,160.4867753850207L211.0230492668152,159.66086902311122L211.35721086502076,160.4832028781771L211.52429166412355,159.6782306103486L211.57998526382448,160.29097466760297L212.02553406143187,158.39601839346736L212.4710828590393,159.7918453601276L213.19509965515135,160.28358960630908L213.58495485305787,159.2147577275458L213.91911645126342,158.9386571575245L214.19758444976807,159.74908795753066L214.6431332473755,155.3302629089396L214.81021404647825,144.4895601992393L215.2557628440857,151.99792940308959L215.31145644378662,160.35635751207485L215.36715004348756,157.40135069277255L215.58992444229125,160.2845497967359L215.64561804199218,160.51344578193425L215.7013116416931,160.50024239363103L215.81269884109497,152.58924380882323L215.97977964019773,157.27883956774195L216.09116683959962,159.98638951469894L216.36963483810425,160.31007783151026L216.42532843780518,154.56305972467308L216.59240923690797,159.9005807889154L216.87087723541262,157.56658011072244L216.92657083511352,160.35071890121037L217.0936516342163,158.89911344617644L217.37211963272094,157.31379811789137L217.4835068321228,155.62780072517438L217.65058763122556,158.997365208927L217.70628123092652,157.11690229959913L217.76197483062745,160.1516090057276L217.92905562973021,156.03930629489943L218.2632172279358,158.65781438958663L218.4859916267395,159.64327223960137L218.7087660255432,158.37195529718431L219.09862122344973,160.03972847712865L219.15431482315066,160.32808120018572L219.2657020225525,158.67125687615996L219.43278282165528,159.71704929764192L220.2681868171692,159.7469716694844L220.3238804168701,160.36723302239764L220.54665481567383,160.16707963407066L220.6580420150757,160.11753242664972L221.04789721298215,160.2618924960219L221.15928441238404,158.1043589890257L221.27067161178587,159.86909086052833L221.43775241088866,159.22929767712247L221.71622040939332,160.11620972419553L221.77191400909425,160.26157896079266L221.82760760879515,157.1386142703678L221.88330120849608,160.4659735327798L221.93899480819704,158.96769770779727L221.99468840789797,158.9686774829633L222.21746280670166,151.5350057301943L222.32885000610352,157.312700654888L222.44023720550535,159.72459357838036L222.60731800460815,158.6024374780674L222.77439880371094,160.15100154990873L222.83009240341187,155.7502333916468L222.99717320251463,157.6197231061588L223.60980279922487,159.77383708779226L223.88827079772952,159.7058211125119L223.94396439743042,159.87930010101397L224.27812599563597,138.4753079374665L224.77936839294435,160.24692640644074L224.83506199264528,160.3737007554382L225.1135299911499,155.68862524402533L225.2806107902527,159.19594609219897L225.61477238845825,157.99164561565524L225.83754678726197,158.83848495411954L226.06032118606566,160.24013166805648L226.17170838546753,155.0905705783728L226.5058699836731,160.41339757160614L226.67295078277587,160.10499128658452L226.8957251815796,158.81975165772946L227.00711238098145,151.1609669924524L227.06280598068238,160.08684586127413L227.2855803794861,153.59802041543037L227.50835477828977,159.4989317549684L227.67543557739256,160.42041276538282L227.7311291770935,160.3576997992682L227.89820997619628,160.3543097855659L228.39945237350466,160.3706475394492L228.84500117111205,155.6041296824795L229.1234691696167,160.46105873874285L229.17916276931763,153.63721142207083L229.23485636901856,158.88331947528437L229.2905499687195,159.7415632914318L229.45763076782225,160.39789018076408L229.68040516662597,141.1888928545287L230.0702603645325,160.0234053893745L231.40690675735473,160.32888462299795L231.57398755645752,159.93700882241163L231.68537475585936,160.30425306097223L231.79676195526125,157.74968037892938L231.963842754364,160.42314143533312L232.07522995376587,160.39477939162194L232.18661715316773,159.9652851791513L232.2980043525696,158.22420515430915L232.35369795227052,160.35693068712504L232.40939155197142,155.7723371768007L233.41187634658812,159.82223800491354L233.91311874389646,160.17403604372942L233.9688123435974,160.4327603753344L234.3586675415039,158.3928831607767L234.58144194030763,160.32610695382422L234.63713554000856,159.86453488208608L234.91560353851318,160.48023783462747L234.9712971382141,160.18972225370538L235.1383779373169,160.10453079106048L235.58392673492432,160.41062236173744L235.7510075340271,160.51692520894105L235.80670113372804,160.09732943761023L236.3079435310364,160.46431281417242L236.47502433013915,160.16286661281694L236.5307179298401,160.45734538996663L236.64210512924194,147.56542655205126L236.69779872894287,160.4743738796609L236.86487952804566,159.50970928179453L236.9205731277466,160.41586660921052L236.9762667274475,155.81873967311523L237.366121925354,160.4071196610339L237.47750912475587,160.042079931547L237.5888963241577,160.3073246656858L238.25721952056887,160.18651839967666L238.42430031967163,159.76599888646416L238.47999391937256,156.33167158716208L238.5356875190735,160.37208779518906L238.59138111877442,158.66220376319413L238.81415551757814,157.518923712694L238.9812363166809,160.08724757268024L239.8166403121948,158.30211689464662L239.87233391189577,160.39678548187237L239.9280275115967,158.07418186607197L240.26218910980225,159.35894147446453L240.37357630920408,158.71965779328127L240.5963507080078,158.41432076579457L240.81912510681153,154.50254856164915L240.87481870651246,160.35602928081616L241.15328670501708,160.43563846488456L241.71022270202636,158.4061297401574L242.21146509933473,160.4826884984575L242.32285229873656,159.79443198091806L242.3785458984375,160.21587918286042L242.43423949813845,151.5981811353567L242.60132029724122,160.39775791649873L242.71270749664308,159.9149834958159L242.87978829574584,158.46507292803167L243.38103069305419,160.50594897176308L243.548111492157,157.85886646602106L243.71519229125977,160.4834135299873L244.27212828826904,160.50313946617553L244.94045148468018,160.35396195461786L245.21891948318483,158.73858699686397L245.5530810813904,159.64826912882847L245.60877468109132,160.28342304632488L245.72016188049315,159.0787257769851L245.94293627929687,159.71169976350797L246.27709787750243,159.69886228092358L246.44417867660522,159.7272487906085L246.55556587600708,157.21346899736997L246.66695307540894,160.1756036899751L246.8340338745117,159.89632859818332L246.9454210739136,159.76100199723706L247.0011146736145,160.517813436664L247.11250187301636,160.46335998297297L247.27958267211915,156.17036126987622L248.05929306793215,160.2015873166136L248.11498666763305,159.18881330028603L248.28206746673584,160.37819180523746L248.72761626434325,160.49667846071713L248.78330986404418,160.43587606066134L249.28455226135253,160.26532170910292L249.34024586105346,160.33838843911823L249.61871385955808,160.488049091989L249.67440745925902,160.17917008593156L249.73010105895997,157.13289229728525L249.89718185806274,159.46691276951995L249.95287545776367,160.25159995311887L250.2313434562683,160.38041588410016L250.50981145477294,160.40245225888083L250.67689225387574,153.58124654977084L251.12244105148318,160.47590477835777L251.34521545028684,159.06738002361922L251.45660264968873,149.76529640470199L251.95784504699708,155.47950209000044L252.23631304550173,160.4574115220993L252.57047464370729,159.93243328913056L252.62616824340822,135.97774430827624L252.8489426422119,160.4774809910581L252.90463624191284,158.72075513668312L253.29449143981932,160.2248055481783L253.68434663772584,156.7649671078082L254.0185082359314,159.50461449877184L254.18558903503416,160.34215077216766L254.29697623443604,152.05358139796843L254.35266983413695,160.4976631358055L254.74252503204343,160.38128788339992L255.07668663024904,160.3989385473678L255.18807382965088,159.61630880789647L255.2437674293518,146.84807517022574L255.35515462875367,160.43043340931513L255.57792902755736,160.4014492137556L255.80070342636108,160.4966374336786L256.0791714248657,145.9629851318049L256.2462522239685,160.40938294675044L256.74749462127687,160.2523788576316L256.85888182067873,160.23967855792264L257.08165621948245,160.48568293406606L257.19304341888426,160.3827771458383L257.415817817688,160.3130808447861L257.58289861679077,160.0280593513134L257.91706021499635,160.0565806219442L258.0841410140991,160.3273696462455L258.58538341140746,160.043089098772L258.8081578102112,160.32192330967928L259.19801300811764,160.291491495415L259.36509380722043,158.77993358063054L259.75494900512695,160.12682067608728L259.8106426048279,160.45331360977644L259.97772340393067,159.60570769322487L260.08911060333253,159.95940652815523L260.5346594009399,160.48146622759236L260.59035300064085,148.08901878349275L260.75743379974364,160.35211998747187L261.0915953979492,160.43405368572962L261.3700633964539,160.07715587053008L262.2054673919678,160.51628651845323L262.2611609916687,159.51505881592848L262.70670978927615,159.17333292442393L262.98517778778074,157.99705399370785L263.3193393859863,156.67012482389765L263.4307265853882,160.4391509654328L263.4864201850891,160.38064001723754L263.8205817832947,160.5025117977098L264.37751778030395,148.40050882772636L264.54459857940674,159.81112732821865L264.6559857788086,160.1922598677973L264.71167937850953,160.18580315304132L264.76737297821046,160.32778726464588L264.9901473770142,160.40300706015663L265.54708337402343,160.1186150889723L265.60277697372436,160.4781705084292L265.7141641731262,157.0443989373142L266.2711001701355,160.38678442267926L266.32679376983646,160.02342500401403L266.4938745689392,160.46206545413787L266.93942336654663,160.34339018715465L267.2735849647522,159.08691668302077L267.3292785644531,160.36560659203403" fill="none"></path></g></g></g></g></g></g><g transform="translate(51, 176)" clip-path="url(#clip_1)"><clipPath id="clip_1"><rect width="278" height="23"></rect></clipPath><g><g><line x1="0" y1="0" x2="0" y2="5" style="visibility: inherit;" fill="rgb(0, 0, 0)" stroke="rgb(204, 204, 204)" stroke-width="1px"></line><line x1="27.846799850463867" y1="0" x2="27.846799850463867" y2="5" style="visibility: inherit;" fill="rgb(0, 0, 0)" stroke="rgb(204, 204, 204)" stroke-width="1px"></line><line x1="55.693599700927734" y1="0" x2="55.693599700927734" y2="5" style="visibility: inherit;" fill="rgb(0, 0, 0)" stroke="rgb(204, 204, 204)" stroke-width="1px"></line><line x1="83.5403995513916" y1="0" x2="83.5403995513916" y2="5" style="visibility: inherit;" fill="rgb(0, 0, 0)" stroke="rgb(204, 204, 204)" stroke-width="1px"></line><line x1="111.38719940185547" y1="0" x2="111.38719940185547" y2="5" style="visibility: inherit;" fill="rgb(0, 0, 0)" stroke="rgb(204, 204, 204)" stroke-width="1px"></line><line x1="139.23399925231934" y1="0" x2="139.23399925231934" y2="5" style="visibility: inherit;" fill="rgb(0, 0, 0)" stroke="rgb(204, 204, 204)" stroke-width="1px"></line><line x1="167.0807991027832" y1="0" x2="167.0807991027832" y2="5" style="visibility: inherit;" fill="rgb(0, 0, 0)" stroke="rgb(204, 204, 204)" stroke-width="1px"></line><line x1="194.92759895324707" y1="0" x2="194.92759895324707" y2="5" style="visibility: inherit;" fill="rgb(0, 0, 0)" stroke="rgb(204, 204, 204)" stroke-width="1px"></line><line x1="222.77439880371094" y1="0" x2="222.77439880371094" y2="5" style="visibility: inherit;" fill="rgb(0, 0, 0)" stroke="rgb(204, 204, 204)" stroke-width="1px"></line><line x1="250.6211986541748" y1="0" x2="250.6211986541748" y2="5" style="visibility: inherit;" fill="rgb(0, 0, 0)" stroke="rgb(204, 204, 204)" stroke-width="1px"></line><line x1="278.4679985046387" y1="0" x2="278.4679985046387" y2="5" style="visibility: inherit;" fill="rgb(0, 0, 0)" stroke="rgb(204, 204, 204)" stroke-width="1px"></line></g><g transform="translate(0, 8)"><text style="text-anchor: middle; visibility: hidden; font-family: Roboto, sans-serif; font-size: 12px; font-weight: 200;" x="0" y="0" dx="0em" dy="0.95em" fill="rgb(33, 33, 33)" stroke="none" stroke-width="1px">-500</text><text style="text-anchor: middle; visibility: inherit; font-family: Roboto, sans-serif; font-size: 12px; font-weight: 200;" x="27.846799850463867" y="0" dx="0em" dy="0.95em" fill="rgb(33, 33, 33)" stroke="none" stroke-width="1px">0</text><text style="text-anchor: middle; visibility: inherit; font-family: Roboto, sans-serif; font-size: 12px; font-weight: 200;" x="55.693599700927734" y="0" dx="0em" dy="0.95em" fill="rgb(33, 33, 33)" stroke="none" stroke-width="1px">500</text><text style="text-anchor: middle; visibility: inherit; font-family: Roboto, sans-serif; font-size: 12px; font-weight: 200;" x="83.5403995513916" y="0" dx="0em" dy="0.95em" fill="rgb(33, 33, 33)" stroke="none" stroke-width="1px">1k</text><text style="text-anchor: middle; visibility: inherit; font-family: Roboto, sans-serif; font-size: 12px; font-weight: 200;" x="111.38719940185547" y="0" dx="0em" dy="0.95em" fill="rgb(33, 33, 33)" stroke="none" stroke-width="1px">1.5k</text><text style="text-anchor: middle; visibility: inherit; font-family: Roboto, sans-serif; font-size: 12px; font-weight: 200;" x="139.23399925231934" y="0" dx="0em" dy="0.95em" fill="rgb(33, 33, 33)" stroke="none" stroke-width="1px">2k</text><text style="text-anchor: middle; visibility: inherit; font-family: Roboto, sans-serif; font-size: 12px; font-weight: 200;" x="167.0807991027832" y="0" dx="0em" dy="0.95em" fill="rgb(33, 33, 33)" stroke="none" stroke-width="1px">2.5k</text><text style="text-anchor: middle; visibility: inherit; font-family: Roboto, sans-serif; font-size: 12px; font-weight: 200;" x="194.92759895324707" y="0" dx="0em" dy="0.95em" fill="rgb(33, 33, 33)" stroke="none" stroke-width="1px">3k</text><text style="text-anchor: middle; visibility: inherit; font-family: Roboto, sans-serif; font-size: 12px; font-weight: 200;" x="222.77439880371094" y="0" dx="0em" dy="0.95em" fill="rgb(33, 33, 33)" stroke="none" stroke-width="1px">3.5k</text><text style="text-anchor: middle; visibility: inherit; font-family: Roboto, sans-serif; font-size: 12px; font-weight: 200;" x="250.6211986541748" y="0" dx="0em" dy="0.95em" fill="rgb(33, 33, 33)" stroke="none" stroke-width="1px">4k</text><text style="text-anchor: middle; visibility: hidden; font-family: Roboto, sans-serif; font-size: 12px; font-weight: 200;" x="278.4679985046387" y="0" dx="0em" dy="0.95em" fill="rgb(33, 33, 33)" stroke="none" stroke-width="1px">4.5k</text></g><line x1="0" y1="0" x2="278.4679985046387" y2="0" fill="rgb(0, 0, 0)" stroke="rgb(204, 204, 204)" stroke-width="1px"></line></g></g></g></g></svg>