<svg viewBox="0 0 330 200" xmlns="http://www.w3.org/2000/svg"><g><g><g><g><g><line x1="61.91500186920166" y1="176.57899951934814" x2="56.91500186920166" y2="176.57899951934814" style="visibility: inherit;" fill="rgb(0, 0, 0)" stroke="rgb(204, 204, 204)" stroke-width="1px"></line><line x1="61.91500186920166" y1="162.99599955632135" x2="56.91500186920166" y2="162.99599955632135" style="visibility: inherit;" fill="rgb(0, 0, 0)" stroke="rgb(204, 204, 204)" stroke-width="1px"></line><line x1="61.91500186920166" y1="149.4129995932946" x2="56.91500186920166" y2="149.4129995932946" style="visibility: inherit;" fill="rgb(0, 0, 0)" stroke="rgb(204, 204, 204)" stroke-width="1px"></line><line x1="61.91500186920166" y1="135.82999963026782" x2="56.91500186920166" y2="135.82999963026782" style="visibility: inherit;" fill="rgb(0, 0, 0)" stroke="rgb(204, 204, 204)" stroke-width="1px"></line><line x1="61.91500186920166" y1="122.24699966724101" x2="56.91500186920166" y2="122.24699966724101" style="visibility: inherit;" fill="rgb(0, 0, 0)" stroke="rgb(204, 204, 204)" stroke-width="1px"></line><line x1="61.91500186920166" y1="108.66399970421425" x2="56.91500186920166" y2="108.66399970421425" style="visibility: inherit;" fill="rgb(0, 0, 0)" stroke="rgb(204, 204, 204)" stroke-width="1px"></line><line x1="61.91500186920166" y1="95.08099974118748" x2="56.91500186920166" y2="95.08099974118748" style="visibility: inherit;" fill="rgb(0, 0, 0)" stroke="rgb(204, 204, 204)" stroke-width="1px"></line><line x1="61.91500186920166" y1="81.49799977816066" x2="56.91500186920166" y2="81.49799977816066" style="visibility: inherit;" fill="rgb(0, 0, 0)" stroke="rgb(204, 204, 204)" stroke-width="1px"></line><line x1="61.91500186920166" y1="67.91499981513388" x2="56.91500186920166" y2="67.91499981513388" style="visibility: inherit;" fill="rgb(0, 0, 0)" stroke="rgb(204, 204, 204)" stroke-width="1px"></line><line x1="61.91500186920166" y1="54.331999852107124" x2="56.91500186920166" y2="54.331999852107124" style="visibility: inherit;" fill="rgb(0, 0, 0)" stroke="rgb(204, 204, 204)" stroke-width="1px"></line><line x1="61.91500186920166" y1="40.74899988908033" x2="56.91500186920166" y2="40.74899988908033" style="visibility: inherit;" fill="rgb(0, 0, 0)" stroke="rgb(204, 204, 204)" stroke-width="1px"></line><line x1="61.91500186920166" y1="27.165999926053544" x2="56.91500186920166" y2="27.165999926053544" style="visibility: inherit;" fill="rgb(0, 0, 0)" stroke="rgb(204, 204, 204)" stroke-width="1px"></line><line x1="61.91500186920166" y1="13.582999963026792" x2="56.91500186920166" y2="13.582999963026792" style="visibility: inherit;" fill="rgb(0, 0, 0)" stroke="rgb(204, 204, 204)" stroke-width="1px"></line><line x1="61.91500186920166" y1="0" x2="56.91500186920166" y2="0" style="visibility: inherit;" fill="rgb(0, 0, 0)" stroke="rgb(204, 204, 204)" stroke-width="1px"></line></g><g transform="translate(51.91500186920166, 0)"><text style="text-anchor: end; visibility: hidden; font-family: Roboto, sans-serif; font-size: 12px; font-weight: 200;" x="0" y="176.57899951934814" dx="0em" dy="0.3em" fill="rgb(33, 33, 33)" stroke="none" stroke-width="1px">0.03</text><text style="text-anchor: end; visibility: inherit; font-family: Roboto, sans-serif; font-size: 12px; font-weight: 200;" x="0" y="162.99599955632135" dx="0em" dy="0.3em" fill="rgb(33, 33, 33)" stroke="none" stroke-width="1px">0.035</text><text style="text-anchor: end; visibility: hidden; font-family: Roboto, sans-serif; font-size: 12px; font-weight: 200;" x="0" y="149.4129995932946" dx="0em" dy="0.3em" fill="rgb(33, 33, 33)" stroke="none" stroke-width="1px">0.04</text><text style="text-anchor: end; visibility: inherit; font-family: Roboto, sans-serif; font-size: 12px; font-weight: 200;" x="0" y="135.82999963026782" dx="0em" dy="0.3em" fill="rgb(33, 33, 33)" stroke="none" stroke-width="1px">0.045</text><text style="text-anchor: end; visibility: hidden; font-family: Roboto, sans-serif; font-size: 12px; font-weight: 200;" x="0" y="122.24699966724101" dx="0em" dy="0.3em" fill="rgb(33, 33, 33)" stroke="none" stroke-width="1px">0.05</text><text style="text-anchor: end; visibility: inherit; font-family: Roboto, sans-serif; font-size: 12px; font-weight: 200;" x="0" y="108.66399970421425" dx="0em" dy="0.3em" fill="rgb(33, 33, 33)" stroke="none" stroke-width="1px">0.055</text><text style="text-anchor: end; visibility: hidden; font-family: Roboto, sans-serif; font-size: 12px; font-weight: 200;" x="0" y="95.08099974118748" dx="0em" dy="0.3em" fill="rgb(33, 33, 33)" stroke="none" stroke-width="1px">0.06</text><text style="text-anchor: end; visibility: inherit; font-family: Roboto, sans-serif; font-size: 12px; font-weight: 200;" x="0" y="81.49799977816066" dx="0em" dy="0.3em" fill="rgb(33, 33, 33)" stroke="none" stroke-width="1px">0.065</text><text style="text-anchor: end; visibility: hidden; font-family: Roboto, sans-serif; font-size: 12px; font-weight: 200;" x="0" y="67.91499981513388" dx="0em" dy="0.3em" fill="rgb(33, 33, 33)" stroke="none" stroke-width="1px">0.07</text><text style="text-anchor: end; visibility: inherit; font-family: Roboto, sans-serif; font-size: 12px; font-weight: 200;" x="0" y="54.331999852107124" dx="0em" dy="0.3em" fill="rgb(33, 33, 33)" stroke="none" stroke-width="1px">0.075</text><text style="text-anchor: end; visibility: hidden; font-family: Roboto, sans-serif; font-size: 12px; font-weight: 200;" x="0" y="40.74899988908033" dx="0em" dy="0.3em" fill="rgb(33, 33, 33)" stroke="none" stroke-width="1px">0.08</text><text style="text-anchor: end; visibility: inherit; font-family: Roboto, sans-serif; font-size: 12px; font-weight: 200;" x="0" y="27.165999926053544" dx="0em" dy="0.3em" fill="rgb(33, 33, 33)" stroke="none" stroke-width="1px">0.085</text><text style="text-anchor: end; visibility: hidden; font-family: Roboto, sans-serif; font-size: 12px; font-weight: 200;" x="0" y="13.582999963026792" dx="0em" dy="0.3em" fill="rgb(33, 33, 33)" stroke="none" stroke-width="1px">0.09</text><text style="text-anchor: end; visibility: hidden; font-family: Roboto, sans-serif; font-size: 12px; font-weight: 200;" x="0" y="0" dx="0em" dy="0.3em" fill="rgb(33, 33, 33)" stroke="none" stroke-width="1px">0.095</text></g><line x1="61.91500186920166" y1="0" x2="61.91500186920166" y2="176.57899951934814" fill="rgb(0, 0, 0)" stroke="rgb(204, 204, 204)" stroke-width="1px"></line></g></g><g transform="translate(61, 0)" clip-path="url(#clip_0)"><clipPath id="clip_0"><rect width="268" height="176"></rect></clipPath><g><g><g><line x1="0" y1="0" x2="0" y2="176.57899951934814" fill="rgb(0, 0, 0)" stroke="rgb(66, 66, 66)" stroke-width="1px" opacity="0.25"></line><line x1="26.808499813079834" y1="0" x2="26.808499813079834" y2="176.57899951934814" fill="rgb(0, 0, 0)" stroke="rgb(66, 66, 66)" stroke-width="1px" opacity="0.25"></line><line x1="53.61699962615967" y1="0" x2="53.61699962615967" y2="176.57899951934814" fill="rgb(0, 0, 0)" stroke="rgb(66, 66, 66)" stroke-width="1px" opacity="0.25"></line><line x1="80.4254994392395" y1="0" x2="80.4254994392395" y2="176.57899951934814" fill="rgb(0, 0, 0)" stroke="rgb(66, 66, 66)" stroke-width="1px" opacity="0.25"></line><line x1="107.23399925231934" y1="0" x2="107.23399925231934" y2="176.57899951934814" fill="rgb(0, 0, 0)" stroke="rgb(66, 66, 66)" stroke-width="1px" opacity="0.25"></line><line x1="134.04249906539917" y1="0" x2="134.04249906539917" y2="176.57899951934814" fill="rgb(0, 0, 0)" stroke="rgb(66, 66, 66)" stroke-width="1px" opacity="0.25"></line><line x1="160.850998878479" y1="0" x2="160.850998878479" y2="176.57899951934814" fill="rgb(0, 0, 0)" stroke="rgb(66, 66, 66)" stroke-width="1px" opacity="0.25"></line><line x1="187.65949869155884" y1="0" x2="187.65949869155884" y2="176.57899951934814" fill="rgb(0, 0, 0)" stroke="rgb(66, 66, 66)" stroke-width="1px" opacity="0.25"></line><line x1="214.46799850463867" y1="0" x2="214.46799850463867" y2="176.57899951934814" fill="rgb(0, 0, 0)" stroke="rgb(66, 66, 66)" stroke-width="1px" opacity="0.25"></line><line x1="241.2764983177185" y1="0" x2="241.2764983177185" y2="176.57899951934814" fill="rgb(0, 0, 0)" stroke="rgb(66, 66, 66)" stroke-width="1px" opacity="0.25"></line><line x1="268.08499813079834" y1="0" x2="268.08499813079834" y2="176.57899951934814" fill="rgb(0, 0, 0)" stroke="rgb(66, 66, 66)" stroke-width="1px" opacity="0.25"></line></g><g><line x1="0" y1="176.57899951934814" x2="268.08499813079834" y2="176.57899951934814" fill="rgb(0, 0, 0)" stroke="rgb(66, 66, 66)" stroke-width="1px" opacity="0.25"></line><line x1="0" y1="162.99599955632135" x2="268.08499813079834" y2="162.99599955632135" fill="rgb(0, 0, 0)" stroke="rgb(66, 66, 66)" stroke-width="1px" opacity="0.25"></line><line x1="0" y1="149.4129995932946" x2="268.08499813079834" y2="149.4129995932946" fill="rgb(0, 0, 0)" stroke="rgb(66, 66, 66)" stroke-width="1px" opacity="0.25"></line><line x1="0" y1="135.82999963026782" x2="268.08499813079834" y2="135.82999963026782" fill="rgb(0, 0, 0)" stroke="rgb(66, 66, 66)" stroke-width="1px" opacity="0.25"></line><line x1="0" y1="122.24699966724101" x2="268.08499813079834" y2="122.24699966724101" fill="rgb(0, 0, 0)" stroke="rgb(66, 66, 66)" stroke-width="1px" opacity="0.25"></line><line x1="0" y1="108.66399970421425" x2="268.08499813079834" y2="108.66399970421425" fill="rgb(0, 0, 0)" stroke="rgb(66, 66, 66)" stroke-width="1px" opacity="0.25"></line><line x1="0" y1="95.08099974118748" x2="268.08499813079834" y2="95.08099974118748" fill="rgb(0, 0, 0)" stroke="rgb(66, 66, 66)" stroke-width="1px" opacity="0.25"></line><line x1="0" y1="81.49799977816066" x2="268.08499813079834" y2="81.49799977816066" fill="rgb(0, 0, 0)" stroke="rgb(66, 66, 66)" stroke-width="1px" opacity="0.25"></line><line x1="0" y1="67.91499981513388" x2="268.08499813079834" y2="67.91499981513388" fill="rgb(0, 0, 0)" stroke="rgb(66, 66, 66)" stroke-width="1px" opacity="0.25"></line><line x1="0" y1="54.331999852107124" x2="268.08499813079834" y2="54.331999852107124" fill="rgb(0, 0, 0)" stroke="rgb(66, 66, 66)" stroke-width="1px" opacity="0.25"></line><line x1="0" y1="40.74899988908033" x2="268.08499813079834" y2="40.74899988908033" fill="rgb(0, 0, 0)" stroke="rgb(66, 66, 66)" stroke-width="1px" opacity="0.25"></line><line x1="0" y1="27.165999926053544" x2="268.08499813079834" y2="27.165999926053544" fill="rgb(0, 0, 0)" stroke="rgb(66, 66, 66)" stroke-width="1px" opacity="0.25"></line><line x1="0" y1="13.582999963026792" x2="268.08499813079834" y2="13.582999963026792" fill="rgb(0, 0, 0)" stroke="rgb(66, 66, 66)" stroke-width="1px" opacity="0.25"></line><line x1="0" y1="0" x2="268.08499813079834" y2="0" fill="rgb(0, 0, 0)" stroke="rgb(66, 66, 66)" stroke-width="1px" opacity="0.25"></line></g></g></g><g><g><line x1="0" y1="258.0769992975088" x2="268.08499813079834" y2="258.0769992975088" fill="rgb(0, 0, 0)" stroke="rgb(153, 153, 153)" stroke-width="1.5px"></line></g></g><g><g><line x1="26.808499813079834" y1="0" x2="26.808499813079834" y2="176.57899951934814" fill="rgb(0, 0, 0)" stroke="rgb(153, 153, 153)" stroke-width="1.5px"></line></g></g><g><g><g><g><g><path style="fill: none;" stroke="rgb(255, 112, 67)" stroke-width="2px" d="M35.65530475139618,177.8667777743906L36.03062374877929,175.17094503981426L36.084240748405456,174.00224803667726L36.35232574653625,171.95039025683639L36.72764474391938,168.94975791599575L36.78126174354553,167.68718613569214L36.83487874317169,166.9599370080339L37.10296374130249,165.0440451738405L37.15658074092865,164.11556646645866L37.53189973831177,161.460941883061L37.692750737190245,159.62817244714927L37.74636773681641,158.72530244156374L37.853601736068725,157.7704574380684L38.175303733825686,155.44608905479245L38.28253773307801,154.05342255096852L38.389771732330324,152.94772022601578L38.65785673046112,150.91527181018117L38.71147373008728,149.95089367565387L38.87232472896576,148.63872714911977L39.140409727096554,146.54268075607263L39.94466472148895,140.8214011583901L39.99828172111511,138.72087002297917L40.695302716255185,133.67497016642358L40.74891971588135,131.78245599127973L40.80253671550751,130.8611776028852L41.392323711395264,126.85524863418561L41.553174710273744,124.60628445072645L41.76764270877838,122.56008139867109L41.98211070728302,120.57633577821363L42.1429617061615,118.95020406601303L42.303812705039974,117.43421743755557L42.411046704292296,116.2905325142157L42.6791317024231,114.24637845495232L42.786365701675415,112.94001796292426L42.83998270130157,112.19928191205489L43.37615269756317,108.5873370026378L43.59062069606781,106.12133588698738L43.80508869457245,104.00829246294266L43.91232269382477,102.68071404656192L43.96593969345093,101.93344287499193L44.12679069232941,100.68814529304866L44.9310456867218,95.22889632918617L44.98466268634796,93.20906362586626L45.35998168373108,90.21830201171962L45.413598683357236,88.95876341211219L45.7353006811142,86.5405564043593L45.84253468036652,85.11898060107086L46.05700267887116,83.32761317010808L46.37870467662811,80.74559587917217L46.43232167625427,79.6119575342392L46.48593867588043,78.92441990467515L46.53955567550659,78.37428129544463L47.129342671394355,74.48266337872761L47.558278668403624,70.57700089327886L47.77274666690826,68.02053476421072L47.879980666160584,66.55638915780833L48.14806566429139,64.41353320816171L48.41615066242218,62.06163447279589L48.5233846616745,60.66049562365378L49.113171657562255,56.50676963304393L49.434873655319215,53.19713189948568L49.48849065494537,51.83938645822501L49.70295865345001,50.06767877876678L50.23912864971161,46.13820861399537L50.29274564933777,44.58954077767001L50.39997964859009,43.43579704543235L50.61444764709473,41.726921892353246L50.668064646720886,40.86221132588011L50.77529864597321,39.91912643275696L50.98976664447785,38.27513420212508L51.09700064373016,37.09201655018996L51.3114686422348,35.374108236095076L51.579553640365596,33.153093372479184L51.79402163887024,31.115498710935572L51.95487263774872,29.47277449095488L52.062106637001044,28.29006139255142L52.276574635505675,26.572263674693197L52.33019163513184,25.70480495826815L52.598276633262635,23.74572857073457L52.65189363288879,22.803956024049505L52.973595630645754,20.483613957471103L53.080829629898076,19.092180556064466L53.34891462802887,16.971719965556552L54.206786622047424,14.627279250847801L54.26040362167358,13.905303560726006L54.31402062129975,13.683047098176928L54.367637620925905,13.614718163971352L54.42125462055207,13.593812914746614L54.58210561943054,13.587822298019283L54.63572261905671,13.58615926933102L54.68933961868286,13.585829137758788L55.4399776134491,13.589215013748127L55.49359461307525,13.590580007327201L55.600828612327575,13.591672725400343L55.65444561195374,13.59234543259227L55.7080626115799,13.592916788934925L55.81529661083221,13.593835097994562L56.02976460933685,13.595700643554583L56.136998608589174,13.597129612901647L56.35146660709381,13.599376541847093L56.458700606346135,13.601035027285338L56.67316860485077,13.603576747203808L56.99487060260773,13.607693084690641L57.10210460186004,13.610151447976566L57.31657260036468,13.613387730306007L57.58465759849548,13.617689980513292L58.17444459438324,13.62709668043796L58.228061594009404,13.630792300325103L58.38891259288788,13.63435363268346L58.4961465921402,13.637117266925797L58.54976359176636,13.63882284758703L58.71061459064484,13.641939322876514L58.81784858989716,13.64467799115012L59.19316758728027,13.652020401469583L59.461252585411074,13.659212064220636L59.72933758354187,13.666581396737493L59.78295458316803,13.669915626233179L60.211890580177304,13.679738494582635L60.26550757980347,13.683912450621078L60.42635857868194,13.688671579343467L60.533592577934265,13.692504447418866L60.58720957756043,13.694889508377093L60.80167757606507,13.700512288771685L61.0161455745697,13.707272349263247L61.33784757232666,13.717169935985332L61.391464571952824,13.721562992797399L61.65954957008362,13.729737098561033L61.766783569335935,13.735041967096892L61.98125156784057,13.74237641078679L62.14210256671905,13.749005369773545L62.24933656597137,13.754002408114856L62.624655563354494,13.766186246728507L62.78550656223297,13.774644969377201L63.05359156036377,13.785261831558524L63.10720855998993,13.790170556484224L63.321676558494566,13.798307400512046L63.536144556999204,13.807578567733929L63.96508055400849,13.824412325794773L64.0723145532608,13.833182723548477L64.23316555213928,13.841332437718437L64.93018654727936,13.868423520290651L65.19827154541015,13.88662797446812L65.51997354316711,13.904378366022568L65.62720754241943,13.913977330683641L65.73444154167176,13.921093668363687L65.78805854129791,13.925372431776838L65.89529254055023,13.930906172476721L65.94890954017639,13.934725508522156L66.05614353942872,13.940173770596985L66.10976053905488,13.94400879797907L66.16337753868103,13.947346949075797L66.43146253681182,13.959299975439295L66.75316453456878,13.976399496073395L67.82550452709198,14.028797183240886L67.87912152671814,14.047386764823738L68.25444052410126,14.070536132268137L68.41529152297973,14.085271531765851L68.4689085226059,14.092373178754857L68.57614252185822,14.09968677391492L68.68337652111053,14.107121674115902L68.79061052036285,14.114621948771596L69.11231251811981,14.132773103312845L69.97018451213837,14.18225924972916L70.02380151176452,14.20033024553923L70.13103551101685,14.211554637676425L70.29188650989532,14.223597582353616L70.7208225069046,14.25057119232253L70.77443950653077,14.261834383166313L71.25699250316619,14.292265479233988L71.47146050167083,14.31386571399698L71.52507750129699,14.323599961536878L71.63231150054932,14.332774866496033L71.68592850017548,14.338710124958453L71.90039649868011,14.353059773011255L72.06124749755858,14.366961696578208L72.16848149681091,14.377616333268492L72.49018349456786,14.400226587829954L72.81188549232483,14.426841316470105L72.9727364912033,14.444997097393914L73.07997049045564,14.457270059673426L73.29443848896025,14.474524145573916L73.5089064874649,14.493466486311263L73.56252348709106,14.50271825251668L74.25954448223115,14.550976062439888L74.36677848148345,14.572954643434045L74.68848047924043,14.601321685512561L74.8493314781189,14.62096960404739L74.95656547737121,14.634346432259795L75.17103347587584,14.65322908396496L75.22465047550202,14.662756597220707L75.54635247325898,14.688157098001437L75.6535864725113,14.703543827813572L76.08252246952057,14.738900605409805L76.61869246578216,14.788881939614019L76.72592646503449,14.812217734899132L76.8331604642868,14.827360710448229L77.36933046054841,14.872404768719253L77.74464945793152,14.915089197094321L77.90550045681,14.940715570727033L78.06635145568848,14.961186107256534L78.49528745269775,15.001400166320508L79.3531594467163,15.083369151771308L79.51401044559478,15.121921537795856L79.72847844409942,15.151667649042164L80.05018044185638,15.187903534602292L80.1574144411087,15.20816825054294L80.4254994392395,15.237310003533443L80.58635043811798,15.260151852002531L80.63996743774415,15.271823210431412L80.69358443737029,15.28005405792789L80.80081843662262,15.291917322161847L81.17613743400574,15.328471891282542L81.28337143325807,15.349212930538382L81.65869043064117,15.389076110659271L81.87315842914582,15.42068259659736L81.98039242839813,15.440137732500975L82.40932842540741,15.485375429825487L82.46294542503357,15.50425284722512L82.94549842166901,15.554999145180153L83.4816684179306,15.621401665037752L83.69613641643524,15.662428823958985L83.80337041568755,15.685401802187993L84.23230641269683,15.73418809513502L84.285923412323,15.754480623760724L84.39315741157533,15.771263423373515L84.60762541007995,15.797623983505932L85.0901784067154,15.853938545919341L85.7335824022293,15.936692623586328L85.94805040073395,15.984282743678243L86.05528439998626,16.01003345150497L86.21613539886475,16.034688133279545L86.32336939811707,16.053472769861955L86.4306033973694,16.07049145127832L86.96677339363099,16.13241650318875L87.02039039325714,16.157203969609053L87.18124139213562,16.182052191817526L87.23485839176179,16.195448007191782L87.39570939064026,16.21689965088653L87.55656038951874,16.240902520959285L87.66379438877107,16.259948605822462L87.93187938690185,16.29507385842172L88.30719838428497,16.347252895598352L88.57528338241578,16.39314334755248L88.62890038204193,16.413258275956423L89.16507037830353,16.47984862846948L89.27230437755586,16.512543895464507L89.80847437381745,16.58410147984622L89.91570837306976,16.61853674802267L89.96932537269592,16.635361586091026L90.23741037082672,16.671749563574615L90.34464437007905,16.69550666158807L90.61272936820984,16.734351918909145L90.82719736671447,16.771709591333263L90.88081436634064,16.789574592420504L91.52421836185455,16.87220943733508L91.95315435886384,16.949792236008886L92.16762235736847,16.999977471237408L92.43570735549926,17.04848927618608L92.54294135475159,17.07672284436488L92.75740935325622,17.11210069163062L93.56166434764862,17.22431828874635L93.66889834690093,17.2725514096912L93.88336634540558,17.31483145051494L93.93698334503173,17.334744778609497L93.9906003446579,17.347769159183454L94.09783434391021,17.365576825692944L94.25868534278871,17.391846863548846L94.41953634166718,17.420793343034674L94.47315334129333,17.436683971743523L94.7948553390503,17.483583032310626L95.00932333755493,17.52620852009515L95.27740833568573,17.574772985511057L95.38464233493805,17.603975198185747L95.59911033344268,17.641542231849062L95.75996133232117,17.67464048609447L96.02804633045197,17.720900844877967L96.18889732933044,17.756900743277274L96.45698232746125,17.804404964736605L96.5105993270874,17.826347527998653L96.67145032596588,17.855081645394332L96.88591832447052,17.89337289327739L97.36847132110596,17.971920390170656L97.74379031848908,18.04853841692614L97.90464131736756,18.094742858375398L97.95825831699372,18.116523195662317L98.44081131362915,18.191596050963774L98.97698130989075,18.291514764950918L99.13783230876923,18.34551209311408L99.45953430652618,18.40881209871561L99.78123630428314,18.475285466491407L99.99570430278779,18.527273328648246L100.58549129867554,18.63064257804502L100.6391082983017,18.670477876213678L100.85357629680632,18.714821462973827L101.1752782945633,18.776856878852346L101.38974629306793,18.828388258143605L101.55059729194642,18.868672818560444L102.83740528297425,19.079240903145905L103.05187328147889,19.177612831981456L103.58804327774048,19.292327061193003L103.85612827587128,19.370210034506172L103.96336227512359,19.411271610327034L104.01697927474976,19.432476395076673L104.07059627437592,19.44756528817637L104.12421327400209,19.460784492898973L104.55314927101135,19.53372474440864L104.98208526802063,19.625633334622172L105.03570226764678,19.662667074817428L105.14293626689911,19.691525255616618L105.19655326652527,19.70916748221435L105.83995726203918,19.820236433490464L105.89357426166535,19.86331162740357L106.00080826091765,19.894324707220065L106.59059525680543,20.00210257447752L106.7514462556839,20.062274197131675L106.96591425418855,20.116901165887164L107.18038225269318,20.16994643750138L107.39485025119782,20.222658615157727L107.77016924858094,20.302874520711573L107.8237862482071,20.336755114065557L107.87740324783324,20.356378437513005L107.98463724708557,20.380812628774777L108.14548824596405,20.416000705524144L108.78889224147797,20.538244354083055L109.11059423923491,20.63207447083526L109.27144523811342,20.689182736426933L109.32506223773956,20.716184282940556L109.86123223400116,20.819183016422894L110.02208323287964,20.879479378495006L110.07570023250581,20.9075889149841L110.6118702287674,21.012147453220994L110.77272122764587,21.073288397685022L110.82633822727203,21.101770115559315L110.93357222652435,21.12989912362759L111.14804022502899,21.17737417979597L111.20165722465515,21.201716835330505L111.36250822353362,21.238445419194438L111.57697622203827,21.288835263478074L111.84506122016907,21.35341923297568L112.43484821605682,21.48198559754463L112.70293321418762,21.571320235340956L112.81016721343994,21.618794211540717L113.23910321044922,21.71360198352072L114.09697520446777,21.904813083285422L114.52591120147706,22.04554462694834L114.63314520072936,22.109437112699464L114.79399619960786,22.159999781895017L115.11569819736481,22.237564751192664L115.16931519699096,22.271819387519677L115.54463419437408,22.355146296008865L115.97357019138336,22.46451234014972L116.188038189888,22.540243847423042L116.40250618839264,22.605755979851736L116.61697418689728,22.668260607338834L116.77782518577575,22.719348241261088L116.88505918502807,22.75634472161608L117.20676118278503,22.83174820490325L117.31399518203735,22.87637402937322L117.36761218166352,22.900833565369783L117.68931417942048,22.972823869828424L117.74293117904662,23.005781696916795L118.11825017642974,23.09158046962754L118.22548417568207,23.1397021745122L118.38633517456054,23.187130212081065L118.49356917381287,23.223517768048424L118.54718617343902,23.245621998609963L118.60080317306519,23.263340971197593L118.97612217044829,23.345412608045113L119.19059016895294,23.41465629426708L119.2442071685791,23.446992262955508L119.35144116783141,23.478997580477778L119.61952616596221,23.544137891202915L120.04846216297149,23.65308477612416L120.10207916259766,23.697789392522523L120.31654716110229,23.7562383552502L120.42378116035461,23.796622624961934L120.85271715736388,23.898967105578297L120.90633415699006,23.941764237710316L121.4961211528778,24.07953135757322L122.0322911491394,24.236114576618593L122.13952514839173,24.30727044106752L122.51484414577484,24.409708384653666L122.568461145401,24.452800422150492L122.62207814502716,24.477627926822876L122.78292914390565,24.519954275883055L122.94378014278412,24.567754306521035L123.15824814128875,24.62894945696994L123.3727161397934,24.694396360580193L124.39143913269044,24.93777163001306L124.60590713119507,25.06010035407854L124.82037512969971,25.14528680468152L124.98122612857819,25.207254177917676L125.08846012783052,25.250192774427216L125.30292812633513,25.31122119701519L125.41016212558746,25.353982646733535L125.89271512222291,25.47536546892554L126.10718312072754,25.56107294431283L126.58973611736297,25.69666357998497L126.85782111549378,25.79936669412796L126.91143811511994,25.843226710458136L126.9650551147461,25.868949046410954L127.66207610988617,26.036542787952467L127.82292710876465,26.125208194397256L128.09101210689545,26.21443877551231L128.46633110427857,26.328942632322846L128.6807991027832,26.41411409274229L128.84165010166168,26.477869649137453L129.16335209941863,26.572761947444995L129.2169690990448,26.61456638877437L129.27058609867098,26.640019770154414L129.43143709754943,26.68564827697559L129.69952209568024,26.762856043099735L130.02122409343718,26.862689978314176L130.07484109306336,26.90614250007037L130.61101108932496,27.04702478015771L130.6646280889511,27.10321823589219L130.87909608745576,27.171788699132858L130.9327130870819,27.20573812778066L131.14718108558657,27.26762550569137L131.25441508483885,27.31244431378465L131.57611708259583,27.403731087533558L131.73696808147432,27.470700754284767L131.95143607997895,27.54324858431839L132.0050530796051,27.578591116951085L132.11228707885743,27.615500231468857L132.16590407848358,27.63989405222484L132.2731380777359,27.673486988488776L132.86292507362364,27.827831879991535L132.970159072876,27.90165983981142L133.39909506988525,28.029865921907163L133.45271206951142,28.082575296191987L133.6135630683899,28.138517505222822L135.49015805530547,28.624466897280374L135.9727110519409,28.896273819265126L136.02632805156708,28.993590421014332L136.4016470489502,29.119072560321673L136.61611504745485,29.212471494616405L136.99143404483794,29.33736326739435L137.04505104446412,29.38958407194949L137.688455039978,29.571460073533125L137.8493060388565,29.66911846641809L138.33185903549196,29.824511179647978L138.76079503250122,29.984324100034186L138.86802903175354,30.061601000383465L139.2969650287628,30.197984531700097L139.350582028389,30.254108960412676L139.4578160276413,30.299631886590312L139.61866702651977,30.356077882309496L139.94036902427675,30.458523211669903L139.9939860239029,30.50427871168634L140.20845402240755,30.5752647974914L140.2620710220337,30.611372869246L140.47653902053833,30.67955562215915L140.5301560201645,30.71484228613613L140.74462401866913,30.782926114215442L140.9054750175476,30.8468951240138L141.38802801418305,30.99601533881315L141.54887901306154,31.0852236807424L142.08504900932311,31.257482467249343L142.62121900558472,31.456119146996613L143.15738900184633,31.66366456792114L143.53270799922942,31.830506490344472L144.12249499511717,32.04442233973486L144.4978139925003,32.214220797950844L144.87313298988343,32.3708092684637L144.98036698913572,32.448913850889674L145.30206898689272,32.562764137813545L145.409302986145,32.62783141595362L145.5701539850235,32.692916241025245L145.62377098464967,32.72800508078422L145.9454729824066,32.82916676900902L146.15994098091127,32.920719523546964L146.74972797679902,33.11564818454621L146.9105789756775,33.221318578082894L147.1786639738083,33.330087077553095L147.87568496894835,33.56264461543475L148.41185496520995,33.788285073742685L149.1624929599762,34.07469714504604L150.18121595287323,34.45971852919027L150.44930095100403,34.656866177694376L150.50291795063018,34.73331667337245L150.77100294876098,34.835662594496974L151.03908794689178,34.946166387922794L151.19993894577024,35.027682747386585L151.46802394390104,35.13207917334419L151.89695994091034,35.291494069657546L152.05781093978882,35.38843921133825L152.43312993717194,35.53020826093413L152.48674693679808,35.58989627942071L152.54036393642423,35.62430334032562L152.64759793567657,35.66697503000849L152.96929993343352,35.77652293646717L153.34461893081664,35.9230700376824L154.09525692558287,36.19493973699335L154.68504392147062,36.45785757417375L154.95312891960143,36.62059075545438L155.06036291885377,36.703459190263814L155.16759691810609,36.76177130191329L155.22121391773223,36.79613275229098L155.38206491661072,36.85596205772932L155.43568191623686,36.890818816296076L157.04419190502168,37.39799226045568L157.20504290390016,37.604218003787096L157.4195109024048,37.734517337780574L157.47312790203097,37.79137299641451L157.74121290016174,37.89257188934889L157.7948298997879,37.94049262463879L158.4382338953018,38.15695623260298L158.8671698923111,38.35867529656299L158.9744038915634,38.45464387082024L159.02802089118956,38.50113574922133L159.24248888969422,38.58324550289248L159.6714248867035,38.7444659735469L160.10036088371277,38.93052875756817L160.3148288822174,39.05621461271479L160.52929688072206,39.16343043002758L160.79738187885283,39.28224118949386L160.90461587810515,39.3531922372562L161.06546687698363,39.426644188866895L161.17270087623595,39.48370876131607L161.22631787586212,39.51851233843251L161.33355187511444,39.56371523029062L161.60163687324524,39.66397225250815L161.81610487174987,39.76405630183169L161.86972187137604,39.81219391533177L161.9233388710022,39.84434603284926L162.03057287025453,39.8889143564147L162.13780686950685,39.937348890196084L162.40589186763765,40.039133495666185L162.51312586688994,40.1052886880316L162.94206186389923,40.26516674782378L164.38972085380553,40.78861883233083L164.4433378534317,40.96750395694387L164.55057185268402,41.05795235299659L165.03312484931948,41.245229608529854L165.08674184894562,41.32065692332532L165.40844384670257,41.45054613809355L165.46206084632874,41.508353961337676L165.62291184520723,41.57959261868541L165.67652884483337,41.61936408274612L165.83737984371186,41.68514558522276L166.21269884109498,41.83055214119417L166.31993284034726,41.911151344390206L166.58801783847807,42.0256579245028L167.23142183399202,42.276874329998996L167.28503883361816,42.372289034255274L167.71397483062745,42.54626329284415L167.7675918302536,42.61794344085723L168.08929382801057,42.748807478417405L168.1429108276367,42.807265703357906L168.3037618265152,42.87976915950858L168.35737882614137,42.920280337877024L168.41099582576751,42.95095190093963L168.571846824646,43.015009115240424L169.59056981754304,43.382065750996226L170.0195058145523,43.64212880592007L170.07312281417845,43.740632440727616L170.12673981380465,43.78938978039041L170.23397381305693,43.84124348129067L170.60929281044005,43.98640808093247L170.77014380931854,44.0865835318142L170.87737780857086,44.154456092233666L171.03822880744934,44.230937645043376L171.252696805954,44.32868507516617L171.7352498025894,44.52613797129216L171.94971780109404,44.661508737683896L172.05695180034638,44.74051558655266L172.271419798851,44.83957304540188L172.32503679847719,44.88878108789064L172.5395047969818,44.97878657063435L172.593121796608,45.025248623235825L172.64673879623413,45.058285293102436L172.91482379436493,45.162260450760776L173.18290879249574,45.28825273767171L173.23652579212188,45.345868757211974L173.45099379062654,45.43894010942352L173.71907878875734,45.56191017428224L173.7726957883835,45.618679386936776L173.82631278800963,45.65504473086137L173.98716378688812,45.722956567326406L174.0407807865143,45.76278185188674L174.46971678352358,45.92663769473856L174.52333378314972,45.996069758270274L174.57695078277587,46.03644731027349L174.84503578090667,46.14390200347203L174.89865278053284,46.196032544165824L175.11312077903747,46.2882547439562L175.27397177791596,46.373846704563874L175.43482277679442,46.45746658275857L175.54205677604676,46.52143055813042L175.64929077529908,46.57936852793493L175.81014177417757,46.65461103947286L176.18546077156068,46.811951611916896L176.82886476707458,47.0911935069222L176.93609876632692,47.21575921974815L177.63311976146696,47.505383597038765L177.68673676109313,47.61395855045833L178.2765237569809,47.86096695225309L178.8126937532425,48.1319005047331L178.9199277524948,48.25439746684832L179.02716175174712,48.33120397163333L179.1880127506256,48.41351855454051L179.3488637495041,48.49758565051358L179.50971474838255,48.582262551766256L179.7241827468872,48.6868200620334L179.77779974651335,48.738660539179854L180.04588474464416,48.852881257317044L180.1531187438965,48.92741880397792L180.26035274314881,48.98976194632629L180.31396974277496,49.02865642315796L180.5284377412796,49.119505121733084L181.22545873641968,49.40451523407061L181.332692735672,49.5319360391664L181.38630973529814,49.59101449863487L181.49354373455049,49.6488903734002L181.7616287326813,49.76603446908444L181.8688627319336,49.84187859731054L181.9760967311859,49.90504435431274L182.08333073043823,49.964319179229015L182.5122667274475,50.14212103111176L182.9412027244568,50.356863401082954L183.10205372333527,50.48309086807547L183.15567072296145,50.542011873174054L183.3165217218399,50.62033039729213L183.42375572109222,50.684608424505505L183.4773727207184,50.72449102090528L183.63822371959688,50.79705776515262L183.95992571735383,50.94015621275699L184.17439371585849,51.06486452196348L184.22801071548463,51.12344368272346L184.97864871025084,51.42458041063398L185.13949970912932,51.57815967117791L185.3003507080078,51.68634725677719L185.46120170688627,51.780610231497725L185.67566970539093,51.89097752760897L185.83652070426942,51.986051915677784L185.94375470352173,52.05607901153245L186.26545670127868,52.200047985056756L186.53354169940948,52.346552024123696L186.58715869903563,52.41213840095289L186.85524369716643,52.53469668775255L186.96247769641877,52.613426930684305L187.33779669380186,52.78133796261537L187.49864769268038,52.89471007761007L187.60588169193267,52.97076504838756L187.65949869155884,53.01477916844316L187.82034969043733,53.090103084588726L187.9275836896896,53.154523247627004L188.24928568744662,53.29815190469873L188.73183868408202,53.52849058889241L188.99992368221282,53.703053148955604L189.26800868034363,53.860576725297186L189.53609367847443,54.01302036966518L190.2331146736145,54.33089592635703L190.28673167324067,54.44968491814652L190.3403486728668,54.507155247946045L190.87651866912842,54.7340954940887L191.25183766651153,54.95082061974798L191.41268866539,55.080586081963645L191.6807736635208,55.22569877102299L192.16332666015626,55.4600521248378L192.2169436597824,55.55334037815806L192.53864565753935,55.70881572600997L192.86034765529632,55.883668798994556L193.0211986541748,56.00108391277775L193.23566665267944,56.12208363048488L193.28928365230558,56.18058502014356L193.34290065193176,56.21982291851221L193.4501346511841,56.2743891506705L193.66460264968873,56.37622750035197L193.8254536485672,56.47143420437896L193.87907064819333,56.522047370828375L194.093538646698,56.62285025753532L194.14715564632414,56.67521506075225L194.20077264595034,56.712674940505316L194.46885764408114,56.830940216535765L194.57609164333343,56.91008498728192L195.11226163959503,57.14847709284712L195.48758063697815,57.372062878960435L195.75566563510893,57.54836925295389L195.86289963436127,57.645684813144804L196.02375063323973,57.74022682306377L196.66715462875368,58.02813926292857L196.82800562763214,58.18165123055719L196.98885662651062,58.29382387774128L197.25694162464143,58.43662736750592L197.73949462127686,58.67585798211029L197.90034562015532,58.81472610383519L198.00757961940766,58.90097288861235L198.38289861679078,59.07992490984129L198.5973666152954,59.22224505147063L198.65098361492156,59.28788738799069L199.07991961193085,59.48284721584597L199.29438761043548,59.630391893188474L199.34800461006165,59.69772742421458L199.5088556089401,59.784170091486516L199.61608960819245,59.85463399881969L199.99140860557557,60.029929431386904L200.2058766040802,60.1718096500103L200.42034460258486,60.30349602649644L200.63481260108946,60.43212673711068L200.7420466003418,60.51582266806124L201.06374859809875,60.6739600872978L201.814386592865,61.032288598324094L201.9216205921173,61.1869695580696L202.0824715909958,61.30114098619956L202.24332258987425,61.40287749734512L202.40417358875274,61.500840079063714L202.4577905883789,61.55324047466303L202.7258755865097,61.68056141741081L203.15481158351898,61.897963793744594L203.47651358127595,62.09879547327349L203.63736458015444,62.227671541883836L203.69098157978058,62.28971934770536L204.11991757678985,62.487815954176234L204.54885357379914,62.72817975377464L205.2458745689392,63.094396207384406L205.62119356632232,63.36491526826712L205.9428955640793,63.58363356800245L206.21098056221007,63.763987231610656L206.63991655921936,64.00059496743653L206.80076755809785,64.14145649270932L207.22970355510714,64.36637686246387L207.28332055473328,64.45837047556533L207.33693755435942,64.50942264761761L207.55140555286408,64.61608930473321L207.60502255249023,64.67168878684397L207.65863955211637,64.71157358530434L207.7658735513687,64.76937841917055L207.92672455024717,64.8555048006652L208.03395854949952,64.92760806711024L208.30204354763032,65.06385476929445L208.35566054725646,65.1286489427927L208.51651154613495,65.21711012215776L208.78459654426575,65.35863316778935L208.83821354389192,65.42509447382257L208.99906454277038,65.51420919251899L209.2671495409012,65.65617163453258L209.3743835401535,65.74573852638761L209.53523453903196,65.8421378405298L209.58885153865816,65.89477106851962L209.6424685382843,65.93393834822551L209.80331953716276,66.01488461308112L210.12502153491974,66.1777356168307L210.33948953342437,66.31994280794267L210.553957531929,66.45587574226866L210.92927652931215,66.65916512949143L210.9828935289383,66.74486056250056L211.0901275281906,66.81744737185865L211.2509785270691,66.90910703937892L212.0552335214615,67.28459519947104L212.10885052108765,67.42343990453246L212.3233185195923,67.55902349945671L212.4305525188446,67.64722797520372L212.8058715162277,67.83710557228153L212.91310551548005,67.94211663819814L213.02033951473234,68.02101682501927L213.18119051361086,68.1151812628405L213.44927551174163,68.2607439309991L213.5028925113678,68.32889764080453L213.55650951099395,68.37322339768818L213.6101265106201,68.41021014507199L213.6637435102463,68.44493647752984L213.71736050987244,68.47898060844157L213.9318285083771,68.58290190157426L214.03906250762938,68.66166252589277L214.1462965068817,68.73268767046751L214.30714750576018,68.82474873905119L214.46799850463867,68.92334489723383L214.52161550426484,68.97713096572406L214.6824665031433,69.06399444888217L215.27225349903108,69.34889761495593L215.54033849716188,69.55418824899046L215.59395549678803,69.64093425980045L215.91565749454497,69.80890507305593L216.39821049118044,70.07283478707642L216.45182749080658,70.17772567202846L216.71991248893738,70.32811876726872L216.88076348781587,70.44535348971243L217.20246548557282,70.62342914495503L217.41693348407748,70.7730007226791L217.63140148258208,70.91389108828481L217.73863548183442,71.00472449322686L218.06033747959137,71.1751307489639L218.22118847846983,71.29889368736815L218.4356564769745,71.4321291233356L218.54289047622683,71.52074487245962L218.59650747585297,71.5718351437384L218.8109754743576,71.68281345449076L219.02544347286224,71.81232131890734L219.18629447174072,71.92375367155495L219.23991147136687,71.9819274817232L219.40076247024535,72.07145897691765L219.88331546688082,72.31408665619131L220.31225146389008,72.58032345213182L220.58033646202088,72.78216186933889L220.63395346164702,72.86830680365095L220.6875704612732,72.91881814523141L220.74118746089937,72.95836834650157L220.90203845977783,73.04255594518506L221.11650645828246,73.16455460159052L221.4918254556656,73.37044330673459L222.77863344669342,74.01266535291562L222.9394844455719,74.28300811737186L223.04671844482422,74.41465127998079L223.15395244407654,74.50360297772284L223.314803442955,74.6036365186173L223.42203744220734,74.68289447162451L223.52927144145966,74.75576754981346L223.636505440712,74.82670209906053L223.69012244033814,74.87279476081108L223.7437394399643,74.91125012746377L224.70884543323515,75.36045357594863L225.1913984298706,75.71803407965118L225.24501542949676,75.85255375788456L225.62033442687988,76.06479205044009L225.83480242538454,76.22785504568093L225.88841942501068,76.30251935631236L226.15650442314148,76.4477625232263L226.21012142276763,76.51696633923514L226.37097242164612,76.61170188261508L226.79990841865538,76.83684188853697L226.9607594175339,76.97975984717175L227.01437641716004,77.04830352403485L227.49692941379547,77.29039159946022L227.65778041267393,77.43868363226373L227.71139741230013,77.5089525552261L227.81863141155242,77.57978533721631L227.8722484111786,77.6261968109282L228.03309941005708,77.71431849416133L228.08671640968322,77.76608296195818L228.1403334093094,77.8066494074006L228.5156524066925,77.99163085438354L228.62288640594483,78.09792115003162L228.73012040519714,78.18000258357068L229.37352440071106,78.50166994375174L229.53437539958952,78.67494860879596L229.58799239921572,78.75305347699907L229.64160939884187,78.80185882202618L229.695226398468,78.84163991391509L229.90969439697267,78.95293069145222L230.07054539585113,79.06153942530163L230.8748003902435,79.46719303095853L230.9284173898697,79.6169814308788L230.98203438949585,79.6879633474322L231.3037363872528,79.85903437025792L231.4109703865051,79.96148845529942L231.62543838500977,80.09262875851887L231.8399063835144,80.23267444819237L231.89352338314058,80.30072564124508L232.16160838127135,80.44636905562898L232.69777837753296,80.74091666488086L233.1803313741684,81.05668977054005L233.2875653734207,81.20402023461759L233.34118237304685,81.27442718819516L233.39479937267305,81.32115570678984L233.5556503715515,81.41069162744637L233.66288437080385,81.48838305729629L233.8237353696823,81.58752558587472L234.30628836631774,81.84389827674578L234.46713936519623,81.99821469622933L234.6279903640747,82.12113980287869L235.1641603603363,82.41056701099022L235.80756435585025,82.80213356394586L236.07564935398102,83.04890437179208L236.397351351738,83.27645741706276L236.45096835136414,83.37181103191583L236.55820235061645,83.45174251161214L236.77267034912109,83.5775145525038L237.09437234687803,83.76809410882471L237.25522334575652,83.90277652416447L237.36245734500883,83.99493332441914L237.46969134426118,84.07400624147863L237.63054234313964,84.17441464318117L237.73777634239198,84.25607107223978L237.79139334201813,84.30658657305698L237.89862734127044,84.37290400114502L238.05947834014893,84.46948175600176L238.81011633491516,84.8550845251435L238.86373333454134,84.99928552996155L239.0245843334198,85.12007552646806L239.4535203304291,85.3610697982947L239.50713733005523,85.46080141719503L239.98969032669066,85.72112322941997L240.04330732631684,85.82682173701399L240.31139232444764,85.98709988075635L240.36500932407378,86.06201295095985L240.41862632369995,86.1106475847645L240.5794773225784,86.20231127652217L240.63309432220458,86.25611910801652L240.9011793203354,86.40061101103502L241.16926431846616,86.57311764558924L241.33011531734468,86.70310198859049L241.75905131435397,86.94824470673699L241.97351931285857,87.12638647168353L242.08075331211091,87.23258704541682L242.56330630874635,87.49651201460208L242.83139130687715,87.70639229608014L243.1530933046341,87.92545434069645L243.20671030426027,88.01866893988398L243.4211783027649,88.15040901922079L243.47479530239104,88.21675646560436L243.85011429977416,88.41765502085502L244.2254332971573,88.66017739890054L244.54713529491426,88.88985345930196L244.70798629379271,89.038132291766L244.81522029304506,89.13551325107332L244.8688372926712,89.19136212599412L245.24415629005432,89.38967841190848L245.5658582878113,89.60614517721422L245.6730922870636,89.72463306671966L245.72670928668975,89.7870459042713L245.8339432859421,89.8581131965306L246.0484112844467,89.98372521476092L246.26287928295136,90.12619303359457L246.53096428108213,90.29987605348092L246.69181527996065,90.4312942013704L247.17436827659608,90.70573140860324L247.2816022758484,90.84228428798811L247.49607027435303,90.98843703270617L247.60330427360535,91.0855203163897L247.81777227210998,91.2196004631381L247.97862327098846,91.33906603549465L248.30032526874544,91.53229024672842L248.4611762676239,91.67006323157838L248.94372926425933,91.94745217242018L249.158197262764,92.1374026115987L249.53351626014708,92.37893403257395L249.69436725902557,92.53180973804122L250.0696862564087,92.76214624105032L250.12330325603486,92.85928157345671L250.28415425491332,92.96779533365321L250.39138825416566,93.05362896325498L250.82032425117492,93.28985134952808L250.87394125080107,93.38884155273294L251.03479224967955,93.49805967252043L251.35649424743653,93.68924816844762L251.62457924556733,93.87951286012287L252.4288342399597,94.33271949935833L252.48245123958586,94.49863889623302L252.91138723659515,94.76050813640023L253.17947223472595,94.9729977004608L253.5011742324829,95.19674313565577L253.6084082317352,95.31844628993568L253.6620252313614,95.38233264469936L253.98372722911836,95.56047636644357L254.51989722537996,95.8796986152208L254.68074822425842,96.05737848634222L254.78798222351074,96.16503350939807L254.8415992231369,96.2246560678745L254.89521622276305,96.26948462726047L255.1096842212677,96.38920709405647L255.6458542175293,96.69105887448177L255.69947121715546,96.81054305610668L255.80670521640778,96.90038585680608L256.3428752126694,97.19341987197774L256.3964922122955,97.31022319753217L256.557343211174,97.4258731809498L256.9862792081833,97.6740872575354L257.3079812059402,97.91010340830884L257.3615982055664,98.00940125663288" fill="none"></path></g></g></g></g><g opacity="0.2"><g><g><g><path style="fill: none;" stroke="rgb(255, 112, 67)" stroke-width="2px" d="M35.65530475139618,177.39397995431906L36.03062374877929,173.9710657302051L36.084240748405456,173.48207653817119L36.35232574653625,171.0371356380633L36.72764474391938,167.6142163538875L36.78126174354553,167.12523222191535L36.83487874317169,166.63624808994325L37.10296374130249,164.19130718983536L37.15658074092865,163.7023129377396L37.53189973831177,160.27940377368742L37.692750737190245,158.81243113752382L37.74636773681641,158.32344700555166L37.853601736068725,157.34546862148377L38.175303733825686,154.41154358940378L38.28253773307801,153.4335652053359L38.389771732330324,152.45558682126799L38.65785673046112,150.0106560412837L38.71147373008728,149.521661789188L38.87232472896576,148.05469927314795L39.140409727096554,145.60975837304005L39.94466472148895,138.27493567271637L39.99828172111511,137.78595154074424L40.695302716255185,131.4291072244884L40.74891971588135,130.94012309251627L40.80253671550751,130.45112884042055L41.392323711395264,125.0722629082326L41.553174710273744,123.60530039219259L41.76764270877838,121.64934362405684L41.98211070728302,119.69339697604467L42.1429617061615,118.22643446000467L42.303812705039974,116.75947194396466L42.411046704292296,115.78149355989677L42.6791317024231,113.33655265978888L42.786365701675415,112.35857427572098L42.83998270130157,111.86959014374887L43.37615269756317,106.97970834353308L43.59062069606781,105.0237515753973L43.80508869457245,103.06780492738515L43.91232269382477,102.08982654331729L43.96593969345093,101.60084241134516L44.12679069232941,100.13387989530514L44.9310456867218,92.79905719498146L44.98466268634796,92.31006294288571L45.35998168373108,88.88715377883354L45.413598683357236,88.39815952673779L45.7353006811142,85.46424461478135L45.84253468036652,84.48625611058988L46.05700267887116,82.53029934245413L46.37870467662811,79.59637431037409L46.43232167625427,79.10739017840196L46.48593867588043,78.61840604642981L46.53955567550659,78.12942191445767L47.129342671394355,72.75055598226974L47.558278668403624,68.83864244599823L47.77274666690826,66.88268567786248L47.879980666160584,65.90471741391819L48.14806566429139,63.4597765138103L48.41615066242218,61.0148356137024L48.5233846616745,60.03686734975813L49.113171657562255,54.65800141757019L49.434873655319215,51.72405614524297L49.48849065494537,51.23507201327082L49.70295865345001,49.279115245135074L50.23912864971161,44.38925368516649L50.29274564933777,43.90024931294714L50.39997964859009,42.92228104900287L50.61444764709473,40.96632428086712L50.668064646720886,40.477340148894974L50.77529864597321,39.4993718849507L50.98976664447785,37.54341511681493L51.09700064373016,36.565426612623455L51.3114686422348,34.60949008473491L51.579553640365596,32.16454918462701L51.79402163887024,30.208592416491246L51.95487263774872,28.741619780327643L52.062106637001044,27.76365151638335L52.276574635505675,25.807694748247602L52.33019163513184,25.318710616275457L52.598276633262635,22.873769716167562L52.65189363288879,22.384785584195434L52.973595630645754,19.450860552115394L53.080829629898076,18.472872047923918L53.34891462802887,16.027931147816023L54.206786622047424,13.583799857595919L54.26040362167358,13.583961779573468L54.31402062129975,13.584123701551018L54.367637620925905,13.584305863775771L54.42125462055207,13.58450826624771L54.58210561943054,13.585155954157948L54.63572261905671,13.585419077371476L54.68933961868286,13.585682200585005L55.4399776134491,13.590722022136436L55.49359461307525,13.591187547821903L55.600828612327575,13.592159079687242L55.65444561195374,13.592644845619912L55.7080626115799,13.593171092046969L55.81529661083221,13.594243825148268L56.02976460933685,13.59653097308125L56.136998608589174,13.597765628160118L56.35146660709381,13.600376620048221L56.458700606346135,13.601773197104638L56.67316860485077,13.60470803294784L56.99487060260773,13.60952521178013L57.10210460186004,13.611245632791668L57.31657260036468,13.61482815654509L57.58465759849548,13.619604854882994L58.17444459438324,13.63128347751423L58.228061594009404,13.632437171604325L58.38891259288788,13.63593873436897L58.4961465921402,13.638347323785116L58.54976359176636,13.639581978863985L58.71061459064484,13.643326424594957L58.81784858989716,13.645896935988672L59.19316758728027,13.655288410686907L59.461252585411074,13.662412977699383L59.72933758354187,13.669861388666959L59.78295458316803,13.671399647453743L60.211890580177304,13.684110522691892L60.26550757980347,13.685770222961839L60.42635857868194,13.690789804266085L60.533592577934265,13.694210406041957L60.58720957756043,13.69595106730068L60.80167757606507,13.703014913571565L61.0161455745697,13.710281162314388L61.33784757232666,13.721575220248933L61.391464571952824,13.723518283979613L61.65954957008362,13.733375284363333L61.766783569335935,13.737403093555038L61.98125156784057,13.7456408741632L62.14210256671905,13.751955831287887L62.24933656597137,13.756226523445935L62.624655563354494,13.771609111313758L62.78550656223297,13.778409834371114L63.05359156036377,13.789987255766373L63.10720855998993,13.792355364688131L63.321676558494566,13.801929001611141L63.536144556999204,13.811705041006086L63.96508055400849,13.831904807706199L64.0723145532608,13.837086310987996L64.23316555213928,13.844959767146651L64.93018654727936,13.880481400973014L65.19827154541015,13.894730534997947L65.51997354316711,13.91227882931559L65.62720754241943,13.918249702237972L65.73444154167176,13.924261055654743L65.78805854129791,13.92727685248672L65.89529254055023,13.933369166892266L65.94890954017639,13.93642544421865L66.05614353942872,13.94259871961297L66.10976053905488,13.945715717680926L66.16337753868103,13.948832715748882L66.43146253681182,13.964620108560599L66.75316453456878,13.984010265372943L67.82550452709198,14.052118697182467L67.87912152671814,14.0556607404415L68.25444052410126,14.080839607951473L68.41529152297973,14.091830062178083L68.4689085226059,14.095534027414688L68.57614252185822,14.102941957887877L68.68337652111053,14.11043084934984L68.79061052036285,14.117960221306191L69.11231251811981,14.14085194088318L69.97018451213837,14.20428487559078L70.02380151176452,14.208373405524057L70.13103551101685,14.216550465390647L70.29188650989532,14.22895773692088L70.7208225069046,14.262576787510952L70.77443950653077,14.266847479669L71.25699250316619,14.30580995551844L71.47146050167083,14.323479691319243L71.52507750129699,14.327932545702026L71.63231150054932,14.336858494714816L71.68592850017548,14.341351829591986L71.90039649868011,14.35944661058389L72.06124749755858,14.37314925793456L72.16848149681091,14.382358570408062L72.49018349456786,14.410290111536483L72.81188549232483,14.43868717835039L72.9727364912033,14.45307799410567L73.07997049045564,14.462732592017453L73.29443848896025,14.48220370981857L73.5089064874649,14.501897470338829L73.56252348709106,14.506836090654302L74.25954448223115,14.572454972058885L74.36677848148345,14.582737017633704L74.68848047924043,14.613947478807631L74.8493314781189,14.629714631372165L74.95656547737121,14.64030028065488L75.17103347587584,14.661633501197901L75.22465047550202,14.666997166704434L75.54635247325898,14.699462523204431L75.6535864725113,14.71039225668947L76.08252246952057,14.754637437056665L76.61869246578216,14.811127966976542L76.72592646503449,14.822604187135823L76.8331604642868,14.834100647542307L77.36933046054841,14.89245328020407L77.74464945793152,14.934087468683181L77.90550045681,14.952121528933493L78.06635145568848,14.970297270914152L78.49528745269775,15.019298909372065L79.3531594467163,15.119852457434384L79.51401044559478,15.139080692269177L79.72847844409942,15.164907247689369L80.05018044185638,15.204031645516338L80.1574144411087,15.217187806192769L80.4254994392395,15.250280610355802L80.58635043811798,15.270318455078364L80.63996743774415,15.277017976899742L80.69358443737029,15.28371749872112L80.80081843662262,15.29719750335267L81.17613743400574,15.344741844012574L81.28337143325807,15.358444491363247L81.65869043064117,15.406818682158125L81.87315842914582,15.434750223286546L81.98039242839813,15.44879695483954L82.40932842540741,15.505510127478559L82.46294542503357,15.512654934738219L82.94549842166901,15.577585647738196L83.4816684179306,15.650956543818292L83.69613641643524,15.680689466947026L83.80337041568755,15.695626769376586L84.23230641269683,15.755902225521822L84.285923412323,15.763512558466969L84.39315741157533,15.778733224357241L84.60762541007995,15.809356718362519L85.0901784067154,15.879003408958827L85.7335824022293,15.97352536335719L85.94805040073395,16.005464473430113L86.05528439998626,16.021494749208173L86.21613539886475,16.04566160435842L86.32336939811707,16.061833561866827L86.4306033973694,16.078066240116826L86.96677339363099,16.159978520513L87.02039039325714,16.168236541368366L87.18124139213562,16.193111805170403L87.23485839176179,16.201410306520156L87.39570939064026,16.226447492299762L87.55656038951874,16.251585879315346L87.66379438877107,16.268425764981178L87.93187938690185,16.31070764137051L88.30719838428497,16.370477091335893L88.57528338241578,16.413568577612995L88.62890038204193,16.422211163165052L89.16507037830353,16.509487109067777L89.27230437755586,16.52709612412701L89.80847437381745,16.61595080931089L89.91570837306976,16.633863428078037L89.96932537269592,16.642850097832397L90.23741037082672,16.68794536858177L90.34464437007905,16.70608063006804L90.61272936820984,16.75164142650288L90.82719736671447,16.788336994666537L90.88081436634064,16.797526066892836L91.52421836185455,16.90898910819299L91.95315435886384,16.98432330825095L92.16762235736847,17.02231425223505L92.43570735549926,17.070081235614094L92.54294135475159,17.089289230201683L92.75740935325622,17.127846901107226L93.56166434764862,17.2742648493123L93.66889834690093,17.29401933057413L93.88336634540558,17.33364973458099L93.93698334503173,17.34360793620069L93.9906003446579,17.35356613782039L94.09783434391021,17.373502781306975L94.25868534278871,17.403539308143625L94.41953634166718,17.433677036216253L94.47315334129333,17.443756679319115L94.7948553390503,17.50445718065545L95.00932333755493,17.545180558010795L95.27740833568573,17.596388383412915L95.38464233493805,17.61697271480972L95.59911033344268,17.658262819086527L95.75996133232117,17.689372079024476L96.02804633045197,17.741490715550345L96.18889732933044,17.772923819443413L96.45698232746125,17.825548462149136L96.5105993270874,17.83611387118467L96.67145032596588,17.867870819032856L96.88591832447052,17.910415818635716L97.36847132110596,18.00688083676474L97.74379031848908,18.082640082013796L97.90464131736756,18.115307840985732L97.95825831699372,18.12621733422357L98.44081131362915,18.225009980779962L98.97698130989075,18.335987256147448L99.13783230876923,18.369545585995947L99.45953430652618,18.436986089648048L99.78123630428314,18.50487187873843L99.99570430278779,18.550412434926084L100.58549129867554,18.67665085667823L100.6391082983017,18.688208037826303L100.85357629680632,18.734558203901727L101.1752782945633,18.804468017711564L101.38974629306793,18.851324189966842L101.55059729194642,18.88660294082688L102.83740528297425,19.17296195813479L103.05187328147889,19.22139686967124L103.58804327774048,19.343384839512556L103.85612827587128,19.404874710489477L103.96336227512359,19.429547571819576L104.01697927474976,19.44191436285542L104.07059627437592,19.454281153891266L104.12421327400209,19.466668185174314L104.55314927101135,19.566189480629703L104.98208526802063,19.666540626220083L105.03570226764678,19.679150300222254L105.14293626689911,19.704369648226614L105.19655326652527,19.71701980272319L105.83995726203918,19.869671747064174L105.89357426166535,19.8824838235383L106.00080826091765,19.90812821673374L106.59059525680543,20.050073070308827L106.7514462556839,20.08905578640545L106.96591425418855,20.141214903425706L107.18038225269318,20.193556182670697L107.39485025119782,20.246120104634848L107.77016924858094,20.338577553819352L107.8237862482071,20.35183491573176L107.87740324783324,20.365112517891355L107.98463724708557,20.391687962457745L108.14548824596405,20.43166245066691L108.78889224147797,20.592653376852034L109.11059423923491,20.673837008349196L109.27144523811342,20.714600866198946L109.32506223773956,20.72820231231366L109.86123223400116,20.86502638334854L110.02208323287964,20.90631648762533L110.07570023250581,20.920100095964795L110.6118702287674,21.0586850685056L110.77272122764587,21.100501419209447L110.82633822727203,21.114446949526464L110.93357222652435,21.142418971149272L111.14804022502899,21.198504696125255L111.20165722465515,21.21255142767825L111.36250822353362,21.254792823573194L111.57697622203827,21.311263113245868L111.84506122016907,21.38216469916823L112.43484821605682,21.539208777150424L112.70293321418762,21.611081894938124L112.81016721343994,21.63992424719031L113.23910321044922,21.755799662378863L114.09697520446777,21.989918601677758L114.52591120147706,22.10818236603527L114.63314520072936,22.137874808669615L114.79399619960786,22.1825045537335L115.11569819736481,22.272087887816394L115.16931519699096,22.28706567074034L115.54463419437408,22.39223399516301L115.97357019138336,22.5131897123974L116.188038189888,22.573950934475306L116.40250618839264,22.63491455902517L116.61697418689728,22.69608058604697L116.77782518577575,22.74208666792009L116.88505918502807,22.77281136316135L117.20676118278503,22.86530929284026L117.31399518203735,22.896236390553472L117.36761218166352,22.911720179657273L117.68931417942048,23.004865797246403L117.74293117904662,23.02045078758618L118.11825017642974,23.12976836268372L118.22548417568207,23.161120505588013L118.38633517456054,23.20823980105682L118.49356917381287,23.239713385444293L118.54718617343902,23.255460297761623L118.60080317306519,23.271227450326137L118.97612217044829,23.381941602480094L119.19059016895294,23.44547573842367L119.2442071685791,23.46138457271855L119.35144116783141,23.493242721802698L119.61952616596221,23.573130977479437L120.04846216297149,23.70157558617579L120.10207916259766,23.717686822942607L120.31654716110229,23.782253211493096L120.42378116035461,23.81459712650993L120.85271715736388,23.944519273251476L120.90633415699006,23.960812672243048L121.4961211528778,24.14084967103821L122.0322911491394,24.305807685673468L122.13952514839173,24.33894097033087L122.51484414577484,24.45530215145211L122.568461145401,24.471980115140372L122.62207814502716,24.488678319075856L122.78292914390565,24.538793171129456L122.94378014278412,24.58902946466622L123.15824814128875,24.656186604857606L123.3727161397934,24.72352590727373L124.39143913269044,25.046094726812626L124.60590713119507,25.114547242824454L124.82037512969971,25.18320216130822L124.98122612857819,25.23483503190142L125.08846012783052,25.269304172873667L125.30292812633513,25.33838413654853L125.41016212558746,25.37301519949833L125.89271512222291,25.529391349323102L126.10718312072754,25.599220202144163L126.58973611736297,25.757013169272557L126.85782111549378,25.84507848481587L126.91143811511994,25.862748220616673L126.9650551147461,25.880397716170275L127.66207610988617,26.111136534187686L127.82292710876465,26.164671988017158L128.09101210689545,26.254154120864072L128.46633110427857,26.379906776683566L128.6807991027832,26.45202277743759L128.84165010166168,26.50624639967169L129.16335209941863,26.614997247847782L129.2169690990448,26.63317298982846L129.27058609867098,26.65134873180912L129.43143709754943,26.705956918739908L129.69952209568024,26.79722019333995L130.02122409343718,26.907124735606136L130.07484109306336,26.92548263981155L130.61101108932496,27.10972961002317L130.6646280889511,27.128229195958948L130.87909608745576,27.202308500690854L130.9327130870819,27.22084856712102L131.14718108558657,27.295170754819253L131.25441508483885,27.33239256940995L131.57611708259583,27.444361616889978L131.73696808147432,27.50050806260755L131.95143607997895,27.575538658957594L132.0050530796051,27.594321608354104L132.11228707885743,27.631927987641493L132.16590407848358,27.65075141753239L132.2731380777359,27.688438757808555L132.86292507362364,27.896528739215302L132.970159072876,27.9345196831994L133.39909506988525,28.08692874457406L133.45271206951142,28.10603553792567L133.6135630683899,28.163416638722094L135.49015805530547,28.84075651108634L135.9727110519409,29.01725146662245L136.02632805156708,29.03690474664832L136.4016470489502,29.174922992267682L136.61611504745485,29.25404211855102L136.99143404483794,29.392950935046926L137.04505104446412,29.412826857791938L137.688455039978,29.652410663833344L137.8493060388565,29.71258491874262L138.33185903549196,29.89367441039188L138.76079503250122,30.055454706217592L138.86802903175354,30.0959959213482L139.2969650287628,30.25868702829766L139.350582028389,30.27908919746973L139.4578160276413,30.31989353581385L139.61866702651977,30.381201244566018L139.94036902427675,30.50412026577827L139.9939860239029,30.5246438764335L140.20845402240755,30.60685976053761L140.2620710220337,30.627444091934414L140.47653902053833,30.70990285900485L140.5301560201645,30.730547911143244L140.74462401866913,30.81322932093282L140.9054750175476,30.87536687981996L141.38802801418305,31.062386763897216L141.54887901306154,31.12492912772825L142.08504900932311,31.334152562977888L142.62121900558472,31.544529692317617L143.15738900184633,31.756040275500236L143.53270799922942,31.904765611885477L144.12249499511717,32.13963344033057L144.4978139925003,32.289795834266634L144.87313298988343,32.440504714876944L144.98036698913572,32.48367716214284L145.30206898689272,32.61343738690683L145.409302986145,32.656791996397466L145.5701539850235,32.72188463137501L145.62377098464967,32.74362265686191L145.9454729824066,32.87419249151369L146.15994098091127,32.96146843741639L146.74972797679902,33.20240834001983L146.9105789756775,33.268351065379555L147.1786639738083,33.37849849061207L147.87568496894835,33.66615288374044L148.41185496520995,33.888714641891234L149.1624929599762,34.20217535019261L150.18121595287323,34.631086428491436L150.44930095100403,34.744613975005436L150.50291795063018,34.767343772604875L150.77100294876098,34.88121540332117L151.03908794689178,34.995350157251025L151.19993894577024,35.0639645952404L151.46802394390104,35.17854463460851L151.89695994091034,35.36244752061783L152.05781093978882,35.43158820503426L152.43312993717194,35.5933077801184L152.48674693679808,35.61646262290892L152.54036393642423,35.63961746569944L152.64759793567657,35.685967631774865L152.96929993343352,35.82528125321466L153.34461893081664,35.988296204119244L154.09525692558287,36.315945325703936L154.68504392147062,36.5748788080633L154.95312891960143,36.69302113093765L155.06036291885377,36.74034282887841L155.16759691810609,36.78772524756074L155.22121391773223,36.81142657702553L155.38206491661072,36.882591286161414L155.43568191623686,36.90633309612058L157.04419190502168,37.62372841768275L157.20504290390016,37.69600634041434L157.4195109024048,37.79251183903775L157.47312790203097,37.816678694188L157.74121290016174,37.937614171175184L157.7948298997879,37.96182150681982L158.4382338953018,38.25330130666795L158.8671698923111,38.44845777011741L158.9744038915634,38.497358207339346L159.02802089118956,38.52182866619751L159.24248888969422,38.61979146261893L159.6714248867035,38.816223061641615L160.10036088371277,39.01334282906896L160.3148288822174,39.11215571587253L160.52929688072206,39.211150764900886L160.79738187885283,39.335122278967255L160.90461587810515,39.38477160533539L161.06546687698363,39.459336675999964L161.17270087623595,39.509107443851256L161.22631787586212,39.5340029479005L161.33355187511444,39.58383443649338L161.60163687324524,39.70859532020034L161.81610487174987,39.80860238158839L161.86972187137604,39.833619327120815L161.9233388710022,39.858656512900424L162.03057287025453,39.90875112470684L162.13780686950685,39.95890645725483L162.40589186763765,40.08443647035516L162.51312586688994,40.13473348463351L162.94206186389923,40.33632634669084L164.38972085380553,41.02160039595531L164.4433378534317,41.047123347667586L164.55057185268402,41.09820973158652L165.03312484931948,41.32858422515443L165.08674184894562,41.354228618349865L165.40844384670257,41.50835810073607L165.46206084632874,41.53408345492028L165.62291184520723,41.61129999796732L165.67652884483337,41.637065832645945L165.83737984371186,41.71442405742336L166.21269884109498,41.89527066610629L166.31993284034726,41.947024978182654L166.58801783847807,42.0766232809691L167.23142183399202,42.38868741221404L167.28503883361816,42.414756850600554L167.71397483062745,42.62369692238948L167.7675918302536,42.64984732176477L168.08929382801057,42.80705332172454L168.1429108276367,42.8332846820886L168.3037618265152,42.912039483922456L168.35737882614137,42.938311324780905L168.41099582576751,42.964603405886585L168.571846824646,43.04352012969797L169.59056981754304,43.5454377796274L170.0195058145523,43.75787941418098L170.07312281417845,43.78447509899455L170.12673981380465,43.81109102405532L170.23397381305693,43.8643228741769L170.60929281044005,44.051018914299036L170.77014380931854,44.13117029318931L170.87737780857086,44.18466526652439L171.03822880744934,44.264978567392184L171.252696805954,44.37219115678152L171.7352498025894,44.6140216302615L171.94971780109404,44.72176046607786L172.05695180034638,44.775680484604045L172.271419798851,44.883662203386756L172.32503679847719,44.910682933391406L172.5395047969818,45.01884681439888L172.593121796608,45.045928265145115L172.64673879623413,45.07298947564418L172.91482379436493,45.2085384111058L173.18290879249574,45.344330229533774L173.23652579212188,45.37151288151599L173.45099379062654,45.48036493092807L173.71907878875734,45.61664251528868L173.7726957883835,45.64394660875409L173.82631278800963,45.67123046197229L173.98716378688812,45.75318322286285L174.0407807865143,45.780507556575444L174.46971678352358,45.999567751961614L174.52333378314972,46.02697304666298L174.57695078277587,46.05441882185873L174.84503578090667,46.19172865882628L174.89865278053284,46.21923515476362L175.11312077903747,46.32930161900736L175.27397177791596,46.41194254830253L175.43482277679442,46.49468467883367L175.54205677604676,46.5499000731803L175.64929077529908,46.605155948021306L175.81014177417757,46.688100481024414L176.18546077156068,46.88198180890061L176.82886476707458,47.21548036192453L176.93609876632692,47.27120176245103L177.63311976146696,47.634291556873315L177.68673676109313,47.662283818743326L178.2765237569809,47.97090710796518L178.8126937532425,48.25248942693519L178.9199277524948,48.308919236113475L179.02716175174712,48.36538952578617L179.1880127506256,48.450155681036776L179.3488637495041,48.53500279727615L179.50971474838255,48.61995111475151L179.7241827468872,48.73335721978234L179.77779974651335,48.76173404634904L180.04588474464416,48.903719380418515L180.1531187438965,48.96059447503508L180.26035274314881,49.017510050146036L180.31396974277496,49.04596783770154L180.5284377412796,49.159940669653814L181.22545873641968,49.53136944592024L181.332692735672,49.588649345480704L181.38630973529814,49.61730953550812L181.49354373455049,49.67465015581018L181.7616287326813,49.81817374866643L181.8688627319336,49.87563581045165L181.9760967311859,49.93315859297844L182.08333073043823,49.99070161575243L182.5122667274475,50.22125827154507L182.9412027244568,50.452442375000764L183.10205372333527,50.53927303546521L183.15567072296145,50.568236829200536L183.3165217218399,50.65518893114814L183.42375572109222,50.7132177198548L183.4773727207184,50.74224223433173L183.63822371959688,50.8293562582569L183.95992571735383,51.003847429320764L184.17439371585849,51.12037053241955L184.22801071548463,51.14951648837963L184.97864871025084,51.558612364675064L185.13949970912932,51.6465157582408L185.3003507080078,51.73450011279534L185.46120170688627,51.82256542833865L185.67566970539093,51.940100543797165L185.83652070426942,52.02836826181242L185.94375470352173,52.08724714090123L186.26545670127868,52.26412666113406L186.53354169940948,52.41175902417079L186.58715869903563,52.441330025321975L186.85524369716643,52.58924575181944L186.96247769641877,52.64846871511059L187.33779669380186,52.856072930584666L187.49864769268038,52.94517049873489L187.60588169193267,53.004616104745146L187.65949869155884,53.03436926812109L187.82034969043733,53.12362875824888L187.9275836896896,53.1831958057423L188.24928568744662,53.362079110447375L188.73183868408202,53.63101127492082L188.99992368221282,53.78074862366579L189.26800868034363,53.93068837488271L189.53609367847443,54.08087100906598L190.2331146736145,54.47237811054936L190.28673167324067,54.50255631911637L190.3403486728668,54.53273452768339L190.87651866912842,54.83510358052216L191.25183766651153,55.0472820918622L191.41268866539,55.13834296399028L191.6807736635208,55.29028649967945L192.16332666015626,55.564359686940314L192.2169436597824,55.59486173946243L192.53864565753935,55.77801573632555L192.86034765529632,55.96149357714377L193.0211986541748,56.05334381891244L193.23566665267944,56.17593899616959L193.28928365230558,56.20662321091646L193.34290065193176,56.23728718541615L193.4501346511841,56.29867585515709L193.66460264968873,56.421554395874956L193.8254536485672,56.513809442587515L193.87907064819333,56.54457461832318L194.093538646698,56.667716282254574L194.14715564632414,56.6985219384846L194.20077264595034,56.72934783496184L194.46885764408114,56.883578518583995L194.57609164333343,56.94531127252726L195.11226163959503,57.25458224965934L195.48758063697815,57.471577939831676L195.75566563510893,57.62684087606077L195.86289963436127,57.68899867519509L196.02375063323973,57.78230621476179L196.66715462875368,58.15628526217473L196.82800562763214,58.249977366438095L196.98885662651062,58.34375043169026L197.25694162464143,58.50018730225663L197.73949462127686,58.78233634814808L197.90034562015532,58.87653445859132L198.00757961940766,58.93936018588307L198.38289861679078,59.15957407535934L198.5973666152954,59.28558985439234L198.65098361492156,59.3171039192742L199.07991961193085,59.5696212432729L199.29438761043548,59.69606206749698L199.34800461006165,59.72769757386201L199.5088556089401,59.82264457345145L199.61608960819245,59.88599654717025L199.99140860557557,60.10795109790524L200.2058766040802,60.23495864905079L200.42034460258486,60.362107881926704L200.63481260108946,60.48937855628576L200.7420466003418,60.553074614206885L201.06374859809875,60.744344950194986L201.814386592865,61.19177585467681L201.9216205921173,61.25581599680022L202.0824715909958,61.35195717097415L202.24332258987425,61.44815906588964L202.40417358875274,61.54444192179393L202.4577905883789,61.576563194091605L202.7258755865097,61.73723027632163L203.15481158351898,61.99472670113017L203.47651358127595,62.188182983815295L203.63736458015444,62.28503256664101L203.69098157978058,62.31733600116343L204.11991757678985,62.57598612006206L204.54885357379914,62.83516248538775L205.2458745689392,63.2573942821124L205.62119356632232,63.485319705769776L205.9428955640793,63.68098217539909L206.21098056221007,63.8442602495172L206.63991655921936,64.10590592500061L206.80076755809785,64.20415208488275L207.22970355510714,64.46648592877078L207.28332055473328,64.49931560972028L207.33693755435942,64.53214529066977L207.55140555286408,64.66356521570371L207.60502255249023,64.69643537714761L207.65863955211637,64.72932577883869L207.7658735513687,64.79510658222084L207.92672455024717,64.89383850803564L208.03395854949952,64.9597002724066L208.30204354763032,65.12449636506427L208.35566054725646,65.15748796799132L208.51651154613495,65.25648301701966L208.78459654426575,65.42162319387965L208.83821354389192,65.4546755175483L208.99906454277038,65.55387296904858L209.2671495409012,65.71935723011089L209.3743835401535,65.78560355917853L209.53523453903196,65.88504389364513L209.58885153865816,65.91819741854974L209.6424685382843,65.95137118370155L209.80331953716276,66.05091271940414L210.12502153491974,66.25021843352847L210.33948953342437,66.38323733809078L210.553957531929,66.51637768413626L210.92927652931215,66.74964653305297L210.9828935289383,66.78300246042953L211.0901275281906,66.84975479567701L211.2509785270691,66.94990353879544L212.0552335214615,67.4517199874889L212.10885052108765,67.48523783684301L212.3233185195923,67.61936995500102L212.4305525188446,67.68648661469801L212.8058715162277,67.92161756635662L212.91310551548005,67.98885566753678L213.02033951473234,68.05613424921134L213.18119051361086,68.15709260221753L213.44927551174163,68.32553193937022L213.5028925113678,68.3592319509491L213.55650951099395,68.39295220277515L213.6101265106201,68.42667245460119L213.6637435102463,68.46039270642724L213.71736050987244,68.4941331985005L213.9318285083771,68.62915588753506L214.03906250762938,68.69671783267033L214.1462965068817,68.7643000180528L214.30714750576018,68.86572389674447L214.46799850463867,68.96722873642496L214.52161550426484,69.00107042973416L214.6824665031433,69.10265623040341L215.27225349903108,69.4757042264454L215.54033849716188,69.64556038090173L215.59395549678803,69.6795437559413L215.91565749454497,69.88366664889791L216.39821049118044,70.19030639389473L216.45182749080658,70.22441121041747L216.71991248893738,70.39505673451438L216.88076348781587,70.49753310606017L217.20246548557282,70.70268825162371L217.41693348407748,70.8395730434002L217.63140148258208,70.976599516907L217.73863548183442,71.04515323415481L218.06033747959137,71.25097630787579L218.22118847846983,71.35397892584864L218.4356564769745,71.49143044454652L218.54289047622683,71.56018656426629L218.59650747585297,71.59457474424974L218.8109754743576,71.73220842517242L219.02544347286224,71.86996354757825L219.18629447174072,71.97335073024779L219.23991147136687,72.00781987122004L219.40076247024535,72.11130825512556L219.88331546688082,72.42207701055005L220.31225146389008,72.69882191044057L220.58033646202088,72.87199746543679L220.63395346164702,72.90664876863379L220.6875704612732,72.9413000718308L220.74118746089937,72.97597161527497L220.90203845977783,73.08002672610196L221.11650645828246,73.2188545816091L221.4918254556656,73.46208163214551L222.77863344669342,74.29850984745859L222.9394844455719,74.40333408767894L223.04671844482422,74.47324390148877L223.15395244407654,74.543194195793L223.314803442955,74.64816011774374L223.42203744220734,74.71817113278954L223.52927144145966,74.78820238808252L223.636505440712,74.85827412386992L223.69012244033814,74.89330999176362L223.7437394399643,74.92836609990451L224.70884543323515,75.56038805880024L225.1913984298706,75.8771884078887L225.24501542949676,75.91242667825432L225.62033442687988,76.15925649279137L225.83480242538454,76.30043221697308L225.88841942501068,76.33575144832749L226.15650442314148,76.51240832584116L226.21012142276763,76.54776803768998L226.37097242164612,76.65386741348358L226.79990841865538,76.93704871198196L226.9607594175339,77.04337073049473L227.01437641716004,77.0788114033323L227.49692941379547,77.39814178332007L227.65778041267393,77.50468644455195L227.71139741230013,77.54022831862552L227.81863141155242,77.61131206677264L227.8722484111786,77.64685394084619L228.03309941005708,77.75354028380846L228.08671640968322,77.78912263837638L228.1403334093094,77.82470499294435L228.5156524066925,78.07396363714471L228.62288640594483,78.14522954751659L228.73012040519714,78.21653593838285L229.37352440071106,78.64483980926583L229.53437539958952,78.75207263890235L229.58799239921572,78.78781691544785L229.64160939884187,78.82358143224054L229.695226398468,78.85934594903325L229.90969439697267,79.00246473694561L230.07054539585113,79.10987972880687L230.8748003902435,79.64774405775375L230.9284173898697,79.6836502562768L230.98203438949585,79.71955645479986L231.3037363872528,79.93517580816298L231.4109703865051,80.00708940644508L231.62543838500977,80.15099756399802L231.8399063835144,80.29500692278694L231.89352338314058,80.33101432254598L232.16160838127135,80.51119300307151L232.69777837753296,80.87201588980801L233.1803313741684,81.19723618172938L233.2875653734207,81.26959506544975L233.34118237304685,81.30576438718633L233.39479937267305,81.34195394917012L233.5556503715515,81.45054287536867L233.66288437080385,81.52296247983061L233.8237353696823,81.63165260726512L234.30628836631774,81.95800635302939L234.46713936519623,82.06689888293585L234.6279903640747,82.1758521335839L235.1641603603363,82.53938721344447L235.80756435585025,82.97641463086829L236.07564935398102,83.15873877759644L236.397351351738,83.37773825224102L236.45096835136414,83.41425165817991L236.55820235061645,83.48731895055208L236.77267034912109,83.63349401579083L237.09437234687803,83.8529185356265L237.25522334575652,83.96272187665673L237.36245734500883,84.03595109100645L237.46969134426118,84.10920054560337L237.63054234313964,84.21910508786955L237.73777634239198,84.29241526320808L237.79139334201813,84.32907035087733L237.89862734127044,84.40242100671023L238.05947834014893,84.51246723070678L238.81011633491516,85.02671119117765L238.86373333454134,85.06346748008288L239.0245843334198,85.17383754803453L239.4535203304291,85.46833314471465L239.50713733005523,85.50519063485585L239.98969032669066,85.83698900711543L240.04330732631684,85.87386673750383L240.31139232444764,86.05843755167055L240.36500932407378,86.09535576255334L240.41862632369995,86.13229421368332L240.5794773225784,86.24310956707326L240.63309432220458,86.28006825845043L240.9011793203354,86.46492243607788L241.16926431846616,86.6498980551885L241.33011531734468,86.76095629154476L241.75905131435397,87.05735447146115L241.97351931285857,87.2056750029025L242.08075331211091,87.27985550887038L242.56330630874635,87.61398150955735L242.83139130687715,87.79980721905011L243.1530933046341,88.02295594436958L243.20671030426027,88.0601575187131L243.4211783027649,88.2090447770759L243.47479530239104,88.24628683191379L243.85011429977416,88.50707229689145L244.2254332971573,88.76812088508262L244.54713529491426,88.99207922028987L244.70798629379271,89.10412922875867L244.81522029304506,89.17885622140079L244.8688372926712,89.21621971772186L245.24415629005432,89.47794635419406L245.5658582878113,89.70249165656995L245.6730922870636,89.77737045106602L245.72670928668975,89.81482502849946L245.8339432859421,89.88974430348992L246.0484112844467,90.03963345408887L246.26287928295136,90.18960356567658L246.53096428108213,90.37718005655168L246.69181527996065,90.48978667181835L247.17436827659608,90.82787976095541L247.2816022758484,90.90306215915942L247.49607027435303,91.05348767630902L247.60330427360535,91.1287307952546L247.81777227210998,91.27927775388736L247.97862327098846,91.3922385734799L248.30032526874544,91.6182917742718L248.4611762676239,91.7313841554711L248.94372926425933,92.070914302159L249.158197262764,92.22194702672442L249.53351626014708,92.48643645693865L249.69436725902557,92.59985268209309L250.0696862564087,92.86466595626243L250.12330325603486,92.90251521851619L250.28415425491332,93.01609336564815L250.39138825416566,93.09183237065002L250.82032425117492,93.39499079312935L250.87394125080107,93.43290077612468L251.03479224967955,93.54667120560502L251.35649424743653,93.77434362617245L251.62457924556733,93.96419714485695L252.4288342399597,94.53443574919145L252.48245123958586,94.57248741391712L252.91138723659515,94.8770626537001L253.17947223472595,95.06757398041842L253.5011742324829,95.29632925421073L253.6084082317352,95.37261474588685L253.6620252313614,95.4107676118485L253.98372722911836,95.63976576860718L254.51989722537996,96.02178019415634L254.68074822425842,96.13646143476042L254.78798222351074,96.21294932890848L254.8415992231369,96.25119327598247L254.89521622276305,96.28943722305652L255.1096842212677,96.44249397234138L255.6458542175293,96.8254090888907L255.69947121715546,96.86372387682991L255.80670521640778,96.94037369295552L256.3428752126694,97.32384541630269L256.3964922122955,97.36221080485987L256.557343211174,97.47734745102582L256.9862792081833,97.78456404306769L257.3079812059402,98.01515105923113L257.3615982055664,98.0535974087771" fill="none"></path></g></g></g></g></g></g><g transform="translate(61, 176)" clip-path="url(#clip_1)"><clipPath id="clip_1"><rect width="268" height="23"></rect></clipPath><g><g><line x1="0" y1="0" x2="0" y2="5" style="visibility: inherit;" fill="rgb(0, 0, 0)" stroke="rgb(204, 204, 204)" stroke-width="1px"></line><line x1="26.808499813079834" y1="0" x2="26.808499813079834" y2="5" style="visibility: inherit;" fill="rgb(0, 0, 0)" stroke="rgb(204, 204, 204)" stroke-width="1px"></line><line x1="53.61699962615967" y1="0" x2="53.61699962615967" y2="5" style="visibility: inherit;" fill="rgb(0, 0, 0)" stroke="rgb(204, 204, 204)" stroke-width="1px"></line><line x1="80.4254994392395" y1="0" x2="80.4254994392395" y2="5" style="visibility: inherit;" fill="rgb(0, 0, 0)" stroke="rgb(204, 204, 204)" stroke-width="1px"></line><line x1="107.23399925231934" y1="0" x2="107.23399925231934" y2="5" style="visibility: inherit;" fill="rgb(0, 0, 0)" stroke="rgb(204, 204, 204)" stroke-width="1px"></line><line x1="134.04249906539917" y1="0" x2="134.04249906539917" y2="5" style="visibility: inherit;" fill="rgb(0, 0, 0)" stroke="rgb(204, 204, 204)" stroke-width="1px"></line><line x1="160.850998878479" y1="0" x2="160.850998878479" y2="5" style="visibility: inherit;" fill="rgb(0, 0, 0)" stroke="rgb(204, 204, 204)" stroke-width="1px"></line><line x1="187.65949869155884" y1="0" x2="187.65949869155884" y2="5" style="visibility: inherit;" fill="rgb(0, 0, 0)" stroke="rgb(204, 204, 204)" stroke-width="1px"></line><line x1="214.46799850463867" y1="0" x2="214.46799850463867" y2="5" style="visibility: inherit;" fill="rgb(0, 0, 0)" stroke="rgb(204, 204, 204)" stroke-width="1px"></line><line x1="241.2764983177185" y1="0" x2="241.2764983177185" y2="5" style="visibility: inherit;" fill="rgb(0, 0, 0)" stroke="rgb(204, 204, 204)" stroke-width="1px"></line><line x1="268.08499813079834" y1="0" x2="268.08499813079834" y2="5" style="visibility: inherit;" fill="rgb(0, 0, 0)" stroke="rgb(204, 204, 204)" stroke-width="1px"></line></g><g transform="translate(0, 8)"><text style="text-anchor: middle; visibility: hidden; font-family: Roboto, sans-serif; font-size: 12px; font-weight: 200;" x="0" y="0" dx="0em" dy="0.95em" fill="rgb(33, 33, 33)" stroke="none" stroke-width="1px">-500</text><text style="text-anchor: middle; visibility: inherit; font-family: Roboto, sans-serif; font-size: 12px; font-weight: 200;" x="26.808499813079834" y="0" dx="0em" dy="0.95em" fill="rgb(33, 33, 33)" stroke="none" stroke-width="1px">0</text><text style="text-anchor: middle; visibility: inherit; font-family: Roboto, sans-serif; font-size: 12px; font-weight: 200;" x="53.61699962615967" y="0" dx="0em" dy="0.95em" fill="rgb(33, 33, 33)" stroke="none" stroke-width="1px">500</text><text style="text-anchor: middle; visibility: inherit; font-family: Roboto, sans-serif; font-size: 12px; font-weight: 200;" x="80.4254994392395" y="0" dx="0em" dy="0.95em" fill="rgb(33, 33, 33)" stroke="none" stroke-width="1px">1k</text><text style="text-anchor: middle; visibility: inherit; font-family: Roboto, sans-serif; font-size: 12px; font-weight: 200;" x="107.23399925231934" y="0" dx="0em" dy="0.95em" fill="rgb(33, 33, 33)" stroke="none" stroke-width="1px">1.5k</text><text style="text-anchor: middle; visibility: inherit; font-family: Roboto, sans-serif; font-size: 12px; font-weight: 200;" x="134.04249906539917" y="0" dx="0em" dy="0.95em" fill="rgb(33, 33, 33)" stroke="none" stroke-width="1px">2k</text><text style="text-anchor: middle; visibility: inherit; font-family: Roboto, sans-serif; font-size: 12px; font-weight: 200;" x="160.850998878479" y="0" dx="0em" dy="0.95em" fill="rgb(33, 33, 33)" stroke="none" stroke-width="1px">2.5k</text><text style="text-anchor: middle; visibility: inherit; font-family: Roboto, sans-serif; font-size: 12px; font-weight: 200;" x="187.65949869155884" y="0" dx="0em" dy="0.95em" fill="rgb(33, 33, 33)" stroke="none" stroke-width="1px">3k</text><text style="text-anchor: middle; visibility: inherit; font-family: Roboto, sans-serif; font-size: 12px; font-weight: 200;" x="214.46799850463867" y="0" dx="0em" dy="0.95em" fill="rgb(33, 33, 33)" stroke="none" stroke-width="1px">3.5k</text><text style="text-anchor: middle; visibility: inherit; font-family: Roboto, sans-serif; font-size: 12px; font-weight: 200;" x="241.2764983177185" y="0" dx="0em" dy="0.95em" fill="rgb(33, 33, 33)" stroke="none" stroke-width="1px">4k</text><text style="text-anchor: middle; visibility: hidden; font-family: Roboto, sans-serif; font-size: 12px; font-weight: 200;" x="268.08499813079834" y="0" dx="0em" dy="0.95em" fill="rgb(33, 33, 33)" stroke="none" stroke-width="1px">4.5k</text></g><line x1="0" y1="0" x2="268.08499813079834" y2="0" fill="rgb(0, 0, 0)" stroke="rgb(204, 204, 204)" stroke-width="1px"></line></g></g></g></g></svg>