<svg viewBox="0 0 330 200" xmlns="http://www.w3.org/2000/svg"><g><g><g><g><g><line x1="41.149001121520996" y1="176.5999994277954" x2="36.149001121520996" y2="176.5999994277954" style="visibility: inherit;" fill="rgb(0, 0, 0)" stroke="rgb(204, 204, 204)" stroke-width="1px"></line><line x1="41.149001121520996" y1="163.98571375438144" x2="36.149001121520996" y2="163.98571375438144" style="visibility: inherit;" fill="rgb(0, 0, 0)" stroke="rgb(204, 204, 204)" stroke-width="1px"></line><line x1="41.149001121520996" y1="151.37142808096752" x2="36.149001121520996" y2="151.37142808096752" style="visibility: inherit;" fill="rgb(0, 0, 0)" stroke="rgb(204, 204, 204)" stroke-width="1px"></line><line x1="41.149001121520996" y1="138.75714240755354" x2="36.149001121520996" y2="138.75714240755354" style="visibility: inherit;" fill="rgb(0, 0, 0)" stroke="rgb(204, 204, 204)" stroke-width="1px"></line><line x1="41.149001121520996" y1="126.1428567341396" x2="36.149001121520996" y2="126.1428567341396" style="visibility: inherit;" fill="rgb(0, 0, 0)" stroke="rgb(204, 204, 204)" stroke-width="1px"></line><line x1="41.149001121520996" y1="113.52857106072561" x2="36.149001121520996" y2="113.52857106072561" style="visibility: inherit;" fill="rgb(0, 0, 0)" stroke="rgb(204, 204, 204)" stroke-width="1px"></line><line x1="41.149001121520996" y1="100.91428538731165" x2="36.149001121520996" y2="100.91428538731165" style="visibility: inherit;" fill="rgb(0, 0, 0)" stroke="rgb(204, 204, 204)" stroke-width="1px"></line><line x1="41.149001121520996" y1="88.2999997138977" x2="36.149001121520996" y2="88.2999997138977" style="visibility: inherit;" fill="rgb(0, 0, 0)" stroke="rgb(204, 204, 204)" stroke-width="1px"></line><line x1="41.149001121520996" y1="75.68571404048373" x2="36.149001121520996" y2="75.68571404048373" style="visibility: inherit;" fill="rgb(0, 0, 0)" stroke="rgb(204, 204, 204)" stroke-width="1px"></line><line x1="41.149001121520996" y1="63.0714283670698" x2="36.149001121520996" y2="63.0714283670698" style="visibility: inherit;" fill="rgb(0, 0, 0)" stroke="rgb(204, 204, 204)" stroke-width="1px"></line><line x1="41.149001121520996" y1="50.457142693655825" x2="36.149001121520996" y2="50.457142693655825" style="visibility: inherit;" fill="rgb(0, 0, 0)" stroke="rgb(204, 204, 204)" stroke-width="1px"></line><line x1="41.149001121520996" y1="37.84285702024186" x2="36.149001121520996" y2="37.84285702024186" style="visibility: inherit;" fill="rgb(0, 0, 0)" stroke="rgb(204, 204, 204)" stroke-width="1px"></line><line x1="41.149001121520996" y1="25.228571346827884" x2="36.149001121520996" y2="25.228571346827884" style="visibility: inherit;" fill="rgb(0, 0, 0)" stroke="rgb(204, 204, 204)" stroke-width="1px"></line><line x1="41.149001121520996" y1="12.614285673413972" x2="36.149001121520996" y2="12.614285673413972" style="visibility: inherit;" fill="rgb(0, 0, 0)" stroke="rgb(204, 204, 204)" stroke-width="1px"></line><line x1="41.149001121520996" y1="0" x2="36.149001121520996" y2="0" style="visibility: inherit;" fill="rgb(0, 0, 0)" stroke="rgb(204, 204, 204)" stroke-width="1px"></line></g><g transform="translate(31.149001121520996, 0)"><text style="text-anchor: end; visibility: hidden; font-family: Roboto, sans-serif; font-size: 12px; font-weight: 200;" x="0" y="176.5999994277954" dx="0em" dy="0.3em" fill="rgb(33, 33, 33)" stroke="none" stroke-width="1px">2</text><text style="text-anchor: end; visibility: inherit; font-family: Roboto, sans-serif; font-size: 12px; font-weight: 200;" x="0" y="163.98571375438144" dx="0em" dy="0.3em" fill="rgb(33, 33, 33)" stroke="none" stroke-width="1px">2.2</text><text style="text-anchor: end; visibility: hidden; font-family: Roboto, sans-serif; font-size: 12px; font-weight: 200;" x="0" y="151.37142808096752" dx="0em" dy="0.3em" fill="rgb(33, 33, 33)" stroke="none" stroke-width="1px">2.4</text><text style="text-anchor: end; visibility: inherit; font-family: Roboto, sans-serif; font-size: 12px; font-weight: 200;" x="0" y="138.75714240755354" dx="0em" dy="0.3em" fill="rgb(33, 33, 33)" stroke="none" stroke-width="1px">2.6</text><text style="text-anchor: end; visibility: hidden; font-family: Roboto, sans-serif; font-size: 12px; font-weight: 200;" x="0" y="126.1428567341396" dx="0em" dy="0.3em" fill="rgb(33, 33, 33)" stroke="none" stroke-width="1px">2.8</text><text style="text-anchor: end; visibility: inherit; font-family: Roboto, sans-serif; font-size: 12px; font-weight: 200;" x="0" y="113.52857106072561" dx="0em" dy="0.3em" fill="rgb(33, 33, 33)" stroke="none" stroke-width="1px">3</text><text style="text-anchor: end; visibility: hidden; font-family: Roboto, sans-serif; font-size: 12px; font-weight: 200;" x="0" y="100.91428538731165" dx="0em" dy="0.3em" fill="rgb(33, 33, 33)" stroke="none" stroke-width="1px">3.2</text><text style="text-anchor: end; visibility: inherit; font-family: Roboto, sans-serif; font-size: 12px; font-weight: 200;" x="0" y="88.2999997138977" dx="0em" dy="0.3em" fill="rgb(33, 33, 33)" stroke="none" stroke-width="1px">3.4</text><text style="text-anchor: end; visibility: hidden; font-family: Roboto, sans-serif; font-size: 12px; font-weight: 200;" x="0" y="75.68571404048373" dx="0em" dy="0.3em" fill="rgb(33, 33, 33)" stroke="none" stroke-width="1px">3.6</text><text style="text-anchor: end; visibility: inherit; font-family: Roboto, sans-serif; font-size: 12px; font-weight: 200;" x="0" y="63.0714283670698" dx="0em" dy="0.3em" fill="rgb(33, 33, 33)" stroke="none" stroke-width="1px">3.8</text><text style="text-anchor: end; visibility: hidden; font-family: Roboto, sans-serif; font-size: 12px; font-weight: 200;" x="0" y="50.457142693655825" dx="0em" dy="0.3em" fill="rgb(33, 33, 33)" stroke="none" stroke-width="1px">4</text><text style="text-anchor: end; visibility: inherit; font-family: Roboto, sans-serif; font-size: 12px; font-weight: 200;" x="0" y="37.84285702024186" dx="0em" dy="0.3em" fill="rgb(33, 33, 33)" stroke="none" stroke-width="1px">4.2</text><text style="text-anchor: end; visibility: hidden; font-family: Roboto, sans-serif; font-size: 12px; font-weight: 200;" x="0" y="25.228571346827884" dx="0em" dy="0.3em" fill="rgb(33, 33, 33)" stroke="none" stroke-width="1px">4.4</text><text style="text-anchor: end; visibility: inherit; font-family: Roboto, sans-serif; font-size: 12px; font-weight: 200;" x="0" y="12.614285673413972" dx="0em" dy="0.3em" fill="rgb(33, 33, 33)" stroke="none" stroke-width="1px">4.6</text><text style="text-anchor: end; visibility: hidden; font-family: Roboto, sans-serif; font-size: 12px; font-weight: 200;" x="0" y="0" dx="0em" dy="0.3em" fill="rgb(33, 33, 33)" stroke="none" stroke-width="1px">4.8</text></g><line x1="41.149001121520996" y1="0" x2="41.149001121520996" y2="176.5999994277954" fill="rgb(0, 0, 0)" stroke="rgb(204, 204, 204)" stroke-width="1px"></line></g></g><g transform="translate(41, 0)" clip-path="url(#clip_0)"><clipPath id="clip_0"><rect width="288" height="176"></rect></clipPath><g><g><g><line x1="0" y1="0" x2="0" y2="176.5999994277954" fill="rgb(0, 0, 0)" stroke="rgb(66, 66, 66)" stroke-width="1px" opacity="0.25"></line><line x1="24.07091657320658" y1="0" x2="24.07091657320658" y2="176.5999994277954" fill="rgb(0, 0, 0)" stroke="rgb(66, 66, 66)" stroke-width="1px" opacity="0.25"></line><line x1="48.14183314641316" y1="0" x2="48.14183314641316" y2="176.5999994277954" fill="rgb(0, 0, 0)" stroke="rgb(66, 66, 66)" stroke-width="1px" opacity="0.25"></line><line x1="72.21274971961975" y1="0" x2="72.21274971961975" y2="176.5999994277954" fill="rgb(0, 0, 0)" stroke="rgb(66, 66, 66)" stroke-width="1px" opacity="0.25"></line><line x1="96.28366629282633" y1="0" x2="96.28366629282633" y2="176.5999994277954" fill="rgb(0, 0, 0)" stroke="rgb(66, 66, 66)" stroke-width="1px" opacity="0.25"></line><line x1="120.35458286603293" y1="0" x2="120.35458286603293" y2="176.5999994277954" fill="rgb(0, 0, 0)" stroke="rgb(66, 66, 66)" stroke-width="1px" opacity="0.25"></line><line x1="144.4254994392395" y1="0" x2="144.4254994392395" y2="176.5999994277954" fill="rgb(0, 0, 0)" stroke="rgb(66, 66, 66)" stroke-width="1px" opacity="0.25"></line><line x1="168.4964160124461" y1="0" x2="168.4964160124461" y2="176.5999994277954" fill="rgb(0, 0, 0)" stroke="rgb(66, 66, 66)" stroke-width="1px" opacity="0.25"></line><line x1="192.56733258565265" y1="0" x2="192.56733258565265" y2="176.5999994277954" fill="rgb(0, 0, 0)" stroke="rgb(66, 66, 66)" stroke-width="1px" opacity="0.25"></line><line x1="216.63824915885925" y1="0" x2="216.63824915885925" y2="176.5999994277954" fill="rgb(0, 0, 0)" stroke="rgb(66, 66, 66)" stroke-width="1px" opacity="0.25"></line><line x1="240.70916573206586" y1="0" x2="240.70916573206586" y2="176.5999994277954" fill="rgb(0, 0, 0)" stroke="rgb(66, 66, 66)" stroke-width="1px" opacity="0.25"></line><line x1="264.7800823052724" y1="0" x2="264.7800823052724" y2="176.5999994277954" fill="rgb(0, 0, 0)" stroke="rgb(66, 66, 66)" stroke-width="1px" opacity="0.25"></line><line x1="288.850998878479" y1="0" x2="288.850998878479" y2="176.5999994277954" fill="rgb(0, 0, 0)" stroke="rgb(66, 66, 66)" stroke-width="1px" opacity="0.25"></line></g><g><line x1="0" y1="176.5999994277954" x2="288.850998878479" y2="176.5999994277954" fill="rgb(0, 0, 0)" stroke="rgb(66, 66, 66)" stroke-width="1px" opacity="0.25"></line><line x1="0" y1="163.98571375438144" x2="288.850998878479" y2="163.98571375438144" fill="rgb(0, 0, 0)" stroke="rgb(66, 66, 66)" stroke-width="1px" opacity="0.25"></line><line x1="0" y1="151.37142808096752" x2="288.850998878479" y2="151.37142808096752" fill="rgb(0, 0, 0)" stroke="rgb(66, 66, 66)" stroke-width="1px" opacity="0.25"></line><line x1="0" y1="138.75714240755354" x2="288.850998878479" y2="138.75714240755354" fill="rgb(0, 0, 0)" stroke="rgb(66, 66, 66)" stroke-width="1px" opacity="0.25"></line><line x1="0" y1="126.1428567341396" x2="288.850998878479" y2="126.1428567341396" fill="rgb(0, 0, 0)" stroke="rgb(66, 66, 66)" stroke-width="1px" opacity="0.25"></line><line x1="0" y1="113.52857106072561" x2="288.850998878479" y2="113.52857106072561" fill="rgb(0, 0, 0)" stroke="rgb(66, 66, 66)" stroke-width="1px" opacity="0.25"></line><line x1="0" y1="100.91428538731165" x2="288.850998878479" y2="100.91428538731165" fill="rgb(0, 0, 0)" stroke="rgb(66, 66, 66)" stroke-width="1px" opacity="0.25"></line><line x1="0" y1="88.2999997138977" x2="288.850998878479" y2="88.2999997138977" fill="rgb(0, 0, 0)" stroke="rgb(66, 66, 66)" stroke-width="1px" opacity="0.25"></line><line x1="0" y1="75.68571404048373" x2="288.850998878479" y2="75.68571404048373" fill="rgb(0, 0, 0)" stroke="rgb(66, 66, 66)" stroke-width="1px" opacity="0.25"></line><line x1="0" y1="63.0714283670698" x2="288.850998878479" y2="63.0714283670698" fill="rgb(0, 0, 0)" stroke="rgb(66, 66, 66)" stroke-width="1px" opacity="0.25"></line><line x1="0" y1="50.457142693655825" x2="288.850998878479" y2="50.457142693655825" fill="rgb(0, 0, 0)" stroke="rgb(66, 66, 66)" stroke-width="1px" opacity="0.25"></line><line x1="0" y1="37.84285702024186" x2="288.850998878479" y2="37.84285702024186" fill="rgb(0, 0, 0)" stroke="rgb(66, 66, 66)" stroke-width="1px" opacity="0.25"></line><line x1="0" y1="25.228571346827884" x2="288.850998878479" y2="25.228571346827884" fill="rgb(0, 0, 0)" stroke="rgb(66, 66, 66)" stroke-width="1px" opacity="0.25"></line><line x1="0" y1="12.614285673413972" x2="288.850998878479" y2="12.614285673413972" fill="rgb(0, 0, 0)" stroke="rgb(66, 66, 66)" stroke-width="1px" opacity="0.25"></line><line x1="0" y1="0" x2="288.850998878479" y2="0" fill="rgb(0, 0, 0)" stroke="rgb(66, 66, 66)" stroke-width="1px" opacity="0.25"></line></g></g></g><g><g><line x1="0" y1="302.74285616193504" x2="288.850998878479" y2="302.74285616193504" fill="rgb(0, 0, 0)" stroke="rgb(153, 153, 153)" stroke-width="1.5px"></line></g></g><g><g><line x1="24.07091657320658" y1="0" x2="24.07091657320658" y2="176.5999994277954" fill="rgb(0, 0, 0)" stroke="rgb(153, 153, 153)" stroke-width="1.5px"></line></g></g><g><g><g><g><g><path style="fill: none;" stroke="rgb(255, 112, 67)" stroke-width="2px" d="M33.69928320248922,-8.68936903304028L36.106374859809875,5.852444187503006L38.51346651713053,19.242255370630883L40.920558174451195,30.977075816450192L43.32764983177185,43.69519508168653L45.73474148909251,53.611099868445784L48.14183314641316,64.45850812464182L50.548924803733826,69.48022716538632L52.95601646105448,76.4272838869912L55.363108118375145,80.48409720900945L57.7701997756958,83.0846958802305L60.177291433016464,79.5524653030623L62.58438309033712,85.92525821729642L64.99147474765778,94.53509811614151L67.39856640497844,96.04436894508703L69.80565806229909,96.01857834294721L72.21274971961975,89.24612908649294L74.61984137694041,96.1790524801055L77.02693303426106,98.73156213412418L79.43402469158173,96.29653092020317L81.84111634890239,103.03614705786009L84.24820800622305,106.51129128121383L86.6552996635437,109.4614645179866L89.06239132086436,104.42354174989224L91.46948297818501,109.09203220094498L93.87657463550568,108.7195474933374L96.28366629282633,112.24119395074679L98.69075795014699,118.69491995659358L101.09784960746765,117.0503658628256L103.50494126478831,121.98964452943393L105.91203292210896,121.93246853316947L108.31912457942963,120.95867427321333L110.72621623675029,121.03386592684096L113.13330789407094,128.7865989817968L115.5403995513916,124.38110428620945L117.94749120871226,124.89835023651146L120.35458286603293,125.30351162290707L122.76167452335358,132.11728474272445L125.16876618067424,136.17478209142575L127.57585783799489,127.23657883538228L129.98294949531555,126.2454321623868L132.3900411526362,129.33392680201325L134.79713280995688,132.4646853274627L137.20422446727753,134.98356527798163L139.61131612459818,139.51196717634656L142.01840778191882,138.39334643278892L144.4254994392395,137.13711685937423L146.83259109656015,140.97841166979458L149.23968275388083,142.86875178789617L151.64677441120148,138.12318796943129L154.05386606852213,138.73012699865387L156.46095772584277,144.13524204012114L158.86804938316345,142.7864904992585L161.2751410404841,140.28249448239046L163.68223269780478,138.80944386276013L166.08932435512543,140.13593089115597L168.4964160124461,143.76371445861957L170.90350766976675,147.5343129446543L173.3105993270874,144.3237921401327L175.71769098440805,147.2420368180404L178.12478264172873,144.76705909891146L180.53187429904938,150.81585213907954L182.93896595637003,149.3724714843859L185.3460576136907,149.8715503237363L187.75314927101135,152.9499934183606L190.160240928332,150.511352060497L192.56733258565265,150.2110876080256L194.97442424297333,153.62774276711713L197.38151590029398,153.15159696564052L199.78860755761465,157.27578352142393L202.1956992149353,159.06169680387669L204.60279087225598,161.3129348444467L207.00988252957663,156.4870354071332L209.41697418689728,156.2821197414811L211.82406584421793,157.5505749799591L214.2311575015386,156.18854162984434L216.63824915885925,155.35722255322312L219.0453408161799,151.3186511286597L221.45243247350058,152.7117839399186L223.85952413082123,157.25165803186317L226.26661578814188,158.4991984923977L228.67370744546253,159.19216859692756L231.0807991027832,158.39541890621948L233.48789076010385,159.0404704179591L235.89498241742453,159.90077041820908L238.30207407474518,157.50848862543643L240.70916573206586,155.18706780246066L243.1162573893865,153.64418415807097L245.52334904670715,156.02639332665098L247.9304407040278,159.2937222256435L250.33753236134848,161.20664949966724L252.74462401866913,161.3307197989997L255.15171567598978,164.9836783004482L257.5588073333105,165.15890192687664L259.9658989906311,159.66760892545403L262.3729906479518,159.93942779546524L264.7800823052724,157.7265677601082L267.1871739625931,156.9548325488928L269.59426561991376,159.16814793346344L272.0013572772344,163.65494159787525L274.40844893455505,161.34024317606753" fill="none"></path></g></g></g></g><g opacity="0.2"><g><g><g><path style="fill: none;" stroke="rgb(255, 112, 67)" stroke-width="2px" d="M31.29219154516856,-15.98813696176817L33.69928320248922,11.483749856524742L36.106374859809875,25.96900692427369L38.51346651713053,38.389899599482646L40.920558174451195,48.08655668073089L43.32764983177185,62.451950630424044L45.73474148909251,68.3350628375758L48.14183314641316,80.63123531442136L50.548924803733826,76.98547775324252L52.95601646105448,86.82518562386034L55.363108118375145,86.56136947241498L57.7701997756958,86.98253698094675L60.177291433016464,74.25661063997919L62.58438309033712,95.48175083626332L64.99147474765778,107.4476719269915L67.39856640497844,98.30804526628535L69.80565806229909,95.97989479710068L72.21274971961975,79.08782661902414L74.61984137694041,106.57820943972688L77.02693303426106,102.56027622030176L79.43402469158173,92.64401294458773L81.84111634890239,113.14552336203845L84.24820800622305,111.72399279634169L86.6552996635437,113.88671682446105L89.06239132086436,96.86666533214877L91.46948297818501,116.09476357718458L93.87657463550568,108.1608206377927L96.28366629282633,117.5236624690446L98.69075795014699,128.3755076812883L101.09784960746765,114.58353491850039L103.50494126478831,129.39856217555604L105.91203292210896,121.84670454123L108.31912457942963,119.4979829083895L110.72621623675029,121.146653406119L113.13330789407094,140.41569849226204L115.5403995513916,117.77286226736612L117.94749120871226,125.67421916023599L120.35458286603293,125.91125370168795L122.76167452335358,142.33794441425314L125.16876618067424,142.2610281115489L127.57585783799489,113.82927395518827L129.98294949531555,124.75871215315117L132.3900411526362,133.96666876097132L134.79713280995688,137.160823115344L137.20422446727753,138.76188520361862L139.61131612459818,146.3045700237414L142.01840778191882,136.7154153174751L144.4254994392395,135.25277249926742L146.83259109656015,146.74035388539704L149.23968275388083,145.70426196504042L151.64677441120148,131.0048422417463L154.05386606852213,139.64053554248682L156.46095772584277,152.24291460231694L158.86804938316345,140.76336318796524L161.2751410404841,136.52650045708933L163.68223269780478,136.59986793331493L166.08932435512543,142.1256614337496L168.4964160124461,149.2053898098147L170.90350766976675,153.19021067370616L173.3105993270874,139.50801093335048L175.71769098440805,151.61940383490187L178.12478264172873,141.054592520218L180.53187429904938,159.88904169933173L182.93896595637003,147.20740050234537L185.3460576136907,150.6201685827619L187.75314927101135,157.567658060297L190.160240928332,146.8533900237016L192.56733258565265,149.76069092931849L194.97442424297333,158.75272550575443L197.38151590029398,152.4373782634257L199.78860755761465,163.46206335509896L202.1956992149353,161.74056672755586L204.60279087225598,164.68979190530166L207.00988252957663,149.24818625116296L209.41697418689728,155.97474624300293L211.82406584421793,159.4532578376761L214.2311575015386,154.14549160467226L216.63824915885925,154.11024393829126L219.0453408161799,145.26079399181452L221.45243247350058,154.80148315680702L223.85952413082123,164.06146916977997L226.26661578814188,160.37050918319957L228.67370744546253,160.23162375372232L231.0807991027832,157.20029437015734L233.48789076010385,160.00804768556856L235.89498241742453,161.191220418584L238.30207407474518,153.9200659362775L240.70916573206586,151.704936567997L243.1162573893865,151.32985869148644L245.52334904670715,159.59970707952098L247.9304407040278,164.1947155741323L250.33753236134848,164.0760404107028L252.74462401866913,161.51682524799844L255.15171567598978,170.46311605262085L257.5588073333105,165.42173736651935L259.9658989906311,151.4306694233201L262.3729906479518,160.34715610048215L264.7800823052724,154.40727770707264L267.1871739625931,155.79722973206972L269.59426561991376,162.4881210103194L272.0013572772344,170.38513209449297L274.40844893455505,157.86819554335597" fill="none"></path></g></g></g></g></g></g><g transform="translate(41, 176)" clip-path="url(#clip_1)"><clipPath id="clip_1"><rect width="288" height="23"></rect></clipPath><g><g><line x1="0" y1="0" x2="0" y2="5" style="visibility: inherit;" fill="rgb(0, 0, 0)" stroke="rgb(204, 204, 204)" stroke-width="1px"></line><line x1="24.07091657320658" y1="0" x2="24.07091657320658" y2="5" style="visibility: inherit;" fill="rgb(0, 0, 0)" stroke="rgb(204, 204, 204)" stroke-width="1px"></line><line x1="48.14183314641316" y1="0" x2="48.14183314641316" y2="5" style="visibility: inherit;" fill="rgb(0, 0, 0)" stroke="rgb(204, 204, 204)" stroke-width="1px"></line><line x1="72.21274971961975" y1="0" x2="72.21274971961975" y2="5" style="visibility: inherit;" fill="rgb(0, 0, 0)" stroke="rgb(204, 204, 204)" stroke-width="1px"></line><line x1="96.28366629282633" y1="0" x2="96.28366629282633" y2="5" style="visibility: inherit;" fill="rgb(0, 0, 0)" stroke="rgb(204, 204, 204)" stroke-width="1px"></line><line x1="120.35458286603293" y1="0" x2="120.35458286603293" y2="5" style="visibility: inherit;" fill="rgb(0, 0, 0)" stroke="rgb(204, 204, 204)" stroke-width="1px"></line><line x1="144.4254994392395" y1="0" x2="144.4254994392395" y2="5" style="visibility: inherit;" fill="rgb(0, 0, 0)" stroke="rgb(204, 204, 204)" stroke-width="1px"></line><line x1="168.4964160124461" y1="0" x2="168.4964160124461" y2="5" style="visibility: inherit;" fill="rgb(0, 0, 0)" stroke="rgb(204, 204, 204)" stroke-width="1px"></line><line x1="192.56733258565265" y1="0" x2="192.56733258565265" y2="5" style="visibility: inherit;" fill="rgb(0, 0, 0)" stroke="rgb(204, 204, 204)" stroke-width="1px"></line><line x1="216.63824915885925" y1="0" x2="216.63824915885925" y2="5" style="visibility: inherit;" fill="rgb(0, 0, 0)" stroke="rgb(204, 204, 204)" stroke-width="1px"></line><line x1="240.70916573206586" y1="0" x2="240.70916573206586" y2="5" style="visibility: inherit;" fill="rgb(0, 0, 0)" stroke="rgb(204, 204, 204)" stroke-width="1px"></line><line x1="264.7800823052724" y1="0" x2="264.7800823052724" y2="5" style="visibility: inherit;" fill="rgb(0, 0, 0)" stroke="rgb(204, 204, 204)" stroke-width="1px"></line><line x1="288.850998878479" y1="0" x2="288.850998878479" y2="5" style="visibility: inherit;" fill="rgb(0, 0, 0)" stroke="rgb(204, 204, 204)" stroke-width="1px"></line></g><g transform="translate(0, 8)"><text style="text-anchor: middle; visibility: hidden; font-family: Roboto, sans-serif; font-size: 12px; font-weight: 200;" x="0" y="0" dx="0em" dy="0.95em" fill="rgb(33, 33, 33)" stroke="none" stroke-width="1px">-10</text><text style="text-anchor: middle; visibility: inherit; font-family: Roboto, sans-serif; font-size: 12px; font-weight: 200;" x="24.07091657320658" y="0" dx="0em" dy="0.95em" fill="rgb(33, 33, 33)" stroke="none" stroke-width="1px">0</text><text style="text-anchor: middle; visibility: inherit; font-family: Roboto, sans-serif; font-size: 12px; font-weight: 200;" x="48.14183314641316" y="0" dx="0em" dy="0.95em" fill="rgb(33, 33, 33)" stroke="none" stroke-width="1px">10</text><text style="text-anchor: middle; visibility: inherit; font-family: Roboto, sans-serif; font-size: 12px; font-weight: 200;" x="72.21274971961975" y="0" dx="0em" dy="0.95em" fill="rgb(33, 33, 33)" stroke="none" stroke-width="1px">20</text><text style="text-anchor: middle; visibility: inherit; font-family: Roboto, sans-serif; font-size: 12px; font-weight: 200;" x="96.28366629282633" y="0" dx="0em" dy="0.95em" fill="rgb(33, 33, 33)" stroke="none" stroke-width="1px">30</text><text style="text-anchor: middle; visibility: inherit; font-family: Roboto, sans-serif; font-size: 12px; font-weight: 200;" x="120.35458286603293" y="0" dx="0em" dy="0.95em" fill="rgb(33, 33, 33)" stroke="none" stroke-width="1px">40</text><text style="text-anchor: middle; visibility: inherit; font-family: Roboto, sans-serif; font-size: 12px; font-weight: 200;" x="144.4254994392395" y="0" dx="0em" dy="0.95em" fill="rgb(33, 33, 33)" stroke="none" stroke-width="1px">50</text><text style="text-anchor: middle; visibility: inherit; font-family: Roboto, sans-serif; font-size: 12px; font-weight: 200;" x="168.4964160124461" y="0" dx="0em" dy="0.95em" fill="rgb(33, 33, 33)" stroke="none" stroke-width="1px">60</text><text style="text-anchor: middle; visibility: inherit; font-family: Roboto, sans-serif; font-size: 12px; font-weight: 200;" x="192.56733258565265" y="0" dx="0em" dy="0.95em" fill="rgb(33, 33, 33)" stroke="none" stroke-width="1px">70</text><text style="text-anchor: middle; visibility: inherit; font-family: Roboto, sans-serif; font-size: 12px; font-weight: 200;" x="216.63824915885925" y="0" dx="0em" dy="0.95em" fill="rgb(33, 33, 33)" stroke="none" stroke-width="1px">80</text><text style="text-anchor: middle; visibility: inherit; font-family: Roboto, sans-serif; font-size: 12px; font-weight: 200;" x="240.70916573206586" y="0" dx="0em" dy="0.95em" fill="rgb(33, 33, 33)" stroke="none" stroke-width="1px">90</text><text style="text-anchor: middle; visibility: inherit; font-family: Roboto, sans-serif; font-size: 12px; font-weight: 200;" x="264.7800823052724" y="0" dx="0em" dy="0.95em" fill="rgb(33, 33, 33)" stroke="none" stroke-width="1px">100</text><text style="text-anchor: middle; visibility: hidden; font-family: Roboto, sans-serif; font-size: 12px; font-weight: 200;" x="288.850998878479" y="0" dx="0em" dy="0.95em" fill="rgb(33, 33, 33)" stroke="none" stroke-width="1px">110</text></g><line x1="0" y1="0" x2="288.850998878479" y2="0" fill="rgb(0, 0, 0)" stroke="rgb(204, 204, 204)" stroke-width="1px"></line></g></g></g></g></svg>