<svg viewBox="0 0 330 200" xmlns="http://www.w3.org/2000/svg"><g><g><g><g><g><line x1="41.149001121520996" y1="177.5999994277954" x2="36.149001121520996" y2="177.5999994277954" style="visibility: inherit;" fill="rgb(0, 0, 0)" stroke="rgb(204, 204, 204)" stroke-width="1px"></line><line x1="41.149001121520996" y1="161.45454493435946" x2="36.149001121520996" y2="161.45454493435946" style="visibility: inherit;" fill="rgb(0, 0, 0)" stroke="rgb(204, 204, 204)" stroke-width="1px"></line><line x1="41.149001121520996" y1="145.3090904409235" x2="36.149001121520996" y2="145.3090904409235" style="visibility: inherit;" fill="rgb(0, 0, 0)" stroke="rgb(204, 204, 204)" stroke-width="1px"></line><line x1="41.149001121520996" y1="129.16363594748756" x2="36.149001121520996" y2="129.16363594748756" style="visibility: inherit;" fill="rgb(0, 0, 0)" stroke="rgb(204, 204, 204)" stroke-width="1px"></line><line x1="41.149001121520996" y1="113.01818145405163" x2="36.149001121520996" y2="113.01818145405163" style="visibility: inherit;" fill="rgb(0, 0, 0)" stroke="rgb(204, 204, 204)" stroke-width="1px"></line><line x1="41.149001121520996" y1="96.87272696061567" x2="36.149001121520996" y2="96.87272696061567" style="visibility: inherit;" fill="rgb(0, 0, 0)" stroke="rgb(204, 204, 204)" stroke-width="1px"></line><line x1="41.149001121520996" y1="80.72727246717974" x2="36.149001121520996" y2="80.72727246717974" style="visibility: inherit;" fill="rgb(0, 0, 0)" stroke="rgb(204, 204, 204)" stroke-width="1px"></line><line x1="41.149001121520996" y1="64.58181797374378" x2="36.149001121520996" y2="64.58181797374378" style="visibility: inherit;" fill="rgb(0, 0, 0)" stroke="rgb(204, 204, 204)" stroke-width="1px"></line><line x1="41.149001121520996" y1="48.43636348030783" x2="36.149001121520996" y2="48.43636348030783" style="visibility: inherit;" fill="rgb(0, 0, 0)" stroke="rgb(204, 204, 204)" stroke-width="1px"></line><line x1="41.149001121520996" y1="32.290908986871884" x2="36.149001121520996" y2="32.290908986871884" style="visibility: inherit;" fill="rgb(0, 0, 0)" stroke="rgb(204, 204, 204)" stroke-width="1px"></line><line x1="41.149001121520996" y1="16.145454493435953" x2="36.149001121520996" y2="16.145454493435953" style="visibility: inherit;" fill="rgb(0, 0, 0)" stroke="rgb(204, 204, 204)" stroke-width="1px"></line><line x1="41.149001121520996" y1="0" x2="36.149001121520996" y2="0" style="visibility: inherit;" fill="rgb(0, 0, 0)" stroke="rgb(204, 204, 204)" stroke-width="1px"></line></g><g transform="translate(31.149001121520996, 0)"><text style="text-anchor: end; visibility: hidden; font-family: Roboto, sans-serif; font-size: 12px; font-weight: 200;" x="0" y="177.5999994277954" dx="0em" dy="0.3em" fill="rgb(50, 49, 63)" stroke="none" stroke-width="1px">2</text><text style="text-anchor: end; visibility: inherit; font-family: Roboto, sans-serif; font-size: 12px; font-weight: 200;" x="0" y="161.45454493435946" dx="0em" dy="0.3em" fill="rgb(50, 49, 63)" stroke="none" stroke-width="1px">2.5</text><text style="text-anchor: end; visibility: hidden; font-family: Roboto, sans-serif; font-size: 12px; font-weight: 200;" x="0" y="145.3090904409235" dx="0em" dy="0.3em" fill="rgb(50, 49, 63)" stroke="none" stroke-width="1px">3</text><text style="text-anchor: end; visibility: inherit; font-family: Roboto, sans-serif; font-size: 12px; font-weight: 200;" x="0" y="129.16363594748756" dx="0em" dy="0.3em" fill="rgb(50, 49, 63)" stroke="none" stroke-width="1px">3.5</text><text style="text-anchor: end; visibility: hidden; font-family: Roboto, sans-serif; font-size: 12px; font-weight: 200;" x="0" y="113.01818145405163" dx="0em" dy="0.3em" fill="rgb(50, 49, 63)" stroke="none" stroke-width="1px">4</text><text style="text-anchor: end; visibility: inherit; font-family: Roboto, sans-serif; font-size: 12px; font-weight: 200;" x="0" y="96.87272696061567" dx="0em" dy="0.3em" fill="rgb(50, 49, 63)" stroke="none" stroke-width="1px">4.5</text><text style="text-anchor: end; visibility: hidden; font-family: Roboto, sans-serif; font-size: 12px; font-weight: 200;" x="0" y="80.72727246717974" dx="0em" dy="0.3em" fill="rgb(50, 49, 63)" stroke="none" stroke-width="1px">5</text><text style="text-anchor: end; visibility: inherit; font-family: Roboto, sans-serif; font-size: 12px; font-weight: 200;" x="0" y="64.58181797374378" dx="0em" dy="0.3em" fill="rgb(50, 49, 63)" stroke="none" stroke-width="1px">5.5</text><text style="text-anchor: end; visibility: hidden; font-family: Roboto, sans-serif; font-size: 12px; font-weight: 200;" x="0" y="48.43636348030783" dx="0em" dy="0.3em" fill="rgb(50, 49, 63)" stroke="none" stroke-width="1px">6</text><text style="text-anchor: end; visibility: inherit; font-family: Roboto, sans-serif; font-size: 12px; font-weight: 200;" x="0" y="32.290908986871884" dx="0em" dy="0.3em" fill="rgb(50, 49, 63)" stroke="none" stroke-width="1px">6.5</text><text style="text-anchor: end; visibility: hidden; font-family: Roboto, sans-serif; font-size: 12px; font-weight: 200;" x="0" y="16.145454493435953" dx="0em" dy="0.3em" fill="rgb(50, 49, 63)" stroke="none" stroke-width="1px">7</text><text style="text-anchor: end; visibility: hidden; font-family: Roboto, sans-serif; font-size: 12px; font-weight: 200;" x="0" y="0" dx="0em" dy="0.3em" fill="rgb(50, 49, 63)" stroke="none" stroke-width="1px">7.5</text></g><line x1="41.149001121520996" y1="0" x2="41.149001121520996" y2="177.5999994277954" fill="rgb(0, 0, 0)" stroke="rgb(204, 204, 204)" stroke-width="1px"></line></g></g><g transform="translate(41, 0)" clip-path="url(#clip_0)"><clipPath id="clip_0"><rect width="288" height="177"></rect></clipPath><g><g><g><line x1="0" y1="0" x2="0" y2="177.5999994277954" fill="rgb(0, 0, 0)" stroke="rgb(60, 60, 60)" stroke-width="1px" opacity="0.25"></line><line x1="24.07091657320658" y1="0" x2="24.07091657320658" y2="177.5999994277954" fill="rgb(0, 0, 0)" stroke="rgb(60, 60, 60)" stroke-width="1px" opacity="0.25"></line><line x1="48.14183314641316" y1="0" x2="48.14183314641316" y2="177.5999994277954" fill="rgb(0, 0, 0)" stroke="rgb(60, 60, 60)" stroke-width="1px" opacity="0.25"></line><line x1="72.21274971961975" y1="0" x2="72.21274971961975" y2="177.5999994277954" fill="rgb(0, 0, 0)" stroke="rgb(60, 60, 60)" stroke-width="1px" opacity="0.25"></line><line x1="96.28366629282633" y1="0" x2="96.28366629282633" y2="177.5999994277954" fill="rgb(0, 0, 0)" stroke="rgb(60, 60, 60)" stroke-width="1px" opacity="0.25"></line><line x1="120.35458286603293" y1="0" x2="120.35458286603293" y2="177.5999994277954" fill="rgb(0, 0, 0)" stroke="rgb(60, 60, 60)" stroke-width="1px" opacity="0.25"></line><line x1="144.4254994392395" y1="0" x2="144.4254994392395" y2="177.5999994277954" fill="rgb(0, 0, 0)" stroke="rgb(60, 60, 60)" stroke-width="1px" opacity="0.25"></line><line x1="168.4964160124461" y1="0" x2="168.4964160124461" y2="177.5999994277954" fill="rgb(0, 0, 0)" stroke="rgb(60, 60, 60)" stroke-width="1px" opacity="0.25"></line><line x1="192.56733258565265" y1="0" x2="192.56733258565265" y2="177.5999994277954" fill="rgb(0, 0, 0)" stroke="rgb(60, 60, 60)" stroke-width="1px" opacity="0.25"></line><line x1="216.63824915885925" y1="0" x2="216.63824915885925" y2="177.5999994277954" fill="rgb(0, 0, 0)" stroke="rgb(60, 60, 60)" stroke-width="1px" opacity="0.25"></line><line x1="240.70916573206586" y1="0" x2="240.70916573206586" y2="177.5999994277954" fill="rgb(0, 0, 0)" stroke="rgb(60, 60, 60)" stroke-width="1px" opacity="0.25"></line><line x1="264.7800823052724" y1="0" x2="264.7800823052724" y2="177.5999994277954" fill="rgb(0, 0, 0)" stroke="rgb(60, 60, 60)" stroke-width="1px" opacity="0.25"></line><line x1="288.850998878479" y1="0" x2="288.850998878479" y2="177.5999994277954" fill="rgb(0, 0, 0)" stroke="rgb(60, 60, 60)" stroke-width="1px" opacity="0.25"></line></g><g><line x1="0" y1="177.5999994277954" x2="288.850998878479" y2="177.5999994277954" fill="rgb(0, 0, 0)" stroke="rgb(60, 60, 60)" stroke-width="1px" opacity="0.25"></line><line x1="0" y1="161.45454493435946" x2="288.850998878479" y2="161.45454493435946" fill="rgb(0, 0, 0)" stroke="rgb(60, 60, 60)" stroke-width="1px" opacity="0.25"></line><line x1="0" y1="145.3090904409235" x2="288.850998878479" y2="145.3090904409235" fill="rgb(0, 0, 0)" stroke="rgb(60, 60, 60)" stroke-width="1px" opacity="0.25"></line><line x1="0" y1="129.16363594748756" x2="288.850998878479" y2="129.16363594748756" fill="rgb(0, 0, 0)" stroke="rgb(60, 60, 60)" stroke-width="1px" opacity="0.25"></line><line x1="0" y1="113.01818145405163" x2="288.850998878479" y2="113.01818145405163" fill="rgb(0, 0, 0)" stroke="rgb(60, 60, 60)" stroke-width="1px" opacity="0.25"></line><line x1="0" y1="96.87272696061567" x2="288.850998878479" y2="96.87272696061567" fill="rgb(0, 0, 0)" stroke="rgb(60, 60, 60)" stroke-width="1px" opacity="0.25"></line><line x1="0" y1="80.72727246717974" x2="288.850998878479" y2="80.72727246717974" fill="rgb(0, 0, 0)" stroke="rgb(60, 60, 60)" stroke-width="1px" opacity="0.25"></line><line x1="0" y1="64.58181797374378" x2="288.850998878479" y2="64.58181797374378" fill="rgb(0, 0, 0)" stroke="rgb(60, 60, 60)" stroke-width="1px" opacity="0.25"></line><line x1="0" y1="48.43636348030783" x2="288.850998878479" y2="48.43636348030783" fill="rgb(0, 0, 0)" stroke="rgb(60, 60, 60)" stroke-width="1px" opacity="0.25"></line><line x1="0" y1="32.290908986871884" x2="288.850998878479" y2="32.290908986871884" fill="rgb(0, 0, 0)" stroke="rgb(60, 60, 60)" stroke-width="1px" opacity="0.25"></line><line x1="0" y1="16.145454493435953" x2="288.850998878479" y2="16.145454493435953" fill="rgb(0, 0, 0)" stroke="rgb(60, 60, 60)" stroke-width="1px" opacity="0.25"></line><line x1="0" y1="0" x2="288.850998878479" y2="0" fill="rgb(0, 0, 0)" stroke="rgb(60, 60, 60)" stroke-width="1px" opacity="0.25"></line></g></g></g><g><g><line x1="0" y1="242.1818174015392" x2="288.850998878479" y2="242.1818174015392" fill="rgb(0, 0, 0)" stroke="rgb(153, 153, 153)" stroke-width="1.5px"></line></g></g><g><g><line x1="24.07091657320658" y1="0" x2="24.07091657320658" y2="177.5999994277954" fill="rgb(0, 0, 0)" stroke="rgb(153, 153, 153)" stroke-width="1.5px"></line></g></g><g><g><g><g><g><path style="fill: none;" stroke="rgb(255, 112, 67)" stroke-width="2px" d="M24.07091657320658,9.256210297326106L26.47800823052724,24.351202712930906L28.8850998878479,31.53405938401194L31.29219154516856,34.878870499784504L33.69928320248922,36.86412638882107L36.106374859809875,37.9443583734032L38.51346651713053,43.908491560436126L40.920558174451195,54.78926902535545L43.32764983177185,67.0334292276264L45.73474148909251,76.46666015878368L48.14183314641316,85.6293228765198L50.548924803733826,92.98579186029406L52.95601646105448,98.02608585249648L55.363108118375145,104.21712801245162L57.7701997756958,108.35558637022004L60.177291433016464,112.99211607114886L62.58438309033712,115.25238947203674L64.99147474765778,116.6010618289111L67.39856640497844,118.53754382719833L69.80565806229909,121.42386723632026L72.21274971961975,124.02032736951283L74.61984137694041,126.74531325774295L77.02693303426106,127.55653343408723L79.43402469158173,127.87983462385718L81.84111634890239,129.7034971080497L84.24820800622305,129.58188063319793L86.6552996635437,131.36976904738913L89.06239132086436,131.99693996145496L91.46948297818501,132.10472814944146L93.87657463550568,133.16030462848497L96.28366629282633,133.9115829546218L98.69075795014699,133.331859445839L101.09784960746765,133.8675496625928L103.50494126478831,135.34055554694643L105.91203292210896,135.84183266137157L108.31912457942963,136.99267980212284L110.72621623675029,137.4796422964569L113.13330789407094,138.05620863515145L115.5403995513916,137.61002377625303L117.94749120871226,139.09883562990086L120.35458286603293,140.29440656465823L122.76167452335358,140.9348663015124L125.16876618067424,140.93816474974747L127.57585783799489,141.41074701105651L129.98294949531555,142.0560176412977L132.3900411526362,142.5186955442852L134.79713280995688,142.52194953702167L137.20422446727753,143.2597209943629L139.61131612459818,143.52779155641767L142.01840778191882,144.58998229606934L144.4254994392395,145.05012380563255L146.83259109656015,145.1954992890714L149.23968275388083,145.95566946777L151.64677441120148,146.2613502664352L154.05386606852213,145.73182345629354L156.46095772584277,146.57053084504338L158.86804938316345,146.87554935186307L161.2751410404841,147.56049757148088L163.68223269780478,148.6025394160354L166.08932435512543,147.50828507496098L168.4964160124461,148.16244818653024L170.90350766976675,148.82799309405158L173.3105993270874,148.38647151388534L175.71769098440805,147.99502186741842L178.12478264172873,149.5140603491449L180.53187429904938,150.12445297151035L182.93896595637003,149.80566277365483L185.3460576136907,149.9863585079245L187.75314927101135,149.8635577707423L190.160240928332,150.13919745115336L192.56733258565265,150.2532798513178L194.97442424297333,150.61329645134353L197.38151590029398,151.67540548533748L199.78860755761465,151.8735556117385L202.1956992149353,151.0242659532606L204.60279087225598,151.8504596154735L207.00988252957663,152.97089879440887L209.41697418689728,152.5082029492922L211.82406584421793,153.75602244902618L214.2311575015386,153.35083434190418L216.63824915885925,152.86483507038795L219.0453408161799,153.28591827773178L221.45243247350058,154.09545901399795L223.85952413082123,154.42893600307877L226.26661578814188,154.49178423199254L228.67370744546253,154.99868287064336L231.0807991027832,154.8623055868583L233.48789076010385,154.1653827552789L235.89498241742453,154.35404165980052L238.30207407474518,155.14368020434688L240.70916573206586,154.66412371234225L243.1162573893865,154.39830354664983L245.52334904670715,153.89152687471162L247.9304407040278,154.12460284314017L250.33753236134848,154.63970102530538L252.74462401866913,154.81820756686108L255.15171567598978,155.0559285290601L257.5588073333105,155.28631456845474L259.9658989906311,155.54556442456737L262.3729906479518,154.67920962850363L264.7800823052724,155.019116458012L267.1871739625931,154.30156297789762L269.59426561991376,154.55806449579194L272.0013572772344,154.80748537026554L274.40844893455505,155.35599179214654" fill="none"></path></g></g></g></g><g opacity="0.2"><g><g><g><path style="fill: none;" stroke="rgb(255, 112, 67)" stroke-width="2px" d="M24.07091657320658,9.256210297326106L26.47800823052724,33.4081981622938L28.8850998878479,38.4296017882497L31.29219154516856,38.81236837193303L33.69928320248922,39.45607647754729L36.106374859809875,39.438708091594734L38.51346651713053,52.43729744402423L40.920558174451195,70.65354702467151L43.32764983177185,85.09118722029838L45.73474148909251,90.47390870508661L48.14183314641316,99.2902122766461L50.548924803733826,103.98046175660751L52.95601646105448,105.57006940640433L55.363108118375145,113.49156235629064L57.7701997756958,114.55840930442479L60.177291433016464,119.94364058257318L62.58438309033712,118.64184310141584L64.99147474765778,118.62372793645734L67.39856640497844,121.44197182108739L69.80565806229909,125.75308852861086L72.21274971961975,127.91487517325719L74.61984137694041,130.83270242326682L77.02693303426106,128.7733476824764L79.43402469158173,128.3647825787013L81.84111634890239,132.4389778725261L84.24820800622305,129.39945643955892L86.6552996635437,134.05159709395954L89.06239132086436,132.9376953696986L91.46948297818501,132.26641033213306L93.87657463550568,134.74366876364914L96.28366629282633,135.038500194695L98.69075795014699,132.46227429801036L101.09784960746765,134.67108492377292L103.50494126478831,137.55006426796845L105.91203292210896,136.59374831146596L108.31912457942963,138.7189504835739L110.72621623675029,138.2100860304238L113.13330789407094,138.92105813784107L115.5403995513916,136.94074649039058L117.94749120871226,141.33205340539718L120.35458286603293,142.08776296439703L122.76167452335358,141.89555590602305L125.16876618067424,140.94311242209776L127.57585783799489,142.11962040281534L129.98294949531555,143.02392358649183L132.3900411526362,143.2127123986943L134.79713280995688,142.52683052612608L137.20422446727753,144.36637818033333L139.61131612459818,143.92989739949087L142.01840778191882,146.18326840552535L144.4254994392395,145.7403360699718L146.83259109656015,145.4135625142286L149.23968275388083,147.09592473581463L151.64677441120148,146.71987146443215L154.05386606852213,144.93753324108192L156.46095772584277,147.82859192816733L158.86804938316345,147.33307711209247L161.2751410404841,148.5879199009073L163.68223269780478,150.16560218286702L166.08932435512543,145.8669035633495L168.4964160124461,149.1436928538841L170.90350766976675,149.82631045533356L173.3105993270874,147.72418914363598L175.71769098440805,147.40784739771806L178.12478264172873,151.79261807173452L180.53187429904938,151.04004190505856L182.93896595637003,149.3274774768715L185.3460576136907,150.25740210932906L187.75314927101135,149.67935666496896L190.160240928332,150.55265697177L192.56733258565265,150.42440345156444L194.97442424297333,151.15332135138215L197.38151590029398,153.26856903632844L199.78860755761465,152.17078080134L202.1956992149353,149.75033146554372L204.60279087225598,153.0897501087929L207.00988252957663,154.65155756281192L209.41697418689728,151.81415918161719L211.82406584421793,155.62775169862715L214.2311575015386,152.74305218122117L216.63824915885925,152.13583616311362L219.0453408161799,153.9175430887475L221.45243247350058,155.3097701183972L223.85952413082123,154.92915148670002L226.26661578814188,154.58605657536316L228.67370744546253,155.75903082861967L231.0807991027832,154.65773966118067L233.48789076010385,153.11999850790974L235.89498241742453,154.63703001658297L238.30207407474518,156.3281380211664L240.70916573206586,153.9447889743353L243.1162573893865,153.99957329811122L245.52334904670715,153.13136186680424L247.9304407040278,154.47421679578295L250.33753236134848,155.4123482985532L252.74462401866913,155.0859673791946L255.15171567598978,155.41250997235863L257.5588073333105,155.63189362754667L259.9658989906311,155.93443920873634L262.3729906479518,153.37967743440797L264.7800823052724,155.52897670227458L267.1871739625931,153.22523275772608L269.59426561991376,154.94281677263345L272.0013572772344,155.18161668197592L274.40844893455505,156.17875142496803" fill="none"></path></g></g></g></g></g></g><g transform="translate(41, 177)" clip-path="url(#clip_1)"><clipPath id="clip_1"><rect width="288" height="22"></rect></clipPath><g><g><line x1="0" y1="0" x2="0" y2="5" style="visibility: inherit;" fill="rgb(0, 0, 0)" stroke="rgb(204, 204, 204)" stroke-width="1px"></line><line x1="24.07091657320658" y1="0" x2="24.07091657320658" y2="5" style="visibility: inherit;" fill="rgb(0, 0, 0)" stroke="rgb(204, 204, 204)" stroke-width="1px"></line><line x1="48.14183314641316" y1="0" x2="48.14183314641316" y2="5" style="visibility: inherit;" fill="rgb(0, 0, 0)" stroke="rgb(204, 204, 204)" stroke-width="1px"></line><line x1="72.21274971961975" y1="0" x2="72.21274971961975" y2="5" style="visibility: inherit;" fill="rgb(0, 0, 0)" stroke="rgb(204, 204, 204)" stroke-width="1px"></line><line x1="96.28366629282633" y1="0" x2="96.28366629282633" y2="5" style="visibility: inherit;" fill="rgb(0, 0, 0)" stroke="rgb(204, 204, 204)" stroke-width="1px"></line><line x1="120.35458286603293" y1="0" x2="120.35458286603293" y2="5" style="visibility: inherit;" fill="rgb(0, 0, 0)" stroke="rgb(204, 204, 204)" stroke-width="1px"></line><line x1="144.4254994392395" y1="0" x2="144.4254994392395" y2="5" style="visibility: inherit;" fill="rgb(0, 0, 0)" stroke="rgb(204, 204, 204)" stroke-width="1px"></line><line x1="168.4964160124461" y1="0" x2="168.4964160124461" y2="5" style="visibility: inherit;" fill="rgb(0, 0, 0)" stroke="rgb(204, 204, 204)" stroke-width="1px"></line><line x1="192.56733258565265" y1="0" x2="192.56733258565265" y2="5" style="visibility: inherit;" fill="rgb(0, 0, 0)" stroke="rgb(204, 204, 204)" stroke-width="1px"></line><line x1="216.63824915885925" y1="0" x2="216.63824915885925" y2="5" style="visibility: inherit;" fill="rgb(0, 0, 0)" stroke="rgb(204, 204, 204)" stroke-width="1px"></line><line x1="240.70916573206586" y1="0" x2="240.70916573206586" y2="5" style="visibility: inherit;" fill="rgb(0, 0, 0)" stroke="rgb(204, 204, 204)" stroke-width="1px"></line><line x1="264.7800823052724" y1="0" x2="264.7800823052724" y2="5" style="visibility: inherit;" fill="rgb(0, 0, 0)" stroke="rgb(204, 204, 204)" stroke-width="1px"></line><line x1="288.850998878479" y1="0" x2="288.850998878479" y2="5" style="visibility: inherit;" fill="rgb(0, 0, 0)" stroke="rgb(204, 204, 204)" stroke-width="1px"></line></g><g transform="translate(0, 8)"><text style="text-anchor: middle; visibility: hidden; font-family: Roboto, sans-serif; font-size: 12px; font-weight: 200;" x="0" y="0" dx="0em" dy="0.95em" fill="rgb(50, 49, 63)" stroke="none" stroke-width="1px">-10</text><text style="text-anchor: middle; visibility: inherit; font-family: Roboto, sans-serif; font-size: 12px; font-weight: 200;" x="24.07091657320658" y="0" dx="0em" dy="0.95em" fill="rgb(50, 49, 63)" stroke="none" stroke-width="1px">0</text><text style="text-anchor: middle; visibility: inherit; font-family: Roboto, sans-serif; font-size: 12px; font-weight: 200;" x="48.14183314641316" y="0" dx="0em" dy="0.95em" fill="rgb(50, 49, 63)" stroke="none" stroke-width="1px">10</text><text style="text-anchor: middle; visibility: inherit; font-family: Roboto, sans-serif; font-size: 12px; font-weight: 200;" x="72.21274971961975" y="0" dx="0em" dy="0.95em" fill="rgb(50, 49, 63)" stroke="none" stroke-width="1px">20</text><text style="text-anchor: middle; visibility: inherit; font-family: Roboto, sans-serif; font-size: 12px; font-weight: 200;" x="96.28366629282633" y="0" dx="0em" dy="0.95em" fill="rgb(50, 49, 63)" stroke="none" stroke-width="1px">30</text><text style="text-anchor: middle; visibility: inherit; font-family: Roboto, sans-serif; font-size: 12px; font-weight: 200;" x="120.35458286603293" y="0" dx="0em" dy="0.95em" fill="rgb(50, 49, 63)" stroke="none" stroke-width="1px">40</text><text style="text-anchor: middle; visibility: inherit; font-family: Roboto, sans-serif; font-size: 12px; font-weight: 200;" x="144.4254994392395" y="0" dx="0em" dy="0.95em" fill="rgb(50, 49, 63)" stroke="none" stroke-width="1px">50</text><text style="text-anchor: middle; visibility: inherit; font-family: Roboto, sans-serif; font-size: 12px; font-weight: 200;" x="168.4964160124461" y="0" dx="0em" dy="0.95em" fill="rgb(50, 49, 63)" stroke="none" stroke-width="1px">60</text><text style="text-anchor: middle; visibility: inherit; font-family: Roboto, sans-serif; font-size: 12px; font-weight: 200;" x="192.56733258565265" y="0" dx="0em" dy="0.95em" fill="rgb(50, 49, 63)" stroke="none" stroke-width="1px">70</text><text style="text-anchor: middle; visibility: inherit; font-family: Roboto, sans-serif; font-size: 12px; font-weight: 200;" x="216.63824915885925" y="0" dx="0em" dy="0.95em" fill="rgb(50, 49, 63)" stroke="none" stroke-width="1px">80</text><text style="text-anchor: middle; visibility: inherit; font-family: Roboto, sans-serif; font-size: 12px; font-weight: 200;" x="240.70916573206586" y="0" dx="0em" dy="0.95em" fill="rgb(50, 49, 63)" stroke="none" stroke-width="1px">90</text><text style="text-anchor: middle; visibility: inherit; font-family: Roboto, sans-serif; font-size: 12px; font-weight: 200;" x="264.7800823052724" y="0" dx="0em" dy="0.95em" fill="rgb(50, 49, 63)" stroke="none" stroke-width="1px">100</text><text style="text-anchor: middle; visibility: hidden; font-family: Roboto, sans-serif; font-size: 12px; font-weight: 200;" x="288.850998878479" y="0" dx="0em" dy="0.95em" fill="rgb(50, 49, 63)" stroke="none" stroke-width="1px">110</text></g><line x1="0" y1="0" x2="288.850998878479" y2="0" fill="rgb(0, 0, 0)" stroke="rgb(204, 204, 204)" stroke-width="1px"></line></g></g></g></g></svg>