<svg viewBox="0 0 330 200" xmlns="http://www.w3.org/2000/svg"><g><g><g><g><g><line x1="51.53200149536133" y1="176.89999961853027" x2="46.53200149536133" y2="176.89999961853027" style="visibility: inherit;" fill="rgb(0, 0, 0)" stroke="rgb(204, 204, 204)" stroke-width="1px"></line><line x1="51.53200149536133" y1="151.6285711015974" x2="46.53200149536133" y2="151.6285711015974" style="visibility: inherit;" fill="rgb(0, 0, 0)" stroke="rgb(204, 204, 204)" stroke-width="1px"></line><line x1="51.53200149536133" y1="126.35714258466449" x2="46.53200149536133" y2="126.35714258466449" style="visibility: inherit;" fill="rgb(0, 0, 0)" stroke="rgb(204, 204, 204)" stroke-width="1px"></line><line x1="51.53200149536133" y1="101.08571406773157" x2="46.53200149536133" y2="101.08571406773157" style="visibility: inherit;" fill="rgb(0, 0, 0)" stroke="rgb(204, 204, 204)" stroke-width="1px"></line><line x1="51.53200149536133" y1="75.8142855507987" x2="46.53200149536133" y2="75.8142855507987" style="visibility: inherit;" fill="rgb(0, 0, 0)" stroke="rgb(204, 204, 204)" stroke-width="1px"></line><line x1="51.53200149536133" y1="50.542857033865786" x2="46.53200149536133" y2="50.542857033865786" style="visibility: inherit;" fill="rgb(0, 0, 0)" stroke="rgb(204, 204, 204)" stroke-width="1px"></line><line x1="51.53200149536133" y1="25.271428516932904" x2="46.53200149536133" y2="25.271428516932904" style="visibility: inherit;" fill="rgb(0, 0, 0)" stroke="rgb(204, 204, 204)" stroke-width="1px"></line><line x1="51.53200149536133" y1="0" x2="46.53200149536133" y2="0" style="visibility: inherit;" fill="rgb(0, 0, 0)" stroke="rgb(204, 204, 204)" stroke-width="1px"></line></g><g transform="translate(41.53200149536133, 0)"><text style="text-anchor: end; visibility: hidden; font-family: Roboto, sans-serif; font-size: 12px; font-weight: 200;" x="0" y="176.89999961853027" dx="0em" dy="0.3em" fill="rgb(33, 33, 33)" stroke="none" stroke-width="1px">-0.5</text><text style="text-anchor: end; visibility: inherit; font-family: Roboto, sans-serif; font-size: 12px; font-weight: 200;" x="0" y="151.6285711015974" dx="0em" dy="0.3em" fill="rgb(33, 33, 33)" stroke="none" stroke-width="1px">0</text><text style="text-anchor: end; visibility: inherit; font-family: Roboto, sans-serif; font-size: 12px; font-weight: 200;" x="0" y="126.35714258466449" dx="0em" dy="0.3em" fill="rgb(33, 33, 33)" stroke="none" stroke-width="1px">0.5</text><text style="text-anchor: end; visibility: inherit; font-family: Roboto, sans-serif; font-size: 12px; font-weight: 200;" x="0" y="101.08571406773157" dx="0em" dy="0.3em" fill="rgb(33, 33, 33)" stroke="none" stroke-width="1px">1</text><text style="text-anchor: end; visibility: inherit; font-family: Roboto, sans-serif; font-size: 12px; font-weight: 200;" x="0" y="75.8142855507987" dx="0em" dy="0.3em" fill="rgb(33, 33, 33)" stroke="none" stroke-width="1px">1.5</text><text style="text-anchor: end; visibility: inherit; font-family: Roboto, sans-serif; font-size: 12px; font-weight: 200;" x="0" y="50.542857033865786" dx="0em" dy="0.3em" fill="rgb(33, 33, 33)" stroke="none" stroke-width="1px">2</text><text style="text-anchor: end; visibility: inherit; font-family: Roboto, sans-serif; font-size: 12px; font-weight: 200;" x="0" y="25.271428516932904" dx="0em" dy="0.3em" fill="rgb(33, 33, 33)" stroke="none" stroke-width="1px">2.5</text><text style="text-anchor: end; visibility: hidden; font-family: Roboto, sans-serif; font-size: 12px; font-weight: 200;" x="0" y="0" dx="0em" dy="0.3em" fill="rgb(33, 33, 33)" stroke="none" stroke-width="1px">3</text></g><line x1="51.53200149536133" y1="0" x2="51.53200149536133" y2="176.89999961853027" fill="rgb(0, 0, 0)" stroke="rgb(204, 204, 204)" stroke-width="1px"></line></g></g><g transform="translate(51, 0)" clip-path="url(#clip_0)"><clipPath id="clip_0"><rect width="278" height="176"></rect></clipPath><g><g><g><line x1="0" y1="0" x2="0" y2="176.89999961853027" fill="rgb(0, 0, 0)" stroke="rgb(66, 66, 66)" stroke-width="1px" opacity="0.25"></line><line x1="23.205666542053223" y1="0" x2="23.205666542053223" y2="176.89999961853027" fill="rgb(0, 0, 0)" stroke="rgb(66, 66, 66)" stroke-width="1px" opacity="0.25"></line><line x1="46.411333084106445" y1="0" x2="46.411333084106445" y2="176.89999961853027" fill="rgb(0, 0, 0)" stroke="rgb(66, 66, 66)" stroke-width="1px" opacity="0.25"></line><line x1="69.61699962615967" y1="0" x2="69.61699962615967" y2="176.89999961853027" fill="rgb(0, 0, 0)" stroke="rgb(66, 66, 66)" stroke-width="1px" opacity="0.25"></line><line x1="92.82266616821289" y1="0" x2="92.82266616821289" y2="176.89999961853027" fill="rgb(0, 0, 0)" stroke="rgb(66, 66, 66)" stroke-width="1px" opacity="0.25"></line><line x1="116.02833271026611" y1="0" x2="116.02833271026611" y2="176.89999961853027" fill="rgb(0, 0, 0)" stroke="rgb(66, 66, 66)" stroke-width="1px" opacity="0.25"></line><line x1="139.23399925231934" y1="0" x2="139.23399925231934" y2="176.89999961853027" fill="rgb(0, 0, 0)" stroke="rgb(66, 66, 66)" stroke-width="1px" opacity="0.25"></line><line x1="162.43966579437256" y1="0" x2="162.43966579437256" y2="176.89999961853027" fill="rgb(0, 0, 0)" stroke="rgb(66, 66, 66)" stroke-width="1px" opacity="0.25"></line><line x1="185.64533233642578" y1="0" x2="185.64533233642578" y2="176.89999961853027" fill="rgb(0, 0, 0)" stroke="rgb(66, 66, 66)" stroke-width="1px" opacity="0.25"></line><line x1="208.850998878479" y1="0" x2="208.850998878479" y2="176.89999961853027" fill="rgb(0, 0, 0)" stroke="rgb(66, 66, 66)" stroke-width="1px" opacity="0.25"></line><line x1="232.05666542053223" y1="0" x2="232.05666542053223" y2="176.89999961853027" fill="rgb(0, 0, 0)" stroke="rgb(66, 66, 66)" stroke-width="1px" opacity="0.25"></line><line x1="255.26233196258545" y1="0" x2="255.26233196258545" y2="176.89999961853027" fill="rgb(0, 0, 0)" stroke="rgb(66, 66, 66)" stroke-width="1px" opacity="0.25"></line><line x1="278.4679985046387" y1="0" x2="278.4679985046387" y2="176.89999961853027" fill="rgb(0, 0, 0)" stroke="rgb(66, 66, 66)" stroke-width="1px" opacity="0.25"></line></g><g><line x1="0" y1="176.89999961853027" x2="278.4679985046387" y2="176.89999961853027" fill="rgb(0, 0, 0)" stroke="rgb(66, 66, 66)" stroke-width="1px" opacity="0.25"></line><line x1="0" y1="151.6285711015974" x2="278.4679985046387" y2="151.6285711015974" fill="rgb(0, 0, 0)" stroke="rgb(66, 66, 66)" stroke-width="1px" opacity="0.25"></line><line x1="0" y1="126.35714258466449" x2="278.4679985046387" y2="126.35714258466449" fill="rgb(0, 0, 0)" stroke="rgb(66, 66, 66)" stroke-width="1px" opacity="0.25"></line><line x1="0" y1="101.08571406773157" x2="278.4679985046387" y2="101.08571406773157" fill="rgb(0, 0, 0)" stroke="rgb(66, 66, 66)" stroke-width="1px" opacity="0.25"></line><line x1="0" y1="75.8142855507987" x2="278.4679985046387" y2="75.8142855507987" fill="rgb(0, 0, 0)" stroke="rgb(66, 66, 66)" stroke-width="1px" opacity="0.25"></line><line x1="0" y1="50.542857033865786" x2="278.4679985046387" y2="50.542857033865786" fill="rgb(0, 0, 0)" stroke="rgb(66, 66, 66)" stroke-width="1px" opacity="0.25"></line><line x1="0" y1="25.271428516932904" x2="278.4679985046387" y2="25.271428516932904" fill="rgb(0, 0, 0)" stroke="rgb(66, 66, 66)" stroke-width="1px" opacity="0.25"></line><line x1="0" y1="0" x2="278.4679985046387" y2="0" fill="rgb(0, 0, 0)" stroke="rgb(66, 66, 66)" stroke-width="1px" opacity="0.25"></line></g></g></g><g><g><line x1="0" y1="151.6285711015974" x2="278.4679985046387" y2="151.6285711015974" fill="rgb(0, 0, 0)" stroke="rgb(153, 153, 153)" stroke-width="1.5px"></line></g></g><g><g><line x1="23.205666542053223" y1="0" x2="23.205666542053223" y2="176.89999961853027" fill="rgb(0, 0, 0)" stroke="rgb(153, 153, 153)" stroke-width="1.5px"></line></g></g><g><g><g><g><g><path style="fill: none;" stroke="rgb(255, 112, 67)" stroke-width="2px" d="M35.829549140930176,-2.702061561943598L36.08481147289276,9.901371462683603L36.17763413906098,12.197213550165062L36.45610213756561,13.676828700585412L36.59533613681793,14.222444798233655L37.036243801116946,10.499313781086656L37.639591131210324,8.427083468443506L37.68600246429443,9.731711147993302L38.1501157951355,14.204441775214994L38.17332146167755,30.007890957869563L38.521406459808354,36.41004367809921L38.75346312522888,36.54453007269416L38.79987445831299,29.850646641554146L38.96231412410736,29.216089973840912L39.49604445457459,32.61978478498109L40.006569118499755,44.289291493782876L40.02977478504181,46.68340205801761L40.12259745121003,45.429380557075646L40.30824278354645,49.98190076797823L40.586710782051085,51.12099206927064L41.0740297794342,46.60945154787673L41.120441112518314,56.33926601263009L41.16685244560242,52.06634673860607L41.28288077831268,50.66143454460007L41.53814311027527,52.565197209368854L41.58455444335938,61.58561133333839L41.60776010990143,54.85966137372489L42.09507910728455,55.526468140397434L42.23431310653687,54.117186403172674L42.41995843887329,55.27270914467836L42.744837770462034,57.525512401522974L43.30177376747131,62.14987828237548L43.39459643363952,62.17404739916324L43.78909276485443,58.541320592537524L43.83550409793854,61.92798502494889L44.06756076335907,78.22895501505863L44.34602876186371,79.3972920674561L44.55487976074219,80.05996452602804L45.18143275737763,79.68183355372987L45.297461090087886,93.0777958441204L45.41348942279816,81.62040342919977L45.599134755134585,89.7808021065872L45.90080842018127,84.52188804948312L46.063248085975644,81.51704374348849L46.13286508560181,82.9574760593221L46.24889341831207,81.98958001802845L46.272099084854126,80.01925316285036L46.4345387506485,82.88751916433492L46.50415575027466,74.68291852749145L48.10534674167633,77.47234752520419L48.476637406349184,86.34664222432686L48.70869407176971,91.16117084892518L49.38165840148926,85.34077749907736L49.98500573158264,93.98758826823737L50.10103406429291,92.31599502650812L50.12423973083496,100.33862087963465L50.37950206279755,99.17606808234117L50.56514739513398,104.22919772928054L51.14528905868531,105.57556810094766L51.168494725227355,100.79399168487797L51.21490605831146,98.46532596363998L51.23811172485352,97.07286955108088L51.609402389526366,104.48917111125341L51.98069305419922,104.79224132806235L52.09672138690948,102.21950700447555L52.14313271999359,107.44974757770558L52.49121771812439,106.41835300764379L52.79289138317108,112.82269520118028L52.8857140493393,101.94705334793872L53.34982738018036,96.41882074762L53.69791237831116,96.59594461721971L54.022791709899906,105.19272636259993L54.27805404186248,107.79773947225316L54.32446537494659,112.84528616632895L54.3708767080307,107.05696383383241L54.4172880411148,110.04782003849007L54.46369937419891,107.27380273475934L54.67255037307739,109.33358866407009L54.834990038871766,113.78171884248486L55.04384103775024,111.2084413735054L55.20628070354462,111.50172039335258L55.60077703475952,112.72265613012107L56.34335836410523,111.33859661378607L56.48259236335755,114.23629045178414L56.80747169494629,104.39507362351316L56.96991136074066,107.38061428549051L57.20196802616119,112.92736951738698L57.27158502578735,113.49995929663949L57.36440769195556,113.29602210266233L57.80531535625458,115.44761019466767L57.92134368896484,116.35680776679342L57.9445493555069,110.97023482244241L58.640719351768496,104.90589822223536L58.872776017189025,114.82489168750008L58.965598683357236,106.18321005677717L59.0352156829834,106.98936823199764L59.15124401569366,109.67147227283986L59.360095014572146,114.73122403926976L59.4297120141983,115.63630220245996L59.638563013076784,120.12866534551982L59.66176867961883,118.24047479920586L59.80100267887116,118.80868514949442L59.824208345413204,124.27215028033162L60.40435000896454,123.83274268559339L60.61320100784302,110.8247571397356L60.70602367401123,118.09613748032432L60.845257673263546,120.43924887035959L60.93808033943176,123.56845159892768L61.2165483379364,125.24194624589046L61.378988003730775,110.92504668997903L61.703867335319515,108.72718708529565L62.12156933307647,117.04158387669868L62.88735632896423,118.22385185128043L63.37467532634735,116.71367199576132L63.93161132335663,112.24906498821217L64.11725665569305,112.04465343512011L64.69739831924439,114.9611641679584L64.83663231849671,109.04102855353989L64.90624931812286,116.01247501602523L65.43997964859008,120.14108736995178L66.02012131214143,123.67189936360145L66.04332697868347,123.95152149068882L66.13614964485168,124.17756064903519L66.78590830802918,118.11652467690195L66.92514230728149,118.54582822523503L66.94834797382354,124.27280672654355L67.22681597232818,130.80082600885896L67.38925563812256,126.37204291763844L67.50528397083282,128.91651656452385L67.55169530391693,126.67492905842334L67.64451797008515,128.81632775661305L67.73734063625335,129.52760858355776L67.87657463550568,125.51753234529117L67.92298596858978,131.1791325679488L68.15504263401031,133.426392321245L68.89762396335603,132.4048962103853L69.06006362915039,125.30285283206754L69.1064749622345,124.58331324240328L69.17609196186066,120.55175285260351L69.66341095924376,120.83051539133122L69.82585062503814,115.32292278991204L69.96508462429045,117.67374397816545L69.98829029083252,122.56800429660724L70.31316962242127,130.61290890892505L70.80048861980437,134.93142304930802L70.9397226190567,132.10584823920559L71.65909828186035,133.6018232751128L71.77512661457061,135.30591453358284L72.0303889465332,133.23873509209773L72.12321161270143,134.84790284569237L72.40167961120606,135.03967422967247L72.86579294204712,130.1621106190619L72.98182127475738,123.69604543919266L73.23708360671998,125.97685688822936L73.26028927326202,126.78130996718939L73.58516860485076,129.85023889342614L74.09569326877595,134.95560391948035L74.11889893531799,134.1083763187896L74.14210460186004,131.1702252232967L74.28133860111237,134.20734811417418L74.32774993419648,133.87979974901876L74.39736693382262,126.80978613868592L74.74545193195344,134.26190632164105L75.23277092933655,135.2418528425422L75.53444459438323,137.92611999285452L76.09138059139252,133.171238707413L76.32343725681305,133.33382962220256L76.53228825569153,133.80581283760984L76.60190525531769,138.22040471368598L76.85716758728027,134.82446982376717L76.90357892036438,132.22727106928025L76.94999025344848,129.52368596735576L77.22845825195313,134.9926585699345L77.34448658466339,135.48518482461202L77.80859991550444,132.79267498397354L78.27271324634553,137.01659814850635L78.50476991176605,134.63691320894574L78.55118124485017,136.53715996857125L78.89926624298096,138.1253499065765L79.03850024223327,137.5937756741643L79.06170590877532,132.95366981939787L79.08491157531738,136.39804015279586L79.36337957382202,138.17202186361496L79.50261357307433,136.42009805176693L79.5722305727005,138.74551140176854L79.64184757232665,135.8425805357145L79.73467023849487,130.550343638903L80.221989235878,130.7744358937715L80.29160623550415,132.56798428249132L80.33801756858826,133.60273721281996L80.94136489868164,138.90313751875254L81.38227256298066,139.7136799840335L81.63753489494324,141.74966198451853L81.82318022727966,140.96055767718258L82.56576155662536,138.8610103925696L82.63537855625152,139.40413098641997L82.7514068889618,138.3322005895712L82.98346355438233,131.3810183128534L83.23872588634491,135.5936164020638L83.37795988559724,137.5438378719298L83.63322221755982,135.36416454769412L83.8884845495224,138.85864920856847L84.51503754615783,140.4085044829394L84.56144887924194,140.26572386325404L84.60786021232606,140.91904117274547L85.69852653980256,138.26940598080571L85.81455487251282,138.47260217849558L85.95378887176513,140.321827589046L86.0234058713913,139.30479310293634L86.4179022026062,131.92682246510148L86.55713620185853,135.91704997374362L86.74278153419495,140.38731824063493L86.97483819961549,141.83941740532651L87.06766086578368,141.81173961534336L87.57818552970886,143.30298918722997L88.18153285980225,144.45035295656803L88.66885185718537,144.89494913181747L88.9937311887741,145.34919109821183L89.17937652111053,143.32549753090746L89.22578785419465,135.30477749895246L89.24899352073669,138.781409509582L89.27219918727874,141.4385563172671L89.48105018615723,144.15655457401553L89.92195785045624,140.55422125872718L90.13080884933471,143.37873807224415L90.7805675125122,145.9407267534548L90.80377317905426,145.8821443177778L90.87339017868041,135.8718064318373L91.38391484260559,139.5608768116902L91.68558850765228,141.65362267232592L91.87123383998872,141.27408505952565L92.19611317157745,142.75724313826768L92.31214150428772,141.94277417170082L92.428169836998,142.77569873286302L92.72984350204469,142.77905591814056L92.89228316783905,144.33184502367504L93.07792850017547,145.79566221492183L93.5652474975586,143.76239367625956L93.72768716335297,144.80242382888068L93.98294949531555,143.64310489252583L94.40065149307252,144.35059916001148L94.60950249195099,143.9427149588352L95.12002715587616,146.09482919876027L95.16643848896027,141.54905946446112L95.97863681793213,142.7895003383651L96.28031048297882,143.90264072512352L96.4891614818573,140.94712746481775L96.55877848148346,141.40442719599773L96.99968614578246,142.1649087618243L97.0925088119507,139.4596469792037L97.16212581157684,132.76419615400266L97.34777114391328,134.96429245804455L97.95111847400665,136.4500088966415L98.43843747138976,140.6634423842278L98.50805447101594,143.68003355569965L99.80757179737091,144.1799506593918L100.1092454624176,143.68380619240168L100.27168512821197,145.10286145186495L100.29489079475404,144.07555731998573L100.36450779438019,143.52021712501087L101.24632312297821,145.8592999895681L101.57120245456696,145.84204163815875L101.61761378765107,144.98688917866053L101.73364212036132,145.4940097761313L101.80325911998749,146.7092890601395L101.8496704530716,147.30684746073197L101.96569878578185,147.32214979657508L102.26737245082856,145.8319969640792L102.5458404493332,144.94804684432404L102.77789711475371,144.99131228671942L103.00995378017426,144.44406021044492L103.0795707798004,146.32391262987517L103.2420104455948,144.42600857117765L103.334833111763,146.6599776590991L103.70612377643586,145.23112942509204L103.77574077606201,143.34578050015799L103.84535777568817,132.56969744337457L104.37908810615541,137.7351670561817L104.4719107723236,141.66490152854837L104.58793910503387,145.08201671965904L104.91281843662262,147.1337511576342L104.93602410316468,147.43947871206313L105.1680807685852,144.67298805730383L105.26090343475342,145.70689776194567L105.33052043437957,147.17026722095693L105.37693176746369,146.4255975764463L105.42334310054778,141.6658094360383L105.56257709980011,141.0418938790466L105.79463376522065,141.243146677225L106.1659244298935,141.98002824633525L106.18913009643555,143.88393287173065L106.39798109531402,145.74035083202122L106.97812275886535,146.908225764922L107.25659075736999,144.70487273235486L107.27979642391205,143.7057718967025L107.34941342353821,145.36557000947516L107.53505875587463,145.54302724804424L107.76711542129517,146.71471451439086L107.92955508708954,147.99190224440324L108.76495908260345,149.05205076696114L109.06663274765015,147.894661272826L109.13624974727631,148.80980810876267L109.39151207923888,148.83068571864843L109.46112907886506,147.0027662087495L109.55395174503327,148.23834647671487L109.62356874465942,148.43324472673743L109.92524240970612,146.58078914974783L110.31973874092103,147.61300668202287L110.41256140708924,148.1469242769418L110.6214124059677,147.85916566074857L110.94629173755645,148.35427374730054L111.08552573680878,148.68045225970883L111.20155406951903,147.768182140016L111.41040506839752,144.5310648903719L111.78169573307036,146.18030197041043L111.85131273269654,145.94386990379905L111.89772406578064,147.2620510964748L112.64030539512635,144.73539071871812L112.7099223947525,145.50946345685233L113.05800739288331,147.05562419073172L113.89341138839721,145.15995110415383L113.91661705493928,144.90575159600567L114.1022623872757,146.6360566594827L114.19508505344392,148.06578951013137L114.40393605232238,148.8361339945304L114.58958138465881,149.11108779076332L114.82163805007934,148.91185010399133L115.12331171512604,148.48289290693688L115.14651738166809,145.43986185642999L115.26254571437835,143.08386611632466L115.42498538017273,145.1374935488179L115.58742504596711,147.3286084304926L115.77307037830353,148.5295219973683L115.79627604484558,148.19708109557496L115.8890987110138,146.6947898884328L116.12115537643432,144.8379472445422L116.91014803886414,144.87061139188862L117.04938203811646,145.4598735971554L117.23502737045288,147.18736432799722L117.722346367836,148.1755416584522L117.74555203437805,146.99305462357682L118.04722569942474,148.22453736969237L118.20966536521911,148.60045100932044L118.23287103176116,143.54825168512147L118.25607669830323,144.75217918665885L118.5113390302658,146.1215916118277L118.9522466945648,147.95192135932697L119.02186369419098,148.67044622629317L119.32353735923766,149.13603480536895L119.62521102428435,148.61026991691807L119.71803369045257,149.47489754223332L119.78765069007873,147.6223953924159L120.13573568820954,148.635034483164L120.18214702129363,148.13059179080602L120.2981753540039,148.28958013993702L120.50702635288239,149.0799220091754L120.53023201942445,149.30776000914452L120.64626035213472,148.3431566591571L121.0407566833496,148.63178892568425L121.11037368297578,147.24536299024018L121.17999068260193,146.17485253534082L121.203196349144,147.1331806104074L121.31922468185424,143.85545686526214L121.48166434764863,139.42665528688426L121.76013234615327,142.8293345667451L121.80654367923736,144.99746123403304L121.87616067886351,146.96074049225473L121.92257201194764,148.08237022207905L122.01539467811584,148.71512879126152L122.085011677742,148.72436562476676L122.22424567699433,147.64086401732717L122.31706834316253,147.77629202978974L122.75797600746155,148.69787319371412L123.57017433643341,149.23528175276772L123.84864233493805,147.9777227499357L124.35916699886322,149.00428783006117L124.8696916627884,148.20657549655874L125.14815966129304,147.20120292808983L125.3105993270874,147.95066560671287L125.35701066017151,149.0470520878758L125.38021632671355,149.8452079639593L125.44983332633973,149.85851428881372L125.49624465942382,150.33887204511007L125.75150699138642,149.58628297711584L125.79791832447052,149.60278465005607L125.91394665718079,149.9648645427441L126.07638632297515,149.55842460477157L126.49408832073212,149.6196949404721L126.77255631923676,149.68159900497992L126.7957619857788,149.88031261904771L127.25987531661988,149.80904875734672L127.42231498241425,149.7508274233045L127.65437164783476,148.96549484422388L127.77039998054504,149.13718661793382L128.00245664596557,149.81352870729066L128.4433643102646,149.55808753724696L128.51298130989076,147.17857255664396L128.60580397605895,148.43957759533853L129.0235059738159,146.43666833900087L129.11632863998412,147.68455774608495L129.2787683057785,148.89668060616793L129.30197397232055,149.59865821457132L129.34838530540466,149.93196394222616L129.487619304657,150.248864754404L129.5804419708252,149.89109000764526L129.83570430278778,149.97103226693469L130.0213496351242,150.13121053904925L130.11417230129243,150.45806736231148L130.1605836343765,150.37041002918127L130.46225729942321,150.6219087770151L130.55507996559143,150.67081381119624L130.5782856321335,142.73947946762846L130.64790263175965,145.3616280512424L130.7175196313858,147.68932733859532L130.94957629680633,149.1011785611905L131.0656046295166,149.64697254909433L131.1120159626007,149.68173133033756L131.25124996185303,149.68770199915744L131.34407262802125,149.6425045587228L131.5065122938156,147.32732230893845L131.57612929344177,148.69529588682082L131.62254062652588,149.40136064292847L131.69215762615204,150.06635367000536L131.87780295848847,149.2472030829771L131.92421429157258,149.6903961960646L132.06344829082488,149.93942228472642L132.2026822900772,150.24940652365424L132.22588795661926,150.40528081690152L132.57397295475008,149.73124590702596L132.92205795288086,149.59135437947552L133.22373161792754,149.94111660120507L133.2933486175537,148.64296344380747L133.71105061531068,149.41110591318545L133.80387328147887,149.4006971453403L134.12875261306763,146.3602686069616L134.1519582796097,147.43877839749203L134.4304262781143,148.7045977583737L134.5928659439087,148.26483793008364L135.01056794166564,144.67928689779907L135.5442982721329,146.21613648549322L135.61391527175903,148.20369052815315L135.9852059364319,148.83188067416944L136.00841160297395,148.60724098238444L136.65817026615144,149.53026635169533L136.98304959774018,147.78078613757492L137.19190059661864,148.62263759504182L137.3079289293289,145.446894879001L137.84165925979613,147.63382732282705L138.67706325531006,141.5465668134494L138.72347458839417,144.09229673713298L139.44285025119783,146.65965150690195L139.46605591773988,147.85312979483933L139.97658058166505,148.5388305895144L140.11581458091734,149.5850445481397L140.23184291362764,149.79133822748122L140.46389957904813,149.90258206468206L140.51031091213227,149.98378879439187L140.53351657867432,150.32418929294482L140.62633924484254,150.6629694085066L140.78877891063692,150.79929533931616L141.02083557605744,150.5965096867805L141.27609790802,150.87356047980668L141.41533190727233,150.91327185625096L141.50815457344055,149.88225870549292L141.7402112388611,150.42665478853465L142.06509057044983,149.09543335903155L142.27394156932831,150.01691294356047L142.32035290241242,149.74347403154383L142.6220265674591,150.31816499879827L142.8308775663376,150.53823429220589L142.85408323287965,150.09945531720044L143.15575689792632,150.34704591100626L143.3646078968048,150.70791790250436L143.41101922988892,150.61757154763248L143.5038418960571,150.59186041695116L143.85192689418793,150.1790611938845L144.03757222652436,150.1492135382369L144.15360055923463,150.36768473123868L144.2232175588608,150.62355129512449L144.82656488895415,150.616656892284L144.87297622203826,150.77517113785456L145.03541588783264,150.92812139475407L145.26747255325316,150.87112267191267L145.38350088596346,149.8452466084197L145.94043688297273,150.34055172179987L146.01005388259887,149.8541338698869L146.26531621456147,148.53146677215057L147.00789754390718,143.14874383838114L147.56483354091645,146.26052806371231L147.88971287250519,148.01029561192905L148.0753582048416,148.55542938326303L148.30741487026214,149.53523405784648L148.56267720222473,149.95923201885117L148.63229420185087,150.51359790121757L148.8179395341873,150.54401377877096L148.88755653381347,150.55320143747232L148.95717353343966,148.01329320077983L149.3284641981125,149.33088008247074L149.74616619586942,150.09185581733175L149.8157831954956,148.76124811635032L149.86219452857972,149.0821591368328L150.25669085979462,149.4906866926088L150.74400985717773,150.03364946915423L151.04568352222444,148.95483762133443L151.6490308523178,149.81706488752636L152.159555516243,150.36019864970402L152.25237818241118,149.71854135067764L152.50764051437378,150.202175204252L152.73969717979432,149.70331747575713L152.7861085128784,150.339688893597L152.92534251213075,150.2287003788737L153.041370844841,150.39027353367297L153.18060484409332,150.45478750806078L153.2502218437195,148.67957988098004L153.31983884334565,149.7443027340464L153.96959750652312,150.29980582298415L154.2248598384857,150.62678364943523L154.36409383773804,150.8387804125848L154.45691650390626,150.81424038573624L155.15308650016786,151.0444567290319L155.29232049942016,151.1880622168474L155.3851431655884,151.2363584703466L155.5243771648407,151.15775064266975L155.6171998310089,150.44544484729565L155.71002249717714,150.6575978720752L155.80284516334532,150.86089369330108L155.89566782951354,150.87335754927497L156.03490182876587,150.43618736092336L156.05810749530792,150.6980082587799L156.15093016147614,150.70297710135847L156.24375282764436,150.83664210936513L156.47580949306487,150.5948555976341L156.522220826149,150.06074035211384L156.70786615848542,147.35599737571465L156.73107182502744,148.95431783397527L157.61288715362548,149.8218045244122L157.65929848670962,150.38336415245993L157.72891548633575,150.8017796174848L157.84494381904602,149.37005932092228L157.98417781829835,150.21099498687056L158.19302881717684,150.27572802696665L158.37867414951324,150.63929120847837L158.47149681568146,150.1967225496835L158.51790814876557,150.2414057233316L158.68034781455992,150.64623048004657L158.74996481418611,150.71791387378627L158.77317048072817,150.03632153383734L159.07484414577485,149.74721415207046L159.12125547885896,150.4222876022143L159.39972347736358,150.496669899332L159.51575181007385,150.73209979686195L159.56216314315796,150.6303454329603L159.7013971424103,150.92926105376355L160.3743614721298,150.70734320647745L160.4903898048401,150.8473596117745L160.8384748029709,151.0528756061626L161.41861646652222,151.0846796182759L161.90593546390534,150.0959280782195L162.0219637966156,150.61038445334546L162.13799212932588,150.91246432353157L162.4164601278305,151.128880005054L162.43966579437256,151.20813719867476L162.6021054601669,151.22087080569378L162.7181337928772,151.30158432964578L162.90377912521362,151.28700354173935L163.22865845680235,151.2420847199524L163.48392078876495,151.19357774978525L164.43535311698915,151.22748246996258L164.48176445007326,150.98379717851026L164.52817578315734,148.37264227028942L164.62099844932555,149.31739779319034L164.64420411586764,150.1320449906739L164.806643781662,150.52566441637262L165.5028137779236,150.74602600451288L165.5956364440918,150.9052357551904L165.61884211063386,151.01900102467727L166.24539510726927,150.04645646459733L166.26860077381133,150.63171787300163L166.8719481039047,150.66262445279594L166.8951537704468,150.62112870615212L166.91835943698885,150.7011946804423L167.01118210315704,150.93814528843018L167.0343877696991,149.9307309563436L167.56811810016632,150.39785786834818L167.9626144313812,150.74214550746086L168.47313909530638,150.26807541399918L169.03007509231566,150.7691237737088L169.169309091568,151.0202788472933L169.4709827566147,151.20964871456792L170.88652841567995,151.07169775949865L170.93293974876403,150.66682598650294L171.0025567483902,150.93499226835283L171.02576241493225,151.11193347157996L171.11858508110046,151.27300925645588L171.48987574577333,151.21799376492245L172.20925140857696,151.25404747121368L172.78939307212832,150.97929877521742L172.85901007175445,151.16809376985228L173.0214497375488,151.2394933689138L173.06786107063294,151.2670629170276L173.2767120695114,151.27774335266076L173.39274040222168,151.33551505212745L173.531974401474,151.3122978011106L173.7408254003525,151.344795062705L173.8800593996048,151.19130814694597L174.20493873119355,151.23757336675135L174.2281443977356,151.0421020608835L174.55302372932434,151.23911184652673L174.90110872745512,151.28191140921996L174.99393139362334,151.33408264981307L175.5044560575485,151.00711384517172L175.52766172409056,150.94882719797124L176.13100905418395,151.0944370268885L176.17742038726809,151.25402793890595L176.22383172035217,151.2895885470372L176.40947705268857,151.37967942400962L176.7111507177353,150.68530078966273L176.8039733839035,150.9731470703215L176.8503847169876,151.19228245092128L177.1056470489502,151.27112772358413L177.12885271549226,151.1402052994663L177.38411504745483,151.12188434521448L177.40732071399688,151.03326819843764L177.80181704521178,150.93594600540953L177.96425671100616,151.00036991955244L178.01066804409027,151.03231462972957L178.31234170913694,151.14842416105367L178.35875304222105,150.57265352346934L178.3819587087631,150.7081642364566L178.42837004184724,150.3656066166139L178.98530603885652,150.6208005419011L179.05492303848268,150.79539545188902L179.10133437156676,150.91623239313867L179.12454003810882,151.15300501303085L179.6814760351181,151.3040533305174L179.95994403362275,151.3638719703852L180.075972366333,151.3896986968429L180.1920006990433,150.99501988967768L180.3312346982956,151.08733193275893L181.25946135997773,151.07797500504333L181.83960302352907,150.53096244695868L181.86280869007112,150.76559330723904L182.09486535549163,150.75428668841158L182.32692202091218,151.0075590432842L182.35012768745423,151.17155353179567L182.51256735324858,151.2605798679543L182.62859568595889,151.24770907049694L184.13696401119233,151.3203480071673L184.22978667736052,151.2816418970395L184.438637676239,151.2285333476916L184.46184334278107,151.28416344407304L184.6474886751175,151.16283420940627L184.76351700782774,149.99825512014442L185.32045300483702,150.58868368919792L185.45968700408937,150.76278318592927L185.50609833717346,150.99981608227313L185.5293040037155,151.1710145165676L185.64533233642578,151.28782767370637L185.738155002594,151.31842896093195L186.1326513338089,150.88566295986092L186.15585700035095,150.9253534867466L186.20226833343506,151.04017209258132L186.68958733081817,151.22586494824796L186.75920433044433,151.3503914491476L186.99126099586488,151.35438621946878L187.0144666624069,151.3585183329482L187.03767232894896,150.64591982635017L187.08408366203307,150.24604762069941L187.15370066165926,150.61365505335795L187.2697289943695,150.84767735071006L187.29293466091156,149.71372218415732L188.1515443229675,148.56618087670213L188.360395321846,149.6718673615533L188.77809731960295,150.3020395500385L188.89412565231325,150.55346951919933L189.14938798427582,150.76367309470155L189.17259365081787,151.06682943238755L189.93838064670564,150.45289843377165L189.98479197978975,150.7537298530391L190.0079976463318,150.67135741523197L190.26325997829437,150.84805647577662L190.30967131137848,150.99899963985948L190.42569964408872,151.19287083157835L190.47211097717286,151.27738060635318L190.70416764259338,151.274023753352L190.7505789756775,150.9527234047956L190.82019597530365,150.90705394363553L190.8898129749298,151.1533206754244L190.93622430801392,150.24562375963785L191.3539263057709,150.44558265672578L191.42354330539703,150.80671936269226L191.84124530315398,151.08610179943219L192.3285643005371,151.15489906041273L192.72306063175202,151.22756618472079L192.90870596408843,151.05549400493672L193.11755696296692,151.10267770305464L193.2799966287613,151.1390472001237L193.34961362838746,151.21554859446655L193.4656419610977,151.13280946901708L193.7673156261444,151.30504679160876L193.79052129268646,151.3066263374828L194.02257795810698,151.4023766269715L194.53310262203217,151.35692639936246L194.62592528820036,151.3799785501118L195.18286128520964,151.2989494368876L195.25247828483583,151.33728733898738L195.322095284462,150.92983207772266L195.39171228408813,151.09645923135662L195.53094628334046,151.24039522280046L195.62376894950867,151.30986703847609L195.67018028259278,151.118833649763L195.73979728221892,151.1629698286998L195.85582561492922,151.2643758305083L196.01826528072357,151.26329024122748L196.1110879468918,151.2612506866296L196.27352761268614,151.14229979435217L196.5519956111908,151.1561108165936L196.5984069442749,151.13755887670393L196.73764094352723,151.28059514930985L196.78405227661133,151.2799242765156L196.92328627586366,151.35945899544706L197.3409882736206,151.3142089189777L197.41060527324674,151.1094848247555L197.7354846048355,151.2620925891335L197.78189593791964,150.95408671813925L197.87471860408783,151.11656481972406L198.1763922691345,151.21239355166765L198.22280360221862,151.33864530292746L198.33883193492892,151.31004990964215L198.54768293380735,151.3712489095511L198.94217926502228,150.94639146723011L199.19744159698487,151.0542987653199L199.7311719274521,151.19518211452092L199.8239945936203,151.2317227856789L200.2649022579193,151.27015135616733L200.84504392147062,151.18192104927238L200.8682495880127,151.29714799538797L201.14671758651735,151.2927480696403L201.42518558502198,151.3025633623164L201.58762525081633,150.9392296252486L201.68044791698455,151.1773498240061L201.75006491661074,151.21874830412742L202.07494424819947,151.1146775021671L202.6550859117508,151.20250778242047L202.91034824371337,151.28165889241L202.95675957679748,151.21061261495117L203.07278790950775,151.2414823807532L203.09599357604978,151.26328193710935L203.23522757530213,151.32402323959815L204.20986557006833,151.34994082995203L204.65077323436736,151.2774177410786L205.3237375640869,151.32749177381808L205.346943230629,151.34943835412375L206.20555289268495,151.4288157791803L206.25196422576906,151.19024145532524L206.29837555885317,151.28201132409382L206.87851722240447,151.2367757209828L207.38904188632966,151.26633851505207L207.52827588558196,150.9961208807481L207.64430421829223,150.71672587432346L207.78353821754456,150.9365512022224L207.99238921642305,151.07947488491735L208.1084175491333,151.2196774237975L208.17803454875948,151.22818055216447L208.68855921268462,151.1981146697739L208.75817621231081,151.19079513717747L208.8974102115631,151.17313838556117L209.29190654277804,151.2278283441116L209.61678587436677,151.05214223685806L209.75601987361907,151.18515409930066L210.01128220558167,151.2171454035323L210.150516204834,151.30756261110602L210.49860120296478,151.34071999223173L210.5450125360489,151.3992141217516L210.56821820259094,151.20876649333027L210.73065786838532,151.0089307472725L211.05553719997405,151.2006418695923L211.0787428665161,151.26584755048555L211.17156553268433,151.3375744026419L211.51965053081514,151.33026894605112L211.61247319698333,151.23468857669482L211.6820901966095,151.32884707298118L212.00696952819823,151.34813067093785L212.14620352745058,151.33502170030079L212.30864319324493,151.33467574016098L212.51749419212342,151.34102355782693L212.8655791902542,151.30492146883202L212.88878485679626,151.35016379282288L213.42251518726349,151.2757005840953L213.74739451885222,151.31157687970205L213.88662851810454,151.33965805081593L214.00265685081482,151.37212401506466L214.18830218315125,151.22336134108193L214.2115078496933,151.3210867031208L214.28112484931944,151.39765285030686L214.62920984745026,151.41189528178114L214.83806084632872,151.405903190997L215.0469118452072,151.22126338561256L215.18614584445956,150.73369860632633L215.3485855102539,151.01352273539283L215.46461384296418,151.04390818864545L215.6966705083847,151.22509883698947L216.1839895057678,151.2864601464384L216.23040083885192,151.36804641530503L216.4392518377304,150.41876595308702L216.71771983623503,150.753147912716L216.8569538354874,150.96148931643432L216.88015950202944,151.13253615947283L217.15862750053407,151.2534036843763L217.29786149978636,151.20403243671157L217.39068416595458,151.2372643458315L217.994031496048,151.35503310273452L218.04044282913208,151.2699459136087L218.1796768283844,151.21052583281727L218.94546382427217,151.25311433680343L219.1311091566086,151.34356583731827L219.15431482315066,151.18632888634642L219.38637148857117,151.25105141704555L219.80407348632812,151.37822850652873L219.87369048595428,151.41959836764607L220.2217754840851,151.4225946792436L220.38421514987945,151.28834876532358L220.6626831483841,151.26942191821982L220.70909448146818,151.29697399991971L220.89473981380462,151.31500913338814L220.96435681343078,151.38216803857787L221.03397381305695,150.90859763398566L221.08038514614105,150.52215268759355L221.26603047847746,150.916267981156L221.4516758108139,149.50823951287305L221.8925834751129,150.23382484638097L222.1014344739914,150.633082819722L222.1478458070755,150.86488681464598L222.33349113941193,151.10307134064166L222.56554780483248,151.2639129862018L222.8440158033371,151.37499408434633L223.2849234676361,151.34134521886085L223.95788779735565,151.36781487861236L224.05071046352387,151.40363278369065L224.14353312969206,151.40086856986332L224.21315012931825,151.40341320579475L224.53802946090698,151.22840708978507L225.2109937906265,151.31354840006358L225.39663912296297,151.34392585420923L225.48946178913116,151.37788527169616L225.62869578838348,151.39687272115893L225.6751071214676,151.35971671594828L226.51051111698152,151.20218919587717L226.7657734489441,151.29168644250578L227.22988677978515,151.34669586923292L227.41553211212158,151.35213031038026L227.67079444408418,150.67220326291886L228.22773044109346,150.79322874891236L228.25093610763548,151.02614269826128L228.52940410614013,151.18667552217153L229.13275143623352,151.1344191452351L229.41121943473814,151.18250126686513L229.7360987663269,151.22519398899715L229.96815543174742,151.29785421271623L230.40906309604645,151.30632114867657L230.50188576221467,151.4134244456268L230.71073676109313,151.43043938737358L231.05882175922395,151.47560402556405L231.24446709156038,151.46738080450876L231.33728975772857,151.37950186037057L231.89422575473785,151.41327677053042L231.98704842090606,151.45329466044015L232.19589941978455,151.13031297875236L232.72962975025177,151.2485607122309L233.58823941230773,151.27412289088548L233.77388474464416,151.3254377414228L234.28440940856936,151.37469743766377L234.30761507511139,151.33900780702785L234.4468490743637,151.26021505276557L234.53967174053193,151.29060153557367L235.25904740333556,151.19075921548244L236.37291939735414,151.31606297742982L237.16191205978393,151.38002394294418L237.64923105716707,151.4003539088709L237.74205372333526,151.36913204511936L238.43822371959686,151.42277818609432L238.60066338539124,151.44139234950325L238.87913138389587,151.48294702563595L239.01836538314816,151.46029538491987L239.52889004707336,151.4448534657844L239.92338637828828,151.39193710415728L240.06262037754058,151.36354210633533L240.29467704296113,151.36104265731086L240.48032237529756,151.344542704551L241.36213770389557,151.41828184491482L241.5941943693161,151.34148191159974L241.8958680343628,151.42490953930925L241.96548503398895,151.41193793308747L242.10471903324125,151.40153281185445L242.17433603286744,151.43720569797378L242.42959836483004,151.47565345339487L242.49921536445618,151.4719606756924L242.8240946960449,151.4620713422697L242.89371169567107,151.27362786799327L242.91691736221313,151.33433755950705L243.05615136146545,151.36422726123538L243.729115691185,151.3156431162816L243.79873269081114,151.04776061339695L243.89155535697938,151.25197373783232L244.19322902202606,151.23209532356375L244.610931019783,151.33785687338164L244.9126046848297,151.4148680438786L244.95901601791383,151.45068251902632L245.02863301754,151.36689929272092L245.05183868408204,151.44750586509568L245.28389534950256,151.40046954889092L245.8176256799698,151.1328987650204L245.84083134651183,151.30982410882459L246.28173901081084,151.30239747810663L246.39776734352114,151.38665140156675L246.72264667510987,151.30187343584882L247.14034867286682,151.37590618792188L247.37240533828734,151.3690395233584L248.27742633342743,151.35107607546627L248.4862773323059,151.25735299522594L248.57909999847413,151.222906191015L248.90397933006287,151.10915151724103L249.1360359954834,151.25822929635288L249.46091532707214,151.3683254541319L249.5305323266983,151.37054518201802L249.69297199249266,151.37839385135982L249.71617765903474,151.3212895460181L249.83220599174498,151.34367327703941L250.1338796567917,151.3241337412046L250.22670232295988,151.36466036400373L250.27311365604402,151.29292053867857L250.29631932258607,151.3882147321744L250.31952498912813,151.42682405950404L250.48196465492248,151.44690476472545L250.94607798576354,150.87544602184536L251.0621063184738,151.04875019220566L251.7582763147354,151.2365067704305L252.013538646698,151.32561914157566L252.03674431324006,151.36948484047622L252.54726897716523,151.13081210776522L252.6168859767914,151.21110883386763L252.77932564258575,151.34495044138328L252.8489426422119,151.2820200524592L253.1042049741745,151.23211506009773L253.4058786392212,151.27678787000963L253.4522899723053,151.3883103798882L253.5451126384735,151.45038446278238L253.8931976366043,151.42633598095813L254.21807696819306,151.3669831641075L254.31089963436128,151.4137959101161L254.9374526309967,151.41375320630664L255.26233196258545,151.35507609052996" fill="none"></path></g></g></g></g><g opacity="0.2"><g><g><g><path style="fill: none;" stroke="rgb(255, 112, 67)" stroke-width="2px" d="M35.319024477005,-13.46362192792835L35.41184714317322,8.349065163183173L35.6671094751358,6.676957742734111L35.829549140930176,-3.479275232714188L36.08481147289276,28.806520999369763L36.17763413906098,15.640976681359462L36.45610213756561,15.896251426205186L36.59533613681793,15.040868944703629L37.036243801116946,4.914617255375812L37.639591131210324,5.31873799948205L37.68600246429443,11.688652667316749L38.1501157951355,20.913537716045017L38.17332146167755,53.71306473184607L38.521406459808354,46.01327275844233L38.75346312522888,36.74625966458657L38.79987445831299,19.809821494844595L38.96231412410736,28.26425497227112L39.49604445457459,37.72532700169124L40.006569118499755,61.793551556985356L40.02977478504181,50.274567904369704L40.12259745121003,43.548348305662714L40.30824278354645,56.81068108433205L40.586710782051085,52.82962902120926L41.0740297794342,39.84214076578585L41.120441112518314,70.93398770976015L41.16685244560242,45.65696782757004L41.28288077831268,48.554066253591124L41.53814311027527,55.42084120652205L41.58455444335938,75.11623251929268L41.60776010990143,44.77073643430465L42.09507910728455,56.526678290406245L42.23431310653687,52.003263797335556L42.41995843887329,57.00599325693681L42.744837770462034,60.904717286789875L43.30177376747131,69.08642710365424L43.39459643363952,62.2103010743449L43.78909276485443,53.092230382598906L43.83550409793854,67.00798167356592L44.06756076335907,102.68041000022329L44.34602876186371,81.14979764605232L44.55487976074219,81.05397321388591L45.18143275737763,79.11463709528263L45.297461090087886,113.1717392797062L45.41348942279816,64.43431480681882L45.599134755134585,102.02140012266837L45.90080842018127,76.63351696382702L46.063248085975644,77.00977728449652L46.13286508560181,85.11812453307252L46.24889341831207,80.537735956088L46.272099084854126,77.06376288008323L46.4345387506485,87.18991816656178L46.50415575027466,62.37601757222624L48.10534674167633,81.65649102177329L48.476637406349184,99.6580842730109L48.70869407176971,98.38296378582268L49.38165840148926,76.6101874743056L49.98500573158264,106.9578044219774L50.10103406429291,89.80860516391424L50.12423973083496,112.37255965932438L50.37950206279755,97.432238886401L50.56514739513398,111.80889219968958L51.14528905868531,107.59512365844837L51.168494725227355,93.6216270607734L51.21490605831146,94.97232738178302L51.23811172485352,94.98418493224226L51.609402389526366,115.6136234515122L51.98069305419922,105.24684665327577L52.09672138690948,98.36040551909537L52.14313271999359,115.29510843755061L52.49121771812439,104.87126115255107L52.79289138317108,122.42920849148504L52.8857140493393,85.63359056807636L53.34982738018036,88.12647184714191L53.69791237831116,96.86163042161934L54.022791709899906,118.08789898067023L54.27805404186248,111.70525913673296L54.32446537494659,120.41660620744264L54.3708767080307,98.37448033508763L54.4172880411148,114.53410434547655L54.46369937419891,103.11277677916328L54.67255037307739,112.4232675580362L54.834990038871766,120.45391411010705L55.04384103775024,107.34852517003621L55.20628070354462,111.94163892312334L55.60077703475952,114.55405973527377L56.34335836410523,109.26250733928359L56.48259236335755,118.58283120878123L56.80747169494629,89.63324838110671L56.96991136074066,111.85892527845654L57.20196802616119,121.24750236523168L57.27158502578735,114.35884396551826L57.36440769195556,112.99011631169665L57.80531535625458,118.6749923326757L57.92134368896484,117.72060412498209L57.9445493555069,102.89037540591589L58.640719351768496,95.80939332192482L58.872776017189025,129.70338188539714L58.965598683357236,93.2206876106928L59.0352156829834,108.19860549482837L59.15124401569366,113.69462833410321L59.360095014572146,122.32085168891459L59.4297120141983,116.99391944724525L59.638563013076784,126.86721006010961L59.66176867961883,115.40818897973493L59.80100267887116,119.66100067492725L59.824208345413204,132.4673479765874L60.40435000896454,123.17363129348605L60.61320100784302,91.31277882094894L60.70602367401123,129.00320799120738L60.845257673263546,123.95391595541255L60.93808033943176,128.26225569177979L61.2165483379364,127.75218821633462L61.378988003730775,89.4496973561119L61.703867335319515,105.43039767827058L62.12156933307647,129.51317906380322L62.88735632896423,119.99725381315302L63.37467532634735,114.44840221248265L63.93161132335663,105.55215447688845L64.11725665569305,111.73803610548202L64.69739831924439,119.33593026721583L64.83663231849671,100.16082513191213L64.90624931812286,126.46964470975323L65.43997964859008,126.33400590084162L66.02012131214143,128.968117354076L66.04332697868347,124.37095468131989L66.13614964485168,124.51661938655472L66.78590830802918,109.02497071870206L66.92514230728149,119.18978354773466L66.94834797382354,132.86327447850636L67.22681597232818,140.59285493233205L67.38925563812256,119.72886828080769L67.50528397083282,132.73322703485195L67.55169530391693,123.31254779927258L67.64451797008515,132.02842580389762L67.73734063625335,130.59452982397488L67.87657463550568,119.50241798789129L67.92298596858978,139.67153290193528L68.15504263401031,136.7972819511893L68.89762396335603,130.87265204409567L69.06006362915039,114.64978776459093L69.1064749622345,123.50400385790688L69.17609196186066,114.50441226790386L69.66341095924376,121.2486591994228L69.82585062503814,107.0615338877833L69.96508462429045,121.19997576054553L69.98829029083252,129.90939477426997L70.31316962242127,142.6802658274017L70.80048861980437,141.4091942598825L70.9397226190567,127.86748602405196L71.65909828186035,135.84578582897353L71.77512661457061,137.86205142128787L72.0303889465332,130.13796592987015L72.12321161270143,137.2616544760843L72.40167961120606,135.32733130564262L72.86579294204712,122.84576520314606L72.98182127475738,113.99694766938879L73.23708360671998,129.39807406178443L73.26028927326202,127.98798958562944L73.58516860485076,134.45363228278126L74.09569326877595,142.61365145856172L74.11889893531799,132.83753491775343L74.14210460186004,126.76299858005741L74.28133860111237,138.76303245049036L74.32774993419648,133.38847720128564L74.39736693382262,116.20476572318667L74.74545193195344,145.44008659607374L75.23277092933655,136.71177262389392L75.53444459438323,141.952520718323L76.09138059139252,126.03891677925067L76.32343725681305,133.5777159943869L76.53228825569153,134.51378766072077L76.60190525531769,144.8422925278002L76.85716758728027,129.730567488889L76.90357892036438,128.33147293754988L76.94999025344848,125.468308314469L77.22845825195313,143.1961174738026L77.34448658466339,136.22397420662827L77.80859991550444,128.75391022301588L78.27271324634553,143.3524828953055L78.50476991176605,131.0673857996049L78.55118124485017,139.38753010800946L78.89926624298096,140.50763481358445L79.03850024223327,136.79641432554595L79.06170590877532,125.9935110372483L79.08491157531738,141.56459565289282L79.36337957382202,140.8329944298436L79.50261357307433,133.7922123339948L79.5722305727005,142.23363142677096L79.64184757232665,131.48818423663346L79.73467023849487,122.61198829368577L80.221989235878,131.11057427607426L80.29160623550415,135.258306865571L80.33801756858826,135.15486660831294L80.94136489868164,146.8537379776514L81.38227256298066,140.92949368195485L81.63753489494324,144.8036349852461L81.82318022727966,139.7769012161786L82.56576155662536,135.71168946565012L82.63537855625152,140.21881187719555L82.7514068889618,136.72430499429797L82.98346355438233,120.95424489777672L83.23872588634491,141.91251353587933L83.37795988559724,140.46917007672891L83.63322221755982,132.09465456134058L83.8884845495224,144.10037619987997L84.51503754615783,142.7332873944958L84.56144887924194,140.051552933726L84.60786021232606,141.89901713698265L85.69852653980256,134.29495319289603L85.81455487251282,138.7773964750304L85.95378887176513,143.09566570487158L86.0234058713913,137.77924137377187L86.4179022026062,120.85986650834926L86.55713620185853,141.90239123670682L86.74278153419495,147.0927206409719L86.97483819961549,144.01756615236394L87.06766086578368,141.77022293036862L87.57818552970886,145.53986354505986L88.18153285980225,146.17139861057512L88.66885185718537,145.5618433946916L88.9937311887741,146.03055404780338L89.17937652111053,140.2899571799509L89.22578785419465,123.27369745102001L89.24899352073669,143.99635752552632L89.27219918727874,145.4242765287948L89.48105018615723,148.2335519591382L89.92195785045624,135.15072128579465L90.13080884933471,147.6155132925196L90.7805675125122,149.78370977527084L90.80377317905426,145.79427066426223L90.87339017868041,120.85629960292654L91.38391484260559,145.0944823814695L91.68558850765228,144.79274146327953L91.87123383998872,140.70477864032517L92.19611317157745,144.9819802563808L92.31214150428772,140.72107072185048L92.428169836998,144.02508557460638L92.72984350204469,142.7840916960569L92.89228316783905,146.66102868197672L93.07792850017547,147.99138800179207L93.5652474975586,140.71249086826614L93.72768716335297,146.36246905781235L93.98294949531555,141.90412648799352L94.40065149307252,145.41184056123998L94.60950249195099,143.33088865707083L95.12002715587616,149.32300055864783L95.16643848896027,134.73040486301244L95.97863681793213,144.65016164922105L96.28031048297882,145.57235130526118L96.4891614818573,136.51385757435906L96.55877848148346,142.09037679276767L96.99968614578246,143.3056311105642L97.0925088119507,135.40175430527285L97.16212581157684,122.72101991620107L97.34777114391328,138.26443691410742L97.95111847400665,138.67858355453686L98.43843747138976,146.9835926156073L98.50805447101594,148.20492031290738L99.80757179737091,144.92982631493004L100.1092454624176,142.93958949191648L100.27168512821197,147.2314443410599L100.29489079475404,142.53460112216686L100.36450779438019,142.6872068325486L101.24632312297821,149.36792428640393L101.57120245456696,145.8161541110447L101.61761378765107,143.70416048941325L101.73364212036132,146.2546906723375L101.80325911998749,148.5322079861518L101.8496704530716,148.20318506162067L101.96569878578185,147.34510330033976L102.26737245082856,143.59676771533537L102.5458404493332,143.6221216646913L102.77789711475371,145.05621045031253L103.00995378017426,143.6231820960332L103.0795707798004,149.14369125902053L103.2420104455948,141.5791524831314L103.334833111763,150.01093129098132L103.70612377643586,143.08785707408137L103.77574077606201,140.51775711275695L103.84535777568817,116.40557285819939L104.37908810615541,145.48337147539237L104.4719107723236,147.5595032370984L104.58793910503387,150.20768950632504L104.91281843662262,150.21135281459698L104.93602410316468,147.89807004370647L105.1680807685852,140.52325207516486L105.26090343475342,147.25776231890842L105.33052043437957,149.36532140947384L105.37693176746369,145.3085931096804L105.42334310054778,134.52612722542625L105.56257709980011,140.10602054355905L105.79463376522065,141.54502587449264L106.1659244298935,143.0853506000006L106.18913009643555,146.73978980982378L106.39798109531402,148.52497777245713L106.97812275886535,148.6600381642732L107.25659075736999,141.39984318350406L107.27979642391205,142.20712064322393L107.34941342353821,147.85526717863416L107.53505875587463,145.80921310589787L107.76711542129517,148.47224541391083L107.92955508708954,149.90768383942174L108.76495908260345,150.64227355079805L109.06663274765015,146.15857703162328L109.13624974727631,150.18252836266765L109.39151207923888,148.862002133477L109.46112907886506,144.2608869439012L109.55395174503327,150.09171687866288L109.62356874465942,148.72559210177133L109.92524240970612,143.8021057842634L110.31973874092103,149.16133298043547L110.41256140708924,148.9478006693202L110.6214124059677,147.42752773645876L110.94629173755645,149.0969358771285L111.08552573680878,149.16972002832125L111.20155406951903,146.39977696047677L111.41040506839752,139.67538901590575L111.78169573307036,148.65415759046817L111.85131273269654,145.58922180388203L111.89772406578064,149.23932288548843L112.64030539512635,140.9454001520831L112.7099223947525,146.67057256405366L113.05800739288331,149.37486529155075L113.89341138839721,142.31644147428702L113.91661705493928,144.52445233378344L114.1022623872757,149.2315142546982L114.19508505344392,150.21038878610437L114.40393605232238,149.9916507211289L114.58958138465881,149.52351848511276L114.82163805007934,148.6129935738333L115.12331171512604,147.83945711135522L115.14651738166809,140.87531528066967L115.26254571437835,139.54987250616665L115.42498538017273,148.21793469755772L115.58742504596711,150.6152807530047L115.77307037830353,150.33089234768187L115.79627604484558,147.69841974288494L115.8890987110138,144.4413530777196L116.12115537643432,142.0526832787062L116.91014803886414,144.9196076129083L117.04938203811646,146.34376690505556L117.23502737045288,149.77860042425996L117.722346367836,149.6578076541347L117.74555203437805,145.21932407126377L118.04722569942474,150.07176148886566L118.20966536521911,149.16432146876258L118.23287103176116,135.96995269882296L118.25607669830323,146.55807043896493L118.5113390302658,148.17571024958096L118.9522466945648,150.6974159805759L119.02186369419098,149.74823352674244L119.32353735923766,149.8344176739826L119.62521102428435,147.82162258424174L119.71803369045257,150.77183898020616L119.78765069007873,144.84364216768986L120.13573568820954,150.1539931192861L120.18214702129363,147.37392775226908L120.2981753540039,148.52806266363353L120.50702635288239,150.26543481303298L120.53023201942445,149.64951700909813L120.64626035213472,146.89625163417594L121.0407566833496,149.06473732547497L121.11037368297578,145.16572408707412L121.17999068260193,144.56908685299172L121.203196349144,148.57067272300733L121.31922468185424,138.93887124754423L121.48166434764863,132.78345291931743L121.76013234615327,147.93335348653636L121.80654367923736,148.24965123496492L121.87616067886351,149.90565937958723L121.92257201194764,149.7648148168155L122.01539467811584,149.66426664503524L122.085011677742,148.73822087502464L122.22424567699433,146.01561160616774L122.31706834316253,147.9794340484836L122.75797600746155,150.0802449396007L123.57017433643341,150.04139459134814L123.84864233493805,146.0913842456877L124.35916699886322,150.54413545024937L124.8696916627884,147.0100069963051L125.14815966129304,145.69314407538644L125.3105993270874,149.07485962464747L125.35701066017151,150.6916318096202L125.38021632671355,151.04244177808454L125.44983332633973,149.87847377609538L125.49624465942382,151.05940867955465L125.75150699138642,148.45739937512448L125.79791832447052,149.6275371594664L125.91394665718079,150.5079843817761L126.07638632297515,148.9487646978128L126.49408832073212,149.71160044402285L126.77255631923676,149.7744551017417L126.7957619857788,150.1783830401494L127.25987531661988,149.70215296479518L127.42231498241425,149.66349542224117L127.65437164783476,147.787495975603L127.77039998054504,149.39472427849873L128.00245664596557,150.82804184132587L128.4433643102646,149.17492578218145L128.51298130989076,143.60930008573945L128.60580397605895,150.33108515338034L129.0235059738159,143.43230445449444L129.11632863998412,149.55639185671106L129.2787683057785,150.71486489629234L129.30197397232055,150.65162462717643L129.34838530540466,150.4319225337084L129.487619304657,150.72421597267072L129.5804419708252,149.35442788750726L129.83570430278778,150.09094565586878L130.0213496351242,150.37147794722114L130.11417230129243,150.94835259720486L130.1605836343765,150.2389240294859L130.46225729942321,150.99915689876588L130.55507996559143,150.74417136246797L130.5782856321335,130.8424779522767L130.64790263175965,149.29485092666332L130.7175196313858,151.18087626962475L130.94957629680633,151.21895539508324L131.0656046295166,150.46566353095008L131.1120159626007,149.73386950220237L131.25124996185303,149.69665800238727L131.34407262802125,149.57470839807087L131.5065122938156,143.8545489342619L131.57612929344177,150.74725625364437L131.62254062652588,150.46045777708997L131.69215762615204,151.0638432106207L131.87780295848847,148.01847720243467L131.92421429157258,150.3551858656959L132.06344829082488,150.31296141771912L132.2026822900772,150.71438288204598L132.22588795661926,150.6390922567724L132.57397295475008,148.72019354221266L132.92205795288086,149.38151708814985L133.22373161792754,150.46575993379935L133.2933486175537,146.69573370771104L133.71105061531068,150.5633196172525L133.80387328147887,149.38508399357255L134.12875261306763,141.7996257993935L134.1519582796097,149.05654308328772L134.4304262781143,150.6033267996962L134.5928659439087,147.60519818764857L135.01056794166564,139.30096034937225L135.5442982721329,148.52141086703446L135.61391527175903,151.185021592143L135.9852059364319,149.77416589319392L136.00841160297395,148.270281444707L136.65817026615144,150.91480440566164L136.98304959774018,145.15656581639422L137.19190059661864,149.88541478124222L137.3079289293289,140.68328080493978L137.84165925979613,150.9142259885661L138.67706325531006,132.41567604938297L138.72347458839417,147.9108916226583L139.44285025119783,150.51068366155545L139.46605591773988,149.6433472267454L139.97658058166505,149.56738178152696L140.11581458091734,151.15436548607767L140.23184291362764,150.10077874649352L140.46389957904813,150.06944782048336L140.51031091213227,150.1055988889566L140.53351657867432,150.8347900407742L140.62633924484254,151.17113958184927L140.78877891063692,151.00378423553047L141.02083557605744,150.29233120797704L141.27609790802,151.28913666934596L141.41533190727233,150.97283892091735L141.50815457344055,148.33573897935588L141.7402112388611,151.24324891309726L142.06509057044983,147.09860121477686L142.27394156932831,151.39913232035389L142.32035290241242,149.33331566351885L142.6220265674591,151.1802014496799L142.8308775663376,150.8683382323174L142.85408323287965,149.44128685469227L143.15575689792632,150.71843180171498L143.3646078968048,151.24922588975147L143.41101922988892,150.48205201532465L143.5038418960571,150.55329372092925L143.85192689418793,149.55986235928452L144.03757222652436,150.10444205476546L144.15360055923463,150.6953915207414L144.2232175588608,151.00735114095318L144.82656488895415,150.60631528802332L144.87297622203826,151.01294250621035L145.03541588783264,151.15754678010336L145.26747255325316,150.7856245876506L145.38350088596346,148.30643251318025L145.94043688297273,151.0835093918701L146.01005388259887,149.12450709201738L146.26531621456147,146.54746612554612L147.00789754390718,135.07465943772695L147.56483354091645,150.92820440170908L147.88971287250519,150.63494693425415L148.0753582048416,149.37313004026404L148.30741487026214,151.0049410697216L148.56267720222473,150.59522896035818L148.63229420185087,151.34514672476718L148.8179395341873,150.589637595101L148.88755653381347,150.56698292552443L148.95717353343966,144.20343084574102L149.3284641981125,151.30726040500718L149.74616619586942,151.23331941962323L149.8157831954956,146.76533656487817L149.86219452857972,149.56352566755646L150.25669085979462,150.10347802627285L150.74400985717773,150.84809363397238L151.04568352222444,147.3366198496047L151.6490308523178,151.11040578681423L152.159555516243,151.17489929297048L152.25237818241118,148.7560554021381L152.50764051437378,150.92762598461348L152.73969717979432,148.95503088301484L152.7861085128784,151.29424602035684L152.92534251213075,150.0622176067887L153.041370844841,150.63263326587185L153.18060484409332,150.55155846964254L153.2502218437195,146.01676844035893L153.31983884334565,151.34138701364594L153.96959750652312,151.13306045639078L154.2248598384857,151.1172503891118L154.36409383773804,151.15677555730923L154.45691650390626,150.77743034546333L155.15308650016786,151.38978124397545L155.29232049942016,151.40347044857066L155.3851431655884,151.30880285059538L155.5243771648407,151.03983890115447L155.6171998310089,149.37698615423454L155.71002249717714,150.9758274092445L155.80284516334532,151.16583742513984L155.89566782951354,150.89205333323585L156.03490182876587,149.7804320783959L156.05810749530792,151.0907396055648L156.15093016147614,150.71043036522627L156.24375282764436,151.03713962137513L156.47580949306487,150.23217583003756L156.522220826149,149.25956748383345L156.70786615848542,143.29888291111587L156.73107182502744,151.35179852136622L157.61288715362548,151.12303456006754L157.65929848670962,151.22570359453158L157.72891548633575,151.42940281502212L157.84494381904602,147.2224788760785L157.98417781829835,151.47239848579298L158.19302881717684,150.3728275871108L158.37867414951324,151.18463598074595L158.47149681568146,149.53286956149117L158.51790814876557,150.3084304838038L158.68034781455992,151.253467615119L158.74996481418611,150.8254389643958L158.77317048072817,149.01393302391392L159.07484414577485,149.31355307942016L159.12125547885896,151.43489777743008L159.39972347736358,150.6082433450086L159.51575181007385,151.08524464315684L159.56216314315796,150.47771388710785L159.7013971424103,151.37763448496844L160.3743614721298,150.37446643554827L160.4903898048401,151.05738421972015L160.8384748029709,151.36114959774463L161.41861646652222,151.13238563644595L161.90593546390534,148.61280076813483L162.0219637966156,151.38206901603448L162.13799212932588,151.36558412881067L162.4164601278305,151.45350352733763L162.43966579437256,151.3270229891059L162.6021054601669,151.23997121622233L162.7181337928772,151.42265461557378L162.90377912521362,151.26513235987971L163.22865845680235,151.17470648727198L163.48392078876495,151.12081729453453L164.43535311698915,151.27833955022862L164.48176445007326,150.6182692413318L164.52817578315734,144.4559099079582L164.62099844932555,150.73453107754176L164.64420411586764,151.35401578689925L164.806643781662,151.1160935549207L165.5028137779236,151.0765683867233L165.5956364440918,151.14405038120668L165.61884211063386,151.1896489289076L166.24539510726927,148.58763962447742L166.26860077381133,151.50960998560808L166.8719481039047,150.7089843224873L166.8951537704468,150.55888508618642L166.91835943698885,150.82129364187753L167.01118210315704,151.293571200412L167.0343877696991,148.41960945821378L167.56811810016632,151.09854823635501L167.9626144313812,151.25857696612988L168.47313909530638,149.55697027380666L169.03007509231566,151.52069631327322L169.169309091568,151.3970114576701L169.4709827566147,151.49370351547987L170.88652841567995,150.8647713268947L170.93293974876403,150.05951832700936L171.0025567483902,151.33724169112764L171.02576241493225,151.37734527642064L171.11858508110046,151.51462293376972L171.48987574577333,151.13547052762232L172.20925140857696,151.30812803065055L172.78939307212832,150.56717573122296L172.85901007175445,151.45128626180457L173.0214497375488,151.34659276750608L173.06786107063294,151.30841723919835L173.2767120695114,151.2937640061105L173.39274040222168,151.42217260132747L173.531974401474,151.27747192458523L173.7408254003525,151.39354095509665L173.8800593996048,150.9610777733074L174.20493873119355,151.30697119645941L174.2281443977356,150.7488951020818L174.55302372932434,151.53462652499155L174.90110872745512,151.34611075325978L174.99393139362334,151.41233951070276L175.5044560575485,150.51666063820966L175.52766172409056,150.86139722717053L176.13100905418395,151.3128517702644L176.17742038726809,151.49341430693207L176.22383172035217,151.3429294592341L176.40947705268857,151.51481573946825L176.7111507177353,149.64373283814243L176.8039733839035,151.4049164913096L176.8503847169876,151.52098552182102L177.1056470489502,151.3893956325784L177.12885271549226,150.9438216632895L177.38411504745483,151.09440291383675L177.40732071399688,150.90034397827236L177.80181704521178,150.78996271586738L177.96425671100616,151.0970057907668L178.01066804409027,151.08023169499523L178.31234170913694,151.32258845803986L178.35875304222105,149.7089975670928L178.3819587087631,150.91143030593747L178.42837004184724,149.85177018684982L178.98530603885652,151.00359142983194L179.05492303848268,151.05728781687088L179.10133437156676,151.09748780501315L179.12454003810882,151.50816394286917L179.6814760351181,151.5306258067472L179.95994403362275,151.45359993018687L180.075972366333,151.4284387865295L180.1920006990433,150.4030016789298L180.3312346982956,151.22579999738082L181.25946135997773,151.06393961346993L181.83960302352907,149.71044360983174L181.86280869007112,151.1175395976596L182.09486535549163,150.73732676017033L182.32692202091218,151.38746757559315L182.35012768745423,151.41754526456288L182.51256735324858,151.39411937219225L182.62859568595889,151.22840287431092L184.13696401119233,151.42930641217285L184.22978667736052,151.22358273184778L184.438637676239,151.14887052366976L184.46184334278107,151.36760858864517L184.6474886751175,150.98084035740612L184.76351700782774,148.25138648625165L185.32045300483702,151.47432654277821L185.45968700408937,151.02393243102625L185.50609833717346,151.35536542678892L185.5293040037155,151.42781216800932L185.64533233642578,151.46304740941454L185.738155002594,151.3643308917703L186.1326513338089,150.23651395825436L186.15585700035095,150.98488927707513L186.20226833343506,151.21240000133338L186.68958733081817,151.50440423174797L186.75920433044433,151.53718120049703L186.99126099586488,151.36037837495056L187.0144666624069,151.36471650316736L187.03767232894896,149.57702206645314L187.08408366203307,149.64623931222326L187.15370066165926,151.16506620234577L187.2697289943695,151.19871079673823L187.29293466091156,148.01278943432823L188.1515443229675,146.84486891551933L188.360395321846,151.33039708883007L188.77809731960295,151.24729783276626L188.89412565231325,150.93061447294062L189.14938798427582,151.07897845795483L189.17259365081787,151.5215639389166L189.93838064670564,149.5320019358478L189.98479197978975,151.2049769819402L190.0079976463318,150.5477987585213L190.26325997829437,151.11310506659356L190.30967131137848,151.22541438598378L190.42569964408872,151.4836776191566L190.47211097717286,151.4041452685155L190.70416764259338,151.2689884738502L190.7505789756775,150.47077288196095L190.82019597530365,150.8385497518954L190.8898129749298,151.52272077310772L190.93622430801392,148.88407838595805L191.3539263057709,150.74552100235763L191.42354330539703,151.34842442164205L191.84124530315398,151.50517545454204L192.3285643005371,151.2580949518836L192.72306063175202,151.3365668711828L192.90870596408843,150.79738573526055L193.11755696296692,151.17345325023157L193.2799966287613,151.19360144572732L193.34961362838746,151.33030068598083L193.4656419610977,151.00870078084284L193.7673156261444,151.5634027754963L193.79052129268646,151.30899565629392L194.02257795810698,151.5460020612045L194.53310262203217,151.2887510579489L194.62592528820036,151.41455677623577L195.18286128520964,151.1774057670513L195.25247828483583,151.39479419213708L195.322095284462,150.31864918582556L195.39171228408813,151.34639996180755L195.53094628334046,151.4562992099662L195.62376894950867,151.41407476198947L195.67018028259278,150.83228356669343L195.73979728221892,151.229174097105L195.85582561492922,151.416484833221L196.01826528072357,151.26166185730625L196.1110879468918,151.25819135473284L196.27352761268614,150.96387345593604L196.5519956111908,151.17682734995574L196.5984069442749,151.1097309668694L196.73764094352723,151.49514955821877L196.78405227661133,151.27891796732416L196.92328627586366,151.47876107384428L197.3409882736206,151.24633380427363L197.41060527324674,150.80239868342218L197.7354846048355,151.49100423570053L197.78189593791964,150.49207791164787L197.87471860408783,151.3602819721013L198.1763922691345,151.356136649583L198.22280360221862,151.52802292981715L198.33883193492892,151.26715681971422L198.54768293380735,151.46304740941454L198.94217926502228,150.30910530374862L199.19744159698487,151.2161597124546L199.7311719274521,151.4065071383224L199.8239945936203,151.28653379241587L200.2649022579193,151.32779421189997L200.84504392147062,151.04957558892994L200.8682495880127,151.46998841456144L201.14671758651735,151.28614818101883L201.42518558502198,151.31728630133043L201.58762525081633,150.39422901964696L201.68044791698455,151.53453012214231L201.75006491661074,151.2808460243094L202.07494424819947,150.9585712992266L202.6550859117508,151.33425320280054L202.91034824371337,151.40038555739426L202.95675957679748,151.10404319876292L203.07278790950775,151.2877870294563L203.09599357604978,151.29598127164354L203.23522757530213,151.41513519333134L204.20986557006833,151.38881721548282L204.65077323436736,151.16863310776847L205.3237375640869,151.4026028229273L205.346943230629,151.38235822458228L206.20555289268495,151.5478819167651L206.25196422576906,150.83237996954267L206.29837555885317,151.41966612724667L206.87851722240447,151.16892231631624L207.38904188632966,151.310682706156L207.52827588558196,150.59079442929215L207.64430421829223,150.29763336468645L207.78353821754456,151.26628919407085L207.99238921642305,151.2938604089598L208.1084175491333,151.42998123211768L208.17803454875948,151.24093524471496L208.68855921268462,151.153015846188L208.75817621231081,151.17981583828288L208.8974102115631,151.14665325813672L209.29190654277804,151.30986328193725L209.61678587436677,150.7886130759777L209.75601987361907,151.38467189296458L210.01128220558167,151.26513235987971L210.150516204834,151.44318842246656L210.49860120296478,151.39045606392028L210.5450125360489,151.48695531603153L210.56821820259094,150.9230950506982L210.73065786838532,150.70917712818587L211.05553719997405,151.48820855307196L211.0787428665161,151.36365607182546L211.17156553268433,151.44516468087645L211.51965053081514,151.31931076116493L211.61247319698333,151.09131802266035L211.6820901966095,151.47008481741068L212.00696952819823,151.37705606787284L212.14620352745058,151.3153582443452L212.30864319324493,151.33415679995127L212.51749419212342,151.35054528432585L212.8655791902542,151.25076833533967L212.88878485679626,151.41802727880923L213.42251518726349,151.1640057710039L213.74739451885222,151.3653913231122L213.88662851810454,151.38177980748668L214.00265685081482,151.4208229614378L214.18830218315125,151.00021733010777L214.2115078496933,151.46767474617914L214.28112484931944,151.51250207108598L214.62920984745026,151.43325892899261L214.83806084632872,151.39691505482082L215.0469118452072,150.94430367753586L215.18614584445956,150.002351437397L215.3485855102539,151.43325892899261L215.46461384296418,151.08948636852438L215.6966705083847,151.4968848095055L216.1839895057678,151.3785021106118L216.23040083885192,151.49042581860493L216.4392518377304,148.99484525976004L216.71771983623503,151.25472085215944L216.8569538354874,151.27400142201182L216.88015950202944,151.38910642403062L217.15862750053407,151.43470497173152L217.29786149978636,151.1299755652144L217.39068416595458,151.28711220951146L217.994031496048,151.5316862380891L218.04044282913208,151.14231512991995L218.1796768283844,151.1213957116301L218.94546382427217,151.31699709278263L219.1311091566086,151.47924308809056L219.15431482315066,150.9504734598886L219.38637148857117,151.34813521309428L219.80407348632812,151.56899414075346L219.87369048595428,151.4816531593221L220.2217754840851,151.42708914663984L220.38421514987945,151.08697989444357L220.6626831483841,151.2410316475642L220.70909448146818,151.33830212246954L220.89473981380462,151.34206183359078L220.96435681343078,151.48290639636252L221.03397381305695,150.19824202709736L221.08038514614105,149.94248526800533L221.26603047847746,151.50744092149972L221.4516758108139,147.3961968104486L221.8925834751129,151.32220284664282L222.1014344739914,151.23196977973356L222.1478458070755,151.21259280703194L222.33349113941193,151.4603481296352L222.56554780483248,151.50517545454204L222.8440158033371,151.54161573156307L223.2849234676361,151.29087192063267L223.95788779735565,151.40751936823966L224.05071046352387,151.45735964130807L224.14353312969206,151.39672224912232L224.21315012931825,151.4072301596919L224.53802946090698,150.96589791577054L225.2109937906265,151.44126036548136L225.39663912296297,151.38949203542765L225.48946178913116,151.42882439792658L225.62869578838348,151.4253538953531L225.6751071214676,151.3039827081323L226.51051111698152,150.96589791577054L226.7657734489441,151.42593231244868L227.22988677978515,151.4292100093236L227.41553211212158,151.3602819721013L227.67079444408418,149.65231269172676L228.22773044109346,150.97476697790262L228.25093610763548,151.3755136222847L228.52940410614013,151.4274747580369L229.13275143623352,151.05603457983048L229.41121943473814,151.25462444931014L229.7360987663269,151.2892330721952L229.96815543174742,151.40684454829483L230.40906309604645,151.31902155261713L230.50188576221467,151.57407939105207L230.71073676109313,151.4559617999938L231.05882175922395,151.54335098284977L231.24446709156038,151.4550459729258L231.33728975772857,151.2476834441633L231.89422575473785,151.4639391357702L231.98704842090606,151.51332149530467L232.19589941978455,150.64584045622072L232.72962975025177,151.42593231244868L233.58823941230773,151.31246615886735L233.77388474464416,151.40241001722876L234.28440940856936,151.44858698202523L234.30761507511139,151.285473361074L234.4468490743637,151.14202592137218L234.53967174053193,151.33618125978577L235.25904740333556,151.04099573534558L236.37291939735414,151.5040186203509L237.16191205978393,151.47596539121565L237.64923105716707,151.43084885776108L237.74205372333526,151.32229924949206L238.43822371959686,151.50324739755678L238.60066338539124,151.4693135946166L238.87913138389587,151.54527903983504L239.01836538314816,151.42631792384572L239.52889004707336,151.42169058708117L239.92338637828828,151.3125625617166L240.06262037754058,151.3209496096024L240.29467704296113,151.35729348377419L240.48032237529756,151.31979277541126L241.36213770389557,151.52889055546046L241.5941943693161,151.22628201162712L241.8958680343628,151.5500509808735L241.96548503398895,151.39248052375478L242.10471903324125,151.38592513000498L242.17433603286744,151.49071502715273L242.42959836483004,151.53332508652653L242.49921536445618,151.4664215091387L242.8240946960449,151.44723734213557L242.89371169567107,150.99096265657863L242.91691736221313,151.42540209677776L243.05615136146545,151.40906181382783L243.729115691185,151.2427668988509L243.79873269081114,150.64593685907L243.89155535697938,151.55829342448538L244.19322902202606,151.20227770216087L244.610931019783,151.49649919810844L244.9126046848297,151.53038479962407L244.95901601791383,151.50440423174797L245.02863301754,151.24122445326276L245.05183868408204,151.5684157236579L245.28389534950256,151.32991507458377L245.8176256799698,150.73154258921463L245.84083134651183,151.57521212453088L246.28173901081084,151.2912575320297L246.39776734352114,151.51303228675687L246.72264667510987,151.17470648727198L247.14034867286682,151.48695531603153L247.37240533828734,151.3587395265131L248.27742633342743,151.32413090362803L248.4862773323059,151.11676837486553L248.57909999847413,151.1712359846985L248.90397933006287,150.93851950658012L249.1360359954834,151.48184596502065L249.46091532707214,151.53346969080044L249.5305323266983,151.37387477384723L249.69297199249266,151.39016685537248L249.71617765903474,151.23563308800553L249.83220599174498,151.3772488735714L250.1338796567917,151.2948244374524L250.22670232295988,151.4254502982024L250.27311365604402,151.1853108006908L250.29631932258607,151.53115602241814L250.31952498912813,151.4847380504985L250.48196465492248,151.47702582255755L250.94607798576354,150.01825790752522L251.0621063184738,151.30870644774615L251.7582763147354,151.51814163776777L252.013538646698,151.45928769829334L252.03674431324006,151.43528338882712L252.54726897716523,150.77280300869876L252.6168859767914,151.3315539230212L252.77932564258575,151.5457128526567L252.8489426422119,151.18762446907309L253.1042049741745,151.15725757155556L253.4058786392212,151.3437970848775L253.4522899723053,151.55559414470605L253.5451126384735,151.5434955871237L253.8931976366043,151.39026325822175L254.21807696819306,151.27795393883156L254.31089963436128,151.484015029129L254.9374526309967,151.41368915059243L255.26233196258545,151.26706041686492" fill="none"></path></g></g></g></g></g></g><g transform="translate(51, 176)" clip-path="url(#clip_1)"><clipPath id="clip_1"><rect width="278" height="23"></rect></clipPath><g><g><line x1="0" y1="0" x2="0" y2="5" style="visibility: inherit;" fill="rgb(0, 0, 0)" stroke="rgb(204, 204, 204)" stroke-width="1px"></line><line x1="23.205666542053223" y1="0" x2="23.205666542053223" y2="5" style="visibility: inherit;" fill="rgb(0, 0, 0)" stroke="rgb(204, 204, 204)" stroke-width="1px"></line><line x1="46.411333084106445" y1="0" x2="46.411333084106445" y2="5" style="visibility: inherit;" fill="rgb(0, 0, 0)" stroke="rgb(204, 204, 204)" stroke-width="1px"></line><line x1="69.61699962615967" y1="0" x2="69.61699962615967" y2="5" style="visibility: inherit;" fill="rgb(0, 0, 0)" stroke="rgb(204, 204, 204)" stroke-width="1px"></line><line x1="92.82266616821289" y1="0" x2="92.82266616821289" y2="5" style="visibility: inherit;" fill="rgb(0, 0, 0)" stroke="rgb(204, 204, 204)" stroke-width="1px"></line><line x1="116.02833271026611" y1="0" x2="116.02833271026611" y2="5" style="visibility: inherit;" fill="rgb(0, 0, 0)" stroke="rgb(204, 204, 204)" stroke-width="1px"></line><line x1="139.23399925231934" y1="0" x2="139.23399925231934" y2="5" style="visibility: inherit;" fill="rgb(0, 0, 0)" stroke="rgb(204, 204, 204)" stroke-width="1px"></line><line x1="162.43966579437256" y1="0" x2="162.43966579437256" y2="5" style="visibility: inherit;" fill="rgb(0, 0, 0)" stroke="rgb(204, 204, 204)" stroke-width="1px"></line><line x1="185.64533233642578" y1="0" x2="185.64533233642578" y2="5" style="visibility: inherit;" fill="rgb(0, 0, 0)" stroke="rgb(204, 204, 204)" stroke-width="1px"></line><line x1="208.850998878479" y1="0" x2="208.850998878479" y2="5" style="visibility: inherit;" fill="rgb(0, 0, 0)" stroke="rgb(204, 204, 204)" stroke-width="1px"></line><line x1="232.05666542053223" y1="0" x2="232.05666542053223" y2="5" style="visibility: inherit;" fill="rgb(0, 0, 0)" stroke="rgb(204, 204, 204)" stroke-width="1px"></line><line x1="255.26233196258545" y1="0" x2="255.26233196258545" y2="5" style="visibility: inherit;" fill="rgb(0, 0, 0)" stroke="rgb(204, 204, 204)" stroke-width="1px"></line><line x1="278.4679985046387" y1="0" x2="278.4679985046387" y2="5" style="visibility: inherit;" fill="rgb(0, 0, 0)" stroke="rgb(204, 204, 204)" stroke-width="1px"></line></g><g transform="translate(0, 8)"><text style="text-anchor: middle; visibility: hidden; font-family: Roboto, sans-serif; font-size: 12px; font-weight: 200;" x="0" y="0" dx="0em" dy="0.95em" fill="rgb(33, 33, 33)" stroke="none" stroke-width="1px">-1k</text><text style="text-anchor: middle; visibility: inherit; font-family: Roboto, sans-serif; font-size: 12px; font-weight: 200;" x="23.205666542053223" y="0" dx="0em" dy="0.95em" fill="rgb(33, 33, 33)" stroke="none" stroke-width="1px">0</text><text style="text-anchor: middle; visibility: inherit; font-family: Roboto, sans-serif; font-size: 12px; font-weight: 200;" x="46.411333084106445" y="0" dx="0em" dy="0.95em" fill="rgb(33, 33, 33)" stroke="none" stroke-width="1px">1k</text><text style="text-anchor: middle; visibility: inherit; font-family: Roboto, sans-serif; font-size: 12px; font-weight: 200;" x="69.61699962615967" y="0" dx="0em" dy="0.95em" fill="rgb(33, 33, 33)" stroke="none" stroke-width="1px">2k</text><text style="text-anchor: middle; visibility: inherit; font-family: Roboto, sans-serif; font-size: 12px; font-weight: 200;" x="92.82266616821289" y="0" dx="0em" dy="0.95em" fill="rgb(33, 33, 33)" stroke="none" stroke-width="1px">3k</text><text style="text-anchor: middle; visibility: inherit; font-family: Roboto, sans-serif; font-size: 12px; font-weight: 200;" x="116.02833271026611" y="0" dx="0em" dy="0.95em" fill="rgb(33, 33, 33)" stroke="none" stroke-width="1px">4k</text><text style="text-anchor: middle; visibility: inherit; font-family: Roboto, sans-serif; font-size: 12px; font-weight: 200;" x="139.23399925231934" y="0" dx="0em" dy="0.95em" fill="rgb(33, 33, 33)" stroke="none" stroke-width="1px">5k</text><text style="text-anchor: middle; visibility: inherit; font-family: Roboto, sans-serif; font-size: 12px; font-weight: 200;" x="162.43966579437256" y="0" dx="0em" dy="0.95em" fill="rgb(33, 33, 33)" stroke="none" stroke-width="1px">6k</text><text style="text-anchor: middle; visibility: inherit; font-family: Roboto, sans-serif; font-size: 12px; font-weight: 200;" x="185.64533233642578" y="0" dx="0em" dy="0.95em" fill="rgb(33, 33, 33)" stroke="none" stroke-width="1px">7k</text><text style="text-anchor: middle; visibility: inherit; font-family: Roboto, sans-serif; font-size: 12px; font-weight: 200;" x="208.850998878479" y="0" dx="0em" dy="0.95em" fill="rgb(33, 33, 33)" stroke="none" stroke-width="1px">8k</text><text style="text-anchor: middle; visibility: inherit; font-family: Roboto, sans-serif; font-size: 12px; font-weight: 200;" x="232.05666542053223" y="0" dx="0em" dy="0.95em" fill="rgb(33, 33, 33)" stroke="none" stroke-width="1px">9k</text><text style="text-anchor: middle; visibility: inherit; font-family: Roboto, sans-serif; font-size: 12px; font-weight: 200;" x="255.26233196258545" y="0" dx="0em" dy="0.95em" fill="rgb(33, 33, 33)" stroke="none" stroke-width="1px">10k</text><text style="text-anchor: middle; visibility: hidden; font-family: Roboto, sans-serif; font-size: 12px; font-weight: 200;" x="278.4679985046387" y="0" dx="0em" dy="0.95em" fill="rgb(33, 33, 33)" stroke="none" stroke-width="1px">11k</text></g><line x1="0" y1="0" x2="278.4679985046387" y2="0" fill="rgb(0, 0, 0)" stroke="rgb(204, 204, 204)" stroke-width="1px"></line></g></g></g></g></svg>