<svg viewBox="0 0 330 200" xmlns="http://www.w3.org/2000/svg"><g><g><g><g><g><line x1="61.91500186920166" y1="176.89999961853027" x2="56.91500186920166" y2="176.89999961853027" style="visibility: inherit;" fill="rgb(0, 0, 0)" stroke="rgb(204, 204, 204)" stroke-width="1px"></line><line x1="61.91500186920166" y1="162.15833298365274" x2="56.91500186920166" y2="162.15833298365274" style="visibility: inherit;" fill="rgb(0, 0, 0)" stroke="rgb(204, 204, 204)" stroke-width="1px"></line><line x1="61.91500186920166" y1="147.4166663487752" x2="56.91500186920166" y2="147.4166663487752" style="visibility: inherit;" fill="rgb(0, 0, 0)" stroke="rgb(204, 204, 204)" stroke-width="1px"></line><line x1="61.91500186920166" y1="132.6749997138977" x2="56.91500186920166" y2="132.6749997138977" style="visibility: inherit;" fill="rgb(0, 0, 0)" stroke="rgb(204, 204, 204)" stroke-width="1px"></line><line x1="61.91500186920166" y1="117.93333307902017" x2="56.91500186920166" y2="117.93333307902017" style="visibility: inherit;" fill="rgb(0, 0, 0)" stroke="rgb(204, 204, 204)" stroke-width="1px"></line><line x1="61.91500186920166" y1="103.19166644414264" x2="56.91500186920166" y2="103.19166644414264" style="visibility: inherit;" fill="rgb(0, 0, 0)" stroke="rgb(204, 204, 204)" stroke-width="1px"></line><line x1="61.91500186920166" y1="88.44999980926512" x2="56.91500186920166" y2="88.44999980926512" style="visibility: inherit;" fill="rgb(0, 0, 0)" stroke="rgb(204, 204, 204)" stroke-width="1px"></line><line x1="61.91500186920166" y1="73.70833317438763" x2="56.91500186920166" y2="73.70833317438763" style="visibility: inherit;" fill="rgb(0, 0, 0)" stroke="rgb(204, 204, 204)" stroke-width="1px"></line><line x1="61.91500186920166" y1="58.96666653951008" x2="56.91500186920166" y2="58.96666653951008" style="visibility: inherit;" fill="rgb(0, 0, 0)" stroke="rgb(204, 204, 204)" stroke-width="1px"></line><line x1="61.91500186920166" y1="44.22499990463257" x2="56.91500186920166" y2="44.22499990463257" style="visibility: inherit;" fill="rgb(0, 0, 0)" stroke="rgb(204, 204, 204)" stroke-width="1px"></line><line x1="61.91500186920166" y1="29.483333269755057" x2="56.91500186920166" y2="29.483333269755057" style="visibility: inherit;" fill="rgb(0, 0, 0)" stroke="rgb(204, 204, 204)" stroke-width="1px"></line><line x1="61.91500186920166" y1="14.74166663487751" x2="56.91500186920166" y2="14.74166663487751" style="visibility: inherit;" fill="rgb(0, 0, 0)" stroke="rgb(204, 204, 204)" stroke-width="1px"></line><line x1="61.91500186920166" y1="0" x2="56.91500186920166" y2="0" style="visibility: inherit;" fill="rgb(0, 0, 0)" stroke="rgb(204, 204, 204)" stroke-width="1px"></line></g><g transform="translate(51.91500186920166, 0)"><text style="text-anchor: end; visibility: hidden; font-family: Roboto, sans-serif; font-size: 12px; font-weight: 200;" x="0" y="176.89999961853027" dx="0em" dy="0.3em" fill="rgb(33, 33, 33)" stroke="none" stroke-width="1px">-0.01</text><text style="text-anchor: end; visibility: inherit; font-family: Roboto, sans-serif; font-size: 12px; font-weight: 200;" x="0" y="162.15833298365274" dx="0em" dy="0.3em" fill="rgb(33, 33, 33)" stroke="none" stroke-width="1px">0</text><text style="text-anchor: end; visibility: hidden; font-family: Roboto, sans-serif; font-size: 12px; font-weight: 200;" x="0" y="147.4166663487752" dx="0em" dy="0.3em" fill="rgb(33, 33, 33)" stroke="none" stroke-width="1px">0.01</text><text style="text-anchor: end; visibility: inherit; font-family: Roboto, sans-serif; font-size: 12px; font-weight: 200;" x="0" y="132.6749997138977" dx="0em" dy="0.3em" fill="rgb(33, 33, 33)" stroke="none" stroke-width="1px">0.02</text><text style="text-anchor: end; visibility: hidden; font-family: Roboto, sans-serif; font-size: 12px; font-weight: 200;" x="0" y="117.93333307902017" dx="0em" dy="0.3em" fill="rgb(33, 33, 33)" stroke="none" stroke-width="1px">0.03</text><text style="text-anchor: end; visibility: inherit; font-family: Roboto, sans-serif; font-size: 12px; font-weight: 200;" x="0" y="103.19166644414264" dx="0em" dy="0.3em" fill="rgb(33, 33, 33)" stroke="none" stroke-width="1px">0.04</text><text style="text-anchor: end; visibility: hidden; font-family: Roboto, sans-serif; font-size: 12px; font-weight: 200;" x="0" y="88.44999980926512" dx="0em" dy="0.3em" fill="rgb(33, 33, 33)" stroke="none" stroke-width="1px">0.05</text><text style="text-anchor: end; visibility: inherit; font-family: Roboto, sans-serif; font-size: 12px; font-weight: 200;" x="0" y="73.70833317438763" dx="0em" dy="0.3em" fill="rgb(33, 33, 33)" stroke="none" stroke-width="1px">0.06</text><text style="text-anchor: end; visibility: hidden; font-family: Roboto, sans-serif; font-size: 12px; font-weight: 200;" x="0" y="58.96666653951008" dx="0em" dy="0.3em" fill="rgb(33, 33, 33)" stroke="none" stroke-width="1px">0.07</text><text style="text-anchor: end; visibility: inherit; font-family: Roboto, sans-serif; font-size: 12px; font-weight: 200;" x="0" y="44.22499990463257" dx="0em" dy="0.3em" fill="rgb(33, 33, 33)" stroke="none" stroke-width="1px">0.08</text><text style="text-anchor: end; visibility: hidden; font-family: Roboto, sans-serif; font-size: 12px; font-weight: 200;" x="0" y="29.483333269755057" dx="0em" dy="0.3em" fill="rgb(33, 33, 33)" stroke="none" stroke-width="1px">0.09</text><text style="text-anchor: end; visibility: inherit; font-family: Roboto, sans-serif; font-size: 12px; font-weight: 200;" x="0" y="14.74166663487751" dx="0em" dy="0.3em" fill="rgb(33, 33, 33)" stroke="none" stroke-width="1px">0.1</text><text style="text-anchor: end; visibility: hidden; font-family: Roboto, sans-serif; font-size: 12px; font-weight: 200;" x="0" y="0" dx="0em" dy="0.3em" fill="rgb(33, 33, 33)" stroke="none" stroke-width="1px">0.11</text></g><line x1="61.91500186920166" y1="0" x2="61.91500186920166" y2="176.89999961853027" fill="rgb(0, 0, 0)" stroke="rgb(204, 204, 204)" stroke-width="1px"></line></g></g><g transform="translate(61, 0)" clip-path="url(#clip_0)"><clipPath id="clip_0"><rect width="268" height="176"></rect></clipPath><g><g><g><line x1="0" y1="0" x2="0" y2="176.89999961853027" fill="rgb(0, 0, 0)" stroke="rgb(66, 66, 66)" stroke-width="1px" opacity="0.25"></line><line x1="22.34041651089986" y1="0" x2="22.34041651089986" y2="176.89999961853027" fill="rgb(0, 0, 0)" stroke="rgb(66, 66, 66)" stroke-width="1px" opacity="0.25"></line><line x1="44.68083302179972" y1="0" x2="44.68083302179972" y2="176.89999961853027" fill="rgb(0, 0, 0)" stroke="rgb(66, 66, 66)" stroke-width="1px" opacity="0.25"></line><line x1="67.02124953269958" y1="0" x2="67.02124953269958" y2="176.89999961853027" fill="rgb(0, 0, 0)" stroke="rgb(66, 66, 66)" stroke-width="1px" opacity="0.25"></line><line x1="89.36166604359944" y1="0" x2="89.36166604359944" y2="176.89999961853027" fill="rgb(0, 0, 0)" stroke="rgb(66, 66, 66)" stroke-width="1px" opacity="0.25"></line><line x1="111.70208255449931" y1="0" x2="111.70208255449931" y2="176.89999961853027" fill="rgb(0, 0, 0)" stroke="rgb(66, 66, 66)" stroke-width="1px" opacity="0.25"></line><line x1="134.04249906539917" y1="0" x2="134.04249906539917" y2="176.89999961853027" fill="rgb(0, 0, 0)" stroke="rgb(66, 66, 66)" stroke-width="1px" opacity="0.25"></line><line x1="156.38291557629904" y1="0" x2="156.38291557629904" y2="176.89999961853027" fill="rgb(0, 0, 0)" stroke="rgb(66, 66, 66)" stroke-width="1px" opacity="0.25"></line><line x1="178.72333208719888" y1="0" x2="178.72333208719888" y2="176.89999961853027" fill="rgb(0, 0, 0)" stroke="rgb(66, 66, 66)" stroke-width="1px" opacity="0.25"></line><line x1="201.06374859809875" y1="0" x2="201.06374859809875" y2="176.89999961853027" fill="rgb(0, 0, 0)" stroke="rgb(66, 66, 66)" stroke-width="1px" opacity="0.25"></line><line x1="223.40416510899863" y1="0" x2="223.40416510899863" y2="176.89999961853027" fill="rgb(0, 0, 0)" stroke="rgb(66, 66, 66)" stroke-width="1px" opacity="0.25"></line><line x1="245.74458161989847" y1="0" x2="245.74458161989847" y2="176.89999961853027" fill="rgb(0, 0, 0)" stroke="rgb(66, 66, 66)" stroke-width="1px" opacity="0.25"></line><line x1="268.08499813079834" y1="0" x2="268.08499813079834" y2="176.89999961853027" fill="rgb(0, 0, 0)" stroke="rgb(66, 66, 66)" stroke-width="1px" opacity="0.25"></line></g><g><line x1="0" y1="176.89999961853027" x2="268.08499813079834" y2="176.89999961853027" fill="rgb(0, 0, 0)" stroke="rgb(66, 66, 66)" stroke-width="1px" opacity="0.25"></line><line x1="0" y1="162.15833298365274" x2="268.08499813079834" y2="162.15833298365274" fill="rgb(0, 0, 0)" stroke="rgb(66, 66, 66)" stroke-width="1px" opacity="0.25"></line><line x1="0" y1="147.4166663487752" x2="268.08499813079834" y2="147.4166663487752" fill="rgb(0, 0, 0)" stroke="rgb(66, 66, 66)" stroke-width="1px" opacity="0.25"></line><line x1="0" y1="132.6749997138977" x2="268.08499813079834" y2="132.6749997138977" fill="rgb(0, 0, 0)" stroke="rgb(66, 66, 66)" stroke-width="1px" opacity="0.25"></line><line x1="0" y1="117.93333307902017" x2="268.08499813079834" y2="117.93333307902017" fill="rgb(0, 0, 0)" stroke="rgb(66, 66, 66)" stroke-width="1px" opacity="0.25"></line><line x1="0" y1="103.19166644414264" x2="268.08499813079834" y2="103.19166644414264" fill="rgb(0, 0, 0)" stroke="rgb(66, 66, 66)" stroke-width="1px" opacity="0.25"></line><line x1="0" y1="88.44999980926512" x2="268.08499813079834" y2="88.44999980926512" fill="rgb(0, 0, 0)" stroke="rgb(66, 66, 66)" stroke-width="1px" opacity="0.25"></line><line x1="0" y1="73.70833317438763" x2="268.08499813079834" y2="73.70833317438763" fill="rgb(0, 0, 0)" stroke="rgb(66, 66, 66)" stroke-width="1px" opacity="0.25"></line><line x1="0" y1="58.96666653951008" x2="268.08499813079834" y2="58.96666653951008" fill="rgb(0, 0, 0)" stroke="rgb(66, 66, 66)" stroke-width="1px" opacity="0.25"></line><line x1="0" y1="44.22499990463257" x2="268.08499813079834" y2="44.22499990463257" fill="rgb(0, 0, 0)" stroke="rgb(66, 66, 66)" stroke-width="1px" opacity="0.25"></line><line x1="0" y1="29.483333269755057" x2="268.08499813079834" y2="29.483333269755057" fill="rgb(0, 0, 0)" stroke="rgb(66, 66, 66)" stroke-width="1px" opacity="0.25"></line><line x1="0" y1="14.74166663487751" x2="268.08499813079834" y2="14.74166663487751" fill="rgb(0, 0, 0)" stroke="rgb(66, 66, 66)" stroke-width="1px" opacity="0.25"></line><line x1="0" y1="0" x2="268.08499813079834" y2="0" fill="rgb(0, 0, 0)" stroke="rgb(66, 66, 66)" stroke-width="1px" opacity="0.25"></line></g></g></g><g><g><line x1="0" y1="162.15833298365274" x2="268.08499813079834" y2="162.15833298365274" fill="rgb(0, 0, 0)" stroke="rgb(153, 153, 153)" stroke-width="1.5px"></line></g></g><g><g><line x1="22.34041651089986" y1="0" x2="22.34041651089986" y2="176.89999961853027" fill="rgb(0, 0, 0)" stroke="rgb(153, 153, 153)" stroke-width="1.5px"></line></g></g><g><g><g><g><g><path style="fill: none;" stroke="rgb(255, 112, 67)" stroke-width="2px" d="M22.60850150903066,158.62033282323617L22.63084192554156,158.43606208880755L22.764884424606958,157.47710161897822L23.412756503423054,153.12472603212535L23.546799002488456,150.1374804443755L23.569139418999356,148.37736838777437L23.72552233457565,146.52606265300713L24.08296899875005,143.52984612240192L24.797862327098848,137.9523661509049L24.998926075696946,133.57421290578196L25.669138571023943,127.41344341287419L26.182968150774638,121.0129327441504L26.317010649840036,116.47303063780271L26.518074398438134,112.69065438232975L27.054244394699733,107.59139548245095L27.25530814329783,103.47167512774385L27.29998897631963,100.76468066409271L27.52339314142863,97.96132395675237L27.947861055135725,94.03862169199648L28.126584387222927,90.74165156576036L28.193605636755628,88.40973947920433L28.305307719310125,86.42095154183613L28.81913729906082,82.51520766491952L28.841477715571724,80.053845191314L28.90849896510442,78.22323476732099L29.15424354672432,75.8276029740534L29.17658396323522,74.27229326001658L29.221264796257017,73.1032420400477L29.265945629278818,72.16594541513723L29.35530729532242,71.13183502596176L30.070200623671212,66.73749940373035L30.204243122736614,63.393299550670655L30.293604788780215,60.91504725567954L30.33828562180201,59.19222968218187L30.427647287845613,57.68680223723824L30.71807270248731,55.25041284869792L30.78509395202001,53.4347820279213L30.919136451085407,51.63780035020903L31.812753111521403,45.842281634309295L32.2595614417394,40.00630336168413L32.4606251903375,35.44331601089438L32.4829656068484,32.58758827328463L33.28722060124079,26.628554458306894L33.46594393332799,22.109664714964197L33.756369347969695,19.162662305107098L34.00211392958959,17.395045176138048L34.09147559563319,16.33478243395831L34.33722017725309,15.699745095224895L34.49360309282939,15.319636510669294L34.739347674449284,15.09332431018654L34.828709340492885,14.958270680853715L35.09679433862368,14.87975589797052L35.230836837689075,14.834079263279921L35.65530475139618,14.811971673438745L36.23615558067957,14.80784091292797L36.28083641370137,14.806157654603396L36.72764474391938,14.813785043433807L36.74998516043027,14.81882717278772L37.085091408093774,14.829224506828634L37.30849557320277,14.84077887166238L37.35317640622457,14.848814223675616L37.509559321800864,14.857593851356812L38.02338890155156,14.876981883842474L38.51487806479136,14.903710284912306L38.53721848130226,14.92046783643281L38.62658014734586,14.933448344449655L38.80530347943306,14.947242371034427L39.07338847756385,14.964907395202163L39.54253722429275,14.993057878971133L39.58721805731456,15.011692332761772L39.63189889033636,15.024630348642495L39.74360097289085,15.036843630853987L39.989345554510756,15.054249965763203L40.034026387532556,15.066565337649534L40.05636680404345,15.074899132969717L40.52551555077235,15.1004120034068L40.65955804983775,15.121839674778121L40.83828138192494,15.143039266372018L41.15104721307755,15.170850209547755L41.68721720933914,15.214867861890815L41.77657887538274,15.246010100956704L42.156365956068036,15.285388165360866L42.201046789089844,15.311510431924379L42.42445095419884,15.339854239264149L42.692535952329635,15.372483308328382L42.89359970092774,15.404080980034252L43.49679094672203,15.460646736233436L43.608493029276524,15.501804478815956L43.72019511183103,15.533800887049795L43.89891844391823,15.564843227896848L44.18934385855992,15.603150880796045L44.345726774136224,15.636956315791615L44.412748023668925,15.661927290858856L44.524450106223426,15.684782775255607L44.54679052273432,15.700077675139351L44.70317343831063,15.72043571376493L44.77019468784332,15.73748762521671L46.31168342709541,15.866884242033583L46.669130091269814,15.974313579610167L46.89253425637881,16.057798820053723L47.54040633519491,16.164863044037354L48.1212571644783,16.28243256352088L48.2329592470328,16.363474403258863L48.2552996635437,16.414208319429264L48.5010442451636,16.46806527268596L48.6797675772508,16.517645345572255L49.2382779900233,16.602648665646306L49.26061840653419,16.65590005750685L49.305299239556,16.692362872332456L49.32763965606689,16.716498747761964L49.68508632024129,16.767576953621656L50.04253298441569,16.83561575572134L50.15423506697019,16.88828792624687L50.19891589999199,16.924653629735385L50.534022147655485,16.982586462938755L50.82444756229718,17.049215589161697L50.91380922834079,17.099100089476217L51.36061755855878,17.179334750396333L51.695723806222276,17.266022878953432L52.00848963737488,17.35464122340774L52.254234218994775,17.437001707381572L52.298915052016575,17.49176471568818L52.343595885038376,17.529982418671462L52.388276718060176,17.558286118537815L52.43295755108198,17.580650203252027L52.63402129968007,17.618451796618523L52.79040421525637,17.660274617870435L52.99146796385447,17.710195182420136L53.14785087943077,17.759632068385237L53.52763796011607,17.837247713622247L54.24253128846487,17.976490615844686L54.37657378753026,18.077763560807078L54.68933961868286,18.18032135210226L54.84572253425916,18.262979297027563L55.069126699368155,18.34301125524453L55.136147948900856,18.400221337235845L55.22550961494446,18.446840004956996L55.649977528651554,18.533888704275743L55.761679611206056,18.60185054250274L55.784020027716956,18.64578207721231L56.454232523043956,18.768210579637543L56.67763668815295,18.874301551862374L56.766998354196545,18.951092278654663L56.834019603729246,19.007051772515684L56.94572168628375,19.057164072167954L57.14678543488185,19.11718976708836L57.21380668441455,19.16324400939181L57.414870433012645,19.221159978470084L57.437210849523545,19.259288053000255L57.57125334858894,19.302510543320714L57.59359376509984,19.33184449739125L58.15210417787234,19.435453659286804L58.35316792647044,19.529040460105467L58.442529592514035,19.599238109370305L58.576572091579436,19.66251511594954L58.66593375762304,19.71464550936414L58.93401875575383,19.788706275509202L59.090401671330135,19.85829910892097L59.40316750248273,19.95080689231912L59.80529499967893,20.07242282882843L60.54252874453862,20.269109380620222L61.01167749126752,20.46753296176232L61.54784748752912,20.68009097038183L61.72657081961632,20.839170093287283L62.28508123238881,21.03440832371649L62.419123731454214,21.17577185022837L62.486144980986914,21.27274199717333L62.999974560737606,21.424959541715463L63.55848497351011,21.62025451619171L63.580825390021005,21.741631552096592L63.670187056064606,21.831271158593164L64.2957187183698,22.004062231512314L64.4297612174352,22.13353467940488L64.4521016339461,22.215528033334937L64.7201866320769,22.31666233597833L64.87656954765319,22.407837222493338L64.98827163020769,22.484407902224202L65.0329524632295,22.53911506129932L65.1223141292731,22.58950839944876L65.2116757953167,22.637357378632956L65.3457182943821,22.692571901086072L65.3903991274039,22.734557626333892L65.6138032925129,22.80421424808193L66.32869662086169,22.99022023082593L66.485079536438,23.13375914715847L66.5297603694598,23.229033863788004L66.5967816189925,23.299945514126307L67.06593036572139,23.43943636437293L67.22231328129767,23.555725205059453L67.35635578036307,23.653541320069536L67.37869619687399,23.716918703145463L67.69146202802658,23.82081915807463L68.16061077475547,23.983016088103277L68.29465327382087,24.10908878087917L68.98720618565878,24.334919374501382L69.09890826821326,24.494893133752008L69.34465284983317,24.64496403214645L69.43401451587677,24.75475911331835L69.70209951400757,24.880161783327182L70.14890784422556,25.05549728379048L70.26060992678006,25.18589449802433L70.50635450839997,25.319805472013442L70.52869492491087,25.405230779429242L70.84146075606346,25.527864867809146L71.33294991930326,25.714697329547548L71.35529033581416,25.8319765768703L71.37763075232506,25.907528288902633L71.51167325139045,25.984008231544376L71.55635408441226,26.04029967127893L71.62337533394495,26.089701713139046L71.95848158160847,26.197852263868263L72.42763032833736,26.373679302814914L72.71805574297905,26.54844561778574L73.25422573924064,26.782391081371813L73.47762990434966,26.976998769933076L73.67869365294774,27.14281084312274L73.74571490248044,27.258694102883673L73.99145948410035,27.388553664745825L74.03614031712215,27.47747037283879L74.08082115014393,27.541834548747307L74.34890614827474,27.646757628559552L74.46060823082924,27.737455538631952L74.90741656104723,27.903496357191L75.35422489126523,28.11579732700581L75.57762905637422,28.29991374722532L75.62230988939604,28.42176239920807L75.95741613705952,28.580537697847696L76.09145863612493,28.71023802499769L76.11379905263583,28.793804734880386L76.13613946914673,28.84969566776175L76.40422446727752,28.95243881206719L76.53826696634292,29.048827381747746L76.60528821587563,29.124067011976877L76.67230946540832,29.18664363868922L76.76167113145192,29.24746563078256L77.23081987818082,29.406841077711757L77.29784112771353,29.52011446903595L77.34252196073531,29.599852705992934L77.92337279001872,29.80173999533969L78.34784070372582,30.036532960046706L78.59358528534572,30.243634232675742L78.77230861743291,30.41624830558158L79.4872019457817,30.714851136115517L79.5542231953144,30.912429795430302L79.66592527786891,31.06171732405304L79.8893294429779,31.21296820845013L80.1350740245978,31.371846557347126L80.2691165236632,31.504464398011823L80.5148611052831,31.652633010084035L80.760605686903,31.81042644005483L81.3637969326973,32.07547256731279L81.40847776571908,32.24719265786433L81.4531585987409,32.36292591311007L82.5031581747532,32.73364046076914L82.61486025730768,32.98843506523429L82.74890275637308,33.180228202075746L82.81592400590579,33.31479741813393L83.19571108659109,33.50640096917468L83.32975358565649,33.660652909477825L83.50847691774368,33.805726680694164L83.73188108285268,33.95864057514853L83.82124274889628,34.07680178622442L84.31273191213607,34.29365468609437L84.89358274141946,34.59772147624875L85.36273148814837,34.92182101844829L85.67549731930097,35.211287132485694L85.85422065138816,35.439462026140674L85.89890148440998,35.59001273543688L85.92124190092088,35.687170440925215L85.94358231743176,35.75229234412884L86.14464606602988,35.85293401929908L86.56911397973697,36.043894047711156L86.77017772833506,36.220614128037575L87.39570939064026,36.521144573223886L87.41804980715116,36.70844388781185L87.48507105668385,36.8417754057112L87.97656021992366,37.076029544856155L88.26698563456534,37.308245070849736L88.44570896665256,37.50416963728801L88.75847479780515,37.7211021580894L88.87017688035965,37.88686105867563L88.98187896291415,38.02196850744097L89.27230437755586,38.19598766675741L89.42868729313214,38.35060207582135L89.60741062521934,38.50087979077715L90.07655937194825,38.742670026105465L90.23294228752455,38.93849625065353L90.47868686914444,39.13595551282973L90.88081436634064,39.385845225017455L91.08187811493873,39.60174533795299L91.57336727817854,39.89325537255149L91.61804811120034,40.082936259680885L92.39996268908183,40.456673484772004L92.69038810372352,40.77810570797523L92.89145185232162,41.038460216457594L92.95847310185432,41.217206459939284L93.38294101556141,41.46759862948256L93.47230268160503,41.648064634596565L93.53932393113772,41.779035936981835L93.71804726322493,41.918225106036545L94.29889809250832,42.19960231746604L94.76804683923721,42.529234371021694L94.83506808876992,42.750056771193194L96.0861314133803,43.31595068485025L96.376556828022,43.75697362631051L96.53293974359829,44.07636818475524L96.5552801601092,44.275838278947326L96.6223014096419,44.419033592915405L97.47123723705609,44.804252757609724L97.7840030682087,45.146342931730516L97.82868390123049,45.36747902904527L97.94038598378499,45.539898619732426L98.00740723331769,45.66721070695981L98.0520880663395,45.75951949236965L98.16379014889398,45.85473056309419L98.4542155635357,46.01563273884222L98.7223005616665,46.20823923253152L98.94570472677549,46.40406101124656L99.16910889188449,46.60199208869668L99.23613014141718,46.744918603112936L99.3925130569935,46.887129175116286L99.48187472303708,47.00475549380281L99.83932138721148,47.204816755288725L99.90634263674417,47.349183934410036L99.97336388627689,47.460152237548634L100.48719346602758,47.713916673660904L100.57655513207118,47.898822386175006L100.68825721462568,48.05061965917182L101.00102304577827,48.256311972975304L101.02336346228918,48.38792976253996L101.24676762739817,48.548994742848855L101.33612929344177,48.67852241662679L101.40315054297446,48.780920911844575L101.44783137599627,48.858826318566635L101.49251220901807,48.92204026555028L101.62655470808348,49.00942467618184L101.84995887319248,49.144415325186564L102.20740553736687,49.357865095558104L102.22974595387777,49.49422961960293L102.43080970247587,49.65076179745332L102.98932011524836,49.95293071487366L103.25740511337916,50.234563205170716L103.27974552989005,50.41191204827412L103.34676677942277,50.54344697434779L103.52549011150995,50.6894369487279L103.74889427661896,50.861018777661876L103.90527719219526,51.02285645927067L104.70953218658765,51.42406737931275L104.99995760122935,51.77511996294392L105.06697885076206,52.011250568850606L105.31272343238194,52.24654262630424L105.37974468191464,52.413282816889605L105.46910634795826,52.54743257728086L105.53612759749095,52.65351814314192L105.82655301213263,52.828251172015186L106.20634009281794,53.078748414150496L106.29570175886154,53.263380860140515L106.49676550745964,53.451505413208494L106.80953133861223,53.68493830980308L106.94357383767763,53.87676060368454L107.05527592023213,54.03502751906212L107.25633966883024,54.2077940564593L107.61378633300463,54.450073242565566L107.68080758253734,54.62147140639819L107.72548841555913,54.7416728595284L108.44038174390793,55.09239420003737L108.50740299344062,55.3290202107952L108.84250924110414,55.60215955066798L109.64676423549652,56.082136549063684L109.66910465200742,56.378931432927885L109.84782798409462,56.62750420201467L109.93718965013822,56.81193092972299L110.13825339873631,57.00205404422659L110.31697673082351,57.18685659972485L110.54038089593251,57.38627310391112L110.8308063105742,57.62121792707575L110.8531467270851,57.771063799545516L110.9648488096396,57.90537939595954L111.1212317252159,58.048200684267435L111.27761464079222,58.196186894737835L111.45633797287941,58.35625208433413L111.47867838939031,58.46120971689406L111.56804005543391,58.559858371638704L111.7914442205429,58.70832061968747L112.55101838191351,59.10189289518694L112.68506088097891,59.39192080881596L112.8637842130661,59.63785684408276L113.332932959795,59.97457893102912L113.3552733763059,60.18563614261546L113.64569879094759,60.42965662911165L113.8020817065239,60.63936404435065L113.8244221230348,60.77423441970767L113.84676253954571,60.86420257113551L114.09250712116558,61.01779409095849L114.51697503487269,61.282331230557L114.58399628440539,61.46831430700944L114.87442169904709,61.69814262407432L115.16484711368878,61.95447139330342L115.25420877973238,62.144746714749424L115.32123002926508,62.28628692764479L115.65633627692858,62.50822234965016L115.70101710995039,62.6596687630773L115.81271919250489,62.79627587184757L116.01378294110299,62.96063758545192L116.03612335761389,63.06841476716256L116.14782544016839,63.17890381072422L116.52761252085368,63.40119223543685L116.59463377038638,63.56212922472984L116.66165501991907,63.68625974613005L116.68399543642998,63.76993335939034L116.79569751898447,63.86611402944736L116.95208043456078,63.98823786137187L117.22016543269159,64.1720578600833L117.26484626571337,64.30078878709968L117.33186751524607,64.40569671839125L117.37654834826787,64.48708919167377L117.46591001431146,64.5728376780944L117.53293126384418,64.65198250518269L117.66697376290958,64.75488723206152L117.75633542895316,64.85359579094816L118.18080334266027,65.08862997401722L118.96271792054176,65.55445590925913L119.23080291867255,65.94558672299692L119.72229208191236,66.38529448979106L120.21378124515216,66.85459655103865L120.48186624328297,67.2484456840781L120.63824915885925,67.55030408041821L120.68292999188105,67.75015679442484L120.70527040839195,67.87943945760964L120.77229165792465,67.9851221598629L120.81697249094645,68.06727824413547L121.06271707256636,68.21974553782714L121.10739790558814,68.3299943437578L121.21909998814264,68.44308227504152L121.37548290371895,68.57669043820191L121.77761040091514,68.82612706561962L122.04569539904594,69.08878623595783L122.06803581555684,69.25580549324971L122.51484414577484,69.54462834353413L122.67122706135115,69.78401355005964L122.89463122646013,70.02213044964923L123.00633330901464,70.21227093573397L123.22973747412364,70.42095742707303L123.65420538783073,70.72612789720401L123.72122663736344,70.93767058887168L123.81058830340703,71.10252407225609L124.21271580060322,71.37226753425885L124.30207746664684,71.57210957690904L124.45846038222312,71.7585324546786L124.48080079873402,71.87989341025059L124.52548163175584,71.97172224473486L124.65952413082124,72.08387609896423L124.74888579686483,72.18922149061758L124.99463037848473,72.3571290609957L125.17335371057192,72.53407202199342L125.26271537661552,72.67835458141352L125.30739620963732,72.78398690183533L125.59782162427904,72.97133590211804L125.68718329032262,73.12191260873782L125.70952370683352,73.22180100849212L125.77654495636622,73.31036776573046L125.84356620589891,73.39214812749776L126.06697037100793,73.53672577288312L126.17867245356243,73.67125233609114L126.22335328658421,73.77108377909391L126.35739578564962,73.88834673356548L126.44675745169322,73.99695967987888L126.60314036726952,74.12909761582497L126.6701616168022,74.23709097856117L126.71484244982402,74.32103105811444L126.7818636993567,74.40011449373299L126.96058703144392,74.52417814630195L127.00526786446571,74.61777577651142L127.13931036353111,74.73142585071845L127.27335286259651,74.8571293581191L127.29569327910741,74.94213996861158L127.63079952677091,75.13703103935552L127.9659057744344,75.39797779366178L128.2563311890761,75.67945782978407L128.32335243860882,75.87718605671694L128.725479935805,76.16895648497312L128.8148416018486,76.38251555030317L129.1276074330012,76.64545462086389L129.1499478495121,76.81285269952207L129.4180328476429,77.02892036265503L129.5744157632192,77.2260451516977L129.97654326041538,77.51795655682706L130.4903728401661,77.91518769815565L130.5573940896988,78.18251156905986L130.9148407538732,78.49755432563964L130.9371811703841,78.69624976278139L131.5627128326893,79.08636813202199L131.87547866384188,79.45600503271832L132.07654241243998,79.76497338280554L132.18824449499448,79.99880435608463L132.70207407474518,80.36208568022181L133.50632906913756,80.92941658032366L133.55100990215936,81.28923596391432L134.24356281399727,81.80628796124594L134.26590323050817,82.12623726978795L134.75739239374798,82.53209094856106L134.89143489281335,82.83395575027339L135.00313697536788,83.06370691892668L135.22654114047685,83.29883976880654L135.27122197349868,83.45937986249513L135.29356239000958,83.56543301224887L135.38292405605316,83.6679856696225L135.5393069716295,83.79763849226686L135.76271113673846,83.9727606614905L136.00845571835836,84.18491769567692L136.14249821742376,84.37063041102247L136.23185988346737,84.52100736458478L136.45526404857637,84.70861892934693L136.76802987972894,84.9575491420175L136.96909362832704,85.19458333881958L137.01377446134885,85.35628840413611L137.30419987599055,85.57997637711186L137.50526362458865,85.80189159025113L137.52760404109955,85.94478518843184L137.81802945574125,86.15721923131872L138.01909320433936,86.37239965984074L138.06377403736116,86.52100344758676L138.15313570340473,86.6491567815L138.48824195106823,86.87226855661332L138.66696528315543,87.08412653093058L138.77866736570996,87.25998783048125L138.84568861524264,87.39475120118016L139.42653944452604,87.72910164545475L139.47122027754784,87.94921183601134L139.62760319312414,88.14952658597697L139.85100735823312,88.3672150559155L139.96270944078765,88.54657684951843L140.49887943704923,88.88818422686411L140.56590068658193,89.12239524424001L140.81164526820183,89.37015935488333L141.52653859655064,89.83073313131727L142.06270859281224,90.34095566770668L142.37547442396482,90.78348761022579L142.554197756052,91.12693837463982L142.777601921161,91.43040960266953L143.0233465027809,91.71961561237073L143.0903677523136,91.9223506622878L143.2690910844008,92.12188375090948L143.3361123339335,92.27081065481983L143.40313358346623,92.38937165122384L143.7605802476406,92.61623964610095L144.16270774483678,92.9274995035144L144.2297289943695,93.1434383052252L144.2744098273913,93.29245537997384L144.65419690807659,93.54718992126884L145.1233456548055,93.90415928599901L145.4137710694472,94.24464997654272L145.9946218987306,94.70141755343252L146.4861110619704,95.18894921746683L146.57547272801398,95.52026377267684L146.82121730963388,95.82571667266906L147.04462147474288,96.10591689595147L147.08930230776468,96.29342052989882L147.22334480683008,96.46405783344441L147.33504688938459,96.61487919540099L147.46908938845,96.76348297227749L147.5361106379827,96.88169852157522L147.6031318875154,96.98167454428709L148.22866354982057,97.31260739513945L148.47440813144047,97.61752373738597L148.60845063050587,97.85846368506351L148.69781229654947,98.04168042629145L149.36802479187648,98.44127781101997L149.50206729094188,98.73892094357035L149.59142895698548,98.95608710529822L149.72547145605088,99.14424294721461L149.81483312209446,99.29569696444653L149.90419478813808,99.42512329682923L149.99355645418166,99.54132423158435L150.08291812022526,99.64958114104493L150.2169606192907,99.77232772789522L150.23930103580156,99.85560592296812L150.32866270184516,99.94408941850378L150.4180243678888,100.03568511091956L150.64142853299776,100.18687685893161L150.68610936601956,100.29683262354875L150.86483269810677,100.43974478208402L150.88717311461767,100.53510694341135L151.73610894203185,100.9572937537311L151.78078977505368,101.22979163874513L151.84781102458635,101.42206687130735L151.95951310714085,101.58537893446409L152.09355560620625,101.7408818319141L152.29461935480438,101.92042081450613L152.47334268689156,102.10475779525916L152.56270435293516,102.25365030421358L152.60738518595696,102.36212987149779L152.76376810153326,102.49419437006487L152.83078935106596,102.60213049029663L152.85312976757686,102.67645650501319L153.14355518221856,102.84532706032435L153.18823601524036,102.96575830855045L153.45632101337117,103.15262002409395L153.56802309592564,103.31246211240918L153.61270392894744,103.42745211696317L153.74674642801284,103.5536849976335L154.39461850682895,103.90573405793974L154.50632058938345,104.16454576894459L154.84142683704695,104.46246978603548L155.39993724981943,104.87859079387762L155.86908599654834,105.32729134871872L155.98078807910284,105.64384792833962L156.09249016165734,105.88110054939233L156.36057515978814,106.13693917544175L156.38291557629904,106.299894662994L156.53929849187531,106.4638099755089L156.65100057442984,106.60937898572014L156.82972390651702,106.77223124993176L157.14248973766962,107.00195865352586L157.38823431928952,107.24341027139151L158.30419139623643,107.77357882780058L158.34887222925823,108.11043740796416L158.39355306228,108.33130780570096L158.4829147283236,108.50132736354328L158.50525514483454,108.61271013302948L158.6616380604108,108.74512166143022L159.33185055573782,109.10512628854303L159.42121222178142,109.35847481312494L159.44355263829232,109.51981761910325L160.0467438840866,109.86828369383589L160.0690843005975,110.08667066975055L160.6499351298809,110.45935737128642L160.67227554639183,110.69225255980842L160.6946159629027,110.84126844716307L160.7839776289463,110.96778868318273L160.8063180454572,111.05297740235648L161.3201476252079,111.31714438265463L161.69993470589318,111.63277305603525L162.191423869133,112.02505095617192L162.7275938653946,112.48117959344115L162.86163636446,112.80994949786141L163.1520617791017,113.12644500752407L164.5148271862666,113.87331040255549L164.5595080192884,114.33961814589993L164.6265292688211,114.6466789613565L164.64886968533196,114.84000531043422L164.7382313513756,114.99234518233942L165.09567801555,115.22894522759722L165.78823092738787,115.65135422918864L166.34674134016038,116.13011744063017L166.41376258969308,116.4443615752499L166.57014550526935,116.69583194052619L166.61482633829118,116.86468080138725L166.81589008688925,117.04678069518604L166.92759216944378,117.20087925358105L167.06163466850916,117.3471032179142L167.26269841710726,117.51539862078764L167.39674091617266,117.67002646447347L167.70950674732526,117.88780521808332L167.73184716383616,118.02739208739114L168.04461299498877,118.23587276977544L168.37971924265224,118.49431280541398L168.46908090869584,118.68488724938243L168.96057007193565,118.99415317355927L168.98291048844655,119.18855655976427L169.56376131772993,119.53467801130168L169.60844215075176,119.75996495685841L169.65312298377356,119.91274460878819L169.83184631586073,120.07478961802092L170.12227173050246,120.28619013932457L170.21163339654606,120.44811252218803L170.25631422956783,120.56279874939861L170.50205881118774,120.72793927550637L170.52439922769864,120.83577186731135L170.77014380931854,120.99661239607782L170.79248422582944,121.10184741604195L171.17227130651472,121.31320388611876L171.32865422209105,121.500925100881L171.37333505511285,121.63094784306281L171.66376046975452,121.82184774994433L171.70844130277632,121.95373267546776L171.73078171928722,122.04153392479962L171.77546255230905,122.111551967415L172.31163254857066,122.3611358264059L172.37865379810333,122.53677181312177L172.42333463112513,122.65940283098728L172.44567504763603,122.74160450711493L172.98184504389764,122.9974166815555L173.24993004202844,123.25382061784556L173.3616321245829,123.45047955824825L173.47333420713744,123.61125305922717L173.6073767062028,123.75899864292697L174.50099336663882,124.18808957996421L175.05950377941133,124.65703165849135L175.08184419592223,124.94683544993731L175.30524836103123,125.20501420258167L175.52865252614023,125.44405647600124L175.55099294265113,125.59588633585028L175.7073758582274,125.74576959207123L175.8190779407819,125.87763964930882L177.2712050139904,126.49820254378345L177.360566680034,126.90362666721656L177.5616304286321,127.22122556254254L177.583970845143,127.42003672630966L177.7626941772302,127.60527762845554L177.8743962597847,127.75758684538181L178.41056625604628,128.04596180709004L178.5446087551117,128.26807707941828L178.5892895881335,128.41769503005295L178.61163000464438,128.51563854654296L178.72333208719888,128.61523763346997L178.8126937532425,128.70763205473568L179.1924808339278,128.9014529264557L179.2148212504387,129.02586986864776L179.2595020834605,129.11676338058433L179.7286508301894,129.34141913555783L179.79567207972207,129.50045075023237L180.01907624483107,129.6765460689848L180.04141666134197,129.79026068067134L180.06375707785287,129.86654576977855L180.10843791087467,129.92842287739498L180.1754591604074,129.98969394477618L180.28716124296187,130.06666350857816L180.30950165947277,130.12088070049933L181.13609707037608,130.44944433285772L181.33716081897418,130.71820854264786L181.73928831617036,131.02226221993442L181.8509903987249,131.24425223088508L182.0967349803448,131.46430624021798L182.11907539685566,131.60422362691142L182.85630914171537,131.9473119471181L182.90098997473717,132.16880310065903L182.92333039124807,132.30951357847275L183.16907497286797,132.47979049368962L183.21375580588978,132.59754098558872L183.32545788844425,132.7071175399483L183.37013872146608,132.7884203568392L183.59354288657505,132.91487004433534L183.63822371959688,133.0062495124987L183.70524496912958,133.08432794764832L183.77226621866225,133.15440818955366L183.81694705168405,133.21193523684943L184.21907454888026,133.38540682085957L184.28609579841296,133.5125867579517L184.68822329560913,133.72710320480695L185.15737204233804,134.01623767572346L185.53715912302337,134.31893693198717L185.71588245511055,134.56116287336897L185.91694620370865,134.77452520919942L186.07332911928495,134.9553376059911L186.14035036881765,135.08642118782436L186.25205245137215,135.2026894734975L186.54247786601383,135.37001926026502L186.56481828252473,135.47790780944754L186.78822244763373,135.61743567952234L187.27971161087353,135.8649708742103L187.36907327691713,136.04316803283535L187.90524327317874,136.32744183812108L187.97226452271144,136.52008934038562L188.03928577224414,136.65774348740146L188.10630702177684,136.76238185115247L188.24034952084224,136.86919840847915L188.32971118688585,136.96260303090835L188.37439201990765,137.03328996830547L188.44141326944032,137.09765245072666L188.55311535199485,137.1728106054539L188.70949826757112,137.2689728051507L188.79885993361475,137.35580468528232L188.95524284919102,137.45880746759843L189.22332784732183,137.60762510399567L189.26800868034363,137.71138850877196L189.40205117940903,137.81701230014338L189.44673201243083,137.89482425103205L189.58077451149623,137.9847728277943L189.98290200869243,138.1680572014638L190.0499232582251,138.29951244959275L190.3626890893777,138.47838174469L190.40736992239954,138.59995318171624L190.4967315884431,138.70137050205346L190.78715700308481,138.85451658046068L190.83183783610662,138.96057061365158L190.94353991866114,139.05957945870148L191.14460366725922,139.18252262215833L191.52439074794452,139.37581204893803L191.77013532956443,139.56877987092838L192.28396490931513,139.84466719756722L192.3733265753587,140.03792223811035L192.7977944890658,140.2850609626494L193.35630490183829,140.6047000265775L193.37864531834921,140.80330799899556L193.64673031648002,141.004185415952L193.91481531461082,141.20609115351613L194.0711982301871,141.374552170995L194.1605598962307,141.50261608757694L194.2275811457634,141.59967047903748L194.540346976916,141.75196657795271L195.0988573896885,142.01017216087078L195.3446019713084,142.23803295866296L195.38928280433018,142.38798003801446L195.50098488688468,142.51098359957516L195.52332530339558,142.5913856600931L195.65736780246098,142.6791764634344L196.59566529591876,143.00629255059164L197.02013320962587,143.3253219896766L197.66800528844198,143.70242277525278L197.6903457049529,143.93504977298235L198.51694111585618,144.30845811187942L198.56162194887798,144.5450467043778L198.60630278189979,144.69953356397914L199.16481319467226,144.94806196822114L199.65630235791207,145.23302935991455L199.79034485697744,145.4408497577881L199.90204693953197,145.5961730447406L200.03608943859734,145.7260416796366L200.23715318719547,145.858805161169L200.34885526974995,145.96884277851316L200.41587651928268,146.05306319113313L200.90736568252245,146.23634846974718L200.97438693205515,146.3643269171818L201.10842943112056,146.4770604491102L201.48821651180586,146.6460515165737L201.80098234295846,146.83035653005905L201.93502484202384,146.976318709135L202.18076942364374,147.12851738517477L202.31481192270917,147.25495325858216L202.64991817037264,147.41819979179152L202.69459900339444,147.52775496623698L202.71693941990534,147.59928785397506L202.87332233548165,147.6827335776897L203.18608816663425,147.8134707718277L203.20842858314515,147.89765575771406L203.29779024918872,147.97111106670616L203.63289649685225,148.1008536545706L203.72225816289586,148.20144527442397L203.78927941242853,148.2788316517308L204.10204524358113,148.40443345509004L204.23608774264653,148.51356628786039L204.39247065822283,148.61832701048328L204.59353440682094,148.73149728984623L204.9286406544844,148.882779919886L204.9509810709953,148.97908677777943L205.46481065074602,149.16349958108947L205.77757648189862,149.35053459628398L205.91161898096402,149.49533291167307L206.02332106351852,149.60928597584166L206.20204439560572,149.72083629592044L206.22438481211663,149.79315164778137L206.29140606164933,149.85268041241252L206.62651230931283,149.96873243747544L206.8275760579109,150.086273232581L207.028639806509,150.2044881709312L207.16268230557444,150.30708885908655L207.3190652211507,150.40547605476021L207.43076730370524,150.49073178296015L207.6541714688142,150.5941280248622L208.12332021554312,150.76498817448615L208.1680010485649,150.87780531822798L208.36906479716302,150.9917151142445L208.6371497952938,151.121341485502L208.77119229435922,151.229609141921L208.79353271087012,151.29964214334115L209.06161770900093,151.40231473667143L209.1956602080663,151.49409600116454L209.2850218741099,151.56922758297608L209.8658727033933,151.74363631267693L209.9105535364151,151.85815232986627L210.04459603548048,151.95640727956146L210.7818297803402,152.17606465423424L210.9605531124274,152.34635890784858L210.9828935289383,152.4533354793269L211.2062976940473,152.56536565106637L211.6084251912435,152.71799422298227L211.67544644077617,152.8237177075779L212.0105526884397,152.9575018325012L212.16693560401598,153.07038448601472L212.43502060214678,153.19369775805157L212.47970143516858,153.2769098531124L212.65842476725578,153.3636199593392L212.72544601678848,153.42939284343583L212.79246726632118,153.48257758327014L212.83714809934298,153.52362167139484L213.01587143143018,153.58466659924656L213.1945947635174,153.6575294319504L213.61906267722446,153.78657412662366L213.82012642582256,153.9040582180094L213.86480725884437,153.98341859010887L214.04353059093157,154.06639998052145L214.26693475604057,154.1601364087593L214.53501975417137,154.2687350234336L214.95948766787845,154.41594209395365L215.60735974669458,154.62748138488433L215.69672141273816,154.7712084593386L215.78608307878176,154.87420152446748L215.85310432831446,154.9485343626664L216.16587015946706,155.05129362682246L216.81374223828314,155.23160008308713L216.99246557037037,155.37208173565094L217.08182723641394,155.47244904826252L217.21586973547937,155.55669891296665L217.26055056850115,155.6152351347251L218.06480556289355,155.7920940434247L218.31055014451346,155.9407546773539L218.75735847473143,156.10638699245405L218.93608180681863,156.23600834288465L219.18182638843854,156.3550530542002L219.71799638470014,156.51527598215336L219.74033680121104,156.6150722901273L220.00842179934185,156.71866715484614L220.58927262862522,156.87406501853306L220.85735762675603,157.00965365827093L221.17012345790863,157.13986772170085L221.39352762301763,157.25253510083175L221.81799553672474,157.38492823790608L221.9073572027683,157.47786559886876L222.10842095136644,157.56382947553843L222.44352719902992,157.6651981511442L222.62225053111712,157.75229521302666L222.71161219716072,157.81761833882194L223.24778219342232,157.93418050220038L223.3371438594659,158.0168420662771L223.538207608064,158.0948899858323L224.0520371878147,158.21330358019978L224.878632598718,158.39611206285235L225.05735593080522,158.52940912318212L225.54884509404502,158.67330565323914L225.57118551055592,158.76251353305045L225.7052280096213,158.83319322955438L225.79458967566492,158.8869761404111L226.4871425875028,159.00572751164242L227.55948258002599,159.20501571233584L228.3190567413966,159.41095095031343L228.7882054881255,159.5860538140879L228.87756715416907,159.70077687205958L229.54777964949608,159.84047654881547L229.70416256507238,159.94042643520322L229.97224756320318,160.0276905217992L230.10629006226856,160.09352670087767L230.59777922550836,160.18147974447618L230.97756630619367,160.27064931444934L231.11160880525907,160.3367801788017L231.33501297036807,160.39725528013074L231.51373630245527,160.44995077248456L232.36267212986948,160.5567599269294L232.58607629497848,160.63987456771108L232.87650170962016,160.71400828590205L232.94352295915286,160.76401213608548L233.07756545821823,160.80497622017128L233.14458670775096,160.83499279100644L233.39033128937086,160.87269850520676L233.45735253890356,160.90062691473858L233.77011837005614,160.94176322448334L233.83713961958884,160.97158819216685L233.85948003609974,160.9911912283868L233.99352253516517,161.01313472828426L234.64139461398125,161.07389985272508L234.70841586351392,161.11513035554262L234.79777752955755,161.14618603291296L235.08820294419925,161.1849992356347L235.49033044139543,161.23533991754707L235.78075585603713,161.284440266791L235.82543668905896,161.31675972930182L235.89245793859163,161.34041632871921L235.91479835510253,161.35602556778886L236.13820252021154,161.3793682740315L236.65203209996224,161.42430990690272L236.67437251647314,161.45258160202462L237.09884043018022,161.49376494992876L237.21054251273475,161.52465689533017L237.52330834388732,161.56007601585384L237.92543584108353,161.60211367098114L238.14884000619253,161.63843581102608L239.0201162501176,161.70045496478707L239.2211799987157,161.74625658942097L239.31054166475934,161.77747197084943L239.62330749591192,161.80886715077986L239.84671166102092,161.83636605778435L240.15947749217352,161.86445229431754L240.22649874170622,161.88370501552043L240.3828816572825,161.90074645065974L240.40522207379342,161.9117427152241L240.5169241563479,161.92214926738686L240.8073495709896,161.93791992312543L240.8967112370332,161.95020429462767L240.94139207005503,161.95896660838588L240.96373248656593,161.96491502396162L240.9860729030768,161.96917187425484L241.1424558186531,161.97645057010948L241.5892641488711,161.99344798687852L241.70096623142558,162.0066028758111L242.37117872675262,162.03054445790906L242.6169233083725,162.0500678327589L242.6392637248834,162.06223147977963L243.1307528881232,162.0786064335266L243.1977741376559,162.08954833793237L243.35415705323217,162.09860688557808L243.4211783027649,162.10506228277134L243.6669228843848,162.11242837986998L243.9573482990265,162.12047321360166L244.00202913204828,162.12580948820832L244.09139079809188,162.1299913222359L244.42649704575538,162.13571635233498L244.739262876908,162.14149850904116L244.8286245429516,162.145522355772L245.43181578874587,162.15005694026038L245.74458161989847,162.15277769095343" fill="none"></path></g></g></g></g><g opacity="0.2"><g><g><g><path style="fill: none;" stroke="rgb(255, 112, 67)" stroke-width="2px" d="M22.60850150903066,158.62033282323617L22.63084192554156,158.32549964815036L22.764884424606958,156.55649956794207L23.412756503423054,148.0063323419864L23.546799002488456,146.23733260500927L23.569139418999356,145.94249977315465L23.72552233457565,143.87866583139822L24.08296899875005,139.16133365710078L24.797862327098848,129.72666656265656L24.998926075696946,127.07316558426618L25.669138571023943,118.22816689938057L26.182968150774638,111.44699803747733L26.317010649840036,109.67800104634959L26.518074398438134,107.02450006795921L27.054244394699733,99.94850112005074L27.25530814329783,97.29500014166035L27.29998897631963,96.70533447795113L27.52339314142863,93.75700066770614L27.947861055135725,88.15516587907075L28.126584387222927,85.79649773253502L28.193605636755628,84.91199923697114L28.305307719310125,83.43783507769804L28.81913729906082,76.65666896164419L28.841477715571724,76.3618306380908L28.90849896510442,75.47733214252692L29.15424354672432,72.23416550042728L29.17658396323522,71.93933266857267L29.221264796257017,71.34966700486342L29.265945629278818,70.7600013411542L29.35530729532242,69.58067001373568L30.070200623671212,60.14599742759269L30.204243122736614,58.377000436464954L30.293604788780215,57.197669109046444L30.33828562180201,56.60800344533722L30.427647287845613,55.42866113452118L30.71807270248731,51.595828828712314L30.78509395202001,50.711335824847225L30.919136451085407,48.94232785032193L31.812753111521403,37.149003592739504L32.2595614417394,31.252335972249508L32.4606251903375,28.59883499385913L32.4829656068484,28.303996670305736L33.28722060124079,17.690003740141787L33.46594393332799,15.331330101907266L33.756369347969695,14.742158691087297L34.00211392958959,14.74361948296006L34.09147559563319,14.744388320787845L34.33722017725309,14.747189087160447L34.49360309282939,14.74947363384868L34.739347674449284,14.753856009466986L34.828709340492885,14.755690236856108L35.09679433862368,14.761983723646306L35.230836837689075,14.765564311244209L35.65530475139618,14.778810288676983L36.23615558067957,14.80164477216184L36.28083641370137,14.803632767116522L36.72764474391938,14.825226126679397L36.74998516043027,14.82639036681859L37.085091408093774,14.844820507890073L37.30849557320277,14.858110418913L37.35317640622457,14.86086725169545L37.509559321800864,14.870763292878635L38.02338890155156,14.906063932570948L38.51487806479136,14.943802886517073L38.53721848130226,14.945604163713558L38.62658014734586,14.95291910647494L38.80530347943306,14.967933410911598L39.07338847756385,14.991404931453747L39.54253722429275,15.03528360462451L39.58721805731456,15.039644013447731L39.63189889033636,15.044037372463588L39.74360097289085,15.055163554171205L39.989345554510756,15.080359468127085L40.034026387532556,15.08503839547896L40.05636680404345,15.087399825949984L40.52551555077235,15.138681309062434L40.65955804983775,15.15398118183511L40.83828138192494,15.174838653762837L41.15104721307755,15.21256662431141L41.68721720933914,15.280894340405354L41.77657887538274,15.292723459555518L42.156365956068036,15.344455261967099L42.201046789089844,15.350693831769593L42.42445095419884,15.382369950273851L42.692535952329635,15.421426911924712L42.89359970092774,15.451477487593095L43.49679094672203,15.545495370532183L43.608493029276524,15.563541092689775L43.72019511183103,15.581795499400613L43.89891844391823,15.611406739167418L44.18934385855992,15.660612360144881L44.345726774136224,15.68766446828495L44.412748023668925,15.699383753459724L44.524450106223426,15.719066001850706L44.54679052273432,15.723020024964967L44.70317343831063,15.750972771703278L44.77019468784332,15.763065492394393L46.31168342709541,16.06097916725889L46.669130091269814,16.135457585975004L46.89253425637881,16.183026680719077L47.54040633519491,16.325459380012777L48.1212571644783,16.45878684274616L48.2329592470328,16.485037162865826L48.2552996635437,16.49030919368484L48.5010442451636,16.548850702570988L48.6797675772508,16.59201545490167L49.2382779900233,16.730153645757387L49.26061840653419,16.735777145297675L49.305299239556,16.747057094570852L49.32763965606689,16.752702560906226L49.68508632024129,16.844194262411197L50.04253298441569,16.93767395887085L50.15423506697019,16.967296182035188L50.19891589999199,16.97920218496814L50.534022147655485,17.069485712743766L50.82444756229718,17.149159278496125L50.91380922834079,17.173926839947942L51.36061755855878,17.299686741776526L51.695723806222276,17.396055071789103L52.00848963737488,17.48756874008916L52.254234218994775,17.56054243334236L52.298915052016575,17.573909228148057L52.343595885038376,17.587308973146392L52.388276718060176,17.600741668337346L52.43295755108198,17.614196330323367L52.63402129968007,17.675154186668223L52.79040421525637,17.723008849748314L52.99146796385447,17.785076029244678L53.14785087943077,17.83378739733286L53.52763796011607,17.953671181477755L54.24253128846487,18.185354969178363L54.37657378753026,18.229672978250704L54.68933961868286,18.33415803904505L54.84572253425916,18.38696621441552L55.069126699368155,18.463059192569958L55.136147948900856,18.486036460222824L55.22550961494446,18.51676800653867L55.649977528651554,18.66446175325385L55.761679611206056,18.703793299843213L55.784020027716956,18.71167937927665L56.454232523043956,18.951853333275384L56.67763668815295,19.033438010199635L56.766998354196545,19.066278368843086L56.834019603729246,19.090991013307217L56.94572168628375,19.13233252164633L57.14678543488185,19.207228309468956L57.21380668441455,19.23232537284696L57.414870433012645,19.308033932087525L57.437210849523545,19.316480164795482L57.57125334858894,19.36734427880144L57.59359376509984,19.3758454284971L58.15210417787234,19.590867402130126L58.35316792647044,19.669420661333444L58.442529592514035,19.704534583267577L58.576572091579436,19.75743062581837L58.66593375762304,19.792841099486072L58.93401875575383,19.89979742472683L59.090401671330135,19.962688359038665L59.40316750248273,20.08956856741629L59.80529499967893,20.254846733592398L60.54252874453862,20.56413920830791L61.01167749126752,20.76516833347546L61.54784748752912,20.998927983311074L61.72657081961632,21.077788777645495L62.28508123238881,21.327265669360276L62.419123731454214,21.387817139996173L62.486144980986914,21.418197217590745L62.999974560737606,21.653285858528644L63.55848497351011,21.913196977906065L63.580825390021005,21.923697105953924L63.670187056064606,21.96573056833803L64.2957187183698,22.263248840891084L64.4297612174352,22.327743351243708L64.4521016339461,22.33851806423007L64.7201866320769,22.46836378994337L64.87656954765319,22.544599552265836L64.98827163020769,22.599263921820494L65.0329524632295,22.621175799912024L65.1223141292731,22.66509840667294L65.2116757953167,22.709130847409245L65.3457182943821,22.775393684765735L65.3903991274039,22.797536214205596L65.6138032925129,22.908699180704033L66.32869662086169,23.269229204941862L66.485079536438,23.349067521657314L66.5297603694598,23.371945938732324L66.5967816189925,23.406312989633776L67.06593036572139,23.648672639742887L67.22231328129767,23.730158466089282L67.35635578036307,23.800265492584643L67.37869619687399,23.811984777759417L67.69146202802658,23.976669840468386L68.16061077475547,24.22631148314626L68.29465327382087,24.29819782004304L68.98720618565878,24.673665264934737L69.09890826821326,24.734853772627925L69.34465284983317,24.8700703797381L69.43401451587677,24.91945173507621L69.70209951400757,25.06826578834043L70.14890784422556,25.318500534485462L70.26060992678006,25.381490319375136L70.50635450839997,25.52067193299712L70.52869492491087,25.533368740552927L70.84146075606346,25.71181600037902L71.33294991930326,25.99494602215519L71.35529033581416,26.007895447854395L71.37763075232506,26.020855856951133L71.51167325139045,26.098728145507007L71.55635408441226,26.124736830880806L71.62337533394495,26.16380477592922L71.95848158160847,26.360078089962105L72.42763032833736,26.637419861234893L72.71805574297905,26.81059509024199L73.25422573924064,27.13330927675092L73.47762990434966,27.268910302774987L73.67869365294774,27.391528952907247L73.74571490248044,27.432518992525086L73.99145948410035,27.583343007539057L74.03614031712215,27.610845434978255L74.08082115014393,27.638380812610055L74.34890614827474,27.804142248277913L74.46060823082924,27.873502403740574L74.90741656104723,28.15255758502954L75.35422489126523,28.434248781728016L75.57762905637422,28.576088377554594L75.62230988939604,28.604535377182188L75.95741613705952,28.818700645807123L76.09145863612493,28.904788515722604L76.11379905263583,28.91915479970442L76.13613946914673,28.933532067083785L76.40422446727752,29.10655352852532L76.53826696634292,29.193410236268587L76.60528821587563,29.236926457320525L76.67230946540832,29.28050857875772L76.76167113145192,29.338698618922592L77.23081987818082,29.645904248105584L77.29784112771353,29.690024556022212L77.34252196073531,29.71946006142839L77.92337279001872,30.104570929359856L78.34784070372582,30.38872240710721L78.59358528534572,30.554286141619354L78.77230861743291,30.67516941494033L79.4872019457817,31.162755381916412L79.5542231953144,31.208797784402467L79.66592527786891,31.285648616987157L79.8893294429779,31.439844535045783L80.1350740245978,31.610164080692574L80.2691165236632,31.703391159008827L80.5148611052831,31.874885928192345L80.760605686903,32.047116585011025L81.3637969326973,32.47304175819973L81.40847776571908,32.50477279369167L81.4531585987409,32.536525795978676L82.5031581747532,33.28971228225771L82.61486025730768,33.370626971932026L82.74890275637308,33.467917907337934L82.81592400590579,33.5166512422212L83.19571108659109,33.793806295735806L83.32975358565649,33.89203081993257L83.50847691774368,34.023337337518655L83.73188108285268,34.18801141683009L83.82124274889628,34.25404360283825L84.31273191213607,34.6189340358993L84.89358274141946,35.0538216614803L85.36273148814837,35.407970331747606L85.67549731930097,35.64548630354177L85.85422065138816,35.78172436662312L85.89890148440998,35.81583879938118L85.92124190092088,35.83290699915774L85.94358231743176,35.8499751989343L86.14464606602988,36.00389653205444L86.56911397973697,36.3303340903293L86.77017772833506,36.48569424852714L87.39570939064026,36.97194024100338L87.41804980715116,36.98939285969384L87.48507105668385,37.041772682560236L87.97656021992366,37.427410753573625L88.26698563456534,37.656568359840136L88.44570896665256,37.79805648694544L88.75847479780515,38.046500939291505L88.87017688035965,38.135499409554996L88.98187896291415,38.22462968058896L89.27230437755586,38.45701640573209L89.42868729313214,38.58252368941726L89.60741062521934,38.72629636321082L90.07655937194825,39.10535537909797L90.23294228752455,39.23223558747557L90.47868686914444,39.43214440609408L90.88081436634064,39.76067979329902L91.08187811493873,39.92559550735632L91.57336727817854,40.33052042444926L91.61804811120034,40.36745759037498L92.39996268908183,41.01727932240868L92.69038810372352,41.26025404278002L92.89145185232162,41.428991979181106L92.95847310185432,41.485325825161794L93.38294101556141,41.8431868837975L93.47230268160503,41.918763642267564L93.53932393113772,41.97549289055968L93.71804726322493,42.12700885961864L94.29889809250832,42.621668134610246L94.76804683923721,43.02368245135517L94.83506808876992,43.081290371450464L96.0861314133803,44.164791555335825L96.376556828022,44.4185080385009L96.53293974359829,44.55546002242234L96.5552801601092,44.57504342023546L96.6223014096419,44.63382656386747L97.47123723705609,45.38208150465121L97.7840030682087,45.659478192911706L97.82868390123049,45.69918317501741L97.94038598378499,45.79852800576322L98.00740723331769,45.85817883780085L98.0520880663395,45.89798267048441L98.16379014889398,45.99754716918102L98.4542155635357,46.25698600246422L98.7223005616665,46.49714897306542L98.94570472677549,46.697793679319076L99.16910889188449,46.898888704871865L99.23613014141718,46.95930837473729L99.3925130569935,47.10044503312132L99.48187472303708,47.18119497183257L99.83932138721148,47.504908647517595L99.90634263674417,47.56573470309198L99.97336388627689,47.626604692256535L100.48719346602758,48.09456332782932L100.57655513207118,48.17618095494619L100.68825721462568,48.27831556866704L101.00102304577827,48.564850443680484L101.02336346228918,48.58535644688696L101.24676762739817,48.790592213312166L101.33612929344177,48.872813927293734L101.40315054297446,48.934518654671265L101.44783137599627,48.97568442864976L101.49251220901807,49.01686118602575L101.62655470808348,49.1405012921292L101.84995887319248,49.34690129869362L102.20740553736687,49.67803975111542L102.22974595387777,49.69877640567023L102.43080970247587,49.88556006422888L102.98932011524836,50.406184091004135L103.25740511337916,50.657011940616286L103.27974552989005,50.67793531292925L103.34676677942277,50.74074936345829L103.52549011150995,50.908421910298046L103.74889427661896,51.11839152106283L103.90527719219526,51.265612981683816L104.70953218658765,52.0258837593759L104.99995760122935,52.301698838390664L105.06697885076206,52.36544647771059L105.31272343238194,52.59948071248469L105.37974468191464,52.663393102767685L105.46910634795826,52.748657217867716L105.53612759749095,52.812646491933506L105.82655301213263,53.0903507153251L106.20634009281794,53.45449427735345L106.29570175886154,53.54032952912553L106.49676550745964,53.73369224281045L106.80953133861223,54.03508765469499L106.94357383767763,54.16449404450671L107.05527592023213,54.272427892128505L107.25633966883024,54.466943862555055L107.61378633300463,54.81349202172494L107.68080758253734,54.87856865214715L107.72548841555913,54.921975039223724L108.44038174390793,55.61847621080079L108.50740299344062,55.68395922693196L108.84250924110414,56.01186856047714L109.64676423549652,56.802102046657254L109.66910465200742,56.8241237587242L109.84782798409462,57.00036335564482L109.93718965013822,57.08857102128546L110.13825339873631,57.287238715982014L110.31697673082351,57.464060432972246L110.54038089593251,57.685397860190534L110.8308063105742,57.97363516182263L110.8531467270851,57.9958326082502L110.9648488096396,58.106852790580604L111.1212317252159,58.26243261672924L111.27761464079222,58.41816621044342L111.45633797287941,58.59634986872858L111.47867838939031,58.61864616573398L111.56804005543391,58.70783135375565L111.7914442205429,58.931013991760594L112.55101838191351,59.692251308436155L112.68506088097891,59.82696267925951L112.8637842130661,60.006760896982996L113.332932959795,60.47966206144861L113.3552733763059,60.50222195999498L113.64569879094759,60.795687358855915L113.8020817065239,60.95392516720912L113.8244221230348,60.976539982743205L113.84676253954571,60.99915479827726L114.09250712116558,61.24818137069293L114.51697503487269,61.67913693995476L114.58399628440539,61.74728892168805L114.87442169904709,62.04288509967168L115.16484711368878,62.33896454714706L115.25420877973238,62.43015969691845L115.32123002926508,62.498597246987785L115.65633627692858,62.8411254826582L115.70101710995039,62.88683838321806L115.81271919250489,63.00118653500297L116.01378294110299,63.20718015585844L116.03612335761389,63.23008053972853L116.14782544016839,63.344637376066714L116.52761252085368,63.73462487250576L116.59463377038638,63.80353470866932L116.66165501991907,63.872455528230375L116.68399543642998,63.8954437792808L116.79569751898447,64.01038503453285L116.95208043456078,64.17142360925868L117.22016543269159,64.44778785815043L117.26484626571337,64.4938851776242L117.33186751524607,64.56305861532867L117.37654834826787,64.60917790159752L117.46591001431146,64.70146040772536L117.53293126384418,64.77069974581508L117.66697376290958,64.90924432237978L117.75633542895316,65.00165862927807L118.18080334266027,65.4411812486208L118.96271792054176,66.25319481212199L119.23080291867255,66.53228294360358L119.72229208191236,67.04485613998227L120.21378124515216,67.55854964291001L120.48186624328297,67.8392193836373L120.63824915885925,68.00309167492836L120.68292999188105,68.04993586543479L120.70527040839195,68.07336345238679L120.77229165792465,68.14364621324277L120.81697249094645,68.19051237054433L121.06271707256636,68.44844647836462L121.10739790558814,68.49536755265385L121.21909998814264,68.61271417196707L121.37548290371895,68.77710268294247L121.77761040091514,69.20028200674625L122.04569539904594,69.4827749914651L122.06803581555684,69.50633437918758L122.51484414577484,69.97786261896076L122.67122706135115,70.14309135984793L122.89463122646013,70.37930579903363L123.00633330901464,70.4974816648611L123.22973747412364,70.73398716408161L123.65420538783073,71.1838836024005L123.72122663736344,71.25498462637319L123.81058830340703,71.34980429733267L124.21271580060322,71.776882727263L124.30207746664684,71.87187264088438L124.45846038222312,72.03816677133288L124.48080079873402,72.06193484360861L124.52548163175584,72.10946549646128L124.65952413082124,72.25210688030825L124.74888579686483,72.34723957809761L124.99463037848473,72.60899041656292L125.17335371057192,72.79948646349L125.26271537661552,72.89477842054369L125.30739620963732,72.94243538246806L125.59782162427904,73.25235940254211L125.68718329032262,73.34777766866752L125.70952370683352,73.37163360812356L125.77654495636622,73.44321790158799L125.84356620589891,73.51481867014873L126.06697037100793,73.75359224096117L126.17867245356243,73.87304218090321L126.22335328658421,73.92083094359809L126.35739578564962,74.06424116527282L126.44675745169322,74.15987909934901L126.60314036726952,74.32730451974412L126.6701616168022,74.39908102266548L126.71484244982402,74.44694117744436L126.7818636993567,74.51873964716081L126.96058703144392,74.71027362515537L127.00526786446571,74.75817222182562L127.13931036353111,74.901900962029L127.27335286259651,75.0456846192201L127.29569327910741,75.06965588435031L127.63079952677091,75.42936764547142L127.9659057744344,75.7893979251212L128.2563311890761,76.10167788396748L128.32335243860882,76.17377839711628L128.725479935805,76.60661212735738L128.8148416018486,76.70285414829824L129.1276074330012,77.039863226705L129.1499478495121,77.06394981750937L129.4180328476429,77.35302185735446L129.5744157632192,77.52173233526169L129.97654326041538,77.95582366452108L130.4903728401661,78.51103441014855L130.5573940896988,78.58349737541617L130.9148407538732,78.97011846050934L130.9371811703841,78.99429291849401L131.5627128326893,79.67154568588293L131.87547866384188,80.01046038376278L132.07654241243998,80.22842590793641L132.18824449499448,80.34955081600327L132.70207407474518,80.9070076664276L133.50632906913756,81.78041293047646L133.55100990215936,81.82896503930033L134.24356281399727,82.58186595724331L134.26590323050817,82.60616123260093L134.75739239374798,83.14087146672074L134.89143489281335,83.28675295284188L135.00313697536788,83.40833367190663L135.22654114047685,83.65153904362629L135.27122197349868,83.70019000302801L135.29356239000958,83.72451273687949L135.38292405605316,83.82181465568293L135.5393069716295,83.99211772623342L135.76271113673846,84.23544391532603L136.00845571835836,84.50315324695656L136.14249821742376,84.64919948404082L136.23185988346737,84.74657279492826L136.45526404857637,84.99003627649009L136.76802987972894,85.33094446102339L136.96909362832704,85.55013463402268L137.01377446134885,85.59884600211089L137.30419987599055,85.91550833657548L137.50526362458865,86.13476440996004L137.52760404109955,86.1591255857029L137.81802945574125,86.47587029564903L138.01909320433936,86.69517030262374L138.06377403736116,86.74390912920578L138.15313570340473,86.84138678236984L138.48824195106823,87.20693621928326L138.66696528315543,87.4019134924065L138.77866736570996,87.52377977980728L138.84568861524264,87.59689625722851L139.42653944452604,88.23062731186667L139.47122027754784,88.27937712184625L139.62760319312414,88.44999871092537L139.85100735823312,88.69374776082324L139.96270944078765,88.8156195399228L140.49887943704923,89.40059529288263L140.56590068658193,89.47371177030384L140.81164526820183,89.74180552084829L141.52653859655064,90.52159379596823L142.06270859281224,91.10628947229083L142.37547442396482,91.44728552400443L142.554197756052,91.64211452126086L142.777601921161,91.8856164447141L143.0233465027809,92.15342462692252L143.0903677523136,92.2264532371634L143.2690910844008,92.42118338384199L143.3361123339335,92.49420101068534L143.40313358346623,92.56721314582992L143.7605802476406,92.95654163841661L144.16270774483678,93.39438928963453L144.2297289943695,93.46734650779143L144.2744098273913,93.51598099209684L144.65419690807659,93.92929173321127L145.1233456548055,94.43961333309436L145.4137710694472,94.75538601235824L145.9946218987306,95.38656891876724L146.4861110619704,95.92024671351831L146.57547272801398,96.01723560549186L146.82121730963388,96.28389602265737L147.04462147474288,96.5262172308751L147.08930230776468,96.57467598081986L147.22334480683008,96.72001378876283L147.33504688938459,96.84111123833581L147.46908938845,96.98638863759228L147.5361106379827,97.05902184552177L147.6031318875154,97.13163857835492L148.22866354982057,97.80900667141798L148.47440813144047,98.07489825075571L148.60845063050587,98.21987360657985L148.69781229654947,98.31650553813337L149.36802479187648,99.04067388811274L149.50206729094188,99.1853856423959L149.59142895698548,99.28183634789004L149.72547145605088,99.42647671008922L149.81483312209446,99.52287799029439L149.90419478813808,99.61926279540327L149.99355645418166,99.71562563371708L150.08291812022526,99.81196650523579L150.2169606192907,99.95644760817066L150.23930103580156,99.98052321557748L150.32866270184516,100.07681466180728L150.4180243678888,100.17307864954323L150.64142853299776,100.4136644809497L150.68610936601956,100.46176627047443L150.86483269810677,100.65411301988692L150.88717311461767,100.67815018540236L151.73610894203185,101.5905739692107L151.78078977505368,101.6385384662662L151.84781102458635,101.71047972015066L151.95951310714085,101.83034702919923L152.09355560620625,101.9741361780891L152.29461935480438,102.18972928839418L152.47334268689156,102.38126326638873L152.56270435293516,102.47698906764523L152.60738518595696,102.52484922242411L152.76376810153326,102.6922911179155L152.83078935106596,102.76403467064426L152.85312976757686,102.787945527088L153.14355518221856,103.09863289329105L153.18823601524036,103.14640518088962L153.45632101337117,103.4329125974092L153.56802309592564,103.55222524488202L153.61270392894744,103.5999371237941L153.74674642801284,103.74303431863898L154.39461850682895,104.43380764839912L154.50632058938345,104.55276333545191L154.84142683704695,104.90935581167179L155.39993724981943,105.50277230564082L155.86908599654834,106.00034218098038L155.98078807910284,106.11868279777096L156.09249016165734,106.23697948097137L156.36057515978814,106.52069711451591L156.38291557629904,106.5443278943224L156.53929849187531,106.70968294428127L156.65100057442984,106.82773250103705L156.82972390651702,107.01650964624915L157.14248973766962,107.346549758917L157.38823431928952,107.60558769819004L158.30419139623643,108.56883166241415L158.34887222925823,108.61572527820954L158.39355306228,108.66261340230616L158.4829147283236,108.75635670030675L158.50525514483454,108.77978428725876L158.6616380604108,108.94373895403133L159.33185055573782,109.6451332292123L159.42121222178142,109.73849759999779L159.44355263829232,109.76183182807071L160.0467438840866,110.39098280593487L160.0690843005975,110.41425113362251L160.6499351298809,111.01838742359021L160.67227554639183,111.04159534259142L160.6946159629027,111.06479227819509L160.7839776289463,111.1575690372122L160.8063180454572,111.18076048111709L161.3201476252079,111.71339485310189L161.69993470589318,112.10621606610619L162.191423869133,112.61346780637693L162.7275938653946,113.165372549345L162.86163636446,113.30310435449175L163.1520617791017,113.6011882720181L164.5148271862666,114.99360849510263L164.5595080192884,115.03907976091664L164.6265292688211,115.10727018454132L164.64886968533196,115.12999483405079L164.7382313513756,115.22085499019724L165.09567801555,115.58384529548394L165.78823092738787,116.28496773157579L166.34674134016038,116.84826225779243L166.41376258969308,116.9157277771795L166.57014550526935,117.07303748844062L166.61482633829118,117.11795409267889L166.81589008688925,117.31993053588423L166.92759216944378,117.43202709117352L167.06163466850916,117.56643916441394L167.26269841710726,117.76784172509782L167.39674091617266,117.9019682300022L167.70950674732526,118.21447334849806L167.73184716383616,118.23677239135286L168.04461299498877,118.5485937933519L168.37971924265224,118.88197285887178L168.46908090869584,118.9707489153351L168.96057007193565,119.45805205982452L168.98291048844655,119.48016163907178L169.56376131772993,120.0538601886078L169.60844215075176,120.0978953751935L169.65312298377356,120.14191408668287L169.83184631586073,120.31785713186996L170.12227173050246,120.60329092128005L170.21163339654606,120.69099609648325L170.25631422956783,120.73482809021446L170.50205881118774,120.97565006466805L170.52439922769864,120.9975207550188L170.77014380931854,121.23787318922756L170.79248422582944,121.25969994598815L171.17227130651472,121.63023859123395L171.32865422209105,121.78250692302439L171.37333505511285,121.82598195633555L171.66376046975452,122.10819761026654L171.70844130277632,122.15156006375294L171.73078171928722,122.17323579879736L171.77546255230905,122.21657903133807L172.31163254857066,122.7355116148922L172.37865379810333,122.80022579319561L172.42333463112513,122.84334935778551L172.44567504763603,122.8649070213064L172.98184504389764,123.38113494321641L173.24993004202844,123.63842652228062L173.3616321245829,123.74546796885231L173.47333420713744,123.85241331069554L173.6073767062028,123.98061701847666L174.50099336663882,124.83172598552012L175.05950377941133,125.36044477628205L175.08184419592223,125.38154113710627L175.30524836103123,125.59228233154822L175.52865252614023,125.80261988613059L175.55099294265113,125.82363112562386L175.7073758582274,125.97059447640267L175.8190779407819,126.07544473516519L177.2712050139904,127.42904688549535L177.360566680034,127.5117628523662L177.5616304286321,127.69762390553153L177.583970845143,127.71825347196032L177.7626941772302,127.88313898167438L177.8743962597847,127.98605067077118L178.41056625604628,128.4785242496524L178.5446087551117,128.60124998791065L178.5892895881335,128.64212195600493L178.61163000464438,128.66255382127798L178.72333208719888,128.76463626386055L178.8126937532425,128.84622368663418L179.1924808339278,129.19218423403572L179.2148212504387,129.21249528193584L179.2595020834605,129.25310364848917L179.7286508301894,129.67840276801812L179.79567207972207,129.73899817224415L180.01907624483107,129.94068904711347L180.04141666134197,129.9608325982011L180.06375707785287,129.98097340343938L180.10843791087467,130.0212385388196L180.1754591604074,130.08160054584795L180.28716124296187,130.1821178542811L180.30950165947277,130.20220648838105L181.13609707037608,130.94228978139532L181.33716081897418,131.12135485733302L181.73928831617036,131.47834273586432L181.8509903987249,131.577237247311L182.0967349803448,131.79438725421733L182.11907539685566,131.81409970695154L182.85630914171537,132.46194442742814L182.90098997473717,132.5010398309704L182.92333039124807,132.52057929519336L183.16907497286797,132.73520586651495L183.21375580588978,132.77416672343733L183.32545788844425,132.8714823714877L183.37013872146608,132.91037458217548L183.59354288657505,133.10454457557952L183.63822371959688,133.14331871474374L183.70524496912958,133.20144560037278L183.77226621866225,133.25952855241164L183.81694705168405,133.29822580779307L184.21907454888026,133.64561419687476L184.28609579841296,133.7033566635899L184.68822329560913,134.04887787508983L185.15737204233804,134.44993938209822L185.53715912302337,134.77298581638271L185.71588245511055,134.9245017854417L185.91694620370865,135.09456871294506L186.07332911928495,135.22655620117862L186.14035036881765,135.28304656057423L186.25205245137215,135.37709190200718L186.54247786601383,135.6210139404163L186.56481828252473,135.63974063322135L186.78822244763373,135.82672748463452L187.27971161087353,136.23627366624225L187.36907327691713,136.31046377077294L187.90524327317874,136.75385254604961L187.97226452271144,136.80906059378248L188.03928577224414,136.8642247079252L188.10630702177684,136.91933939677898L188.24034952084224,137.02942324446911L188.32971118688585,137.10270996455222L188.37439201990765,137.1393203744011L188.44141326944032,137.1941961743584L188.55311535199485,137.28554783754478L188.70949826757112,137.41321610469586L188.79885993361475,137.48605250547982L188.95524284919102,137.61331164107256L189.22332784732183,137.83085155859152L189.26800868034363,137.86703361593638L189.40205117940903,137.97544798720054L189.44673201243083,138.0115421773651L189.58077451149623,138.11969569293765L189.98290200869243,138.44298376196804L190.0499232582251,138.49669532178612L190.3626890893777,138.7466856873359L190.40736992239954,138.78231033725564L190.4967315884431,138.85349648255925L190.78715700308481,139.08423569807147L190.83183783610662,139.11965166343793L190.94353991866114,139.2080927262763L191.14460366725922,139.3669373673436L191.52439074794452,139.66574618910755L191.77013532956443,139.85823160391396L192.28396490931513,140.25849818752542L192.3733265753587,140.3278047989251L192.7977944890658,140.65576904945794L193.35630490183829,141.08415862246957L193.37864531834921,141.10121995762267L193.64673031648002,141.30550154138663L193.91481531461082,141.5089497598623L194.0711982301871,141.62724369721332L194.1605598962307,141.6947119624498L194.2275811457634,141.74525206622832L194.540346976916,141.98041072632554L195.0988573896885,142.3974805352479L195.3446019713084,142.5798241553512L195.38928280433018,142.61290065704173L195.50098488688468,142.69548894191615L195.52332530339558,142.71198875087003L195.65736780246098,142.81086266844636L196.59566529591876,143.49696668132748L197.02013320962587,143.80386614830405L197.66800528844198,144.26807395361706L197.6903457049529,144.28399026957666L198.51694111585618,144.86857062022506L198.56162194887798,144.89992959312536L198.60630278189979,144.93126385338118L199.16481319467226,145.32085457458413L199.65630235791207,145.6604804474547L199.79034485697744,145.75258035459842L199.90204693953197,145.8291579751693L200.03608943859734,145.9208446319806L200.23715318719547,146.0579503834676L200.34885526974995,146.13389920452934L200.41587651928268,146.17939381006312L200.90736568252245,146.51127638766826L200.97438693205515,146.55629458833374L201.10842943112056,146.64616074700285L201.48821651180586,146.89953811776888L201.80098234295846,147.1068140502871L201.93502484202384,147.1952619777489L202.18076942364374,147.35681539923442L202.31481192270917,147.44460706869324L202.64991817037264,147.66306959160553L202.69459900339444,147.6920877279052L202.71693941990534,147.70658718558218L202.87332233548165,147.80790216326164L203.18608816663425,148.00957656303464L203.20842858314515,148.02393323654363L203.29779024918872,148.08129403019424L203.63289649685225,148.29546753636734L203.72225816289586,148.352332704204L203.78927941242853,148.394911217691L204.10204524358113,148.5928361601289L204.23608774264653,148.67726553701593L204.39247065822283,148.77546809441762L204.59353440682094,148.90125270889067L204.9286406544844,149.1097038649456L204.9509810709953,149.1235470646196L205.46481065074602,149.4401187860545L205.77757648189862,149.63108711907577L205.91161898096402,149.7125303847567L206.02332106351852,149.78021557209456L206.20204439560572,149.88816177603857L206.22438481211663,149.90162467557278L206.29140606164933,149.9419735593592L206.62651230931283,150.14281047506984L206.8275760579109,150.2625844252393L207.028639806509,150.3818105784565L207.16268230557444,150.4609898913196L207.3190652211507,150.55305684827073L207.43076730370524,150.61861537526L207.6541714688142,150.74922238771526L208.12332021554312,151.0212783989221L208.1680010485649,151.04703103384077L208.36906479716302,151.16257980826924L208.6371497952938,151.3157810423882L208.77119229435922,151.39201062654953L208.79353271087012,151.40469164547136L209.06161770900093,151.55632362666685L209.1956602080663,151.63176789790413L209.2850218741099,151.68192495569346L209.8658727033933,152.00524940722818L209.9105535364151,152.0299263556503L210.04459603548048,152.1037897041042L210.7818297803402,152.5055507162434L210.9605531124274,152.60180028827008L210.9828935289383,152.61380033654444L211.2062976940473,152.73341090867552L211.6084251912435,152.94693708085615L211.67544644077617,152.98230293447133L212.0105526884397,153.15817801988612L212.16693560401598,153.23970846628504L212.43502060214678,153.37866766610685L212.47970143516858,153.40172799570362L212.65842476725578,153.4936851186793L212.72544601678848,153.52805216958077L212.79246726632118,153.5623546930217L212.83714809934298,153.58518780358185L213.01587143143018,153.67623399102413L213.1945947635174,153.76682368100617L213.61906267722446,153.9801411686335L213.82012642582256,154.080284355088L213.86480725884437,154.10245914825813L214.04353059093157,154.19087206614026L214.26693475604057,154.3007410511161L214.53501975417137,154.43163294544502L214.95948766787845,154.63675269973376L215.60735974669458,154.94479032128038L215.69672141273816,154.98679907102002L215.78608307878176,155.0286911221608L215.85310432831446,155.06003361996477L216.16587015946706,155.20543252305652L216.81374223828314,155.50205976748418L216.99246557037037,155.58280421449666L217.08182723641394,155.6230000171799L217.21586973547937,155.68307371002282L217.26055056850115,155.7030394673628L218.06480556289355,156.0573824064741L218.31055014451346,156.1637456282477L218.75735847473143,156.35483546510426L218.93608180681863,156.43044036853053L219.18182638843854,156.53362012117353L219.71799638470014,156.7556103740831L219.74033680121104,156.76476675208824L220.00842179934185,156.87405945192438L220.58927262862522,157.10716181406346L220.85735762675603,157.21303661787775L221.17012345790863,157.33518881684572L221.39352762301763,157.42153616952808L221.81799553672474,157.58351794351762L221.9073572027683,157.6172716403127L222.10842095136644,157.69277529054293L222.44352719902992,157.81725116455289L222.62225053111712,157.8829408058503L222.71161219716072,157.9156030275149L223.24778219342232,158.10902374726805L223.3371438594659,158.14083441239214L223.538207608064,158.21196186516516L224.0520371878147,158.39092397175094L224.878632598718,158.67032478683123L225.05735593080522,158.7293547136767L225.54884509404502,158.8891504483247L225.57118551055592,158.89632535276746L225.7052280096213,158.93921277431025L225.79458967566492,158.96765050669617L226.4871425875028,159.1838545684894L227.55948258002599,159.50394801337603L228.3190567413966,159.7198538072798L228.7882054881255,159.8487081097496L228.87756715416907,159.87286145901714L229.54777964949608,160.0500260639493L229.70416256507238,160.09035126478483L229.97224756320318,160.1585866516932L230.10629006226856,160.19228096949536L230.59777922550836,160.31340930987395L230.97756630619367,160.4044036694091L231.11160880525907,160.43597647533022L231.33501297036807,160.48796793212426L231.51373630245527,160.5289940110153L232.36267212986948,160.71697365859666L232.58607629497848,160.76454652888364L232.87650170962016,160.82520886318844L232.94352295915286,160.8390179113607L233.07756545821823,160.86642234629997L233.14458670775096,160.8800176472592L233.39033128937086,160.9292570765072L233.45735253890356,160.94251952903628L233.77011837005614,161.00346768910052L233.83713961958884,161.01632564369208L233.85948003609974,161.02059578271678L233.99352253516517,161.0460499781304L234.64139461398125,161.16504753938634L234.70841586351392,161.1769761097689L234.79777752955755,161.1927695489685L235.08820294419925,161.24321903971736L235.49033044139543,161.31085094041558L235.78075585603713,161.35809079065686L235.82543668905896,161.3652389230681L235.89245793859163,161.37590122784528L235.91479835510253,161.3794394263933L236.13820252021154,161.41438233339545L236.65203209996224,161.4917223562096L236.67437251647314,161.49498914470752L237.09884043018022,161.55553997178492L237.21054251273475,161.5709948134323L237.52330834388732,161.61320469663937L237.92543584108353,161.66517015367202L238.14884000619253,161.69291902109353L239.0201162501176,161.7934836954286L239.2211799987157,161.8149590263718L239.31054166475934,161.82429504299216L239.62330749591192,161.8559599206755L239.84671166102092,161.87761441829107L240.15947749217352,161.90658164911738L240.22649874170622,161.91258409732473L240.3828816572825,161.92630860336865L240.40522207379342,161.92823711207066L240.5169241563479,161.937759095631L240.8073495709896,161.96157590673332L240.8967112370332,161.96863085188104L240.94139207005503,161.97211007902314L240.96373248656593,161.9738376473252L240.9860729030768,161.97555714969474L241.1424558186531,161.98736861389142L241.5892641488711,162.01894411203207L241.70096623142558,162.02633520921L242.37117872675262,162.06645683105597L242.6169233083725,162.07935289503374L242.6392637248834,162.08047695031073L243.1307528881232,162.10316886414705L243.1977741376559,162.10596119454098L243.35415705323217,162.11219470704665L243.4211783027649,162.11474537856128L243.6669228843848,162.12347752551793L243.9573482990265,162.13254046419917L244.00202913204828,162.13381390011833L244.09139079809188,162.1362640732773L244.42649704575538,162.14430389748358L244.739262876908,162.15017174410045L244.8286245429516,162.15155812586823L245.43181578874587,162.15685881699298L245.74458161989847,162.15685881699298" fill="none"></path></g></g></g></g></g></g><g transform="translate(61, 176)" clip-path="url(#clip_1)"><clipPath id="clip_1"><rect width="268" height="23"></rect></clipPath><g><g><line x1="0" y1="0" x2="0" y2="5" style="visibility: inherit;" fill="rgb(0, 0, 0)" stroke="rgb(204, 204, 204)" stroke-width="1px"></line><line x1="22.34041651089986" y1="0" x2="22.34041651089986" y2="5" style="visibility: inherit;" fill="rgb(0, 0, 0)" stroke="rgb(204, 204, 204)" stroke-width="1px"></line><line x1="44.68083302179972" y1="0" x2="44.68083302179972" y2="5" style="visibility: inherit;" fill="rgb(0, 0, 0)" stroke="rgb(204, 204, 204)" stroke-width="1px"></line><line x1="67.02124953269958" y1="0" x2="67.02124953269958" y2="5" style="visibility: inherit;" fill="rgb(0, 0, 0)" stroke="rgb(204, 204, 204)" stroke-width="1px"></line><line x1="89.36166604359944" y1="0" x2="89.36166604359944" y2="5" style="visibility: inherit;" fill="rgb(0, 0, 0)" stroke="rgb(204, 204, 204)" stroke-width="1px"></line><line x1="111.70208255449931" y1="0" x2="111.70208255449931" y2="5" style="visibility: inherit;" fill="rgb(0, 0, 0)" stroke="rgb(204, 204, 204)" stroke-width="1px"></line><line x1="134.04249906539917" y1="0" x2="134.04249906539917" y2="5" style="visibility: inherit;" fill="rgb(0, 0, 0)" stroke="rgb(204, 204, 204)" stroke-width="1px"></line><line x1="156.38291557629904" y1="0" x2="156.38291557629904" y2="5" style="visibility: inherit;" fill="rgb(0, 0, 0)" stroke="rgb(204, 204, 204)" stroke-width="1px"></line><line x1="178.72333208719888" y1="0" x2="178.72333208719888" y2="5" style="visibility: inherit;" fill="rgb(0, 0, 0)" stroke="rgb(204, 204, 204)" stroke-width="1px"></line><line x1="201.06374859809875" y1="0" x2="201.06374859809875" y2="5" style="visibility: inherit;" fill="rgb(0, 0, 0)" stroke="rgb(204, 204, 204)" stroke-width="1px"></line><line x1="223.40416510899863" y1="0" x2="223.40416510899863" y2="5" style="visibility: inherit;" fill="rgb(0, 0, 0)" stroke="rgb(204, 204, 204)" stroke-width="1px"></line><line x1="245.74458161989847" y1="0" x2="245.74458161989847" y2="5" style="visibility: inherit;" fill="rgb(0, 0, 0)" stroke="rgb(204, 204, 204)" stroke-width="1px"></line><line x1="268.08499813079834" y1="0" x2="268.08499813079834" y2="5" style="visibility: inherit;" fill="rgb(0, 0, 0)" stroke="rgb(204, 204, 204)" stroke-width="1px"></line></g><g transform="translate(0, 8)"><text style="text-anchor: middle; visibility: hidden; font-family: Roboto, sans-serif; font-size: 12px; font-weight: 200;" x="0" y="0" dx="0em" dy="0.95em" fill="rgb(33, 33, 33)" stroke="none" stroke-width="1px">-1k</text><text style="text-anchor: middle; visibility: inherit; font-family: Roboto, sans-serif; font-size: 12px; font-weight: 200;" x="22.34041651089986" y="0" dx="0em" dy="0.95em" fill="rgb(33, 33, 33)" stroke="none" stroke-width="1px">0</text><text style="text-anchor: middle; visibility: inherit; font-family: Roboto, sans-serif; font-size: 12px; font-weight: 200;" x="44.68083302179972" y="0" dx="0em" dy="0.95em" fill="rgb(33, 33, 33)" stroke="none" stroke-width="1px">1k</text><text style="text-anchor: middle; visibility: inherit; font-family: Roboto, sans-serif; font-size: 12px; font-weight: 200;" x="67.02124953269958" y="0" dx="0em" dy="0.95em" fill="rgb(33, 33, 33)" stroke="none" stroke-width="1px">2k</text><text style="text-anchor: middle; visibility: inherit; font-family: Roboto, sans-serif; font-size: 12px; font-weight: 200;" x="89.36166604359944" y="0" dx="0em" dy="0.95em" fill="rgb(33, 33, 33)" stroke="none" stroke-width="1px">3k</text><text style="text-anchor: middle; visibility: inherit; font-family: Roboto, sans-serif; font-size: 12px; font-weight: 200;" x="111.70208255449931" y="0" dx="0em" dy="0.95em" fill="rgb(33, 33, 33)" stroke="none" stroke-width="1px">4k</text><text style="text-anchor: middle; visibility: inherit; font-family: Roboto, sans-serif; font-size: 12px; font-weight: 200;" x="134.04249906539917" y="0" dx="0em" dy="0.95em" fill="rgb(33, 33, 33)" stroke="none" stroke-width="1px">5k</text><text style="text-anchor: middle; visibility: inherit; font-family: Roboto, sans-serif; font-size: 12px; font-weight: 200;" x="156.38291557629904" y="0" dx="0em" dy="0.95em" fill="rgb(33, 33, 33)" stroke="none" stroke-width="1px">6k</text><text style="text-anchor: middle; visibility: inherit; font-family: Roboto, sans-serif; font-size: 12px; font-weight: 200;" x="178.72333208719888" y="0" dx="0em" dy="0.95em" fill="rgb(33, 33, 33)" stroke="none" stroke-width="1px">7k</text><text style="text-anchor: middle; visibility: inherit; font-family: Roboto, sans-serif; font-size: 12px; font-weight: 200;" x="201.06374859809875" y="0" dx="0em" dy="0.95em" fill="rgb(33, 33, 33)" stroke="none" stroke-width="1px">8k</text><text style="text-anchor: middle; visibility: inherit; font-family: Roboto, sans-serif; font-size: 12px; font-weight: 200;" x="223.40416510899863" y="0" dx="0em" dy="0.95em" fill="rgb(33, 33, 33)" stroke="none" stroke-width="1px">9k</text><text style="text-anchor: middle; visibility: inherit; font-family: Roboto, sans-serif; font-size: 12px; font-weight: 200;" x="245.74458161989847" y="0" dx="0em" dy="0.95em" fill="rgb(33, 33, 33)" stroke="none" stroke-width="1px">10k</text><text style="text-anchor: middle; visibility: hidden; font-family: Roboto, sans-serif; font-size: 12px; font-weight: 200;" x="268.08499813079834" y="0" dx="0em" dy="0.95em" fill="rgb(33, 33, 33)" stroke="none" stroke-width="1px">11k</text></g><line x1="0" y1="0" x2="268.08499813079834" y2="0" fill="rgb(0, 0, 0)" stroke="rgb(204, 204, 204)" stroke-width="1px"></line></g></g></g></g></svg>