<svg viewBox="0 0 854.25 400" xmlns="http://www.w3.org/2000/svg"><g><g><g><g><g><line x1="51.53200149536133" y1="376.8999996185303" x2="46.53200149536133" y2="376.8999996185303" style="visibility: inherit;" fill="rgb(0, 0, 0)" stroke="rgb(204, 204, 204)" stroke-width="1px"></line><line x1="51.53200149536133" y1="349.97857107434953" x2="46.53200149536133" y2="349.97857107434953" style="visibility: inherit;" fill="rgb(0, 0, 0)" stroke="rgb(204, 204, 204)" stroke-width="1px"></line><line x1="51.53200149536133" y1="323.05714253016885" x2="46.53200149536133" y2="323.05714253016885" style="visibility: inherit;" fill="rgb(0, 0, 0)" stroke="rgb(204, 204, 204)" stroke-width="1px"></line><line x1="51.53200149536133" y1="296.13571398598805" x2="46.53200149536133" y2="296.13571398598805" style="visibility: inherit;" fill="rgb(0, 0, 0)" stroke="rgb(204, 204, 204)" stroke-width="1px"></line><line x1="51.53200149536133" y1="269.21428544180736" x2="46.53200149536133" y2="269.21428544180736" style="visibility: inherit;" fill="rgb(0, 0, 0)" stroke="rgb(204, 204, 204)" stroke-width="1px"></line><line x1="51.53200149536133" y1="242.29285689762662" x2="46.53200149536133" y2="242.29285689762662" style="visibility: inherit;" fill="rgb(0, 0, 0)" stroke="rgb(204, 204, 204)" stroke-width="1px"></line><line x1="51.53200149536133" y1="215.3714283534459" x2="46.53200149536133" y2="215.3714283534459" style="visibility: inherit;" fill="rgb(0, 0, 0)" stroke="rgb(204, 204, 204)" stroke-width="1px"></line><line x1="51.53200149536133" y1="188.44999980926514" x2="46.53200149536133" y2="188.44999980926514" style="visibility: inherit;" fill="rgb(0, 0, 0)" stroke="rgb(204, 204, 204)" stroke-width="1px"></line><line x1="51.53200149536133" y1="161.52857126508445" x2="46.53200149536133" y2="161.52857126508445" style="visibility: inherit;" fill="rgb(0, 0, 0)" stroke="rgb(204, 204, 204)" stroke-width="1px"></line><line x1="51.53200149536133" y1="134.60714272090368" x2="46.53200149536133" y2="134.60714272090368" style="visibility: inherit;" fill="rgb(0, 0, 0)" stroke="rgb(204, 204, 204)" stroke-width="1px"></line><line x1="51.53200149536133" y1="107.68571417672297" x2="46.53200149536133" y2="107.68571417672297" style="visibility: inherit;" fill="rgb(0, 0, 0)" stroke="rgb(204, 204, 204)" stroke-width="1px"></line><line x1="51.53200149536133" y1="80.76428563254221" x2="46.53200149536133" y2="80.76428563254221" style="visibility: inherit;" fill="rgb(0, 0, 0)" stroke="rgb(204, 204, 204)" stroke-width="1px"></line><line x1="51.53200149536133" y1="53.84285708836144" x2="46.53200149536133" y2="53.84285708836144" style="visibility: inherit;" fill="rgb(0, 0, 0)" stroke="rgb(204, 204, 204)" stroke-width="1px"></line><line x1="51.53200149536133" y1="26.921428544180763" x2="46.53200149536133" y2="26.921428544180763" style="visibility: inherit;" fill="rgb(0, 0, 0)" stroke="rgb(204, 204, 204)" stroke-width="1px"></line><line x1="51.53200149536133" y1="0" x2="46.53200149536133" y2="0" style="visibility: inherit;" fill="rgb(0, 0, 0)" stroke="rgb(204, 204, 204)" stroke-width="1px"></line></g><g transform="translate(41.53200149536133, 0)"><text style="text-anchor: end; visibility: hidden; font-family: Roboto, sans-serif; font-size: 12px; font-weight: 200;" x="0" y="376.8999996185303" dx="0em" dy="0.3em" fill="rgb(33, 33, 33)" stroke="none" stroke-width="1px">-0.2</text><text style="text-anchor: end; visibility: inherit; font-family: Roboto, sans-serif; font-size: 12px; font-weight: 200;" x="0" y="349.97857107434953" dx="0em" dy="0.3em" fill="rgb(33, 33, 33)" stroke="none" stroke-width="1px">0</text><text style="text-anchor: end; visibility: inherit; font-family: Roboto, sans-serif; font-size: 12px; font-weight: 200;" x="0" y="323.05714253016885" dx="0em" dy="0.3em" fill="rgb(33, 33, 33)" stroke="none" stroke-width="1px">0.2</text><text style="text-anchor: end; visibility: inherit; font-family: Roboto, sans-serif; font-size: 12px; font-weight: 200;" x="0" y="296.13571398598805" dx="0em" dy="0.3em" fill="rgb(33, 33, 33)" stroke="none" stroke-width="1px">0.4</text><text style="text-anchor: end; visibility: inherit; font-family: Roboto, sans-serif; font-size: 12px; font-weight: 200;" x="0" y="269.21428544180736" dx="0em" dy="0.3em" fill="rgb(33, 33, 33)" stroke="none" stroke-width="1px">0.6</text><text style="text-anchor: end; visibility: inherit; font-family: Roboto, sans-serif; font-size: 12px; font-weight: 200;" x="0" y="242.29285689762662" dx="0em" dy="0.3em" fill="rgb(33, 33, 33)" stroke="none" stroke-width="1px">0.8</text><text style="text-anchor: end; visibility: inherit; font-family: Roboto, sans-serif; font-size: 12px; font-weight: 200;" x="0" y="215.3714283534459" dx="0em" dy="0.3em" fill="rgb(33, 33, 33)" stroke="none" stroke-width="1px">1</text><text style="text-anchor: end; visibility: inherit; font-family: Roboto, sans-serif; font-size: 12px; font-weight: 200;" x="0" y="188.44999980926514" dx="0em" dy="0.3em" fill="rgb(33, 33, 33)" stroke="none" stroke-width="1px">1.2</text><text style="text-anchor: end; visibility: inherit; font-family: Roboto, sans-serif; font-size: 12px; font-weight: 200;" x="0" y="161.52857126508445" dx="0em" dy="0.3em" fill="rgb(33, 33, 33)" stroke="none" stroke-width="1px">1.4</text><text style="text-anchor: end; visibility: inherit; font-family: Roboto, sans-serif; font-size: 12px; font-weight: 200;" x="0" y="134.60714272090368" dx="0em" dy="0.3em" fill="rgb(33, 33, 33)" stroke="none" stroke-width="1px">1.6</text><text style="text-anchor: end; visibility: inherit; font-family: Roboto, sans-serif; font-size: 12px; font-weight: 200;" x="0" y="107.68571417672297" dx="0em" dy="0.3em" fill="rgb(33, 33, 33)" stroke="none" stroke-width="1px">1.8</text><text style="text-anchor: end; visibility: inherit; font-family: Roboto, sans-serif; font-size: 12px; font-weight: 200;" x="0" y="80.76428563254221" dx="0em" dy="0.3em" fill="rgb(33, 33, 33)" stroke="none" stroke-width="1px">2</text><text style="text-anchor: end; visibility: inherit; font-family: Roboto, sans-serif; font-size: 12px; font-weight: 200;" x="0" y="53.84285708836144" dx="0em" dy="0.3em" fill="rgb(33, 33, 33)" stroke="none" stroke-width="1px">2.2</text><text style="text-anchor: end; visibility: inherit; font-family: Roboto, sans-serif; font-size: 12px; font-weight: 200;" x="0" y="26.921428544180763" dx="0em" dy="0.3em" fill="rgb(33, 33, 33)" stroke="none" stroke-width="1px">2.4</text><text style="text-anchor: end; visibility: hidden; font-family: Roboto, sans-serif; font-size: 12px; font-weight: 200;" x="0" y="0" dx="0em" dy="0.3em" fill="rgb(33, 33, 33)" stroke="none" stroke-width="1px">2.6</text></g><line x1="51.53200149536133" y1="0" x2="51.53200149536133" y2="376.8999996185303" fill="rgb(0, 0, 0)" stroke="rgb(204, 204, 204)" stroke-width="1px"></line></g></g><g transform="translate(51, 0)" clip-path="url(#clip_0)"><clipPath id="clip_0"><rect width="802" height="376"></rect></clipPath><g><g><g><line x1="0" y1="0" x2="0" y2="376.8999996185303" fill="rgb(0, 0, 0)" stroke="rgb(66, 66, 66)" stroke-width="1px" opacity="0.25"></line><line x1="66.89316654205322" y1="0" x2="66.89316654205322" y2="376.8999996185303" fill="rgb(0, 0, 0)" stroke="rgb(66, 66, 66)" stroke-width="1px" opacity="0.25"></line><line x1="133.78633308410645" y1="0" x2="133.78633308410645" y2="376.8999996185303" fill="rgb(0, 0, 0)" stroke="rgb(66, 66, 66)" stroke-width="1px" opacity="0.25"></line><line x1="200.67949962615967" y1="0" x2="200.67949962615967" y2="376.8999996185303" fill="rgb(0, 0, 0)" stroke="rgb(66, 66, 66)" stroke-width="1px" opacity="0.25"></line><line x1="267.5726661682129" y1="0" x2="267.5726661682129" y2="376.8999996185303" fill="rgb(0, 0, 0)" stroke="rgb(66, 66, 66)" stroke-width="1px" opacity="0.25"></line><line x1="334.4658327102661" y1="0" x2="334.4658327102661" y2="376.8999996185303" fill="rgb(0, 0, 0)" stroke="rgb(66, 66, 66)" stroke-width="1px" opacity="0.25"></line><line x1="401.35899925231934" y1="0" x2="401.35899925231934" y2="376.8999996185303" fill="rgb(0, 0, 0)" stroke="rgb(66, 66, 66)" stroke-width="1px" opacity="0.25"></line><line x1="468.2521657943726" y1="0" x2="468.2521657943726" y2="376.8999996185303" fill="rgb(0, 0, 0)" stroke="rgb(66, 66, 66)" stroke-width="1px" opacity="0.25"></line><line x1="535.1453323364258" y1="0" x2="535.1453323364258" y2="376.8999996185303" fill="rgb(0, 0, 0)" stroke="rgb(66, 66, 66)" stroke-width="1px" opacity="0.25"></line><line x1="602.038498878479" y1="0" x2="602.038498878479" y2="376.8999996185303" fill="rgb(0, 0, 0)" stroke="rgb(66, 66, 66)" stroke-width="1px" opacity="0.25"></line><line x1="668.9316654205322" y1="0" x2="668.9316654205322" y2="376.8999996185303" fill="rgb(0, 0, 0)" stroke="rgb(66, 66, 66)" stroke-width="1px" opacity="0.25"></line><line x1="735.8248319625854" y1="0" x2="735.8248319625854" y2="376.8999996185303" fill="rgb(0, 0, 0)" stroke="rgb(66, 66, 66)" stroke-width="1px" opacity="0.25"></line><line x1="802.7179985046387" y1="0" x2="802.7179985046387" y2="376.8999996185303" fill="rgb(0, 0, 0)" stroke="rgb(66, 66, 66)" stroke-width="1px" opacity="0.25"></line></g><g><line x1="0" y1="376.8999996185303" x2="802.7179985046387" y2="376.8999996185303" fill="rgb(0, 0, 0)" stroke="rgb(66, 66, 66)" stroke-width="1px" opacity="0.25"></line><line x1="0" y1="349.97857107434953" x2="802.7179985046387" y2="349.97857107434953" fill="rgb(0, 0, 0)" stroke="rgb(66, 66, 66)" stroke-width="1px" opacity="0.25"></line><line x1="0" y1="323.05714253016885" x2="802.7179985046387" y2="323.05714253016885" fill="rgb(0, 0, 0)" stroke="rgb(66, 66, 66)" stroke-width="1px" opacity="0.25"></line><line x1="0" y1="296.13571398598805" x2="802.7179985046387" y2="296.13571398598805" fill="rgb(0, 0, 0)" stroke="rgb(66, 66, 66)" stroke-width="1px" opacity="0.25"></line><line x1="0" y1="269.21428544180736" x2="802.7179985046387" y2="269.21428544180736" fill="rgb(0, 0, 0)" stroke="rgb(66, 66, 66)" stroke-width="1px" opacity="0.25"></line><line x1="0" y1="242.29285689762662" x2="802.7179985046387" y2="242.29285689762662" fill="rgb(0, 0, 0)" stroke="rgb(66, 66, 66)" stroke-width="1px" opacity="0.25"></line><line x1="0" y1="215.3714283534459" x2="802.7179985046387" y2="215.3714283534459" fill="rgb(0, 0, 0)" stroke="rgb(66, 66, 66)" stroke-width="1px" opacity="0.25"></line><line x1="0" y1="188.44999980926514" x2="802.7179985046387" y2="188.44999980926514" fill="rgb(0, 0, 0)" stroke="rgb(66, 66, 66)" stroke-width="1px" opacity="0.25"></line><line x1="0" y1="161.52857126508445" x2="802.7179985046387" y2="161.52857126508445" fill="rgb(0, 0, 0)" stroke="rgb(66, 66, 66)" stroke-width="1px" opacity="0.25"></line><line x1="0" y1="134.60714272090368" x2="802.7179985046387" y2="134.60714272090368" fill="rgb(0, 0, 0)" stroke="rgb(66, 66, 66)" stroke-width="1px" opacity="0.25"></line><line x1="0" y1="107.68571417672297" x2="802.7179985046387" y2="107.68571417672297" fill="rgb(0, 0, 0)" stroke="rgb(66, 66, 66)" stroke-width="1px" opacity="0.25"></line><line x1="0" y1="80.76428563254221" x2="802.7179985046387" y2="80.76428563254221" fill="rgb(0, 0, 0)" stroke="rgb(66, 66, 66)" stroke-width="1px" opacity="0.25"></line><line x1="0" y1="53.84285708836144" x2="802.7179985046387" y2="53.84285708836144" fill="rgb(0, 0, 0)" stroke="rgb(66, 66, 66)" stroke-width="1px" opacity="0.25"></line><line x1="0" y1="26.921428544180763" x2="802.7179985046387" y2="26.921428544180763" fill="rgb(0, 0, 0)" stroke="rgb(66, 66, 66)" stroke-width="1px" opacity="0.25"></line><line x1="0" y1="0" x2="802.7179985046387" y2="0" fill="rgb(0, 0, 0)" stroke="rgb(66, 66, 66)" stroke-width="1px" opacity="0.25"></line></g></g></g><g><g><line x1="0" y1="349.97857107434953" x2="802.7179985046387" y2="349.97857107434953" fill="rgb(0, 0, 0)" stroke="rgb(153, 153, 153)" stroke-width="1.5px"></line></g></g><g><g><line x1="66.89316654205322" y1="0" x2="66.89316654205322" y2="376.8999996185303" fill="rgb(0, 0, 0)" stroke="rgb(153, 153, 153)" stroke-width="1.5px"></line></g></g><g><g><g><g><g><path style="fill: none;" stroke="rgb(255, 112, 67)" stroke-width="2px" d="M97.86470265102388,-55.02924133556483L98.80120698261261,5.706327410479594L99.00188648223877,-10.965628240243875L99.4032454814911,-23.910046569947106L99.47013864803314,14.599437204683683L99.5370318145752,52.73669658057153L99.93839081382751,33.02193833950449L100.00528398036957,54.534313045394825L100.07217714691161,1.9127723937003747L100.27285664653778,24.197493473616223L101.14246781158447,52.76585374638149L102.54722430896759,73.85208169802307L103.08236964130403,77.08854835436239L103.34994230747223,49.21869262568114L103.8181944732666,82.5488809270262L104.08576713943482,62.96342374002222L104.21955347251891,70.24151124240665L105.82498946952819,106.90290455239075L106.0925621356964,120.05957418293042L106.15945530223847,111.44316861189306L107.56421179962159,131.24761680021584L108.16625029850007,144.65184594464935L109.16964779663087,148.962781611007L109.50411362934112,143.35164971205953L109.90547262859344,131.88586648978898L110.17304529476166,88.29998833813725L112.31362662410736,108.31779123440151L112.38051979064943,159.42238336786005L113.04945145606995,163.08483873106638L113.8521694545746,216.18885355832023L114.78867378616332,217.2339167304227L115.25692595195771,207.50251435398962L115.59139178466796,208.69965663334108L115.65828495121002,231.76976039001997L115.72517811775208,236.5958388536269L116.79546878242492,200.2957000130358L117.46440044784546,189.71042216958827L117.53129361438751,221.37361394555234L118.46779794597627,231.30625061280037L118.73537061214448,253.1748457457638L119.53808861064911,251.32523039719527L119.67187494373323,222.64170066559953L120.87595194149019,222.6485462229998L121.87934943962097,196.99316697626776L122.21381527233123,180.17039579825803L122.61517427158356,178.16597825276816L122.81585377120972,178.00508710639528L123.41789227008819,221.10706050124435L123.95303760242463,193.6281924506786L125.55847359943391,197.16927082230558L125.82604626560212,209.599777209851L126.82944376373291,225.60740921104104L128.23420026111603,182.3911728611427L128.36798659420015,195.9776319215041L129.8396362581253,204.3086110998667L131.04371325588227,255.52910930926487L131.77953808784483,269.68198843444094L132.44846975326539,271.361201093618L133.7194399175644,294.46421511695615L134.92351691532136,291.61515144268276L135.25798274803162,274.18073330844294L135.5924485807419,279.48614119751653L135.65934174728395,220.71099322372058L135.92691441345215,236.74023029782248L136.3951665792465,272.3458898429894L136.59584607887268,296.66038943149994L138.53574790859224,277.26538647765153L138.60264107513427,282.84370494810264L139.80671807289124,286.5998412761924L142.08108573532104,273.14661783294474L143.285162733078,235.68030905832617L143.82030806541442,226.44598494435098L144.89059873008728,200.82441035887402L145.09127822971342,237.32418153234624L146.4291415605545,253.85750458644821L147.03118005943298,257.0208508253016L148.23525705718995,274.5107430568784L149.4393340549469,288.70013083697825L149.50622722148896,299.10503329595315L149.64001355457307,280.8304799405446L149.90758622074128,275.41303447302425L150.0413725538254,277.7624346533621L150.9778768854141,279.89177603734305L151.3123427181244,294.9061449442301L151.5799153842926,314.67249289229005L153.18535138130187,241.93289553162833L153.85428304672243,276.9173230708061L153.92117621326446,301.15320794970563L154.05496254634858,298.69302860198195L154.25564204597475,286.60543505961243L154.65700104522705,292.85795835341816L154.79078737831117,310.8753318646489L155.19214637756346,312.31485100389085L156.06175754261017,322.2159072746061L156.66379604148864,267.17418156680935L156.9982618741989,249.08376919132928L157.53340720653534,220.03323882547377L158.06855253887176,267.3563175828327L158.53680470466614,278.31137570520514L160.7442792005539,303.3320960196392L160.94495870018005,288.39312443002046L161.21253136634826,295.3436840696568L161.68078353214264,289.8243430879947L163.88825802803038,294.9076102294795L164.08893752765655,268.5746978808841L164.35651019382476,219.74099054422382L165.76126669120788,268.769898143027L166.63087785625459,265.3455317457329L166.76466418933867,297.2253200063812L166.8984505224228,284.5384530047362L167.43359585475923,302.2358276686184L168.23631385326385,301.34067520809305L169.70796351718903,298.9599653951951L170.77825418186188,265.60342195118346L171.24650634765626,291.7604688256294L171.4471858472824,278.31829735646073L171.64786534690856,291.82760121233093L172.85194234466553,287.1149423104506L172.9188355112076,252.53833315519518L172.98572867774962,271.6487013270595L173.85533984279633,280.3659262612807L174.79184417438506,270.98205312416064L174.85873734092712,293.6123279681682L174.99252367401124,307.2907252440304L175.05941684055327,316.6808341998682L175.26009634017944,325.0540366206822L176.3303870048523,172.0246566671525L177.0662118368149,240.73820572633508L177.13310500335695,194.73295381528632L177.8689298353195,233.75803790046768L178.06960933494568,268.15264069118916L178.7385410003662,279.456289930872L179.4743658323288,305.4666628745842L179.80883166503907,296.47816359092764L180.67844283008574,306.7213136561356L181.81562666130066,290.7930782641981L182.41766516017915,272.11334825478684L183.6217421579361,288.364250019758L183.95620799064636,302.7566999921508L185.02649865531922,318.92602922089094L186.1636824865341,292.12004012516337L186.56504148578642,308.4607966104953L186.7657209854126,315.8580304811119L187.16707998466492,262.5181608487073L187.5015458173752,292.06020022349014L187.6353321504593,308.91455244159624L188.23737064933775,321.1073962271066L188.37115698242187,278.81465223123996L188.50494331550598,280.9979779737956L191.9164948091507,303.68047226418736L192.25096064186096,320.87861629572774L192.58542647457122,316.20865559673103L192.71921280765534,320.32271266991455L194.12396930503846,301.06044058467495L194.52532830429078,317.1129872351345L195.52872580242158,327.61374347857617L195.66251213550566,335.1703881500578L198.13755929756164,329.1873703510774L198.2044524641037,329.1993523577758L200.41192695999146,315.1625077625326L201.080858625412,284.67449134231276L201.41532445812226,304.30402337074406L201.81668345737458,306.9343065095891L202.01736295700073,263.6297358726143L203.4890126209259,253.34403980894496L204.35862378597258,288.04771106631466L205.16134178447723,312.09049487216436L205.62959395027158,272.19186406319614L205.76338028335573,295.40133490928025L205.89716661643982,295.3980043695051L208.03774794578553,296.0006865695816L208.2384274454117,246.55831034433223L208.50600011157988,277.33628969937354L208.77357277774811,275.5265619171841L209.71007710933685,302.44663516651156L212.31891060447694,320.76189082743696L213.25541493606568,306.59189791330965L213.58988076877594,323.68653812089474L213.656773935318,327.3103219600624L213.7905602684021,328.3393142059889L214.32570560073853,328.58535684047206L214.66017143344882,248.19380883150012L216.73385959625244,269.46427720744293L217.20211176204683,300.2946751929581L217.33589809513091,313.0961004611547L217.469684428215,231.78375677241274L218.87444092559815,257.8863620800492L220.6136632556915,229.30930095463492L220.88123592185974,225.44138850213562L221.0819154214859,271.64789623054384L221.21570175457,296.54064721880803L221.81774025344848,308.84396574830356L222.75424458503724,314.5532265035756L223.22249675083162,317.46283272707126L224.96171908092498,329.3846466915222L225.09550541400907,323.1854689355484L225.42997124671936,332.7656475014831L226.29958241176604,330.73506550968705L226.50026191139222,334.9654136444741L227.57055257606504,339.9971081098064L228.03880474185945,295.9028032598907L228.5070569076538,299.7311843085469L228.57395007419586,304.5816736285156L229.57734757232663,322.47013384003293L230.04559973812104,315.899981006708L231.71792890167237,313.12617151465446L232.520646900177,287.8004740130135L233.05579223251343,308.9302520956595L233.45715123176575,318.39411050820996L233.59093756484984,307.62774435028604L235.79841206073763,303.55542683294226L236.19977105998993,308.67218602540316L237.33695489120484,319.90214230689537L238.1396728897095,324.3873524933889L241.0829722175598,320.75233725426597L241.68501071643828,327.787776640108L242.8221945476532,329.7497040748207L243.4242330465317,336.4281387806384L243.49112621307373,323.638883528774L243.55801937961579,316.2726001004192L244.02627154541014,309.6181411505788L244.22695104503634,304.1877063827157L244.49452371120452,320.4961185630198L244.76209637737276,273.8158356409639L244.89588271045685,294.4433692250841L245.29724170970917,313.1936821809077L246.0999597082138,308.6350891912449L246.36753237438202,322.86713744695953L248.5081137037277,283.50022326039874L248.57500687026976,307.5265996200205L249.17704536914826,323.8928487562245L249.71219070148467,332.02015003234965L251.18384036540985,328.53945160028894L252.78927636241914,326.37544747555984L253.3913148612976,303.1902390797942L253.52510119438173,320.84738096071857L253.65888752746582,332.2248341727614L254.06024652671815,337.8819969210471L254.19403285980223,342.5536410980052L255.33121669101715,284.0548801534076L255.53189619064332,307.2103480847472L257.1373321876526,317.19128012750514L257.33801168727877,329.0187856624706L258.5420886850357,320.74769496126663L258.67587501811977,322.76022756264183L258.7427681846619,332.56883463045637L258.943447684288,319.73930097051357L259.34480668354036,328.7080877156871L259.9468451824188,335.9765216697121L260.147524682045,341.27910905359045L260.8833495140076,343.6834498322209L261.0840290136337,344.9461289804545L261.15092218017577,327.0654452110548L264.1611146745682,334.5037411252244L264.22800784111024,337.9791833615281L264.2949010076523,311.654322999643L266.8368413362503,321.71771494900196L266.90373450279236,325.2630861109561L267.50577300167083,334.66742530379753L267.63955933475495,339.88157651891066L268.2415978336334,301.5023642173054L268.7098499994278,320.3604651944788L268.77674316596983,331.05832160485886L269.04431583213807,338.1092387977894L273.3254784908295,338.71786779588956L273.59305115699766,341.58556812399695L277.74042748260496,340.71000563654707L278.4093591480255,341.7456640618611L278.47625231456755,338.33804649556924L279.81411564540866,341.4579077132625L280.6837268104553,342.289708216555L282.0215901412964,344.85300022560006L283.2925603055954,346.796064141402L283.62702613830567,346.9237888570069L284.1621714706421,346.69993197219645L284.9648894691467,338.1951880205934L287.3730434646606,328.02649910802324L287.5068297977448,327.2688212600952L287.77440246391296,318.736471465206L288.4433341293335,330.5177179170793L288.7777999620438,329.03302973554634L289.78119746017455,334.3796278833714L290.316342792511,335.82612611536723L291.11906079101567,275.07083568124864L291.25284712409973,293.31331522632826L291.38663345718385,240.84293300500502L291.7210992898941,282.4350304676704L291.8548856229782,263.23382231515683L292.39003095531467,295.02826941175584L294.5306122846603,316.3712572692978L294.66439861774444,275.1891845904674L295.2664371166229,302.91132913113444L295.66779611587526,284.2184566592858L297.4739116125107,310.0320210764076L297.7414842786789,324.83085679245926L298.4773091106415,333.70112087730314L299.0124544429779,339.437764823221L300.8185699396134,342.4332242006056L302.0895401039124,344.6946907183774L303.0260444355011,345.99693577191806L304.096335100174,340.2134733929622L305.23351893138886,268.45393244653656L305.83555743026733,299.7213314083676L305.9024505968094,306.5968408135388L306.3038095960617,319.278047239695L306.97274126148227,328.61372552653705L307.37410026073456,336.1581616278838L307.7754592599869,333.88791843194116L309.4477884235382,340.0518267800912L309.9829337558746,300.29820726386816L311.0532244205475,319.94072207278674L311.5883697528839,331.2875089475607L311.722156085968,322.56243932527684L311.7890492525101,332.4205849232793L313.5951647491455,329.8198287621702L313.66205791568757,336.92947502359607L315.2006007461548,335.4023247718756L315.401280245781,341.0852475603747L317.40807524204257,344.5235510272336L317.47496840858463,345.4288287006925L318.41147274017334,346.4209870253304L319.4148702383041,288.6379102137906L319.7493360710144,310.05218272244633L320.21758823680875,308.7433348301385L321.28787890148163,324.1167985742138L321.756131067276,324.9147851718212L322.29127639961246,334.1236521947919L322.7595285654068,335.48357803848774L323.4953533973694,315.71246211953195L324.49875089550017,326.01593460069L324.7663235616684,332.21444962536157L325.56904156017305,266.96875899247107L325.6359347267151,299.93134564056504L325.76972105979917,319.7794505370213L326.5724390583038,308.3669317661035L326.9069048910141,324.8965667375652L327.9103023891449,334.11066719224124L329.51573838615417,340.2901243810226L330.11777688503264,343.91019806811585L330.9204948835373,346.1288667637056L330.98738805007935,347.33991237423L333.66311471176147,347.76152935397766L334.1313668775559,348.61486678757393L335.7368028745651,317.14021434454185L336.40573453998564,320.95723298409376L337.0077730388641,329.5325066789023L337.40913203811647,329.3883594648964L337.6767047042847,337.41350426557716L338.9476748685837,340.08489188362887L339.01456803512576,341.10440492728804L339.08146120166776,344.4433369372118L339.349033867836,345.0627500255308L340.01796553325653,345.56420701273794L340.68689719867706,347.04856258378203L341.42272203063965,347.46225059468554L343.36262386035924,347.5929779189945L343.42951702690124,333.93793654427674L343.6301965265274,340.1110036238511L343.76398285961153,343.9785943973132L343.8308760261536,346.2906763506526L344.2322350254059,346.9183777721345L344.432914525032,342.7561975998671L344.5667008581162,345.50496544835914L344.83427352428436,346.70739107598865L345.03495302391053,341.36766361917114L345.97145735549924,344.66291041225423L346.57349585437777,346.2485771434598L347.9782523517609,347.62134338288496L348.3127181844711,348.0302095402289L349.6505815153122,348.7469089229661L350.45329951381683,348.853227293868L350.7877653465271,348.26242700193836L351.38980384540554,337.5273239735176L352.5269876766205,324.90800462923613L352.6607740097046,322.5599983096515L353.86485100746154,333.4971831196237L354.1324236736298,339.0857714533393L354.33310317325595,343.3602714849107L354.53378267288207,343.628304911264L354.6675690059662,346.09888543989695L354.73446217250824,344.8919048031946L354.8013553390503,345.6785961542283L354.93514167213436,345.74834642471956L355.3365006713867,314.8106921420947L356.33989816951754,328.52579805669643L357.008829834938,334.91986982526254L357.3432956676483,339.95006397510747L358.4135863323212,343.5276742650201L358.54737266540525,339.44504515021106L358.88183849811554,342.95436420326604L359.0156248311996,345.65405835775556L359.0825179977417,344.9503529662479L360.15280866241454,346.15731652343044L361.3568856601715,345.2983161663875L361.42377882671354,347.1403022050401L362.29338999176025,347.3685889668515L364.2332918214798,341.32566034311174L364.43397132110596,344.59693769797644L364.70154398727414,327.32422921690306L366.8421253166199,320.8039403932028L366.97591164970396,331.99768891073745L368.7151339797974,328.04288776960743L369.65163831138614,336.31065899502335L371.32396747493743,340.14863703466676L371.7253264741898,333.1076309253177L372.72872397232055,339.25707749858077L372.7956171388626,342.44640517204886L372.9962966384888,344.76668229155234L373.263869304657,346.20937553638277L373.46454880428314,343.6559996349348L374.13348046970367,342.0023807278386L374.6017326354981,344.61898547245767L375.47134380054473,346.65601472936606L376.34095496559144,347.48182147807387L378.9497884607315,348.3579009793582L380.5552244577408,348.4959698252791L380.75590395736697,349.04816255344025L380.82279712390897,349.2649452497246L381.2241561231613,349.2829723315542L381.8261946220398,349.50919574759615L382.96337845325473,349.19003299341716L384.3681349506378,348.26815356674666L384.568814450264,348.3739305034089L385.2377461156845,347.23953769270685L385.30463928222656,348.3057026519807L385.4384256153107,348.78896827019213L386.6425026130676,348.94480522870936L386.77628894615174,349.3195690860455L387.11075477886203,349.3828078395515L387.2445411119461,348.9552251380161L387.7796864442825,348.04100328962846L388.1141522769928,348.7246813331966L390.4554131059647,349.1974563674236L391.7263832702637,349.41511282702857L392.86356710147857,349.1528902958492L392.9973534345627,348.80166465261686L393.398712433815,349.23365906611497L393.59939193344115,349.48980047549315L393.7331782665253,349.64063547659913L394.0007509326935,349.2680752540201L394.33521676540374,349.0203026049071L394.9372552642822,349.2569585340923L396.7433707609177,348.8710889983528L397.34540925979616,347.93054649951563L398.415699924469,348.412499053528L399.68667008876804,343.57215584241754L402.4961830835342,345.7970538708697L402.5630762500763,347.4375679085572L402.76375574970245,335.36625076945427L404.703657579422,341.01317888289344L405.6401619110107,329.82574176284936L406.8442389087677,337.2431680655633L407.7138500738144,341.97254917039567L407.78074324035646,344.97356891916314L408.24899540615087,346.79461749129456L408.98482023811334,347.9468109524889L409.38617923736575,348.10553986936156L409.72064507007593,345.6210260711476L409.85443140316005,347.1173656385785L410.2557904024124,348.10122954871497L410.3895767354965,343.9802157418853L410.59025623512264,345.98047694483756L411.19229473400117,347.4153992368756L411.79433323287964,348.38274680754745L411.9950127325058,348.97378449978544L412.0619058990478,348.32572398070164L414.0018077287674,348.877541755366L414.6038462276458,348.26797833405004L415.40656422615046,346.19007423249116L416.4768548908234,347.1118837320772L416.61064122390746,348.1503159257398L417.6140387220383,348.70251424303797L419.2194747190475,348.4616049930292L419.35326105213164,349.02287093604696L419.754620051384,348.1522463731467L420.0221927175522,348.8308628696515L420.55733804988864,349.2570317310275L421.02559021568294,347.8515561091613L421.62762871456147,348.621077340702L422.0958808803559,348.98260905871865L422.22966721343994,348.61487350005865L422.5641330461502,349.0536502430265L422.8985988788605,349.01200859934005L423.96888954353335,349.0560360642302L424.03578271007535,349.3585023475724L424.16956904315947,349.58181834863086L424.23646220970153,348.13832914695536L425.4405392074585,345.2266249310917L425.9087913732528,346.9203660350887L426.51082987213135,347.9125795761211L427.5142273702621,348.62559857717343L428.3838385353088,349.0840137135614L429.7217018661499,349.39028271374985L430.5913130311966,349.52012813643944L430.65820619773865,349.2512272838456L431.059565196991,349.4958484080129L431.46092419624324,348.63321128804637L431.7953900289536,339.9434045980681L432.7318943605423,343.80506869239707L433.2670396928787,346.1866636248027L433.66839869213106,347.57875232539845L434.5380098571777,346.7049204099822L434.67179619026183,346.9216835332804L435.0062620229721,347.84702774853025L435.14004835605624,348.6233924822162L435.34072785568236,348.8567564369078L435.4745141887665,339.39397979075545L435.54140735530854,343.3688142183608L436.00965952110295,345.6121982713249L437.2806296854019,347.31782259824286L439.08674518203736,348.26925787594575L439.3543178482056,348.40129433489045L440.6252880125046,348.33222159806786L442.03004450988766,347.96707669723384L442.29761717605595,347.1334503112058L442.43140350914,348.0166044146252L443.3679078407288,348.73099221656486L443.90305317306525,349.157262864432L444.6388780050277,347.2806740203295L445.44159600353237,344.7695422310345L445.5084891700745,346.72673363844L446.244314002037,345.1059415161514L446.7125661678314,333.9656317804131L447.04703200054166,340.32379790052937L447.8497499990463,344.02539699718506L448.78625433063513,345.9819114230539L448.98693383026125,347.43115100328424L449.6558654956818,348.37843645601214L449.7896518287659,348.2326520952627L449.92343816184996,348.8896327556562L450.59236982727055,349.1716759188515L450.7261561603546,349.30444434632045L451.39508782577514,349.5452114781981L451.99712632465366,349.68523010775596L453.20120332241055,349.3350892958571L454.0039213209152,349.24023095475417L454.7397461528778,349.22727030883L455.67625048446655,349.45698096468834L457.34857964801785,349.5070526863779L459.22158831119543,349.13329072276497L459.42226781082155,349.2670356346889L459.4891609773636,347.17729286192395L459.62294731044767,346.39667543439316L460.4256653089523,347.8124629946248L461.0945969743729,348.667083222894L461.22838330745697,349.12584952246965L462.499353471756,342.2962158430016L463.6365373029709,345.31544735231705L464.5730416345596,347.1453176902303L464.77372113418573,348.04837214600485L465.17508013343814,344.3847585804399L465.8440117988587,346.5492659400074L466.11158446502685,347.76796931496153L466.5129434642792,348.56907671638476L466.6467297973633,348.48711509568744L467.7839136285782,346.9853903429311L468.1183794612885,348.1415837955568L469.4562427921295,348.8165062978589L469.7907086248398,348.0678632765779L470.7941061229706,348.7739171400692L471.12857195568085,348.637542172659L474.00497811698915,349.08055072101786L474.2725507831573,349.4140845873869L475.14216194820403,349.4813148599971L476.07866627979274,349.6361859641756L476.34623894596103,348.40685779178483L477.3496364440918,348.87656799423644L477.41652961063386,349.11351548307107L477.9516749429703,349.41360644167264L478.01856810951233,349.5166638662179L478.7543929414749,349.13659270027244L481.7645854358673,349.01330104255646L481.83147860240933,349.0752970081338L483.23623509979245,349.1870526819744L484.3065257644654,349.20686542034576L486.91535925960545,349.3374709108001L487.11603875923157,349.4957838973092L488.72147475624087,349.5575491774118L489.45729958820345,349.6560212111862L490.0593380870819,349.70740214896176L490.7282697525024,349.6693209576249L491.0627355852127,349.75843775593887L491.464094584465,349.79103464938186L492.1999194164276,349.7607846920184L492.3337057495117,349.7998370022191L493.3371032476426,348.17559611827863L493.7384622468948,348.8173498939698L494.006034913063,348.38221177139883L494.6080734119415,348.6849359760559L495.143218744278,348.7649003699944L495.3438982439041,349.1308292275062L496.01282990932464,349.21195085140977L498.1534112386704,349.3541808837191L498.3540907382965,349.5684294376967L498.48787707138064,349.67400009399086L498.95612923717505,349.79605955460903L500.0264199018479,349.7623618757567L500.5615652341843,349.2445758196517L501.6318558988571,349.2592485983268L503.17039872932435,349.4903401381663L504.9096210594177,349.62298728172857L505.71233905792235,349.70478355551273L506.18059122371676,349.77696816725046L507.5853477210998,349.7149630583926L507.71913405418394,349.78076518423165L507.9198135538102,349.79914220571504L508.65563838577276,349.85206241677685L508.92321105194094,349.82826183096154L509.5252495508194,349.7731593822803L510.3948607158661,349.5991974920716L511.06379238128665,349.69615802221057L511.532044547081,349.77844248448474L511.8665103797913,349.76437202841424L512.4016557121276,349.8352119158594L514.4084507083893,349.64957424100044L515.0104892072677,349.2138741947454L515.278061873436,336.7853125646656L516.0807798719406,342.0204331347741L516.2145662050248,345.0983210861539L516.2814593715668,347.03778933815005L516.7497115373612,348.1543836690646L517.886895368576,348.8236213879144L517.9537885351181,349.26026075309943L518.0875748682022,348.6586387852615L518.1544680347442,348.8836552563268L518.2213612012863,349.2707094962832L518.6227202005387,348.668194338367L518.6896133670807,349.01601411231036L519.4254381990432,349.1822920744366L519.8936903648377,349.1401314597138L520.5626220302581,349.45292678073764L521.0977673625946,349.5189977699871L521.6998058614731,349.6465490810119L521.9673785276412,349.7155316307876L524.041066690445,349.7954710845108L524.107959856987,349.79302331785374L526.1147548532485,349.7873954253154L526.649900185585,349.84995022789883L527.4526181840897,349.78062677705054L527.5864045171737,349.54657834141483L528.7235883483886,349.60188995235546L529.058054181099,349.61484559024865L529.191840514183,349.67073256426625L529.4594131803512,349.26395093305183L529.6600926799774,349.46219836339526L530.2621311788558,349.5442785627537L530.7303833446502,346.942709140932L531.599994509697,348.10642424407087L531.666887676239,348.7365651287509L532.0682466754914,349.2039062764697L533.0716441736222,349.487456063784L534.141934838295,349.6589595098831L535.1453323364258,349.61057591231986L536.4831956672668,348.146661874619L537.5534863319397,347.83602301999247L537.6203794984817,348.2115982376188L537.6872726650238,348.8664739883348L538.1555248308182,349.2426598114882L538.2224179973603,349.50924475112214L538.6237769966126,348.1685856918329L538.7575633296967,348.8538116896446L541.9684353237152,347.79283571047154L543.1725123214721,348.5259213437232L543.7745508203507,349.0724750104227L544.3765893192292,348.74109182937843L545.0455209846497,349.21035790385343L545.37998681736,349.4548952440409L546.3833843154907,349.6439031790184L546.717850148201,349.6321458495576L547.3867818136215,349.67366718011215L547.7881408128738,349.77340765282617L548.5908588113784,349.8223018581826L548.9253246440887,349.632174679008L549.5273631429673,349.7345068351711L550.8652264738083,349.7002694546297L551.8686239719391,349.77613392879294L552.0693034715653,349.8248875719363L552.1361966381073,349.7900824417883L552.3368761377335,349.8289434015397L552.6044488039017,349.85043710386805L552.9389146366119,349.8358105025042L554.343671133995,346.79392704604186L554.8119232997894,348.05150716703804L557.5545431280136,348.800252853494L557.6214362945557,346.22024391096807L557.7552226276398,347.63736056099305L558.022795293808,348.53725892451257L558.2234747934342,349.077403336824L558.8255132923126,349.1529886768387L559.8958039569854,348.73887305609975L561.0329877882003,349.19980957517424L561.1667741212844,349.4810185303874L561.5681331205368,349.66134867579876L561.7019194536209,349.43516500592034L562.3039579524994,349.62680180977856L563.1735691175461,349.65669934486425L564.0431802825927,349.63746151576845L564.310752948761,349.3171086390494L564.9796846141815,349.54798329014227L565.648616279602,349.4743615467742L566.9195864439012,349.6325017874662L566.9864796104431,349.3474066624208L567.4547317762375,349.4795114261631L567.6554112758637,349.6241923370157L568.4581292743683,349.2269894519144L568.5250224409103,349.13285444904886L569.7959926052093,349.20556639894613L570.1973516044617,349.48511448152465L570.3311379375458,349.6541783933698L570.5987106037139,349.3577425013667L570.665603770256,349.5842251225659L571.1338559360504,349.6997293209643L571.4014286022186,349.7938588638931L572.6723987665176,349.80520121426446L573.207544098854,349.78227581407947L573.8095825977325,349.5167586336759L573.9433689308166,349.65924942763036L576.7528819255829,349.7664900148971L576.886668258667,349.81661081892736L577.0873477582932,349.13293845735876L579.0941427545548,349.40366816100095L579.5623949203491,349.59912310078937L582.1712284154892,349.7112612096697L582.4388010816574,348.69755440193256L583.3753054132461,349.1357110677048L585.2483140764236,349.28635713702744L585.8503525753022,349.0264064596059L586.7199637403488,349.27232831629493L586.8537500734329,349.5076361021338L587.1213227396012,349.3749789568758L587.9909339046478,348.96572697918907L588.4591860704422,349.16249220164906L588.5929724035262,349.45934698597125L590.1315152339935,349.0303146022265L590.9342332324982,349.28689415674995L592.071417063713,349.4379663706681L592.4727760629654,349.43854434244685L592.8072418956757,349.50985482151333L596.0850070562363,341.07242808849225L596.5532592220306,344.5940888599181L596.954618221283,346.6754802902935L597.1552977209092,347.98717861076693L597.2221908874511,348.6075073728502L598.292481552124,348.99654695447623L599.2289858837128,349.3141309767823L600.4999560480118,349.55605561436806L601.6371398792268,349.6696053644394L603.8446143751145,349.6853596935565L604.2459733743668,349.7657503127511L604.3128665409089,349.384222995653L604.4466528739929,348.78600783431835L604.7142255401611,349.16321154927255L605.4500503721237,348.3305726330984L606.9217000360488,348.9460487193359L607.5906317014694,349.2613413708301L608.7278155326843,349.43906623509287L610.2663583631515,349.56639461927114L610.5339310293198,349.6870797740902L610.9352900285721,349.76064620935506L611.2697558612823,349.74101117150445L611.6042216939926,349.67295213807404L611.9386875267029,349.7779273441025L612.0724738597869,349.81708032198463L612.4069396924973,349.84059778298894L612.9420850248337,349.8709729127809L613.276550857544,349.6650744073618L613.9454825229645,349.72921425409385L615.3502390203475,349.7826149158869L615.5509185199738,349.6990440528019L616.4205296850205,349.7834860843098L617.022568183899,349.8039070073075L617.0894613504411,348.57157340797295L617.2232476835251,349.1155147195629L617.3570340166092,349.3738555150009L618.427324681282,349.50739629839416L621.3706240091324,349.61904877808536L621.8388761749267,349.57348424445985L622.039555674553,349.6531045537827L622.5078078403473,349.7019550589249L623.7118848381043,349.793795058684L623.9125643377304,349.7066764123788L624.3808165035248,349.1902143332547L624.4477096700668,349.45618539893775L625.2504276685715,349.6305050721766L625.6517866678238,349.7302701124268L627.3241158313751,349.75647016209973L627.7923679971695,344.40154265792796L628.1937269964218,346.12954902361037L628.9964449949264,347.6485799125228L630.4012014923096,348.5558263761886L631.6721716566086,345.82218552414173L631.9397443227768,347.474084920115L632.6086759881973,340.3061196942071L633.7458598194122,343.61314171586184L634.0803256521225,346.13464048101696L634.3478983182907,347.577834083584L634.8161504840851,348.4316833358913L634.8830436506272,347.8411415690789L635.4181889829636,348.51464759574475L635.7526548156738,348.111038521391L637.8932361450195,348.7302963503558L638.7628473100661,348.6130128524286L639.3648858089447,347.6582153297279L639.4317789754867,348.47020720764147L640.2344969739913,348.9101616684567L642.4419714698791,349.27903943244684L642.5088646364212,348.3626362701061L642.8433304691314,348.9496512680878L643.3115826349258,349.3290749983381L643.3784758014679,349.466766577016L644.3149801330566,348.562359697524L644.5825527992249,348.9100994255648L644.9170186319351,349.05630342567787L644.9839117984772,349.3203567461954L645.2514844646454,349.57314169899695L645.3183776311874,349.68892003427885L645.9204161300659,349.7747415485998L647.258279460907,346.7655014416875L647.5927452936172,347.9977375912276L648.8637154579163,348.65666745176577L649.2650744571686,349.1669947713754L649.3319676237106,349.3376823398836L649.733326622963,349.43763015059204L649.8671129560471,349.30257704439396L651.6063352861404,349.5584943652967L652.342160118103,349.6953821533871L653.8138097820282,349.44695853608556L654.6165277805328,349.57035977161786L654.884100446701,349.71417035515066L655.1516731128693,349.7754114500434L655.5530321121215,348.5355027844165L655.954391111374,348.85270104355885L656.0212842779159,349.17067249416306L656.088177444458,349.47626430359384L656.8908954429627,349.64948446921045L659.9679811038972,349.67965437661013L660.7038059358597,349.7099772759326L661.1720581016541,349.7609827389295L662.1754555997849,349.74403725949514L663.0450667648315,349.81541146911877L663.1119599313736,349.83510347315075L663.64710526371,349.78506934718274L664.4498232622146,349.8394915619571L664.6505027618408,349.8824402750821L664.7842890949249,349.8679522398142L665.7207934265138,349.8233667822544L666.122152425766,349.858310790456L667.3262294235229,349.2639418473255L668.3296269216537,349.5436509678501L669.1992380867005,346.68271431555837L669.935062918663,347.81640763353704L670.6039945840836,348.6243274679929L670.9384604167938,349.1059471071208L671.0722467498779,348.776194538251L671.5404989156723,348.976371281689L671.6073920822143,349.3361980330865L671.8080715818405,349.5396163862927L671.9418579149246,349.30769616929393L672.2094305810929,349.5161223735513L673.6141870784759,349.6690090101661L673.7479734115601,349.7094437907579L674.4837982435226,349.7501361950896L674.6175845766068,349.80194608907476L675.3534094085694,349.8442516836249L676.156127407074,349.8821512493997L676.223020573616,349.4561174996392L677.7615634040833,349.22555534214735L678.6311745691299,349.36840270705306L679.0994267349244,349.5918279369009L679.6345720672607,349.64454697172516L681.8420465631485,349.66344395223774L683.9826278924942,349.7005077640588L684.1833073921204,349.7860203017991L687.1266067199707,349.68814744976754L687.3272862195968,349.55599531215285L688.665149550438,349.6341900322105L690.2036923809052,349.5517598669787L691.1401967124939,349.5981181620036L691.4077693786621,349.6793869794927L691.5415557117462,349.74098540746786L691.9429147109985,349.5835902027789L692.1435942106247,349.6468958253416L692.7456327095032,349.74585560191764L693.4145643749237,349.80992986018157L695.6220388708115,349.8535862929576L695.7558252038956,349.76011235701804L696.0233978700637,349.83108998224895L696.8930090351105,349.80648697980786L697.428154367447,349.75115982390076L697.628833867073,349.7959876519708L697.8964065332412,349.70265171915844L698.2308723659515,349.79671629663306L698.4315518655777,349.8460817803653L698.9666971979142,349.86688195715476L699.5687356967926,349.7695275149343L699.970094696045,349.6445671288965L700.3045605287551,349.1106375580254L701.1741716938019,349.40890147074947L702.3782486915588,349.59445810704955L702.4451418581009,349.29048501701925L702.7796076908111,349.4237920479528L703.9167915220261,349.5476279281508L704.8532958536148,349.6573086071693L704.9201890201568,349.74673734754685L705.8566933517455,349.68357664068924L705.9904796848297,349.73846704629295L706.32494551754,349.81398207468226L706.391838684082,349.5472844652212L707.5290225152969,349.63317410514554L708.6662063465119,349.6578525974882L709.0675653457641,349.7600549248698L709.6696038446427,349.8442553095756L711.0074671754837,349.8378011149706L711.6763988409042,349.560343524196L712.0777578401566,349.4501469804514L712.2115441732407,349.6323249673771L712.3453305063248,349.4929250579606L712.4122236728667,348.7604448354318L712.9473690052032,349.1716994771068L713.81698017025,349.47448636721975L716.2920273323059,349.59771101433296L716.8940658311844,349.7354271201791L717.1616384973526,349.8125432331384L717.2954248304367,349.49712655236493L718.2988223285676,349.6732728251821L718.4995018281936,349.2293257104527L719.1015403270721,349.4881247359945L719.5697924928664,349.66934800617025L719.8373651590348,349.7068230181144L719.9711514921189,349.78435367080266L721.9110533218384,349.7690997568534L723.5833824853897,349.7212306018387L723.7840619850158,349.78914707979277L724.0516346511841,348.7593952348225L724.3192073173523,349.1347149433928L725.3894979820251,349.43669852495094L725.9915364809036,349.46222554478186L727.0618271455766,349.6206244910523L727.5300793113709,349.7395409345306L728.0652246437073,349.80072378773207L728.1990109767914,349.8476903725009L728.4665836429596,349.7836868391055L728.8679426422119,349.75596521745314L729.001728975296,349.22348471189406L729.0686221418381,349.463028071615L730.272699139595,349.6442128546193L730.9416308050155,349.7573782111281L731.543669303894,349.83672815166716L731.8781351366042,349.09209417630274L732.3463873023986,349.2336911504239L732.6139599685669,349.36455493853134L732.8815326347351,348.1485762677336L733.6842506332398,348.7095835191227L734.2193959655762,349.20093956229897L734.4869686317444,349.4354828277278L734.6207549648285,349.57523316453654L735.8248319625854,349.3405683114239" fill="none"></path></g></g></g></g><g opacity="0.2"><g><g><g><path style="fill: none;" stroke="rgb(255, 112, 67)" stroke-width="2px" d="M97.86470265102388,-63.30742181092501L98.80120698261261,96.80968051376321L99.00188648223877,-35.97356171372977L99.4032454814911,-43.326674063290895L99.47013864803314,72.36366286446825L99.5370318145752,109.94258564311899L99.93839081382751,3.4498009783024686L100.00528398036957,86.80287510396947L100.07217714691161,-77.01953858345844L100.27285664653778,57.62457509339273L101.14246781158447,95.61839415545444L102.54722430896759,105.4814236254523L103.08236964130403,81.94324833886849L103.34994230747223,7.413909032674803L103.8181944732666,132.54416337903243L104.08576713943482,33.585237959520406L104.21955347251891,81.15864249598235L105.82498946952819,161.89499451736424L106.0925621356964,139.7945786287393L106.15945530223847,98.51856025533716L107.56421179962159,160.95428908269972L108.16625029850007,164.75818966129944L109.16964779663087,155.42918511054347L109.50411362934112,134.9349518636383L109.90547262859344,114.68719165638326L110.17304529476166,22.92117111065973L112.31362662410736,138.34449557879793L112.38051979064943,236.0792715680478L113.04945145606995,168.57852177587588L113.8521694545746,295.84487579920096L114.78867378616332,218.80151148857635L115.25692595195771,192.90541078933998L115.59139178466796,210.49537005236823L115.65828495121002,266.3749160250383L115.72517811775208,243.8349565490374L116.79546878242492,145.84549175214906L117.46440044784546,173.83250540441702L117.53129361438751,268.8684016094984L118.46779794597627,246.20520561367243L118.73537061214448,285.97773844520896L119.53808861064911,248.5508073743425L119.67187494373323,179.61640606820586L120.87595194149019,222.65881455910028L121.87934943962097,158.51009810616964L122.21381527233123,154.9362390312433L122.61517427158356,175.15935193453336L122.81585377120972,177.763750386836L123.41789227008819,285.76002059351805L123.95303760242463,152.40989037482984L125.55847359943391,202.48088837974606L125.82604626560212,228.24553679116903L126.82944376373291,249.61885721282616L128.23420026111603,117.56681833629516L128.36798659420015,216.35732051204627L129.8396362581253,216.80507986741063L131.04371325588227,332.35985662336213L131.77953808784483,290.91130712220496L132.44846975326539,273.8800200823836L133.7194399175644,329.11873615196345L134.92351691532136,287.3415559312728L135.25798274803162,248.0291061070831L135.5924485807419,287.444253031127L135.65934174728395,132.54827126302658L135.92691441345215,260.7840859089754L136.3951665792465,325.7543791607397L136.59584607887268,333.1321388142657L138.53574790859224,248.17288204687898L138.60264107513427,291.21118265377925L139.80671807289124,292.2340457683271L142.08108573532104,252.96678266807328L143.285162733078,179.48084589639828L143.82030806541442,212.59449877338818L144.89059873008728,162.3920484806586L145.09127822971342,292.07383829255457L146.4291415605545,278.6574891676012L147.03118005943298,261.76587018358157L148.23525705718995,300.74558140424364L149.4393340549469,309.9842125071279L149.50622722148896,314.71238698441556L149.64001355457307,253.41864990743179L149.90758622074128,267.28686627174363L150.0413725538254,281.2865349238689L150.9778768854141,283.08578811331455L151.3123427181244,317.4276983045607L151.5799153842926,344.32201481437994L153.18535138130187,132.82349949063587L153.85428304672243,329.39396437957265L153.92117621326446,337.5070352680549L154.05496254634858,295.0027595803965L154.25564204597475,268.47404474605827L154.65700104522705,302.2367432941267L154.79078737831117,337.901392131495L155.19214637756346,314.4741297127538L156.06175754261017,337.06749168067887L156.66379604148864,184.6115930051144L156.9982618741989,221.94815062810918L157.53340720653534,176.4574432766905L158.06855253887176,338.34093571887104L158.53680470466614,294.7439628887639L160.7442792005539,340.8631764912903L160.94495870018005,265.9846670455923L161.21253136634826,305.7695235291114L161.68078353214264,281.5453316155015L163.88825802803038,302.5325109417068L164.08893752765655,229.075329357991L164.35651019382476,146.49042953923347L165.76126669120788,342.3132595412317L166.63087785625459,260.20898214979184L166.76466418933867,345.0450023973535L166.8984505224228,265.5081525022688L167.43359585475923,328.7818896644416L168.23631385326385,299.997946517305L169.70796351718903,295.38890067584833L170.77825418186188,215.568606785166L171.24650634765626,330.9960391372983L171.4471858472824,258.1550401527077L171.64786534690856,312.0915569961362L172.85194234466553,280.04595395763005L172.9188355112076,200.6734194223121L172.98572867774962,300.314253584856L173.85533984279633,293.4417636626126L174.79184417438506,256.9062434184806L174.85873734092712,327.5577402341795L174.99252367401124,327.80832115782374L175.05941684055327,330.76599763362486L175.26009634017944,337.61384025190324L176.3303870048523,-57.51941326314196L177.0662118368149,343.8085293151089L177.13310500335695,125.7250759487132L177.8689298353195,292.2956640282396L178.06960933494568,319.7445448772716L178.7385410003662,296.4117637903962L179.4743658323288,344.4822222901525L179.80883166503907,282.99541466544287L180.67844283008574,322.08603875394743L181.81562666130066,266.9007251762918L182.41766516017915,244.09375324067L183.6217421579361,312.7406026672148L183.95620799064636,324.34537495074L185.02649865531922,343.1800230640012L186.1636824865341,251.91105648157205L186.56504148578642,332.9719313384932L186.7657209854126,326.9538812870368L187.16707998466492,182.50835640010027L187.5015458173752,336.37325928566446L187.6353321504593,334.1960807687553L188.23737064933775,339.39666190537224L188.37115698242187,215.37553623744006L188.50494331550598,284.2729665876291L191.9164948091507,337.7042136997749L192.25096064186096,346.6758323430383L192.58542647457122,309.20371454823595L192.71921280765534,326.49379827968994L194.12396930503846,272.16703245681543L194.52532830429078,341.19180721082375L195.52872580242158,343.3648778437387L195.66251213550566,346.50535515728035L198.13755929756164,320.21284365260675L198.2044524641037,329.21732536782343L200.41192695999146,294.1072408696678L201.080858625412,238.94246671198303L201.41532445812226,333.748321413391L201.81668345737458,310.8797312178566L202.01736295700073,198.67287991715216L203.4890126209259,237.91549571344095L204.35862378597258,340.1032179523692L205.16134178447723,348.1546705809389L205.62959395027158,212.34391784974392L205.76338028335573,330.21554117840634L205.89716661643982,295.3930085598425L208.03774794578553,296.9047098696964L208.2384274454117,172.39474600645815L208.50600011157988,323.5032587319355L208.77357277774811,272.81197024389985L209.71007710933685,342.8267450405027L212.31891060447694,348.23477431882515L213.25541493606568,285.3369085421187L213.58988076877594,349.3284984322724L213.656773935318,332.74599771881395L213.7905602684021,329.88280257487867L214.32570560073853,328.9544207921967L214.66017143344882,127.60648681804227L216.73385959625244,301.36997977135724L217.20211176204683,346.54027217123075L217.33589809513091,332.29823836344957L217.469684428215,109.81524123929974L218.87444092559815,297.0402700415039L220.6136632556915,186.44370926651342L220.88123592185974,219.63951982338665L221.0819154214859,340.9576578231562L221.21570175457,333.87977370120433L221.81774025344848,327.2989435425469L222.75424458503724,323.11711763648367L223.22249675083162,321.82724206231484L224.96171908092498,347.26736763819855L225.09550541400907,313.8867023015877L225.42997124671936,347.1359153503851L226.29958241176604,327.6891925219929L226.50026191139222,341.3109358466547L227.57055257606504,347.5446498078049L228.03880474185945,229.7613459850171L228.5070569076538,305.47375588153125L228.57395007419586,311.85740760846863L229.57734757232663,349.30282415730886L230.04559973812104,306.04475175672064L231.71792890167237,308.9654572765742L232.520646900177,249.8119277605521L233.05579223251343,340.62491921962857L233.45715123176575,332.58989812703555L233.59093756484984,291.4781951134002L235.79841206073763,297.4469505569266L236.19977105998993,316.34732481409446L237.33695489120484,336.74707672913377L238.1396728897095,331.11516777312914L241.0829722175598,315.29981439558156L241.68501071643828,338.34093571887104L242.8221945476532,332.69259522688975L243.4242330465317,346.44579083936486L243.49112621307373,304.4550006509775L243.55801937961579,305.223174957887L244.02627154541014,299.63645272581823L244.22695104503634,296.04205423092105L244.49452371120452,344.958736833476L244.76209637737276,203.7954112578799L244.89588271045685,325.38466960126453L245.29724170970917,341.319151614643L246.0999597082138,301.7971997067507L246.36753237438202,344.2152098305316L248.5081137037277,224.4498519805576L248.57500687026976,343.56616415945297L249.17704536914826,348.4422224605307L249.71219070148467,344.2111019465374L251.18384036540985,323.3184039521979L252.78927636241914,323.1294412884662L253.3913148612976,268.4124264861457L253.52510119438173,347.3330937821052L253.65888752746582,349.29101399082566L254.06024652671815,346.3677410434757L254.19403285980223,349.5611073634422L255.33121669101715,196.30673873651128L255.53189619064332,341.9435499817566L257.1373321876526,332.16267819164204L257.33801168727877,346.7600439649188L258.5420886850357,308.3410589094606L258.67587501811977,325.77902646470466L258.7427681846619,347.28174523217814L258.943447684288,300.4950004805994L259.34480668354036,342.1612678334474L259.9468451824188,346.87917260074965L260.147524682045,349.23299012940805L260.8833495140076,347.28996100016644L261.0840290136337,346.84014770280504L261.15092218017577,300.2444195569551L264.1611146745682,345.66118499647877L264.22800784111024,343.19234671598366L264.2949010076523,272.16703245681543L266.8368413362503,336.8128028730404L266.90373450279236,330.5811428538873L267.50577300167083,348.7739340930597L267.63955933475495,347.70280334158036L268.2415978336334,243.93354576489742L268.7098499994278,348.64761666023907L268.77674316596983,347.1051062204289L269.04431583213807,348.6856145871851L273.3254784908295,339.6308112930398L273.59305115699766,345.88711861615803L277.74042748260496,339.39666190537224L278.4093591480255,343.29915169983207L278.47625231456755,333.2266201461316L279.81411564540866,346.13769953980227L280.6837268104553,343.5374089714938L282.0215901412964,348.6979382391676L283.2925603055954,349.7106600151049L283.62702613830567,347.1153759304143L284.1621714706421,346.3641466449808L284.9648894691467,325.43807209318874L287.3730434646606,312.7734657391681L287.5068297977448,326.13230448820315L287.77440246391296,305.93794677287224L288.4433341293335,348.1895875948893L288.7777999620438,326.8059974632467L289.78119746017455,342.3995251051092L290.316342792511,337.9958734633609L291.11906079101567,183.93790003007078L291.25284712409973,320.67703454394774L291.38663345718385,162.13735967302014L291.7210992898941,344.82317666166847L291.8548856229782,234.43201008638638L292.39003095531467,342.71994005665437L294.5306122846603,348.3857390556108L294.66439861774444,213.41607557222184L295.2664371166229,344.494545942135L295.66779611587526,256.1791479515128L297.4739116125107,348.75236770209034L297.7414842786789,347.02911036653677L298.4773091106415,347.0065170045688L299.0124544429779,348.0427307420978L300.8185699396134,346.9264132666826L302.0895401039124,348.0868904950351L303.0260444355011,347.950303352229L304.096335100174,331.5382798245285L305.23351893138886,160.81462102689798L305.83555743026733,346.62242985111413L305.9024505968094,316.9101049212955L306.3038095960617,338.29985687892935L306.97274126148227,342.6172429568001L307.37410026073456,347.474815779904L307.7754592599869,330.48255363802724L309.4477884235382,349.2976893023162L309.9829337558746,240.66777798953368L311.0532244205475,349.40449428616455L311.5883697528839,348.3076892597216L311.722156085968,309.47483489185106L311.7890492525101,347.20780332028306L313.5951647491455,325.9186945205064L313.66205791568757,347.59394441573494L315.2006007461548,333.1115993942949L315.401280245781,349.6096317431233L317.40807524204257,349.681006227522L317.47496840858463,346.78674521088084L318.41147274017334,347.9092245122873L319.4148702383041,201.96329499648087L319.7493360710144,342.17359148543L320.21758823680875,306.78006299167674L321.28787890148163,347.17699419032687L321.756131067276,326.1117650682323L322.29127639961246,347.93695272924793L322.7595285654068,337.52346680403156L323.4953533973694,286.0557882410981L324.49875089550017,341.47114332242717L324.7663235616684,341.5122221623689L325.56904156017305,169.10022304313523L325.6359347267151,349.37522561270606L325.76972105979917,349.5516078817057L326.5724390583038,291.2481536097268L326.9069048910141,349.69101919475776L327.9103023891449,347.9318178742553L329.51573838615417,349.55931016419476L330.11777688503264,349.34030859875566L330.9204948835373,349.4568698070902L330.98738805007935,349.15648079001664L333.66311471176147,348.39395482359913L334.1313668775559,349.8948729379684L335.7368028745651,269.9282356799938L336.40573453998564,326.68276094342167L337.0077730388641,342.39541722111505L337.40913203811647,329.1721386438876L337.6767047042847,349.4512214665982L338.9476748685837,344.0919733107065L339.01456803512576,342.63367449277683L339.08146120166776,349.45173495209747L339.349033867836,345.9918696580093L340.01796553325653,346.31639249354856L340.68689719867706,349.27509594034825L341.42272203063965,348.08278261104095L343.36262386035924,347.7890689054579L343.42951702690124,313.45537448220006L343.6301965265274,349.37060424321265L343.76398285961153,349.77998055750646L343.8308760261536,349.75879928066155L344.2322350254059,347.85992990435733L344.432914525032,336.5129273414662L344.5667008581162,349.62811722109706L344.83427352428436,348.511029517433L345.03495302391053,333.358072433945L345.97145735549924,349.6057806018788L346.57349585437777,348.6270772402682L347.9782523517609,349.68049274202275L348.3127181844711,348.6435087762449L349.6505815153122,349.8219579970719L350.45329951381683,349.01270485022076L350.7877653465271,347.376226564044L351.38980384540554,321.42466943088635L352.5269876766205,305.9790256128139L352.6607740097046,319.0379888302746L353.86485100746154,349.9029603345819L354.1324236736298,347.4686539539128L354.33310317325595,349.7720215322678L354.53378267288207,344.03035505079396L354.6675690059662,349.8047562328463L354.73446217250824,343.0814338481411L354.8013553390503,346.8586331807788L354.93514167213436,345.8529718304565L355.3365006713867,268.4042107181574L356.33989816951754,349.098456928599L357.008829834938,344.51097747811167L357.3432956676483,347.49535519987484L358.4135863323212,348.89408969988915L358.54737266540525,333.3211014779975L358.88183849811554,348.2183427828485L359.0156248311996,349.7035995894899L359.0825179977417,343.89479487898643L360.15280866241454,347.96776185920424L361.3568856601715,344.00981563082314L361.42377882671354,349.9032812630189L362.29338999176025,347.71101910956867L364.2332918214798,332.2612674075021L364.43397132110596,349.5038537302735L364.70154398727414,301.4151664952931L366.8421253166199,311.0235071576525L366.97591164970396,348.7883116870393L368.7151339797974,322.11068605791246L369.65163831138614,348.7123158331472L371.32396747493743,345.9056040941318L371.7253264741898,322.5461217612943L372.72872397232055,348.48124735847523L372.7956171388626,347.230396682251L372.9962966384888,348.24709797080766L373.263869304657,348.3734154036283L373.46454880428314,339.8259357827628L374.13348046970367,339.5219523671944L374.6017326354981,348.5438925893863L375.47134380054473,349.71155861472863L376.34095496559144,348.7205316011355L378.9497884607315,349.67202023128476L380.5552244577408,348.7030730941603L380.75590395736697,349.87645164568204L380.82279712390897,349.590119294151L381.2241561231613,349.31001295429866L381.8261946220398,349.8485308716592L382.96337845325473,348.71128886214865L384.3681349506378,346.8853344267409L384.568814450264,348.53259590840236L385.2377461156845,345.53794847665375L385.30463928222656,349.90495009089153L385.4384256153107,349.5138666975093L386.6425026130676,349.1785606664853L386.77628894615174,349.88171487204954L387.11075477886203,349.47766596981063L387.2445411119461,348.3138510857129L387.7796864442825,346.66967051704705L388.1141522769928,349.7501983985488L390.4554131059647,349.9066189187642L391.7263832702637,349.741597516436L392.86356710147857,348.75955649908013L392.9973534345627,348.27482618776827L393.398712433815,349.88165068636215L393.59939193344115,349.8740125895605L393.7331782665253,349.8668879782581L394.0007509326935,348.7092349201516L394.33521676540374,348.6486436312376L394.9372552642822,349.61194242787L396.7433707609177,348.2922846947435L397.34540925979616,346.51973275125994L398.415699924469,349.1354278845465L399.68667008876804,336.31164102575195L402.4961830835342,349.13440091354795L402.5630762500763,349.89833896508844L402.76375574970245,317.2592750607998L404.703657579422,349.4835710530523L405.6401619110107,313.04458608278327L406.8442389087677,348.36930751963416L407.7138500738144,349.0666208276442L407.78074324035646,349.4750985423143L408.24899540615087,349.52619034949174L408.98482023811334,349.6751011442804L409.38617923736575,348.34363324467057L409.72064507007593,341.8942553738265L409.85443140316005,349.36187498972504L410.2557904024124,349.5770254139196L410.3895767354965,337.7986950316408L410.59025623512264,348.98086874926594L411.19229473400117,349.56778267493274L411.79433323287964,349.83376816355513L411.9950127325058,349.8603410381424L412.0619058990478,347.3536332020761L414.0018077287674,349.70526841736256L414.6038462276458,347.3536332020761L415.40656422615046,343.0732180801528L416.4768548908234,348.49459798145625L416.61064122390746,349.70796421623373L417.6140387220383,349.5308117189852L419.2194747190475,348.10024111801613L419.35326105213164,349.8647698505736L419.754620051384,346.8463095287963L420.0221927175522,349.84878761440876L420.55733804988864,349.89628502309137L421.02559021568294,345.74334267636215L421.62762871456147,349.77535918801306L422.0958808803559,349.5249066357436L422.22966721343994,348.0632701620686L422.5641330461502,349.71181535747826L422.8985988788605,348.94954613381043L423.96888954353335,349.1220772615655L424.03578271007535,349.81220177258575L424.16956904315947,349.9167923502185L424.23646220970153,345.97309534444224L425.4405392074585,340.85906860729614L425.9087913732528,349.46097769108434L426.51082987213135,349.40089988766965L427.5142273702621,349.6951270787519L428.3838385353088,349.7716364181433L429.7217018661499,349.8496862140325L430.5913130311966,349.71489627047384L430.65820619773865,348.84787600495474L431.059565196991,349.86278009426394L431.46092419624324,347.3392556080965L431.7953900289536,326.90869456310094L432.7318943605423,349.59756483389043L433.2670396928787,349.7590560234112L433.66839869213106,349.66688537629204L434.5380098571777,345.39417253685787L434.67179619026183,347.2468282182277L435.0062620229721,349.23504407140507L435.14004835605624,349.7879395827452L435.34072785568236,349.2068023689452L435.4745141887665,325.19981482152696L435.54140735530854,349.3310658597688L436.00965952110295,348.97727435077104L437.2806296854019,349.8762590886198L439.08674518203736,349.6964107925001L439.3543178482056,348.5993490233076L440.6252880125046,348.22861249283386L442.03004450988766,347.41935934598274L442.29761717605595,345.8830107321639L442.43140350914,349.3413355697542L443.3679078407288,349.8025739194744L443.90305317306525,349.79666883623275L444.6388780050277,344.4657907541758L445.44159600353237,341.002844547092L445.5084891700745,349.66252074954826L446.244314002037,342.67475333271847L446.7125661678314,317.2551671768056L447.04703200054166,349.8610470807039L447.8497499990463,349.5777956421685L448.78625433063513,348.9166830618571L448.98693383026125,349.6050103736299L449.6558654956818,349.7993646351039L449.7896518287659,348.0139755541386L449.92343816184996,349.87510374624645L450.59236982727055,349.5947406636445L450.7261561603546,349.50359698752385L451.39508782577514,349.90636217601457L451.99712632465366,349.89525805209286L453.20120332241055,348.8098780780087L454.0039213209152,349.0979434430997L454.7397461528778,349.20782933994377L455.67625048446655,349.80154694847585L457.34857964801785,349.58216026891233L459.22158831119543,348.5726477773455L459.42226781082155,349.4676530025749L459.4891609773636,344.0426787027765L459.62294731044767,345.22574929309695L460.4256653089523,349.9361443349723L461.0945969743729,349.9490135652978L461.22838330745697,349.8139989718332L462.499353471756,332.05176532379954L463.6365373029709,349.84429461629014L464.5730416345596,349.8901231971001L464.77372113418573,349.4029538296667L465.17508013343814,338.8893382320925L465.8440117988587,349.7960269793587L466.11158446502685,349.59602437739267L466.5129434642792,349.7707378185196L466.6467297973633,348.36417266464144L467.7839136285782,344.7328032137968L468.1183794612885,349.87587397449533L469.4562427921295,349.82889005131204L469.7907086248398,346.9448987446563L470.7941061229706,349.8329979353062L471.12857195568085,348.43297972154375L474.00497811698915,349.74506354355606L474.2725507831573,349.91438538694064L475.14216194820403,349.58216026891233L476.07866627979274,349.8684926204433L476.34623894596103,346.5628655331987L477.3496364440918,349.58113329791377L477.41652961063386,349.46893671632307L477.9516749429703,349.86374287957506L478.01856810951233,349.6712500030358L478.7543929414749,348.5664859513542L481.7645854358673,348.82836355598243L481.83147860240933,349.1682909564999L483.23623509979245,349.35468619273524L484.3065257644654,349.23658452790295L486.91535925960545,349.53337914648154L487.11603875923157,349.7332533770728L488.72147475624087,349.6501970975657L489.45729958820345,349.80372926184776L490.0593380870819,349.7844735556251L490.7282697525024,349.6121991706197L491.0627355852127,349.8921129534098L491.464094584465,349.83992998954636L492.1999194164276,349.71540975597316L492.3337057495117,349.85841546752016L493.3371032476426,345.739234792368L493.7384622468948,349.77998055750646L494.006034913063,347.72950458754246L494.6080734119415,349.1390222830414L495.143218744278,348.8848469609023L495.3438982439041,349.6797225137738L496.01282990932464,349.3336332872652L498.1534112386704,349.56752593218306L498.3540907382965,349.88980226866306L498.48787707138064,349.83235607843216L498.95612923717505,349.97914874553624L500.0264199018479,349.71181535747826L500.5615652341843,348.4678967354942L501.6318558988571,349.2812577663395L503.17039872932435,349.83697744792556L504.9096210594177,349.8219579970719L505.71233905792235,349.82747796618906L506.18059122371676,349.88524508485705L507.5853477210998,349.62195539510583L507.71913405418394,349.87946837299023L507.9198135538102,349.8267077379401L508.65563838577276,349.9314427333696L508.92321105194094,349.7925609522386L509.5252495508194,349.6905057092585L510.3948607158661,349.3382546567586L511.06379238128665,349.84159881741897L511.532044547081,349.90186917789595L511.8665103797913,349.7432663443086L512.4016557121276,349.9414717470272L514.4084507083893,349.3711177287119L515.0104892072677,348.56032412536297L515.278061873436,318.142470119546L516.0807798719406,349.87311398993677L516.2145662050248,349.7151530132235L516.2814593715668,349.9469917161444L516.7497115373612,349.8292751654365L517.886895368576,349.82747796618906L517.9537885351181,349.91521980087697L518.0875748682022,347.75620583350457L518.1544680347442,349.2211799629248L518.2213612012863,349.85129085621776L518.6227202005387,347.76442160149287L518.6896133670807,349.5377437732254L519.4254381990432,349.4317090176259L519.8936903648377,349.0768905376296L520.5626220302581,349.92211976227344L521.0977673625946,349.6181042538613L521.6998058614731,349.8378760475493L521.9673785276412,349.8190054554511L524.041066690445,349.9153802650955L524.107959856987,349.7893516678682L526.1147548532485,349.77895358650795L526.649900185585,349.94378243177397L527.4526181840897,349.67664160077817L527.5864045171737,349.1955056879612L528.7235883483886,349.68485736876653L529.058054181099,349.63427904708834L529.191840514183,349.75456302529255L529.4594131803512,348.6537784862303L529.6600926799774,349.7595695089105L530.2621311788558,349.6673988617913L530.7303833446502,343.04035500819947L531.599994509697,349.85199689877925L531.666887676239,349.6817764557709L532.0682466754914,349.9049179980479L533.0716441736222,349.9127807447555L534.141934838295,349.91621467903184L535.1453323364258,349.538000515975L536.4831956672668,345.9507908180676L537.5534863319397,347.37006473805275L537.6203794984817,348.77496106405823L537.6872726650238,349.84878761440876L538.1555248308182,349.8069385462182L538.2224179973603,349.90912216057313L538.6237769966126,346.15759710289905L538.7575633296967,349.88165068636215L541.9684353237152,346.20137174171185L543.1725123214721,349.6255497936007L543.7745508203507,349.892305510472L544.3765893192292,348.244017057812L545.0455209846497,349.91425701556585L545.37998681736,349.82170125432225L546.3833843154907,349.92741508148464L546.717850148201,349.6145098553664L547.3867818136215,349.735949175944L547.7881408128738,349.92301836189716L548.5908588113784,349.89564316621727L548.9253246440887,349.3469839102462L549.5273631429673,349.8880050694156L550.8652264738083,349.64891338381756L551.8686239719391,349.8899306400379L552.0693034715653,349.8980180366514L552.1361966381073,349.73787474656626L552.3368761377335,349.88723484116673L552.6044488039017,349.8826776573607L552.9389146366119,349.81387060045836L554.343671133995,342.23110186134835L554.8119232997894,349.9378773485323L557.5545431280136,349.9233713831779L557.6214362945557,342.3502304971792L557.7552226276398,349.76303553603054L558.022795293808,349.8871064697919L558.2234747934342,349.8876199552912L558.8255132923126,349.26636668686064L559.8958039569854,348.11769962499136L561.0329877882003,349.8912143537861L561.1667741212844,349.90283196320706L561.5681331205368,349.93184389391587L561.7019194536209,349.09588950110265L562.3039579524994,349.91425701556585L563.1735691175461,349.7015456474928L564.0431802825927,349.6086047721248L564.310752948761,348.8365793239708L564.9796846141815,349.8942952667817L565.648616279602,349.3639289317221L566.9195864439012,349.8697121485041L566.9864796104431,348.9197639748527L567.4547317762375,349.67766857177674L567.6554112758637,349.84121370329456L568.4581292743683,348.63118512426234L568.5250224409103,348.99165194475063L569.7959926052093,349.3146343237921L570.1973516044617,349.9044366053923L570.3311379375458,349.90777426113755L570.5987106037139,348.9130886633622L570.665603770256,349.9239490543646L571.1338559360504,349.8729856185619L571.4014286022186,349.9350531782863L572.6723987665176,349.8222147398215L573.207544098854,349.7478877138021L573.8095825977325,349.1184828630706L573.9433689308166,349.8729856185619L576.7528819255829,349.92735089579725L576.886668258667,349.89179202497274L577.0873477582932,348.1074299150059L579.0941427545548,349.8097627164642L579.5623949203491,349.892305510472L582.1712284154892,349.87946837299023L582.4388010816574,347.17699419032687L583.3753054132461,349.7929460663631L585.2483140764236,349.51232624101146L585.8503525753022,348.6364804434736L586.7199637403488,349.64121110132845L586.8537500734329,349.860597780892L587.1213227396012,349.17599323898895L587.9909339046478,348.35184901265893L588.4591860704422,349.4576400353391L588.5929724035262,349.9046291624545L590.1315152339935,348.38676602660934L590.9342332324982,349.6717634885351L592.071417063713,349.6645746915453L592.4727760629654,349.43941130011495L592.8072418956757,349.6168205401131L596.0850070562363,328.4162879889606L596.5532592220306,349.8765800170568L596.954618221283,349.7975674358565L597.1552977209092,349.95472609147714L597.2221908874511,349.538000515975L598.292481552124,349.5801063269152L599.2289858837128,349.7905070102415L600.4999560480118,349.9189425707467L601.6371398792268,349.83992998954636L603.8446143751145,349.70899118723224L604.2459733743668,349.886336241543L604.3128665409089,348.81193202000577L604.4466528739929,347.8886850923165L604.7142255401611,349.72901712170386L605.4500503721237,347.08161425883725L606.9217000360488,349.86926284869224L607.5906317014694,349.73428034807137L608.7278155326843,349.70565353148703L610.2663583631515,349.75738719553857L610.5339310293198,349.86810750631884L610.9352900285721,349.8709958622523L611.2697558612823,349.71155861472863L611.6042216939926,349.5708635879284L611.9386875267029,349.9353901531452L612.0724738597869,349.87580978880794L612.4069396924973,349.87587397449533L612.9420850248337,349.91653560746886L613.276550857544,349.35622664923307L613.9454825229645,349.82542402419193L615.3502390203475,349.8627159085765L615.5509185199738,349.57368775817434L616.4205296850205,349.9101491315717L617.022568183899,349.834538391804L617.0894613504411,346.72307300897126L617.2232476835251,349.93142668694776L617.3570340166092,349.76136670815794L618.427324681282,349.70770747348405L621.3706240091324,349.7865274976222L621.8388761749267,349.50513744402167L622.039555674553,349.77253501776704L622.5078078403473,349.7752308166382L623.7118848381043,349.93155505832254L623.9125643377304,349.57599844292105L624.3808165035248,348.4155212145685L624.4477096700668,349.8551419974623L625.2504276685715,349.891984582035L625.6517866678238,349.8799176728021L627.3241158313751,349.79577023660903L627.7923679971695,336.3691514016703L628.1937269964218,348.7215585721341L628.9964449949264,349.9271262458913L630.4012014923096,349.9166960716874L631.6721716566086,341.72172424607146L631.9397443227768,349.9519340140749L632.6086759881973,329.55417185534526L633.7458598194122,348.573674748344L634.0803256521225,349.91688862874963L634.3478983182907,349.7426244874345L634.8161504840851,349.71245721435236L634.8830436506272,346.9553289188603L635.4181889829636,349.5249066357436L635.7526548156738,347.5056249098603L637.8932361450195,349.65918309380294L638.7628473100661,348.4370876055379L639.3648858089447,346.2260190456769L639.4317789754867,349.6881950245118L640.2344969739913,349.57009335967945L642.4419714698791,349.83235607843216L642.5088646364212,346.9880315265951L642.8433304691314,349.83017376506024L643.3115826349258,349.8982105937136L643.3784758014679,349.67330394503296L644.3149801330566,347.20574937828604L644.5825527992249,349.4317090176259L644.9170186319351,349.2756094258475L644.9839117984772,349.7164367269717L645.2514844646454,349.95231912819935L645.3183776311874,349.8625875372017L645.9204161300659,349.90347382008116L647.258279460907,342.25164128131917L647.5927452936172,349.8460918155376L648.8637154579163,349.64506224257303L649.2650744571686,349.93248575078997L649.3319676237106,349.5937136926459L649.733326622963,349.5875518666547L649.8671129560471,349.09999738509686L651.6063352861404,349.94237034665093L652.342160118103,349.9007138355226L653.8138097820282,349.07432311013326L654.6165277805328,349.7554616249163L654.884100446701,349.9298862304499L655.1516731128693,349.86727309238256L655.5530321121215,346.6756397859761L655.954391111374,349.3284984322724L656.0212842779159,349.64762967006936L656.088177444458,349.93465201774L656.8908954429627,349.90931471763537L659.9679811038972,349.72490923770965L660.7038059358597,349.7554616249163L661.1720581016541,349.8374909334248L662.1754555997849,349.7186190403436L663.0450667648315,349.92247278355416L663.1119599313736,349.8646414791988L663.64710526371,349.7100181582308L664.4498232622146,349.92112488411857L664.6505027618408,349.94686334476955L664.7842890949249,349.84622018691243L665.7207934265138,349.75648859591485L666.122152425766,349.91072680275835L667.3262294235229,348.37238843262975L668.3296269216537,349.963214648637L669.1992380867005,342.39130933712084L669.935062918663,349.51694761050493L670.6039945840836,349.8362072196766L670.9384604167938,349.8283765658128L671.0722467498779,348.2815656849462L671.5404989156723,349.2766363968461L671.6073920822143,349.8759381601828L671.8080715818405,349.844743916102L671.9418579149246,348.95981584379587L672.2094305810929,349.82876167993726L673.6141870784759,349.89833896508844L673.7479734115601,349.7700959616455L674.4837982435226,349.8111748015872L674.6175845766068,349.87966093005247L675.3534094085694,349.90771007545015L676.156127407074,349.93900059806197L676.223020573616,348.8170668749985L677.7615634040833,348.87971210590956L678.6311745691299,349.5826737544116L679.0994267349244,349.9269657816728L679.6345720672607,349.7236255239615L681.8420465631485,349.6917894230067L683.9826278924942,349.7561034817904L684.1833073921204,349.91428910840955L687.1266067199707,349.54133817172027L687.3272862195968,349.3577671057309L688.665149550438,349.75148211229697L690.2036923809052,349.428114619131L691.1401967124939,349.6676556045409L691.4077693786621,349.8012902057262L691.5415557117462,349.83338304943067L691.9429147109985,349.34749739574545L692.1435942106247,349.7418542591856L692.7456327095032,349.8942952667817L693.4145643749237,349.90604124757755L695.6220388708115,349.91907094212155L695.7558252038956,349.61990145310875L696.0233978700637,349.9375564200953L696.8930090351105,349.76958247614624L697.428154367447,349.6681690900402L697.628833867073,349.8632293940758L697.8964065332412,349.56264781994L698.2308723659515,349.9378131628449L698.4315518655777,349.92013000596376L698.9666971979142,349.8980822223388L699.5687356967926,349.62349585160365L699.970094696045,349.4571265498398L700.3045605287551,348.30974320171873L701.1741716938019,349.85629733983563L702.3782486915588,349.87279306149975L702.4451418581009,348.8345253819737L702.7796076908111,349.6237525943533L703.9167915220261,349.73338174844764L704.8532958536148,349.82182962569703L704.9201890201568,349.88088045811327L705.8566933517455,349.5888355804029L705.9904796848297,349.8208026546985L706.32494551754,349.92725461726616L706.391838684082,349.1472380510298L707.5290225152969,349.762008565032L708.6662063465119,349.69487033600234L709.0675653457641,349.9133584159421L709.6696038446427,349.9705558866344L711.0074671754837,349.8281198230631L711.6763988409042,349.14415713803413L712.0777578401566,349.2848521648344L712.2115441732407,349.9055919477657L712.3453305063248,349.28382519383587L712.4122236728667,347.6617245016387L712.9473690052032,349.78858143961924L713.81698017025,349.92866670238914L716.2920273323059,349.78254798500285L716.8940658311844,349.94200127894834L717.1616384973526,349.9282174025773L717.2954248304367,349.0240015312047L718.2988223285676,349.9374922344079L718.4995018281936,348.5634050383586L719.1015403270721,349.8763232743072L719.5697924928664,349.9411829114339L719.8373651590348,349.76303553603054L719.9711514921189,349.9006496498352L721.9110533218384,349.7462188859294L723.5833824853897,349.6494268693168L723.7840619850158,349.8910217967238L724.0516346511841,347.2147674673669L724.3192073173523,349.6976945062483L725.3894979820251,349.8896738972882L725.9915364809036,349.5005160745282L727.0618271455766,349.85822291045787L727.5300793113709,349.91791559974814L728.0652246437073,349.89249806753423L728.1990109767914,349.9181402496541L728.4665836429596,349.68768153901254L728.8679426422119,349.7143827849746L729.001728975296,348.42476395355544L729.0686221418381,349.82234311119635L730.272699139595,349.9159900291259L730.9416308050155,349.9271262458913L731.543669303894,349.9557530624757L731.8781351366042,347.9751432132562L732.3463873023986,349.4460866116055L732.6139599685669,349.5608506206926L732.8815326347351,346.3246082615369L733.6842506332398,349.55109439620645L734.2193959655762,349.9379736270634L734.4869686317444,349.7872977258711L734.6207549648285,349.78485866974955L735.8248319625854,348.98857103175504" fill="none"></path></g></g></g></g></g><g><g opacity="0.000723193"><span fill="rgb(0, 0, 0)" stroke="none" stroke-width="1px">Alt + Scroll to Zoom</span></g></g></g><g transform="translate(51, 376)" clip-path="url(#clip_1)"><clipPath id="clip_1"><rect width="802" height="23"></rect></clipPath><g><g><line x1="0" y1="0" x2="0" y2="5" style="visibility: inherit;" fill="rgb(0, 0, 0)" stroke="rgb(204, 204, 204)" stroke-width="1px"></line><line x1="66.89316654205322" y1="0" x2="66.89316654205322" y2="5" style="visibility: inherit;" fill="rgb(0, 0, 0)" stroke="rgb(204, 204, 204)" stroke-width="1px"></line><line x1="133.78633308410645" y1="0" x2="133.78633308410645" y2="5" style="visibility: inherit;" fill="rgb(0, 0, 0)" stroke="rgb(204, 204, 204)" stroke-width="1px"></line><line x1="200.67949962615967" y1="0" x2="200.67949962615967" y2="5" style="visibility: inherit;" fill="rgb(0, 0, 0)" stroke="rgb(204, 204, 204)" stroke-width="1px"></line><line x1="267.5726661682129" y1="0" x2="267.5726661682129" y2="5" style="visibility: inherit;" fill="rgb(0, 0, 0)" stroke="rgb(204, 204, 204)" stroke-width="1px"></line><line x1="334.4658327102661" y1="0" x2="334.4658327102661" y2="5" style="visibility: inherit;" fill="rgb(0, 0, 0)" stroke="rgb(204, 204, 204)" stroke-width="1px"></line><line x1="401.35899925231934" y1="0" x2="401.35899925231934" y2="5" style="visibility: inherit;" fill="rgb(0, 0, 0)" stroke="rgb(204, 204, 204)" stroke-width="1px"></line><line x1="468.2521657943726" y1="0" x2="468.2521657943726" y2="5" style="visibility: inherit;" fill="rgb(0, 0, 0)" stroke="rgb(204, 204, 204)" stroke-width="1px"></line><line x1="535.1453323364258" y1="0" x2="535.1453323364258" y2="5" style="visibility: inherit;" fill="rgb(0, 0, 0)" stroke="rgb(204, 204, 204)" stroke-width="1px"></line><line x1="602.038498878479" y1="0" x2="602.038498878479" y2="5" style="visibility: inherit;" fill="rgb(0, 0, 0)" stroke="rgb(204, 204, 204)" stroke-width="1px"></line><line x1="668.9316654205322" y1="0" x2="668.9316654205322" y2="5" style="visibility: inherit;" fill="rgb(0, 0, 0)" stroke="rgb(204, 204, 204)" stroke-width="1px"></line><line x1="735.8248319625854" y1="0" x2="735.8248319625854" y2="5" style="visibility: inherit;" fill="rgb(0, 0, 0)" stroke="rgb(204, 204, 204)" stroke-width="1px"></line><line x1="802.7179985046387" y1="0" x2="802.7179985046387" y2="5" style="visibility: inherit;" fill="rgb(0, 0, 0)" stroke="rgb(204, 204, 204)" stroke-width="1px"></line></g><g transform="translate(0, 8)"><text style="text-anchor: middle; visibility: hidden; font-family: Roboto, sans-serif; font-size: 12px; font-weight: 200;" x="0" y="0" dx="0em" dy="0.95em" fill="rgb(33, 33, 33)" stroke="none" stroke-width="1px">-1k</text><text style="text-anchor: middle; visibility: inherit; font-family: Roboto, sans-serif; font-size: 12px; font-weight: 200;" x="66.89316654205322" y="0" dx="0em" dy="0.95em" fill="rgb(33, 33, 33)" stroke="none" stroke-width="1px">0</text><text style="text-anchor: middle; visibility: inherit; font-family: Roboto, sans-serif; font-size: 12px; font-weight: 200;" x="133.78633308410645" y="0" dx="0em" dy="0.95em" fill="rgb(33, 33, 33)" stroke="none" stroke-width="1px">1k</text><text style="text-anchor: middle; visibility: inherit; font-family: Roboto, sans-serif; font-size: 12px; font-weight: 200;" x="200.67949962615967" y="0" dx="0em" dy="0.95em" fill="rgb(33, 33, 33)" stroke="none" stroke-width="1px">2k</text><text style="text-anchor: middle; visibility: inherit; font-family: Roboto, sans-serif; font-size: 12px; font-weight: 200;" x="267.5726661682129" y="0" dx="0em" dy="0.95em" fill="rgb(33, 33, 33)" stroke="none" stroke-width="1px">3k</text><text style="text-anchor: middle; visibility: inherit; font-family: Roboto, sans-serif; font-size: 12px; font-weight: 200;" x="334.4658327102661" y="0" dx="0em" dy="0.95em" fill="rgb(33, 33, 33)" stroke="none" stroke-width="1px">4k</text><text style="text-anchor: middle; visibility: inherit; font-family: Roboto, sans-serif; font-size: 12px; font-weight: 200;" x="401.35899925231934" y="0" dx="0em" dy="0.95em" fill="rgb(33, 33, 33)" stroke="none" stroke-width="1px">5k</text><text style="text-anchor: middle; visibility: inherit; font-family: Roboto, sans-serif; font-size: 12px; font-weight: 200;" x="468.2521657943726" y="0" dx="0em" dy="0.95em" fill="rgb(33, 33, 33)" stroke="none" stroke-width="1px">6k</text><text style="text-anchor: middle; visibility: inherit; font-family: Roboto, sans-serif; font-size: 12px; font-weight: 200;" x="535.1453323364258" y="0" dx="0em" dy="0.95em" fill="rgb(33, 33, 33)" stroke="none" stroke-width="1px">7k</text><text style="text-anchor: middle; visibility: inherit; font-family: Roboto, sans-serif; font-size: 12px; font-weight: 200;" x="602.038498878479" y="0" dx="0em" dy="0.95em" fill="rgb(33, 33, 33)" stroke="none" stroke-width="1px">8k</text><text style="text-anchor: middle; visibility: inherit; font-family: Roboto, sans-serif; font-size: 12px; font-weight: 200;" x="668.9316654205322" y="0" dx="0em" dy="0.95em" fill="rgb(33, 33, 33)" stroke="none" stroke-width="1px">9k</text><text style="text-anchor: middle; visibility: inherit; font-family: Roboto, sans-serif; font-size: 12px; font-weight: 200;" x="735.8248319625854" y="0" dx="0em" dy="0.95em" fill="rgb(33, 33, 33)" stroke="none" stroke-width="1px">10k</text><text style="text-anchor: middle; visibility: hidden; font-family: Roboto, sans-serif; font-size: 12px; font-weight: 200;" x="802.7179985046387" y="0" dx="0em" dy="0.95em" fill="rgb(33, 33, 33)" stroke="none" stroke-width="1px">11k</text></g><line x1="0" y1="0" x2="802.7179985046387" y2="0" fill="rgb(0, 0, 0)" stroke="rgb(204, 204, 204)" stroke-width="1px"></line></g></g></g></g></svg>