<svg viewBox="0 0 330 200" xmlns="http://www.w3.org/2000/svg"><g><g><g><g><g><line x1="53.172000885009766" y1="175.63999938964844" x2="48.172000885009766" y2="175.63999938964844" style="visibility: inherit;" fill="rgb(0, 0, 0)" stroke="rgb(204, 204, 204)" stroke-width="1px"></line><line x1="53.172000885009766" y1="153.68499946594238" x2="48.172000885009766" y2="153.68499946594238" style="visibility: inherit;" fill="rgb(0, 0, 0)" stroke="rgb(204, 204, 204)" stroke-width="1px"></line><line x1="53.172000885009766" y1="131.72999954223633" x2="48.172000885009766" y2="131.72999954223633" style="visibility: inherit;" fill="rgb(0, 0, 0)" stroke="rgb(204, 204, 204)" stroke-width="1px"></line><line x1="53.172000885009766" y1="109.77499961853027" x2="48.172000885009766" y2="109.77499961853027" style="visibility: inherit;" fill="rgb(0, 0, 0)" stroke="rgb(204, 204, 204)" stroke-width="1px"></line><line x1="53.172000885009766" y1="87.81999969482422" x2="48.172000885009766" y2="87.81999969482422" style="visibility: inherit;" fill="rgb(0, 0, 0)" stroke="rgb(204, 204, 204)" stroke-width="1px"></line><line x1="53.172000885009766" y1="65.86499977111816" x2="48.172000885009766" y2="65.86499977111816" style="visibility: inherit;" fill="rgb(0, 0, 0)" stroke="rgb(204, 204, 204)" stroke-width="1px"></line><line x1="53.172000885009766" y1="43.90999984741211" x2="48.172000885009766" y2="43.90999984741211" style="visibility: inherit;" fill="rgb(0, 0, 0)" stroke="rgb(204, 204, 204)" stroke-width="1px"></line><line x1="53.172000885009766" y1="21.954999923706055" x2="48.172000885009766" y2="21.954999923706055" style="visibility: inherit;" fill="rgb(0, 0, 0)" stroke="rgb(204, 204, 204)" stroke-width="1px"></line><line x1="53.172000885009766" y1="0" x2="48.172000885009766" y2="0" style="visibility: inherit;" fill="rgb(0, 0, 0)" stroke="rgb(204, 204, 204)" stroke-width="1px"></line></g><g transform="translate(43.172000885009766, 0)"><text style="text-anchor: end; visibility: hidden; font-family: Roboto, sans-serif; font-size: 12px; font-weight: 200;" x="0" y="175.63999938964844" dx="0em" dy="0.3em" fill="rgb(33, 33, 33)" stroke="none" stroke-width="1px">-0.5</text><text style="text-anchor: end; visibility: inherit; font-family: Roboto, sans-serif; font-size: 12px; font-weight: 200;" x="0" y="153.68499946594238" dx="0em" dy="0.3em" fill="rgb(33, 33, 33)" stroke="none" stroke-width="1px">0</text><text style="text-anchor: end; visibility: hidden; font-family: Roboto, sans-serif; font-size: 12px; font-weight: 200;" x="0" y="131.72999954223633" dx="0em" dy="0.3em" fill="rgb(33, 33, 33)" stroke="none" stroke-width="1px">0.5</text><text style="text-anchor: end; visibility: inherit; font-family: Roboto, sans-serif; font-size: 12px; font-weight: 200;" x="0" y="109.77499961853027" dx="0em" dy="0.3em" fill="rgb(33, 33, 33)" stroke="none" stroke-width="1px">1</text><text style="text-anchor: end; visibility: hidden; font-family: Roboto, sans-serif; font-size: 12px; font-weight: 200;" x="0" y="87.81999969482422" dx="0em" dy="0.3em" fill="rgb(33, 33, 33)" stroke="none" stroke-width="1px">1.5</text><text style="text-anchor: end; visibility: inherit; font-family: Roboto, sans-serif; font-size: 12px; font-weight: 200;" x="0" y="65.86499977111816" dx="0em" dy="0.3em" fill="rgb(33, 33, 33)" stroke="none" stroke-width="1px">2</text><text style="text-anchor: end; visibility: hidden; font-family: Roboto, sans-serif; font-size: 12px; font-weight: 200;" x="0" y="43.90999984741211" dx="0em" dy="0.3em" fill="rgb(33, 33, 33)" stroke="none" stroke-width="1px">2.5</text><text style="text-anchor: end; visibility: inherit; font-family: Roboto, sans-serif; font-size: 12px; font-weight: 200;" x="0" y="21.954999923706055" dx="0em" dy="0.3em" fill="rgb(33, 33, 33)" stroke="none" stroke-width="1px">3</text><text style="text-anchor: end; visibility: hidden; font-family: Roboto, sans-serif; font-size: 12px; font-weight: 200;" x="0" y="0" dx="0em" dy="0.3em" fill="rgb(33, 33, 33)" stroke="none" stroke-width="1px">3.5</text></g><line x1="53.172000885009766" y1="0" x2="53.172000885009766" y2="175.63999938964844" fill="rgb(0, 0, 0)" stroke="rgb(204, 204, 204)" stroke-width="1px"></line></g></g><g transform="translate(53, 0)" clip-path="url(#clip_0)"><clipPath id="clip_0"><rect width="276" height="175"></rect></clipPath><g><g><g><line x1="0" y1="0" x2="0" y2="175.63999938964844" fill="rgb(0, 0, 0)" stroke="rgb(66, 66, 66)" stroke-width="1px" opacity="0.25"></line><line x1="23.068999926249184" y1="0" x2="23.068999926249184" y2="175.63999938964844" fill="rgb(0, 0, 0)" stroke="rgb(66, 66, 66)" stroke-width="1px" opacity="0.25"></line><line x1="46.13799985249837" y1="0" x2="46.13799985249837" y2="175.63999938964844" fill="rgb(0, 0, 0)" stroke="rgb(66, 66, 66)" stroke-width="1px" opacity="0.25"></line><line x1="69.20699977874756" y1="0" x2="69.20699977874756" y2="175.63999938964844" fill="rgb(0, 0, 0)" stroke="rgb(66, 66, 66)" stroke-width="1px" opacity="0.25"></line><line x1="92.27599970499674" y1="0" x2="92.27599970499674" y2="175.63999938964844" fill="rgb(0, 0, 0)" stroke="rgb(66, 66, 66)" stroke-width="1px" opacity="0.25"></line><line x1="115.34499963124594" y1="0" x2="115.34499963124594" y2="175.63999938964844" fill="rgb(0, 0, 0)" stroke="rgb(66, 66, 66)" stroke-width="1px" opacity="0.25"></line><line x1="138.41399955749512" y1="0" x2="138.41399955749512" y2="175.63999938964844" fill="rgb(0, 0, 0)" stroke="rgb(66, 66, 66)" stroke-width="1px" opacity="0.25"></line><line x1="161.48299948374432" y1="0" x2="161.48299948374432" y2="175.63999938964844" fill="rgb(0, 0, 0)" stroke="rgb(66, 66, 66)" stroke-width="1px" opacity="0.25"></line><line x1="184.55199940999347" y1="0" x2="184.55199940999347" y2="175.63999938964844" fill="rgb(0, 0, 0)" stroke="rgb(66, 66, 66)" stroke-width="1px" opacity="0.25"></line><line x1="207.62099933624268" y1="0" x2="207.62099933624268" y2="175.63999938964844" fill="rgb(0, 0, 0)" stroke="rgb(66, 66, 66)" stroke-width="1px" opacity="0.25"></line><line x1="230.68999926249188" y1="0" x2="230.68999926249188" y2="175.63999938964844" fill="rgb(0, 0, 0)" stroke="rgb(66, 66, 66)" stroke-width="1px" opacity="0.25"></line><line x1="253.75899918874103" y1="0" x2="253.75899918874103" y2="175.63999938964844" fill="rgb(0, 0, 0)" stroke="rgb(66, 66, 66)" stroke-width="1px" opacity="0.25"></line><line x1="276.82799911499023" y1="0" x2="276.82799911499023" y2="175.63999938964844" fill="rgb(0, 0, 0)" stroke="rgb(66, 66, 66)" stroke-width="1px" opacity="0.25"></line></g><g><line x1="0" y1="175.63999938964844" x2="276.82799911499023" y2="175.63999938964844" fill="rgb(0, 0, 0)" stroke="rgb(66, 66, 66)" stroke-width="1px" opacity="0.25"></line><line x1="0" y1="153.68499946594238" x2="276.82799911499023" y2="153.68499946594238" fill="rgb(0, 0, 0)" stroke="rgb(66, 66, 66)" stroke-width="1px" opacity="0.25"></line><line x1="0" y1="131.72999954223633" x2="276.82799911499023" y2="131.72999954223633" fill="rgb(0, 0, 0)" stroke="rgb(66, 66, 66)" stroke-width="1px" opacity="0.25"></line><line x1="0" y1="109.77499961853027" x2="276.82799911499023" y2="109.77499961853027" fill="rgb(0, 0, 0)" stroke="rgb(66, 66, 66)" stroke-width="1px" opacity="0.25"></line><line x1="0" y1="87.81999969482422" x2="276.82799911499023" y2="87.81999969482422" fill="rgb(0, 0, 0)" stroke="rgb(66, 66, 66)" stroke-width="1px" opacity="0.25"></line><line x1="0" y1="65.86499977111816" x2="276.82799911499023" y2="65.86499977111816" fill="rgb(0, 0, 0)" stroke="rgb(66, 66, 66)" stroke-width="1px" opacity="0.25"></line><line x1="0" y1="43.90999984741211" x2="276.82799911499023" y2="43.90999984741211" fill="rgb(0, 0, 0)" stroke="rgb(66, 66, 66)" stroke-width="1px" opacity="0.25"></line><line x1="0" y1="21.954999923706055" x2="276.82799911499023" y2="21.954999923706055" fill="rgb(0, 0, 0)" stroke="rgb(66, 66, 66)" stroke-width="1px" opacity="0.25"></line><line x1="0" y1="0" x2="276.82799911499023" y2="0" fill="rgb(0, 0, 0)" stroke="rgb(66, 66, 66)" stroke-width="1px" opacity="0.25"></line></g></g></g><g><g><line x1="0" y1="153.68499946594238" x2="276.82799911499023" y2="153.68499946594238" fill="rgb(0, 0, 0)" stroke="rgb(153, 153, 153)" stroke-width="1.5px"></line></g></g><g><g><line x1="23.068999926249184" y1="0" x2="23.068999926249184" y2="175.63999938964844" fill="rgb(0, 0, 0)" stroke="rgb(153, 153, 153)" stroke-width="1.5px"></line></g></g><g><g><g><g><g><path style="fill: none;" stroke="rgb(0, 119, 187)" stroke-width="2px" d="M33.77301589202881,-0.9999186900799479L33.79608489195506,4.744561662274844L34.02677489121755,4.961182116401362L34.46508588981629,7.149728766669876L34.949534888267515,10.781438215427464L35.341707887013754,15.078903956555221L35.457052886644995,15.12701069541967L36.07991588465372,22.05737315461491L36.31060588391622,32.2701083224075L36.44901988347371,39.09803907909012L36.61050288295746,40.36296066448665L36.63357188288371,40.7608266303736L37.39484888044993,45.03902365108883L37.44098688030243,43.77668113452417L37.717814879417425,43.230229351587056L37.87929787890116,47.891755631991L37.90236687882741,46.33315700150809L37.94850487867991,44.17833888428117L38.01771187845866,46.75196986445264L38.06384987831116,52.945204108093066L38.34067787742615,50.635169533687645L38.57136787668864,51.35206967636055L39.563334873517356,55.31246862459015L39.74788687292735,55.151501154199664L39.932438872337336,59.314514273649046L40.14005987167358,58.0380276428244L40.43995687071482,65.3607889908664L40.53223287041982,66.2300244290348L40.73985386975606,73.58965571028769L40.832129869461056,72.13407333153471L40.87826786931356,68.94371697721495L40.92440586916606,72.06683997535009L41.0858888686498,74.3845055417167L41.20123386828105,74.00399139281825L41.24737186813354,73.4926943580911L41.36271686776479,72.96497921022718L41.40885486761729,78.32127841791166L41.50113086732229,82.31632709721706L41.593406867027284,77.72793870936955L41.731820866584776,81.36263779595832L41.75488986651103,84.21483582567193L42.285476864814754,81.97915580543985L42.37775286451975,84.72741761513323L43.13902986208598,81.11960849340181L43.30051286156972,85.52991551689341L43.43892686112722,84.04671486336477L43.761892860094704,83.7993708468833L43.85416885979971,82.540685189754L44.015651859283444,81.40007369801505L44.06178985913595,79.7977632846619L44.24634185854594,81.89563321155067L44.56930785751343,84.23192100942887L44.592376857439675,85.98678238817699L44.82306685670216,89.73662050503471L44.89227385648091,93.50517580517473L45.099894855817155,95.18975405752903L45.28444685522715,96.24895135476626L45.492067854563395,93.2806266460379L45.51513685448964,99.08792749641206L45.65355085404714,101.43011937001117L45.67661985397339,95.53765663981555L45.79196485360463,97.32434689473311L46.20720685227712,88.6243911166603L46.27641385205587,95.80747167623488L46.48403485139211,98.36670893407866L47.17610484917959,101.23627314427185L47.47600184822083,100.16743087907494L47.61441584777832,96.50652576467236L47.68362284755706,96.89900669864585L47.729760847409565,102.61783488154632L47.82203684711456,100.0766823682238L47.96045084667205,100.38987118679042L48.0757958463033,103.74371516532348L48.306485845565796,101.54756672545403L48.44489984512329,96.54369829964703L48.560244844754536,95.61828486023659L48.79093484401702,96.31796356720807L49.75983284091949,103.39247813520907L49.852108840624496,103.2068738535328L49.87517784055074,108.71676479549541L49.898246840476986,106.43283597868486L50.31348883914947,108.79202466944324L50.61338583819071,112.7217381372311L50.913282837231954,114.05804699919406L51.51307683531443,116.09971728558925L51.78990483442942,109.70214421993786L52.04366383361816,114.74053287724166L52.11287083339691,115.6449584949865L52.18207783317566,105.89753092791138L52.643457831700644,109.02958258476092L52.781871831258144,105.65044771426999L52.94335483074188,104.45722563345198L53.08176883029938,107.51999222572724L53.45087282911936,113.47586457484734L53.52007982889811,109.8611070740113L53.77383882808685,113.10429439239502L53.8430458278656,115.59767475332454L53.91225282764435,114.9417370998274L53.9353218275706,116.5864977256673L55.04263382403056,118.00300858538068L55.11184082380931,115.75149833151438L55.18104782358805,118.67232139904571L55.2041168235143,118.30830145488149L55.711634821891785,122.06464363259062L55.98846282100678,121.76731419580778L56.219152820269265,123.0033651257772L56.31142881997426,122.21676206175013L56.88815381813049,121.62659310475664L56.91122281805674,121.70992674567252L57.16498181724548,125.26329312898531L57.34953381665547,120.54683773252738L57.44180981636047,122.96386475451102L57.48794781621297,126.77309773654213L58.22615581385295,126.10283979891067L58.31843181355794,126.45353724662152L58.89515681171417,128.39478464676387L59.264260810534154,133.02506027741273L59.28732981046041,128.7634448460674L59.63336480935415,126.50518432264185L59.72564080905914,122.0938947672542L60.094744807879124,125.1875615582019L60.11781380780538,123.69552866749225L60.625331806182864,123.97057950738414L60.74067680581411,126.53491133736276L60.85602180544535,126.47555354125991L60.9252288052241,130.06641165411202L61.04057380485535,127.6044083932582L61.10978080463409,127.87512908577744L61.386608803749084,129.97420180675397L61.57116080315908,128.5521595840188L61.732643802642826,124.71962742746362L61.894126802126564,127.44697598448552L62.10174780146281,128.45841334581553L62.1940238011678,128.70671807800747L62.24016180102031,129.6418360445194L62.286299800872804,127.75732432102315L62.355506800651554,130.88073352885613L62.51698980013529,132.6095201429279L62.724610799471535,134.21584288873615L62.95530079873403,134.37463215593132L63.04757679843903,128.337900971093L63.09371479829152,125.69479375054738L63.16292179807027,127.12433321442784L63.27826679770152,127.41182521672862L63.34747379748026,128.498310857209L63.370542797406515,127.89348318496648L63.8319227959315,129.0984766232459L64.03954379526775,130.22145395084536L64.17795779482523,126.2818042805968L64.33944079430898,128.20308534063219L64.36250979423524,128.009596000985L64.57013079357148,132.33337986132128L64.73161379305522,133.41274982267993L65.21606279150645,131.3996898610329L65.30833879121144,131.57325406387565L65.53902879047394,130.32989508507586L65.63130479017893,132.48881503049L65.83892578951517,127.93121446909687L66.13882278855641,133.14666493074543L66.20802978833517,133.15502104736092L66.34644378789265,135.68858163313453L66.39258178774516,135.49634792295276L67.17692778523764,133.89566330922884L67.31534178479512,131.17300835499486L67.70751478354137,135.71661253315358L67.93820478280385,137.1046326019956L68.00741178258261,136.64209093762764L68.0535497824351,133.28856780363887L68.46879178110758,133.2835545155598L68.79175778007507,131.5800357186962L68.83789577992758,130.04574942786195L69.25313777860005,130.74964195359405L69.34541377830506,135.85737297773017L69.52996577771505,135.6756039172596L69.92213877646128,136.87491957260679L70.06055277601878,132.0759350122902L70.61420877424875,129.98403618048343L70.91410577328999,135.06080850719255L70.98331277306875,132.32669958291112L71.006381772995,135.9501277037025L71.05251977284749,134.9997025943134L71.0986577727,135.0506253505417L71.19093377240499,135.28796189769463L71.28320977210998,136.54848223030405L71.44469277159372,138.0853684456356L71.79072777048748,135.78269205768385L72.57507376797994,138.34646865558423L72.66734976768494,138.76107184891157L72.82883276716868,141.00509186992818L73.03645376650492,141.69777178336943L73.3132817656199,141.62807225707695L73.5439717648824,141.27490567768308L73.59010976473489,138.41736559298488L73.63624776458741,135.16597312213736L73.75159276421866,131.52183783510353L73.8207997639974,134.92970913482154L74.00535176340739,137.09490032854038L74.09762776311238,135.81875144288094L74.55900776163736,135.21631925775324L74.67435276126861,135.67098654982814L74.69742176119486,138.5567304069751L74.74355976104736,137.87531599852315L74.81276676082611,137.57780683441882L74.90504276053112,139.6944742005238L74.92811176045736,140.46154579274136L75.0895947599411,141.18952611286417L75.15880175971985,141.1990551187242L75.27414675935108,140.57919773727423L75.71245775794984,141.04570460828612L75.94314775721232,140.67932215591438L76.08156175676982,140.25334630382952L76.2199757563273,142.59094725359898L76.31225175603231,142.02624790445464L76.5890797551473,140.5342430629982L76.61214875507355,142.74232459024196L77.18887375322977,141.03604952038683L77.39649475256603,141.1391633083286L78.20390974998473,141.2961483619978L78.226978749911,139.02611327097588L78.27311674976349,139.4829274113057L79.28815274651845,141.27662309466012L79.47270474592845,142.5707372457827L79.63418774541219,143.14654509071494L79.68032574526468,145.066310092344L79.72646374511719,144.485438998711L79.84180874474843,143.89873494496715L80.41853374290466,145.49710484374228L80.44160274283092,143.06604310414463L80.6722927420934,139.56362223303083L80.71843074194591,139.4460208368152L80.83377574157714,141.7536475270612L81.15674174054465,143.4202740678013L81.29515574010213,142.5961216912417L81.50277673943837,141.87004849998215L81.84881173833212,140.1622500944079L81.94108773803711,140.71552804440503L81.98722573788962,137.96108634543805L82.56395073604584,140.43812445005855L82.84077873516084,141.05523939806537L83.07146873442332,142.60635677814074L83.2098827339808,142.7113529117224L83.60205573272705,143.2468440594678L83.74046973228454,140.70584976994812L83.76353873221079,143.18286650363495L84.0865047311783,144.243718520728L84.22491873073578,146.01462108637105L84.34026373036701,146.75749084532782L84.87085072867075,146.37206104648567L85.0323337281545,145.51102404796993L85.14767872778575,144.4608031568671L85.44757572682698,141.08919343980702L85.60905872631074,141.8078722953257L85.95509372520446,142.60751999126768L86.23192172431946,144.77110259788526L86.30112872409822,144.15772898467574L86.6240947230657,143.31168373839407L87.43150972048443,143.7982811374173L87.45457872041067,144.20832944305906L87.47764772033692,143.45386925412433L87.8928897190094,144.71305231717253L88.23892471790313,144.99660469814543L89.34623671436309,146.10195761624658L89.55385771369934,147.0656117622272L89.76147871303557,147.48472631228853L89.89989271259307,145.63411167179194L90.38434171104431,146.93326191827492L90.4304797108968,143.928206358262L90.45354871082306,145.23962992824056L91.53779170735677,144.8365904777134L91.72234370676676,145.11126340670702L92.2529307050705,144.50834065576947L92.46055170440674,145.49577628961148L92.55282770411173,145.87552515768593L92.64510370381673,146.4851230028235L92.92193170293173,145.76652360706106L92.99113870271046,146.4023854750662L93.17569070212046,147.42460293391386L93.2448977018992,146.4954787522595L93.79855370012919,148.0552299172144L93.89082969983419,148.4378672811652L93.93696769968668,147.87316553405242L94.58289969762167,147.49073498695864L95.1134866959254,148.9217625557184L95.45952169481913,146.533561038799L95.64407369422912,146.16763650860653L95.75941869386037,146.3481803074723L95.87476369349162,146.43188359340806L96.01317769304912,145.0486955929914L96.38228169186911,145.43360925984862L96.7975236905416,145.4935616586315L96.82059269046783,146.4392438262463L96.98207568995157,146.89132706596718L97.05128268973033,147.24936049872545L97.60493868796031,146.99974400222453L97.67414568773906,147.09163119653232L97.8356286872228,148.25827391002656L97.90483568700155,148.0681132017999L97.9279046869278,147.47356689984082L97.9740426867803,148.9086392718932L97.99711168670653,149.28419096707538L98.57383668486277,149.59715136506L98.78145768419901,147.6126100759992L99.335113682429,147.41195576611744L99.51966568183899,147.8272221634649L99.84263168080649,147.7542144214347L99.86570068073273,148.84081455172262L100.25787367947898,147.87141751692306L100.92687467734018,148.87740960821424L100.9730126771927,146.97458514055867L101.20370267645518,148.71759976237988L101.59587567520141,149.79980701480778L101.71122067483266,150.53375406189332L102.21873867321015,150.0539844778667L102.40329067262014,147.4003639485166L102.65704967180888,147.09189547814546L102.70318767166138,147.8521279626604L102.86467067114512,148.20309209591625L103.00308467070262,147.81779413598485L103.16456767018636,149.0906782477132L103.30298166974384,149.5717300505714L103.3721886695226,148.95856493752882L103.76436166826885,149.085043650807L104.04118966738383,149.54442981314065L104.11039666716258,148.54783164321202L104.27187966664631,147.9604003272015L104.64098366546631,147.06064944622008L104.6871216653188,147.07609766943997L104.8255356648763,146.4886358963696L104.9178116645813,146.76049409265642L105.28691566340129,145.84641167606753L105.67908866214752,147.34276782394315L106.14046866067251,148.6625308424858L106.555710659345,149.2762655844672L106.60184865919749,148.1241119647246L106.64798665904998,148.90948750663492L106.71719365882873,146.86672195764373L106.78640065860748,146.8894818934725L107.17857365735372,148.80268454217068L107.43233265654246,149.7730106978179L107.75529865550995,150.41615248741473L108.44736865329742,150.36796936352354L108.49350665314994,150.76007917537834L109.0471626513799,148.88186308855813L109.1394386510849,148.1564976078153L109.1855766509374,148.53550375942655L109.3239906504949,149.07626435428787L109.39319765027363,150.2165709338182L109.43933565012614,150.35507919755005L109.64695664946238,150.73689289117084L109.80843964894612,149.44278096119294L110.10833664798736,150.16063637072156L110.29288864739735,150.31462569657822L110.5927856464386,149.09326534272378L110.6389236462911,150.3911006946284L110.70813064606983,148.62107083552647L111.07723464488983,149.71683953175338L111.19257964452108,150.0329540347486L111.23871764437357,147.56931932093076L111.46940764363607,146.83411638007289L111.56168364334107,148.42544684085618L112.23068464120229,148.56358250343433L112.34602964083354,149.27561488260534L112.50751264031727,149.29441925148387L113.52254863707225,150.5785180018871L113.70710063648224,150.8370199937762L113.86858363596598,151.02044600646875L113.96085963567099,150.88227839030694L114.21461863485973,151.38224762487405L114.35303263441722,151.65713716283287L114.49144663397472,150.6597315952137L114.99896463235218,149.9955264369386L115.25272363154093,150.78172108077655L115.36806863117218,150.0208644193667L115.57568963050842,150.47845811397008L115.59875863043466,148.65764784478847L115.87558662954966,148.78180556180308L116.12934562873839,149.92554111694614L116.19855262851715,149.70834472238224L116.42924262777963,150.38398603506485L117.51348562431335,151.21773553103998L117.6288306239446,151.37652963670251L117.65189962387085,149.80894165542378L117.88258962313334,149.68376170470444L119.56662661774953,150.1024955046362L119.82038561693828,150.80164813464705L119.84345461686452,151.38561963342292L119.88959261671701,151.46044276115455L119.93573061656953,151.11467693494274L120.00493761634827,151.55227286452532L120.02800661627451,151.53919527423062L120.60473161443073,151.52941405628795L120.720076614062,151.72166829541493L120.78928361384074,151.03578528411927L120.97383561325073,151.07326497437774L121.22759461243947,150.11075767667555L121.43521561177572,150.87268551195132L121.50442261155446,150.6166045466042L121.52749161148071,151.1056160947098L121.87352661037444,151.38195443156096L122.24263060919444,151.57441559283498L122.38104460875194,151.41471777578514L122.47332060845693,151.6116614517864L122.68094160779317,151.6334964771494L122.72707960764568,151.59700812371935L122.9347006069819,151.8748372423489L123.02697660668692,150.38476739102157L123.28073560587566,148.95211006270907L123.88052960395814,149.0045379403843L124.08815060329437,150.49889360485324L124.43418560218811,150.75569443327868L124.59566860167186,149.87552545654154L124.73408260122935,150.71285280530208L124.82635860093436,150.4935023775432L124.8494276008606,150.46282126825744L125.28773859945933,150.08481639727057L125.35694559923807,150.60481881380386L126.18742959658304,150.23055901275168L126.32584359614054,150.99975866951482L126.67187859503429,150.54108202512L126.71801659488678,151.24060319459608L127.11018959363301,150.14783596493785L127.13325859355926,149.45025791221596L127.571569592158,150.7205720461648L127.59463859208424,151.42700703437254L127.663845591863,151.2644974028852L127.87146659119924,150.845150675099L128.12522559038797,151.52581606887293L128.7019505885442,151.11358286169994L128.77115758832295,151.4598329564668L129.0249165875117,151.55570752161978L129.09412358729045,151.7310457464014L129.14026158714296,151.27148598982777L129.18639958699544,151.3126246102616L129.46322758611043,151.78871257755358L129.85540058485668,151.1277368898438L130.3398495833079,151.18826813670123L130.50133258279163,151.70835332829452L130.68588458220165,151.47045742367715L130.77816058190663,151.7838063947485L130.93964358139038,151.64692626741189L130.96271258131662,152.00830520278967L130.9857815812429,152.30829798044485L131.21647158050536,152.37280008283358L131.81626557858786,152.35771601654235L131.9316105782191,152.58984528441033L132.3007145770391,152.20925942835856L132.55447357622782,150.2220472965262L132.64674957593283,149.92482445309804L132.66981857585907,150.83591582641577L132.85437057526906,151.63947892321056L132.99278457482654,152.10035223019858L133.06199157460532,151.52237459229977L133.26961257394154,152.1677941409087L133.36188857364655,151.24965033818762L133.52337157313028,151.2439623559757L133.54644057305654,151.2304826149318L133.68485457261403,151.96740782351793L133.82326857217151,152.10793127971962L133.86940657202402,152.43805652888648L133.9386135718028,152.4943652127385L134.7460285692215,150.9904863620784L135.0228565683365,151.67330193901148L135.46116756693522,150.16382995494163L135.50730556678772,150.86900979219664L135.99175456523895,151.35515758271254L136.45313456376394,152.10247213663385L137.0067905619939,152.38191698377048L137.07599756177265,151.58932065076047L137.37589456081392,151.68076171220434L137.5604465602239,151.33320791060402L137.76806755956014,151.94204175763227L137.83727455933888,151.52186020174224L137.88341255919138,152.0809030216761L137.90648155911762,151.11372211263318L138.9215175558726,150.39095196263048L139.0599315554301,151.03254416805618L139.12913855520887,151.56955903820744L139.2906215546926,151.9704191612731L139.59051855373383,151.77289720791765L139.6366565535863,152.2405285307852L139.65972555351257,152.39615819583537L139.82120855299632,151.77963164514426L140.2364505516688,152.21265980373622L140.7670375499725,152.66220775063078L140.8823825496038,152.40287716773125L141.34376254812875,152.45463122281905L141.38990054798128,151.90413712812273L141.52831454753874,152.30245514593057L142.12810854562122,152.50511447862266L142.2434535452525,152.138035786418L142.6356265439987,152.097628549642L143.05086854267122,151.71231397262505L143.2354205420812,152.0263654016747L143.76600754038492,152.48064083597L143.85828354008993,152.67358337610548L143.95055953979494,152.68253200984142L143.97362853972118,152.30461163491162L144.57342253780365,152.54714518827595L145.10400953610738,152.76441538298775L145.7730105339686,152.84885645467102L146.02676953315733,152.78265400595456L146.39587353197734,152.8184598001036L146.71883953094482,153.01386201149276L146.7419085308711,152.43936472760143L147.20328852939605,152.6267323935494L147.75694452762602,152.82482258472416L148.12604852644603,152.7001184441261L148.56435952504475,152.10840572756993L148.63356652482352,152.3412478770875L148.74891152445474,152.55249385029578L149.60246452172598,152.65283453009195L149.76394752120973,152.78128818051505L149.8562235209147,152.34903291511088L149.9946375204722,152.54893208314513L150.1330515200297,152.36511262239003L150.24839651966093,152.79659380172032L150.3176035194397,152.4065075054702L150.3637415192922,152.70188358614033L150.91739751752218,151.82934894995182L151.10194951693217,152.26478488335115L151.4941225156784,152.70387638166133L151.60946751530963,152.93435824494966L151.65560551516214,152.56697985560086L151.93243351427714,152.1377933889707L151.97857151412964,152.49568046506025L152.11698551368713,152.74924836388408L152.39381351280213,152.58735381069056L152.50915851243337,152.72327287363416L152.73984851169584,152.86470676129593L152.97053851095833,152.98593207255695L153.61647050889331,153.0207612497712L153.66260850874585,152.685337241301L153.75488450845083,152.85484314033513L154.10091950734457,152.90900085205521L155.0467485043208,153.0278434592865L155.11595550409953,152.92048994374073L155.53119750277202,152.95493831533193L155.9464395014445,152.92504645017195L156.33861250019072,152.90929724987635L156.40781949996946,152.96090270308912L156.52316449960074,153.01078547911666L156.63850949923196,152.88295210855355L157.05375149790447,152.42918528073275L157.0768204978307,152.75630244407293L157.46899349657693,152.77003595949296L157.5382004963557,152.975368892996L157.69968349583942,153.0301351568604L158.32254649384817,152.89416828231234L158.36868449370067,152.89879375992982L158.5301674931844,152.94736446412682L158.9454094918569,152.3199188552505L159.15303049119314,152.61816338447645L159.36065149052936,152.45915533023722L159.5913414897919,152.81071645378205L159.84510048898062,152.84462720574885L159.9373764886856,152.5305448308053L159.96044548861184,152.75370977856957L160.3987564872106,152.80373144153512L160.51410148684184,152.916541348359L160.56023948669431,153.10588498017142L160.65251548639935,153.08176152449886L160.86013648573555,153.0626057322853L161.27537848440807,153.1390598942095L161.73675848293306,153.17620546649815L161.8521034825643,153.0413327857745L162.05972448190053,153.1938837305909L162.19813848145802,153.02589297231748L162.22120748138425,151.39862368058644L162.3134834810893,151.97418907731242L162.38269048086804,152.41006387945603L162.8902084792455,152.74190666973854L163.305450477918,152.96408593124548L163.397726477623,153.0123101582909L163.51307147725424,153.0712026698016L163.88217547607422,153.10130369682204L163.9283134759267,151.5880653796044L164.1590034751892,152.17454545880292L164.2974174747467,152.49965809480926L164.3435554745992,152.82980875814275L164.48196947415667,152.9182012080682L164.5281074740092,153.03757638230655L164.5742454738617,153.06323856586667L164.85107347297668,152.39082521898433L164.89721147282918,152.08521592129983L164.9433494726817,152.63925874352327L165.47393647098542,152.76122484476943L165.68155747032168,152.93648942604557L165.7507644701004,153.17184015853547L166.11986846892037,153.1949691069694L166.37362746810913,153.2756635648784L166.4197654679616,153.34820909810622L166.55817946751912,153.37079012333115L166.85807646656036,153.39226164722155L166.9734214661916,153.39908931522368L167.13490446567536,153.31727344455226L167.27331846523285,153.2480751442194L167.57321546427409,153.30434462345772L168.1730094623566,153.2896475900082L168.70359646066032,153.20831716697393L168.7958724603653,153.1306162090149L168.81894146029154,153.19786441588724L168.9804244597753,153.1538837752555L169.37259745852154,153.1959958884564L169.62635645771027,153.1806938434686L169.880115456899,153.15736695803201L170.04159845638273,153.18430027189459L170.18001245594024,152.73758148527034L170.73366845417024,152.7345907740508L172.0024634501139,152.99693238994976L172.09473944981895,153.212879782534L172.39463644886018,153.3152540481809L172.7406714477539,153.2142254774115L172.92522344716392,153.24405177221186L172.94829244709015,153.15191459430477L173.04056844679513,152.90662485528318L173.27125844605763,153.03482652971212L173.50194844532012,153.1712866023846L173.5250174452464,153.16838919733863L173.54808644517263,153.2589953546676L173.73263844458265,153.3181663953923L174.1940184431076,152.32436089504705L174.74767444133758,152.7498313182485L174.90915744082133,152.82564210100654L174.97836444060007,152.919168533263L175.20905443986257,153.1052586219778L175.41667543919883,153.25788399617028L175.48588243897757,153.30812776750602L175.71657243824006,153.25081215278854L175.83191743787128,153.06133980148L176.66240143521625,153.22155787900087L176.8700224345525,153.26391177295673L176.91616043440501,153.3152201282222L177.00843643411,153.05400491542167L177.1468504336675,153.19517213184474L177.21605743344625,153.23182412392913L177.37754043293,153.17618588867867L177.56209243233997,153.2706498842637L177.63129943211874,153.3297738306174L177.81585143152873,153.33529022314622L177.90812743123374,153.38866681187693L178.00040343093872,153.00557757223723L178.53099042924245,153.1235866237564L178.62326642894746,153.11473583355496L178.7847494284312,152.78841355215422L178.8770254281362,153.0461271454677L179.13078442732493,153.20835995383413L179.40761242643993,153.2945020394819L179.7767164252599,153.17937069828008L180.35344142341611,153.2475273934178L180.69947642230989,153.15673027173688L181.02244242127736,153.24811392143923L181.20699442068735,153.2833629689031L181.39154642009734,153.32276188805596L181.52996041965486,153.08191343986863L181.55302941958112,153.03835026866147L182.15282341766357,153.19886135591966L182.47578941663107,153.19502612667983L183.05251441478728,153.25425734709165L183.44468741353353,153.1845202198718L183.7215154126485,153.1089427675707L183.79072241242727,152.8448034121237L183.92913641198476,152.968830959678L184.34437841065727,153.1691095101731L184.39051641050975,153.0903664048027L184.80575840918223,153.0688658074517L184.89803440888724,153.16801681927245L185.38248340733844,153.09729031713724L185.47475940704348,153.25257537769343L185.6362424065272,153.24713718814303L185.93613940556844,153.36427568695822L186.07455340512595,153.34263294428163L186.39751940409343,153.37434556931808L186.67434740320843,153.3430132602529L187.02038240210214,153.3835603139691L187.20493440151216,153.34369288487713L187.2280034014384,152.99632344630714L187.7355213998159,153.17397189405196L187.82779739952088,152.7874394567678L188.15076339848835,153.0024440746466L188.42759139760335,153.07563472703754L188.4506603975296,153.09159280829707L188.61214339701334,153.24644331801645L188.93510939598085,153.2884912296919L189.07352339553833,153.29122427593921L189.23500639502208,153.1229570741724L189.28114439487456,153.20107459138774L189.48876539421082,153.2840420750107L189.53490339406332,153.27545602066377L189.55797239398956,153.27984370419983L189.9962833925883,153.3153739735089L190.06549039236705,153.26677623415324L190.27311139170328,152.9752822089899L190.57300839074452,153.08339946478344L191.12666438897452,153.26795934154052L191.4957683877945,152.95795196194322L191.74952738698323,152.6771406344899L192.16476938565575,152.9451089584952L192.3954593849182,153.09717977836812L192.41852838484448,153.03930240729994L192.55694238440196,153.13315993616226L192.71842538388572,153.28244719142256L192.8107013835907,152.6803311848608L192.83377038351693,152.91966161545773L192.8568393834432,153.15140013992806L193.36435738182067,153.27237801762774L193.38742638174693,153.35744374429575L193.47970238145192,153.2474873293393L193.52584038130442,153.28319639283862L193.73346138064065,153.331212988759L193.82573738034569,153.32318895824955L194.4947383782069,153.3499489226161L194.51780737813314,153.4014151107688L194.7254283774694,153.26732076798976L194.7946353772481,153.35587504888105L194.9561183767319,153.38468613007356L195.18680837599436,153.35074187724896L195.20987737592063,153.34727641421006L195.25601537577313,153.40418344332593L195.37136037540435,153.4750360213399L195.50977437496186,153.24287556440302L195.60205037466685,153.32151790718987L195.64818837451935,153.33548739729747L196.01729237333933,152.67970153309264L196.15570637289684,152.96712278297082L196.17877537282308,153.0998604871068L196.36332737223307,153.21412605334626L196.8016383708318,153.12074314816928L197.19381136957804,153.26001394340113L197.79360536766052,153.003025346742L198.32419236596425,153.19166130819113L198.6240893650055,153.26410606879594L198.69329636478423,153.2293656080783L199.40843536249798,153.30568165349942L199.43150436242422,153.33358192229375L199.8006083612442,153.4204976147138L199.82367736117044,153.4168265366617L200.05436736043293,153.42943956169972L200.12357436021168,152.48468379452163L200.16971236006418,152.8243584987892L200.42347135925291,153.02965410122124L200.56188535881043,153.22726157907528L200.63109235858917,153.32034043011882L200.72336835829415,153.40296315225774L201.13861035696667,153.39061916986574L201.1616793568929,153.41698145707102L201.25395535659788,153.46109852144974L201.32316235637663,153.43591910014604L201.36930035622916,153.37685019148932L201.69226635519664,153.35597326313007L201.78454235490162,153.38992928750207L202.03830135409038,153.44075501230995L202.10750835386912,153.4738634995538L202.5688883523941,153.4085782606988L202.7534403518041,153.40150076046274L202.98413035106657,153.3841387475188L203.00719935099283,153.22156986601053L203.26095835018157,153.25902786715704L203.7915453484853,153.34292614861909L203.90689034811658,153.23726924172612L204.2990633468628,152.39738816371946L205.31409934361776,152.70530640931216L205.33716834354402,152.83432899000962L205.429444343249,153.09797277001974L205.52172034295398,153.26820252934746L205.9369623416265,153.31410950821692L206.07537634118395,153.33860513445296L207.0673433380127,153.19021286728295L207.2518953374227,153.2615033445128L207.43644733683269,153.3148135919652L207.45951633675892,153.39442094464738L207.85168933550517,153.4328302938045L208.1515863345464,153.1253499053781L208.2438623342514,153.2957342830886L208.49762133344015,153.39909555737026L208.77444933255512,153.40499032239367L208.84365633233386,153.38586397729338L208.8897943321864,152.44135259951616L208.98207033189138,152.86500099211034L209.1666223313014,153.1130594048244L210.5507623268763,153.26883746657361L210.68917632643382,153.3574299559533L210.71224532636006,153.05830914083822L211.10441832510628,153.0668340437703L211.26590132459003,153.0868819097483L211.7964883228938,153.26516608568178L211.88876432259877,153.33589724009525L212.1425233217875,153.29326935322018L212.21173032156625,153.3673487429565L212.6039033203125,153.41868076474435L212.74231731986998,153.4663894416407L213.04221431891122,153.49873322228956L213.5035943174362,153.40838291642953L213.71121531677247,153.33399695364096L214.08031931559245,153.3723549138722L214.12645731544492,153.28716252180786L214.33407831478118,153.40563585970733L214.54169931411744,153.4722810235037L214.7262513135274,153.31972301365548L215.18763131205242,153.34294475718292L215.2337693119049,153.41286580015992L215.30297631168366,153.41518713183333L215.34911431153617,153.45090974372164L215.48752831109366,153.40025824144874L215.76435631020863,153.37284889982806L215.7874253101349,153.41278492460356L215.94890830961864,153.47177149128197L216.0181153093974,153.3482781226218L216.13346030902864,153.39652655290485L216.29494330851236,153.37483097128177L216.34108130836486,153.35137816320724L217.51760030460358,153.3275745333585L217.7713593037923,153.3210896366874L217.84056630357108,153.35626885655373L217.9559113032023,153.23211747784552L218.32501530202228,153.28574996789385L218.41729130172732,153.36725920036838L218.44036030165356,153.35467425773646L218.48649830150603,153.41012967964892L218.71718830076856,153.42390554211707L218.80946430047354,153.41534534745247L218.90174030017852,153.39841699436656L219.10936129951477,153.47542035399252L219.132430299441,153.47967115416986L219.2477752990723,153.4988295920585L219.34005129877727,153.38229346436444L219.3631202987035,153.41484196599603L219.70915529759725,153.01488403649606L220.42429429531097,153.13405322514936L220.70112229442597,153.2517521640231L220.8626052939097,153.31217057294552L220.97795029354097,153.40610139905863L221.30091629250845,153.26870876243467L221.5085372918447,153.14143253196502L221.85457229073842,152.7731000683947L222.10833128992718,152.84812089676475L222.2698142894109,153.0812731636408L222.29288328933717,153.1952852552101L222.5005042886734,153.3262131379099L223.37712628587084,153.40380672323076L223.44633328564962,153.4134535098512L223.49247128550212,153.2556159281715L223.56167828528086,153.3114905213559L223.5847472852071,153.38706699487855L223.6770232849121,152.8932614507357L224.41523128255207,153.0185170708442L224.73819728151958,153.1569699612746L225.36106027952832,153.27207671243502L225.4994742790858,153.34980068665467L225.59175027879078,153.39068133089575L226.00699227746327,152.75182104977807L226.12233727709452,153.0216423433611L226.4683722759883,153.17687686109593L226.537579275767,153.29387004968132L226.60678627554574,153.34735750303645L227.091235273997,153.33249878426423L227.34499427318573,153.38350787873563L227.64489127222697,153.35842684459942L227.66796027215324,153.180380708052L227.89865027141573,153.302948872647L227.96785727119445,153.38607096338728L228.06013327089946,153.40295443179804L228.4523062696457,153.40183666246546L228.4984442694982,153.4214841579914L228.56765126927692,153.35514071473673L229.05210026772818,153.41630567199266L229.09823826758068,153.38283749037058L229.2135832672119,153.44277293472643L229.46734226640064,153.41813148701198L229.65189426581065,153.3638493269556L229.74417026551563,153.39444554660193L230.13634326426188,153.42437776031363L230.27475726381937,153.4289284448647L230.50544726308186,153.4415499287879L230.55158526293437,153.4342820217691L230.68999926249188,153.45176371522604L230.8053442621231,153.2857963205517L230.92068926175435,153.38113953953336L230.98989626153312,153.42180451448263L231.33593126042683,153.44184841218706L231.3590002603531,153.47114434684957L231.9818632583618,153.27290220815595L232.1664152577718,153.38300101441484L232.3971052570343,153.17850050182338L232.65086425622306,153.229182918428L233.13531325467426,153.27342814562536L233.5274862534205,153.35154956536445L233.55055525334677,153.19341505936924L234.28876325098676,153.20571975350146L234.311832250913,153.11751677967882L234.45024625047049,153.28440964992532L235.64983424663544,153.32580194500073L235.69597224648794,150.2240699233955L235.85745524597166,151.55926275498945L235.9266622457504,152.35461633848732L236.08814524523416,152.76368812322227L236.7110082432429,153.0285699585678L237.19545724169413,153.15309387038053L237.42614724095662,153.22461727852968L237.7952512397766,153.31412238198834L237.8413892396291,153.28311062158875L237.88752723948159,153.2815637821934L238.00287223911286,153.34958843519829L238.74108023675285,153.4369524097313L238.85642523638407,153.35620562615168L239.11018423557283,153.41867827857985L239.13325323549907,153.44577666194297L239.1563222354253,153.4729150349559L239.22552923520405,153.40953346248284L239.59463323402406,153.4326348688995L240.21749623203277,153.3645363204867L240.28670323181152,153.39946408502027L240.7480832303365,153.4270538766519L240.886497229894,153.41031645955607L240.90956622982023,153.43673948997625L241.5093602279027,153.39842272278432L241.67084322738648,153.38024838396422L241.83232622687024,153.3397040617658L242.59360322443644,153.42804022592875L242.6628102242152,153.4100707523404L243.10112122281393,153.42607285486798L243.12419022274017,153.47083307088275L243.33181122207642,153.51645795157077L243.49329422156018,153.51495530134858L243.56250122133892,153.42859349880473L243.72398422082264,153.4624878847235L243.79319122060141,153.4773220310186L244.23150221920014,153.41445570576684L244.30070921897888,153.44604042430626L244.5544682181676,153.40932151494647L244.80822721735635,153.34604246782902L245.03891721661884,153.24401338092193L245.08505521647135,153.24380065116088L245.10812421639758,153.35764229696585L245.17733121617636,153.3734349822326L245.73098721440635,153.4086474840961L245.84633221403757,153.2935110048222L245.8694012139638,153.3282309471889L245.96167721366882,153.3834094758288L246.39998821226757,153.4449335374178L246.4230572121938,153.37804614444013L246.63067821153007,153.44671551377166L246.81523021094003,153.36429128321535L247.09205821005503,153.10928500113482L247.94561120732627,153.24006541821723L248.014818207105,153.3122104167644L248.22243920644124,153.3640735877379L248.2455082063675,153.38132221241608L248.383922205925,153.27544918341852L248.43006020577747,153.23757012987738L248.63768120511372,153.33005150625127L249.44509620253245,153.33905815068806L249.56044120216367,153.41454554164764L250.09102820046743,153.27684893457715L250.16023520024615,153.1450938607491L250.22944220002492,153.30340144757025L250.43706319936115,153.37433251769082L251.08299519729616,153.43078556317255L251.63665119552613,153.44010977358823L251.86734119478862,153.38814177142748L253.13613619073232,153.41010978510135L253.27455019028983,153.4624193773494L253.3668261899948,153.42915721231432L253.43603318977355,153.41165383746386L253.6897921889623,153.4360930126885L253.75899918874103,153.431074873452" fill="none"></path></g></g></g></g><g opacity="0.2"><g><g><g><path style="fill: none;" stroke="rgb(0, 119, 187)" stroke-width="2px" d="M33.70380889225006,-0.0013400268508121371L33.77301589202881,2.937904180807891L33.79608489195506,13.361282101930556L34.02677489121755,5.286112795580266L34.46508588981629,10.43254872988291L34.949534888267515,16.22900237642716L35.341707887013754,21.525102559629886L35.457052886644995,15.19917080365849L36.07991588465372,32.452916838405145L36.31060588391622,47.58921106967318L36.44901988347371,49.3399352123397L36.61050288295746,42.26034304238419L36.63357188288371,41.35762557916678L37.39484888044993,51.45631918192157L37.44098688030243,41.883167359719664L37.717814879417425,42.410551677192416L37.87929787890116,54.88404505254039L37.90236687882741,43.99525905579503L37.94850487867991,40.94611170845019L38.01771187845866,50.612416334703084L38.06384987831116,62.23505547354398L38.34067787742615,47.17011767208169L38.57136787668864,52.42741989036949L39.563334873517356,61.25306704693321L39.74788687292735,54.91004994861396L39.932438872337336,65.55903395282257L40.14005987167358,56.12329769658754L40.43995687071482,76.34493101292901L40.53223287041982,67.53387758628742L40.73985386975606,84.6291026321669L40.832129869461056,69.95069976340528L40.87826786931356,64.15818244573529L40.92440586916606,76.75152447255277L41.0858888686498,77.86100389126659L41.20123386828105,73.43322016947059L41.24737186813354,72.72574880600041L41.36271686776479,72.17340648843128L41.40885486761729,86.35572722943834L41.50113086732229,88.30890011617521L41.593406867027284,70.84535612759828L41.731820866584776,86.8146864258415L41.75488986651103,88.49313287024233L42.285476864814754,78.62563577509172L42.37775286451975,88.84981032967335L43.13902986208598,75.70789481080465L43.30051286156972,92.14537605213081L43.43892686112722,81.82191388307183L43.761892860094704,83.42835482216105L43.85416885979971,80.65265670406006L44.015651859283444,79.6891564604066L44.06178985913595,77.39429766463218L44.24634185854594,85.04243810188382L44.56930785751343,87.73635270624618L44.592376857439675,88.61907445629913L44.82306685670216,95.36137768032131L44.89227385648091,99.1580087553848L45.099894855817155,97.71662143606045L45.28444685522715,97.83774730062214L45.492067854563395,88.82813958294537L45.51513685448964,107.79887877197325L45.65355085404714,104.94340718040985L45.67661985397339,86.69896254452215L45.79196485360463,100.00438227710947L46.20720685227712,75.57445744955112L46.27641385205587,106.58209251559674L46.48403485139211,102.2055648208443L47.17610484917959,105.54061945956164L47.47600184822083,98.56416748127958L47.61441584777832,91.0151680930685L47.68362284755706,97.4877280996061L47.729760847409565,111.196077155897L47.82203684711456,96.26495359824003L47.96045084667205,100.85965441464032L48.0757958463033,108.77448113312312L48.306485845565796,98.2533440656498L48.44489984512329,89.03789566093656L48.560244844754536,94.23016470112088L48.79093484401702,97.36748162766526L49.75983284091949,114.00424998721064L49.852108840624496,102.92846743101836L49.87517784055074,116.98160120843932L49.898246840476986,103.00694275346905L50.31348883914947,112.33080770558081L50.61338583819071,118.61630833891286L50.913282837231954,116.06251029213854L51.51307683531443,119.162222715182L51.78990483442942,100.10578462146077L52.04366383361816,122.29811586319738L52.11287083339691,117.00159692160378L52.18207783317566,91.27638957729869L52.643457831700644,113.7276600700352L52.781871831258144,100.5817454085336L52.94335483074188,102.66739251222498L53.08176883029938,112.11414211414012L53.45087282911936,122.40967309852749L53.52007982889811,104.43897082275726L53.77383882808685,117.9690753699706L53.8430458278656,119.33774529471884L53.91225282764435,113.95783061958173L53.9353218275706,119.05363866442713L55.04263382403056,120.12777487495077L55.11184082380931,112.37423295071494L55.18104782358805,123.05355600034272L55.2041168235143,117.7622715386351L55.711634821891785,127.69915689915433L55.98846282100678,121.32132004063351L56.219152820269265,124.8574415207313L56.31142881997426,121.03685746570955L56.88815381813049,120.74133966926638L56.91122281805674,121.83492720704635L57.16498181724548,130.59334270395448L57.34953381665547,113.4721546378405L57.44180981636047,126.58940528748644L57.48794781621297,132.48694720958883L58.22615581385295,125.09745289246348L58.31843181355794,126.97958341818776L58.89515681171417,131.3066557469774L59.264260810534154,139.97047372338602L59.28732981046041,122.37102169904938L59.63336480935415,123.11779353750353L59.72564080905914,115.47696043417272L60.094744807879124,129.82806174462348L60.11781380780538,121.45747933142775L60.625331806182864,124.38315576722198L60.74067680581411,130.38140908233072L60.85602180544535,126.38651684710567L60.9252288052241,135.45269882339016L61.04057380485535,123.91140350197747L61.10978080463409,128.2812101245563L61.386608803749084,133.12281088821874L61.57116080315908,126.41909624991604L61.732643802642826,118.97082919263084L61.894126802126564,131.5379988200184L62.10174780146281,129.97556938781054L62.1940238011678,129.0791751762954L62.24016180102031,131.0445129942873L62.286299800872804,124.93055673577874L62.355506800651554,135.56584734060561L62.51698980013529,135.20270006403553L62.724610799471535,136.6253270074485L62.95530079873403,134.6128160567241L63.04757679843903,119.28280419383555L63.09371479829152,121.73013291972893L63.16292179807027,129.2686424102485L63.27826679770152,127.84306322017983L63.34747379748026,130.1280393179295L63.370542797406515,126.98624167660273L63.8319227959315,130.90596678066504L64.03954379526775,131.9059199422445L64.17795779482523,120.37232977522399L64.33944079430898,131.08500693068527L64.36250979423524,127.71936199151423L64.57013079357148,138.8190556518257L64.73161379305522,135.0318047647179L65.21606279150645,128.38009991856234L65.30833879121144,131.83360036813974L65.53902879047394,128.4648566168762L65.63130479017893,135.7271949486112L65.83892578951517,121.09481362700717L66.13882278855641,140.96984062321826L66.20802978833517,133.16755522228414L66.34644378789265,139.48892251179495L66.39258178774516,135.20799735768014L67.17692778523764,131.4946363886429L67.31534178479512,127.08902592364393L67.70751478354137,142.5320188003916L67.93820478280385,139.18666270525864L68.00741178258261,135.94827844107567L68.0535497824351,128.2582831026557L68.46879178110758,133.2760345834413L68.79175778007507,129.0247575234007L68.83789577992758,127.74431999161061L69.25313777860005,131.80548074219223L69.34541377830506,143.51896951393428L69.52996577771505,135.40295032655376L69.92213877646128,138.67389305562756L70.06055277601878,124.8774581718153L70.61420877424875,126.84618793277332L70.91410577328999,142.67596699725618L70.98331277306875,128.22553619648897L71.006381772995,141.38526988488957L71.05251977284749,133.57406493022972L71.0986577727,135.12700948488418L71.19093377240499,135.64396671842405L71.28320977210998,138.43926272921817L71.44469277159372,140.3906977686329L71.79072777048748,132.3286774757562L72.57507376797994,142.19213355243483L72.66734976768494,139.38297663890262L72.82883276716868,144.37112190145308L73.03645376650492,142.73679165353133L73.3132817656199,141.5235229676382L73.5439717648824,140.74515580859224L73.59010976473489,134.1310554659376L73.63624776458741,130.28888441586605L73.75159276421866,126.05563490455279L73.8207997639974,140.0415160843986L74.00535176340739,140.34268711911864L74.09762776311238,133.90452811439172L74.55900776163736,134.31267098006174L74.67435276126861,136.35298748794048L74.69742176119486,142.88534619269558L74.74355976104736,136.8531943858452L74.81276676082611,137.13154308826233L74.90504276053112,142.86947524968127L74.92811176045736,141.6121531810677L75.0895947599411,142.28149659304836L75.15880175971985,141.21334862751428L75.27414675935108,139.64941166509925L75.71245775794984,141.74546491480396L75.94314775721232,140.12974847735677L76.08156175676982,139.61438252570224L76.2199757563273,146.09734867825318L76.31225175603231,141.1791988807381L76.5890797551473,138.29623580081352L76.61214875507355,146.05444688110765L77.18887375322977,138.4766369156041L77.39649475256603,141.29383399024118L78.20390974998473,141.5316259425017L78.226978749911,135.62106063444298L78.27311674976349,140.16814862180036L79.28815274651845,143.96716661969185L79.47270474592845,144.51190847246653L79.63418774541219,144.01025685811328L79.68032574526468,147.94595759478761L79.72646374511719,143.6141323582615L79.84180874474843,143.0186788643514L80.41853374290466,147.89465969190496L80.44160274283092,139.41945049474816L80.6722927420934,134.30999092636011L80.71843074194591,139.26961874249173L80.83377574157714,145.2150875624302L81.15674174054465,145.92021387891145L81.29515574010213,141.3598931264023L81.50277673943837,140.78093871309284L81.84881173833212,137.60055248604658L81.94108773803711,141.5454449694007L81.98722573788962,133.8294237969876L82.56395073604584,144.15368160698927L82.84077873516084,141.98091182007556L83.07146873442332,144.9330328482538L83.2098827339808,142.86884711209495L83.60205573272705,144.05008078108585L83.74046973228454,136.89435833566858L83.76353873221079,146.89839160416523L84.0865047311783,145.83499654636762L84.22491873073578,148.6709749348356L84.34026373036701,147.87179548376298L84.87085072867075,145.7939163482224L85.0323337281545,144.21946855019632L85.14767872778575,142.88547182021284L85.44757572682698,136.0317788642169L85.60905872631074,142.88589057860372L85.95509372520446,143.8069915351807L86.23192172431946,148.0164765078116L86.30112872409822,143.23766856486145L86.6240947230657,142.04261586897155L87.43150972048443,144.52817723595217L87.45457872041067,144.82340190152172L87.47764772033692,142.32217897072223L87.8928897190094,146.60182691174487L88.23892471790313,145.42193326960478L89.34623671436309,147.75998699339834L89.55385771369934,148.5110929811981L89.76147871303557,148.1133981373805L89.89989271259307,142.8581897110471L90.38434171104431,148.88198728799944L90.4304797108968,139.42062301824262L90.45354871082306,147.20676528320837L91.53779170735677,144.2320313019227L91.72234370676676,145.52327280019745L92.2529307050705,143.60395652936313L92.46055170440674,146.97692974037454L92.55282770411173,146.44514845979757L92.64510370381673,147.39951977052988L92.92193170293173,144.68862451341738L92.99113870271046,147.35617827707392L93.17569070212046,148.9579291221853L93.2448977018992,145.10179247977794L93.79855370012919,150.3948566646468L93.89082969983419,149.0118233270914L93.93696769968668,147.02611291338326L94.58289969762167,146.91708916631796L95.1134866959254,151.06830390885807L95.45952169481913,142.9512587634199L95.64407369422912,145.6187497133178L95.75941869386037,146.6189960057709L95.87476369349162,146.5574385223117L96.01317769304912,142.97391359236644L96.38228169186911,146.01097976013443L96.7975236905416,145.58349025680582L96.82059269046783,147.85776707766854L96.98207568995157,147.5694519255485L97.05128268973033,147.7864106478628L97.60493868796031,146.62531925747317L97.67414568773906,147.229461987994L97.8356286872228,150.00823798026795L97.90483568700155,147.78287213945987L97.9279046869278,146.58174744690223L97.9740426867803,151.06124782997176L97.99711168670653,149.84751850984867L98.57383668486277,150.0665919620369L98.78145768419901,144.63579814240802L99.335113682429,147.11097430129485L99.51966568183899,148.45012175948614L99.84263168080649,147.6447028083894L99.86570068073273,150.4707147471545L100.25787367947898,146.41732196472367L100.92687467734018,150.38639774515104L100.9730126771927,144.12034843907531L101.20370267645518,151.3321216951117L101.59587567520141,151.42311789344967L101.71122067483266,151.63467463252164L102.21873867321015,149.3343301018267L102.40329067262014,143.41993315449145L102.65704967180888,146.6291927725888L102.70318767166138,148.9924766894328L102.86467067114512,148.7295382958L103.00308467070262,147.2398471960878L103.16456767018636,151.00000441530574L103.30298166974384,150.2933077548587L103.3721886695226,148.038817267965L103.76436166826885,149.2747617207242L104.04118966738383,150.2335090566412L104.11039666716258,147.05293438831904L104.27187966664631,147.07925335318578L104.64098366546631,145.71102312474795L104.6871216653188,147.09927000426978L104.8255356648763,145.60744323676408L104.9178116645813,147.1682813870866L105.28691566340129,144.47528805118418L105.67908866214752,149.5873020457566L106.14046866067251,150.6421753702998L106.555710659345,150.1968676974393L106.60184865919749,146.39588153511068L106.64798665904998,150.0875508195004L106.71719365882873,143.80257363415694L106.78640065860748,146.92362179721567L107.17857365735372,151.672488515218L107.43233265654246,151.22849993128875L107.75529865550995,151.38086517181L108.44736865329742,150.2956946776867L108.49350665314994,151.34824389316054L109.0471626513799,146.06453895832783L109.1394386510849,147.0684493867011L109.1855766509374,149.10401298684337L109.3239906504949,149.88740524657987L109.39319765027363,151.92703080311367L109.43933565012614,150.56284159314782L109.64695664946238,151.30961343160197L109.80843964894612,147.50161306622613L110.10833664798736,151.23741948501447L110.29288864739735,150.54560968536316L110.5927856464386,147.26122481194216L110.6389236462911,152.3378537224853L110.70813064606983,145.9660260468736L111.07723464488983,151.36049257609375L111.19257964452108,150.5071257892414L111.23871764437357,143.87386725020406L111.46940764363607,145.73131196878603L111.56168364334107,150.81244253203113L112.23068464120229,148.77078599730157L112.34602964083354,150.34366345136186L112.50751264031727,149.32262580480165L113.52254863707225,152.50466612749187L113.70710063648224,151.22477298160993L113.86858363596598,151.29558502550753L113.96085963567099,150.67502696606425L114.21461863485973,152.13220147672473L114.35303263441722,152.0694714697711L114.49144663397472,149.16362324378497L114.99896463235218,148.99921869952595L115.25272363154093,151.96101304653348L115.36806863117218,148.87957942725188L115.57568963050842,151.16484865587518L115.59875863043466,145.926432441016L115.87558662954966,148.96804213732503L116.12934562873839,151.64114444966071L116.19855262851715,149.3825501305364L116.42924262777963,151.3974480040888L117.51348562431335,152.46835977500268L117.6288306239446,151.61472079519626L117.65189962387085,147.45755968350568L117.88258962313334,149.49599177862547L119.56662661774953,150.73059620453387L119.82038561693828,151.8503770796633L119.84345461686452,152.26157688158673L119.88959261671701,151.57267745275203L119.93573061656953,150.59602819562497L120.00493761634827,152.2086667588992L120.02800661627451,151.5195788887886L120.60473161443073,151.51474222937395L120.720076614062,152.0100496541054L120.78928361384074,150.00696076717577L120.97383561325073,151.12948450976546L121.22759461243947,148.66699673012226L121.43521561177572,152.015577264865L121.50442261155446,150.23248309858354L121.52749161148071,151.8391334168682L121.87352661037444,151.79646193683766L122.24263060919444,151.86310733474602L122.38104460875194,151.17517105021034L122.47332060845693,151.9070769657883L122.68094160779317,151.6662490151939L122.72707960764568,151.54227559357423L122.9347006069819,152.2915809202932L123.02697660668692,148.1496626140306L123.28073560587566,146.8031240702403L123.88052960395814,149.08317975689715L124.08815060329437,152.74042710155663L124.43418560218811,151.1408956759169L124.59566860167186,148.5552719914358L124.73408260122935,151.9688438284429L124.82635860093436,150.16447673590483L124.8494276008606,150.41679960432884L125.28773859945933,149.51780909079025L125.35694559923807,151.3848224386038L126.18742959658304,149.6691693111734L126.32584359614054,152.15355815465955L126.67187859503429,149.8530670585278L126.71801659488678,152.28988494881014L127.11018959363301,148.50868512045054L127.13325859355926,148.40389083313312L127.571569592158,152.6260432470881L127.59463859208424,152.48665951668409L127.663845591863,151.02073295565424L127.87146659119924,150.21613058341973L128.12522559038797,152.54681415953382L128.7019505885442,150.49523305094044L128.77115758832295,151.97920809861716L129.0249165875117,151.69951936934922L129.09412358729045,151.99405308357382L129.14026158714296,150.58214635496734L129.18639958699544,151.3743325409123L129.46322758611043,152.50284452849155L129.85540058485668,150.13627335827914L130.3398495833079,151.27906500698737L130.50133258279163,152.4884811156844L130.68588458220165,151.11361356675116L130.77816058190663,152.25382985135548L130.93964358139038,151.44160607640697L130.96271258131662,152.5503736058563L130.9857815812429,152.75828714692761L131.21647158050536,152.4695532364167L131.81626557858786,152.3350899171055L131.9316105782191,152.93803918621234L132.3007145770391,151.63838064428091L132.55447357622782,147.2412290987777L132.64674957593283,149.4789901879558L132.66981857585907,152.20255288639237L132.85437057526906,152.84482356840272L132.99278457482654,152.79166219068065L133.06199157460532,150.65540813545158L133.26961257394154,153.1359234638221L133.36188857364655,149.87243463410596L133.52337157313028,151.2354303826578L133.54644057305654,151.21026300336598L133.68485457261403,153.07279563639713L133.82326857217151,152.31871646402215L133.86940657202402,152.93324440263677L133.9386135718028,152.5788282385165L134.7460285692215,148.73466808608828L135.0228565683365,152.6975253044111L135.46116756693522,147.89962197883688L135.50730556678772,151.92677954807914L135.99175456523895,152.08437926848637L136.45313456376394,153.22344396751578L137.0067905619939,152.80108425447543L137.07599756177265,150.40042615124548L137.37589456081392,151.8179233043702L137.5604465602239,150.81187720820344L137.76806755956014,152.8552925281747L137.83727455933888,150.89158786790722L137.88341255919138,152.91946725157686L137.90648155911762,149.66295074906884L138.9215175558726,149.30679673762643L139.0599315554301,151.99493247619466L139.12913855520887,152.37508134343443L139.2906215546926,152.57170934587157L139.59051855373383,151.47661427788444L139.6366565535863,152.9419755150866L139.65972555351257,152.62960269341056L139.82120855299632,150.8548418191076L140.2364505516688,152.8622020416242L140.7670375499725,153.3365296709726L140.8823825496038,152.01388129338193L141.34376254812875,152.53226230545079L141.38990054798128,151.07839598607825L141.52831454753874,152.89993217264237L142.12810854562122,152.80910347766076L142.2434535452525,151.58741774811097L142.6356265439987,152.03701769447798L143.05086854267122,151.13434210709966L143.2354205420812,152.4974425452492L143.76600754038492,153.16205398741295L143.85828354008993,152.9629971863087L143.95055953979494,152.6959549604453L143.97362853972118,151.7377310725169L144.57342253780365,152.91094551832248L145.10400953610738,153.0903206750554L145.7730105339686,152.975518062196L146.02676953315733,152.68335033287985L146.39587353197734,152.8721684913271L146.71883953094482,153.30696532857655L146.7419085308711,151.5776188017644L147.20328852939605,152.90778389247134L147.75694452762602,153.1219578714863L148.12604852644603,152.513062233229L148.56435952504475,151.22083665273567L148.63356652482352,152.69051110136388L148.74891152445474,152.8693628101082L149.60246452172598,152.80334554978617L149.76394752120973,152.97396865614974L149.8562235209147,151.7006500170046L149.9946375204722,152.84878083519652L150.1330515200297,152.08938343125737L150.24839651966093,153.44381557071574L150.3176035194397,151.82137806109495L150.3637415192922,153.14494770714555L150.91739751752218,150.52054699566906L151.10194951693217,152.91793878345015L151.4941225156784,153.36251362912662L151.60946751530963,153.28008103988213L151.65560551516214,152.0159122715777L151.93243351427714,151.49401368902545L151.97857151412964,153.0325110791946L152.11698551368713,153.12960021211984L152.39381351280213,152.34451198090028L152.50915851243337,152.9271514680495L152.73984851169584,153.07685759278866L152.97053851095833,153.16777003944844L153.61647050889331,153.07300501559257L153.66260850874585,152.18220122859566L153.75488450845083,153.10910198888632L154.10091950734457,152.99023741963538L155.0467485043208,153.2061073701334L155.11595550409953,152.75945967042207L155.53119750277202,153.00661087271874L155.9464395014445,152.88020865243197L156.33861250019072,152.88567344943294L156.40781949996946,153.03831088290826L156.52316449960074,153.08560964315802L156.63850949923196,152.69120205270883L157.05375149790447,151.74853503900158L157.0768204978307,153.24697818908317L157.46899349657693,152.790636232623L157.5382004963557,153.28336829325053L157.69968349583942,153.112284552657L158.32254649384817,152.69021797049027L158.36868449370067,152.90573197635604L158.5301674931844,153.0202205204223L158.9454094918569,151.37875044193606L159.15303049119314,153.06553017831538L159.36065149052936,152.22064324887833L159.5913414897919,153.3380581390993L159.84510048898062,152.89549333369905L159.9373764886856,152.05942126839L159.96044548861184,153.088457200216L160.3987564872106,152.87876393598344L160.51410148684184,153.08575620859483L160.56023948669431,153.3899004278901L160.65251548639935,153.04557634099L160.86013648573555,153.03387204396495L161.27537848440807,153.25374113709586L161.73675848293306,153.23192382493107L161.8521034825643,152.83902376468905L162.05972448190053,153.42271014781545L162.19813848145802,152.7739068349074L162.22120748138425,148.95771974298987L162.3134834810893,152.83753717240143L162.38269048086804,153.0638760826714L162.8902084792455,153.23967085516233L163.305450477918,153.29735482350588L163.397726477623,153.084646498859L163.51307147725424,153.15954143706767L163.88217547607422,153.1464552373527L163.9283134759267,149.31820790377787L164.1590034751892,153.05426557760075L164.2974174747467,152.98732704881877L164.3435554745992,153.32503475314297L164.48196947415667,153.05078988295645L164.5281074740092,153.216639143664L164.5742454738617,153.10173184120686L164.85107347297668,151.3822051986608L164.89721147282918,151.62680197477312L164.9433494726817,153.47032297685837L165.47393647098542,152.9441739966387L165.68155747032168,153.1993862979598L165.7507644701004,153.52486625727033L166.11986846892037,153.22966252962033L166.37362746810913,153.39670525174188L166.4197654679616,153.45702739794797L166.55817946751912,153.40466166116857L166.85807646656036,153.42446893305714L166.9734214661916,153.40933081722687L167.13490446567536,153.19454963854514L167.27331846523285,153.14427769372014L167.57321546427409,153.38874884231518L168.1730094623566,153.26760203983395L168.70359646066032,153.08632153242252L168.7958724603653,153.01406477207638L168.81894146029154,153.29873672619578L168.9804244597753,153.08791281430786L169.37259745852154,153.25916405825774L169.62635645771027,153.1577407759869L169.880115456899,153.12237662987718L170.04159845638273,153.2247002426884L170.18001245594024,152.06750330533396L170.73366845417024,152.73010470722147L172.0024634501139,153.39044481379824L172.09473944981895,153.53680087141038L172.39463644886018,153.4688154466512L172.7406714477539,153.0626826212574L172.92522344716392,153.2887912144124L172.94829244709015,153.01370882744413L173.04056844679513,152.53869024675078L173.27125844605763,153.2271290413555L173.50194844532012,153.37597671139338L173.5250174452464,153.16404308976962L173.54808644517263,153.3949045906611L173.73263844458265,153.40692295647932L174.1940184431076,150.83365264452914L174.74767444133758,153.3880369530507L174.90915744082133,152.9393582751436L174.97836444060007,153.05945818164764L175.20905443986257,153.38439375505004L175.41667543919883,153.486822057459L175.48588243897757,153.38349342450965L175.71657243824006,153.1648387307123L175.83191743787128,152.77713127451716L176.66240143521625,153.46188499528216L176.8700224345525,153.32744261389053L176.91616043440501,153.3921826611204L177.00843643411,152.66218209622093L177.1468504336675,153.40692295647932L177.21605743344625,153.28680211205574L177.37754043293,153.09272853580296L177.56209243233997,153.4123458776412L177.63129943211874,153.41845975014803L177.81585143152873,153.34356481193936L177.90812743123374,153.46873169497303L178.00040343093872,152.43094371277766L178.53099042924245,153.3006002010352L178.62326642894746,153.10145964825278L178.7847494284312,152.29893013005312L178.8770254281362,153.4326975354379L179.13078442732493,153.4517091663838L179.40761242643993,153.42371516795356L179.7767164252599,153.00667368647737L180.35344142341611,153.34976243612437L180.69947642230989,153.02053458921546L181.02244242127736,153.3851893959927L181.20699442068735,153.33623654009898L181.39154642009734,153.38186026678522L181.52996041965486,152.7206407675876L181.55302941958112,152.97300551185072L182.15282341766357,153.43962798680695L182.47578941663107,153.18927328282007L183.05251441478728,153.3431041777094L183.44468741353353,153.07991452904207L183.7215154126485,152.99557658911908L183.79072241242727,152.4485943789532L183.92913641198476,153.15487228100938L184.34437841065727,153.4695273359157L184.39051641050975,152.97225174674713L184.80575840918223,153.0366149114252L184.89803440888724,153.31674333700357L185.38248340733844,152.9912005639344L185.47475940704348,153.48550296852773L185.6362424065272,153.23897990381738L185.93613940556844,153.53998343518106L186.07455340512595,153.31016883026678L186.39751940409343,153.42191450687278L186.67434740320843,153.29601479665507L187.02038240210214,153.44438089454343L187.20493440151216,153.28389174123913L187.2280034014384,152.47526928845218L187.7355213998159,153.44044456566917L187.82779739952088,152.20764080084155L188.15076339848835,153.3249510014648L188.42759139760335,153.18542070562398L188.4506603975296,153.1155299301863L188.61214339701334,153.4787190825955L188.93510939598085,153.35156309720514L189.07352339553833,153.29532384531012L189.23500639502208,152.87055627152222L189.28114439487456,153.31825086721074L189.48876539421082,153.40849330044512L189.53490339406332,153.2625769391434L189.55797239398956,153.28642522950395L189.9962833925883,153.36866937747254L190.06549039236705,153.19387962511973L190.27311139170328,152.5380411712449L190.57300839074452,153.24557534847372L191.12666438897452,153.54479915667616L191.4957683877945,152.49294089254727L191.74952738698323,152.25592364330987L192.16476938565575,153.3470614445032L192.3954593849182,153.3252860081775L192.41852838484448,152.95248635069765L192.55694238440196,153.27394622945576L192.71842538388572,153.50637807431303L192.8107013835907,151.77715717501815L192.83377038351693,153.27865726135315L192.8568393834432,153.49900792663357L193.36435738182067,153.4538448341773L193.38742638174693,153.48504233429776L193.47970238145192,153.0825527069046L193.52584038130442,153.33675998808758L193.73346138064065,153.4032378826396L193.82573738034569,153.31115291248534L194.4947383782069,153.390088869166L194.51780737813314,153.47861439299777L194.7254283774694,153.06617925382125L194.7946353772481,153.48870647021795L194.9561183767319,153.42790275186235L195.18680837599436,153.29982549801207L195.20987737592063,153.34207821965174L195.25601537577313,153.4895439869997L195.37136037540435,153.5813148883608L195.50977437496186,152.89463487899775L195.60205037466685,153.43948142137015L195.64818837451935,153.35644163245888L196.01729237333933,151.69602273678538L196.15570637289684,153.39825465778813L196.17877537282308,153.29896704331077L196.36332737223307,153.3855244027054L196.8016383708318,152.9806687904038L197.19381136957804,153.46892013624893L197.79360536766052,152.61754245175325L198.32419236596425,153.47461525036488L198.6240893650055,153.37277320970315L198.69329636478423,153.17725491700185L199.40843536249798,153.4201557216311L199.43150436242422,153.37543232548524L199.8006083612442,153.5508711533439L199.82367736117044,153.41131991958355L200.05436736043293,153.44835909925678L200.12357436021168,151.0675501437545L200.16971236006418,153.33387055519052L200.42347135925291,153.33759750486934L200.56188535881043,153.52367279585633L200.63109235858917,153.45995870668412L200.72336835829415,153.5268972354661L201.13861035696667,153.37210319627775L201.1616793568929,153.4565248878789L201.25395535659788,153.52727411801789L201.32316235637663,153.3981499681904L201.36930035622916,153.28824682850427L201.69226635519664,153.32465787059118L201.78454235490162,153.44086332406005L202.03830135409038,153.5169935995218L202.10750835386912,153.52352623041952L202.5688883523941,153.3106504024163L202.7534403518041,153.39088451010866L202.98413035106657,153.35809572810285L203.00719935099283,152.9777165437481L203.26095835018157,153.31521486887686L203.7915453484853,153.46877357081212L203.90689034811658,153.0787838813867L204.2990633468628,151.13756654670942L205.31409934361776,153.1671837777012L205.33716834354402,153.02786286105584L205.429444343249,153.49343844003488L205.52172034295398,153.52354716833906L205.9369623416265,153.38296997652105L206.07537634118395,153.37534857380706L207.0673433380127,152.96762446652792L207.2518953374227,153.36843906035756L207.43644733683269,153.39477896314384L207.45951633675892,153.51383197367068L207.85168933550517,153.4904443175401L208.1515863345464,152.66412932273852L208.2438623342514,153.55131084965433L208.49762133344015,153.55413746879276L208.77444933255512,153.41383246992882L208.84365633233386,153.35717445964292L208.8897943321864,151.02458553285032L208.98207033189138,153.50047358100164L209.1666223313014,153.48514702389548L210.5507623268763,153.5025045591974L210.68917632643382,153.49031869002283L210.71224532636006,152.60962791816564L211.10441832510628,153.07962139816846L211.26590132459003,153.1169537087153L211.7964883228938,153.53259234958205L211.88876432259877,153.44199397171542L212.1425233217875,153.22932752290762L212.21173032156625,153.47846782756096L212.6039033203125,153.49567879742608L212.74231731986998,153.5379524569853L213.04221431891122,153.5472488932628L213.5035943174362,153.27285745763947L213.71121531677247,153.22241800945812L214.08031931559245,153.42989185421902L214.12645731544492,153.15937393371132L214.33407831478118,153.58334586655656L214.54169931411744,153.57224876919827L214.7262513135274,153.0908859988831L215.18763131205242,153.37777737247416L215.2337693119049,153.5177473646254L215.30297631168366,153.41866912934347L215.34911431153617,153.50449366155408L215.48752831109366,153.3242809880394L215.76435631020863,153.33173488739703L215.7874253101349,153.47268896176683L215.94890830961864,153.5602513412996L216.0181153093974,153.1630380696315L216.13346030902864,153.46889919832938L216.29494330851236,153.34228759884718L216.34108130836486,153.31619895109543L217.51760030460358,153.29186908858537L217.7713593037923,153.31136229168078L217.84056630357108,153.40903768635326L217.9559113032023,153.04589040978317L218.32501530202228,153.36619870296636L218.41729130172732,153.48952304908016L218.44036030165356,153.33579684378856L218.48649830150603,153.49331281251762L218.71718830076856,153.44456933581932L218.80946430047354,153.40250505545555L218.90174030017852,153.37302446473768L219.10936129951477,153.59092539343146L219.132430299441,153.48604735443587L219.2477752990723,153.5275672488915L219.34005129877727,153.2074892728233L219.3631202987035,153.4636647184434L219.70915529759725,152.4149471422461L220.42429429531097,153.3128070081293L220.70112229442597,153.42830057233368L220.8626052939097,153.40279818632916L220.97795029354097,153.54699763822828L221.30091629250845,153.06261980749878L221.5085372918447,152.95051818626052L221.85457229073842,152.22060137303924L222.10833128992718,152.9606521393198L222.2698142894109,153.43100156395485L222.29288328933717,153.36630339256408L222.5005042886734,153.5226049619596L223.37712628587084,153.52019710121203L223.44633328564962,153.4279236897819L223.49247128550212,153.01885955565194L223.56167828528086,153.39530241113243L223.5847472852071,153.50043170516255L223.6770232849121,152.15255313452144L224.41523128255207,153.206400501007L224.73819728151958,153.3646492969201L225.36106027952832,153.44473683917568L225.4994742790858,153.4663866479841L225.59175027879078,153.45200229725742L226.00699227746327,151.7935306281015L226.12233727709452,153.42637428373564L226.4683722759883,153.4097286376982L226.537579275767,153.46935983255935L226.60678627554574,153.4275886830692L227.091235273997,153.31021070610586L227.34499427318573,153.46002152044275L227.64489127222697,153.3208052933951L227.66796027215324,152.91331150323094L227.89865027141573,153.48680111953945L227.96785727119445,153.51075409949772L228.06013327089946,153.42827963441414L228.4523062696457,153.40016000846663L228.4984442694982,153.45095540128023L228.56765126927692,153.2556255498548L229.05210026772818,153.50805310787655L229.09823826758068,153.33263521793742L229.2135832672119,153.53267610126022L229.46734226640064,153.38116931544027L229.65189426581065,153.28242608687106L229.74417026551563,153.44033987607145L230.13634326426188,153.46927608088117L230.27475726381937,153.43575447169133L230.50544726308186,153.46048215467272L230.55158526293437,153.42338016124086L230.68999926249188,153.47798625541145L230.8053442621231,153.0368452285402L230.92068926175435,153.52415436800584L230.98989626153312,153.48280197690656L231.33593126042683,153.4719142587437L231.3590002603531,153.5150882488433L231.9818632583618,152.97553900011553L232.1664152577718,153.5481492238032L232.3971052570343,152.87174973293622L232.65086425622306,153.30520654333486L233.13531325467426,153.33979598642145L233.5274862534205,153.46873169497303L233.55055525334677,152.95621330037648L234.28876325098676,153.22417679469982L234.311832250913,152.98521231894483L234.45024625047049,153.53474895529507L235.64983424663544,153.38789038761388L235.69597224648794,145.5714718909876L235.85745524597166,153.56205200238037L235.9266622457504,153.54764671373414L236.08814524523416,153.37729580032465L236.7110082432429,153.42589271158613L237.19545724169413,153.33987973809963L237.42614724095662,153.33190239075338L237.7952512397766,153.44838003717632L237.8413892396291,153.23659298098937L237.88752723948159,153.27924352310038L238.00287223911286,153.45162541470563L238.74108023675285,153.56799837153085L238.85642523638407,153.2350854507822L239.11018423557283,153.51238725722214L239.13325323549907,153.48642423698766L239.1563222354253,153.51362259447524L239.22552923520405,153.31446110377328L239.59463323402406,153.4672869785245L240.21749623203277,153.2623884978675L240.28670323181152,153.45185573182061L240.7480832303365,153.46843856409942L240.886497229894,153.38521033391226L240.90956622982023,153.47637403560657L241.5093602279027,153.34094757199637L241.67084322738648,153.35298687573413L241.83232622687024,153.27888757846813L242.59360322443644,153.5605444721732L242.6628102242152,153.38311654195786L243.10112122281393,153.45007600865938L243.12419022274017,153.53797339490484L243.33181122207642,153.5848952726028L243.49329422156018,153.5127013260153L243.56250122133892,153.29905079498894L243.72398422082264,153.51332946360162L243.79319122060141,153.49957325046125L244.23150221920014,153.32015621788923L244.30070921897888,153.49341750211534L244.5544682181676,153.35424315090677L244.80822721735635,153.25112389715287L245.03891721661884,153.09096975056127L245.08505521647135,153.24348155651933L245.10812421639758,153.52840476567326L245.17733121617636,153.39712401013276L245.73098721440635,153.46146623689128L245.84633221403757,153.12080628591139L245.8694012139638,153.38031086073897L245.96167721366882,153.46617726878867L246.39998821226757,153.53721962980126L246.4230572121938,153.27771505497367L246.63067821153007,153.549719567769L246.81523021094003,153.2406549373809L247.09205821005503,152.72677557801399L247.94561120732627,153.43623604384084L248.014818207105,153.42042791458516L248.22243920644124,153.44186834419816L248.2455082063675,153.4071951494334L248.383922205925,153.11663963992214L248.43006020577747,153.18075154956568L248.63768120511372,153.46877357081212L249.44509620253245,153.35256811734325L249.56044120216367,153.52777662808694L250.09102820046743,153.0703040239714L250.16023520024615,152.9474612500071L250.22944220002492,153.5408628278019L250.43706319936115,153.4807291228717L251.08299519729616,153.5154651313951L251.63665119552613,153.45409608921182L251.86734119478862,153.31018976818632L253.13613619073232,153.44306180561216L253.27455019028983,153.54088376572145L253.3668261899948,153.37926396476178L253.43603318977355,153.38539877518815L253.6897921889623,153.47275177552547L253.75899918874103,153.4235476645972" fill="none"></path></g></g></g></g></g></g><g transform="translate(53, 175)" clip-path="url(#clip_1)"><clipPath id="clip_1"><rect width="276" height="24"></rect></clipPath><g><g><line x1="0" y1="0" x2="0" y2="5" style="visibility: inherit;" fill="rgb(0, 0, 0)" stroke="rgb(204, 204, 204)" stroke-width="1px"></line><line x1="23.068999926249184" y1="0" x2="23.068999926249184" y2="5" style="visibility: inherit;" fill="rgb(0, 0, 0)" stroke="rgb(204, 204, 204)" stroke-width="1px"></line><line x1="46.13799985249837" y1="0" x2="46.13799985249837" y2="5" style="visibility: inherit;" fill="rgb(0, 0, 0)" stroke="rgb(204, 204, 204)" stroke-width="1px"></line><line x1="69.20699977874756" y1="0" x2="69.20699977874756" y2="5" style="visibility: inherit;" fill="rgb(0, 0, 0)" stroke="rgb(204, 204, 204)" stroke-width="1px"></line><line x1="92.27599970499674" y1="0" x2="92.27599970499674" y2="5" style="visibility: inherit;" fill="rgb(0, 0, 0)" stroke="rgb(204, 204, 204)" stroke-width="1px"></line><line x1="115.34499963124594" y1="0" x2="115.34499963124594" y2="5" style="visibility: inherit;" fill="rgb(0, 0, 0)" stroke="rgb(204, 204, 204)" stroke-width="1px"></line><line x1="138.41399955749512" y1="0" x2="138.41399955749512" y2="5" style="visibility: inherit;" fill="rgb(0, 0, 0)" stroke="rgb(204, 204, 204)" stroke-width="1px"></line><line x1="161.48299948374432" y1="0" x2="161.48299948374432" y2="5" style="visibility: inherit;" fill="rgb(0, 0, 0)" stroke="rgb(204, 204, 204)" stroke-width="1px"></line><line x1="184.55199940999347" y1="0" x2="184.55199940999347" y2="5" style="visibility: inherit;" fill="rgb(0, 0, 0)" stroke="rgb(204, 204, 204)" stroke-width="1px"></line><line x1="207.62099933624268" y1="0" x2="207.62099933624268" y2="5" style="visibility: inherit;" fill="rgb(0, 0, 0)" stroke="rgb(204, 204, 204)" stroke-width="1px"></line><line x1="230.68999926249188" y1="0" x2="230.68999926249188" y2="5" style="visibility: inherit;" fill="rgb(0, 0, 0)" stroke="rgb(204, 204, 204)" stroke-width="1px"></line><line x1="253.75899918874103" y1="0" x2="253.75899918874103" y2="5" style="visibility: inherit;" fill="rgb(0, 0, 0)" stroke="rgb(204, 204, 204)" stroke-width="1px"></line><line x1="276.82799911499023" y1="0" x2="276.82799911499023" y2="5" style="visibility: inherit;" fill="rgb(0, 0, 0)" stroke="rgb(204, 204, 204)" stroke-width="1px"></line></g><g transform="translate(0, 8)"><text style="text-anchor: middle; visibility: hidden; font-family: Roboto, sans-serif; font-size: 12px; font-weight: 200;" x="0" y="0" dx="0em" dy="0.95em" fill="rgb(33, 33, 33)" stroke="none" stroke-width="1px">-1k</text><text style="text-anchor: middle; visibility: inherit; font-family: Roboto, sans-serif; font-size: 12px; font-weight: 200;" x="23.068999926249184" y="0" dx="0em" dy="0.95em" fill="rgb(33, 33, 33)" stroke="none" stroke-width="1px">0</text><text style="text-anchor: middle; visibility: inherit; font-family: Roboto, sans-serif; font-size: 12px; font-weight: 200;" x="46.13799985249837" y="0" dx="0em" dy="0.95em" fill="rgb(33, 33, 33)" stroke="none" stroke-width="1px">1k</text><text style="text-anchor: middle; visibility: inherit; font-family: Roboto, sans-serif; font-size: 12px; font-weight: 200;" x="69.20699977874756" y="0" dx="0em" dy="0.95em" fill="rgb(33, 33, 33)" stroke="none" stroke-width="1px">2k</text><text style="text-anchor: middle; visibility: inherit; font-family: Roboto, sans-serif; font-size: 12px; font-weight: 200;" x="92.27599970499674" y="0" dx="0em" dy="0.95em" fill="rgb(33, 33, 33)" stroke="none" stroke-width="1px">3k</text><text style="text-anchor: middle; visibility: inherit; font-family: Roboto, sans-serif; font-size: 12px; font-weight: 200;" x="115.34499963124594" y="0" dx="0em" dy="0.95em" fill="rgb(33, 33, 33)" stroke="none" stroke-width="1px">4k</text><text style="text-anchor: middle; visibility: inherit; font-family: Roboto, sans-serif; font-size: 12px; font-weight: 200;" x="138.41399955749512" y="0" dx="0em" dy="0.95em" fill="rgb(33, 33, 33)" stroke="none" stroke-width="1px">5k</text><text style="text-anchor: middle; visibility: inherit; font-family: Roboto, sans-serif; font-size: 12px; font-weight: 200;" x="161.48299948374432" y="0" dx="0em" dy="0.95em" fill="rgb(33, 33, 33)" stroke="none" stroke-width="1px">6k</text><text style="text-anchor: middle; visibility: inherit; font-family: Roboto, sans-serif; font-size: 12px; font-weight: 200;" x="184.55199940999347" y="0" dx="0em" dy="0.95em" fill="rgb(33, 33, 33)" stroke="none" stroke-width="1px">7k</text><text style="text-anchor: middle; visibility: inherit; font-family: Roboto, sans-serif; font-size: 12px; font-weight: 200;" x="207.62099933624268" y="0" dx="0em" dy="0.95em" fill="rgb(33, 33, 33)" stroke="none" stroke-width="1px">8k</text><text style="text-anchor: middle; visibility: inherit; font-family: Roboto, sans-serif; font-size: 12px; font-weight: 200;" x="230.68999926249188" y="0" dx="0em" dy="0.95em" fill="rgb(33, 33, 33)" stroke="none" stroke-width="1px">9k</text><text style="text-anchor: middle; visibility: inherit; font-family: Roboto, sans-serif; font-size: 12px; font-weight: 200;" x="253.75899918874103" y="0" dx="0em" dy="0.95em" fill="rgb(33, 33, 33)" stroke="none" stroke-width="1px">10k</text><text style="text-anchor: middle; visibility: hidden; font-family: Roboto, sans-serif; font-size: 12px; font-weight: 200;" x="276.82799911499023" y="0" dx="0em" dy="0.95em" fill="rgb(33, 33, 33)" stroke="none" stroke-width="1px">11k</text></g><line x1="0" y1="0" x2="276.82799911499023" y2="0" fill="rgb(0, 0, 0)" stroke="rgb(204, 204, 204)" stroke-width="1px"></line></g></g></g></g></svg>