<svg viewBox="0 0 330 200" xmlns="http://www.w3.org/2000/svg"><g><g><g><g><g><line x1="63.96500110626221" y1="175.63999938964844" x2="58.96500110626221" y2="175.63999938964844" style="visibility: inherit;" fill="rgb(0, 0, 0)" stroke="rgb(204, 204, 204)" stroke-width="1px"></line><line x1="63.96500110626221" y1="161.0033327738444" x2="58.96500110626221" y2="161.0033327738444" style="visibility: inherit;" fill="rgb(0, 0, 0)" stroke="rgb(204, 204, 204)" stroke-width="1px"></line><line x1="63.96500110626221" y1="146.36666615804035" x2="58.96500110626221" y2="146.36666615804035" style="visibility: inherit;" fill="rgb(0, 0, 0)" stroke="rgb(204, 204, 204)" stroke-width="1px"></line><line x1="63.96500110626221" y1="131.72999954223633" x2="58.96500110626221" y2="131.72999954223633" style="visibility: inherit;" fill="rgb(0, 0, 0)" stroke="rgb(204, 204, 204)" stroke-width="1px"></line><line x1="63.96500110626221" y1="117.09333292643228" x2="58.96500110626221" y2="117.09333292643228" style="visibility: inherit;" fill="rgb(0, 0, 0)" stroke="rgb(204, 204, 204)" stroke-width="1px"></line><line x1="63.96500110626221" y1="102.45666631062824" x2="58.96500110626221" y2="102.45666631062824" style="visibility: inherit;" fill="rgb(0, 0, 0)" stroke="rgb(204, 204, 204)" stroke-width="1px"></line><line x1="63.96500110626221" y1="87.8199996948242" x2="58.96500110626221" y2="87.8199996948242" style="visibility: inherit;" fill="rgb(0, 0, 0)" stroke="rgb(204, 204, 204)" stroke-width="1px"></line><line x1="63.96500110626221" y1="73.1833330790202" x2="58.96500110626221" y2="73.1833330790202" style="visibility: inherit;" fill="rgb(0, 0, 0)" stroke="rgb(204, 204, 204)" stroke-width="1px"></line><line x1="63.96500110626221" y1="58.546666463216134" x2="58.96500110626221" y2="58.546666463216134" style="visibility: inherit;" fill="rgb(0, 0, 0)" stroke="rgb(204, 204, 204)" stroke-width="1px"></line><line x1="63.96500110626221" y1="43.90999984741211" x2="58.96500110626221" y2="43.90999984741211" style="visibility: inherit;" fill="rgb(0, 0, 0)" stroke="rgb(204, 204, 204)" stroke-width="1px"></line><line x1="63.96500110626221" y1="29.273333231608085" x2="58.96500110626221" y2="29.273333231608085" style="visibility: inherit;" fill="rgb(0, 0, 0)" stroke="rgb(204, 204, 204)" stroke-width="1px"></line><line x1="63.96500110626221" y1="14.636666615804023" x2="58.96500110626221" y2="14.636666615804023" style="visibility: inherit;" fill="rgb(0, 0, 0)" stroke="rgb(204, 204, 204)" stroke-width="1px"></line><line x1="63.96500110626221" y1="0" x2="58.96500110626221" y2="0" style="visibility: inherit;" fill="rgb(0, 0, 0)" stroke="rgb(204, 204, 204)" stroke-width="1px"></line></g><g transform="translate(53.96500110626221, 0)"><text style="text-anchor: end; visibility: hidden; font-family: Roboto, sans-serif; font-size: 12px; font-weight: 200;" x="0" y="175.63999938964844" dx="0em" dy="0.3em" fill="rgb(33, 33, 33)" stroke="none" stroke-width="1px">-0.01</text><text style="text-anchor: end; visibility: inherit; font-family: Roboto, sans-serif; font-size: 12px; font-weight: 200;" x="0" y="161.0033327738444" dx="0em" dy="0.3em" fill="rgb(33, 33, 33)" stroke="none" stroke-width="1px">0</text><text style="text-anchor: end; visibility: hidden; font-family: Roboto, sans-serif; font-size: 12px; font-weight: 200;" x="0" y="146.36666615804035" dx="0em" dy="0.3em" fill="rgb(33, 33, 33)" stroke="none" stroke-width="1px">0.01</text><text style="text-anchor: end; visibility: inherit; font-family: Roboto, sans-serif; font-size: 12px; font-weight: 200;" x="0" y="131.72999954223633" dx="0em" dy="0.3em" fill="rgb(33, 33, 33)" stroke="none" stroke-width="1px">0.02</text><text style="text-anchor: end; visibility: hidden; font-family: Roboto, sans-serif; font-size: 12px; font-weight: 200;" x="0" y="117.09333292643228" dx="0em" dy="0.3em" fill="rgb(33, 33, 33)" stroke="none" stroke-width="1px">0.03</text><text style="text-anchor: end; visibility: inherit; font-family: Roboto, sans-serif; font-size: 12px; font-weight: 200;" x="0" y="102.45666631062824" dx="0em" dy="0.3em" fill="rgb(33, 33, 33)" stroke="none" stroke-width="1px">0.04</text><text style="text-anchor: end; visibility: hidden; font-family: Roboto, sans-serif; font-size: 12px; font-weight: 200;" x="0" y="87.8199996948242" dx="0em" dy="0.3em" fill="rgb(33, 33, 33)" stroke="none" stroke-width="1px">0.05</text><text style="text-anchor: end; visibility: inherit; font-family: Roboto, sans-serif; font-size: 12px; font-weight: 200;" x="0" y="73.1833330790202" dx="0em" dy="0.3em" fill="rgb(33, 33, 33)" stroke="none" stroke-width="1px">0.06</text><text style="text-anchor: end; visibility: hidden; font-family: Roboto, sans-serif; font-size: 12px; font-weight: 200;" x="0" y="58.546666463216134" dx="0em" dy="0.3em" fill="rgb(33, 33, 33)" stroke="none" stroke-width="1px">0.07</text><text style="text-anchor: end; visibility: inherit; font-family: Roboto, sans-serif; font-size: 12px; font-weight: 200;" x="0" y="43.90999984741211" dx="0em" dy="0.3em" fill="rgb(33, 33, 33)" stroke="none" stroke-width="1px">0.08</text><text style="text-anchor: end; visibility: hidden; font-family: Roboto, sans-serif; font-size: 12px; font-weight: 200;" x="0" y="29.273333231608085" dx="0em" dy="0.3em" fill="rgb(33, 33, 33)" stroke="none" stroke-width="1px">0.09</text><text style="text-anchor: end; visibility: inherit; font-family: Roboto, sans-serif; font-size: 12px; font-weight: 200;" x="0" y="14.636666615804023" dx="0em" dy="0.3em" fill="rgb(33, 33, 33)" stroke="none" stroke-width="1px">0.1</text><text style="text-anchor: end; visibility: hidden; font-family: Roboto, sans-serif; font-size: 12px; font-weight: 200;" x="0" y="0" dx="0em" dy="0.3em" fill="rgb(33, 33, 33)" stroke="none" stroke-width="1px">0.11</text></g><line x1="63.96500110626221" y1="0" x2="63.96500110626221" y2="175.63999938964844" fill="rgb(0, 0, 0)" stroke="rgb(204, 204, 204)" stroke-width="1px"></line></g></g><g transform="translate(63, 0)" clip-path="url(#clip_0)"><clipPath id="clip_0"><rect width="266" height="175"></rect></clipPath><g><g><g><line x1="0" y1="0" x2="0" y2="175.63999938964844" fill="rgb(0, 0, 0)" stroke="rgb(66, 66, 66)" stroke-width="1px" opacity="0.25"></line><line x1="22.169583241144814" y1="0" x2="22.169583241144814" y2="175.63999938964844" fill="rgb(0, 0, 0)" stroke="rgb(66, 66, 66)" stroke-width="1px" opacity="0.25"></line><line x1="44.33916648228963" y1="0" x2="44.33916648228963" y2="175.63999938964844" fill="rgb(0, 0, 0)" stroke="rgb(66, 66, 66)" stroke-width="1px" opacity="0.25"></line><line x1="66.50874972343445" y1="0" x2="66.50874972343445" y2="175.63999938964844" fill="rgb(0, 0, 0)" stroke="rgb(66, 66, 66)" stroke-width="1px" opacity="0.25"></line><line x1="88.67833296457925" y1="0" x2="88.67833296457925" y2="175.63999938964844" fill="rgb(0, 0, 0)" stroke="rgb(66, 66, 66)" stroke-width="1px" opacity="0.25"></line><line x1="110.84791620572409" y1="0" x2="110.84791620572409" y2="175.63999938964844" fill="rgb(0, 0, 0)" stroke="rgb(66, 66, 66)" stroke-width="1px" opacity="0.25"></line><line x1="133.0174994468689" y1="0" x2="133.0174994468689" y2="175.63999938964844" fill="rgb(0, 0, 0)" stroke="rgb(66, 66, 66)" stroke-width="1px" opacity="0.25"></line><line x1="155.18708268801373" y1="0" x2="155.18708268801373" y2="175.63999938964844" fill="rgb(0, 0, 0)" stroke="rgb(66, 66, 66)" stroke-width="1px" opacity="0.25"></line><line x1="177.3566659291585" y1="0" x2="177.3566659291585" y2="175.63999938964844" fill="rgb(0, 0, 0)" stroke="rgb(66, 66, 66)" stroke-width="1px" opacity="0.25"></line><line x1="199.52624917030334" y1="0" x2="199.52624917030334" y2="175.63999938964844" fill="rgb(0, 0, 0)" stroke="rgb(66, 66, 66)" stroke-width="1px" opacity="0.25"></line><line x1="221.69583241144818" y1="0" x2="221.69583241144818" y2="175.63999938964844" fill="rgb(0, 0, 0)" stroke="rgb(66, 66, 66)" stroke-width="1px" opacity="0.25"></line><line x1="243.86541565259296" y1="0" x2="243.86541565259296" y2="175.63999938964844" fill="rgb(0, 0, 0)" stroke="rgb(66, 66, 66)" stroke-width="1px" opacity="0.25"></line><line x1="266.0349988937378" y1="0" x2="266.0349988937378" y2="175.63999938964844" fill="rgb(0, 0, 0)" stroke="rgb(66, 66, 66)" stroke-width="1px" opacity="0.25"></line></g><g><line x1="0" y1="175.63999938964844" x2="266.0349988937378" y2="175.63999938964844" fill="rgb(0, 0, 0)" stroke="rgb(66, 66, 66)" stroke-width="1px" opacity="0.25"></line><line x1="0" y1="161.0033327738444" x2="266.0349988937378" y2="161.0033327738444" fill="rgb(0, 0, 0)" stroke="rgb(66, 66, 66)" stroke-width="1px" opacity="0.25"></line><line x1="0" y1="146.36666615804035" x2="266.0349988937378" y2="146.36666615804035" fill="rgb(0, 0, 0)" stroke="rgb(66, 66, 66)" stroke-width="1px" opacity="0.25"></line><line x1="0" y1="131.72999954223633" x2="266.0349988937378" y2="131.72999954223633" fill="rgb(0, 0, 0)" stroke="rgb(66, 66, 66)" stroke-width="1px" opacity="0.25"></line><line x1="0" y1="117.09333292643228" x2="266.0349988937378" y2="117.09333292643228" fill="rgb(0, 0, 0)" stroke="rgb(66, 66, 66)" stroke-width="1px" opacity="0.25"></line><line x1="0" y1="102.45666631062824" x2="266.0349988937378" y2="102.45666631062824" fill="rgb(0, 0, 0)" stroke="rgb(66, 66, 66)" stroke-width="1px" opacity="0.25"></line><line x1="0" y1="87.8199996948242" x2="266.0349988937378" y2="87.8199996948242" fill="rgb(0, 0, 0)" stroke="rgb(66, 66, 66)" stroke-width="1px" opacity="0.25"></line><line x1="0" y1="73.1833330790202" x2="266.0349988937378" y2="73.1833330790202" fill="rgb(0, 0, 0)" stroke="rgb(66, 66, 66)" stroke-width="1px" opacity="0.25"></line><line x1="0" y1="58.546666463216134" x2="266.0349988937378" y2="58.546666463216134" fill="rgb(0, 0, 0)" stroke="rgb(66, 66, 66)" stroke-width="1px" opacity="0.25"></line><line x1="0" y1="43.90999984741211" x2="266.0349988937378" y2="43.90999984741211" fill="rgb(0, 0, 0)" stroke="rgb(66, 66, 66)" stroke-width="1px" opacity="0.25"></line><line x1="0" y1="29.273333231608085" x2="266.0349988937378" y2="29.273333231608085" fill="rgb(0, 0, 0)" stroke="rgb(66, 66, 66)" stroke-width="1px" opacity="0.25"></line><line x1="0" y1="14.636666615804023" x2="266.0349988937378" y2="14.636666615804023" fill="rgb(0, 0, 0)" stroke="rgb(66, 66, 66)" stroke-width="1px" opacity="0.25"></line><line x1="0" y1="0" x2="266.0349988937378" y2="0" fill="rgb(0, 0, 0)" stroke="rgb(66, 66, 66)" stroke-width="1px" opacity="0.25"></line></g></g></g><g><g><line x1="0" y1="161.0033327738444" x2="266.0349988937378" y2="161.0033327738444" fill="rgb(0, 0, 0)" stroke="rgb(153, 153, 153)" stroke-width="1.5px"></line></g></g><g><g><line x1="22.169583241144814" y1="0" x2="22.169583241144814" y2="175.63999938964844" fill="rgb(0, 0, 0)" stroke="rgb(153, 153, 153)" stroke-width="1.5px"></line></g></g><g><g><g><g><g><path style="fill: none;" stroke="rgb(204, 51, 17)" stroke-width="2px" d="M22.590805322726567,156.55378597945514L22.723822822173435,155.67558589819635L23.078536154031752,153.49502130240845L23.122875320514044,152.3177626532125L23.18938407023748,151.4125680194334L23.43324948589007,149.8358550568942L23.765793234507242,147.49267604898924L23.83230198423068,145.84364124994613L24.275693649053572,142.97956107774644L24.541728647947313,140.14876372323374L24.985120312770206,136.58096477427205L25.628038226763408,131.72609599249242L25.69454697648684,128.53855560922594L25.894073225657145,125.78496482629073L26.248786557515462,122.63469180500343L26.29312572399775,120.55807478859984L27.26858738660812,115.19009562659981L27.37943530281385,111.50146959618701L27.711979051431022,107.88332833044939L27.84499655087789,105.15051621433703L27.95584446708361,103.04250790023805L28.111031549771628,101.12200276275311L28.244049049218496,99.40766350393167L29.019984462658567,95.10043878246745L29.064323629140855,92.32876790070274L29.24168029507001,89.91637046153123L29.707241543134053,86.50176491340297L29.88459820906321,83.70360686709891L30.32798987388611,80.15121794242253L31.525147368907927,72.96135306580649L31.547316952149075,68.55375976505985L31.924199867248532,64.31673566459692L31.99070861697197,61.493495267835456L32.057217366695404,59.518529331196525L32.389761115312574,56.92842781101165L32.45626986503601,55.09334514768634L32.47843944827716,53.89862018159896L32.7001352806886,52.24504013107064L33.12135736227035,49.47307297401858L33.58691861033439,47.248132663691514L33.96380152543386,45.914189202977354L34.07464944163958,45.114268058024095L34.67322818915049,44.63780502455684L34.894924021561934,44.35369384152636L35.027941521008806,44.18440925178057L35.18312860369682,44.084339048845145L35.205298186937966,44.02451939248304L35.936894433895745,43.997456421408415L35.98123360037804,43.98184241428382L36.24726859927178,43.97643912852283L36.402455681959786,43.975679172945576L36.42462526520093,43.97558961319125L36.468964431683226,43.97627306658925L36.53547318140666,43.977808551803534L36.57981234788895,43.97948884251558L36.84584734678269,43.98529092810505L37.06754317919413,43.99304700469896L38.02083525856336,44.01899625965811L38.19819192449252,44.03904565500271L38.37554859042167,44.055725255174835L38.57507483959198,44.07115506402666L38.863279421726865,44.08860927242591L38.95195775469144,44.10169031327531L39.151484003861746,44.11555858965383L39.24016233682632,44.126623295354506L39.28450150330861,44.134649255944694L39.32884066979091,44.14086069360175L39.484027752478916,44.14955595002111L39.594875668684644,44.15839798119375L39.63921483516693,44.16516885426542L39.75006275137265,44.17294785882745L39.79440191785495,44.17911581246531L39.883080250819525,44.18585694504849L39.9717585837841,44.19297688153142L40.10477608323097,44.20194242705225L40.12694566647212,44.208115650480835L40.63684608101845,44.23072041899292L40.725524413983024,44.24770750235895L41.4571206609408,44.28771011532923L41.612307743628826,44.31839000703262L41.74532524307569,44.34262130092782L42.055699408451716,44.371105604094524L42.1443777414163,44.39227035617245L42.29956482410431,44.412197151728435L42.343903990586604,44.42624265894987L42.52126065651576,44.44312801036514L42.83163482189178,44.46844357495026L42.85380440513293,44.48473651654394L43.075500237544375,44.50569225812331L43.14200898726781,44.5216681149968L43.34153523643811,44.54160045102886L43.51889190236727,44.56292520957746L43.71841815153758,44.58645511053945L43.74058773477872,44.601776981490396L43.873605234225586,44.61825475523566L43.89577481746674,44.62936279812287L44.00662273367246,44.6421824997878L44.40567523201307,44.67254398075963L44.4721839817365,44.69462129825865L44.671710230906804,44.7195754754364L45.33679772814115,44.77506285606056L45.62500231027604,44.82661489510399L45.758019809722896,44.866117579343346L45.82452855944633,44.8941376357929L45.868867725928624,44.91384171979965L45.9575460588932,44.93147880494371L46.09056355834007,44.950859344305165L46.20141147454579,44.96988573282757L46.42310730695724,44.99629398874781L46.556124806404114,45.02125129936811L46.666972722609835,45.0438898367067L46.88866855502128,45.07298882990523L47.819791051149366,45.15835687821184L47.90846938411395,45.21627347938332L47.930638967355094,45.25270283571629L47.95280855059624,45.27624420721273L48.35186104893684,45.321095427041314L48.64006563107172,45.370697629244226L48.92827021320661,45.42357354132915L49.50467937747637,45.50278890734571L49.77071437637011,45.57280458013251L50.01457979202271,45.63573881714883L50.08108854174614,45.679257287233206L50.14759729146957,45.71115246955784L50.59098895629247,45.76940422990064L50.72400645573934,45.816281176113215L50.87919353842735,45.85843574993521L51.01221103787422,45.89585067723103L51.36692436973254,45.951054391495084L51.43343311945597,45.99038820285154L51.67729853510857,46.03695477016517L51.743807284832,46.07121098294911L51.810316034555434,46.09810279334809L51.83248561779658,46.116353481874725L52.89662561337153,46.23184082038039L52.963134363094966,46.307855168070716L53.0296431128184,46.360207531604665L53.05181269605954,46.39386977607604L53.539543527364735,46.46424833659918L53.80557852625847,46.53434035417276L54.02727435866992,46.599889655271845L54.1159526916345,46.648684920391794L54.670192272663115,46.7380059258226L54.69236185590427,46.79402820016147L54.93622727155685,46.854568601711634L55.11358393748601,46.910661728344444L55.20226227045059,46.954258754040936L55.246601436932885,46.985402811550216L55.95602810064952,47.08517570155628L56.044706433614095,47.15535136093532L56.59894601464271,47.26276997934013L56.95365934650103,47.369808006322046L56.97582892974218,47.43671349345278L57.308372678359355,47.51738038418189L57.39705101132393,47.576676960915336L57.751764343182245,47.65622453799768L57.773933926423396,47.706722996520085L58.261664757728575,47.79853593442699L58.3725126739343,47.867765516996435L58.48336059014002,47.92350179322885L58.549869339863456,47.96549320944872L58.660717256069184,48.00498691340253L58.727226005792616,48.037289493120696L58.99326100468635,48.0913102115971L59.17061767061552,48.147002991975846L59.32580475330353,48.20091601102331L59.48099183599154,48.25387894906941L59.68051808516184,48.31232638691619L59.76919641812642,48.359312015498006L59.813535584608715,48.39347506178368L59.857874751091,48.41995328282483L59.924383500814436,48.44483043465369L60.07957058350245,48.48081678315894L60.27909683267276,48.52965842213524L60.5007926650842,48.589458612923465L60.58947099804878,48.63760485859587L60.63381016453107,48.67263875779879L60.7003189142545,48.70289795431929L60.81116683046023,48.73649518789526L60.87767558018366,48.765949091905036L60.89984516342481,48.78672286364336L61.343236828247704,48.86173479925728L61.54276307741801,48.935191358805966L61.67578057686488,48.998340611653006L61.83096765955289,49.05858575454099L61.85313724279404,49.09793459713735L62.052663491964346,49.15048185233153L62.207850574652355,49.204644968888324L62.673411822716396,49.30572761152854L62.76209015568097,49.379559362292206L62.98378598809242,49.456970860095815L63.072464321057005,49.51672642388814L63.27199057022731,49.58266493530819L63.56019515236219,49.666010104339925L63.62670390208562,49.726176458804346L63.75972140153249,49.782655846505776L63.80406056801478,49.82335702711156L64.5578263982137,49.9649821021888L64.69084389766057,50.07091687711193L65.06772681276004,50.19430348509607L65.28942264517148,50.303838309713235L65.35593139489492,50.38025499171723L65.4002705613772,50.433245703897406L65.7993230597178,50.52971649226344L66.10969722509384,50.63841267877624L66.15403639157613,50.710923765991744L66.55308888991674,50.820493916548756L66.64176722288131,50.901014688427715L66.81912388881047,50.978997928375506L67.19600680390994,51.08930828576056L67.3290243033568,51.178068194699925L67.86109430114428,51.322421538345985L68.14929888327916,51.45891377578048L68.2158076330026,51.55237295672263L68.23797721624375,51.612308894203835L68.28231638272602,51.65599567659095L68.32665554920833,51.68994169005475L68.4153338821729,51.725803358595556L68.50401221513748,51.76285367878169L68.6591992978255,51.81234678696623L68.99174304644268,51.90082586099656L69.7455088766416,52.08899778300573L69.83418720960617,52.217957703261504L69.98937429229419,52.323521329600986L70.18890054146448,52.42326095094513L70.45493554035822,52.531907524555265L70.67663137276968,52.63800729109692L70.72097053925195,52.70987656030975L70.76530970573425,52.76121625525845L70.87615762193998,52.81260030231276L70.9426663716634,52.8558059134091L71.12002303759256,52.91481991707948L71.20870137055715,52.966825982586855L71.65209303538003,53.081541386405576L71.76294095158576,53.17138270337248L71.78511053482691,53.22949688779427L71.82944970130922,53.27279291106379L71.89595845103264,53.3114205180833L71.98463678399722,53.35150009026016L72.00680636723837,53.379774676074184L72.16199344992637,53.426414566449594L72.22850219964981,53.46714882126377L72.33935011585552,53.51288062108851L72.7605721974373,53.621711501143864L72.98226802984873,53.73015959170388L73.1152855292956,53.82121763867379L73.24830302874247,53.901920176687966L73.33698136170705,53.96776379338364L73.60301636060079,54.059732538058334L73.62518594384193,54.11930202383423L74.17942552487055,54.26537346509664L74.37895177404086,54.393055738915265L75.15488718748092,54.62698303411317L75.17705677072207,54.77187159839983L75.22139593720436,54.86787783544088L76.19685759981473,55.12713555320652L76.3742142657439,55.31978083592468L76.5294013484319,55.46793083251297L76.57374051491419,55.566142566729575L76.61807968139648,55.63440006765629L76.72892759760221,55.69871779677008L77.28316717863082,55.854883576610746L77.30533676187198,55.95331152467881L77.52703259428343,56.05977523302038L77.57137176076571,56.13315840108496L77.68221967697143,56.200987737138654L77.99259384234747,56.308586353780335L78.12561134179434,56.4019438872714L78.32513759096463,56.50128245255571L78.65768133958181,56.633457293278894L78.74635967254638,56.73219084222297L78.79069883902868,56.8011583800442L79.3449384200573,56.96478581840754L79.61097341895103,57.12208136967115L79.83266925136247,57.265941983618205L79.96568675080934,57.38204254253766L80.34256966590881,57.53647527964286L80.47558716535568,57.65918956058468L80.49775674859683,57.7378345057072L80.80813091397286,57.8554513996466L80.94114841341973,57.956320450416946L81.05199632962544,58.04214622906134L81.56189674417178,58.21065849409918L81.71708382685979,58.3475827817417L81.8279317430655,58.45537758163543L82.11613632520039,58.586946752447965L82.27132340788842,58.70204106268137L82.60386715650559,58.84887765786057L82.86990215539932,58.99951420133932L82.93641090512277,59.10557339468511L83.24678507049879,59.24258759456093L84.02272048393885,59.509852426722276L84.04489006718,59.6755330472365L84.06705965042114,59.78026314076246L84.46611214876175,59.939232419984144L84.79865589737892,60.11517699502903L85.86279589295387,60.481324872913454L86.06232214212417,60.750339848436354L86.26184839129448,60.96122339280581L86.39486589074134,61.12081362197404L86.86042713880539,61.33279502327671L86.90476630528768,61.47109404761631L86.92693588852882,61.55963509709892L87.96890630086263,61.87597990992181L88.14626296679178,62.11097780729787L88.65616338133812,62.38252447407998L88.85568963050842,62.59678527356446L88.944367963473,62.74820334415721L89.03304629643758,62.86194194981431L89.29908129533132,62.999014161642705L89.36559004505474,63.09850509996408L89.54294671098391,63.20426308595355L89.60945546070734,63.285022195636984L90.14152545849481,63.47244874035338L90.2302037914594,63.608158844076705L90.27454295794169,63.70122726199045L90.89529128869374,63.920715602240854L91.40519170324008,64.18781151484184L91.73773545185725,64.4368502033353L91.9150921177864,64.63377632139667L92.02594003399213,64.78167256211906L92.13678795019786,64.90019449710371L92.26980544964472,65.00710277638152L92.62451878150304,65.1669820189963L93.02357127984365,65.37110626380847L93.04574086308479,65.4996091866978L93.2009279457728,65.61894010691157L93.26743669549624,65.70865868357849L93.79950669328372,65.90798656007617L93.86601544300716,66.04583417251057L94.02120252569516,66.17118630277571L94.0877112754186,66.26469645020288L94.10988085865975,66.32690506979291L94.15422002514204,66.37643966588101L94.17638960838318,66.41226731673419L94.73062918941179,66.58695968524258L94.9301554385821,66.74716898974103L95.46222543636958,66.99161356000951L95.63958210229873,67.18791625768944L95.94995626767476,67.3927952595336L95.97212585091592,67.521956053771L96.34900876601537,67.70564267893381L96.99192668000856,67.9980058299306L97.03626584649086,68.18603445498734L97.2579616789023,68.36198381951293L97.63484459400176,68.57521796534985L97.74569251020749,68.73490121129394L98.23342334151269,68.97083382334161L98.41078000744184,69.16351681079001L98.65464542309444,69.34957834045787L98.69898458957672,69.47404191501249L98.85417167226473,69.59366243163302L98.9871891717116,69.70401285836505L99.14237625439961,69.81529416725587L99.27539375384649,69.92075230204767L99.34190250356993,70.00339039643431L99.71878541866938,70.1629409513377L99.98482041756313,70.33653853465034L100.05132916728655,70.46019552221321L100.20651624997457,70.57993405182557L100.56122958183289,70.75613306921996L100.60556874831516,70.87492341213856L100.73858624776204,70.98543876876829L100.82726458072662,71.07793564940907L101.18197791258494,71.23840472880713L101.5588608276844,71.446597175375L102.00225249250731,71.70367017423715L102.4013049908479,71.97731027872045L102.4456441573302,72.15478555825429L102.48998332381248,72.27456848591825L102.55649207353592,72.36639687811525L102.62300082325935,72.44146127316519L102.99988373835882,72.59987656349232L103.24374915401141,72.76848544731966L103.55412331938743,72.9635006399052L104.21921081662178,73.28245162739125L104.26354998310407,73.48732499695546L104.79561998089156,73.77267929162265L104.88429831385612,73.9710326466318L104.92863748033842,74.10362159184156L105.06165497978529,74.22393847107953L105.12816372950871,74.31652780294465L105.172502895991,74.38568668770071L105.3720291451613,74.48846469181952L105.52721622784932,74.59786340775113L105.8154208099842,74.75230558857582L105.99277747591336,74.89971919461148L106.28098205804825,75.07729746449148L106.32532122453054,75.19757621198706L106.39182997425397,75.2903476819356L106.74654330611229,75.45607858970727L106.85739122231801,75.58997527925305L106.9017303888003,75.68410396644681L107.12342622121176,75.80960652019293L107.21210455417634,75.91255264933844L107.85502246816952,76.17528073378189L107.96587038437525,76.36766362572445L108.12105746706327,76.53178274796275L109.09651912967365,76.9375618112788L109.2738757956028,77.23712978744646L109.42906287829081,77.46601797720989L109.5177412112554,77.63145786702239L109.76160662690799,77.80810704292432L109.89462412635486,77.95635843044496L110.02764162580173,78.08761258456924L110.5153724571069,78.32179641415827L110.7592378727595,78.54021322088145L110.87008578896523,78.70671600097646L111.06961203813552,78.87049795294206L111.09178162137667,78.97586856850006L111.3578166202704,79.12440641687657L111.601682035923,79.29186093636292L111.66819078564644,79.4137186794223L111.88988661805789,79.5581792861039L112.9318570303917,79.98150031881353L113.04270494659741,80.27143200492318L113.06487452983856,80.45258188333234L113.28657036225002,80.63322846054385L114.90494993885358,81.26972090153448L115.14881535450618,81.73161012395315L115.17098493774732,82.01601958444584L115.21532410422961,82.20122365792437L115.25966327071191,82.32690668022767L115.32617202043534,82.42416390403378L115.34834160367647,82.48980288949211L115.9025811847051,82.71157737032766L116.01342910091083,82.88118309049975L116.07993785063427,83.00488335539185L116.25729451656342,83.13763372358558L116.50115993221601,83.29785349511356L116.7006861813863,83.45997906319288L116.76719493110974,83.57926539196106L116.7893645143509,83.65817636622876L117.12190826296806,83.81571093342265L117.47662159482638,84.02796166947464L117.60963909427325,84.19951511270968L117.69831742723784,84.33193038660853L117.89784367640813,84.47776366106856L117.94218284289043,84.58002267798976L118.14170909206072,84.70783853442822L118.23038742502531,84.81408759241408L118.4742528406779,84.95918520670038L119.05066200494767,85.23888135920956L119.25018825411796,85.47349755716009L119.58273200273514,85.7257289820026L119.73791908542316,85.92913782557393L119.87093658487002,86.09584415031061L119.9596149178346,86.22565431673716L119.98178450107575,86.31098864526419L120.4030065826575,86.50384517326161L120.46951533238092,86.64194957777232L121.26762032906214,86.99395609001641L121.400637828509,87.25010236925061L121.73318157712619,87.51624421300838L121.77752074360848,87.69093264723622L122.15440365870793,87.92338849979268L122.17657324194909,88.07037567099623L122.59779532353083,88.30145182633946L122.61996490677197,88.4476242654148L122.68647365649541,88.55791014750145L122.88599990566571,88.6918594671438L123.1298653213183,88.85513667722333L123.68410490234692,89.14178637386127L123.75061365207037,89.33644367078361L123.99447906772296,89.5363899429592L124.06098781744639,89.67904699553698L124.10532698392869,89.77977105498745L124.14966615041097,89.8553353185615L124.41570114930471,89.99150736996077L124.79258406440418,90.20202460769455L125.25814531246822,90.48766379393106L125.41333239515622,90.71220562994846L125.59068906108538,90.90771612923488L125.67936739404996,91.05542603281117L125.83455447673796,91.19727573023098L125.85672405997913,91.28999081175054L125.87889364322027,91.35322730476325L126.10058947563171,91.46725454674694L126.67699863990148,91.7337174384234L126.78784655610721,91.93171527319896L127.14255988796552,92.1725755019056L127.38642530361811,92.40107450683364L127.4751036365827,92.56872582405835L127.49727321982384,92.6769545929601L127.67462988575299,92.80301967420304L127.80764738519986,92.92452149088318L127.87415613492331,93.02035832692503L128.0736823840936,93.14669383905083L128.1623607170582,93.25309722435976L128.3175477997462,93.3705097951116L128.33971738298735,93.44861058336267L128.4727348824342,93.5414057983461L128.60575238188108,93.64303293660198L128.65009154836335,93.71932661632185L128.7166002980868,93.78808437188655L129.49253571152687,94.09770208484666L129.7585707104206,94.3755799293165L130.17979279200236,94.68824393521967L130.22413195848463,94.89121208032678L130.6896932065487,95.17443741327456L131.13308487137158,95.49825541652476L131.66515486915907,95.87735171188281L131.7316636188825,96.12792189882757L132.01986820101737,96.37844105084577L132.19722486694653,96.59042125821344L132.39675111611683,96.7870033186892L132.46325986584029,96.92808895607071L132.50759903232256,97.02816678693027L132.5297686155637,97.09592561914471L133.50523027817408,97.4761678010766L133.63824777762093,97.75065134342644L133.7047565273444,97.93851276646498L133.8599436100324,98.10530397854359L134.14814819216727,98.30582401273625L134.19248735864957,98.4415908351152L134.2146569418907,98.53077832947427L134.36984402457873,98.63839353777796L134.76889652291936,98.8421147674292L135.27879693746564,99.14221949381228L135.3896448536714,99.360960773933L135.83303651849428,99.646943310535L135.87737568497658,99.83400944469243L136.01039318442344,99.99267896177557L136.5868023486932,100.28912025124214L136.69765026489895,100.50569182264566L137.07453317999838,100.76724921912101L137.47358567833902,101.06355604603714L137.65094234426815,101.30328803060416L138.16084275881448,101.62524130463143L138.2495210917791,101.8493904848064L138.33819942474366,102.01485720866998L138.3603690079848,102.12188209218611L138.93677817225455,102.38745001524332L139.44667858680089,102.72490485236474L140.08959650079407,103.15192821761318L140.33346191644668,103.49330504347394L140.68817524830501,103.82198765722593L140.99854941368105,104.1275575022169L141.02071899692217,104.31863771530958L141.46411066174505,104.5880497840942L141.99618065953254,104.93535530278767L142.35089399139088,105.26746863230876L142.7721160729726,105.61361831665543L142.83862482269606,105.84449469212507L142.94947273890176,106.02166188413183L143.76974731882413,106.41376916317725L143.92493440151216,106.7030751733607L144.01361273447674,106.90753566769824L144.1466302339236,107.07652184405873L144.27964773337047,107.22421470549983L144.39049564957617,107.35140853912421L144.45700439929962,107.45086996452804L144.50134356578192,107.52597544923427L145.03341356356938,107.75610813849357L145.21077022949854,107.95584556303952L145.58765314459802,108.20665906658098L145.69850106080372,108.39565331136711L145.742840227286,108.52445013427005L146.00887522617975,108.69410807386627L146.05321439266206,108.81129438952212L146.1862318921089,108.92777865357655L146.45226689100267,109.08997926479857L146.5631148072084,109.22575124836092L146.78481063961982,109.38409149975715L147.00650647203128,109.55594217738772L147.6272548027833,109.87404794011647L147.67159396926564,110.0802571479528L147.7602723022302,110.23467199201947L148.09281605084738,110.44235513705384L149.00176896373432,110.8809662052017L149.06827771345775,111.16708385935718L149.46733021179833,111.47637983321943L149.86638271013896,111.79944757484203L150.24326562523842,112.12301171759003L150.30977437496185,112.34002924240713L150.42062229116758,112.50836421913367L150.5314702073733,112.64747658080614L150.9305227057139,112.86805247428983L150.95269228895506,113.00800981654758L151.3295752040545,113.22132821988494L151.39608395377797,113.37212850799052L151.55127103646595,113.51581716889491L152.14984978397686,113.80703440810555L152.19418895045916,113.9969338381349L152.34937603314717,114.16395548426293L152.7484285314878,114.40054412123597L152.94795478065808,114.61061969706928L153.14748102982838,114.80474381555311L153.36917686223984,114.99680744774695L153.61304227789245,115.19512990905353L153.701720610857,115.34431870116315L153.72389019409815,115.4413794421145L154.1451122756799,115.64290759253085L154.25596019188563,115.80149747072677L154.3002993583679,115.91171579454952L154.3889776913325,116.00797013007038L154.5885039405028,116.13346453472404L154.9875564388434,116.34409538341843L155.4309481036663,116.62060968093155L155.54179601987204,116.82401349317271L155.74132226904234,117.01350423488162L155.8743397684892,117.17213668972815L155.89650935173034,117.27480255938966L155.98518768469495,117.36634439665104L156.05169643441837,117.44371996513553L156.53942726572356,117.65459412546095L156.93847976406414,117.91542337984748L157.02715809702875,118.10173674801332L157.13800601323445,118.25077790795139L157.49271934509275,118.45929574545352L157.53705851157505,118.59928000444751L157.7587543439865,118.75759690267496L157.8917718434334,118.89714773267416L157.93611100991566,118.99572670528359L158.0691285093625,119.09939988337939L158.11346767584484,119.17643917864709L158.15780684232712,119.23749596318461L158.42384184122088,119.36306711871994L158.46818100770315,119.4532222996018L158.51252017418543,119.52212462414172L159.02242058873176,119.73355608069417L159.22194683790207,119.92686231471164L159.2884555876255,120.06498027142332L159.6431689194838,120.26578605831489L159.8870343351364,120.467231667053L159.93137350161868,120.60280901129214L160.0643910010656,120.72826572552482L160.35259558320047,120.89901339563485L160.46344349940617,121.03814588705187L160.6186305820942,121.17294836666751L160.75164808154105,121.29778858031274L161.03985266367593,121.46783374249422L161.61626182794572,121.7597132442345L162.12616224249206,122.10230177148111L162.21484057545663,122.33693133307905L162.23701015869776,122.48497627294623L162.3921972413858,122.62464530379243L162.76908015648524,122.83174053394796L163.01294557213782,123.03563701195661L163.25681098779043,123.23750409649618L163.41199807047843,123.40917524620222L163.5450155699253,123.55547144674948L164.0770855677128,123.81608514981322L165.29641264597575,124.36645049163624L165.38509097894033,124.7252085172751L165.6732955610752,125.03310272147394L166.0058393096924,125.3245201251029L166.18319597562154,125.55617339817636L166.2053655588627,125.7022602632992L166.29404389182727,125.81828544438825L166.51573972423873,125.9587601434649L166.73743555665018,126.11380095425307L166.7596051398913,126.21389526012197L166.78177472313246,126.28102057252266L166.9591313890616,126.37780742291552L167.4025230538845,126.57686588681365L167.93459305167198,126.8649188295131L168.08978013436,127.08681402941411L168.15628888408344,127.24096104299709L168.3779847164949,127.40341352740626L168.5775109656652,127.56375875509897L168.64401971538862,127.68090381125852L168.86571554780008,127.82091084548563L168.97656346400578,127.93973417191347L169.774668460687,128.2608862504779L169.9741947098573,128.51581110139435L170.0185338763396,128.68258285780993L170.10721220930415,128.81026542667436L170.24022970875106,128.92826988924134L170.30673845847448,129.0197542149144L170.46192554116251,129.122860913168L170.63928220709164,129.2397600355381L170.7057909568151,129.3305179071277L170.88314762274425,129.43990195338506L170.97182595570882,129.53296977987517L171.0605042886734,129.61622824520535L171.57040470321974,129.82346199671102L171.6590830361843,129.97509024557004L171.81427011887234,130.113774026463L171.9029484518369,130.2242188576389L172.1468138674895,130.36527884029866L172.41284886638323,130.531337164521L172.76756219824154,130.73925828066245L173.32180177927017,131.03256665525922L173.65434552788736,131.3093045126561L173.9647196932634,131.56912293425162L174.14207635919252,131.7784874707942L174.3194330251217,131.95749570652353L174.45245052456858,132.1048888027401L174.47462010780973,132.19998444560832L175.0510292720795,132.4297425900009L175.3614034374555,132.6602194171857L175.9156430184841,132.96324986274146L176.29252593358356,133.25661053437872L176.5585609324773,133.51112668738455L176.62506968220077,133.6834296917113L176.75808718164762,133.82596213230454L177.15713967998823,134.02863361857544L177.20147884647054,134.1632256540717L177.60053134481112,134.360630169112L177.68920967777572,134.50493338980624L178.15477092583973,134.726910597057L178.24344925880433,134.8858156659139L178.39863634149233,135.02611089376558L178.68684092362722,135.19358496321226L178.8198584230741,135.3324315993447L179.13023258845013,135.50504853201218L179.39626758734386,135.6849417704169L179.728811335961,135.8879849414382L179.9061680018902,136.0603999111157L179.92833758513132,136.17016516531794L180.41606841643653,136.37462025902047L180.50474674940108,136.52241445662813L180.8151209147771,136.69882740118172L181.08115591367084,136.8796416440143L181.103325496912,136.99436794491132L181.25851257960002,137.10682221013278L181.56888674497606,137.26130927323703L181.70190424442293,137.39120230533925L181.85709132711094,137.5124676223735L181.9014304935932,137.59759327132468L182.10095674276351,137.70423920778498L182.14529590924582,137.78055942237586L182.16746549248694,137.83251515119613L182.5886875740687,137.98050473127722L182.65519632379213,138.0876911330252L182.85472257296246,138.20709805590732L183.14292715509734,138.35809856048306L183.6749971528848,138.59450039312773L184.0297104847431,138.83303215085846L184.2735759003957,139.0423875506125L184.67262839873632,139.2759657549216L184.89432423114775,139.47586590118055L184.91649381438893,139.6017722054893L185.04951131383578,139.71308002663724L185.2046983965238,139.82151482146878L185.2933767294884,139.91033914653343L185.3155463127295,139.96957051417624L185.33771589597066,140.0110450168493L185.82544672727585,140.16608669659314L185.847616310517,140.2650092184443L185.93629464348157,140.3479347940499L185.98063380996385,140.40946608338174L186.18016005913415,140.4992950887201L186.26883839209876,140.57666477214514L186.91175630609195,140.79245744830266L186.9339258893331,140.9277476887372L187.1334521385034,141.06118157155964L187.19996088822683,141.158631279641L187.35514797091486,141.25761706932397L187.57684380332628,141.37474267524289L187.59901338656744,141.4507825097687L187.64335255304974,141.5079293545915L187.75420046925544,141.57099510517503L187.88721796870232,141.64331069393256L187.9758963016669,141.70964996993717L188.0202354681492,141.76091813700688L188.3749488000075,141.88314775644807L188.50796629945438,141.99067213435146L188.5301358826955,142.06087816745287L188.70749254862469,142.14847251451496L189.12871463020642,142.3085747835597L189.5055975453059,142.50032516359397L190.08200670957567,142.76073526227333L190.591907124122,143.04456631611865L190.88011170625688,143.28655878408088L190.9466204559803,143.44825596269882L191.6338775364558,143.71483706690123L191.65604711969695,143.88022631695415L192.01076045155526,144.06626281072855L192.0329300347964,144.18329421480036L192.25462586720784,144.30750835304235L192.3211346169313,144.39819992841046L192.36547378341356,144.4633804539302L192.60933919906617,144.56157023466346L192.74235669851305,144.65261563072858L192.80886544823647,144.72328382292656L192.89754378120102,144.78704686876338L193.29659627954166,144.92106568897134L193.3187658627828,145.00677907301394L193.40744419574736,145.0793980228446L193.47395294547078,145.13884295299724L193.51829211195312,145.18508246994188L193.82866627732915,145.28662689391786L193.9173446102937,145.3685716208206L194.1612100259463,145.47538316670668L194.22771877566973,145.5551517235634L194.67111044049264,145.7071217552848L194.8484671064218,145.83973468261522L195.07016293883322,145.97091931801415L195.09233252207437,146.0547811546163L195.33619793772695,146.16163500141283L195.8460983522733,146.34320903813224L195.95694626847904,146.4775537738106L196.3338291835785,146.64415930293615L197.30929084618887,146.96409127771184L197.33146042943002,147.16100577020268L197.42013876239457,147.29895552164086L197.50881709535915,147.4014953487232L197.9078695936998,147.55159100671L198.04088709314664,147.67102964615378L198.99417917251586,147.9511608986043L199.17153583844504,148.15761602125536L199.34889250437416,148.3197362398046L199.37106208761531,148.42178047176353L199.7479450027148,148.5638192015037L200.03614958484968,148.710445614702L200.12482791781426,148.8172454156526L200.36869333346684,148.93292363644073L200.6347283323606,149.05833786791874L200.70123708208402,149.14754229354318L200.74557624856632,149.2103588770071L200.8342545815309,149.2666110561228L201.01161124746005,149.33738976568569L202.34178624192873,149.65334820555805L202.4748037413756,149.8698612115947L202.49697332461676,150.00425131124825L202.8738562397162,150.16076570008755L203.02904332240422,150.28574315254778L203.53894373695056,150.46208714814117L203.62762206991513,150.5854072427824L203.8714874855677,150.70738693918022L203.93799623529114,150.7936178813265L204.31487915039062,150.91890688685388L204.44789664983747,151.01989227384973L204.73610123197236,151.1361467470515L205.17949289679527,151.290829412381L205.37901914596557,151.4215775403273L205.73373247782388,151.56704248161037L205.77807164430618,151.6626598092611L205.97759789347649,151.75744528661158L206.1771241426468,151.85155635323156L206.35448080857594,151.94097758826493L206.79787247339885,152.0764089902245L206.84221163988113,152.16579790560232L206.90872038960458,152.2316098720679L206.95305955608686,152.27920531581648L207.08607705553374,152.33203448361613L207.35211205442747,152.41204023580204L207.3742816376686,152.4640551525845L207.52946872035662,152.52328274676037L207.59597747008004,152.57079453915088L207.7068253862858,152.61921635688893L207.8620124689738,152.67605771999732L207.90635163545608,152.71808214235236L209.03700038075445,152.94226428355654L209.28086579640706,153.11893212380662L209.3473745461305,153.23638379796557L209.4582224623362,153.32589522304622L209.81293579419452,153.4401562862423L209.90161412715912,153.52376205383217L209.92378371040027,153.57768207159177L209.96812287688255,153.61754092618816L210.189818709294,153.67885468932727L210.27849704225858,153.73053967718207L210.36717537522316,153.77641141281708L210.56670162439346,153.83723965036017L210.5888712076346,153.877425810689L210.69971912384034,153.91995033514357L210.78839745680492,153.96015458162552L210.81056704004607,153.98794399172647L211.14311078866322,154.05934821443245L211.8303678691387,154.2136865327733L212.09640286803247,154.348863020888L212.25158995072044,154.45465194008167L212.3624378669262,154.53568778950284L212.67281203230223,154.63317998462023L212.87233828147254,154.72285535354484L213.2048820300897,154.8282144765642L213.4487474457423,154.9289077358428L213.6039345284303,155.01302825167699L213.62610411167145,155.06687761859146L213.82563036084173,155.12947770164286L214.66807452400525,155.29286660537252L214.7345832737287,155.4006912876033L214.77892244021098,155.47190193388317L214.8454311899344,155.52438490142612L214.86760077317555,155.55912210419987L214.95627910614016,155.5929312140067L215.66570576985677,155.71560883167302L215.97607993523278,155.83325987001973L216.57465868274372,155.9874959821454L216.70767618219057,156.09839295292517L216.79635451515514,156.1771209304275L217.19540701349575,156.27874505346094L217.30625492970148,156.35469150290072L217.63879867831866,156.44482060888564L217.7053074280421,156.5077465245172L217.77181617776552,156.5543291245476L218.23737742582958,156.6434704360059L218.48124284148219,156.72859002017518L218.76944742361707,156.81667704077256L218.7916170068582,156.87235996170685L219.01331283926964,156.9339451201412L219.07982158899307,156.97930232642915L219.16849992195765,157.01769131055642L219.54538283705713,157.0877904451389L219.5897220035394,157.1353414950729L219.65623075326283,157.1720917579147L220.1217920013269,157.25107451799636L220.16613116780917,157.30383115170346L220.27697908401487,157.34886045486763L220.52084449966748,157.4050921597423L220.69820116559666,157.45989478425415L220.7868794985612,157.50325049868727L221.1637624136607,157.57334792632233L221.29677991310754,157.63079888900356L221.518475745519,157.69073016761809L221.5628149120013,157.73175206724528L221.69583241144818,157.7714963980712L221.80668032765388,157.8078857100498L221.9175282438596,157.8422014870463L221.98403699358306,157.87025117759842L222.31658074220022,157.92405427713476L222.33875032544137,157.95878162042828L222.93732907295225,158.04472602758102L223.11468573888143,158.11524292036304L223.3363815712929,158.18102138313148L223.58024698694547,158.24602154484057L224.0458082350095,158.3329448728399L224.422691150109,158.42310269307214L224.4448607333501,158.47941079321012L225.15428739706675,158.58272863022006L225.1764569803079,158.64685170140663L225.30947447975475,158.69806775399002L226.46229280829428,158.83550975531776L226.5066319747766,158.92194579984042L226.66181905746458,158.98762740765505L226.728327807188,159.03292209513754L226.88351488987604,159.07374549658186L227.48209363738695,159.14973775460695L227.947654885451,159.23413505472269L228.16935071786244,159.30286483326887L228.52406404972075,159.3725306971878L228.56840321620305,159.41783888468046L228.61274238268533,159.44852244719567L228.72359029889108,159.47563552093087L229.43301696260772,159.54612354594983L229.54386487881342,159.59665698628797L229.78773029446603,159.64488619637368L229.80989987770715,159.6754367669332L229.8320694609483,159.69537770011456L229.89857821067173,159.71215893572054L230.25329154253006,159.74753567168133L230.85187029004098,159.81001248183742L230.9183790397644,159.85196897051546L231.36177070458731,159.90636717621334L231.49478820403417,159.9475771855803L231.51695778727532,159.9737228734763L232.09336695154508,160.0254383320401L232.24855403423308,160.06587631214427L232.4037411169211,160.09942420192692L233.13533736387888,160.16165911244656L233.20184611360233,160.20269145759463L233.62306819518406,160.25016095404277L233.6452377784252,160.27981998390294L233.84476402759552,160.30809746483004L233.99995111028355,160.33307487160582L234.06645986000697,160.35145655404241L234.22164694269497,160.37031911941548L234.28815569241843,160.38495588459256L234.70937777400016,160.4142297567392L234.77588652372359,160.43494592871502L235.0197519393762,160.45873697507284L235.26361735502877,160.484065761153L235.48531318744023,160.50904556346433L235.52965235392253,160.52595946763574L235.55182193716365,160.53706700472262L235.6183306868871,160.54659387757258L236.1504006846746,160.57438500593793L236.2612486008803,160.59547424768155L236.28341818412144,160.60900306864824L236.37209651708602,160.62059602520173L236.79331859866778,160.64350502674068L236.81548818190893,160.65806460909357L237.01501443107924,160.67401335932865L237.19237109700836,160.68982093548448L237.45840609590212,160.7083571526989L238.2786806758245,160.745076622785L238.34518942554791,160.76903071528488L238.54471567471822,160.7890325795691L238.56688525795937,160.8016464236587L238.69990275740622,160.8128374647387L238.74424192388852,160.8207392445474L238.94376817305883,160.83069609166213L239.7197035864989,160.85498670063808L239.83055150270462,160.87192214957096L240.34045191725096,160.89212115391743L240.40696066697438,160.90545009709604L240.47346941669784,160.91463398344916L240.67299566586811,160.92356575585038L241.29374399662018,160.93824406461877L241.82581399440767,160.95344210466735L242.04750982681912,160.96478871628594L243.26683690508207,160.97927285000765L243.39985440452895,160.98833211462812L243.48853273749353,160.99386400497744L243.55504148721695,160.99718313918706L243.79890690286953,160.99917461971282L243.86541565259296,161.00036950802829" fill="none"></path></g></g></g></g><g opacity="0.2"><g><g><g><path style="fill: none;" stroke="rgb(204, 51, 17)" stroke-width="2px" d="M22.590805322726567,156.55378597945514L22.723822822173435,155.14866584944104L23.078536154031752,151.40167929045205L23.122875320514044,150.93330648175808L23.18938407023748,150.23074590557138L23.43324948589007,147.65469341303597L23.765793234507242,144.14189257682105L23.83230198423068,143.4393326822072L24.275693649053572,138.75559914268453L24.541728647947313,135.94535956422925L24.985120312770206,131.26162602470654L25.628038226763408,124.4702128013424L25.69454697648684,123.76765290672859L25.894073225657145,121.65997322288712L26.248786557515462,117.91298530075233L26.29312572399775,117.44461385520418L27.26858738660812,107.14039843247929L27.37943530281385,105.96946709231733L27.711979051431022,102.45666761924821L27.84499655087789,101.05154783002058L27.95584446708361,99.8806110372754L28.111031549771628,98.24130825156527L28.244049049218496,96.83618846233765L29.019984462658567,88.63965272345422L29.064323629140855,88.17128127790608L29.24168029507001,86.29778459054708L29.707241543134053,81.37986532825033L29.88459820906321,79.50637409347456L30.32798987388611,74.82263782766026L31.525147368907927,62.17655972461145L31.547316952149075,61.94237127554575L31.924199867248532,57.961200356928515L31.99070861697197,57.25863500973148L32.057217366695404,56.55608056770086L32.389761115312574,53.04327564204854L32.45626986503601,52.340721200017924L32.47843944827716,52.106532750952255L32.7001352806886,49.76467007062831L33.12135736227035,45.31512225387971L33.58691861033439,43.910722205636375L33.96380152543386,43.91327401458079L34.07464944163958,43.914386341556565L34.67322818915049,43.92311047469988L34.894924021561934,43.92752706710368L35.027941521008806,43.93048236720597L35.18312860369682,43.9342337444576L35.205298186937966,43.934789907945486L35.936894433895745,43.95686196479804L35.98123360037804,43.95842140359741L36.24726859927178,43.9683341998815L36.402455681959786,43.974539239579684L36.42462526520093,43.97545527355973L36.468964431683226,43.977298246686246L36.53547318140666,43.98011177962496L36.57981234788895,43.98200927858363L36.84584734678269,43.99399405648924L37.06754317919413,44.004681119589804L38.02083525856336,44.05792014209683L38.19819192449252,44.069119748019574L38.37554859042167,44.08074465543302L38.57507483959198,44.09429977730443L38.863279421726865,44.11479058502479L38.95195775469144,44.121311874549406L39.151484003861746,44.13636100422161L39.24016233682632,44.14322035390555L39.28450150330861,44.14668819683001L39.32884066979091,44.15017785008732L39.484027752478916,44.16259883465011L39.594875668684644,44.17166102795272L39.63921483516693,44.17532516387291L39.75006275137265,44.184616365670536L39.79440191785495,44.18836774292217L39.883080250819525,44.195968643923266L39.9717585837841,44.203656786255806L40.10477608323097,44.215390745333565L40.12694566647212,44.21737548562365L40.63684608101845,44.26462757176111L40.725524413983024,44.27318812740796L41.4571206609408,44.34771403478467L41.612307743628826,44.3644098445877L41.74532524307569,44.37896824177059L42.055699408451716,44.41383205884452L42.1443777414163,44.42401748428935L42.29956482410431,44.44208734506242L42.343903990586604,44.447310919781984L42.52126065651576,44.46845603748807L42.83163482189178,44.50641692182788L42.85380440513293,44.50917592893447L43.075500237544375,44.53712587049233L43.14200898726781,44.54563190030706L43.34153523643811,44.571498955076976L43.51889190236727,44.59491234740031L43.71841815153758,44.62174996198243L43.74058773477872,44.62475978791687L43.873605234225586,44.64297141585351L43.89577481746674,44.646024862453686L44.00662273367246,44.661412052285186L44.40567523201307,44.71808620221739L44.4721839817365,44.72773727450718L44.671710230906804,44.757006741202986L45.33679772814115,44.858293926996794L45.62500231027604,44.903942953669144L45.758019809722896,44.925371605702395L45.82452855944633,44.93616772046724L45.868867725928624,44.943397845809756L45.9575460588932,44.95793443265981L46.09056355834007,44.97993015334737L46.20141147454579,44.99842531561117L46.42310730695724,45.03590637262812L46.556124806404114,45.05868726529857L46.666972722609835,45.07784764271457L46.88866855502128,45.11663731970302L47.819791051149366,45.286408950671785L47.90846938411395,45.30314838114052L47.930638967355094,45.307346870215724L47.95280855059624,45.31155626445738L48.35186104893684,45.38837225678421L48.64006563107172,45.44510093254857L48.92827021320661,45.50288740945655L49.50467937747637,45.62161195637054L49.77071437637011,45.677828089312726L50.01457979202271,45.73014017267329L50.08108854174614,45.744534992359746L50.14759729146957,45.75899524304478L50.59098895629247,45.856781870414835L50.72400645573934,45.88659659543211L50.87919353842735,45.92166761066821L51.01221103787422,45.951973068174766L51.36692436973254,46.03385996289114L51.43343311945597,46.04938891988624L51.67729853510857,46.10680462113564L51.743807284832,46.122595302125006L51.810316034555434,46.13844050894656L51.83248561779658,46.14372951466467L52.89662561337153,46.405071828138915L52.963134363094966,46.421876689606194L53.0296431128184,46.438736076905656L53.05181269605954,46.44436314278309L53.539543527364735,46.56981617738384L53.80557852625847,46.63947838053318L54.02727435866992,46.69821360692049L54.1159526916345,46.721877818071704L54.670192272663115,46.87198743396877L54.69236185590427,46.87806161166978L54.93622727155685,46.94537920403684L55.11358393748601,46.99480141829369L55.20226227045059,47.01965429258567L55.246601436932885,47.03211889781417L55.95602810064952,47.234835036565386L56.044706433614095,47.26061485000386L56.59894601464271,47.4238979069473L56.95365934650103,47.53036504679494L56.97582892974218,47.53707172414886L57.308372678359355,47.638380720275535L57.39705101132393,47.665621826015496L57.751764343182245,47.77554590362118L57.773933926423396,47.78247068430369L58.261664757728575,47.936255341287364L58.3725126739343,47.9716098908506L58.48336059014002,48.007106207577436L58.549869339863456,48.02848033377856L58.660717256069184,48.06422746933325L58.727226005792616,48.08574336269794L58.99326100468635,48.1723412893117L59.17061767061552,48.230542162544L59.32580475330353,48.281785539594495L59.48099183599154,48.33332335613861L59.68051808516184,48.39999754368634L59.76919641812642,48.42979045837072L59.813535584608715,48.44471963121222L59.857874751091,48.45967061438657L59.924383500814436,48.482146162397015L60.07957058350245,48.53479630591687L60.27909683267276,48.60292088059967L60.5007926650842,48.67915889910577L60.58947099804878,48.70982422710449L60.63381016453107,48.72518960660315L60.7003189142545,48.74828674910006L60.81116683046023,48.7868910382592L60.87767558018366,48.81012994791968L60.89984516342481,48.81788352125079L61.343236828247704,48.97425270267817L61.54276307741801,49.04537619812899L61.67578057686488,49.09306449092358L61.83096765955289,49.14895346887292L61.85313724279404,49.156957861031884L62.052663491964346,49.229302735122786L62.207850574652355,49.28588964372355L62.673411822716396,49.45735157548884L62.76209015568097,49.49030698843771L62.98378598809242,49.573088106801265L63.072464321057005,49.60635976957656L63.27199057022731,49.6815727024383L63.56019515236219,49.79102785788754L63.62670390208562,49.81642599050099L63.75972140153249,49.8673749280579L63.80406056801478,49.88440879802022L64.5578263982137,50.17741971480464L64.69084389766057,50.22981903949665L65.06772681276004,50.379383397072246L65.28942264517148,50.46814054663898L65.35593139489492,50.49488001472321L65.4002705613772,50.51273177216771L65.7993230597178,50.67442267481249L66.10969722509384,50.80145695854549L66.15403639157613,50.81969039681499L66.55308888991674,50.98484914238426L66.64176722288131,51.021795846246164L66.81912388881047,51.09597278829713L67.19600680390994,51.2547738218382L67.3290243033568,51.311208058108974L67.86109430114428,51.53895155381505L68.14929888327916,51.663652131932196L68.2158076330026,51.69256172813584L68.23797721624375,51.70221280042563L68.28231638272602,51.721525850171616L68.32665554920833,51.74086071025047L68.4153338821729,51.77959586140676L68.50401221513748,51.81842915906091L68.6591992978255,51.886586449243026L68.99174304644268,52.03354447204205L69.7455088766416,52.37125566601949L69.83418720960617,52.41139758364514L69.98937429229419,52.48186676911021L70.18890054146448,52.572870382961355L70.45493554035822,52.69487738497051L70.67663137276968,52.79715694090939L70.72097053925195,52.81768046412901L70.76530970573425,52.8382257976815L70.87615762193998,52.88967637289417L70.9426663716634,52.92061433005361L71.12002303759256,53.00334092258504L71.20870137055715,53.04483508084789L71.65209303538003,53.25361449213369L71.76294095158576,53.30614467882285L71.78511053482691,53.31666816442694L71.82944970130922,53.33773694596803L71.89595845103264,53.369361928612534L71.98463678399722,53.41161944852544L72.00680636723837,53.422186554795275L72.16199344992637,53.49637440201266L72.22850219964981,53.528250203485044L72.33935011585552,53.58147832082565L72.7605721974373,53.78495782122687L72.98226802984873,53.89283172754389L73.1152855292956,53.95780470912868L73.24830302874247,54.02297398370919L73.33698136170705,54.06652921842715L73.60301636060079,54.19768565507036L73.62518594384193,54.20865625249806L74.17942552487055,54.48448062699018L74.37895177404086,54.58457914964322L75.15488718748092,54.97787397690999L75.17705677072207,54.98920444482985L75.22139593720436,55.011887191002444L76.19685759981473,55.516022129854946L76.3742142657439,55.60874876000187L76.5294013484319,55.69015582739539L76.57374051491419,55.71346016805444L76.61807968139648,55.73678631904636L76.72892759760221,55.7951943904408L77.28316717863082,56.08913224637172L77.30533676187198,56.10095344678089L77.52703259428343,56.21947079553274L77.57137176076571,56.24323315318182L77.68221967697143,56.30273174121919L77.99259384234747,56.46998427874283L78.12561134179434,56.54198018750799L78.32513759096463,56.65029030048217L78.65768133958181,56.83171955436367L78.74635967254638,56.88029116563905L78.79069883902868,56.90460968677601L79.3449384200573,57.21022697595254L79.61097341895103,57.358024696566616L79.83266925136247,57.48173290453872L79.96568675080934,57.55619338091685L80.34256966590881,57.768124385300666L80.47558716535568,57.84326098199742L80.49775674859683,57.85580192339091L80.80813091397286,58.03187674055573L80.94114841341973,58.107624026572495L81.05199632962544,58.17088489702792L81.56189674417178,58.4634268916559L81.71708382685979,58.55296921320553L81.8279317430655,58.617069781475976L82.11613632520039,58.784300508666774L82.27132340788842,58.87468252803146L82.60386715650559,59.06913255062935L82.86990215539932,59.22546901655744L82.93641090512277,59.26466218470375L83.24678507049879,59.448108894374656L84.02272048393885,59.91074967496431L84.04489006718,59.924053978007834L84.06705965042114,59.93735828105139L84.46611214876175,60.17768633881667L84.79865589737892,60.37909385759636L85.86279589295387,61.03054668974005L86.06232214212417,61.1538623117207L86.26184839129448,61.27754870935996L86.39486589074134,61.36019896572637L86.86042713880539,61.650767125230686L86.90476630528768,61.678542584125694L86.92693588852882,61.69244667132284L87.96890630086263,62.35049712915614L88.14626296679178,62.463474653362L88.65616338133812,62.78984447425316L88.85568963050842,62.9181764727912L88.944367963473,62.9753304500463L89.03304629643758,63.03254985829997L89.29908129533132,63.20462247938531L89.36559004505474,63.24774150744611L89.54294671098391,63.362900064937776L89.60945546070734,63.406160860162146L90.14152545849481,63.753588557427975L90.2302037914594,63.811723999661695L90.27454295794169,63.840829888861066L90.89529128869374,64.2499481126165L91.40519170324008,64.58845538374328L91.73773545185725,64.81040823607546L91.9150921177864,64.92916549848874L92.02594003399213,65.0035169232026L92.13678795019786,65.07797739958073L92.26980544964472,65.1674651952982L92.62451878150304,65.40680088291845L93.02357127984365,65.67729263102672L93.04574086308479,65.69236357103179L93.2009279457728,65.79793648723225L93.26743669549624,65.84323654857886L93.79950669328372,66.20697837482268L93.86601544300716,66.2526055911622L94.02120252569516,66.3592144981734L94.0877112754186,66.40496167134364L94.10988085865975,66.42021799917799L94.15422002514204,66.45074156001314L94.17638960838318,66.46600879301394L94.73062918941179,66.84899823800515L94.9301554385821,66.98748294648874L95.46222543636958,67.3582804154122L95.63958210229873,67.48237030420933L95.94995626767476,67.70011376229988L95.97212585091592,67.7156972451271L96.34900876601537,67.98117261667798L96.99192668000856,68.4365505564258L97.03626584649086,68.46807739257244L97.2579616789023,68.6259078663013L97.63484459400176,68.89506918410524L97.74569251020749,68.97442608021004L98.23342334151269,69.32473274141316L98.41078000744184,69.45254129196263L98.65464542309444,69.62867063495958L98.69898458957672,69.66073727684446L98.85417167226473,69.77309320656383L98.9871891717116,69.8695384984631L99.14237625439961,69.98221613059215L99.27539375384649,70.07893950423536L99.34190250356993,70.1273475380143L99.71878541866938,70.4022667836928L99.98482041756313,70.59693490961928L100.05132916728655,70.64568100355751L100.20651624997457,70.75954184624413L100.56122958183289,71.02043159531155L100.60556874831516,71.05310892651644L100.73858624776204,71.15121180371295L100.82726458072662,71.21668097037025L101.18197791258494,71.47910834790417L101.5588608276844,71.75888584522687L102.00225249250731,72.08927967253038L102.4013049908479,72.38777043544545L102.4456441573302,72.42099847755503L102.48998332381248,72.45424287741423L102.55649207353592,72.50413946641075L102.62300082325935,72.5540578657401L102.99988373835882,72.837499498983L103.24374915401141,73.0213987730607L103.55412331938743,73.25602342878355L104.21921081662178,73.76087810862037L104.26354998310407,73.79463505130175L104.79561998089156,74.20071073362345L104.88429831385612,74.26856267914553L104.92863748033842,74.30250500965622L105.06165497978529,74.40441378993648L105.12816372950871,74.45541180074235L105.172502895991,74.48942501483481L105.3720291451613,74.64263169799773L105.52721622784932,74.76196148164854L105.8154208099842,74.98396885981288L105.99277747591336,75.12083960366496L106.28098205804825,75.34366486931148L106.32532122453054,75.37799433323039L106.39182997425397,75.42950488685841L106.74654330611229,75.70467495136478L106.85739122231801,75.79082031357174L106.9017303888003,75.82529699723744L107.12342622121176,75.99786035081209L107.21210455417634,76.06697184305673L107.85502246816952,76.569372860447L107.96587038437525,76.65623796363826L108.12105746706327,76.77796143132028L109.09651912967365,77.54623040625285L109.2738757956028,77.68648175169795L109.42906287829081,77.80935026185503L109.5177412112554,77.87961770174115L109.76160662690799,78.07308080677723L109.89462412635486,78.1787355117259L110.02764162580173,78.28449381575567L110.5153724571069,78.67307215854183L110.7592378727595,78.86783843096617L110.87008578896523,78.95647017111898L111.06961203813552,79.11617088089045L111.09178162137667,79.13392449183709L111.3578166202704,79.34721318944133L111.601682035923,79.54304271559252L111.66819078564644,79.59650529401137L111.88988661805789,79.7748701961263L112.9318570303917,80.61648186787801L113.04270494659741,80.70632953408767L113.06487452983856,80.7243067009461L113.28657036225002,80.9041983263611L114.90494993885358,82.22445956302045L115.14881535450618,82.42444395758113L115.17098493774732,82.44263377518493L115.21532410422961,82.47902976814217L115.25966327071191,82.51543121368263L115.32617202043534,82.57004973974296L115.34834160367647,82.58826136767959L115.9025811847051,83.04423909158103L116.01342910091083,83.13559167075789L116.07993785063427,83.19043375273003L116.25729451656342,83.33675927587615L116.50115993221601,83.53818315240551L116.7006861813863,83.7031674153119L116.76719493110974,83.75819488511331L116.7893645143509,83.77654282763032L117.12190826296806,84.0520127842135L117.47662159482638,84.34633777355262L117.60963909427325,84.45684527756225L117.69831742723784,84.53055329745678L117.89784367640813,84.69651357275859L117.94218284289043,84.73341120337156L118.14170909206072,84.89956231908587L118.23038742502531,84.9734611793929L118.4742528406779,85.17683162812983L119.05066200494767,85.65842558797331L119.25018825411796,85.82542185408587L119.58273200273514,86.10407611926635L119.73791908542316,86.23425109093094L119.87093658487002,86.34590363741563L119.9596149178346,86.42036956637699L119.98178450107575,86.43899013805475L120.4030065826575,86.79312996525769L120.46951533238092,86.84910618453844L121.26762032906214,87.52196585838252L121.400637828509,87.63432178810189L121.73318157712619,87.91545697864501L121.77752074360848,87.95296529857802L122.15440365870793,88.27207227862738L122.17657324194909,88.29085642780154L122.59779532353083,88.6480660593543L122.61996490677197,88.66688292402779L122.68647365649541,88.7233389706314L122.88599990566571,88.89278344660733L123.1298653213183,89.10005249234268L123.68410490234692,89.57176091881814L123.75061365207037,89.62842961616713L123.99447906772296,89.83630935122252L124.06098781744639,89.89303257440366L124.10532698392869,89.93085714416313L124.14966615041097,89.96868171392259L124.41570114930471,90.19576544705967L124.79258406440418,90.51780046429525L125.25814531246822,90.91612257328586L125.41333239515622,91.0490183839745L125.59068906108538,91.2009818781645L125.67936739404996,91.27699088817559L125.83455447673796,91.41005027636066L125.85672405997913,91.42906343402987L125.87889364322027,91.44808204428227L126.10058947563171,91.63829540972247L126.67699863990148,92.13341177593807L126.78784655610721,92.22871202536228L127.14255988796552,92.53386584496556L127.38642530361811,92.74382301422571L127.4751036365827,92.82020279989536L127.49727321982384,92.83929774631278L127.67462988575299,92.99211729606748L127.80764738519986,93.10677421590339L127.87415613492331,93.16411358098779L128.0736823840936,93.33619710723954L128.1623607170582,93.41270230232314L128.3175477997462,93.54662865123936L128.33971738298735,93.56576176573927L128.4727348824342,93.68059862082129L128.60575238188108,93.79547364398579L128.65009154836335,93.8337671359017L128.7166002980868,93.8912210052336L129.49253571152687,94.56212865428685L129.7585707104206,94.79239669602126L130.17979279200236,95.1572399440744L130.22413195848463,95.19566429798746L130.6896932065487,95.59927541269619L131.13308487137158,95.98398242140001L131.66515486915907,96.44599615491995L131.7316636188825,96.50377717924474L132.01986820101737,96.75421977887305L132.19722486694653,96.90839156926495L132.39675111611683,97.08187640940284L132.46325986584029,97.13971741214297L132.50759903232256,97.1782835332196L132.5297686155637,97.19756386746633L133.50523027817408,98.0465310739745L133.63824777762093,98.16237665695121L133.7047565273444,98.22030490102276L133.8599436100324,98.35549079666154L134.14814819216727,98.60660406402525L134.19248735864957,98.64524106868367L134.2146569418907,98.66455957101289L134.36984402457873,98.79981635023344L134.76889652291936,99.14769661190607L135.27879693746564,99.59237658338691L135.3896448536714,99.68907269411406L135.83303651849428,100.07591711543799L135.87737568497658,100.11460864592857L136.01039318442344,100.23068323740029L136.5868023486932,100.73378218544201L136.69765026489895,100.83054917975093L137.07453317999838,101.15958531383401L137.47358567833902,101.5080162864113L137.65094234426815,101.66288600745469L138.16084275881448,102.10817121567234L138.2495210917791,102.18561425506886L138.33819942474366,102.26305729446534L138.3603690079848,102.28241941746029L138.93677817225455,102.78580189982915L139.44667858680089,103.23108710804684L140.08959650079407,103.79246326548585L140.33346191644668,104.00537028226506L140.68817524830501,104.31501157785394L140.99854941368105,104.5859122697033L141.02071899692217,104.60525803494858L141.46411066174505,104.99216788727108L141.99618065953254,105.45631358082795L142.35089399139088,105.76563862659037L142.7721160729726,106.13284284317541L142.83862482269606,106.1908092553295L142.94947273890176,106.28741267214198L143.76974731882413,107.00193008174534L143.92493440151216,107.13703418863591L144.01361273447674,107.21422640920454L144.1466302339236,107.33000110859945L144.27964773337047,107.44575399766151L144.39049564957617,107.54219928956078L144.45700439929962,107.60006210263379L144.50134356578192,107.63863367629364L145.03341356356938,108.10130717238255L145.21077022949854,108.25545169985838L145.58765314459802,108.58287932189316L145.69850106080372,108.67914467854635L145.742840227286,108.7176453686244L146.00887522617975,108.94859498326065L146.05321439266206,108.98707386300583L146.1862318921089,109.10250504965825L146.45226689100267,109.33328018163161L146.5631148072084,109.42940922370443L146.78481063961982,109.62160187685151L147.00650647203128,109.81371819383358L147.6272548027833,110.35120658420959L147.67159396926564,110.38957095970727L147.7602723022302,110.46629425811946L148.09281605084738,110.7538798546054L149.00176896373432,111.53888280742348L149.06827771345775,111.59626034059039L149.46733021179833,111.94032379401281L149.86638271013896,112.28404918727594L150.24326562523842,112.60835793171199L150.30977437496185,112.6655555296328L150.42062229116758,112.76086668422346L150.5314702073733,112.8561451233148L150.9305227057139,113.19891631451537L150.95269228895506,113.21794582993422L151.3295752040545,113.54130582489094L151.39608395377797,113.59832894014889L151.55127103646595,113.73135016025148L152.14984978397686,114.24386026692156L152.19418895045916,114.28178298317886L152.34937603314717,114.41448795345502L152.7484285314878,114.7554270766955L152.94795478065808,114.92573306081931L153.14748102982838,115.09592999327882L153.36917686223984,115.28490289603769L153.61304227789245,115.49261360101343L153.701720610857,115.56810188932752L153.72389019409815,115.58697055354153L154.1451122756799,115.9451998181554L154.25596019188563,116.03938228802062L154.3002993583679,116.07704328028365L154.3889776913325,116.15235163335166L154.5885039405028,116.32170614170451L154.9875564388434,116.66004165646004L155.4309481036663,117.03538112720122L155.54179601987204,117.12911921153446L155.74132226904234,117.29774034744497L155.8743397684892,117.41008537199792L155.89650935173034,117.42880136388192L155.98518768469495,117.50365715254313L156.05169643441837,117.55978331786227L156.53942726572356,117.97090536594905L156.93847976406414,118.30666726142732L157.02715809702875,118.38120680026205L157.13800601323445,118.47433964785847L157.49271934509275,118.77207250170673L157.53705851157505,118.80925639293847L157.7587543439865,118.99507225001611L157.8917718434334,119.10647397767295L157.93611100991566,119.14359516419773L158.0691285093625,119.25490965052313L158.11346767584484,119.2919981215486L158.15780684232712,119.32908113999088L158.42384184122088,119.55142385202291L158.46818100770315,119.58845507092465L158.51252017418543,119.62547811095158L159.02242058873176,120.05070326552283L159.22194683790207,120.21682166573785L159.2884555876255,120.2721572064909L159.6431689194838,120.5669947386522L159.8870343351364,120.76940008016018L159.93137350161868,120.80617502765082L160.0643910010656,120.91645079687385L160.35259558320047,121.15513490079994L160.46344349940617,121.24684462417736L160.6186305820942,121.37515208609096L160.75164808154105,121.48504890078055L161.03985266367593,121.72290148576644L161.61626182794572,122.1975324968449L162.12616224249206,122.61618456235101L162.21484057545663,122.68887567547603L162.23701015869776,122.70704368274696L162.3921972413858,122.83414885006175L162.76908015648524,123.14238337918124L163.01294557213782,123.34148172896957L163.25681098779043,123.54030472330558L163.41199807047843,123.6666819707612L163.5450155699253,123.77491574757039L164.0770855677128,124.2070057044088L165.29641264597575,125.19199850437079L165.38509097894033,125.2633455557334L165.6732955610752,125.49494402777216L166.0058393096924,125.76164623054632L166.18319597562154,125.9036533077865L166.2053655588627,125.9213905609835L166.29404389182727,125.99232321602182L166.51573972423873,126.1694721920799L166.73743555665018,126.3463621704353L166.7596051398913,126.36403671892532L166.78177472313246,126.38170854112371L166.9591313890616,126.52298769850478L167.4025230538845,126.87545358266087L167.93459305167198,127.29699824356229L168.08978013436,127.41965682926559L168.15628888408344,127.47218156337152L168.3779847164949,127.64709225402004L168.5775109656652,127.80427659663798L168.64401971538862,127.85662139549783L168.86571554780008,128.0309213968263L168.97656346400578,128.11796916155527L169.774668460687,128.74261436832452L169.9741947098573,128.898198377769L170.0185338763396,128.93274049243328L170.10721220930415,129.00178927997098L170.24022970875106,129.10527658309186L170.30673845847448,129.15698070342398L170.46192554116251,129.27752096054843L170.63928220709164,129.41510871909324L170.7057909568151,129.46665471451215L170.88314762274425,129.60397802277103L170.97182595570882,129.6725715196103L171.0605042886734,129.7411159432006L171.57040470321974,130.13431262396952L171.6590830361843,130.20253261885858L171.81427011887234,130.32179969780242L171.9029484518369,130.38988610440273L172.1468138674895,130.5768688142883L172.41284886638323,130.78042465085454L172.76756219824154,131.0511399548746L173.32180177927017,131.47252921715443L173.65434552788736,131.72441129875136L173.9647196932634,131.9588505666449L174.14207635919252,132.09253427560807L174.3194330251217,132.2260080601175L174.45245052456858,132.32597844706498L174.47462010780973,132.34262790991065L175.0510292720795,132.77437980658976L175.3614034374555,133.0059346579628L175.9156430184841,133.41779553107517L176.29252593358356,133.6966515418346L176.5585609324773,133.8929009168933L176.62506968220077,133.94188419820136L176.75808718164762,134.03976079319446L177.15713967998823,134.33264084798176L177.20147884647054,134.3651137073161L177.60053134481112,134.65673694167245L177.68920967777572,134.72138822084756L178.15477092583973,135.0598764079331L178.24344925880433,135.12417326919928L178.39863634149233,135.23655373554314L178.68684092362722,135.4447960673823L178.8198584230741,135.54070155354333L179.13023258845013,135.76397393101342L179.39626758734386,135.95478162802402L179.728811335961,136.19254969797007L179.9061680018902,136.31902236563195L179.92833758513132,136.33481304662135L180.41606841643653,136.68130289957426L180.50474674940108,136.74410575303963L180.8151209147771,136.96344681801205L181.08115591367084,137.15086300826317L181.103325496912,137.16645739625685L181.25851257960002,137.27550360796496L181.56888674497606,137.49303986789337L181.70190424442293,137.58604185349265L181.85709132711094,137.69436559792484L181.9014304935932,137.72528174475144L182.10095674276351,137.8642081124754L182.14529590924582,137.8950397442622L182.16746549248694,137.91044874442656L182.5886875740687,138.20248910139878L182.65519632379213,138.24847073564723L182.85472257296246,138.38620844023043L183.14292715509734,138.5845993173467L183.6749971528848,138.9491031420947L184.0297104847431,139.19082978745453L184.2735759003957,139.35642065024354L184.67262839873632,139.62633306138525L184.89432423114775,139.77571612056897L184.91649381438893,139.79063166195243L185.04951131383578,139.88004175835908L185.2046983965238,139.98416701371607L185.2933767294884,140.0435756341304L185.3155463127295,140.05841756564047L185.33771589597066,140.0732567708589L185.82544672727585,140.39864921620887L185.847616310517,140.41339300122104L185.93629464348157,140.47232315745828L185.98063380996385,140.50176301737955L186.18016005913415,140.63403859672755L186.26883839209876,140.6927192972827L186.91175630609195,141.116146462539L186.9339258893331,141.13068304938903L187.1334521385034,141.2613323957933L187.19996088822683,141.30480584176303L187.35514797091486,141.40609575384843L187.57684380332628,141.55043108412127L187.59901338656744,141.56484226155737L187.64335255304974,141.59364962182573L187.75420046925544,141.66559373105034L187.88721796870232,141.7517840770688L187.9758963016669,141.80915888394412L188.0202354681492,141.8378203876115L188.3749488000075,142.0664921856098L188.50796629945438,142.15195870120655L188.5301358826955,142.16618721710498L188.70749254862469,142.2798640351081L189.12871463020642,142.5487281871268L189.5055975453059,142.78795073364532L190.08200670957567,143.15135041029242L190.591907124122,143.47031289688658L190.88011170625688,143.64954748602426L190.9466204559803,143.69080173062568L191.6338775364558,144.1147087232048L191.65604711969695,144.12831019203355L192.01076045155526,144.34531755139014L192.0329300347964,144.35884132090808L192.25462586720784,144.49382956040532L192.3211346169313,144.53423729146266L192.36547378341356,144.56115124220977L192.60933919906617,144.7088549057634L192.74235669851305,144.78918372482622L192.80886544823647,144.82928611122355L192.89754378120102,144.88269143751862L193.29659627954166,145.12209391928326L193.3187658627828,145.13534914907785L193.40744419574736,145.1883264475906L193.47395294547078,145.22801034822623L193.51829211195312,145.25444174535883L193.82866627732915,145.43894352988178L193.9173446102937,145.49148871117475L194.1612100259463,145.63560048553578L194.22771877566973,145.6748045588485L194.67111044049264,145.9350768028669L194.8484671064218,146.03865407361081L195.07016293883322,146.16769627111256L195.09233252207437,146.18057390951958L195.33619793772695,146.3219157716076L195.8460983522733,146.61557009321135L195.95694626847904,146.6790708773282L196.3338291835785,146.8940675966244L197.30929084618887,147.44398923987544L197.33146042943002,147.45637750893894L197.42013876239457,147.50588014879818L197.50881709535915,147.55530508934663L197.9078695936998,147.7767344936902L198.04088709314664,147.85018760531946L198.99417917251586,148.37135777728005L199.17153583844504,148.467298705232L199.34889250437416,148.56291656762846L199.37106208761531,148.57484681970192L199.7479450027148,148.7768772961139L200.03614958484968,148.93038523449943L200.12482791781426,148.97744511707853L200.36869333346684,149.10644096762297L200.6347283323606,149.24645921513567L200.70123708208402,149.2813489319799L200.74557624856632,149.30458375220294L200.8342545815309,149.35098932479633L201.01161124746005,149.44355783003004L202.34178624192873,150.12728586536656L202.4748037413756,150.19463072064968L202.49697332461676,150.2058364607285L202.8738562397162,150.39553728334653L203.02904332240422,150.47320933123805L203.53894373695056,150.72660314153126L203.62762206991513,150.77038738474423L203.8714874855677,150.89035648377694L203.93799623529114,150.92296429454586L204.31487915039062,151.10684039514493L204.44789664983747,151.17137035434354L204.73610123197236,151.31052845685412L205.17949289679527,151.52285341037518L205.37901914596557,151.6176997322468L205.73373247782388,151.785239893535L205.77807164430618,151.8060858007372L205.97759789347649,151.8996235026373L206.1771241426468,151.99272295316155L206.35448080857594,152.07510944081494L206.79787247339885,152.27955609316388L206.84221163988113,152.29988127866906L206.90872038960458,152.3303278217663L206.95305955608686,152.35059848143936L207.08607705553374,152.41127823531556L207.35211205442747,152.53204886408085L207.3742816376686,152.54207752775824L207.52946872035662,152.61212413802417L207.59597747008004,152.6420622277367L207.7068253862858,152.69184908349598L207.8620124689738,152.76131976465987L207.90635163545608,152.78111877588486L209.03700038075445,153.27853749536283L209.28086579640706,153.38393388418172L209.3473745461305,153.41256130920402L209.4582224623362,153.4601623606672L209.81293579419452,153.61154788103644L209.90161412715912,153.64917070521696L209.92378371040027,153.65856209823113L209.96812287688255,153.67732920808277L210.189818709294,153.77082533403586L210.27849704225858,153.80806715896426L210.36717537522316,153.84521901626965L210.56670162439346,153.92848200667478L210.5888712076346,153.93770505118223L210.69971912384034,153.9837371218254L210.78839745680492,154.0204609513484L210.81056704004607,154.02962810687794L211.14311078866322,154.16645454849137L211.8303678691387,154.44519401028458L212.09640286803247,154.55162775306005L212.25158995072044,154.6133353188722L212.3624378669262,154.6572415636346L212.67281203230223,154.77941827729634L212.87233828147254,154.85736840693178L213.2048820300897,154.98625316109323L213.4487474457423,155.07994762476073L213.6039345284303,155.13920902542827L213.62610411167145,155.14765166896314L213.82563036084173,155.22337782621995L214.66807452400525,155.53794996096704L214.7345832737287,155.56242831094949L214.77892244021098,155.57871790330302L214.8454311899344,155.6031093527405L214.86760077317555,155.61122790836052L214.95627910614016,155.6436448787169L215.66570576985677,155.89962525817253L215.97607993523278,156.00973642753976L216.57465868274372,156.2188501503339L216.70767618219057,156.2647384090948L216.79635451515514,156.29521289668102L217.19540701349575,156.43118123801108L217.30625492970148,156.46861117706038L217.63879867831866,156.580014267863L217.7053074280421,156.6021353979645L217.77181617776552,156.6242030245932L218.23737742582958,156.77718240319336L218.48124284148219,156.85626939642907L218.76944742361707,156.94880757166868L218.7916170068582,156.95588434310827L219.01331283926964,157.02632285779276L219.07982158899307,157.04733813586105L219.16849992195765,157.07527478674734L219.54538283705713,157.19293914701254L219.5897220035394,157.20666806997394L219.65623075326283,157.2272171521774L220.1217920013269,157.36954865811884L220.16613116780917,157.3829661022641L220.27697908401487,157.41640440961388L220.52084449966748,157.4894397170543L220.69820116559666,157.54209872102192L220.7868794985612,157.56828407033694L221.1637624136607,157.67849406777498L221.29677991310754,157.71697533302532L221.518475745519,157.78062708553992L221.5628149120013,157.79328491668608L221.69583241144818,157.83111289431008L221.80668032765388,157.8624696780177L221.9175282438596,157.8936751525411L221.98403699358306,157.91232571342653L222.31658074220022,158.00475892643922L222.33875032544137,158.01087263536857L222.93732907295225,158.17364263831018L223.11468573888143,158.22101825953607L223.3363815712929,158.27968907728416L223.58024698694547,158.3435217874042L224.0458082350095,158.46332986483887L224.422691150109,158.55833942342045L224.4448607333501,158.56387294341712L225.15428739706675,158.73770538573496L225.1764569803079,158.74303630818653L225.30947447975475,158.77489183286508L226.46229280829428,159.04167275730939L226.5066319747766,159.0515998666244L226.66181905746458,159.08614981937706L226.728327807188,159.10086412636124L226.88351488987604,159.13498059874834L227.48209363738695,159.26372614164458L227.947654885451,159.36073100489625L228.16935071786244,159.40595950108818L228.52406404972075,159.4770294930662L228.56840321620305,159.48580116591944L228.61274238268533,159.4945477909685L228.72359029889108,159.51630513153364L229.43301696260772,159.6518555834783L229.54386487881342,159.67245714679518L229.78773029446603,159.71723001150224L229.80989987770715,159.72126262277249L229.8320694609483,159.7252890998866L229.89857821067173,159.73733078912952L230.25329154253006,159.8006007756225L230.85187029004098,159.90372769707156L230.9183790397644,159.91490370353253L231.36177070458731,159.98796448476017L231.49478820403417,160.00939219963067L231.51695778727532,160.0129414053203L232.09336695154508,160.1030115198858L232.24855403423308,160.12653328230053L232.4037411169211,160.1497460366009L233.13533736387888,160.25501147822604L233.20184611360233,160.26423997531668L233.62306819518406,160.321365198715L233.6452377784252,160.3243085286932L233.84476402759552,160.35051368622072L233.99995111028355,160.37054098176952L234.06645986000697,160.37902907769725L234.22164694269497,160.39861296747512L234.28815569241843,160.40691103235818L234.70937777400016,160.4581405649591L234.77588652372359,160.46602018667875L235.0197519393762,160.4944235446096L235.26361735502877,160.52205894027327L235.48531318744023,160.5465152669313L235.52965235392253,160.55133032389284L235.55182193716365,160.553728310353L235.6183306868871,160.56088418684752L236.1504006846746,160.61607169848594L236.2612486008803,160.62710811029697L236.28341818412144,160.62929630009828L236.37209651708602,160.63798546003204L236.79331859866778,160.67786852904908L236.81548818190893,160.6799039826229L237.01501443107924,160.6979364846813L237.19237109700836,160.71353229971822L237.45840609590212,160.7361614785206L238.2786806758245,160.80015582791412L238.34518942554791,160.8049618540347L238.54471567471822,160.81903537599538L238.56688525795937,160.82056718979308L238.69990275740622,160.8296240263587L238.74424192388852,160.83259191426052L238.94376817305883,160.84563136233425L239.7197035864989,160.89142261410197L239.83055150270462,160.8973253229703L240.34045191725096,160.92241966043713L240.40696066697438,160.92544351186393L240.47346941669784,160.92840981297886L240.67299566586811,160.9369634144522L241.29374399662018,160.96026152777137L241.82581399440767,160.9762391647402L242.04750982681912,160.98180863371385L243.26683690508207,161.00099905059022L243.39985440452895,161.00192101155884L243.48853273749353,161.00216184050146L243.55504148721695,161.00216184050146L243.79890690286953,161.00216184050146L243.86541565259296,161.00216184050146" fill="none"></path></g></g></g></g></g></g><g transform="translate(63, 175)" clip-path="url(#clip_1)"><clipPath id="clip_1"><rect width="266" height="24"></rect></clipPath><g><g><line x1="0" y1="0" x2="0" y2="5" style="visibility: inherit;" fill="rgb(0, 0, 0)" stroke="rgb(204, 204, 204)" stroke-width="1px"></line><line x1="22.169583241144814" y1="0" x2="22.169583241144814" y2="5" style="visibility: inherit;" fill="rgb(0, 0, 0)" stroke="rgb(204, 204, 204)" stroke-width="1px"></line><line x1="44.33916648228963" y1="0" x2="44.33916648228963" y2="5" style="visibility: inherit;" fill="rgb(0, 0, 0)" stroke="rgb(204, 204, 204)" stroke-width="1px"></line><line x1="66.50874972343445" y1="0" x2="66.50874972343445" y2="5" style="visibility: inherit;" fill="rgb(0, 0, 0)" stroke="rgb(204, 204, 204)" stroke-width="1px"></line><line x1="88.67833296457925" y1="0" x2="88.67833296457925" y2="5" style="visibility: inherit;" fill="rgb(0, 0, 0)" stroke="rgb(204, 204, 204)" stroke-width="1px"></line><line x1="110.84791620572409" y1="0" x2="110.84791620572409" y2="5" style="visibility: inherit;" fill="rgb(0, 0, 0)" stroke="rgb(204, 204, 204)" stroke-width="1px"></line><line x1="133.0174994468689" y1="0" x2="133.0174994468689" y2="5" style="visibility: inherit;" fill="rgb(0, 0, 0)" stroke="rgb(204, 204, 204)" stroke-width="1px"></line><line x1="155.18708268801373" y1="0" x2="155.18708268801373" y2="5" style="visibility: inherit;" fill="rgb(0, 0, 0)" stroke="rgb(204, 204, 204)" stroke-width="1px"></line><line x1="177.3566659291585" y1="0" x2="177.3566659291585" y2="5" style="visibility: inherit;" fill="rgb(0, 0, 0)" stroke="rgb(204, 204, 204)" stroke-width="1px"></line><line x1="199.52624917030334" y1="0" x2="199.52624917030334" y2="5" style="visibility: inherit;" fill="rgb(0, 0, 0)" stroke="rgb(204, 204, 204)" stroke-width="1px"></line><line x1="221.69583241144818" y1="0" x2="221.69583241144818" y2="5" style="visibility: inherit;" fill="rgb(0, 0, 0)" stroke="rgb(204, 204, 204)" stroke-width="1px"></line><line x1="243.86541565259296" y1="0" x2="243.86541565259296" y2="5" style="visibility: inherit;" fill="rgb(0, 0, 0)" stroke="rgb(204, 204, 204)" stroke-width="1px"></line><line x1="266.0349988937378" y1="0" x2="266.0349988937378" y2="5" style="visibility: inherit;" fill="rgb(0, 0, 0)" stroke="rgb(204, 204, 204)" stroke-width="1px"></line></g><g transform="translate(0, 8)"><text style="text-anchor: middle; visibility: hidden; font-family: Roboto, sans-serif; font-size: 12px; font-weight: 200;" x="0" y="0" dx="0em" dy="0.95em" fill="rgb(33, 33, 33)" stroke="none" stroke-width="1px">-1k</text><text style="text-anchor: middle; visibility: inherit; font-family: Roboto, sans-serif; font-size: 12px; font-weight: 200;" x="22.169583241144814" y="0" dx="0em" dy="0.95em" fill="rgb(33, 33, 33)" stroke="none" stroke-width="1px">0</text><text style="text-anchor: middle; visibility: inherit; font-family: Roboto, sans-serif; font-size: 12px; font-weight: 200;" x="44.33916648228963" y="0" dx="0em" dy="0.95em" fill="rgb(33, 33, 33)" stroke="none" stroke-width="1px">1k</text><text style="text-anchor: middle; visibility: inherit; font-family: Roboto, sans-serif; font-size: 12px; font-weight: 200;" x="66.50874972343445" y="0" dx="0em" dy="0.95em" fill="rgb(33, 33, 33)" stroke="none" stroke-width="1px">2k</text><text style="text-anchor: middle; visibility: inherit; font-family: Roboto, sans-serif; font-size: 12px; font-weight: 200;" x="88.67833296457925" y="0" dx="0em" dy="0.95em" fill="rgb(33, 33, 33)" stroke="none" stroke-width="1px">3k</text><text style="text-anchor: middle; visibility: inherit; font-family: Roboto, sans-serif; font-size: 12px; font-weight: 200;" x="110.84791620572409" y="0" dx="0em" dy="0.95em" fill="rgb(33, 33, 33)" stroke="none" stroke-width="1px">4k</text><text style="text-anchor: middle; visibility: inherit; font-family: Roboto, sans-serif; font-size: 12px; font-weight: 200;" x="133.0174994468689" y="0" dx="0em" dy="0.95em" fill="rgb(33, 33, 33)" stroke="none" stroke-width="1px">5k</text><text style="text-anchor: middle; visibility: inherit; font-family: Roboto, sans-serif; font-size: 12px; font-weight: 200;" x="155.18708268801373" y="0" dx="0em" dy="0.95em" fill="rgb(33, 33, 33)" stroke="none" stroke-width="1px">6k</text><text style="text-anchor: middle; visibility: inherit; font-family: Roboto, sans-serif; font-size: 12px; font-weight: 200;" x="177.3566659291585" y="0" dx="0em" dy="0.95em" fill="rgb(33, 33, 33)" stroke="none" stroke-width="1px">7k</text><text style="text-anchor: middle; visibility: inherit; font-family: Roboto, sans-serif; font-size: 12px; font-weight: 200;" x="199.52624917030334" y="0" dx="0em" dy="0.95em" fill="rgb(33, 33, 33)" stroke="none" stroke-width="1px">8k</text><text style="text-anchor: middle; visibility: inherit; font-family: Roboto, sans-serif; font-size: 12px; font-weight: 200;" x="221.69583241144818" y="0" dx="0em" dy="0.95em" fill="rgb(33, 33, 33)" stroke="none" stroke-width="1px">9k</text><text style="text-anchor: middle; visibility: inherit; font-family: Roboto, sans-serif; font-size: 12px; font-weight: 200;" x="243.86541565259296" y="0" dx="0em" dy="0.95em" fill="rgb(33, 33, 33)" stroke="none" stroke-width="1px">10k</text><text style="text-anchor: middle; visibility: hidden; font-family: Roboto, sans-serif; font-size: 12px; font-weight: 200;" x="266.0349988937378" y="0" dx="0em" dy="0.95em" fill="rgb(33, 33, 33)" stroke="none" stroke-width="1px">11k</text></g><line x1="0" y1="0" x2="266.0349988937378" y2="0" fill="rgb(0, 0, 0)" stroke="rgb(204, 204, 204)" stroke-width="1px"></line></g></g></g></g></svg>