<svg viewBox="0 0 330 200" xmlns="http://www.w3.org/2000/svg"><g><g><g><g><g><line x1="53.172000885009766" y1="175.63999938964844" x2="48.172000885009766" y2="175.63999938964844" style="visibility: inherit;" fill="rgb(0, 0, 0)" stroke="rgb(204, 204, 204)" stroke-width="1px"></line><line x1="53.172000885009766" y1="153.68499946594238" x2="48.172000885009766" y2="153.68499946594238" style="visibility: inherit;" fill="rgb(0, 0, 0)" stroke="rgb(204, 204, 204)" stroke-width="1px"></line><line x1="53.172000885009766" y1="131.72999954223633" x2="48.172000885009766" y2="131.72999954223633" style="visibility: inherit;" fill="rgb(0, 0, 0)" stroke="rgb(204, 204, 204)" stroke-width="1px"></line><line x1="53.172000885009766" y1="109.77499961853027" x2="48.172000885009766" y2="109.77499961853027" style="visibility: inherit;" fill="rgb(0, 0, 0)" stroke="rgb(204, 204, 204)" stroke-width="1px"></line><line x1="53.172000885009766" y1="87.81999969482422" x2="48.172000885009766" y2="87.81999969482422" style="visibility: inherit;" fill="rgb(0, 0, 0)" stroke="rgb(204, 204, 204)" stroke-width="1px"></line><line x1="53.172000885009766" y1="65.86499977111816" x2="48.172000885009766" y2="65.86499977111816" style="visibility: inherit;" fill="rgb(0, 0, 0)" stroke="rgb(204, 204, 204)" stroke-width="1px"></line><line x1="53.172000885009766" y1="43.90999984741211" x2="48.172000885009766" y2="43.90999984741211" style="visibility: inherit;" fill="rgb(0, 0, 0)" stroke="rgb(204, 204, 204)" stroke-width="1px"></line><line x1="53.172000885009766" y1="21.954999923706055" x2="48.172000885009766" y2="21.954999923706055" style="visibility: inherit;" fill="rgb(0, 0, 0)" stroke="rgb(204, 204, 204)" stroke-width="1px"></line><line x1="53.172000885009766" y1="0" x2="48.172000885009766" y2="0" style="visibility: inherit;" fill="rgb(0, 0, 0)" stroke="rgb(204, 204, 204)" stroke-width="1px"></line></g><g transform="translate(43.172000885009766, 0)"><text style="text-anchor: end; visibility: hidden; font-family: Roboto, sans-serif; font-size: 12px; font-weight: 200;" x="0" y="175.63999938964844" dx="0em" dy="0.3em" fill="rgb(33, 33, 33)" stroke="none" stroke-width="1px">-0.5</text><text style="text-anchor: end; visibility: inherit; font-family: Roboto, sans-serif; font-size: 12px; font-weight: 200;" x="0" y="153.68499946594238" dx="0em" dy="0.3em" fill="rgb(33, 33, 33)" stroke="none" stroke-width="1px">0</text><text style="text-anchor: end; visibility: hidden; font-family: Roboto, sans-serif; font-size: 12px; font-weight: 200;" x="0" y="131.72999954223633" dx="0em" dy="0.3em" fill="rgb(33, 33, 33)" stroke="none" stroke-width="1px">0.5</text><text style="text-anchor: end; visibility: inherit; font-family: Roboto, sans-serif; font-size: 12px; font-weight: 200;" x="0" y="109.77499961853027" dx="0em" dy="0.3em" fill="rgb(33, 33, 33)" stroke="none" stroke-width="1px">1</text><text style="text-anchor: end; visibility: hidden; font-family: Roboto, sans-serif; font-size: 12px; font-weight: 200;" x="0" y="87.81999969482422" dx="0em" dy="0.3em" fill="rgb(33, 33, 33)" stroke="none" stroke-width="1px">1.5</text><text style="text-anchor: end; visibility: inherit; font-family: Roboto, sans-serif; font-size: 12px; font-weight: 200;" x="0" y="65.86499977111816" dx="0em" dy="0.3em" fill="rgb(33, 33, 33)" stroke="none" stroke-width="1px">2</text><text style="text-anchor: end; visibility: hidden; font-family: Roboto, sans-serif; font-size: 12px; font-weight: 200;" x="0" y="43.90999984741211" dx="0em" dy="0.3em" fill="rgb(33, 33, 33)" stroke="none" stroke-width="1px">2.5</text><text style="text-anchor: end; visibility: inherit; font-family: Roboto, sans-serif; font-size: 12px; font-weight: 200;" x="0" y="21.954999923706055" dx="0em" dy="0.3em" fill="rgb(33, 33, 33)" stroke="none" stroke-width="1px">3</text><text style="text-anchor: end; visibility: hidden; font-family: Roboto, sans-serif; font-size: 12px; font-weight: 200;" x="0" y="0" dx="0em" dy="0.3em" fill="rgb(33, 33, 33)" stroke="none" stroke-width="1px">3.5</text></g><line x1="53.172000885009766" y1="0" x2="53.172000885009766" y2="175.63999938964844" fill="rgb(0, 0, 0)" stroke="rgb(204, 204, 204)" stroke-width="1px"></line></g></g><g transform="translate(53, 0)" clip-path="url(#clip_0)"><clipPath id="clip_0"><rect width="276" height="175"></rect></clipPath><g><g><g><line x1="0" y1="0" x2="0" y2="175.63999938964844" fill="rgb(0, 0, 0)" stroke="rgb(66, 66, 66)" stroke-width="1px" opacity="0.25"></line><line x1="23.068999926249184" y1="0" x2="23.068999926249184" y2="175.63999938964844" fill="rgb(0, 0, 0)" stroke="rgb(66, 66, 66)" stroke-width="1px" opacity="0.25"></line><line x1="46.13799985249837" y1="0" x2="46.13799985249837" y2="175.63999938964844" fill="rgb(0, 0, 0)" stroke="rgb(66, 66, 66)" stroke-width="1px" opacity="0.25"></line><line x1="69.20699977874756" y1="0" x2="69.20699977874756" y2="175.63999938964844" fill="rgb(0, 0, 0)" stroke="rgb(66, 66, 66)" stroke-width="1px" opacity="0.25"></line><line x1="92.27599970499674" y1="0" x2="92.27599970499674" y2="175.63999938964844" fill="rgb(0, 0, 0)" stroke="rgb(66, 66, 66)" stroke-width="1px" opacity="0.25"></line><line x1="115.34499963124594" y1="0" x2="115.34499963124594" y2="175.63999938964844" fill="rgb(0, 0, 0)" stroke="rgb(66, 66, 66)" stroke-width="1px" opacity="0.25"></line><line x1="138.41399955749512" y1="0" x2="138.41399955749512" y2="175.63999938964844" fill="rgb(0, 0, 0)" stroke="rgb(66, 66, 66)" stroke-width="1px" opacity="0.25"></line><line x1="161.48299948374432" y1="0" x2="161.48299948374432" y2="175.63999938964844" fill="rgb(0, 0, 0)" stroke="rgb(66, 66, 66)" stroke-width="1px" opacity="0.25"></line><line x1="184.55199940999347" y1="0" x2="184.55199940999347" y2="175.63999938964844" fill="rgb(0, 0, 0)" stroke="rgb(66, 66, 66)" stroke-width="1px" opacity="0.25"></line><line x1="207.62099933624268" y1="0" x2="207.62099933624268" y2="175.63999938964844" fill="rgb(0, 0, 0)" stroke="rgb(66, 66, 66)" stroke-width="1px" opacity="0.25"></line><line x1="230.68999926249188" y1="0" x2="230.68999926249188" y2="175.63999938964844" fill="rgb(0, 0, 0)" stroke="rgb(66, 66, 66)" stroke-width="1px" opacity="0.25"></line><line x1="253.75899918874103" y1="0" x2="253.75899918874103" y2="175.63999938964844" fill="rgb(0, 0, 0)" stroke="rgb(66, 66, 66)" stroke-width="1px" opacity="0.25"></line><line x1="276.82799911499023" y1="0" x2="276.82799911499023" y2="175.63999938964844" fill="rgb(0, 0, 0)" stroke="rgb(66, 66, 66)" stroke-width="1px" opacity="0.25"></line></g><g><line x1="0" y1="175.63999938964844" x2="276.82799911499023" y2="175.63999938964844" fill="rgb(0, 0, 0)" stroke="rgb(66, 66, 66)" stroke-width="1px" opacity="0.25"></line><line x1="0" y1="153.68499946594238" x2="276.82799911499023" y2="153.68499946594238" fill="rgb(0, 0, 0)" stroke="rgb(66, 66, 66)" stroke-width="1px" opacity="0.25"></line><line x1="0" y1="131.72999954223633" x2="276.82799911499023" y2="131.72999954223633" fill="rgb(0, 0, 0)" stroke="rgb(66, 66, 66)" stroke-width="1px" opacity="0.25"></line><line x1="0" y1="109.77499961853027" x2="276.82799911499023" y2="109.77499961853027" fill="rgb(0, 0, 0)" stroke="rgb(66, 66, 66)" stroke-width="1px" opacity="0.25"></line><line x1="0" y1="87.81999969482422" x2="276.82799911499023" y2="87.81999969482422" fill="rgb(0, 0, 0)" stroke="rgb(66, 66, 66)" stroke-width="1px" opacity="0.25"></line><line x1="0" y1="65.86499977111816" x2="276.82799911499023" y2="65.86499977111816" fill="rgb(0, 0, 0)" stroke="rgb(66, 66, 66)" stroke-width="1px" opacity="0.25"></line><line x1="0" y1="43.90999984741211" x2="276.82799911499023" y2="43.90999984741211" fill="rgb(0, 0, 0)" stroke="rgb(66, 66, 66)" stroke-width="1px" opacity="0.25"></line><line x1="0" y1="21.954999923706055" x2="276.82799911499023" y2="21.954999923706055" fill="rgb(0, 0, 0)" stroke="rgb(66, 66, 66)" stroke-width="1px" opacity="0.25"></line><line x1="0" y1="0" x2="276.82799911499023" y2="0" fill="rgb(0, 0, 0)" stroke="rgb(66, 66, 66)" stroke-width="1px" opacity="0.25"></line></g></g></g><g><g><line x1="0" y1="153.68499946594238" x2="276.82799911499023" y2="153.68499946594238" fill="rgb(0, 0, 0)" stroke="rgb(153, 153, 153)" stroke-width="1.5px"></line></g></g><g><g><line x1="23.068999926249184" y1="0" x2="23.068999926249184" y2="175.63999938964844" fill="rgb(0, 0, 0)" stroke="rgb(153, 153, 153)" stroke-width="1.5px"></line></g></g><g><g><g><g><g><path style="fill: none;" stroke="rgb(255, 112, 67)" stroke-width="2px" d="M37.90236687882741,-4.311408771010159L37.94850487867991,3.281735329196375L38.01771187845866,8.143248413311122L38.06384987831116,9.661570239583197L38.34067787742615,13.01687281324188L38.57136787668864,2.390619594531925L39.563334873517356,-2.0352927667467755L39.74788687292735,9.863291945172012L39.932438872337336,15.123356620100004L40.14005987167358,17.72047022558285L40.43995687071482,28.662845923096278L40.53223287041982,28.09463840130569L40.73985386975606,24.107802333212927L40.832129869461056,28.418414498105818L40.87826786931356,34.720475250315985L40.92440586916606,37.64670756948139L41.0858888686498,40.019462324437086L41.20123386828105,41.742276171854314L41.24737186813354,38.64044061467077L41.36271686776479,33.33175169926245L41.40885486761729,35.47739966724702L41.50113086732229,33.478506599106076L41.593406867027284,23.841624690740378L41.731820866584776,26.223609134293888L41.75488986651103,27.1642260106199L42.285476864814754,30.844426569923865L42.37775286451975,36.538928263935446L43.13902986208598,42.463891539692575L43.30051286156972,45.6591727977176L43.43892686112722,42.81763819992855L43.761892860094704,51.626266606685725L43.85416885979971,49.53191578331758L44.015651859283444,53.370187878098264L44.06178985913595,44.52389323151078L44.24634185854594,54.244517575416424L44.56930785751343,54.055883535690704L44.592376857439675,65.59453808570824L44.82306685670216,55.913391105963036L44.89227385648091,51.41290413122126L45.099894855817155,50.14473214251039L45.28444685522715,62.20517235718313L45.492067854563395,62.6314200301595L45.51513685448964,57.623208157242544L45.65355085404714,55.413218462065394L45.67661985397339,53.51818224276174L45.79196485360463,58.92209957536374L46.20720685227712,49.06582151092139L46.27641385205587,58.43532891113856L46.48403485139211,50.75254326230929L47.17610484917959,58.066799298922085L47.47600184822083,64.53450508193862L47.61441584777832,59.33168954217592L47.68362284755706,66.49149023385951L47.729760847409565,72.49891994406947L47.82203684711456,67.77370386420466L47.96045084667205,76.51808124086615L48.0757958463033,76.21803502531017L48.306485845565796,85.3500213856265L48.44489984512329,73.31064017309396L48.560244844754536,54.51232851765699L48.79093484401702,51.83437086767506L49.75983284091949,59.550565086841175L49.852108840624496,55.69767714800111L49.87517784055074,65.25503121173796L49.898246840476986,71.10374794035434L50.31348883914947,79.28612061570388L50.61338583819071,77.93909285715682L50.913282837231954,82.0307513833657L51.51307683531443,65.68456677011389L51.78990483442942,73.07492810884212L52.04366383361816,77.57604575260584L52.11287083339691,73.90066757867231L52.18207783317566,79.65295562316116L52.643457831700644,84.62887699802346L52.781871831258144,81.72645234248611L52.94335483074188,79.17304177958536L53.08176883029938,86.65672959478024L53.45087282911936,87.61530151858177L53.52007982889811,90.81224070714792L53.77383882808685,92.35492869669004L53.8430458278656,89.27778078502566L53.91225282764435,93.15786228027379L53.9353218275706,79.61205360471592L55.04263382403056,87.63232746039397L55.11184082380931,82.17398997843623L55.18104782358805,89.41799726410926L55.2041168235143,87.3382693717722L55.711634821891785,83.4613669564191L55.98846282100678,91.14321604249767L56.219152820269265,99.68048020461553L56.31142881997426,93.68168786162613L56.88815381813049,103.56167554680925L56.91122281805674,103.19308298998052L57.16498181724548,109.71943165912018L57.34953381665547,112.43856338215744L57.44180981636047,108.10176382649017L57.48794781621297,90.91714339516818L58.22615581385295,93.8576621593573L58.31843181355794,97.81737290822757L58.89515681171417,100.27226094174763L59.264260810534154,92.54701495318629L59.28732981046041,98.38400969578997L59.63336480935415,99.68162786706733L59.72564080905914,96.18454159627619L60.094744807879124,100.34398072239527L60.11781380780538,108.08437528946038L60.625331806182864,98.97806050277576L60.74067680581411,102.85697233529848L60.85602180544535,104.79172506819543L60.9252288052241,101.94860997837822L61.04057380485535,102.98704891360858L61.10978080463409,97.51878571968136L61.386608803749084,100.9519318373054L61.57116080315908,103.1232092398536L61.732643802642826,110.31968177662446L61.894126802126564,108.60881799755445L62.10174780146281,115.48460557270796L62.1940238011678,119.6672302629872L62.24016180102031,110.95947380967763L62.286299800872804,106.15749790710929L62.355506800651554,110.34974459959396L62.51698980013529,109.71927908078948L62.724610799471535,108.48324858230191L62.95530079873403,111.51795995148308L63.04757679843903,106.9328554140269L63.09371479829152,115.77939007861953L63.16292179807027,109.61758555254751L63.27826679770152,103.49408271746749L63.34747379748026,109.69051829748787L63.370542797406515,114.19021831160646L63.8319227959315,108.96947461163974L64.03954379526775,104.69311447046394L64.17795779482523,109.93744388168938L64.33944079430898,108.54081449343118L64.36250979423524,110.6844636048758L64.57013079357148,99.79738014956733L64.73161379305522,96.80306896789645L65.21606279150645,98.39232810284096L65.30833879121144,96.44402193770273L65.53902879047394,103.09402791176603L65.63130479017893,106.03958106800978L65.83892578951517,100.25569415407328L66.13882278855641,104.13169070790495L66.20802978833517,113.01842860916416L66.34644378789265,116.04354812490404L66.39258178774516,118.75164722840046L67.17692778523764,112.94950837188584L67.31534178479512,116.33016755427333L67.70751478354137,116.36594313654817L67.93820478280385,114.9956565986596L68.00741178258261,106.17999000613317L68.0535497824351,109.38187119481601L68.46879178110758,113.99052425934327L68.79175778007507,117.59936350265971L68.83789577992758,117.58869794762954L69.25313777860005,117.0367736836458L69.34541377830506,119.68955741597279L69.52996577771505,117.24446376863993L69.92213877646128,118.1025551704269L70.06055277601878,118.87489617088264L70.61420877424875,114.94425222532925L70.91410577328999,117.37800288052907L70.98331277306875,113.86450911216082L71.006381772995,120.61265030815727L71.05251977284749,120.45080215311945L71.0986577727,115.65837317753609L71.19093377240499,120.40448600953647L71.28320977210998,114.44680377137887L71.44469277159372,114.70581024463021L71.79072777048748,116.9682053474555L72.57507376797994,118.4594775908755L72.66734976768494,118.03046191168147L72.82883276716868,111.56082202648508L73.03645376650492,116.4415741748416L73.3132817656199,107.59108894320303L73.5439717648824,112.76205232254591L73.59010976473489,115.99129638822467L73.63624776458741,111.89630995064583L73.75159276421866,117.74818807723045L73.8207997639974,118.41896053952856L74.00535176340739,113.90684204088262L74.09762776311238,112.85654764339556L74.55900776163736,117.48664640776636L74.67435276126861,120.0675542159631L74.69742176119486,123.44714509050213L74.74355976104736,127.26695102348786L74.81276676082611,123.66475998065341L74.90504276053112,124.30859056310031L74.92811176045736,126.77873116759514L75.0895947599411,121.35411613717866L75.15880175971985,125.58085102969802L75.27414675935108,120.84928984050129L75.71245775794984,124.62097358740968L75.94314775721232,125.84516152013386L76.08156175676982,127.70107574987053L76.2199757563273,124.17900240135555L76.31225175603231,121.61617938379908L76.5890797551473,124.23501435978558L76.61214875507355,124.7190175586285L77.18887375322977,128.79579934758902L77.39649475256603,132.8094988323879L78.20390974998473,134.60663277862565L78.226978749911,128.27168360364792L78.27311674976349,129.46519517566574L79.28815274651845,116.63259213635637L79.47270474592845,120.76945398532307L79.63418774541219,126.03373484235924L79.68032574526468,129.27618903744178L79.72646374511719,125.78440210530725L79.84180874474843,127.58076792078498L80.41853374290466,125.24480200628516L80.44160274283092,127.22377519547159L80.6722927420934,128.70938208463167L80.71843074194591,124.28542921236757L80.83377574157714,126.84004336415734L81.15674174054465,127.47214630812908L81.29515574010213,125.00659807158051L81.50277673943837,121.62349298270254L81.84881173833212,123.87732726403821L81.94108773803711,128.7505483833485L81.98722573788962,128.63010755324586L82.56395073604584,128.66936678984308L82.84077873516084,125.46643918108724L83.07146873442332,110.91097646771945L83.2098827339808,122.6733090208566L83.60205573272705,123.3529847589836L83.74046973228454,130.28092534918514L83.76353873221079,134.9517240032776L84.0865047311783,135.03247465904855L84.22491873073578,137.2406128272938L84.34026373036701,137.08215300573443L84.87085072867075,131.15564876544835L85.0323337281545,132.55540002027888L85.14767872778575,129.04552361544103L85.44757572682698,123.53130647884016L85.60905872631074,124.24818335604805L85.95509372520446,120.59658769479898L86.23192172431946,117.28536785077061L86.30112872409822,123.12412474772631L86.6240947230657,126.94322321463616L87.43150972048443,126.43188213362339L87.45457872041067,127.27652905724734L87.47764772033692,128.00713519617858L87.8928897190094,134.05341074817235L88.23892471790313,131.92013264235703L89.34623671436309,132.6482630161524L89.55385771369934,134.7965900336156L89.76147871303557,136.9131533264838L89.89989271259307,137.68007872308115L90.38434171104431,135.38728279873106L90.4304797108968,135.24369293210026L90.45354871082306,131.95162527356754L91.53779170735677,129.20901830233035L91.72234370676676,131.3706044054304L92.2529307050705,129.19772404046876L92.46055170440674,128.8557665929909L92.55282770411173,133.9651721154964L92.64510370381673,129.9336982203859L92.92193170293173,132.02524376113948L92.99113870271046,134.69353090581444L93.17569070212046,131.67318609289487L93.2448977018992,129.9661378122606L93.79855370012919,130.75241912201233L93.89082969983419,133.92960161763924L93.93696769968668,134.72583287180262L94.58289969762167,137.10202116451748L95.1134866959254,130.34482667499083L95.45952169481913,131.7562785017099L95.64407369422912,133.47688060514213L95.75941869386037,132.99253247610977L95.87476369349162,130.29322533435553L96.01317769304912,121.77940390590213L96.38228169186911,124.1960988309082L96.7975236905416,124.42233626440769L96.82059269046783,125.40484169153552L96.98207568995157,132.27086321365996L97.05128268973033,133.3024512505806L97.60493868796031,131.67106348149287L97.67414568773906,127.89257972198097L97.8356286872228,132.46361298529692L97.90483568700155,137.78769416936223L97.9279046869278,135.4375807805386L97.9740426867803,132.32852620377096L97.99711168670653,134.63486504965874L98.57383668486277,132.9002918726665L98.78145768419901,134.08362403143528L99.335113682429,137.15454963379995L99.51966568183899,132.94383520271634L99.84263168080649,138.3692263787992L99.86570068073273,143.04552605906395L100.25787367947898,140.57032704951467L100.92687467734018,141.78609876293953L100.9730126771927,140.38126752503467L101.20370267645518,139.23451769387012L101.59587567520141,141.3396197630042L101.71122067483266,139.0539548968214L102.21873867321015,140.67121786247804L102.40329067262014,139.8963246713743L102.65704967180888,142.94118708435917L102.70318767166138,144.8638159499694L102.86467067114512,141.32575826061458L103.00308467070262,141.9018047258799L103.16456767018636,140.65015409954228L103.30298166974384,141.38542100464673L103.3721886695226,141.03676932184072L103.76436166826885,143.8104110807224L104.04118966738383,136.84411970272458L104.11039666716258,139.62018975379277L104.27187966664631,140.5747800367215L104.64098366546631,136.3935544485238L104.6871216653188,137.2268795622019L104.8255356648763,137.5941784715071L104.9178116645813,142.36756704809463L105.28691566340129,139.42077475952794L105.67908866214752,141.58353415056024L106.14046866067251,136.76436921927743L106.555710659345,133.96506410784366L106.60184865919749,138.40112908339108L106.64798665904998,138.1486786776009L106.71719365882873,140.35471767276061L106.78640065860748,139.7413322570075L107.17857365735372,138.36349027345486L107.43233265654246,137.72904543574356L107.75529865550995,135.34875696566363L108.44736865329742,133.3830321124124L108.49350665314994,131.84651354539147L109.0471626513799,130.6317730376052L109.1394386510849,133.50699794953522L109.1855766509374,135.9941056647363L109.3239906504949,137.6820142140755L109.39319765027363,138.99757191129132L109.43933565012614,136.5835388420831L109.64695664946238,140.79210935260414L109.80843964894612,140.9128079798333L110.10833664798736,142.01520529437627L110.29288864739735,142.8855873698149L110.5927856464386,141.07275282619543L110.6389236462911,136.8894895726339L110.70813064606983,141.20391986429922L111.07723464488983,140.70039907970684L111.19257964452108,140.0121578718899L111.23871764437357,139.19204598858047L111.46940764363607,139.2157551934724L111.56168364334107,143.07029666680754L112.23068464120229,138.14540252688718L112.34602964083354,141.38262961852405L112.50751264031727,138.8250552064652L113.52254863707225,134.56214888963385L113.70710063648224,138.35147577907796L113.86858363596598,139.13744110431537L113.96085963567099,137.840955371825L114.21461863485973,140.74056662035704L114.35303263441722,140.77833176558855L114.49144663397472,143.19431230894918L114.99896463235218,145.37850335458077L115.25272363154093,143.76383986865062L115.36806863117218,145.08789472017466L115.57568963050842,144.32086134318024L115.59875863043466,140.03945424987896L115.87558662954966,142.00428933757962L116.12934562873839,134.8780389755791L116.19855262851715,140.2271321163508L116.42924262777963,143.19598617975046L117.51348562431335,144.78011366669327L117.6288306239446,142.1447788080995L117.65189962387085,140.0742335876979L117.88258962313334,139.7691547355862L119.56662661774953,141.09782521539162L119.82038561693828,143.24148648297094L119.84345461686452,142.3098718040819L119.88959261671701,142.39595842205816L119.93573061656953,143.43440616578198L120.00493761634827,143.9080618181507L120.02800661627451,146.42095436717142L120.60473161443073,146.998309254065L120.720076614062,145.31826658106047L120.78928361384074,146.21137057117622L120.97383561325073,147.05034703889936L121.22759461243947,148.7395226798169L121.43521561177572,146.3535474472134L121.50442261155446,143.835368034999L121.52749161148071,141.91789624113397L121.87352661037444,144.80826413343894L122.24263060919444,139.63451245020028L122.38104460875194,140.3110466978097L122.47332060845693,140.3920442357247L122.68094160779317,141.5329656459132L122.72707960764568,142.43081726600434L122.9347006069819,144.6450978123145L123.02697660668692,146.62213863387987L123.28073560587566,148.211644207571L123.88052960395814,145.51330537392482L124.08815060329437,147.83739808359437L124.43418560218811,146.9886152604653L124.59566860167186,147.53726326463277L124.73408260122935,146.6472956382644L124.82635860093436,146.94305968846624L124.8494276008606,146.5317103203405L125.28773859945933,144.89113877193532L125.35694559923807,141.65913530535377L126.18742959658304,138.78834655872024L126.32584359614054,134.03858515139916L126.67187859503429,139.99682529940847L126.71801659488678,139.15427037249808L127.11018959363301,140.1767700343329L127.13325859355926,142.01207281333302L127.571569592158,144.30584487728464L127.59463859208424,146.89992451767367L127.663845591863,147.50213918144377L127.87146659119924,148.90932543609344L128.12522559038797,145.76806232785523L128.7019505885442,147.88629967300085L128.77115758832295,147.85822005091094L129.0249165875117,148.47115139686744L129.09412358729045,147.77734093322798L129.14026158714296,147.73542465648993L129.18639958699544,146.81584046820126L129.46322758611043,141.05520458209367L129.85540058485668,143.83658103961707L130.3398495833079,145.97183676022755L130.50133258279163,136.6051368360406L130.68588458220165,142.86894400392822L130.77816058190663,143.93464535198146L130.93964358139038,145.88132935512317L130.96271258131662,146.2197291336704L130.9857815812429,147.86239334729748L131.21647158050536,148.91794127708613L131.81626557858786,142.97270971693857L131.9316105782191,146.37220287486596L132.3007145770391,145.65459252004882L132.55447357622782,148.25245348932268L132.64674957593283,148.83934909800678L132.66981857585907,148.67979721023463L132.85437057526906,143.48583342164272L132.99278457482654,145.05137496254014L133.06199157460532,146.71562091269666L133.26961257394154,144.27257752184977L133.36188857364655,145.34442733606713L133.52337157313028,145.25360451840774L133.54644057305654,141.6294468006049L133.68485457261403,144.31794311219173L133.82326857217151,145.58946805487182L133.86940657202402,146.13013956727266L133.9386135718028,144.84118364700663L134.7460285692215,142.22761822196927L135.0228565683365,145.37272190863706L135.46116756693522,145.02096776031468L135.50730556678772,147.4548937701255L135.99175456523895,146.0732199287958L136.45313456376394,146.09040907961457L137.0067905619939,146.92349905650448L137.07599756177265,148.7394269134923L137.37589456081392,148.05160551343906L137.5604465602239,149.7542120587566L137.76806755956014,148.26265612926278L137.83727455933888,146.85690433603688L137.88341255919138,145.30836463187526L137.90648155911762,147.97942394811275L138.9215175558726,149.30916306968732L139.0599315554301,148.77880542877836L139.12913855520887,147.40367816632616L139.2906215546926,148.0908891113389L139.59051855373383,148.18047021132844L139.6366565535863,148.5208506147109L139.65972555351257,149.3218933154208L139.82120855299632,149.34238721594912L140.2364505516688,149.2799435586621L140.7670375499725,145.32497586728311L140.8823825496038,144.85640791215866L141.34376254812875,147.03086634319723L141.38990054798128,148.5819053383422L141.52831454753874,147.08835316096747L142.12810854562122,148.0525141301826L142.2434535452525,147.42917412988953L142.6356265439987,146.7028435699639L143.05086854267122,147.74549685850957L143.2354205420812,148.79483882253504L143.76600754038492,148.72350945596173L143.85828354008993,143.64703497362706L143.95055953979494,142.14298517877072L143.97362853972118,145.05427171926823L144.57342253780365,146.20221914461007L145.10400953610738,147.87416530025604L145.7730105339686,149.6408467925651L146.02676953315733,150.06675498214625L146.39587353197734,150.4625337058324L146.71883953094482,146.70387336756596L146.7419085308711,147.70263086576193L147.20328852939605,148.11193655857693L147.75694452762602,148.41664865905798L148.12604852644603,149.00707858669242L148.56435952504475,150.14153367648714L148.63356652482352,150.00291431377747L148.74891152445474,149.89016160341995L149.60246452172598,150.30002854549238L149.76394752120973,145.91042732639266L149.8562235209147,147.61986112177132L149.9946375204722,148.48944177155016L150.1330515200297,149.61735130738236L150.24839651966093,149.62957771356392L150.3176035194397,150.42773040327967L150.3637415192922,149.76418212544922L150.91739751752218,150.5445062720264L151.10194951693217,150.7663703241222L151.4941225156784,150.91999116619706L151.60946751530963,151.5669347876782L151.65560551516214,151.6034779149138L151.93243351427714,149.04545009538657L151.97857151412964,147.55163822530506L152.11698551368713,148.45148959341347L152.39381351280213,150.13246677841633L152.50915851243337,150.53448993539794L152.73984851169584,150.66649164124573L152.97053851095833,151.14977776161678L153.61647050889331,150.9653799286519L153.66260850874585,147.93669875854448L153.75488450845083,147.60276577764398L154.10091950734457,146.45259495724804L155.0467485043208,146.26681157031362L155.11595550409953,146.96793382048546L155.53119750277202,149.1014629919679L155.9464395014445,148.73006440257393L156.33861250019072,148.68424279592986L156.40781949996946,149.90133327030642L156.52316449960074,149.77976598654237L156.63850949923196,150.3566716375853L157.05375149790447,149.28580363481976L157.0768204978307,149.50488659756138L157.46899349657693,150.7740526722171L157.5382004963557,150.17492255336717L157.69968349583942,150.849174695445L158.32254649384817,151.2458868236144L158.36868449370067,151.49764937573687L158.5301674931844,151.52666396157264L158.9454094918569,151.9419601857515L159.15303049119314,151.54216291641052L159.36065149052936,149.882224600329L159.5913414897919,149.08766764635718L159.84510048898062,148.23606096245936L159.9373764886856,147.10851709739075L159.96044548861184,148.12678973791424L160.3987564872106,149.8250511089773L160.51410148684184,150.59442793065136L160.56023948669431,151.20456249939707L160.65251548639935,148.85822789057312L160.86013648573555,149.83135333313047L161.27537848440807,151.12303078126385L161.73675848293306,151.7626610375406L161.8521034825643,151.98731100277269L162.05972448190053,151.87550254069123L162.19813848145802,150.56390102642186L162.22120748138425,150.45797526411425L162.3134834810893,148.10659196433812L162.38269048086804,148.79072646236085L162.8902084792455,150.0584558383103L163.305450477918,150.72408556015736L163.397726477623,148.7009963530387L163.51307147725424,149.1069002846867L163.88217547607422,150.1378424212127L163.9283134759267,151.08431227352202L164.1590034751892,150.52318806242712L164.2974174747467,151.04078065316293L164.3435554745992,150.4680240082203L164.48196947415667,151.03260672006394L164.5281074740092,150.58884766763836L164.5742454738617,151.47019123121854L164.85107347297668,150.95809801232704L164.89721147282918,150.15583616230214L164.9433494726817,150.90120663286316L165.47393647098542,150.6904087301085L165.68155747032168,151.52238419349905L165.7507644701004,149.88694019886094L166.11986846892037,151.03098988813738L166.37362746810913,150.78033892493033L166.4197654679616,151.23249142047376L166.55817946751912,151.4147381335634L166.85807646656036,151.59658161404607L166.9734214661916,150.7341347348256L167.13490446567536,147.4830118316366L167.27331846523285,149.42109601078L167.57321546427409,150.04009662086392L168.1730094623566,149.31950910618747L168.70359646066032,150.23800416501405L168.7958724603653,150.0810980136834L168.81894146029154,148.03406619185395L168.9804244597753,148.16094925164006L169.37259745852154,149.91191164699927L169.62635645771027,150.17009770665828L169.880115456899,147.5318573746209L170.04159845638273,148.88896558675157L170.18001245594024,149.59807190691248L170.73366845417024,150.7721416992152L172.0024634501139,151.7280061124805L172.09473944981895,152.18098934520913L172.39463644886018,152.0138199891915L172.7406714477539,151.91542791384333L172.92522344716392,151.7643998253262L172.94829244709015,150.9966674045005L173.04056844679513,151.71746262502364L173.27125844605763,151.827763801731L173.50194844532012,151.74252147361366L173.5250174452464,151.66544655718005L173.54808644517263,150.49475157613213L173.73263844458265,151.12535979802L174.1940184431076,151.6718646002584L174.74767444133758,150.0749529130949L174.90915744082133,150.64202446239113L174.97836444060007,151.5851454721493L175.20905443986257,151.17986711854937L175.41667543919883,151.84001220652186L175.48588243897757,151.92651955609645L175.71657243824006,151.70881056345786L175.83191743787128,151.97081303516262L176.66240143521625,151.87243789706434L176.8700224345525,152.26671039716385L176.91616043440501,152.06083053175666L177.00843643411,149.76595660412764L177.1468504336675,148.10219950013388L177.21605743344625,148.0330528547482L177.37754043293,149.87071802108196L177.56209243233997,151.01405393714688L177.63129943211874,150.73339361728122L177.81585143152873,150.98392331959698L177.90812743123374,150.36664026017L178.00040343093872,151.21375181981912L178.53099042924245,150.897634236989L178.62326642894746,150.90076005045154L178.7847494284312,151.3969044424511L178.8770254281362,151.73656741875254L179.13078442732493,152.08441809099568L179.40761242643993,152.35972782882695L179.7767164252599,151.90967384364657L180.35344142341611,151.6375644109196L180.69947642230989,151.87995837969552L181.02244242127736,150.73035931166496L181.20699442068735,151.53405979607675L181.39154642009734,152.09731821052668L181.52996041965486,152.04921152347765L181.55302941958112,151.7559937142543L182.15282341766357,152.15312551147008L182.47578941663107,152.52527327219568L183.05251441478728,152.65670308800787L183.44468741353353,151.60581784024674L183.7215154126485,152.16348850020518L183.79072241242727,152.41460722337465L183.92913641198476,151.82611964636834L184.34437841065727,152.22099658761664L184.39051641050975,152.53346676608015L184.80575840918223,152.21006363628615L184.89803440888724,151.76064614131622L185.38248340733844,152.09574976210575L185.47475940704348,152.12967708561195L185.6362424065272,152.24718542639954L185.93613940556844,152.55192712439404L186.07455340512595,152.3925962868359L186.39751940409343,152.71029556576272L186.67434740320843,151.4328487167116L187.02038240210214,151.96714467136425L187.20493440151216,152.39422087812414L187.2280034014384,152.27539308663776L187.7355213998159,152.37632336274655L187.82779739952088,151.90177530621125L188.15076339848835,152.1979146114459L188.42759139760335,152.25409125988926L188.4506603975296,152.68538321559126L188.61214339701334,152.36168221763572L188.93510939598085,152.62615280989536L189.07352339553833,152.88312613475821L189.23500639502208,152.6135266381066L189.28114439487456,152.83012352144243L189.48876539421082,152.79036725078856L189.53490339406332,152.61458794418544L189.55797239398956,152.49401155748063L189.9962833925883,152.26796464566962L190.06549039236705,152.53722561155587L190.27311139170328,152.52625373404558L190.57300839074452,152.11595401806096L191.12666438897452,152.3230717714287L191.4957683877945,152.45112799930288L191.74952738698323,152.5845443698029L192.16476938565575,152.22215082663604L192.3954593849182,152.5804907378586L192.41852838484448,149.92636319431833L192.55694238440196,150.7875428333737L192.71842538388572,151.57496954134223L192.8107013835907,151.84528251567835L192.83377038351693,152.26991455901157L192.8568393834432,151.12369571248743L193.36435738182067,148.4239140880785L193.38742638174693,149.91826751472055L193.47970238145192,151.03806104270853L193.52584038130442,151.75968565633775L193.73346138064065,151.78907783772192L193.82573738034569,147.64402023651834L194.4947383782069,148.6558627846092L194.51780737813314,150.27361656434627L194.7254283774694,151.0168327749344L194.7946353772481,151.67847332359676L194.9561183767319,151.7689265106709L195.18680837599436,151.06976832604624L195.20987737592063,150.32427838314015L195.25601537577313,148.14057762411412L195.37136037540435,149.87600369589558L195.50977437496186,151.13514770490656L195.60205037466685,151.38902855938284L195.64818837451935,152.10524037089039L196.01729237333933,152.54357713031135L196.15570637289684,152.74621097633488L196.17877537282308,152.8765684598218L196.36332737223307,152.56527064505414L196.8016383708318,152.71812176153188L197.19381136957804,152.75268028623137L197.79360536766052,152.8088256105838L198.32419236596425,152.93601317871065L198.6240893650055,151.66462721505374L198.69329636478423,152.2413869789452L199.40843536249798,152.69253444305502L199.43150436242422,152.57039405020535L199.8006083612442,152.69372525418095L199.82367736117044,152.7450775227876L200.05436736043293,152.7570280060264L200.12357436021168,151.4044395497793L200.16971236006418,152.12353214637125L200.42347135925291,152.45026460593542L200.56188535881043,152.13695987568025L200.63109235858917,152.63842085227L200.72336835829415,152.7797002402921L201.13861035696667,150.59261985090973L201.1616793568929,150.08073615459915L201.25395535659788,151.03279566784968L201.32316235637663,152.0147831062452L201.36930035622916,152.37248593080471L201.69226635519664,151.84902083611308L201.78454235490162,152.02190753688325L202.03830135409038,151.94041434589184L202.10750835386912,152.31315787990502L202.5688883523941,152.64022057252438L202.7534403518041,152.496995886114L202.98413035106657,152.7709922863959L203.00719935099283,152.57555941645074L203.26095835018157,152.4287856030945L203.7915453484853,152.6561636357619L203.90689034811658,152.94910559153723L204.2990633468628,152.6948561485768L205.31409934361776,152.88364482237367L205.33716834354402,153.05855926178913L205.429444343249,151.60793775567316L205.52172034295398,151.2887513964139L205.9369623416265,151.53720389665122L206.07537634118395,151.56084888355758L207.0673433380127,152.08953918507072L207.2518953374227,152.1552973274237L207.43644733683269,152.52771538459106L207.45951633675892,152.80252274794884L207.85168933550517,152.9448277135273L208.1515863345464,152.75188711596073L208.2438623342514,152.8791031261443L208.49762133344015,152.77563462954672L208.77444933255512,153.00145830048513L208.84365633233386,147.45208959250533L208.8897943321864,149.68920791136122L208.98207033189138,151.03620249732387L209.1666223313014,151.7053714631297L210.5507623268763,151.84295455434574L210.68917632643382,152.36087913290424L210.71224532636006,152.77347592070106L211.10441832510628,152.78441875219698L211.26590132459003,152.802441680669L211.7964883228938,150.17742262220472L211.88876432259877,151.36839411055877L212.1425233217875,152.14582426287427L212.21173032156625,152.42983769852552L212.6039033203125,152.5375995046408L212.74231731986998,152.63234019111067L213.04221431891122,152.6292184014188L213.5035943174362,152.9171931354343L213.71121531677247,152.99530507883375L214.08031931559245,152.9776499520068L214.12645731544492,152.9629362933444L214.33407831478118,152.8482459769328L214.54169931411744,152.87825876733322L214.7262513135274,153.10427210949078L215.18763131205242,153.2336824906003L215.2337693119049,153.17652201807434L215.30297631168366,152.7755608875053L215.34911431153617,152.96121324973592L215.48752831109366,153.07190115297763L215.76435631020863,152.9584487908724L215.7874253101349,153.07449706291084L215.94890830961864,152.98905141882366L216.0181153093974,152.95373035189604L216.13346030902864,152.78694379439872L216.29494330851236,152.91062284331468L216.34108130836486,152.9449644738526L217.51760030460358,152.57150105602275L217.7713593037923,152.90169161149205L217.84056630357108,152.86737828750023L217.9559113032023,152.84022416153618L218.32501530202228,153.0474481646732L218.41729130172732,153.04146495531393L218.44036030165356,153.08936556144084L218.48649830150603,153.13425324866927L218.71718830076856,152.6741196014074L218.80946430047354,152.334924148377L218.90174030017852,152.71683110700732L219.10936129951477,152.99622628909097L219.132430299441,153.07994421680905L219.2477752990723,152.40669447668643L219.34005129877727,152.60769975441198L219.3631202987035,152.9360070829232L219.70915529759725,153.0717857536191L220.42429429531097,152.98956867620993L220.70112229442597,152.52419359325853L220.8626052939097,152.33830141364675L220.97795029354097,151.58774080139867L221.30091629250845,152.0666795544167L221.5085372918447,152.4969566698667L221.85457229073842,151.94165963935117L222.10833128992718,152.3535363500934L222.2698142894109,152.5893391496494L222.29288328933717,152.47574671833087L222.5005042886734,152.36960149831924L223.37712628587084,152.73870953845332L223.44633328564962,152.71843351864726L223.49247128550212,152.90630041491858L223.56167828528086,152.46646048074902L223.5847472852071,152.58228662909616L223.6770232849121,152.79523219248387L224.41523128255207,151.83563474242501L224.73819728151958,152.21189834854917L225.36106027952832,149.47177508332115L225.4994742790858,150.97431867459014L225.59175027879078,151.92488981209127L226.00699227746327,152.45714223135758L226.12233727709452,151.38484229767772L226.4683722759883,151.2608232441733L226.537579275767,152.054883214082L226.60678627554574,152.39547397402615L227.091235273997,152.789743735424L227.34499427318573,152.84278891504394L227.64489127222697,152.8118357648554L227.66796027215324,152.9943684043779L227.89865027141573,153.12435689823755L227.96785727119445,153.15327151114232L228.06013327089946,153.2339030469148L228.4523062696457,153.15973651287155L228.4984442694982,153.12384626496205L228.56765126927692,153.16174230704985L229.05210026772818,153.21034245052323L229.09823826758068,153.16663857659432L229.2135832672119,153.24922643252293L229.46734226640064,153.25274922375473L229.65189426581065,153.08729254079972L229.74417026551563,153.08195441326865L230.13634326426188,152.7356041609283L230.27475726381937,152.98826073613438L230.50544726308186,152.98926916389803L230.55158526293437,153.02980702071042L230.68999926249188,152.98910493186222L230.8053442621231,153.03503508822092L230.92068926175435,153.1066130640853L230.98989626153312,153.09471925073447L231.33593126042683,153.09625963658297L231.3590002603531,152.87597893569426L231.9818632583618,153.06186588820128L232.1664152577718,153.04596150619327L232.3971052570343,152.8026511928643L232.65086425622306,152.67388434989982L233.13531325467426,152.94794578373282L233.5274862534205,153.0705738062873L233.55055525334677,153.07024813899767L234.28876325098676,153.17899692159494L234.311832250913,152.77781634505686L234.45024625047049,151.45694585536563L235.64983424663544,152.2164091594902L235.69597224648794,152.65845236875796L235.85745524597166,152.53255795723783L235.9266622457504,152.5495836650456L236.08814524523416,152.79326526781298L236.7110082432429,152.73210507431025L237.19545724169413,152.86415183939712L237.42614724095662,152.96100125153745L237.7952512397766,153.19043333169793L237.8413892396291,153.0879932688L237.88752723948159,153.24237405605578L238.00287223911286,153.25336139252354L238.74108023675285,152.98561679737168L238.85642523638407,153.15257310463286L239.11018423557283,153.22859290500367L239.13325323549907,153.11544510407617L239.1563222354253,153.1432008399964L239.22552923520405,152.5742960484149L239.59463323402406,152.65891420866794L240.21749623203277,152.99068873543501L240.28670323181152,153.06978754767636L240.7480832303365,153.1396252834297L240.886497229894,152.82330524698835L240.90956622982023,152.89478496036065L241.5093602279027,152.9006880473016L241.67084322738648,152.99471521256726L241.83232622687024,152.65991067263207L242.59360322443644,152.8487077568871L242.6628102242152,152.8555208741431L243.10112122281393,153.03505175993928L243.12419022274017,153.06106215418873L243.33181122207642,153.0757638726141L243.49329422156018,153.22160264916485L243.56250122133892,152.79453560438344L243.72398422082264,152.78429080665245L243.79319122060141,152.55328742244757L244.23150221920014,152.4564607289987L244.30070921897888,152.29461313400526L244.5544682181676,152.530501249436L244.80822721735635,151.9630929132723L245.03891721661884,151.78499216454995L245.08505521647135,152.27658770688927L245.10812421639758,152.56544791012163L245.17733121617636,152.80790941756297L245.73098721440635,153.08551296951785L245.84633221403757,152.9943879372796L245.8694012139638,152.98564233824825L245.96167721366882,152.9264923987555L246.39998821226757,152.93244276542123L246.4230572121938,152.95926245128226L246.63067821153007,153.00862042937027L246.81523021094003,153.186944695992L247.09205821005503,151.90466641838552L247.94561120732627,152.2672536333739L248.014818207105,152.5860784916171L248.22243920644124,152.63898213354537L248.2455082063675,152.56003810082524L248.383922205925,152.75923662174262L248.43006020577747,152.72224059811816L248.63768120511372,152.71170121754557L249.44509620253245,152.91948037929052L249.56044120216367,152.66297723862397L250.09102820046743,152.5269647126824L250.16023520024615,152.68481999535757L250.22944220002492,152.41075777561917L250.43706319936115,152.73512873828113L251.08299519729616,152.77648574481668L251.63665119552613,152.6910827402587L251.86734119478862,152.75913682791747L253.13613619073232,152.36777712045455L253.27455019028983,152.7065932901382L253.3668261899948,152.80626541570933L253.43603318977355,150.48671701474998L253.6897921889623,151.3349098566494L253.75899918874103,151.67990677726348" fill="none"></path></g></g></g></g><g opacity="0.2"><g><g><g><path style="fill: none;" stroke="rgb(255, 112, 67)" stroke-width="2px" d="M36.61050288295746,-18.70015845476155L36.63357188288371,6.283134648423584L37.39484888044993,-3.1892639049328864L37.44098688030243,2.2664879147923784L37.717814879417425,-24.197199851827463L37.87929787890116,-5.695114115951583L37.90236687882741,2.7455475139577175L37.94850487867991,14.671451479473035L38.01771187845866,15.43551803947048L38.06384987831116,11.939052978988911L38.34067787742615,18.049826673726784L38.57136787668864,-13.548760233526991L39.563334873517356,-8.674161308663315L39.74788687292735,27.711169013047765L39.932438872337336,23.01345363249129L40.14005987167358,21.616140633806936L40.43995687071482,45.0764094693659L40.53223287041982,27.24232711861987L40.73985386975606,18.127548231073888L40.832129869461056,34.884332745445136L40.87826786931356,44.17356637863122L40.92440586916606,42.03605604822951L41.0858888686498,43.57859445687063L41.20123386828105,44.32649694298016L41.24737186813354,33.987687278895464L41.36271686776479,25.368718326149974L41.40885486761729,38.69587161922391L41.50113086732229,30.480166996894695L41.593406867027284,9.38630182819179L41.731820866584776,29.796585799624154L41.75488986651103,28.57515132510889L42.285476864814754,36.364727408879844L42.37775286451975,45.08068080495286L43.13902986208598,51.35133645332826L43.30051286156972,50.45209468475514L43.43892686112722,38.555336303244985L43.761892860094704,64.83920921682147L43.85416885979971,46.390389548265375L44.015651859283444,59.127596020269266L44.06178985913595,31.254451261629583L44.24634185854594,68.82545409127488L44.56930785751343,53.77293247610214L44.592376857439675,82.90251991073455L44.82306685670216,41.391670636345225L44.89227385648091,44.6621736691086L45.099894855817155,48.2424741594441L45.28444685522715,80.29583267919224L45.492067854563395,63.27079153962404L45.51513685448964,50.1108903478671L45.65355085404714,52.09823391929967L45.67661985397339,50.67562791380624L45.79196485360463,67.02797557426675L46.20720685227712,34.28140441425785L46.27641385205587,72.48959001146432L46.48403485139211,39.22836478906538L47.17610484917959,69.0381833538413L47.47600184822083,74.23606375646341L47.61441584777832,51.52746623253188L47.68362284755706,77.23119127138489L47.729760847409565,81.51006450938439L47.82203684711456,60.68587974440743L47.96045084667205,89.63464730585838L48.0757958463033,75.76796570197621L48.306485845565796,99.04800092610094L48.44489984512329,55.25156835429516L48.560244844754536,26.31486103450152L48.79093484401702,47.817434392702125L49.75983284091949,71.12485641559033L49.852108840624496,49.91834523974103L49.87517784055074,79.59106230734324L49.898246840476986,79.87682303327892L50.31348883914947,91.55967962872819L50.61338583819071,75.91855121933622L50.913282837231954,88.16823917267902L51.51307683531443,41.16528985023615L51.78990483442942,84.16047011693445L52.04366383361816,84.32772221825144L52.11287083339691,68.38760031777201L52.18207783317566,88.28138768989447L52.643457831700644,92.0927590603169L52.781871831258144,77.3728153591801L52.94335483074188,75.34292593523423L53.08176883029938,97.88226131757256L53.45087282911936,89.05315940428409L53.52007982889811,95.60764948999713L53.77383882808685,94.66896068100323L53.8430458278656,84.66205891752907L53.91225282764435,98.977984523146L53.9353218275706,59.29334059137909L55.04263382403056,99.66273824391101L55.11184082380931,73.98648375549965L55.18104782358805,100.28400819261878L55.2041168235143,84.2186775332666L55.711634821891785,77.64601333338942L55.98846282100678,102.66598967161553L56.219152820269265,112.48637644779228L56.31142881997426,84.68349934714206L56.88815381813049,118.38165707458393L56.91122281805674,102.6401941547374L57.16498181724548,119.50895466282964L57.34953381665547,116.51726096671337L57.44180981636047,101.59656449298927L57.48794781621297,65.14021274818515L58.22615581385295,98.26844030564098L58.31843181355794,103.75693903153297L58.89515681171417,103.95459299202776L59.264260810534154,80.95914597034425L59.28732981046041,107.1395018096955L59.63336480935415,101.62805512398336L59.72564080905914,90.93891219008947L60.094744807879124,106.58313941157394L60.11781380780538,119.694967140058L60.625331806182864,85.31858832274884L60.74067680581411,108.67534008408256L60.85602180544535,107.69385416754085L60.9252288052241,97.68393734365236L61.04057380485535,104.54470731645415L61.10978080463409,89.3163909287905L61.386608803749084,106.1016510137415L61.57116080315908,106.3801253436759L61.732643802642826,121.11439058178075L61.894126802126564,106.04252232894942L62.10174780146281,125.79828693543823L62.1940238011678,125.94116729840607L62.24016180102031,97.89783912971325L62.286299800872804,98.9545340532568L62.355506800651554,116.63811463832099L62.51698980013529,108.77358080258273L62.724610799471535,106.6292028345706L62.95530079873403,116.07002700525481L63.04757679843903,100.05519860784261L63.09371479829152,129.04919207550847L63.16292179807027,100.37487876343948L63.27826679770152,94.30882846484747L63.34747379748026,118.98517166751844L63.370542797406515,120.9397683327843L63.8319227959315,101.1383590616897L64.03954379526775,98.27857425870025L64.17795779482523,117.80393799852754L64.33944079430898,106.44587041104387L64.36250979423524,113.89993727204273L64.57013079357148,83.46675496660464L64.73161379305522,92.31160219539015L65.21606279150645,100.77621680525772L65.30833879121144,93.52156268999533L65.53902879047394,113.06903687286103L65.63130479017893,110.45791080237541L65.83892578951517,91.57986378316855L66.13882278855641,109.94568553865247L66.20802978833517,126.34853546105296L66.34644378789265,120.58122739851387L66.39258178774516,122.81379588364507L67.17692778523764,104.24630008711392L67.31534178479512,121.40115632785455L67.70751478354137,116.41960650996043L67.93820478280385,112.94022679182672L68.00741178258261,92.95649011734349L68.0535497824351,114.18469297784031L68.46879178110758,120.9035038561342L68.79175778007507,123.01262236763432L68.83789577992758,117.57269961508428L69.25313777860005,116.20888728767022L69.34541377830506,123.66873301446321L69.52996577771505,113.57682329764066L69.92213877646128,119.38969227310736L70.06055277601878,120.03340767156624L70.61420877424875,109.04828630699922L70.91410577328999,121.02862886332878L70.98331277306875,108.59426845960843L71.006381772995,130.73486210215196L71.05251977284749,120.2080299205627L71.0986577727,108.46972971416108L71.19093377240499,127.52365525753703L71.28320977210998,105.51028041414247L71.44469277159372,115.09431995450723L71.79072777048748,120.36179800169339L72.57507376797994,120.69638595600554L72.66734976768494,117.38693839289044L72.82883276716868,101.85636219869048L73.03645376650492,123.76270239737642L73.3132817656199,94.31536109574517L73.5439717648824,120.51849739156023L73.59010976473489,120.83516248674277L73.63624776458741,105.75383029427758L73.75159276421866,126.5260052671074L73.8207997639974,119.4251192329757L74.00535176340739,107.13866429291375L74.09762776311238,111.28110604716494L74.55900776163736,124.43179455432255L74.67435276126861,123.93891592825821L74.69742176119486,128.51653140231065L74.74355976104736,132.9966599229665L74.81276676082611,118.26147341640171L74.90504276053112,125.27433643677068L74.92811176045736,130.4839420743374L75.0895947599411,113.21719359155395L75.15880175971985,131.92095336847706L75.27414675935108,113.75194805670617L75.71245775794984,130.27849920777226L75.94314775721232,127.68144341922016L76.08156175676982,130.4849470944755L76.2199757563273,118.89589237858308L76.31225175603231,117.7719448574644L76.5890797551473,128.1632668237653L76.61214875507355,125.44502235689288L77.18887375322977,134.91097203102981L77.39649475256603,138.83004805958626L78.20390974998473,137.30233369798225L78.226978749911,118.76925984118134L78.27311674976349,131.25546253369248L79.28815274651845,97.38368757739227L79.47270474592845,126.97474675877311L79.63418774541219,133.9301561279135L79.68032574526468,134.1398703300656L79.72646374511719,120.54672170710546L79.84180874474843,130.27531664400158L80.41853374290466,121.74085313453543L80.44160274283092,130.19223497925123L80.6722927420934,130.93779241837183L80.71843074194591,117.64949990397145L80.83377574157714,130.67196459184197L81.15674174054465,128.4203007240867L81.29515574010213,121.30827571675763L81.50277673943837,116.54883534938563L81.84881173833212,127.2580786860417L81.94108773803711,136.06038006231393L81.98722573788962,128.44944630809186L82.56395073604584,128.72825564473897L82.84077873516084,120.66204776795348L83.07146873442332,89.07778239766776L83.2098827339808,140.31680785056233L83.60205573272705,124.37249836617411L83.74046973228454,140.67283623448748L83.76353873221079,141.95792198441632L84.0865047311783,135.153600642705L84.22491873073578,140.55282007966161L84.34026373036701,136.84446327339538L84.87085072867075,122.26589240501926L85.0323337281545,134.6550269025247L85.14767872778575,123.7807090081842L85.44757572682698,115.25998077393888L85.60905872631074,125.32349867185985L85.95509372520446,115.11919420292543L86.23192172431946,112.31853808472806L86.30112872409822,131.88226009315986L86.6240947230657,132.6718709150009L87.43150972048443,125.66487051210424L87.45457872041067,128.54349944268324L87.47764772033692,129.10304440457548L87.8928897190094,143.12282407616294L88.23892471790313,128.7202154836341L89.34623671436309,133.7404585768454L89.55385771369934,138.0190805598104L89.76147871303557,140.08799826578615L89.89989271259307,138.83046681797714L90.38434171104431,131.948088912206L90.4304797108968,135.02830813215405L90.45354871082306,127.01352378576848L91.53779170735677,125.09510784547456L91.72234370676676,134.61298356008047L92.2529307050705,125.93840349302627L92.46055170440674,128.34283042177412L92.55282770411173,141.62928039925464L92.64510370381673,123.88648737772019L92.92193170293173,135.1625620722698L92.99113870271046,138.69596162282687L93.17569070212046,127.1426688735155L93.2448977018992,127.40556539130921L93.79855370012919,131.9318410866399L93.89082969983419,138.69537536107964L93.93696769968668,135.9201797530477L94.58289969762167,140.66630360358977L95.1134866959254,120.2090349407008L95.45952169481913,133.87345624178852L95.64407369422912,136.05778376029048L95.75941869386037,132.26601028256118L95.87476369349162,126.24426462172414L96.01317769304912,109.00867176322208L96.38228169186911,127.82114121841732L96.7975236905416,124.76169241465686L96.82059269046783,126.87859983222734L96.98207568995157,142.56989549684658L97.05128268973033,134.8498333059615L97.60493868796031,129.22398182786128L97.67414568773906,122.22485408271314L97.8356286872228,139.3201628802708L97.90483568700155,145.77381594546023L97.9279046869278,131.91241069730313L97.9740426867803,127.66494433861953L97.99711168670653,138.0943733184904L98.57383668486277,130.2984321071781L98.78145768419901,135.85862226958852L99.335113682429,141.76093803734693L99.51966568183899,126.62776355609094L99.84263168080649,146.50731314292352L99.86570068073273,150.05997557946102L100.25787367947898,136.8575285351908L100.92687467734018,143.6097563330768L100.9730126771927,138.2740206681774L101.20370267645518,137.51439294712327L101.59587567520141,144.49727286670532L101.71122067483266,135.6254575975472L102.21873867321015,143.09711231096298L102.40329067262014,138.73398488471867L102.65704967180888,147.50848070383654L102.70318767166138,147.74775924838468L102.86467067114512,136.0186717265824L103.00308467070262,142.76587442377786L103.16456767018636,138.77267816003587L103.30298166974384,142.4883213623034L103.3721886695226,140.5137917976317L103.76436166826885,147.9708737190449L104.04118966738383,126.3946826357278L104.11039666716258,143.78429483039508L104.27187966664631,142.0066654611146L104.64098366546631,130.12171606622724L104.6871216653188,138.4768672327191L104.8255356648763,138.1451268354649L104.9178116645813,149.5276499129759L105.28691566340129,135.00058632667788L105.67908866214752,144.82767323710868L106.14046866067251,129.53562182235328L106.555710659345,129.76610644069297L106.60184865919749,145.05522654671222L106.64798665904998,137.77000306891568L106.71719365882873,143.66377616550017L106.78640065860748,138.8212541333778L107.17857365735372,136.29672729812592L107.43233265654246,136.7773781791766L107.75529865550995,131.77832426054374L108.44736865329742,130.43444483253552L108.49350665314994,129.5417356948601L109.0471626513799,128.8096622759258L109.1394386510849,137.81983531743026L109.1855766509374,139.7247672375379L109.3239906504949,140.21387703808432L109.39319765027363,140.970908457115L109.43933565012614,132.9624892382708L109.64695664946238,147.10496511838573L109.80843964894612,141.09385592067702L110.10833664798736,143.6688012661907L110.29288864739735,144.19116048297292L110.5927856464386,138.3535010107662L110.6389236462911,130.61459469229158L110.70813064606983,147.67556530179718L111.07723464488983,139.9451179028183L111.19257964452108,138.97979606016452L111.23871764437357,137.96187816361635L111.46940764363607,139.25131900081033L111.56168364334107,148.85210887681023L112.23068464120229,130.75806131700665L112.34602964083354,146.23847025597934L112.50751264031727,134.98869358837692L113.52254863707225,128.1677894143868L113.70710063648224,144.03546611324418L113.86858363596598,140.31638909217145L113.96085963567099,135.89622677308944L114.21461863485973,145.08998349315516L114.35303263441722,140.83497948343575L114.49144663397472,146.8182831239901L114.99896463235218,148.65478992302815L115.25272363154093,141.34184463975544L115.36806863117218,147.0739769974607L115.57568963050842,143.1703112776886L115.59875863043466,133.61734360992705L115.87558662954966,144.95154196913063L116.12934562873839,124.18866343257832L116.19855262851715,148.2507718275083L116.42924262777963,147.64926727485L117.51348562431335,147.15630489710747L117.6288306239446,138.1917765202088L117.65189962387085,136.9684157570955L117.88258962313334,139.3115364574187L119.56662661774953,143.0908309350998L119.82038561693828,146.4569783843399L119.84345461686452,140.91244978574832L119.88959261671701,142.52508834902255L119.93573061656953,144.9920777813677L120.00493761634827,144.61854529670381L120.02800661627451,150.1902931907025L120.60473161443073,147.86434158440534L120.720076614062,142.7982025715537L120.78928361384074,147.55102655634983L120.97383561325073,148.3088117404841L121.22759461243947,151.27328614119324L121.43521561177572,142.77458459830814L121.50442261155446,140.0580989166774L121.52749161148071,139.0416885503364L121.87352661037444,149.1438159718964L122.24263060919444,131.87388492534228L122.38104460875194,141.32584806922387L122.47332060845693,140.51354054259718L122.68094160779317,143.24434776119597L122.72707960764568,143.77759469614102L122.9347006069819,147.96651863177976L123.02697660668692,149.58769986622792L123.28073560587566,150.5959025681077L123.88052960395814,141.46579712345556L124.08815060329437,151.3235371480987L124.43418560218811,145.71544102577172L124.59566860167186,148.360235270884L124.73408260122935,145.3123441987118L124.82635860093436,147.386705763769L124.8494276008606,145.91468626815185L125.28773859945933,142.4302814493276L125.35694559923807,136.81113010548142L126.18742959658304,134.48216343876993L126.32584359614054,126.91394304041751L126.67187859503429,148.93418552142248L126.71801659488678,137.89043798213243L127.11018959363301,141.71051952708513L127.13325859355926,144.76502698183322L127.571569592158,147.74650297321205L127.59463859208424,150.79104397825722L127.663845591863,148.4054611770989L127.87146659119924,151.02010481806792L128.12522559038797,141.05616766549792L128.7019505885442,151.06365569071932L128.77115758832295,147.8161006177761L129.0249165875117,149.3905484158022L129.09412358729045,146.73662523776875L129.14026158714296,147.67255024138285L129.18639958699544,145.43646418576827L129.46322758611043,132.41425075293228L129.85540058485668,148.00864572590217L130.3398495833079,149.17472034114326L130.50133258279163,122.55508694976015L130.68588458220165,152.2646547557597L130.77816058190663,145.53319737406127L130.93964358139038,148.80135535983572L130.96271258131662,146.72732880149124L130.9857815812429,150.3263896677381L131.21647158050536,150.5012631717691L131.81626557858786,134.0548623767172L131.9316105782191,151.47144261175708L132.3007145770391,144.5781769878231L132.55447357622782,152.1492449432335L132.64674957593283,149.71969251103292L132.66981857585907,148.44046937857638L132.85437057526906,135.69488773875491L132.99278457482654,147.39968727388623L133.06199157460532,149.21198983793147L133.26961257394154,140.60801243557944L133.36188857364655,146.95220205739315L133.52337157313028,145.11737029191863L133.54644057305654,136.19321022390068L133.68485457261403,148.35068757957197L133.82326857217151,147.49675546889193L133.86940657202402,146.94114683587395L133.9386135718028,142.9077497666076L134.7460285692215,138.30727008441318L135.0228565683365,150.09037743863882L135.46116756693522,144.49333653783106L135.50730556678772,151.10578278484172L135.99175456523895,144.00070916680124L136.45313456376394,146.11619280584273L137.0067905619939,148.17313402183936L137.07599756177265,151.46331869897404L137.37589456081392,147.01987341335916L137.5604465602239,152.3081218767329L137.76806755956014,146.02532223502203L137.83727455933888,144.74827664619806L137.88341255919138,142.98555507563287L137.90648155911762,151.98601292246894L138.9215175558726,151.30377175204922L139.0599315554301,147.98326896741492L139.12913855520887,145.3409872726479L139.2906215546926,149.121705528858L139.59051855373383,148.31484186131274L139.6366565535863,149.03142121978453L139.65972555351257,150.52345736648567L139.82120855299632,149.37312806674163L140.2364505516688,149.1862780727315L140.7670375499725,139.39252433021466L140.8823825496038,144.153555979472L141.34376254812875,150.2925539897551L141.38990054798128,150.90846383105963L141.52831454753874,144.8480248949054L142.12810854562122,149.49875558400527L142.2434535452525,146.49416412944993L142.6356265439987,145.61334773007547L143.05086854267122,149.30947679132805L143.2354205420812,150.36885176857322L143.76600754038492,148.61651540610183L143.85828354008993,136.03232325012505L143.95055953979494,139.88691048648616L143.97362853972118,149.4212015300145L144.57342253780365,147.92414028262283L145.10400953610738,150.382084533725L145.7730105339686,152.2908690310287L146.02676953315733,150.70561726651795L146.39587353197734,151.05620179136167L146.71883953094482,141.0658828601663L146.7419085308711,149.20076711305592L147.20328852939605,148.72589509779937L147.75694452762602,148.87371680977958L148.12604852644603,149.89272347814403L148.56435952504475,151.84321631117928L148.63356652482352,149.79498526971292L148.74891152445474,149.72103253788373L149.60246452172598,150.914828958601L149.76394752120973,139.3260254977431L149.8562235209147,150.18401181483932L149.9946375204722,149.79381274621846L150.1330515200297,151.30921561113064L150.24839651966093,149.6479173228363L150.3176035194397,151.62495943785325L150.3637415192922,148.76885970870353L150.91739751752218,151.7149924918922L151.10194951693217,151.09916640226584L151.4941225156784,151.1504224293094L151.60946751530963,152.53735021989996L151.65560551516214,151.6582926057672L151.93243351427714,145.20840836609568L151.97857151412964,145.3109204201828L152.11698551368713,149.8012666455761L152.39381351280213,152.65393255592062L152.50915851243337,151.13752467087033L152.73984851169584,150.86449420001736L152.97053851095833,151.87470694217336L153.61647050889331,150.68878317920462L153.66260850874585,143.39367700338335L153.75488450845083,147.10186630629323L154.10091950734457,144.72733872665412L155.0467485043208,145.988136489912L155.11595550409953,148.0196171957432L155.53119750277202,152.30175674919155L155.9464395014445,148.172966518483L156.33861250019072,148.61551038596372L156.40781949996946,151.72696898187132L156.52316449960074,149.5974150608963L156.63850949923196,151.22203011414967L157.05375149790447,147.67950163067144L157.0768204978307,149.83351104167377L157.46899349657693,152.6778017842007L157.5382004963557,149.27622737509228L157.69968349583942,151.86055290856166L158.32254649384817,151.84095501586853L158.36868449370067,151.8752932039206L158.5301674931844,151.5701858403263L158.9454094918569,152.5649045220198L159.15303049119314,150.942467012399L159.36065149052936,147.39231712620676L159.5913414897919,147.89583221539942L159.84510048898062,146.95865093661268L159.9373764886856,145.41720129978785L159.96044548861184,149.65419869869947L160.3987564872106,152.3724431655719L160.51410148684184,151.7484931631625L160.56023948669431,152.11976435251563L160.65251548639935,145.33872597733716L160.86013648573555,151.2910414969665L161.27537848440807,153.06054695346393L161.73675848293306,152.7221064219557L161.8521034825643,152.32428595062083L162.05972448190053,151.70778984756907L162.19813848145802,148.59649875501782L162.22120748138425,150.29908662065282L162.3134834810893,144.5795170146739L162.38269048086804,149.81692820939497L162.8902084792455,151.96004990223446L163.305450477918,151.722530142928L163.397726477623,145.66636254236073L163.51307147725424,149.71575618215866L163.88217547607422,151.6842556260017L163.9283134759267,152.504017051986L164.1590034751892,149.68150174578477L164.2974174747467,151.81716953926662L164.3435554745992,149.6088890408064L164.48196947415667,151.87948078782938L164.5281074740092,149.923209089L164.5742454738617,152.7922065765888L164.85107347297668,150.1899581839898L164.89721147282918,148.9524433872648L164.9433494726817,152.01926233870472L165.47393647098542,150.37421187597647L165.68155747032168,152.77034738858492L165.7507644701004,147.43377420690376L166.11986846892037,152.74706442205206L166.37362746810913,150.40436248011974L166.4197654679616,151.91072016378894L166.55817946751912,151.68810820319777L166.85807646656036,151.8693468347701L166.9734214661916,149.44046441599494L167.13490446567536,142.60632747685304L167.27331846523285,152.3282222794951L167.57321546427409,150.96859753598983L168.1730094623566,148.2386278341728L168.70359646066032,151.61574675325392L168.7958724603653,149.84573878668743L168.81894146029154,144.96351845910976L168.9804244597753,148.3512738413192L169.37259745852154,152.53835524003807L169.62635645771027,150.55737679614685L169.880115456899,143.5744968765648L170.04159845638273,150.92462790494756L170.18001245594024,150.66173138715385L170.73366845417024,152.53324638766935L172.0024634501139,153.16180273237842L172.09473944981895,152.86046419430204L172.39463644886018,151.76306595516508L172.7406714477539,151.7678398008211L172.92522344716392,151.53785769255046L172.94829244709015,149.84506877326203L173.04056844679513,152.79865545580833L173.27125844605763,151.99321556679206L173.50194844532012,151.61465798143763L173.5250174452464,151.5498341825296L173.54808644517263,148.73870910456026L173.73263844458265,152.07127213085187L174.1940184431076,152.491621803616L174.74767444133758,147.67958538234961L174.90915744082133,151.49263178633555L174.97836444060007,152.9998269867865L175.20905443986257,150.57194958814944L175.41667543919883,152.8302298384806L175.48588243897757,152.0562805804584L175.71657243824006,151.3822470744999L175.83191743787128,152.3638167427198L176.66240143521625,151.72487518991693L176.8700224345525,152.85811914731312L176.91616043440501,151.75201073364588L177.00843643411,146.32364571268408L177.1468504336675,145.60656384414324L177.21605743344625,147.92933288666973L177.37754043293,152.62721577058255L177.56209243233997,152.72905781124427L177.63129943211874,150.31240313748276L177.81585143152873,151.35971787307062L177.90812743123374,149.44071567102947L178.00040343093872,152.48441915929288L178.53099042924245,150.42345786274382L178.62326642894746,150.9054487706453L178.7847494284312,152.14112103045045L178.8770254281362,152.24606188320467L179.13078442732493,152.60619409936044L179.40761242643993,152.77269243557384L179.7767164252599,151.23459286587604L180.35344142341611,151.22940026182914L180.69947642230989,152.2435493328594L181.02244242127736,149.0059607096191L181.20699442068735,152.73961052269442L181.39154642009734,152.94220583220158L181.52996041965486,151.97705149290414L181.55302941958112,151.31616700041923L182.15282341766357,152.74882320729375L182.47578941663107,153.08349491328408L183.05251441478728,152.85384781172615L183.44468741353353,150.02948996860505L183.7215154126485,152.99999449014285L183.79072241242727,152.79128530812886L183.92913641198476,150.94338828085893L184.34437841065727,152.8133119994891L184.39051641050975,153.00217203377542L184.80575840918223,151.7249589415951L184.89803440888724,151.0865198988613L185.38248340733844,152.5984051932901L185.47475940704348,152.18056807087123L185.6362424065272,152.42344793758093L185.93613940556844,153.00903967138584L186.07455340512595,152.15360003049864L186.39751940409343,153.18684448415297L186.67434740320843,149.51667844313488L187.02038240210214,152.76858860334323L187.20493440151216,153.03483518826397L187.2280034014384,152.09715139940818L187.7355213998159,152.52771877690975L187.82779739952088,151.18995322140836L188.15076339848835,152.64212356929784L188.42759139760335,152.33835623255436L188.4506603975296,153.33232114914426L188.61214339701334,151.87613072070235L188.93510939598085,153.02285869828484L189.07352339553833,153.2685861220525L189.23500639502208,152.20912739312917L189.28114439487456,153.15501884644618L189.48876539421082,152.7307328448078L189.53490339406332,152.35091898428072L189.55797239398956,152.31314697742346L189.9962833925883,151.92889427795308L190.06549039236705,152.9411170603853L190.27311139170328,152.50979591778014L190.57300839074452,151.50050444408407L191.12666438897452,152.63374840148026L191.4957683877945,152.64321234111412L191.74952738698323,152.78466892555298L192.16476938565575,151.67856051188573L192.3954593849182,153.1180006046925L192.41852838484448,145.94517187900783L192.55694238440196,152.07931229195674L192.71842538388572,152.75610960329504L192.8107013835907,152.25075197718252L192.83377038351693,152.9068626240114L192.8568393834432,149.4043674427012L193.36435738182067,144.37424165146513L193.38742638174693,152.15979765468364L193.47970238145192,152.71775133469055L193.52584038130442,152.84212257678155L193.73346138064065,151.83316610979819L193.82573738034569,141.42643383471295L194.4947383782069,150.17362660674553L194.51780737813314,152.7002472339518L194.7254283774694,152.1316570908166L194.7946353772481,152.6709341465903L194.9561183767319,151.9046062912821L195.18680837599436,150.0210310491093L195.20987737592063,149.206043468781L195.25601537577313,144.86502648557507L195.37136037540435,152.4791428035678L195.50977437496186,153.02386371842294L195.60205037466685,151.7698498410973L195.64818837451935,153.17955808815168L196.01729237333933,153.20108226944285L196.15570637289684,153.05016174537013L196.17877537282308,153.07210468505218L196.36332737223307,152.09832392290264L196.8016383708318,152.94739843624848L197.19381136957804,152.80451807328063L197.79360536766052,152.8930435971124L198.32419236596425,153.12679453090095L198.6240893650055,149.75754826956836L198.69329636478423,153.10652662478242L199.40843536249798,153.36925563921977L199.43150436242422,152.38718346093083L199.8006083612442,152.87872206014436L199.82367736117044,152.82210592569754L200.05436736043293,152.7749537308846L200.12357436021168,149.37555686540873L200.16971236006418,153.20217104125913L200.42347135925291,152.9403632952817L200.56188535881043,151.66700278029748L200.63109235858917,153.3906123171546L200.72336835829415,152.99161932232528L201.13861035696667,147.3119992668362L201.1616793568929,149.31291061013326L201.25395535659788,152.4608849377255L201.32316235637663,153.48776426383847L201.36930035622916,152.90904016764398L201.69226635519664,151.06382319407567L201.78454235490162,152.2812375880385L202.03830135409038,151.81817455940472L202.10750835386912,152.87227318092482L202.5688883523941,153.1308146114534L202.7534403518041,152.28215885649843L202.98413035106657,153.18198688681878L203.00719935099283,152.28241011153295L203.26095835018157,152.2086248830601L203.7915453484853,152.99723068476305L203.90689034811658,153.3885185252002L204.2990633468628,152.31348198413616L205.31409934361776,153.16682783306896L205.33716834354402,153.32093092091236L205.429444343249,149.4320054964992L205.52172034295398,150.80997185752494L205.9369623416265,151.90988264700718L206.07537634118395,151.59631636391714L207.0673433380127,152.88257463734044L207.2518953374227,152.2539345409532L207.43644733683269,153.08634247034206L207.45951633675892,153.2147337929855L207.85168933550517,153.15828516189504L208.1515863345464,152.46247621961083L208.2438623342514,153.0699271414196L208.49762133344015,152.62043188465032L208.77444933255512,153.34019380689278L208.84365633233386,139.1280365305356L208.8897943321864,153.04488538964506L208.98207033189138,153.05669437626784L209.1666223313014,152.70912491183844L210.5507623268763,152.04932919116982L210.68917632643382,153.13776600074198L210.71224532636006,153.39237110239628L211.10441832510628,152.8008329994409L211.26590132459003,152.829476073377L211.7964883228938,146.23989403450832L211.88876432259877,153.15485134308983L212.1425233217875,153.31196949134755L212.21173032156625,152.85585785200237L212.6039033203125,152.6992422138137L212.74231731986998,152.77445122081554L213.04221431891122,152.62453571688093L213.5035943174362,153.3491552364576L213.71121531677247,153.1124729939329L214.08031931559245,152.9511672617664L214.12645731544492,152.94086580535077L214.33407831478118,152.67621050231537L214.54169931411744,152.92327795293386L214.7262513135274,153.44329212272714L215.18763131205242,153.42779806226463L215.2337693119049,153.09078130928538L215.30297631168366,152.1741191916517L215.34911431153617,153.23969179308187L215.48752831109366,153.23793300784018L215.76435631020863,152.78827024771454L215.7874253101349,153.2485694709685L215.94890830961864,152.86088295269292L216.0181153093974,152.90074875150458L216.13346030902864,152.53676395815273L216.29494330851236,153.09614141668862L216.34108130836486,152.99647691965947L217.51760030460358,152.01130592927802L217.7713593037923,153.39697744469595L217.84056630357108,152.81590830151254L217.9559113032023,152.7994929725901L218.32501530202228,153.35828416937875L218.41729130172732,153.03249014127505L218.44036030165356,153.1612164706312L218.48649830150603,153.2015847795119L218.71718830076856,151.98391913051455L218.80946430047354,151.82613096883142L218.90174030017852,153.2896915449528L219.10936129951477,153.41531906221644L219.132430299441,153.20552110838616L219.2477752990723,151.39681986650248L219.34005129877727,152.90920767100033L219.3631202987035,153.42846807569003L219.70915529759725,153.27545375966292L220.42429429531097,152.86624306009617L220.70112229442597,151.82613096883142L220.8626052939097,152.05946314422908L220.97795029354097,150.4618998830265L221.30091629250845,152.78508768394386L221.5085372918447,153.14237234304164L221.85457229073842,151.10871409357787L222.10833128992718,152.97135141620674L222.2698142894109,152.94304334898334L222.29288328933717,152.3053580713531L222.5005042886734,152.2103836683018L223.37712628587084,153.29237159865443L223.44633328564962,152.68801948893815L223.49247128550212,153.1881007593256L223.56167828528086,151.80670057949465L223.5847472852071,152.75602585161687L223.6770232849121,153.11465053756547L224.41523128255207,150.3962385673367L224.73819728151958,152.7762937577354L225.36106027952832,145.36159018547914L225.4994742790858,153.22813406149362L225.59175027879078,153.35074651834293L226.00699227746327,153.2555208602571L226.12233727709452,149.7763923971579L226.4683722759883,151.0747946639167L226.537579275767,153.24597316894506L226.60678627554574,152.90636011394236L227.091235273997,153.38114837752073L227.34499427318573,152.92235668447393L227.64489127222697,152.76540603957255L227.66796027215324,153.26816736366163L227.89865027141573,153.31933963902702L227.96785727119445,153.19664343049953L228.06013327089946,153.35485035057354L228.4523062696457,153.04848671180662L228.4984442694982,153.0700108930978L228.56765126927692,153.21858637018158L229.05210026772818,153.28324266573327L229.09823826758068,153.101082765701L229.2135832672119,153.37310821641586L229.46734226640064,153.25803341060237L229.65189426581065,152.83910751636722L229.74417026551563,153.07394722197205L230.13634326426188,152.21607878241775L230.27475726381937,153.36724559894355L230.50544726308186,152.99078180554352L230.55158526293437,153.09061380592902L230.68999926249188,152.92805179858988L230.8053442621231,153.10393032275897L230.92068926175435,153.21398002788192L230.98989626153312,153.0768785307082L231.33593126042683,153.09857021535572L231.3590002603531,152.5455578843612L231.9818632583618,153.34069631696184L232.1664152577718,153.02210493318125L232.3971052570343,152.4376857228708L232.65086425622306,152.48073408545315L233.13531325467426,153.35903793448233L233.5274862534205,153.25451584011898L233.55055525334677,153.06975963806326L234.28876325098676,153.34212009549083L234.311832250913,152.17604548024974L234.45024625047049,149.47564012082876L235.64983424663544,153.35560411567712L235.69597224648794,153.3215171826596L235.85745524597166,152.3437163399576L235.9266622457504,152.57512222675723L236.08814524523416,153.1587876719641L236.7110082432429,152.64036478405615L237.19545724169413,153.06222198702744L237.42614724095662,153.1062753697479L237.7952512397766,153.53458145193872L237.8413892396291,152.93433317445306L237.88752723948159,153.47394523693947L238.00287223911286,153.26984239722515L238.74108023675285,152.58399990464386L238.85642523638407,153.4030075655246L239.11018423557283,153.34262260555988L239.13325323549907,152.94572340268496L239.1563222354253,153.18483444387675L239.22552923520405,151.72093886104267L239.59463323402406,152.78584144904744L240.21749623203277,153.4883505255857L240.28670323181152,153.1884357660383L240.7480832303365,153.24438188705972L240.886497229894,152.34882519232633L240.90956622982023,153.00200453041907L241.5093602279027,152.90954267771303L241.67084322738648,153.13575596046576L241.83232622687024,152.15770386272925L242.59360322443644,153.13190338326967L242.6628102242152,152.8657405500271L243.10112122281393,153.30434808863356L243.12419022274017,153.10007774556288L243.33181122207642,153.09781645025214L243.49329422156018,153.440360813991L243.56250122133892,152.15393503721134L243.72398422082264,152.76892361005594L243.79319122060141,152.20678234614024L244.23150221920014,152.31122068882541L244.30070921897888,152.0518417415151L244.5544682181676,152.88433342258213L244.80822721735635,151.11198040902673L245.03891721661884,151.51784104146645L245.08505521647135,153.0139810203982L245.10812421639758,152.99873821497022L245.17733121617636,153.17160167872498L245.73098721440635,153.50191829745017L245.84633221403757,152.85770038892224L245.8694012139638,152.9725239397012L245.96167721366882,152.8377674895164L246.39998821226757,152.94136831541982L246.4230572121938,152.9994919800738L246.63067821153007,153.08265739650233L246.81523021094003,153.45443109592452L247.09205821005503,149.9812490019758L247.94561120732627,152.81113445585652L248.014818207105,153.06431577898184L248.22243920644124,152.71833759643778L248.2455082063675,152.44162205174507L248.383922205925,153.05803440311865L248.43006020577747,152.6667465626815L248.63768120511372,152.69589214668667L249.44509620253245,153.23114912190795L249.56044120216367,152.27822252762417L250.09102820046743,152.32294592377002L250.16023520024615,152.92160291937034L250.22944220002492,151.9996644460116L250.43706319936115,153.2216851822741L251.08299519729616,152.83852125462L251.63665119552613,152.56297823342175L251.86734119478862,152.86121795940562L253.13613619073232,151.78073755926016L253.27455019028983,153.21481754466367L253.3668261899948,152.95577360406605L253.43603318977355,147.00739441331098L253.6897921889623,152.60719911949855L253.75899918874103,152.19740215818456" fill="none"></path></g></g></g></g></g></g><g transform="translate(53, 175)" clip-path="url(#clip_1)"><clipPath id="clip_1"><rect width="276" height="24"></rect></clipPath><g><g><line x1="0" y1="0" x2="0" y2="5" style="visibility: inherit;" fill="rgb(0, 0, 0)" stroke="rgb(204, 204, 204)" stroke-width="1px"></line><line x1="23.068999926249184" y1="0" x2="23.068999926249184" y2="5" style="visibility: inherit;" fill="rgb(0, 0, 0)" stroke="rgb(204, 204, 204)" stroke-width="1px"></line><line x1="46.13799985249837" y1="0" x2="46.13799985249837" y2="5" style="visibility: inherit;" fill="rgb(0, 0, 0)" stroke="rgb(204, 204, 204)" stroke-width="1px"></line><line x1="69.20699977874756" y1="0" x2="69.20699977874756" y2="5" style="visibility: inherit;" fill="rgb(0, 0, 0)" stroke="rgb(204, 204, 204)" stroke-width="1px"></line><line x1="92.27599970499674" y1="0" x2="92.27599970499674" y2="5" style="visibility: inherit;" fill="rgb(0, 0, 0)" stroke="rgb(204, 204, 204)" stroke-width="1px"></line><line x1="115.34499963124594" y1="0" x2="115.34499963124594" y2="5" style="visibility: inherit;" fill="rgb(0, 0, 0)" stroke="rgb(204, 204, 204)" stroke-width="1px"></line><line x1="138.41399955749512" y1="0" x2="138.41399955749512" y2="5" style="visibility: inherit;" fill="rgb(0, 0, 0)" stroke="rgb(204, 204, 204)" stroke-width="1px"></line><line x1="161.48299948374432" y1="0" x2="161.48299948374432" y2="5" style="visibility: inherit;" fill="rgb(0, 0, 0)" stroke="rgb(204, 204, 204)" stroke-width="1px"></line><line x1="184.55199940999347" y1="0" x2="184.55199940999347" y2="5" style="visibility: inherit;" fill="rgb(0, 0, 0)" stroke="rgb(204, 204, 204)" stroke-width="1px"></line><line x1="207.62099933624268" y1="0" x2="207.62099933624268" y2="5" style="visibility: inherit;" fill="rgb(0, 0, 0)" stroke="rgb(204, 204, 204)" stroke-width="1px"></line><line x1="230.68999926249188" y1="0" x2="230.68999926249188" y2="5" style="visibility: inherit;" fill="rgb(0, 0, 0)" stroke="rgb(204, 204, 204)" stroke-width="1px"></line><line x1="253.75899918874103" y1="0" x2="253.75899918874103" y2="5" style="visibility: inherit;" fill="rgb(0, 0, 0)" stroke="rgb(204, 204, 204)" stroke-width="1px"></line><line x1="276.82799911499023" y1="0" x2="276.82799911499023" y2="5" style="visibility: inherit;" fill="rgb(0, 0, 0)" stroke="rgb(204, 204, 204)" stroke-width="1px"></line></g><g transform="translate(0, 8)"><text style="text-anchor: middle; visibility: hidden; font-family: Roboto, sans-serif; font-size: 12px; font-weight: 200;" x="0" y="0" dx="0em" dy="0.95em" fill="rgb(33, 33, 33)" stroke="none" stroke-width="1px">-1k</text><text style="text-anchor: middle; visibility: inherit; font-family: Roboto, sans-serif; font-size: 12px; font-weight: 200;" x="23.068999926249184" y="0" dx="0em" dy="0.95em" fill="rgb(33, 33, 33)" stroke="none" stroke-width="1px">0</text><text style="text-anchor: middle; visibility: inherit; font-family: Roboto, sans-serif; font-size: 12px; font-weight: 200;" x="46.13799985249837" y="0" dx="0em" dy="0.95em" fill="rgb(33, 33, 33)" stroke="none" stroke-width="1px">1k</text><text style="text-anchor: middle; visibility: inherit; font-family: Roboto, sans-serif; font-size: 12px; font-weight: 200;" x="69.20699977874756" y="0" dx="0em" dy="0.95em" fill="rgb(33, 33, 33)" stroke="none" stroke-width="1px">2k</text><text style="text-anchor: middle; visibility: inherit; font-family: Roboto, sans-serif; font-size: 12px; font-weight: 200;" x="92.27599970499674" y="0" dx="0em" dy="0.95em" fill="rgb(33, 33, 33)" stroke="none" stroke-width="1px">3k</text><text style="text-anchor: middle; visibility: inherit; font-family: Roboto, sans-serif; font-size: 12px; font-weight: 200;" x="115.34499963124594" y="0" dx="0em" dy="0.95em" fill="rgb(33, 33, 33)" stroke="none" stroke-width="1px">4k</text><text style="text-anchor: middle; visibility: inherit; font-family: Roboto, sans-serif; font-size: 12px; font-weight: 200;" x="138.41399955749512" y="0" dx="0em" dy="0.95em" fill="rgb(33, 33, 33)" stroke="none" stroke-width="1px">5k</text><text style="text-anchor: middle; visibility: inherit; font-family: Roboto, sans-serif; font-size: 12px; font-weight: 200;" x="161.48299948374432" y="0" dx="0em" dy="0.95em" fill="rgb(33, 33, 33)" stroke="none" stroke-width="1px">6k</text><text style="text-anchor: middle; visibility: inherit; font-family: Roboto, sans-serif; font-size: 12px; font-weight: 200;" x="184.55199940999347" y="0" dx="0em" dy="0.95em" fill="rgb(33, 33, 33)" stroke="none" stroke-width="1px">7k</text><text style="text-anchor: middle; visibility: inherit; font-family: Roboto, sans-serif; font-size: 12px; font-weight: 200;" x="207.62099933624268" y="0" dx="0em" dy="0.95em" fill="rgb(33, 33, 33)" stroke="none" stroke-width="1px">8k</text><text style="text-anchor: middle; visibility: inherit; font-family: Roboto, sans-serif; font-size: 12px; font-weight: 200;" x="230.68999926249188" y="0" dx="0em" dy="0.95em" fill="rgb(33, 33, 33)" stroke="none" stroke-width="1px">9k</text><text style="text-anchor: middle; visibility: inherit; font-family: Roboto, sans-serif; font-size: 12px; font-weight: 200;" x="253.75899918874103" y="0" dx="0em" dy="0.95em" fill="rgb(33, 33, 33)" stroke="none" stroke-width="1px">10k</text><text style="text-anchor: middle; visibility: hidden; font-family: Roboto, sans-serif; font-size: 12px; font-weight: 200;" x="276.82799911499023" y="0" dx="0em" dy="0.95em" fill="rgb(33, 33, 33)" stroke="none" stroke-width="1px">11k</text></g><line x1="0" y1="0" x2="276.82799911499023" y2="0" fill="rgb(0, 0, 0)" stroke="rgb(204, 204, 204)" stroke-width="1px"></line></g></g></g></g></svg>