<svg viewBox="0 0 330 200" xmlns="http://www.w3.org/2000/svg"><g><g><g><g><g><line x1="63.96500110626221" y1="175.63999938964844" x2="58.96500110626221" y2="175.63999938964844" style="visibility: inherit;" fill="rgb(0, 0, 0)" stroke="rgb(204, 204, 204)" stroke-width="1px"></line><line x1="63.96500110626221" y1="161.0033327738444" x2="58.96500110626221" y2="161.0033327738444" style="visibility: inherit;" fill="rgb(0, 0, 0)" stroke="rgb(204, 204, 204)" stroke-width="1px"></line><line x1="63.96500110626221" y1="146.36666615804035" x2="58.96500110626221" y2="146.36666615804035" style="visibility: inherit;" fill="rgb(0, 0, 0)" stroke="rgb(204, 204, 204)" stroke-width="1px"></line><line x1="63.96500110626221" y1="131.72999954223633" x2="58.96500110626221" y2="131.72999954223633" style="visibility: inherit;" fill="rgb(0, 0, 0)" stroke="rgb(204, 204, 204)" stroke-width="1px"></line><line x1="63.96500110626221" y1="117.09333292643228" x2="58.96500110626221" y2="117.09333292643228" style="visibility: inherit;" fill="rgb(0, 0, 0)" stroke="rgb(204, 204, 204)" stroke-width="1px"></line><line x1="63.96500110626221" y1="102.45666631062824" x2="58.96500110626221" y2="102.45666631062824" style="visibility: inherit;" fill="rgb(0, 0, 0)" stroke="rgb(204, 204, 204)" stroke-width="1px"></line><line x1="63.96500110626221" y1="87.8199996948242" x2="58.96500110626221" y2="87.8199996948242" style="visibility: inherit;" fill="rgb(0, 0, 0)" stroke="rgb(204, 204, 204)" stroke-width="1px"></line><line x1="63.96500110626221" y1="73.1833330790202" x2="58.96500110626221" y2="73.1833330790202" style="visibility: inherit;" fill="rgb(0, 0, 0)" stroke="rgb(204, 204, 204)" stroke-width="1px"></line><line x1="63.96500110626221" y1="58.546666463216134" x2="58.96500110626221" y2="58.546666463216134" style="visibility: inherit;" fill="rgb(0, 0, 0)" stroke="rgb(204, 204, 204)" stroke-width="1px"></line><line x1="63.96500110626221" y1="43.90999984741211" x2="58.96500110626221" y2="43.90999984741211" style="visibility: inherit;" fill="rgb(0, 0, 0)" stroke="rgb(204, 204, 204)" stroke-width="1px"></line><line x1="63.96500110626221" y1="29.273333231608085" x2="58.96500110626221" y2="29.273333231608085" style="visibility: inherit;" fill="rgb(0, 0, 0)" stroke="rgb(204, 204, 204)" stroke-width="1px"></line><line x1="63.96500110626221" y1="14.636666615804023" x2="58.96500110626221" y2="14.636666615804023" style="visibility: inherit;" fill="rgb(0, 0, 0)" stroke="rgb(204, 204, 204)" stroke-width="1px"></line><line x1="63.96500110626221" y1="0" x2="58.96500110626221" y2="0" style="visibility: inherit;" fill="rgb(0, 0, 0)" stroke="rgb(204, 204, 204)" stroke-width="1px"></line></g><g transform="translate(53.96500110626221, 0)"><text style="text-anchor: end; visibility: hidden; font-family: Roboto, sans-serif; font-size: 12px; font-weight: 200;" x="0" y="175.63999938964844" dx="0em" dy="0.3em" fill="rgb(33, 33, 33)" stroke="none" stroke-width="1px">-0.01</text><text style="text-anchor: end; visibility: inherit; font-family: Roboto, sans-serif; font-size: 12px; font-weight: 200;" x="0" y="161.0033327738444" dx="0em" dy="0.3em" fill="rgb(33, 33, 33)" stroke="none" stroke-width="1px">0</text><text style="text-anchor: end; visibility: hidden; font-family: Roboto, sans-serif; font-size: 12px; font-weight: 200;" x="0" y="146.36666615804035" dx="0em" dy="0.3em" fill="rgb(33, 33, 33)" stroke="none" stroke-width="1px">0.01</text><text style="text-anchor: end; visibility: inherit; font-family: Roboto, sans-serif; font-size: 12px; font-weight: 200;" x="0" y="131.72999954223633" dx="0em" dy="0.3em" fill="rgb(33, 33, 33)" stroke="none" stroke-width="1px">0.02</text><text style="text-anchor: end; visibility: hidden; font-family: Roboto, sans-serif; font-size: 12px; font-weight: 200;" x="0" y="117.09333292643228" dx="0em" dy="0.3em" fill="rgb(33, 33, 33)" stroke="none" stroke-width="1px">0.03</text><text style="text-anchor: end; visibility: inherit; font-family: Roboto, sans-serif; font-size: 12px; font-weight: 200;" x="0" y="102.45666631062824" dx="0em" dy="0.3em" fill="rgb(33, 33, 33)" stroke="none" stroke-width="1px">0.04</text><text style="text-anchor: end; visibility: hidden; font-family: Roboto, sans-serif; font-size: 12px; font-weight: 200;" x="0" y="87.8199996948242" dx="0em" dy="0.3em" fill="rgb(33, 33, 33)" stroke="none" stroke-width="1px">0.05</text><text style="text-anchor: end; visibility: inherit; font-family: Roboto, sans-serif; font-size: 12px; font-weight: 200;" x="0" y="73.1833330790202" dx="0em" dy="0.3em" fill="rgb(33, 33, 33)" stroke="none" stroke-width="1px">0.06</text><text style="text-anchor: end; visibility: hidden; font-family: Roboto, sans-serif; font-size: 12px; font-weight: 200;" x="0" y="58.546666463216134" dx="0em" dy="0.3em" fill="rgb(33, 33, 33)" stroke="none" stroke-width="1px">0.07</text><text style="text-anchor: end; visibility: inherit; font-family: Roboto, sans-serif; font-size: 12px; font-weight: 200;" x="0" y="43.90999984741211" dx="0em" dy="0.3em" fill="rgb(33, 33, 33)" stroke="none" stroke-width="1px">0.08</text><text style="text-anchor: end; visibility: hidden; font-family: Roboto, sans-serif; font-size: 12px; font-weight: 200;" x="0" y="29.273333231608085" dx="0em" dy="0.3em" fill="rgb(33, 33, 33)" stroke="none" stroke-width="1px">0.09</text><text style="text-anchor: end; visibility: inherit; font-family: Roboto, sans-serif; font-size: 12px; font-weight: 200;" x="0" y="14.636666615804023" dx="0em" dy="0.3em" fill="rgb(33, 33, 33)" stroke="none" stroke-width="1px">0.1</text><text style="text-anchor: end; visibility: hidden; font-family: Roboto, sans-serif; font-size: 12px; font-weight: 200;" x="0" y="0" dx="0em" dy="0.3em" fill="rgb(33, 33, 33)" stroke="none" stroke-width="1px">0.11</text></g><line x1="63.96500110626221" y1="0" x2="63.96500110626221" y2="175.63999938964844" fill="rgb(0, 0, 0)" stroke="rgb(204, 204, 204)" stroke-width="1px"></line></g></g><g transform="translate(63, 0)" clip-path="url(#clip_0)"><clipPath id="clip_0"><rect width="266" height="175"></rect></clipPath><g><g><g><line x1="0" y1="0" x2="0" y2="175.63999938964844" fill="rgb(0, 0, 0)" stroke="rgb(66, 66, 66)" stroke-width="1px" opacity="0.25"></line><line x1="22.169583241144814" y1="0" x2="22.169583241144814" y2="175.63999938964844" fill="rgb(0, 0, 0)" stroke="rgb(66, 66, 66)" stroke-width="1px" opacity="0.25"></line><line x1="44.33916648228963" y1="0" x2="44.33916648228963" y2="175.63999938964844" fill="rgb(0, 0, 0)" stroke="rgb(66, 66, 66)" stroke-width="1px" opacity="0.25"></line><line x1="66.50874972343445" y1="0" x2="66.50874972343445" y2="175.63999938964844" fill="rgb(0, 0, 0)" stroke="rgb(66, 66, 66)" stroke-width="1px" opacity="0.25"></line><line x1="88.67833296457925" y1="0" x2="88.67833296457925" y2="175.63999938964844" fill="rgb(0, 0, 0)" stroke="rgb(66, 66, 66)" stroke-width="1px" opacity="0.25"></line><line x1="110.84791620572409" y1="0" x2="110.84791620572409" y2="175.63999938964844" fill="rgb(0, 0, 0)" stroke="rgb(66, 66, 66)" stroke-width="1px" opacity="0.25"></line><line x1="133.0174994468689" y1="0" x2="133.0174994468689" y2="175.63999938964844" fill="rgb(0, 0, 0)" stroke="rgb(66, 66, 66)" stroke-width="1px" opacity="0.25"></line><line x1="155.18708268801373" y1="0" x2="155.18708268801373" y2="175.63999938964844" fill="rgb(0, 0, 0)" stroke="rgb(66, 66, 66)" stroke-width="1px" opacity="0.25"></line><line x1="177.3566659291585" y1="0" x2="177.3566659291585" y2="175.63999938964844" fill="rgb(0, 0, 0)" stroke="rgb(66, 66, 66)" stroke-width="1px" opacity="0.25"></line><line x1="199.52624917030334" y1="0" x2="199.52624917030334" y2="175.63999938964844" fill="rgb(0, 0, 0)" stroke="rgb(66, 66, 66)" stroke-width="1px" opacity="0.25"></line><line x1="221.69583241144818" y1="0" x2="221.69583241144818" y2="175.63999938964844" fill="rgb(0, 0, 0)" stroke="rgb(66, 66, 66)" stroke-width="1px" opacity="0.25"></line><line x1="243.86541565259296" y1="0" x2="243.86541565259296" y2="175.63999938964844" fill="rgb(0, 0, 0)" stroke="rgb(66, 66, 66)" stroke-width="1px" opacity="0.25"></line><line x1="266.0349988937378" y1="0" x2="266.0349988937378" y2="175.63999938964844" fill="rgb(0, 0, 0)" stroke="rgb(66, 66, 66)" stroke-width="1px" opacity="0.25"></line></g><g><line x1="0" y1="175.63999938964844" x2="266.0349988937378" y2="175.63999938964844" fill="rgb(0, 0, 0)" stroke="rgb(66, 66, 66)" stroke-width="1px" opacity="0.25"></line><line x1="0" y1="161.0033327738444" x2="266.0349988937378" y2="161.0033327738444" fill="rgb(0, 0, 0)" stroke="rgb(66, 66, 66)" stroke-width="1px" opacity="0.25"></line><line x1="0" y1="146.36666615804035" x2="266.0349988937378" y2="146.36666615804035" fill="rgb(0, 0, 0)" stroke="rgb(66, 66, 66)" stroke-width="1px" opacity="0.25"></line><line x1="0" y1="131.72999954223633" x2="266.0349988937378" y2="131.72999954223633" fill="rgb(0, 0, 0)" stroke="rgb(66, 66, 66)" stroke-width="1px" opacity="0.25"></line><line x1="0" y1="117.09333292643228" x2="266.0349988937378" y2="117.09333292643228" fill="rgb(0, 0, 0)" stroke="rgb(66, 66, 66)" stroke-width="1px" opacity="0.25"></line><line x1="0" y1="102.45666631062824" x2="266.0349988937378" y2="102.45666631062824" fill="rgb(0, 0, 0)" stroke="rgb(66, 66, 66)" stroke-width="1px" opacity="0.25"></line><line x1="0" y1="87.8199996948242" x2="266.0349988937378" y2="87.8199996948242" fill="rgb(0, 0, 0)" stroke="rgb(66, 66, 66)" stroke-width="1px" opacity="0.25"></line><line x1="0" y1="73.1833330790202" x2="266.0349988937378" y2="73.1833330790202" fill="rgb(0, 0, 0)" stroke="rgb(66, 66, 66)" stroke-width="1px" opacity="0.25"></line><line x1="0" y1="58.546666463216134" x2="266.0349988937378" y2="58.546666463216134" fill="rgb(0, 0, 0)" stroke="rgb(66, 66, 66)" stroke-width="1px" opacity="0.25"></line><line x1="0" y1="43.90999984741211" x2="266.0349988937378" y2="43.90999984741211" fill="rgb(0, 0, 0)" stroke="rgb(66, 66, 66)" stroke-width="1px" opacity="0.25"></line><line x1="0" y1="29.273333231608085" x2="266.0349988937378" y2="29.273333231608085" fill="rgb(0, 0, 0)" stroke="rgb(66, 66, 66)" stroke-width="1px" opacity="0.25"></line><line x1="0" y1="14.636666615804023" x2="266.0349988937378" y2="14.636666615804023" fill="rgb(0, 0, 0)" stroke="rgb(66, 66, 66)" stroke-width="1px" opacity="0.25"></line><line x1="0" y1="0" x2="266.0349988937378" y2="0" fill="rgb(0, 0, 0)" stroke="rgb(66, 66, 66)" stroke-width="1px" opacity="0.25"></line></g></g></g><g><g><line x1="0" y1="161.0033327738444" x2="266.0349988937378" y2="161.0033327738444" fill="rgb(0, 0, 0)" stroke="rgb(153, 153, 153)" stroke-width="1.5px"></line></g></g><g><g><line x1="22.169583241144814" y1="0" x2="22.169583241144814" y2="175.63999938964844" fill="rgb(0, 0, 0)" stroke="rgb(153, 153, 153)" stroke-width="1.5px"></line></g></g><g><g><g><g><g><path style="fill: none;" stroke="rgb(0, 119, 187)" stroke-width="2px" d="M22.590805322726567,155.44139936605444L22.723822822173435,154.34364953072034L23.078536154031752,151.6179436936167L23.122875320514044,150.1463698715366L23.18938407023748,149.01487668840272L23.43324948589007,147.04398511603085L23.765793234507242,144.1150118471747L23.83230198423068,142.0537186340384L24.275693649053572,138.4736188624919L24.541728647947313,134.935121335543L24.985120312770206,130.47537297316003L25.628038226763408,124.40678746269744L25.69454697648684,120.42236062510618L25.894073225657145,116.98037296952657L26.248786557515462,113.04253164084328L26.29312572399775,110.44675979369772L27.26858738660812,103.73678658601845L27.37943530281385,99.12600449481427L27.711979051431022,94.60332654482559L27.84499655087789,91.18731166960502L27.95584446708361,88.5523019841972L28.111031549771628,86.15167044139511L28.244049049218496,84.00874520477657L29.019984462658567,78.62471524087984L29.064323629140855,75.16012665617137L29.24168029507001,72.1446309582239L29.707241543134053,67.87637195737811L29.88459820906321,64.37867370534676L30.32798987388611,59.93818822352788L31.525147368907927,50.95085862269046L31.547316952149075,45.441366803199735L31.924199867248532,40.14508656148667L31.99070861697197,36.61603708637087L32.057217366695404,34.1473302780738L32.389761115312574,30.90970265482701L32.45626986503601,28.61584889186094L32.47843944827716,27.122441333449395L32.7001352806886,25.05546545980764L33.12135736227035,21.590503846170435L33.58691861033439,18.80933012941826L33.96380152543386,17.141903987252842L34.07464944163958,16.142002285264365L34.67322818915049,15.546423330952141L34.894924021561934,15.191283164160506L35.027941521008806,14.979682166759432L35.18312860369682,14.854588532825654L35.205298186937966,14.779815886797518L35.936894433895745,14.745988327608991L35.98123360037804,14.726472602012683L36.24726859927178,14.719718474280507L36.402455681959786,14.718767426973704L36.42462526520093,14.718650453513083L36.468964431683226,14.719505027549891L36.53547318140666,14.72142235740803L36.57981234788895,14.723528047902137L36.84584734678269,14.73078057960145L37.06754317919413,14.740475630171359L38.02083525856336,14.77290999073353L38.19819192449252,14.797975862615372L38.37554859042167,14.818821296351352L38.57507483959198,14.838107208045315L38.863279421726865,14.859925249438511L38.95195775469144,14.876278900069993L39.151484003861746,14.893615655285009L39.24016233682632,14.907446292739346L39.28450150330861,14.917476415640854L39.32884066979091,14.925239316010467L39.484027752478916,14.936108639030243L39.594875668684644,14.947162420010077L39.63921483516693,14.955626756558061L39.75006275137265,14.96535095938566L39.79440191785495,14.973061169708036L39.883080250819525,14.981486655885357L39.9717585837841,14.990389290307963L40.10477608323097,15.001597850500392L40.12694566647212,15.00931317572763L40.63684608101845,15.037567323416036L40.725524413983024,15.058803361402445L41.4571206609408,15.108801394782809L41.612307743628826,15.147149210229168L41.74532524307569,15.177438188605072L42.055699408451716,15.213042393650941L42.1443777414163,15.239499810434154L42.29956482410431,15.264412462440545L42.343903990586604,15.281968569454241L42.52126065651576,15.303071520965553L42.83163482189178,15.334721367658785L42.85380440513293,15.355089688711356L43.075500237544375,15.381282380571879L43.14200898726781,15.401251010595566L43.34153523643811,15.426165715994731L43.51889190236727,15.45282668797912L43.71841815153758,15.482236625877587L43.74058773477872,15.501387501583908L43.873605234225586,15.521986022009298L43.89577481746674,15.53587185756463L44.00662273367246,15.551893682263628L44.40567523201307,15.589847123599087L44.4721839817365,15.617443634028604L44.671710230906804,15.648640635700783L45.33679772814115,15.717998067534413L45.62500231027604,15.78243485893751L45.758019809722896,15.83181016927933L45.82452855944633,15.866835593900147L45.868867725928624,15.891467001860532L45.9575460588932,15.913513049545127L46.09056355834007,15.93773744798303L46.20141147454579,15.961524030244256L46.42310730695724,15.994531055526238L46.556124806404114,16.025728988580603L46.666972722609835,16.05402684660455L46.88866855502128,16.090403671463093L47.819791051149366,16.197111219796025L47.90846938411395,16.269506554546783L47.930638967355094,16.315046271484775L47.95280855059624,16.344472617735118L48.35186104893684,16.400536421648734L48.64006563107172,16.46253686084581L48.92827021320661,16.528631453334654L49.50467937747637,16.62765157280164L49.77071437637011,16.715168439402962L50.01457979202271,16.79383787259398L50.08108854174614,16.84823694235182L50.14759729146957,16.888104328515766L50.59098895629247,16.960919164415802L50.72400645573934,17.019517609497747L50.87919353842735,17.072212184164947L51.01221103787422,17.118978386168635L51.36692436973254,17.187980464212362L51.43343311945597,17.23715055160273L51.67729853510857,17.295359364145018L51.743807284832,17.33817999216509L51.810316034555434,17.37179388187125L51.83248561779658,17.394609990103937L52.89662561337153,17.538969721264003L52.963134363094966,17.63398690017707L53.0296431128184,17.69942472014136L53.05181269605954,17.74150530712521L53.539543527364735,17.82947581454934L53.80557852625847,17.91709358264504L54.02727435866992,17.999029675662833L54.1159526916345,18.060025618082392L54.670192272663115,18.171672538899458L54.69236185590427,18.241705413856685L54.93622727155685,18.317382844497914L55.11358393748601,18.387496047944506L55.20226227045059,18.441991497675108L55.246601436932885,18.480922160644347L55.95602810064952,18.605637537284856L56.044706433614095,18.693356669988404L56.59894601464271,18.827628587565606L56.95365934650103,18.96142639855239L56.97582892974218,19.04505951433807L57.308372678359355,19.145891700839528L57.39705101132393,19.220013746643676L57.751764343182245,19.319449012928985L57.773933926423396,19.382573653558083L58.261664757728575,19.497338585394083L58.3725126739343,19.583872638244042L58.48336059014002,19.653546680900632L58.549869339863456,19.706038169595157L58.660717256069184,19.755400087489345L58.727226005792616,19.795774094391557L58.99326100468635,19.863300733389696L59.17061767061552,19.932920424954652L59.32580475330353,20.000310656868933L59.48099183599154,20.06651152325627L59.68051808516184,20.139575679962434L59.76919641812642,20.198306269261757L59.813535584608715,20.241012480812017L59.857874751091,20.27411278984598L59.924383500814436,20.305209658754933L60.07957058350245,20.350192851860243L60.27909683267276,20.411241783514885L60.5007926650842,20.48599124227737L60.58947099804878,20.546173581534223L60.63381016453107,20.58996894638761L60.7003189142545,20.627792555514777L60.81116683046023,20.669788865570677L60.87767558018366,20.70660283488454L60.89984516342481,20.732569093655037L61.343236828247704,20.826334530147673L61.54276307741801,20.918157720801926L61.67578057686488,20.997090329008575L61.83096765955289,21.072397654457156L61.85313724279404,21.121586426839094L62.052663491964346,21.187265584213822L62.207850574652355,21.25496980448899L62.673411822716396,21.381324393053394L62.76209015568097,21.473612671633152L62.98378598809242,21.57037728847944L63.072464321057005,21.645072980491523L63.27199057022731,21.72749577161297L63.56019515236219,21.831675933493845L63.62670390208562,21.906886368479L63.75972140153249,21.977487098248563L63.80406056801478,22.028362290058155L64.5578263982137,22.20539613508605L64.69084389766057,22.33781065186559L65.06772681276004,22.492046993304314L65.28942264517148,22.62896410140098L65.35593139489492,22.724484100301126L65.4002705613772,22.7907208878468L65.7993230597178,22.911309502213243L66.10969722509384,23.04717872218297L66.15403639157613,23.137821335366123L66.55308888991674,23.274785185543994L66.64176722288131,23.375436847581703L66.81912388881047,23.472914134796515L67.19600680390994,23.610798842862643L67.3290243033568,23.721747876354364L67.86109430114428,23.902193406368998L68.14929888327916,24.07281210395297L68.2158076330026,24.18963921112183L68.23797721624375,24.2645599210514L68.28231638272602,24.31916560033223L68.32665554920833,24.36159970949006L68.4153338821729,24.40642775056292L68.50401221513748,24.452735771450474L68.6591992978255,24.51460141010736L68.99174304644268,24.62519980470101L69.7455088766416,24.860414438445915L69.83418720960617,25.021617449055622L69.98937429229419,25.153571667120694L70.18890054146448,25.278244914368656L70.45493554035822,25.414056725788587L70.67663137276968,25.546680319060034L70.72097053925195,25.63651405559943L70.76530970573425,25.700686964299322L70.87615762193998,25.76491381609231L70.9426663716634,25.818917815231185L71.12002303759256,25.892690054080074L71.20870137055715,25.957699386004187L71.65209303538003,26.101093600284933L71.76294095158576,26.213398493747885L71.78511053482691,26.28604208211104L71.82944970130922,26.340158263832915L71.89595845103264,26.388444826254887L71.98463678399722,26.43854225211456L72.00680636723837,26.473887532315224L72.16199344992637,26.532185352494384L72.22850219964981,26.583103035854716L72.33935011585552,26.640266614024586L72.7605721974373,26.776305601643745L72.98226802984873,26.911865947373762L73.1152855292956,27.025690826637447L73.24830302874247,27.12657039148592L73.33698136170705,27.208873566720694L73.60301636060079,27.323834780699794L73.62518594384193,27.398294626767807L74.17942552487055,27.580881631138045L74.37895177404086,27.740484185603346L75.15488718748092,28.03289640346586L75.17705677072207,28.214010058659937L75.22139593720436,28.3340152627961L76.19685759981473,28.65808476418743L76.3742142657439,28.8988908706123L76.5294013484319,29.084081339713915L76.57374051491419,29.206846700987775L76.61807968139648,29.292170083764695L76.72892759760221,29.372568149128085L77.28316717863082,29.567773735278262L77.30533676187198,29.690807687172974L77.52703259428343,29.823886732685732L77.57137176076571,29.915612067267976L77.68221967697143,30.000396562036002L77.99259384234747,30.134901161275167L78.12561134179434,30.251595332101374L78.32513759096463,30.375771253150763L78.65768133958181,30.540990342204513L78.74635967254638,30.66440978230773L78.79069883902868,30.750618525904844L79.3449384200573,30.955151326134725L79.61097341895103,31.15177313812965L79.83266925136247,31.33160032931263L79.96568675080934,31.476726882211484L80.34256966590881,31.669766135109445L80.47558716535568,31.82316016622985L80.49775674859683,31.921464874565558L80.80813091397286,32.068482927116115L80.94114841341973,32.19456958268811L81.05199632962544,32.3018509207424L81.56189674417178,32.51249290192224L81.71708382685979,32.68364597985502L81.8279317430655,32.81839029178321L82.11613632520039,32.98284897098561L82.27132340788842,33.12671518818936L82.60386715650559,33.31026538239379L82.86990215539932,33.49855936981391L82.93641090512277,33.63113016530585L83.24678507049879,33.80239817846974L84.02272048393885,34.13647937666291L84.04489006718,34.343580247100576L84.06705965042114,34.474497282951525L84.46611214876175,34.67320499024488L84.79865589737892,34.89313664556066L85.86279589295387,35.350824235855285L86.06232214212417,35.68709460102238L86.26184839129448,35.95069783790896L86.39486589074134,36.15018599874079L86.86042713880539,36.41516188447539L86.90476630528768,36.58803623588027L86.92693588852882,36.69870961877185L87.96890630086263,37.09413996794011L88.14626296679178,37.387886939543975L88.65616338133812,37.727320032951866L88.85568963050842,37.99515025033221L88.944367963473,38.184424278871326L89.03304629643758,38.326595128571704L89.29908129533132,38.49793503945125L89.36559004505474,38.62229631897608L89.54294671098391,38.75449672750339L89.60945546070734,38.85544409868202L90.14152545849481,39.08972746053877L90.2302037914594,39.2593662892863L90.27454295794169,39.37569707855131L90.89529128869374,39.650059026054606L91.40519170324008,39.98393310166988L91.73773545185725,40.295232882688495L91.9150921177864,40.54138920147305L92.02594003399213,40.72626088613398L92.13678795019786,40.874414135119615L92.26980544964472,41.008043439269855L92.62451878150304,41.207894318153336L93.02357127984365,41.46305071953757L93.04574086308479,41.62367784933735L93.2009279457728,41.772839494800806L93.26743669549624,41.884988693785495L93.79950669328372,42.13415021681485L93.86601544300716,42.306460738802194L94.02120252569516,42.463147143433666L94.0877112754186,42.58003366331429L94.10988085865975,42.65779482967648L94.15422002514204,42.719714400428025L94.17638960838318,42.76449975937936L94.73062918941179,42.98287005931231L94.9301554385821,43.1831269598974L95.46222543636958,43.48868201574345L95.63958210229873,43.73406108416631L95.94995626767476,43.99016134478191L95.97212585091592,44.15161215204825L96.34900876601537,44.38122032218348L96.99192668000856,44.74667637517186L97.03626584649086,44.98171015348824L97.2579616789023,45.20164456682587L97.63484459400176,45.468183692697124L97.74569251020749,45.66779324988879L98.23342334151269,45.96270468118883L98.41078000744184,46.20356017731018L98.65464542309444,46.43613923699808L98.69898458957672,46.59171726746166L98.85417167226473,46.74124314111614L98.9871891717116,46.87918131125848L99.14237625439961,47.01828466518337L99.27539375384649,47.15010890961822L99.34190250356993,47.253408563685234L99.71878541866938,47.452845797931424L99.98482041756313,47.669838929892435L100.05132916728655,47.824410037071466L100.20651624997457,47.97408203220554L100.56122958183289,48.19433283011128L100.60556874831516,48.342819248165576L100.73858624776204,48.48096253759641L100.82726458072662,48.59658582087516L101.18197791258494,48.797170753317786L101.5588608276844,49.05741318773629L102.00225249250731,49.37875447152252L102.4013049908479,49.72080298747683L102.4456441573302,49.94264720862084L102.48998332381248,50.09237757701182L102.55649207353592,50.20716245676971L102.62300082325935,50.30099312954743L102.99988373835882,50.49901071406054L103.24374915401141,50.709773628098866L103.55412331938743,50.953540432833364L104.21921081662178,51.35222894610913L104.26354998310407,51.60832325170688L104.79561998089156,51.96501658570971L104.88429831385612,52.21295637783919L104.92863748033842,52.37869305414719L105.06165497978529,52.529088359555466L105.12816372950871,52.64482618397833L105.172502895991,52.731272214128346L105.3720291451613,52.85974644534976L105.52721622784932,52.99649533064969L105.8154208099842,53.18954616987854L105.99277747591336,53.37381313585852L106.28098205804825,53.59578921981969L106.32532122453054,53.7461352400893L106.39182997425397,53.86210085535667L106.74654330611229,54.06926416625363L106.85739122231801,54.23663319812032L106.9017303888003,54.354293504331515L107.12342622121176,54.51117572691211L107.21210455417634,54.63985698977455L107.85502246816952,54.96826843722044L107.96587038437525,55.20874404047536L108.12105746706327,55.41389331730259L109.09651912967365,55.92111518983193L109.2738757956028,56.29557725762201L109.42906287829081,56.58168984389124L109.5177412112554,56.78848947982088L109.76160662690799,57.009298087605096L109.89462412635486,57.1946166025915L110.02764162580173,57.35868468256494L110.5153724571069,57.65141633771705L110.7592378727595,57.92443410495393L110.87008578896523,58.13256336166404L111.06961203813552,58.337288544284235L111.09178162137667,58.46900482139626L111.3578166202704,58.65467402914067L111.601682035923,58.86399086212125L111.66819078564644,59.016311705860694L111.88988661805789,59.19688666316184L112.9318570303917,59.72604019970996L113.04270494659741,60.08845288319378L113.06487452983856,60.314890712488236L113.28657036225002,60.54070358483898L114.90494993885358,61.33631592873757L115.14881535450618,61.91367498709874L115.17098493774732,62.2691896929839L115.21532410422961,62.50069269618536L115.25966327071191,62.657797401909775L115.32617202043534,62.77937112414951L115.34834160367647,62.86141899042842L115.9025811847051,63.138635481629834L116.01342910091083,63.35064493748905L116.07993785063427,63.50527056147399L116.25729451656342,63.671210878471314L116.50115993221601,63.87148209960949L116.7006861813863,64.0741402352955L116.76719493110974,64.22325103264112L116.7893645143509,64.32189093704868L117.12190826296806,64.51880713169318L117.47662159482638,64.7841198884078L117.60963909427325,64.99856183969969L117.69831742723784,65.16407774887216L117.89784367640813,65.34637124883479L117.94218284289043,65.47419452834389L118.14170909206072,65.63396405390651L118.23038742502531,65.76677683517255L118.4742528406779,65.94814863778402L119.05066200494767,66.29776651823934L119.25018825411796,66.59103592482714L119.58273200273514,66.90632633714502L119.73791908542316,67.1605869798514L119.87093658487002,67.36896909345927L119.9596149178346,67.53123296187962L119.98178450107575,67.63790429506231L120.4030065826575,67.87897646331511L120.46951533238092,68.05160678339047L121.26762032906214,68.4916137218411L121.400637828509,68.81179694028782L121.73318157712619,69.14447228559412L121.77752074360848,69.36283437903602L122.15440365870793,69.65340512512584L122.17657324194909,69.83713910210848L122.59779532353083,70.12598212304118L122.61996490677197,70.30869691319583L122.68647365649541,70.4465527200738L122.88599990566571,70.61399062322181L123.1298653213183,70.81808734271999L123.68410490234692,71.17640013291495L123.75061365207037,71.41972161044812L123.99447906772296,71.66965381923738L124.06098781744639,71.84797530135984L124.10532698392869,71.97387993025472L124.14966615041097,72.06833662824633L124.41570114930471,72.23855305886816L124.79258406440418,72.50169769956744L125.25814531246822,72.85874553848232L125.41333239515622,73.13942378295052L125.59068906108538,73.38381138620983L125.67936739404996,73.56844845317092L125.83455447673796,73.74576093269845L125.85672405997913,73.8616555445079L125.87889364322027,73.94070161671975L126.10058947563171,74.08323757854195L126.67699863990148,74.41631515770976L126.78784655610721,74.66381292043921L127.14255988796552,74.9648879426202L127.38642530361811,75.2505104500422L127.4751036365827,75.46007384733026L127.49727321982384,75.59536044942843L127.67462988575299,75.7529405497897L127.80764738519986,75.90481706992445L127.87415613492331,76.02461484558076L128.0736823840936,76.18253527410043L128.1623607170582,76.31554067401237L128.3175477997462,76.46230599790097L128.33971738298735,76.55993338525907L128.4727348824342,76.67592769995662L128.60575238188108,76.80295961932413L128.65009154836335,76.89832824319417L128.7166002980868,76.98427580692383L129.49253571152687,77.37129598865496L129.7585707104206,77.71864266381918L130.17979279200236,78.10947229294428L130.22413195848463,78.3631806116009L130.6896932065487,78.71721443169916L131.13308487137158,79.12198441130177L131.66515486915907,79.5958549015983L131.7316636188825,79.90906716268027L132.01986820101737,80.22221636440193L132.19722486694653,80.4871901448559L132.39675111611683,80.7329206500055L132.46325986584029,80.9092794544653L132.50759903232256,81.0343750713879L132.5297686155637,81.1190747896981L133.50523027817408,81.5943782239383L133.63824777762093,81.93748198545417L133.7047565273444,82.17230836439946L133.8599436100324,82.38079659432769L134.14814819216727,82.63144507544983L134.19248735864957,82.80115375696897L134.2146569418907,82.91263876230339L134.36984402457873,83.04715706459767L134.76889652291936,83.30180763155222L135.27879693746564,83.67694122901533L135.3896448536714,83.95036617130683L135.83303651849428,84.30784389260201L135.87737568497658,84.54167629062442L136.01039318442344,84.740015206207L136.5868023486932,85.11056802957741L136.69765026489895,85.38128158497913L137.07453317999838,85.70822724000341L137.47358567833902,86.07861120982328L137.65094234426815,86.37827699749519L138.16084275881448,86.78071852894884L138.2495210917791,87.06090333174433L138.33819942474366,87.2677362783782L138.3603690079848,87.4015176531143L138.93677817225455,87.73347771914038L139.44667858680089,88.15529581760656L140.08959650079407,88.6890747554058L140.33346191644668,89.11579617173327L140.68817524830501,89.52665185035745L140.99854941368105,89.9086117866484L141.02071899692217,90.1474628120789L141.46411066174505,90.48422889875677L141.99618065953254,90.91835921650862L142.35089399139088,91.3335010205576L142.7721160729726,91.7661876660212L142.83862482269606,92.05478340463469L142.94947273890176,92.27624201095074L143.76974731882413,92.76637697005869L143.92493440151216,93.12801108948536L144.01361273447674,93.38358712616736L144.1466302339236,93.5948195526157L144.27964773337047,93.77943490775742L144.39049564957617,93.93842676679209L144.45700439929962,94.06275328874938L144.50134356578192,94.15663389823703L145.03341356356938,94.44430010249074L145.21077022949854,94.69397317929753L145.58765314459802,95.00748974588232L145.69850106080372,95.24373290941811L145.742840227286,95.40472860732032L146.00887522617975,95.61680083337974L146.05321439266206,95.76328524466298L146.1862318921089,95.90889039424246L146.45226689100267,96.11164323101012L146.5631148072084,96.2813561825572L146.78481063961982,96.479280280059L147.00650647203128,96.69409398756775L147.6272548027833,97.09172695251932L147.67159396926564,97.34948891923912L147.7602723022302,97.54250829373541L148.09281605084738,97.8021110809012L149.00176896373432,98.35037586538466L149.06827771345775,98.70802186688323L149.46733021179833,99.09464064923526L149.86638271013896,99.49847516053637L150.24326562523842,99.90293133005171L150.30977437496185,100.17420274020466L150.42062229116758,100.38462116359175L150.5314702073733,100.55851252768632L150.9305227057139,100.83423076071008L150.95269228895506,101.0091775487504L151.3295752040545,101.27582561905295L151.39608395377797,101.4643271093801L151.55127103646595,101.64393861362768L152.14984978397686,102.00795947899462L152.19418895045916,102.24533608263503L152.34937603314717,102.45411125840745L152.7484285314878,102.74984592549113L152.94795478065808,103.0124408083199L153.14748102982838,103.25509511373026L153.36917686223984,103.49517660201838L153.61304227789245,103.74307975696246L153.701720610857,103.92956661197344L153.72389019409815,104.05089169394121L154.1451122756799,104.30280192068717L154.25596019188563,104.50103874640901L154.3002993583679,104.63881188323197L154.3889776913325,104.75912912397224L154.5885039405028,104.91599590470535L154.9875564388434,105.17928563892713L155.4309481036663,105.52492866957245L155.54179601987204,105.77918271223878L155.74132226904234,106.0160473415688L155.8743397684892,106.21433645041002L155.89650935173034,106.34266872954422L155.98518768469495,106.4570968092428L156.05169643441837,106.5538170123507L156.53942726572356,106.81740934037137L156.93847976406414,107.14344759332701L157.02715809702875,107.37633786085532L157.13800601323445,107.56263926305799L157.49271934509275,107.82328653130372L157.53705851157505,107.99826601997955L157.7587543439865,108.19616136909471L157.8917718434334,108.37059998765054L157.93611100991566,108.49382375204642L158.0691285093625,108.62341579910499L158.11346767584484,108.7197163533695L158.15780684232712,108.79603764989103L158.42384184122088,108.95300205644911L158.46818100770315,109.06569549194735L158.51252017418543,109.15182416377641L159.02242058873176,109.41611285364284L159.22194683790207,109.65774417715353L159.2884555876255,109.83039155952397L159.6431689194838,110.08139820976857L159.8870343351364,110.33320432541097L159.93137350161868,110.50267628642925L160.0643910010656,110.6594981655392L160.35259558320047,110.87293307233904L160.46344349940617,111.04684806022019L160.6186305820942,111.21535214705146L160.75164808154105,111.3714013707201L161.03985266367593,111.58395828793083L161.61626182794572,111.94880848905483L162.12616224249206,112.37704327933648L162.21484057545663,112.67033107321377L162.23701015869776,112.85538557214235L162.3921972413858,113.0299735814485L162.76908015648524,113.28884256107528L163.01294557213782,113.54371285111637L163.25681098779043,113.796046522309L163.41199807047843,114.0106356213816L163.5450155699253,114.19350487871306L164.0770855677128,114.51927086627283L165.29641264597575,115.20722849456465L165.38509097894033,115.65567605196271L165.6732955610752,116.04054436767929L166.0058393096924,116.40481591323797L166.18319597562154,116.69438237919329L166.2053655588627,116.87699252113993L166.29404389182727,117.02202438856875L166.51573972423873,117.19761745179676L166.73743555665018,117.39141746102376L166.7596051398913,117.51653501343417L166.78177472313246,117.60044091072128L166.9591313890616,117.72142593618821L167.4025230538845,117.97024880302976L167.93459305167198,118.33031539884372L168.08978013436,118.60768383129627L168.15628888408344,118.8003678030791L168.3779847164949,119.00343325884387L168.5775109656652,119.20386497624088L168.64401971538862,119.35029640610901L168.86571554780008,119.52530608258161L168.97656346400578,119.67383440768384L169.774668460687,120.075274278759L169.9741947098573,120.3939302061263L170.0185338763396,120.60239427462051L170.10721220930415,120.76199738211503L170.24022970875106,120.90950317080136L170.30673845847448,121.02385952206669L170.46192554116251,121.15274400664644L170.63928220709164,121.29886666826256L170.7057909568151,121.41231353557085L170.88314762274425,121.54904494586022L170.97182595570882,121.66537944993685L171.0605042886734,121.76945181891965L171.57040470321974,122.02849467121045L171.6590830361843,122.21802956214196L171.81427011887234,122.39138430880196L171.9029484518369,122.52943981483979L172.1468138674895,122.70576529129275L172.41284886638323,122.91333849544763L172.76756219824154,123.17324061520893L173.32180177927017,123.5398751550598L173.65434552788736,123.88579746502715L173.9647196932634,124.21057048495429L174.14207635919252,124.4722753335047L174.3194330251217,124.69603568014796L174.45245052456858,124.88027680897851L174.47462010780973,124.99914649032884L175.0510292720795,125.2863447927369L175.3614034374555,125.57444065460994L175.9156430184841,125.95322915354829L176.29252593358356,126.31993025829098L176.5585609324773,126.63807451814934L176.62506968220077,126.85345407786419L176.75808718164762,127.03161874804383L177.15713967998823,127.28495866806189L177.20147884647054,127.45319823185243L177.60053134481112,127.69995495045073L177.68920967777572,127.88033407593893L178.15477092583973,128.15780537214548L178.24344925880433,128.3564365805025L178.39863634149233,128.5318063565761L178.68684092362722,128.7411485702524L178.8198584230741,128.91470609628033L179.13023258845013,129.13047680063215L179.39626758734386,129.35534416226517L179.728811335961,129.60914834158885L179.9061680018902,129.8246666377557L179.92833758513132,129.96187404646713L180.41606841643653,130.21744232765383L180.50474674940108,130.40218472309851L180.8151209147771,130.62270014759324L181.08115591367084,130.84871858793224L181.103325496912,130.99212575561586L181.25851257960002,131.13269479785504L181.56888674497606,131.32580435316277L181.70190424442293,131.4881697160012L181.85709132711094,131.63975162380788L181.9014304935932,131.74615775138852L182.10095674276351,131.87946624757387L182.14529590924582,131.97486579803265L182.16746549248694,132.03981111890675L182.5886875740687,132.2247973994007L182.65519632379213,132.3587805300796L182.85472257296246,132.50803871552023L183.14292715509734,132.69678920165728L183.6749971528848,132.9922909967698L184.0297104847431,133.2904562144047L184.2735759003957,133.55215064006558L184.67262839873632,133.84412309208923L184.89432423114775,134.09399822920986L184.91649381438893,134.2513813548031L185.04951131383578,134.39051586941864L185.2046983965238,134.52605893323732L185.2933767294884,134.63709044488147L185.3155463127295,134.71113031762297L185.33771589597066,134.76297302598965L185.82544672727585,134.9567750099992L185.847616310517,135.08042809291103L185.93629464348157,135.184084611833L185.98063380996385,135.26099940734886L186.18016005913415,135.37328593801783L186.26883839209876,135.46999820669677L186.91175630609195,135.7397384689594L186.9339258893331,135.9088520102586L187.1334521385034,136.07564426298194L187.19996088822683,136.19745688285914L187.35514797091486,136.32118804768237L187.57684380332628,136.46759495697103L187.59901338656744,136.56264414600398L187.64335255304974,136.63407829375996L187.75420046925544,136.7129105643967L187.88721796870232,136.8033049634734L187.9758963016669,136.88622873372793L188.0202354681492,136.9503145656018L188.3749488000075,137.10310128215238L188.50796629945438,137.23750629725194L188.5301358826955,137.32526383689006L188.70749254862469,137.4347571786182L189.12871463020642,137.63488553229362L189.5055975453059,137.87457313618523L190.08200670957567,138.20008594578752L190.591907124122,138.55487460221678L190.88011170625688,138.85736536327232L190.9466204559803,139.05948694220638L191.6338775364558,139.3927132495418L191.65604711969695,139.59944949572824L192.01076045155526,139.83199492311843L192.0329300347964,139.97828447325523L192.25462586720784,140.1335524594005L192.3211346169313,140.24691670767263L192.36547378341356,140.32839277726777L192.60933919906617,140.45112984185792L192.74235669851305,140.56493689908717L192.80886544823647,140.65327191767963L192.89754378120102,140.7329753193535L193.29659627954166,140.90049846492553L193.3187658627828,141.00764051242442L193.40744419574736,141.09841439018007L193.47395294547078,141.17272012189298L193.51829211195312,141.2305200773745L193.82866627732915,141.35745067029572L193.9173446102937,141.45988175300954L194.1612100259463,141.59339628981832L194.22771877566973,141.69310704856L194.67111044049264,141.8830697621287L194.8484671064218,142.04883548038362L195.07016293883322,142.21281641903118L195.09233252207437,142.31764393773778L195.33619793772695,142.45121083474746L195.8460983522733,142.67817813375513L195.95694626847904,142.84610890521816L196.3338291835785,143.05436559142947L197.30929084618887,143.45428083372553L197.33146042943002,143.70042411363494L197.42013876239457,143.87286153782478L197.50881709535915,144.00103564472542L197.9078695936998,144.18865535629593L198.04088709314664,144.33795360273828L198.99417917251586,144.6881175002694L199.17153583844504,144.94618603013487L199.34889250437416,145.14883648819614L199.37106208761531,145.27639188906963L199.7479450027148,145.45394077674345L200.03614958484968,145.63722339696758L200.12482791781426,145.77072304670622L200.36869333346684,145.9153208981362L200.6347283323606,146.07208914169428L200.70123708208402,146.1835945373075L200.74557624856632,146.2621150484724L200.8342545815309,146.33243082304088L201.01161124746005,146.42090399514055L202.34178624192873,146.815851779754L202.4748037413756,147.08649342342198L202.49697332461676,147.2544809388757L202.8738562397162,147.450123859457L203.02904332240422,147.6063456357515L203.53894373695056,147.82677547036022L203.62762206991513,147.98092549273193L203.8714874855677,148.13340046461508L203.93799623529114,148.24118921681483L204.31487915039062,148.39780010949048L204.44789664983747,148.52403230626808L204.73610123197236,148.66935040296076L205.17949289679527,148.8627036014223L205.37901914596557,149.02613881774963L205.73373247782388,149.2079701645047L205.77807164430618,149.3274915853724L205.97759789347649,149.4459731525285L206.1771241426468,149.56361215887074L206.35448080857594,149.6753890109746L206.79787247339885,149.84467824393957L206.84221163988113,149.95641430831384L206.90872038960458,150.0386792866443L206.95305955608686,150.09817353532185L207.08607705553374,150.1642101659383L207.35211205442747,150.26421732237625L207.3742816376686,150.32923581176317L207.52946872035662,150.40327048315743L207.59597747008004,150.46266026269294L207.7068253862858,150.523187353822L207.8620124689738,150.59423901723872L207.90635163545608,150.64676945274394L209.03700038075445,150.92699721010064L209.28086579640706,151.1478319907668L209.3473745461305,151.29464643536306L209.4582224623362,151.4065356278524L209.81293579419452,151.54936190353064L209.90161412715912,151.65386908102784L209.92378371040027,151.72126942481972L209.96812287688255,151.77109270891964L210.189818709294,151.84773521945715L210.27849704225858,151.91234157008657L210.36717537522316,151.9696812409596L210.56670162439346,152.04571633421415L210.5888712076346,152.0959489124206L210.69971912384034,152.14910463098062L210.78839745680492,152.19935990872085L210.81056704004607,152.23409678944432L211.14311078866322,152.32335220684243L211.8303678691387,152.5162751200206L212.09640286803247,152.6852458074725L212.25158995072044,152.81748193469247L212.3624378669262,152.91877652893376L212.67281203230223,153.04064157415212L212.87233828147254,153.15273566610085L213.2048820300897,153.2844345665081L213.4487474457423,153.41030113858622L213.6039345284303,153.51545178216685L213.62610411167145,153.58276355823995L213.82563036084173,153.66101363435493L214.66807452400525,153.86524998594797L214.7345832737287,154.00003093781638L214.77892244021098,154.0890443051142L214.8454311899344,154.1546478457397L214.86760077317555,154.19806941831828L214.95627910614016,154.24033071072907L215.66570576985677,154.3936778803752L215.97607993523278,154.54074173276786L216.57465868274372,154.73353687152186L216.70767618219057,154.87215787968285L216.79635451515514,154.97056772837254L217.19540701349575,155.09759808088057L217.30625492970148,155.19253119375273L217.63879867831866,155.30519260687734L217.7053074280421,155.3838498834883L217.77181617776552,155.44207809684787L218.23737742582958,155.5535048163996L218.48124284148219,155.6599043447485L218.76944742361707,155.77001318345629L218.7916170068582,155.83961680424346L219.01331283926964,155.91659816590072L219.07982158899307,155.97329465600788L219.16849992195765,156.02128084143666L219.54538283705713,156.1089046987479L219.5897220035394,156.1683436790872L219.65623075326283,156.2142815061566L220.1217920013269,156.31300995536893L220.16613116780917,156.37895574696898L220.27697908401487,156.43524234152525L220.52084449966748,156.50553188382193L220.69820116559666,156.5740353156556L220.7868794985612,156.62822984494147L221.1637624136607,156.7158517316252L221.29677991310754,156.7876653940247L221.518475745519,156.86257950180033L221.5628149120013,156.91385677980287L221.69583241144818,156.96353720357368L221.80668032765388,157.00902395192588L221.9175282438596,157.0519187041203L221.98403699358306,157.08698083587964L222.31658074220022,157.15423475552026L222.33875032544137,157.1976439617693L222.93732907295225,157.3050744699502L223.11468573888143,157.39322056843235L223.3363815712929,157.47544353415978L223.58024698694547,157.55669373681351L224.0458082350095,157.66534784600515L224.422691150109,157.77804512488956L224.4448607333501,157.84843026925785L225.15428739706675,157.97757757703775L225.1764569803079,158.05773138885283L225.30947447975475,158.12175148939912L226.46229280829428,158.2935539778704L226.5066319747766,158.40159902561066L226.66181905746458,158.48370106470983L226.728327807188,158.5403194587007L226.88351488987604,158.59134869721015L227.48209363738695,158.68633896064597L227.947654885451,158.79183561849058L228.16935071786244,158.87774786129333L228.52406404972075,158.96483023704263L228.56840321620305,159.02146544780084L228.61274238268533,159.0598198867803L228.72359029889108,159.09371120341123L229.43301696260772,159.18182126196044L229.54386487881342,159.24498804466975L229.78773029446603,159.30527451257024L229.80989987770715,159.34346275858326L229.8320694609483,159.36838893622846L229.89857821067173,159.3893654533584L230.25329154253006,159.43358636540253L230.85187029004098,159.51168239039288L230.9183790397644,159.56412798305857L231.36177070458731,159.6321257718701L231.49478820403417,159.68363825999398L231.51695778727532,159.71632039831144L232.09336695154508,159.78096471302564L232.24855403423308,159.83151218306153L232.4037411169211,159.8734470337136L233.13533736387888,159.95124070751575L233.20184611360233,160.00253112626368L233.62306819518406,160.06186798495176L233.6452377784252,160.09894178645288L233.84476402759552,160.1342886588968L233.99995111028355,160.16551041735806L234.06645986000697,160.1884875246585L234.22164694269497,160.21206574244738L234.28815569241843,160.23036168000326L234.70937777400016,160.26695401309706L234.77588652372359,160.292849228073L235.0197519393762,160.32258803602397L235.26361735502877,160.3542490186264L235.48531318744023,160.38547377577672L235.52965235392253,160.40661615002801L235.55182193716365,160.42050056354904L235.6183306868871,160.43240914564907L236.1504006846746,160.46714806350778L236.2612486008803,160.4935096158687L236.28341818412144,160.51042064218592L236.37209651708602,160.52491184220298L236.79331859866778,160.55354809033196L236.81548818190893,160.57174756386635L237.01501443107924,160.59168350327604L237.19237109700836,160.6114429765702L237.45840609590212,160.6346132392983L238.2786806758245,160.6805125780217L238.34518942554791,160.710455194316L238.54471567471822,160.73545752720287L238.56688525795937,160.75122483596374L238.69990275740622,160.76521364269794L238.74424192388852,160.7750908642996L238.94376817305883,160.78753691916756L239.7197035864989,160.81790017903717L239.83055150270462,160.83906949045806L240.34045191725096,160.8643182465765L240.40696066697438,160.88097942489597L240.47346941669784,160.89245928564003L240.67299566586811,160.90362400175815L241.29374399662018,160.9219718878224L241.82581399440767,160.9409694376791L242.04750982681912,160.95515270194682L243.26683690508207,160.97325786911202L243.39985440452895,160.9845819499121L243.48853273749353,160.99149681282188L243.55504148721695,160.99564573056773L243.79890690286953,160.99813508121522L243.86541565259296,160.99962869160376" fill="none"></path></g></g></g></g><g opacity="0.2"><g><g><g><path style="fill: none;" stroke="rgb(0, 119, 187)" stroke-width="2px" d="M22.590805322726567,155.44139936605444L22.723822822173435,153.6849996295199L23.078536154031752,149.0012660899972L23.122875320514044,148.4157990567704L23.18938407023748,147.53759918850312L23.43324948589007,144.3175325504745L23.765793234507242,139.9265332091381L23.83230198423068,139.04833334087084L24.275693649053572,133.19366709804038L24.541728647947313,129.68086489867966L24.985120312770206,123.826200018995L25.628038226763408,115.33693417136271L25.69454697648684,114.45873021365801L25.894073225657145,111.82413469829359L26.248786557515462,107.14039843247929L26.29312572399775,106.55493276239832L27.26858738660812,93.67466621028382L27.37943530281385,92.21100203508138L27.711979051431022,87.81999860430756L27.84499655087789,86.06360159406461L27.95584446708361,84.59993196627894L28.111031549771628,82.55080212099551L28.244049049218496,80.79439965816937L29.019984462658567,70.54873407400251L29.064323629140855,69.96326840392152L29.24168029507001,67.62140027101438L29.707241543134053,61.473994377414414L29.88459820906321,59.13213169709047L30.32798987388611,53.27746409111421L31.525147368907927,37.4698691885948L31.547316952149075,37.17713090097109L31.924199867248532,32.20066725269953L31.99070861697197,31.322463294994837L32.057217366695404,30.444270242456582L32.389761115312574,26.053261359099565L32.45626986503601,25.17506830656131L32.47843944827716,24.882330018937605L32.7001352806886,21.955001668532677L33.12135736227035,16.3930614450137L33.58691861033439,14.637569563584375L33.96380152543386,14.6407647773481L34.07464944163958,14.642149733484612L34.67322818915049,14.65305489991374L34.894924021561934,14.65857291412689L35.027941521008806,14.66228067071279L35.18312860369682,14.666948081944465L35.205298186937966,14.667656917762347L35.936894433895745,14.695246988828071L35.98123360037804,14.697199013618874L36.24726859927178,14.709587282682378L36.402455681959786,14.717340856013493L36.42462526520093,14.718474993322129L36.468964431683226,14.720786888605094L36.53547318140666,14.724298352195287L36.57981234788895,14.726686583643268L36.84584734678269,14.741659377150459L37.06754317919413,14.755018206026161L38.02083525856336,14.821561531576744L38.19819192449252,14.835574670438177L38.37554859042167,14.850089446955362L38.57507483959198,14.867036075586238L38.863279421726865,14.892652311528277L38.95195775469144,14.900809376017264L39.151484003861746,14.919620788107522L39.24016233682632,14.928192248920823L39.28450150330861,14.932521599993184L39.32884066979091,14.93688366656485L39.484027752478916,14.952412623559926L39.594875668684644,14.96374309147981L39.63921483516693,14.968323261380046L39.75006275137265,14.979937263627075L39.79440191785495,14.984626485191598L39.883080250819525,14.994124885151368L39.9717585837841,15.003743241941866L40.10477608323097,15.018410690789064L40.12694566647212,15.020886163568466L40.63684608101845,15.079948544948675L40.725524413983024,15.09065741838208L41.4571206609408,15.183798444853323L41.612307743628826,15.204670933398688L41.74532524307569,15.222871656168909L42.055699408451716,15.266448701219733L42.1443777414163,15.279185935608975L42.29956482410431,15.301781440450132L42.343903990586604,15.308302729974766L42.52126065651576,15.334725948232549L42.83163482189178,15.382196137698575L42.85380440513293,15.385642170290193L43.075500237544375,15.420571418362702L43.14200898726781,15.431203955631108L43.34153523643811,15.463537774093506L43.51889190236727,15.492818145955734L43.71841815153758,15.526351532725325L43.74058773477872,15.530113815143377L43.873605234225586,15.552883802647411L43.89577481746674,15.556700610897597L44.00662273367246,15.575926419312168L44.40567523201307,15.646777285602266L44.4721839817365,15.658838399672877L44.671710230906804,15.695436138209061L45.33679772814115,15.822034215284898L45.62500231027604,15.879090046042133L45.758019809722896,15.905873134792078L45.82452855944633,15.919373730831353L45.868867725928624,15.9284141138011L45.9575460588932,15.946582121072051L46.09056355834007,15.974074045639895L46.20141147454579,15.997203903636091L46.42310730695724,16.044041593449233L46.556124806404114,16.072525888162122L46.666972722609835,16.096473633640503L46.88866855502128,16.14496890875088L47.819791051149366,16.357172542295416L47.90846938411395,16.378099556672932L47.930638967355094,16.383355846891764L47.95280855059624,16.388612137110613L48.35186104893684,16.48463212751915L48.64006563107172,16.55553751964138L48.92827021320661,16.62777334206797L49.50467937747637,16.776181752002085L49.77071437637011,16.84644373930499L50.01457979202271,16.911842022380515L50.08108854174614,16.92983554698859L50.14759729146957,16.947905407761677L50.59098895629247,17.070141418265848L50.72400645573934,17.107415277120626L50.87919353842735,17.15125404616575L51.01221103787422,17.189127689174143L51.36692436973254,17.291483581278012L51.43343311945597,17.31090568268829L51.67729853510857,17.382672582958435L51.743807284832,17.402410934195164L51.810316034555434,17.422214716430485L51.83248561779658,17.428834152452964L52.89662561337153,17.755509318004133L52.963134363094966,17.776512668546648L53.0296431128184,17.797581450087737L53.05181269605954,17.80462618760097L53.539543527364735,17.961431575685506L53.80557852625847,18.04852023478858L54.02727435866992,18.121933815189518L54.1159526916345,18.151519531711756L54.670192272663115,18.339142920125028L54.69236185590427,18.34675472629257L54.93622727155685,18.430898990459777L55.11358393748601,18.4926658531144L55.20226227045059,18.523734672270994L55.246601436932885,18.53931815509824L55.95602810064952,18.79271060224562L56.044706433614095,18.824935369043715L56.59894601464271,19.029036463931416L56.95365934650103,19.162123115032582L56.97582892974218,19.17050918801658L57.308372678359355,19.297139980591705L57.39705101132393,19.331196815349895L57.751764343182245,19.468601912357L57.773933926423396,19.47726061450172L58.261664757728575,19.669485983148093L58.3725126739343,19.713673717518954L58.48336059014002,19.758057744885523L58.549869339863456,19.78477540263691L58.660717256069184,19.829442964330642L58.727226005792616,19.85633510474489L58.99326100468635,19.964590691886915L59.17061767061552,20.037349962302105L59.32580475330353,20.101396004740423L59.48099183599154,20.165812822837324L59.68051808516184,20.249171915021634L59.76919641812642,20.2864021532107L59.813535584608715,20.305071798137387L59.857874751091,20.32376325339692L59.924383500814436,20.351854962118377L60.07957058350245,20.417667641518197L60.27909683267276,20.50281518099689L60.5007926650842,20.598115430421103L60.58947099804878,20.63644709041952L60.63381016453107,20.65566199366765L60.7003189142545,20.684527969205565L60.81116683046023,20.732783330654488L60.87767558018366,20.76182378885528L60.89984516342481,20.771518481810777L61.343236828247704,20.966982684886602L61.54276307741801,21.055892506783348L61.67578057686488,21.11548924131856L61.83096765955289,21.185358642630035L61.85313724279404,21.19536958541198L62.052663491964346,21.285784320275948L62.207850574652355,21.356526134901742L62.673411822716396,21.57085627589996L62.76209015568097,21.612045089502804L62.98378598809242,21.715524213748868L63.072464321057005,21.7571165185096L63.27199057022731,21.851129958295164L63.56019515236219,21.987946176315095L63.62670390208562,22.019702020956743L63.75972140153249,22.0833881929029L63.80406056801478,22.10467507777256L64.5578263982137,22.47094690262793L64.69084389766057,22.536432427034892L65.06772681276004,22.723401505462416L65.28942264517148,22.83433976354601L65.35593139489492,22.867764098651296L65.4002705613772,22.890076069165307L65.7993230597178,23.0921924237629L66.10969722509384,23.250982552137543L66.15403639157613,23.273785255140865L66.55308888991674,23.480230960810818L66.64176722288131,23.526414340638212L66.81912388881047,23.61913006561872L67.19600680390994,23.817625904961833L67.3290243033568,23.88817142659192L67.86109430114428,24.172861701390925L68.14929888327916,24.328740150328972L68.2158076330026,24.364879871875132L68.23797721624375,24.37694098594576L68.28231638272602,24.401074119253426L68.32665554920833,24.42525087322682L68.4153338821729,24.47366981217218L68.50401221513748,24.522197802781843L68.6591992978255,24.60739986809267L68.99174304644268,24.791097396591454L69.7455088766416,25.213236389063272L69.83418720960617,25.263421964970153L69.98937429229419,25.35150299421829L70.18890054146448,25.4652547852406L70.45493554035822,25.617774442918485L70.67663137276968,25.745615708967225L70.72097053925195,25.77126466040855L70.76530970573425,25.796946327349165L70.87615762193998,25.86125409378178L70.9426663716634,25.899923813939495L71.12002303759256,26.003348412353407L71.20870137055715,26.055213383890386L71.65209303538003,26.31618492170602L71.76294095158576,26.381855833942268L71.78511053482691,26.395007464655805L71.82944970130922,26.421332536415743L71.89595845103264,26.460874669887776L71.98463678399722,26.51368839090409L72.00680636723837,26.5269054526162L72.16199344992637,26.619632082763133L72.22850219964981,26.659479560895193L72.33935011585552,26.726011981279353L72.7605721974373,26.98036408307249L72.98226802984873,27.115206465968754L73.1152855292956,27.19642814553296L73.24830302874247,27.2778897387586L73.33698136170705,27.332328329572842L73.60301636060079,27.496276601668455L73.62518594384193,27.50998439586988L74.17942552487055,27.854762137693424L74.37895177404086,27.97988801730131L75.15488718748092,28.471514730259596L75.17705677072207,28.485680541451043L75.22139593720436,28.51402306900036L76.19685759981473,29.144189016274368L76.3742142657439,29.260100030249646L76.5294013484319,29.361867043366342L76.57374051491419,29.390994742898556L76.61807968139648,29.420155157930058L76.72892759760221,29.493165247173124L77.28316717863082,29.860582114503554L77.30533676187198,29.87535861501502L77.52703259428343,30.023505300954834L77.57137176076571,30.053200069141358L77.68221967697143,30.127573304188072L77.99259384234747,30.33665806013388L78.12561134179434,30.42663658834067L78.32513759096463,30.56203513472482L78.65768133958181,30.788818975785116L78.74635967254638,30.84953894246254L78.79069883902868,30.87993164130054L79.3449384200573,31.261950526479577L79.61097341895103,31.44670585612198L79.83266925136247,31.601341116087124L79.96568675080934,31.694416711559793L80.34256966590881,31.95932501445634L80.47558716535568,32.05325121291048L80.49775674859683,32.06892193706915L80.80813091397286,32.28901000594195L80.94114841341973,32.38369956604615L81.05199632962544,32.462772927823806L81.56189674417178,32.82845587369198L81.71708382685979,32.940375596754194L81.8279317430655,33.0205067596755L82.11613632520039,33.22953698978915L82.27132340788842,33.342514513994985L82.60386715650559,33.58559067370041L82.86990215539932,33.78100035094408L82.93641090512277,33.82998635854378L83.24678507049879,34.059300198215624L84.02272048393885,34.637601173952675L84.04489006718,34.654231552757096L84.06705965042114,34.670872836727966L84.46611214876175,34.971266551184925L84.79865589737892,35.22303412853435L85.86279589295387,36.037355621297166L86.06232214212417,36.191500148773L86.26184839129448,36.34610269323886L86.39486589074134,36.44941823998849L86.86042713880539,36.81262571307727L86.90476630528768,36.847347762987624L86.92693588852882,36.86471969310924L87.96890630086263,37.68728549169248L88.14626296679178,37.82850739694979L88.65616338133812,38.23646967306374L88.85568963050842,38.39689557640273L88.944367963473,38.46833532168L89.03304629643758,38.53985140312227L89.29908129533132,38.75494490577054L89.36559004505474,38.80883823826332L89.54294671098391,38.952797340294325L89.60945546070734,39.00686515544999L90.14152545849481,39.44115250332388L90.2302037914594,39.513824532407625L90.27454295794169,39.5501932624488L90.89529128869374,40.061601947309526L91.40519170324008,40.48474421509283L91.73773545185725,40.76218255421645L91.9150921177864,40.91062367964983L92.02594003399213,41.00356841312535L92.13678795019786,41.09664400859802L92.26980544964472,41.20848739549524L92.62451878150304,41.507670636478565L93.02357127984365,41.8457853216139L93.04574086308479,41.86461854403703L93.2009279457728,41.996581962995975L93.26743669549624,42.053212492262475L93.79950669328372,42.50789250135884L93.86601544300716,42.564926521783235L94.02120252569516,42.69817675038084L94.0877112754186,42.755363443135224L94.10988085865975,42.77443657921978L94.15422002514204,42.812593756555316L94.17638960838318,42.83167779780629L94.73062918941179,43.31042550921177L94.9301554385821,43.48351231077501L95.46222543636958,43.94701459951253L95.63958210229873,44.102129686800566L95.94995626767476,44.374311735705334L95.97212585091592,44.39378836294779L96.34900876601537,44.725632577386364L96.99192668000856,45.294860454654355L97.03626584649086,45.33426082096284L97.2579616789023,45.531546186832315L97.63484459400176,45.867992381503996L97.74569251020749,45.96720758567628L98.23342334151269,46.405071828138915L98.41078000744184,46.56484342149216L98.65464542309444,46.78500782652998L98.69898458957672,46.82508431315705L98.85417167226473,46.96553195159788L98.9871891717116,47.08608856647197L99.14237625439961,47.22693969607067L99.27539375384649,47.347845276270505L99.34190250356993,47.408358044785786L99.71878541866938,47.752001649300695L99.98482041756313,47.99532862783397L100.05132916728655,48.05626669783999L100.20651624997457,48.19859002490662L100.56122958183289,48.52470902696993L100.60556874831516,48.56554887524703L100.73858624776204,48.68817747174265L100.82726458072662,48.77002074579332L101.18197791258494,49.098048151981715L101.5588608276844,49.44777683936408L102.00225249250731,49.86076639720184L102.4013049908479,50.233875761408285L102.4456441573302,50.27541354033687L102.48998332381248,50.316973129598296L102.55649207353592,50.37933977640651L102.62300082325935,50.44173913871404L102.99988373835882,50.7960370908302L103.24374915401141,51.02591799915638L103.55412331938743,51.3191906399351L104.21921081662178,51.95026171602274L104.26354998310407,51.99246471010349L104.79561998089156,52.50005658671401L104.88429831385612,52.58486606603341L104.92863748033842,52.62729806860918L105.06165497978529,52.75468131766789L105.12816372950871,52.81843292061262L105.172502895991,52.86094125935338L105.3720291451613,53.052457792181855L105.52721622784932,53.201618658599585L105.8154208099842,53.47912242872178L105.99277747591336,53.65021358482849L106.28098205804825,53.928753345761464L106.32532122453054,53.97165427049367L106.39182997425397,54.03604927825771L106.74654330611229,54.38000913259907L106.85739122231801,54.48768674592034L106.9017303888003,54.530783963648304L107.12342622121176,54.74649906078301L107.21210455417634,54.83287888406821L107.85502246816952,55.46088560838925L107.96587038437525,55.5694574453577L108.12105746706327,55.72161723254342L109.09651912967365,56.68194799862593L109.2738757956028,56.85727035930714L109.42906287829081,57.01085872329509L109.5177412112554,57.09868893371535L109.76160662690799,57.340510999281406L109.89462412635486,57.47259437507111L110.02764162580173,57.60478680252507L110.5153724571069,58.09051382044518L110.7592378727595,58.333960755809215L110.87008578896523,58.44475724672921L111.06961203813552,58.64437631821454L111.09178162137667,58.66657923706427L111.3578166202704,58.93317784075734L111.601682035923,59.17796611159213L111.66819078564644,59.24479297146988L111.88988661805789,59.46774909911355L112.9318570303917,60.519770504532204L113.04270494659741,60.63207190841945L113.06487452983856,60.654547456429896L113.28657036225002,60.8794228933651L114.90494993885358,62.529734444585415L115.14881535450618,62.77971357464048L115.17098493774732,62.80246175181165L115.21532410422961,62.84794720098759L115.25966327071191,62.89345446049637L115.32617202043534,62.96173170750919L115.34834160367647,62.984490789846774L115.9025811847051,63.554460218431956L116.01342910091083,63.66865912127787L116.07993785063427,63.737208997451404L116.25729451656342,63.92012135396729L116.50115993221601,64.17188893131674L116.7006861813863,64.37812743882455L116.76719493110974,64.44691722865954L116.7893645143509,64.46985079366002L117.12190826296806,64.81418142365996L117.47662159482638,65.18208902347968L117.60963909427325,65.32022476663755L117.69831742723784,65.41235161263089L117.89784367640813,65.61981149877874L117.94218284289043,65.66592944760757L118.14170909206072,65.87361834225044L118.23038742502531,65.96599600707165L118.4742528406779,66.22020634170121L119.05066200494767,66.82219333892235L119.25018825411796,67.03094003470886L119.58273200273514,67.37926195562187L119.73791908542316,67.54197794391098L119.87093658487002,67.68154226387105L119.9596149178346,67.77462876451017L119.98178450107575,67.79791129483635L120.4030065826575,68.24058471569424L120.46951533238092,68.31055226350358L121.26762032906214,69.15162412951707L121.400637828509,69.2920717679579L121.73318157712619,69.64348530355358L121.77752074360848,69.69037751919885L122.15440365870793,70.08926124426054L122.17657324194909,70.11274006758248L122.59779532353083,70.55924665444019L122.61996490677197,70.58276909842783L122.68647365649541,70.65333643039077L122.88599990566571,70.86514747794388L123.1298653213183,71.12423242196726L123.68410490234692,71.7138693182074L123.75061365207037,71.78470382674783L123.99447906772296,72.04455213242127L124.06098781744639,72.1154575245435L124.10532698392869,72.16273687359703L124.14966615041097,72.21002167523375L124.41570114930471,72.49387770480092L124.79258406440418,72.89641466061639L125.25814531246822,73.39431729685464L125.41333239515622,73.56044114965286L125.59068906108538,73.75039279109876L125.67936739404996,73.84540405361258L125.83455447673796,74.01172965198975L125.85672405997913,74.03549746222205L125.87889364322027,74.05927072503758L126.10058947563171,74.29704152127522L126.67699863990148,74.91593152646152L126.78784655610721,75.03505956453338L127.14255988796552,75.41650047589167L127.38642530361811,75.67894421117524L127.4751036365827,75.77441894326233L127.49727321982384,75.79829035257569L127.67462988575299,75.98931070033166L127.80764738519986,76.13263185012656L127.87415613492331,76.20431150906526L128.0736823840936,76.41941591687996L128.1623607170582,76.51504877388027L128.3175477997462,76.68245398373392L128.33971738298735,76.70637446629621L128.4727348824342,76.84991917200293L128.60575238188108,76.99350749837535L128.65009154836335,77.04138117899925L128.7166002980868,77.11319715251832L129.49253571152687,77.95182626125168L129.7585707104206,78.2396626765655L130.17979279200236,78.69571673663194L130.22413195848463,78.74374308958585L130.6896932065487,79.24826516184658L131.13308487137158,79.7291393807057L131.66515486915907,80.30666063704308L131.7316636188825,80.37888555430322L132.01986820101737,80.69194016698441L132.19722486694653,80.88465081553687L132.39675111611683,81.10151640772989L132.46325986584029,81.17381766115506L132.50759903232256,81.22201849677182L132.5297686155637,81.24612436716342L133.50523027817408,82.30733337529864L133.63824777762093,82.45213762772792L133.7047565273444,82.52454793281737L133.8599436100324,82.69352893922004L134.14814819216727,83.00741779713306L134.19248735864957,83.05571677924769L134.2146569418907,83.07986627030502L134.36984402457873,83.2489345180391L134.76889652291936,83.68378348198411L135.27879693746564,84.23964162520997L135.3896448536714,84.36050358474407L135.83303651849428,84.84406047454479L135.87737568497658,84.892424887658L136.01039318442344,85.03752357958086L136.5868023486932,85.66639726463302L136.69765026489895,85.78735191808175L137.07453317999838,86.19864572253982L137.47358567833902,86.63418716455305L137.65094234426815,86.82777567900305L138.16084275881448,87.38438082612933L138.2495210917791,87.48118053593754L138.33819942474366,87.57798569832897L138.3603690079848,87.60218971521846L138.93677817225455,88.23141781817955L139.44667858680089,88.78802296530583L140.08959650079407,89.48974316210462L140.33346191644668,89.75587829622444L140.68817524830501,90.14293536829373L140.99854941368105,90.4815516910848L141.02071899692217,90.50573935022464L141.46411066174505,90.98937802877356L141.99618065953254,91.56955469313641L142.35089399139088,91.95621372663106L142.7721160729726,92.41521763421656L142.83862482269606,92.48767701255497L142.94947273890176,92.60842992042478L143.76974731882413,93.5015794087206L143.92493440151216,93.67046226862539L144.01361273447674,93.7669511811904L144.1466302339236,93.91166819228823L144.27964773337047,94.05635794046998L144.39049564957617,94.17691455534407L144.45700439929962,94.24924307168533L144.50134356578192,94.29745481246852L145.03341356356938,94.87579940887127L145.21077022949854,95.06848279450767L145.58765314459802,95.47776459575954L145.69850106080372,95.59809765472184L145.742840227286,95.64622215417361L146.00887522617975,95.9349091724689L146.05321439266206,95.98301186158781L146.1862318921089,96.12729811861169L146.45226689100267,96.41577248616161L146.5631148072084,96.53592560987784L146.78481063961982,96.77616642631168L147.00650647203128,97.01631454883088L147.6272548027833,97.68817639994668L147.67159396926564,97.7361318693188L147.7602723022302,97.83203735547983L148.09281605084738,98.19151526164984L149.00176896373432,99.17277304210987L149.06827771345775,99.24449086913108L149.46733021179833,99.67456882276332L149.86638271013896,100.10422692748801L150.24326562523842,100.5096155843247L150.30977437496185,100.58110985543411L150.42062229116758,100.70024879867242L150.5314702073733,100.81934957382822L150.9305227057139,101.24780811024573L150.95269228895506,101.27159773081087L151.3295752040545,101.67579772450677L151.39608395377797,101.74707934487083L151.55127103646595,101.91335586999907L152.14984978397686,102.55399077704504L152.19418895045916,102.60140098809569L152.34937603314717,102.76727402206606L152.7484285314878,103.19344792611668L152.94795478065808,103.40633313256302L153.14748102982838,103.61907657184582L153.36917686223984,103.85529883445054L153.61304227789245,104.11493448937858L153.701720610857,104.20929689448991L153.72389019409815,104.2328793168929L154.1451122756799,104.68066726080605L154.25596019188563,104.79839398499178L154.3002993583679,104.84547158846635L154.3889776913325,104.93960498508267L154.5885039405028,105.15129607580502L154.9875564388434,105.57422024025976L155.4309481036663,106.04339321554045L155.54179601987204,106.16056377623829L155.74132226904234,106.37134428556382L155.8743397684892,106.51177011367179L155.89650935173034,106.5351671482455L155.98518768469495,106.62873892879071L156.05169643441837,106.69889731701255L156.53942726572356,107.21279783240232L156.93847976406414,107.63250497276044L157.02715809702875,107.72567326214778L157.13800601323445,107.84209136636201L157.49271934509275,108.21425743367232L157.53705851157505,108.2607352529933L157.7587543439865,108.49300439276743L157.8917718434334,108.63225791548427L157.93611100991566,108.67865939864026L158.0691285093625,108.8178038696928L158.11346767584484,108.86416718476627L158.15780684232712,108.9105195946733L158.42384184122088,109.18844866628626L158.46818100770315,109.23473564519472L158.51252017418543,109.28101717151998L159.02242058873176,109.81254588844246L159.22194683790207,110.02019116241962L159.2884555876255,110.08936263307962L159.6431689194838,110.45790818513547L159.8870343351364,110.71091349887462L159.93137350161868,110.75688422795662L160.0643910010656,110.8947309842041L160.35259558320047,111.19308543253882L160.46344349940617,111.30772054204189L160.6186305820942,111.4681082772984L160.75164808154105,111.60547520622299L161.03985266367593,111.90279366374693L161.61626182794572,112.49608379074084L162.12616224249206,113.01939546475896L162.21484057545663,113.11026276402973L162.23701015869776,113.13296732053519L162.3921972413858,113.2918555954077L162.76908015648524,113.67714603051547L163.01294557213782,113.92601828617796L163.25681098779043,114.17454702909797L163.41199807047843,114.33251926999043L163.5450155699253,114.46780876471027L164.0770855677128,115.00791984761247L165.29641264597575,116.23916493700239L165.38509097894033,116.32834738805985L165.6732955610752,116.6178468412541L166.0058393096924,116.951223231576L166.18319597562154,117.12873207812623L166.2053655588627,117.15090773405987L166.29404389182727,117.23957218971196L166.51573972423873,117.46100704663877L166.73743555665018,117.6821174748643L166.7596051398913,117.70421134204975L166.78177472313246,117.72629975665194L166.9591313890616,117.90290347438858L167.4025230538845,118.34348310329207L167.93459305167198,118.87041529256467L168.08978013436,119.0237364799751L168.15628888408344,119.08939376075332L168.3779847164949,119.30803144249106L168.5775109656652,119.5045125523364L168.64401971538862,119.5699435509112L168.86571554780008,119.7878205972905L168.97656346400578,119.89662689533719L169.774668460687,120.67743408537166L169.9741947098573,120.87191409717727L170.0185338763396,120.91509037736182L170.10721220930415,121.00140204335682L170.24022970875106,121.13076185383082L170.30673845847448,121.19539404896469L170.46192554116251,121.34607073351606L170.63928220709164,121.51805066068673L170.7057909568151,121.58248383653327L170.88314762274425,121.75414206129429L170.97182595570882,121.83988120605176L171.0605042886734,121.92556037239387L171.57040470321974,122.41705894964662L171.6590830361843,122.50233189853924L171.81427011887234,122.65141642879195L171.9029484518369,122.7365230738965L172.1468138674895,122.97025350597218L172.41284886638323,123.22469830167998L172.76756219824154,123.56309379485086L173.32180177927017,124.08982696483613L173.65434552788736,124.40468092997813L173.9647196932634,124.69773001484506L174.14207635919252,124.86483260633031L174.3194330251217,125.03167620011286L174.45245052456858,125.15663850222433L174.47462010780973,125.17745101235431L175.0510292720795,125.717142246349L175.3614034374555,126.0065844474195L175.9156430184841,126.52141190195576L176.29252593358356,126.86998191540505L176.5585609324773,127.11529090793684L176.62506968220077,127.17652341743641L176.75808718164762,127.2988657533133L177.15713967998823,127.664968548089L177.20147884647054,127.70555757753823L177.60053134481112,128.07009002834815L177.68920967777572,128.15090276417126L178.15477092583973,128.57401231645528L178.24344925880433,128.65438339303802L178.39863634149233,128.7948610206865L178.68684092362722,129.05516189076675L178.8198584230741,129.17504238532226L179.13023258845013,129.4541328571599L179.39626758734386,129.69264520471472L179.728811335961,129.98985461057438L179.9061680018902,130.14794408200595L179.92833758513132,130.16768515953427L180.41606841643653,130.60079474943382L180.50474674940108,130.67929831626554L180.8151209147771,130.95347328433527L181.08115591367084,131.18774624844076L181.103325496912,131.20723650714123L181.25851257960002,131.34354836121383L181.56888674497606,131.6154686861243L181.70190424442293,131.7317177602589L181.85709132711094,131.86712448551785L181.9014304935932,131.9057669427595L182.10095674276351,132.07942899185187L182.14529590924582,132.11796512372084L182.16746549248694,132.1372291002179L182.5886875740687,132.5022768201416L182.65519632379213,132.55975522609796L182.85472257296246,132.73192599368113L183.14292715509734,132.9799149308629L183.6749971528848,133.4355436894386L184.0297104847431,133.73770404085707L184.2735759003957,133.9446922785569L184.67262839873632,134.28208177012468L184.89432423114775,134.46881093489077L184.91649381438893,134.48745604319296L185.04951131383578,134.59921764134197L185.2046983965238,134.7293735289653L185.2933767294884,134.80363771234772L185.3155463127295,134.82219012673528L185.33771589597066,134.84073708853964L185.82544672727585,135.2474779860135L185.847616310517,135.26590771727876L185.93629464348157,135.33956939021596L185.98063380996385,135.3763716006227L186.18016005913415,135.54171573402124L186.26883839209876,135.6150666097152L186.91175630609195,136.14434886235327L186.9339258893331,136.16252232220742L187.1334521385034,136.32583264206696L187.19996088822683,136.38017581267493L187.35514797091486,136.5067847949172L187.57684380332628,136.687205320904L187.59901338656744,136.70521792955336L187.64335255304974,136.74122951539397L187.75420046925544,136.83115897035182L187.88721796870232,136.93889656208847L187.9758963016669,137.01061438910966L188.0202354681492,137.0464433134126L188.3749488000075,137.33228135697826L188.50796629945438,137.43911381990128L188.5301358826955,137.4569001463472L188.70749254862469,137.59899719121046L189.12871463020642,137.93507806280675L189.5055975453059,138.23410454202266L190.08200670957567,138.68835516019087L190.591907124122,139.08705758686068L190.88011170625688,139.31110150485569L190.9466204559803,139.36266931060743L191.6338775364558,139.89255271054492L191.65604711969695,139.90955386500795L192.01076045155526,140.18081306420368L192.0329300347964,140.19771879846044L192.25462586720784,140.36645443861846L192.3211346169313,140.4169630800808L192.36547378341356,140.45060688166046L192.60933919906617,140.63523543874314L192.74235669851305,140.735647484931L192.80886544823647,140.78577444556834L192.89754378120102,140.8525304218643L193.29659627954166,141.15178318328358L193.3187658627828,141.16835358367265L193.40744419574736,141.2345752068136L193.47395294547078,141.28417871946232L193.51829211195312,141.3172200105968L193.82866627732915,141.54784655967757L193.9173446102937,141.61352837708023L194.1612100259463,141.79366809503153L194.22771877566973,141.84267318667244L194.67111044049264,142.16801383248185L194.8484671064218,142.29748405776596L195.07016293883322,142.4587878270025L195.09233252207437,142.4748852157977L195.33619793772695,142.65156118026195L195.8460983522733,143.01862908226664L195.95694626847904,143.0980050624127L196.3338291835785,143.3667506207465L197.30929084618887,144.05415369716962L197.33146042943002,144.06963903349902L197.42013876239457,144.13151767410955L197.50881709535915,144.1932968050764L197.9078695936998,144.47008492365168L198.04088709314664,144.5619009724018L198.99417917251586,145.21336334656607L199.17153583844504,145.3332888249331L199.34889250437416,145.45281217528802L199.37106208761531,145.46772499037985L199.7479450027148,145.72026410825418L200.03614958484968,145.9121473273038L200.12482791781426,145.97097252131417L200.36869333346684,146.1322176752812L200.6347283323606,146.3072415070314L200.70123708208402,146.3508526307273L200.74557624856632,146.3798958152197L200.8342545815309,146.43790448489366L201.01161124746005,146.55361375329002L202.34178624192873,147.4082734566742L202.4748037413756,147.4924558889239L202.49697332461676,147.50646221205633L202.8738562397162,147.74358824032885L203.02904332240422,147.84067830019325L203.53894373695056,148.1574202222733L203.62762206991513,148.21215052628952L203.8714874855677,148.36211292243976L203.93799623529114,148.40287234511447L204.31487915039062,148.63271644850394L204.44789664983747,148.71338060143444L204.73610123197236,148.88732754799977L205.17949289679527,149.15273339911465L205.37901914596557,149.2712916422406L205.73373247782388,149.48071718463734L205.77807164430618,149.50677371667393L205.97759789347649,149.62369550326264L206.1771241426468,149.74007066838405L206.35448080857594,149.84305428913046L206.79787247339885,150.09861209338698L206.84221163988113,150.12401840487524L206.90872038960458,150.16207675414L206.95305955608686,150.1874149083381L207.08607705553374,150.26326511186306L207.35211205442747,150.41422805703317L207.3742816376686,150.42676354584347L207.52946872035662,150.51432249024882L207.59597747008004,150.55174493199618L207.7068253862858,150.61397799051565L207.8620124689738,150.70081651236376L207.90635163545608,150.72556510600177L209.03700038075445,151.34733884613567L209.28086579640706,151.47908416176605L209.3473745461305,151.51486810225745L209.4582224623362,151.57436941658642L209.81293579419452,151.76360131704797L209.90161412715912,151.81062984727362L209.92378371040027,151.8223699405075L209.96812287688255,151.84582763506947L210.189818709294,151.96269898526342L210.27849704225858,152.00925109603068L210.36717537522316,152.05569074726915L210.56670162439346,152.15976897409593L210.5888712076346,152.17129777973022L210.69971912384034,152.22883820882066L210.78839745680492,152.2747428253312L210.81056704004607,152.28620211052953L211.14311078866322,152.45723533293955L211.8303678691387,152.80565948978784L212.09640286803247,152.9387018386504L212.25158995072044,153.01583612552236L212.3624378669262,153.0707184202957L212.67281203230223,153.22343914197964L212.87233828147254,153.32087680402395L213.2048820300897,153.48198291711896L213.4487474457423,153.59910099670338L213.6039345284303,153.67317774753778L213.62610411167145,153.68373122234956L213.82563036084173,153.7783887485274L214.66807452400525,154.17160451333754L214.7345832737287,154.202202365619L214.77892244021098,154.2225643560609L214.8454311899344,154.25305315667805L214.86760077317555,154.26320177718614L214.95627910614016,154.30372264934522L215.66570576985677,154.6236986348444L215.97607993523278,154.76133751135683L216.57465868274372,155.0227295796529L216.70767618219057,155.08008939192433L216.79635451515514,155.1181825014071L217.19540701349575,155.2881436096426L217.30625492970148,155.33493086306098L217.63879867831866,155.4741847265643L217.7053074280421,155.5018357984047L217.77181617776552,155.5294204168872L218.23737742582958,155.72064489572725L218.48124284148219,155.81950363727185L218.76944742361707,155.93517644151794L218.7916170068582,155.94402223542423L219.01331283926964,156.03207020838664L219.07982158899307,156.0583393911686L219.16849992195765,156.09326011957987L219.54538283705713,156.24034048471475L219.5897220035394,156.25750214959615L219.65623075326283,156.28318824676063L220.1217920013269,156.46110262918745L220.16613116780917,156.47787443436903L220.27697908401487,156.51967223335964L220.52084449966748,156.61096619726695L220.69820116559666,156.67679046340612L220.7868794985612,156.70952163887026L221.1637624136607,156.8472845616508L221.29677991310754,156.89538588762395L221.518475745519,156.9749506634638L221.5628149120013,156.9907726968067L221.69583241144818,157.03805783922985L221.80668032765388,157.07725407445423L221.9175282438596,157.1162608324119L221.98403699358306,157.13957403351867L222.31658074220022,157.2551156349812L222.33875032544137,157.26275777114284L222.93732907295225,157.46622023222153L223.11468573888143,157.5254397161556L223.3363815712929,157.59877798275087L223.58024698694547,157.67856904079414L224.0458082350095,157.82832900979258L224.422691150109,157.94709104321618L224.4448607333501,157.95400798581028L225.15428739706675,158.1712985387076L225.1764569803079,158.17796210657548L225.30947447975475,158.21778164021853L226.46229280829428,158.55125771057732L226.5066319747766,158.5636665972211L226.66181905746458,158.60685412335854L226.728327807188,158.62524704968706L226.88351488987604,158.66789255497434L227.48209363738695,158.82882435579972L227.947654885451,158.95008060525754L228.16935071786244,159.00661622549745L228.52406404972075,159.09545380066658L228.56840321620305,159.1064182639382L228.61274238268533,159.1173515452495L228.72359029889108,159.14454817835767L229.43301696260772,159.31398634978422L229.54386487881342,159.33973821873371L229.78773029446603,159.39570421442093L229.80989987770715,159.4007451276028L229.8320694609483,159.4057782026963L229.89857821067173,159.42083022905334L230.25329154253006,159.49991773346872L230.85187029004098,159.62882642787832L230.9183790397644,159.64279637205712L231.36177070458731,159.73412245508743L231.49478820403417,159.7609069921798L231.51695778727532,159.7653436057876L232.09336695154508,159.87793118509697L232.24855403423308,159.9073333881154L232.4037411169211,159.93634930969174L233.13533736387888,160.0679312182189L233.20184611360233,160.0794667543856L233.62306819518406,160.15087327298392L233.6452377784252,160.15455248870455L233.84476402759552,160.18730896756267L233.99995111028355,160.21234305504993L234.06645986000697,160.2229531856092L234.22164694269497,160.2474330691307L234.28815569241843,160.25780558633704L234.70937777400016,160.3218425127378L234.77588652372359,160.33169205053693L235.0197519393762,160.36719624795043L235.26361735502877,160.40174049253005L235.48531318744023,160.43231091150219L235.52965235392253,160.43832971140495L235.55182193716365,160.44132718383057L235.6183306868871,160.45027201879913L236.1504006846746,160.5192564402959L236.2612486008803,160.53305194441012L236.28341818412144,160.53578718166173L236.37209651708602,160.54664864222855L236.79331859866778,160.59650246252545L236.81548818190893,160.59904677416796L237.01501443107924,160.62158741239054L237.19237109700836,160.64108218651148L237.45840609590212,160.66936863339046L238.2786806758245,160.74936158610674L238.34518942554791,160.75536911875747L238.54471567471822,160.77296102653315L238.56688525795937,160.77487579910505L238.69990275740622,160.78619685279924L238.74424192388852,160.78990669670213L238.94376817305883,160.80620600146952L239.7197035864989,160.86344506884157L239.83055150270462,160.87082345758938L240.34045191725096,160.90219138075412L240.40696066697438,160.90597119237523L240.47346941669784,160.90967907675608L240.67299566586811,160.92037107593538L241.29374399662018,160.9494937169187L241.82581399440767,160.96946576246415L242.04750982681912,160.9764275983484L243.26683690508207,161.00041561985987L243.39985440452895,161.00156807111222L243.48853273749353,161.0018691071865L243.55504148721695,161.0018691071865L243.79890690286953,161.0018691071865L243.86541565259296,161.0018691071865" fill="none"></path></g></g></g></g></g></g><g transform="translate(63, 175)" clip-path="url(#clip_1)"><clipPath id="clip_1"><rect width="266" height="24"></rect></clipPath><g><g><line x1="0" y1="0" x2="0" y2="5" style="visibility: inherit;" fill="rgb(0, 0, 0)" stroke="rgb(204, 204, 204)" stroke-width="1px"></line><line x1="22.169583241144814" y1="0" x2="22.169583241144814" y2="5" style="visibility: inherit;" fill="rgb(0, 0, 0)" stroke="rgb(204, 204, 204)" stroke-width="1px"></line><line x1="44.33916648228963" y1="0" x2="44.33916648228963" y2="5" style="visibility: inherit;" fill="rgb(0, 0, 0)" stroke="rgb(204, 204, 204)" stroke-width="1px"></line><line x1="66.50874972343445" y1="0" x2="66.50874972343445" y2="5" style="visibility: inherit;" fill="rgb(0, 0, 0)" stroke="rgb(204, 204, 204)" stroke-width="1px"></line><line x1="88.67833296457925" y1="0" x2="88.67833296457925" y2="5" style="visibility: inherit;" fill="rgb(0, 0, 0)" stroke="rgb(204, 204, 204)" stroke-width="1px"></line><line x1="110.84791620572409" y1="0" x2="110.84791620572409" y2="5" style="visibility: inherit;" fill="rgb(0, 0, 0)" stroke="rgb(204, 204, 204)" stroke-width="1px"></line><line x1="133.0174994468689" y1="0" x2="133.0174994468689" y2="5" style="visibility: inherit;" fill="rgb(0, 0, 0)" stroke="rgb(204, 204, 204)" stroke-width="1px"></line><line x1="155.18708268801373" y1="0" x2="155.18708268801373" y2="5" style="visibility: inherit;" fill="rgb(0, 0, 0)" stroke="rgb(204, 204, 204)" stroke-width="1px"></line><line x1="177.3566659291585" y1="0" x2="177.3566659291585" y2="5" style="visibility: inherit;" fill="rgb(0, 0, 0)" stroke="rgb(204, 204, 204)" stroke-width="1px"></line><line x1="199.52624917030334" y1="0" x2="199.52624917030334" y2="5" style="visibility: inherit;" fill="rgb(0, 0, 0)" stroke="rgb(204, 204, 204)" stroke-width="1px"></line><line x1="221.69583241144818" y1="0" x2="221.69583241144818" y2="5" style="visibility: inherit;" fill="rgb(0, 0, 0)" stroke="rgb(204, 204, 204)" stroke-width="1px"></line><line x1="243.86541565259296" y1="0" x2="243.86541565259296" y2="5" style="visibility: inherit;" fill="rgb(0, 0, 0)" stroke="rgb(204, 204, 204)" stroke-width="1px"></line><line x1="266.0349988937378" y1="0" x2="266.0349988937378" y2="5" style="visibility: inherit;" fill="rgb(0, 0, 0)" stroke="rgb(204, 204, 204)" stroke-width="1px"></line></g><g transform="translate(0, 8)"><text style="text-anchor: middle; visibility: hidden; font-family: Roboto, sans-serif; font-size: 12px; font-weight: 200;" x="0" y="0" dx="0em" dy="0.95em" fill="rgb(33, 33, 33)" stroke="none" stroke-width="1px">-1k</text><text style="text-anchor: middle; visibility: inherit; font-family: Roboto, sans-serif; font-size: 12px; font-weight: 200;" x="22.169583241144814" y="0" dx="0em" dy="0.95em" fill="rgb(33, 33, 33)" stroke="none" stroke-width="1px">0</text><text style="text-anchor: middle; visibility: inherit; font-family: Roboto, sans-serif; font-size: 12px; font-weight: 200;" x="44.33916648228963" y="0" dx="0em" dy="0.95em" fill="rgb(33, 33, 33)" stroke="none" stroke-width="1px">1k</text><text style="text-anchor: middle; visibility: inherit; font-family: Roboto, sans-serif; font-size: 12px; font-weight: 200;" x="66.50874972343445" y="0" dx="0em" dy="0.95em" fill="rgb(33, 33, 33)" stroke="none" stroke-width="1px">2k</text><text style="text-anchor: middle; visibility: inherit; font-family: Roboto, sans-serif; font-size: 12px; font-weight: 200;" x="88.67833296457925" y="0" dx="0em" dy="0.95em" fill="rgb(33, 33, 33)" stroke="none" stroke-width="1px">3k</text><text style="text-anchor: middle; visibility: inherit; font-family: Roboto, sans-serif; font-size: 12px; font-weight: 200;" x="110.84791620572409" y="0" dx="0em" dy="0.95em" fill="rgb(33, 33, 33)" stroke="none" stroke-width="1px">4k</text><text style="text-anchor: middle; visibility: inherit; font-family: Roboto, sans-serif; font-size: 12px; font-weight: 200;" x="133.0174994468689" y="0" dx="0em" dy="0.95em" fill="rgb(33, 33, 33)" stroke="none" stroke-width="1px">5k</text><text style="text-anchor: middle; visibility: inherit; font-family: Roboto, sans-serif; font-size: 12px; font-weight: 200;" x="155.18708268801373" y="0" dx="0em" dy="0.95em" fill="rgb(33, 33, 33)" stroke="none" stroke-width="1px">6k</text><text style="text-anchor: middle; visibility: inherit; font-family: Roboto, sans-serif; font-size: 12px; font-weight: 200;" x="177.3566659291585" y="0" dx="0em" dy="0.95em" fill="rgb(33, 33, 33)" stroke="none" stroke-width="1px">7k</text><text style="text-anchor: middle; visibility: inherit; font-family: Roboto, sans-serif; font-size: 12px; font-weight: 200;" x="199.52624917030334" y="0" dx="0em" dy="0.95em" fill="rgb(33, 33, 33)" stroke="none" stroke-width="1px">8k</text><text style="text-anchor: middle; visibility: inherit; font-family: Roboto, sans-serif; font-size: 12px; font-weight: 200;" x="221.69583241144818" y="0" dx="0em" dy="0.95em" fill="rgb(33, 33, 33)" stroke="none" stroke-width="1px">9k</text><text style="text-anchor: middle; visibility: inherit; font-family: Roboto, sans-serif; font-size: 12px; font-weight: 200;" x="243.86541565259296" y="0" dx="0em" dy="0.95em" fill="rgb(33, 33, 33)" stroke="none" stroke-width="1px">10k</text><text style="text-anchor: middle; visibility: hidden; font-family: Roboto, sans-serif; font-size: 12px; font-weight: 200;" x="266.0349988937378" y="0" dx="0em" dy="0.95em" fill="rgb(33, 33, 33)" stroke="none" stroke-width="1px">11k</text></g><line x1="0" y1="0" x2="266.0349988937378" y2="0" fill="rgb(0, 0, 0)" stroke="rgb(204, 204, 204)" stroke-width="1px"></line></g></g></g></g></svg>