<svg viewBox="0 0 330 200" xmlns="http://www.w3.org/2000/svg"><g><g><g><g><g><line x1="41.149001121520996" y1="177.5999994277954" x2="36.149001121520996" y2="177.5999994277954" style="visibility: inherit;" fill="rgb(0, 0, 0)" stroke="rgb(204, 204, 204)" stroke-width="1px"></line><line x1="41.149001121520996" y1="159.83999948501588" x2="36.149001121520996" y2="159.83999948501588" style="visibility: inherit;" fill="rgb(0, 0, 0)" stroke="rgb(204, 204, 204)" stroke-width="1px"></line><line x1="41.149001121520996" y1="142.07999954223632" x2="36.149001121520996" y2="142.07999954223632" style="visibility: inherit;" fill="rgb(0, 0, 0)" stroke="rgb(204, 204, 204)" stroke-width="1px"></line><line x1="41.149001121520996" y1="124.31999959945678" x2="36.149001121520996" y2="124.31999959945678" style="visibility: inherit;" fill="rgb(0, 0, 0)" stroke="rgb(204, 204, 204)" stroke-width="1px"></line><line x1="41.149001121520996" y1="106.55999965667725" x2="36.149001121520996" y2="106.55999965667725" style="visibility: inherit;" fill="rgb(0, 0, 0)" stroke="rgb(204, 204, 204)" stroke-width="1px"></line><line x1="41.149001121520996" y1="88.7999997138977" x2="36.149001121520996" y2="88.7999997138977" style="visibility: inherit;" fill="rgb(0, 0, 0)" stroke="rgb(204, 204, 204)" stroke-width="1px"></line><line x1="41.149001121520996" y1="71.03999977111816" x2="36.149001121520996" y2="71.03999977111816" style="visibility: inherit;" fill="rgb(0, 0, 0)" stroke="rgb(204, 204, 204)" stroke-width="1px"></line><line x1="41.149001121520996" y1="53.27999982833863" x2="36.149001121520996" y2="53.27999982833863" style="visibility: inherit;" fill="rgb(0, 0, 0)" stroke="rgb(204, 204, 204)" stroke-width="1px"></line><line x1="41.149001121520996" y1="35.51999988555907" x2="36.149001121520996" y2="35.51999988555907" style="visibility: inherit;" fill="rgb(0, 0, 0)" stroke="rgb(204, 204, 204)" stroke-width="1px"></line><line x1="41.149001121520996" y1="17.759999942779537" x2="36.149001121520996" y2="17.759999942779537" style="visibility: inherit;" fill="rgb(0, 0, 0)" stroke="rgb(204, 204, 204)" stroke-width="1px"></line><line x1="41.149001121520996" y1="0" x2="36.149001121520996" y2="0" style="visibility: inherit;" fill="rgb(0, 0, 0)" stroke="rgb(204, 204, 204)" stroke-width="1px"></line></g><g transform="translate(31.149001121520996, 0)"><text style="text-anchor: end; visibility: hidden; font-family: Roboto, sans-serif; font-size: 12px; font-weight: 200;" x="0" y="177.5999994277954" dx="0em" dy="0.3em" fill="rgb(50, 49, 63)" stroke="none" stroke-width="1px">1.5</text><text style="text-anchor: end; visibility: inherit; font-family: Roboto, sans-serif; font-size: 12px; font-weight: 200;" x="0" y="159.83999948501588" dx="0em" dy="0.3em" fill="rgb(50, 49, 63)" stroke="none" stroke-width="1px">2</text><text style="text-anchor: end; visibility: hidden; font-family: Roboto, sans-serif; font-size: 12px; font-weight: 200;" x="0" y="142.07999954223632" dx="0em" dy="0.3em" fill="rgb(50, 49, 63)" stroke="none" stroke-width="1px">2.5</text><text style="text-anchor: end; visibility: inherit; font-family: Roboto, sans-serif; font-size: 12px; font-weight: 200;" x="0" y="124.31999959945678" dx="0em" dy="0.3em" fill="rgb(50, 49, 63)" stroke="none" stroke-width="1px">3</text><text style="text-anchor: end; visibility: hidden; font-family: Roboto, sans-serif; font-size: 12px; font-weight: 200;" x="0" y="106.55999965667725" dx="0em" dy="0.3em" fill="rgb(50, 49, 63)" stroke="none" stroke-width="1px">3.5</text><text style="text-anchor: end; visibility: inherit; font-family: Roboto, sans-serif; font-size: 12px; font-weight: 200;" x="0" y="88.7999997138977" dx="0em" dy="0.3em" fill="rgb(50, 49, 63)" stroke="none" stroke-width="1px">4</text><text style="text-anchor: end; visibility: hidden; font-family: Roboto, sans-serif; font-size: 12px; font-weight: 200;" x="0" y="71.03999977111816" dx="0em" dy="0.3em" fill="rgb(50, 49, 63)" stroke="none" stroke-width="1px">4.5</text><text style="text-anchor: end; visibility: inherit; font-family: Roboto, sans-serif; font-size: 12px; font-weight: 200;" x="0" y="53.27999982833863" dx="0em" dy="0.3em" fill="rgb(50, 49, 63)" stroke="none" stroke-width="1px">5</text><text style="text-anchor: end; visibility: hidden; font-family: Roboto, sans-serif; font-size: 12px; font-weight: 200;" x="0" y="35.51999988555907" dx="0em" dy="0.3em" fill="rgb(50, 49, 63)" stroke="none" stroke-width="1px">5.5</text><text style="text-anchor: end; visibility: inherit; font-family: Roboto, sans-serif; font-size: 12px; font-weight: 200;" x="0" y="17.759999942779537" dx="0em" dy="0.3em" fill="rgb(50, 49, 63)" stroke="none" stroke-width="1px">6</text><text style="text-anchor: end; visibility: hidden; font-family: Roboto, sans-serif; font-size: 12px; font-weight: 200;" x="0" y="0" dx="0em" dy="0.3em" fill="rgb(50, 49, 63)" stroke="none" stroke-width="1px">6.5</text></g><line x1="41.149001121520996" y1="0" x2="41.149001121520996" y2="177.5999994277954" fill="rgb(0, 0, 0)" stroke="rgb(204, 204, 204)" stroke-width="1px"></line></g></g><g transform="translate(41, 0)" clip-path="url(#clip_0)"><clipPath id="clip_0"><rect width="288" height="177"></rect></clipPath><g><g><g><line x1="0" y1="0" x2="0" y2="177.5999994277954" fill="rgb(0, 0, 0)" stroke="rgb(60, 60, 60)" stroke-width="1px" opacity="0.25"></line><line x1="36.106374859809875" y1="0" x2="36.106374859809875" y2="177.5999994277954" fill="rgb(0, 0, 0)" stroke="rgb(60, 60, 60)" stroke-width="1px" opacity="0.25"></line><line x1="72.21274971961975" y1="0" x2="72.21274971961975" y2="177.5999994277954" fill="rgb(0, 0, 0)" stroke="rgb(60, 60, 60)" stroke-width="1px" opacity="0.25"></line><line x1="108.31912457942963" y1="0" x2="108.31912457942963" y2="177.5999994277954" fill="rgb(0, 0, 0)" stroke="rgb(60, 60, 60)" stroke-width="1px" opacity="0.25"></line><line x1="144.4254994392395" y1="0" x2="144.4254994392395" y2="177.5999994277954" fill="rgb(0, 0, 0)" stroke="rgb(60, 60, 60)" stroke-width="1px" opacity="0.25"></line><line x1="180.53187429904938" y1="0" x2="180.53187429904938" y2="177.5999994277954" fill="rgb(0, 0, 0)" stroke="rgb(60, 60, 60)" stroke-width="1px" opacity="0.25"></line><line x1="216.63824915885925" y1="0" x2="216.63824915885925" y2="177.5999994277954" fill="rgb(0, 0, 0)" stroke="rgb(60, 60, 60)" stroke-width="1px" opacity="0.25"></line><line x1="252.74462401866913" y1="0" x2="252.74462401866913" y2="177.5999994277954" fill="rgb(0, 0, 0)" stroke="rgb(60, 60, 60)" stroke-width="1px" opacity="0.25"></line><line x1="288.850998878479" y1="0" x2="288.850998878479" y2="177.5999994277954" fill="rgb(0, 0, 0)" stroke="rgb(60, 60, 60)" stroke-width="1px" opacity="0.25"></line></g><g><line x1="0" y1="177.5999994277954" x2="288.850998878479" y2="177.5999994277954" fill="rgb(0, 0, 0)" stroke="rgb(60, 60, 60)" stroke-width="1px" opacity="0.25"></line><line x1="0" y1="159.83999948501588" x2="288.850998878479" y2="159.83999948501588" fill="rgb(0, 0, 0)" stroke="rgb(60, 60, 60)" stroke-width="1px" opacity="0.25"></line><line x1="0" y1="142.07999954223632" x2="288.850998878479" y2="142.07999954223632" fill="rgb(0, 0, 0)" stroke="rgb(60, 60, 60)" stroke-width="1px" opacity="0.25"></line><line x1="0" y1="124.31999959945678" x2="288.850998878479" y2="124.31999959945678" fill="rgb(0, 0, 0)" stroke="rgb(60, 60, 60)" stroke-width="1px" opacity="0.25"></line><line x1="0" y1="106.55999965667725" x2="288.850998878479" y2="106.55999965667725" fill="rgb(0, 0, 0)" stroke="rgb(60, 60, 60)" stroke-width="1px" opacity="0.25"></line><line x1="0" y1="88.7999997138977" x2="288.850998878479" y2="88.7999997138977" fill="rgb(0, 0, 0)" stroke="rgb(60, 60, 60)" stroke-width="1px" opacity="0.25"></line><line x1="0" y1="71.03999977111816" x2="288.850998878479" y2="71.03999977111816" fill="rgb(0, 0, 0)" stroke="rgb(60, 60, 60)" stroke-width="1px" opacity="0.25"></line><line x1="0" y1="53.27999982833863" x2="288.850998878479" y2="53.27999982833863" fill="rgb(0, 0, 0)" stroke="rgb(60, 60, 60)" stroke-width="1px" opacity="0.25"></line><line x1="0" y1="35.51999988555907" x2="288.850998878479" y2="35.51999988555907" fill="rgb(0, 0, 0)" stroke="rgb(60, 60, 60)" stroke-width="1px" opacity="0.25"></line><line x1="0" y1="17.759999942779537" x2="288.850998878479" y2="17.759999942779537" fill="rgb(0, 0, 0)" stroke="rgb(60, 60, 60)" stroke-width="1px" opacity="0.25"></line><line x1="0" y1="0" x2="288.850998878479" y2="0" fill="rgb(0, 0, 0)" stroke="rgb(60, 60, 60)" stroke-width="1px" opacity="0.25"></line></g></g></g><g><g><line x1="0" y1="230.87999925613403" x2="288.850998878479" y2="230.87999925613403" fill="rgb(0, 0, 0)" stroke="rgb(153, 153, 153)" stroke-width="1.5px"></line></g></g><g><g><line x1="36.106374859809875" y1="0" x2="36.106374859809875" y2="177.5999994277954" fill="rgb(0, 0, 0)" stroke="rgb(153, 153, 153)" stroke-width="1.5px"></line></g></g><g><g><g><g><g><path style="fill: none;" stroke="rgb(255, 112, 67)" stroke-width="2px" d="M36.106374859809875,11.67200496727709L36.82850235700607,20.90375151575013L37.55062985420227,30.321361546819762L38.27275735139847,34.93719264947511L38.994884848594666,37.25902610194689L39.71701234579086,38.8000792030958L40.43913984298707,39.91436478388223L41.16126734018326,40.77468417369705L41.883394837379456,41.710699195103764L42.60552233457565,46.45397479459325L43.32764983177185,55.381739114994204L44.04977732896805,67.1916867139238L44.771904826164246,77.06217936785897L45.49403232336044,83.45900992931898L46.21615982055664,89.3921645357921L46.93828731775284,96.60849732316943L47.660414814949036,100.75842463197682L48.38254231214523,103.92963711381395L49.10466980934143,106.00513903862628L49.82679730653762,106.53919546215734L50.548924803733826,112.03790343319686L51.27105230093002,113.24950676032239L51.99317979812622,115.9023278181345L52.71530729532242,116.486767381436L53.437434792518616,116.1080921013239L54.15956228971481,117.44077766827044L54.88168978691101,118.8813481684027L55.60381728410721,120.99203519588514L56.325944781303406,122.50477534711567L57.0480722784996,122.90302422528558L57.7701997756958,122.34650839655139L58.492327272892005,124.99081575723756L59.214454770088196,125.82838035228609L59.93658226728439,126.83289193583846L60.65870976448059,128.21657235868432L61.38083726167679,128.16568082895634L62.102964758872986,129.04082502180847L62.82509225606918,129.36798276198365L63.54721975326538,128.66972268818284L64.26934725046158,128.93473029717308L64.99147474765778,131.139775689909L65.71360224485397,132.90138300134166L66.43572974205017,131.90138880604556L67.15785723924637,132.8850900686484L67.87998473644257,132.76943714055778L68.60211223363876,132.62719485903892L69.32423973083496,129.662292431432L70.04636722803116,132.9721799686673L70.76849472522736,133.17623188144356L71.49062222242355,135.50355160234375L72.21274971961975,135.51962483579675L72.93487721681595,136.86256616537545L73.65700471401215,136.74245587454888L74.37913221120834,135.57741164571206L75.10125970840454,136.8055602731013L75.82338720560074,138.37319474715105L76.54551470279694,136.50841371576487L77.26764219999313,137.72335667388717L77.98976969718933,139.57941891119364L78.71189719438553,139.82472041042777L79.43402469158173,140.50812466639493L80.15615218877792,139.24284566165215L80.87827968597414,139.42444797013096L81.6004071831703,140.22485249874242L82.32253468036652,143.92071452927948L83.04466217756271,142.67072156590245L83.76678967475891,142.35414000156777L84.48891717195511,142.9302089437997L85.2110446691513,142.24083493161416L85.9331721663475,139.8701004537041L86.6552996635437,141.88359551638598L87.3774271607399,141.46171541691268L88.0995546579361,141.38323756418555L88.8216821551323,142.86746169966636L89.54380965232849,142.3384102480286L90.26593714952469,142.666563206753L90.98806464672089,144.29779665217112L91.71019214391708,145.2400301582603L92.43231964111328,145.7060095444605L93.15444713830948,145.95681061621477L93.87657463550568,146.6698147865077L94.59870213270187,146.67286817506167L95.32082962989807,146.14524836663819L96.04295712709427,146.22837200641936L96.76508462429047,146.63568326189036L97.48721212148666,145.8789460865137L98.20933961868286,146.66344399946527L98.93146711587907,145.56652181112474L99.65359461307524,144.3636934510472L100.37572211027145,146.1392491430193L101.09784960746765,145.47671824492184L101.81997710466385,148.0946579177835L102.54210460186005,147.6800399835124L103.26423209905624,147.12869192289918L103.98635959625244,146.98583242674601L104.70848709344864,145.76648587333153L105.43061459064484,147.91650134508455L106.15274208784103,150.4383707926245L106.87486958503723,148.3692764082368L107.59699708223343,147.4575915355749L108.31912457942963,147.61192527524545L109.04125207662582,148.98277005228294L109.76337957382202,148.63832031826135L110.48550707101822,148.8756470889667L111.20763456821442,149.91646294830002L111.92976206541061,152.126347356253L112.65188956260681,152.53491218977143L113.37401705980301,152.54823425713332L114.0961445569992,152.55378514526333L114.8182720541954,151.8767257877554L115.5403995513916,151.7071781607693L116.2625270485878,150.58343863205988L116.98465454578401,151.80956517848685L117.70678204298018,151.2942045808327L118.42890954017639,152.43237835429568L119.15103703737259,149.8349731501824L119.87316453456879,151.44285176433917L120.59529203176498,151.82062172036882L121.31741952896118,153.62494503533915L122.03954702615738,152.208145447169L122.76167452335358,152.13456773644288L123.48380202054977,152.7679960284784L124.20592951774597,151.91899426132173L124.92805701494217,152.03539092850363L125.65018451213837,152.37045619236258L126.37231200933456,151.88867327035837L127.09443950653076,151.5073530596894L127.81656700372696,152.30430485698514L128.53869450092316,152.10221815557185L129.26082199811935,152.28193778292413L129.98294949531555,151.78551940869443L130.70507699251175,152.07412086639798L131.42720448970795,154.06601443169356L132.14933198690414,153.4711197538843L132.87145948410034,154.87323891076954L133.59358698129654,154.64083743472713L134.31571447849274,155.41008709793178L135.03784197568893,154.78384502924214L135.75996947288513,154.8074159183336L136.48209697008133,153.9651599865301L137.20422446727753,155.32651897636535L137.92635196447372,157.7741685324926L138.64847946166992,155.79089810883337L139.37060695886612,154.21951562881597L140.09273445606232,157.33924615579264L140.81486195325851,156.91466019348874L141.5369894504547,157.56783360097418L142.2591169476509,158.03838748652063L142.9812444448471,157.61224795733813L143.7033719420433,155.02798627491887L144.4254994392395,154.79754608250317L145.14762693643567,155.7757587700972L145.8697544336319,158.61864925075142L146.5918819308281,157.40929042414638L147.3140094280243,158.93373536263312L148.0361369252205,157.89590257615654L148.7582644224167,157.52510054750195L149.48039191961288,158.16113156509203L150.20251941680908,157.7614853771378L150.92464691400528,156.26406577144456L151.64677441120148,157.27181068767808L152.36890190839767,158.5675129177845L153.09102940559387,157.9840782574252L153.81315690279007,157.75468185901425L154.53528439998627,158.08147712394006L155.25741189718246,157.65060820947605L155.97953939437866,158.019029546766L156.70166689157486,156.00427650917547L157.42379438877106,156.1129365537142L158.14592188596725,156.30518232368044L158.86804938316345,156.16134234753042L159.59017688035965,157.17199667129444L160.31230437755585,158.6062230488964L161.03443187475204,158.30938706827337L161.75655937194827,157.55618773394974L162.47868686914444,158.48451220849844L163.2008143663406,157.42402606347804L163.92294186353683,158.61657522140356L164.64506936073303,157.71514216643692L165.36719685792923,157.8784385811882L166.08932435512543,156.73462087129573L166.81145185232162,158.6506481385873L167.53357934951782,158.85643930669056L168.25570684671402,161.94419630085847L168.97783434391022,160.74238747924616L169.69996184110641,161.67800970047233L170.4220893383026,161.35195043413853L171.1442168354988,161.40635450060785L171.866344332695,160.3271067463179L172.5884718298912,160.49799000639024L173.3105993270874,161.1690731527405L174.0327268242836,161.74099905624067L174.7548543214798,160.11633171344545L175.476981818676,160.63826305343434L176.1991093158722,161.29177770655082L176.9212368130684,161.51499834588867L177.6433643102646,161.54582349105402L178.36549180746078,161.12968318831824L179.08761930465698,160.21274565189302L179.8097468018532,159.85265301467936L180.53187429904938,159.28793724670695L181.25400179624555,158.5268010245888L181.97612929344177,160.12464060122682L182.69825679063797,160.05562045830894L183.42038428783417,161.14582030738882L184.14251178503036,160.24547952848567L184.86463928222656,161.39939527968457L185.58676677942276,162.06831881190027L186.30889427661896,163.29588920664392L187.03102177381516,161.8708073964995L187.75314927101135,160.9651938269332L188.47527676820755,160.5278664563361L189.19740426540375,161.3956084275535L189.91953176259995,162.05347078818656L190.64165925979614,162.2776656068492L191.36378675699234,160.9968241041694L192.08591425418854,160.9084838274453L192.80804175138474,160.62664886686002L193.53016924858093,161.0160318822398L194.25229674577713,161.38398429235323L194.97442424297333,161.90888787855465L195.69655174016953,163.14060134385016L196.41867923736572,163.09009585623528L197.14080673456192,163.0763605872946L197.86293423175815,163.5212333618483L198.58506172895432,162.27382239095652L199.30718922615048,161.45805360404856L200.0293167233467,162.14980502035877L200.7514442205429,162.19526631750267L201.4735717177391,162.6638026463693L202.1956992149353,162.31000600396243L202.9178267121315,162.6695433242932L203.6399542093277,161.7176942938618L204.3620817065239,161.8192581522443L205.0842092037201,162.48859455186147L205.8063367009163,162.71447575010808L206.5284641981125,162.15545164536604L207.25059169530869,161.919499523509L207.97271919250488,162.95664946852088L208.69484668970108,162.58079815761596L209.41697418689728,161.9440660436626L210.13910168409348,160.08980154504852L210.86122918128967,162.15105423702167L211.58335667848587,163.11810207194657L212.30548417568207,164.7784060257693L213.02761167287827,164.32327051638634L213.74973917007446,163.26131280948965L214.47186666727066,163.7636445751129L215.19399416446686,163.4818092308484L215.91612166166308,161.94833246411034L216.63824915885925,161.5574966922793L217.36037665605542,162.87883969133102L218.08250415325165,163.0356735537242L218.80463165044785,162.57066489468997L219.52675914764404,161.48183530002314L220.24888664484024,162.31921083248764L220.97101414203644,162.55961849839161L221.69314163923264,163.11645973051577L222.41526913642883,164.34760388035227L223.13739663362503,163.57181684913263L223.85952413082123,162.66296114794267L224.58165162801743,163.13109689693712L225.30377912521362,163.04654180881488L226.02590662240982,164.07228145449966L226.74803411960602,163.5244287826458L227.47016161680222,162.31313879797764L228.1922891139984,163.857627098443L228.9144166111946,164.5395140644963L229.6365441083908,163.41765381742036L230.358671605587,164.611985294994L231.0807991027832,165.33098249696016L231.8029265999794,164.9065362011463L232.5250540971756,163.75616705630458L233.2471815943718,165.64902274003225L233.96930909156802,164.97096438182064L234.6914365887642,162.93013979391108L235.41356408596036,163.12772244442053L236.13569158315659,162.2612012371187L236.85781908035278,163.79326076564791L237.57994657754898,163.35172517062134L238.30207407474518,163.23157500759697L239.02420157194138,162.1715500222183L239.74632906913757,163.16330016246536L240.46845656633377,163.67595049712324L241.19058406352997,163.44174329060596L241.91271156072617,164.91991081023522L242.63483905792236,164.76878958158278L243.35696655511856,165.51477663173475L244.07909405231476,164.59115911892934L244.80122154951096,164.11163956620578L245.52334904670715,165.26769339388485L246.24547654390335,164.17309869124884L246.96760404109955,163.46026261569753L247.68973153829575,162.38254974199225L248.41185903549194,161.66339160723615L249.13398653268814,161.59157798437894L249.85611402988434,162.8712793266664L250.57824152708054,161.51925860139318L251.30036902427673,162.77851898365512L252.02249652147296,163.85995478959907L252.74462401866913,163.93162000122135L253.4667515158653,163.9241122313848L254.18887901306152,165.21425075378826L254.91100651025772,164.33600124621117L255.63313400745392,164.4160861771603L256.3552615046501,163.93645862485664L257.0773890018463,162.92150134020213L257.7995164990425,163.17391006905112L258.5216439962387,164.22342788952662L259.2437714934349,165.56413917461393" fill="none"></path></g></g></g></g><g opacity="0.2"><g><g><g><path style="fill: none;" stroke="rgb(255, 112, 67)" stroke-width="2px" d="M36.106374859809875,11.67200496727709L36.82850235700607,26.44279944483396L37.55062985420227,39.36226717664658L38.27275735139847,40.36541002619778L38.994884848594666,40.290411857494114L39.71701234579086,40.931910421101115L40.43913984298707,41.5078109929761L41.16126734018326,42.02903810311318L41.883394837379456,43.09113954012092L42.60552233457565,53.49718625952364L43.32764983177185,68.69241143029312L44.04977732896805,84.84233889901206L44.771904826164246,91.83568947767667L45.49403232336044,93.04172371451364L46.21615982055664,98.284922244984L46.93828731775284,107.42790698725499L47.660414814949036,106.98155948503096L48.38254231214523,108.68565066606402L49.10466980934143,109.11807574401651L49.82679730653762,107.3402312825814L50.548924803733826,120.28566382754279L51.27105230093002,115.06687188268715L51.99317979812622,119.88150702952852L52.71530729532242,117.36341980314442L53.437434792518616,115.54008187261762L54.15956228971481,119.43980033539502L54.88168978691101,121.04220023257604L55.60381728410721,124.15806249670705L56.325944781303406,124.77388418051396L57.0480722784996,123.50039732243435L57.7701997756958,121.51173483799685L58.492327272892005,128.95727627213813L59.214454770088196,127.08472714487048L59.93658226728439,128.3396592392159L60.65870976448059,130.29209293348694L61.38083726167679,128.0893435356767L62.102964758872986,130.35354129754677L62.82509225606918,129.85871936920938L63.54721975326538,127.6223325813708L64.26934725046158,129.33224170977283L64.99147474765778,134.44734377459145L65.71360224485397,135.5437939663713L66.43572974205017,130.40139751382327L67.15785723924637,134.36064196212664L67.87998473644257,132.5959577484519L68.60211223363876,132.4138314367828L69.32423973083496,125.214938790299L70.04636722803116,137.9370112743345L70.76849472522736,133.48230975060105L71.49062222242355,138.99453118364704L72.21274971961975,135.543734685976L72.93487721681595,138.8769781597338L73.65700471401215,136.5622904383096L74.37913221120834,133.82984530245986L75.10125970840454,138.64778321418316L75.82338720560074,140.72464645822419L76.54551470279694,133.7112421686867L77.26764219999313,139.54577111107022L77.98976969718933,142.36351226715297L78.71189719438553,140.19267265927897L79.43402469158173,141.5332310503456L80.15615218877792,137.34492715453803L80.87827968597414,139.6968514328491L81.6004071831703,141.42545929165962L82.32253468036652,149.464507575085L83.04466217756271,140.79573212083696L83.76678967475891,141.8792676550657L84.48891717195511,143.7943123571476L85.2110446691513,141.2067739133359L85.9331721663475,136.31399873683904L86.6552996635437,144.9038381104088L87.3774271607399,140.82889526770276L88.0995546579361,141.26552078509485L88.8216821551323,145.0937979028876L89.54380965232849,141.54483307057188L90.26593714952469,143.1587926448397L90.98806464672089,146.74464682029824L91.71019214391708,146.65338041739406L92.43231964111328,146.40497862376077L93.15444713830948,146.33301222384617L93.87657463550568,147.73932104194705L94.59870213270187,146.67744825789268L95.32082962989807,145.35381865400296L96.04295712709427,146.35305746609114L96.76508462429047,147.24665014509688L97.48721212148666,144.7438403234487L98.20933961868286,147.84019086889256L98.93146711587907,143.921138528614L99.65359461307524,142.55945091093085L100.37572211027145,148.80258268097742L101.09784960746765,144.48292189777567L101.81997710466385,152.02156742707598L102.54210460186005,147.05811308210568L103.26423209905624,146.30166983197938L103.98635959625244,146.77154318251627L104.70848709344864,143.9374660432098L105.43061459064484,151.1415245527141L106.15274208784103,154.22117496393443L106.87486958503723,145.26563483165523L107.59699708223343,146.09006422658203L108.31912457942963,147.8434258847513L109.04125207662582,151.03903721783922L109.76337957382202,148.12164571722892L110.48550707101822,149.23163724502473L111.20763456821442,151.47768673729996L111.92976206541061,155.44117396818245L112.65188956260681,153.1477594400491L113.37401705980301,152.56821735817607L114.0961445569992,152.56211147745844L114.8182720541954,150.86113675149346L115.5403995513916,151.45285672029013L116.2625270485878,148.89782933899573L116.98465454578401,153.64875499812734L117.70678204298018,150.5211636843515L118.42890954017639,154.13963901449011L119.15103703737259,145.93886534401253L119.87316453456879,153.85466968557427L120.59529203176498,152.38727665441334L121.31741952896118,156.33143000779464L122.03954702615738,150.08294606491376L122.76167452335358,152.02420117035362L123.48380202054977,153.7181384665317L124.20592951774597,150.64549161058667L124.92805701494217,152.20998592927654L125.65018451213837,152.87305408815095L126.37231200933456,151.16599888735203L127.09443950653076,150.93537274368592L127.81656700372696,153.49973255292875L128.53869450092316,151.79908810345196L129.26082199811935,152.55151722395254L129.98294949531555,151.04089184734985L130.70507699251175,152.50702305295331L131.42720448970795,157.053854779637L132.14933198690414,152.57877773717036L132.87145948410034,156.97641764609745L133.59358698129654,154.29223522066349L134.31571447849274,156.56396159273882L135.03784197568893,153.84448192620766L135.75996947288513,154.84277225197079L136.48209697008133,152.70177608882486L137.20422446727753,157.3685574611182L137.92635196447372,161.4456428666835L138.64847946166992,152.81599247334458L139.37060695886612,151.86244190878983L140.09273445606232,162.01884194625762L140.81486195325851,156.27778125003292L141.5369894504547,158.54759371220229L142.2591169476509,158.74421831484028L142.9812444448471,156.97303866356438L143.7033719420433,151.15159375129005L144.4254994392395,154.4518857938796L145.14762693643567,157.24307780148828L145.8697544336319,162.88298497173275L146.5918819308281,155.59525218423877L147.3140094280243,161.2204027703633L148.0361369252205,156.33915339644165L148.7582644224167,156.9688975045201L149.48039191961288,159.11517809147713L150.20251941680908,157.1620160952065L150.92464691400528,154.01793636290466L151.64677441120148,158.7834280620284L152.36890190839767,160.5110662629441L153.09102940559387,157.10892626688633L153.81315690279007,157.4105872613978L154.53528439998627,158.57167002132883L155.25741189718246,157.00430483778004L155.97953939437866,158.57166155270093L156.70166689157486,152.98214695278972L157.42379438877106,156.27592662052228L158.14592188596725,156.59355097862982L158.86804938316345,155.94558238330538L159.59017688035965,158.68797815694043L160.31230437755585,160.75756261529935L161.03443187475204,157.86413309733888L161.75655937194827,156.4263887324643L162.47868686914444,159.87699892032145L163.2008143663406,155.83329684594742L163.92294186353683,160.40539895829187L164.64506936073303,156.3629925839869L165.36719685792923,158.12338320331514L166.08932435512543,155.01889430645707L166.81145185232162,161.52468903952453L167.53357934951782,159.1651260588455L168.25570684671402,166.57583179211025L168.97783434391022,158.93967424682774L169.69996184110641,163.0814430323116L170.4220893383026,160.86286153463783L171.1442168354988,161.48796060031182L171.866344332695,158.70823511488297L172.5884718298912,160.75431489649878L173.3105993270874,162.17569787226594L174.0327268242836,162.59888791149086L174.7548543214798,157.67933069925266L175.476981818676,161.42116006341766L176.1991093158722,162.27204968622553L176.9212368130684,161.84982930489542L177.6433643102646,161.5920612088021L178.36549180746078,160.50547273421458L179.08761930465698,158.8373393472551L179.8097468018532,159.3125140588589L180.53187429904938,158.44086359474832L181.25400179624555,157.38509669141158L181.97612929344177,162.52139996618388L182.69825679063797,159.95209024393208L183.42038428783417,162.7811200810087L184.14251178503036,158.89496836013095L184.86463928222656,163.1302689064829L185.58676677942276,163.07170411022383L186.30889427661896,165.13724479875935L187.03102177381516,159.73318468128286L187.75314927101135,159.6067734725837L188.47527676820755,159.8718754004405L189.19740426540375,162.6972213843796L189.91953176259995,163.04026432913616L190.64165925979614,162.61395783484318L191.36378675699234,159.07556185014968L192.08591425418854,160.77597341235918L192.80804175138474,160.20389642598212L193.53016924858093,161.6001064053094L194.25229674577713,161.93591290752335L194.97442424297333,162.69624325785688L195.69655174016953,164.98817154179338L196.41867923736572,163.01433762481298L197.14080673456192,163.05575768388363L197.86293423175815,164.18854252367876L198.58506172895432,160.40270593461892L199.30718922615048,160.23440042368657L200.0293167233467,163.18743214482413L200.7514442205429,162.26345826321852L201.4735717177391,163.3666071396692L202.1956992149353,161.77931104035213L202.9178267121315,163.2088493047893L203.6399542093277,160.2899207482147L204.3620817065239,161.97160393981804L205.0842092037201,163.4925991512872L205.8063367009163,163.05329754747797L206.5284641981125,161.31691548825304L207.25059169530869,161.56557134072338L207.97271919250488,164.51237438603874L208.69484668970108,162.0170211912586L209.41697418689728,160.9889678727325L210.13910168409348,157.30840479712742L210.86122918128967,165.24293327498134L211.58335667848587,164.5686738243339L212.30548417568207,167.26886195650337L213.02761167287827,163.64056725231194L213.74973917007446,161.66837624914461L214.47186666727066,164.51714222354778L215.19399416446686,163.0590562144516L215.91612166166308,159.64811731400323L216.63824915885925,160.97124303453276L217.36037665605542,164.86085418990865L218.08250415325165,163.27092434731392L218.80463165044785,161.87315190613865L219.52675914764404,159.84859090802286L220.24888664484024,163.57527413118441L220.97101414203644,162.92022999724753L221.69314163923264,163.951721578702L222.41526913642883,166.194320105107L223.13739663362503,162.40813630230318L223.85952413082123,161.2996775961577L224.58165162801743,163.83330052042876L225.30377912521362,162.91970917663153L226.02590662240982,165.6108909230268L226.74803411960602,162.70264977486505L227.47016161680222,160.49620382097538L228.1922891139984,166.17435954914106L228.9144166111946,165.56234451357628L229.6365441083908,161.73486344680637L230.358671605587,166.40348251135453L231.0807991027832,166.4094782999094L231.8029265999794,164.26986675742552L232.5250540971756,162.03061333904196L233.2471815943718,168.4883062656238L233.96930909156802,163.95387684450318L234.6914365887642,159.86890291204676L235.41356408596036,163.42409642018467L236.13569158315659,160.96141942616597L236.85781908035278,166.09135005844172L237.57994657754898,162.68942177808148L238.30207407474518,163.05134976306041L239.02420157194138,160.58151254415026L239.74632906913757,164.65092537283599L240.46845656633377,164.44492599911004L241.19058406352997,163.09043248083L241.91271156072617,167.13716208967918L242.63483905792236,164.54210773860407L243.35696655511856,166.63375720696268L244.07909405231476,163.20573284972122L244.80122154951096,163.3923602371204L245.52334904670715,167.00177413540345L246.24547654390335,162.53120663729484L246.96760404109955,162.39100850237057L247.68973153829575,160.76598043143434L248.41185903549194,160.58465440510204L249.13398653268814,161.4838575500931L249.85611402988434,164.79083134009764L250.57824152708054,159.49122751348332L251.30036902427673,164.66740955704802L252.02249652147296,165.48210849851495L252.74462401866913,164.0391178186548L253.4667515158653,163.91285057662998L254.18887901306152,167.14945853739346L254.91100651025772,163.01862698484553L255.63313400745392,164.536213573584L256.3552615046501,163.21701729640117L257.0773890018463,161.39906541322028L257.7995164990425,163.5525231623246L258.5216439962387,165.79770462023984L259.2437714934349,167.5752061022449" fill="none"></path></g></g></g></g></g></g><g transform="translate(41, 177)" clip-path="url(#clip_1)"><clipPath id="clip_1"><rect width="288" height="22"></rect></clipPath><g><g><line x1="0" y1="0" x2="0" y2="5" style="visibility: inherit;" fill="rgb(0, 0, 0)" stroke="rgb(204, 204, 204)" stroke-width="1px"></line><line x1="36.106374859809875" y1="0" x2="36.106374859809875" y2="5" style="visibility: inherit;" fill="rgb(0, 0, 0)" stroke="rgb(204, 204, 204)" stroke-width="1px"></line><line x1="72.21274971961975" y1="0" x2="72.21274971961975" y2="5" style="visibility: inherit;" fill="rgb(0, 0, 0)" stroke="rgb(204, 204, 204)" stroke-width="1px"></line><line x1="108.31912457942963" y1="0" x2="108.31912457942963" y2="5" style="visibility: inherit;" fill="rgb(0, 0, 0)" stroke="rgb(204, 204, 204)" stroke-width="1px"></line><line x1="144.4254994392395" y1="0" x2="144.4254994392395" y2="5" style="visibility: inherit;" fill="rgb(0, 0, 0)" stroke="rgb(204, 204, 204)" stroke-width="1px"></line><line x1="180.53187429904938" y1="0" x2="180.53187429904938" y2="5" style="visibility: inherit;" fill="rgb(0, 0, 0)" stroke="rgb(204, 204, 204)" stroke-width="1px"></line><line x1="216.63824915885925" y1="0" x2="216.63824915885925" y2="5" style="visibility: inherit;" fill="rgb(0, 0, 0)" stroke="rgb(204, 204, 204)" stroke-width="1px"></line><line x1="252.74462401866913" y1="0" x2="252.74462401866913" y2="5" style="visibility: inherit;" fill="rgb(0, 0, 0)" stroke="rgb(204, 204, 204)" stroke-width="1px"></line><line x1="288.850998878479" y1="0" x2="288.850998878479" y2="5" style="visibility: inherit;" fill="rgb(0, 0, 0)" stroke="rgb(204, 204, 204)" stroke-width="1px"></line></g><g transform="translate(0, 8)"><text style="text-anchor: middle; visibility: hidden; font-family: Roboto, sans-serif; font-size: 12px; font-weight: 200;" x="0" y="0" dx="0em" dy="0.95em" fill="rgb(50, 49, 63)" stroke="none" stroke-width="1px">-50</text><text style="text-anchor: middle; visibility: inherit; font-family: Roboto, sans-serif; font-size: 12px; font-weight: 200;" x="36.106374859809875" y="0" dx="0em" dy="0.95em" fill="rgb(50, 49, 63)" stroke="none" stroke-width="1px">0</text><text style="text-anchor: middle; visibility: inherit; font-family: Roboto, sans-serif; font-size: 12px; font-weight: 200;" x="72.21274971961975" y="0" dx="0em" dy="0.95em" fill="rgb(50, 49, 63)" stroke="none" stroke-width="1px">50</text><text style="text-anchor: middle; visibility: inherit; font-family: Roboto, sans-serif; font-size: 12px; font-weight: 200;" x="108.31912457942963" y="0" dx="0em" dy="0.95em" fill="rgb(50, 49, 63)" stroke="none" stroke-width="1px">100</text><text style="text-anchor: middle; visibility: inherit; font-family: Roboto, sans-serif; font-size: 12px; font-weight: 200;" x="144.4254994392395" y="0" dx="0em" dy="0.95em" fill="rgb(50, 49, 63)" stroke="none" stroke-width="1px">150</text><text style="text-anchor: middle; visibility: inherit; font-family: Roboto, sans-serif; font-size: 12px; font-weight: 200;" x="180.53187429904938" y="0" dx="0em" dy="0.95em" fill="rgb(50, 49, 63)" stroke="none" stroke-width="1px">200</text><text style="text-anchor: middle; visibility: inherit; font-family: Roboto, sans-serif; font-size: 12px; font-weight: 200;" x="216.63824915885925" y="0" dx="0em" dy="0.95em" fill="rgb(50, 49, 63)" stroke="none" stroke-width="1px">250</text><text style="text-anchor: middle; visibility: inherit; font-family: Roboto, sans-serif; font-size: 12px; font-weight: 200;" x="252.74462401866913" y="0" dx="0em" dy="0.95em" fill="rgb(50, 49, 63)" stroke="none" stroke-width="1px">300</text><text style="text-anchor: middle; visibility: hidden; font-family: Roboto, sans-serif; font-size: 12px; font-weight: 200;" x="288.850998878479" y="0" dx="0em" dy="0.95em" fill="rgb(50, 49, 63)" stroke="none" stroke-width="1px">350</text></g><line x1="0" y1="0" x2="288.850998878479" y2="0" fill="rgb(0, 0, 0)" stroke="rgb(204, 204, 204)" stroke-width="1px"></line></g></g></g></g></svg>