<svg viewBox="0 0 330 200" xmlns="http://www.w3.org/2000/svg"><g><g><g><g><g><line x1="61.91500186920166" y1="177.5999994277954" x2="56.91500186920166" y2="177.5999994277954" style="visibility: inherit;" fill="rgb(0, 0, 0)" stroke="rgb(204, 204, 204)" stroke-width="1px"></line><line x1="61.91500186920166" y1="157.86666615804035" x2="56.91500186920166" y2="157.86666615804035" style="visibility: inherit;" fill="rgb(0, 0, 0)" stroke="rgb(204, 204, 204)" stroke-width="1px"></line><line x1="61.91500186920166" y1="138.1333328882853" x2="56.91500186920166" y2="138.1333328882853" style="visibility: inherit;" fill="rgb(0, 0, 0)" stroke="rgb(204, 204, 204)" stroke-width="1px"></line><line x1="61.91500186920166" y1="118.39999961853027" x2="56.91500186920166" y2="118.39999961853027" style="visibility: inherit;" fill="rgb(0, 0, 0)" stroke="rgb(204, 204, 204)" stroke-width="1px"></line><line x1="61.91500186920166" y1="98.66666634877524" x2="56.91500186920166" y2="98.66666634877524" style="visibility: inherit;" fill="rgb(0, 0, 0)" stroke="rgb(204, 204, 204)" stroke-width="1px"></line><line x1="61.91500186920166" y1="78.93333307902017" x2="56.91500186920166" y2="78.93333307902017" style="visibility: inherit;" fill="rgb(0, 0, 0)" stroke="rgb(204, 204, 204)" stroke-width="1px"></line><line x1="61.91500186920166" y1="59.199999809265144" x2="56.91500186920166" y2="59.199999809265144" style="visibility: inherit;" fill="rgb(0, 0, 0)" stroke="rgb(204, 204, 204)" stroke-width="1px"></line><line x1="61.91500186920166" y1="39.466666539510086" x2="56.91500186920166" y2="39.466666539510086" style="visibility: inherit;" fill="rgb(0, 0, 0)" stroke="rgb(204, 204, 204)" stroke-width="1px"></line><line x1="61.91500186920166" y1="19.733333269755075" x2="56.91500186920166" y2="19.733333269755075" style="visibility: inherit;" fill="rgb(0, 0, 0)" stroke="rgb(204, 204, 204)" stroke-width="1px"></line><line x1="61.91500186920166" y1="0" x2="56.91500186920166" y2="0" style="visibility: inherit;" fill="rgb(0, 0, 0)" stroke="rgb(204, 204, 204)" stroke-width="1px"></line></g><g transform="translate(51.91500186920166, 0)"><text style="text-anchor: end; visibility: hidden; font-family: Roboto, sans-serif; font-size: 12px; font-weight: 200;" x="0" y="177.5999994277954" dx="0em" dy="0.3em" fill="rgb(50, 49, 63)" stroke="none" stroke-width="1px">-1e-5</text><text style="text-anchor: end; visibility: inherit; font-family: Roboto, sans-serif; font-size: 12px; font-weight: 200;" x="0" y="157.86666615804035" dx="0em" dy="0.3em" fill="rgb(50, 49, 63)" stroke="none" stroke-width="1px">0</text><text style="text-anchor: end; visibility: hidden; font-family: Roboto, sans-serif; font-size: 12px; font-weight: 200;" x="0" y="138.1333328882853" dx="0em" dy="0.3em" fill="rgb(50, 49, 63)" stroke="none" stroke-width="1px">1e-5</text><text style="text-anchor: end; visibility: inherit; font-family: Roboto, sans-serif; font-size: 12px; font-weight: 200;" x="0" y="118.39999961853027" dx="0em" dy="0.3em" fill="rgb(50, 49, 63)" stroke="none" stroke-width="1px">2e-5</text><text style="text-anchor: end; visibility: hidden; font-family: Roboto, sans-serif; font-size: 12px; font-weight: 200;" x="0" y="98.66666634877524" dx="0em" dy="0.3em" fill="rgb(50, 49, 63)" stroke="none" stroke-width="1px">3e-5</text><text style="text-anchor: end; visibility: inherit; font-family: Roboto, sans-serif; font-size: 12px; font-weight: 200;" x="0" y="78.93333307902017" dx="0em" dy="0.3em" fill="rgb(50, 49, 63)" stroke="none" stroke-width="1px">4e-5</text><text style="text-anchor: end; visibility: hidden; font-family: Roboto, sans-serif; font-size: 12px; font-weight: 200;" x="0" y="59.199999809265144" dx="0em" dy="0.3em" fill="rgb(50, 49, 63)" stroke="none" stroke-width="1px">5e-5</text><text style="text-anchor: end; visibility: inherit; font-family: Roboto, sans-serif; font-size: 12px; font-weight: 200;" x="0" y="39.466666539510086" dx="0em" dy="0.3em" fill="rgb(50, 49, 63)" stroke="none" stroke-width="1px">6e-5</text><text style="text-anchor: end; visibility: hidden; font-family: Roboto, sans-serif; font-size: 12px; font-weight: 200;" x="0" y="19.733333269755075" dx="0em" dy="0.3em" fill="rgb(50, 49, 63)" stroke="none" stroke-width="1px">7e-5</text><text style="text-anchor: end; visibility: hidden; font-family: Roboto, sans-serif; font-size: 12px; font-weight: 200;" x="0" y="0" dx="0em" dy="0.3em" fill="rgb(50, 49, 63)" stroke="none" stroke-width="1px">8e-5</text></g><line x1="61.91500186920166" y1="0" x2="61.91500186920166" y2="177.5999994277954" fill="rgb(0, 0, 0)" stroke="rgb(204, 204, 204)" stroke-width="1px"></line></g></g><g transform="translate(61, 0)" clip-path="url(#clip_0)"><clipPath id="clip_0"><rect width="268" height="177"></rect></clipPath><g><g><g><line x1="0" y1="0" x2="0" y2="177.5999994277954" fill="rgb(0, 0, 0)" stroke="rgb(60, 60, 60)" stroke-width="1px" opacity="0.25"></line><line x1="33.51062476634979" y1="0" x2="33.51062476634979" y2="177.5999994277954" fill="rgb(0, 0, 0)" stroke="rgb(60, 60, 60)" stroke-width="1px" opacity="0.25"></line><line x1="67.02124953269958" y1="0" x2="67.02124953269958" y2="177.5999994277954" fill="rgb(0, 0, 0)" stroke="rgb(60, 60, 60)" stroke-width="1px" opacity="0.25"></line><line x1="100.53187429904938" y1="0" x2="100.53187429904938" y2="177.5999994277954" fill="rgb(0, 0, 0)" stroke="rgb(60, 60, 60)" stroke-width="1px" opacity="0.25"></line><line x1="134.04249906539917" y1="0" x2="134.04249906539917" y2="177.5999994277954" fill="rgb(0, 0, 0)" stroke="rgb(60, 60, 60)" stroke-width="1px" opacity="0.25"></line><line x1="167.55312383174896" y1="0" x2="167.55312383174896" y2="177.5999994277954" fill="rgb(0, 0, 0)" stroke="rgb(60, 60, 60)" stroke-width="1px" opacity="0.25"></line><line x1="201.06374859809875" y1="0" x2="201.06374859809875" y2="177.5999994277954" fill="rgb(0, 0, 0)" stroke="rgb(60, 60, 60)" stroke-width="1px" opacity="0.25"></line><line x1="234.57437336444855" y1="0" x2="234.57437336444855" y2="177.5999994277954" fill="rgb(0, 0, 0)" stroke="rgb(60, 60, 60)" stroke-width="1px" opacity="0.25"></line><line x1="268.08499813079834" y1="0" x2="268.08499813079834" y2="177.5999994277954" fill="rgb(0, 0, 0)" stroke="rgb(60, 60, 60)" stroke-width="1px" opacity="0.25"></line></g><g><line x1="0" y1="177.5999994277954" x2="268.08499813079834" y2="177.5999994277954" fill="rgb(0, 0, 0)" stroke="rgb(60, 60, 60)" stroke-width="1px" opacity="0.25"></line><line x1="0" y1="157.86666615804035" x2="268.08499813079834" y2="157.86666615804035" fill="rgb(0, 0, 0)" stroke="rgb(60, 60, 60)" stroke-width="1px" opacity="0.25"></line><line x1="0" y1="138.1333328882853" x2="268.08499813079834" y2="138.1333328882853" fill="rgb(0, 0, 0)" stroke="rgb(60, 60, 60)" stroke-width="1px" opacity="0.25"></line><line x1="0" y1="118.39999961853027" x2="268.08499813079834" y2="118.39999961853027" fill="rgb(0, 0, 0)" stroke="rgb(60, 60, 60)" stroke-width="1px" opacity="0.25"></line><line x1="0" y1="98.66666634877524" x2="268.08499813079834" y2="98.66666634877524" fill="rgb(0, 0, 0)" stroke="rgb(60, 60, 60)" stroke-width="1px" opacity="0.25"></line><line x1="0" y1="78.93333307902017" x2="268.08499813079834" y2="78.93333307902017" fill="rgb(0, 0, 0)" stroke="rgb(60, 60, 60)" stroke-width="1px" opacity="0.25"></line><line x1="0" y1="59.199999809265144" x2="268.08499813079834" y2="59.199999809265144" fill="rgb(0, 0, 0)" stroke="rgb(60, 60, 60)" stroke-width="1px" opacity="0.25"></line><line x1="0" y1="39.466666539510086" x2="268.08499813079834" y2="39.466666539510086" fill="rgb(0, 0, 0)" stroke="rgb(60, 60, 60)" stroke-width="1px" opacity="0.25"></line><line x1="0" y1="19.733333269755075" x2="268.08499813079834" y2="19.733333269755075" fill="rgb(0, 0, 0)" stroke="rgb(60, 60, 60)" stroke-width="1px" opacity="0.25"></line><line x1="0" y1="0" x2="268.08499813079834" y2="0" fill="rgb(0, 0, 0)" stroke="rgb(60, 60, 60)" stroke-width="1px" opacity="0.25"></line></g></g></g><g><g><line x1="0" y1="157.86666615804035" x2="268.08499813079834" y2="157.86666615804035" fill="rgb(0, 0, 0)" stroke="rgb(153, 153, 153)" stroke-width="1.5px"></line></g></g><g><g><line x1="33.51062476634979" y1="0" x2="33.51062476634979" y2="177.5999994277954" fill="rgb(0, 0, 0)" stroke="rgb(153, 153, 153)" stroke-width="1.5px"></line></g></g><g><g><g><g><g><path style="fill: none;" stroke="rgb(255, 112, 67)" stroke-width="2px" d="M33.51062476634979,157.07733281802595L34.180837261676785,148.4933329416683L34.851049757003786,138.8582304387181L35.52126225233078,128.29568517886884L36.19147474765778,116.95115381460519L36.86168724298477,104.97402134739667L37.53189973831177,92.50369545791858L38.20211223363876,79.66112403955171L38.87232472896576,66.54535098408246L39.54253722429275,53.23381195153831L40.21274971961975,39.9302135599707L40.882962214946744,32.00945912448419L41.553174710273744,27.30136923127283L42.22338720560074,24.51662382485184L42.89359970092774,22.886211228839123L43.56381219625473,21.95035108599519L44.23402469158173,21.433756501806904L44.90423718690872,21.17147131789323L45.57444968223572,21.064579699042998L46.24466217756271,21.05376456169173L46.91487467288971,21.103427798986022L47.5850871682167,21.19221377433925L48.2552996635437,21.307304429499407L48.925512158870696,21.441003509547965L49.595724654197696,21.58868185262516L50.26593714952469,21.74755622155453L50.93614964485168,21.915945173075194L51.60636214017868,22.092839826005232L52.276574635505675,22.277623353541454L52.946787130832675,22.469914165091964L53.61699962615967,22.66947755770944L54.28721212148667,22.876161219796895L54.957424616813654,23.089868018999844L55.627637112140654,23.31052244502205L56.29784960746765,23.538079190797127L56.96806210279465,23.772493842061017L57.63827459812164,24.013728263596526L58.30848709344864,24.261748087745524L58.97869958877563,24.51652695062296L59.64891208410263,24.77803754750265L60.31912457942963,25.046246266029733L60.98933707475663,25.32112145244747L61.65954957008362,25.602632628170472L62.32976206541062,25.890750019723452L62.999974560737606,26.185444276702047L63.670187056064606,26.486680559391388L64.3403995513916,26.794420734492146L65.01061204671859,27.108636178867055L65.6808245420456,27.429298232320967L66.35103703737259,27.75636098295687L67.02124953269958,28.08979688363613L67.69146202802658,28.429566433451853L68.36167452335357,28.775628702392172L69.03188701868058,29.12794764613827L69.70209951400757,29.486484408631025L70.37231200933456,29.851204189923397L71.04252450466156,30.222063137423614L71.71273699998856,30.5990234532649L72.38294949531556,30.98203948610371L73.05316199064255,31.37107235882228L73.72337448596954,31.76607577252647L74.39358698129655,32.16701046156803L75.06379947662354,32.57382989393467L75.73401197195052,32.9864946641072L76.40422446727752,33.4049524129949L77.07443696260452,33.8291602388316L77.74464945793152,34.25906942793414L78.41486195325851,34.69463926578091L79.0850744485855,35.135816607879654L79.75528694391251,35.58255233806745L80.4254994392395,36.034799757179L81.0957119345665,36.492507873091625L81.76592442989349,36.955628861064184L82.4361369252205,37.42411105362858L83.10634942054749,37.89790334925839L83.77656191587448,38.37695211441441L84.44677441120147,38.86120793950543L85.11698690652847,39.35061246299754L85.78719940185547,39.84511631008073L86.45741189718247,40.34466401166757L87.12762439250946,40.84920218526011L87.79783688783645,41.35867295715832L88.46804938316346,41.87302150209655L89.13826187849045,42.39218908071411L89.80847437381745,42.91612321992698L90.47868686914444,43.44476372010551L91.14889936447145,43.97805436042634L91.81911185979844,44.51593556419419L92.48932435512542,45.05834861276831L93.15953685045241,45.605232430762996L93.82974934577942,46.15653027190134L94.49996184110641,46.7121793726378L95.1701743364334,47.27211910222172L95.8403868317604,47.836287238001304L96.5105993270874,48.404623473762L97.1808118224144,48.97706578157383L97.85102431774139,49.553551100477314L98.52123681306838,50.13401287811754L99.19144930839539,50.71839108203606L99.86166180372238,51.30662097697847L100.53187429904938,51.89863787759083L101.20208679437637,52.49437712845934L101.87229928970336,53.093774092134424L102.54251178503037,53.696761270367034L103.21272428035736,54.30327519158424L103.88293677568436,54.91324618548518L104.55314927101135,55.52660660568785L105.22336176633836,56.143292891739705L105.89357426166535,56.76323532001195L106.56378675699234,57.38636621212597L107.23399925231934,58.01261911685322L107.90421174764634,58.641922576099375L108.57442424297334,59.27420787080643L109.24463673830031,59.90940792533828L109.91484923362731,60.547450906956L110.58506172895432,61.18826500023696L111.25527422428131,61.83178414330413L111.9254867196083,62.477937111674095L112.5956992149353,63.12665245487749L113.2659117102623,63.77785571527552L113.9361242055893,64.43147924566144L114.60633670091629,65.08745087035396L115.27654919624328,65.74569856816508L115.94676169157029,66.40615041060262L116.61697418689728,67.06873165321416L117.28718668222427,67.73337447670471L117.95739917755127,68.40000085898428L118.62761167287826,69.06854101417537L119.29782416820527,69.73891861181639L119.96803666353226,70.411062009429L120.63824915885925,71.08489663416897L121.30846165418625,71.7603518981284L121.97867414951325,72.4373481180495L122.64888664484025,73.11581738293205L123.31909914016724,73.79567874408494L123.98931163549423,74.47686353124797L124.65952413082124,75.15929321175196L125.32973662614823,75.84289482179408L125.99994912147521,76.52759299573532L126.6701616168022,77.21331092683515L127.34037411212921,77.89997381526989L128.0105866074562,78.58750806536605L128.6807991027832,79.27584080394028L129.3510115981102,79.96489097656946L130.02122409343718,80.65458697797632L130.6914365887642,81.34484851448138L131.3616490840912,82.03560443725354L132.03186157941818,82.72677759805896L132.70207407474518,83.41829299217811L133.37228657007216,84.11007402942197L134.04249906539917,84.80204316831995L134.71271156072615,85.49412803978836L135.38292405605316,86.18625076344179L136.05313655138013,86.87833589526973L136.72334904670714,87.57030658150863L137.39356154203415,88.26208512254317L138.06377403736116,88.95359905440276L138.73398653268814,89.64477331134785L139.40419902801514,90.33552839499954L140.07441152334212,91.02579076212918L140.74462401866913,91.71548469944227L141.4148365139961,92.40453606318292L142.08504900932311,93.09286590816235L142.75526150465012,93.780401023066L143.42547399997713,94.4670658937479L144.0956864953041,95.15278362436324L144.76589899063111,95.8374793616258L145.4361114859581,96.52107947778461L146.1063239812851,97.20350964462085L146.77653647661208,97.88469224205699L147.4467489719391,98.56455485384515L148.1169614672661,99.24302244287941L148.7871739625931,99.92001983532798L149.45738645792008,100.59547177532346L150.1275989532471,101.26930726514414L150.79781144857407,101.94144924722177L151.46802394390104,102.61182707860303L152.13823643922805,103.28036535036972L152.80844893455503,103.94699010139169L153.47866142988204,104.61162967500043L154.14887392520905,105.27421092562668L154.81908642053605,105.93466125014952L155.48929891586303,106.59290837091713L156.15951141119004,107.24887876977016L156.82972390651702,107.90250105582267L157.49993640184402,108.55370511455277L158.170148897171,109.20241728989014L158.840361392498,109.84856754399115L159.51057388782502,110.49208657415937L160.18078638315203,111.13290121141968L160.850998878479,111.77094171018568L161.521211373806,112.40613894311512L162.191423869133,113.03842271802348L162.86163636446,113.66772507539861L163.53184885978698,114.29397508796495L164.20206135511398,114.91710435515587L164.872273850441,115.53704455664098L165.542486345768,116.15372885602076L166.21269884109498,116.76708843567614L166.88291133642198,117.37705759662337L167.55312383174896,117.98356820369283L168.22333632707594,118.58655353158139L168.89354882240295,119.18594770090584L169.56376131772993,119.78168533983488L170.23397381305693,120.3736999452794L170.90418630838394,120.96192864276254L171.57439880371095,121.54630499181879L172.24461129903793,122.12676615554554L172.91482379436493,122.70324858759977L173.5850362896919,123.27568831597435L174.25524878501892,123.84402254905257L174.9254612803459,124.40818920345204L175.5956737756729,124.96812662073093L176.2658862709999,125.5237733974117L176.93609876632692,126.07506828299547L177.6063112616539,126.62195011877049L178.2765237569809,127.16435995478078L178.9467362523079,127.70223801264034L179.6169487476349,128.23552617058863L180.28716124296187,128.76416442926242L180.95737373828888,129.28809597010385L181.6275862336159,129.8072630114602L182.2977987289429,130.32160862961095L182.96801122426987,130.8310764155948L183.63822371959688,131.33561026930604L184.30843621492386,131.8351549938468L184.97864871025084,132.32965593424385L185.64886120557784,132.8190587606788L186.31907370090482,133.30330933842612L186.98928619623183,133.782355085605L187.65949869155884,134.256143634147L188.32971118688585,134.72462274427107L188.99992368221282,135.18774168895752L189.67013617753983,135.64544849516008L190.3403486728668,136.09769403168892L191.01056116819382,136.5444280008902L191.6807736635208,136.985601558915L192.3509861588478,137.42116601630303L193.0211986541748,137.85107421201604L193.69141114950182,138.27527918417448L194.3616236448288,138.69373409039414L195.0318361401558,139.10639287788243L195.70204863548278,139.5132106854962L196.3722611308098,139.91414193129305L197.04247362613677,140.30914347242887L197.71268612146378,140.6981721937297L198.38289861679078,141.08118499662353L199.0531111121178,141.45814022828856L199.72332360744477,141.82899566756416L200.39353610277178,142.19371162386423L201.06374859809875,142.55224777126415L201.73396109342573,142.9045648384249L202.40417358875274,143.25062418675898L203.07438608407972,143.59038791627702L203.74459857940673,143.92381857014848L204.41481107473373,144.2508793163854L205.08502357006074,144.5715347747471L205.75523606538772,144.8857497181468L206.42544856071473,145.19348972928438L207.0956610560417,145.494720876732L207.7658735513687,145.7894102384794L208.4360860466957,146.07752549816706L209.1062985420227,146.35903506177303L209.7765110373497,146.6339081276252L210.4467235326767,146.90211436946134L211.1169360280037,147.16362446415962L211.7871485233307,147.4184096904825L212.45736101865768,147.66644204727018L213.1275735139847,147.90769468330407L213.79778600931166,148.14214071943576L214.46799850463867,148.3697546955479L215.13821099996568,148.5905116439947L215.8084234952927,148.8043872515602L216.47863599061967,149.01135795663404L217.14884848594667,149.21140136646324L217.81906098127365,149.40449543066237L218.48927347660063,149.59061866321358L219.15948597192764,149.7697509935613L219.82969846725462,149.94187284148018L220.49991096258162,150.10696510041655L221.17012345790863,150.26500984538782L221.84033595323564,150.41598968088056L222.51054844856262,150.55988788800994L223.18076094388962,150.69668887176283L223.8509734392166,150.82637771144914L224.5211859345436,150.94894007044613L225.1913984298706,151.06436232151884L225.8616109251976,151.172632160433L226.5318234205246,151.27373735886033L227.2020359158516,151.36766716980503L227.8722484111786,151.4544110171763L228.5424609065056,151.53395950426827L229.21267340183257,151.6063039420057L229.88288589715958,151.6714364248392L230.55309839248656,151.72934969680847L231.22331088781357,151.7800376096011L231.89352338314058,151.82349432054622L232.56373587846758,151.85971524719952L233.23394837379456,151.88869638377915L233.90416086912157,151.91043442944786L234.57437336444855,151.9249270447561L235.24458585977553,151.933622613941L235.91479835510253,151.93883995545195L236.5850108504295,151.9419703603585L237.25522334575652,151.94384860330246L237.92543584108353,151.94497554906886L238.59564833641053,151.94565171652866L239.2658608317375,151.94605741700454L239.93607332706452,151.94630083729007L240.6062858223915,151.9464468894614" fill="none"></path></g></g></g></g><g opacity="0.2"><g><g><g><path style="fill: none;" stroke="rgb(255, 112, 67)" stroke-width="2px" d="M33.51062476634979,157.07733281802595L34.180837261676785,143.34293301585373L34.851049757003786,129.60853203588587L35.52126225233078,115.87413195328614L36.19147474765778,102.1397336654226L36.86168724298477,88.40533537755907L37.53189973831177,74.6709299107507L38.20211223363876,60.93653162288716L38.87232472896576,47.20213333502364L39.54253722429275,33.46772786821527L40.21274971961975,20.09547863088596L40.882962214946744,20.171431867111878L41.553174710273744,20.254607121829576L42.22338720560074,20.34496132137016L42.89359970092774,20.44250882362324L43.56381219625473,20.547220912809536L44.23402469158173,20.65908323103942L44.90423718690872,20.77811013620252L45.57444968223572,20.904258554629887L46.24466217756271,21.037542844211213L46.91487467288971,21.1779199312775L47.5850871682167,21.325389815828775L48.2552996635437,21.479938139975406L48.925512158870696,21.64155054582774L49.595724654197696,21.810198317606485L50.26593714952469,21.98586709742198L50.93614964485168,22.16852816949495L51.60636214017868,22.358181533825395L52.276574635505675,22.554798474633994L52.946787130832675,22.75835027614151L53.61699962615967,22.968822580458248L54.28721212148667,23.186186671804947L54.957424616813654,23.410428192291963L55.627637112140654,23.64150406825032L56.29784960746765,23.879414299680057L56.96806210279465,24.12411581291223L57.63827459812164,24.375579892167533L58.30848709344864,24.63377782166667L58.97869958877563,24.898695243520024L59.64891208410263,25.17030344194828L60.31912457942963,25.44855934328253L60.98933707475663,25.73343423174345L61.65954957008362,26.024899391551735L62.32976206541062,26.322926106928154L62.999974560737606,26.62748566209336L63.670187056064606,26.938534983378442L64.3403995513916,27.256030997114458L65.01061204671859,27.579959345411748L65.6808245420456,27.910291312491054L66.35103703737259,28.24695510890411L67.02124953269958,28.58995073465093L67.69146202802658,28.93922075817294L68.36167452335357,29.294722105801203L69.03188701868058,29.65642606175642L69.70209951400757,30.02428955236964L70.37231200933456,30.398283861861607L71.04252450466156,30.77835155867372L71.71273699998856,31.16446392702667L72.38294949531556,31.55656353536189L73.05316199064255,31.954621667900085L73.72337448596954,32.35858089308268L74.39358698129655,32.768412495130384L75.06379947662354,33.184059042484606L75.73401197195052,33.605491819366044L76.40422446727752,34.03263903632649L77.07443696260452,34.46547197758665L77.74464945793152,34.90393321158792L78.41486195325851,35.347994022551056L79.0850744485855,35.79758262102777L79.75528694391251,36.25265593334917L80.4254994392395,36.71317088584628L81.0957119345665,37.17907004696055L81.76592442989349,37.650310343023044L82.4361369252205,38.12683434247514L83.10634942054749,38.60859179270312L83.77656191587448,39.0955252621484L84.44677441120147,39.58759167714201L85.11698690652847,40.08471924823575L85.78719940185547,40.58687208070548L86.45741189718247,41.09398556404782L87.12762439250946,41.606009445648986L87.79783688783645,42.122879115005595L88.46804938316346,42.64454431950388L89.13826187849045,43.17094044864044L89.80847437381745,43.70202442874631L90.47868686914444,44.2377244703733L91.14889936447145,44.77799032090763L91.81911185979844,45.3227573698459L92.48932435512542,45.871968185629505L93.15953685045241,46.42555815775507L93.82974934577942,46.98347703360882L94.49996184110641,47.54565302374253L95.1701743364334,48.11202869659761L95.8403868317604,48.68253944167067L96.5105993270874,49.25712782740312L97.1808118224144,49.83572924329154L97.85102431774139,50.418279078832526L98.52123681306838,51.00470554457788L99.19144930839539,51.594958387913806L99.86166180372238,52.18896581939211L100.53187429904938,52.78666322850935L101.20208679437637,53.38798600476213L101.87229928970336,53.99286953764707L102.54251178503037,54.60124203771591L103.21272428035736,55.213046073410084L103.88293677568436,55.82820267633654L104.55314927101135,56.446647235991854L105.22336176633836,57.068322320817465L105.89357426166535,57.69314896242031L106.56378675699234,58.321062550297L107.23399925231934,58.95199847394411L107.90421174764634,59.585877764968586L108.57442424297334,60.22263581286705L109.24463673830031,60.862208007136054L109.91484923362731,61.50451537938258L110.58506172895432,62.14948614015838L111.25527422428131,62.79706285790488L111.9254867196083,63.447166564229036L112.5956992149353,64.09972546968262L113.2659117102623,64.75466060587257L113.9361242055893,65.4119145412403L114.60633670091629,66.07140830739276L115.27654919624328,66.73307011488171L115.94676169157029,67.39682817425897L116.61697418689728,68.06260351713145L117.28718668222427,68.73033871194055L117.95739917755127,69.3999404324036L118.62761167287826,70.07135124696202L119.29782416820527,70.74448500827792L119.96803666353226,71.41927710584791L120.63824915885925,72.09564857127894L121.30846165418625,72.77353479406757L121.97867414951325,73.45284244793115L122.64888664484025,74.13352128025588L123.31909914016724,74.81547078581426L123.98931163549423,75.49864071199252L124.65952413082124,76.18293773250798L125.32973662614823,76.86829723685725L125.99994912147521,77.55464025664722L126.6701616168022,78.24188782348487L127.34037411212921,78.929968147922L128.0105866074562,79.61880944051032L128.6807991027832,80.30833991180164L129.3510115981102,80.99846623551328L130.02122409343718,81.68913098008662L130.6914365887642,82.38024081923896L131.3616490840912,83.07173832141177L132.03186157941818,83.76353733926712L132.70207407474518,84.4555660833568L133.37228657007216,85.14774558528777L134.04249906539917,85.83999687666694L134.71271156072615,86.53225534699098L135.38292405605316,87.22443484892194L136.05313655138013,87.91646359301163L136.72334904670714,88.60826261086699L137.39356154203415,89.29975293409494L138.06377403736116,89.99086995219213L138.73398653268814,90.68153469676548L139.40419902801514,91.3716610204771L140.07441152334212,92.06118431282361L140.74462401866913,92.75002560541195L141.4148365139961,93.43811310879387L142.08504900932311,94.12536067563153L142.75526150465012,94.8117036954215L143.42547399997713,95.49706319977074L144.0956864953041,96.18136022028622L144.76589899063111,96.86452296751966L145.4361114859581,97.54647965202287L146.1063239812851,98.2271548948752L146.77653647661208,98.90646613821117L147.4467489719391,99.5843487715274L148.1169614672661,100.26072382643083L148.7871739625931,100.93551592400082L149.45738645792008,101.60864968531672L150.1275989532471,102.28006049987515L150.79781144857407,102.9496622203382L151.46802394390104,103.6173938256749L152.13823643922805,104.28317275801977L152.80844893455503,104.9469272279246L153.47866142988204,105.60858903541357L154.14887392520905,106.26808280156604L154.81908642053605,106.92533673693376L155.48929891586303,107.58027905206853L156.15951141119004,108.23283436804971L156.82972390651702,108.88293448490144L157.49993640184402,109.53051120264794L158.170148897171,110.17548555289616L158.840361392498,110.8177929251427L159.51057388782502,111.4573651194117L160.18078638315203,112.09412316731016L160.850998878479,112.72800245833463L161.521211373806,113.35893479250934L162.191423869133,113.98684838038601L162.86163636446,114.61167861146126L163.53184885978698,115.23335010681448L164.20206135511398,115.85179825594221L164.872273850441,116.46695485886866L165.542486345768,117.07875530509043L166.21269884109498,117.68712780515928L166.88291133642198,118.2920113380442L167.55312383174896,118.89333411429698L168.22333632707594,119.49103152341421L168.89354882240295,120.08503895489252L169.56376131772993,120.67529179822844L170.23397381305693,121.26172185344622L170.90418630838394,121.8442716889872L171.57439880371095,122.42286951540324L172.24461129903793,122.99745790113565L172.91482379436493,123.56797223568113L173.5850362896919,124.13434790853621L174.25524878501892,124.69652389866992L174.9254612803459,125.25443918505127L175.5956737756729,125.80803274664922L176.2658862709999,126.35724356243287L176.93609876632692,126.90201061137113L177.6063112616539,127.44227287243302L178.2765237569809,127.97797470879621L178.9467362523079,128.50905509942967L179.6169487476349,129.03545840751107L180.28716124296187,129.55712181727313L180.95737373828888,130.07399328136594L181.6275862336159,130.58601357349474L182.2977987289429,131.09312705683706L182.96801122426987,131.5952780945706L183.63822371959688,132.09241104987296L184.30843621492386,132.58447208065795L184.97864871025084,133.07140734483943L185.64886120557784,133.55316300033118L186.31907370090482,134.0296852050471L186.98928619623183,134.50092370637338L187.65949869155884,134.96682645696004L188.32971118688585,135.42734140945717L188.99992368221282,135.88242010598717L189.67013617753983,136.3320087044639L190.3403486728668,136.7760623364822L191.01056116819382,137.2145289546921L191.6807736635208,137.64736189595226L192.3509861588478,138.0745127023851L193.0211986541748,138.49593650558555L193.69141114950182,138.91158664241215L194.3616236448288,139.32141644972367L195.0318361401558,139.72538105911485L195.70204863548278,140.12343739691687L196.3722611308098,140.5155387999883L197.04247362613677,140.90164578413263L197.71268612146378,141.28171527568094L198.38289861679078,141.65570420096427L199.0531111121178,142.02357307578612L199.72332360744477,142.38527882647753L200.39353610277178,142.7407855583144L201.06374859809875,143.090051992364L201.73396109342573,143.433040439166L202.40417358875274,143.76971320926012L203.07438608407972,144.10003351055408L203.74459857940673,144.42396455095567L204.41481107473373,144.74147043574084L205.08502357006074,145.0525179622897L205.75523606538772,145.35707213324628L206.42544856071473,145.65509974599078L207.0956610560417,145.9465675979034L207.7658735513687,146.23144428110055L208.4360860466957,146.50969838769856L209.1062985420227,146.781299407182L209.7765110373497,147.04621772640346L210.4467235326767,147.30442373221553L211.1169360280037,147.55588960620705L211.7871485233307,147.80058752996678L212.45736101865768,148.03849058245171L213.1275735139847,148.26957363735488L213.79778600931166,148.49380977363327L214.46799850463867,148.7111756597162L215.13821099996568,148.9216470666648L215.8084234952927,149.12520066290853L216.47863599061967,149.32181401424472L217.14884848594667,149.51146648120707L217.81906098127365,149.69413652696107L218.48927347660063,149.86980351204036L219.15948597192764,150.0384494890829L219.82969846725462,150.2000556133585L220.49991096258162,150.35460348882108L221.17012345790863,150.50207696284477L221.84033595323564,150.6424594341197L222.51054844856262,150.775735198704L223.18076094388962,150.90189034739217L223.8509734392166,151.02091097097855L224.5211859345436,151.13278360894162L225.1913984298706,151.2374956981279L225.8616109251976,151.33503691880426L226.5318234205246,151.4253951565013L227.2020359158516,151.50856188622205L227.8722484111786,151.5845267882333L228.5424609065056,151.65328223490616L229.21267340183257,151.71482059861182L229.88288589715958,151.76913514908946L230.55309839248656,151.81621960476235L231.22331088781357,151.85606947879003L231.89352338314058,151.88867938696384L232.56373587846758,151.9140466371795L233.23394837379456,151.9321680886486L233.90416086912157,151.94304149795096L234.57437336444855,151.9466659677184L235.24458585977553,151.9466659677184L235.91479835510253,151.9466659677184L236.5850108504295,151.9466659677184L237.25522334575652,151.9466659677184L237.92543584108353,151.9466659677184L238.59564833641053,151.9466659677184L239.2658608317375,151.9466659677184L239.93607332706452,151.9466659677184L240.6062858223915,151.9466659677184" fill="none"></path></g></g></g></g></g></g><g transform="translate(61, 177)" clip-path="url(#clip_1)"><clipPath id="clip_1"><rect width="268" height="22"></rect></clipPath><g><g><line x1="0" y1="0" x2="0" y2="5" style="visibility: inherit;" fill="rgb(0, 0, 0)" stroke="rgb(204, 204, 204)" stroke-width="1px"></line><line x1="33.51062476634979" y1="0" x2="33.51062476634979" y2="5" style="visibility: inherit;" fill="rgb(0, 0, 0)" stroke="rgb(204, 204, 204)" stroke-width="1px"></line><line x1="67.02124953269958" y1="0" x2="67.02124953269958" y2="5" style="visibility: inherit;" fill="rgb(0, 0, 0)" stroke="rgb(204, 204, 204)" stroke-width="1px"></line><line x1="100.53187429904938" y1="0" x2="100.53187429904938" y2="5" style="visibility: inherit;" fill="rgb(0, 0, 0)" stroke="rgb(204, 204, 204)" stroke-width="1px"></line><line x1="134.04249906539917" y1="0" x2="134.04249906539917" y2="5" style="visibility: inherit;" fill="rgb(0, 0, 0)" stroke="rgb(204, 204, 204)" stroke-width="1px"></line><line x1="167.55312383174896" y1="0" x2="167.55312383174896" y2="5" style="visibility: inherit;" fill="rgb(0, 0, 0)" stroke="rgb(204, 204, 204)" stroke-width="1px"></line><line x1="201.06374859809875" y1="0" x2="201.06374859809875" y2="5" style="visibility: inherit;" fill="rgb(0, 0, 0)" stroke="rgb(204, 204, 204)" stroke-width="1px"></line><line x1="234.57437336444855" y1="0" x2="234.57437336444855" y2="5" style="visibility: inherit;" fill="rgb(0, 0, 0)" stroke="rgb(204, 204, 204)" stroke-width="1px"></line><line x1="268.08499813079834" y1="0" x2="268.08499813079834" y2="5" style="visibility: inherit;" fill="rgb(0, 0, 0)" stroke="rgb(204, 204, 204)" stroke-width="1px"></line></g><g transform="translate(0, 8)"><text style="text-anchor: middle; visibility: hidden; font-family: Roboto, sans-serif; font-size: 12px; font-weight: 200;" x="0" y="0" dx="0em" dy="0.95em" fill="rgb(50, 49, 63)" stroke="none" stroke-width="1px">-50</text><text style="text-anchor: middle; visibility: inherit; font-family: Roboto, sans-serif; font-size: 12px; font-weight: 200;" x="33.51062476634979" y="0" dx="0em" dy="0.95em" fill="rgb(50, 49, 63)" stroke="none" stroke-width="1px">0</text><text style="text-anchor: middle; visibility: inherit; font-family: Roboto, sans-serif; font-size: 12px; font-weight: 200;" x="67.02124953269958" y="0" dx="0em" dy="0.95em" fill="rgb(50, 49, 63)" stroke="none" stroke-width="1px">50</text><text style="text-anchor: middle; visibility: inherit; font-family: Roboto, sans-serif; font-size: 12px; font-weight: 200;" x="100.53187429904938" y="0" dx="0em" dy="0.95em" fill="rgb(50, 49, 63)" stroke="none" stroke-width="1px">100</text><text style="text-anchor: middle; visibility: inherit; font-family: Roboto, sans-serif; font-size: 12px; font-weight: 200;" x="134.04249906539917" y="0" dx="0em" dy="0.95em" fill="rgb(50, 49, 63)" stroke="none" stroke-width="1px">150</text><text style="text-anchor: middle; visibility: inherit; font-family: Roboto, sans-serif; font-size: 12px; font-weight: 200;" x="167.55312383174896" y="0" dx="0em" dy="0.95em" fill="rgb(50, 49, 63)" stroke="none" stroke-width="1px">200</text><text style="text-anchor: middle; visibility: inherit; font-family: Roboto, sans-serif; font-size: 12px; font-weight: 200;" x="201.06374859809875" y="0" dx="0em" dy="0.95em" fill="rgb(50, 49, 63)" stroke="none" stroke-width="1px">250</text><text style="text-anchor: middle; visibility: inherit; font-family: Roboto, sans-serif; font-size: 12px; font-weight: 200;" x="234.57437336444855" y="0" dx="0em" dy="0.95em" fill="rgb(50, 49, 63)" stroke="none" stroke-width="1px">300</text><text style="text-anchor: middle; visibility: hidden; font-family: Roboto, sans-serif; font-size: 12px; font-weight: 200;" x="268.08499813079834" y="0" dx="0em" dy="0.95em" fill="rgb(50, 49, 63)" stroke="none" stroke-width="1px">350</text></g><line x1="0" y1="0" x2="268.08499813079834" y2="0" fill="rgb(0, 0, 0)" stroke="rgb(204, 204, 204)" stroke-width="1px"></line></g></g></g></g></svg>