<svg viewBox="0 0 330 200" xmlns="http://www.w3.org/2000/svg"><g><g><g><g><g><line x1="61.91500186920166" y1="176.89999961853027" x2="56.91500186920166" y2="176.89999961853027" style="visibility: inherit;" fill="rgb(0, 0, 0)" stroke="rgb(204, 204, 204)" stroke-width="1px"></line><line x1="61.91500186920166" y1="157.24444410536023" x2="56.91500186920166" y2="157.24444410536023" style="visibility: inherit;" fill="rgb(0, 0, 0)" stroke="rgb(204, 204, 204)" stroke-width="1px"></line><line x1="61.91500186920166" y1="137.58888859219022" x2="56.91500186920166" y2="137.58888859219022" style="visibility: inherit;" fill="rgb(0, 0, 0)" stroke="rgb(204, 204, 204)" stroke-width="1px"></line><line x1="61.91500186920166" y1="117.9333330790202" x2="56.91500186920166" y2="117.9333330790202" style="visibility: inherit;" fill="rgb(0, 0, 0)" stroke="rgb(204, 204, 204)" stroke-width="1px"></line><line x1="61.91500186920166" y1="98.27777756585016" x2="56.91500186920166" y2="98.27777756585016" style="visibility: inherit;" fill="rgb(0, 0, 0)" stroke="rgb(204, 204, 204)" stroke-width="1px"></line><line x1="61.91500186920166" y1="78.62222205268012" x2="56.91500186920166" y2="78.62222205268012" style="visibility: inherit;" fill="rgb(0, 0, 0)" stroke="rgb(204, 204, 204)" stroke-width="1px"></line><line x1="61.91500186920166" y1="58.96666653951008" x2="56.91500186920166" y2="58.96666653951008" style="visibility: inherit;" fill="rgb(0, 0, 0)" stroke="rgb(204, 204, 204)" stroke-width="1px"></line><line x1="61.91500186920166" y1="39.31111102634008" x2="56.91500186920166" y2="39.31111102634008" style="visibility: inherit;" fill="rgb(0, 0, 0)" stroke="rgb(204, 204, 204)" stroke-width="1px"></line><line x1="61.91500186920166" y1="19.655555513170018" x2="56.91500186920166" y2="19.655555513170018" style="visibility: inherit;" fill="rgb(0, 0, 0)" stroke="rgb(204, 204, 204)" stroke-width="1px"></line><line x1="61.91500186920166" y1="0" x2="56.91500186920166" y2="0" style="visibility: inherit;" fill="rgb(0, 0, 0)" stroke="rgb(204, 204, 204)" stroke-width="1px"></line></g><g transform="translate(51.91500186920166, 0)"><text style="text-anchor: end; visibility: hidden; font-family: Roboto, sans-serif; font-size: 12px; font-weight: 200;" x="0" y="176.89999961853027" dx="0em" dy="0.3em" fill="rgb(33, 33, 33)" stroke="none" stroke-width="1px">-5e-3</text><text style="text-anchor: end; visibility: inherit; font-family: Roboto, sans-serif; font-size: 12px; font-weight: 200;" x="0" y="157.24444410536023" dx="0em" dy="0.3em" fill="rgb(33, 33, 33)" stroke="none" stroke-width="1px">0</text><text style="text-anchor: end; visibility: hidden; font-family: Roboto, sans-serif; font-size: 12px; font-weight: 200;" x="0" y="137.58888859219022" dx="0em" dy="0.3em" fill="rgb(33, 33, 33)" stroke="none" stroke-width="1px">5e-3</text><text style="text-anchor: end; visibility: inherit; font-family: Roboto, sans-serif; font-size: 12px; font-weight: 200;" x="0" y="117.9333330790202" dx="0em" dy="0.3em" fill="rgb(33, 33, 33)" stroke="none" stroke-width="1px">0.01</text><text style="text-anchor: end; visibility: hidden; font-family: Roboto, sans-serif; font-size: 12px; font-weight: 200;" x="0" y="98.27777756585016" dx="0em" dy="0.3em" fill="rgb(33, 33, 33)" stroke="none" stroke-width="1px">0.015</text><text style="text-anchor: end; visibility: inherit; font-family: Roboto, sans-serif; font-size: 12px; font-weight: 200;" x="0" y="78.62222205268012" dx="0em" dy="0.3em" fill="rgb(33, 33, 33)" stroke="none" stroke-width="1px">0.02</text><text style="text-anchor: end; visibility: hidden; font-family: Roboto, sans-serif; font-size: 12px; font-weight: 200;" x="0" y="58.96666653951008" dx="0em" dy="0.3em" fill="rgb(33, 33, 33)" stroke="none" stroke-width="1px">0.025</text><text style="text-anchor: end; visibility: inherit; font-family: Roboto, sans-serif; font-size: 12px; font-weight: 200;" x="0" y="39.31111102634008" dx="0em" dy="0.3em" fill="rgb(33, 33, 33)" stroke="none" stroke-width="1px">0.03</text><text style="text-anchor: end; visibility: hidden; font-family: Roboto, sans-serif; font-size: 12px; font-weight: 200;" x="0" y="19.655555513170018" dx="0em" dy="0.3em" fill="rgb(33, 33, 33)" stroke="none" stroke-width="1px">0.035</text><text style="text-anchor: end; visibility: hidden; font-family: Roboto, sans-serif; font-size: 12px; font-weight: 200;" x="0" y="0" dx="0em" dy="0.3em" fill="rgb(33, 33, 33)" stroke="none" stroke-width="1px">0.04</text></g><line x1="61.91500186920166" y1="0" x2="61.91500186920166" y2="176.89999961853027" fill="rgb(0, 0, 0)" stroke="rgb(204, 204, 204)" stroke-width="1px"></line></g></g><g transform="translate(61, 0)" clip-path="url(#clip_0)"><clipPath id="clip_0"><rect width="268" height="176"></rect></clipPath><g><g><g><line x1="0" y1="0" x2="0" y2="176.89999961853027" fill="rgb(0, 0, 0)" stroke="rgb(66, 66, 66)" stroke-width="1px" opacity="0.25"></line><line x1="22.34041651089986" y1="0" x2="22.34041651089986" y2="176.89999961853027" fill="rgb(0, 0, 0)" stroke="rgb(66, 66, 66)" stroke-width="1px" opacity="0.25"></line><line x1="44.68083302179972" y1="0" x2="44.68083302179972" y2="176.89999961853027" fill="rgb(0, 0, 0)" stroke="rgb(66, 66, 66)" stroke-width="1px" opacity="0.25"></line><line x1="67.02124953269958" y1="0" x2="67.02124953269958" y2="176.89999961853027" fill="rgb(0, 0, 0)" stroke="rgb(66, 66, 66)" stroke-width="1px" opacity="0.25"></line><line x1="89.36166604359944" y1="0" x2="89.36166604359944" y2="176.89999961853027" fill="rgb(0, 0, 0)" stroke="rgb(66, 66, 66)" stroke-width="1px" opacity="0.25"></line><line x1="111.70208255449931" y1="0" x2="111.70208255449931" y2="176.89999961853027" fill="rgb(0, 0, 0)" stroke="rgb(66, 66, 66)" stroke-width="1px" opacity="0.25"></line><line x1="134.04249906539917" y1="0" x2="134.04249906539917" y2="176.89999961853027" fill="rgb(0, 0, 0)" stroke="rgb(66, 66, 66)" stroke-width="1px" opacity="0.25"></line><line x1="156.38291557629904" y1="0" x2="156.38291557629904" y2="176.89999961853027" fill="rgb(0, 0, 0)" stroke="rgb(66, 66, 66)" stroke-width="1px" opacity="0.25"></line><line x1="178.72333208719888" y1="0" x2="178.72333208719888" y2="176.89999961853027" fill="rgb(0, 0, 0)" stroke="rgb(66, 66, 66)" stroke-width="1px" opacity="0.25"></line><line x1="201.06374859809875" y1="0" x2="201.06374859809875" y2="176.89999961853027" fill="rgb(0, 0, 0)" stroke="rgb(66, 66, 66)" stroke-width="1px" opacity="0.25"></line><line x1="223.40416510899863" y1="0" x2="223.40416510899863" y2="176.89999961853027" fill="rgb(0, 0, 0)" stroke="rgb(66, 66, 66)" stroke-width="1px" opacity="0.25"></line><line x1="245.74458161989847" y1="0" x2="245.74458161989847" y2="176.89999961853027" fill="rgb(0, 0, 0)" stroke="rgb(66, 66, 66)" stroke-width="1px" opacity="0.25"></line><line x1="268.08499813079834" y1="0" x2="268.08499813079834" y2="176.89999961853027" fill="rgb(0, 0, 0)" stroke="rgb(66, 66, 66)" stroke-width="1px" opacity="0.25"></line></g><g><line x1="0" y1="176.89999961853027" x2="268.08499813079834" y2="176.89999961853027" fill="rgb(0, 0, 0)" stroke="rgb(66, 66, 66)" stroke-width="1px" opacity="0.25"></line><line x1="0" y1="157.24444410536023" x2="268.08499813079834" y2="157.24444410536023" fill="rgb(0, 0, 0)" stroke="rgb(66, 66, 66)" stroke-width="1px" opacity="0.25"></line><line x1="0" y1="137.58888859219022" x2="268.08499813079834" y2="137.58888859219022" fill="rgb(0, 0, 0)" stroke="rgb(66, 66, 66)" stroke-width="1px" opacity="0.25"></line><line x1="0" y1="117.9333330790202" x2="268.08499813079834" y2="117.9333330790202" fill="rgb(0, 0, 0)" stroke="rgb(66, 66, 66)" stroke-width="1px" opacity="0.25"></line><line x1="0" y1="98.27777756585016" x2="268.08499813079834" y2="98.27777756585016" fill="rgb(0, 0, 0)" stroke="rgb(66, 66, 66)" stroke-width="1px" opacity="0.25"></line><line x1="0" y1="78.62222205268012" x2="268.08499813079834" y2="78.62222205268012" fill="rgb(0, 0, 0)" stroke="rgb(66, 66, 66)" stroke-width="1px" opacity="0.25"></line><line x1="0" y1="58.96666653951008" x2="268.08499813079834" y2="58.96666653951008" fill="rgb(0, 0, 0)" stroke="rgb(66, 66, 66)" stroke-width="1px" opacity="0.25"></line><line x1="0" y1="39.31111102634008" x2="268.08499813079834" y2="39.31111102634008" fill="rgb(0, 0, 0)" stroke="rgb(66, 66, 66)" stroke-width="1px" opacity="0.25"></line><line x1="0" y1="19.655555513170018" x2="268.08499813079834" y2="19.655555513170018" fill="rgb(0, 0, 0)" stroke="rgb(66, 66, 66)" stroke-width="1px" opacity="0.25"></line><line x1="0" y1="0" x2="268.08499813079834" y2="0" fill="rgb(0, 0, 0)" stroke="rgb(66, 66, 66)" stroke-width="1px" opacity="0.25"></line></g></g></g><g><g><line x1="0" y1="157.24444410536023" x2="268.08499813079834" y2="157.24444410536023" fill="rgb(0, 0, 0)" stroke="rgb(153, 153, 153)" stroke-width="1.5px"></line></g></g><g><g><line x1="22.34041651089986" y1="0" x2="22.34041651089986" y2="176.89999961853027" fill="rgb(0, 0, 0)" stroke="rgb(153, 153, 153)" stroke-width="1.5px"></line></g></g><g><g><g><g><g><path style="fill: none;" stroke="rgb(255, 112, 67)" stroke-width="2px" d="M22.45211859345436,156.0651107185547L23.16701192180316,151.34777765757676L23.435096919933954,148.4596142233761L23.591479835510253,146.42666233090767L23.636160668532053,145.1851266400954L23.859564833641052,143.51537665944036L23.881905250151952,142.46775723436832L24.06062858223915,141.09060818151698L24.12764983177185,139.99335105171087L24.41807524641355,138.10814901751158L24.663819828033446,135.9427577379518L24.797862327098848,134.08124692634343L24.842543160120645,132.7779971032372L25.110628158251444,130.86408969488258L25.267011073827742,129.0559676148617L25.490415238936745,127.02790585380095L25.669138571023943,125.0565340271715L25.80318107008934,123.30778710009447L25.89254273613294,121.88124300810159L26.182968150774638,119.79882012754902L26.361691482861836,117.79462534886518L26.428712732394533,116.30909366906592L26.830840229590734,113.71953401597418L26.875521062612535,111.97711711314108L26.89786147912343,110.83732460234873L26.964882728656132,109.87041146126924L27.43403147538503,107.30898216675963L27.545733557939528,105.30039198276805L27.59041439096133,103.90654528698725L27.92552063862483,101.65503822798598L28.215946053266524,99.07762693192502L28.349988552331922,96.96509894775289L28.90849896510442,93.33891656847823L29.221264796257017,89.84235554140027L29.24360521276792,87.65007013832884L29.37764771183332,85.7686204633872L29.757434792518616,83.03585536937736L29.958498541116715,80.54707717911978L30.159562289714813,78.20469112746538L30.24892395575841,76.42187288875309L30.360626038312912,74.88044941570519L30.382966454823812,73.86124648330399L30.58403020342191,72.40060558240948L30.78509395202001,70.6751019004731L30.941476867596307,68.97937239073596L31.142540616194406,67.11281554343103L31.276583115259807,65.42680005481567L31.343604364792508,64.13215007153767L31.410625614325205,63.07232232034882L31.611689362923304,61.58730359920925L31.879774361054103,59.56413253486233L31.946795610586804,58.067189206116815L32.3936039408048,55.282090156093396L32.527646439870196,53.04495227470219L32.5946676894029,51.41962885572594L32.92977393706639,49.02923428253213L33.30956101775169,45.9911051759833L33.48828434983889,43.413454490944105L34.00211392958959,41.773142016488755L34.203177678187686,40.78956960207786L34.27019892772039,40.19967803934827L34.292539344231294,39.84583096889082L34.62764559189479,39.63516584288829L34.873390173514686,39.51034251872045L35.11913475513458,39.43733473969056L35.65530475139618,39.39872888044137L35.92338974952698,39.378722725571265L36.14679391463598,39.369633294129706L36.392538496255874,39.36768260685339L36.593602244853976,39.36961097704678L36.86168724298477,39.3752228652049L37.15211265762647,39.383835668764675L37.442538072268164,39.39468542856105L37.48721890528997,39.40210617420815L37.576580571333565,39.408415548007106L37.75530390342077,39.41603803916031L38.04572931806246,39.42719571456401L38.33615473270416,39.44090797860752L38.42551639874777,39.45138180794373L38.78296306292216,39.46706789383936L39.05104806105296,39.48396290023373L39.185090560118354,39.49798070453434L39.29679264267286,39.509695193094636L39.56487764080366,39.524916036342354L39.60955847382545,39.535448559364035L39.94466472148895,39.55260502541613L39.967005137999855,39.56364284717408L40.12338805357615,39.575537571047875L40.23509013613065,39.586520058963984L40.346792218685145,39.59701671233177L41.30743012865384,39.63956577404516L41.32977054516475,39.66599731412446L41.553174710273744,39.690991496019L41.597855543295545,39.70784493156643L42.06700429002444,39.73808443499947L42.26806803862254,39.76519937616964L42.29040845513344,39.78247588453939L42.40211053768794,39.79792929930155L42.46913178722064,39.81028255728201L43.45211011370023,39.86554697847086L43.63083344578743,39.907937542929446L43.65317386229833,39.93453465729083L43.89891844391823,39.96348262406448L43.96593969345093,39.98444517180363L44.16700344204903,40.00794751986655L44.524450106223426,40.04198013410617L44.59147135575613,40.06621020936968L44.77019468784332,40.09101699900083L44.926577603419624,40.115021686096405L45.01593926946322,40.13469360026675L45.038279685974125,40.14781768537974L45.172322185039526,40.163685120950355L45.351045517126714,40.1840073876597L45.39572635014852,40.19892463027511L45.418066766659415,40.209242774951285L46.04359842896462,40.254722006982696L46.088279261986415,40.28489451862193L46.31168342709541,40.31756054629001L46.35636426011721,40.34010371343151L46.78083217382431,40.38209858013905L47.02657675544421,40.42419528784454L47.07125758846601,40.45255795283903L47.518065918684,40.50118430550174L47.60742758472761,40.5368037103226L47.8531721663475,40.57610025799977L48.0542359149456,40.61457460257577L48.6574271607399,40.68356395322496L48.6797675772508,40.726694404878735L48.992533408403396,40.77713155276956L49.0372142414252,40.810943675588874L49.08189507444699,40.834789570083274L49.1265759074688,40.852667443206805L49.32763965606689,40.879579301695294L49.439341738621394,40.90480309651513L49.88615006883939,40.95688259382428L49.97551173488299,40.99564000722086L50.15423506697019,41.0340310415214L50.176575483481095,41.05896945100859L50.39997964859009,41.09310511544608L50.46700089812279,41.11938867691547L50.534022147655485,41.14098147894611L50.77976672927539,41.1754792638722L51.22657505949338,41.2361223549999L51.338277142047886,41.28265101119113L51.36061755855878,41.312603794583204L51.51700047413509,41.34489488610409L51.60636214017868,41.372505624718315L52.00848963737488,41.4266352874723L52.12019171992937,41.46968936472889L52.56700005014737,41.53845078647965L52.72338296572367,41.59496723984515L52.81274463176727,41.63764918536607L52.902106297810874,41.67207143086442L53.013808380365376,41.70379897178938L53.14785087943077,41.73620302337655L53.326574211517965,41.77360843489165L53.34891462802887,41.79830693942884L53.61699962615967,41.840397086015514L53.68402087569237,41.872525316374336L54.30955253799757,41.95702020472683L54.59997795263926,42.038652243021886L54.66699920217196,42.09483071697289L54.73402045170466,42.13575755465954L55.00210544983546,42.189412338486505L55.33721169749896,42.25847720654964L55.96274335980415,42.37021572945306L55.98508377631506,42.43980406251833L56.00742419282595,42.48410521058664L56.253168774445854,42.53887954868534L56.36487085700035,42.584657698145115L56.61061543862025,42.640748786262265L56.67763668815295,42.68225876505283L56.99040251930555,42.7441216883685L57.21380668441455,42.807927633926134L57.63827459812164,42.89758714159202L57.74997668067614,42.965046192730846L58.464870009024935,43.094405134116705L58.531891258557636,43.180479179506726L58.84465708971024,43.27188643474015L58.86699750622113,43.32958940014654L59.246784586906436,43.413164914450924L59.53721000154813,43.50121319571624L59.78295458316803,43.586432936046236L59.80529499967893,43.64052297531494L59.827635416189835,43.67593812285284L60.54252874453862,43.793199679307875L60.94465624173482,43.91863176180352L61.10103915731112,44.015518053282904L61.12337957382202,44.07674861072972L61.25742207288742,44.13212943195503L61.771251652638114,44.23761110706482L61.92763456821442,44.323139295468906L62.10635790030161,44.40001091345354L62.664868313074116,44.526965832323846L62.75422997911771,44.616210491171174L63.066995810270306,44.7157938311536L63.11167664329211,44.78215730491494L63.82656997164091,44.92907083744799L63.9829528872172,45.04096359799544L64.1840166358153,45.138794189314616L64.474442050457,45.24216128967325L65.07763329625129,45.39820529063956L65.3457182943821,45.53416024088399L65.5467820429802,45.647696362323934L65.6138032925129,45.726514399938466L65.92656912366549,45.82398909809218L66.01593078970909,45.89689585018044L66.39571787039439,46.00233730654593L66.61912203550338,46.10220471877923L66.6638028685252,46.1694737912997L66.88720703363418,46.24670723257898L66.97656869967778,46.30786170394795L67.26699411431949,46.3929457718759L67.44571744640668,46.47396770783876L67.53507911245029,46.53762080178071L67.64678119500479,46.59466309722988L68.33933410684268,46.74702004062343L68.89784451961518,46.935269697180836L69.07656785170236,47.0795031362141L70.01486534516016,47.33261887117284L70.17124826073646,47.51262924109757L70.39465242584546,47.66102800584412L70.70741825699805,47.806984695195325L70.72975867350895,47.898641603784796L70.88614158908527,47.98227166300373L70.93082242210706,48.04065063536466L71.02018408815067,48.09210625259452L71.04252450466156,48.12709180697123L71.08720533768336,48.15631629439295L71.31060950279236,48.21514270378292L71.35529033581416,48.25872442452078L71.73507741649945,48.35564461289675L71.93614116509755,48.4515210353384L72.49465157787006,48.61475403563062L72.56167282740275,48.72546972382403L72.65103449344636,48.808962943157624L72.91911949157715,48.910461175243185L72.94145990808805,48.975656819612L73.29890657226244,49.08382609433836L73.34358740528425,49.15739722096544L73.38826823830604,49.21021824545099L73.85741698503494,49.33355340030685L74.01379990061125,49.438310935237276L74.23720406572023,49.54528649633867L74.70635281244914,49.70281313865017L74.79571447849274,49.815213024137556L75.06379947662354,49.93651260805824L75.28720364173253,50.0544033687854L75.33188447475435,50.134188144794294L75.37656530777613,50.19111518778429L75.48826739033063,50.2479470039121L75.51060780684153,50.286588826811155L75.77869280497234,50.364439022331766L76.42656488378843,50.54449930139908L76.51592654983202,50.67106372826228L76.76167113145192,50.798132296606596L76.80635196447372,50.88369614544485L76.82869238098463,50.93970020202261L77.32018154422441,51.07644699003727L77.43188362677893,51.18207568513711L77.65528779188793,51.292769378797686L77.90103237350783,51.411469496188595L77.92337279001872,51.4874548967023L77.96805362304052,51.542582654980954L78.16911737163862,51.61867615252528L78.23613862117132,51.67870732175173L78.37018112023671,51.743531813901505L78.57124486883481,51.82577431814769L78.92869153300921,51.95258352686281L79.8893294429779,52.23940969736394L79.95635069251061,52.426346166420174L80.09039319157601,52.56824523057915L80.1350740245978,52.66331366045035L80.22443569064141,52.74023320346677L80.4925206887722,52.84621369235438L80.760605686903,52.96991778155378L80.91698860247931,53.07933689860238L80.9616694355011,53.15506380550788L81.0510311015447,53.22067132534592L81.67656276384989,53.402122925633186L82.45847734173138,53.6907496343919L82.48081775824228,53.86909517875576L82.771243172884,54.04349956158315L82.79358358939488,54.153338070542326L82.92762608846029,54.25046917180247L82.99464733799299,54.324388190654965L83.19571108659109,54.41576025906006L83.26273233612378,54.48629122303776L83.32975358565649,54.54433509779511L83.5754981672764,54.63696924057999L83.64251941680908,54.70835410308394L83.77656191587448,54.782849423466494L83.82124274889628,54.838114108582154L84.24571066260337,54.97205950438104L84.53613607724508,55.121780307284524L84.78188065886496,55.270542377959146L85.09464649001758,55.435128154049615L85.67549731930097,55.67474535428195L85.69783773581186,55.82395758178899L86.07762481649716,56.00629609195596L86.34570981462797,56.18153514736158L86.47975231369337,56.319693209156036L87.12762439250946,56.56308916670557L87.52975188970566,56.809512065841346L87.59677313923835,56.974154294575385L88.51273021618525,57.30398931136512L88.71379396478336,57.55300851804134L88.84783646384875,57.736576943942254L88.93719812989235,57.869525390587064L89.00421937942505,57.966416843111716L89.02655979593595,58.030263081347094L89.11592146197955,58.09143386460677L89.24996396104495,58.16248654425447L89.33932562708854,58.22805148610581L89.38400646011034,58.27886590496601L89.60741062521934,58.36684605236349L89.92017645637193,58.50041336857329L89.96485728939375,58.59212293704091L90.05421895543734,58.67030460904102L90.14358062148094,58.74039590331468L90.21060187101365,58.799857168299674L90.29996353705724,58.85876600976644L90.34464437007905,58.90573614260244L90.38932520310084,58.94555183697799L90.54570811867714,59.01021162527039L90.59038895169893,59.06067333088587L91.08187811493873,59.21970506247956L91.26060144702593,59.36214768743537L91.32762269655863,59.465277494558556L91.37230352958044,59.53893836771296L91.52868644515672,59.62442953744856L91.75209061026572,59.73485885164319L92.13187769095103,59.90203189675394L92.17655852397283,60.014238797847334L92.28826060652733,60.1113528415368L92.33294143954912,60.18154777302549L92.91379226883252,60.37932437075612L92.93613268534342,60.50399751562219L92.95847310185432,60.58481444658149L93.07017518440882,60.66338154097957L93.20421768347423,60.746670355600784L93.22655809998513,60.80267426184927L93.47230268160503,60.902718838447996L93.65102601369222,61.01119261872796L93.67336643020312,61.08233972233781L94.00847267786662,61.216169681740446L94.16485559344292,61.33912424451988L94.36591934204101,61.46785497456974L94.49996184110641,61.581807249442086L94.83506808876992,61.7422077701234L94.9020893383026,61.85689726149273L95.0584722538789,61.96881566607179L95.23719558596612,62.08532170400324L96.01911016384761,62.37233927151319L96.4659184940656,62.66947058227571L96.6223014096419,62.89161559405343L96.64464182615279,63.03117631779468L98.56591764609018,63.66004659653757L98.81166222771009,64.10789096270564L98.85634306073189,64.38943790635682L99.34783222397168,64.70000503831236L99.61591722210248,64.96389981973938L99.79464055418968,65.17405489373452L99.97336388627689,65.35205693935681L100.44251263300578,65.59555313914922L100.53187429904938,65.76775912720281L100.66591679811478,65.91028612698635L101.49251220901807,66.23867892887647L101.87229928970336,66.54794150161732L102.25208637038867,66.84612133918L102.60953303456306,67.1313836767732L102.76591595013937,67.34917804973534L102.87761803269386,67.51320905516091L103.19038386384646,67.70519448982974L103.27974552989005,67.84716766719161L103.43612844546635,67.97926971899196L104.59783010403315,68.40906827922846L104.75421301960945,68.71439862164749L105.60314884702365,69.15628659266991L105.84889342864354,69.49663953944666L106.00527634421985,69.74879749890565L106.11697842677434,69.93437804834072L106.34038259188334,70.11438579270138L106.38506342490514,70.23613579522534L106.42974425792694,70.32293701045934L106.58612717350324,70.42318652784945L106.60846759001414,70.49022209631435L106.72016967256864,70.56489322988953L106.87655258814493,70.65797599671279L107.07761633674303,70.77598290016293L107.16697800278664,70.87444470169075L107.52442466696104,71.04434279932916L107.68080758253734,71.1948604930034L107.72548841555913,71.29905998151006L107.81485008160273,71.38937499265428L108.10527549624443,71.53402619038309L108.19463716228803,71.64869130752292L108.57442424297334,71.8361579337308L108.61910507599514,71.96262050674997L108.68612632552782,72.05948366212714L109.04357298970223,72.2296820016597L109.24463673830031,72.39497457912108L109.33399840434392,72.52225590767527L109.55740256945292,72.66896824046351L109.64676423549652,72.78516585814604L109.82548756758372,72.91127465617694L110.09357256571452,73.07165854135106L110.33931714733443,73.24568354500208L110.54038089593251,73.41384911541864L111.16591255823772,73.7136328914099L111.18825297474861,73.9006203986103L111.23293380777041,74.02705324395392L111.27761464079222,74.11715914999546L111.29995505730311,74.17834579303808L111.41165713985762,74.25069084938818L111.56804005543391,74.34402987286632L111.67974213798841,74.43573079340995L111.70208255449931,74.49789201858988L111.85846547007561,74.5852173972643L111.99250796914102,74.68053281314775L112.0148483856519,74.74487738006162L112.1935717177391,74.84077645068257L112.3946354663372,74.96284847918588L112.50633754889171,75.0719766527293L112.57335879842441,75.15899858946906L112.7520821305116,75.2687061765003L112.886124629577,75.37769401659669L113.1765500442187,75.53672970362429L113.3105925432841,75.6754257021469L113.42229462583859,75.79473328112266L113.4446350423495,75.87354051073014L113.84676253954571,76.05096785816805L114.09250712116558,76.23710808355418L114.22654962023098,76.39230697538478L114.33825170278548,76.52171252704802L114.51697503487269,76.65746535329555L114.58399628440539,76.76072275429273L114.80740044951439,76.8954253623814L115.16484711368878,77.09283495989114L115.18718753019968,77.21857369436323L115.41059169530868,77.3670140595478L115.72335752646127,77.55842597029167L115.92442127505939,77.73915885744563L116.08080419063567,77.898892520701L116.17016585667929,78.02406571235002L116.57229335387548,78.2313306532541L116.66165501991907,78.38509583414259L116.68399543642998,78.48470942566823L117.33186751524607,78.75811491390012L117.59995251337686,79.01076640037684L117.62229292988776,79.16974692212754L118.31484584172567,79.4946120921996L118.49356917381287,79.74887668782888L118.60527125636737,79.93855347107831L118.71697333892187,80.08949514033593L118.73931375543278,80.18749077643928L119.34250500122705,80.44718182136586L120.01271749655406,80.82686737923925L120.41484499375025,81.18931759436288L120.95101499001186,81.58667527279385L121.46484456976255,81.99786018760358L121.48718498627345,82.25209256712452L121.57654665231705,82.43472064628364L121.66590831836064,82.57439493194363L122.00101456602414,82.77116155035507L122.17973789811134,82.94953062506545L122.24675914764404,83.07918079772928L122.26909956415494,83.16451283430477L122.55952497879665,83.31383919432199L122.58186539530753,83.41098865893355L122.80526956041655,83.54483825496104L122.89463122646013,83.65539189604259L123.05101414203644,83.7746728435505L124.34675829966862,84.28611623234573L124.45846038222312,84.63099360782796L124.61484329779942,84.89116461548335L124.92760912895203,85.15383546527094L125.10633246103923,85.37238558031733L125.12867287755013,85.51113666278464L125.35207704265913,85.67062380681398L125.93292787194252,85.96478462231941L125.95526828845341,86.14892262740422L126.04462995449703,86.28997149358135L126.42441703518232,86.5046032354725L126.64782120029132,86.70992045247525L127.4744166111946,87.11673139620983L128.1446291065216,87.59124378501967L128.3456928551197,87.94515833842917L128.6584586862723,88.26522637573136L128.8818628513813,88.5342622793184L129.1052670164903,88.77271990736047L129.4403732641538,89.03142183567073L129.5297349301974,89.21749315966615L129.6637774292628,89.37541852684234L129.6861178457737,89.4778914144859L130.1999474255244,89.71693421615042L130.5350536731879,89.97625963689315L130.8925003373623,90.25556895031897L131.0712236694495,90.48504525128371L131.1159045024713,90.63820737122236L131.40632991711297,90.83072720917848L131.80845741430917,91.08564918024294L131.92015949686368,91.27734593158937L132.00952116290728,91.42336352361302L132.12122324546178,91.549729363159L132.43398907661438,91.7341029103561L132.47866990963618,91.86023852490631L132.65739324172338,91.99798048309428L132.9031378233433,92.1659827658729L133.26058448751766,92.39099903944808L133.52866948564846,92.61920952175535L133.55100990215936,92.76390619878572L133.59569073518117,92.866259122484L133.93079698284467,93.04422962029932L134.19888198097547,93.24429464651897L134.26590323050817,93.38765946971891L134.53398822863898,93.56699916694744L134.84675405979158,93.78351142638135L135.18186030745505,94.0301444732807L135.22654114047685,94.19369143686646L135.33824322303136,94.33073891808628L135.38292405605316,94.4285345422643L135.60632822116216,94.56506516743792L135.65100905418396,94.66255653580026L135.69568988720576,94.73662435007584L136.12015780091286,94.9290421570129L136.16483863393466,95.0600716922453L136.18717905044556,95.14647737446684L136.23185988346737,95.21390256377597L136.56696613113084,95.37122102718293L137.03611487785975,95.62926912192637L137.08079571088155,95.79968708101369L137.48292320807775,96.04225149226112L137.70632737318675,96.26575468810476L138.01909320433936,96.50901986153067L138.57760361711186,96.84993866527338L138.86802903175354,97.1558813513397L139.40419902801514,97.52664066837961L139.94036902427675,97.93629435736277L140.36483693798382,98.33028189262215L140.49887943704923,98.61347100956156L140.52121985356013,98.79118269197834L140.58824110309283,98.92120726709376L141.4595173470179,99.30335375448796L141.7052619286378,99.61840587272577L141.74994276165964,99.82302917481572L141.9733469267686,100.02376038289984L142.12972984234491,100.19876462672713L142.19675109187762,100.32715009415884L142.42015525698662,100.48211956355894L142.68824025511742,100.66861242739829L142.71058067162832,100.78830050014301L142.75526150465012,100.87569658821903L142.97866566975912,101.00604460539863L143.15738900184633,101.14657174889318L143.3584527504444,101.30098700699372L143.5595164990425,101.46372341823383L143.64887816508613,101.59250978704124L144.2967502439022,101.89551239455982L144.3861119099458,102.10843797879222L144.5424948255221,102.29065340769208L144.98930315574012,102.55553100544101L145.1680264878273,102.7766543476777L145.32440940340362,102.96373863997795L145.3914306529363,103.0993047716552L145.5254731520017,103.22727116989671L145.6371752345562,103.34289855371271L145.7712177336216,103.45888559425444L146.03930273175237,103.62167414338262L146.1063239812851,103.74264086236151L146.28504731337227,103.87732541679685L146.3967493959268,103.99694415409803L146.53079189499218,104.11527621532865L146.9329193921884,104.32589786604362L147.06696189125378,104.49879213509139L147.3797277224064,104.7110388063994L147.4467489719391,104.86163207173705L147.5807914710045,104.99846976932727L147.67015313704806,105.11155289120816L147.8712168856462,105.24909315395205L147.9829189682007,105.37032426898097L148.2733443828424,105.54366060829017L148.38504646539687,105.68633861574517L148.809514379104,105.91884030781895L148.85419521212577,106.073797160081L149.01057812770208,106.22085352092327L149.03291854421298,106.3168123270315L149.25632270932198,106.45161407547697L149.43504604140918,106.59424964332398L149.61376937349638,106.74156353601684L150.26164145231246,107.0535211252309L150.28398186882336,107.24839870156713L150.4180243678888,107.41153606195053L150.93185394763944,107.68642398402298L151.22227936228117,107.95130419042391L151.87015144109725,108.33291850270066L152.02653435667358,108.61558125950535L152.45100227038066,108.9308041204334L152.87547018408776,109.2653858450218L153.47866142988204,109.6725114550912L154.03717184265454,110.10753621842979L154.05951225916544,110.37617355432545L154.23823559125265,110.59831967001972L154.50632058938345,110.82298627805984L154.97546933611233,111.11750388099901L155.04249058564506,111.31701011824269L155.31057558377586,111.52784530665458L155.51163933237393,111.72263825669704L155.73504349748293,111.915337545524L155.93610724608104,112.09914644410512L156.15951141119004,112.28513814581481L156.76270265698432,112.60082812437476L156.80738349000612,112.80534208644816L156.87440473953882,112.95069383605988L157.09780890464782,113.11334471794102L157.20951098720232,113.24863026742564L157.25419182022412,113.34487374744678L157.58929806788763,113.51558481138089L157.85738306601843,113.70827301072188L157.96908514857293,113.86146525889505L158.05844681461653,113.98343264792032L158.23717014670373,114.11668201470614L158.30419139623643,114.21914613528082L158.57227639436724,114.37061963815921L159.17546764016151,114.66361289914522L159.5552547208468,114.96638864691877L159.59993555386862,115.16297980061275L159.89036096851032,115.37787103060778L159.95738221804302,115.52915771482438L160.0914247171084,115.66461165099851L160.7616372124354,115.96887920072326L160.8286584619681,116.1737008806914L161.2754667921861,116.44481410624287L161.521211373806,116.68886462398329L161.744615538915,116.90919269772705L161.968019704024,117.11520529570456L162.07972178657852,117.27568924561703L162.3701472012202,117.467757771016L162.6829130323728,117.68598507939878L162.9286576139927,117.89772119454189L163.1744021956126,118.10545568867178L163.4648276102543,118.32532390627117L163.59887010931968,118.50114620902313L163.95631677349408,118.72354833853898L164.8275930174192,119.14097634303273L164.93929509997366,119.42773840018295L164.98397593299546,119.6143127571144L165.0733375990391,119.755276972026L165.11801843206086,119.85435944353722L165.38610343019167,120.00075643027358L165.45312467972437,120.11030953147768L165.52014592925707,120.19774751464443L165.8105713438988,120.3441710738164L165.87759259343147,120.45368593372068L166.12333717505138,120.5987389134894L166.34674134016038,120.75779835796246L166.43610300620398,120.88201638401208L166.97227300246558,121.12891038945752L167.1509963345528,121.33437280561652L167.1733367510637,121.46480996605476L167.46376216570536,121.63607235041813L167.48610258221626,121.74597631170192L167.59780466477076,121.84763669727103L167.64248549779256,121.922912809867L168.33503840963047,122.18887991484293L168.49142132520674,122.3981783573578L168.96057007193565,122.67259417515254L169.16163382053375,122.90088586453292L169.31801673611005,123.08729788271347L169.45205923517545,123.24147803664546L169.51908048470816,123.35513722375995L169.74248464981716,123.49376560331766L169.78716548283893,123.59101602443306L170.07759089748063,123.74073350010184L170.14461214701336,123.85162135526605L170.30099506258964,123.96724985536663L170.45737797816597,124.08566709321487L170.52439922769864,124.17771769201956L171.21695213953655,124.44934587853385L171.97652630090712,124.84837504145779L172.19993046601613,125.15696011910462L172.40099421461423,125.40425962233088L172.64673879623413,125.62846577197409L172.69141962925593,125.77676117782171L172.78078129529953,125.89326574447057L172.89248337785403,125.99755091211789L172.93716421087584,126.07386590416085L173.00418546040854,126.14026121762393L173.80844045480092,126.42652044844758L173.85312128782272,126.61191883113898L174.34461045106252,126.87289818054384L174.50099336663882,127.07700216462266L174.52333378314972,127.20624716916392L174.56801461617152,127.29735647117057L174.7020571152369,127.39267746448071L174.99248252987863,127.53779874780993L175.126525028944,127.66538121683955L175.2158866949876,127.76891104820014L175.3722696105639,127.8781938527311L176.5116308526198,128.28545630068058L176.93609876632692,128.65622535286616L177.7626941772302,129.12345106612133L177.8297154267629,129.42354928738072L177.91907709280648,129.62994054962428L178.1201408414046,129.81294067283685L178.3435450065136,129.98834824140098L178.5222683386008,130.14597773099143L178.63397042115528,130.2732508025416L178.9467362523079,130.4409730817532L178.9914170853297,130.55463568766817L179.2595020834605,130.70088493526615L179.3935445825259,130.82758380817992L179.6616295806567,130.9813465486196L179.9073741622766,131.14468654508028L179.9520549952984,131.2555960350657L180.4658845750491,131.47013495641173L180.89035248875618,131.72052799380418L180.935033321778,131.88354043648425L180.97971415479978,131.99411866452482L181.04673540433248,132.07961039548724L181.35950123548508,132.22006938751775L181.64992665012676,132.38687842520775L182.45418164451917,132.71418837612126L182.52120289405187,132.92942112462086L182.63290497660637,133.0899403404913L182.85630914171537,133.248897508447L183.03503247380254,133.39427702153876L183.12439413984617,133.50646999200137L183.52652163704235,133.68582375144803L183.54886205355325,133.79964528785843L183.63822371959688,133.89276068814416L184.28609579841296,134.12784163261048L184.42013829747836,134.3058032017414L184.46481913050016,134.4248712972933L184.48715954701106,134.50245553498158L184.66588287909823,134.59809600678463L185.00098912676177,134.7472480407629L185.42545704046884,134.95245960540075L185.44779745697974,135.08166109524936L185.55949953953427,135.18952984878698L186.09566953579585,135.3993542302584L186.43077578345935,135.61545989649312L186.47545661648115,135.75712375638574L186.81056286414463,135.93191281166065L187.41375410993894,136.19746822524462L187.50311577598254,136.3805021808325L187.72651994109154,136.549457898765L188.77651951710385,136.92649849878575L188.91056201616922,137.18764347293566L188.99992368221282,137.36757571997842L189.08928534825642,137.49875323837634L189.51375326196353,137.687369144141L190.2509870068232,137.98994078813192L190.3850295058886,138.2057160957514L190.42971033891044,138.3465776536102L190.5860932544867,138.47092697784268L190.6084336709976,138.55122011449564L190.6531145040194,138.6107572229024L190.69779533704124,138.6578333920964L191.34566741585732,138.8499169702582L191.41268866539,138.98203029351112L191.56907158096632,139.10058297155607L191.7031140800317,139.2053179170422L191.9711990781625,139.3351700571761L192.01587991118433,139.42422436417363L192.10524157722793,139.49992249186445L192.28396490931513,139.5897838560567L192.4180074083805,139.67695693786902L192.7977944890658,139.82313149236847L192.8424753220876,139.92184525053537L193.31162406881649,140.0962241774673L193.49034740090372,140.2445054132609L193.69141114950182,140.3824439987807L193.870134481589,140.5086091438101L193.8924748980999,140.5897252424943L194.4063044778506,140.7624721470303L194.7190703090032,140.94116179064858L194.7860915585359,141.06440767609485L195.0541765566667,141.2023159245948L195.2999211382866,141.34345227614787L195.5456657199065,141.486297034864L195.5680061364174,141.5772795820452L195.85843155105908,141.70028615808118L195.92545280059178,141.78983260739628L196.05949529965716,141.87499422851724L197.28821820775667,142.21101078453842L197.75736695448558,142.5198618795014L198.07013278563818,142.7761878899511L198.09247320214908,142.93504135078788L198.33821778376898,143.08585985732267L198.40523903330165,143.19144764116172L198.42757944981255,143.25982851085882L198.49460069934526,143.31593028134716L198.94140902956326,143.44962373507198L199.41055777629217,143.6340195296496L199.52225985884667,143.76933230730867L199.56694069186844,143.8603761087429L200.10311068813004,144.0326499540093L200.21481277068457,144.16037836581796L200.23715318719547,144.24188215635297L200.34885526974995,144.3150881266364L200.37119568626085,144.36386637051896L200.75098276694615,144.4753539324903L200.92970609903338,144.5807359557844L201.10842943112056,144.68232431955474L201.51055692831676,144.82910856234324L201.55523776133856,144.92667535352908L201.97970567504564,145.075017883204L202.53821608781814,145.28105296624653L202.85098191897075,145.46964630421763L203.09672650059065,145.6335661059754L203.14140733361245,145.74112060971524L203.23076899965605,145.82403402774167L203.76693899591763,145.98336343581028L203.83396024545033,146.09257390356203L203.87864107847213,146.16716514831577L203.90098149498303,146.2164490822001L203.92332191149396,146.25054643288328L203.99034316102663,146.28457373261364L204.34778982520103,146.37703717306593L204.39247065822283,146.44148318142842L204.59353440682094,146.52040200952257L205.01800232052804,146.65216474371678L205.39778940121332,146.80609840194035L205.71055523236592,146.95965845407846L205.82225731492045,147.07355003309456L206.00098064700762,147.17658226555835L206.20204439560572,147.2772722150426L206.91693772395453,147.47447964161674L207.3190652211507,147.66877699056926L207.92225646694502,147.897993802842L208.03395854949952,148.0562081905655L208.1680010485649,148.17588607898887L208.57012854576112,148.3214664627502L208.83821354389192,148.45760148042498L209.0169368759791,148.57163079346353L209.06161770900093,148.64811312398672L209.1509793750445,148.71010601365995L209.5531068722407,148.81932977018897L209.709489787817,148.91268057671516L210.08927686850228,149.03579302955941L210.31268103361128,149.148831324138L210.6477872812748,149.27499225080354L211.18395727753636,149.442980465762L211.27331894358,149.5590295169762L211.4743826921781,149.66285355926482L211.65310602426527,149.7553900375368L211.7871485233307,149.83349854931373L212.23395685354868,149.95506430583956L212.25629727005958,150.03171504978366L212.27863768657048,150.08141440644266L212.52438226819038,150.15188284250564L212.68076518376668,150.21988811952096L213.2616160130501,150.35526071828238L213.35097767909366,150.45089632567743L213.86480725884437,150.59043588344693L213.9765093413989,150.6918593632437L214.06587100744247,150.76683187643246L214.11055184046427,150.8188608677541L214.177573089997,150.86062909728028L214.49033892114957,150.9346532890011L214.73608350276947,151.0172215642934L215.13821099996568,151.12859210146507L215.22757266600925,151.209052508493L215.24991308252015,151.26073232455067L215.56267891367278,151.3391480360421L215.8084234952927,151.42312657437117L215.8307639118036,151.47685686052304L215.98714682737986,151.5324323722497L216.12118932644526,151.58569002985516L216.16587015946706,151.6242634028324L216.29991265853246,151.66720774653334L216.47863599061967,151.7192437107626L216.50097640713057,151.7537385248236L216.83608265479404,151.82325130668164L216.97012515385947,151.88433753324549L217.05948681990304,151.93386144498697L217.12650806943574,151.97320511971145L217.28289098501205,152.0191976854114L217.72969931523005,152.110118003346L218.39991181055703,152.25788610596885L218.51161389311156,152.36187576326208L218.57863514264426,152.43343831484748L218.84672014077506,152.51283724755436L218.95842222332953,152.5755677953979L219.40523055354754,152.67297594294834L219.5616134691238,152.7521148338396L220.52225137909252,152.9241476997941L220.54459179560342,153.03021120404642L220.92437887628873,153.14182551927735L221.23714470744133,153.24778150854902L221.39352762301763,153.33067160336495L222.06374011834464,153.46184993274687L222.39884636600812,153.58046199337358L222.71161219716072,153.68838132542677L222.77863344669342,153.76094642214005L222.93501636226972,153.8226317919414L223.02437802831332,153.86995880384808L223.18076094388962,153.91631387278076L223.22544177691142,153.94923611609087L223.47118635853133,153.9969155740762L223.67225010712943,154.0481523428183L224.1190584373474,154.1284724537459L224.4765051015218,154.215621899149L224.9009730152289,154.31335793650376L224.99033468127251,154.38145425057533L225.01267509778341,154.42466953377186L225.07969634731612,154.4576565434204L225.4371430114905,154.5147163323446L225.5041642610232,154.55586964099786L225.54884509404502,154.58516101543782L226.3754405049483,154.6860428968169L226.442461754481,154.7531783562078L226.77756800214448,154.82615720631776L227.02331258376438,154.89356834003846L227.1573550828298,154.946774250136L227.1796954993407,154.9808155782968L227.24671674887338,155.00757907697002L227.29139758189518,155.02785049899845L227.53714216351509,155.06300910858758L227.69352507909142,155.09858130758138L227.8945888276895,155.13835888682323L228.1179929927985,155.18247131410973L228.20735465884206,155.21696745102645L228.74352465510367,155.2849985882792L229.1009713192781,155.35657371264776L229.3243754843871,155.41841640919813L229.41373715043068,155.46301101097663L229.54777964949608,155.50092608018912L229.90522631367048,155.55298948940074L229.92756673018138,155.58603837683293L230.55309839248656,155.65555161146838L230.57543880899746,155.69899753761786L230.88820464015006,155.7491328750436L231.24565130432447,155.80611589614946L231.31267255385717,155.8452779844075L231.46905546943347,155.8802889957106L231.58075755198797,155.90944409359878L231.69245963454244,155.93502253466633L231.93820421616235,155.96793534699196L231.98288504918415,155.99084396467094L232.78714004357656,156.0597569563177L232.98820379217466,156.11438427386517L233.14458670775096,156.1573473079701L233.18926754077276,156.18601275517452L233.43501212239266,156.21891288180836L234.08288420120874,156.27857422129762L234.17224586725237,156.31970977995022L234.21692670027417,156.34704523027514L234.30628836631774,156.36872425180866L234.39565003236135,156.38696873173228L234.95416044513382,156.4297248949425L235.46799002488453,156.4832376374967L235.73607502301533,156.52934513341063L235.93713877161343,156.56726844461005L236.29458543578784,156.6077497951332L236.33926626880964,156.63420858156974L236.94245751460394,156.67837781772022L237.07650001366932,156.71091377531124L237.52330834388732,156.74988485319835L237.54564876039822,156.77421310181253L237.70203167597455,156.79535754028038L237.92543584108353,156.81718006758314L238.39458458781243,156.84862478186642L238.8860737510522,156.8855038332315L239.2211799987157,156.9192002826177L239.42224374731381,156.9460822943835L239.57862666289014,156.96725092449597L239.82437124451,156.9876168779775L239.91373291055362,157.00254655764516L240.11479665915172,157.01745177796462L240.3605412407716,157.03338121478996L240.42756249030433,157.0447902372303L240.69564748843513,157.05880966273625L240.7850091544787,157.06953034855172L240.8743708205223,157.07823063141475L241.0977749856313,157.08894038331013L241.1424558186531,157.09643327151835L241.2318174846967,157.1030322049412L241.2541579012076,157.1075109252445L241.2764983177185,157.1107149491628L241.5222428993384,157.11815219034415L241.611604565382,157.1245426990936L241.8126683139801,157.13256475358517L242.2371362276872,157.1455337882104L242.9743699725469,157.1652702482121L243.0190508055687,157.17774648120698L243.1307528881232,157.18677301291248L243.4658591357867,157.19642467061615L243.4881995522976,157.20247742477204L243.59990163485207,157.2073792092271L243.7562845504284,157.21199018178982L244.13607163111368,157.21828625581458L244.24777371366818,157.22296016370282L244.51585871179898,157.22765250191557L244.67224162737529,157.23139773418015L244.8509649594625,157.2345527907832L244.8733053759734,157.23654770827085L245.3871349557241,157.23937610437102L245.74458161989847,157.2414033047667" fill="none"></path></g></g></g></g><g opacity="0.2"><g><g><g><path style="fill: none;" stroke="rgb(255, 112, 67)" stroke-width="2px" d="M22.45211859345436,156.0651107185547L23.16701192180316,148.51737782099L23.435096919933954,145.68697732654346L23.591479835510253,144.0359109053648L23.636160668532053,143.56417764217093L23.859564833641052,141.20551132620142L23.881905250151952,140.96964469460448L24.06062858223915,139.0827116418289L24.12764983177185,138.37510991647179L24.41807524641355,135.30884370571144L24.663819828033446,132.714310758145L24.797862327098848,131.2991109685633L24.842543160120645,130.8273777053694L25.110628158251444,127.99697812620599L25.267011073827742,126.34590987446109L25.490415238936745,123.9872435584916L25.669138571023943,122.100310505716L25.80318107008934,120.6851107161343L25.89254273613294,119.74164418974651L26.182968150774638,116.6753761484199L26.361691482861836,114.78844309564431L26.428712732394533,114.08084503141971L26.830840229590734,109.83524566267462L26.875521062612535,109.36351239948073L26.89786147912343,109.12764393731752L26.964882728656132,108.42004587309295L27.43403147538503,103.46684477899073L27.545733557939528,102.28750979043973L27.59041439096133,101.81577652724583L27.92552063862483,98.27777888385786L28.215946053266524,95.21151084253125L28.349988552331922,93.79630739181704L28.90849896510442,87.89964343245956L29.221264796257017,84.59751425123477L29.24360521276792,84.36164212793906L29.37764771183332,82.94644599948987L29.757434792518616,78.93670777064295L29.958498541116715,76.81390991683668L30.159562289714813,74.6911120630304L30.24892395575841,73.74764553664258L30.360626038312912,72.5683142092241L30.382966454823812,72.33244208592839L30.58403020342191,70.20964423212209L30.78509395202001,68.08684637831581L30.941476867596307,66.43577812657091L31.142540616194406,64.3129802727646L31.276583115259807,62.897776822050396L31.343604364792508,62.19017509669331L31.410625614325205,61.48258069360122L31.611689362923304,59.359775517529904L31.879774361054103,56.52937593836651L31.946795610586804,55.82177421300941L32.3936039408048,51.10444158107043L32.527646439870196,49.68924545262126L32.5946676894029,48.98164372726415L32.92977393706639,45.443642422743636L33.30956101775169,41.433911516161764L33.48828434983889,39.546978463386175L34.00211392958959,39.312673304806104L34.203177678187686,39.31421098046164L34.27019892772039,39.314840695253906L34.292539344231294,39.31506036320471L34.62764559189479,39.319168153884526L34.873390173514686,39.323107532468725L35.11913475513458,39.32782307114573L35.65530475139618,39.34082009156762L35.92338974952698,39.348713493266075L36.14679391463598,39.35599914696737L36.392538496255874,39.36475657593894L36.593602244853976,39.37250353233688L36.86168724298477,39.38364069744205L37.15211265762647,39.396754874104346L37.442538072268164,39.4109600682556L37.48721890528997,39.41323729267881L37.576580571333565,39.417879608705555L37.75530390342077,39.42747177589015L38.04572931806246,39.44393222766951L38.33615473270416,39.46147637467279L38.42551639874777,39.46709255194804L38.78296306292216,39.490597022682806L39.05104806105296,39.50930540982529L39.185090560118354,39.51900741098529L39.29679264267286,39.527266925935066L39.56487764080366,39.547747301213946L39.60955847382545,39.55124734389656L39.94466472148895,39.57833972449427L39.967005137999855,39.58019957981099L40.12338805357615,39.593379656858524L40.23509013613065,39.602993790838205L40.346792218685145,39.61276169238343L41.30743012865384,39.70338936661528L41.32977054516475,39.70564462424343L41.553174710273744,39.7284827688608L41.597855543295545,39.73312508488755L42.06700429002444,39.78344369014903L42.26806803862254,39.80587178792492L42.29040845513344,39.808390647094L42.40211053768794,39.82110942144487L42.46913178722064,39.82881244425266L43.45211011370023,39.94844361025414L43.63083344578743,39.971523389617374L43.65317386229833,39.97443032883285L43.89891844391823,40.00690457422498L43.96593969345093,40.015888993412375L44.16700344204903,40.043201041960884L44.524450106223426,40.093029055465614L44.59147135575613,40.10255532226497L44.77019468784332,40.12822718344756L44.926577603419624,40.151028716739795L45.01593926946322,40.16420147152231L45.038279685974125,40.167503813049215L45.172322185039526,40.18748627430628L45.351045517126714,40.21449078772368L45.39572635014852,40.22130049419823L45.418066766659415,40.22471999196557L46.04359842896462,40.32294085502983L46.088279261986415,40.330153286080844L46.31168342709541,40.36655958779215L46.35636426011721,40.373918464143685L46.78083217382431,40.44509088020038L47.02657675544421,40.48734034940276L47.07125758846601,40.49510195033076L47.518065918684,40.574123834495765L47.60742758472761,40.59023281755387L47.8531721663475,40.63504507951549L48.0542359149456,40.6722861194398L48.6574271607399,40.78704797919872L48.6797675772508,40.791390082359385L48.992533408403396,40.85278727460582L49.0372142414252,40.861661859817836L49.08189507444699,40.87055841182492L49.1265759074688,40.87948425289212L49.32763965606689,40.91994708942806L49.439341738621394,40.94263878874489L49.88615006883939,41.03500183978801L49.97551173488299,41.05377612731573L50.15423506697019,41.09161759297222L50.176575483481095,41.09637706523938L50.39997964859009,41.14430861210226L50.46700089812279,41.158814019119575L50.534022147655485,41.173370681992076L50.77976672927539,41.22722594126131L51.22657505949338,41.32708699169148L51.338277142047886,41.35244399547793L51.36061755855878,41.35753296967129L51.51700047413509,41.3933315233854L51.60636214017868,41.413921732639665L52.00848963737488,41.50782978160336L52.12019171992937,41.534270480613735L52.56700005014737,41.64159291910581L52.72338296572367,41.67974191989339L52.81274463176727,41.701672103647496L52.902106297810874,41.723704799111964L53.013808380365376,41.75139028317682L53.14785087943077,41.78480910075734L53.326574211517965,41.829716552164314L53.34891462802887,41.835354696234646L53.61699962615967,41.90353230589554L53.68402087569237,41.920717661912526L54.30955253799757,42.08376253725558L54.59997795263926,42.16110030046451L54.66699920217196,42.17909842789942L54.73402045170466,42.197147811189524L55.00210544983546,42.269894514226905L55.33721169749896,42.362074508644355L55.96274335980415,42.537823513808235L55.98508377631506,42.54418656211618L56.00742419282595,42.55055693268917L56.253168774445854,42.62104105583338L56.36487085700035,42.653324922334825L56.61061543862025,42.72488541843791L56.67763668815295,42.744523733238736L56.99040251930555,42.83691607334197L57.21380668441455,42.90363655226261L57.63827459812164,43.032076403090855L57.74997668067614,43.06623476943906L58.464870009024935,43.2884435461955L58.531891258557636,43.30959024759176L58.84465708971024,43.40899731759029L58.86699750622113,43.41614384825607L59.246784586906436,43.53852818590747L59.53721000154813,43.633285617614234L59.78295458316803,43.7142625465413L59.80529499967893,43.72165803421797L59.827635416189835,43.729060844159676L60.54252874453862,43.9690920139904L60.94465624173482,44.106779885546985L61.10103915731112,44.16084749050199L61.12337957382202,44.16859444689993L61.25742207288742,44.215200663793034L61.771251652638114,44.39583361972952L61.92763456821442,44.451431578075045L62.10635790030161,44.51531834043047L62.664868313074116,44.717398210629305L62.75422997911771,44.750077479442176L63.066995810270306,44.86516884112726L63.11167664329211,44.881702515556896L63.82656997164091,45.14944113624755L63.9829528872172,45.208802738816644L64.1840166358153,45.285540076293415L64.474442050457,45.39721194021118L65.07763329625129,45.63227129208897L65.3457182943821,45.738092666250644L65.5467820429802,45.818000544483844L65.6138032925129,45.84474145636028L65.92656912366549,45.97020114532279L66.01593078970909,46.00625597831282L66.39571787039439,46.16049949109413L66.61912203550338,46.25200583712916L66.6638028685252,46.270377400080434L66.88720703363418,46.362557394497884L66.97656869967778,46.39959341100146L67.26699411431949,46.52057187376781L67.44571744640668,46.59550061178305L67.53507911245029,46.63310044269366L67.64678119500479,46.68022654040362L68.33933410684268,46.97555545571379L68.89784451961518,47.217644182016926L69.07656785170236,47.295853294764015L70.01486534516016,47.71229247361097L70.17124826073646,47.78264479598471L70.39465242584546,47.88362615296393L70.70741825699805,48.025919729222146L70.72975867350895,48.036126966668945L70.88614158908527,48.10771675183216L70.93082242210706,48.1282190939061L71.02018408815067,48.169289678439235L71.04252450466156,48.17957013853631L71.08720533768336,48.20015302552554L71.31060950279236,48.30338231786786L71.35529033581416,48.32409700562758L71.73507741649945,48.50102489546069L71.93614116509755,48.59533566900085L72.49465157787006,48.85960353606899L72.56167282740275,48.891543256114176L72.65103449344636,48.934202772158045L72.91911949157715,49.062708523371526L72.94145990808805,49.07345028616527L73.29890657226244,49.24608000642789L73.34358740528425,49.26775391090606L73.38826823830604,49.289449782179304L73.85741698503494,49.51855613259062L74.01379990061125,49.59544723763295L74.23720406572023,49.705749837990766L74.70635281244914,49.9391031021174L74.79571447849274,49.98381285236866L75.06379947662354,50.118461983939305L75.28720364173253,50.23123950987605L75.33188447475435,50.25386530880766L75.37656530777613,50.276505752269316L75.48826739033063,50.333194728103784L75.51060780684153,50.34455156115973L75.77869280497234,50.48121431561265L76.42656488378843,50.814589720000015L76.51592654983202,50.860910368557086L76.76167113145192,50.98873514912312L76.80635196447372,51.01204191870218L76.82869238098463,51.02370628688925L77.32018154422441,51.281567172059276L77.43188362677893,51.34051872778689L77.65528779188793,51.458809919288534L77.90103237350783,51.58951967227497L77.92337279001872,51.601432997472926L77.96805362304052,51.62527429239892L78.16911737163862,51.7328163988418L78.23613862117132,51.7687540755914L78.37018112023671,51.84076855212614L78.57124486883481,51.949138074517L78.92869153300921,52.14279733993547L79.8893294429779,52.669648953115654L79.95635069251061,52.70675087000447L80.09039319157601,52.78109382681762L80.1350740245978,52.80591630525714L80.22443569064141,52.855612517991375L80.4925206887722,53.005184425685826L80.760605686903,53.15547391535289L80.91698860247931,53.24346557417525L80.9616694355011,53.26865416586608L81.0510311015447,53.31908260510298L81.67656276384989,53.67430032606413L82.45847734173138,54.12368969752993L82.48081775824228,54.13661349530154L82.771243172884,54.305106135824246L82.79358358939488,54.3180958339811L82.92762608846029,54.39616582369266L82.99464733799299,54.4352667189337L83.19571108659109,54.552818361667676L83.26273233612378,54.59208766900429L83.32975358565649,54.6314009099311L83.5754981672764,54.77592045475734L83.64251941680908,54.81543139683984L83.77656191587448,54.894592404040345L83.82124274889628,54.92101113625563L84.24571066260337,55.1729775980794L84.53613607724508,55.34636151163974L84.78188065886496,55.49368548397109L85.09464649001758,55.68200681818531L85.67549731930097,56.034171154630464L85.69783773581186,56.04777592304953L86.07762481649716,56.27980385720639L86.34570981462797,56.44439373047001L86.47975231369337,56.5269303018477L87.12762439250946,56.92818310302989L87.52975188970566,57.179146414545045L87.59677313923835,57.22111763767641L88.51273021618525,57.79874183654974L88.71379396478336,57.92653732805565L88.84783646384875,58.01192958279364L88.93719812989235,58.068948060554284L89.00421937942505,58.11175402189867L89.02655979593595,58.12603243870018L89.11592146197955,58.18319003949632L89.24996396104495,58.26906556372604L89.33932562708854,58.32639889888282L89.38400646011034,58.3550875332563L89.60741062521934,58.49881627345969L89.92017645637193,58.70076434288806L89.96485728939375,58.72968728974237L90.05421895543734,58.78757711704117L90.14358062148094,58.8455328447252L90.21060187101365,58.88904906577714L90.29996353705724,58.94712927196662L90.34464437007905,58.976191341856435L90.38932520310084,59.00527537854134L90.54570811867714,59.10720130770895L90.59038895169893,59.13636588930914L91.08187811493873,59.458252659870084L91.26060144702593,59.57581162486909L91.32762269655863,59.61997220524336L91.37230352958044,59.6494296774446L91.52868644515672,59.75266629205195L91.75209061026572,59.90050282293515L92.13187769095103,60.15279146442007L92.17655852397283,60.18254914948739L92.28826060652733,60.257023907071016L92.33294143954912,60.28684017025856L92.91379226883252,60.675989267352094L92.93613268534342,60.691007232921265L92.95847310185432,60.70603984302048L93.07017518440882,60.78123218257667L93.20421768347423,60.8716035775326L93.22655809998513,60.88668012122199L93.47230268160503,61.05278570334608L93.65102601369222,61.173903289147916L93.67336643020312,61.18906037775258L94.00847267786662,61.41691462084439L94.16485559344292,61.523556088689L94.36591934204101,61.66095106964455L94.49996184110641,61.75273566175059L94.83506808876992,61.98280855114539L94.9020893383026,62.02893149854675L95.0584722538789,62.1366932729404L95.23719558596612,62.26008076090043L96.01911016384761,62.80286562277809L96.4659184940656,63.11516754841947L96.6223014096419,63.224833111719995L96.64464182615279,63.240517403406564L98.56591764609018,64.6033520146519L98.81166222771009,64.77965751195777L98.85634306073189,64.81175832183357L99.34783222397168,65.16585573624567L99.61591722210248,65.35974199187996L99.79464055418968,65.4892875047272L99.97336388627689,65.61906000779024L100.44251263300578,65.9607974388378L100.53187429904938,66.0260681092832L100.66591679811478,66.12407662666169L101.49251220901807,66.73126813171164L101.87229928970336,67.01183536072855L102.25208637038867,67.29339109552404L102.60953303456306,67.55927718316303L102.76591595013937,67.67586960917853L102.87761803269386,67.75925556329929L103.19038386384646,67.99317264183296L103.27974552989005,68.06012743323444L103.43612844546635,68.1774227966925L104.59783010403315,69.0537661195832L104.75421301960945,69.17239413527605L105.60314884702365,69.81911854920358L105.84889342864354,70.00716895961182L106.00527634421985,70.12703443809414L106.11697842677434,70.21274887249328L106.34038259188334,70.38439740924238L106.38506342490514,70.41876079901132L106.42974425792694,70.4531388333103L106.58612717350324,70.57356080393464L106.60846759001414,70.59077544901172L106.72016967256864,70.67689993025235L106.87655258814493,70.79760014694767L107.07761633674303,70.95299325533813L107.16697800278664,71.0221374039825L107.52442466696104,71.29918994578676L107.68080758253734,71.42063703351477L107.72548841555913,71.45535921427L107.81485008160273,71.52484750937063L108.10527549624443,71.75100298697632L108.19463716228803,71.82068898323264L108.57442424297334,72.11735787304264L108.61910507599514,72.15231436627872L108.68612632552782,72.20477839519293L109.04357298970223,72.48497951095854L109.24463673830031,72.64291344531316L109.33399840434392,72.71317790050658L109.55740256945292,72.88903673964586L109.64676423549652,72.95946228466985L109.82548756758372,73.1004378532233L110.09357256571452,73.31223436911219L110.33931714733443,73.50672105047866L110.54038089593251,73.66609747104347L111.16591255823772,74.16330855539675L111.18825297474861,74.18110165941093L111.23293380777041,74.21670251196934L111.27761464079222,74.2523180090578L111.29995505730311,74.27012575760202L111.41165713985762,74.35920843391332L111.56804005543391,74.48403840808353L111.67974213798841,74.57328217422543L111.70208255449931,74.59113385635979L111.85846547007561,74.71620546527589L111.99250796914102,74.82350593697291L112.0148483856519,74.8413942304324L112.1935717177391,74.984625056614L112.3946354663372,75.14595652194089L112.50633754889171,75.23566891304444L112.57335879842441,75.28953149457871L112.7520821305116,75.43326755704712L112.886124629577,75.54117577674131L113.1765500442187,75.77528323416567L113.3105925432841,75.88346969993086L113.42229462583859,75.97369464958626L113.4446350423495,75.99175135514139L113.84676253954571,76.31710887932488L114.09250712116558,76.51631842163334L114.22654962023098,76.62510531313072L114.33825170278548,76.7158208545429L114.51697503487269,76.86109459266686L114.58399628440539,76.91560885578846L114.80740044951439,77.09747927451443L115.16484711368878,77.38894935615568L115.18718753019968,77.40718179607143L115.41059169530868,77.58967460732464L115.72335752646127,77.84554383640747L115.92442127505939,78.01025818817655L116.08080419063567,78.13849301558406L116.17016585667929,78.21182549982353L116.57229335387548,78.54222806461019L116.66165501991907,78.61574360547536L116.68399543642998,78.63412981295667L117.33186751524607,79.16822314624798L117.59995251337686,79.38974363009194L117.62229292988776,79.40821770475355L118.31484584172567,79.98190984730769L118.49356917381287,80.1302735812728L118.60527125636737,80.22306864595248L118.71697333892187,80.31590764422234L118.73931375543278,80.33448423059431L119.34250500122705,80.83671838875574L120.01271749655406,81.39639571604931L120.41484499375025,81.7329929170483L120.95101499001186,82.18271179044032L121.46484456976255,82.61463755981814L121.48718498627345,82.63344113640596L121.57654665231705,82.70866276502227L121.66590831836064,82.78390636043363L122.00101456602414,83.06631147797219L122.17973789811134,83.21708423713099L122.24675914764404,83.27365605672503L122.26909956415494,83.29251088916803L122.55952497879665,83.53782873434781L122.58186539530753,83.55671285585092L122.80526956041655,83.74561264900223L122.89463122646013,83.82122235766494L123.05101414203644,83.95359426481235L124.34675829966862,85.05328131553858L124.45846038222312,85.14830967105132L124.61484329779942,85.28142112696642L124.92760912895203,85.54784173995233L125.10633246103923,85.70021075288687L125.12867287755013,85.71926328648559L125.35207704265913,85.90985452285798L125.93292787194252,86.40602584557755L125.95526828845341,86.42512963503142L126.04462995449703,86.50154479284703L126.42441703518232,86.82655084830924L126.64782120029132,87.01789627797936L127.4744166111946,87.7269478118117L128.1446291065216,88.30301236823439L128.3456928551197,88.47603016854342L128.6584586862723,88.7453284316847L128.8818628513813,88.93781613469895L129.1052670164903,89.13040634942354L129.4403732641538,89.41947472813612L129.5297349301974,89.4966001456593L129.6637774292628,89.61230657760663L129.6861178457737,89.6316007459512L130.1999474255244,90.07549841864721L130.5350536731879,90.36524776800724L130.8925003373623,90.67453292045775L131.0712236694495,90.8292597027308L131.1159045024713,90.86795055113035L131.40632991711297,91.11950696611262L131.80845741430917,91.46803213683965L131.92015949686368,91.56489105860899L132.00952116290728,91.64238991164851L132.12122324546178,91.73927812247796L132.43398907661438,92.01066323115177L132.47866990963618,92.04944194673163L132.65739324172338,92.2045934203762L132.9031378233433,92.41798619004085L133.26058448751766,92.72852344981087L133.52866948564846,92.96152524521622L133.55100990215936,92.9809512143313L133.59569073518117,93.01978850803137L133.93079698284467,93.31118536702235L134.19888198097547,93.54439218584847L134.26590323050817,93.6027067045188L134.53398822863898,93.83600871279023L134.84675405979158,94.10827981553223L135.18186030745505,94.40009404362971L135.22654114047685,94.43901188224507L135.33824322303136,94.536310139916L135.38292405605316,94.57522797853136L135.60632822116216,94.76986110519834L135.65100905418396,94.80879358834378L135.69568988720576,94.84772607148918L136.12015780091286,95.21766886741847L136.16483863393466,95.25661599509394L136.18717905044556,95.27608589779915L136.23185988346737,95.31504034773965L136.56696613113084,95.60719872229339L137.03611487785975,96.01634126404154L137.08079571088155,96.05531401964458L137.48292320807775,96.40609810913226L137.70632737318675,96.60100948187026L138.01909320433936,96.87391762166955L138.57760361711186,97.36131687088745L138.86802903175354,97.61479538043918L139.40419902801514,98.08277964393956L139.94036902427675,98.55077489083746L140.36483693798382,98.92126319551122L140.49887943704923,99.03825468497065L140.52121985356013,99.05775021560348L140.58824110309283,99.11624412976694L141.4595173470179,99.87657348557921L141.7052619286378,100.09098405008253L141.74994276165964,100.12996412795061L141.9733469267686,100.32485719502604L142.12972984234491,100.46127099246804L142.19675109187762,100.51972829530638L142.42015525698662,100.71457376765912L142.68824025511742,100.94835172315729L142.71058067162832,100.96783260926007L142.75526150465012,101.00679072033307L142.97866566975912,101.20156663116806L143.15738900184633,101.35736246413497L143.3584527504444,101.53260989414454L143.5595164990425,101.70782803509401L143.64887816508613,101.78568934025233L144.2967502439022,102.35001630583767L144.3861119099458,102.42782635514081L144.5424948255221,102.56397655104186L144.98930315574012,102.95284740206439L145.1680264878273,103.1083393610327L145.32440940340362,103.24436507842832L145.3914306529363,103.30265396917105L145.5254731520017,103.41922076725896L145.6371752345562,103.51633962943676L145.7712177336216,103.63286615506702L146.03930273175237,103.86585696707485L146.1063239812851,103.9240909408299L146.28504731337227,104.07935224844988L146.3967493959268,104.17637226004979L146.53079189499218,104.29277430717461L146.9329193921884,104.64183034211605L147.06696189125378,104.75813353866303L147.3797277224064,105.02940881336143L147.4467489719391,105.08752196974352L147.5807914710045,105.20372631571264L147.67015313704806,105.2811775740295L147.8712168856462,105.45540354806786L147.9829189682007,105.55217094152438L148.2733443828424,105.80366511725393L148.38504646539687,105.90035562692768L148.809514379104,106.26759284592968L148.85419521212577,106.30623243847405L149.01057812770208,106.44143806218669L149.03291854421298,106.46075053619384L149.25632270932198,106.65381669814519L149.43504604140918,106.8082029950945L149.61376937349638,106.96253437505614L150.26164145231246,107.52145750905198L150.28398186882336,107.54071506607146L150.4180243678888,107.65624210252562L150.93185394763944,108.09875586713164L151.22227936228117,108.34862450002534L151.87015144109725,108.90533997111574L152.02653435667358,109.0395753947124L152.45100227038066,109.40363841182544L152.87547018408776,109.76725843190442L153.47866142988204,110.28319987019526L154.03717184265454,110.7600733634377L154.05951225916544,110.77912955816893L154.23823559125265,110.93153884356111L154.50632058938345,111.15998619012008L154.97546933611233,111.5592802854077L155.04249058564506,111.61626947410824L155.31057558377586,111.84409808927246L155.51163933237393,112.01482768176072L155.73504349748293,112.2043864787644L155.93610724608104,112.37485979197676L156.15951141119004,112.56412569837939L156.76270265698432,113.07436309221464L156.80738349000612,113.11211302955829L156.87440473953882,113.16872146047746L157.09780890464782,113.35732104076268L157.20951098720232,113.45155859165257L157.25419182022412,113.48923896747847L157.58929806788763,113.77165140728206L157.85738306601843,113.99730530973342L157.96908514857293,114.09125363115476L158.05844681461653,114.16638373145823L158.23717014670373,114.31655606488486L158.30419139623643,114.37284231614287L158.57227639436724,114.59782989247682L159.17546764016151,115.1031027906242L159.5552547208468,115.42055226857914L159.59993555386862,115.45786653115371L159.89036096851032,115.70020787560027L159.95738221804302,115.75608774114932L160.0914247171084,115.8677925552597L160.7616372124354,116.42528052531038L160.8286584619681,116.48093340064361L161.2754667921861,116.85148394457008L161.521211373806,117.05494040059389L161.744615538915,117.23968480834269L161.968019704024,117.42422419267078L162.07972178657852,117.51641517048579L162.3701472012202,117.75586055911438L162.6829130323728,118.01332604197297L162.9286576139927,118.21532536725654L163.1744021956126,118.41705742986662L163.4648276102543,118.65512623267028L163.59887010931968,118.7648796631511L163.95631677349408,119.05715153281277L164.8275930174192,119.76711834977338L164.93929509997366,119.85788148590825L164.98397593299546,119.89417429251164L165.0733375990391,119.9667232943933L165.11801843206086,120.00298315080407L165.38610343019167,120.22035191037806L165.45312467972437,120.27463918328385L165.52014592925707,120.32890448939459L165.8105713438988,120.56380641257431L165.87759259343147,120.6179582235771L166.12333717505138,120.81631838314253L166.34674134016038,120.99638752467199L166.43610300620398,121.0683434230865L166.97227300246558,121.49925139762566L167.1509963345528,121.64256642985505L167.1733367510637,121.66046570671212L167.46376216570536,121.89296592696317L167.48610258221626,121.9108322536276L167.59780466477076,122.00012727562466L167.64248549779256,122.03582697876092L168.33503840963047,122.58783057230686L168.49142132520674,122.71212602113015L168.96057007193565,123.08421790184465L169.16163382053375,123.24332339860351L169.31801673611005,123.36691590998426L169.45205923517545,123.47274826754348L169.51908048470816,123.5256260044317L169.74248464981716,123.70170817265425L169.78716548283893,123.73689165610615L170.07759089748063,123.96530971360498L170.14461214701336,124.01795313801236L170.30099506258964,124.14069260551754L170.45737797816597,124.26329294998722L170.52439922769864,124.31579359022658L171.21695213953655,124.85678815830529L171.97652630090712,125.44691878584372L172.19993046601613,125.61983773557486L172.40099421461423,125.77520887717026L172.64673879623413,125.96477499643895L172.69141962925593,125.99920428659314L172.78078129529953,126.06802259444383L172.89248337785403,126.15397866358886L172.93716421087584,126.18833839222529L173.00418546040854,126.23985418781858L173.80844045480092,126.85590929468302L173.85312128782272,126.89001640517601L174.34461045106252,127.2643672046512L174.50099336663882,127.38315814074087L174.52333378314972,127.4001146759758L174.56801461617152,127.43402042418059L174.7020571152369,127.53565895444589L174.99248252987863,127.75548067280374L175.126525028944,127.856754920384L175.2158866949876,127.92420579524102L175.3722696105639,128.04211805952755L176.5116308526198,128.89634997260475L176.93609876632692,129.21237893114457L177.7626941772302,129.82428963600404L177.8297154267629,129.87369661926977L177.91907709280648,129.9395274429897L178.1201408414046,130.08744085765568L178.3435450065136,130.25145959424722L178.5222683386008,130.38242196537706L178.63397042115528,130.46416040986688L178.9467362523079,130.69255650057065L178.9914170853297,130.72512959654063L179.2595020834605,130.92025880666316L179.3935445825259,131.0176321175506L179.6616295806567,131.21199065927908L179.9073741622766,131.38969653977125L179.9520549952984,131.42196027004388L180.4658845750491,131.79194333843077L180.89035248875618,132.09611754989285L180.935033321778,132.1280591005043L180.97971415479978,132.1599860065857L181.04673540433248,132.2078479919308L181.35950123548508,132.43075787556353L181.64992665012676,132.6370919817427L182.45418164451917,133.20515330249154L182.52120289405187,133.25227024737023L182.63290497660637,133.33071916429694L182.85630914171537,133.48733326038055L183.03503247380254,133.61234629117644L183.12439413984617,133.67475944769527L183.52652163704235,133.954854390618L183.54886205355325,133.970377592474L183.63822371959688,134.0324337885728L184.28609579841296,134.48046304930998L184.42013829747836,134.5727455554378L184.46481913050016,134.60347344062112L184.48715954701106,134.61883189151402L184.66588287909823,134.74155671448915L185.00098912676177,134.97097609173034L185.42545704046884,135.26027695235751L185.44779745697974,135.2754633300223L185.55949953953427,135.35133297909343L186.09566953579585,135.71409080246553L186.43077578345935,135.9396183958452L186.47545661648115,135.96961954622466L186.81056286414463,136.194096394573L187.41375410993894,136.59580134562057L187.50311577598254,136.6550531142143L187.72651994109154,136.80289147566376L188.77651951710385,137.49205939881688L188.91056201616922,137.5793609341605L188.99992368221282,137.63747409054258L189.08928534825642,137.6955195159732L189.51375326196353,137.97029300278797L190.2509870068232,138.44379825411826L190.3850295058886,138.52937905718068L190.42971033891044,138.55786999039842L190.5860932544867,138.65745096419133L190.6084336709976,138.67165981947508L190.6531145040194,138.70006288551252L190.69779533704124,138.7284476458874L191.34566741585732,139.13804233750093L191.41268866539,139.1802002783905L191.56907158096632,139.27841198862347L191.7031140800317,139.36242033527145L191.9711990781625,139.52994826737694L192.01587991118433,139.55780582466988L192.10524157722793,139.61346968340064L192.28396490931513,139.72457590234512L192.4180074083805,139.8077165605875L192.7977944890658,140.04239332411765L192.8424753220876,140.06991588778567L193.31162406881649,140.3577925678652L193.49034740090372,140.46692726695133L193.69141114950182,140.58935187706038L193.870134481589,140.6978568613542L193.8924748980999,140.71139939052057L194.4063044778506,141.02159250383434L194.7190703090032,141.20919625607596L194.7860915585359,141.24927650426426L195.0541765566667,141.40917829734474L195.2999211382866,141.55515680347747L195.5456657199065,141.7005641729382L195.5680061364174,141.713753402817L195.85843155105908,141.88479602213516L195.92545280059178,141.92415228136895L196.05949529965716,142.00273666019865L197.28821820775667,142.7150356185702L197.75736695448558,142.9831385219459L198.07013278563818,143.16067690562562L198.09247320214908,143.17332154204308L198.33821778376898,143.31208761712483L198.40523903330165,143.3498293169203L198.42757944981255,143.36239981540442L198.49460069934526,143.4000829370797L198.94140902956326,143.65016391565916L199.41055777629217,143.91061322151603L199.52225985884667,143.97230147379727L199.56694069186844,143.99694181089424L200.10311068813004,144.29106072190882L200.21481277068457,144.351970983531L200.23715318719547,144.36413784215551L200.34885526974995,144.42489708206153L200.37119568626085,144.43703373634278L200.75098276694615,144.6425852754473L200.92970609903338,144.73880899072557L201.10842943112056,144.8347068652102L201.51055692831676,145.04928492652598L201.55523776133856,145.07302554030787L201.97970567504564,145.29753167771634L202.53821608781814,145.5901055908103L202.85098191897075,145.75253631117428L203.09672650059065,145.87944580861202L203.14140733361245,145.902452365325L203.23076899965605,145.94840415478134L203.76693899591763,146.22235754791316L203.83396024545033,146.25638960518967L203.87864107847213,146.2790520154464L203.90098149498303,146.2903749830266L203.92332191149396,146.30169245890804L203.99034316102663,146.33561468220913L204.34778982520103,146.5157323337444L204.39247065822283,146.53815219397214L204.59353440682094,146.63878025166383L205.01800232052804,146.84980884500806L205.39778940121332,147.0369988892757L205.71055523236592,147.18999853228564L205.82225731492045,147.2443874016187L206.00098064700762,147.33113061425405L206.20204439560572,147.42830713926892L206.91693772395453,147.77029078147797L207.3190652211507,147.960223013998L207.92225646694502,148.24181902125113L208.03395854949952,148.29352977215075L208.1680010485649,148.3554029116239L208.57012854576112,148.53983703839225L208.83821354389192,148.66180400693713L209.0169368759791,148.7426747630213L209.06161770900093,148.76283661977155L209.1509793750445,148.80309534816985L209.5531068722407,148.98316540498243L209.709489787817,149.0527067865045L210.08927686850228,149.22046170882578L210.31268103361128,149.31838876600585L210.6477872812748,149.4642336408019L211.18395727753636,149.69496278819966L211.27331894358,149.73310309379755L211.4743826921781,149.81858962269774L211.65310602426527,149.8941947549448L211.7871485233307,149.95066131697908L212.23395685354868,150.13741294062825L212.25629727005958,150.14669116569988L212.27863768657048,150.1559634414311L212.52438226819038,150.25758549660011L212.68076518376668,150.32189603504395L213.2616160130501,150.55831961642448L213.35097767909366,150.59434973677006L213.86480725884437,150.79974522010116L213.9765093413989,150.84399458293888L214.06587100744247,150.87929064621557L214.11055184046427,150.8969043547366L214.177573089997,150.92328144156954L214.49033892114957,151.04568957658228L214.73608350276947,151.14107397723194L215.13821099996568,151.29564790722256L215.22757266600925,151.3297431190349L215.24991308252015,151.33825204863714L215.56267891367278,151.4567716032793L215.8084234952927,151.54909438186476L215.8307639118036,151.55745228975087L215.98714682737986,151.61579563983972L216.12118932644526,151.66557651626334L216.16587015946706,151.68212346229834L216.29991265853246,151.73162426208467L216.47863599061967,151.79729765710653L216.50097640713057,151.8054807459151L216.83608265479404,151.9275204794687L216.97012515385947,151.97596687309124L217.05948681990304,152.0081473125992L217.12650806943574,152.03222063179822L217.28289098501205,152.0881865339613L217.72969931523005,152.2464984802479L218.39991181055703,152.4795382599031L218.51161389311156,152.51786024920196L218.57863514264426,152.54078214222557L218.84672014077506,152.63193564661464L218.95842222332953,152.66966361716322L219.40523055354754,152.819088164274L219.5616134691238,152.87082317017655L220.52225137909252,153.18219699872583L220.54459179560342,153.1893064604249L220.92437887628873,153.30924699212372L221.23714470744133,153.40671549245653L221.39352762301763,153.45500674558883L222.06374011834464,153.65861742681975L222.39884636600812,153.75838008431361L222.71161219716072,153.85026032350657L222.77863344669342,153.86979406721L222.93501636226972,153.91515984664346L223.02437802831332,153.94094932170805L223.18076094388962,153.9858464761798L223.22544177691142,153.99861948105604L223.47118635853133,154.06843476105425L223.67225010712943,154.1250074959314L224.1190584373474,154.24895262013735L224.4765051015218,154.34634606725362L224.9009730152289,154.4599619925359L224.99033468127251,154.4835987216827L225.01267509778341,154.48949245856664L225.07969634731612,154.50713705789323L225.4371430114905,154.60030601573084L225.5041642610232,154.61759960397774L225.54884509404502,154.62909807709778L226.3754405049483,154.83736571888554L226.442461754481,154.85388154529414L226.77756800214448,154.93562548148273L227.02331258376438,154.9946850406195L227.1573550828298,155.02658311528234L227.1796954993407,155.031877570538L227.24671674887338,155.04772432497984L227.29139758189518,155.05825763204112L227.53714216351509,155.11574702297128L227.69352507909142,155.15193960607212L227.8945888276895,155.198025255686L228.1179929927985,155.2486399550395L228.20735465884206,155.26871165640156L228.74352465510367,155.38704529415827L229.1009713192781,155.4639363992006L229.3243754843871,155.51118045402373L229.41373715043068,155.5299029136443L229.54777964949608,155.55779868400788L229.90522631367048,155.63108460321823L229.92756673018138,155.63561170798118L230.55309839248656,155.7598214634216L230.57543880899746,155.76416642684202L230.88820464015006,155.82433588118224L231.24565130432447,155.89159042780824L231.31267255385717,155.9040211167945L231.46905546943347,155.93280551266525L231.58075755198797,155.95317674043108L231.69245963454244,155.97339019626764L231.93820421616235,156.01730456548043L231.98288504918415,156.02520689118938L232.78714004357656,156.16312644378783L232.98820379217466,156.1963252501864L233.14458670775096,156.22179185912748L233.18926754077276,156.22901092598116L233.43501212239266,156.26826307175915L234.08288420120874,156.36806623053144L234.17224586725237,156.3814131179291L234.21692670027417,156.38804840576253L234.30628836631774,156.40124278410894L234.39565003236135,156.41433545161775L234.95416044513382,156.49385913975783L235.46799002488453,156.56350675132796L235.73607502301533,156.59850637728147L235.93713877161343,156.62415341140922L236.29458543578784,156.66847182091792L236.33926626880964,156.67389676122457L236.94245751460394,156.74463167194594L237.07650001366932,156.75971771169776L237.52330834388732,156.808341470029L237.54564876039822,156.81070547473382L237.70203167597455,156.82707419798217L237.92543584108353,156.84991385853724L238.39458458781243,156.89579185329137L238.8860737510522,156.9408224102791L239.2211799987157,156.96974495669704L239.42224374731381,156.98640531203216L239.57862666289014,156.99900386966465L239.82437124451,157.0181658081998L239.91373291055362,157.02494107714665L240.11479665915172,157.03980960844382L240.3605412407716,157.05727537002792L240.42756249030433,157.06190377089086L240.69564748843513,157.07983880099513L240.7850091544787,157.08561137727492L240.8743708205223,157.0912810557093L241.0977749856313,157.10500501115322L241.1424558186531,157.10767260383068L241.2318174846967,157.1129306050755L241.2541579012076,157.11422900569946L241.2764983177185,157.11552098504026L241.5222428993384,157.12930805211616L241.611604565382,157.13412846221786L241.8126683139801,157.14459783532246L242.2371362276872,157.16498734014826L242.9743699725469,157.1948749382146L243.0190508055687,157.19646083069932L243.1307528881232,157.20031281047076L243.4658591357867,157.2109021571717L243.4881995522976,157.21155655600583L243.59990163485207,157.2147318859097L243.7562845504284,157.21890664063386L244.13607163111368,157.22773036685174L244.24777371366818,157.2299710255352L244.51585871179898,157.23469100923467L244.67224162737529,157.237015582577L244.8509649594625,157.23928537568779L244.8733053759734,157.2395400845023L245.3871349557241,157.2436186985213L245.74458161989847,157.24444410536023" fill="none"></path></g></g></g></g></g></g><g transform="translate(61, 176)" clip-path="url(#clip_1)"><clipPath id="clip_1"><rect width="268" height="23"></rect></clipPath><g><g><line x1="0" y1="0" x2="0" y2="5" style="visibility: inherit;" fill="rgb(0, 0, 0)" stroke="rgb(204, 204, 204)" stroke-width="1px"></line><line x1="22.34041651089986" y1="0" x2="22.34041651089986" y2="5" style="visibility: inherit;" fill="rgb(0, 0, 0)" stroke="rgb(204, 204, 204)" stroke-width="1px"></line><line x1="44.68083302179972" y1="0" x2="44.68083302179972" y2="5" style="visibility: inherit;" fill="rgb(0, 0, 0)" stroke="rgb(204, 204, 204)" stroke-width="1px"></line><line x1="67.02124953269958" y1="0" x2="67.02124953269958" y2="5" style="visibility: inherit;" fill="rgb(0, 0, 0)" stroke="rgb(204, 204, 204)" stroke-width="1px"></line><line x1="89.36166604359944" y1="0" x2="89.36166604359944" y2="5" style="visibility: inherit;" fill="rgb(0, 0, 0)" stroke="rgb(204, 204, 204)" stroke-width="1px"></line><line x1="111.70208255449931" y1="0" x2="111.70208255449931" y2="5" style="visibility: inherit;" fill="rgb(0, 0, 0)" stroke="rgb(204, 204, 204)" stroke-width="1px"></line><line x1="134.04249906539917" y1="0" x2="134.04249906539917" y2="5" style="visibility: inherit;" fill="rgb(0, 0, 0)" stroke="rgb(204, 204, 204)" stroke-width="1px"></line><line x1="156.38291557629904" y1="0" x2="156.38291557629904" y2="5" style="visibility: inherit;" fill="rgb(0, 0, 0)" stroke="rgb(204, 204, 204)" stroke-width="1px"></line><line x1="178.72333208719888" y1="0" x2="178.72333208719888" y2="5" style="visibility: inherit;" fill="rgb(0, 0, 0)" stroke="rgb(204, 204, 204)" stroke-width="1px"></line><line x1="201.06374859809875" y1="0" x2="201.06374859809875" y2="5" style="visibility: inherit;" fill="rgb(0, 0, 0)" stroke="rgb(204, 204, 204)" stroke-width="1px"></line><line x1="223.40416510899863" y1="0" x2="223.40416510899863" y2="5" style="visibility: inherit;" fill="rgb(0, 0, 0)" stroke="rgb(204, 204, 204)" stroke-width="1px"></line><line x1="245.74458161989847" y1="0" x2="245.74458161989847" y2="5" style="visibility: inherit;" fill="rgb(0, 0, 0)" stroke="rgb(204, 204, 204)" stroke-width="1px"></line><line x1="268.08499813079834" y1="0" x2="268.08499813079834" y2="5" style="visibility: inherit;" fill="rgb(0, 0, 0)" stroke="rgb(204, 204, 204)" stroke-width="1px"></line></g><g transform="translate(0, 8)"><text style="text-anchor: middle; visibility: hidden; font-family: Roboto, sans-serif; font-size: 12px; font-weight: 200;" x="0" y="0" dx="0em" dy="0.95em" fill="rgb(33, 33, 33)" stroke="none" stroke-width="1px">-1k</text><text style="text-anchor: middle; visibility: inherit; font-family: Roboto, sans-serif; font-size: 12px; font-weight: 200;" x="22.34041651089986" y="0" dx="0em" dy="0.95em" fill="rgb(33, 33, 33)" stroke="none" stroke-width="1px">0</text><text style="text-anchor: middle; visibility: inherit; font-family: Roboto, sans-serif; font-size: 12px; font-weight: 200;" x="44.68083302179972" y="0" dx="0em" dy="0.95em" fill="rgb(33, 33, 33)" stroke="none" stroke-width="1px">1k</text><text style="text-anchor: middle; visibility: inherit; font-family: Roboto, sans-serif; font-size: 12px; font-weight: 200;" x="67.02124953269958" y="0" dx="0em" dy="0.95em" fill="rgb(33, 33, 33)" stroke="none" stroke-width="1px">2k</text><text style="text-anchor: middle; visibility: inherit; font-family: Roboto, sans-serif; font-size: 12px; font-weight: 200;" x="89.36166604359944" y="0" dx="0em" dy="0.95em" fill="rgb(33, 33, 33)" stroke="none" stroke-width="1px">3k</text><text style="text-anchor: middle; visibility: inherit; font-family: Roboto, sans-serif; font-size: 12px; font-weight: 200;" x="111.70208255449931" y="0" dx="0em" dy="0.95em" fill="rgb(33, 33, 33)" stroke="none" stroke-width="1px">4k</text><text style="text-anchor: middle; visibility: inherit; font-family: Roboto, sans-serif; font-size: 12px; font-weight: 200;" x="134.04249906539917" y="0" dx="0em" dy="0.95em" fill="rgb(33, 33, 33)" stroke="none" stroke-width="1px">5k</text><text style="text-anchor: middle; visibility: inherit; font-family: Roboto, sans-serif; font-size: 12px; font-weight: 200;" x="156.38291557629904" y="0" dx="0em" dy="0.95em" fill="rgb(33, 33, 33)" stroke="none" stroke-width="1px">6k</text><text style="text-anchor: middle; visibility: inherit; font-family: Roboto, sans-serif; font-size: 12px; font-weight: 200;" x="178.72333208719888" y="0" dx="0em" dy="0.95em" fill="rgb(33, 33, 33)" stroke="none" stroke-width="1px">7k</text><text style="text-anchor: middle; visibility: inherit; font-family: Roboto, sans-serif; font-size: 12px; font-weight: 200;" x="201.06374859809875" y="0" dx="0em" dy="0.95em" fill="rgb(33, 33, 33)" stroke="none" stroke-width="1px">8k</text><text style="text-anchor: middle; visibility: inherit; font-family: Roboto, sans-serif; font-size: 12px; font-weight: 200;" x="223.40416510899863" y="0" dx="0em" dy="0.95em" fill="rgb(33, 33, 33)" stroke="none" stroke-width="1px">9k</text><text style="text-anchor: middle; visibility: inherit; font-family: Roboto, sans-serif; font-size: 12px; font-weight: 200;" x="245.74458161989847" y="0" dx="0em" dy="0.95em" fill="rgb(33, 33, 33)" stroke="none" stroke-width="1px">10k</text><text style="text-anchor: middle; visibility: hidden; font-family: Roboto, sans-serif; font-size: 12px; font-weight: 200;" x="268.08499813079834" y="0" dx="0em" dy="0.95em" fill="rgb(33, 33, 33)" stroke="none" stroke-width="1px">11k</text></g><line x1="0" y1="0" x2="268.08499813079834" y2="0" fill="rgb(0, 0, 0)" stroke="rgb(204, 204, 204)" stroke-width="1px"></line></g></g></g></g></svg>