<svg viewBox="0 0 330 200" xmlns="http://www.w3.org/2000/svg"><g><g><g><g><g><line x1="51.53200149536133" y1="176.89999961853027" x2="46.53200149536133" y2="176.89999961853027" style="visibility: inherit;" fill="rgb(0, 0, 0)" stroke="rgb(204, 204, 204)" stroke-width="1px"></line><line x1="51.53200149536133" y1="159.20999965667724" x2="46.53200149536133" y2="159.20999965667724" style="visibility: inherit;" fill="rgb(0, 0, 0)" stroke="rgb(204, 204, 204)" stroke-width="1px"></line><line x1="51.53200149536133" y1="141.51999969482424" x2="46.53200149536133" y2="141.51999969482424" style="visibility: inherit;" fill="rgb(0, 0, 0)" stroke="rgb(204, 204, 204)" stroke-width="1px"></line><line x1="51.53200149536133" y1="123.82999973297119" x2="46.53200149536133" y2="123.82999973297119" style="visibility: inherit;" fill="rgb(0, 0, 0)" stroke="rgb(204, 204, 204)" stroke-width="1px"></line><line x1="51.53200149536133" y1="106.13999977111816" x2="46.53200149536133" y2="106.13999977111816" style="visibility: inherit;" fill="rgb(0, 0, 0)" stroke="rgb(204, 204, 204)" stroke-width="1px"></line><line x1="51.53200149536133" y1="88.44999980926514" x2="46.53200149536133" y2="88.44999980926514" style="visibility: inherit;" fill="rgb(0, 0, 0)" stroke="rgb(204, 204, 204)" stroke-width="1px"></line><line x1="51.53200149536133" y1="70.75999984741212" x2="46.53200149536133" y2="70.75999984741212" style="visibility: inherit;" fill="rgb(0, 0, 0)" stroke="rgb(204, 204, 204)" stroke-width="1px"></line><line x1="51.53200149536133" y1="53.06999988555909" x2="46.53200149536133" y2="53.06999988555909" style="visibility: inherit;" fill="rgb(0, 0, 0)" stroke="rgb(204, 204, 204)" stroke-width="1px"></line><line x1="51.53200149536133" y1="35.379999923706045" x2="46.53200149536133" y2="35.379999923706045" style="visibility: inherit;" fill="rgb(0, 0, 0)" stroke="rgb(204, 204, 204)" stroke-width="1px"></line><line x1="51.53200149536133" y1="17.689999961853022" x2="46.53200149536133" y2="17.689999961853022" style="visibility: inherit;" fill="rgb(0, 0, 0)" stroke="rgb(204, 204, 204)" stroke-width="1px"></line><line x1="51.53200149536133" y1="0" x2="46.53200149536133" y2="0" style="visibility: inherit;" fill="rgb(0, 0, 0)" stroke="rgb(204, 204, 204)" stroke-width="1px"></line></g><g transform="translate(41.53200149536133, 0)"><text style="text-anchor: end; visibility: hidden; font-family: Roboto, sans-serif; font-size: 12px; font-weight: 200;" x="0" y="176.89999961853027" dx="0em" dy="0.3em" fill="rgb(33, 33, 33)" stroke="none" stroke-width="1px">-0.5</text><text style="text-anchor: end; visibility: inherit; font-family: Roboto, sans-serif; font-size: 12px; font-weight: 200;" x="0" y="159.20999965667724" dx="0em" dy="0.3em" fill="rgb(33, 33, 33)" stroke="none" stroke-width="1px">0</text><text style="text-anchor: end; visibility: hidden; font-family: Roboto, sans-serif; font-size: 12px; font-weight: 200;" x="0" y="141.51999969482424" dx="0em" dy="0.3em" fill="rgb(33, 33, 33)" stroke="none" stroke-width="1px">0.5</text><text style="text-anchor: end; visibility: inherit; font-family: Roboto, sans-serif; font-size: 12px; font-weight: 200;" x="0" y="123.82999973297119" dx="0em" dy="0.3em" fill="rgb(33, 33, 33)" stroke="none" stroke-width="1px">1</text><text style="text-anchor: end; visibility: hidden; font-family: Roboto, sans-serif; font-size: 12px; font-weight: 200;" x="0" y="106.13999977111816" dx="0em" dy="0.3em" fill="rgb(33, 33, 33)" stroke="none" stroke-width="1px">1.5</text><text style="text-anchor: end; visibility: inherit; font-family: Roboto, sans-serif; font-size: 12px; font-weight: 200;" x="0" y="88.44999980926514" dx="0em" dy="0.3em" fill="rgb(33, 33, 33)" stroke="none" stroke-width="1px">2</text><text style="text-anchor: end; visibility: hidden; font-family: Roboto, sans-serif; font-size: 12px; font-weight: 200;" x="0" y="70.75999984741212" dx="0em" dy="0.3em" fill="rgb(33, 33, 33)" stroke="none" stroke-width="1px">2.5</text><text style="text-anchor: end; visibility: inherit; font-family: Roboto, sans-serif; font-size: 12px; font-weight: 200;" x="0" y="53.06999988555909" dx="0em" dy="0.3em" fill="rgb(33, 33, 33)" stroke="none" stroke-width="1px">3</text><text style="text-anchor: end; visibility: hidden; font-family: Roboto, sans-serif; font-size: 12px; font-weight: 200;" x="0" y="35.379999923706045" dx="0em" dy="0.3em" fill="rgb(33, 33, 33)" stroke="none" stroke-width="1px">3.5</text><text style="text-anchor: end; visibility: inherit; font-family: Roboto, sans-serif; font-size: 12px; font-weight: 200;" x="0" y="17.689999961853022" dx="0em" dy="0.3em" fill="rgb(33, 33, 33)" stroke="none" stroke-width="1px">4</text><text style="text-anchor: end; visibility: hidden; font-family: Roboto, sans-serif; font-size: 12px; font-weight: 200;" x="0" y="0" dx="0em" dy="0.3em" fill="rgb(33, 33, 33)" stroke="none" stroke-width="1px">4.5</text></g><line x1="51.53200149536133" y1="0" x2="51.53200149536133" y2="176.89999961853027" fill="rgb(0, 0, 0)" stroke="rgb(204, 204, 204)" stroke-width="1px"></line></g></g><g transform="translate(51, 0)" clip-path="url(#clip_0)"><clipPath id="clip_0"><rect width="278" height="176"></rect></clipPath><g><g><g><line x1="0" y1="0" x2="0" y2="176.89999961853027" fill="rgb(0, 0, 0)" stroke="rgb(66, 66, 66)" stroke-width="1px" opacity="0.25"></line><line x1="23.205666542053223" y1="0" x2="23.205666542053223" y2="176.89999961853027" fill="rgb(0, 0, 0)" stroke="rgb(66, 66, 66)" stroke-width="1px" opacity="0.25"></line><line x1="46.411333084106445" y1="0" x2="46.411333084106445" y2="176.89999961853027" fill="rgb(0, 0, 0)" stroke="rgb(66, 66, 66)" stroke-width="1px" opacity="0.25"></line><line x1="69.61699962615967" y1="0" x2="69.61699962615967" y2="176.89999961853027" fill="rgb(0, 0, 0)" stroke="rgb(66, 66, 66)" stroke-width="1px" opacity="0.25"></line><line x1="92.82266616821289" y1="0" x2="92.82266616821289" y2="176.89999961853027" fill="rgb(0, 0, 0)" stroke="rgb(66, 66, 66)" stroke-width="1px" opacity="0.25"></line><line x1="116.02833271026611" y1="0" x2="116.02833271026611" y2="176.89999961853027" fill="rgb(0, 0, 0)" stroke="rgb(66, 66, 66)" stroke-width="1px" opacity="0.25"></line><line x1="139.23399925231934" y1="0" x2="139.23399925231934" y2="176.89999961853027" fill="rgb(0, 0, 0)" stroke="rgb(66, 66, 66)" stroke-width="1px" opacity="0.25"></line><line x1="162.43966579437256" y1="0" x2="162.43966579437256" y2="176.89999961853027" fill="rgb(0, 0, 0)" stroke="rgb(66, 66, 66)" stroke-width="1px" opacity="0.25"></line><line x1="185.64533233642578" y1="0" x2="185.64533233642578" y2="176.89999961853027" fill="rgb(0, 0, 0)" stroke="rgb(66, 66, 66)" stroke-width="1px" opacity="0.25"></line><line x1="208.850998878479" y1="0" x2="208.850998878479" y2="176.89999961853027" fill="rgb(0, 0, 0)" stroke="rgb(66, 66, 66)" stroke-width="1px" opacity="0.25"></line><line x1="232.05666542053223" y1="0" x2="232.05666542053223" y2="176.89999961853027" fill="rgb(0, 0, 0)" stroke="rgb(66, 66, 66)" stroke-width="1px" opacity="0.25"></line><line x1="255.26233196258545" y1="0" x2="255.26233196258545" y2="176.89999961853027" fill="rgb(0, 0, 0)" stroke="rgb(66, 66, 66)" stroke-width="1px" opacity="0.25"></line><line x1="278.4679985046387" y1="0" x2="278.4679985046387" y2="176.89999961853027" fill="rgb(0, 0, 0)" stroke="rgb(66, 66, 66)" stroke-width="1px" opacity="0.25"></line></g><g><line x1="0" y1="176.89999961853027" x2="278.4679985046387" y2="176.89999961853027" fill="rgb(0, 0, 0)" stroke="rgb(66, 66, 66)" stroke-width="1px" opacity="0.25"></line><line x1="0" y1="159.20999965667724" x2="278.4679985046387" y2="159.20999965667724" fill="rgb(0, 0, 0)" stroke="rgb(66, 66, 66)" stroke-width="1px" opacity="0.25"></line><line x1="0" y1="141.51999969482424" x2="278.4679985046387" y2="141.51999969482424" fill="rgb(0, 0, 0)" stroke="rgb(66, 66, 66)" stroke-width="1px" opacity="0.25"></line><line x1="0" y1="123.82999973297119" x2="278.4679985046387" y2="123.82999973297119" fill="rgb(0, 0, 0)" stroke="rgb(66, 66, 66)" stroke-width="1px" opacity="0.25"></line><line x1="0" y1="106.13999977111816" x2="278.4679985046387" y2="106.13999977111816" fill="rgb(0, 0, 0)" stroke="rgb(66, 66, 66)" stroke-width="1px" opacity="0.25"></line><line x1="0" y1="88.44999980926514" x2="278.4679985046387" y2="88.44999980926514" fill="rgb(0, 0, 0)" stroke="rgb(66, 66, 66)" stroke-width="1px" opacity="0.25"></line><line x1="0" y1="70.75999984741212" x2="278.4679985046387" y2="70.75999984741212" fill="rgb(0, 0, 0)" stroke="rgb(66, 66, 66)" stroke-width="1px" opacity="0.25"></line><line x1="0" y1="53.06999988555909" x2="278.4679985046387" y2="53.06999988555909" fill="rgb(0, 0, 0)" stroke="rgb(66, 66, 66)" stroke-width="1px" opacity="0.25"></line><line x1="0" y1="35.379999923706045" x2="278.4679985046387" y2="35.379999923706045" fill="rgb(0, 0, 0)" stroke="rgb(66, 66, 66)" stroke-width="1px" opacity="0.25"></line><line x1="0" y1="17.689999961853022" x2="278.4679985046387" y2="17.689999961853022" fill="rgb(0, 0, 0)" stroke="rgb(66, 66, 66)" stroke-width="1px" opacity="0.25"></line><line x1="0" y1="0" x2="278.4679985046387" y2="0" fill="rgb(0, 0, 0)" stroke="rgb(66, 66, 66)" stroke-width="1px" opacity="0.25"></line></g></g></g><g><g><line x1="0" y1="159.20999965667724" x2="278.4679985046387" y2="159.20999965667724" fill="rgb(0, 0, 0)" stroke="rgb(153, 153, 153)" stroke-width="1.5px"></line></g></g><g><g><line x1="23.205666542053223" y1="0" x2="23.205666542053223" y2="176.89999961853027" fill="rgb(0, 0, 0)" stroke="rgb(153, 153, 153)" stroke-width="1.5px"></line></g></g><g><g><g><g><g><path style="fill: none;" stroke="rgb(255, 112, 67)" stroke-width="2px" d="M31.768557496070862,-3.442732077548784L31.97740849494934,4.124996971900986L32.13984816074371,0.7051344170704074L32.34869915962219,-9.516747209820235L32.48793315887451,-7.037230207703014L32.557550158500675,8.104516829605075L32.62716715812683,-5.198909265484775L32.83601815700531,2.0766600447975554L33.11448615550995,25.239354129548115L33.18410315513611,21.529892493243484L33.64821648597717,24.273913498806426L33.78745048522949,31.270514567172004L33.857067484855655,22.963251846473405L34.20515248298645,19.946129317237958L34.59964881420135,36.088009813723644L34.78529414653778,30.62218868139174L35.319024477005,45.284916666428664L35.527875475883484,44.91579932682632L35.59749247550964,57.04968827142198L35.6206981420517,48.76834979673634L35.9687831401825,56.623501029974506L36.22404547214508,57.74374241243062L36.47930780410767,44.20946979207043L37.036243801116946,58.670864911392705L37.314711799621584,74.08812750556027L37.54676846504211,80.32997579120466L37.802030797004704,87.15960575203353L38.01088179588318,81.76196529197563L38.28934979438782,78.57779849629232L38.59102345943451,61.6135230607195L38.8926971244812,43.976307913115996L38.93910845756531,44.54437967941527L39.03193112373352,33.971926620150285L39.21757645606995,54.81084998964666L39.519250121116634,63.2030929362254L39.82092378616333,53.67614820823119L39.913746452331544,64.93175696960212L40.28503711700439,54.07977167845161L40.56350511550903,56.02877115934576L40.70273911476135,72.42599576621663L40.81876744747162,61.589574959688086L41.09723544597626,70.61916238368501L41.14364677906036,70.9791123587555L41.49173177719116,66.3597005182874L41.51493744373322,88.03402674996275L41.67737710952759,93.0643021936639L41.793405442237855,81.21224312671659L41.90943377494812,89.77281014298767L42.90727743625641,77.4921015621837L42.93048310279846,95.4183033122806L43.16253976821899,87.73772752709505L43.2089511013031,91.67810908833039L43.69627009868622,94.11316712648131L43.9051210975647,103.03630691374927L43.92832676410675,97.46437000888936L44.04435509681702,79.70748572908663L44.11397209644318,72.88201360021445L45.13502142429352,92.528299607632L45.32066675662995,96.92306781005612L45.343872423171995,97.3132641855741L45.599134755134585,98.44008781950672L45.66875175476074,106.20384287325423L45.87760275363922,98.24587815927102L46.24889341831207,99.34386836118573L46.318510417938235,105.30923058612578L46.50415575027466,103.38796355795112L46.66659541606903,104.54967379503975L46.75941808223724,110.90741354813295L46.7826237487793,109.37316458925767L46.92185774803162,106.53288743486912L47.10750308036804,96.35643771324011L47.15391441345215,106.40521750362971L47.1771200799942,121.73685132460058L47.8268787431717,121.01068783975772L47.8732900762558,99.11334013692908L48.10534674167633,119.04002910017985L48.15175807476044,118.78536452594597L48.59266573905945,116.24165172406143L48.84792807102203,114.53575998081816L48.89433940410614,109.8498421302698L49.3584527349472,110.06537173567877L49.45127540111542,98.35068171196473L49.706537733078,112.16980905902952L49.91538873195648,107.1462781717623L50.541941728591915,113.0721742685611L50.56514739513398,115.48926368690786L50.890026726722716,116.1940842340546L50.936438059806825,124.37492259053519L50.98284939289093,133.27792779307535L51.029260725975035,128.4890099891799L51.23811172485352,119.5347218199556L51.35414005756378,129.10233858346942L51.81825338840484,126.45484274169712L51.91107605457306,129.61362257014665L52.09672138690948,129.56022640891845L52.11992705345154,121.1863344821232L52.35198371887207,116.05273248057853L52.42160071849823,127.1625771084272L52.49121771812439,130.23779395147315L52.74648005008698,131.44589402937757L53.21059338092804,128.95839519632864L53.3266217136383,134.81182385917404L53.34982738018036,137.41865059008333L53.51226704597474,137.65038212954892L53.60508971214295,138.02998086716264L54.022791709899906,130.2695995019566L54.13882004261016,120.89546151331928L54.60293337345123,130.5575399664696L54.7653730392456,127.74127729130906L54.85819570541382,116.08750627996493L54.95101837158203,115.48368311250731L55.0670467042923,120.43918631970598L55.20628070354462,114.80847996179776L55.39192603588104,130.2291361846392L55.415131702423096,133.45328237274973L55.693599700927734,124.19849960193224L55.7632167005539,128.57682010357286L56.412975363731384,138.79245960498986L56.71464902877808,130.2364656519609L56.78426602840423,137.47550401908805L56.853883028030396,135.47281230695543L57.132351026535034,142.07146801480835L57.480436024665835,141.96144318657628L58.13019468784332,122.86572178770423L58.153400354385376,131.7025540413369L58.17660602092743,130.95481160968745L58.43186835289002,139.70358409961435L58.54789668560028,140.3606168905826L58.80315901756287,139.01304530915397L58.872776017189025,138.31722428388184L59.19765534877777,141.80267428725531L59.4297120141983,127.67667137503183L59.87061967849731,133.71455714522875L59.986648011207585,122.2420523117735L60.72922934055328,127.01943805842963L60.79884634017944,132.81318444151705L61.12372567176819,136.8923434028819L61.14693133831024,134.49409171983774L61.54142766952515,142.97251056167215L61.843101334571834,141.51305260354604L62.098363666534425,136.6994525441934L62.12156933307647,118.11271319673138L62.144774999618534,124.285726923941L62.88735632896423,130.33726074114162L63.30505832672119,136.40314733480494L63.46749799251556,142.5238572641681L63.49070365905762,138.9026133156392L63.62993765830994,141.08844799181043L64.16366798877716,145.01760235632153L64.32610765457153,144.1398462027079L64.51175298690795,148.82949669850993L65.0918946504593,137.36388102092408L65.1847173166275,140.17643761886342L65.50959664821625,144.9018490124823L65.55600798130035,147.73752773341837L66.29858931064607,143.0047157415736L66.46102897644043,146.50898385505215L66.6698799753189,141.42886920151872L66.9715536403656,147.20463803685521L67.59810663700104,136.7755026883321L67.87657463550568,128.41776586851287L68.08542563438415,129.0560634616969L68.15504263401031,124.0223432988192L68.47992196559906,129.4039974134434L68.57274463176728,128.07358242134674L68.96724096298217,139.6570377450918L69.1992976284027,133.1189178531906L69.24570896148681,141.54579076446555L69.47776562690734,146.28447920918072L69.57058829307556,150.67254407931907L69.87226195812225,140.43953586117743L70.05790729045867,142.53318208441272L70.15072995662689,134.69258101961097L70.26675828933716,131.57064615856757L70.98613395214082,136.94235216967795L71.56627561569213,145.3069639000224L71.75192094802856,148.12570994687948L72.7265589427948,151.62525908476616L72.88899860858916,153.28835307039287L73.1210552740097,153.77874486325382L73.44593460559844,151.3659262338704L73.46914027214049,154.17575506659063L73.63157993793489,155.99294533468967L73.67799127101898,153.01836009025217L73.7708139371872,148.10719513197216L73.79401960372925,150.75426762931664L73.84043093681335,126.92350141691227L74.07248760223389,138.0725557947505L74.11889893531799,144.9157393976844L74.5133952665329,147.0159767122073L74.72224626541137,144.76230465537327L75.30238792896272,143.6135191454436L75.37200492858886,140.0599880800373L75.46482759475708,142.9308225550051L75.74329559326172,145.3344055139077L75.76650125980377,149.4451712502915L76.13779192447662,152.1828543243494L76.18420325756074,153.60433916926098L76.23061459064483,149.7583238363407L76.71793358802796,143.7187983848705L76.88037325382233,145.79855331653306L77.11242991924286,144.24692923078618L77.59974891662598,141.26925287945474L77.6925715827942,148.11278437914726L77.97103958129884,152.1862959792284L78.20309624671935,153.6448419062461L78.24950757980348,154.02200632876495L78.29591891288757,150.2615767193889L78.41194724559784,123.5347281862195L78.4351529121399,137.01491953977788L78.71362091064454,141.21002508296408L79.38658524036408,144.74244949067062L79.47940790653229,144.9620430554071L79.73467023849487,149.63895445788523L79.78108157157898,153.04369358323754L79.80428723812103,148.7965673454502L80.3148119020462,141.27686607638887L80.43084023475647,147.80272424622842L80.662896900177,152.03804981638777L80.9181592321396,150.50808342409846L80.94136489868164,132.25252159486186L80.98777623176575,138.02089881672975L81.19662723064424,143.34421225520958L81.26624423027039,132.42809317099037L81.4054782295227,133.20361921442827L81.61432922840117,140.99154102587235L81.98561989307403,143.62407048432587L82.98346355438233,141.83488699478727L83.05308055400849,133.25090084304108L83.19231455326081,114.00292666286234L83.23872588634491,127.45508741334268L83.33154855251313,116.75019371857329L83.61001655101776,125.53823891422296L83.8884845495224,136.7559598176212L84.05092421531677,143.97375837423465L84.09733554840088,141.5834468000397L84.1901582145691,140.24600204281413L84.83991687774657,145.16989528355225L85.65211520671843,148.62564943980448L85.67532087326049,151.78788342534858L85.9769945383072,151.99655438672275L86.00020020484925,151.39359925027372L86.13943420410156,153.25516893704736L86.20905120372773,152.4269017689312L86.4179022026062,154.75900261918744L86.48751920223236,153.83796223102442L86.55713620185853,155.7818478804384L86.81239853382111,152.7763883855282L86.88201553344726,152.77191273353128L87.02124953269958,149.4558074276032L87.06766086578368,150.75321918812995L87.5085685300827,150.03864061289994L87.8102421951294,144.95676701295227L88.06550452709197,144.0510869401584L88.39038385868074,145.25076580678572L88.9937311887741,150.5742487760144L89.01693685531616,153.3068696864764L89.41143318653107,154.65492001658535L89.68990118503571,156.37124807646336L89.82913518428802,148.5719166965661L90.50209951400757,150.93722215031104L90.91980151176453,151.54791714305142L90.98941851139068,154.4614825096678L91.94085083961487,153.35756271479175L92.14970183849336,155.17941200438415L92.28893583774567,156.0803328578509L92.38175850391387,156.17042956035544L92.45137550354005,157.277206695799L92.47458117008209,156.69247817995338L92.5674038362503,146.68642527095415L92.70663783550263,150.96251469479353L92.79946050167084,152.9710370026423L92.84587183475493,154.90128490727224L93.07792850017547,155.4660239833611L93.4028078317642,153.97497168100733L93.44921916484833,155.11451754130226L93.54204183101653,153.9281840263556L93.63486449718475,155.32311779956336L93.70448149681091,154.57117401418L93.79730416297912,155.1409833266858L93.84371549606324,155.58954445106863L93.89012682914733,156.40026462062423L94.05256649494171,154.90823261529584L94.09897782802581,145.59903442633657L94.60950249195099,147.67558312339156L94.79514782428741,151.2575770338526L94.86476482391357,154.31556689623596L94.91117615699768,155.468630712597L95.07361582279205,148.83753890345878L95.30567248821258,152.7455315060471L95.70016881942749,154.4317028014422L95.7465801525116,153.58327789714363L95.86260848522187,153.449962699848L95.90901981830596,154.879410834075L96.51236714839936,155.2261600379786L96.5355728149414,156.44913875735085L96.55877848148346,152.0210392813554L96.67480681419373,154.1555091752698L96.81404081344604,153.4983241724379L96.8372464799881,146.73068969815415L97.0925088119507,146.93065221728705L97.27815414428711,151.18117561829712L97.30135981082915,154.038343784218L97.64944480895997,155.69153298956638L97.81188447475434,154.99434519805845L98.02073547363281,154.06727227034452L98.15996947288512,148.29990694292226L98.50805447101594,148.00347553261477L98.57767147064209,152.41131513235217L98.74011113643645,136.7908024093652L98.92575646877289,145.57169114756002L99.73795479774476,150.330384425756L100.20206812858582,152.68590971992302L100.36450779438019,150.80394414181046L100.38771346092224,153.3509679120155L102.38340078353882,143.02178595947365L102.6386631155014,139.1184486580013L102.68507444858551,147.06264571782725L103.19559911251068,151.4732909076152L103.47406711101532,144.62944220210912L103.65971244335175,143.0397255026755L103.84535777568817,149.437977803587L104.33267677307128,153.10212382562415L104.4254994392395,155.3157274056107L104.56473343849183,155.44389773490124L105.42334310054778,155.7786351369977L105.81783943176269,155.8671875394352L106.2123357629776,156.86182776792992L106.58362642765044,155.39593026884978L106.74606609344484,155.4626512888455L106.86209442615508,156.5558348995485L107.18697375774384,157.4058772677001L107.27979642391205,156.90701987826662L107.44223608970641,157.76801785055167L108.64893074989318,146.46495635057295L108.81137041568756,150.8348159597411L109.69318574428559,153.82707291096685L109.94844807624817,154.37449605411993L110.11088774204255,151.61929272009888L110.22691607475281,154.42019829797218L110.45897274017334,154.82840912790857L110.50538407325745,156.4483487454639L110.55179540634155,157.36103633204291L110.71423507213593,157.6182063797338L110.73744073867798,144.55294764583957L110.85346907138825,149.53601918449363L111.01590873718261,149.38605986836302L111.22475973606109,132.44696395369022L111.3175824022293,142.89693433895104L111.68887306690216,149.36488174912404L111.85131273269654,151.33526192420092L111.89772406578064,153.50348294704273L111.99054673194885,152.5499770890468L112.29222039699555,153.38624979191536L112.38504306316376,155.4510043770629L112.77953939437867,152.3330036219216L112.82595072746277,154.74779568889215L112.89556772708892,156.21286660775053L113.26685839176179,143.83887732729303L113.47570939064025,149.93128921082769L113.56853205680846,152.11908393932825L113.80058872222901,154.82782827830087L113.89341138839721,153.87968951125714L114.07905672073365,146.14454235046873L114.35752471923828,150.10832610575252L114.61278705120087,148.62122771491437L114.82163805007934,151.81546232394305L115.47139671325684,154.70703693125185L115.49460237979889,154.8424424839985L115.54101371288299,156.42113826603062L115.58742504596711,157.42417684108656L115.61063071250916,157.48247300975316L115.72665904521944,150.16374882251384L115.8890987110138,153.42810364913038L116.00512704372407,155.6813699258126L116.02833271026611,156.65705009058252L116.1907723760605,157.4695216044822L116.3300063753128,157.7364193692547L116.35321204185486,158.30150398061411L116.53885737419128,156.463153720631L116.74770837306977,156.0597968834449L116.86373670578004,156.10930499730145L116.93335370540619,154.91332090341473L117.11899903774261,156.50383060079687L117.25823303699492,156.7017982250564L117.55990670204163,153.52313862117586L117.69914070129396,153.9127060374885L117.8151690340042,155.9967757832128L117.83837470054627,139.68751190374283L118.25607669830323,140.31037640517852L118.5113390302658,147.83373144316138L118.65057302951813,151.56435948839237L118.76660136222839,154.55378392133326L118.9522466945648,156.3795600104719L119.02186369419098,147.79735185669915L119.25392035961151,151.49232513261938L119.62521102428435,154.52600318820728L119.64841669082641,153.97716013042842L119.88047335624695,155.64618510199878L120.20535268783568,155.63267088791082L120.41420368671417,155.87807871633325L120.57664335250854,156.30777604949637L120.66946601867676,157.2356636618165L121.08716801643372,155.12788317343092L121.17999068260193,156.71189979552128L121.203196349144,157.06817129654596L121.87616067886351,157.6277659224892L122.15462867736817,158.1827582017328L122.1778343439102,158.55859113937703L122.89721000671388,158.74292688532867L123.0828553390503,158.4369754773526L123.19888367176057,158.66250747592306L123.31491200447083,158.84892404128817L123.33811767101288,158.3511416423443L123.9646706676483,158.67943391732425L124.66084066390991,158.82007531331746L125.07854266166687,158.91714676587628L125.63547865867615,139.48891101121959L126.16920898914337,147.15190262223257L126.19241465568543,151.90431233460066L126.28523732185364,153.68403611843416L126.37805998802185,154.5629208041808L126.72614498615265,156.3156706498515L126.91179031848907,157.43331794785865L126.98140731811525,158.04211981251396L127.00461298465729,157.62088478920438L127.30628664970398,157.9086475582328L127.32949231624603,157.88501359409653L127.56154898166656,158.29202883238227L127.65437164783476,157.88074487373993L127.81681131362916,157.9842330427211L129.16273997306823,158.37930909768858L129.2787683057785,157.9229637409534L129.44120797157288,157.69234500338163L129.76608730316164,148.39758486456793L129.95173263549805,151.38629931944942L129.9749383020401,154.5033492709567L130.20699496746064,156.04028567110763L130.81034229755403,157.00412439099114L130.83354796409606,146.81726797816663L130.92637063026427,151.5089674616666L131.3208669614792,154.46013882383627L131.5529236268997,155.73082705481397L132.4115332889557,154.91686060226868L133.10770328521727,156.62487119078787L133.31655428409576,155.47444943732302L133.64143361568452,156.45731796366738L133.87349028110503,157.50332533337289L134.10554694652558,158.09724274355008L134.45363194465637,158.00939970916895L134.54645461082458,158.36903586763157L134.6856886100769,158.68026409570643L134.70889427661896,158.77792479983327L135.24262460708619,158.0329996175968L135.59070960521697,158.4966128008165L135.96200026988984,140.7883525917281L136.14764560222625,141.434293170486L136.19405693531036,147.39446663658322L136.49573060035704,152.02064453599866L136.913432598114,129.38452164904987L137.02946093082429,141.27403470582624L137.1222835969925,148.41678512715282L137.23831192970277,152.70535060211049L137.5631912612915,155.29067713528875L137.60960259437562,156.74168928618568L137.79524792671205,157.68382749087624L138.05051025867462,158.2169349987209L138.42180092334746,158.51579910674445L138.7002689218521,158.73015422309433L138.72347458839417,158.67138329062283L138.76988592147828,158.79197714559876L139.11797091960906,158.78114165578518L139.39643891811372,157.65962187064912L139.46605591773988,156.77854154298515L139.7445239162445,157.30930667418036L140.06940324783326,157.93300031034474L140.41748824596405,157.69534375166361L140.46389957904813,157.96930267200196L140.57992791175843,157.08095891026414L140.62633924484254,157.10292457585282L140.85839591026306,153.15312937437687L140.90480724334716,155.36295829830303L140.95121857643127,156.64056553740642L141.3921262407303,157.55831654130904L141.4385375738144,158.17172539852015L141.46174324035644,158.49185849676363L141.50815457344055,158.64760604987984L141.85623957157134,158.8567727058897L142.34355856895448,158.67782093318436L142.38996990203856,158.82763724693623L142.80767189979554,158.9255708889298L143.03972856521608,157.50140074895458L143.3646078968048,158.0485806687828L143.94474956035614,158.32560230487235L144.24642322540285,158.1537574869621L144.80335922241213,158.45122371546935L145.3602952194214,158.61372371628002L145.80120288372038,158.84281360600903L145.94043688297273,158.92733466337367L145.96364254951476,158.6545116234413L146.03325954914092,158.85203541955255L146.93828054428099,158.94506849610238L147.19354287624358,158.25918024426647L147.23995420932772,157.1823288131543L147.4720108747482,157.8889350231032L147.63445054054262,156.91224247157535L147.70406754016875,157.6892552580319L147.9361242055893,158.25636200805738L148.21459220409395,157.25751335954433L148.23779787063597,157.99172935982162L148.28420920372008,158.40383554391158L148.51626586914062,158.47537614073082L148.70191120147706,158.7033631204936L148.91076220035552,158.7726733138679L149.119613199234,158.92510535403088L149.21243586540223,158.97438833157653L149.88540019512178,158.80475127038898L149.97822286128996,158.3647762701235L150.14066252708434,157.88838494412832L150.60477585792543,158.4056128756813L150.79042119026184,158.23674649538765L150.95286085605622,150.24316447719923L151.02247785568238,153.8146071290405L151.16171185493468,155.8692197677599L151.27774018764495,157.14668742413733L151.41697418689728,157.23046617617425L151.6954421854019,157.87360323812965L151.7650591850281,157.2723048744043L151.9507045173645,157.21859592386633L152.06673285007477,157.0308920382538L152.20596684932707,157.3410848915214L152.62366884708405,157.95584623244045L152.76290284633635,158.23811014167077L153.0877821779251,158.61455048368015L153.15739917755127,158.72942705255895L153.2966331768036,158.82669543156925L153.38945584297178,158.2239488554206L153.59830684185027,158.4881559193681L153.71433517456055,158.70271720595562L154.01600883960725,158.70782696401457L154.1320371723175,158.48242577832696L154.57294483661653,158.6340645218622L154.61935616970064,158.82986080181493L154.781795835495,158.78573268939775L154.80500150203704,158.5237706539982L155.03705816745756,158.78299782791768L155.222703499794,158.82498892835162L155.40834883213046,158.33073418787666L156.08131316184998,157.9261021812271L156.10451882839203,158.36974982512237L156.24375282764436,158.64808517046654L156.77748315811155,158.8291496253234L157.07915682315829,158.9292045885392L157.7521211528778,158.94316086063543L157.9145608186722,159.0302186294608L158.3554684829712,159.09633433702126L158.79637614727022,159.1272445986736L159.42292914390563,159.15037953128984L160.00307080745696,159.1572761044306L160.02627647399902,158.93953325045365L160.21192180633545,159.03207748662183L160.4903898048401,157.5588264360994L160.9777088022232,158.12044809881127L161.04732580184938,158.51054292249572L161.325793800354,158.75056522501873L161.53464479923247,157.57951649083807L161.766701464653,158.2062420524557L161.9755524635315,158.16959800036258L162.20760912895204,158.17784350263528L162.83416212558745,158.55745083737065L162.88057345867156,158.6485237101863L162.95019045829773,158.82725332533178L163.18224712371824,158.91184413707043L163.29827545642854,158.8814582739468L163.34468678951265,158.362361896618L163.69277178764344,158.6887641266761L163.97123978614806,158.78788352201786L164.08726811885836,158.31365356125275L164.18009078502655,158.66052436257638L164.36573611736299,158.83888053560392L164.43535311698915,158.93247881891716L164.71382111549377,159.01610296065982L165.3403741121292,159.04215938087708L165.7348704433441,159.04094972718437L165.78128177642824,159.0205191925796L166.08295544147492,157.28541855985807L166.15257244110109,158.01867575757575L166.29180644035338,158.48014333604763L166.98797643661499,158.76015504767483L167.05759343624115,158.66476635378356L167.5217067670822,158.60947661888994L167.7769690990448,158.7479229863239L168.00902576446535,158.91873764421106L168.24108242988586,158.93396547187686L168.35711076259614,158.96442647873312L168.65878442764281,159.05749337733278L168.98366375923158,159.11255747355602L169.23892609119414,159.12626908806993L169.49418842315674,159.1322961437581L169.79586208820342,159.1575471046024L169.93509608745575,159.16924260299143L170.30638675212862,159.03049879394072L171.21140774726868,159.09307435038946L171.32743607997892,159.06350884074496L171.37384741306303,158.98411798479825L171.46667007923128,158.9763248407732L171.51308141231536,159.0633434884622L171.79154941082,159.03654675793447L171.86116641044617,159.09032608030702L171.9307834100723,158.60022905083355L172.23245707511904,158.75592482998235L172.30207407474518,158.60802668519904L172.55733640670778,158.47869063044783L172.78939307212832,158.75137453456148L172.8822157382965,158.89957198948966L173.43915173530578,158.9998274375198L173.62479706764222,159.06648597060607L173.64800273418427,158.81768514686672L173.94967639923098,158.95223392142023L173.972882065773,158.76122669076665L174.08891039848328,158.76679428815052L174.13532173156736,158.90612456186375L174.85469739437104,159.00536505241294L175.0171370601654,159.0415470802523L175.5044560575485,159.0565620831032L175.713307056427,159.0858696687543L175.87574672222138,158.5269960304701L176.0149807214737,158.78163993247003L176.08459772109984,158.94849289542003L176.31665438652038,159.0380876043498L176.3630657196045,159.0478461693045L176.66473938465117,159.10580078211822L176.73435638427736,159.09333277956836L176.8967960500717,159.07775413870044L177.0592357158661,159.0813904899183L177.12885271549226,158.10149333853337L177.84822837829591,158.45479390675672L178.6372210407257,158.71109642166738L178.86927770614622,158.87524316496646L179.0781287050247,159.0000491887944L179.3333910369873,159.012390490604L179.37980237007142,159.04865057253082L179.4726250362396,159.07515735409856L179.5886533689499,158.6730239636135L179.635064702034,158.85261563251646L179.70468170166015,158.97895517513896L180.54008569717408,158.97851774334515L180.58649703025816,158.9588204698576L181.09702169418335,158.57533152474895L181.25946135997773,158.81787529884596L181.2826670265198,158.93242732783628L181.32907835960387,159.02514164606987L181.4683123588562,159.07269939046984L181.7699860239029,159.05225560551375L181.9092200231552,159.0590462497822L182.00204268932342,158.99364117482318L182.1644823551178,158.95072710934787L183.3479713487625,159.04508312384422L183.78887901306155,159.08872669320235L184.6474886751175,159.12521058717536L184.71710567474366,159.15117008782653L184.80992834091185,159.16758931314826L185.01877933979034,159.153052855535L185.25083600521089,159.07158539091395L185.43648133754732,159.11491230940345L185.55250967025756,158.45458958380328L185.8773890018463,158.0211458874884L185.9238003349304,158.48396029100437L186.20226833343506,158.7599956242491L186.34150233268738,158.81043180781225L186.61997033119204,158.08006684303092L186.8752326631546,158.50522262388176L186.9216439962387,158.74483572285777L187.45537432670594,158.74216765421443L187.89628199100494,158.91180912222947L187.94269332408908,159.00754761633277L187.98910465717316,159.05408562248624L188.05872165679932,158.9232907751534L188.38360098838805,158.82991384237175L188.68527465343476,158.97190009911537L189.52067864894866,159.00111553873757L189.59029564857482,159.07762406568938L189.7063239812851,159.11135543005565L189.93838064670564,159.14536394964978L190.12402597904205,159.00947738808296L190.2168486452103,158.99607527277334L190.6345506429672,158.97534738862467L190.65775630950927,159.03894936951934L190.7505789756775,159.10183596083485L191.42354330539703,158.3944857181342L191.56277730464933,158.67250914949028L191.60918863773347,158.8540882686969L191.63239430427552,158.95415510974684L191.81803963661193,159.03340059000678L192.16612463474274,158.90256597394537L192.60703229904175,158.9955504486897L192.6302379655838,159.06657856789064L192.74626629829407,158.98617576346803L193.30320229530335,158.91546257665144L193.65128729343414,158.977861194792L193.69769862651825,159.0626187402081L194.04578362464903,159.0543050546947L194.67233662128447,158.6674767258019L194.7651592874527,158.8483965275023L194.99721595287323,158.98324614177275L196.08788228034976,159.05437776933437L196.22711627960206,159.0992431624926L196.31993894577025,158.2549968424048L196.4127616119385,158.24355094747784L196.85366927623747,158.55757379068908L197.61945627212523,158.81527632150147L197.75869027137756,158.95464859628555L197.80510160446167,159.0405663489684L197.96754127025605,159.0962266540422L197.99074693679808,159.02609870934947L198.03715826988218,159.05598474145094L198.08356960296632,158.68187296556113L198.75653393268584,158.8637824708062L198.826150932312,158.58868232326512L198.98859059810638,158.74510983055904L199.12782459735868,158.8173720967007L199.40629259586333,158.9693822157034L199.45270392894747,159.0459514425016L199.54552659511566,159.09691363897005L199.7311719274521,159.13085830837588L199.8704059267044,159.14012432192683L200.2649022579193,159.1339555594162L200.31131359100343,159.1553103664615L200.79863258838654,159.12811317615947L200.98427792072297,159.15814149578944L201.19312891960146,159.1647607786992L201.37877425193784,159.09658734814286L201.4019799184799,159.12923866379595L201.93571024894715,159.14602220221727L202.2605895805359,159.13312145434793L202.33020658016204,159.15229957322578L202.6086745786667,159.12916793678414L202.8639369106293,159.15939181241376L203.11919924259186,159.1705518736617L203.14240490913392,159.1851129368675L203.44407857418062,159.17934432007675L203.51369557380676,159.17091647520834L203.65292957305905,159.18098248325103L204.92924123287202,159.15814654263718L205.41656023025513,159.0651941239476L205.74143956184386,159.1129872896675L205.76464522838592,159.12606810017434L206.0199075603485,159.1241991792728L206.08952455997468,159.11767926717323L206.1127302265167,159.14702582089464L206.18234722614287,159.1586919635132L206.64646055698395,159.1594833055919L207.13377955436707,159.13366712578835L207.2498078870773,158.4761807151891L207.29621922016142,158.73785679038818L207.8531552171707,158.53283503150317L207.969183549881,158.73621888708942L207.99238921642305,158.87984343867583L208.1084175491333,158.97484481450613L208.13162321567535,159.0653943135617L208.52611954689027,159.102586960496L208.7117648792267,159.13281143841004L208.8974102115631,159.14881369413277L209.3151122093201,158.98293486911183L209.36152354240417,159.03853518301767L209.80243120670318,159.09811887441742L210.3825728702545,159.00585574572227L210.70745220184327,159.07978662173593L210.96271453380587,159.11419155315778L211.00912586688997,159.09334658180254L211.10194853305816,159.1156738045417L211.65888453006744,159.13633120079163L211.7285015296936,159.14545951000858L211.7749128627777,159.1690891520548L211.79811852931974,159.10506880207515L211.82132419586182,158.8147058174842L211.89094119548798,158.96478624761843L212.26223186016082,159.0560930448961L212.30864319324493,159.11200069847087L212.51749419212342,159.1453630892306L212.95840185642243,159.1556563682814L213.35289818763732,159.13350339442775L213.67777751922605,159.16188848990848L213.79380585193636,159.1672316657524L213.97945118427276,159.1650929972957L214.18830218315125,159.1506643036963L214.93088351249696,158.41557691332187L215.3485855102539,158.6006494167119L215.97513850688932,158.8002023027103L216.09116683959962,158.9540191897229L216.23040083885192,159.01495043909406L216.6481028366089,159.05059143359176L216.92657083511352,159.10022399318112L217.11221616744993,158.98628037708403L217.15862750053407,159.0385720135621L217.25145016670228,159.05688248131693L217.6691521644592,159.0667620572603L217.83159183025361,159.00356124767754L218.22608816146848,159.07656766445967L218.45814482688903,159.11378527186739L218.8062298250198,159.14550258174464L219.3631658220291,159.1633992701637L219.45598848819733,159.17787241160977L219.66483948707582,158.77719364744254L219.85048481941223,158.83986152256603L219.98971881866456,158.96794210584343L220.45383214950562,158.9662953998268L220.47703781604767,159.0072001983921L220.5002434825897,158.94990091462182L220.7555058145523,159.0312529648987L220.91794548034667,159.04536495350143L221.52129281044006,159.09895060817468L221.61411547660825,159.0905993078897L222.1478458070755,158.3125417917148L222.26387413978577,158.65508632384362L222.356696805954,158.86250253896645L222.40310813903807,158.96570893617678L222.47272513866426,158.78936734838103L222.797604470253,158.93806398969824L223.0528668022156,159.02250424927914L223.47056879997254,159.08257539505865L223.56339146614073,159.11933339166788L223.58659713268278,159.11327519073166L223.91147646427154,159.1511450708769L224.16673879623414,159.12121417276842L224.1899444627762,158.53020528494983L224.35238412857055,158.43588475318057L224.49161812782287,158.6104587544213L224.53802946090698,158.84235947737076L224.67726346015928,158.9661207645977L224.86290879249572,158.98501530865968L224.88611445903777,158.96908930932557L225.23419945716856,158.95791414185751L225.3734334564209,159.02211912117983L225.4662561225891,159.0854214971475L225.53587312221526,159.07581462021844L225.69831278800964,159.10719258382466L226.16242611885073,159.11163220076452L226.8585961151123,159.13813735957942L226.97462444782258,159.13381610112168L227.04424144744874,159.14141312721404L227.32270944595336,159.0543982763555L227.43873777866364,159.07614963179415L227.9028511095047,158.48890761493095L228.06529077529905,158.6590080061034L229.06313443660736,158.85322165247337L229.0863401031494,158.98222051287593L229.4808364343643,159.05777082246857L229.80571576595307,159.05647095003616L229.96815543174742,159.0580124071869L230.66432542800905,159.0296770886694L231.01241042613984,159.09847587944478L231.33728975772857,159.1344611914428L231.40690675735473,159.1585930757339L231.5693464231491,159.16378330976792L231.6621690893173,159.17012308952465L231.8246087551117,159.14674521000074L231.8710200881958,159.1646104728793L232.1262824201584,159.1595118510995L232.33513341903688,157.5536608342589L232.7992467498779,158.14785059921346L233.17053741455078,158.55342386817563L233.61144507884978,158.81243040047252L233.70426774501803,158.96843490960154L233.72747341156008,158.95584794855992L233.79709041118622,158.18462565906452L234.16838107585906,158.5805905428692L234.23799807548522,158.65711694511796L234.28440940856936,158.87270445224667L235.14301907062531,158.967376272509L235.21263607025148,159.033896771872L235.56072106838226,159.05780234239836L235.81598340034483,159.06977031850838L235.9552173995972,159.10169000335196L235.97842306613924,159.10077266909877L236.04804006576538,159.10436566300814L236.0944513988495,159.13828523415708L236.34971373081208,159.1584885164586L236.51215339660646,159.16767501907947L236.72100439548493,159.0244835976084L236.95306106090544,158.57957803047302L237.04588372707366,158.2611594247999L237.60281972408293,158.59661627875428L237.9741103887558,158.59709096834214L238.20616705417635,158.15512578304856L238.29898972034454,158.4342294465776L238.43822371959686,157.98842202702943L238.80951438426973,158.47182997251554L238.8327200508118,158.73233112262238L239.48247871398925,158.91756471782125L239.5056843805313,159.01271501634773L239.83056371212004,159.07852386915084L240.2018543767929,159.12371140936656L240.27147137641907,159.13745575038888L240.43391104221345,157.43979802365888L240.5499393749237,158.11907736162073L240.66596770763397,158.54239526191023L240.92123003959654,158.79760067798466L240.96764137268065,158.9098163425735L241.80304536819457,159.0261427304713L242.01189636707306,159.0821671751858L242.17433603286744,159.10768400267648L242.22074736595155,159.07815906203612L242.47600969791412,159.09607459073914L243.14897402763367,159.142995100529L243.2417966938019,159.16296774514657L243.288208026886,159.1696000097546L243.38103069305419,159.16663547128707L243.4738533592224,159.18420721012467L244.05399502277373,159.17485993555323L244.58772535324096,159.17289559851247L244.8661933517456,159.12371030541254L245.0750443506241,158.97737430070296L245.44633501529694,159.05259570015016L245.49274634838105,158.90231418019349L246.1192993450165,159.01819479017507L246.25853334426878,159.0728231317821L246.72264667510987,159.12069248481248L246.74585234165193,159.13792528706995L246.9082920074463,158.87220962539178L247.14034867286682,158.97936109939207L247.62766767024993,158.85750965020924L248.1381923341751,158.9674099497385L248.4862773323059,159.0569789498244L248.69512833118438,158.20663370288452L248.8575679969788,158.14802281000283L249.11283032894133,158.5403412129272L249.20565299510957,158.80406794416538L249.41450399398806,158.92055287292143L249.6697663259506,159.028658883651L249.7393833255768,158.31861999923655L250.01785132408142,158.61551777908952L250.11067399024964,158.82792380379996L250.20349665641783,158.96125184854517L250.43555332183837,159.01089527427368L250.48196465492248,159.0698200549287L250.5747873210907,159.12325166259396L250.59799298763275,159.15201244471274L250.6211986541748,159.16790577769544L250.8764609861374,159.1731634190348L250.9692836523056,159.1264623063141L251.17813465118408,159.15316278800827L251.61904231548309,158.9706443010552L252.38482931137085,159.06115658873156L252.43124064445496,159.1148667456862L252.54726897716523,159.1107301671316L252.89535397529602,159.14468174882043L252.91855964183807,158.40507722416126L253.03458797454832,158.7237480146873L253.19702764034272,158.88496655180404L253.5915239715576,158.9896335566254L253.7075523042679,159.07480066658968L253.98602030277252,158.6132300981788L254.1484599685669,158.8266861592425L254.33410530090333,158.97142110031868L254.35731096744536,158.98949116438632L254.8910412979126,159.07387339336506L255.26233196258545,159.11664276544488" fill="none"></path></g></g></g></g><g opacity="0.2"><g><g><g><path style="fill: none;" stroke="rgb(255, 112, 67)" stroke-width="2px" d="M30.51545150279999,-16.18056270924861L30.909947834014893,4.420340566639784L31.118798832893372,-25.96491205338388L31.32764983177185,0.8205810529179871L31.42047249794006,-1.1650091527612105L31.768557496070862,-0.23861633249324107L31.97740849494934,15.476590542797927L32.13984816074371,-4.424659414286717L32.48793315887451,-3.317954704759169L32.557550158500675,30.81713738471736L32.62716715812683,-25.154048407671514L32.83601815700531,12.990014010074086L33.11448615550995,59.98339525639312L33.18410315513611,15.965700038813528L33.64821648597717,28.38994500713888L33.78745048522949,41.765416169702085L33.857067484855655,10.502357765438509L34.20515248298645,15.42044552338776L34.59964881420135,60.300830558442975L34.78529414653778,22.423456982895726L35.319024477005,67.27900864398107L35.527875475883484,44.36212331742282L35.59749247550964,75.25052168831462L35.6206981420517,36.34634208470815L35.9687831401825,68.40622787983158L36.22404547214508,59.42410448611482L36.47930780410767,23.90806086153024L37.036243801116946,80.36295759037603L37.314711799621584,97.21402139681159L37.54676846504211,89.6927482196712L37.802030797004704,97.4040506932768L38.01088179588318,73.66550460188883L38.28934979438782,73.80154830276733L38.59102345943451,36.16710990736029L38.8926971244812,17.520485191710765L38.93910845756531,45.39648732886417L39.03193112373352,18.113247031252836L39.21757645606995,86.06923504389124L39.519250121116634,75.79145735609346L39.82092378616333,39.3857311162399L39.913746452331544,81.81517011165852L40.28503711700439,37.80179374172585L40.56350511550903,58.95227038068697L40.70273911476135,97.02183267652289L40.81876744747162,45.33494374989531L41.09723544597626,84.16354351968039L41.14364677906036,71.51903732136124L41.49173177719116,59.430582757585206L41.51493744373322,120.54551609747578L41.67737710952759,100.60971535921563L41.793405442237855,63.43415452629561L41.90943377494812,102.61366066739429L42.90727743625641,59.07103869097773L42.93048310279846,122.30760593742598L43.16253976821899,76.21686384931672L43.2089511013031,97.58868143018334L43.69627009868622,97.76575418370776L43.9051210975647,116.42101659465116L43.92832676410675,89.10646465159952L44.04435509681702,53.07215930938255L44.11397209644318,62.643805406906175L45.13502142429352,121.99772861875827L45.32066675662995,103.51522011369234L45.343872423171995,97.89855874885107L45.599134755134585,100.13032327040564L45.66875175476074,117.84947545387548L45.87760275363922,86.30893108829623L46.24889341831207,100.9908536640578L46.318510417938235,114.25727392353583L46.50415575027466,100.50606301568915L46.66659541606903,106.29223915067269L46.75941808223724,120.44402317777276L46.7826237487793,107.07179115094478L46.92185774803162,102.27247170328629L47.10750308036804,81.09176313079661L47.15391441345215,121.47838718921412L47.1771200799942,144.73430205605692L47.8268787431717,119.92144261249341L47.8732900762558,66.26731858268613L48.10534674167633,148.930062545056L48.15175807476044,118.40336766459514L48.59266573905945,112.42608252123465L48.84792807102203,111.97692236595321L48.89433940410614,102.82096535444725L49.3584527349472,110.38866614379221L49.45127540111542,80.77864667639369L49.706537733078,132.8985000796267L49.91538873195648,99.6109818408615L50.541941728591915,121.9610184137593L50.56514739513398,119.11489781442798L50.890026726722716,117.25131505477475L50.936438059806825,136.64618012525605L50.98284939289093,146.63243559688564L51.029260725975035,121.30563328333665L51.23811172485352,106.1032895661192L51.35414005756378,143.45376372874014L51.81825338840484,122.48359897903866L51.91107605457306,134.3517923128209L52.09672138690948,129.48013216707622L52.11992705345154,108.62549659193029L52.35198371887207,108.35232947826152L52.42160071849823,143.8273440502002L52.49121771812439,134.8506192160421L52.74648005008698,133.25804414623417L53.21059338092804,125.22714694675524L53.3266217136383,143.59196685344213L53.34982738018036,141.32889068644727L53.51226704597474,137.99797943874728L53.60508971214295,138.59937897358324L54.022791709899906,118.62902745414759L54.13882004261016,106.83425453036325L54.60293337345123,145.05065764619505L54.7653730392456,123.51688327856827L54.85819570541382,98.6068497629487L54.95101837158203,114.57794836132088L55.0670467042923,127.87244113050401L55.20628070354462,106.36242042493541L55.39192603588104,153.36012051890137L55.415131702423096,138.2895016549155L55.693599700927734,110.31632544570603L55.7632167005539,135.14430085603382L56.412975363731384,154.1159188571153L56.71464902877808,117.40247472241754L56.78426602840423,148.3340615697787L56.853883028030396,132.46877473875648L57.132351026535034,151.96945157658774L57.480436024665835,141.79640594422816L58.13019468784332,94.22213968939614L58.153400354385376,144.95780242178589L58.17660602092743,129.8331979622133L58.43186835289002,152.8267428345047L58.54789668560028,141.346166077035L58.80315901756287,136.991687937011L58.872776017189025,137.27349274597364L59.19765534877777,147.03084929231554L59.4297120141983,106.48766700669658L59.87061967849731,142.77138580052414L59.986648011207585,105.03329506159061L60.72922934055328,134.18551667841385L60.79884634017944,141.50380401614822L61.12372567176819,143.01108184492912L61.14693133831024,130.89671419527147L61.54142766952515,155.69013882442377L61.843101334571834,139.32386566635685L62.098363666534425,129.4790524551645L62.12156933307647,90.2326041755383L62.144774999618534,133.54524751475546L62.88735632896423,139.41456146694256L63.30505832672119,145.50197722529992L63.46749799251556,151.70492215821287L63.49070365905762,133.47074739284582L63.62993765830994,144.3672000060673L64.16366798877716,150.91133390308823L64.32610765457153,142.8232119722874L64.51175298690795,155.863972442213L65.0918946504593,120.16545750454533L65.1847173166275,144.39527251577238L65.50959664821625,151.9899661029107L65.55600798130035,151.99104581482243L66.29858931064607,135.90549775380643L66.46102897644043,151.76538602526998L66.6698799753189,133.8086972212186L66.9715536403656,155.8682912898599L67.59810663700104,121.13179966554743L67.87657463550568,115.88116063878407L68.08542563438415,130.01350985147292L68.15504263401031,116.47176305450266L68.47992196559906,137.47647858537968L68.57274463176728,126.07795993320178L68.96724096298217,157.03222073070938L69.1992976284027,123.31173801533878L69.24570896148681,154.18610013137803L69.47776562690734,153.3925118762534L69.57058829307556,157.25464138452662L69.87226195812225,125.090023533965L70.05790729045867,145.67365141926567L70.15072995662689,122.93167942240835L70.26675828933716,126.88774386700243L70.98613395214082,144.99991118634352L71.56627561569213,157.8538814955391L71.75192094802856,152.3538290171651L72.7265589427948,156.87458279159617L72.88899860858916,155.78299404883293L73.1210552740097,154.51433255254526L73.44593460559844,147.74669828979532L73.46914027214049,158.390498315671L73.63157993793489,158.71873073683818L73.67799127101898,148.55648222359596L73.7708139371872,140.74044769455213L73.79401960372925,154.72487637533342L73.84043093681335,91.17735209830572L74.07248760223389,154.79613736150785L74.11889893531799,155.18051480208524L74.5133952665329,150.16633268399164L74.72224626541137,141.38179657012225L75.30238792896272,141.89034088054905L75.37200492858886,134.72969148192786L75.46482759475708,147.2370742674568L75.74329559326172,148.9397799522616L75.76650125980377,155.61131985486716L76.13779192447662,156.28937893543625L76.18420325756074,155.73656643662835L76.23061459064483,143.98930083696033L76.71793358802796,134.65951020766514L76.88037325382233,148.91818571402692L77.11242991924286,141.9194931021659L77.59974891662598,136.8027383524575L77.6925715827942,158.37808162868603L77.97103958129884,158.29656337935012L78.20309624671935,155.83266079677267L78.24950757980348,154.58775296254316L78.29591891288757,144.62093230532483L78.41194724559784,83.4444553864654L78.4351529121399,157.23520657011542L78.71362091064454,147.50268339774337L79.38658524036408,150.04108610223048L79.47940790653229,145.29143340251176L79.73467023849487,156.65432156160242L79.78108157157898,158.150802271266L79.80428723812103,142.4258779887692L80.3148119020462,129.9973141727969L80.43084023475647,157.5915115009877L80.662896900177,158.39103817162686L80.9181592321396,148.21313383566448L80.94136489868164,104.86917885100702L80.98777623176575,146.67346464953152L81.19662723064424,151.32918241292938L81.26624423027039,116.05391454466154L81.4054782295227,134.3669082795852L81.61432922840117,152.67342374303846L81.98561989307403,147.5728646720061L82.98346355438233,139.15111176047938L83.05308055400849,120.37492161542177L83.19231455326081,85.13096539259423L83.23872588634491,147.63332853906323L83.33154855251313,100.69285317641915L83.61001655101776,138.72030670769746L83.8884845495224,153.58254117271863L84.05092421531677,154.80045620915482L84.09733554840088,137.99797943874728L84.1901582145691,138.23983490697574L84.83991687774657,152.5557351446594L85.65211520671843,153.80928067418282L85.67532087326049,156.5312344036647L85.9769945383072,152.30956082878402L86.00020020484925,150.48916654560017L86.13943420410156,156.0475234672078L86.20905120372773,151.18450101675697L86.4179022026062,158.25715389457181L86.48751920223236,152.45640164877986L86.55713620185853,158.69767635455938L86.81239853382111,148.26819914316295L86.88201553344726,152.76519925553586L87.02124953269958,144.4816494687111L87.06766086578368,152.69933682892005L87.5085685300827,148.96677275005496L87.8102421951294,137.33395661303075L88.06550452709197,142.69256683096754L88.39038385868074,147.05028410672676L88.9937311887741,158.5594732298574L89.01693685531616,157.4058010521694L89.41143318653107,156.67699551174883L89.68990118503571,158.9457401662803L89.82913518428802,136.87291962672023L90.50209951400757,154.48518033092842L90.91980151176453,152.463959632162L90.98941851139068,158.83183055959236L91.94085083961487,151.70168302247768L92.14970183849336,157.91218593877275L92.28893583774567,157.43171413805103L92.38175850391387,156.30557461411226L92.45137550354005,158.93737239896436L92.47458117008209,155.81538540618496L92.5674038362503,131.6773459074553L92.70663783550263,157.37664883055257L92.79946050167084,155.98382046441546L92.84587183475493,157.7966567642172L93.07792850017547,156.3131325974944L93.4028078317642,151.73839322747662L93.44921916484833,156.82383633174467L93.54204183101653,152.14868375393561L93.63486449718475,157.41551845937502L93.70448149681091,153.44325833610492L93.79730416297912,155.99569729544456L93.84371549606324,156.2623861376429L93.89012682914733,157.61634487495758L94.05256649494171,152.67018460730324L94.09897782802581,131.6352371428977L94.60950249195099,150.790406168974L94.79514782428741,156.63056789954427L94.86476482391357,158.90255168981093L94.91117615699768,157.19822643713852L95.07361582279205,138.89090118975147L95.30567248821258,158.60752040992955L95.70016881942749,156.9609597445349L95.7465801525116,152.31064054069574L95.86260848522187,153.2499899039045L95.90901981830596,157.0235830354155L96.51236714839936,155.74628384383394L96.5355728149414,158.2836068364093L96.55877848148346,145.37889006736222L96.67480681419373,157.35721401614137L96.81404081344604,152.51254666819003L96.8372464799881,136.57923798672854L97.0925088119507,147.23059599598636L97.27815414428711,157.5569607198122L97.30135981082915,158.32409603309932L97.64944480895997,158.17131679758896L97.81188447475434,153.9485635107965L98.02073547363281,152.67666287877364L98.15996947288512,139.64885895178887L98.50805447101594,147.55882841715356L98.57767147064209,159.02307453195826L98.74011113643645,113.36003332488472L98.92575646877289,158.7430242548522L99.73795479774476,157.46842434304997L100.20206812858582,156.21919766117352L100.36450779438019,147.98099577464163L100.38771346092224,157.17150356732307L102.38340078353882,127.5280130306608L102.6386631155014,133.26344270579284L102.68507444858551,158.97894130756615L103.19559911251068,158.08925869229714L103.47406711101532,134.36366914385L103.65971244335175,140.65515045352512L103.84535777568817,159.03535625495422L104.33267677307128,158.59834285867984L104.4254994392395,158.63613277559054L104.56473343849183,155.63615322883706L105.42334310054778,156.28074124014236L105.81783943176269,156.00001614309147L106.2123357629776,158.353788110672L106.58362642765044,153.19708402022954L106.74606609344484,155.56273281883912L106.86209442615508,158.19561031560298L107.18697375774384,158.68094081992749L107.27979642391205,156.15873379411642L107.44223608970641,159.0595148089793L108.64893074989318,129.5103641006048L108.81137041568756,157.3896053734934L109.69318574428559,158.31545833780547L109.94844807624817,155.1956307688495L110.11088774204255,147.48648771906736L110.22691607475281,158.6215566647821L110.45897274017334,155.44072537281318L110.50538407325745,158.87825817179692L110.55179540634155,158.7300677119114L110.71423507213593,158.00396145127016L110.73744073867798,124.95505954499822L110.85346907138825,157.0106264924747L111.01590873718261,149.1611208941671L111.22475973606109,107.03832008168102L111.3175824022293,158.57188991684234L111.68887306690216,159.0668028643835L111.85131273269654,154.29083218681626L111.89772406578064,156.7558144813054L111.99054673194885,151.11971830205292L112.29222039699555,154.64065884621814L112.38504306316376,158.54813625478417L112.77953939437867,147.65600248920964L112.82595072746277,158.36998378934803L112.89556772708892,158.41047298603806L113.26685839176179,125.27789340660674L113.47570939064025,159.06990703612973L113.56853205680846,155.400776032079L113.80058872222901,158.89094478675977L113.89341138839721,152.45748136069162L114.07905672073365,134.54182160928613L114.35752471923828,156.05400173867818L114.61278705120087,146.39058012865715L114.82163805007934,156.6068142374861L115.47139671325684,159.04439884221503L115.49460237979889,155.04555081311847L115.54101371288299,158.78918193907884L115.58742504596711,158.92873470367047L115.61063071250916,157.56991726275302L115.72665904521944,139.1856625416549L115.8890987110138,158.3246358890552L116.00512704372407,159.06126934083588L116.02833271026611,158.12057033773746L116.1907723760605,158.6882288753317L116.3300063753128,158.13676601641347L116.35321204185486,159.14913089765324L116.53885737419128,153.7056283306563L116.74770837306977,155.4547616276657L116.86373670578004,156.18356716808628L116.93335370540619,153.11934476258466L117.11899903774261,158.8895951468701L117.25823303699492,156.9987496614456L117.55990670204163,148.75514921535503L117.69914070129396,154.49705716195749L117.8151690340042,159.1228804017992L117.83837470054627,115.22361608453794L118.25607669830323,141.24467315733202L118.5113390302658,159.1187640001357L118.65057302951813,157.16030155623886L118.76660136222839,159.0379205707446L118.9522466945648,159.11822414417983L119.02186369419098,134.92403962604L119.25392035961151,157.03478504649976L119.62521102428435,159.0765202715891L119.64841669082641,153.15389554376017L119.88047335624695,158.14972255935427L120.20535268783568,155.61239956677892L120.41420368671417,156.24619045896688L120.57664335250854,156.95232204924105L120.66946601867676,158.62749508029665L121.08716801643372,151.96621244085256L121.17999068260193,159.08792472865682L121.203196349144,157.60257854808296L121.87616067886351,158.4671578614041L122.15462867736817,159.0152466205982L122.1778343439102,159.12234054584334L122.89721000671388,159.01943050425618L123.0828553390503,157.97804836538853L123.19888367176057,159.00080547377874L123.31491200447083,159.1285488893358L123.33811767101288,157.6044680439285L123.9646706676483,159.17187232979413L124.66084066390991,159.0310374073073L125.07854266166687,159.0627539447145L125.63547865867615,110.34655737923458L126.16920898914337,158.646390038752L126.19241465568543,159.03292690315286L126.28523732185364,156.35362179418442L126.37805998802185,155.8812478328007L126.72614498615265,158.94479541835753L126.91179031848907,159.1097888948694L126.98140731811525,158.95532260949696L127.00461298465729,156.98903225424002L127.30628664970398,158.34029171177534L127.32949231624603,157.84956264789216L127.56154898166656,158.90255168981093L127.65437164783476,157.26381893577636L127.81681131362916,158.1394652961928L129.16273997306823,158.97192318013984L129.2787683057785,157.2384457058506L129.44120797157288,157.34641689702403L129.76608730316164,134.4554446563474L129.95173263549805,155.86937100177167L129.9749383020401,159.17892419821763L130.20699496746064,158.345690271334L130.81034229755403,158.4498824708164L130.83354796409606,131.53698335892986L130.92637063026427,158.5465166869166L131.3208669614792,158.88689586709077L131.5529236268997,157.63685940128053L132.4115332889557,153.69591092345073L133.10770328521727,159.18688707356668L133.31655428409576,153.74881680712568L133.64143361568452,157.93162075318398L133.87349028110503,159.07233638793113L134.10554694652558,158.98811885881585L134.45363194465637,157.87763515759727L134.54645461082458,158.90849010532546L134.6856886100769,159.14710643781874L134.70889427661896,158.92441585602356L135.24262460708619,156.91561184424208L135.59070960521697,159.19203257564604L135.96200026988984,114.22596227809554L136.14764560222625,142.4032040386228L136.19405693531036,156.33472683572907L136.49573060035704,158.9599113851218L136.913432598114,95.4303373186267L137.02946093082429,159.1083042909908L137.1222835969925,159.13091075914272L137.23831192970277,159.13819881454694L137.5631912612915,159.16866693505617L137.60960259437562,158.9182075125311L137.79524792671205,159.09703479791207L138.05051025867462,159.01659626048786L138.42180092334746,158.9640952687798L138.7002689218521,159.05168689761922L138.72347458839417,158.58322689191553L138.76988592147828,158.97286792806264L139.11797091960906,158.76488842106482L139.39643891811372,155.9773421929451L139.46605591773988,155.4569210514892L139.7445239162445,158.10545437097315L140.06940324783326,158.8685407645913L140.41748824596405,157.33885891364187L140.46389957904813,158.38024105250952L140.57992791175843,155.74844326765742L140.62633924484254,157.13587307423586L140.85839591026306,147.2284365721629L140.90480724334716,158.67770168419227L140.95121857643127,158.55697639606151L141.3921262407303,158.93494304716296L141.4385375738144,159.09183868433684L141.46174324035644,158.97205814412882L141.50815457344055,158.8812273795542L141.85623957157134,159.17052268990446L142.34355856895448,158.40939327412636L142.38996990203856,159.05236171756405L142.80767189979554,159.0724713519201L143.03972856521608,155.36514553899178L143.3646078968048,158.8693505485251L143.94474956035614,158.74113475900666L144.24642322540285,157.89599026009674L144.80335922241213,158.8974230582302L145.3602952194214,158.85747371749605L145.80120288372038,159.18644844060256L145.94043688297273,159.05411624942062L145.96364254951476,158.24527706354274L146.03325954914092,159.14832111371945L146.93828054428099,159.0846181109271L147.19354287624358,157.2303478665126L147.23995420932772,155.5670516664861L147.4720108747482,158.94884433802653L147.63445054054262,155.44720364428358L147.70406754016875,158.8547744377167L147.9361242055893,159.1070221330956L148.21459220409395,155.75924038677476L148.23779787063597,159.09305336023752L148.28420920372008,159.02199482004653L148.51626586914062,158.58268703595968L148.70191120147706,159.04534359013778L148.91076220035552,158.8766386039293L149.119613199234,159.15375341427534L149.21243586540223,159.04831279789505L149.88540019512178,158.55029567860765L149.97822286128996,157.7048137697253L150.14066252708434,157.17379795513554L150.60477585792543,159.18145477301076L150.79042119026184,157.9834469249472L150.95286085605622,138.25279144991654L151.02247785568238,159.17177110680242L151.16171185493468,158.95113872583897L151.27774018764495,159.06288890870346L151.41697418689728,157.35613430422964L151.6954421854019,158.83830883106273L151.7650591850281,156.3703573288163L151.9507045173645,157.13803249805935L152.06673285007477,156.74933620983504L152.20596684932707,157.8063741714228L152.62366884708405,158.87798824381898L152.76290284633635,158.66150600551626L153.0877821779251,159.1792109966942L153.15739917755127,158.90174190587712L153.2966331768036,158.97259800008467L153.38945584297178,157.31982899119757L153.59830684185027,158.8844665152894L153.71433517456055,159.02455913583688L154.01600883960725,158.71549160110297L154.1320371723175,158.1443239997956L154.57294483661653,158.86152263716505L154.61935616970064,159.12355522174403L154.781795835495,158.71954052077197L154.80500150203704,158.13082760089893L155.03705816745756,159.17183858879687L155.222703499794,158.88797557900253L155.40834883213046,157.58935207716422L156.08131316184998,157.31915417125273L156.10451882839203,159.03522129096527L156.24375282764436,159.0655881884828L156.77748315811155,159.10074630760866L157.07915682315829,159.07928703336293L157.7521211528778,158.9640952687798L157.9145608186722,159.16080528269887L158.3554684829712,159.19550789836194L158.79637614727022,159.17360999115206L159.42292914390563,159.18508193021424L160.00307080745696,159.16762096414166L160.02627647399902,158.61291896948822L160.21192180633545,159.17089384087413L160.4903898048401,155.34894986031577L160.9777088022232,158.9628805928791L161.04732580184938,159.0956851580224L161.325793800354,159.1105986788032L161.53464479923247,155.8229433895671L161.766701464653,159.14633039488217L161.9755524635315,158.1146319222229L162.20760912895204,158.1902117560443L162.83416212558745,159.12686183947372L162.88057345867156,158.78513301940984L162.95019045829773,159.09534774805L163.18224712371824,159.0387303546784L163.29827545642854,158.83587947926137L163.34468678951265,157.58371733062486L163.69277178764344,159.17836747176315L163.97123978614806,158.93656261503057L164.08726811885836,157.60230862010505L164.18009078502655,159.1808305645618L164.36573611736299,159.10641479514524L164.43535311698915,159.072876243887L164.71382111549377,159.14153917327386L165.3403741121292,159.08124401120293L165.7348704433441,159.03913524664532L165.78128177642824,158.98987339067244L166.08295544147492,154.68276761077576L166.15257244110109,159.11856155415225L166.29180644035338,159.1723447037555L166.98797643661499,159.1801726151156L167.05759343624115,158.5216833129467L167.5217067670822,158.52654201654948L167.7769690990448,158.95559253747487L168.00902576446535,159.17495963104173L168.24108242988586,158.95680721337558L168.35711076259614,159.01011798901746L168.65878442764281,159.1970937252323L168.98366375923158,159.1951536178909L169.23892609119414,159.1468365098408L169.49418842315674,159.1413367272904L169.79586208820342,159.19542354586883L169.93509608745575,159.18678585057498L170.30638675212862,158.8223830803647L171.21140774726868,159.18693768506253L171.32743607997892,159.0191605762782L171.37384741306303,158.86503170087818L171.46667007923128,158.96463512473565L171.51308141231536,159.19387145999573L171.79154941082,158.99635166214284L171.86116641044617,159.17099506386583L171.9307834100723,157.86508350662334L172.23245707511904,158.98946849870552L172.30207407474518,158.38617946802404L172.55733640670778,158.28468654832105L172.78939307212832,159.16040039073195L172.8822157382965,159.12186817188194L173.43915173530578,159.15021060956497L173.62479706764222,159.16647377023546L173.64800273418427,158.44448391125772L173.94967639923098,159.15405708325054L173.972882065773,158.47471584478626L174.08891039848328,158.77514568422632L174.13532173156736,159.1151199724336L174.85469739437104,159.15422578823674L175.0171370601654,159.09582012201136L175.5044560575485,159.07908458737947L175.713307056427,159.12983104723097L175.87574672222138,157.68868557304378L176.0149807214737,159.1636057854699L176.08459772109984,159.19877233984508L176.31665438652038,159.17247966774448L176.3630657196045,159.06248401673656L176.66473938465117,159.19273270133883L176.73435638427736,159.07463077574357L176.8967960500717,159.05438617739856L177.0592357158661,159.08684501674506L177.12885271549226,156.63164761145597L177.84822837829591,158.98474475909168L178.6372210407257,159.09555019403342L178.86927770614622,159.12146327991505L179.0781287050247,159.18725822453635L179.3333910369873,159.03090244331835L179.37980237007142,159.10304069542107L179.4726250362396,159.11491752645017L179.5886533689499,158.06982387788594L179.635064702034,159.12200313587093L179.70468170166015,159.1684644890727L180.54008569717408,158.9778615956544L180.58649703025816,158.92927455962635L181.09702169418335,158.00009810708596L181.25946135997773,159.18169095999147L181.2826670265198,159.10425537132178L181.32907835960387,159.16421312342027L181.4683123588562,159.14403600706973L181.7699860239029,159.02158992807964L181.9092200231552,159.0692322161849L182.00204268932342,158.89553356238466L182.1644823551178,158.88635601113492L183.3479713487625,159.18661714558877L183.78887901306155,159.1541920472395L184.6474886751175,159.17993642813488L184.71710567474366,159.19010933880327L184.80992834091185,159.19221815113087L185.01877933979034,159.13124816911514L185.25083600521089,158.9493841939824L185.43648133754732,159.17990268713766L185.55250967025756,157.46410549540306L185.8773890018463,157.370980343016L185.9238003349304,159.17818189627835L186.20226833343506,159.17404862411624L186.34150233268738,158.88608608315698L186.61997033119204,156.98451939585894L186.8752326631546,159.142956295158L186.9216439962387,159.10425537132178L187.45537432670594,158.7381655512494L187.89628199100494,159.166271324252L187.94269332408908,159.15115535748774L187.98910465717316,159.12389263171644L188.05872165679932,158.72709850415413L188.38360098838805,158.68984844319928L188.68527465343476,159.1848794842308L189.52067864894866,159.04493869817088L189.59029564857482,159.19238685611708L189.7063239812851,159.16195247660508L189.93838064670564,159.1963767290409L190.12402597904205,158.8056475457328L190.2168486452103,158.97597209980884L190.6345506429672,158.94425556240165L190.65775630950927,159.13435234086137L190.7505789756775,159.19616584780815L191.42354330539703,157.3334603540832L191.56277730464933,159.0895442965244L191.60918863773347,159.1264569475068L191.63239430427552,159.10425537132178L191.81803963661193,159.1522688103967L192.16612463474274,158.70631404985326L192.60703229904175,159.1350271608062L192.6302379655838,159.1731207466921L192.74626629829407,158.86557155683406L193.30320229530335,158.80939279642664L193.65128729343414,159.07145912200284L193.69769862651825,159.18975505833222L194.04578362464903,159.04183452642465L194.67233662128447,158.08723423246263L194.7651592874527,159.11977623005296L194.99721595287323,159.18552056317841L196.08788228034976,159.16107521067678L196.22711627960206,159.16654125222996L196.31993894577025,156.9886273622731L196.4127616119385,158.2263821050874L196.85366927623747,159.02860805550588L197.61945627212523,159.2018301177201L197.75869027137756,159.16370700846164L197.80510160446167,159.16944297799273L197.96754127025605,159.17971711165282L197.99074693679808,158.92090679231043L198.03715826988218,159.1008137896031L198.08356960296632,158.12070530172642L198.75653393268584,159.1366467286738L198.826150932312,158.1760321019535L198.98859059810638,158.97975109149994L199.12782459735868,158.92576549591323L199.40629259586333,159.19739739420746L199.45270392894747,159.16080528269887L199.54552659511566,159.17335693367275L199.7311719274521,159.18177531248458L199.8704059267044,159.15402334225328L200.2649022579193,159.12470241565026L200.31131359100343,159.18734257702945L200.79863258838654,159.08731739070643L200.98427792072297,159.20318397523442L201.19312891960146,159.17468970306382L201.37877425193784,158.99432720230834L201.4019799184799,159.17821563727557L201.93571024894715,159.1711975098493L202.2605895805359,159.11377033254394L202.33020658016204,159.1810667515425L202.6086745786667,159.0944704821217L202.8639369106293,159.20472762585823L203.11919924259186,159.1872919655336L203.14240490913392,159.2069545316762L203.44407857418062,159.17069139489067L203.51369557380676,159.15827470790575L203.65292957305905,159.19608149531504L204.92924123287202,159.12389263171644L205.41656023025513,158.92576549591323L205.74143956184386,159.18467703824737L205.76464522838592,159.14568931593456L206.0199075603485,159.12139579792054L206.08952455997468,159.10789939902386L206.1127302265167,159.19104565147674L206.18234722614287,159.17619117744107L206.64646055698395,159.1606703187099L207.13377955436707,159.09494285608307L207.2498078870773,157.4899510992902L207.29621922016142,159.13037090318684L207.8531552171707,158.22530239317567L207.969183549881,159.04129467046877L207.99238921642305,159.09528026605548L208.1084175491333,159.11734687825154L208.13162321567535,159.2012185621451L208.52611954689027,159.15837593089745L208.7117648792267,159.1781481552811L208.8974102115631,159.1728170777169L209.3151122093201,158.7341166315804L209.36152354240417,159.12193565387642L209.80243120670318,159.18749441151704L210.3825728702545,158.86746105267957L210.70745220184327,159.19068293575637L210.96271453380587,159.16579895029062L211.00912586688997,159.06207912476967L211.10194853305816,159.1491646386505L211.65888453006744,159.1673172951665L211.7285015296936,159.159151973834L211.7749128627777,159.2045336151241L211.79811852931974,159.0090382771057L211.82132419586182,158.3791613405978L211.89094119548798,159.18990689281983L212.26223186016082,159.1930532408126L212.30864319324493,159.19586217883298L212.51749419212342,159.1954066753702L212.95840185642243,159.1710962868576L213.35289818763732,159.10027393364726L213.67777751922605,159.2044661331296L213.79380585193636,159.1752464295183L213.97945118427276,159.16188499461057L214.18830218315125,159.12902126329718L214.93088351249696,157.31294582776027L215.3485855102539,158.87825817179692L215.97513850688932,159.09953163170795L216.09116683959962,159.18474452024182L216.23040083885192,159.10634731315076L216.6481028366089,159.10405292533832L216.92657083511352,159.1746728325652L217.11221616744993,158.81536495293838L217.15862750053407,159.11700946827912L217.25145016670228,159.08434818294919L217.6691521644592,159.08158142117534L217.83159183025361,158.90876003330342L218.22608816146848,159.1860772896329L218.45814482688903,159.16961168297894L218.8062298250198,159.19307854656054L219.3631658220291,159.19024430279225L219.45598848819733,159.19958212377887L219.66483948707582,158.17617550119175L219.85048481941223,158.93386333525123L219.98971881866456,159.16006298075953L220.45383214950562,158.96382534080183L220.47703781604767,159.06855739624007L220.5002434825897,158.86395198896642L220.7555058145523,159.15328104031394L220.91794548034667,159.06653293640557L221.52129281044006,159.17932909018455L221.61411547660825,159.07807235746222L222.1478458070755,157.14545551745252L222.26387413978577,159.16890312203688L222.356696805954,159.17362686165072L222.40310813903807,159.12051853199227L222.47272513866426,158.5248549666874L222.797604470253,159.16110895167404L223.0528668022156,159.1491646386505L223.47056879997254,159.17268211372792L223.56339146614073,159.17447038658176L223.58659713268278,159.10418788932728L223.91147646427154,159.2079498910948L224.16673879623414,159.07631782560566L224.1899444627762,157.64369195322197L224.35238412857055,158.29440395552663L224.49161812782287,158.8723197562824L224.53802946090698,159.190210561795L224.67726346015928,159.15176269543807L224.86290879249572,159.01335712475267L224.88611445903777,158.94520031032445L225.23419945716856,158.94115139065545L225.3734334564209,159.1184265901633L225.4662561225891,159.18037506109906L225.53587312221526,159.06140430482483L225.69831278800964,159.15425952923397L226.16242611885073,159.11829162617434L226.8585961151123,159.17789509780178L226.97462444782258,159.1273342134351L227.04424144744874,159.15280866635257L227.32270944595336,158.92387600006768L227.43873777866364,159.10877666495216L227.9028511095047,157.60804458963614L228.06529077529905,158.9141585928621L229.06313443660736,159.14454212202835L229.0863401031494,159.17571880347967L229.4808364343643,159.1710962868576L229.80571576595307,159.05452114138754L229.96815543174742,159.06032459291308L230.66432542800905,158.9871741108931L231.01241042613984,159.20167406560788L231.33728975772857,159.1884391594398L231.40690675735473,159.19479090217055L231.5693464231491,159.17156866081896L231.6621690893173,159.17963275915972L231.8246087551117,159.11167839071496L231.8710200881958,159.19140836719706L232.1262824201584,159.15186391842983L232.33513341903688,155.144884308998L232.7992467498779,159.03913524664532L233.17053741455078,159.16178377161887L233.61144507884978,159.20094019891783L233.70426774501803,159.2024416732951L233.72747341156008,158.93696750699746L233.79709041118622,157.0277922248214L234.16838107585906,159.1745378685762L234.23799807548522,158.7719065484911L234.28440940856936,159.19608571293972L235.14301907062531,159.10938400290252L235.21263607025148,159.13367752091654L235.56072106838226,159.0936606981879L235.81598340034483,159.08772228267335L235.9552173995972,159.14956953061736L235.97842306613924,159.099396667719L236.04804006576538,159.10975515387216L236.0944513988495,159.1891645908805L236.34971373081208,159.18879343991082L236.51215339660646,159.18145477301076L236.72100439548493,158.8096964654018L236.95306106090544,157.91221967977L237.04588372707366,157.78353151629017L237.60281972408293,159.09980155968586L237.9741103887558,158.59780300272396L238.20616705417635,157.49217800510814L238.29898972034454,158.85288494187117L238.43822371959686,157.3197108977072L238.80951438426973,159.1969418907447L238.8327200508118,159.12308284778263L239.48247871398925,159.1954151106195L239.5056843805313,159.15544046413743L239.83056371212004,159.17723714835554L240.2018543767929,159.19149271969016L240.27147137641907,159.15807226192229L240.43391104221345,154.89331143356392L240.5499393749237,159.13799636856348L240.66596770763397,159.17737211234453L240.92123003959654,159.18040880209628L240.96764137268065,159.07813983945672L241.80304536819457,159.20063231231802L242.01189636707306,159.16620384225754L242.17433603286744,159.14595924391253L242.22074736595155,159.0338716510756L242.47600969791412,159.12294788379367L243.14897402763367,159.21337586521375L243.2417966938019,159.19292671207293L243.288208026886,159.1795484066666L243.38103069305419,159.16218866358577L243.4738533592224,159.21056481838104L244.05399502277373,159.1608390236961L244.58772535324096,159.16994909295136L244.8661933517456,159.04993236576266L245.0750443506241,158.75787029363855L245.44633501529694,159.16542779932095L245.49274634838105,158.67689190025848L246.1192993450165,159.19201570514744L246.25853334426878,159.1547656441926L246.72264667510987,159.1924965143581L246.74585234165193,159.16377449045612L246.9082920074463,158.47363613287453L247.14034867286682,159.14008831039246L247.62766767024993,158.67473247643503L248.1381923341751,159.1322603990324L248.4862773323059,159.19133244995328L248.69512833118438,156.93111583247466L248.8575679969788,158.06010647068032L249.11283032894133,159.12881881731371L249.20565299510957,159.19965804102267L249.41450399398806,159.09528026605548L249.6697663259506,159.19081789974533L249.7393833255768,157.2535616726149L250.01785132408142,159.06086444886895L250.11067399024964,159.1465328408656L250.20349665641783,159.161243915663L250.43555332183837,159.08536041286644L250.48196465492248,159.15820722591124L250.5747873210907,159.20339907409183L250.59799298763275,159.1951536178909L250.6211986541748,159.19174577716947L250.8764609861374,159.1810498810439L250.9692836523056,159.05641063723306L251.17813465118408,159.1932135105495L251.61904231548309,158.6968665706256L252.38482931137085,159.19692502024608L252.43124064445496,159.19543198111816L252.54726897716523,159.1045252992997L252.89535397529602,159.19560912135367L252.91855964183807,157.2956704371725L253.03458797454832,159.2017542004763L253.19702764034272,159.1267943574792L253.5915239715576,159.14663406385736L253.7075523042679,159.20255133153614L253.98602030277252,157.9208742455625L254.1484599685669,159.14687025083802L254.33410530090333,159.1885235119329L254.35731096744536,159.01659626048786L254.8910412979126,159.2004467368332L255.26233196258545,159.18079682356458" fill="none"></path></g></g></g></g></g></g><g transform="translate(51, 176)" clip-path="url(#clip_1)"><clipPath id="clip_1"><rect width="278" height="23"></rect></clipPath><g><g><line x1="0" y1="0" x2="0" y2="5" style="visibility: inherit;" fill="rgb(0, 0, 0)" stroke="rgb(204, 204, 204)" stroke-width="1px"></line><line x1="23.205666542053223" y1="0" x2="23.205666542053223" y2="5" style="visibility: inherit;" fill="rgb(0, 0, 0)" stroke="rgb(204, 204, 204)" stroke-width="1px"></line><line x1="46.411333084106445" y1="0" x2="46.411333084106445" y2="5" style="visibility: inherit;" fill="rgb(0, 0, 0)" stroke="rgb(204, 204, 204)" stroke-width="1px"></line><line x1="69.61699962615967" y1="0" x2="69.61699962615967" y2="5" style="visibility: inherit;" fill="rgb(0, 0, 0)" stroke="rgb(204, 204, 204)" stroke-width="1px"></line><line x1="92.82266616821289" y1="0" x2="92.82266616821289" y2="5" style="visibility: inherit;" fill="rgb(0, 0, 0)" stroke="rgb(204, 204, 204)" stroke-width="1px"></line><line x1="116.02833271026611" y1="0" x2="116.02833271026611" y2="5" style="visibility: inherit;" fill="rgb(0, 0, 0)" stroke="rgb(204, 204, 204)" stroke-width="1px"></line><line x1="139.23399925231934" y1="0" x2="139.23399925231934" y2="5" style="visibility: inherit;" fill="rgb(0, 0, 0)" stroke="rgb(204, 204, 204)" stroke-width="1px"></line><line x1="162.43966579437256" y1="0" x2="162.43966579437256" y2="5" style="visibility: inherit;" fill="rgb(0, 0, 0)" stroke="rgb(204, 204, 204)" stroke-width="1px"></line><line x1="185.64533233642578" y1="0" x2="185.64533233642578" y2="5" style="visibility: inherit;" fill="rgb(0, 0, 0)" stroke="rgb(204, 204, 204)" stroke-width="1px"></line><line x1="208.850998878479" y1="0" x2="208.850998878479" y2="5" style="visibility: inherit;" fill="rgb(0, 0, 0)" stroke="rgb(204, 204, 204)" stroke-width="1px"></line><line x1="232.05666542053223" y1="0" x2="232.05666542053223" y2="5" style="visibility: inherit;" fill="rgb(0, 0, 0)" stroke="rgb(204, 204, 204)" stroke-width="1px"></line><line x1="255.26233196258545" y1="0" x2="255.26233196258545" y2="5" style="visibility: inherit;" fill="rgb(0, 0, 0)" stroke="rgb(204, 204, 204)" stroke-width="1px"></line><line x1="278.4679985046387" y1="0" x2="278.4679985046387" y2="5" style="visibility: inherit;" fill="rgb(0, 0, 0)" stroke="rgb(204, 204, 204)" stroke-width="1px"></line></g><g transform="translate(0, 8)"><text style="text-anchor: middle; visibility: hidden; font-family: Roboto, sans-serif; font-size: 12px; font-weight: 200;" x="0" y="0" dx="0em" dy="0.95em" fill="rgb(33, 33, 33)" stroke="none" stroke-width="1px">-1k</text><text style="text-anchor: middle; visibility: inherit; font-family: Roboto, sans-serif; font-size: 12px; font-weight: 200;" x="23.205666542053223" y="0" dx="0em" dy="0.95em" fill="rgb(33, 33, 33)" stroke="none" stroke-width="1px">0</text><text style="text-anchor: middle; visibility: inherit; font-family: Roboto, sans-serif; font-size: 12px; font-weight: 200;" x="46.411333084106445" y="0" dx="0em" dy="0.95em" fill="rgb(33, 33, 33)" stroke="none" stroke-width="1px">1k</text><text style="text-anchor: middle; visibility: inherit; font-family: Roboto, sans-serif; font-size: 12px; font-weight: 200;" x="69.61699962615967" y="0" dx="0em" dy="0.95em" fill="rgb(33, 33, 33)" stroke="none" stroke-width="1px">2k</text><text style="text-anchor: middle; visibility: inherit; font-family: Roboto, sans-serif; font-size: 12px; font-weight: 200;" x="92.82266616821289" y="0" dx="0em" dy="0.95em" fill="rgb(33, 33, 33)" stroke="none" stroke-width="1px">3k</text><text style="text-anchor: middle; visibility: inherit; font-family: Roboto, sans-serif; font-size: 12px; font-weight: 200;" x="116.02833271026611" y="0" dx="0em" dy="0.95em" fill="rgb(33, 33, 33)" stroke="none" stroke-width="1px">4k</text><text style="text-anchor: middle; visibility: inherit; font-family: Roboto, sans-serif; font-size: 12px; font-weight: 200;" x="139.23399925231934" y="0" dx="0em" dy="0.95em" fill="rgb(33, 33, 33)" stroke="none" stroke-width="1px">5k</text><text style="text-anchor: middle; visibility: inherit; font-family: Roboto, sans-serif; font-size: 12px; font-weight: 200;" x="162.43966579437256" y="0" dx="0em" dy="0.95em" fill="rgb(33, 33, 33)" stroke="none" stroke-width="1px">6k</text><text style="text-anchor: middle; visibility: inherit; font-family: Roboto, sans-serif; font-size: 12px; font-weight: 200;" x="185.64533233642578" y="0" dx="0em" dy="0.95em" fill="rgb(33, 33, 33)" stroke="none" stroke-width="1px">7k</text><text style="text-anchor: middle; visibility: inherit; font-family: Roboto, sans-serif; font-size: 12px; font-weight: 200;" x="208.850998878479" y="0" dx="0em" dy="0.95em" fill="rgb(33, 33, 33)" stroke="none" stroke-width="1px">8k</text><text style="text-anchor: middle; visibility: inherit; font-family: Roboto, sans-serif; font-size: 12px; font-weight: 200;" x="232.05666542053223" y="0" dx="0em" dy="0.95em" fill="rgb(33, 33, 33)" stroke="none" stroke-width="1px">9k</text><text style="text-anchor: middle; visibility: inherit; font-family: Roboto, sans-serif; font-size: 12px; font-weight: 200;" x="255.26233196258545" y="0" dx="0em" dy="0.95em" fill="rgb(33, 33, 33)" stroke="none" stroke-width="1px">10k</text><text style="text-anchor: middle; visibility: hidden; font-family: Roboto, sans-serif; font-size: 12px; font-weight: 200;" x="278.4679985046387" y="0" dx="0em" dy="0.95em" fill="rgb(33, 33, 33)" stroke="none" stroke-width="1px">11k</text></g><line x1="0" y1="0" x2="278.4679985046387" y2="0" fill="rgb(0, 0, 0)" stroke="rgb(204, 204, 204)" stroke-width="1px"></line></g></g></g></g></svg>