<svg viewBox="0 0 330 200" xmlns="http://www.w3.org/2000/svg"><g><g><g><g><g><line x1="41.149001121520996" y1="177.5999994277954" x2="36.149001121520996" y2="177.5999994277954" style="visibility: inherit;" fill="rgb(0, 0, 0)" stroke="rgb(204, 204, 204)" stroke-width="1px"></line><line x1="41.149001121520996" y1="157.86666615804035" x2="36.149001121520996" y2="157.86666615804035" style="visibility: inherit;" fill="rgb(0, 0, 0)" stroke="rgb(204, 204, 204)" stroke-width="1px"></line><line x1="41.149001121520996" y1="138.1333328882853" x2="36.149001121520996" y2="138.1333328882853" style="visibility: inherit;" fill="rgb(0, 0, 0)" stroke="rgb(204, 204, 204)" stroke-width="1px"></line><line x1="41.149001121520996" y1="118.39999961853029" x2="36.149001121520996" y2="118.39999961853029" style="visibility: inherit;" fill="rgb(0, 0, 0)" stroke="rgb(204, 204, 204)" stroke-width="1px"></line><line x1="41.149001121520996" y1="98.66666634877524" x2="36.149001121520996" y2="98.66666634877524" style="visibility: inherit;" fill="rgb(0, 0, 0)" stroke="rgb(204, 204, 204)" stroke-width="1px"></line><line x1="41.149001121520996" y1="78.93333307902017" x2="36.149001121520996" y2="78.93333307902017" style="visibility: inherit;" fill="rgb(0, 0, 0)" stroke="rgb(204, 204, 204)" stroke-width="1px"></line><line x1="41.149001121520996" y1="59.199999809265144" x2="36.149001121520996" y2="59.199999809265144" style="visibility: inherit;" fill="rgb(0, 0, 0)" stroke="rgb(204, 204, 204)" stroke-width="1px"></line><line x1="41.149001121520996" y1="39.466666539510086" x2="36.149001121520996" y2="39.466666539510086" style="visibility: inherit;" fill="rgb(0, 0, 0)" stroke="rgb(204, 204, 204)" stroke-width="1px"></line><line x1="41.149001121520996" y1="19.733333269755054" x2="36.149001121520996" y2="19.733333269755054" style="visibility: inherit;" fill="rgb(0, 0, 0)" stroke="rgb(204, 204, 204)" stroke-width="1px"></line><line x1="41.149001121520996" y1="0" x2="36.149001121520996" y2="0" style="visibility: inherit;" fill="rgb(0, 0, 0)" stroke="rgb(204, 204, 204)" stroke-width="1px"></line></g><g transform="translate(31.149001121520996, 0)"><text style="text-anchor: end; visibility: hidden; font-family: Roboto, sans-serif; font-size: 12px; font-weight: 200;" x="0" y="177.5999994277954" dx="0em" dy="0.3em" fill="rgb(50, 49, 63)" stroke="none" stroke-width="1px">1.5</text><text style="text-anchor: end; visibility: inherit; font-family: Roboto, sans-serif; font-size: 12px; font-weight: 200;" x="0" y="157.86666615804035" dx="0em" dy="0.3em" fill="rgb(50, 49, 63)" stroke="none" stroke-width="1px">2</text><text style="text-anchor: end; visibility: hidden; font-family: Roboto, sans-serif; font-size: 12px; font-weight: 200;" x="0" y="138.1333328882853" dx="0em" dy="0.3em" fill="rgb(50, 49, 63)" stroke="none" stroke-width="1px">2.5</text><text style="text-anchor: end; visibility: inherit; font-family: Roboto, sans-serif; font-size: 12px; font-weight: 200;" x="0" y="118.39999961853029" dx="0em" dy="0.3em" fill="rgb(50, 49, 63)" stroke="none" stroke-width="1px">3</text><text style="text-anchor: end; visibility: hidden; font-family: Roboto, sans-serif; font-size: 12px; font-weight: 200;" x="0" y="98.66666634877524" dx="0em" dy="0.3em" fill="rgb(50, 49, 63)" stroke="none" stroke-width="1px">3.5</text><text style="text-anchor: end; visibility: inherit; font-family: Roboto, sans-serif; font-size: 12px; font-weight: 200;" x="0" y="78.93333307902017" dx="0em" dy="0.3em" fill="rgb(50, 49, 63)" stroke="none" stroke-width="1px">4</text><text style="text-anchor: end; visibility: hidden; font-family: Roboto, sans-serif; font-size: 12px; font-weight: 200;" x="0" y="59.199999809265144" dx="0em" dy="0.3em" fill="rgb(50, 49, 63)" stroke="none" stroke-width="1px">4.5</text><text style="text-anchor: end; visibility: inherit; font-family: Roboto, sans-serif; font-size: 12px; font-weight: 200;" x="0" y="39.466666539510086" dx="0em" dy="0.3em" fill="rgb(50, 49, 63)" stroke="none" stroke-width="1px">5</text><text style="text-anchor: end; visibility: hidden; font-family: Roboto, sans-serif; font-size: 12px; font-weight: 200;" x="0" y="19.733333269755054" dx="0em" dy="0.3em" fill="rgb(50, 49, 63)" stroke="none" stroke-width="1px">5.5</text><text style="text-anchor: end; visibility: hidden; font-family: Roboto, sans-serif; font-size: 12px; font-weight: 200;" x="0" y="0" dx="0em" dy="0.3em" fill="rgb(50, 49, 63)" stroke="none" stroke-width="1px">6</text></g><line x1="41.149001121520996" y1="0" x2="41.149001121520996" y2="177.5999994277954" fill="rgb(0, 0, 0)" stroke="rgb(204, 204, 204)" stroke-width="1px"></line></g></g><g transform="translate(41, 0)" clip-path="url(#clip_0)"><clipPath id="clip_0"><rect width="288" height="177"></rect></clipPath><g><g><g><line x1="0" y1="0" x2="0" y2="177.5999994277954" fill="rgb(0, 0, 0)" stroke="rgb(60, 60, 60)" stroke-width="1px" opacity="0.25"></line><line x1="24.07091657320658" y1="0" x2="24.07091657320658" y2="177.5999994277954" fill="rgb(0, 0, 0)" stroke="rgb(60, 60, 60)" stroke-width="1px" opacity="0.25"></line><line x1="48.14183314641316" y1="0" x2="48.14183314641316" y2="177.5999994277954" fill="rgb(0, 0, 0)" stroke="rgb(60, 60, 60)" stroke-width="1px" opacity="0.25"></line><line x1="72.21274971961975" y1="0" x2="72.21274971961975" y2="177.5999994277954" fill="rgb(0, 0, 0)" stroke="rgb(60, 60, 60)" stroke-width="1px" opacity="0.25"></line><line x1="96.28366629282633" y1="0" x2="96.28366629282633" y2="177.5999994277954" fill="rgb(0, 0, 0)" stroke="rgb(60, 60, 60)" stroke-width="1px" opacity="0.25"></line><line x1="120.35458286603293" y1="0" x2="120.35458286603293" y2="177.5999994277954" fill="rgb(0, 0, 0)" stroke="rgb(60, 60, 60)" stroke-width="1px" opacity="0.25"></line><line x1="144.4254994392395" y1="0" x2="144.4254994392395" y2="177.5999994277954" fill="rgb(0, 0, 0)" stroke="rgb(60, 60, 60)" stroke-width="1px" opacity="0.25"></line><line x1="168.4964160124461" y1="0" x2="168.4964160124461" y2="177.5999994277954" fill="rgb(0, 0, 0)" stroke="rgb(60, 60, 60)" stroke-width="1px" opacity="0.25"></line><line x1="192.56733258565265" y1="0" x2="192.56733258565265" y2="177.5999994277954" fill="rgb(0, 0, 0)" stroke="rgb(60, 60, 60)" stroke-width="1px" opacity="0.25"></line><line x1="216.63824915885925" y1="0" x2="216.63824915885925" y2="177.5999994277954" fill="rgb(0, 0, 0)" stroke="rgb(60, 60, 60)" stroke-width="1px" opacity="0.25"></line><line x1="240.70916573206586" y1="0" x2="240.70916573206586" y2="177.5999994277954" fill="rgb(0, 0, 0)" stroke="rgb(60, 60, 60)" stroke-width="1px" opacity="0.25"></line><line x1="264.7800823052724" y1="0" x2="264.7800823052724" y2="177.5999994277954" fill="rgb(0, 0, 0)" stroke="rgb(60, 60, 60)" stroke-width="1px" opacity="0.25"></line><line x1="288.850998878479" y1="0" x2="288.850998878479" y2="177.5999994277954" fill="rgb(0, 0, 0)" stroke="rgb(60, 60, 60)" stroke-width="1px" opacity="0.25"></line></g><g><line x1="0" y1="177.5999994277954" x2="288.850998878479" y2="177.5999994277954" fill="rgb(0, 0, 0)" stroke="rgb(60, 60, 60)" stroke-width="1px" opacity="0.25"></line><line x1="0" y1="157.86666615804035" x2="288.850998878479" y2="157.86666615804035" fill="rgb(0, 0, 0)" stroke="rgb(60, 60, 60)" stroke-width="1px" opacity="0.25"></line><line x1="0" y1="138.1333328882853" x2="288.850998878479" y2="138.1333328882853" fill="rgb(0, 0, 0)" stroke="rgb(60, 60, 60)" stroke-width="1px" opacity="0.25"></line><line x1="0" y1="118.39999961853029" x2="288.850998878479" y2="118.39999961853029" fill="rgb(0, 0, 0)" stroke="rgb(60, 60, 60)" stroke-width="1px" opacity="0.25"></line><line x1="0" y1="98.66666634877524" x2="288.850998878479" y2="98.66666634877524" fill="rgb(0, 0, 0)" stroke="rgb(60, 60, 60)" stroke-width="1px" opacity="0.25"></line><line x1="0" y1="78.93333307902017" x2="288.850998878479" y2="78.93333307902017" fill="rgb(0, 0, 0)" stroke="rgb(60, 60, 60)" stroke-width="1px" opacity="0.25"></line><line x1="0" y1="59.199999809265144" x2="288.850998878479" y2="59.199999809265144" fill="rgb(0, 0, 0)" stroke="rgb(60, 60, 60)" stroke-width="1px" opacity="0.25"></line><line x1="0" y1="39.466666539510086" x2="288.850998878479" y2="39.466666539510086" fill="rgb(0, 0, 0)" stroke="rgb(60, 60, 60)" stroke-width="1px" opacity="0.25"></line><line x1="0" y1="19.733333269755054" x2="288.850998878479" y2="19.733333269755054" fill="rgb(0, 0, 0)" stroke="rgb(60, 60, 60)" stroke-width="1px" opacity="0.25"></line><line x1="0" y1="0" x2="288.850998878479" y2="0" fill="rgb(0, 0, 0)" stroke="rgb(60, 60, 60)" stroke-width="1px" opacity="0.25"></line></g></g></g><g><g><line x1="0" y1="236.79999923706055" x2="288.850998878479" y2="236.79999923706055" fill="rgb(0, 0, 0)" stroke="rgb(153, 153, 153)" stroke-width="1.5px"></line></g></g><g><g><line x1="24.07091657320658" y1="0" x2="24.07091657320658" y2="177.5999994277954" fill="rgb(0, 0, 0)" stroke="rgb(153, 153, 153)" stroke-width="1.5px"></line></g></g><g><g><g><g><g><path style="fill: none;" stroke="rgb(255, 112, 67)" stroke-width="2px" d="M24.07091657320658,9.369106516851684L26.47800823052724,22.488669577304304L28.8850998878479,33.50268545969391L31.29219154516856,39.13446862757887L33.69928320248922,42.44952032746109L36.106374859809875,47.061165355753296L38.51346651713053,60.3864683246307L40.920558174451195,75.38841271069266L43.32764983177185,88.93499952458652L45.73474148909251,97.09219844346511L48.14183314641316,104.31441162127936L50.548924803733826,109.80579761799622L52.95601646105448,113.63186725308621L55.363108118375145,116.36179425078636L57.7701997756958,117.4444865043312L60.177291433016464,120.26926883634336L62.58438309033712,122.71939855283159L64.99147474765778,125.29764859459034L67.39856640497844,127.28728068395165L69.80565806229909,129.89502014025916L72.21274971961975,130.30775756223477L74.61984137694041,129.13625557151096L77.02693303426106,131.4930058099923L79.43402469158173,133.0191278037071L81.84111634890239,132.29511103106273L84.24820800622305,132.78026887329105L86.6552996635437,132.46102276561396L89.06239132086436,134.0535302533076L91.46948297818501,134.8113198144252L93.87657463550568,136.2861772087439L96.28366629282633,135.36521840020654L98.69075795014699,136.82859081628936L101.09784960746765,140.09010774643195L103.50494126478831,139.6313058700392L105.91203292210896,140.57304940747494L108.31912457942963,139.80221650212525L110.72621623675029,140.90267544784004L113.13330789407094,140.45987250226284L115.5403995513916,141.77352585809697L117.94749120871226,142.09845381216664L120.35458286603293,142.6365104573609L122.76167452335358,141.58612820040622L125.16876618067424,141.66049997974412L127.57585783799489,144.4143086266389L129.98294949531555,144.83962512933118L132.3900411526362,143.8414882119615L134.79713280995688,144.93344101713262L137.20422446727753,146.00858136748528L139.61131612459818,147.43903483785698L142.01840778191882,146.16439076888201L144.4254994392395,146.61133324613155L146.83259109656015,147.0713225640564L149.23968275388083,148.5419233897332L151.64677441120148,148.09606804875804L154.05386606852213,148.54136490047085L156.46095772584277,147.9571636197098L158.86804938316345,147.92205595651976L161.2751410404841,148.73795526378686L163.68223269780478,148.5703217952513L166.08932435512543,149.01609994804676L168.4964160124461,149.16557815195313L170.90350766976675,148.88697385640805L173.3105993270874,150.5287591288843L175.71769098440805,150.97018954705126L178.12478264172873,151.3305626291867L180.53187429904938,151.5716202593124L182.93896595637003,152.04414505443037L185.3460576136907,152.83027487942604L187.75314927101135,153.0761942098839L190.160240928332,153.04480181866353L192.56733258565265,153.4749090501281L194.97442424297333,151.93250545860982L197.38151590029398,153.54594289350064L199.78860755761465,155.49659954886053L202.1956992149353,154.73112542494118L204.60279087225598,154.6954906481178L207.00988252957663,154.26495461162986L209.41697418689728,155.04280537002495L211.82406584421793,154.6754161980293L214.2311575015386,153.62594542536755L216.63824915885925,155.01993004916326L219.0453408161799,154.79325208093476L221.45243247350058,154.60956504298983L223.85952413082123,154.22485259731172L226.26661578814188,154.03274746050926L228.67370744546253,154.3686100687061L231.0807991027832,153.5545961224104L233.48789076010385,153.94341339877934L235.89498241742453,154.79051744263612L238.30207407474518,153.55321499420305L240.70916573206586,154.00884326656333L243.1162573893865,153.42388903564205L245.52334904670715,154.20003441337974L247.9304407040278,154.8540488692333L250.33753236134848,155.83177899268253L252.74462401866913,155.52260184340128L255.15171567598978,156.09408173710324L257.5588073333105,156.23564215932464L259.9658989906311,155.84715952990544L262.3729906479518,155.79154228241129L264.7800823052724,155.18737135795436L267.1871739625931,156.2333785236771L269.59426561991376,156.45009628878998L272.0013572772344,155.34203989536883L274.40844893455505,155.6519338393788" fill="none"></path></g></g></g></g><g opacity="0.2"><g><g><g><path style="fill: none;" stroke="rgb(255, 112, 67)" stroke-width="2px" d="M24.07091657320658,9.369106516851684L26.47800823052724,30.360407413575867L28.8850998878479,44.076140706787854L31.29219154516856,45.75744563301152L33.69928320248922,46.77765182682742L36.106374859809875,53.4407306220916L38.51346651713053,79.44186477497291L40.920558174451195,97.26139164423708L43.32764983177185,108.91358378605719L45.73474148909251,109.20468816540901L48.14183314641316,115.08222644603286L50.548924803733826,118.01299273297704L52.95601646105448,119.35847892452422L55.363108118375145,120.45133653615615L57.7701997756958,119.06725222054715L60.177291433016464,124.50445007900575L62.58438309033712,126.39355631478125L64.99147474765778,129.16436903982213L67.39856640497844,130.27142571757045L69.80565806229909,133.80639096700483L72.21274971961975,130.9268410596971L74.61984137694041,127.37904113419731L77.02693303426106,135.02808463779198L79.43402469158173,135.30829271590937L81.84111634890239,131.2090910180976L84.24820800622305,133.50800356765694L86.6552996635437,131.9821544209617L89.06239132086436,136.4422890399739L91.46948297818501,135.9480034580703L93.87657463550568,138.4984624850907L96.28366629282633,133.98378049280046L98.69075795014699,139.02364914925147L101.09784960746765,144.98238275228627L103.50494126478831,138.94310308831305L105.91203292210896,141.9856646731555L108.31912457942963,138.64596716397742L110.72621623675029,142.55336384938633L113.13330789407094,139.7956680880076L115.5403995513916,143.74400588453136L117.94749120871226,142.58584574218534L120.35458286603293,143.44359542407346L122.76167452335358,140.0105548162378L125.16876618067424,141.77205764869723L127.57585783799489,148.54502159578837L129.98294949531555,145.4775998832591L132.3900411526362,142.34428283606258L134.79713280995688,146.5713702247872L137.20422446727753,147.62129189295396L139.61131612459818,149.58471504336634L142.01840778191882,144.25242466544537L144.4254994392395,147.2817469620004L146.83259109656015,147.76130654094032L149.23968275388083,150.747824628242L151.64677441120148,147.42728503729649L154.05386606852213,149.20931017803937L156.46095772584277,147.08086169856884L158.86804938316345,147.8693944617347L161.2751410404841,149.9618042246872L163.68223269780478,148.31887159244798L166.08932435512543,149.68476717723996L168.4964160124461,149.3897954578127L170.90350766976675,148.46906741309036L173.3105993270874,152.99143703759864L175.71769098440805,151.63233517430172L178.12478264172873,151.8711222523898L180.53187429904938,151.93320670450095L182.93896595637003,152.7529322471073L185.3460576136907,154.00946961691957L187.75314927101135,153.44507320557068L190.160240928332,152.99771323183296L192.56733258565265,154.12006989732495L194.97442424297333,149.61890007133235L197.38151590029398,155.96609904583693L199.78860755761465,158.4225845319003L202.1956992149353,153.58291423906212L204.60279087225598,154.64203848288284L207.00988252957663,153.61915055689784L209.41697418689728,156.20958150761757L211.82406584421793,154.12433244003583L214.2311575015386,152.05173926637494L216.63824915885925,157.11090698485685L219.0453408161799,154.45323512859204L221.45243247350058,154.33403448607245L223.85952413082123,153.64778392879452L226.26661578814188,153.74458975530555L228.67370744546253,154.8724039810013L231.0807991027832,152.3335752029669L233.48789076010385,154.52663931333274L235.89498241742453,156.06117350842123L238.30207407474518,151.69726132155347L240.70916573206586,154.69228567510373L243.1162573893865,152.54645768926017L245.52334904670715,155.3642524799863L247.9304407040278,155.83507055301365L250.33753236134848,157.29837417785635L252.74462401866913,155.05883611947942L255.15171567598978,156.9513015776562L257.5588073333105,156.44798279265677L259.9658989906311,155.26443558577662L262.3729906479518,155.70811641117007L264.7800823052724,154.281114971269L267.1871739625931,157.8023892722611L269.59426561991376,156.77517293645937L272.0013572772344,153.6799553052371L274.40844893455505,156.1167747553938" fill="none"></path></g></g></g></g></g></g><g transform="translate(41, 177)" clip-path="url(#clip_1)"><clipPath id="clip_1"><rect width="288" height="22"></rect></clipPath><g><g><line x1="0" y1="0" x2="0" y2="5" style="visibility: inherit;" fill="rgb(0, 0, 0)" stroke="rgb(204, 204, 204)" stroke-width="1px"></line><line x1="24.07091657320658" y1="0" x2="24.07091657320658" y2="5" style="visibility: inherit;" fill="rgb(0, 0, 0)" stroke="rgb(204, 204, 204)" stroke-width="1px"></line><line x1="48.14183314641316" y1="0" x2="48.14183314641316" y2="5" style="visibility: inherit;" fill="rgb(0, 0, 0)" stroke="rgb(204, 204, 204)" stroke-width="1px"></line><line x1="72.21274971961975" y1="0" x2="72.21274971961975" y2="5" style="visibility: inherit;" fill="rgb(0, 0, 0)" stroke="rgb(204, 204, 204)" stroke-width="1px"></line><line x1="96.28366629282633" y1="0" x2="96.28366629282633" y2="5" style="visibility: inherit;" fill="rgb(0, 0, 0)" stroke="rgb(204, 204, 204)" stroke-width="1px"></line><line x1="120.35458286603293" y1="0" x2="120.35458286603293" y2="5" style="visibility: inherit;" fill="rgb(0, 0, 0)" stroke="rgb(204, 204, 204)" stroke-width="1px"></line><line x1="144.4254994392395" y1="0" x2="144.4254994392395" y2="5" style="visibility: inherit;" fill="rgb(0, 0, 0)" stroke="rgb(204, 204, 204)" stroke-width="1px"></line><line x1="168.4964160124461" y1="0" x2="168.4964160124461" y2="5" style="visibility: inherit;" fill="rgb(0, 0, 0)" stroke="rgb(204, 204, 204)" stroke-width="1px"></line><line x1="192.56733258565265" y1="0" x2="192.56733258565265" y2="5" style="visibility: inherit;" fill="rgb(0, 0, 0)" stroke="rgb(204, 204, 204)" stroke-width="1px"></line><line x1="216.63824915885925" y1="0" x2="216.63824915885925" y2="5" style="visibility: inherit;" fill="rgb(0, 0, 0)" stroke="rgb(204, 204, 204)" stroke-width="1px"></line><line x1="240.70916573206586" y1="0" x2="240.70916573206586" y2="5" style="visibility: inherit;" fill="rgb(0, 0, 0)" stroke="rgb(204, 204, 204)" stroke-width="1px"></line><line x1="264.7800823052724" y1="0" x2="264.7800823052724" y2="5" style="visibility: inherit;" fill="rgb(0, 0, 0)" stroke="rgb(204, 204, 204)" stroke-width="1px"></line><line x1="288.850998878479" y1="0" x2="288.850998878479" y2="5" style="visibility: inherit;" fill="rgb(0, 0, 0)" stroke="rgb(204, 204, 204)" stroke-width="1px"></line></g><g transform="translate(0, 8)"><text style="text-anchor: middle; visibility: hidden; font-family: Roboto, sans-serif; font-size: 12px; font-weight: 200;" x="0" y="0" dx="0em" dy="0.95em" fill="rgb(50, 49, 63)" stroke="none" stroke-width="1px">-10</text><text style="text-anchor: middle; visibility: inherit; font-family: Roboto, sans-serif; font-size: 12px; font-weight: 200;" x="24.07091657320658" y="0" dx="0em" dy="0.95em" fill="rgb(50, 49, 63)" stroke="none" stroke-width="1px">0</text><text style="text-anchor: middle; visibility: inherit; font-family: Roboto, sans-serif; font-size: 12px; font-weight: 200;" x="48.14183314641316" y="0" dx="0em" dy="0.95em" fill="rgb(50, 49, 63)" stroke="none" stroke-width="1px">10</text><text style="text-anchor: middle; visibility: inherit; font-family: Roboto, sans-serif; font-size: 12px; font-weight: 200;" x="72.21274971961975" y="0" dx="0em" dy="0.95em" fill="rgb(50, 49, 63)" stroke="none" stroke-width="1px">20</text><text style="text-anchor: middle; visibility: inherit; font-family: Roboto, sans-serif; font-size: 12px; font-weight: 200;" x="96.28366629282633" y="0" dx="0em" dy="0.95em" fill="rgb(50, 49, 63)" stroke="none" stroke-width="1px">30</text><text style="text-anchor: middle; visibility: inherit; font-family: Roboto, sans-serif; font-size: 12px; font-weight: 200;" x="120.35458286603293" y="0" dx="0em" dy="0.95em" fill="rgb(50, 49, 63)" stroke="none" stroke-width="1px">40</text><text style="text-anchor: middle; visibility: inherit; font-family: Roboto, sans-serif; font-size: 12px; font-weight: 200;" x="144.4254994392395" y="0" dx="0em" dy="0.95em" fill="rgb(50, 49, 63)" stroke="none" stroke-width="1px">50</text><text style="text-anchor: middle; visibility: inherit; font-family: Roboto, sans-serif; font-size: 12px; font-weight: 200;" x="168.4964160124461" y="0" dx="0em" dy="0.95em" fill="rgb(50, 49, 63)" stroke="none" stroke-width="1px">60</text><text style="text-anchor: middle; visibility: inherit; font-family: Roboto, sans-serif; font-size: 12px; font-weight: 200;" x="192.56733258565265" y="0" dx="0em" dy="0.95em" fill="rgb(50, 49, 63)" stroke="none" stroke-width="1px">70</text><text style="text-anchor: middle; visibility: inherit; font-family: Roboto, sans-serif; font-size: 12px; font-weight: 200;" x="216.63824915885925" y="0" dx="0em" dy="0.95em" fill="rgb(50, 49, 63)" stroke="none" stroke-width="1px">80</text><text style="text-anchor: middle; visibility: inherit; font-family: Roboto, sans-serif; font-size: 12px; font-weight: 200;" x="240.70916573206586" y="0" dx="0em" dy="0.95em" fill="rgb(50, 49, 63)" stroke="none" stroke-width="1px">90</text><text style="text-anchor: middle; visibility: inherit; font-family: Roboto, sans-serif; font-size: 12px; font-weight: 200;" x="264.7800823052724" y="0" dx="0em" dy="0.95em" fill="rgb(50, 49, 63)" stroke="none" stroke-width="1px">100</text><text style="text-anchor: middle; visibility: hidden; font-family: Roboto, sans-serif; font-size: 12px; font-weight: 200;" x="288.850998878479" y="0" dx="0em" dy="0.95em" fill="rgb(50, 49, 63)" stroke="none" stroke-width="1px">110</text></g><line x1="0" y1="0" x2="288.850998878479" y2="0" fill="rgb(0, 0, 0)" stroke="rgb(204, 204, 204)" stroke-width="1px"></line></g></g></g></g></svg>