<svg viewBox="0 0 330 200" xmlns="http://www.w3.org/2000/svg"><g><g><g><g><g><line x1="41.149001121520996" y1="177.5999994277954" x2="36.149001121520996" y2="177.5999994277954" style="visibility: inherit;" fill="rgb(0, 0, 0)" stroke="rgb(204, 204, 204)" stroke-width="1px"></line><line x1="41.149001121520996" y1="155.39999949932098" x2="36.149001121520996" y2="155.39999949932098" style="visibility: inherit;" fill="rgb(0, 0, 0)" stroke="rgb(204, 204, 204)" stroke-width="1px"></line><line x1="41.149001121520996" y1="133.19999957084656" x2="36.149001121520996" y2="133.19999957084656" style="visibility: inherit;" fill="rgb(0, 0, 0)" stroke="rgb(204, 204, 204)" stroke-width="1px"></line><line x1="41.149001121520996" y1="110.99999964237213" x2="36.149001121520996" y2="110.99999964237213" style="visibility: inherit;" fill="rgb(0, 0, 0)" stroke="rgb(204, 204, 204)" stroke-width="1px"></line><line x1="41.149001121520996" y1="88.7999997138977" x2="36.149001121520996" y2="88.7999997138977" style="visibility: inherit;" fill="rgb(0, 0, 0)" stroke="rgb(204, 204, 204)" stroke-width="1px"></line><line x1="41.149001121520996" y1="66.59999978542328" x2="36.149001121520996" y2="66.59999978542328" style="visibility: inherit;" fill="rgb(0, 0, 0)" stroke="rgb(204, 204, 204)" stroke-width="1px"></line><line x1="41.149001121520996" y1="44.39999985694885" x2="36.149001121520996" y2="44.39999985694885" style="visibility: inherit;" fill="rgb(0, 0, 0)" stroke="rgb(204, 204, 204)" stroke-width="1px"></line><line x1="41.149001121520996" y1="22.199999928474426" x2="36.149001121520996" y2="22.199999928474426" style="visibility: inherit;" fill="rgb(0, 0, 0)" stroke="rgb(204, 204, 204)" stroke-width="1px"></line><line x1="41.149001121520996" y1="0" x2="36.149001121520996" y2="0" style="visibility: inherit;" fill="rgb(0, 0, 0)" stroke="rgb(204, 204, 204)" stroke-width="1px"></line></g><g transform="translate(31.149001121520996, 0)"><text style="text-anchor: end; visibility: hidden; font-family: Roboto, sans-serif; font-size: 12px; font-weight: 200;" x="0" y="177.5999994277954" dx="0em" dy="0.3em" fill="rgb(50, 49, 63)" stroke="none" stroke-width="1px">2</text><text style="text-anchor: end; visibility: inherit; font-family: Roboto, sans-serif; font-size: 12px; font-weight: 200;" x="0" y="155.39999949932098" dx="0em" dy="0.3em" fill="rgb(50, 49, 63)" stroke="none" stroke-width="1px">2.5</text><text style="text-anchor: end; visibility: hidden; font-family: Roboto, sans-serif; font-size: 12px; font-weight: 200;" x="0" y="133.19999957084656" dx="0em" dy="0.3em" fill="rgb(50, 49, 63)" stroke="none" stroke-width="1px">3</text><text style="text-anchor: end; visibility: inherit; font-family: Roboto, sans-serif; font-size: 12px; font-weight: 200;" x="0" y="110.99999964237213" dx="0em" dy="0.3em" fill="rgb(50, 49, 63)" stroke="none" stroke-width="1px">3.5</text><text style="text-anchor: end; visibility: hidden; font-family: Roboto, sans-serif; font-size: 12px; font-weight: 200;" x="0" y="88.7999997138977" dx="0em" dy="0.3em" fill="rgb(50, 49, 63)" stroke="none" stroke-width="1px">4</text><text style="text-anchor: end; visibility: inherit; font-family: Roboto, sans-serif; font-size: 12px; font-weight: 200;" x="0" y="66.59999978542328" dx="0em" dy="0.3em" fill="rgb(50, 49, 63)" stroke="none" stroke-width="1px">4.5</text><text style="text-anchor: end; visibility: hidden; font-family: Roboto, sans-serif; font-size: 12px; font-weight: 200;" x="0" y="44.39999985694885" dx="0em" dy="0.3em" fill="rgb(50, 49, 63)" stroke="none" stroke-width="1px">5</text><text style="text-anchor: end; visibility: inherit; font-family: Roboto, sans-serif; font-size: 12px; font-weight: 200;" x="0" y="22.199999928474426" dx="0em" dy="0.3em" fill="rgb(50, 49, 63)" stroke="none" stroke-width="1px">5.5</text><text style="text-anchor: end; visibility: hidden; font-family: Roboto, sans-serif; font-size: 12px; font-weight: 200;" x="0" y="0" dx="0em" dy="0.3em" fill="rgb(50, 49, 63)" stroke="none" stroke-width="1px">6</text></g><line x1="41.149001121520996" y1="0" x2="41.149001121520996" y2="177.5999994277954" fill="rgb(0, 0, 0)" stroke="rgb(204, 204, 204)" stroke-width="1px"></line></g></g><g transform="translate(41, 0)" clip-path="url(#clip_0)"><clipPath id="clip_0"><rect width="288" height="177"></rect></clipPath><g><g><g><line x1="0" y1="0" x2="0" y2="177.5999994277954" fill="rgb(0, 0, 0)" stroke="rgb(60, 60, 60)" stroke-width="1px" opacity="0.25"></line><line x1="24.07091657320658" y1="0" x2="24.07091657320658" y2="177.5999994277954" fill="rgb(0, 0, 0)" stroke="rgb(60, 60, 60)" stroke-width="1px" opacity="0.25"></line><line x1="48.14183314641316" y1="0" x2="48.14183314641316" y2="177.5999994277954" fill="rgb(0, 0, 0)" stroke="rgb(60, 60, 60)" stroke-width="1px" opacity="0.25"></line><line x1="72.21274971961975" y1="0" x2="72.21274971961975" y2="177.5999994277954" fill="rgb(0, 0, 0)" stroke="rgb(60, 60, 60)" stroke-width="1px" opacity="0.25"></line><line x1="96.28366629282633" y1="0" x2="96.28366629282633" y2="177.5999994277954" fill="rgb(0, 0, 0)" stroke="rgb(60, 60, 60)" stroke-width="1px" opacity="0.25"></line><line x1="120.35458286603293" y1="0" x2="120.35458286603293" y2="177.5999994277954" fill="rgb(0, 0, 0)" stroke="rgb(60, 60, 60)" stroke-width="1px" opacity="0.25"></line><line x1="144.4254994392395" y1="0" x2="144.4254994392395" y2="177.5999994277954" fill="rgb(0, 0, 0)" stroke="rgb(60, 60, 60)" stroke-width="1px" opacity="0.25"></line><line x1="168.4964160124461" y1="0" x2="168.4964160124461" y2="177.5999994277954" fill="rgb(0, 0, 0)" stroke="rgb(60, 60, 60)" stroke-width="1px" opacity="0.25"></line><line x1="192.56733258565265" y1="0" x2="192.56733258565265" y2="177.5999994277954" fill="rgb(0, 0, 0)" stroke="rgb(60, 60, 60)" stroke-width="1px" opacity="0.25"></line><line x1="216.63824915885925" y1="0" x2="216.63824915885925" y2="177.5999994277954" fill="rgb(0, 0, 0)" stroke="rgb(60, 60, 60)" stroke-width="1px" opacity="0.25"></line><line x1="240.70916573206586" y1="0" x2="240.70916573206586" y2="177.5999994277954" fill="rgb(0, 0, 0)" stroke="rgb(60, 60, 60)" stroke-width="1px" opacity="0.25"></line><line x1="264.7800823052724" y1="0" x2="264.7800823052724" y2="177.5999994277954" fill="rgb(0, 0, 0)" stroke="rgb(60, 60, 60)" stroke-width="1px" opacity="0.25"></line><line x1="288.850998878479" y1="0" x2="288.850998878479" y2="177.5999994277954" fill="rgb(0, 0, 0)" stroke="rgb(60, 60, 60)" stroke-width="1px" opacity="0.25"></line></g><g><line x1="0" y1="177.5999994277954" x2="288.850998878479" y2="177.5999994277954" fill="rgb(0, 0, 0)" stroke="rgb(60, 60, 60)" stroke-width="1px" opacity="0.25"></line><line x1="0" y1="155.39999949932098" x2="288.850998878479" y2="155.39999949932098" fill="rgb(0, 0, 0)" stroke="rgb(60, 60, 60)" stroke-width="1px" opacity="0.25"></line><line x1="0" y1="133.19999957084656" x2="288.850998878479" y2="133.19999957084656" fill="rgb(0, 0, 0)" stroke="rgb(60, 60, 60)" stroke-width="1px" opacity="0.25"></line><line x1="0" y1="110.99999964237213" x2="288.850998878479" y2="110.99999964237213" fill="rgb(0, 0, 0)" stroke="rgb(60, 60, 60)" stroke-width="1px" opacity="0.25"></line><line x1="0" y1="88.7999997138977" x2="288.850998878479" y2="88.7999997138977" fill="rgb(0, 0, 0)" stroke="rgb(60, 60, 60)" stroke-width="1px" opacity="0.25"></line><line x1="0" y1="66.59999978542328" x2="288.850998878479" y2="66.59999978542328" fill="rgb(0, 0, 0)" stroke="rgb(60, 60, 60)" stroke-width="1px" opacity="0.25"></line><line x1="0" y1="44.39999985694885" x2="288.850998878479" y2="44.39999985694885" fill="rgb(0, 0, 0)" stroke="rgb(60, 60, 60)" stroke-width="1px" opacity="0.25"></line><line x1="0" y1="22.199999928474426" x2="288.850998878479" y2="22.199999928474426" fill="rgb(0, 0, 0)" stroke="rgb(60, 60, 60)" stroke-width="1px" opacity="0.25"></line><line x1="0" y1="0" x2="288.850998878479" y2="0" fill="rgb(0, 0, 0)" stroke="rgb(60, 60, 60)" stroke-width="1px" opacity="0.25"></line></g></g></g><g><g><line x1="0" y1="266.3999991416931" x2="288.850998878479" y2="266.3999991416931" fill="rgb(0, 0, 0)" stroke="rgb(153, 153, 153)" stroke-width="1.5px"></line></g></g><g><g><line x1="24.07091657320658" y1="0" x2="24.07091657320658" y2="177.5999994277954" fill="rgb(0, 0, 0)" stroke="rgb(153, 153, 153)" stroke-width="1.5px"></line></g></g><g><g><g><g><g><path style="fill: none;" stroke="rgb(255, 112, 67)" stroke-width="2px" d="M24.07091657320658,23.79515068017103L26.47800823052724,25.812814510149522L28.8850998878479,28.371964460553695L31.29219154516856,30.756321562519588L33.69928320248922,38.04760181814492L36.106374859809875,51.91537966171176L38.51346651713053,67.94670833700847L40.920558174451195,82.22416927840169L43.32764983177185,91.5220555854502L45.73474148909251,98.9134502095842L48.14183314641316,104.00655700760352L50.548924803733826,112.36508283659433L52.95601646105448,117.42392368299083L55.363108118375145,118.48888206695814L57.7701997756958,120.423954270425L60.177291433016464,126.18043353415106L62.58438309033712,129.21561437054675L64.99147474765778,130.0520531942781L67.39856640497844,131.2058761054714L69.80565806229909,130.2226090772829L72.21274971961975,136.0791455469725L74.61984137694041,136.45402155050732L77.02693303426106,138.56015444757045L79.43402469158173,138.97002936731957L81.84111634890239,137.43373797018586L84.24820800622305,138.810639160115L86.6552996635437,139.98923879060004L89.06239132086436,142.1855645848547L91.46948297818501,143.3421376351114L93.87657463550568,143.95678094332203L96.28366629282633,143.42158303593385L98.69075795014699,146.3732039591105L101.09784960746765,146.83090382799793L103.50494126478831,147.38511125923694L105.91203292210896,149.03869934016328L108.31912457942963,149.11028266784223L110.72621623675029,149.67684369610913L113.13330789407094,150.03593211289768L115.5403995513916,148.24968945487853L117.94749120871226,149.46746705928672L120.35458286603293,151.93387630010025L122.76167452335358,154.7402688901628L125.16876618067424,153.70180048861337L127.57585783799489,154.1864625551553L129.98294949531555,153.03044976383214L132.3900411526362,152.8506041037883L134.79713280995688,150.1976665416184L137.20422446727753,153.98645097660622L139.61131612459818,153.92555607191332L142.01840778191882,157.13233424318648L144.4254994392395,157.1290091843608L146.83259109656015,158.65515264817472L149.23968275388083,157.9386631335715L151.64677441120148,157.1482091232373L154.05386606852213,157.92265707281712L156.46095772584277,160.06984319401704L158.86804938316345,158.55308277799512L161.2751410404841,160.25561517352955L163.68223269780478,162.16995241040277L166.08932435512543,163.18351824630886L168.4964160124461,162.53145816695172L170.90350766976675,161.4122588648469L173.3105993270874,161.91333514314834L175.71769098440805,162.67292973067202L178.12478264172873,166.50239729537566L180.53187429904938,165.3641776530071L182.93896595637003,164.27520479986345L185.3460576136907,165.1255148926418L187.75314927101135,163.74429642101646L190.160240928332,161.3335070850818L192.56733258565265,163.33557309185605L194.97442424297333,162.63694377503978L197.38151590029398,162.57990165131258L199.78860755761465,164.4590696967172L202.1956992149353,163.7311915397644L204.60279087225598,164.61852191519154L207.00988252957663,166.0337745992733L209.41697418689728,166.85517875040014L211.82406584421793,167.31437961673396L214.2311575015386,167.89775593235632L216.63824915885925,168.50610451295069L219.0453408161799,168.8881991181004L221.45243247350058,167.964028760883L223.85952413082123,167.7571975964578L226.26661578814188,168.04502566191738L228.67370744546253,166.87934478181137L231.0807991027832,167.8232226864416L233.48789076010385,166.55286070680478L235.89498241742453,165.04183050263643L238.30207407474518,166.75745102677726L240.70916573206586,165.28082931552225L243.1162573893865,168.30137929406624L245.52334904670715,167.6100017849868L247.9304407040278,167.01113929227807L250.33753236134848,166.90031674519304L252.74462401866913,164.48288129946764L255.15171567598978,167.44376218090554L257.5588073333105,169.97962599632325L259.9658989906311,167.67419674236186L262.3729906479518,166.82827363039246L264.7800823052724,167.22558418595463L267.1871739625931,168.41409128954618L269.59426561991376,167.37502797006613L272.0013572772344,167.93720635334236L274.40844893455505,168.6055012362456" fill="none"></path></g></g></g></g><g opacity="0.2"><g><g><g><path style="fill: none;" stroke="rgb(255, 112, 67)" stroke-width="2px" d="M24.07091657320658,23.79515068017099L26.47800823052724,27.02341280813664L28.8850998878479,30.828748412941763L31.29219154516856,33.5603255144315L33.69928320248922,47.5670973198894L36.106374859809875,71.09950881938835L38.51346651713053,90.87176484394149L40.920558174451195,103.04084439457802L43.32764983177185,105.23463186691055L45.73474148909251,109.88880980372812L48.14183314641316,111.60002310082712L50.548924803733826,124.85738485163165L52.95601646105448,124.99566695949301L55.363108118375145,120.0842332785702L57.7701997756958,123.32428797088994L60.177291433016464,134.8110925145694L62.58438309033712,133.76710123833095L64.99147474765778,131.30649905814835L67.39856640497844,132.93643469895403L69.80565806229909,128.74779840950129L72.21274971961975,144.86362906512818L74.61984137694041,137.01632322035505L77.02693303426106,141.7193122112451L79.43402469158173,139.58483689158402L81.84111634890239,135.12931179378705L84.24820800622305,140.87598507315408L86.6552996635437,141.7571352206142L89.06239132086436,145.4800499043592L91.46948297818501,145.07699614512921L93.87657463550568,144.87874556593397L96.28366629282633,142.61878635232904L98.69075795014699,150.8006347566017L101.09784960746765,147.51745357668898L103.50494126478831,148.21642236639866L105.91203292210896,151.51908139048692L108.31912457942963,149.21765765751485L110.72621623675029,150.52668522974386L113.13330789407094,150.57456473474707L115.5403995513916,145.5703254777988L117.94749120871226,151.29413346182935L120.35458286603293,155.6334901563751L122.76167452335358,158.94985777188037L125.16876618067424,152.14409788703887L127.57585783799489,154.9134556547582L129.98294949531555,151.29643057714787L132.3900411526362,152.58083561375065L134.79713280995688,146.21826019861163L137.20422446727753,159.66962762887533L139.61131612459818,153.834213714876L142.01840778191882,161.94250150003143L144.4254994392395,157.12402159612236L146.83259109656015,160.9443678438845L149.23968275388083,156.86392886166982L151.64677441120148,155.96252810773808L154.05386606852213,159.08432899718565L156.46095772584277,163.2906223758149L158.86804938316345,156.27794215396307L161.2751410404841,162.80941376683063L163.68223269780478,165.04145826571227L166.08932435512543,164.70386700016786L168.4964160124461,161.55336804791602L170.90350766976675,159.7334599116897L173.3105993270874,162.66494956060052L175.71769098440805,163.81232161195754L178.12478264172873,172.24659864243108L180.53187429904938,163.6568481894543L182.93896595637003,162.64174552014794L185.3460576136907,166.40098003180935L187.75314927101135,161.67246871357844L190.160240928332,157.7173230811798L192.56733258565265,166.33867210201743L194.97442424297333,161.58899979981538L197.38151590029398,162.49433846572174L199.78860755761465,167.27782176482413L202.1956992149353,162.63937430433526L204.60279087225598,165.94951747833227L207.00988252957663,168.15665362539596L209.41697418689728,168.0872849770904L211.82406584421793,168.00318091623467L214.2311575015386,168.7728204057899L216.63824915885925,169.41862738384225L219.0453408161799,169.461341025825L221.45243247350058,166.5777732250569L223.85952413082123,167.44695084981998L226.26661578814188,168.47676776010678L228.67370744546253,165.13082346165237L231.0807991027832,169.23903954338692L233.48789076010385,164.64731773734957L235.89498241742453,162.77528519638395L238.30207407474518,169.33088181298848L240.70916573206586,163.06589674863977L243.1162573893865,172.83220426188223L245.52334904670715,166.57293552136764L247.9304407040278,166.11284555321498L250.33753236134848,166.73408292456548L252.74462401866913,160.8567281308795L255.15171567598978,171.8850835030624L257.5588073333105,173.78342171944985L259.9658989906311,164.2160528614197L262.3729906479518,165.55938896243833L264.7800823052724,167.8215500192979L267.1871739625931,170.19685194493354L269.59426561991376,165.816432990846L272.0013572772344,168.7804739282567L274.40844893455505,169.60794356060046" fill="none"></path></g></g></g></g></g></g><g transform="translate(41, 177)" clip-path="url(#clip_1)"><clipPath id="clip_1"><rect width="288" height="22"></rect></clipPath><g><g><line x1="0" y1="0" x2="0" y2="5" style="visibility: inherit;" fill="rgb(0, 0, 0)" stroke="rgb(204, 204, 204)" stroke-width="1px"></line><line x1="24.07091657320658" y1="0" x2="24.07091657320658" y2="5" style="visibility: inherit;" fill="rgb(0, 0, 0)" stroke="rgb(204, 204, 204)" stroke-width="1px"></line><line x1="48.14183314641316" y1="0" x2="48.14183314641316" y2="5" style="visibility: inherit;" fill="rgb(0, 0, 0)" stroke="rgb(204, 204, 204)" stroke-width="1px"></line><line x1="72.21274971961975" y1="0" x2="72.21274971961975" y2="5" style="visibility: inherit;" fill="rgb(0, 0, 0)" stroke="rgb(204, 204, 204)" stroke-width="1px"></line><line x1="96.28366629282633" y1="0" x2="96.28366629282633" y2="5" style="visibility: inherit;" fill="rgb(0, 0, 0)" stroke="rgb(204, 204, 204)" stroke-width="1px"></line><line x1="120.35458286603293" y1="0" x2="120.35458286603293" y2="5" style="visibility: inherit;" fill="rgb(0, 0, 0)" stroke="rgb(204, 204, 204)" stroke-width="1px"></line><line x1="144.4254994392395" y1="0" x2="144.4254994392395" y2="5" style="visibility: inherit;" fill="rgb(0, 0, 0)" stroke="rgb(204, 204, 204)" stroke-width="1px"></line><line x1="168.4964160124461" y1="0" x2="168.4964160124461" y2="5" style="visibility: inherit;" fill="rgb(0, 0, 0)" stroke="rgb(204, 204, 204)" stroke-width="1px"></line><line x1="192.56733258565265" y1="0" x2="192.56733258565265" y2="5" style="visibility: inherit;" fill="rgb(0, 0, 0)" stroke="rgb(204, 204, 204)" stroke-width="1px"></line><line x1="216.63824915885925" y1="0" x2="216.63824915885925" y2="5" style="visibility: inherit;" fill="rgb(0, 0, 0)" stroke="rgb(204, 204, 204)" stroke-width="1px"></line><line x1="240.70916573206586" y1="0" x2="240.70916573206586" y2="5" style="visibility: inherit;" fill="rgb(0, 0, 0)" stroke="rgb(204, 204, 204)" stroke-width="1px"></line><line x1="264.7800823052724" y1="0" x2="264.7800823052724" y2="5" style="visibility: inherit;" fill="rgb(0, 0, 0)" stroke="rgb(204, 204, 204)" stroke-width="1px"></line><line x1="288.850998878479" y1="0" x2="288.850998878479" y2="5" style="visibility: inherit;" fill="rgb(0, 0, 0)" stroke="rgb(204, 204, 204)" stroke-width="1px"></line></g><g transform="translate(0, 8)"><text style="text-anchor: middle; visibility: hidden; font-family: Roboto, sans-serif; font-size: 12px; font-weight: 200;" x="0" y="0" dx="0em" dy="0.95em" fill="rgb(50, 49, 63)" stroke="none" stroke-width="1px">-10</text><text style="text-anchor: middle; visibility: inherit; font-family: Roboto, sans-serif; font-size: 12px; font-weight: 200;" x="24.07091657320658" y="0" dx="0em" dy="0.95em" fill="rgb(50, 49, 63)" stroke="none" stroke-width="1px">0</text><text style="text-anchor: middle; visibility: inherit; font-family: Roboto, sans-serif; font-size: 12px; font-weight: 200;" x="48.14183314641316" y="0" dx="0em" dy="0.95em" fill="rgb(50, 49, 63)" stroke="none" stroke-width="1px">10</text><text style="text-anchor: middle; visibility: inherit; font-family: Roboto, sans-serif; font-size: 12px; font-weight: 200;" x="72.21274971961975" y="0" dx="0em" dy="0.95em" fill="rgb(50, 49, 63)" stroke="none" stroke-width="1px">20</text><text style="text-anchor: middle; visibility: inherit; font-family: Roboto, sans-serif; font-size: 12px; font-weight: 200;" x="96.28366629282633" y="0" dx="0em" dy="0.95em" fill="rgb(50, 49, 63)" stroke="none" stroke-width="1px">30</text><text style="text-anchor: middle; visibility: inherit; font-family: Roboto, sans-serif; font-size: 12px; font-weight: 200;" x="120.35458286603293" y="0" dx="0em" dy="0.95em" fill="rgb(50, 49, 63)" stroke="none" stroke-width="1px">40</text><text style="text-anchor: middle; visibility: inherit; font-family: Roboto, sans-serif; font-size: 12px; font-weight: 200;" x="144.4254994392395" y="0" dx="0em" dy="0.95em" fill="rgb(50, 49, 63)" stroke="none" stroke-width="1px">50</text><text style="text-anchor: middle; visibility: inherit; font-family: Roboto, sans-serif; font-size: 12px; font-weight: 200;" x="168.4964160124461" y="0" dx="0em" dy="0.95em" fill="rgb(50, 49, 63)" stroke="none" stroke-width="1px">60</text><text style="text-anchor: middle; visibility: inherit; font-family: Roboto, sans-serif; font-size: 12px; font-weight: 200;" x="192.56733258565265" y="0" dx="0em" dy="0.95em" fill="rgb(50, 49, 63)" stroke="none" stroke-width="1px">70</text><text style="text-anchor: middle; visibility: inherit; font-family: Roboto, sans-serif; font-size: 12px; font-weight: 200;" x="216.63824915885925" y="0" dx="0em" dy="0.95em" fill="rgb(50, 49, 63)" stroke="none" stroke-width="1px">80</text><text style="text-anchor: middle; visibility: inherit; font-family: Roboto, sans-serif; font-size: 12px; font-weight: 200;" x="240.70916573206586" y="0" dx="0em" dy="0.95em" fill="rgb(50, 49, 63)" stroke="none" stroke-width="1px">90</text><text style="text-anchor: middle; visibility: inherit; font-family: Roboto, sans-serif; font-size: 12px; font-weight: 200;" x="264.7800823052724" y="0" dx="0em" dy="0.95em" fill="rgb(50, 49, 63)" stroke="none" stroke-width="1px">100</text><text style="text-anchor: middle; visibility: hidden; font-family: Roboto, sans-serif; font-size: 12px; font-weight: 200;" x="288.850998878479" y="0" dx="0em" dy="0.95em" fill="rgb(50, 49, 63)" stroke="none" stroke-width="1px">110</text></g><line x1="0" y1="0" x2="288.850998878479" y2="0" fill="rgb(0, 0, 0)" stroke="rgb(204, 204, 204)" stroke-width="1px"></line></g></g></g></g></svg>