<svg viewBox="0 0 330 200" xmlns="http://www.w3.org/2000/svg"><g><g><g><g><g><line x1="61.91500186920166" y1="176.5999994277954" x2="56.91500186920166" y2="176.5999994277954" style="visibility: inherit;" fill="rgb(0, 0, 0)" stroke="rgb(204, 204, 204)" stroke-width="1px"></line><line x1="61.91500186920166" y1="160.54545402526855" x2="56.91500186920166" y2="160.54545402526855" style="visibility: inherit;" fill="rgb(0, 0, 0)" stroke="rgb(204, 204, 204)" stroke-width="1px"></line><line x1="61.91500186920166" y1="144.4909086227417" x2="56.91500186920166" y2="144.4909086227417" style="visibility: inherit;" fill="rgb(0, 0, 0)" stroke="rgb(204, 204, 204)" stroke-width="1px"></line><line x1="61.91500186920166" y1="128.43636322021484" x2="56.91500186920166" y2="128.43636322021484" style="visibility: inherit;" fill="rgb(0, 0, 0)" stroke="rgb(204, 204, 204)" stroke-width="1px"></line><line x1="61.91500186920166" y1="112.38181781768799" x2="56.91500186920166" y2="112.38181781768799" style="visibility: inherit;" fill="rgb(0, 0, 0)" stroke="rgb(204, 204, 204)" stroke-width="1px"></line><line x1="61.91500186920166" y1="96.32727241516112" x2="56.91500186920166" y2="96.32727241516112" style="visibility: inherit;" fill="rgb(0, 0, 0)" stroke="rgb(204, 204, 204)" stroke-width="1px"></line><line x1="61.91500186920166" y1="80.27272701263426" x2="56.91500186920166" y2="80.27272701263426" style="visibility: inherit;" fill="rgb(0, 0, 0)" stroke="rgb(204, 204, 204)" stroke-width="1px"></line><line x1="61.91500186920166" y1="64.21818161010745" x2="56.91500186920166" y2="64.21818161010745" style="visibility: inherit;" fill="rgb(0, 0, 0)" stroke="rgb(204, 204, 204)" stroke-width="1px"></line><line x1="61.91500186920166" y1="48.16363620758056" x2="56.91500186920166" y2="48.16363620758056" style="visibility: inherit;" fill="rgb(0, 0, 0)" stroke="rgb(204, 204, 204)" stroke-width="1px"></line><line x1="61.91500186920166" y1="32.109090805053725" x2="56.91500186920166" y2="32.109090805053725" style="visibility: inherit;" fill="rgb(0, 0, 0)" stroke="rgb(204, 204, 204)" stroke-width="1px"></line><line x1="61.91500186920166" y1="16.054545402526863" x2="56.91500186920166" y2="16.054545402526863" style="visibility: inherit;" fill="rgb(0, 0, 0)" stroke="rgb(204, 204, 204)" stroke-width="1px"></line><line x1="61.91500186920166" y1="0" x2="56.91500186920166" y2="0" style="visibility: inherit;" fill="rgb(0, 0, 0)" stroke="rgb(204, 204, 204)" stroke-width="1px"></line></g><g transform="translate(51.91500186920166, 0)"><text style="text-anchor: end; visibility: hidden; font-family: Roboto, sans-serif; font-size: 12px; font-weight: 200;" x="0" y="176.5999994277954" dx="0em" dy="0.3em" fill="rgb(33, 33, 33)" stroke="none" stroke-width="1px">-0.01</text><text style="text-anchor: end; visibility: inherit; font-family: Roboto, sans-serif; font-size: 12px; font-weight: 200;" x="0" y="160.54545402526855" dx="0em" dy="0.3em" fill="rgb(33, 33, 33)" stroke="none" stroke-width="1px">0</text><text style="text-anchor: end; visibility: hidden; font-family: Roboto, sans-serif; font-size: 12px; font-weight: 200;" x="0" y="144.4909086227417" dx="0em" dy="0.3em" fill="rgb(33, 33, 33)" stroke="none" stroke-width="1px">0.01</text><text style="text-anchor: end; visibility: inherit; font-family: Roboto, sans-serif; font-size: 12px; font-weight: 200;" x="0" y="128.43636322021484" dx="0em" dy="0.3em" fill="rgb(33, 33, 33)" stroke="none" stroke-width="1px">0.02</text><text style="text-anchor: end; visibility: hidden; font-family: Roboto, sans-serif; font-size: 12px; font-weight: 200;" x="0" y="112.38181781768799" dx="0em" dy="0.3em" fill="rgb(33, 33, 33)" stroke="none" stroke-width="1px">0.03</text><text style="text-anchor: end; visibility: inherit; font-family: Roboto, sans-serif; font-size: 12px; font-weight: 200;" x="0" y="96.32727241516112" dx="0em" dy="0.3em" fill="rgb(33, 33, 33)" stroke="none" stroke-width="1px">0.04</text><text style="text-anchor: end; visibility: hidden; font-family: Roboto, sans-serif; font-size: 12px; font-weight: 200;" x="0" y="80.27272701263426" dx="0em" dy="0.3em" fill="rgb(33, 33, 33)" stroke="none" stroke-width="1px">0.05</text><text style="text-anchor: end; visibility: inherit; font-family: Roboto, sans-serif; font-size: 12px; font-weight: 200;" x="0" y="64.21818161010745" dx="0em" dy="0.3em" fill="rgb(33, 33, 33)" stroke="none" stroke-width="1px">0.06</text><text style="text-anchor: end; visibility: hidden; font-family: Roboto, sans-serif; font-size: 12px; font-weight: 200;" x="0" y="48.16363620758056" dx="0em" dy="0.3em" fill="rgb(33, 33, 33)" stroke="none" stroke-width="1px">0.07</text><text style="text-anchor: end; visibility: inherit; font-family: Roboto, sans-serif; font-size: 12px; font-weight: 200;" x="0" y="32.109090805053725" dx="0em" dy="0.3em" fill="rgb(33, 33, 33)" stroke="none" stroke-width="1px">0.08</text><text style="text-anchor: end; visibility: hidden; font-family: Roboto, sans-serif; font-size: 12px; font-weight: 200;" x="0" y="16.054545402526863" dx="0em" dy="0.3em" fill="rgb(33, 33, 33)" stroke="none" stroke-width="1px">0.09</text><text style="text-anchor: end; visibility: hidden; font-family: Roboto, sans-serif; font-size: 12px; font-weight: 200;" x="0" y="0" dx="0em" dy="0.3em" fill="rgb(33, 33, 33)" stroke="none" stroke-width="1px">0.1</text></g><line x1="61.91500186920166" y1="0" x2="61.91500186920166" y2="176.5999994277954" fill="rgb(0, 0, 0)" stroke="rgb(204, 204, 204)" stroke-width="1px"></line></g></g><g transform="translate(61, 0)" clip-path="url(#clip_0)"><clipPath id="clip_0"><rect width="268" height="176"></rect></clipPath><g><g><g><line x1="0" y1="0" x2="0" y2="176.5999994277954" fill="rgb(0, 0, 0)" stroke="rgb(66, 66, 66)" stroke-width="1px" opacity="0.25"></line><line x1="22.34041651089986" y1="0" x2="22.34041651089986" y2="176.5999994277954" fill="rgb(0, 0, 0)" stroke="rgb(66, 66, 66)" stroke-width="1px" opacity="0.25"></line><line x1="44.68083302179972" y1="0" x2="44.68083302179972" y2="176.5999994277954" fill="rgb(0, 0, 0)" stroke="rgb(66, 66, 66)" stroke-width="1px" opacity="0.25"></line><line x1="67.02124953269958" y1="0" x2="67.02124953269958" y2="176.5999994277954" fill="rgb(0, 0, 0)" stroke="rgb(66, 66, 66)" stroke-width="1px" opacity="0.25"></line><line x1="89.36166604359944" y1="0" x2="89.36166604359944" y2="176.5999994277954" fill="rgb(0, 0, 0)" stroke="rgb(66, 66, 66)" stroke-width="1px" opacity="0.25"></line><line x1="111.70208255449931" y1="0" x2="111.70208255449931" y2="176.5999994277954" fill="rgb(0, 0, 0)" stroke="rgb(66, 66, 66)" stroke-width="1px" opacity="0.25"></line><line x1="134.04249906539917" y1="0" x2="134.04249906539917" y2="176.5999994277954" fill="rgb(0, 0, 0)" stroke="rgb(66, 66, 66)" stroke-width="1px" opacity="0.25"></line><line x1="156.38291557629904" y1="0" x2="156.38291557629904" y2="176.5999994277954" fill="rgb(0, 0, 0)" stroke="rgb(66, 66, 66)" stroke-width="1px" opacity="0.25"></line><line x1="178.72333208719888" y1="0" x2="178.72333208719888" y2="176.5999994277954" fill="rgb(0, 0, 0)" stroke="rgb(66, 66, 66)" stroke-width="1px" opacity="0.25"></line><line x1="201.06374859809875" y1="0" x2="201.06374859809875" y2="176.5999994277954" fill="rgb(0, 0, 0)" stroke="rgb(66, 66, 66)" stroke-width="1px" opacity="0.25"></line><line x1="223.40416510899863" y1="0" x2="223.40416510899863" y2="176.5999994277954" fill="rgb(0, 0, 0)" stroke="rgb(66, 66, 66)" stroke-width="1px" opacity="0.25"></line><line x1="245.74458161989847" y1="0" x2="245.74458161989847" y2="176.5999994277954" fill="rgb(0, 0, 0)" stroke="rgb(66, 66, 66)" stroke-width="1px" opacity="0.25"></line><line x1="268.08499813079834" y1="0" x2="268.08499813079834" y2="176.5999994277954" fill="rgb(0, 0, 0)" stroke="rgb(66, 66, 66)" stroke-width="1px" opacity="0.25"></line></g><g><line x1="0" y1="176.5999994277954" x2="268.08499813079834" y2="176.5999994277954" fill="rgb(0, 0, 0)" stroke="rgb(66, 66, 66)" stroke-width="1px" opacity="0.25"></line><line x1="0" y1="160.54545402526855" x2="268.08499813079834" y2="160.54545402526855" fill="rgb(0, 0, 0)" stroke="rgb(66, 66, 66)" stroke-width="1px" opacity="0.25"></line><line x1="0" y1="144.4909086227417" x2="268.08499813079834" y2="144.4909086227417" fill="rgb(0, 0, 0)" stroke="rgb(66, 66, 66)" stroke-width="1px" opacity="0.25"></line><line x1="0" y1="128.43636322021484" x2="268.08499813079834" y2="128.43636322021484" fill="rgb(0, 0, 0)" stroke="rgb(66, 66, 66)" stroke-width="1px" opacity="0.25"></line><line x1="0" y1="112.38181781768799" x2="268.08499813079834" y2="112.38181781768799" fill="rgb(0, 0, 0)" stroke="rgb(66, 66, 66)" stroke-width="1px" opacity="0.25"></line><line x1="0" y1="96.32727241516112" x2="268.08499813079834" y2="96.32727241516112" fill="rgb(0, 0, 0)" stroke="rgb(66, 66, 66)" stroke-width="1px" opacity="0.25"></line><line x1="0" y1="80.27272701263426" x2="268.08499813079834" y2="80.27272701263426" fill="rgb(0, 0, 0)" stroke="rgb(66, 66, 66)" stroke-width="1px" opacity="0.25"></line><line x1="0" y1="64.21818161010745" x2="268.08499813079834" y2="64.21818161010745" fill="rgb(0, 0, 0)" stroke="rgb(66, 66, 66)" stroke-width="1px" opacity="0.25"></line><line x1="0" y1="48.16363620758056" x2="268.08499813079834" y2="48.16363620758056" fill="rgb(0, 0, 0)" stroke="rgb(66, 66, 66)" stroke-width="1px" opacity="0.25"></line><line x1="0" y1="32.109090805053725" x2="268.08499813079834" y2="32.109090805053725" fill="rgb(0, 0, 0)" stroke="rgb(66, 66, 66)" stroke-width="1px" opacity="0.25"></line><line x1="0" y1="16.054545402526863" x2="268.08499813079834" y2="16.054545402526863" fill="rgb(0, 0, 0)" stroke="rgb(66, 66, 66)" stroke-width="1px" opacity="0.25"></line><line x1="0" y1="0" x2="268.08499813079834" y2="0" fill="rgb(0, 0, 0)" stroke="rgb(66, 66, 66)" stroke-width="1px" opacity="0.25"></line></g></g></g><g><g><line x1="0" y1="160.54545402526855" x2="268.08499813079834" y2="160.54545402526855" fill="rgb(0, 0, 0)" stroke="rgb(153, 153, 153)" stroke-width="1.5px"></line></g></g><g><g><line x1="22.34041651089986" y1="0" x2="22.34041651089986" y2="176.5999994277954" fill="rgb(0, 0, 0)" stroke="rgb(153, 153, 153)" stroke-width="1.5px"></line></g></g><g><g><g><g><g><path style="fill: none;" stroke="rgb(255, 112, 67)" stroke-width="2px" d="M23.122331088781355,150.4310904085189L23.144671505292255,150.25047679920544L23.16701192180316,150.04774723773116L23.412756503423054,148.49746235586895L23.859564833641052,145.19993806097972L24.14999024828275,141.81731372360503L24.30637316385905,139.05920065765676L24.37339441339175,137.10188796790416L24.395734829902647,135.8319861942924L25.065947325229644,131.58940766726198L25.110628158251444,128.8283106041768L25.244670657316842,126.48300867167937L25.267011073827742,124.96335494176267L25.311691906849543,123.82146662781852L25.356372739871343,122.9056130282308L25.46807482242584,121.77824959863241L25.73615982055664,119.71468777087708L25.758500237067544,118.36116949404952L26.160627734263738,115.46835033708815L26.182968150774638,113.6171756249408L26.361691482861836,111.58175095268055L26.406372315883637,110.12933566539785L26.741478563547137,107.52399588059689L26.875521062612535,105.26724383752129L27.09892522772153,102.75727086373138L27.29998897631963,100.21095398699002L27.34466980934143,98.45198038620431L27.947861055135725,94.27559259143248L27.970201471646625,91.65416970054166L27.99254188815753,89.9657223534592L29.44466896136602,81.43912554484065L29.534030627409617,75.86079850302868L29.690413542985915,71.70465265659554L30.047860207160312,67.36148186339307L30.114881456693013,64.40880402262097L30.494668537378313,60.672117373534405L30.651051452954608,57.62095792921343L31.008498117129008,53.940778908468396L31.343604364792508,49.99877995437735L32.0361572766304,44.050205676856805L32.125518942674,40.018689079063435L32.4159443573157,36.09707598552023L32.7510506049792,32.01021658357466L32.795731438001,29.32691731743651L32.88509310404459,27.254565722003786L32.90743352055549,25.89556295203185L33.153178102175396,23.80864177952778L33.175518518686296,22.440892478602404L33.689348098436994,19.88645661331895L33.89041184703509,18.354149156596936L33.93509268005689,17.434879513628747L34.33722017725309,16.88491100876784L34.38190101027489,16.555169137221228L34.69466684142749,16.359357480929614L34.76168809096019,16.242387226911664L34.873390173514686,16.17312850758506L35.20849642117818,16.134822037979262L35.52126225233078,16.115507965415308L35.69998558441797,16.106297481684155L35.834028083483375,16.10268504239695L36.12445349812508,16.10505819020706L36.34785766323407,16.11033370393301L36.526580995321275,16.11680997431468L36.79466599345208,16.126040165325723L37.688282653888066,16.152678486672613L38.04572931806246,16.17851781188091L38.26913348317146,16.200585915769533L38.33615473270416,16.215860244738685L38.604239730834955,16.233436217051988L38.78296306292216,16.24984296897893L38.93934597849846,16.264978818015983L39.67657972335815,16.301088687500716L39.69892013986906,16.32363019600186L39.78828180591265,16.340676586853327L39.810622222423554,16.351789577429265L40.54785596728325,16.389538311227092L40.77126013239224,16.42228311527494L40.81594096541404,16.443987387476525L40.972323880990345,16.46430650755005L41.41913221120834,16.498191480129382L41.46381304423014,16.520761669290223L41.620195959806445,16.54223669498068L41.664876792828245,16.55741833153674L41.75423845887184,16.571154048145612L41.82125970840454,16.582897825352195L42.156365956068036,16.607886444346434L42.580833869775134,16.646620936796232L42.87125928441684,16.68675615154046L43.16168469905853,16.728262893300386L43.273386781613034,16.76000895550792L43.38508886416753,16.785975164022105L43.40742928067843,16.802947215697838L43.65317386229833,16.828666131802045L44.25636510809262,16.88382902721761L44.345726774136224,16.92300802586533L44.390407607158025,16.949572801948978L44.65849260528882,16.984123868102454L44.77019468784332,17.012744358342104L44.81487552086512,17.03309364506537L44.88189677039782,17.050092629105457L45.23934343457222,17.08630603858772L45.26168385108312,17.10968478072273L45.32870510061582,17.128688038477623L45.66381134827932,17.165391102709357L45.70849218130112,17.190838734451546L45.86487509687742,17.21819328225557L45.93189634641012,17.239835608662947L46.17764092803001,17.272227453155555L46.42338550964991,17.31144699406219L46.53508759220441,17.34409343376268L46.64678967475891,17.372877351404913L47.02657675544421,17.42198461256839L47.048917171955104,17.453348466335825L47.67444883426031,17.526649330557987L47.808491333325705,17.58261534067505L48.1212571644783,17.644606064120218L48.3893421626091,17.70662792965563L48.4340229956309,17.748022813305898L48.545725078185406,17.78337156984713L48.635086744229,17.8130400449775L49.19359715700149,17.884845219279537L49.305299239556,17.938961674596143L49.84146923581759,18.02544999089209L50.19891589999199,18.114342504189477L50.51168173114459,18.2006919410812L50.623383813699085,18.2644392485262L50.73508589625359,18.314697047713825L50.95849006136258,18.369109788036596L50.98083047787349,18.404197592193437L51.29359630902608,18.45976657659776L51.78508547226588,18.54855222930518L52.85742546478907,18.72790333698683L53.41593587756157,18.90394852699394L54.30955253799757,19.12300001763861L54.37657378753026,19.263129364599973L54.39891420404116,19.35011602622306L54.66699920217196,19.437417618902085L55.42657336354255,19.59163458363861L55.58295627911886,19.705561616118253L56.05210502584776,19.838983983329523L56.11912627538045,19.92844398108289L56.56593460559845,20.045492369366308L57.16912585139274,20.203165252310196L57.66061501463254,20.370614933917874L58.28614667693774,20.565877780510082L58.35316792647044,20.693327221957063L58.37550834298134,20.77323224928319L58.442529592514035,20.831505276189553L58.88933792273204,20.93600408202862L58.91167833924293,21.00221049740066L59.26912500341733,21.09845993447634L59.760614166657135,21.235151163843565L59.78295458316803,21.320787864389597L60.140401247342425,21.430518415600947L60.47550749500593,21.55173880823669L60.743592493136724,21.66925037145576L60.765932909647624,21.743508457252137L60.877634992202125,21.806857325073654L61.14571999033292,21.890272759590793L61.19040082335472,21.94792957783329L61.21274123986562,21.986332232172252L61.63720915357272,22.08228197677288L61.79359206914902,22.16697587614333L61.994655817747116,22.252873103706534L62.35210248192151,22.36735799803913L62.553166230519615,22.47178053190313L62.91061289469401,22.59852892058713L62.932953311204905,22.678606610050434L63.13401705980301,22.763054668825855L63.15635747631391,22.81778086810827L63.42444247444471,22.899548971880108L63.4467828909556,22.952705475179414L63.670187056064606,23.025718464851888L64.04997413674991,23.140080373982283L64.8989099641641,23.36937487609336L64.9659312136968,23.519807871126687L65.0999737127622,23.635861594345457L65.144654545784,23.714115726813215L65.5021012099584,23.830440518658225L65.70316495855648,23.939574600073232L65.77018620808919,24.01821755884117L65.97124995668729,24.105043971934762L66.08295203924179,24.179259152162846L66.44039870341618,24.295045715851252L67.06593036572139,24.490937078665368L67.51273869593939,24.70010707991147L67.55741952896118,24.834833842245338L67.60210036198298,24.92490423048663L67.66912161151568,24.992821882829737L67.95954702615738,25.093978394892204L68.45103618939719,25.25796283798195L68.49571702241897,25.365807927536157L68.58507868846259,25.44945732106112L68.94252535263696,25.57586607131942L69.12124868472418,25.69008403305189L69.23295076727867,25.782686270433828L69.43401451587677,25.881744660363104L69.50103576540947,25.95572974617944L69.54571659843127,26.009833591248068L69.99252492864926,26.14002191250001L70.10422701120378,26.242737459232654L70.14890784422556,26.31422790429983L70.17124826073646,26.362055122167614L70.30529075980186,26.4204113580091L70.52869492491087,26.50507517782317L71.19890742023786,26.706436124065814L71.31060950279236,26.852582509154423L72.02550283114115,27.103957227461663L72.29358782927196,27.316867383312537L72.42763032833736,27.475799678077685L72.49465157787006,27.58679043258314L72.60635366042455,27.679485027637423L72.87443865855535,27.798014850073056L72.89677907506623,27.874391049023668L72.91911949157715,27.925479858510624L72.98614074110985,27.971936768434812L73.05316199064255,28.015638461758197L73.14252365668614,28.06299796151149L73.52231073737144,28.18172828776456L73.81273615201314,28.322539750230664L73.92443823456765,28.433906664324095L74.05848073363305,28.53306610923305L74.12550198316575,28.608767309110213L74.19252323269843,28.6704127004778L74.68401239593824,28.82712088156922L74.79571447849274,28.948532997339946L74.84039531151454,29.032351417381857L75.06379947662354,29.13765611500774L75.30954405824343,29.26165154756706L75.33188447475435,29.341594190234602L75.48826739033063,29.428439657914765L76.02443738659224,29.61480836739771L76.06911821961403,29.737883036682256L76.31486280123393,29.873808378492164L76.44890530029933,29.98935836110402L76.64996904889742,30.109850371232024L77.00741571307182,30.273608514280802L77.11911779562632,30.400580733637273L77.40954321026803,30.551715253139115L77.47656445980071,30.65975459297028L78.12443653861682,30.893528174239673L78.21379820466042,31.05726092029403L78.2584790376822,31.167251612768844L78.45954278628032,31.28624056110064L78.59358528534572,31.393078449721433L78.68294695138931,31.480855519163924L78.79464903394381,31.56317688132283L78.90635111649831,31.642282234640167L79.06273403207462,31.731453043491044L79.4872019457817,31.898762675632256L79.62124444484711,32.035272391626485L79.64358486135801,32.12320685172021L79.75528694391251,32.20614895728157L80.06805277506511,32.34075044867081L80.2467761071523,32.470204496337786L80.2691165236632,32.55397732484587L80.33613777319592,32.62254700630177L80.537201521794,32.7187407377951L80.84996735294659,32.86248936158822L80.9393290189902,32.97340329000149L81.02869068503381,33.06465946283329L81.1850736006101,33.16273796744683L81.207414017121,33.22778594729784L81.27443526665368,33.28542693571172L81.67656276384989,33.432134486753434L82.4137965087096,33.72773050695032L82.4361369252205,33.91142296571793L82.57017942428588,34.05966665938473L82.74890275637308,34.19945911073867L82.88294525543849,34.32156375430717L83.24039191961289,34.497188858589034L83.28507275263468,34.615401076415324L83.41911525170008,34.724897288411086L83.97762566447257,34.95220058995289L84.26805107911429,35.17318913681621L84.37975316166877,35.338432562166744L84.40209357817969,35.44411441837643L84.73719982584318,35.605838055480575L85.80953981836637,36.02094469662695L85.96592273394266,36.31683104484312L85.98826315045356,36.50106133210306L86.01060356696448,36.61830276741664L86.03294398347538,36.695346106935L86.05528439998626,36.74828015823102L86.09996523300806,36.793456684178615L86.32336939811707,36.88777704516374L86.36805023113887,36.95783798782593L86.39039064764977,37.006616093399906L86.50209273020427,37.06960501050966L86.70315647880237,37.16824925177831L86.83719897786777,37.26810034463142L87.03826272646586,37.38915853824359L87.12762439250946,37.48902755345068L87.59677313923835,37.69251170707401L87.64145397226017,37.82832451057025L88.66911313176155,38.22786072841497L88.98187896291415,38.56529411945042L89.22762354453404,38.844824931888446L89.56272979219754,39.11805402230723L89.58507020870844,39.28904401731476L89.71911270777385,39.43398675124852L89.83081479032835,39.55630600331026L90.07655937194825,39.70765827305651L90.25528270403544,39.85533014667318L90.72443145076433,40.09383086199175L90.74677186727524,40.24409387836887L91.03719728191695,40.42753278357105L91.34996311306953,40.638451287208845L91.39464394609134,40.77944239482052L91.55102686166764,40.91464406317246L91.64038852771122,41.02473119833453L91.66272894422212,41.09802740528319L91.72975019375484,41.16375604551611L91.93081394235293,41.26856080890422L92.31060102303823,41.45536073141908L92.39996268908183,41.59668432746685L92.93613268534342,41.85761497278907L93.15953685045241,42.08790925251617L93.47230268160503,42.32964907996526L93.51698351462682,42.48952053668143L93.53932393113772,42.59285958314818L93.67336643020312,42.699403107296895L94.32123850901921,42.97961830244208L94.34357892553011,43.155235361376896L94.85740850528082,43.4333593528746L94.92442975481352,43.622845896765135L94.94677017132442,43.744078395848355L95.036131837368,43.846999324803384L95.37123808503151,44.022204966581086L95.46059975107511,44.15765810460152L95.48294016758601,44.2465136218091L95.5946422501405,44.33778816575657L95.77336558222771,44.453394213873096L96.0861314133803,44.629522018072244L96.2648547454675,44.79637494625629L96.4882589105765,44.97312686451937L96.73400349219641,45.16369845812265L97.60527973612149,45.5795255700464L97.87336473425229,45.92235077885038L98.43187514702478,46.32332568596864L98.49889639655748,46.58742228917872L98.52123681306838,46.75372225537853L98.56591764609018,46.86918624364591L98.69996014515559,46.98556929315004L98.81166222771009,47.0947000521415L98.87868347724279,47.1837810743957L98.94570472677549,47.260846608489686L99.23613014141718,47.40961570904509L99.25847055792809,47.50677658918062L99.4148534735044,47.62042168677922L99.45953430652618,47.70443629270726L99.57123638908068,47.7944474170779L99.6605980551243,47.88017138659395L99.68293847163518,47.93953868049752L99.70527888814608,47.98309196903363L99.77230013767878,48.03304181724665L100.44251263300578,48.302027786879435L101.04570387880008,48.6798711266459L101.09038471182187,48.92266304775312L101.33612929344177,49.156916007080056L101.42549095948537,49.32973052509107L101.60421429157257,49.49802127476542L101.87229928970336,49.69610452184893L102.07336303830147,49.88794396076174L102.25208637038867,50.06804200242221L102.38612886945407,50.22491838056379L102.52017136851947,50.36791439149516L102.54251178503037,50.46186500310737L102.74357553362846,50.591674615710986L102.81059678316116,50.69406724470704L102.98932011524836,50.82093260150897L103.34676677942277,51.02822237517827L103.90527719219526,51.35837827831208L104.26272385636966,51.68869499780385L104.30740468939146,51.90343984022933L104.39676635543506,52.065420290282404L104.57548968752225,52.22894741892047L104.75421301960945,52.3935030318845L104.79889385263125,52.50886297980404L104.82123426914215,52.58639463094L104.84357468565305,52.64122930400585L105.20102134982746,52.80740590348014L105.46910634795826,53.007330668239824L105.78187217911085,53.24448497473786L105.80421259562175,53.39516022580423L106.13931884328524,53.61148719979773L106.31804217537244,53.80857916827583L106.42974425792694,53.96894385492295L106.54144634048143,54.107310449490555L106.63080800652504,54.22407638313338L106.69782925605774,54.319456191407355L106.94357383767763,54.46965417096804L107.03293550372123,54.593624197409014L107.50208425045014,54.84610439819244L107.68080758253734,55.06560599685129L107.97123299717903,55.30802801821804L108.08293507973353,55.49613139949215L108.57442424297334,55.797072345887536L108.66378590901692,56.011904415011294L108.88719007412593,56.22657288687685L108.97655174016951,56.38972280994815L109.28931757132213,56.6080035578948L109.60208340247472,56.85963073989984L109.7808067345619,57.07967314531498L109.87016840060552,57.24626752137545L110.07123214920362,57.42407481909123L110.13825339873631,57.55673493975988L110.67442339499792,57.84456278031118L111.21059339125951,58.22624722391795L111.23293380777041,58.46398026579346L111.47867838939031,58.702666700919615L111.9254867196083,59.02090980076436L112.1265504682064,59.29078765853826L112.1712313012282,59.47026438642784L112.64038004795711,59.76256527057027L112.68506088097891,59.95555562212318L113.0425075451533,60.212410217434915L113.109528794686,60.39300588716329L113.64569879094759,60.713618928776L114.2935708697637,61.163373391269225L114.80740044951439,61.63805357453533L115.2318683632215,62.09252217903144L115.343570445776,62.409918076897114L115.54463419437408,62.680909602164974L115.56697461088498,62.852461339778706L115.67867669343948,63.00019084849407L115.94676169157029,63.19645396198068L116.12548502365748,63.38604822553705L116.34888918876648,63.589698362862634L116.57229335387548,63.8018872862521L116.92974001804987,64.07342127104943L117.10846335013709,64.30855125832777L117.17548459966977,64.47672698785428L117.37654834826787,64.65897348332243L117.55527168035508,64.84069604664786L118.00208001057307,65.13094973892657L118.24782459219297,65.40494277380597L118.40420750776926,65.63293586185182L118.80633500496546,65.9334855867167L119.78931333144507,66.51540115910173L120.32548332770665,67.0843467150573L120.59356832583745,67.53580832461545L120.70527040839195,67.85259379004934L121.08505748907724,68.19891903793089L121.33080207069715,68.50795211736656L121.42016373674075,68.73021120353057L121.44250415325165,68.87277706293308L121.71058915138245,69.06892520200257L122.06803581555684,69.33427725560695L122.11271664857865,69.5119595417652L122.38080164670944,69.72947179147198L122.64888664484025,69.97099685036495L122.98399289250374,70.25484311089721L123.20739705761274,70.51786976887544L123.36377997318904,70.74063229570142L123.38612038969994,70.88357198891177L123.40846080621083,70.97861558963903L123.54250330527623,71.09135155895977L123.67654580434163,71.21472687257345L123.78824788689613,71.33521796953029L123.83292871991793,71.42610329738449L123.89994996945063,71.50852647940138L123.96697121898333,71.58587955085694L124.39143913269044,71.80913839858955L124.79356662988664,72.11086666626467L124.92760912895203,72.34787898257362L125.06165162801743,72.54608325888604L125.12867287755013,72.69301503334864L125.19569412708283,72.80918809132875L125.50845995823542,73.00970603096526L125.64250245730082,73.18612133539024L125.84356620589891,73.37616799834262L126.20101287007331,73.64000746396978L126.42441703518232,73.89202524749977L126.64782120029132,74.13701222192736L126.6701616168022,74.29338706087363L126.69250203331312,74.39659222621741L126.7818636993567,74.49604833489622L127.25101244608561,74.75292041751825L128.8818628513813,75.59445586722244L129.0159053504467,76.15600080975865L129.84250076135,76.8424950438848L130.1999474255244,77.40575087917324L130.3339899245898,77.80049312270457L130.3786707576116,78.05627123936104L130.6467557557424,78.32337300959999L130.7137770052751,78.5120523660594L130.736117421786,78.63473354214496L130.7807982548078,78.72729176452977L130.8701599208514,78.82072812374135L131.0042024199168,78.93365523566463L131.1159045024713,79.04881041394609L131.67441491524377,79.35504161537375L131.96484032988548,79.66218544558282L132.43398907661438,80.04594525144162L133.193563237985,80.5994673068604L133.48398865262666,81.05527511942054L133.93079698284467,81.51915687655251L134.19888198097547,81.91177393271396L134.37760531306267,82.2235561036131L134.60100947817168,82.50591365271387L134.69037114421525,82.71345209312814L134.71271156072615,82.84750613511514L134.98079655885695,83.04232703936458L135.22654114047685,83.26410579099729L135.24888155698775,83.40670880434274L135.27122197349868,83.50180876702953L135.42760488907496,83.62562865045716L135.87441321929296,83.89071955880944L135.89675363580386,84.05931465081402L136.27654071648914,84.32270885117508L136.29888113300004,84.4902907030123L136.67866821368537,84.75312241323304L136.72334904670714,84.92991688723403L136.92441279530527,85.12192787167051L137.34888070901235,85.41858427873002L137.39356154203415,85.61567835546165L137.50526362458865,85.78169255968155L137.84036987225215,86.0245887106383L138.15313570340473,86.30407826727134L138.37653986851373,86.5673162253772L138.44356111804643,86.75392370286674L138.46590153455733,86.87544309023585L138.55526320060096,86.98657432615865L138.57760361711186,87.06281036090138L138.86802903175354,87.23277287006755L138.89036944826444,87.34430766875627L139.76164569218952,87.7839223130091L140.36483693798382,88.30570930790041L141.1467515158653,88.95321021241331L141.3924960974852,89.44680031086767L141.83930442770324,89.933999756546L141.8616448442141,90.23587193251466L141.9956873432795,90.47430072021102L142.01802775979044,90.62690810907678L142.68824025511742,91.00493057587512L142.71058067162832,91.24129177988839L142.8222827541828,91.43083755271299L142.95632525324822,91.60183700613122L143.5148356660207,91.94300776854094L143.7382398311297,92.24310612666407L143.894622746706,92.48993222429458L143.9839844127496,92.67617571696357L144.5871756585439,93.0453323732275L144.63185649156569,93.28588832246274L144.98930315574012,93.58267447417268L145.3467498199145,93.91313654721152L145.8382389831543,94.32083453908858L146.0839835647742,94.67011466581106L146.352068562905,94.99381285102334L146.4190898124377,95.21655771058273L146.6424939775467,95.44527278002025L146.8882385591666,95.68703636065347L146.9105789756775,95.84159438669388L147.5137702214718,96.19072781429007L147.7595148030917,96.50459169405605L147.7818552196026,96.70239793800766L147.89355730215706,96.86851169558409L147.93823813517886,96.98714860537298L148.0275998012225,97.09626327710494L148.2733443828424,97.26601781849115L148.38504646539687,97.4152574928819L148.49674854795137,97.55217867782063L148.809514379104,97.7669277673309L149.03291854421298,97.99043868141175L149.45738645792008,98.3042821496563L149.72547145605088,98.60601978418453L149.74781187256178,98.79651200397446L149.92653520464899,98.9863877022367L150.03823728720346,99.1475350011085L150.06057770371436,99.25366584256352L150.149939369758,99.35511180365063L150.26164145231246,99.46317733708048L150.3956839513779,99.58463793753837L150.55206686695416,99.72354933258082L150.77547103206317,99.90118682135912L151.28930061181387,100.22444355778602L151.37866227785744,100.45605022479914L151.84781102458635,100.79254995865199L152.11589602271715,101.10721389702584L152.16057685573895,101.31479909945278L152.42866185386976,101.55201862642352L152.45100227038066,101.70373538920933L153.00951268315313,102.02919544224328L153.05419351617493,102.24321046719248L153.21057643175126,102.43718083881917L153.23291684826216,102.5629265775754L153.54568267941474,102.76939864928222L153.63504434545834,102.93069528609438L153.79142726103464,103.09291740146809L154.26057600776355,103.38639647008374L154.43929933985072,103.63712649067517L154.68504392147062,103.89012777552072L155.17653308471043,104.24679911384462L155.51163933237393,104.60028576649766L155.55632016539576,104.8309636431422L155.75738391399383,105.05296977100396L155.95844766259194,105.26971064944016L155.98078807910284,105.4090325689892L156.18185182770094,105.57609593765447L156.40525599280994,105.76900501423876L156.5169580753644,105.93105847627444L157.00844723860422,106.23180467905055L157.43291515231135,106.58770229438095L157.72334056695303,106.92111491792612L157.74568098346393,107.13037768438468L157.946744732062,107.33883379822387L158.32653181274733,107.62030736628364L158.4382338953018,107.83514546077862L158.4829147283236,107.98242367892367L158.7063188934326,108.16261239383607L158.9073826420307,108.35329154514474L159.17546764016151,108.57767369623029L159.44355263829232,108.82214606992903L159.5552547208468,109.01456096263428L159.64461638689042,109.16657641299943L159.89036096851032,109.35827003511315L160.0020630510648,109.51892437663349L160.0914247171084,109.65180933456334L160.4935522143046,109.89557168974659L160.91802012801168,110.21463429373765L160.9403605445226,110.41515666736767L161.0073817940553,110.56271974062444L161.45419012427328,110.8326978317214L161.69993470589318,111.09430541303232L161.81163678844771,111.2965122021554L161.83397720495861,111.42688161368874L162.2584451186657,111.67676851401687L162.3701472012202,111.87181370961105L162.5935513663292,112.07898918756723L162.6158917828401,112.21230273153829L162.8839767809709,112.40031697872125L163.1520617791017,112.6209973435984L163.26376386165617,112.79830689816048L163.4424871937434,112.97647759161782L163.53184885978698,113.1192467706801L163.57652969280878,113.22283508074874L163.6882317753633,113.32978533678025L164.06801885604858,113.54605999092614L164.38078468720119,113.80084350834962L164.5595080192884,114.0250548053344L164.7382313513756,114.23084860833158L164.8052526009083,114.3810314840012L164.96163551648456,114.53341552705096L165.319082180659,114.76697450532312L165.3414225971699,114.9159829837603L165.40844384670257,115.03200016830313L165.65418842832247,115.19909845802754L165.72120967785517,115.32591929075524L166.32440092364945,115.64059005769167L166.36908175667128,115.84702985052839L166.68184758782388,116.0942186930743L166.83823050340015,116.30410417218202L166.86057091991105,116.43882721245505L166.92759216944378,116.54602672578945L167.59780466477076,116.87338371624999L167.70950674732526,117.11352701245431L167.93291091243424,117.34497550148532L168.11163424452147,117.55364154294814L168.17865549405414,117.70499394107804L168.20099591056504,117.80452057872631L168.60312340776125,118.02088406553841L168.64780424078305,118.16808112042209L169.38503798564275,118.54238729719118L169.45205923517545,118.7928977028612L169.54142090121903,118.97775374056508L170.09993131399153,119.30411195711102L170.16695256352426,119.52572200939419L170.50205881118774,119.78747944438818L170.65844172676404,120.00452954424344L170.77014380931854,120.17757244994155L170.90418630838394,120.33272528356586L171.26163297255835,120.56244321469723L171.52971797068915,120.80250351810703L171.64142005324362,120.98907503754992L172.02120713392895,121.24536537260485L172.06588796695075,121.41609390075439L172.15524963299433,121.5524229256814L172.31163254857066,121.69347436225277L172.37865379810333,121.80347690702823L172.66907921274503,121.97927247451025L172.87014296134313,122.16061367055994L173.24993004202844,122.41238664273705L173.47333420713744,122.64734647481582L173.5403554566701,122.81346080631099L173.65205753922464,122.95499848324258L174.07652545293172,123.19867024120077L174.6573762822151,123.56120663443487L175.28290794452033,124.01051854758153L175.55099294265113,124.37906375123033L176.1541841884454,124.82199902175694L176.46695001959802,125.20230655583362L176.62333293517432,125.48764345031867L176.64567335168522,125.6670045728473L177.1148220984141,125.94555923641103L177.137162514925,126.12081393952468L177.20418376445772,126.25032171090751L177.3382262635231,126.3766920149632L177.5169495956103,126.51730642520266L177.5616304286321,126.61785668114128L177.67333251118657,126.71861095527053L177.9637579258283,126.88396886734067L178.030779175361,127.0073519636296L178.0978004248937,127.10553462041086L178.4999279220899,127.3090380461788L178.72333208719888,127.51122997933228L178.76801292022068,127.64854254086524L178.8126937532425,127.74692030248472L179.2371616669496,127.95750840477592L179.30418291648226,128.10773416445687L179.5275870815913,128.27733271177155L179.9297145787875,128.52168210914473L180.26482082645097,128.7866777828008L180.35418249249457,128.97717717365603L180.57758665760358,129.17010498219773L180.80099082271258,129.36431041782456L181.13609707037608,129.5981670964095L181.31482040246328,129.80089178308873L181.53822456757229,130.0003748748621L181.64992665012676,130.15892068886885L181.69460748314856,130.2695766854306L181.71694789965946,130.3437321451328L182.0743945638339,130.51216401625933L182.20843706289926,130.6595778051373L182.3201391454538,130.78660333286203L182.5658837270737,130.94752569261007L182.63290497660637,131.06714101242443L183.03503247380254,131.27692876183704L183.25843663891158,131.4792131068799L183.39247913797698,131.64633910552854L183.43715997099878,131.7618513506053L183.50418122053145,131.85400050875745L184.68822329560913,132.30995350418758L185.44779745697974,132.83767035392222L185.49247829000154,133.16917945875403L185.64886120557784,133.42009740973052L185.71588245511055,133.59290985535287L185.73822287162145,133.7040134951633L185.82758453766505,133.80032242644512L185.84992495417595,133.8655143883965L186.36375453392665,134.07442522582718L186.78822244763373,134.33923524327798L186.98928619623183,134.56392662640195L187.01162661274273,134.70604279765627L187.12332869529723,134.82778930338753L187.57013702551524,135.04623485592512L187.6818391080697,135.2135230128616L187.70417952458064,135.3211338520907L188.08396660526594,135.5084290382849L188.35205160339675,135.7070771681891L188.55311535199485,135.89077239245177L188.79885993361475,136.07960035676365L188.97758326570192,136.24990836288214L189.24566826383273,136.4373576187561L189.7818382600943,136.71943922246467L189.91588075915973,136.93089936358191L190.295667839845,137.17695453547245L190.3403486728668,137.33856772172902L190.85417825261752,137.59568668110416L191.32332699934642,137.89517927269347L191.6807736635208,138.18487161684902L192.2169436597824,138.52262570161227L192.32864574233693,138.75927113576088L192.4850286579132,138.94875539223878L192.529709490935,139.07599660894056L192.7084328230222,139.2064542784583L192.7754540725549,139.30498460017685L193.04353907068568,139.4449235227328L193.28928365230558,139.6026879593482L193.31162406881649,139.70404210925554L193.37864531834921,139.78492850336747L193.42332615137101,139.84683157912292L193.5797090669473,139.9307006936354L193.6020494834582,139.98768894251674L193.64673031648002,140.03520767717376L194.1382194797198,140.2097038800775L194.2946023952961,140.36061990614158L194.4063044778506,140.48411407359634L194.5180065604051,140.59109771035696L194.5626873934269,140.66842707727378L194.5850278099378,140.72139040234433L194.94247447411217,140.8579116657268L195.0318361401558,140.9659179872446L195.1211978061994,141.05677826278153L195.3222615547975,141.16978649780876L195.5456657199065,141.30236153772955L195.92545280059178,141.49148230367464L196.1488569657008,141.66909568364582L196.4616227968534,141.86506567035713L197.26587779124577,142.21041506412143L197.57864362239837,142.50536938380034L197.71268612146378,142.71980381374794L197.75736695448558,142.86093201450862L198.31587736725808,143.1006488043889L198.36055820027988,143.25681723616998L198.40523903330165,143.3628470838368L198.91906861305236,143.56754690764012L198.96374944607416,143.70257418060055L199.65630235791207,143.9715570232643L199.79034485697744,144.16905571361144L199.87970652302107,144.31157854188842L199.99140860557557,144.42706613514713L200.10311068813004,144.5262715833958L200.37119568626085,144.65733280667666L200.50523818532625,144.77160544536204L200.90736568252245,144.946540266379L200.95204651554425,145.06327014618404L201.46587609529493,145.26793791925002L202.18076942364374,145.5758426586478L202.58289692083994,145.8635716162217L202.60523733735084,146.0419062858173L202.64991817037264,146.16029390265763L202.73927983641624,146.25407019900666L202.76162025292714,146.3160159275931L202.82864150245985,146.37020647088005L203.11906691710155,146.47622523303656L203.20842858314515,146.56236610450011L203.92332191149396,146.79281507165956L204.59353440682094,147.09628328146098L205.10736398657164,147.40343735741422L205.30842773516974,147.6362967612725L205.39778940121332,147.79752977002724L205.46481065074602,147.91038031278197L205.86693814794222,148.0742598545122L205.95629981398582,148.1938429876412L206.09034231305122,148.2973971828227L206.26906564513843,148.4017884260583L206.29140606164933,148.46969343905732L206.42544856071473,148.5420039231056L206.47012939373653,148.59589157351326L206.93927814046543,148.73784954625955L207.20736313859624,148.88514254908708L207.5424693862597,149.05062710658018L207.5871502192815,149.16015395327443L207.6541714688142,149.24120359588298L207.87757563392321,149.34077231875744L208.14566063205402,149.46128699232926L208.1903414650758,149.54368717369252L208.57012854576112,149.67846978394743L208.6371497952938,149.77431912130558L209.1509793750445,149.94586583170457L209.4637452061971,150.1175070878869L209.5084260392189,150.23026474205656L209.6648089547952,150.33203821335695L210.26800020058948,150.52345408636518L210.29034061710038,150.64309332121542L210.4467235326767,150.7483276873264L210.5137447822094,150.82576327840462L210.8711914463838,150.94804752024007L211.0052339454492,151.04967039289514L211.2062976940473,151.1528370539884L211.3179997766018,151.23808094858603L211.3626806096236,151.2985456462039L211.67544644077617,151.39974318616703L211.8765101893743,151.50190884385242L211.96587185541787,151.5815569854219L212.0552335214615,151.64765035951865L212.54672268470128,151.78718697570392L213.1275735139847,151.98721037830617L213.6637435102463,152.21290039150728L213.75310517628986,152.36576991626242L213.86480725884437,152.47924763084583L214.08821142395337,152.5906351373735L214.11055184046427,152.66178217902888L214.42331767161687,152.76457818258515L214.46799850463867,152.83479754074682L214.51267933766047,152.88545954818167L214.53501975417137,152.9201177623626L214.57970058719317,152.94942603817395L215.18289183298745,153.08083190629523L215.94246599435806,153.30005699253863L216.09884890993436,153.46008450032505L216.14352974295616,153.56421603207048L216.41161474108696,153.67514438699405L216.74672098875047,153.8016826849249L216.85842307130494,153.897455886521L217.52863556663195,154.07250890321305L217.61799723267555,154.19302301982782L217.70735889871915,154.28076759483815L217.72969931523005,154.33726611440383L218.02012472987175,154.42097529043042L218.37757139404616,154.53183323890542L218.39991181055703,154.60211276213946L218.80203930775326,154.7115506923093L219.07012430588406,154.82153614517338L219.24884763797124,154.91684252980215L219.40523055354754,154.99952378940034L219.49459221959114,155.06363818969513L219.67331555167834,155.13097786955373L220.05310263236362,155.23210996239513L220.99140012582143,155.4391841629681L221.25948512395223,155.60430106365553L221.7062934541702,155.77054587726946L221.77331470370294,155.8802667697676L222.08608053485554,155.99229234077492L222.57756969809535,156.13092063932072L222.73395261367162,156.23651793378613L223.15842052737872,156.35999575155768L223.42650552550953,156.47149733120472L223.51586719155313,156.55077431578647L223.91799468874933,156.6534401259095L224.0296967713038,156.73017293982343L224.0967180208365,156.78525647103527L224.3424626024564,156.85123678769654L225.25841967940332,157.0103600710944L225.34778134544692,157.1172248932454L225.37012176195782,157.18418391144414L226.0403342572848,157.30815997762753L226.5318234205246,157.44226853243583L226.7552275856336,157.54939532855062L226.77756800214448,157.61632089363047L226.79990841865538,157.65912265493745L227.04565300027528,157.71371400029983L227.11267424980798,157.75428958000703L227.13501466631888,157.7812358213705L227.26905716538428,157.8129447835128L227.7605463286241,157.88801698687348L228.0733121597767,157.967958409113L228.43075882395107,158.05507399930187L228.67650340557097,158.13380563225095L229.03395006974537,158.2188741188708L229.19033298532167,158.2862190529152L229.21267340183257,158.32894281963033L229.63714131553968,158.39801454359676L229.68182214856148,158.44396544456538L229.72650298158328,158.47603159112774L230.30735381086666,158.55259545113097L230.3967154769103,158.6071683000761L230.53075797597566,158.65277136836175L230.7094813080629,158.69710652543964L230.7318217245738,158.7258154723261L230.79884297410646,158.74934570842652L231.11160880525907,158.7925197707608L231.58075755198797,158.86087357178516L232.00522546569505,158.93911791628616L232.02756588220598,158.98799313899931L232.11692754824958,159.02500189825875L232.51905504544575,159.08117019580405L232.72011879404386,159.13147611150947L233.07756545821823,159.1905591467194L233.21160795728366,159.2366414191383L233.41267170588176,159.28002973959215L233.59139503796894,159.31984159897752L234.06054378469784,159.37895127237596L234.32862878282864,159.43392792712777L234.39565003236135,159.47172157337687L234.59671378095945,159.50865239962437L234.75309669653575,159.5417232847473L234.86479877909025,159.56926682310674L235.15522419373193,159.60545051294815L235.98181960463523,159.68022069321734L236.13820252021154,159.7346398142186L236.3169258522987,159.77802586000288L236.67437251647314,159.82492569585568L236.74139376600584,159.8568891501013L236.89777668158214,159.8848792166737L237.14352126320205,159.9152104439777L237.29990417877832,159.9418262931068L237.32224459528922,159.95898569829546L237.56798917690912,159.98216329647764L237.81373375852903,160.00857219886728L237.99245709061623,160.03327164278505L238.08181875665983,160.05244300249646L238.14884000619253,160.0671766379608L238.17118042270343,160.07708747306518L238.2158612557252,160.08516586204414L238.4169250043233,160.09945092804512L238.4616058373451,160.11008475881434L238.55096750338873,160.12055292329256L239.1988395822048,160.15496680485316L239.60096707940102,160.1917466264816L239.62330749591192,160.21468082670847L239.64564791242282,160.2293044954927L239.77969041148822,160.24319151967623L240.49458373983703,160.27687769894573L240.8967112370332,160.3099333695791L241.0530941526095,160.33448586302578L241.3211791507403,160.35694780772428L241.4999024828275,160.37532633468172L241.5222428993384,160.38695192643996L241.835008730491,160.40197476308663L241.92437039653458,160.413174170704L242.28181706070902,160.42813178017119L242.4158595597744,160.43998728961193L242.6169233083725,160.45120895015154L242.9743699725469,160.464614291582L243.0413912220796,160.4738185745837L243.0637316385905,160.47972185634424L243.2871358036995,160.4868972487704L243.35415705323217,160.4922309279663L243.5105399688085,160.4977202981672L243.7116037174066,160.50372971263505L244.31479496320088,160.5139474634548L244.49351829528808,160.521594939532L244.53819912830988,160.52653103460685L244.8956457924843,160.53181855190726L245.0520287080606,160.53575424875643L245.5658582878113,160.5395330310405L245.72224120338757,160.54189984860085L245.74458161989847,160.54332151926792" fill="none"></path></g></g></g></g><g opacity="0.2"><g><g><g><path style="fill: none;" stroke="rgb(255, 112, 67)" stroke-width="2px" d="M23.122331088781355,150.4310904085189L23.144671505292255,150.14210863361737L23.16701192180316,149.85312685871585L23.412756503423054,146.674327334799L23.859564833641052,140.8946903415723L24.14999024828275,137.13792652025438L24.30637316385905,135.1150548435417L24.37339441339175,134.24810727604302L24.395734829902647,133.9591277439356L25.065947325229644,125.28967300169359L25.110628158251444,124.71170795669445L25.244670657316842,122.97781880248134L25.267011073827742,122.68883627998179L25.311691906849543,122.11087123498268L25.356372739871343,121.53290918037565L25.46807482242584,120.08799955826998L25.73615982055664,116.62021825945162L25.758500237067544,116.33123573695204L26.160627734263738,111.12956229352844L26.182968150774638,110.84058276142098L26.361691482861836,108.52872557181661L26.406372315883637,107.9507605268175L26.741478563547137,103.61603764128466L26.875521062612535,101.88214250628732L27.09892522772153,98.99232924286018L27.29998897631963,96.39148953075626L27.34466980934143,95.81352448575714L27.947861055135725,88.01101731101383L27.970201471646625,87.72203777890637L27.99254188815753,87.43305226601471L29.44466896136602,68.64923315942505L29.534030627409617,67.49330905021105L29.690413542985915,65.47043438310625L30.047860207160312,60.846725984681754L30.114881456693013,59.97978738835942L30.494668537378313,55.06708749625903L30.651051452954608,53.04421880993845L31.008498117129008,48.420510411513945L31.343604364792508,44.0857815451969L32.0361572766304,35.127344280455354L32.125518942674,33.97141419045711L32.4159443573157,30.21465634992339L32.7510506049792,25.879927483606345L32.795731438001,25.30196841939145L32.88509310404459,24.146038329393225L32.90743352055549,23.857058797285767L33.153178102175396,20.678260020966945L33.175518518686296,20.38926852729106L33.689348098436994,16.054802815479842L33.89041184703509,16.0556879715449L33.93509268005689,16.05597504918763L34.33722017725309,16.05995825148044L34.38190101027489,16.060556329902766L34.69466684142749,16.065639996492685L34.76168809096019,16.066931845884955L34.873390173514686,16.06924042859518L35.20849642117818,16.0773623335706L35.52126225233078,16.086536856569342L35.69998558441797,16.092481756087416L35.834028083483375,16.09726638346615L36.12445349812508,16.10861791192222L36.34785766323407,16.11824697452194L36.526580995321275,16.126524379887158L36.79466599345208,16.139885451842293L37.688282653888066,16.192635968692898L38.04572931806246,16.217276799693398L38.26913348317146,16.233688071602487L38.33615473270416,16.2387717381924L38.604239730834955,16.259800175521956L38.78296306292216,16.274453096869344L38.93934597849846,16.28768259157156L39.67657972335815,16.35525349172782L39.69892013986906,16.357442458753596L39.78828180591265,16.366246173130474L39.810622222423554,16.368459063293134L40.54785596728325,16.446161411923875L40.77126013239224,16.47140032134674L40.81594096541404,16.47654379577887L40.972323880990345,16.49478518766032L41.41913221120834,16.549018938998344L41.46381304423014,16.554616953031474L41.620195959806445,16.57444923351634L41.664876792828245,16.58019078637083L41.75423845887184,16.591757623058932L41.82125970840454,16.60051349116203L42.156365956068036,16.645369372837713L42.580833869775134,16.704722675470986L42.87125928441684,16.746958973656813L43.16168469905853,16.790523005940244L43.273386781613034,16.80762804881924L43.38508886416753,16.82492447679338L43.40742928067843,16.828405293211414L43.65317386229833,16.867244505958343L44.25636510809262,16.96657337034098L44.345726774136224,16.981776523836928L44.390407607158025,16.98941996607447L44.65849260528882,17.0359504673327L44.77019468784332,17.055675093701552L44.81487552086512,17.063617575150275L44.88189677039782,17.07559110516557L45.23934343457222,17.140626152811087L45.26168385108312,17.144752893925244L45.32870510061582,17.15719292510997L45.66381134827932,17.22044569905692L45.70849218130112,17.22901018206487L45.86487509687742,17.259225103961597L45.93189634641012,17.27229909827402L46.17764092803001,17.32081521989443L46.42338550964991,17.370276305422152L46.53508759220441,17.39306309331341L46.64678967475891,17.416053227868264L47.02657675544421,17.4956455043136L47.048917171955104,17.500394246987003L47.67444883426031,17.63660062689127L47.808491333325705,17.66656435585064L48.1212571644783,17.737592149288027L48.3893421626091,17.799660727958738L48.4340229956309,17.810115138781285L48.545725078185406,17.836394704659003L48.635086744229,17.85754275767304L49.19359715700149,17.99255298073264L49.305299239556,18.02013635757106L49.84146923581759,18.15518246533601L50.19891589999199,18.247681274135502L50.51168173114459,18.33021609641876L50.623383813699085,18.36006020969366L50.73508589625359,18.390083746495243L50.95849006136258,18.45072889852077L50.98083047787349,18.456829298428676L51.29359630902608,18.543120053204245L51.78508547226588,18.681730708366338L52.85742546478907,18.996929998509284L53.41593587756157,19.168016312004568L54.30955253799757,19.451577253605596L54.37657378753026,19.47332338504198L54.39891420404116,19.480596018657657L54.66699920217196,19.568370007920645L55.42657336354255,19.822960030743396L55.58295627911886,19.87645216483771L56.05210502584776,20.03911753414643L56.11912627538045,20.062633977712927L56.56593460559845,20.22106495179146L57.16912585139274,20.439674576726087L57.66061501463254,20.62178945632938L58.28614667693774,20.858772050398375L58.35316792647044,20.88450138412755L58.37550834298134,20.89308979027238L58.442529592514035,20.91891481654912L58.88933792273204,21.092752290787196L58.91167833924293,21.101520120458744L59.26912500341733,21.24283409008983L59.760614166657135,21.440188007894402L59.78295458316803,21.44924291520866L60.140401247342425,21.595114242418L60.47550749500593,21.733569397190298L60.743592493136724,21.84551771628436L60.765932909647624,21.854895585946682L60.877634992202125,21.901880626805912L61.14571999033292,22.015395911366525L61.19040082335472,22.03441480519702L61.21274123986562,22.043936213680706L61.63720915357272,22.226206593673798L61.79359206914902,22.294016725199004L61.994655817747116,22.381718945051308L62.35210248192151,22.539085339538065L62.553166230519615,22.628414332699137L62.91061289469401,22.78865150361313L62.932953311204905,22.798723144245383L63.13401705980301,22.88972675698902L63.15635747631391,22.899870167031953L63.42444247444471,23.022201127537876L63.4467828909556,23.032440230128373L63.670187056064606,23.13523794936061L64.04997413674991,23.311623237677864L64.8989099641641,23.713316629259975L64.9659312136968,23.74545736367665L65.0999737127622,23.80994217917362L65.144654545784,23.83149692551486L65.5021012099584,24.00492770642572L65.70316495855648,24.103275722195736L65.77018620808919,24.136181996993006L65.97124995668729,24.235283591575165L66.08295203924179,24.29058192250494L66.44039870341618,24.468725561383895L67.06593036572139,24.784774122886564L67.51273869593939,25.013862081780616L67.55741952896118,25.036923985746153L67.60210036198298,25.060009812848573L67.66912161151568,25.09469836134444L67.95954702615738,25.24571316298591L68.45103618939719,25.50393950261651L68.49571702241897,25.52757556186749L68.58507868846259,25.574931411348565L68.94252535263696,25.76547919670689L69.12124868472418,25.86141097565063L69.23295076727867,25.92158962650673L69.43401451587677,26.03033224525704L69.50103576540947,26.06670737490391L69.54571659843127,26.090989358851015L69.99252492864926,26.335304394377918L70.10422701120378,26.39681077933162L70.14890784422556,26.421463571900592L70.17124826073646,26.433795948969284L70.30529075980186,26.507945711771306L70.52869492491087,26.632070907544264L71.19890742023786,27.008477543429745L71.31060950279236,27.07180208678736L72.02550283114115,27.481019304922548L72.29358782927196,27.636232617088876L72.42763032833736,27.714198120225447L72.49465157787006,27.753276564341306L72.60635366042455,27.81852692021887L72.87443865855535,27.97580958372649L72.89677907506623,27.988955347449576L72.91911949157715,28.00211307274111L72.98614074110985,28.041622133321066L73.05316199064255,28.081191001743235L73.14252365668614,28.134037211141425L73.52231073737144,28.359823777144165L73.81273615201314,28.533756943929806L73.92443823456765,28.600957035464216L74.05848073363305,28.681805276596474L74.12550198316575,28.72231910892595L74.19252323269843,28.76288078752923L74.68401239593824,29.0621831532063L74.79571447849274,29.13065117099606L74.84039531151454,29.158079047444705L75.06379947662354,29.29561316144658L75.30954405824343,29.447644696406037L75.33188447475435,29.461508154235933L75.48826739033063,29.558707859435042L76.02443738659224,29.894361431622098L76.06911821961403,29.922495040609082L76.31486280123393,30.077696391206963L76.44890530029933,30.16268333502183L76.64996904889742,30.290588386423998L77.00741571307182,30.519245728853992L77.11911779562632,30.59103906267197L77.40954321026803,30.77841703239188L77.47656445980071,30.821813602717043L78.12443653861682,31.244188546143764L78.21379820466042,31.30286003937556L78.2584790376822,31.332237651481034L78.45954278628032,31.46472398359834L78.59358528534572,31.553335282652604L78.68294695138931,31.612521123327628L78.79464903394381,31.686658924561204L78.90635111649831,31.760940264616142L79.06273403207462,31.865209256767333L79.4872019457817,32.1497271238441L79.62124444484711,32.24003696561781L79.64358486135801,32.25510854186084L79.75528694391251,32.33056211562357L80.06805277506511,32.54265268575466L80.2467761071523,32.66438556783826L80.2691165236632,32.67963656760799L80.33613777319592,32.725401528485655L80.537201521794,32.86303133503511L80.84996735294659,33.078112297277904L80.9393290189902,33.139774182621416L81.02869068503381,33.20154372208095L81.1850736006101,33.30985572436718L81.207414017121,33.32535791707429L81.27443526665368,33.371888418332546L81.67656276384989,33.65219581331602L82.4137965087096,34.17112453724571L82.4361369252205,34.18696165386935L82.57017942428588,34.282032199884895L82.74890275637308,34.40914778776958L82.88294525543849,34.50472071965992L83.24039191961289,34.76062651501182L83.28507275263468,34.79271940315472L83.41911525170008,34.88914160640477L83.97762566447257,35.29315554226557L84.26805107911429,35.50467195711122L84.37975316166877,35.58629770019252L84.40209357817969,35.60263720269092L84.73719982584318,35.848423511136794L85.80953981836637,36.64360465834648L85.96592273394266,36.76066056716736L85.98826315045356,36.777406762992946L86.01060356696448,36.794164920387L86.03294398347538,36.81091111621257L86.05528439998626,36.827681235175056L86.09996523300806,36.861221473100024L86.32336939811707,37.02925758664137L86.36805023113887,37.062929401819254L86.39039064764977,37.079783251760865L86.50209273020427,37.16408838617427L86.70315647880237,37.3162156136813L86.83719897786777,37.41787698391108L87.03826272646586,37.57074582866181L87.12762439250946,37.63883107626128L87.59677313923835,37.99773793750902L87.64145397226017,38.0320437158146L88.66911313176155,38.82716505518206L88.98187896291415,39.071444206003605L89.22762354453404,39.26412115054548L89.56272979219754,39.527897657935405L89.58507020870844,39.54552900982606L89.71911270777385,39.65140085214913L89.83081479032835,39.73978488140292L90.07655937194825,39.93468667767588L90.25528270403544,40.07683795709824L90.72443145076433,40.4515819349696L90.74677186727524,40.469488402934545L91.03719728191695,40.70269114137432L91.34996311306953,40.95482904266548L91.39464394609134,40.99092905623807L91.55102686166764,41.117446565700405L91.64038852771122,41.18986190107763L91.66272894422212,41.207971715706165L91.72975019375484,41.26234900586554L91.93081394235293,41.4257679539864L92.31060102303823,41.73556061519136L92.39996268908183,41.808669721538514L92.93613268534342,42.24901094077241L93.15953685045241,42.43335067210681L93.47230268160503,42.692258821138864L93.51698351462682,42.729327721755666L93.53932393113772,42.74786815284828L93.67336643020312,42.85921839352002L94.32123850901921,43.399941095159846L94.34357892553011,43.41866094977918L94.85740850528082,43.85054534012114L94.92442975481352,43.90707571260096L94.94677017132442,43.92592714447318L95.036131837368,44.00138071823591L95.37123808503151,44.28501342924762L95.46059975107511,44.36083781163221L95.48294016758601,44.37979689762045L95.5946422501405,44.47469998167777L95.77336558222771,44.62680328604792L96.0861314133803,44.893713724370926L96.2648547454675,45.04665433853234L96.4882589105765,45.23825474191399L96.73400349219641,45.449555848527595L97.60527973612149,46.20326623793204L97.87336473425229,46.43658859205631L98.43187514702478,46.924788046646036L98.49889639655748,46.98356719399386L98.52123681306838,47.00317220467825L98.56591764609018,47.042382226047025L98.69996014515559,47.16014386740626L98.81166222771009,47.25839619062868L98.87868347724279,47.31740260777699L98.94570472677549,47.37644490963065L99.23613014141718,47.632769359878196L99.25847055792809,47.65251790938393L99.4148534735044,47.7908893331771L99.45953430652618,47.830458201599285L99.57123638908068,47.92946410363386L99.6605980551243,48.00875734086804L99.68293847163518,48.0285896213529L99.70527888814608,48.048421901837784L99.77230013767878,48.10796658956621L100.44251263300578,48.70550674132859L101.04570387880008,49.24663613629564L101.09038471182187,49.28685092941394L101.33612929344177,49.50829544607047L101.42549095948537,49.58895230210758L101.60421429157257,49.75045739927694L101.87229928970336,49.99322939247421L102.07336303830147,50.17570311913092L102.25208637038867,50.338189064912925L102.38612886945407,50.460232947776134L102.52017136851947,50.58240840789227L102.54251178503037,50.60279092052569L102.74357553362846,50.786389034616384L102.81059678316116,50.84765618820116L102.98932011524836,51.011230636711815L103.34676677942277,51.33915703568222L103.90527719219526,51.85361213301278L104.26272385636966,52.18417007704147L104.30740468939146,52.22555710386757L104.39676635543506,52.308390965362015L104.57548968752225,52.47423811187758L104.75421301960945,52.640336451330555L104.79889385263125,52.68190290168336L104.82123426914215,52.70269210764398L104.84357468565305,52.72348131360461L105.20102134982746,53.056670802691606L105.46910634795826,53.30721781537933L105.78187217911085,53.60021643448491L105.80421259562175,53.6211731024038L106.13931884328524,53.935977660788L106.31804217537244,54.10421712099293L106.42974425792694,54.20949088489366L106.54144634048143,54.314860341341976L106.63080800652504,54.399225283597595L106.69782925605774,54.462525903818324L106.94357383767763,54.694951140309065L107.03293550372123,54.779579237070536L107.50208425045014,55.22482469936763L107.68080758253734,55.39485839483959L107.97123299717903,55.671661050268156L108.08293507973353,55.77828647140337L108.57442424297334,56.24848376548059L108.66378590901692,56.33415251869694L108.88719007412593,56.54857559467517L108.97655174016951,56.63444769455509L109.28931757132213,56.93542467981473L109.60208340247472,57.23707151290739L109.7808067345619,57.409736753437684L109.87016840060552,57.49615908546617L110.07123214920362,57.69078576566487L110.13825339873631,57.75572512076282L110.67442339499792,58.276304541138174L111.21059339125951,58.798773889328125L111.23293380777041,58.82057982860674L111.47867838939031,59.060696353608805L111.9254867196083,59.49827445053147L112.1265504682064,59.695604445199145L112.1712313012282,59.73947947826219L112.64038004795711,60.2010165967839L112.68506088097891,60.24504114945253L113.0425075451533,60.597692110402555L113.109528794686,60.663899391755876L113.64569879094759,61.194538491195026L114.2935708697637,61.838005085009094L114.80740044951439,62.35007384943452L115.2318683632215,62.774225085775605L115.343570445776,62.88601192369562L115.54463419437408,63.08739689006679L115.56697461088498,63.1097889461993L115.67867669343948,63.221785111567165L115.94676169157029,63.4908486322106L116.12548502365748,63.670439620871605L116.34888918876648,63.89517356885102L116.57229335387548,64.12017067133627L116.92974001804987,64.48072224824543L117.10846335013709,64.66124623924529L117.17548459966977,64.72899058214404L117.37654834826787,64.93234322652471L117.55527168035508,65.11327989163597L118.00208001057307,65.56633027734465L118.24782459219297,65.81593232612506L118.40420750776926,65.97492549392058L118.80633500496546,66.38431017401403L119.78931333144507,67.38827451767926L120.32548332770665,67.93776504899066L120.59356832583745,68.21300073895267L120.70527040839195,68.3277719882002L121.08505748907724,68.7184069097532L121.33080207069715,68.9715017365201L121.42016373674075,69.06359983277662L121.44250415325165,69.0866258520368L121.71058915138245,69.36314741060686L122.06803581555684,69.73230533601352L122.11271664857865,69.77848297100259L122.38080164670944,70.05574016603214L122.64888664484025,70.33328443870438L122.98399289250374,70.68061250169558L123.20739705761274,70.91240975584286L123.36377997318904,71.0747760859404L123.38612038969994,71.09798152872729L123.40846080621083,71.12118099072994L123.54250330527623,71.26045551294084L123.67654580434163,71.39978984299397L123.78824788689613,71.51595461496557L123.83292871991793,71.5624312891658L123.89994996945063,71.6321612524267L123.96697121898333,71.7019091580403L124.39143913269044,72.14402667018854L124.79356662988664,72.56345906777732L124.92760912895203,72.70339745703701L125.06165162801743,72.84338967335472L125.12867287755013,72.9134126950426L125.19569412708283,72.98344767829889L125.50845995823542,73.31048294041999L125.64250245730082,73.45074429202775L125.84356620589891,73.6612379927712L126.20101287007331,74.03576666241052L126.42441703518232,74.27005192279475L126.64782120029132,74.50449268356877L126.6701616168022,74.52794931929306L126.69250203331312,74.55139997423309L126.7818636993567,74.64523249791442L127.25101244608561,75.13822854145133L128.8818628513813,76.8567590417787L129.0159053504467,76.99831822356295L129.84250076135,77.87223639507401L130.1999474255244,78.25063463210591L130.3339899245898,78.39260648800158L130.3786707576116,78.43993841434575L130.6467557557424,78.72402566495843L130.7137770052751,78.7950714007485L130.736117421786,78.81875530627326L130.7807982548078,78.86612909810701L130.8701599208514,78.96088266255873L131.0042024199168,79.10304590354954L131.1159045024713,79.22154318136828L131.67441491524377,79.81438841751526L131.96484032988548,80.12290119089641L132.43398907661438,80.62158496022981L133.193563237985,81.42975038998854L133.48398865262666,81.73898683826074L133.93079698284467,82.21497951225047L134.19888198097547,82.50069951695615L134.37760531306267,82.6912293599618L134.60100947817168,82.92944997636504L134.69037114421525,83.02475975374954L134.71271156072615,83.04858719809566L134.98079655885695,83.33455839573872L135.22654114047685,83.59677391844635L135.24888155698775,83.62061332436092L135.27122197349868,83.6444587110597L135.42760488907496,83.8113584755986L135.87441321929296,84.28835592133787L135.89675363580386,84.31220728882087L136.27654071648914,84.71780015171666L136.29888113300004,84.74166348076814L136.67866821368537,85.14736997856417L136.72334904670714,85.19510859823555L136.92441279530527,85.4099443483252L137.34888070901235,85.8635688893193L137.39356154203415,85.91131947055914L137.50526362458865,86.03071386601137L137.84036987225215,86.3889329370734L138.15313570340473,86.72331260222087L138.37653986851373,86.962173162536L138.44356111804643,87.0338349191011L138.46590153455733,87.05772217128946L138.55526320060096,87.15327118004289L138.57760361711186,87.17716441301549L138.86802903175354,87.48771663381682L138.89036944826444,87.5116098667894L139.76164569218952,88.44334427938834L140.36483693798382,89.0883898002374L141.1467515158653,89.92446156918263L141.3924960974852,90.18718545854922L141.83930442770324,90.66479892506351L141.8616448442141,90.68868019646764L141.9956873432795,90.83194390175557L142.01802775979044,90.85581919237546L142.68824025511742,91.5719642760726L142.71058067162832,91.5958335859083L142.8222827541828,91.71515621194985L142.95632525324822,91.85833618625864L143.5148356660207,92.45476391215547L143.7382398311297,92.69325366384876L143.894622746706,92.86017137074033L143.9839844127496,92.95554095596707L144.5871756585439,93.59906735762338L144.63185649156569,93.64672224631562L144.98930315574012,94.0278537017376L145.3467498199145,94.40882965676977L145.8382389831543,94.93238152690417L146.0839835647742,95.1940348558948L146.352068562905,95.47936012884173L146.4190898124377,95.55067499992185L146.6424939775467,95.78834538417652L146.8882385591666,96.04968173160331L146.9105789756775,96.07343142575453L147.5137702214718,96.7144279556843L147.7595148030917,96.975387513705L147.7818552196026,96.99910730393512L147.89355730215706,97.11768233194874L147.93823813517886,97.16510397005628L148.0275998012225,97.25993528470289L148.2733443828424,97.52064963057046L148.38504646539687,97.63911700446805L148.49674854795137,97.75756045522874L148.809514379104,98.08905140159631L149.03291854421298,98.32570505253302L149.45738645792008,98.77504735202314L149.72547145605088,99.05862623597685L149.74781187256178,99.08225033365937L149.92653520464899,99.27120124963004L150.03823728720346,99.38925594941624L150.06057770371436,99.4128621047461L150.149939369758,99.5072807452813L150.26164145231246,99.62527563722524L150.3956839513779,99.76682883822527L150.55206686695416,99.93191642514446L150.77547103206317,100.16764305452654L151.28930061181387,100.70932866242636L151.37866227785744,100.80346022531884L151.84781102458635,101.29729955943127L152.11589602271715,101.57920980458661L152.16057685573895,101.62617690309318L152.42866185386976,101.90784791687959L152.45100227038066,101.93131053338809L153.00951268315313,102.51738552179418L153.05419351617493,102.56423300461627L153.21057643175126,102.72813639625923L153.23291684826216,102.75154518570972L153.54568267941474,103.07910675684248L153.63504434545834,103.17264024131262L153.79142726103464,103.33625057452862L154.26057600776355,103.82661507300723L154.43929933985072,104.01322152156233L154.68504392147062,104.269629702789L155.17653308471043,104.78180612133046L155.51163933237393,105.13051574547724L155.55632016539576,105.17698045810903L155.75738391399383,105.38597896279661L155.95844766259194,105.5948219670944L155.98078807910284,105.61801544831283L156.18185182770094,105.82669099065235L156.40525599280994,106.05836862911518L156.5169580753644,106.174138669328L157.00844723860422,106.68292398321476L157.43291515231135,107.12154871737653L157.72334056695303,107.4212338532439L157.74568098346393,107.44427183407255L157.946744732062,107.65151796898267L158.32653181274733,108.04251771837329L158.4382338953018,108.15740260252106L158.4829147283236,108.2033410061412L158.7063188934326,108.43289546620467L158.9073826420307,108.63931027210775L159.17546764016151,108.91424692285858L159.44355263829232,109.18885463047717L159.5552547208468,109.30318330169214L159.64461638689042,109.3945995885472L159.89036096851032,109.64581046828371L160.0020630510648,109.75990588891398L160.0914247171084,109.85113677145812L160.4935522143046,110.26121522252146L160.91802012801168,110.69322819972423L160.9403605445226,110.71594022781271L161.0073817940553,110.78406435050962L161.45419012427328,111.23766496836684L161.69993470589318,111.48671678499869L161.81163678844771,111.59982238584001L161.83397720495861,111.62243573098876L162.2584451186657,112.05159886450906L162.3701472012202,112.1643815030023L162.5935513663292,112.38975240450151L162.6158917828401,112.41227304749482L162.8839767809709,112.6823383494957L163.1520617791017,112.95201789091415L163.26376386165617,113.0642712300036L163.4424871937434,113.2437336318038L163.53184885978698,113.3334005392735L163.57652969280878,113.37821754585175L163.6882317753633,113.49021072082749L164.06801885604858,113.87047197214497L164.38078468720119,114.1830187844848L164.5595080192884,114.36137175081156L164.7382313513756,114.5395393128274L164.8052526009083,114.60630579750561L164.96163551648456,114.76199159162557L165.319082180659,115.11731297273137L165.3414225971699,115.13949570141604L165.40844384670257,115.20602594511745L165.65418842832247,115.4497458926141L165.72120967785517,115.51615053984679L166.32440092364945,116.1125962080963L166.36908175667128,116.1566895397835L166.68184758782388,116.46500195689316L166.83823050340015,116.61893239084357L166.86057091991105,116.64091177286465L166.92759216944378,116.70682599579102L167.59780466477076,117.36441920194083L167.70950674732526,117.47374195676079L167.93291091243424,117.69214823503184L168.11163424452147,117.86664060514236L168.17865549405414,117.93202253827285L168.20099591056504,117.95381053519878L168.60312340776125,118.34542929575655L168.64780424078305,118.38887670274761L169.38503798564275,119.10384656234484L169.45205923517545,119.1686633113662L169.54142090121903,119.2550377971209L170.09993131399153,119.79364928192989L170.16695256352426,119.85813708781899L170.50205881118774,120.18011559687918L170.65844172676404,120.33010469402635L170.77014380931854,120.43713680848873L170.90418630838394,120.56545453400233L171.26163297255835,120.90702011139422L171.52971797068915,121.16259397322176L171.64142005324362,121.26893231671424L172.02120713392895,121.62980087518726L172.06588796695075,121.67218669297866L172.15524963299433,121.75691646307195L172.31163254857066,121.90505151710984L172.37865379810333,121.96848072419137L172.66907921274503,122.24296582573334L172.87014296134313,122.43262546463447L173.24993004202844,122.79004610100269L173.47333420713744,122.99978622293398L173.5403554566701,123.06263230355373L173.65205753922464,123.16730499864002L174.07652545293172,123.56417787813804L174.6573762822151,124.10501122428603L175.28290794452033,124.68448641730156L175.55099294265113,124.93188155670352L176.1541841884454,125.48640192754681L176.46695001959802,125.77276785694863L176.62333293517432,125.91564879204626L176.64567335168522,125.93604625664024L177.1148220984141,126.36339123175664L177.137162514925,126.38369599419515L177.20418376445772,126.44458336798174L177.3382262635231,126.56624747104675L177.5169495956103,126.72822804056187L177.5616304286321,126.76868206504913L177.67333251118657,126.86974236646445L177.9637579258283,127.13200573544584L178.030779175361,127.19242660806302L178.0978004248937,127.25280860558271L178.4999279220899,127.61429318483073L178.72333208719888,127.81451787906256L178.76801292022068,127.8545113831646L178.8126937532425,127.89448694491396L179.2371616669496,128.27339055821275L179.30418291648226,128.3330728039783L179.5275870815913,128.53173053274358L179.9297145787875,128.88820620520448L180.26482082645097,129.1841712932849L180.35418249249457,129.26292625993895L180.57758665760358,129.45949669501027L180.80099082271258,129.65561857126482L181.13609707037608,129.9489521142869L181.31482040246328,130.10497881310764L181.53822456757229,130.2995995125221L181.64992665012676,130.39673940987896L181.69460748314856,130.4355606802732L181.71694789965946,130.4549653346861L182.0743945638339,130.76481182294907L182.20843706289926,130.88069848845427L182.3201391454538,130.97714162444913L182.5658837270737,131.18890923223216L182.63290497660637,131.24656399214598L183.03503247380254,131.5916103859559L183.25843663891158,131.78263962444422L183.39247913797698,131.89702810350147L183.43715997099878,131.93511971822045L183.50418122053145,131.9922242459857L184.68822329560913,132.9938829973328L185.44779745697974,133.62924562852413L185.49247829000154,133.66644311600172L185.64886120557784,133.79647433619533L185.71588245511055,133.85212852378638L185.73822287162145,133.870668954879L185.82758453766505,133.94478582336782L185.84992495417595,133.96330233132352L186.36375453392665,134.3877914819732L186.78822244763373,134.7364502694541L186.98928619623183,134.90096370108787L187.01162661274273,134.91921705453777L187.12332869529723,135.01040906198443L187.57013702551524,135.37390318473155L187.6818391080697,135.4644552482663L187.70417952458064,135.48255011093428L188.08396660526594,135.78937181757627L188.35205160339675,136.00504936304534L188.55311535199485,136.16631522884578L188.79885993361475,136.36284230323147L188.97758326570192,136.5053703720599L189.24566826383273,136.718531502567L189.7818382600943,137.14256162802755L189.91588075915973,137.24808957525778L190.295667839845,137.54603729330825L190.3403486728668,137.5809875011139L190.85417825261752,137.98136512016686L191.32332699934642,138.34441816007745L191.6807736635208,138.61941013308237L192.2169436597824,139.02925682875707L192.32864574233693,139.11423928698377L192.4850286579132,139.23298177695565L192.529709490935,139.26685843399318L192.7084328230222,139.40214078273496L192.7754540725549,139.45278008275469L193.04353907068568,139.65483190656678L193.28928365230558,139.83933461427125L193.31162406881649,139.8560733341166L193.37864531834921,139.90625809453533L193.42332615137101,139.93968619275608L193.5797090669473,140.0565043654041L193.6020494834582,140.07317131583872L193.64673031648002,140.10648577915927L194.1382194797198,140.4714481844332L194.2946023952961,140.58699394523768L194.4063044778506,140.66935532477845L194.5180065604051,140.7515731654979L194.5626873934269,140.78442112764898L194.5850278099378,140.80083538995018L194.94247447411217,141.06269356080043L195.0318361401558,141.12792746952138L195.1211978061994,141.19306867608688L195.3222615547975,141.33929885034962L195.5456657199065,141.50122409761067L195.92545280059178,141.77516345259227L196.1488569657008,141.93551575360257L196.4616227968534,142.15902065042408L197.26587779124577,142.72843915476793L197.57864362239837,142.94780086331863L197.71268612146378,143.0414554586693L197.75736695448558,143.0726243156497L198.31587736725808,143.4602239892093L198.36055820027988,143.49106988384162L198.40523903330165,143.52189185533706L198.91906861305236,143.8745966433451L198.96374944607416,143.90511509004116L199.65630235791207,144.37503128725987L199.79034485697744,144.4653037491322L199.87970652302107,144.52536278430384L199.99140860557557,144.6002975250352L200.10311068813004,144.67507975576885L200.37119568626085,144.85392464159798L200.50523818532625,144.94301440339012L200.90736568252245,145.20894249790442L200.95204651554425,145.23836496589155L201.46587609529493,145.574939578849L202.18076942364374,146.0376997677444L202.58289692083994,146.29516505258258L202.60523733735084,146.30940829021065L202.64991817037264,146.3378753279181L202.73927983641624,146.3947346435302L202.76162025292714,146.4089345204727L202.82864150245985,146.45149228581053L203.11906691710155,146.6352533762713L203.20842858314515,146.69157741169542L203.92332191149396,147.13848852239875L204.59353440682094,147.55148559616313L205.10736398657164,147.86416847134404L205.30842773516974,147.98558586705985L205.39778940121332,148.03937928315943L205.46481065074602,148.07965612691407L205.86693814794222,148.32007916710756L205.95629981398582,148.3732176873347L206.09034231305122,148.452728475595L206.26906564513843,148.55837529091164L206.29140606164933,148.57155095855586L206.42544856071473,148.650469649178L206.47012939373653,148.67672304912477L206.93927814046543,148.950786505379L207.20736313859624,149.10608205332838L207.5424693862597,149.2988539428198L207.5871502192815,149.3244442233158L207.6541714688142,149.36277805979583L207.87757563392321,149.49012540306916L208.14566063205402,149.64205900268698L208.1903414650758,149.66728744573743L208.57012854576112,149.8806436993298L208.6371497952938,149.9180931273428L209.1509793750445,150.20318589730306L209.4637452061971,150.3749689721604L209.5084260392189,150.3994012233111L209.6648089547952,150.48469842030752L210.26800020058948,150.81057789587746L210.29034061710038,150.8225521734908L210.4467235326767,150.90617923649287L210.5137447822094,150.9419166650219L210.8711914463838,151.13147388299322L211.0052339454492,151.2021047018778L211.2062976940473,151.3075870456283L211.3179997766018,151.36594679048247L211.3626806096236,151.38924269263072L211.67544644077617,151.55153949611167L211.8765101893743,151.65515733038055L211.96587185541787,151.7010291977762L212.0552335214615,151.7467904206637L212.54672268470128,151.9964918999818L213.1275735139847,152.28724548220956L213.6637435102463,152.55143541130892L213.75310517628986,152.59507420339514L213.86480725884437,152.649464202721L214.08821142395337,152.75771639716498L214.11055184046427,152.76850274151195L214.42331767161687,152.9187721879196L214.46799850463867,152.9401265779893L214.51267933766047,152.961452559334L214.53501975417137,152.97210508363395L214.57970058719317,152.993388451891L215.18289183298745,153.27794070847708L215.94246599435806,153.62889462190373L216.09884890993436,153.70012576200472L216.14352974295616,153.7204133296886L216.41161474108696,153.84153691937942L216.74672098875047,153.99149013182125L216.85842307130494,154.0411156889151L217.52863556663195,154.33508842825108L217.61799723267555,154.37379419475002L217.70735889871915,154.41238445735365L217.72969931523005,154.4220138937524L218.02012472987175,154.5465390544703L218.37757139404616,154.69812016161794L218.39991181055703,154.70753204699054L218.80203930775326,154.87570758756408L219.07012430588406,154.98651432446948L219.24884763797124,155.0598021067453L219.40523055354754,155.1235456787976L219.49459221959114,155.1598097901373L219.67331555167834,155.23198738934167L220.05310263236362,155.38380810165725L220.99140012582143,155.7497954638275L221.25948512395223,155.85197641468667L221.7062934541702,156.0199130976903L221.77331470370294,156.0448481085148L222.08608053485554,156.16033069728593L222.57756969809535,156.33886308713937L222.73395261367162,156.39491387548426L223.15842052737872,156.545212478215L223.42650552550953,156.63874970067528L223.51586719155313,156.6696897926591L223.91799468874933,156.807438841094L224.0296967713038,156.84527216069438L224.0967180208365,156.867881767853L224.3424626024564,156.95020726268845L225.25841967940332,157.24904499619115L225.34778134544692,157.27752212647198L225.37012176195782,157.28462243874222L226.0403342572848,157.4941240769026L226.5318234205246,157.6434313646483L226.7552275856336,157.7100855227228L226.77756800214448,157.71670924125024L226.79990841865538,157.7233252968979L227.04565300027528,157.7956010183434L227.11267424980798,157.81515294956785L227.13501466631888,157.82165518341574L227.26905716538428,157.86050822672618L227.7605463286241,158.00062529191456L228.0733121597767,158.08787054247227L228.43075882395107,158.18574738458517L228.67650340557097,158.25190308167456L229.03395006974537,158.34647684880056L229.19033298532167,158.38723645398173L229.21267340183257,158.3930284697031L229.63714131553968,158.50162212954635L229.68182214856148,158.51289179601835L229.72650298158328,158.5241308109712L230.30735381086666,158.6674412411359L230.3967154769103,158.68902757349377L230.53075797597566,158.72117597079026L230.7094813080629,158.76360926105644L230.7318217245738,158.7688788926558L230.79884297410646,158.78464106257712L231.11160880525907,158.85728086426224L231.58075755198797,158.96340427332171L232.00522546569505,159.05648443303767L232.02756588220598,159.06130597306904L232.11692754824958,159.08051503714788L232.51905504544575,159.16542264212202L232.72011879404386,159.20693498506756L233.07756545821823,159.27918369953434L233.21160795728366,159.30576482776655L233.41267170588176,159.34511222027297L233.59139503796894,159.37955938805558L234.06054378469784,159.46761578247362L234.32862878282864,159.51639290925553L234.39565003236135,159.52841204275052L234.59671378095945,159.56404863899556L234.75309669653575,159.5913296124317L234.86479877909025,159.61058213064592L235.15522419373193,159.6597260477103L235.98181960463523,159.7923759636211L236.13820252021154,159.81626849572052L236.3169258522987,159.8431049286793L236.67437251647314,159.89527544963488L236.74139376600584,159.90483433146971L236.89777668158214,159.92686431653232L237.14352126320205,159.9607072849337L237.29990417877832,159.98175006680046L237.32224459528922,159.98472480607845L237.56798917690912,160.0169296937509L237.81373375852903,160.04818555245177L237.99245709061623,160.07032080866168L238.08181875665983,160.0812000420636L238.14884000619253,160.08927709115736L238.17118042270343,160.0919537257217L238.2158612557252,160.09728344551255L238.4169250043233,160.12087852704664L238.4616058373451,160.12603550496817L238.55096750338873,160.13625517000995L239.1988395822048,160.20658762719404L239.60096707940102,160.2469163589243L239.62330749591192,160.24908212704875L239.64564791242282,160.25123999866906L239.77969041148822,160.26402205595156L240.49458373983703,160.32740696784995L240.8967112370332,160.35951687552918L241.0530941526095,160.37131460319574L241.3211791507403,160.39064072477206L241.4999024828275,160.40289412511783L241.5222428993384,160.40439031407732L241.835008730491,160.42450901805663L241.92437039653458,160.42997328213008L242.28181706070902,160.45056819437198L242.4158595597744,160.45777055377303L242.6169233083725,160.46804144096095L242.9743699725469,160.48472230372764L243.0413912220796,160.4876249990863L243.0637316385905,160.48857677898502L243.2871358036995,160.49766033740963L243.35415705323217,160.50023144676018L243.5105399688085,160.50595435346852L243.7116037174066,160.51274383433685L244.31479496320088,160.5292740896844L244.49351829528808,160.5330661536478L244.53819912830988,160.5339351772191L244.8956457924843,160.5397498278579L245.0520287080606,160.5416577940302L245.5658582878113,160.5452012044666L245.72224120338757,160.54545007494139L245.74458161989847,160.54545402526855" fill="none"></path></g></g></g></g></g></g><g transform="translate(61, 176)" clip-path="url(#clip_1)"><clipPath id="clip_1"><rect width="268" height="23"></rect></clipPath><g><g><line x1="0" y1="0" x2="0" y2="5" style="visibility: inherit;" fill="rgb(0, 0, 0)" stroke="rgb(204, 204, 204)" stroke-width="1px"></line><line x1="22.34041651089986" y1="0" x2="22.34041651089986" y2="5" style="visibility: inherit;" fill="rgb(0, 0, 0)" stroke="rgb(204, 204, 204)" stroke-width="1px"></line><line x1="44.68083302179972" y1="0" x2="44.68083302179972" y2="5" style="visibility: inherit;" fill="rgb(0, 0, 0)" stroke="rgb(204, 204, 204)" stroke-width="1px"></line><line x1="67.02124953269958" y1="0" x2="67.02124953269958" y2="5" style="visibility: inherit;" fill="rgb(0, 0, 0)" stroke="rgb(204, 204, 204)" stroke-width="1px"></line><line x1="89.36166604359944" y1="0" x2="89.36166604359944" y2="5" style="visibility: inherit;" fill="rgb(0, 0, 0)" stroke="rgb(204, 204, 204)" stroke-width="1px"></line><line x1="111.70208255449931" y1="0" x2="111.70208255449931" y2="5" style="visibility: inherit;" fill="rgb(0, 0, 0)" stroke="rgb(204, 204, 204)" stroke-width="1px"></line><line x1="134.04249906539917" y1="0" x2="134.04249906539917" y2="5" style="visibility: inherit;" fill="rgb(0, 0, 0)" stroke="rgb(204, 204, 204)" stroke-width="1px"></line><line x1="156.38291557629904" y1="0" x2="156.38291557629904" y2="5" style="visibility: inherit;" fill="rgb(0, 0, 0)" stroke="rgb(204, 204, 204)" stroke-width="1px"></line><line x1="178.72333208719888" y1="0" x2="178.72333208719888" y2="5" style="visibility: inherit;" fill="rgb(0, 0, 0)" stroke="rgb(204, 204, 204)" stroke-width="1px"></line><line x1="201.06374859809875" y1="0" x2="201.06374859809875" y2="5" style="visibility: inherit;" fill="rgb(0, 0, 0)" stroke="rgb(204, 204, 204)" stroke-width="1px"></line><line x1="223.40416510899863" y1="0" x2="223.40416510899863" y2="5" style="visibility: inherit;" fill="rgb(0, 0, 0)" stroke="rgb(204, 204, 204)" stroke-width="1px"></line><line x1="245.74458161989847" y1="0" x2="245.74458161989847" y2="5" style="visibility: inherit;" fill="rgb(0, 0, 0)" stroke="rgb(204, 204, 204)" stroke-width="1px"></line><line x1="268.08499813079834" y1="0" x2="268.08499813079834" y2="5" style="visibility: inherit;" fill="rgb(0, 0, 0)" stroke="rgb(204, 204, 204)" stroke-width="1px"></line></g><g transform="translate(0, 8)"><text style="text-anchor: middle; visibility: hidden; font-family: Roboto, sans-serif; font-size: 12px; font-weight: 200;" x="0" y="0" dx="0em" dy="0.95em" fill="rgb(33, 33, 33)" stroke="none" stroke-width="1px">-1k</text><text style="text-anchor: middle; visibility: inherit; font-family: Roboto, sans-serif; font-size: 12px; font-weight: 200;" x="22.34041651089986" y="0" dx="0em" dy="0.95em" fill="rgb(33, 33, 33)" stroke="none" stroke-width="1px">0</text><text style="text-anchor: middle; visibility: inherit; font-family: Roboto, sans-serif; font-size: 12px; font-weight: 200;" x="44.68083302179972" y="0" dx="0em" dy="0.95em" fill="rgb(33, 33, 33)" stroke="none" stroke-width="1px">1k</text><text style="text-anchor: middle; visibility: inherit; font-family: Roboto, sans-serif; font-size: 12px; font-weight: 200;" x="67.02124953269958" y="0" dx="0em" dy="0.95em" fill="rgb(33, 33, 33)" stroke="none" stroke-width="1px">2k</text><text style="text-anchor: middle; visibility: inherit; font-family: Roboto, sans-serif; font-size: 12px; font-weight: 200;" x="89.36166604359944" y="0" dx="0em" dy="0.95em" fill="rgb(33, 33, 33)" stroke="none" stroke-width="1px">3k</text><text style="text-anchor: middle; visibility: inherit; font-family: Roboto, sans-serif; font-size: 12px; font-weight: 200;" x="111.70208255449931" y="0" dx="0em" dy="0.95em" fill="rgb(33, 33, 33)" stroke="none" stroke-width="1px">4k</text><text style="text-anchor: middle; visibility: inherit; font-family: Roboto, sans-serif; font-size: 12px; font-weight: 200;" x="134.04249906539917" y="0" dx="0em" dy="0.95em" fill="rgb(33, 33, 33)" stroke="none" stroke-width="1px">5k</text><text style="text-anchor: middle; visibility: inherit; font-family: Roboto, sans-serif; font-size: 12px; font-weight: 200;" x="156.38291557629904" y="0" dx="0em" dy="0.95em" fill="rgb(33, 33, 33)" stroke="none" stroke-width="1px">6k</text><text style="text-anchor: middle; visibility: inherit; font-family: Roboto, sans-serif; font-size: 12px; font-weight: 200;" x="178.72333208719888" y="0" dx="0em" dy="0.95em" fill="rgb(33, 33, 33)" stroke="none" stroke-width="1px">7k</text><text style="text-anchor: middle; visibility: inherit; font-family: Roboto, sans-serif; font-size: 12px; font-weight: 200;" x="201.06374859809875" y="0" dx="0em" dy="0.95em" fill="rgb(33, 33, 33)" stroke="none" stroke-width="1px">8k</text><text style="text-anchor: middle; visibility: inherit; font-family: Roboto, sans-serif; font-size: 12px; font-weight: 200;" x="223.40416510899863" y="0" dx="0em" dy="0.95em" fill="rgb(33, 33, 33)" stroke="none" stroke-width="1px">9k</text><text style="text-anchor: middle; visibility: inherit; font-family: Roboto, sans-serif; font-size: 12px; font-weight: 200;" x="245.74458161989847" y="0" dx="0em" dy="0.95em" fill="rgb(33, 33, 33)" stroke="none" stroke-width="1px">10k</text><text style="text-anchor: middle; visibility: hidden; font-family: Roboto, sans-serif; font-size: 12px; font-weight: 200;" x="268.08499813079834" y="0" dx="0em" dy="0.95em" fill="rgb(33, 33, 33)" stroke="none" stroke-width="1px">11k</text></g><line x1="0" y1="0" x2="268.08499813079834" y2="0" fill="rgb(0, 0, 0)" stroke="rgb(204, 204, 204)" stroke-width="1px"></line></g></g></g></g></svg>