<svg viewBox="0 0 330 200" xmlns="http://www.w3.org/2000/svg"><g><g><g><g><g><line x1="51.53200149536133" y1="176.5999994277954" x2="46.53200149536133" y2="176.5999994277954" style="visibility: inherit;" fill="rgb(0, 0, 0)" stroke="rgb(204, 204, 204)" stroke-width="1px"></line><line x1="51.53200149536133" y1="160.54545402526855" x2="46.53200149536133" y2="160.54545402526855" style="visibility: inherit;" fill="rgb(0, 0, 0)" stroke="rgb(204, 204, 204)" stroke-width="1px"></line><line x1="51.53200149536133" y1="144.4909086227417" x2="46.53200149536133" y2="144.4909086227417" style="visibility: inherit;" fill="rgb(0, 0, 0)" stroke="rgb(204, 204, 204)" stroke-width="1px"></line><line x1="51.53200149536133" y1="128.43636322021484" x2="46.53200149536133" y2="128.43636322021484" style="visibility: inherit;" fill="rgb(0, 0, 0)" stroke="rgb(204, 204, 204)" stroke-width="1px"></line><line x1="51.53200149536133" y1="112.38181781768799" x2="46.53200149536133" y2="112.38181781768799" style="visibility: inherit;" fill="rgb(0, 0, 0)" stroke="rgb(204, 204, 204)" stroke-width="1px"></line><line x1="51.53200149536133" y1="96.32727241516112" x2="46.53200149536133" y2="96.32727241516112" style="visibility: inherit;" fill="rgb(0, 0, 0)" stroke="rgb(204, 204, 204)" stroke-width="1px"></line><line x1="51.53200149536133" y1="80.27272701263429" x2="46.53200149536133" y2="80.27272701263429" style="visibility: inherit;" fill="rgb(0, 0, 0)" stroke="rgb(204, 204, 204)" stroke-width="1px"></line><line x1="51.53200149536133" y1="64.21818161010742" x2="46.53200149536133" y2="64.21818161010742" style="visibility: inherit;" fill="rgb(0, 0, 0)" stroke="rgb(204, 204, 204)" stroke-width="1px"></line><line x1="51.53200149536133" y1="48.16363620758056" x2="46.53200149536133" y2="48.16363620758056" style="visibility: inherit;" fill="rgb(0, 0, 0)" stroke="rgb(204, 204, 204)" stroke-width="1px"></line><line x1="51.53200149536133" y1="32.109090805053704" x2="46.53200149536133" y2="32.109090805053704" style="visibility: inherit;" fill="rgb(0, 0, 0)" stroke="rgb(204, 204, 204)" stroke-width="1px"></line><line x1="51.53200149536133" y1="16.054545402526863" x2="46.53200149536133" y2="16.054545402526863" style="visibility: inherit;" fill="rgb(0, 0, 0)" stroke="rgb(204, 204, 204)" stroke-width="1px"></line><line x1="51.53200149536133" y1="0" x2="46.53200149536133" y2="0" style="visibility: inherit;" fill="rgb(0, 0, 0)" stroke="rgb(204, 204, 204)" stroke-width="1px"></line></g><g transform="translate(41.53200149536133, 0)"><text style="text-anchor: end; visibility: hidden; font-family: Roboto, sans-serif; font-size: 12px; font-weight: 200;" x="0" y="176.5999994277954" dx="0em" dy="0.3em" fill="rgb(33, 33, 33)" stroke="none" stroke-width="1px">-0.5</text><text style="text-anchor: end; visibility: inherit; font-family: Roboto, sans-serif; font-size: 12px; font-weight: 200;" x="0" y="160.54545402526855" dx="0em" dy="0.3em" fill="rgb(33, 33, 33)" stroke="none" stroke-width="1px">0</text><text style="text-anchor: end; visibility: hidden; font-family: Roboto, sans-serif; font-size: 12px; font-weight: 200;" x="0" y="144.4909086227417" dx="0em" dy="0.3em" fill="rgb(33, 33, 33)" stroke="none" stroke-width="1px">0.5</text><text style="text-anchor: end; visibility: inherit; font-family: Roboto, sans-serif; font-size: 12px; font-weight: 200;" x="0" y="128.43636322021484" dx="0em" dy="0.3em" fill="rgb(33, 33, 33)" stroke="none" stroke-width="1px">1</text><text style="text-anchor: end; visibility: hidden; font-family: Roboto, sans-serif; font-size: 12px; font-weight: 200;" x="0" y="112.38181781768799" dx="0em" dy="0.3em" fill="rgb(33, 33, 33)" stroke="none" stroke-width="1px">1.5</text><text style="text-anchor: end; visibility: inherit; font-family: Roboto, sans-serif; font-size: 12px; font-weight: 200;" x="0" y="96.32727241516112" dx="0em" dy="0.3em" fill="rgb(33, 33, 33)" stroke="none" stroke-width="1px">2</text><text style="text-anchor: end; visibility: hidden; font-family: Roboto, sans-serif; font-size: 12px; font-weight: 200;" x="0" y="80.27272701263429" dx="0em" dy="0.3em" fill="rgb(33, 33, 33)" stroke="none" stroke-width="1px">2.5</text><text style="text-anchor: end; visibility: inherit; font-family: Roboto, sans-serif; font-size: 12px; font-weight: 200;" x="0" y="64.21818161010742" dx="0em" dy="0.3em" fill="rgb(33, 33, 33)" stroke="none" stroke-width="1px">3</text><text style="text-anchor: end; visibility: hidden; font-family: Roboto, sans-serif; font-size: 12px; font-weight: 200;" x="0" y="48.16363620758056" dx="0em" dy="0.3em" fill="rgb(33, 33, 33)" stroke="none" stroke-width="1px">3.5</text><text style="text-anchor: end; visibility: inherit; font-family: Roboto, sans-serif; font-size: 12px; font-weight: 200;" x="0" y="32.109090805053704" dx="0em" dy="0.3em" fill="rgb(33, 33, 33)" stroke="none" stroke-width="1px">4</text><text style="text-anchor: end; visibility: hidden; font-family: Roboto, sans-serif; font-size: 12px; font-weight: 200;" x="0" y="16.054545402526863" dx="0em" dy="0.3em" fill="rgb(33, 33, 33)" stroke="none" stroke-width="1px">4.5</text><text style="text-anchor: end; visibility: hidden; font-family: Roboto, sans-serif; font-size: 12px; font-weight: 200;" x="0" y="0" dx="0em" dy="0.3em" fill="rgb(33, 33, 33)" stroke="none" stroke-width="1px">5</text></g><line x1="51.53200149536133" y1="0" x2="51.53200149536133" y2="176.5999994277954" fill="rgb(0, 0, 0)" stroke="rgb(204, 204, 204)" stroke-width="1px"></line></g></g><g transform="translate(51, 0)" clip-path="url(#clip_0)"><clipPath id="clip_0"><rect width="278" height="176"></rect></clipPath><g><g><g><line x1="0" y1="0" x2="0" y2="176.5999994277954" fill="rgb(0, 0, 0)" stroke="rgb(66, 66, 66)" stroke-width="1px" opacity="0.25"></line><line x1="23.205666542053223" y1="0" x2="23.205666542053223" y2="176.5999994277954" fill="rgb(0, 0, 0)" stroke="rgb(66, 66, 66)" stroke-width="1px" opacity="0.25"></line><line x1="46.411333084106445" y1="0" x2="46.411333084106445" y2="176.5999994277954" fill="rgb(0, 0, 0)" stroke="rgb(66, 66, 66)" stroke-width="1px" opacity="0.25"></line><line x1="69.61699962615967" y1="0" x2="69.61699962615967" y2="176.5999994277954" fill="rgb(0, 0, 0)" stroke="rgb(66, 66, 66)" stroke-width="1px" opacity="0.25"></line><line x1="92.82266616821289" y1="0" x2="92.82266616821289" y2="176.5999994277954" fill="rgb(0, 0, 0)" stroke="rgb(66, 66, 66)" stroke-width="1px" opacity="0.25"></line><line x1="116.02833271026611" y1="0" x2="116.02833271026611" y2="176.5999994277954" fill="rgb(0, 0, 0)" stroke="rgb(66, 66, 66)" stroke-width="1px" opacity="0.25"></line><line x1="139.23399925231934" y1="0" x2="139.23399925231934" y2="176.5999994277954" fill="rgb(0, 0, 0)" stroke="rgb(66, 66, 66)" stroke-width="1px" opacity="0.25"></line><line x1="162.43966579437256" y1="0" x2="162.43966579437256" y2="176.5999994277954" fill="rgb(0, 0, 0)" stroke="rgb(66, 66, 66)" stroke-width="1px" opacity="0.25"></line><line x1="185.64533233642578" y1="0" x2="185.64533233642578" y2="176.5999994277954" fill="rgb(0, 0, 0)" stroke="rgb(66, 66, 66)" stroke-width="1px" opacity="0.25"></line><line x1="208.850998878479" y1="0" x2="208.850998878479" y2="176.5999994277954" fill="rgb(0, 0, 0)" stroke="rgb(66, 66, 66)" stroke-width="1px" opacity="0.25"></line><line x1="232.05666542053223" y1="0" x2="232.05666542053223" y2="176.5999994277954" fill="rgb(0, 0, 0)" stroke="rgb(66, 66, 66)" stroke-width="1px" opacity="0.25"></line><line x1="255.26233196258545" y1="0" x2="255.26233196258545" y2="176.5999994277954" fill="rgb(0, 0, 0)" stroke="rgb(66, 66, 66)" stroke-width="1px" opacity="0.25"></line><line x1="278.4679985046387" y1="0" x2="278.4679985046387" y2="176.5999994277954" fill="rgb(0, 0, 0)" stroke="rgb(66, 66, 66)" stroke-width="1px" opacity="0.25"></line></g><g><line x1="0" y1="176.5999994277954" x2="278.4679985046387" y2="176.5999994277954" fill="rgb(0, 0, 0)" stroke="rgb(66, 66, 66)" stroke-width="1px" opacity="0.25"></line><line x1="0" y1="160.54545402526855" x2="278.4679985046387" y2="160.54545402526855" fill="rgb(0, 0, 0)" stroke="rgb(66, 66, 66)" stroke-width="1px" opacity="0.25"></line><line x1="0" y1="144.4909086227417" x2="278.4679985046387" y2="144.4909086227417" fill="rgb(0, 0, 0)" stroke="rgb(66, 66, 66)" stroke-width="1px" opacity="0.25"></line><line x1="0" y1="128.43636322021484" x2="278.4679985046387" y2="128.43636322021484" fill="rgb(0, 0, 0)" stroke="rgb(66, 66, 66)" stroke-width="1px" opacity="0.25"></line><line x1="0" y1="112.38181781768799" x2="278.4679985046387" y2="112.38181781768799" fill="rgb(0, 0, 0)" stroke="rgb(66, 66, 66)" stroke-width="1px" opacity="0.25"></line><line x1="0" y1="96.32727241516112" x2="278.4679985046387" y2="96.32727241516112" fill="rgb(0, 0, 0)" stroke="rgb(66, 66, 66)" stroke-width="1px" opacity="0.25"></line><line x1="0" y1="80.27272701263429" x2="278.4679985046387" y2="80.27272701263429" fill="rgb(0, 0, 0)" stroke="rgb(66, 66, 66)" stroke-width="1px" opacity="0.25"></line><line x1="0" y1="64.21818161010742" x2="278.4679985046387" y2="64.21818161010742" fill="rgb(0, 0, 0)" stroke="rgb(66, 66, 66)" stroke-width="1px" opacity="0.25"></line><line x1="0" y1="48.16363620758056" x2="278.4679985046387" y2="48.16363620758056" fill="rgb(0, 0, 0)" stroke="rgb(66, 66, 66)" stroke-width="1px" opacity="0.25"></line><line x1="0" y1="32.109090805053704" x2="278.4679985046387" y2="32.109090805053704" fill="rgb(0, 0, 0)" stroke="rgb(66, 66, 66)" stroke-width="1px" opacity="0.25"></line><line x1="0" y1="16.054545402526863" x2="278.4679985046387" y2="16.054545402526863" fill="rgb(0, 0, 0)" stroke="rgb(66, 66, 66)" stroke-width="1px" opacity="0.25"></line><line x1="0" y1="0" x2="278.4679985046387" y2="0" fill="rgb(0, 0, 0)" stroke="rgb(66, 66, 66)" stroke-width="1px" opacity="0.25"></line></g></g></g><g><g><line x1="0" y1="160.54545402526855" x2="278.4679985046387" y2="160.54545402526855" fill="rgb(0, 0, 0)" stroke="rgb(153, 153, 153)" stroke-width="1.5px"></line></g></g><g><g><line x1="23.205666542053223" y1="0" x2="23.205666542053223" y2="176.5999994277954" fill="rgb(0, 0, 0)" stroke="rgb(153, 153, 153)" stroke-width="1.5px"></line></g></g><g><g><g><g><g><path style="fill: none;" stroke="rgb(255, 112, 67)" stroke-width="2px" d="M32.557550158500675,-2.9105774758442227L33.27692582130432,0.76217623854784L33.39295415401459,4.169919370196226L33.67142215251923,2.752803893350243L34.01950715065003,3.4578186939979956L34.06591848373413,2.827248032032994L34.15874114990234,3.8536783577910323L34.181946816444395,0.5562411110676357L34.43720914840698,2.591415113947093L34.48362048149109,5.167121783994623L34.99414514541626,9.873284412151207L35.202996144294744,8.031129731357497L35.2726131439209,6.87566646850764L35.6671094751358,15.514093026047206L35.71352080821991,15.429251250341531L36.03840013980866,16.18107345504542L36.13122280597687,17.485064502376996L36.27045680522919,16.210470501075893L36.57213047027588,11.532418658428773L36.89700980186463,12.588712540324705L37.08265513420105,14.928284318480786L37.314711799621584,13.622822848697773L37.523562798500066,12.689034603679348L37.82523646354675,14.687454830196037L38.17332146167755,28.353864880255923L38.33576112747192,26.645046169669627L39.147959456443786,32.342595830626024L39.519250121116634,34.230926768521535L39.751306786537164,36.8690389627457L39.84412945270539,41.587559678211264L40.099391784667965,36.39139940622712L40.28503711700439,34.628305511374855L40.447476782798766,37.10746620845771L41.213263778686525,41.83095693440421L41.25967511177063,45.517949094481374L41.32929211139679,42.788354633812375L41.352497777938844,42.00349568192019L42.118284773826595,42.786841670357326L42.373547105789186,45.46434925626701L42.39675277233124,46.89525721747272L42.58239810466767,46.59988154338953L43.02330576896667,46.24705954859946L43.06971710205078,42.57360499930557L43.232156767845154,48.773083378864385L43.27856810092926,52.44259995221677L43.39459643363952,46.74246333092202L43.44100776672363,39.73519386976808L43.78909276485443,33.27316174584539L44.23000042915344,37.774408353435476L44.578085427284236,39.1707245040342L44.81014209270478,44.29808804413106L44.92617042541504,50.63558570307748L45.04219875812531,46.71183432347927L45.08861009120941,44.65860622201775L45.32066675662995,42.57377163663159L45.99363108634948,48.04571177270802L46.063248085975644,48.2433929098057L46.086453752517706,57.64353565290019L46.411333084106445,61.32697357782392L46.4809500837326,63.41161019682091L46.550567083358764,66.74446602510928L46.64338974952698,66.71227611957501L46.96826908111572,61.50032014762468L47.01468041419983,63.21459541240399L47.06109174728394,58.95017763387599L47.43238241195679,61.00720876998567L47.54841074466706,60.38512063948429L47.66443907737732,61.74274843739341L47.78046741008759,54.10360355262085L47.942907075881955,61.31017340173794L48.198169407844546,65.35817781210228L48.3141977405548,68.48936681968142L48.430226073265075,69.6406086356769L48.824722404479985,74.94703552850066L48.84792807102203,73.56538031535136L49.54409806728363,75.9723814951586L49.63692073345184,76.11215038908765L50.12423973083496,81.08763102777745L50.24026806354523,79.9840273787853L50.28667939662934,73.77802998007994L50.402707729339596,70.40562472153701L50.495530395507814,72.04462473636268L51.14528905868531,72.77717247334358L51.307728724479674,71.46073521213076L51.748636388778685,68.11217968187536L52.25916105270386,79.14736450327518L52.49121771812439,73.6021402082627L52.5840403842926,73.71168175648361L52.70006871700287,72.94959418809836L52.908919715881346,70.58586438051717L52.9321253824234,73.20634807379159L53.25700471401215,69.15954739887187L53.83714637756348,78.84763172738951L54.881401371955874,78.48951643540383L55.53116003513336,90.00199097221446L56.38976969718934,80.99289904132696L56.45938669681549,76.61593819764383L56.48259236335755,88.06257414583641L56.761060361862185,83.36626597949432L57.55005302429199,79.49490153764823L57.78210968971252,87.39431295305573L58.246223020553586,92.8990592316394L58.339045686721796,86.59426498446496L58.733542017936706,84.66769524832743L59.360095014572146,85.59382726353512L59.87061967849731,94.61577064977352L60.5203783416748,98.9126440714971L60.58999534130096,100.19887892417168L60.65961234092712,96.91935564435754L60.8220520067215,102.71551949222226L61.14693133831024,90.10104455762708L61.1701370048523,91.26201865949396L61.54142766952515,97.32684173958398L62.051952333450316,92.737781068843L62.191186332702635,93.2705094284781L62.446448664665226,91.93452144962359L62.84094499588012,99.42359624908453L63.07300166130066,93.41887354914L63.11941299438476,94.69511661790997L63.25864699363708,99.01042210676187L63.49070365905762,100.93484687949964L63.537114992141724,102.89222901326865L63.58352632522583,108.18063555292755L64.11725665569305,101.63315394003672L64.16366798877716,105.56888369682122L64.37251898765564,107.06488121278697L64.7438096523285,111.24864448444615L64.95266065120697,108.4784621236418L65.32395131587982,104.45834135116304L65.34715698242188,106.33584273741343L65.55600798130035,105.81926118812382L65.57921364784241,100.96888613689792L65.85768164634705,104.11674347289713L65.8808873128891,105.61663685302919L66.11294397830963,98.56455586141935L66.50744030952454,100.67986974588985L67.38925563812256,93.97195582969162L67.45887263774871,98.78975006495817L67.59810663700104,103.36113682794513L67.64451797008515,102.27847173904146L68.01580863475799,100.42478178050976L68.22465963363648,105.48353369448698L68.29427663326263,106.38654053160022L68.50312763214112,109.38669689863008L68.61915596485139,110.50948958467892L68.99044662952423,105.463733396658L69.73302795886994,99.75216037436051L70.10431862354278,107.13694948049617L70.15072995662689,112.47089112306972L70.197141289711,117.22654019448365L70.26675828933716,113.74590977149133L70.63804895401,111.99618208478046L71.07895661830902,108.26222616326902L71.12536795139313,103.91469352628049L71.21819061756133,112.55689833945188L71.58948128223419,110.31699397868607L71.77512661457061,115.78369054470475L71.89115494728088,114.7615920209826L72.10000594615937,109.8336738298202L72.16962294578552,112.60889732836871L72.61053061008452,111.22617632373684L72.70335327625274,117.55837608411618L72.79617594242096,110.16968461295787L72.84258727550507,114.96783333671586L72.86579294204712,114.2469924689978L73.00502694129943,114.15313851545153L73.23708360671998,116.58026363527713L73.93325360298157,117.68534552649223L74.07248760223389,110.69740036782957L74.9078915977478,107.9094059953531L75.11674259662628,111.93095594432596L75.23277092933655,115.17169841102744L75.32559359550477,119.0226211575984L75.39521059513092,117.2819106141221L75.67367859363556,125.02358511184106L75.69688426017761,125.0466367004481L75.72008992671965,126.83524747740726L75.78970692634583,125.080054577747L75.85932392597198,126.1340979220325L76.02176359176636,123.90680802877868L76.53228825569153,122.23178352574183L76.6483165884018,121.32710973268553L76.76434492111206,120.18226000425699L76.90357892036438,122.27981038545062L76.97319591999053,119.6877582402795L77.04281291961671,124.62960079576192L77.62295458316802,116.61991943279276L77.66936591625213,114.44805947011334L77.71577724933624,113.29545485565438L78.08706791400908,111.90150572561842L78.20309624671935,120.0331049685396L78.22630191326141,120.45943668781025L78.38874157905578,127.25620870954276L78.94567757606505,123.58920802722264L78.99208890914917,121.90325477525526L79.24735124111176,114.63291863980851L79.38658524036408,114.66063171704388L79.59543623924255,117.8881686438905L79.96672690391541,112.46217661930838L80.08275523662567,118.95846347523462L80.43084023475647,114.83523419432478L80.45404590129851,116.5254443395593L81.12701023101806,115.04359032115092L81.21983289718628,114.88194949865787L81.26624423027039,124.12294082717867L81.47509522914886,120.3170171886788L81.61432922840117,119.42569311470427L81.70715189456939,118.58987594402218L81.82318022727966,109.68483453247777L81.93920855998994,113.07146874817508L82.1016482257843,123.43801601195216L82.65858422279358,125.2617583049171L82.68178988933563,123.37086164491373L82.70499555587769,124.75738898165223L82.84422955513,122.61670596150871L83.21552021980285,125.82882312348973L83.33154855251313,123.94941019437606L83.35475421905518,125.96995844943461L83.42437121868133,127.10703172089539L83.63322221755982,119.88742911846568L83.95810154914855,122.90563912410218L84.07412988185882,124.8294486498456L84.14374688148497,121.12974290374642L84.30618654727937,117.64311548291877L84.32939221382141,126.33151541594705L84.39900921344757,130.1084261190536L84.81671121120452,128.23551005432859L85.58249820709229,129.7707944977871L85.60570387363434,132.73013987316736L85.74493787288667,127.07424854292897L85.93058320522309,124.85971942278401L86.0698172044754,128.2658385830829L86.44110786914825,134.02839501039443L86.48751920223236,129.68442321024094L86.6731645345688,129.93775602997394L87.206894865036,132.13420173791678L87.5085685300827,133.50851092386324L87.62459686279297,128.0053478763883L87.64780252933501,131.25069434487133L87.99588752746583,127.93000451575702L89.10975952148438,125.04706505299201L89.27219918727874,125.31157693705316L89.2954048538208,128.6498366140059L89.31861052036285,133.73827536472567L89.34181618690492,133.25432158116334L89.36502185344696,137.32250753554007L89.45784451961516,129.34050721011937L89.66669551849365,130.5215910864316L89.68990118503571,134.2028408344056L89.71310685157776,130.17791172611507L89.82913518428802,130.4408022638279L90.06119184970856,131.3009229478161L90.17722018241882,129.65339451294665L90.45568818092346,133.46242715238944L90.47889384746551,133.9605242986644L90.96621284484863,132.79816810252754L91.01262417793274,134.24554130971427L92.12649617195129,129.2377507644295L92.40496417045593,128.15209631740447L92.66022650241851,133.25149198282895L93.00831150054933,137.3772515377202L93.03151716709137,139.52032801036825L93.17075116634369,138.492061685546L93.28677949905396,134.38198400424346L93.54204183101653,135.60973709940268L93.72768716335297,137.72607645202788L94.21500616073608,142.09390562174684L94.23821182727814,138.9826287103323L94.53988549232484,140.84729010821152L94.86476482391357,137.19362247376603L94.91117615699768,136.58179120615998L95.07361582279205,134.6343231325351L95.16643848896027,133.7041519466789L95.18964415550232,135.19049525126823L95.25926115512848,134.0880256723017L95.46811215400696,126.50929252687995L95.86260848522187,126.72824580600202L95.95543115139009,127.72505811158027L96.51236714839936,126.36649777399425L96.74442381381988,127.2571570204611L97.06930314540864,129.82345597084853L97.11571447849273,130.88034471764558L97.13892014503479,134.44317824032544L97.27815414428711,138.30548772334538L97.95111847400665,133.39205667522242L97.9743241405487,137.8065122270387L98.50805447101594,137.85259323701567L98.57767147064209,137.29701031080072L98.60087713718416,139.47218327421658L98.69369980335236,142.43604770030058L99.04178480148316,141.213546053174L99.13460746765136,137.55761609709432L99.15781313419342,134.05962630949122L99.27384146690368,135.57937645929576L99.45948679924012,139.27568676742922L99.78436613082886,135.01521303011782L99.97001146316528,136.81121570544724L100.20206812858582,133.43618948416284L100.4573304605484,135.3558257272474L101.36235145568847,140.33310461979403L101.6408194541931,144.13787749244298L102.22096111774444,141.52598626030104L102.29057811737061,139.33799214802752L102.31378378391265,139.93167294721346L102.47622344970704,136.19898939451897L102.49942911624908,139.90771376067445L102.61545744895935,142.22388232893672L102.68507444858551,142.71051529100197L102.75469144821167,143.29097518094275L103.05636511325835,139.50645993511614L103.0795707798004,140.69124083324215L103.2420104455948,135.38792615296805L103.2884217786789,131.22761348433713L103.42765577793122,136.21936619980585L103.49727277755737,134.14720193641458L103.52047844409944,127.37261078266545L103.54368411064148,133.3858461145803L103.61330111026764,135.5890145910081L104.30947110652923,138.8299355570106L104.93602410316468,142.55240361380595L104.98243543624878,138.9567047792704L105.23769776821136,142.1706597509179L105.33052043437957,135.41013716546857L105.516165766716,140.33119929533848L105.79463376522065,139.42384723917633L106.00348476409911,138.0516235081612L106.18913009643555,139.89359465864356L106.32836409568787,137.97600747236345L106.46759809494019,135.76560431175668L106.60683209419251,137.8509533134296L106.69965476036072,139.81082038259174L106.76927175998688,139.31857301585774L106.9549170923233,141.64463083732366L107.32620775699615,138.90747435041212L108.25443441867827,141.04050715057815L108.27764008522033,140.14418337181965L108.32405141830445,139.75062916091537L108.41687408447265,138.66159890986356L108.69534208297729,141.20968287954105L108.78816474914551,135.63627831276878L108.8345760822296,139.44779662906603L108.85778174877167,139.78433120470925L108.88098741531373,139.10826899839452L109.32189507961273,138.35770980072326L109.5307460784912,133.69932742075505L109.85562541007997,138.10375819671978L109.878831076622,139.8558910970022L110.22691607475281,141.40260407420277L110.41256140708924,141.38993584084378L110.52858973979949,143.14770776442657L110.64461807250976,142.19868839665932L110.73744073867798,144.17229168253203L110.80705773830412,140.33000125556921L111.06232007026672,143.45557868634006L111.15514273643494,142.36459702941383L111.64246173381805,145.18744765467258L111.82810706615449,144.86493289431522L112.12978073120118,145.09787290035538L112.24580906391144,143.9018485560349L112.7563337278366,141.68539162475352L112.84915639400482,143.5758335066869L113.08121305942537,144.3745837221613L113.17403572559355,145.4339297302482L113.49891505718232,145.45494926890984L113.82379438877106,144.1913500587419L114.00943972110748,140.165839690955L114.1022623872757,142.88986939113082L114.31111338615416,144.0884313887849L114.38073038578034,145.45664884095606L114.93766638278962,145.43095289454737L115.49460237979889,143.29896928242374L115.51780804634095,146.8957201504873L115.77307037830353,148.46740348572533L116.23718370914459,149.00591419840603L116.44603470802308,148.51688639569133L116.49244604110717,146.3734342086932L116.97976503849029,144.37870522833592L117.02617637157441,143.94069596266286L117.39746703624725,142.8375352923455L117.46708403587341,138.64489316295874L118.02402003288269,141.2623724993768L118.69698436260224,144.96510441250072L119.23071469306944,147.17420094677934L119.67162235736848,149.99379771193716L119.78765069007873,144.97682532401893L119.99650168895721,148.807069781036L120.01970735549926,144.1330911227231L120.13573568820954,145.8283665552014L120.41420368671417,143.4809757176354L120.5998490190506,144.44623083808656L120.97113968372345,144.85292297341607L121.06396234989167,145.767968081985L121.43525301456451,143.7018602124179L121.62089834690094,144.58816849515287L121.69051534652709,148.64756353859124L121.89936634540557,143.7489072645546L122.085011677742,147.20958208735087L122.54912500858306,144.44767378647802L122.85079867362975,143.68105437125072L123.17567800521851,146.9148824260551L124.31275566577912,148.22491292575262L124.40557833194732,150.27303171864085L124.9625143289566,150.52514696060678L125.24098232746124,152.02945054742506L125.35701066017151,150.2087177225444L125.75150699138642,149.799850468583L126.006769323349,151.98779715377665L126.09959198951721,149.63185068814354L126.12279765605928,152.3306922414617L126.40126565456391,152.4778079026545L126.77255631923676,152.93608440044403L126.81896765232086,153.31452686128247L127.0974356508255,151.85461080916065L127.3991093158722,152.97293673960766L127.72398864746094,153.5122348551208L127.95604531288147,150.94474129061425L128.11848497867584,142.53716420825137L128.1416906452179,139.68757533808537L128.16489631175995,142.6185890464037L128.30413031101227,144.42423207237866L128.4433643102646,148.27012853242186L128.55939264297484,149.8094313257097L128.60580397605895,147.74787096590003L128.6754209756851,151.18619396782043L128.74503797531128,152.30849174929332L129.18594563961028,152.90975039000168L129.60364763736723,150.7870680824733L129.74288163661956,151.06874278382608L129.88211563587188,149.94272275087923L129.95173263549805,149.98203970606735L130.0213496351242,149.49765402855346L130.34622896671294,151.80334363635998L130.48546296596527,146.50154435452296L130.69431396484376,144.7126948945461L131.0656046295166,146.77190296409208L131.29766129493711,149.73830848202962L131.52971796035766,147.57036416353796L131.5529236268997,150.76298889311116L131.57612929344177,148.66806303362225L131.66895195960998,149.03224032517628L132.1562709569931,150.87344733405547L133.85028461456298,149.67189846446922L133.9895186138153,150.5376097625766L134.8481282758713,146.38177732363485L135.21941894054413,144.59693552842822L135.35865293979643,147.5553450689306L135.40506427288057,149.46522388938607L135.6835322713852,149.00256098800773L135.75314927101135,151.12373809736295L135.7763549375534,150.61539323238327L135.82276627063752,150.85285435141054L135.91558893680573,149.62818614089298L136.05482293605803,151.60102192455935L136.1708512687683,151.6166925036574L136.75099293231963,152.22500465031203L137.05266659736634,154.17036125136605L137.53998559474945,150.76265690295813L138.32897825717927,151.47270580487424L138.63065192222595,152.24208919320688L139.094765253067,153.11292199476694L139.37323325157163,150.91837800552926L139.55887858390807,152.71221978372623L139.7909352493286,153.23194637233414L139.88375791549683,152.54507671793937L139.90696358203886,151.56853731349491L140.1854315805435,151.2836363971256L140.4406939125061,153.5882942057601L140.46389957904813,155.11924851404027L140.4871052455902,153.8342406729096L140.6495449113846,154.04626330879606L141.11365824222565,154.68145274095477L141.1368639087677,149.29453197291636L141.5313602399826,150.27042637345878L141.55456590652466,153.53224318977183L141.94906223773958,155.12011009183556L141.99547357082366,154.92753282911423L142.20432456970215,155.2776310012227L142.64523223400116,155.0173418946481L142.69164356708526,154.67616488016643L142.80767189979554,153.9509402072549L143.15575689792632,153.86699858418822L143.48063622951508,155.18142675223297L143.7591042280197,155.17597942978048L143.78230989456176,155.15076146251653L143.80551556110382,155.15287677585226L143.89833822727203,155.390887795473L144.1768062257767,155.82687800004547L144.2232175588608,154.45322887524645L144.24642322540285,150.79440872773338L145.1514442205429,154.0692639936607L145.77799721717832,155.04801415925328L146.5901955461502,152.54351000726288L146.8454578781128,153.1354239865545L147.30957120895386,154.68760805917142L147.44880520820618,154.67430291631362L147.4720108747482,154.58636066892618L147.95932987213135,155.54170788825004L148.1913865375519,155.37019853759827L148.21459220409395,156.37261075033035L148.3306205368042,156.3328169578882L148.46985453605652,155.0390010558559L149.04999619960785,156.33224275793094L149.2820528650284,152.67123821968858L149.44449253082274,155.19732147220816L149.537315196991,155.75934083377L150.1638681936264,155.59955138697654L150.2102795267105,152.91206018468398L150.58157019138335,152.78586517440175L150.95286085605622,154.5735102005472L151.4633855199814,155.53086195382372L151.71864785194396,155.18966221330177L151.99711585044858,156.1811941406808L152.06673285007477,157.03402078917028L152.29878951549532,156.62148293892906L152.55405184745788,157.1508183583695L152.57725751399997,157.20267298447433L153.20381051063538,155.78041040973272L153.45907284259798,156.6845865949886L153.48227850914003,157.10166617018487L153.59830684185027,155.24318700452153L153.64471817493438,156.43985997348543L153.7375408411026,154.27541436789642L153.9928031730652,155.4680236299937L154.10883150577544,156.05189174449697L154.2248598384857,156.865505402891L154.54973917007447,154.87572349942218L154.781795835495,156.24917057771563L155.222703499794,156.4743290254959L155.50117149829865,156.86184419277802L155.5243771648407,154.86098415975866L155.71002249717714,155.50580016521795L155.82605082988738,154.89398416093397L155.84925649642943,154.7322798559936L155.94207916259768,154.1790197034849L156.05810749530792,155.0825110511585L156.19734149456022,154.359369713294L156.38298682689665,155.9550365730334L156.59183782577514,155.2027216731099L157.12556815624237,155.67321483244152L157.21839082241058,156.34198000945875L157.7057098197937,156.25486109878557L157.98417781829835,156.87910697320103L158.03058915138246,155.96725269093886L158.30905714988708,156.8139380574064L158.33226281642914,156.1586218662835L158.91240447998047,157.30347014378543L158.95881581306458,156.35043238264566L159.12125547885896,157.23041724966689L159.144461145401,154.4518616607068L159.46934047698974,154.49679506314715L159.56216314315796,155.36802978227354L159.72460280895234,154.13402079699821L160.21192180633545,155.81198808975861L160.39756713867186,155.98390074794946L160.65282947063446,156.72045032944803L161.16335413455963,156.91779911323056L161.5114391326904,157.34193458989583L161.55785046577455,157.4506079928447L161.766701464653,155.46195905831422L161.9755524635315,156.16192043720054L161.99875813007355,155.23905369644012L162.20760912895204,155.60564792457012L162.43966579437256,156.1242754476963L162.55569412708283,155.84046172912483L163.066218791008,154.56328784815932L163.507126455307,155.57411508342415L163.8088001203537,156.17982751123333L163.83200578689576,156.97127165687291L164.04085678577422,155.0363885071782L164.43535311698915,156.48314637524737L164.5513814496994,157.3225882588236L164.5977927827835,156.50143982792102L164.82984944820404,156.2423569475998L165.03870044708253,157.0636632531741L165.31716844558716,157.6936318727219L165.5956364440918,155.20327409777846L165.71166477680205,154.8567085768211L165.85089877605438,154.72716059921999L166.05974977493287,153.6899218725864L166.17577810764314,154.57426009479263L166.26860077381133,156.22546716155935L166.6863027715683,156.79797362953695L167.1272104358673,150.3951192225234L167.15041610240934,153.33739270690256L167.22003310203553,153.45340310969232L167.6841464328766,154.43705231715458L167.93940876483916,155.67632209521065L168.05543709754946,156.41126091519723L168.0786427640915,156.81224462635282L168.5195504283905,157.00971961881086L168.6355787611008,157.2356007431991L168.8676354265213,157.47538989334646L168.93725242614747,157.58241945599744L169.169309091568,157.72032504846294L169.44777709007263,157.3123386470095L169.5638054227829,154.7111032768408L169.74945075511934,154.6852643935163L169.84227342128753,155.70452668516884L169.88868475437164,156.7785929365027L170.0047130870819,157.18237128893503L170.3992094182968,155.37156923744436L170.72408874988557,155.70867464966466L170.909734082222,156.5490433636793L171.09537941455844,156.08121203841947L171.16499641418457,156.56718049930217L171.32743607997892,157.02416729262544L171.6987267446518,157.2419176074386L171.72193241119385,157.05665071638424L171.79154941082,156.98860581598692L172.0468117427826,157.38598643824912L172.58054207324983,157.8932970905648L172.74298173904418,157.57525628226637L172.78939307212832,157.2786034950734L173.11427240371705,157.7528277297353L173.2767120695114,157.5129242395612L173.3231234025955,157.57671918313594L173.36953473567965,155.72890062982373L174.06570473194122,156.6607359471908L174.18173306465147,156.7455695610227L174.413789730072,157.64309614703325L174.59943506240845,157.08570123571315L174.6690520620346,158.03335457240902L174.69225772857666,158.1562918351035L175.1099597263336,158.19477809198222L175.15637105941772,157.54684001873818L175.9221580553055,157.71465565310203L175.99177505493165,157.99094162406047L176.08459772109984,157.78670610556168L176.66473938465117,158.5488110096358L176.73435638427736,158.587464223323L177.08244138240815,158.47621501205614L177.2448810482025,157.990071843189L177.36090938091277,158.5195351757138L177.5001433801651,158.58557698996444L177.87143404483797,158.9703199307347L178.1499020433426,158.2716404407512L178.26593037605286,158.2420376815783L178.66042670726776,158.31050649454517L178.70683804035187,157.64136228746742L178.7996607065201,158.12217023834495L178.96210037231447,157.02038468312045L179.03171737194063,157.94634592651974L179.3333910369873,158.0296148793453L179.5422420358658,158.16345497946205L179.9367383670807,158.24924643298021L180.16879503250124,158.66720079609118L180.23841203212737,157.99961892474585L180.47046869754791,157.68451635705952L180.79534802913665,157.6506696596948L181.39869535923003,157.53472421260855L182.04845402240755,157.56784959317181L182.32692202091218,158.30069401309171L182.95347501754762,156.74965271339732L183.27835434913635,157.28808155097985L183.4407940149307,156.49954972360834L183.46399968147279,157.01964884129683L183.9513186788559,156.98835426472698L183.97452434539792,157.80209349620125L184.04414134502412,158.1413934986366L184.1833753442764,158.1968138769983L184.36902067661285,158.41506965455227L184.41543200969696,158.3461252169028L184.53146034240723,156.0431685403341L184.8331340074539,156.3609186766135L184.9027510070801,156.9983993677288L184.97236800670623,157.73835226987615L185.39007000446318,157.94950174629392L185.62212666988373,156.5624547538106L185.66853800296784,156.50786860125555L185.71494933605194,157.51968144824139L186.15585700035095,157.77204836567884L186.2254739999771,157.8160723872279L186.45753066539763,158.27363914251038L186.8752326631546,158.7747301537526L187.2233176612854,158.11744264712453L187.43216866016388,157.6470305482236L187.54819699287415,157.3663511155825L187.78025365829467,156.41011053951644L188.12833865642548,157.14942105467915L188.31398398876192,157.49266645501098L188.54604065418243,158.47782356484447L188.6620689868927,158.49666108543963L188.7084803199768,157.87377769786292L188.73168598651884,158.49052218270424L189.1029766511917,158.29027191167845L189.24221065044404,158.70318282688126L189.3582389831543,157.3517461425481L189.61350131511688,156.47973889066907L189.68311831474304,157.75150013209222L190.1008203125,157.50977594092615L190.33287697792053,156.93829256397188L190.47211097717286,157.73364472161128L190.51852231025697,158.32805106198L191.58598297119138,158.21865837978507L192.4213869667053,158.55164270880726L192.60703229904175,158.34340640768465L192.65344363212586,158.33605162947097L192.81588329792024,158.69811825354287L192.88550029754637,159.0564626309379L192.90870596408843,159.24324837678452L193.00152863025667,159.042930354424L193.02473429679873,158.92940280448042L193.95296095848084,158.36546108080827L193.99937229156492,158.38534444743289L194.2082232904434,158.52309256003977L194.23142895698547,157.87082266222941L194.34745728969574,158.52167352201292L194.8115706205368,158.12709481812567L194.92759895324707,158.74932064876296L194.9508046197891,158.70816196347417L195.34530095100402,159.20280934649884L195.62376894950867,158.75840770414132L195.83261994838716,159.1081185899542L196.08788228034976,157.86907727279834L196.27352761268614,157.81314449022045L197.06252027511596,157.94812619086628L197.10893160820007,158.28545487661637L197.2481656074524,158.70773978266647L197.6426619386673,158.90976440188902L197.6890732717514,159.03960222026961L198.22280360221862,158.79218087115888L198.71012259960176,158.6829237291791L199.0814132642746,158.82785017839444L199.63834926128388,158.8270077527536L199.75437759399415,158.91939602931242L199.9168172597885,157.4548210101159L199.9632285928726,158.14429465473836L200.14887392520905,157.98924970628073L200.2184909248352,158.3246313828351L200.49695892333983,158.97817839156352L200.75222125530243,158.8443007391299L200.77542692184448,158.57701081375845L200.84504392147062,158.86934681800628L200.89145525455476,157.1943209585108L201.0538949203491,157.80103128986403L201.07710058689116,158.44373868450597L201.12351191997527,159.17536287602942L201.63403658390044,159.3710302850202L201.79647624969482,158.80289850607338L201.9125045824051,158.05516841019397L202.02853291511536,158.68833077529754L202.07494424819947,158.52654406969435L202.09814991474153,158.51021512135492L202.46944057941437,157.66084655478747L202.56226324558259,157.65998517882355L202.6550859117508,157.82409015668907L202.8639369106293,157.78223265380623L203.09599357604978,158.16945657403593L203.4904899072647,158.4703833442754L203.72254657268525,158.9509822410293L204.04742590427398,159.39828001073994L204.8828298997879,159.27822960777374L205.20770923137664,159.36180616591597L205.346943230629,158.93925235091245L205.39335456371307,158.37058689531779L205.9734962272644,158.88894860994296L206.0199075603485,159.1105995168485L206.06631889343262,159.15618372249665L206.60004922389984,158.9170037069764L206.64646055698395,159.34771222634348L207.3658362197876,159.20712544294977L207.5050702190399,158.67398298019154L207.59789288520815,158.57986454725963L207.7139212179184,158.96826431347384L207.82994955062864,158.92379884739694L208.1084175491333,158.7665979950203L208.24765154838562,159.01641544412703L208.66535354614257,159.02872912071294L208.7117648792267,159.1619354192966L209.2454952096939,159.2908537828051L209.9880765390396,158.711677370509L210.4057785367966,158.7706305949678L210.42898420333864,159.01256369729762L210.47539553642272,158.33618236817563L210.56821820259094,157.50782427519644L210.591423869133,156.6408023183351L210.66104086875913,157.72369194442177L210.96271453380587,156.8926134024286L211.05553719997405,157.88300968505004L211.79811852931974,157.08854495557136L212.49428852558137,158.1138440959721L213.0280188560486,158.28454471091408L213.23686985492708,158.61116429790283L213.32969252109527,158.5805850920233L213.39930952072143,159.09529864631386L213.8170115184784,158.04952451055001L213.9098341846466,158.61047266728656L214.04906818389895,158.98996081722635L214.23471351623536,158.96817328363775L214.25791918277739,159.03388405513275L214.39715318202974,159.24165590988486L214.44356451511382,159.2065966777281L214.93088351249696,158.0316406876274L215.20935151100159,158.69322404048862L215.5574365091324,157.12000382598947L215.60384784221648,157.51029221853517L215.67346484184264,157.75857569435777L215.9055215072632,158.40376293023218L216.1839895057678,158.41459686388507L216.46245750427246,158.39757982358483L216.62489717006684,159.06202502601846L216.694514169693,158.93419634396435L217.22824450016023,158.6897416778891L217.55312383174896,158.7849061466365L217.59953516483307,158.9846770575363L217.76197483062745,159.20605638286656L218.3885278272629,159.3110550541492L218.41173349380492,159.47615897072149L218.57417315959933,159.66458744253438L218.64379015922546,159.45486820386967L219.0150808238983,159.29493642995746L219.15431482315066,158.68747390490952L219.3631658220291,158.57776822854387L219.4791941547394,158.91409237113743L219.5256054878235,158.70276452138438L219.85048481941223,158.794679636108L220.05933581829072,159.26549875863796L220.1521584844589,159.23893239402378L220.24498115062715,159.44581994491682L220.7555058145523,159.4556971047291L221.3588531446457,159.52002494517154L221.91578914165498,159.51785815525093L222.00861180782317,158.70128819757647L222.12464014053344,157.8664243490894L222.356696805954,158.38694513469895L222.379902472496,158.57304755675767L222.70478180408477,158.62513159541322L222.7511931371689,159.0432432566997L222.797604470253,158.78025505272174L222.82081013679505,159.33817501864095L222.86722146987915,159.46362213381389L223.4937744665146,159.1355669844801L224.28276712894439,158.999879136159L224.4452067947388,159.08112844723587L224.49161812782287,159.18553588171304L224.77008612632753,159.391440507063L225.1181711244583,159.47519967977402L225.23419945716856,159.36240120665624L225.9303694534302,159.62710138307224L226.02319211959838,159.2070014801442L226.11601478576662,159.36727996034682L226.13922045230868,158.61407693403297L226.44089411735536,158.3291286617377L226.8121847820282,158.33218846200123L226.83539044857025,157.63712537424692L227.25309244632723,158.22937595937526L227.53156044483185,158.83283488564268L227.71720577716826,159.06909214877103L227.87964544296264,159.0109486024662L227.97246810913086,158.06711494566815L228.1581134414673,158.1036441175338L229.31839676856995,157.85824716839434L229.52724776744844,158.08180001333426L229.80571576595307,158.69921430040844L230.26982909679413,159.2282093476364L230.3394460964203,159.42292393674L230.66432542800905,159.57640063930216L231.17485009193422,158.82969937662543L231.33728975772857,158.75952485359056L231.7781974220276,159.144652915374L232.05666542053223,159.36867453229647L232.14948808670044,157.18819138068912L232.5671900844574,158.30787711218449L232.68321841716767,158.99125127299027L232.75283541679383,159.19001112172077L233.0080977487564,158.44578647622842L233.95953007698057,158.60286496822724L234.05235274314882,158.68182575310675L234.07555840969087,158.47247060199697L234.77172840595244,158.92538556343388L235.2822530698776,159.35783677699123L235.51430973529816,158.2587856700388L235.5375154018402,158.59688474340226L235.56072106838226,159.06568679131718L235.81598340034483,159.0155686514666L235.885600399971,157.95935519275608L235.90880606651305,158.58145630380164L236.04804006576538,158.9484456636311L236.55856472969057,158.9471837582293L236.8834440612793,158.65833845896142L237.25473472595215,156.35905827492545L237.50999705791472,157.3457326106722L237.8812877225876,157.636322529148L238.04372738838197,157.04714487759378L238.06693305492402,158.00708510413847L238.50784071922303,158.3976537328535L238.55425205230713,158.07384860507278L238.60066338539124,158.75264902166924L239.20401071548463,159.06487977797198L239.29683338165282,159.19734429727237L239.43606738090514,159.39538990299965L239.62171271324158,159.4981470427665L239.64491837978363,159.70227757794055L239.7145353794098,158.33845618795166L240.03941471099853,158.52945179173926L240.52673370838167,157.40429019140947L240.96764137268065,157.33123868380633L240.9908470392227,156.98324939954816L241.08366970539095,157.8327388511325L241.50137170314787,158.79308470901069L241.71022270202636,158.77244019708482L242.0815133666992,159.06656360967483L242.22074736595155,158.91379405034107L242.42959836483004,159.230747148289L242.61524369716642,158.56037812738865L243.10256269454956,158.94246202125603L243.38103069305419,158.21416220087792L243.45064769268035,158.78705868144428L243.65949869155884,158.87034135933536L243.82193835735322,157.4912369295072L243.9379666900635,157.86159387000197L244.23964035511017,158.56885441944598L245.09825001716612,159.04847664026855L245.26068968296053,159.28196397329307L245.44633501529694,158.07372541156747L245.8176256799698,158.9236641941452L245.88724267959594,159.20746846229395L246.04968234539032,159.1574713719083L246.3049446773529,157.62275144286485L246.46738434314727,158.57802010968672L246.49059000968933,158.41567460939308L246.74585234165193,158.59263698162337L247.0011146736145,159.22031276087125L247.18676000595093,158.9162854625145L247.27958267211915,159.2122522051749L247.34919967174528,159.0200211280347L247.37240533828734,159.17866019748217L247.41881667137145,159.50999753575763L247.62766767024993,159.66999622791116L247.67407900333404,159.02304156599405L247.76690166950226,159.30570261787759L248.4398659992218,159.27755710653764L248.8575679969788,159.64302353606578L248.8807736635208,159.5493259889019L248.90397933006287,159.59050869430786L249.0432133293152,159.46255119269097L249.7857946586609,158.03313420675698L250.20349665641783,157.75793163404802L250.36593632221224,158.33635190264417L250.64440432071686,158.79315193276443L250.8300496530533,158.9225999378109L250.85325531959535,158.3739219744023L251.17813465118408,158.4068831639337L251.2709573173523,158.94482660182587L251.64224798202514,159.25916559605153L251.78148198127747,159.35350341228158L251.99033298015596,158.0476647001841L252.3616236448288,158.65482375535152L252.43124064445496,158.9332806766562L252.45444631099699,159.0317624113374L252.68650297641753,159.12769537958357L252.7561199760437,159.3453694622142L252.91855964183807,159.44579324782785L253.12741064071656,159.3800334482265L253.753963637352,159.71568010631282L253.93960896968844,159.73363237732715L253.98602030277252,158.7445222623516L254.35731096744536,158.69587597143055L254.51975063323977,159.19876938300902L255.053480963707,158.79282765348486L255.21592062950134,159.09937380894533L255.26233196258545,156.18155235566653" fill="none"></path></g></g></g></g><g opacity="0.2"><g><g><g><path style="fill: none;" stroke="rgb(255, 112, 67)" stroke-width="2px" d="M32.557550158500675,-0.7525568157434285L33.27692582130432,6.271306797862055L33.39295415401459,9.281534060835847L33.67142215251923,0.6271306797862035L34.01950715065003,4.515340894460669L34.06591848373413,1.8813920393586105L34.15874114990234,5.393323846161362L34.181946816444395,-4.389914758503444L34.43720914840698,5.644176118075851L34.48362048149109,9.030681788921358L34.99414514541626,16.932528354227532L35.202996144294744,5.267897710204117L35.2726131439209,5.142471574246892L35.6671094751358,28.471732862293727L35.71352080821991,15.301988586783413L36.03840013980866,17.30880676209927L36.13122280597687,19.441051073372368L36.27045680522919,14.298579499125475L36.57213047027588,4.515340894460669L36.89700980186463,14.17315336316823L37.08265513420105,18.43764198571443L37.314711799621584,11.664630644023417L37.523562798500066,11.288352236151702L37.82523646354675,17.685085169970982L38.17332146167755,48.853479955345385L38.33576112747192,24.08181810379028L39.147959456443786,40.88892032206059L39.519250121116634,37.063423175364726L39.751306786537164,40.82620725408197L39.84412945270539,48.66534075140952L40.099391784667965,28.597158998250972L40.28503711700439,31.983664669096477L40.447476782798766,40.82620725408197L41.213263778686525,48.91619302332401L41.25967511177063,51.04843733459711L41.32929211139679,38.69396294280887L41.352497777938844,40.82620725408197L42.118284773826595,43.961860653012984L42.373547105789186,49.48061063513159L42.39675277233124,49.041619159281254L42.58239810466767,46.15681803226471L43.02330576896667,45.71782655641437L43.06971710205078,37.063423175364726L43.232156767845154,58.07230094820262L43.27856810092926,57.94687481224537L43.39459643363952,38.19225839897991L43.44100776672363,29.224289678037174L43.78909276485443,23.580113559961323L44.23000042915344,44.52627826482057L44.578085427284236,41.2651987299323L44.81014209270478,51.989133354276426L44.92617042541504,60.141832191497095L45.04219875812531,40.82620725408197L45.08861009120941,41.57876406982542L45.32066675662995,39.44651975855232L45.99363108634948,56.25362197682261L46.063248085975644,48.5399146154523L46.086453752517706,71.74374976754189L46.411333084106445,66.85213046520948L46.4809500837326,66.5385651253164L46.550567083358764,71.74374976754189L46.64338974952698,66.66399126127361L46.96826908111572,53.682386189699166L47.01468041419983,65.78600830957295L47.06109174728394,52.55355096608401L47.43238241195679,64.09275547415018L47.54841074466706,59.45198844373227L47.66443907737732,63.779190134257085L47.78046741008759,42.64488622546195L47.942907075881955,72.1200281754136L48.198169407844546,71.43018442764877L48.3141977405548,73.18615033105016L48.430226073265075,71.36747135967018L48.824722404479985,82.90667586773634L48.84792807102203,71.49289749562739L49.54409806728363,79.58288326486947L49.63692073345184,76.32180372998117L50.12423973083496,88.5508519858122L50.24026806354523,78.32862190529703L50.28667939662934,64.46903388202192L50.402707729339596,65.34701683372259L50.495530395507814,74.50312475860119L51.14528905868531,73.87599407881498L51.307728724479674,69.48607932031155L51.748636388778685,63.08934638649226L52.25916105270386,95.70014173537494L52.49121771812439,65.28430376574396L52.5840403842926,73.87599407881498L52.70006871700287,71.8064628355205L52.908919715881346,67.04026966914535L52.9321253824234,77.13707361370325L53.25700471401215,63.08934638649226L53.83714637756348,93.37975822016598L54.881401371955874,77.95234349742532L55.53116003513336,107.27070277743042L56.38976969718934,67.47926114499569L56.45938669681549,70.05049693211912L56.48259236335755,105.23252806812526L56.761060361862185,76.32180372998117L57.55005302429199,73.68785487487912L57.78210968971252,99.243430076167L58.246223020553586,101.1561786495149L58.339045686721796,77.13707361370325L58.733542017936706,81.77784064412116L59.360095014572146,86.98302528634667L59.87061967849731,108.14868572913109L60.5203783416748,105.3579542040825L60.58999534130096,102.12823120318355L60.65961234092712,92.00007072463633L60.8220520067215,111.40976526401937L61.14693133831024,71.1793321557343L61.1701370048523,93.00347981229424L61.54142766952515,106.42407635971902L62.051952333450316,85.85419006273152L62.191186332702635,94.06960196793081L62.446448664665226,89.93053948134185L62.84094499588012,110.65720844827592L63.07300166130066,84.41178949922325L63.11941299438476,96.60948122106494L63.25864699363708,105.48338034003973L63.49070365905762,103.82148403860629L63.537114992141724,105.82830221392214L63.58352632522583,116.11324536241591L64.11725665569305,91.81193152070045L64.16366798877716,111.47247833199799L64.37251898765564,109.30887748673557L64.7438096523285,117.52428939193489L64.95266065120697,104.32318858243526L65.32395131587982,98.42816019244492L65.34715698242188,109.15209481678905L65.55600798130035,105.04438886418937L65.57921364784241,93.69332356005907L65.85768164634705,108.83852947689591L65.8808873128891,107.86647692322732L66.11294397830963,87.98643437400459L66.50744030952454,103.85284057259561L67.38925563812256,83.91008495539425L67.45887263774871,106.016441417858L67.59810663700104,110.21821697242557L67.64451797008515,100.65447410568595L68.01580863475799,97.64424684271218L68.22465963363648,113.07166156545281L68.29427663326263,107.74105078727007L68.50312763214112,113.88693144917488L68.61915596485139,112.19367861375211L68.99044662952423,97.89509911462665L69.73302795886994,91.18480084091425L70.10431862354278,118.21413313969971L70.15072995662689,120.47180358693002L70.197141289711,124.3600138016045L70.26675828933716,108.52496413700283L70.63804895401,109.37159055471422L71.07895661830902,102.6612922810018L71.12536795139313,97.39339457079768L71.21819061756133,125.52020555920897L71.58948128223419,106.95713743753733L71.77512661457061,123.9837353937328L71.89115494728088,113.22844423539935L72.10000594615937,102.44179654307663L72.16962294578552,116.77173257619141L72.61053061008452,109.15209481678905L72.70335327625274,127.05667572468519L72.79617594242096,99.08664740622042L72.84258727550507,122.16505642235279L72.86579294204712,113.16573116742076L73.00502694129943,114.01235758513211L73.23708360671998,120.22095131501554L73.93325360298157,119.34296836331487L74.07248760223389,100.21548262983559L74.9078915977478,103.72741443663837L75.11674259662628,117.96328086778522L75.23277092933655,120.03281211107969L75.32559359550477,124.79900527745485L75.39521059513092,114.67084479890765L75.67367859363556,136.63609685841948L75.69688426017761,125.08121408335865L75.72008992671965,129.51816364284605L75.78970692634583,122.44726522825658L75.85932392597198,127.7151629384607L76.02176359176636,120.56587318889795L76.53228825569153,119.7192467711866L76.6483165884018,119.97009904310107L76.76434492111206,118.4649854116142L76.90357892036438,125.42613595724106L76.97319591999053,115.79968002252282L77.04281291961671,132.04236462898552L77.62295458316802,104.60539738833903L77.66936591625213,111.1902695260942L77.71577724933624,111.56654793396594L78.08706791400908,109.81058203056455L78.20309624671935,132.23050383292139L78.22630191326141,121.09893426671626L78.38874157905578,137.45136674214154L78.94567757606505,118.08870700374246L78.99208890914917,119.37432489730419L79.24735124111176,103.72741443663837L79.38658524036408,114.70220133289693L79.59543623924255,122.72947403416038L79.96672690391541,104.32318858243526L80.08275523662567,128.70289375912398L80.43084023475647,108.65039027296007L80.45404590129851,119.06075955741107L81.12701023101806,112.82080929353835L81.21983289718628,114.63948826491833L81.26624423027039,137.98442781995982L81.47509522914886,114.608131730929L81.61432922840117,118.08870700374246L81.70715189456939,117.33615018799901L81.82318022727966,96.32727241516112L81.93920855998994,118.15142007172106L82.1016482257843,138.98783690761775L82.65858422279358,127.99737174436451L82.68178988933563,120.53451665490867L82.70499555587769,126.83717998676003L82.84422955513,119.40568143129349L83.21552021980285,130.64699886646122L83.33154855251313,121.13029080070555L83.35475421905518,129.00078083202243L83.42437121868133,128.8126416280866L83.63322221755982,109.0580252148211L83.95810154914855,127.43295413255693L84.07412988185882,127.7151629384607L84.14374688148497,115.58018428459765L84.30618654727937,112.41317435167728L84.32939221382141,139.36411531548947L84.39900921344757,135.77379217371345L84.81671121120452,125.42613595724106L85.58249820709229,132.07372116297483L85.60570387363434,137.16915793623775L85.74493787288667,118.59041154757142L85.93058320522309,121.53792574256659L86.0698172044754,133.3750173235312L86.44110786914825,142.6722296513617L86.48751920223236,123.16846551001073L86.6731645345688,130.31775525957346L87.206894865036,135.42887029983103L87.5085685300827,135.56997470278293L87.62459686279297,119.7506033051759L87.64780252933501,136.11871404759586L87.99588752746583,122.94896977208556L89.10975952148438,120.72265585884452L89.27219918727874,125.70834476314486L89.2954048538208,133.657226129435L89.31861052036285,141.37093349080533L89.34181618690492,132.52839090581983L89.36502185344696,143.42478646710515L89.45784451961516,117.3675067219883L89.66669551849365,132.29321690089998L89.68990118503571,139.72471545636654L89.71310685157776,124.14051806367932L89.82913518428802,130.83513807039708L90.06119184970856,132.59110397379845L90.17722018241882,127.18210186064245L90.45568818092346,139.1759761115536L90.47889384746551,134.7076700180769L90.96621284484863,131.05463380832228L91.01262417793274,136.4166011204943L92.12649617195129,121.72606494650243L92.40496417045593,126.52361464686692L92.66022650241851,140.90058548096567L93.00831150054933,143.56589087005705L93.03151716709137,142.73494271934032L93.17075116634369,136.94966219831258L93.28677949905396,128.21686748228967L93.54204183101653,137.45136674214154L93.72768716335297,140.90058548096567L94.21500616073608,148.6456493763253L94.23821182727814,134.31571334321052L94.53988549232484,143.64428220503032L94.86476482391357,131.71312102209777L94.91117615699768,135.66404430475086L95.07361582279205,131.71312102209777L95.16643848896027,132.30889516789466L95.18964415550232,137.42001020815223L95.25926115512848,132.43432130385193L95.46811215400696,115.14119280874729L95.86260848522187,127.05667572468519L95.95543115139009,129.2202765699476L96.51236714839936,124.32865726761521L96.74442381381988,128.5931458901614L97.06930314540864,133.67290439642966L97.11571447849273,132.4656778378412L97.13892014503479,139.78742852434516L97.27815414428711,144.09895194787532L97.95111847400665,126.02191010303795L97.9743241405487,144.42819555476308L98.50805447101594,137.9217147519812L98.57767147064209,136.46363592147827L98.60087713718416,142.73494271934032L98.69369980335236,146.8818443394266L99.04178480148316,139.37979358248413L99.13460746765136,132.07372116297483L99.15781313419342,128.8126416280866L99.27384146690368,137.85900168400258L99.45948679924012,144.82015222962946L99.78436613082886,128.6245024241507L99.97001146316528,139.50521971844137L100.20206812858582,128.37365015223622L100.4573304605484,138.2352800918743L101.36235145568847,147.79902295861393L101.6408194541931,149.84503680141643L102.22096111774444,137.6081494120881L102.29057811737061,136.05600097961724L102.31378378391265,140.8221941459924L102.47622344970704,130.59996406547725L102.49942911624908,145.47080030990764L102.61545744895935,145.69813518133014L102.68507444858551,143.4404647340998L102.75469144821167,144.16166501585394L103.05636511325835,133.8296870663762L103.0795707798004,142.4684121804312L103.2420104455948,127.43295413255693L103.2884217786789,124.98714448139071L103.42765577793122,143.70699527300894L103.49727277755737,131.0389555413276L103.52047844409944,117.21072405204177L103.54368411064148,142.40569911245257L103.61330111026764,138.89376730564982L104.30947110652923,143.6913170060143L104.93602410316468,148.13610569899902L104.98243543624878,133.56315652746707L105.23769776821136,146.9915922083892L105.33052043437957,125.2693532872945L105.516165766716,147.71279249014333L105.79463376522065,138.0628191549331L106.00348476409911,135.99328791163862L106.18913009643555,142.65655138436705L106.32836409568787,135.09962669294327L106.46759809494019,132.44999957084656L106.60683209419251,140.97897681593895L106.69965476036072,142.75062098633498L106.76927175998688,138.58020196575671L106.9549170923233,145.13371756952256L107.32620775699615,134.80173962004483L108.25443441867827,144.24005635082722L108.27764008522033,138.7996977036819L108.32405141830445,139.16029784455895L108.41687408447265,137.02805353328586L108.69534208297729,145.0318088340573L108.78816474914551,127.27617146261036L108.8345760822296,145.16507410351187L108.85778174877167,140.28913306817412L108.88098741531373,138.0941756889224L109.32189507961273,137.23187100421637L109.5307460784912,126.71175385080278L109.85562541007997,144.71040436066687L109.878831076622,142.48409044742584L110.22691607475281,143.7226735400036L110.41256140708924,141.37093349080533L110.52858973979949,145.78436564980075L110.64461807250976,140.77515934500843L110.73744073867798,147.1326966113411L110.80705773830412,134.566565615125L111.06232007026672,148.14394483249635L111.15514273643494,140.72812454402447L111.64246173381805,149.42172359256074L111.82810706615449,144.3811607537791L112.12978073120118,145.44728290941566L112.24580906391144,142.10781203955412L112.7563337278366,138.36070622783154L112.84915639400482,146.41149632958695L113.08121305942537,145.5727090453729L113.17403572559355,147.0229487423785L113.49891505718232,145.4864785769023L113.82379438877106,142.29595124348998L114.00943972110748,134.12757413927466L114.1022623872757,146.97591394139454L114.31111338615416,145.886274385266L114.38073038578034,147.5089750192128L114.93766638278962,145.39240897493437L115.49460237979889,140.10099386423826L115.51780804634095,152.29084645258263L115.77307037830353,150.82492848858237L116.23718370914459,149.81368026742712L116.44603470802308,147.78334469161928L116.49244604110717,143.158255928196L116.97976503849029,141.38661175779998L117.02617637157441,143.28368206415325L117.39746703624725,141.18279428686947L117.46708403587341,132.35592996887863L118.02402003288269,145.18859150400385L118.69698436260224,150.5192022821866L119.23071469306944,150.4878457481973L119.67162235736848,154.22319285967387L119.78765069007873,137.45136674214154L119.99650168895721,154.55243646656163L120.01970735549926,137.1221231352538L120.13573568820954,148.37127970391884L120.41420368671417,139.95988946128637L120.5998490190506,145.89411351876333L120.97113968372345,145.46296117641032L121.06396234989167,147.14053574483842L121.43525301456451,140.60269840806723L121.62089834690094,145.91763091925532L121.69051534652709,154.73665610374883L121.89936634540557,136.40092285349965L122.085011677742,152.4005943215452L122.54912500858306,140.30481133516878L122.85079867362975,142.5311252484098L123.17567800521851,151.76562450826168L124.31275566577912,150.18995867529884L124.40557833194732,153.34520990797319L124.9625143289566,150.90331982355565L125.24098232746124,154.2859059276525L125.35701066017151,147.4776184852235L125.75150699138642,149.1865495876409L126.006769323349,155.2697171815671L126.09959198951721,146.09793098969385L126.12279765605928,156.37895457143895L126.40126565456391,152.69848139444366L126.77255631923676,153.6234991471283L126.81896765232086,153.88219055254012L127.0974356508255,149.6647367309779L127.3991093158722,154.65042563527822L127.72398864746094,154.32118202839047L127.95604531288147,147.09350094385445L128.11848497867584,129.92579858470708L128.1416906452179,135.41319203283638L128.16489631175995,147.01510960888118L128.30413031101227,147.1326966113411L128.4433643102646,154.03897322248667L128.55939264297484,152.11838551564142L128.60580397605895,144.65553042618558L128.6754209756851,156.34367847070098L128.74503797531128,153.9919384215027L129.18594563961028,153.81163835106418L129.60364763736723,147.60304462118074L129.74288163661956,151.49125483585522L129.88211563587188,148.25369270145893L129.95173263549805,150.04101513884962L130.0213496351242,148.77107551228255L130.34622896671294,155.26187804806978L130.48546296596527,138.5488454317674L130.69431396484376,142.02942070458084L131.0656046295166,149.86071506841108L131.29766129493711,154.1879167589359L131.52971796035766,144.3184476858005L131.5529236268997,155.5519259874709L131.57612929344177,145.52567424438894L131.66895195960998,149.5785062625073L132.1562709569931,153.6352578473743L133.85028461456298,147.86957516008988L133.9895186138153,151.83617670973763L134.8481282758713,140.14802866522223L135.21941894054413,141.91967283561826L135.35865293979643,151.99295937968418L135.40506427288057,152.33004212006927L135.6835322713852,148.30856663594022L135.75314927101135,154.3055037613958L135.7763549375534,149.85287593491375L135.82276627063752,151.20904602995142L135.91558893680573,147.7911838251166L136.05482293605803,154.56027560005896L136.1708512687683,151.64019837230444L136.75099293231963,153.137472870294L137.05266659736634,157.0883961529471L137.53998559474945,145.65110038034618L138.32897825717927,152.53777915774845L138.63065192222595,153.39616427570581L139.094765253067,154.41917119710706L139.37323325157163,147.62656202167273L139.55887858390807,155.40298245102167L139.7909352493286,154.01153625524603L139.88375791549683,151.5147722363472L139.90696358203886,150.10372820682824L140.1854315805435,150.85628502257168L140.4406939125061,157.0452809187118L140.46389957904813,157.41567997646052L140.4871052455902,151.90672891121358L140.6495449113846,154.36429726262577L141.11365824222565,155.63423688919283L141.1368639087677,141.21415082085878L141.5313602399826,151.73426797427237L141.55456590652466,158.42496841424145L141.94906223773958,157.50191044493113L141.99547357082366,154.63866693503223L142.20432456970215,155.80277825938538L142.64523223400116,154.62690823478624L142.69164356708526,154.16439935844392L142.80767189979554,152.86310319788754L143.15575689792632,153.74108614958823L143.48063622951508,157.15306900430005L143.7591042280197,155.16780844610184L143.78230989456176,155.11293451162055L143.80551556110382,155.15604974585585L143.89833822727203,155.74790432490408L144.1768062257767,156.4808633069042L144.2232175588608,152.3927551880479L144.24642322540285,145.30617850646377L145.1514442205429,158.9815468925517L145.77799721717832,156.51613940764219L146.5901955461502,148.7867537792772L146.8454578781128,154.02329495549202L147.30957120895386,157.01588416809682L147.44880520820618,154.6543452020269L147.4720108747482,154.45444729784504L147.95932987213135,156.97472871723585L148.1913865375519,155.11293451162055L148.21459220409395,157.87622906942852L148.3306205368042,156.27312626922503L148.46985453605652,153.09827720280737L149.04999619960785,158.27210531104356L149.2820528650284,147.17973141232505L149.44449253082274,158.98644635098753L149.537315196991,156.6023698761128L150.1638681936264,155.35986721678637L150.2102795267105,148.88082338124514L150.58157019138335,152.5965726589784L150.95286085605622,157.2549777397653L151.4633855199814,156.96688958373852L151.71864785194396,154.67786260251887L151.99711585044858,157.66849203174934L152.06673285007477,158.31326076190453L152.29878951549532,156.00267616356723L152.55405184745788,157.94482148753013L152.57725751399997,157.28045492363162L153.20381051063538,153.6470165476203L153.45907284259798,158.0408508728724L153.48227850914003,157.7272855329793L153.59830684185027,152.4554682560265L153.64471817493438,158.23486942693125L153.7375408411026,151.0287459595129L153.9928031730652,157.25693752313964L154.10883150577544,156.92769391625188L154.2248598384857,158.08592589048203L154.54973917007447,151.89105064421892L154.781795835495,158.30934119515587L155.222703499794,156.8120666971663L155.50117149829865,157.44311694370117L155.5243771648407,151.8596941102296L155.71002249717714,156.47302417340688L155.82605082988738,153.97626015450805L155.84925649642943,154.489723398583L155.94207916259768,153.34912947472185L156.05810749530792,156.4377480726689L156.19734149456022,153.27465770649724L156.38298682689665,158.3485368626425L156.59183782577514,154.07424932322465L157.12556815624237,156.37895457143895L157.21839082241058,157.34512777498458L157.7057098197937,156.1241827327758L157.98417781829835,157.81547578482423L158.03058915138246,154.5994712675456L158.30905714988708,158.0839661071077L158.33226281642914,155.17564757959917L158.91240447998047,159.02074256003834L158.95881581306458,154.92087574093603L159.12125547885896,158.5503945501987L159.144461145401,150.28402827726677L159.46934047698974,154.56419516680762L159.56216314315796,156.67488186096307L159.72460280895234,152.2830073190853L160.21192180633545,158.32893902889919L160.39756713867186,156.24176973523572L160.65282947063446,157.8252747016959L161.16335413455963,157.21382228890434L161.5114391326904,157.97813780489378L161.55785046577455,157.61361809726804L161.766701464653,152.4789856565185L161.9755524635315,157.21186250553L161.99875813007355,153.85475358529948L162.20760912895204,156.15553926676512L162.43966579437256,156.90221673238557L162.55569412708283,155.41474115126766L163.066218791008,152.64752702671103L163.507126455307,157.09035593632143L163.8088001203537,157.0883961529471L163.83200578689576,158.1584378753323L164.04085678577422,152.13406378263608L164.43535311698915,158.6532831773511L164.5513814496994,158.581751084188L164.5977927827835,155.2697171815671L164.82984944820404,155.853732627118L165.03870044708253,158.29562271153554L165.31716844558716,158.63858480204362L165.5956364440918,151.46773743536323L165.71166477680205,154.33686029538512L165.85089877605438,154.5328386328183L166.05974977493287,152.13406378263608L166.17577810764314,155.90076742810197L166.26860077381133,158.7022777617094L166.6863027715683,157.65673333150335L167.1272104358673,140.7908376120031L167.15041610240934,157.75080293347128L167.22003310203553,153.62741871387698L167.6841464328766,155.91252612834796L167.93940876483916,157.53522676229477L168.05543709754946,157.51366914517712L168.0786427640915,157.4137201930862L168.5195504283905,157.30593210749794L168.6355787611008,157.5744224297814L168.8676354265213,157.83507361856755L168.93725242614747,157.74296379997395L169.169309091568,157.92718343716115L169.44777709007263,156.70035904482938L169.5638054227829,150.80925022158772L169.74945075511934,154.64650606852956L169.84227342128753,157.23342012264766L169.88868475437164,158.38969231350347L170.0047130870819,157.78803881758358L170.3992094182968,152.65536616020836L170.72408874988557,156.21433276799507L170.909734082222,157.80959643470123L171.09537941455844,155.3794650505297L171.16499641418457,157.29613319062628L171.32743607997892,157.7096474826103L171.6987267446518,157.5685430796584L171.72193241119385,156.77875037980266L171.79154941082,156.8865384653909L172.0468117427826,157.98205737164244L172.58054207324983,158.65426306903828L172.74298173904418,157.09819506981876L172.78939307212832,156.83362431428395L173.11427240371705,158.4641640817281L173.2767120695114,157.15306900430005L173.3231234025955,157.672411598498L173.36953473567965,152.95717279985547L174.06570473194122,158.05848892324138L174.18173306465147,156.8728199817706L174.413789730072,158.98938602604903L174.59943506240845,156.24960886873305L174.6690520620346,159.45483457745286L174.69225772857666,158.34069772914518L175.1099597263336,158.25250747730024L175.15637105941772,156.57493290887214L175.9221580553055,157.96637910464779L175.99177505493165,158.40537058049813L176.08459772109984,157.48035282781348L176.66473938465117,159.69196836574702L176.73435638427736,158.6454440438538L177.08244138240815,158.30934119515587L177.2448810482025,157.2608570898883L177.36090938091277,159.31373017450096L177.5001433801651,158.68463971134042L177.87143404483797,159.54743434189004L178.1499020433426,157.223621205776L178.26593037605286,158.19763354281895L178.66042670726776,158.41320971399546L178.70683804035187,156.63764597685076L178.7996607065201,158.8433821646613L178.96210037231447,155.3677063502837L179.03171737194063,159.3352877916186L179.3333910369873,158.15451830858365L179.5422420358658,158.36421512963716L179.9367383670807,158.37793361325748L180.16879503250124,159.29413234075764L180.23841203212737,156.99824611772783L180.47046869754791,157.21186250553L180.79534802913665,157.59989961364772L181.39869535923003,157.36080604197923L182.04845402240755,157.6175376640167L182.32692202091218,159.39996064297156L182.95347501754762,154.42309076385573L183.27835434913635,158.0957248073537L183.4407940149307,155.31675198255107L183.46399968147279,157.79979751782957L183.9513186788559,156.9414123998722L183.97452434539792,159.02270234341267L184.04414134502412,158.65034350228962L184.1833753442764,158.2799444445409L184.36902067661285,158.74245332088321L184.41543200969696,158.24270856042858L184.53146034240723,152.58873352548108L184.8331340074539,156.83754388103262L184.9027510070801,157.9546204044018L184.97236800670623,158.84828162309714L185.39007000446318,158.26622596092056L185.62212666988373,154.48188426508568L185.66853800296784,156.42598937242292L185.71494933605194,159.03740071872016L186.15585700035095,158.15059874183498L186.2254739999771,157.8821084195515L186.45753066539763,158.95998927543405L186.8752326631546,159.52636667061597L187.2233176612854,157.1315113871824L187.43216866016388,156.9414123998722L187.54819699287415,156.94533196662087L187.78025365829467,154.97574967541732L188.12833865642548,158.25838682742324L188.31398398876192,158.00753455550876L188.54604065418243,159.95555922959466L188.6620689868927,158.52491736633237L188.7084803199768,156.93945261649787L188.73168598651884,159.41563890996622L189.1029766511917,157.98989650513977L189.24221065044404,159.32254919968545L189.3582389831543,155.3245911160484L189.61350131511688,155.1717280128505L189.68311831474304,159.65914199422696L190.1008203125,157.14718965417705L190.33287697792053,156.0810674985405L190.47211097717286,158.9266729580704L190.51852231025697,159.21966057253303L191.58598297119138,158.05456935649272L192.4213869667053,159.0511192023405L192.60703229904175,158.03105195600074L192.65344363212586,158.32501946215052L192.81588329792024,159.24121818965068L192.88550029754637,159.59397919703042L192.90870596408843,159.52342699555447L193.00152863025667,158.74245332088321L193.02473429679873,158.75911147956504L193.95296095848084,157.5195484953001L193.99937229156492,158.4151694973698L194.2082232904434,158.72971472895006L194.23142895698547,156.8924178155139L194.34745728969574,159.49794981168816L194.8115706205368,157.53522676229477L194.92759895324707,159.68265939471894L194.9508046197891,158.64642393554095L195.34530095100402,159.94478042103583L195.62376894950867,158.09180524060503L195.83261994838716,159.63268491867348L196.08788228034976,156.01051529706456L196.27352761268614,157.72924531635363L197.06252027511596,158.15059874183498L197.10893160820007,158.7914479052415L197.2481656074524,159.3411671417416L197.6426619386673,159.21280133072287L197.6890732717514,159.23435894784052L198.22280360221862,158.42104884749278L198.71012259960176,158.51903801620938L199.0814132642746,159.0452398522175L199.63834926128388,158.82574411429232L199.75437759399415,159.05797844415065L199.9168172597885,155.2579584813211L199.9632285928726,159.17850512167206L200.14887392520905,157.75668228359427L200.2184909248352,158.82770389766665L200.49695892333983,159.95849890465615L200.75222125530243,158.64348426047945L200.77542692184448,158.1760759257013L200.84504392147062,159.30785082437797L200.89145525455476,154.68178216926754L201.0538949203491,158.7110967868939L201.07710058689116,159.4077997764689L201.12351191997527,160.27279916331463L201.63403658390044,159.66453139850637L201.79647624969482,157.95070083765313L201.9125045824051,156.93357326637488L202.02853291511536,159.6380743229529L202.07494424819947,158.28386401128955L202.09814991474153,158.48572169884574L202.46944057941437,156.38679370493628L202.56226324558259,157.65869311487768L202.6550859117508,158.07024762348738L202.8639369106293,157.71944639948197L203.09599357604978,158.75029245438054L203.4904899072647,158.92177349963458L203.72254657268525,159.6718805861601L204.04742590427398,160.0692266653059L204.8828298997879,159.09815400332445L205.20770923137664,159.48717100312933L205.346943230629,158.3054216284072L205.39335456371307,157.51758871192578L205.9734962272644,159.6664911818807L206.0199075603485,159.44307587720687L206.06631889343262,159.22456003096886L206.60004922389984,158.55823368369602L206.64646055698395,159.99377500539413L207.3658362197876,158.9962452678592L207.5050702190399,157.8742692860542L207.59789288520815,158.43868689786177L207.7139212179184,159.55086396279512L207.82994955062864,158.85710064828163L208.1084175491333,158.53079671645537L208.24765154838562,159.39114161778707L208.66535354614257,159.04719963559182L208.7117648792267,159.3617448671721L209.2454952096939,159.48423132806784L209.9880765390396,157.84291275206488L210.4057785367966,158.85906043165596L210.42898420333864,159.37546335079242L210.47539553642272,157.3216103744926L210.56821820259094,156.2652871357277L210.591423869133,155.34026938304305L210.66104086875913,159.34802638355177L210.96271453380587,155.64599558943883L211.05553719997405,159.36860410898225L211.79811852931974,155.8968478613533L212.49428852558137,159.6517928065732L213.0280188560486,158.54059563332703L213.23686985492708,159.10109367838595L213.32969252109527,158.53471628320403L213.39930952072143,159.86736897774972L213.8170115184784,156.4808633069042L213.9098341846466,159.45189490239136L214.04906818389895,159.55919304213603L214.23471351623536,158.9354919832549L214.25791918277739,159.13245021237526L214.39715318202974,159.55331369201303L214.44356451511382,159.1540078294929L214.93088351249696,156.26920670247637L215.20935151100159,159.68559906978044L215.5574365091324,154.7601735042408L215.60384784221648,158.0957248073537L215.67346484184264,158.13100090809166L215.9055215072632,159.37154378404375L216.1839895057678,158.43084776436444L216.46245750427246,158.3720542631345L216.62489717006684,160.05869282966887L216.694514169693,158.74245332088321L217.22824450016023,158.3230596787762L217.55312383174896,158.92765284975758L217.59953516483307,159.28433342388598L217.76197483062745,159.53812537086196L218.3885278272629,159.46855306107318L218.41173349380492,159.7238148455799L218.57417315959933,159.94723015025374L218.64379015922546,159.1402893458726L219.0150808238983,159.05503876908915L219.15431482315066,157.7762801173376L219.3631658220291,158.41320971399546L219.4791941547394,159.41857858502772L219.5256054878235,158.3857727467548L219.85048481941223,158.9325523081934L220.05933581829072,159.9717274424329L220.1521584844589,159.19908284710255L220.24498115062715,159.75615127125639L220.7555058145523,159.4705128444475L221.3588531446457,159.61651670583524L221.91578914165498,159.51460797036998L222.00861180782317,157.4764332610648L222.12464014053344,156.61412857635878L222.356696805954,159.16772631311323L222.379902472496,158.8522011898458L222.70478180408477,158.70325765339658L222.7511931371689,159.67041074862937L222.797604470253,158.3857727467548L222.82081013679505,160.17505496751983L222.86722146987915,159.6517928065732L223.4937744665146,158.64348426047945L224.28276712894439,158.79634736367734L224.4452067947388,159.2030024138512L224.49161812782287,159.34214703342877L224.77008612632753,159.70029744508793L225.1181711244583,159.60083843884058L225.23419945716856,159.19320349697955L225.9303694534302,160.02415164769627L226.02319211959838,158.57685162575217L226.11601478576662,159.60769768065074L226.13922045230868,157.48427239456214L226.44089411735536,157.90170625329483L226.8121847820282,158.3367781623965L226.83539044857025,156.59453074261546L227.25309244632723,159.11775183706777L227.53156044483185,159.73802327504382L227.71720577716826,159.42347804346355L227.87964544296264,158.92373328300891L227.97246810913086,156.6513644604711L228.1581134414673,158.1584378753323L229.31839676856995,157.49015174468514L229.52724776744844,158.41712928074412L229.80571576595307,159.62533573101973L230.26982909679413,160.02170191847836L230.3394460964203,159.71499582039542L230.66432542800905,159.80661569314543L231.17485009193422,157.7096474826103L231.33728975772857,158.65426306903828L231.7781974220276,159.72234500804916L232.05666542053223,159.70470695768017L232.14948808670044,153.9174666532781L232.5671900844574,159.98740570942755L232.68321841716767,160.01631251419894L232.75283541679383,159.4881508948165L233.0080977487564,157.32944950798992L233.95953007698057,158.83848270622548L234.05235274314882,158.800266930426L234.07555840969087,158.1584378753323L234.77172840595244,159.60475800558925L235.2822530698776,160.00651359732728L235.51430973529816,156.61020900961012L235.5375154018402,159.10403335344745L235.56072106838226,159.76888986318954L235.81598340034483,158.94039144169074L235.885600399971,156.3750350046903L235.90880606651305,159.51460797036998L236.04804006576538,159.49892970337532L236.55856472969057,158.94529090012657L236.8834440612793,158.2250705100596L237.25473472595215,152.9101379988715L237.50999705791472,158.82574411429232L237.8812877225876,158.0722074068617L238.04372738838197,156.16337840026245L238.06693305492402,159.44699544395553L238.50784071922303,158.98350667592604L238.55425205230713,157.58814091340173L238.60066338539124,159.77084964656387L239.20401071548463,159.53322591242613L239.29683338165282,159.3960410762229L239.43606738090514,159.6924583115906L239.62171271324158,159.6522827524168L239.64491837978363,160.00847338070162L239.7145353794098,156.29272410296835L240.03941471099853,158.81594519742066L240.52673370838167,155.71654779091477L240.96764137268065,157.22166142240167L240.9908470392227,156.4612654731609L241.08366970539095,159.10697302850895L241.50137170314787,160.233603495828L241.71022270202636,158.74147342919605L242.0815133666992,159.50774872855982L242.22074736595155,158.68463971134042L242.42959836483004,159.70617679521092L242.61524369716642,157.5548245960381L243.10256269454956,159.51558786205715L243.38103069305419,157.12171247031074L243.45064769268035,159.6464034022938L243.65949869155884,158.99526537617203L243.82193835735322,155.422580284765L243.9379666900635,158.41712928074412L244.23964035511017,159.62974524361198L245.09825001716612,159.76790997150238L245.26068968296053,159.6321949728299L245.44633501529694,156.26136756897904L245.8176256799698,160.1985723680118L245.88724267959594,159.63317486451706L246.04968234539032,159.0824757363298L246.3049446773529,155.32067154929973L246.46738434314727,160.01092310991953L246.49059000968933,158.17215635895263L246.74585234165193,158.8580805399688L247.0011146736145,160.1618264297431L247.18676000595093,158.46024451497942L247.27958267211915,159.65620231916546L247.34919967174528,158.7316745123244L247.37240533828734,159.41661880165339L247.41881667137145,160.00700354317087L247.62766767024993,159.90999426614144L247.67407900333404,158.0526095731184L247.76690166950226,159.7296941957029L248.4398659992218,159.23533883952769L248.8575679969788,160.19122318035807L248.8807736635208,159.40877966815606L248.90397933006287,159.6522827524168L249.0432133293152,159.27061494026566L249.7857946586609,155.88900872785598L250.20349665641783,157.34512777498458L250.36593632221224,159.20398230553837L250.64440432071686,159.47835197794484L250.8300496530533,159.1167719453806L250.85325531959535,157.55090502928942L251.17813465118408,158.45632494823076L251.2709573173523,159.75174175866414L251.64224798202514,159.73067408739007L251.78148198127747,159.49501013662666L251.99033298015596,156.08890663203783L252.3616236448288,159.5655623381026L252.43124064445496,159.35096605861327L252.45444631099699,159.17948501335923L252.68650297641753,159.27159483195283L252.7561199760437,159.6718805861601L252.91855964183807,159.59642892624834L253.12741064071656,159.28139374882448L253.753963637352,160.2191500934423L253.93960896968844,159.76056078384863L253.98602030277252,157.2608570898883L254.35731096744536,158.62290653504897L254.51975063323977,159.95310950037674L255.053480963707,158.18391505919863L255.21592062950134,159.55919304213603L255.26233196258545,151.80482017574832" fill="none"></path></g></g></g></g></g></g><g transform="translate(51, 176)" clip-path="url(#clip_1)"><clipPath id="clip_1"><rect width="278" height="23"></rect></clipPath><g><g><line x1="0" y1="0" x2="0" y2="5" style="visibility: inherit;" fill="rgb(0, 0, 0)" stroke="rgb(204, 204, 204)" stroke-width="1px"></line><line x1="23.205666542053223" y1="0" x2="23.205666542053223" y2="5" style="visibility: inherit;" fill="rgb(0, 0, 0)" stroke="rgb(204, 204, 204)" stroke-width="1px"></line><line x1="46.411333084106445" y1="0" x2="46.411333084106445" y2="5" style="visibility: inherit;" fill="rgb(0, 0, 0)" stroke="rgb(204, 204, 204)" stroke-width="1px"></line><line x1="69.61699962615967" y1="0" x2="69.61699962615967" y2="5" style="visibility: inherit;" fill="rgb(0, 0, 0)" stroke="rgb(204, 204, 204)" stroke-width="1px"></line><line x1="92.82266616821289" y1="0" x2="92.82266616821289" y2="5" style="visibility: inherit;" fill="rgb(0, 0, 0)" stroke="rgb(204, 204, 204)" stroke-width="1px"></line><line x1="116.02833271026611" y1="0" x2="116.02833271026611" y2="5" style="visibility: inherit;" fill="rgb(0, 0, 0)" stroke="rgb(204, 204, 204)" stroke-width="1px"></line><line x1="139.23399925231934" y1="0" x2="139.23399925231934" y2="5" style="visibility: inherit;" fill="rgb(0, 0, 0)" stroke="rgb(204, 204, 204)" stroke-width="1px"></line><line x1="162.43966579437256" y1="0" x2="162.43966579437256" y2="5" style="visibility: inherit;" fill="rgb(0, 0, 0)" stroke="rgb(204, 204, 204)" stroke-width="1px"></line><line x1="185.64533233642578" y1="0" x2="185.64533233642578" y2="5" style="visibility: inherit;" fill="rgb(0, 0, 0)" stroke="rgb(204, 204, 204)" stroke-width="1px"></line><line x1="208.850998878479" y1="0" x2="208.850998878479" y2="5" style="visibility: inherit;" fill="rgb(0, 0, 0)" stroke="rgb(204, 204, 204)" stroke-width="1px"></line><line x1="232.05666542053223" y1="0" x2="232.05666542053223" y2="5" style="visibility: inherit;" fill="rgb(0, 0, 0)" stroke="rgb(204, 204, 204)" stroke-width="1px"></line><line x1="255.26233196258545" y1="0" x2="255.26233196258545" y2="5" style="visibility: inherit;" fill="rgb(0, 0, 0)" stroke="rgb(204, 204, 204)" stroke-width="1px"></line><line x1="278.4679985046387" y1="0" x2="278.4679985046387" y2="5" style="visibility: inherit;" fill="rgb(0, 0, 0)" stroke="rgb(204, 204, 204)" stroke-width="1px"></line></g><g transform="translate(0, 8)"><text style="text-anchor: middle; visibility: hidden; font-family: Roboto, sans-serif; font-size: 12px; font-weight: 200;" x="0" y="0" dx="0em" dy="0.95em" fill="rgb(33, 33, 33)" stroke="none" stroke-width="1px">-1k</text><text style="text-anchor: middle; visibility: inherit; font-family: Roboto, sans-serif; font-size: 12px; font-weight: 200;" x="23.205666542053223" y="0" dx="0em" dy="0.95em" fill="rgb(33, 33, 33)" stroke="none" stroke-width="1px">0</text><text style="text-anchor: middle; visibility: inherit; font-family: Roboto, sans-serif; font-size: 12px; font-weight: 200;" x="46.411333084106445" y="0" dx="0em" dy="0.95em" fill="rgb(33, 33, 33)" stroke="none" stroke-width="1px">1k</text><text style="text-anchor: middle; visibility: inherit; font-family: Roboto, sans-serif; font-size: 12px; font-weight: 200;" x="69.61699962615967" y="0" dx="0em" dy="0.95em" fill="rgb(33, 33, 33)" stroke="none" stroke-width="1px">2k</text><text style="text-anchor: middle; visibility: inherit; font-family: Roboto, sans-serif; font-size: 12px; font-weight: 200;" x="92.82266616821289" y="0" dx="0em" dy="0.95em" fill="rgb(33, 33, 33)" stroke="none" stroke-width="1px">3k</text><text style="text-anchor: middle; visibility: inherit; font-family: Roboto, sans-serif; font-size: 12px; font-weight: 200;" x="116.02833271026611" y="0" dx="0em" dy="0.95em" fill="rgb(33, 33, 33)" stroke="none" stroke-width="1px">4k</text><text style="text-anchor: middle; visibility: inherit; font-family: Roboto, sans-serif; font-size: 12px; font-weight: 200;" x="139.23399925231934" y="0" dx="0em" dy="0.95em" fill="rgb(33, 33, 33)" stroke="none" stroke-width="1px">5k</text><text style="text-anchor: middle; visibility: inherit; font-family: Roboto, sans-serif; font-size: 12px; font-weight: 200;" x="162.43966579437256" y="0" dx="0em" dy="0.95em" fill="rgb(33, 33, 33)" stroke="none" stroke-width="1px">6k</text><text style="text-anchor: middle; visibility: inherit; font-family: Roboto, sans-serif; font-size: 12px; font-weight: 200;" x="185.64533233642578" y="0" dx="0em" dy="0.95em" fill="rgb(33, 33, 33)" stroke="none" stroke-width="1px">7k</text><text style="text-anchor: middle; visibility: inherit; font-family: Roboto, sans-serif; font-size: 12px; font-weight: 200;" x="208.850998878479" y="0" dx="0em" dy="0.95em" fill="rgb(33, 33, 33)" stroke="none" stroke-width="1px">8k</text><text style="text-anchor: middle; visibility: inherit; font-family: Roboto, sans-serif; font-size: 12px; font-weight: 200;" x="232.05666542053223" y="0" dx="0em" dy="0.95em" fill="rgb(33, 33, 33)" stroke="none" stroke-width="1px">9k</text><text style="text-anchor: middle; visibility: inherit; font-family: Roboto, sans-serif; font-size: 12px; font-weight: 200;" x="255.26233196258545" y="0" dx="0em" dy="0.95em" fill="rgb(33, 33, 33)" stroke="none" stroke-width="1px">10k</text><text style="text-anchor: middle; visibility: hidden; font-family: Roboto, sans-serif; font-size: 12px; font-weight: 200;" x="278.4679985046387" y="0" dx="0em" dy="0.95em" fill="rgb(33, 33, 33)" stroke="none" stroke-width="1px">11k</text></g><line x1="0" y1="0" x2="278.4679985046387" y2="0" fill="rgb(0, 0, 0)" stroke="rgb(204, 204, 204)" stroke-width="1px"></line></g></g></g></g></svg>