<svg viewBox="0 0 330 200" xmlns="http://www.w3.org/2000/svg"><g><g><g><g><g><line x1="61.91500186920166" y1="177.5999994277954" x2="56.91500186920166" y2="177.5999994277954" style="visibility: inherit;" fill="rgb(0, 0, 0)" stroke="rgb(204, 204, 204)" stroke-width="1px"></line><line x1="61.91500186920166" y1="155.39999949932098" x2="56.91500186920166" y2="155.39999949932098" style="visibility: inherit;" fill="rgb(0, 0, 0)" stroke="rgb(204, 204, 204)" stroke-width="1px"></line><line x1="61.91500186920166" y1="133.19999957084656" x2="56.91500186920166" y2="133.19999957084656" style="visibility: inherit;" fill="rgb(0, 0, 0)" stroke="rgb(204, 204, 204)" stroke-width="1px"></line><line x1="61.91500186920166" y1="110.99999964237212" x2="56.91500186920166" y2="110.99999964237212" style="visibility: inherit;" fill="rgb(0, 0, 0)" stroke="rgb(204, 204, 204)" stroke-width="1px"></line><line x1="61.91500186920166" y1="88.79999971389769" x2="56.91500186920166" y2="88.79999971389769" style="visibility: inherit;" fill="rgb(0, 0, 0)" stroke="rgb(204, 204, 204)" stroke-width="1px"></line><line x1="61.91500186920166" y1="66.59999978542326" x2="56.91500186920166" y2="66.59999978542326" style="visibility: inherit;" fill="rgb(0, 0, 0)" stroke="rgb(204, 204, 204)" stroke-width="1px"></line><line x1="61.91500186920166" y1="44.39999985694883" x2="56.91500186920166" y2="44.39999985694883" style="visibility: inherit;" fill="rgb(0, 0, 0)" stroke="rgb(204, 204, 204)" stroke-width="1px"></line><line x1="61.91500186920166" y1="22.199999928474387" x2="56.91500186920166" y2="22.199999928474387" style="visibility: inherit;" fill="rgb(0, 0, 0)" stroke="rgb(204, 204, 204)" stroke-width="1px"></line></g><g transform="translate(51.91500186920166, 0)"><text style="text-anchor: end; visibility: hidden; font-family: Roboto, sans-serif; font-size: 12px; font-weight: 200;" x="0" y="177.5999994277954" dx="0em" dy="0.3em" fill="rgb(50, 49, 63)" stroke="none" stroke-width="1px">-1e-5</text><text style="text-anchor: end; visibility: inherit; font-family: Roboto, sans-serif; font-size: 12px; font-weight: 200;" x="0" y="155.39999949932098" dx="0em" dy="0.3em" fill="rgb(50, 49, 63)" stroke="none" stroke-width="1px">0</text><text style="text-anchor: end; visibility: hidden; font-family: Roboto, sans-serif; font-size: 12px; font-weight: 200;" x="0" y="133.19999957084656" dx="0em" dy="0.3em" fill="rgb(50, 49, 63)" stroke="none" stroke-width="1px">1e-5</text><text style="text-anchor: end; visibility: inherit; font-family: Roboto, sans-serif; font-size: 12px; font-weight: 200;" x="0" y="110.99999964237212" dx="0em" dy="0.3em" fill="rgb(50, 49, 63)" stroke="none" stroke-width="1px">2e-5</text><text style="text-anchor: end; visibility: hidden; font-family: Roboto, sans-serif; font-size: 12px; font-weight: 200;" x="0" y="88.79999971389769" dx="0em" dy="0.3em" fill="rgb(50, 49, 63)" stroke="none" stroke-width="1px">3e-5</text><text style="text-anchor: end; visibility: inherit; font-family: Roboto, sans-serif; font-size: 12px; font-weight: 200;" x="0" y="66.59999978542326" dx="0em" dy="0.3em" fill="rgb(50, 49, 63)" stroke="none" stroke-width="1px">4e-5</text><text style="text-anchor: end; visibility: hidden; font-family: Roboto, sans-serif; font-size: 12px; font-weight: 200;" x="0" y="44.39999985694883" dx="0em" dy="0.3em" fill="rgb(50, 49, 63)" stroke="none" stroke-width="1px">5e-5</text><text style="text-anchor: end; visibility: inherit; font-family: Roboto, sans-serif; font-size: 12px; font-weight: 200;" x="0" y="22.199999928474387" dx="0em" dy="0.3em" fill="rgb(50, 49, 63)" stroke="none" stroke-width="1px">6e-5</text></g><line x1="61.91500186920166" y1="0" x2="61.91500186920166" y2="177.5999994277954" fill="rgb(0, 0, 0)" stroke="rgb(204, 204, 204)" stroke-width="1px"></line></g></g><g transform="translate(61, 0)" clip-path="url(#clip_0)"><clipPath id="clip_0"><rect width="268" height="177"></rect></clipPath><g><g><g><line x1="0" y1="0" x2="0" y2="177.5999994277954" fill="rgb(0, 0, 0)" stroke="rgb(60, 60, 60)" stroke-width="1px" opacity="0.25"></line><line x1="22.34041651089986" y1="0" x2="22.34041651089986" y2="177.5999994277954" fill="rgb(0, 0, 0)" stroke="rgb(60, 60, 60)" stroke-width="1px" opacity="0.25"></line><line x1="44.68083302179972" y1="0" x2="44.68083302179972" y2="177.5999994277954" fill="rgb(0, 0, 0)" stroke="rgb(60, 60, 60)" stroke-width="1px" opacity="0.25"></line><line x1="67.02124953269958" y1="0" x2="67.02124953269958" y2="177.5999994277954" fill="rgb(0, 0, 0)" stroke="rgb(60, 60, 60)" stroke-width="1px" opacity="0.25"></line><line x1="89.36166604359944" y1="0" x2="89.36166604359944" y2="177.5999994277954" fill="rgb(0, 0, 0)" stroke="rgb(60, 60, 60)" stroke-width="1px" opacity="0.25"></line><line x1="111.70208255449931" y1="0" x2="111.70208255449931" y2="177.5999994277954" fill="rgb(0, 0, 0)" stroke="rgb(60, 60, 60)" stroke-width="1px" opacity="0.25"></line><line x1="134.04249906539917" y1="0" x2="134.04249906539917" y2="177.5999994277954" fill="rgb(0, 0, 0)" stroke="rgb(60, 60, 60)" stroke-width="1px" opacity="0.25"></line><line x1="156.38291557629904" y1="0" x2="156.38291557629904" y2="177.5999994277954" fill="rgb(0, 0, 0)" stroke="rgb(60, 60, 60)" stroke-width="1px" opacity="0.25"></line><line x1="178.72333208719888" y1="0" x2="178.72333208719888" y2="177.5999994277954" fill="rgb(0, 0, 0)" stroke="rgb(60, 60, 60)" stroke-width="1px" opacity="0.25"></line><line x1="201.06374859809875" y1="0" x2="201.06374859809875" y2="177.5999994277954" fill="rgb(0, 0, 0)" stroke="rgb(60, 60, 60)" stroke-width="1px" opacity="0.25"></line><line x1="223.40416510899863" y1="0" x2="223.40416510899863" y2="177.5999994277954" fill="rgb(0, 0, 0)" stroke="rgb(60, 60, 60)" stroke-width="1px" opacity="0.25"></line><line x1="245.74458161989847" y1="0" x2="245.74458161989847" y2="177.5999994277954" fill="rgb(0, 0, 0)" stroke="rgb(60, 60, 60)" stroke-width="1px" opacity="0.25"></line><line x1="268.08499813079834" y1="0" x2="268.08499813079834" y2="177.5999994277954" fill="rgb(0, 0, 0)" stroke="rgb(60, 60, 60)" stroke-width="1px" opacity="0.25"></line></g><g><line x1="0" y1="177.5999994277954" x2="268.08499813079834" y2="177.5999994277954" fill="rgb(0, 0, 0)" stroke="rgb(60, 60, 60)" stroke-width="1px" opacity="0.25"></line><line x1="0" y1="155.39999949932098" x2="268.08499813079834" y2="155.39999949932098" fill="rgb(0, 0, 0)" stroke="rgb(60, 60, 60)" stroke-width="1px" opacity="0.25"></line><line x1="0" y1="133.19999957084656" x2="268.08499813079834" y2="133.19999957084656" fill="rgb(0, 0, 0)" stroke="rgb(60, 60, 60)" stroke-width="1px" opacity="0.25"></line><line x1="0" y1="110.99999964237212" x2="268.08499813079834" y2="110.99999964237212" fill="rgb(0, 0, 0)" stroke="rgb(60, 60, 60)" stroke-width="1px" opacity="0.25"></line><line x1="0" y1="88.79999971389769" x2="268.08499813079834" y2="88.79999971389769" fill="rgb(0, 0, 0)" stroke="rgb(60, 60, 60)" stroke-width="1px" opacity="0.25"></line><line x1="0" y1="66.59999978542326" x2="268.08499813079834" y2="66.59999978542326" fill="rgb(0, 0, 0)" stroke="rgb(60, 60, 60)" stroke-width="1px" opacity="0.25"></line><line x1="0" y1="44.39999985694883" x2="268.08499813079834" y2="44.39999985694883" fill="rgb(0, 0, 0)" stroke="rgb(60, 60, 60)" stroke-width="1px" opacity="0.25"></line><line x1="0" y1="22.199999928474387" x2="268.08499813079834" y2="22.199999928474387" fill="rgb(0, 0, 0)" stroke="rgb(60, 60, 60)" stroke-width="1px" opacity="0.25"></line></g></g></g><g><g><line x1="0" y1="155.39999949932098" x2="268.08499813079834" y2="155.39999949932098" fill="rgb(0, 0, 0)" stroke="rgb(153, 153, 153)" stroke-width="1.5px"></line></g></g><g><g><line x1="22.34041651089986" y1="0" x2="22.34041651089986" y2="177.5999994277954" fill="rgb(0, 0, 0)" stroke="rgb(153, 153, 153)" stroke-width="1.5px"></line></g></g><g><g><g><g><g><path style="fill: none;" stroke="rgb(255, 112, 67)" stroke-width="2px" d="M22.34041651089986,155.08919950615473L24.574458161989845,148.6271492486305L26.808499813079834,141.3738279173045L29.042541464169823,133.4223260179675L31.276583115259807,124.8821430337097L33.51062476634979,115.86573654911173L35.74466641743978,106.47805526247912L37.97870806852976,96.81014587039634L40.21274971961975,86.93656922231578L42.44679137070973,76.91562143615323L44.68083302179972,66.79120264845555L46.91487467288971,56.59537651294937L49.14891632397969,46.35098317524826L51.38295797506969,36.073961697375026L53.61699962615967,25.77524491815728L55.85104127724966,18.782944344463957L58.085082928339645,15.036633885328238L60.31912457942963,13.263374750628705L62.553166230519615,12.699514616866994L64.7872078816096,12.886561893712273L67.02124953269958,13.548988694450648L69.25529118378958,14.52094671053018L71.48933283487956,15.702379013514681L73.72337448596954,17.032652729228026L75.95741613705952,18.474777951185335L78.19145778814952,20.005927444317436L80.4254994392395,21.611748875598682L82.6595410903295,23.2829490356291L84.89358274141946,25.013254082818055L87.12762439250946,26.79818568340404L89.36166604359944,28.634313762439827L91.59570769468944,30.518827528181653L93.82974934577942,32.44926838835793L96.0637909968694,34.42337292587178L98.29783264795938,36.438978681230985L100.53187429904938,38.49396438956769L102.76591595013937,40.586223813216165L104.99995760122935,42.71364357945018L107.23399925231934,44.87410280475267L109.46804090340932,47.06544702488143L111.70208255449931,49.28550485797806L113.9361242055893,51.53207861916921L116.17016585667929,53.80295161135836L118.40420750776926,56.09587634703219L120.63824915885925,58.4085900949941L122.87229080994923,60.73881128628763L125.10633246103923,63.08423735774037L127.34037411212921,65.44255314965999L129.5744157632192,67.81143271392267L131.80845741430917,70.18853716829896L134.04249906539917,72.5715231006234L136.27654071648914,74.95803468919453L138.51058236757916,77.34571835816583L140.74462401866913,79.7322186486789L142.97866566975912,82.11518220259367L145.2127073208491,84.49225207641354L147.4467489719391,86.86108694331656L149.68079062302908,89.21934677017262L151.91483227411905,91.5647036069049L154.14887392520905,93.89484482958149L156.38291557629904,96.20747024048264L158.616957227389,98.50029678919137L160.850998878479,100.77106302051051L163.08504052956897,103.01752689742506L165.319082180659,105.23747257119264L167.55312383174896,107.42870798234736L169.78716548283893,109.58907149761508L172.02120713392895,111.71642943101214L174.25524878501892,113.8086842480804L176.48929043610892,115.86377141211483L178.72333208719888,117.87966072242581L180.95737373828888,119.85436438597769L183.19141538937888,121.78593297642793L185.42545704046884,123.67246108586352L187.65949869155884,125.51208587005495L189.89354034264883,127.30299263665897L192.1275819937388,129.0434133523527L194.3616236448288,130.7316305929014L196.59566529591876,132.3659791055684L198.8297069470088,133.94484432366673L201.06374859809875,135.4666695516031L203.29779024918872,136.92995260340734L205.53183190027875,138.33324903545304L207.7658735513687,139.67517408609018L209.9999152024587,140.95440383942463L212.23395685354868,142.1696751159546L214.46799850463867,143.3197890412932L216.70204015572867,144.40361076450836L218.93608180681863,145.42007029866556L221.17012345790863,146.36816484232418L223.40416510899863,147.24695855717255L225.6382067600886,148.05558404987158L227.8722484111786,148.79324366497664L230.10629006226856,149.45920904924373L232.34033171335858,150.05282331310707L234.57437336444855,150.57350030848733L236.80841501553851,151.02072641646282L239.04245666662854,151.3940602065172L241.2764983177185,151.6931332416274L243.5105399688085,151.91765035940853L245.74458161989847,152.0673900427085L247.97862327098846,152.15723385268848L250.21266492207846,152.21114013867648L252.44670657316843,152.24348391026928L254.68074822425842,152.26289017322495" fill="none"></path></g></g></g></g><g opacity="0.2"><g><g><g><path style="fill: none;" stroke="rgb(255, 112, 67)" stroke-width="2px" d="M22.34041651089986,155.08919950615473L24.574458161989845,144.749919094116L26.808499813079834,134.41063943923157L29.042541464169823,124.07135978434715L31.276583115259807,113.73208012946274L33.51062476634979,103.39280047457832L35.74466641743978,93.05352081969392L37.97870806852976,82.7142411648095L40.21274971961975,72.37496150992509L42.44679137070973,62.03568185504067L44.68083302179972,51.69640220015626L46.91487467288971,41.35712254527182L49.14891632397969,31.01784289038741L51.38295797506969,20.678563235502995L53.61699962615967,10.339275504305656L55.85104127724966,8.299424996030009L58.085082928339645,9.418753509657627L60.31912457942963,10.60393627888159L62.553166230519615,11.853810314640592L64.7872078816096,13.16711571211822L67.02124953269958,14.542592566498062L69.25529118378958,15.978851751956892L71.48933283487956,17.47450414267149L73.72337448596954,19.028047544437666L75.95741613705952,20.63795553411246L78.19145778814952,22.302645154362434L80.4254994392395,24.020476913663664L82.6595410903295,25.78974670998882L84.89358274141946,27.60871005974595L87.12762439250946,29.475582097778467L89.36166604359944,31.388505272113456L91.59570769468944,33.34559780183922L93.82974934577942,35.34492944816652L96.0637909968694,37.384529590741465L98.29783264795938,39.462387227645564L100.53187429904938,41.57644289908275L102.76591595013937,43.72461291631821L104.99995760122935,45.904773209052436L107.23399925231934,48.11479163067306L109.46804090340932,50.35246334775136L111.70208255449931,52.61559160317154L113.9361242055893,54.90193925825317L116.17016585667929,57.209261098002905L118.40420750776926,59.53526344954983L120.63824915885925,61.87766071633598L122.87229080994923,64.23414307286458L125.10633246103923,66.60237646470011L127.34037411212921,68.98002683740705L129.5744157632192,71.36475206023691L131.80845741430917,73.7541938498154L134.04249906539917,76.14600199908111L136.27654071648914,78.5378020720339L138.51058236757916,80.92724386161238L140.74462401866913,83.31196908444224L142.97866566975912,85.68962753346209L145.2127073208491,88.05785688714116L147.4467489719391,90.41433924366977L149.68079062302908,92.75673651045591L151.91483227411905,95.08273886200284L154.14887392520905,97.39005666359611L156.38291557629904,99.6764083568342L158.616957227389,101.93953661225439L160.850998878479,104.17721236748915L163.08504052956897,106.38722271279684L165.319082180659,108.56739108184401L167.55312383174896,110.71556109907944L169.78716548283893,112.82961677051662L172.02120713392895,114.9074663311078L174.25524878501892,116.94706647368275L176.48929043610892,118.9464021581665L178.72333208719888,120.90349468789228L180.95737373828888,122.81641988130549L183.19141538937888,124.68328586210332L185.42545704046884,126.5022532500169L187.65949869155884,128.27152304634205L189.89354034264883,129.98935278656506L192.1275819937388,131.65404442589326L194.3616236448288,133.26395645372452L196.59566529591876,134.81750187456893L198.8297069470088,136.31314215081414L201.06374859809875,137.74940739350765L203.29779024918872,139.1248771811137L205.53183190027875,140.4381936835216L207.7658735513687,141.6880616620459L209.9999152024587,142.87324846942633L212.23395685354868,143.99258203074953L214.46799850463867,145.04495992930114L216.70204015572867,146.0293433493311L218.93608180681863,146.94475959990137L221.17012345790863,147.79030665781212L223.40416510899863,148.5651491294451L225.6382067600886,149.2685222889201L227.8722484111786,149.89973308763422L230.10629006226856,150.45815712564436L232.34033171335858,150.94324470890206L234.57437336444855,151.35451580155774L236.80841501553851,151.69156557842604L239.04245666662854,151.95406089159877L241.2764983177185,152.14174279429275L243.5105399688085,152.25442603608022L245.74458161989847,152.29199956765848L247.97862327098846,152.29199956765848L250.21266492207846,152.29199956765848L252.44670657316843,152.29199956765848L254.68074822425842,152.29199956765848" fill="none"></path></g></g></g></g></g></g><g transform="translate(61, 177)" clip-path="url(#clip_1)"><clipPath id="clip_1"><rect width="268" height="22"></rect></clipPath><g><g><line x1="0" y1="0" x2="0" y2="5" style="visibility: inherit;" fill="rgb(0, 0, 0)" stroke="rgb(204, 204, 204)" stroke-width="1px"></line><line x1="22.34041651089986" y1="0" x2="22.34041651089986" y2="5" style="visibility: inherit;" fill="rgb(0, 0, 0)" stroke="rgb(204, 204, 204)" stroke-width="1px"></line><line x1="44.68083302179972" y1="0" x2="44.68083302179972" y2="5" style="visibility: inherit;" fill="rgb(0, 0, 0)" stroke="rgb(204, 204, 204)" stroke-width="1px"></line><line x1="67.02124953269958" y1="0" x2="67.02124953269958" y2="5" style="visibility: inherit;" fill="rgb(0, 0, 0)" stroke="rgb(204, 204, 204)" stroke-width="1px"></line><line x1="89.36166604359944" y1="0" x2="89.36166604359944" y2="5" style="visibility: inherit;" fill="rgb(0, 0, 0)" stroke="rgb(204, 204, 204)" stroke-width="1px"></line><line x1="111.70208255449931" y1="0" x2="111.70208255449931" y2="5" style="visibility: inherit;" fill="rgb(0, 0, 0)" stroke="rgb(204, 204, 204)" stroke-width="1px"></line><line x1="134.04249906539917" y1="0" x2="134.04249906539917" y2="5" style="visibility: inherit;" fill="rgb(0, 0, 0)" stroke="rgb(204, 204, 204)" stroke-width="1px"></line><line x1="156.38291557629904" y1="0" x2="156.38291557629904" y2="5" style="visibility: inherit;" fill="rgb(0, 0, 0)" stroke="rgb(204, 204, 204)" stroke-width="1px"></line><line x1="178.72333208719888" y1="0" x2="178.72333208719888" y2="5" style="visibility: inherit;" fill="rgb(0, 0, 0)" stroke="rgb(204, 204, 204)" stroke-width="1px"></line><line x1="201.06374859809875" y1="0" x2="201.06374859809875" y2="5" style="visibility: inherit;" fill="rgb(0, 0, 0)" stroke="rgb(204, 204, 204)" stroke-width="1px"></line><line x1="223.40416510899863" y1="0" x2="223.40416510899863" y2="5" style="visibility: inherit;" fill="rgb(0, 0, 0)" stroke="rgb(204, 204, 204)" stroke-width="1px"></line><line x1="245.74458161989847" y1="0" x2="245.74458161989847" y2="5" style="visibility: inherit;" fill="rgb(0, 0, 0)" stroke="rgb(204, 204, 204)" stroke-width="1px"></line><line x1="268.08499813079834" y1="0" x2="268.08499813079834" y2="5" style="visibility: inherit;" fill="rgb(0, 0, 0)" stroke="rgb(204, 204, 204)" stroke-width="1px"></line></g><g transform="translate(0, 8)"><text style="text-anchor: middle; visibility: hidden; font-family: Roboto, sans-serif; font-size: 12px; font-weight: 200;" x="0" y="0" dx="0em" dy="0.95em" fill="rgb(50, 49, 63)" stroke="none" stroke-width="1px">-10</text><text style="text-anchor: middle; visibility: inherit; font-family: Roboto, sans-serif; font-size: 12px; font-weight: 200;" x="22.34041651089986" y="0" dx="0em" dy="0.95em" fill="rgb(50, 49, 63)" stroke="none" stroke-width="1px">0</text><text style="text-anchor: middle; visibility: inherit; font-family: Roboto, sans-serif; font-size: 12px; font-weight: 200;" x="44.68083302179972" y="0" dx="0em" dy="0.95em" fill="rgb(50, 49, 63)" stroke="none" stroke-width="1px">10</text><text style="text-anchor: middle; visibility: inherit; font-family: Roboto, sans-serif; font-size: 12px; font-weight: 200;" x="67.02124953269958" y="0" dx="0em" dy="0.95em" fill="rgb(50, 49, 63)" stroke="none" stroke-width="1px">20</text><text style="text-anchor: middle; visibility: inherit; font-family: Roboto, sans-serif; font-size: 12px; font-weight: 200;" x="89.36166604359944" y="0" dx="0em" dy="0.95em" fill="rgb(50, 49, 63)" stroke="none" stroke-width="1px">30</text><text style="text-anchor: middle; visibility: inherit; font-family: Roboto, sans-serif; font-size: 12px; font-weight: 200;" x="111.70208255449931" y="0" dx="0em" dy="0.95em" fill="rgb(50, 49, 63)" stroke="none" stroke-width="1px">40</text><text style="text-anchor: middle; visibility: inherit; font-family: Roboto, sans-serif; font-size: 12px; font-weight: 200;" x="134.04249906539917" y="0" dx="0em" dy="0.95em" fill="rgb(50, 49, 63)" stroke="none" stroke-width="1px">50</text><text style="text-anchor: middle; visibility: inherit; font-family: Roboto, sans-serif; font-size: 12px; font-weight: 200;" x="156.38291557629904" y="0" dx="0em" dy="0.95em" fill="rgb(50, 49, 63)" stroke="none" stroke-width="1px">60</text><text style="text-anchor: middle; visibility: inherit; font-family: Roboto, sans-serif; font-size: 12px; font-weight: 200;" x="178.72333208719888" y="0" dx="0em" dy="0.95em" fill="rgb(50, 49, 63)" stroke="none" stroke-width="1px">70</text><text style="text-anchor: middle; visibility: inherit; font-family: Roboto, sans-serif; font-size: 12px; font-weight: 200;" x="201.06374859809875" y="0" dx="0em" dy="0.95em" fill="rgb(50, 49, 63)" stroke="none" stroke-width="1px">80</text><text style="text-anchor: middle; visibility: inherit; font-family: Roboto, sans-serif; font-size: 12px; font-weight: 200;" x="223.40416510899863" y="0" dx="0em" dy="0.95em" fill="rgb(50, 49, 63)" stroke="none" stroke-width="1px">90</text><text style="text-anchor: middle; visibility: inherit; font-family: Roboto, sans-serif; font-size: 12px; font-weight: 200;" x="245.74458161989847" y="0" dx="0em" dy="0.95em" fill="rgb(50, 49, 63)" stroke="none" stroke-width="1px">100</text><text style="text-anchor: middle; visibility: hidden; font-family: Roboto, sans-serif; font-size: 12px; font-weight: 200;" x="268.08499813079834" y="0" dx="0em" dy="0.95em" fill="rgb(50, 49, 63)" stroke="none" stroke-width="1px">110</text></g><line x1="0" y1="0" x2="268.08499813079834" y2="0" fill="rgb(0, 0, 0)" stroke="rgb(204, 204, 204)" stroke-width="1px"></line></g></g></g></g></svg>