<svg viewBox="0 0 330 200" xmlns="http://www.w3.org/2000/svg"><g><g><g><g><g><line x1="51.53200149536133" y1="176.5999994277954" x2="46.53200149536133" y2="176.5999994277954" style="visibility: inherit;" fill="rgb(0, 0, 0)" stroke="rgb(204, 204, 204)" stroke-width="1px"></line><line x1="51.53200149536133" y1="163.01538408719577" x2="46.53200149536133" y2="163.01538408719577" style="visibility: inherit;" fill="rgb(0, 0, 0)" stroke="rgb(204, 204, 204)" stroke-width="1px"></line><line x1="51.53200149536133" y1="149.4307687465961" x2="46.53200149536133" y2="149.4307687465961" style="visibility: inherit;" fill="rgb(0, 0, 0)" stroke="rgb(204, 204, 204)" stroke-width="1px"></line><line x1="51.53200149536133" y1="135.84615340599646" x2="46.53200149536133" y2="135.84615340599646" style="visibility: inherit;" fill="rgb(0, 0, 0)" stroke="rgb(204, 204, 204)" stroke-width="1px"></line><line x1="51.53200149536133" y1="122.26153806539682" x2="46.53200149536133" y2="122.26153806539682" style="visibility: inherit;" fill="rgb(0, 0, 0)" stroke="rgb(204, 204, 204)" stroke-width="1px"></line><line x1="51.53200149536133" y1="108.67692272479718" x2="46.53200149536133" y2="108.67692272479718" style="visibility: inherit;" fill="rgb(0, 0, 0)" stroke="rgb(204, 204, 204)" stroke-width="1px"></line><line x1="51.53200149536133" y1="95.09230738419754" x2="46.53200149536133" y2="95.09230738419754" style="visibility: inherit;" fill="rgb(0, 0, 0)" stroke="rgb(204, 204, 204)" stroke-width="1px"></line><line x1="51.53200149536133" y1="81.50769204359788" x2="46.53200149536133" y2="81.50769204359788" style="visibility: inherit;" fill="rgb(0, 0, 0)" stroke="rgb(204, 204, 204)" stroke-width="1px"></line><line x1="51.53200149536133" y1="67.92307670299824" x2="46.53200149536133" y2="67.92307670299824" style="visibility: inherit;" fill="rgb(0, 0, 0)" stroke="rgb(204, 204, 204)" stroke-width="1px"></line><line x1="51.53200149536133" y1="54.33846136239859" x2="46.53200149536133" y2="54.33846136239859" style="visibility: inherit;" fill="rgb(0, 0, 0)" stroke="rgb(204, 204, 204)" stroke-width="1px"></line><line x1="51.53200149536133" y1="40.75384602179895" x2="46.53200149536133" y2="40.75384602179895" style="visibility: inherit;" fill="rgb(0, 0, 0)" stroke="rgb(204, 204, 204)" stroke-width="1px"></line><line x1="51.53200149536133" y1="27.169230681199295" x2="46.53200149536133" y2="27.169230681199295" style="visibility: inherit;" fill="rgb(0, 0, 0)" stroke="rgb(204, 204, 204)" stroke-width="1px"></line><line x1="51.53200149536133" y1="13.584615340599639" x2="46.53200149536133" y2="13.584615340599639" style="visibility: inherit;" fill="rgb(0, 0, 0)" stroke="rgb(204, 204, 204)" stroke-width="1px"></line><line x1="51.53200149536133" y1="0" x2="46.53200149536133" y2="0" style="visibility: inherit;" fill="rgb(0, 0, 0)" stroke="rgb(204, 204, 204)" stroke-width="1px"></line></g><g transform="translate(41.53200149536133, 0)"><text style="text-anchor: end; visibility: hidden; font-family: Roboto, sans-serif; font-size: 12px; font-weight: 200;" x="0" y="176.5999994277954" dx="0em" dy="0.3em" fill="rgb(33, 33, 33)" stroke="none" stroke-width="1px">-0.1</text><text style="text-anchor: end; visibility: inherit; font-family: Roboto, sans-serif; font-size: 12px; font-weight: 200;" x="0" y="163.01538408719577" dx="0em" dy="0.3em" fill="rgb(33, 33, 33)" stroke="none" stroke-width="1px">0</text><text style="text-anchor: end; visibility: hidden; font-family: Roboto, sans-serif; font-size: 12px; font-weight: 200;" x="0" y="149.4307687465961" dx="0em" dy="0.3em" fill="rgb(33, 33, 33)" stroke="none" stroke-width="1px">0.1</text><text style="text-anchor: end; visibility: inherit; font-family: Roboto, sans-serif; font-size: 12px; font-weight: 200;" x="0" y="135.84615340599646" dx="0em" dy="0.3em" fill="rgb(33, 33, 33)" stroke="none" stroke-width="1px">0.2</text><text style="text-anchor: end; visibility: hidden; font-family: Roboto, sans-serif; font-size: 12px; font-weight: 200;" x="0" y="122.26153806539682" dx="0em" dy="0.3em" fill="rgb(33, 33, 33)" stroke="none" stroke-width="1px">0.3</text><text style="text-anchor: end; visibility: inherit; font-family: Roboto, sans-serif; font-size: 12px; font-weight: 200;" x="0" y="108.67692272479718" dx="0em" dy="0.3em" fill="rgb(33, 33, 33)" stroke="none" stroke-width="1px">0.4</text><text style="text-anchor: end; visibility: hidden; font-family: Roboto, sans-serif; font-size: 12px; font-weight: 200;" x="0" y="95.09230738419754" dx="0em" dy="0.3em" fill="rgb(33, 33, 33)" stroke="none" stroke-width="1px">0.5</text><text style="text-anchor: end; visibility: inherit; font-family: Roboto, sans-serif; font-size: 12px; font-weight: 200;" x="0" y="81.50769204359788" dx="0em" dy="0.3em" fill="rgb(33, 33, 33)" stroke="none" stroke-width="1px">0.6</text><text style="text-anchor: end; visibility: hidden; font-family: Roboto, sans-serif; font-size: 12px; font-weight: 200;" x="0" y="67.92307670299824" dx="0em" dy="0.3em" fill="rgb(33, 33, 33)" stroke="none" stroke-width="1px">0.7</text><text style="text-anchor: end; visibility: inherit; font-family: Roboto, sans-serif; font-size: 12px; font-weight: 200;" x="0" y="54.33846136239859" dx="0em" dy="0.3em" fill="rgb(33, 33, 33)" stroke="none" stroke-width="1px">0.8</text><text style="text-anchor: end; visibility: hidden; font-family: Roboto, sans-serif; font-size: 12px; font-weight: 200;" x="0" y="40.75384602179895" dx="0em" dy="0.3em" fill="rgb(33, 33, 33)" stroke="none" stroke-width="1px">0.9</text><text style="text-anchor: end; visibility: inherit; font-family: Roboto, sans-serif; font-size: 12px; font-weight: 200;" x="0" y="27.169230681199295" dx="0em" dy="0.3em" fill="rgb(33, 33, 33)" stroke="none" stroke-width="1px">1</text><text style="text-anchor: end; visibility: hidden; font-family: Roboto, sans-serif; font-size: 12px; font-weight: 200;" x="0" y="13.584615340599639" dx="0em" dy="0.3em" fill="rgb(33, 33, 33)" stroke="none" stroke-width="1px">1.1</text><text style="text-anchor: end; visibility: hidden; font-family: Roboto, sans-serif; font-size: 12px; font-weight: 200;" x="0" y="0" dx="0em" dy="0.3em" fill="rgb(33, 33, 33)" stroke="none" stroke-width="1px">1.2</text></g><line x1="51.53200149536133" y1="0" x2="51.53200149536133" y2="176.5999994277954" fill="rgb(0, 0, 0)" stroke="rgb(204, 204, 204)" stroke-width="1px"></line></g></g><g transform="translate(51, 0)" clip-path="url(#clip_0)"><clipPath id="clip_0"><rect width="278" height="176"></rect></clipPath><g><g><g><line x1="0" y1="0" x2="0" y2="176.5999994277954" fill="rgb(0, 0, 0)" stroke="rgb(66, 66, 66)" stroke-width="1px" opacity="0.25"></line><line x1="23.205666542053223" y1="0" x2="23.205666542053223" y2="176.5999994277954" fill="rgb(0, 0, 0)" stroke="rgb(66, 66, 66)" stroke-width="1px" opacity="0.25"></line><line x1="46.411333084106445" y1="0" x2="46.411333084106445" y2="176.5999994277954" fill="rgb(0, 0, 0)" stroke="rgb(66, 66, 66)" stroke-width="1px" opacity="0.25"></line><line x1="69.61699962615967" y1="0" x2="69.61699962615967" y2="176.5999994277954" fill="rgb(0, 0, 0)" stroke="rgb(66, 66, 66)" stroke-width="1px" opacity="0.25"></line><line x1="92.82266616821289" y1="0" x2="92.82266616821289" y2="176.5999994277954" fill="rgb(0, 0, 0)" stroke="rgb(66, 66, 66)" stroke-width="1px" opacity="0.25"></line><line x1="116.02833271026611" y1="0" x2="116.02833271026611" y2="176.5999994277954" fill="rgb(0, 0, 0)" stroke="rgb(66, 66, 66)" stroke-width="1px" opacity="0.25"></line><line x1="139.23399925231934" y1="0" x2="139.23399925231934" y2="176.5999994277954" fill="rgb(0, 0, 0)" stroke="rgb(66, 66, 66)" stroke-width="1px" opacity="0.25"></line><line x1="162.43966579437256" y1="0" x2="162.43966579437256" y2="176.5999994277954" fill="rgb(0, 0, 0)" stroke="rgb(66, 66, 66)" stroke-width="1px" opacity="0.25"></line><line x1="185.64533233642578" y1="0" x2="185.64533233642578" y2="176.5999994277954" fill="rgb(0, 0, 0)" stroke="rgb(66, 66, 66)" stroke-width="1px" opacity="0.25"></line><line x1="208.850998878479" y1="0" x2="208.850998878479" y2="176.5999994277954" fill="rgb(0, 0, 0)" stroke="rgb(66, 66, 66)" stroke-width="1px" opacity="0.25"></line><line x1="232.05666542053223" y1="0" x2="232.05666542053223" y2="176.5999994277954" fill="rgb(0, 0, 0)" stroke="rgb(66, 66, 66)" stroke-width="1px" opacity="0.25"></line><line x1="255.26233196258545" y1="0" x2="255.26233196258545" y2="176.5999994277954" fill="rgb(0, 0, 0)" stroke="rgb(66, 66, 66)" stroke-width="1px" opacity="0.25"></line><line x1="278.4679985046387" y1="0" x2="278.4679985046387" y2="176.5999994277954" fill="rgb(0, 0, 0)" stroke="rgb(66, 66, 66)" stroke-width="1px" opacity="0.25"></line></g><g><line x1="0" y1="176.5999994277954" x2="278.4679985046387" y2="176.5999994277954" fill="rgb(0, 0, 0)" stroke="rgb(66, 66, 66)" stroke-width="1px" opacity="0.25"></line><line x1="0" y1="163.01538408719577" x2="278.4679985046387" y2="163.01538408719577" fill="rgb(0, 0, 0)" stroke="rgb(66, 66, 66)" stroke-width="1px" opacity="0.25"></line><line x1="0" y1="149.4307687465961" x2="278.4679985046387" y2="149.4307687465961" fill="rgb(0, 0, 0)" stroke="rgb(66, 66, 66)" stroke-width="1px" opacity="0.25"></line><line x1="0" y1="135.84615340599646" x2="278.4679985046387" y2="135.84615340599646" fill="rgb(0, 0, 0)" stroke="rgb(66, 66, 66)" stroke-width="1px" opacity="0.25"></line><line x1="0" y1="122.26153806539682" x2="278.4679985046387" y2="122.26153806539682" fill="rgb(0, 0, 0)" stroke="rgb(66, 66, 66)" stroke-width="1px" opacity="0.25"></line><line x1="0" y1="108.67692272479718" x2="278.4679985046387" y2="108.67692272479718" fill="rgb(0, 0, 0)" stroke="rgb(66, 66, 66)" stroke-width="1px" opacity="0.25"></line><line x1="0" y1="95.09230738419754" x2="278.4679985046387" y2="95.09230738419754" fill="rgb(0, 0, 0)" stroke="rgb(66, 66, 66)" stroke-width="1px" opacity="0.25"></line><line x1="0" y1="81.50769204359788" x2="278.4679985046387" y2="81.50769204359788" fill="rgb(0, 0, 0)" stroke="rgb(66, 66, 66)" stroke-width="1px" opacity="0.25"></line><line x1="0" y1="67.92307670299824" x2="278.4679985046387" y2="67.92307670299824" fill="rgb(0, 0, 0)" stroke="rgb(66, 66, 66)" stroke-width="1px" opacity="0.25"></line><line x1="0" y1="54.33846136239859" x2="278.4679985046387" y2="54.33846136239859" fill="rgb(0, 0, 0)" stroke="rgb(66, 66, 66)" stroke-width="1px" opacity="0.25"></line><line x1="0" y1="40.75384602179895" x2="278.4679985046387" y2="40.75384602179895" fill="rgb(0, 0, 0)" stroke="rgb(66, 66, 66)" stroke-width="1px" opacity="0.25"></line><line x1="0" y1="27.169230681199295" x2="278.4679985046387" y2="27.169230681199295" fill="rgb(0, 0, 0)" stroke="rgb(66, 66, 66)" stroke-width="1px" opacity="0.25"></line><line x1="0" y1="13.584615340599639" x2="278.4679985046387" y2="13.584615340599639" fill="rgb(0, 0, 0)" stroke="rgb(66, 66, 66)" stroke-width="1px" opacity="0.25"></line><line x1="0" y1="0" x2="278.4679985046387" y2="0" fill="rgb(0, 0, 0)" stroke="rgb(66, 66, 66)" stroke-width="1px" opacity="0.25"></line></g></g></g><g><g><line x1="0" y1="163.01538408719577" x2="278.4679985046387" y2="163.01538408719577" fill="rgb(0, 0, 0)" stroke="rgb(153, 153, 153)" stroke-width="1.5px"></line></g></g><g><g><line x1="23.205666542053223" y1="0" x2="23.205666542053223" y2="176.5999994277954" fill="rgb(0, 0, 0)" stroke="rgb(153, 153, 153)" stroke-width="1.5px"></line></g></g><g><g><g><g><g><path style="fill: none;" stroke="rgb(255, 112, 67)" stroke-width="2px" d="M33.369748487472535,-27.483727592960996L33.64821648597717,3.052325216914341L34.089124150276184,-26.88691702657251L34.20515248298645,-13.48910321308963L34.46041481494903,16.917685765673205L34.530031814575196,41.13156065250316L34.55323748111725,50.79615539324633L34.762088479995725,56.08457708528352L35.36543581008911,15.757675247876998L35.64390380859375,9.66081204295777L36.17763413906098,-3.7003064322762635L36.29366247177124,7.8196130052104245L37.24509479999543,-12.166537528075118L37.91805912971496,2.359299489876248L38.126910128593444,16.288843055557702L38.17332146167755,-72.43567208120292L38.28934979438782,6.620838271219635L38.38217246055603,-2.7242878810803144L40.354654116630556,-0.38934261241915735L40.88838444709778,15.251147894250957L41.16685244560242,41.005135842629166L41.213263778686525,12.583632081627439L41.422114777565,39.64051643466568L41.53814311027527,33.27148549862926L41.86302244186402,59.52625937261101L42.04866777420044,74.07106799929119L42.373547105789186,94.29977104668585L42.41995843887329,65.37719451807666L42.53598677158356,40.10910113181369L42.559192438125606,69.0269389926927L42.698426437377925,83.01050774326703L42.79124910354614,63.03165400590301L43.139334101676944,57.28278450168478L43.603447432518,69.2065312213986L43.74268143177032,59.20879284921598L43.9051210975647,50.00096686229614L44.36923442840576,42.11405391752165L44.392440094947816,9.236364155764063L44.531674094200135,38.987798140197754L45.111815757751465,81.89897386056708L45.459900755882266,39.41747939366365L45.483106422424314,-3.793436835427162L45.62234042167663,13.102976122651805L45.80798575401306,19.39237467243857L46.063248085975644,22.290857461245963L46.272099084854126,59.43708954159202L46.29530475139618,73.53915282849167L46.52736141681671,95.65423925774355L46.71300674915314,86.25006731180545L46.73621241569519,100.9562964250651L46.7826237487793,117.61125288056756L47.22353141307831,72.7309706591287L47.29314841270447,34.716382153953475L47.618027744293215,32.759648777456064L47.66443907737732,66.18268223846749L47.710850410461425,60.76451941233008L47.96611274242401,57.00535943614304L48.3141977405548,63.004772528251245L48.337403407096865,79.26247275761679L48.84792807102203,87.60962923918947L48.963956403732304,93.85707154283806L49.07998473644256,107.41383814399836L49.10319040298462,51.838506409077155L49.47448106765747,52.428727837346386L49.52089240074158,53.531987889146286L49.56730373382568,59.64967932923172L49.79936039924622,88.94939895925009L50.495530395507814,96.04849769204321L50.72758706092834,90.3860636533203L50.913232393264764,90.7553822518361L51.122083392143246,78.82511046954978L51.14528905868531,69.67576980371497L51.4933740568161,87.03267928376447L51.795047721862794,54.86099606455484L51.91107605457306,31.367102451445742L51.95748738765716,20.4007664612392L52.46801205158234,44.69105801003129L52.5376290512085,84.72394961613226L52.60724605083466,107.00415070622236L52.816097049713136,47.74051359531134L52.955331048965455,40.17448258647432L53.46585571289063,41.362971591067925L53.74432371139527,71.92963357573085L53.906763377189634,13.088386650619237L53.9763803768158,59.51810008844548L54.51011070728302,46.79039737068392L54.788578705787664,72.43873656967983L54.90460703849792,93.98285434572665L54.95101837158203,109.23049997754175L55.09025237083435,106.70563768742294L55.13666370391846,102.30448703694617L55.15986937046051,95.12840566075434L55.22948637008667,100.5493878506993L55.27589770317078,111.48768223666875L55.57757136821747,100.92147379003703L55.92565636634827,78.00021003254494L56.25053569793702,45.419775212701396L56.505798029899594,56.69227368607663L56.5522093629837,88.18443245184704L56.92350002765655,96.2005933189748L57.132351026535034,116.26313308910932L57.15555669307708,54.09187658015676L57.387613358497624,76.77941084804792L57.619670023918154,86.88757491848448L58.01416635513306,94.09544163754188L58.66392501831055,105.98191044255229L59.267272348403935,110.36685382129787L59.592151679992675,128.3862273445083L59.986648011207585,126.30390900471967L60.24191034317016,132.41229855092467L60.311527342796325,122.73026529590216L60.54358400821686,125.92300876774767L61.12372567176819,118.17669668654786L61.239754004478456,69.72963542860093L61.40219367027283,77.35453585587419L61.65745600223541,69.85596681767385L61.866307001113896,69.76369981707339L62.051952333450316,70.69004033468616L62.098363666534425,43.67738347781802L62.49285999774933,48.50795082272455L62.956973328590394,85.8010547713204L63.30505832672119,89.06567499612049L63.51390932559967,101.31862387423875L63.72276032447815,95.7967646558326L63.93161132335663,100.26429062602105L64.04763965606689,75.29716225474694L64.32610765457153,106.93564681846229L64.76701531887055,123.1639228307917L64.7902209854126,127.04426426470756L64.81342665195466,125.52650731735618L64.90624931812286,103.5478426816012L64.97586631774902,57.978615572076976L65.25433431625366,-1.094489382139696L65.30074564933777,48.72326705431914L65.57921364784241,74.90683991107838L66.06653264522552,105.33213015573035L66.20576664447785,116.150340966492L66.25217797756196,107.1289036585594L66.5770573091507,113.9056300451515L66.73949697494507,108.1828494274535L66.80911397457123,106.23499835971276L66.85552530765534,125.74667564785473L67.64451797008515,116.74510336187659L67.69092930316926,117.27789410192308L67.71413496971131,130.6519494193684L67.73734063625335,129.69556223253426L68.03901430130006,127.46137883281472L68.0622199678421,130.40503062555612L68.31748229980468,135.94090270987016L68.64236163139343,145.43785412554567L68.78159563064575,143.4134232121125L69.06006362915039,63.43303568999592L69.22250329494476,91.70984856513518L69.4545599603653,100.85176498519135L69.52417695999145,116.85288629503907L69.61699962615967,89.47105234605782L69.73302795886994,107.49351154803475L69.756233625412,119.62365999163745L69.84905629158021,67.3591960092876L70.01149595737458,104.46709501597668L70.75407728672027,105.74466501683716L70.89331128597259,68.02091079290784L71.49665861606597,99.02076593858558L71.56627561569213,120.95506199670889L71.58948128223419,129.38291353513858L71.84474361419677,120.78743427932416L72.4248852777481,132.57857947590855L72.49450227737428,77.86581937819234L72.51770794391632,93.85663099116275L72.63373627662658,114.44591725850687L72.7265589427948,115.39550956367604L72.84258727550507,112.9127892768302L72.95861560821534,126.79207983136786L73.19067227363585,127.61718883758806L73.46914027214049,130.79825042026746L74.04928193569184,110.12486886957593L74.1653102684021,121.9793777399175L74.28133860111237,130.99785932923476L74.58301226615905,128.71329354138373L75.30238792896272,139.20380374854057L75.81291259288787,137.52842465226314L76.04496925830841,140.48979874414442L76.36984858989716,141.69824833257513L76.43946558952332,117.27760142657377L76.81075625419616,110.06798059284189L76.83396192073822,65.8237197341128L77.32128091812135,100.1935997890771L77.62295458316802,119.45117940024436L77.7389829158783,101.58911490123032L78.15668491363526,114.91152127492222L78.22630191326141,109.22002392502867L78.31912457942963,127.8229148442932L78.45835857868195,96.26242710338748L78.50476991176605,117.2960294427684L78.62079824447632,75.72573081690223L78.73682657718659,101.37098762530988L78.89926624298096,64.6164844461565L79.03850024223327,98.15921880684608L79.1777342414856,108.41064164425586L79.27055690765381,120.5283950231315L79.47940790653229,118.87419356374942L80.9181592321396,127.30442421633339L81.15021589756012,90.43465559229274L81.28944989681244,116.85723161033833L81.56791789531708,97.58968781047292L81.84638589382172,109.68242777377613L82.17126522541045,125.03005499251624L82.21767655849457,134.15364456396958L82.98346355438233,123.59680799294851L83.05308055400849,129.1289305649228L83.49398821830749,129.09889663323233L83.63322221755982,136.58002504424084L83.77245621681213,138.04731913789522L84.56144887924194,146.62873973980862L84.90953387737274,143.45344990662377L85.09517920970916,123.23383655658864L85.21120754241943,135.09776924631268L85.35044154167176,139.41695519133214L85.48967554092407,147.47622468458798L85.51288120746612,131.05929245901743L87.1140721988678,143.10835555872868L87.43895153045655,130.16359492247386L87.90306486129761,129.02902236087826L87.97268186092377,132.79080622839675L88.25114985942841,111.27935996801799L88.97052552223205,120.10588682286236L89.04014252185821,129.85345087056388L89.10975952148438,96.55377118309092L89.41143318653107,104.4313795213314L89.45784451961516,117.55919665676022L89.59707851886749,132.82061450949274L89.68990118503571,135.65320658402143L90.24683718204498,136.00665446756534L90.40927684783935,129.5371055998998L90.61812784671784,142.5208951173826L90.87339017868041,144.25389298737235L91.05903551101684,149.99698336705367L91.15185817718505,150.92474208769687L91.45353184223175,152.31924240075148L91.47673750877381,143.25270494038344L91.5231488418579,144.72697358508915L91.54635450839996,149.95041978639975L91.91764517307281,151.97965962990654L92.05687917232514,156.21744642267143L92.38175850391387,157.05571939496616L92.59060950279236,155.64917578519103L92.84587183475493,149.0099817407175L93.2635738325119,154.12792543328158L93.44921916484833,154.02599080648577L94.09897782802581,155.77401159005112L94.19180049419403,153.90715634502806L94.37744582653045,105.54559813248224L94.53988549232484,122.87629629922414L94.56309115886688,105.28878248495899L94.58629682540894,114.65841440002889L94.77194215774536,130.55073982739168L94.88797049045563,142.55779880025997L94.95758749008179,144.27810804489854L95.51452348709107,118.3247172255424L95.67696315288545,134.71599580644556L95.90901981830596,145.85282230041557L96.02504815101624,150.8195330000945L96.32672181606293,147.86416703002868L96.90686347961424,125.77164960592341L97.5334164762497,100.61757821119687L97.55662214279175,89.48593295016936L97.60303347587585,118.59528491099286L97.67265047550201,134.0666092193243L97.74226747512817,142.01200240390892L97.88150147438049,144.36685804528256L97.9743241405487,136.5576715689117L98.06714680671692,129.1372442960672L98.36882047176361,135.74363094415546L98.94896213531494,145.14288443357606L99.45948679924012,146.52605085517226L99.69154346466064,152.06172978317716L99.78436613082886,155.035313279178L99.90039446353913,143.23775002309858L100.03962846279144,149.6509638286207L101.03747212409974,151.73241121696643L101.08388345718383,119.24692541732999L101.10708912372588,128.7659680345068L101.15350045681001,139.46507998062938L101.22311745643616,141.42916808746844L101.29273445606232,142.4745441228264L101.5015854549408,128.9350987412649L101.66402512073516,140.1991915531753L101.73364212036132,142.49853705344748L101.78005345344543,131.98414367850688L102.01211011886598,138.7294739574L102.29057811737061,143.43210659902445L102.38340078353882,148.2233061633445L102.52263478279113,153.46894921531813L102.80110278129577,156.52222775639257L102.84751411437989,155.84978016935017L103.42765577793122,157.75836605299276L103.63650677680968,150.85713699401515L103.7293294429779,152.3827363040911L104.00779744148254,156.07239538535438L104.07741444110871,158.73092032955384L104.33267677307128,138.95300527499262L104.40229377269745,135.72256931523478L104.61114477157592,138.85781001410717L104.77358443737029,147.34138924527113L104.95922976970672,139.34813604135525L105.00564110279083,142.0844984538249L105.1680807685852,143.39839137938242L105.23769776821136,150.16440561970555L105.40013743400574,141.79936445205334L105.6089884328842,118.99820761631982L105.84104509830475,133.12849787488904L105.95707343101502,116.56169577403979L106.04989609718324,134.87307903099162L106.3051584291458,144.76357978386218L106.35156976222993,151.42793723066495L106.37477542877197,153.9502694957475L106.83888875961303,156.6273656095902L107.23338509082794,149.0152545427404L107.44223608970641,132.57844683156395L107.72070408821105,141.6497540079949L108.23122875213623,139.69039882086005L108.25443441867827,146.59599014077853L108.3472570848465,149.04002430647478L108.3936684179306,150.62791368695932L108.50969675064087,155.0049918804769L108.62572508335114,128.4928027056027L108.8345760822296,138.44177808550054L108.88098741531373,147.6311250856084L109.48433474540711,123.98764156449042L109.62356874465942,128.0339061290728L109.90203674316406,135.71591947068967L110.9230860710144,145.41438339366522L111.73528439998627,148.15694104302577L111.94413539886476,152.85743871994922L112.80274506092071,153.8623372230611L113.24365272521973,156.4651598821503L113.38288672447204,157.14672230181975L113.4060923910141,159.431379727637L113.49891505718232,152.4500485434975L113.73097172260285,152.01186064192507L113.77738305568695,155.39425804166441L114.00943972110748,157.9348607489323L115.12331171512604,157.44358517279267L115.23934004783631,145.13252113181835L115.2857513809204,139.64170930490715L115.49460237979889,141.5351456820351L115.9355100440979,148.9341098505494L115.95871571063995,154.22998906252462L116.70129703998565,157.48545566698127L116.93335370540619,159.14687865944705L117.14220470428468,151.96427503701787L118.39531069755554,156.19640043447956L118.60416169643402,157.8121183357672L118.65057302951813,159.5570014384353L118.9522466945648,159.49267759457723L119.02186369419098,160.50522440752786L119.50918269157408,157.25787744205832L119.74123935699463,150.03075505587182L119.83406202316284,146.48092007939422L120.08932435512543,146.5851344521042L121.24960768222809,152.89854290072904L121.55128134727478,117.96620563968337L121.7369266796112,134.51995905468806L121.82974934577942,145.65394461560993L122.01539467811584,151.68563823322376L122.40989100933075,138.38524152291578L122.68835900783539,146.24985207820436L122.96682700634003,114.2236600343417L123.31491200447083,115.7011843931691L123.61658566951752,134.55555830646753L123.68620266914367,145.51040912420558L124.70725199699403,144.18120923254952L125.03213132858276,146.73631332891054L125.14815966129304,153.00894228091067L125.28739366054535,153.072279044734L125.3105993270874,157.0193352156345L125.56586165905,159.2498540924773L125.58906732559204,151.63843775827826L126.33164865493774,155.20891474413708L126.40126565456391,157.50485077881063L126.42447132110595,159.58096210813866L126.47088265419006,159.98422355990726L126.81896765232086,161.1264700516053L127.0974356508255,161.29174043366083L127.16705265045167,161.90263696346335L127.23666965007783,162.2736833253094L127.72398864746094,155.81287980280032L127.8400169801712,158.53841793157542L128.42015864372254,159.49591957831436L128.65221530914306,160.85776589250443L129.00030030727387,161.27515089342953L129.0931229734421,157.18089290565806L129.11632863998412,159.33756453378243L129.16273997306823,159.53886579300615L129.2323569726944,151.02623546248117L129.37159097194672,155.11339553440422L129.81249863624572,121.34267627650536L129.928526968956,136.59932091001545L129.99814396858216,147.14175296760519L130.29981763362883,150.51252312716602L130.53187429904938,151.50187787949508L130.92637063026427,155.64006046850628L131.0191932964325,157.24781368084834L131.13522162914276,159.2969795770954L131.43689529418944,157.6356855732787L131.52971796035766,157.8137993039006L131.73856895923615,153.440414307842L131.8081859588623,156.34425382264442L131.97062562465666,158.8590042641117L131.99383129119872,158.27583288707004L132.06344829082488,159.46066657179782L132.29550495624542,160.74159992757234L132.5043559551239,156.56061396473643L132.8988522863388,159.10129825310216L133.01488061904908,158.44940001054124L133.13090895175935,143.95792119182127L133.2469372844696,147.60518427000432L133.47899394989014,147.55486649315807L133.5021996164322,151.58538466680784L133.78066761493682,155.64331818061905L133.8966959476471,154.67156021475697L133.91990161418914,157.92990697778112L134.5928659439087,157.91446591713031L134.82492260932924,159.73925701398L134.8481282758713,159.24218456186327L134.89453960895537,160.1681650011398L134.94095094203948,161.1373900431507L135.21941894054413,161.8783400194586L135.3818586063385,161.84769669184635L135.56750393867492,161.29119940645765L136.4261136007309,161.0750387902516L136.72778726577758,161.2865331683708L136.75099293231963,161.7749344515229L137.09907793045045,161.95666329456634L137.21510626316072,162.36341336563493L138.07371592521667,158.19162391922228L138.212949924469,160.06018626109832L138.42180092334746,161.21644548113136L138.5610349225998,149.71782685256858L138.97873692035674,153.77241258855724L139.18758791923523,153.94327251103692L139.512467250824,157.4589396516328L139.535672917366,159.6069467262611L139.81414091587067,160.7524653668787L139.9997862482071,160.89938512984816L140.2550485801697,161.4667793989376L140.32466557979583,120.0708400814994L140.95121857643127,135.3246403560276L140.97442424297333,146.3832149998068L141.55456590652466,152.64555810928493L141.5777715730667,156.77757939358602L141.97226790428164,159.09868569823888L142.15791323661804,151.2264453127702L142.29714723587037,126.72979134988375L142.64523223400116,140.5757423141614L142.73805490016935,149.52107633952346L143.03972856521608,153.56357154710008L143.52704756259917,142.10554867831897L144.24642322540285,143.9723486982577L144.78015355587007,151.56744815886907L145.4995292186737,156.0700308039981L145.66196888446808,158.70037806915326L146.01005388259887,159.95045462154212L146.61340121269225,161.15580157219583L146.72942954540252,161.84778747260395L146.89186921119688,162.06359696510805L146.93828054428099,162.06270053400473L147.07751454353334,161.91815157445342L147.30957120895386,162.29491096675213L147.44880520820618,162.5287916025755L147.51842220783234,162.64201749908747L147.6808618736267,162.68067406182286L147.9361242055893,162.59589853969334L147.95932987213135,162.26703842586844L148.05215253829954,162.51066890578042L148.14497520446778,161.99203308314506L149.09640753269196,161.1079164577063L149.74616619586942,161.86429306831562L149.90860586166383,162.30709731427086L149.93181152820586,162.19532723280386L150.04783986091616,162.44484086414417L150.0710455274582,162.62636725667488L150.18707386016845,160.81152487041797L150.3031021928787,161.56963047065256L150.39592485904694,162.13250215646028L150.97606652259827,157.2620784733237L151.16171185493468,159.5347306427419L151.37056285381317,160.9086084515992L151.48659118652344,161.51687961968338L151.99711585044858,162.06202461552925L152.20596684932707,161.4685080839621L152.4380235147476,162.02419209094742L152.50764051437378,159.25004089491227L152.53084618091583,160.61512087905106L152.71649151325227,161.3617228389322L152.8557255125046,161.94799478430082L153.38945584297178,162.3483144112317L153.59830684185027,162.56645626892012L153.71433517456055,162.3422366448344L153.85356917381287,162.2356883156799L154.29447683811188,161.9597069882703L154.36409383773804,162.37497548886688L154.50332783699034,162.6250013554163L154.61935616970064,162.73195022348094L154.92102983474732,161.78734225196217L154.96744116783142,159.92535852136203L155.10667516708375,161.09731775068252L155.43155449867248,161.79588120192028L155.7796394968033,162.2793617638978L155.96528482913973,162.51987665042287L156.29016416072847,162.44943855028131L156.38298682689665,162.06225381631396L156.93992282390593,162.42407297654378L157.0559511566162,161.82922998951017L157.07915682315829,162.23041645886238L157.31121348857877,157.12390651378644L157.4968588209152,159.42406426180133L157.56647582054137,160.66926834003993L157.61288715362548,161.5912484541928L157.68250415325167,159.5980336877533L157.9609721517563,160.8517963576626L157.98417781829835,161.66131638007695L158.07700048446654,162.08209643619765L158.16982315063476,162.2830542020457L158.8427874803543,162.53722390224993L158.98202147960663,161.79985216192946L159.3069008111954,162.24753587355767L159.63178014278412,160.92458764927053L159.79421980857848,161.75229095077282L160.25833313941956,162.03490435164628L160.30474447250367,161.99967502955263L160.35115580558775,162.28873910953266L160.3743614721298,162.5510249963385L160.443978471756,162.70448402819991L160.4903898048401,162.81977534267423L160.6760351371765,161.94699626994648L160.69924080371854,162.3218565263169L160.93129746913908,162.30513044788052L161.14014846801757,162.5736337239133L161.25617680072784,162.42759146680146L161.39541079998017,161.4815998386479L162.0683751296997,162.0870359092973L162.50928279399872,162.39789984589825L162.57889979362488,162.64036566550462L162.88057345867156,162.71632054653415L162.95019045829773,162.83406420565558L163.69277178764344,162.77517360776596L163.92482845306395,162.71942169820443L164.36573611736299,162.71664869990417L164.69061544895172,162.55693025619124L164.78343811511994,162.73564788104355L165.10831744670867,161.87421724617238L166.05974977493287,162.30704056236556L166.17577810764314,162.5811667548874L166.22218944072722,162.72622247757636L166.59348010540006,162.82421609393106L166.6863027715683,162.61898327524761L166.8951537704468,162.7185192589283L167.01118210315704,162.81538369064893L167.22003310203553,162.86986191073294L167.40567843437194,162.86293153921017L167.56811810016632,162.89354533813773L167.59132376670837,162.46884240029252L167.7073520994186,162.67515801889203L167.86979176521302,162.76883279811065L167.9162030982971,162.76878575847545L168.00902576446535,162.861954715067L168.1250540971756,162.91794029846378L168.98366375923158,157.58616916474182L169.00686942577363,159.68675645419114L169.07648642539976,160.9428594898712L169.35495442390442,161.76055287534413L169.54059975624085,159.94752893729705L169.5638054227829,160.38562852697376L169.70303942203523,160.7394603885924L170.12074141979218,161.6432129491979L170.14394708633424,162.17698848135495L170.19035841941832,161.96552947411084L170.49203208446502,161.4758409283102L170.63126608371735,162.06294924983754L170.7937057495117,162.17504891455263L171.07217374801635,161.7264028066154L171.35064174652098,162.15918504924656L171.60590407848358,162.47059785802713L172.27886840820312,161.67644441145487L172.48771940708158,162.20575963363098L172.51092507362367,162.1725613815458L172.53413074016572,162.49488255733615L172.60374773979188,162.66867389580375L172.69657040596007,162.79607390715051L173.06786107063294,162.86046548612242L173.1374780702591,162.89488996141225L173.16068373680116,162.8656667464041L173.4855630683899,162.89915078387114L173.71761973381044,162.9305252715614L173.90326506614687,162.9592802006663L173.92647073268893,162.97575584020439L174.04249906539917,162.99223547099024L174.06570473194122,162.93252090693497L174.25135006427766,162.92001170624926L174.6690520620346,162.50876725563683L174.90110872745512,162.68681187593685L175.87574672222138,162.7994685325537L175.9685693883896,162.817275313433L176.15421472072603,161.63415451287568L176.47909405231476,162.13842672066144L176.68794505119322,162.48389799478826L176.87359038352966,162.68329098232644L176.96641304969788,162.04178354042168L177.08244138240815,162.32524941536786L177.2448810482025,162.44397413609616L177.29129238128664,162.6527812859444L177.56976037979126,162.7944540287703L177.66258304595948,160.3344669670982L177.7322000455856,161.3673007210059L177.77861137866972,161.95051237442513L177.87143404483797,162.32344797705417L177.91784537792208,162.59710991058645L178.03387371063232,162.73594383458078L178.08028504371643,162.8173008941651L178.31234170913694,162.89293583714993L178.42837004184724,162.93396058373662L178.5908097076416,162.95830337041494L178.86927770614622,162.85064988813147L179.00851170539858,161.98117099810912L179.31018537044525,162.37700383206823L179.35659670352936,162.61719823458338L179.40300803661347,162.74916280586632L179.84391570091248,162.49497580123742L180.4240573644638,162.6811021524494L180.44726303100586,161.49825860162017L180.47046869754791,161.42034352519502L180.65611402988435,162.04986107401623L180.70252536296846,162.42855944483856L180.74893669605257,161.41450214480753L180.8649650287628,162.0381296310784L181.21305002689363,162.3871080667749L181.67716335773468,160.95360778328686L181.79319169044496,161.42841835742385L181.88601435661317,161.279668181018L182.1180710220337,161.96098628944176L182.25730502128602,162.25567983841722L182.35012768745423,162.19647633520069L182.48936168670653,162.4855881093129L182.65180135250094,162.68810743122395L182.67500701904297,162.72770914803263L182.9070636844635,162.8214287913602L183.3479713487625,162.89104340096404L183.5104110145569,162.65265383128812L184.2994036769867,162.75859502083296L184.8331340074539,162.19178080805102L185.01877933979034,162.51169349747934L185.41327567100527,162.70990823690593L185.45968700408937,162.82269303013038L185.50609833717346,162.8968545107381L185.738155002594,162.9343101942329L185.90059466838835,162.95048085148855L186.08624000072479,162.950492682378L186.20226833343506,162.80896314208337L186.59676466464998,162.8853162155537L186.75920433044433,162.75524368500035L187.43216866016388,162.8478408841354L187.59460832595823,162.8977571710114L187.71063665866853,162.45934698277804L187.75704799175264,162.61311817412573L187.94269332408908,161.91374735890187L188.0123103237152,162.34506775747107L188.03551599025727,162.6032575752208L188.05872165679932,162.75284683808493L188.33718965530394,162.26792925391356L188.49962932109835,162.56359786957148L188.7548916530609,161.18387253295123L189.1029766511917,161.84071456756732L189.56708998203277,161.93622606277947L189.93838064670564,162.31720814384153L190.03120331287383,162.590486695512L190.07761464595794,162.7489348692474L190.19364297866824,162.83659982025378L190.28646564483643,162.7656052407961L190.30967131137848,162.83956731596254L190.40249397754667,162.8990439617539L190.47211097717286,162.65102186193337L190.65775630950927,162.78075400278507L190.70416764259338,162.869806098363L190.8898129749298,162.80822669106917L191.21469230651854,162.86983000427335L191.2378979730606,162.87452034301316L191.2843093061447,162.91441261127548L191.33072063922884,162.7121614113813L191.42354330539703,162.7645282923646L191.4467489719391,162.86240910353484L191.9340679693222,162.7944606790733L191.95727363586425,162.87530301374935L192.46779829978945,162.91151383604256L192.69985496520994,162.94836564070746L192.90870596408843,162.85805711861556L193.00152863025667,153.94058209830627L193.2567909622192,157.5645726058599L193.69769862651825,159.01069450771425L193.83693262577057,160.58049301980535L194.13860629081728,161.514359274784L194.23142895698547,162.10740411241014L194.39386862277982,162.3208328487907L194.50989695549012,162.5796349655898L194.92759895324707,162.74502136869316L194.97401028633118,162.84937703121025L195.29888961791994,162.91240175945575L195.9950596141815,162.9456692865423L196.1110879468918,162.92556878023893L196.36635027885438,161.6653431738229L197.13213727474212,162.14560970134357L197.27137127399445,162.48582400822778L197.7354846048355,162.66852452822815L198.36203760147094,160.8066592978632L198.47806593418122,161.67146767280076L198.80294526576995,162.10920070640213L198.8725622653961,162.44572459532617L199.12782459735868,162.6688014091864L199.80078892707826,162.6608841409461L199.8239945936203,162.16339194739814L199.84720026016237,162.4379094949194L200.07925692558288,162.6667228416402L200.1720795917511,162.1356210766355L200.24169659137723,162.48239274373046L200.4273419237137,162.68695457450065L200.82183825492856,162.6942664387622L202.12135558128358,162.8216867907098L202.51585191249845,162.89053100268825L202.58546891212464,162.85584822506547L202.7943199110031,162.83172200201219L203.14240490913392,162.89379265083622L203.3976672410965,162.9328099160592L203.81536923885346,162.95983480354386L204.16345423698425,162.97462465317233L204.27948256969452,162.1486234845188L205.18450356483459,162.42585817487497L205.20770923137664,162.1303393498768L205.2309148979187,162.47112988478207L205.99670189380646,162.68614334125724L206.0199075603485,162.80908833532797L206.55363789081574,162.87993391190258L206.94813422203063,162.93082333613773L206.9713398885727,162.9267145218251L207.110573887825,162.9550407395382L207.27301355361936,162.95065051075684L207.41224755287172,162.94628036345568L208.08521188259124,162.95873824281838L208.41009121417997,162.9782808312203L208.57253087997435,162.95767643623435L209.3151122093201,162.97009080809946L209.43114054203033,162.84787632369327L209.54716887474058,162.90008447792337L209.63999154090882,162.92493172108715L209.732814207077,162.94465943811988L210.12731053829194,162.3925000926185L210.22013320446015,162.61633903669465L210.80027486801148,162.77352469955505L210.91630320072173,162.83363086975032L210.93950886726378,162.84901791506476L211.14835986614227,162.91217009564502L211.19477119922638,162.94213276115906L211.26438819885254,162.88981490945764L211.65888453006744,162.9367584123201L211.70529586315155,162.93170065039686L211.7285015296936,162.95992065147388L211.82132419586182,162.97796033016306L211.86773552894593,162.99147236186693L212.93519618988037,162.99904517481588L213.21366418838502,163.0035240860915L213.60816051959992,163.00366571665276L214.00265685081482,162.88481133600342L214.09547951698303,162.92452561788923L214.1650965166092,162.95695326656508L214.44356451511382,162.97856367418754L214.79164951324464,162.98281100270324L214.81485517978666,162.98171896086427L214.9076778459549,162.98844177839823L215.07011751174926,162.99092731071815L215.13973451137542,162.99542749824445L215.32537984371186,163.0004757586584L216.25360650539398,162.99989666420532L216.57848583698274,161.10943589660818L216.76413116931914,161.86054406293195L216.92657083511352,162.29348611403813L217.06580483436585,162.17362546429663L217.22824450016023,162.49628536961282L217.2746558332443,162.6883784981477L217.41388983249666,162.7898499374001L218.04044282913208,162.8549044071486L218.31891082763673,162.90367947365667L218.64379015922546,162.93916953461016L218.73661282539368,162.92858705861138L219.5256054878235,162.25480649208234L219.54881115436552,161.91076085839774L220.12895281791685,162.3443317140166L220.1521584844589,162.53092699639217L220.2217754840851,162.72373494648278L220.77871148109435,162.7705914531106L220.82512281417848,162.86813280308093L220.94115114688873,162.8956296725603L220.98756247997284,162.934333176303L221.1035908126831,162.95421281147148L221.21961914539338,162.96195603107677L221.86937780857085,162.97945361919852L222.47272513866426,162.9581210030463L222.797604470253,162.95856174867603L223.2849234676361,162.97410697092783L223.54018579959867,162.98445109523067L223.65621413230897,162.85742527748192L223.77224246501922,162.91228502192146L223.84185946464538,161.55218884829264L223.88827079772952,162.13263785624537L224.02750479698182,162.45591325090626L224.3755897951126,162.6698944242694L224.46841246128082,162.79896328147157L224.49161812782287,162.87769688684304L224.51482379436493,162.92615808697298L224.56123512744904,162.95340810992738L224.67726346015928,162.97063260636554L224.93252579212188,162.98314055559354L225.1181711244583,162.99258538111792L225.5126674556732,162.97930515201276L225.65190145492554,162.97282687390575L225.79113545417783,162.98405874068112L226.78897911548614,162.91978986830534L226.97462444782258,162.92934452443214L227.0210357809067,162.96273364211177L227.32270944595336,162.96283214677015L227.39232644557953,162.86145126036374L227.53156044483185,162.91897909906228L227.62438311100007,162.94553801002513L227.64758877754213,162.9632352772326L227.83323410987856,162.9707573211562L228.13490777492524,162.98393116472377L228.22773044109346,162.44595100279383L228.2973474407196,162.66550409949863L228.36696444034578,162.80035170687054L228.50619843959808,162.88132180896275L228.57581543922424,162.91556559332807L228.6454324388504,162.9492355815796L228.85428343772887,162.96196236715255L229.17916276931763,162.94342873502418L229.4344251012802,162.96288306079384L229.57365910053252,162.96658814752524L229.66648176670074,162.98047096843783L229.82892143249512,162.94064581553687L229.96815543174742,162.96552742358472L230.08418376445772,162.97844183945801L230.13059509754183,162.97585863823002L230.26982909679413,162.9863247570825L230.59470842838286,162.97049621107956L230.641119761467,162.97842396029463L230.71073676109313,162.98702185590264L230.8963820934296,162.9954647615002L230.94279342651367,162.82236923646815L231.08202742576597,162.0153112606743L231.54614075660706,162.24505594453146L231.59255208969117,162.50755863940464L232.10307675361634,162.6774714325297L232.24231075286863,162.80288115443847L232.6136014175415,162.87813994288243L232.72962975025177,162.93095179750924L232.98489208221434,162.95053866125414L233.07771474838256,161.15820065226643L233.10092041492462,161.7859273309607L233.2169487476349,162.27729870271946L233.44900541305543,162.48143119570992L233.54182807922362,162.6951030393955L233.63465074539184,162.8173985293775L233.68106207847595,162.73750168387215L233.79709041118622,162.37272879037346L234.02914707660676,162.3870604317488L234.37723207473755,162.44685875722848L234.56287740707398,162.65059955840172L234.6557000732422,162.78104474321353L235.3982814025879,162.828011852324L236.21047973155973,162.89933002379843L236.32650806427003,162.93799142520695L236.44253639698027,162.9674813024192L236.46574206352233,162.9785583099107L236.60497606277465,162.9126030202185L236.65138739585876,162.95015597867825L237.2315290594101,162.96810481682175L237.37076305866242,162.9783105642123L237.62602539062502,162.9732276792291L237.74205372333526,162.8695541428589L238.4614293861389,162.9259071987098L239.13439371585847,162.37860586802773L239.48247871398925,162.03846165835478L239.52889004707336,162.37945637209907L239.7609467124939,161.68677892549252L239.80735804557798,162.19839938308849L240.2018543767929,162.5251187717636L240.24826570987702,162.71470838266592L240.29467704296113,162.82346140389035L240.31788270950318,162.89846531775802L240.43391104221345,162.94084097925736L240.52673370838167,162.96102595781315L240.75879037380219,162.49255366021836L241.08366970539095,162.25668427429406L241.29252070426944,162.54973518396213L241.36213770389557,162.7344498258798L241.61740003585817,162.8380851814003L241.66381136894228,162.87793793731936L241.6870170354843,162.91476602372313L241.87266236782074,162.94603522707942L242.26715869903563,162.76151515642908L242.98653436183932,162.84042982182197L243.05615136146545,162.86338379351412L243.89155535697938,162.91373546254604L243.96117235660552,162.93978781306689L244.05399502277373,162.32899166298893L244.610931019783,161.67698566617264L244.75016501903534,162.19560678859872L244.79657635211944,162.38007664029317L244.8661933517456,162.62703533884624L245.1678670167923,162.23393817626206L245.3071010160446,162.53033537249854L246.02647667884824,162.6880282006864L246.09609367847443,162.81430340891598L246.39776734352114,162.40190639935753L246.42097301006316,162.52230475216643L246.58341267585755,162.71777132672366L246.9082920074463,162.07789503022022L247.32599400520326,162.44913037754867L247.58125633716583,162.6690052260976L247.650873336792,162.79141446829613L247.83651866912842,162.02852422525075L247.85972433567048,162.42023986894628L247.97575266838072,162.63102665238029L248.3470433330536,162.77104996493173L248.50948299884794,162.85588013628373L248.76474533081054,162.70576382371186L248.8343623304367,162.82438446606037L249.2752699947357,162.71712999945453L249.76258899211885,162.18518172175825L250.06426265716553,162.51729829500482L250.1338796567917,162.6347587661801L250.45875898838042,162.72674084480792L250.6676099872589,162.83895607825124L251.17813465118408,162.7531309153361L251.3637799835205,162.84853595009724L251.52621964931487,162.86741833135937L251.80468764781952,162.92153911188322L251.94392164707185,162.9489395807375L252.05994997978212,162.9682073560019L252.2688009786606,162.98660194125043L252.59368031024934,162.96409418511476L252.87214830875396,162.94538150133644L252.98817664146424,162.93031912263987L253.1042049741745,162.96055568357826L253.22023330688475,162.97755431502674L253.2434389734268,162.28924589009287L253.38267297267916,162.56850131316588L253.47549563884735,162.7414698818866L254.17166563510892,162.8492930763286L254.3805166339874,162.90326000562993L254.51975063323977,162.91870111009698L254.5429562997818,162.95367556314378L254.63577896595,162.95807097492428L255.03027529716493,162.97144816465516L255.07668663024904,162.62107261626338L255.16950929641723,162.7712248325178L255.26233196258545,162.86261493096998" fill="none"></path></g></g></g></g><g opacity="0.2"><g><g><g><path style="fill: none;" stroke="rgb(255, 112, 67)" stroke-width="2px" d="M32.603961491584776,-62.77681747049902L33.11448615550995,26.00118094602658L33.369748487472535,28.3611181660694L33.64821648597717,48.85640078633598L34.089124150276184,-71.7957782473162L34.20515248298645,6.607616931339947L34.46041481494903,62.527868449746165L34.530031814575196,77.4523726081198L34.55323748111725,65.29304741464485L34.762088479995725,64.01720959388388L35.36543581008911,-44.73267737346535L35.64390380859375,0.5155172478038106L36.17763413906098,-23.741984129052785L36.29366247177124,25.099492153124825L37.24509479999543,-42.14576331934725L37.91805912971496,24.148055013028507L38.126910128593444,37.183158401908045L38.17332146167755,-205.52244477804368L38.28934979438782,125.20560379541601L38.38217246055603,-16.741977109215583L38.79987445831299,-166.52077700139378L39.65848412036895,2.2411630411157666L39.79771811962127,32.936929684070755L40.354654116630556,25.225935868911048L40.88838444709778,38.71188365424144L41.16685244560242,79.63611776518184L41.213263778686525,-30.04862355986552L41.422114777565,80.22584296421758L41.53814311027527,23.71793909457538L41.86302244186402,98.90842018358168L42.04866777420044,95.88828093931079L42.373547105789186,124.64282561777733L42.41995843887329,21.993329725163317L42.53598677158356,2.2069610524195014L42.559192438125606,112.40369578401106L42.698426437377925,103.98586086912837L42.79124910354614,33.063373399856985L43.139334101676944,48.65948024535744L43.603447432518,87.09215130096933L43.74268143177032,44.212185290942095L43.9051210975647,36.18922788191635L44.36923442840576,30.283684500359893L44.392440094947816,-40.08017048687236L44.531674094200135,83.61494911684825L45.111815757751465,146.26573744112102L45.459900755882266,-24.304762306691465L45.483106422424314,-68.6098111790634L45.62234042167663,38.44759555977024L45.80798575401306,28.8264724971187L46.063248085975644,26.63858164445712L46.272099084854126,115.15643766211109L46.29530475139618,94.69224775884112L46.52736141681671,128.8268689016214L46.71300674915314,72.14380939289829L46.73621241569519,123.01564009495465L46.7826237487793,142.5936875638212L47.22353141307831,5.410547326970384L47.29314841270447,-22.305500603809325L47.618027744293215,29.824548712709923L47.66443907737732,116.31723242998459L47.710850410461425,52.63727517312399L47.96611274242401,51.36661947186246L48.3141977405548,72.00389216641354L48.337403407096865,103.64902310166508L48.84792807102203,100.13036396154851L48.963956403732304,103.22823499831094L49.07998473644256,127.74898804573884L49.10319040298462,-31.5244911933047L49.47448106765747,53.314059979750226L49.52089240074158,55.18687796684614L49.56730373382568,68.82621648935982L49.79936039924622,132.89897840427764L50.495530395507814,106.69714579123291L50.72758706092834,81.89241259523597L50.913232393264764,91.30936014960977L51.122083392143246,60.929702796120324L51.14528905868531,55.9517588049628L51.4933740568161,113.06804350383867L51.795047721862794,6.6034712357404L51.91107605457306,-3.873737968217886L51.95748738765716,3.951262475929408L52.46801205158234,81.12649533321942L52.5376290512085,144.77328702528365L52.60724605083466,140.42445234135758L52.816097049713136,-41.15494207105525L52.955331048965455,28.82543607321881L53.46585571289063,43.1457050979583L53.74432371139527,117.77962655272523L53.906763377189634,-75.17348373704814L53.9763803768158,129.16267024518478L54.51011070728302,27.69884329404158L54.788578705787664,110.9112453681737L54.90460703849792,126.29903100979685L54.95101837158203,132.1019684252645L55.09025237083435,102.91834425224471L55.13666370391846,95.702761061231L55.15986937046051,84.36428359646659L55.22948637008667,108.68086113561675L55.27589770317078,127.89512381562292L55.57757136821747,85.07216112008946L55.92565636634827,43.6183143963068L56.25053569793702,-3.4508770170639633L56.505798029899594,73.6010213961395L56.5522093629837,135.4226706005026L56.92350002765655,108.22483461966644L57.132351026535034,146.35694274431108L57.15555669307708,-39.16500818327208L57.387613358497624,110.81071224988466L57.619670023918154,102.04982102413936L58.01416635513306,104.90724171612797L58.66392501831055,123.81161365006791L59.267272348403935,116.94426888941626L59.592151679992675,155.41528762932398L59.986648011207585,123.18043149503669L60.24191034317016,141.57488287023222L60.311527342796325,108.20721541336837L60.54358400821686,130.71212397551594L61.12372567176819,106.55722856474816L61.239754004478456,-2.94095645831954L61.40219367027283,88.79188649678412L61.65745600223541,58.608113260373315L61.866307001113896,69.62529931617274L62.051952333450316,72.0795511111053L62.098363666534425,3.1583981925158175L62.49285999774933,55.75380184008437L62.956973328590394,141.74071069421413L63.30505832672119,93.96260533332064L63.51390932559967,119.69804719141618L63.72276032447815,87.51397582822337L63.93161132335663,106.96557958130367L64.04763965606689,37.84646969783576L64.32610765457153,154.39337366403532L64.76701531887055,147.50633684928584L64.7902209854126,132.86477641558136L64.81342665195466,123.24987189632913L64.90624931812286,70.57984572796872L64.97586631774902,-10.375225092209375L65.25433431625366,-89.70414681346469L65.30074564933777,123.44990170900732L65.57921364784241,114.18219919621725L66.06653264522552,150.97006552270838L66.20576664447785,132.37765718263444L66.25217797756196,93.59674769666051L66.5770573091507,124.07071962503967L66.73949697494507,99.59867850090646L66.80911397457123,103.31322175810168L66.85552530765534,155.01419158006766L67.64451797008515,103.24274493290935L67.69092930316926,118.07708021199281L67.71413496971131,150.7130323955364L67.73734063625335,128.26098145228306L68.03901430130006,124.11010373323538L68.0622199678421,134.82050831466825L68.31748229980468,144.24471083634126L68.64236163139343,159.68328124905887L68.78159563064575,140.37677684196277L69.06006362915039,-56.53754559317895L69.22250329494476,134.12506787784403L69.4545599603653,114.56463961527558L69.52417695999145,140.8545682598107L69.61699962615967,48.3983014225859L69.73302795886994,134.5272003510002L69.756233625412,137.8188826570415L69.84905629158021,-11.037499964237213L70.01149595737458,160.1289435260103L70.75407728672027,107.66102001812789L70.89331128597259,11.435279457013861L71.49665861606597,145.52054865710224L71.56627561569213,153.85650608389383L71.58948128223419,142.02469084278317L71.84474361419677,107.89421539560247L72.4248852777481,150.26529727078517L72.49450227737428,-4.203320768381959L72.51770794391632,117.84284841061834L72.63373627662658,145.329846659523L72.7265589427948,116.81989802142982L72.84258727550507,109.18870884656141L72.95861560821534,147.6110156631744L73.19067227363585,128.85485234691834L73.46914027214049,135.5698427942866L74.04928193569184,79.11479654353865L74.1653102684021,139.76114104542984L74.28133860111237,144.52558171321064L74.58301226615905,125.2864448596072L75.30238792896272,154.9395690592758L75.81291259288787,135.015356007847L76.04496925830841,144.93185988196637L76.36984858989716,143.51092271522123L76.43946558952332,80.64663106757172L76.81075625419616,99.25354934224407L76.83396192073822,-0.5426715539808877L77.32128091812135,151.74841987152354L77.62295458316802,148.33754881699525L77.7389829158783,74.79601815270928L78.15668491363526,134.89513083546012L78.22630191326141,100.68277790018831L78.31912457942963,155.72725122318997L78.45835857868195,48.921695492028874L78.50476991176605,148.8464329518398L78.62079824447632,13.370282878102996L78.73682657718659,139.83887283792137L78.89926624298096,9.484729677426412L79.03850024223327,148.47332034788045L79.1777342414856,123.7877759003705L79.27055690765381,138.70502509144495L79.47940790653229,116.39289137467634L80.9181592321396,139.94977019520928L81.15021589756012,35.13000265623178L81.28944989681244,156.49109563740672L81.56791789531708,68.68837211067485L81.84638589382172,127.82153771873094L82.17126522541045,148.05149582062643L82.21767655849457,147.83902892114958L82.98346355438233,107.76155313641692L83.05308055400849,137.4271144228842L83.49398821830749,129.05384573569665L83.63322221755982,147.80171766075364L83.77245621681213,140.24826027837676L84.56144887924194,159.50087064267873L84.90953387737274,138.69051515684652L85.09517920970916,92.90441653153596L85.21120754241943,152.89366828089874L85.35044154167176,145.89573410886135L85.48967554092407,159.56512892447176L85.51288120746612,106.4338941206616L87.1140721988678,161.18195020829558L87.43895153045655,110.74645396809166L87.90306486129761,127.32716351848481L87.97268186092377,138.43348202967454L88.25114985942841,79.01219057744983L88.97052552223205,133.34567710512897L89.04014252185821,144.4747969421162L89.10975952148438,46.60425165188141L89.41143318653107,116.24779202869216L89.45784451961516,137.2509223599034L89.59707851886749,155.71274128859156L89.68990118503571,139.9020946958145L90.24683718204498,136.53682629288122L90.40927684783935,119.8327822984015L90.61812784671784,161.99657939360677L90.87339017868041,146.85338979235698L91.05903551101684,158.61161893657564L91.15185817718505,152.31638016866168L91.45353184223175,154.41099287033342L91.47673750877381,129.65289874983137L91.5231488418579,146.9383765521477L91.54635450839996,157.78558908836567L91.91764517307281,155.02351939516666L92.05687917232514,162.57412661181885L92.38175850391387,158.3131288534082L92.59060950279236,153.53936037052839L92.84587183475493,139.05119067400722L93.2635738325119,161.80484097212766L93.44921916484833,153.87308886629202L94.09897782802581,158.39604276539913L94.19180049419403,151.10687347749345L94.37744582653045,33.003260813663545L94.53988549232484,148.872343549337L94.56309115886688,78.90751176356123L94.58629682540894,128.7128622726338L94.77194215774536,154.38922796843576L94.88797049045563,160.5683872595624L94.95758749008179,146.85857191185642L95.51452348709107,79.39463099650816L95.67696315288545,159.30291367780032L95.90901981830596,162.55806204137062L96.02504815101624,158.2695990496129L96.32672181606293,143.4311180749299L96.90686347961424,92.63287346976554L97.5334164762497,62.88647111910711L97.55662214279175,72.78846505862805L97.60303347587585,162.25931285222813L97.67265047550201,157.27359568182146L97.74226747512817,153.9300921807858L97.88150147438049,147.89914150734302L97.9743241405487,124.84389185435542L98.06714680671692,118.00660338680049L98.36882047176361,145.65321091628778L98.94896213531494,159.241764667707L99.45948679924012,148.60080048756654L99.69154346466064,160.36524817518458L99.78436613082886,159.4956885231793L99.90039446353913,125.5414051389794L100.03962846279144,159.27078453690382L101.03747212409974,154.8545822994851L101.08388345718383,70.51869671787539L101.10708912372588,143.04453196027202L101.15350045681001,155.51374789981324L101.22311745643616,144.37530024772704L101.29273445606232,144.04260817586328L101.5015854549408,108.62593066892273L101.66402512073516,157.0953307710409L101.73364212036132,145.9475553038557L101.78005345344543,116.212553616096L102.01211011886598,148.84746937573968L102.29057811737061,150.48605556146111L102.38340078353882,155.41010550982455L102.52263478279113,161.3374137932786L102.80110278129577,161.10214556800426L102.84751411437989,154.84110878878656L103.42765577793122,160.62124487845668L103.63650677680968,140.50529340554877L103.7293294429779,154.67113526920505L104.00779744148254,161.60688400724925L104.07741444110871,162.7187077458531L104.33267677307128,109.28613269315079L104.40229377269745,130.87691537559797L104.61114477157592,143.5606710624158L104.77358443737029,160.06675809201707L104.95922976970672,127.35825623548142L105.00564110279083,146.18904207252936L105.1680807685852,145.36923076771873L105.23769776821136,160.3134269801902L105.40013743400574,129.25180270057507L105.6089884328842,84.7964723627195L105.84104509830475,154.3239332627429L105.95707343101502,91.71149262276595L106.04989609718324,162.34015391641933L106.3051584291458,159.59933091316802L106.35156976222993,161.42447340086915L106.37477542877197,157.73376789337132L106.83888875961303,160.6430097803543L107.23338509082794,137.59708794246566L107.44223608970641,107.9232352647993L107.72070408821105,155.25671477264123L108.23122875213623,136.75136604015785L108.25443441867827,156.95437712065623L108.3472570848465,152.7060755550192L108.3936684179306,153.0097477576861L108.50969675064087,161.5706091707532L108.62572508335114,88.72451894329146L108.8345760822296,153.36524115534735L108.88098741531373,161.41514558577015L109.48433474540711,88.52241628281348L109.62356874465942,134.10330297594638L109.90203674316406,147.23893948311496L110.9230860710144,159.96207927812847L111.73528439998627,152.27077751706665L111.94413539886476,159.90818523533434L112.80274506092071,155.36968497772895L113.24365272521973,160.3693938707841L113.38288672447204,158.1690659313239L113.4060923910141,162.85836586636287L113.49891505718232,141.97805176728826L113.73097172260285,151.3545787895665L113.77738305568695,160.4678541412734L114.00943972110748,161.7457648098341L115.12331171512604,156.70667180858322L115.23934004783631,126.66592507035688L115.2857513809204,131.4054915645404L115.49460237979889,144.37530024772704L115.9355100440979,160.03255610332081L115.95871571063995,162.1738078804875L116.70129703998565,162.36865557366625L116.93335370540619,161.63901314814575L117.14220470428468,141.19036960337408L118.39531069755554,162.5445885306721L118.60416169643402,160.23569518769867L118.65057302951813,162.1743260924374L118.9522466945648,159.39619182879014L119.02186369419098,162.0240446269538L119.50918269157408,152.38685699385397L119.74123935699463,139.1900714765921L119.83406202316284,141.15616761467783L120.08932435512543,146.74145601116916L121.24960768222809,162.36865557366625L121.55128134727478,65.56769974811492L121.7369266796112,159.35058917719513L121.82974934577942,162.35492295699274L122.01539467811584,160.73317865964447L122.40989100933075,118.43464645745385L122.68835900783539,158.0467679111372L122.96682700634003,66.18437196854771L123.31491200447083,117.91747093141021L123.61658566951752,162.83711917641517L123.68620266914367,161.94268535081264L124.70725199699403,142.18740939506543L125.03213132858276,150.56896947345209L125.14815966129304,162.41788570891086L125.28739366054535,153.16728419046893L125.3105993270874,162.93991947198523L125.56586165905,162.5956324077415L125.58906732559204,140.2213132569797L126.33164865493774,160.56463022292533L126.40126565456391,160.94875483082097L126.42447132110595,162.69512910213066L126.47088265419006,160.58911573756018L126.81896765232086,162.8398397891524L127.0974356508255,161.53964600674408L127.16705265045167,162.81898175816718L127.23666965007783,162.83025286807842L127.72398864746094,146.1216745190367L127.8400169801712,162.6267251247381L128.42015864372254,160.93217204842276L128.65221530914306,162.90053536378954L129.00030030727387,161.9012283948172L129.0931229734421,151.0395059240008L129.11632863998412,162.572571975969L129.16273997306823,159.84081768184168L129.2323569726944,138.25728996669372L129.37159097194672,161.2441356422888L129.81249863624572,70.6865973896571L129.928526968956,159.48428786028057L129.99814396858216,162.95540105398982L130.29981763362883,155.56867836650727L130.53187429904938,152.9859100079887L130.92637063026427,161.84733435202307L131.0191932964325,159.6594434993615L131.13522162914276,162.370728421466L131.43689529418944,155.14374456755354L131.52971796035766,158.08096989983346L131.73856895923615,146.88033681375404L131.8081859588623,160.70001309484806L131.97062562465666,162.63112992631264L131.99383129119872,157.4010758215076L132.06344829082488,161.23791709888945L132.29550495624542,162.66299996123416L132.5043559551239,150.28913502048258L132.8988522863388,162.91232468565076L133.01488061904908,157.4715526466999L133.13090895175935,122.22070296374127L133.2469372844696,153.07607888727887L133.47899394989014,147.47938982788878L133.5021996164322,157.63116192728248L133.78066761493682,161.73021845133582L133.8966959476471,153.21392326596387L133.91990161418914,162.81742712231735L134.5928659439087,157.89130432615414L134.82492260932924,162.4764436592545L134.8481282758713,158.4965758836882L134.89453960895537,161.55713566005466L134.94095094203948,162.59122760616697L135.21941894054413,162.98976498392042L135.3818586063385,161.80173170042804L135.56750393867492,160.4564534783746L136.4261136007309,160.75079786594256L136.72778726577758,161.6037747355496L136.75099293231963,162.50753637625112L137.09907793045045,162.22925655913141L137.21510626316072,162.9735384722378L138.07371592521667,151.93393974960335L138.212949924469,162.86302977391236L138.42180092334746,162.95083431118093L138.5610349225998,132.4698989097244L138.97873692035674,159.85429119254022L139.18758791923523,154.19956239475644L139.512467250824,162.7324403625266L139.535672917366,162.8289573382036L139.81414091587067,162.4707433278051L139.9997862482071,161.11976477430235L140.2550485801697,162.31787080257178L140.32466557979583,57.97693110534211L140.95121857643127,158.20534076781993L140.97442424297333,162.9710769654756L141.55456590652466,162.03907277350217L141.5777715730667,162.97561132003761L141.97226790428164,162.58034515521817L142.15791323661804,139.41808473456723L142.29714723587037,89.98481040555411L142.64523223400116,161.34466876057783L142.73805490016935,162.93907737756658L143.03972856521608,159.627314358465L143.52704756259917,124.91851437514728L144.24642322540285,146.7725487281658L144.78015355587007,162.96009734978617L145.4995292186737,162.82390477169164L145.66196888446808,162.64589896688602L146.01005388259887,161.8255694501254L146.61340121269225,162.9638219981764L146.72942954540252,162.88576632321613L146.89186921119688,162.3873112038642L146.93828054428099,162.06135588734972L147.07751454353334,161.70132813512646L147.30957120895386,162.8600500552002L147.44880520820618,162.87961255631058L147.51842220783234,162.81185634385542L147.6808618736267,162.73865890592592L147.9361242055893,162.4687352564991L147.95932987213135,161.77374825513107L148.05215253829954,162.87611462564846L148.14497520446778,161.21407934919208L149.09640753269196,159.78174151954815L149.74616619586942,162.9988579842296L149.90860586166383,162.97130368320367L149.93181152820586,162.0276721106034L150.04783986091616,162.81911131115467L150.0710455274582,162.89865684547098L150.18707386016845,158.08926129103256L150.3031021928787,162.7067888710044L150.39592485904694,162.97680968517184L150.97606652259827,149.95644294861881L151.16171185493468,162.9437088968692L151.37056285381317,162.96942516488517L151.48659118652344,162.42928637180964L151.99711585044858,162.87974210929806L152.20596684932707,160.57823328661135L152.4380235147476,162.85771810142546L152.50764051437378,155.08881410085954L152.53084618091583,162.6627408552592L152.71649151325227,162.4816257787539L152.8557255125046,162.82740270235377L153.38945584297178,162.94879385162804L153.59830684185027,162.89366905545276L153.71433517456055,162.00590720870576L153.85356917381287,162.07586582194813L154.29447683811188,161.54573499715593L154.36409383773804,162.99787823976172L154.50332783699034,163.00004015524038L154.61935616970064,162.89237352557794L154.92102983474732,160.37043029468398L154.96744116783142,157.13238292546185L155.10667516708375,162.85525659466322L155.43155449867248,162.84372637877695L155.7796394968033,163.00458260686415L155.96528482913973,162.88064898021045L156.29016416072847,162.34378140006893L156.38298682689665,161.4814767153629L156.93992282390593,162.96680171688854L157.0559511566162,160.93696550895976L157.07915682315829,162.8321961628907L157.31121348857877,149.46414159617248L157.4968588209152,162.87430088382362L157.56647582054137,162.5370744573979L157.61288715362548,162.97421862542214L157.68250415325167,156.60821153809397L157.9609721517563,162.7324403625266L157.98417781829835,162.8755964136985L158.07700048446654,162.71326652037868L158.16982315063476,162.5844908508177L158.8427874803543,162.91847845255634L158.98202147960663,160.69379455144875L159.3069008111954,162.91906144100003L159.63178014278412,158.94016531283987L159.79421980857848,162.99384590302625L160.25833313941956,162.4588244529564L160.30474447250367,161.9468310464122L160.35115580558775,162.7223352295027L160.3743614721298,162.94445382654726L160.443978471756,162.93467257599204L160.4903898048401,162.99271231438573L160.6760351371765,160.63782766085487L160.69924080371854,162.88414691087254L160.93129746913908,162.2800413302259L161.14014846801757,162.97638863796251L161.25617680072784,162.2085280811337L161.39541079998017,160.06261239641753L162.0683751296997,162.99519001527142L162.50928279399872,162.86419575079972L162.57889979362488,163.00406439491417L162.88057345867156,162.83025286807842L162.95019045829773,163.01067969433768L163.69277178764344,162.68683771093157L163.92482845306395,162.63579383386212L164.36573611736299,162.71248920245375L164.69061544895172,162.31735259062182L164.78343811511994,163.003724318322L165.10831744670867,160.5820712938656L166.05974977493287,162.9562755366553L166.17577810764314,162.99235604367013L166.22218944072722,162.94380606160982L166.59348010540006,162.97120651846308L166.6863027715683,162.3111340472225L166.8951537704468,162.86782323444936L167.01118210315704,162.96068033822985L167.22003310203553,162.95157924085896L167.40567843437194,162.85253598192602L167.56811810016632,162.93946603652904L167.59132376670837,161.83178799352473L167.7073520994186,162.9846314467913L167.86979176521302,162.90934496693856L167.9162030982971,162.76871519902264L168.00902576446535,163.00170814995428L168.1250540971756,163.00191867355895L168.98366375923158,149.58851246415892L169.00686942577363,162.83763738836515L169.07648642539976,162.82701404339127L169.35495442390442,162.9870929535535L169.54059975624085,157.22799303022643L169.5638054227829,161.04277791148886L169.70303942203523,161.2702081810203L170.12074141979218,162.99884179010616L170.14394708633424,162.9776517795905L170.19035841941832,161.64834096324475L170.49203208446502,160.7413081096092L170.63126608371735,162.9436117321286L170.7937057495117,162.34319841162528L171.07217374801635,161.05343364470954L171.35064174652098,162.8083584131933L171.60590407848358,162.937717071198L172.27886840820312,160.48521424159648L172.48771940708158,162.99973246689513L172.51092507362367,162.12276400341804L172.53413074016572,162.97836432102167L172.60374773979188,162.92936090350514L172.69657040596007,162.98717392417072L173.06786107063294,162.95705285458024L173.1374780702591,162.946526674347L173.16068373680116,162.82183192389184L173.4855630683899,162.94937684007172L173.71761973381044,162.97758700309677L173.90326506614687,163.00241259432374L173.92647073268893,163.00046929951145L174.04249906539917,163.01695491716904L174.06570473194122,162.84294906085205L174.25135006427766,162.90124790522069L174.6690520620346,161.8919005797182L174.90110872745512,162.95387880638683L175.87574672222138,162.96845351747902L175.9685693883896,162.84398548475193L176.15421472072603,159.85947331203965L176.47909405231476,162.89483503234015L176.68794505119322,163.00210490597846L176.87359038352966,162.98238046363372L176.96641304969788,161.07952237756453L177.08244138240815,162.75044822778713L177.2448810482025,162.62206121718864L177.29129238128664,162.96599201071677L177.56976037979126,163.0069631430092L177.66258304595948,156.64448637459L177.7322000455856,162.91655135186747L177.77861137866972,162.82532985455396L177.87143404483797,162.88285138099772L177.91784537792208,163.0076028108849L178.03387371063232,162.94419472057226L178.08028504371643,162.93933648354155L178.31234170913694,163.00638825162721L178.42837004184724,162.99549770361668L178.5908097076416,162.99481755043237L178.86927770614622,162.68916966470633L179.00851170539858,160.67695266307558L179.31018537044525,162.97075308300688L179.35659670352936,162.97748983835615L179.40300803661347,162.94710966279072L179.84391570091248,162.11369529429402L180.4240573644638,162.96029167926739L180.44726303100586,159.72399327537633L180.47046869754791,161.3034709105573L180.65611402988435,162.9941373972481L180.70252536296846,162.99660700107202L180.74893669605257,159.893416194761L180.8649650287628,162.9735708604847L181.21305002689363,162.91057572031968L181.67716335773468,158.80335735805474L181.79319169044496,162.14063421862937L181.88601435661317,161.05654291640923L182.1180710220337,162.98296345207743L182.25730502128602,162.6977201618804L182.35012768745423,162.10767108037592L182.48936168670653,162.91925577048124L182.65180135250094,162.99188641409052L182.67500701904297,162.78711172324566L182.9070636844635,162.9620082563516L183.3479713487625,162.9954653153698L183.5104110145569,162.29506947677427L184.2994036769867,162.9175068051502L184.8331340074539,161.34155948887815L185.01877933979034,162.99156253162178L185.41327567100527,163.00723034604587L185.45968700408937,162.99187021996707L185.50609833717346,163.0080967316497L185.738155002594,162.99049371947504L185.90059466838835,162.97473683737206L186.08624000072479,162.9505104287122L186.20226833343506,162.5966688316414L186.59676466464998,162.9998458257592L186.75920433044433,162.56013488917037L187.43216866016388,162.98673668283794L187.59460832595823,162.97263160132542L187.71063665866853,161.80173170042804L187.75704799175264,162.84377496114726L187.94269332408908,160.86469113606609L188.0123103237152,162.99204835532487L188.03551599025727,162.99054230184535L188.05872165679932,162.97723073238117L188.33718965530394,161.5405528776565L188.49962932109835,163.00710079305838L188.7548916530609,159.11428452802087L189.1029766511917,162.8259776194914L189.56708998203277,162.07949330559777L189.93838064670564,162.88868126543457L190.03120331287383,163.0004045230177L190.07761464595794,162.98660712985046L190.19364297866824,162.96809724676342L190.28646564483643,162.6591133716096L190.30967131137848,162.9505104287122L190.40249397754667,162.9882589304409L190.47211097717286,162.2789887122026L190.65775630950927,162.9753522140626L190.70416764259338,163.0033842417299L190.8898129749298,162.7158575801284L191.21469230651854,162.96223497407968L191.2378979730606,162.88155585112284L191.2843093061447,162.97425101366898L191.33072063922884,162.40878461153997L191.42354330539703,162.84307861383954L191.4467489719391,163.0092303202902L191.9340679693222,162.69253804238096L191.95727363586425,162.99656651576342L192.46779829978945,162.9658300694824L192.69985496520994,163.00364334770484L192.90870596408843,162.72259433547765L193.00152863025667,140.56436956784233L193.2567909622192,163.00055836719037L193.69769862651825,161.17987736049577L193.83693262577057,162.93519078794202L194.13860629081728,162.915158657252L194.23142895698547,162.99697136884933L194.39386862277982,162.64097595336156L194.50989695549012,162.96783814078844L194.92759895324707,162.9931009733482L194.97401028633118,163.00591052498586L195.29888961791994,163.00693885182403L195.9950596141815,162.99557057717215L196.1110879468918,162.89541802078384L196.36635027885438,159.77500476419888L197.13213727474212,162.86600949262456L197.27137127399445,162.9961454685541L197.7354846048355,162.9425753082287L198.36203760147094,158.0138614523158L198.47806593418122,162.9686802352071L198.80294526576995,162.76580025680423L198.8725622653961,162.9505104287122L199.12782459735868,163.00341662997675L199.80078892707826,162.6490082385857L199.8239945936203,161.41715365707617L199.84720026016237,162.84968581620132L200.07925692558288,163.00994286172136L200.1720795917511,161.33896842912844L200.24169659137723,163.00255024437294L200.4273419237137,162.99379732065594L200.82183825492856,162.70523423515456L202.12135558128358,163.0128173186312L202.51585191249845,162.99379732065594L202.58546891212464,162.80382405863133L202.7943199110031,162.79553266743224L203.14240490913392,162.98689862407232L203.3976672410965,162.9913358138937L203.81536923885346,163.00037213477086L204.16345423698425,162.99680942761498L204.27948256969452,160.90962173153852L205.18450356483459,162.84171021040922L205.20770923137664,161.68706111237958L205.2309148979187,162.98231568714L205.99670189380646,163.00866352596995L206.0199075603485,162.9935058264341L206.55363789081574,162.98620227676457L206.94813422203063,163.0071574724904L206.9713398885727,162.9205513003561L207.110573887825,162.99753006610788L207.27301355361936,162.94406516758477L207.41224755287172,162.939725142504L208.08521188259124,162.97742506186242L208.41009121417997,163.00759471382318L208.57253087997435,162.92676984375544L209.3151122093201,162.9887123658971L209.43114054203033,162.664554597084L209.54716887474058,162.97839670926854L209.63999154090882,162.9622025858328L209.732814207077,162.97425101366898L210.12731053829194,161.5642610743664L210.22013320446015,162.9520974528089L210.80027486801148,163.00930319384562L210.91630320072173,162.92379012504324L210.93950886726378,162.87209848303638L211.14835986614227,163.00689836651546L211.19477119922638,162.9870767594301L211.26438819885254,162.8113381319055L211.65888453006744,163.00717366661385L211.70529586315155,162.92411400751197L211.7285015296936,163.00225065308936L211.82132419586182,163.0050198481969L211.86773552894593,163.01174040942274L212.93519618988037,163.01040439423926L213.21366418838502,163.01024245300493L213.60816051959992,163.00387816249466L214.00265685081482,162.70652976502942L214.09547951698303,162.98409704071793L214.1650965166092,163.00559473957887L214.44356451511382,163.01097928562126L214.79164951324464,162.98918199547674L214.81485517978666,162.98008089810585L214.9076778459549,162.99852600469916L215.07011751174926,162.99465560919802L215.13973451137542,163.00217777953392L215.32537984371186,163.00804814927938L216.25360650539398,162.99902802252566L216.57848583698274,158.27374474521247L216.76413116931914,162.98720631241758L216.92657083511352,162.94289919069743L217.06580483436585,161.99383448968445L217.22824450016023,162.98027522758707L217.2746558332443,162.97651819095L217.41388983249666,162.94205709627877L218.04044282913208,162.95248611177135L218.31891082763673,162.9768420734187L218.64379015922546,162.99240462604044L218.73661282539368,162.9127133446132L219.5256054878235,161.2441356422888L219.54881115436552,161.3946924078708L220.12895281791685,162.9946879974449L220.1521584844589,162.81081991995555L220.2217754840851,163.01294687161868L220.77871148109435,162.8408762130523L220.82512281417848,163.0144448280365L220.94115114688873,162.93687497677934L220.98756247997284,162.99238843191702L221.1035908126831,162.9840322642242L221.21961914539338,162.9735708604847L221.86937780857085,163.0057000013812L222.47272513866426,162.926122078818L222.797604470253,162.95922286712062L223.2849234676361,162.99742480430555L223.54018579959867,162.99996728168495L223.65621413230897,162.66688655085872L223.77224246501922,162.99457463858084L223.84185946464538,159.5120445878494L223.88827079772952,163.00331136817442L224.02750479698182,162.94082634289762L224.3755897951126,162.99086618431406L224.46841246128082,162.9925665672748L224.49161812782287,162.99579729490026L224.51482379436493,162.9988498871679L224.56123512744904,162.994283144359L224.67726346015928,162.99646935102282L224.93252579212188,163.00190247943553L225.1181711244583,163.00675261940452L225.5126674556732,162.959384808355L225.65190145492554,162.96310945674523L225.79113545417783,163.0009065408442L226.78897911548614,162.8233865597417L226.97462444782258,162.94367650862233L227.0210357809067,163.0128173186312L227.32270944595336,162.96297990375774L227.39232644557953,162.70937993075412L227.53156044483185,163.00527085711016L227.62438311100007,162.98537637646936L227.64758877754213,162.98978117804387L227.83323410987856,162.98204038704156L228.13490777492524,163.00369193007518L228.22773044109346,161.63898075989889L228.2973474407196,162.99483374455582L228.36696444034578,163.0026231179284L228.50619843959808,163.00277696210102L228.57581543922424,162.96693126987603L228.6454324388504,162.99974056395686L228.85428343772887,162.981052545512L229.17916276931763,162.91562828683163L229.4344251012802,162.9920645494483L229.57365910053252,162.97214577762233L229.66648176670074,163.0012951998067L229.82892143249512,162.8809080861854L229.96815543174742,163.00284983565652L230.08418376445772,162.997813463268L230.13059509754183,162.97198383638798L230.26982909679413,163.00202393536128L230.59470842838286,162.94675339207512L230.641119761467,162.99031558411724L230.71073676109313,162.99991869931463L230.8963820934296,163.00812911989655L230.94279342651367,162.56272594892008L231.08202742576597,160.80472429698352L231.54614075660706,162.58967297031714L231.59255208969117,162.90131268171444L232.10307675361634,162.9323406222173L232.24231075286863,162.99099573730155L232.6136014175415,162.9910281255484L232.72962975025177,163.01016957944944L232.98489208221434,162.9799189568715L233.07771474838256,158.4696936387849L233.10092041492462,162.7275173490021L233.2169487476349,163.01435576035757L233.44900541305543,162.78762993519558L233.54182807922362,163.01561080492388L233.63465074539184,163.00084176435047L233.68106207847595,162.6176564156141L233.79709041118622,161.8255694501254L234.02914707660676,162.4085578938119L234.37723207473755,162.53655624544794L234.56287740707398,162.95621076016158L234.6557000732422,162.97671252043122L235.3982814025879,162.89846251598973L236.21047973155973,163.00630728101004L236.32650806427003,162.99598352731974L236.44253639698027,163.0117161182376L236.46574206352233,162.99517382114797L236.60497606277465,162.81367008568023L236.65138739585876,163.0064854163678L237.2315290594101,162.99502807403704L237.37076305866242,162.99361918529812L237.62602539062502,162.9656033517543L237.74205372333526,162.71404383830358L238.4614293861389,163.01043678248615L239.13439371585847,161.55765387200464L239.48247871398925,161.52824534384533L239.52889004707336,162.89094844271557L239.7609467124939,160.64776275558268L239.80735804557798,162.9658300694824L240.2018543767929,163.01519785477623L240.24826570987702,162.9990927990194L240.29467704296113,162.986590935727L240.31788270950318,163.01097118855952L240.43391104221345,163.00440447150632L240.52673370838167,162.9913034256468L240.75879037380219,161.78984521382617L241.08366970539095,161.90288019540762L241.29252070426944,162.98931154846423L241.36213770389557,163.01152178875634L241.61740003585817,162.99353821468094L241.66381136894228,162.937717071198L241.6870170354843,162.97000815332885L241.87266236782074,162.99293903211384L242.26715869903563,162.4847350504536L242.98653436183932,162.9588018199113L243.05615136146545,162.89781475105232L243.89155535697938,162.98926296609392L243.96117235660552,162.97886633884818L244.05399502277373,161.41279743787194L244.610931019783,160.69897667094818L244.75016501903534,162.9735384722378L244.79657635211944,162.65678141783482L244.8661933517456,162.99747338667584L245.1678670167923,161.64429243238578L245.3071010160446,162.97493116685328L246.02647667884824,162.92456744296814L246.09609367847443,163.00371622126033L246.39776734352114,161.7833108850199L246.42097301006316,162.70290228137983L246.58341267585755,163.01097118855952L246.9082920074463,161.11808058546504L247.32599400520326,163.0059833985413L247.58125633716583,162.998817498921L247.650873336792,162.9750283315939L247.83651866912842,160.8841888606827L247.85972433567048,163.00781333448955L247.97575266838072,162.94720682753132L248.3470433330536,162.9810849337589L248.50948299884794,162.98312539331178L248.76474533081054,162.48058935485406L248.8343623304367,163.00231542958312L249.2752699947357,162.5562482995458L249.76258899211885,161.3872593052138L250.06426265716553,163.01547315487466L250.1338796567917,162.81094947294304L250.45875898838042,162.86471396274968L250.6676099872589,163.00727892841618L251.17813465118408,162.62439317096337L251.3637799835205,162.99164350223896L251.52621964931487,162.89574190325257L251.80468764781952,163.002720282669L251.94392164707185,162.99004028401882L252.05994997978212,162.99710901889856L252.2688009786606,163.01419381912322L252.59368031024934,162.9303325509113L252.87214830875396,162.91731247566895L252.98817664146424,162.90772555459498L253.1042049741745,163.00591052498586L253.22023330688475,163.00305226219945L253.2434389734268,161.2567832526921L253.38267297267916,162.98738444777538L253.47549563884735,163.00092273496765L254.17166563510892,163.01102786799154L254.3805166339874,162.98421039958197L254.51975063323977,162.94186276679753L254.5429562997818,163.00613724271398L254.63577896595,162.96466409259506L255.03027529716493,162.99151394925147L255.07668663024904,162.0955092936757L255.16950929641723,162.9964531568994L255.26233196258545,162.99970007864826" fill="none"></path></g></g></g></g></g></g><g transform="translate(51, 176)" clip-path="url(#clip_1)"><clipPath id="clip_1"><rect width="278" height="23"></rect></clipPath><g><g><line x1="0" y1="0" x2="0" y2="5" style="visibility: inherit;" fill="rgb(0, 0, 0)" stroke="rgb(204, 204, 204)" stroke-width="1px"></line><line x1="23.205666542053223" y1="0" x2="23.205666542053223" y2="5" style="visibility: inherit;" fill="rgb(0, 0, 0)" stroke="rgb(204, 204, 204)" stroke-width="1px"></line><line x1="46.411333084106445" y1="0" x2="46.411333084106445" y2="5" style="visibility: inherit;" fill="rgb(0, 0, 0)" stroke="rgb(204, 204, 204)" stroke-width="1px"></line><line x1="69.61699962615967" y1="0" x2="69.61699962615967" y2="5" style="visibility: inherit;" fill="rgb(0, 0, 0)" stroke="rgb(204, 204, 204)" stroke-width="1px"></line><line x1="92.82266616821289" y1="0" x2="92.82266616821289" y2="5" style="visibility: inherit;" fill="rgb(0, 0, 0)" stroke="rgb(204, 204, 204)" stroke-width="1px"></line><line x1="116.02833271026611" y1="0" x2="116.02833271026611" y2="5" style="visibility: inherit;" fill="rgb(0, 0, 0)" stroke="rgb(204, 204, 204)" stroke-width="1px"></line><line x1="139.23399925231934" y1="0" x2="139.23399925231934" y2="5" style="visibility: inherit;" fill="rgb(0, 0, 0)" stroke="rgb(204, 204, 204)" stroke-width="1px"></line><line x1="162.43966579437256" y1="0" x2="162.43966579437256" y2="5" style="visibility: inherit;" fill="rgb(0, 0, 0)" stroke="rgb(204, 204, 204)" stroke-width="1px"></line><line x1="185.64533233642578" y1="0" x2="185.64533233642578" y2="5" style="visibility: inherit;" fill="rgb(0, 0, 0)" stroke="rgb(204, 204, 204)" stroke-width="1px"></line><line x1="208.850998878479" y1="0" x2="208.850998878479" y2="5" style="visibility: inherit;" fill="rgb(0, 0, 0)" stroke="rgb(204, 204, 204)" stroke-width="1px"></line><line x1="232.05666542053223" y1="0" x2="232.05666542053223" y2="5" style="visibility: inherit;" fill="rgb(0, 0, 0)" stroke="rgb(204, 204, 204)" stroke-width="1px"></line><line x1="255.26233196258545" y1="0" x2="255.26233196258545" y2="5" style="visibility: inherit;" fill="rgb(0, 0, 0)" stroke="rgb(204, 204, 204)" stroke-width="1px"></line><line x1="278.4679985046387" y1="0" x2="278.4679985046387" y2="5" style="visibility: inherit;" fill="rgb(0, 0, 0)" stroke="rgb(204, 204, 204)" stroke-width="1px"></line></g><g transform="translate(0, 8)"><text style="text-anchor: middle; visibility: hidden; font-family: Roboto, sans-serif; font-size: 12px; font-weight: 200;" x="0" y="0" dx="0em" dy="0.95em" fill="rgb(33, 33, 33)" stroke="none" stroke-width="1px">-1k</text><text style="text-anchor: middle; visibility: inherit; font-family: Roboto, sans-serif; font-size: 12px; font-weight: 200;" x="23.205666542053223" y="0" dx="0em" dy="0.95em" fill="rgb(33, 33, 33)" stroke="none" stroke-width="1px">0</text><text style="text-anchor: middle; visibility: inherit; font-family: Roboto, sans-serif; font-size: 12px; font-weight: 200;" x="46.411333084106445" y="0" dx="0em" dy="0.95em" fill="rgb(33, 33, 33)" stroke="none" stroke-width="1px">1k</text><text style="text-anchor: middle; visibility: inherit; font-family: Roboto, sans-serif; font-size: 12px; font-weight: 200;" x="69.61699962615967" y="0" dx="0em" dy="0.95em" fill="rgb(33, 33, 33)" stroke="none" stroke-width="1px">2k</text><text style="text-anchor: middle; visibility: inherit; font-family: Roboto, sans-serif; font-size: 12px; font-weight: 200;" x="92.82266616821289" y="0" dx="0em" dy="0.95em" fill="rgb(33, 33, 33)" stroke="none" stroke-width="1px">3k</text><text style="text-anchor: middle; visibility: inherit; font-family: Roboto, sans-serif; font-size: 12px; font-weight: 200;" x="116.02833271026611" y="0" dx="0em" dy="0.95em" fill="rgb(33, 33, 33)" stroke="none" stroke-width="1px">4k</text><text style="text-anchor: middle; visibility: inherit; font-family: Roboto, sans-serif; font-size: 12px; font-weight: 200;" x="139.23399925231934" y="0" dx="0em" dy="0.95em" fill="rgb(33, 33, 33)" stroke="none" stroke-width="1px">5k</text><text style="text-anchor: middle; visibility: inherit; font-family: Roboto, sans-serif; font-size: 12px; font-weight: 200;" x="162.43966579437256" y="0" dx="0em" dy="0.95em" fill="rgb(33, 33, 33)" stroke="none" stroke-width="1px">6k</text><text style="text-anchor: middle; visibility: inherit; font-family: Roboto, sans-serif; font-size: 12px; font-weight: 200;" x="185.64533233642578" y="0" dx="0em" dy="0.95em" fill="rgb(33, 33, 33)" stroke="none" stroke-width="1px">7k</text><text style="text-anchor: middle; visibility: inherit; font-family: Roboto, sans-serif; font-size: 12px; font-weight: 200;" x="208.850998878479" y="0" dx="0em" dy="0.95em" fill="rgb(33, 33, 33)" stroke="none" stroke-width="1px">8k</text><text style="text-anchor: middle; visibility: inherit; font-family: Roboto, sans-serif; font-size: 12px; font-weight: 200;" x="232.05666542053223" y="0" dx="0em" dy="0.95em" fill="rgb(33, 33, 33)" stroke="none" stroke-width="1px">9k</text><text style="text-anchor: middle; visibility: inherit; font-family: Roboto, sans-serif; font-size: 12px; font-weight: 200;" x="255.26233196258545" y="0" dx="0em" dy="0.95em" fill="rgb(33, 33, 33)" stroke="none" stroke-width="1px">10k</text><text style="text-anchor: middle; visibility: hidden; font-family: Roboto, sans-serif; font-size: 12px; font-weight: 200;" x="278.4679985046387" y="0" dx="0em" dy="0.95em" fill="rgb(33, 33, 33)" stroke="none" stroke-width="1px">11k</text></g><line x1="0" y1="0" x2="278.4679985046387" y2="0" fill="rgb(0, 0, 0)" stroke="rgb(204, 204, 204)" stroke-width="1px"></line></g></g></g></g></svg>