<svg viewBox="0 0 854.25 400" xmlns="http://www.w3.org/2000/svg"><g><g><g><g><g><line x1="51.53200149536133" y1="376.8999996185303" x2="46.53200149536133" y2="376.8999996185303" style="visibility: inherit;" fill="rgb(0, 0, 0)" stroke="rgb(204, 204, 204)" stroke-width="1px"></line><line x1="51.53200149536133" y1="345.4916663169861" x2="46.53200149536133" y2="345.4916663169861" style="visibility: inherit;" fill="rgb(0, 0, 0)" stroke="rgb(204, 204, 204)" stroke-width="1px"></line><line x1="51.53200149536133" y1="314.0833330154419" x2="46.53200149536133" y2="314.0833330154419" style="visibility: inherit;" fill="rgb(0, 0, 0)" stroke="rgb(204, 204, 204)" stroke-width="1px"></line><line x1="51.53200149536133" y1="282.6749997138977" x2="46.53200149536133" y2="282.6749997138977" style="visibility: inherit;" fill="rgb(0, 0, 0)" stroke="rgb(204, 204, 204)" stroke-width="1px"></line><line x1="51.53200149536133" y1="251.26666641235354" x2="46.53200149536133" y2="251.26666641235354" style="visibility: inherit;" fill="rgb(0, 0, 0)" stroke="rgb(204, 204, 204)" stroke-width="1px"></line><line x1="51.53200149536133" y1="219.8583331108093" x2="46.53200149536133" y2="219.8583331108093" style="visibility: inherit;" fill="rgb(0, 0, 0)" stroke="rgb(204, 204, 204)" stroke-width="1px"></line><line x1="51.53200149536133" y1="188.44999980926514" x2="46.53200149536133" y2="188.44999980926514" style="visibility: inherit;" fill="rgb(0, 0, 0)" stroke="rgb(204, 204, 204)" stroke-width="1px"></line><line x1="51.53200149536133" y1="157.04166650772095" x2="46.53200149536133" y2="157.04166650772095" style="visibility: inherit;" fill="rgb(0, 0, 0)" stroke="rgb(204, 204, 204)" stroke-width="1px"></line><line x1="51.53200149536133" y1="125.63333320617677" x2="46.53200149536133" y2="125.63333320617677" style="visibility: inherit;" fill="rgb(0, 0, 0)" stroke="rgb(204, 204, 204)" stroke-width="1px"></line><line x1="51.53200149536133" y1="94.22499990463257" x2="46.53200149536133" y2="94.22499990463257" style="visibility: inherit;" fill="rgb(0, 0, 0)" stroke="rgb(204, 204, 204)" stroke-width="1px"></line><line x1="51.53200149536133" y1="62.816666603088365" x2="46.53200149536133" y2="62.816666603088365" style="visibility: inherit;" fill="rgb(0, 0, 0)" stroke="rgb(204, 204, 204)" stroke-width="1px"></line><line x1="51.53200149536133" y1="31.408333301544204" x2="46.53200149536133" y2="31.408333301544204" style="visibility: inherit;" fill="rgb(0, 0, 0)" stroke="rgb(204, 204, 204)" stroke-width="1px"></line><line x1="51.53200149536133" y1="0" x2="46.53200149536133" y2="0" style="visibility: inherit;" fill="rgb(0, 0, 0)" stroke="rgb(204, 204, 204)" stroke-width="1px"></line></g><g transform="translate(41.53200149536133, 0)"><text style="text-anchor: end; visibility: hidden; font-family: Roboto, sans-serif; font-size: 12px; font-weight: 200;" x="0" y="376.8999996185303" dx="0em" dy="0.3em" fill="rgb(33, 33, 33)" stroke="none" stroke-width="1px">-0.5</text><text style="text-anchor: end; visibility: inherit; font-family: Roboto, sans-serif; font-size: 12px; font-weight: 200;" x="0" y="345.4916663169861" dx="0em" dy="0.3em" fill="rgb(33, 33, 33)" stroke="none" stroke-width="1px">0</text><text style="text-anchor: end; visibility: inherit; font-family: Roboto, sans-serif; font-size: 12px; font-weight: 200;" x="0" y="314.0833330154419" dx="0em" dy="0.3em" fill="rgb(33, 33, 33)" stroke="none" stroke-width="1px">0.5</text><text style="text-anchor: end; visibility: inherit; font-family: Roboto, sans-serif; font-size: 12px; font-weight: 200;" x="0" y="282.6749997138977" dx="0em" dy="0.3em" fill="rgb(33, 33, 33)" stroke="none" stroke-width="1px">1</text><text style="text-anchor: end; visibility: inherit; font-family: Roboto, sans-serif; font-size: 12px; font-weight: 200;" x="0" y="251.26666641235354" dx="0em" dy="0.3em" fill="rgb(33, 33, 33)" stroke="none" stroke-width="1px">1.5</text><text style="text-anchor: end; visibility: inherit; font-family: Roboto, sans-serif; font-size: 12px; font-weight: 200;" x="0" y="219.8583331108093" dx="0em" dy="0.3em" fill="rgb(33, 33, 33)" stroke="none" stroke-width="1px">2</text><text style="text-anchor: end; visibility: inherit; font-family: Roboto, sans-serif; font-size: 12px; font-weight: 200;" x="0" y="188.44999980926514" dx="0em" dy="0.3em" fill="rgb(33, 33, 33)" stroke="none" stroke-width="1px">2.5</text><text style="text-anchor: end; visibility: inherit; font-family: Roboto, sans-serif; font-size: 12px; font-weight: 200;" x="0" y="157.04166650772095" dx="0em" dy="0.3em" fill="rgb(33, 33, 33)" stroke="none" stroke-width="1px">3</text><text style="text-anchor: end; visibility: inherit; font-family: Roboto, sans-serif; font-size: 12px; font-weight: 200;" x="0" y="125.63333320617677" dx="0em" dy="0.3em" fill="rgb(33, 33, 33)" stroke="none" stroke-width="1px">3.5</text><text style="text-anchor: end; visibility: inherit; font-family: Roboto, sans-serif; font-size: 12px; font-weight: 200;" x="0" y="94.22499990463257" dx="0em" dy="0.3em" fill="rgb(33, 33, 33)" stroke="none" stroke-width="1px">4</text><text style="text-anchor: end; visibility: inherit; font-family: Roboto, sans-serif; font-size: 12px; font-weight: 200;" x="0" y="62.816666603088365" dx="0em" dy="0.3em" fill="rgb(33, 33, 33)" stroke="none" stroke-width="1px">4.5</text><text style="text-anchor: end; visibility: inherit; font-family: Roboto, sans-serif; font-size: 12px; font-weight: 200;" x="0" y="31.408333301544204" dx="0em" dy="0.3em" fill="rgb(33, 33, 33)" stroke="none" stroke-width="1px">5</text><text style="text-anchor: end; visibility: hidden; font-family: Roboto, sans-serif; font-size: 12px; font-weight: 200;" x="0" y="0" dx="0em" dy="0.3em" fill="rgb(33, 33, 33)" stroke="none" stroke-width="1px">5.5</text></g><line x1="51.53200149536133" y1="0" x2="51.53200149536133" y2="376.8999996185303" fill="rgb(0, 0, 0)" stroke="rgb(204, 204, 204)" stroke-width="1px"></line></g></g><g transform="translate(51, 0)" clip-path="url(#clip_0)"><clipPath id="clip_0"><rect width="802" height="376"></rect></clipPath><g><g><g><line x1="0" y1="0" x2="0" y2="376.8999996185303" fill="rgb(0, 0, 0)" stroke="rgb(66, 66, 66)" stroke-width="1px" opacity="0.25"></line><line x1="66.89316654205322" y1="0" x2="66.89316654205322" y2="376.8999996185303" fill="rgb(0, 0, 0)" stroke="rgb(66, 66, 66)" stroke-width="1px" opacity="0.25"></line><line x1="133.78633308410645" y1="0" x2="133.78633308410645" y2="376.8999996185303" fill="rgb(0, 0, 0)" stroke="rgb(66, 66, 66)" stroke-width="1px" opacity="0.25"></line><line x1="200.67949962615967" y1="0" x2="200.67949962615967" y2="376.8999996185303" fill="rgb(0, 0, 0)" stroke="rgb(66, 66, 66)" stroke-width="1px" opacity="0.25"></line><line x1="267.5726661682129" y1="0" x2="267.5726661682129" y2="376.8999996185303" fill="rgb(0, 0, 0)" stroke="rgb(66, 66, 66)" stroke-width="1px" opacity="0.25"></line><line x1="334.4658327102661" y1="0" x2="334.4658327102661" y2="376.8999996185303" fill="rgb(0, 0, 0)" stroke="rgb(66, 66, 66)" stroke-width="1px" opacity="0.25"></line><line x1="401.35899925231934" y1="0" x2="401.35899925231934" y2="376.8999996185303" fill="rgb(0, 0, 0)" stroke="rgb(66, 66, 66)" stroke-width="1px" opacity="0.25"></line><line x1="468.2521657943726" y1="0" x2="468.2521657943726" y2="376.8999996185303" fill="rgb(0, 0, 0)" stroke="rgb(66, 66, 66)" stroke-width="1px" opacity="0.25"></line><line x1="535.1453323364258" y1="0" x2="535.1453323364258" y2="376.8999996185303" fill="rgb(0, 0, 0)" stroke="rgb(66, 66, 66)" stroke-width="1px" opacity="0.25"></line><line x1="602.038498878479" y1="0" x2="602.038498878479" y2="376.8999996185303" fill="rgb(0, 0, 0)" stroke="rgb(66, 66, 66)" stroke-width="1px" opacity="0.25"></line><line x1="668.9316654205322" y1="0" x2="668.9316654205322" y2="376.8999996185303" fill="rgb(0, 0, 0)" stroke="rgb(66, 66, 66)" stroke-width="1px" opacity="0.25"></line><line x1="735.8248319625854" y1="0" x2="735.8248319625854" y2="376.8999996185303" fill="rgb(0, 0, 0)" stroke="rgb(66, 66, 66)" stroke-width="1px" opacity="0.25"></line><line x1="802.7179985046387" y1="0" x2="802.7179985046387" y2="376.8999996185303" fill="rgb(0, 0, 0)" stroke="rgb(66, 66, 66)" stroke-width="1px" opacity="0.25"></line></g><g><line x1="0" y1="376.8999996185303" x2="802.7179985046387" y2="376.8999996185303" fill="rgb(0, 0, 0)" stroke="rgb(66, 66, 66)" stroke-width="1px" opacity="0.25"></line><line x1="0" y1="345.4916663169861" x2="802.7179985046387" y2="345.4916663169861" fill="rgb(0, 0, 0)" stroke="rgb(66, 66, 66)" stroke-width="1px" opacity="0.25"></line><line x1="0" y1="314.0833330154419" x2="802.7179985046387" y2="314.0833330154419" fill="rgb(0, 0, 0)" stroke="rgb(66, 66, 66)" stroke-width="1px" opacity="0.25"></line><line x1="0" y1="282.6749997138977" x2="802.7179985046387" y2="282.6749997138977" fill="rgb(0, 0, 0)" stroke="rgb(66, 66, 66)" stroke-width="1px" opacity="0.25"></line><line x1="0" y1="251.26666641235354" x2="802.7179985046387" y2="251.26666641235354" fill="rgb(0, 0, 0)" stroke="rgb(66, 66, 66)" stroke-width="1px" opacity="0.25"></line><line x1="0" y1="219.8583331108093" x2="802.7179985046387" y2="219.8583331108093" fill="rgb(0, 0, 0)" stroke="rgb(66, 66, 66)" stroke-width="1px" opacity="0.25"></line><line x1="0" y1="188.44999980926514" x2="802.7179985046387" y2="188.44999980926514" fill="rgb(0, 0, 0)" stroke="rgb(66, 66, 66)" stroke-width="1px" opacity="0.25"></line><line x1="0" y1="157.04166650772095" x2="802.7179985046387" y2="157.04166650772095" fill="rgb(0, 0, 0)" stroke="rgb(66, 66, 66)" stroke-width="1px" opacity="0.25"></line><line x1="0" y1="125.63333320617677" x2="802.7179985046387" y2="125.63333320617677" fill="rgb(0, 0, 0)" stroke="rgb(66, 66, 66)" stroke-width="1px" opacity="0.25"></line><line x1="0" y1="94.22499990463257" x2="802.7179985046387" y2="94.22499990463257" fill="rgb(0, 0, 0)" stroke="rgb(66, 66, 66)" stroke-width="1px" opacity="0.25"></line><line x1="0" y1="62.816666603088365" x2="802.7179985046387" y2="62.816666603088365" fill="rgb(0, 0, 0)" stroke="rgb(66, 66, 66)" stroke-width="1px" opacity="0.25"></line><line x1="0" y1="31.408333301544204" x2="802.7179985046387" y2="31.408333301544204" fill="rgb(0, 0, 0)" stroke="rgb(66, 66, 66)" stroke-width="1px" opacity="0.25"></line><line x1="0" y1="0" x2="802.7179985046387" y2="0" fill="rgb(0, 0, 0)" stroke="rgb(66, 66, 66)" stroke-width="1px" opacity="0.25"></line></g></g></g><g><g><line x1="0" y1="345.4916663169861" x2="802.7179985046387" y2="345.4916663169861" fill="rgb(0, 0, 0)" stroke="rgb(153, 153, 153)" stroke-width="1.5px"></line></g></g><g><g><line x1="66.89316654205322" y1="0" x2="66.89316654205322" y2="376.8999996185303" fill="rgb(0, 0, 0)" stroke="rgb(153, 153, 153)" stroke-width="1.5px"></line></g></g><g><g><g><g><g><path style="fill: none;" stroke="rgb(255, 112, 67)" stroke-width="2px" d="M67.56209820747375,11.559585559589323L68.89996153831481,10.549559582523173L69.03374787139892,10.980765143458706L69.43510687065124,8.793237808153872L69.56889320373536,8.38170825710848L70.5053975353241,12.220562368672283L70.6391838684082,12.881023864440351L72.3784061985016,12.445586320445111L73.31491053009033,13.853691904028004L73.44869686317443,13.387177096857702L73.58248319625854,13.824805413234925L74.25141486167908,13.39627097321796L75.32170552635193,13.733263545559717L75.45549185943604,14.445502426465627L75.85685085868836,12.98602786683063L75.99063719177246,11.714232375256286L76.39199619102477,13.012905562699405L76.52578252410889,12.732903494269625L77.32850052261352,15.296446355806605L77.99743218803405,15.80078114352059L78.9339365196228,14.233091761680642L80.27179985046388,12.570927128684806L80.80694518280029,15.392361469279933L81.34209051513672,14.899803173090724L83.21509917831422,16.969103070148257L83.75024451065063,16.364976430300832L83.88403084373473,16.494790427646564L84.15160350990296,16.138666837566532L84.41917617607118,16.75084212595962L85.22189417457581,16.624324617580143L86.29218483924866,15.66735505451637L86.55975750541687,20.565094400787576L86.69354383850097,17.008898995227653L87.0949028377533,17.272214397528337L88.03140716934203,22.436673645091044L88.43276616859436,18.270638375871066L88.70033883476258,16.949596552953995L88.9679115009308,21.065290366040173L90.03820216560364,19.29504172196441L90.70713383102417,26.377128583981154L91.64363816261292,17.22109546031827L91.77742449569702,20.705995483514695L92.58014249420165,27.322618679934433L92.71392882728577,34.061525496258994L94.18557849121093,28.486067510708782L94.45315115737915,33.38471340690682L95.52344182205199,28.472584423762516L95.79101448822021,46.221374314943525L96.99509148597717,40.39354214606039L97.66402315139771,35.30955646942132L99.6708181476593,25.504379710567587L99.80460448074341,23.801894582056224L101.54382681083679,36.18415511901386L101.67761314392091,44.119602749256664L103.28304914093019,66.61400404057973L103.68440814018251,58.02819407273252L104.21955347251891,62.28770600730796L104.75469880485535,49.912185969621255L105.15605780410768,42.01912288954086L105.55741680335998,36.25499952007287L105.82498946952819,39.02758302789311L106.49392113494872,29.994203211771016L106.76149380111696,33.307317606553184L106.89528013420104,45.60257921801618L108.23314346504212,32.95692370515944L108.76828879737855,25.63867895674336L109.30343412971496,44.43361526293768L109.57100679588319,30.193606654186336L109.70479312896728,32.7391355760188L110.1061521282196,40.35411792132919L113.18323778915405,67.60903361577587L113.31702412223815,63.53199709120747L114.92246011924743,66.4840824626693L115.72517811775208,94.56057963060195L115.85896445083618,75.2853610245612L115.99275078392029,71.7693820744697L117.59818678092955,102.3663288916893L118.66847744560242,73.29607336465996L119.20362277793883,94.91803459223797L119.47119544410707,74.13492107974723L120.1401271095276,79.65276494948965L120.80905877494811,96.86641294834433L121.07663144111635,121.62587207810297L122.54828110504151,117.97854261049284L123.35099910354614,137.5850437929587L123.48478543663023,126.23897504340655L125.35779409980775,119.07706987801821L125.49158043289184,107.36875633543987L125.75915309906007,102.68022308220255L126.6956574306488,83.39613146724334L127.49837542915344,70.44696108625176L128.03352076148988,101.05988374556684L128.70245242691038,99.69851118111121L129.23759775924682,110.75949728210868L129.63895675849915,105.71534819118325L129.90652942466735,92.48115041362607L130.4416747570038,122.09874124683873L130.57546109008788,126.06373830631216L131.24439275550841,133.3019799045911L131.37817908859253,126.55385716645061L132.18089708709715,106.26405336422297L133.11740141868592,119.23677465444005L135.25798274803162,141.42713999862437L135.52555541419983,146.57795304477753L135.65934174728395,130.54279025706134L135.79312808036804,150.34093368421298L136.19448707962036,126.12630781414441L136.4620597457886,153.31939300833915L138.33506840896607,181.3113840463065L138.46885474205015,161.9340858264662L138.7364274082184,149.2748205430684L139.0040000743866,162.54095853615985L139.2715727405548,170.06893011012096L139.80671807289124,185.71512100221761L140.07429073905945,180.97215277182974L140.60943607139586,168.77135068421128L140.87700873756407,182.04265123046022L141.4121540699005,177.48810653832658L142.21487206840516,160.27810109186592L142.48244473457336,151.8468730092462L143.0175900669098,157.75344783477405L145.1581713962555,135.0895310215903L145.2919577293396,182.63927983012394L145.69331672859192,159.25412937123906L145.96088939476013,159.20496168917856L146.49603472709654,173.75012394767788L146.76360739326475,171.8247660726737L149.03797505569457,190.10575799303834L149.1717613887787,188.70502149273736L150.24205205345154,175.4500064443146L150.37583838653563,195.27757620387536L151.0447700519562,213.23571168140631L151.17855638504028,202.38669162262352L151.71370171737672,200.4451370452957L152.24884704971313,202.07520856853108L153.05156504821778,221.89748465838656L153.18535138130187,209.9892227322234L153.85428304672243,209.0753231060262L154.12185571289064,209.35513274353215L155.05836004447937,213.57941704081034L155.32593271064758,215.69837930254067L156.26243704223631,227.91129737929884L157.3327277069092,179.15109560471296L157.46651403999329,165.10455195783564L158.53680470466614,177.87955116328834L159.607095369339,209.39141976235885L159.8746680355072,244.76491175474447L162.0152493648529,211.44539962419594L163.48689902877808,167.50407139842707L163.7544716949463,172.29686252550596L164.0220443611145,181.3575864305193L164.15583069419858,176.09555724268876L164.42340336036682,191.07634548962733L164.5571896934509,203.8911754488917L164.82476235961914,222.6941452719254L164.95854869270323,208.90063646033076L165.09233502578735,222.2154599031488L165.76126669120788,216.71165297338135L166.56398468971253,226.92660757137102L169.23971135139467,238.77287850146146L170.3100020160675,222.71546163960252L170.71136101531982,220.2813105874651L170.84514734840394,203.71936204503496L171.11272001457215,208.40669811310832L171.38029268074035,217.65029339164892L171.64786534690856,232.05304845019998L172.4505833454132,256.74316358660053L174.59116467475891,243.14097252467562L174.72495100784303,244.7211487630778L174.99252367401124,256.7365512478473L175.39388267326356,260.0458224464323L176.4641733379364,236.8065674827806L176.5979596710205,257.7587770018228L177.80203666877748,241.42078694660952L178.3371820011139,233.85092910913818L179.40747266578674,237.67409028523318L179.80883166503907,241.12432894935517L180.07640433120727,248.16950306727225L181.68184032821654,269.2808871026392L182.35077199363707,236.8020724279508L182.8859173259735,240.9423464654347L183.55484899139404,244.52994330054523L185.29407132148742,239.12870522598863L185.56164398765563,218.6624545861891L186.36436198616028,227.36095572730068L186.7657209854126,241.06935470252907L187.03329365158083,206.377851162353L187.56843898391722,219.45189655440328L187.70222531700134,232.28362358927316L188.50494331550598,238.50425974658717L191.1806699771881,256.5107167439113L191.4482426433563,235.8472136548188L191.71581530952454,248.26982324271296L193.0536786403656,229.3974393150633L193.99018297195434,245.70122674463897L194.792900970459,262.272023975787L195.86319163513184,260.6671856350824L198.00377296447755,271.9869653167957L198.40513196372987,254.91739475479218L199.7429952945709,255.6647350480693L200.01056796073914,274.1859665576317L200.67949962615967,228.0145370236264L201.080858625412,248.35738095544136L201.34843129158023,282.0988060834236L202.82008095550535,273.1276233886765L203.75658528709414,285.4105676439223L204.29173061943055,276.9787833097426L204.5593032855988,254.6198248279815L205.62959395027158,255.141897641485L205.76338028335573,228.65990698170725L208.30532061195373,246.68496466740055L208.84046594429014,262.809357183599L210.1783292751312,264.39650022917294L210.31211560821535,254.47319056785028L210.57968827438353,271.59466800453737L211.11483360671997,266.16032059572854L212.31891060447694,285.18153219625066L213.9243466014862,273.11238926659354L214.45949193382262,284.32483293348093L214.72706459999085,272.71952490086636L215.12842359924318,283.4488321288203L215.39599626541136,294.1475519186366L215.6635689315796,263.42428260941614L217.00143226242065,260.71902543504774L217.13521859550477,273.6720676081868L217.5365775947571,286.47490059740795L217.67036392784118,273.9144816777042L218.0717229270935,277.9638872558876L218.47308192634583,302.3126518778133L218.74065459251406,309.64646469479067L219.40958625793456,316.0826196924869L220.34609058952333,317.0250860094889L221.01502225494383,301.39411033105694L221.14880858802798,309.20345927346335L222.75424458503724,276.7458006507847L224.0921079158783,276.6897756072631L224.35968058204654,253.85828076210203L224.49346691513063,266.80585803050974L225.42997124671936,282.03618396570795L226.0989029121399,242.91857330125362L226.6340482444763,261.6544883865555L226.7678345775604,285.24006452485236L228.3732705745697,281.3699588100548L229.44356123924254,280.466484653829L229.97870657157895,281.5454259559789L230.6476382369995,265.15668378022764L230.91521090316775,288.5751710257574L231.45035623550416,304.32320286517285L233.45715123176575,313.36101448225895L233.72472389793398,307.49096403718244L234.39365556335449,292.11642869586973L234.5274418964386,306.4962661830117L234.7950145626068,312.7930814380729L235.1963735618591,280.91320391170507L235.73151889419557,298.56431300319065L236.53423689270022,297.87527672796205L237.06938222503663,307.0223798554922L237.73831389045716,301.62584458319634L238.5410318889618,286.1696523547112L238.94239088821413,303.6988394156225L239.61132255363464,297.4302231291199L240.01268155288696,302.9243898550122L240.6816132183075,301.6223602321159L241.2167585506439,301.08575325728424L241.75190388298037,275.12643029299494L242.9559808807373,299.7896963369758L243.89248521232605,297.07843031376814L244.29384421157837,279.6110127568919L244.42763054466246,285.94199531121967L245.63170754241943,270.13184707069405L246.96957087326047,297.03679039748914L247.3709298725128,310.43996208481576L248.17364787101744,320.25011745544805L248.97636586952208,299.84553402800464L249.51151120185853,303.2824128619188L250.98316086578367,307.8044506415484L251.11694719886782,300.46332598877325L251.65209253120423,294.03428596478204L252.45481052970885,310.419747468636L252.98995586204526,310.5110671054158L253.3913148612976,285.92841384406046L256.6021868553162,287.11763087176627L259.1441271839142,301.78011106613366L259.4116998500824,314.0358897879778L259.5454861831665,317.18189791889745L259.6792725162506,317.0236670247803L260.8833495140076,311.13705023082554L261.9536401786804,295.97341492371237L262.08742651176453,306.4678686073096L262.3549991779327,306.7397538362611L262.48878551101683,318.44099999287846L264.22800784111024,293.6562093889619L264.4955805072785,301.0042770614153L265.9672301712036,313.9131512256202L266.3685891704559,293.8771301305165L266.90373450279236,312.7431901716843L267.4388798351288,313.0093319448772L267.9740251674652,309.8065770300998L268.91052949905395,281.0406142125698L269.04431583213807,289.52191397809514L269.1781021652221,308.77664963361957L269.44567483139036,308.54293118372044L269.8470338306427,315.35148713474274L271.45246982765195,304.3167594739145L272.2551878261566,293.9669501028714L272.65654682540895,310.1569724979386L272.790333158493,319.31198508105257L274.12819648933413,322.1809858790195L274.5295554885864,327.1659084899132L276.0012051525116,328.0565831279111L276.4025641517639,312.0977789023379L276.80392315101625,309.6039406550741L277.4728548164368,316.47271358529355L277.8742138156891,321.251129238919L279.0782908134461,295.90665542559833L280.5499404773712,290.66076824666504L281.2188721427917,293.7718984492465L281.48644480895996,294.1540420670896L284.69731680297855,305.044218323034L285.7676074676514,319.05237253095L286.0351801338196,323.6477777548678L286.4365391330719,326.3306408030307L287.23925713157655,332.1117778985398L287.3730434646606,316.2293688668372L288.30954779624943,319.26709079349456L289.37983846092226,275.50623319158865L289.91498379325867,275.7957413493455L290.4501291255951,286.9148209887809L290.9852744579315,307.94392582171247L291.38663345718385,306.6208735988622L291.6542061233521,299.0070784862474L292.4569241218567,307.0366409648472L293.6610011196137,319.6627538916952L294.7312917842865,316.7178568798063L294.99886445045473,299.983651638668L295.400223449707,304.7271291300635L295.66779611587526,309.5776439269085L295.8015824489593,320.24341869885865L295.93536878204344,317.4856981058022L296.8718731136322,309.87912524492475L297.4070184459686,320.37293155384805L297.54080477905273,314.2239699904701L298.4773091106415,305.23443680780764L299.5475997753143,313.9629648087215L299.68138610839844,322.2067240622813L300.21653144073485,305.4355280576219L300.4841041069031,318.84164465958855L301.68818110466003,311.0239529424863L303.1598307685852,299.559382434055L304.49769409942627,308.2989246183969L304.76526676559445,302.12338968665347L305.70177109718327,312.0219564498412L305.83555743026733,321.4285887731245L306.37070276260374,329.63791433555923L306.7720617618561,317.931892359938L307.8423524265289,304.20870378258303L310.3842927551269,310.6422369103872L310.91943808746333,319.30945740883203L311.85594241905216,328.9204521383306L312.65866041755675,330.66285627176933L312.926233083725,335.11137939617475L314.1303100814819,317.583616053304L314.6654554138184,324.48723431575735L315.86953241157534,317.01230933772166L316.5384640769958,295.51731876427544L316.67225041008,265.59648634336236L316.80603674316404,295.4059706885021L318.94661807250975,311.77415417635365L319.6155497379303,317.05941262163697L320.55205406951904,322.4872748398432L321.0871994018555,313.91525805187973L321.4885584011078,324.9033250216941L322.29127639961246,330.64424483497874L322.4250627326965,330.54615756637895L322.55884906578063,330.1499109998313L322.96020806503293,331.05700294318416L323.6291397304535,326.42072344647045L324.43185772895816,307.7200836942416L324.5656440620422,317.92959952010784L325.90350739288334,323.28773719837056L326.0372937259674,310.4288531386542L326.5724390583038,320.31553175890207L326.70622539138793,289.7177149527241L327.2413707237244,290.1258107386949L327.5089433898926,306.75575771192274L328.31166138839717,308.58412222572247L328.7130203876495,311.8665352188998L329.248165719986,309.26812555686433L329.38195205307005,308.7281636209163L329.6495247192383,322.06098372742616L329.7833110523224,322.93705722757846L330.05088371849064,324.51015697439624L331.52253338241576,319.1248082514188L331.790106048584,318.71467465768075L332.8603967132569,328.4002530200317L332.99418304634094,328.08942881968034L333.3955420455933,330.0285177934119L338.078063703537,333.54606256524215L339.41592703437806,337.00156541981755L340.88757669830323,336.9745882040245L341.824081029892,337.13860105242617L341.95786736297606,325.8338514243758L343.56330335998535,330.5216378257145L343.96466235923765,304.5361806266545L345.16873935699465,294.78412647546224L346.50660268783565,309.12900439724854L347.57689335250853,303.1183272018991L347.9782523517609,316.7358950697305L348.3796113510132,326.6800557837514L349.18232934951783,328.8217288110873L349.85126101493836,334.3839709857899L349.9850473480225,317.6992706158893L350.5201926803589,326.1293441334225L350.653979013443,326.0398261967435L351.5904833450317,313.68732984334287L352.7945603427887,325.11163035208205L353.195919342041,315.2644306856231L354.53378267288207,326.54864606528685L355.8716460037232,323.25639311739747L357.2095093345642,317.4999258332851L359.61766333007813,321.6151777386854L360.55416766166684,314.29376248558486L361.4906719932556,311.7550478533323L361.75824465942384,314.36643170000434L362.5609626579285,318.2950214457214L362.82853532409666,321.5178981519759L363.3636806564331,329.17735720215995L364.1663986549377,332.43112386084215L364.70154398727414,334.43475979187184L366.1731936511993,338.0554443591096L366.57455265045166,339.9134650444318L367.2434843158722,334.0150788136349L368.98270664596555,337.1426498516124L372.19357863998414,339.8289385673294L374.73551896858214,329.3957386644193L375.40445063400267,321.03707340415946L375.5382369670868,325.7702663686708L376.87610029792785,333.2913350458786L377.27745929718014,325.1787234268469L377.9463909626007,331.1070042228214L379.01668162727356,335.17543164357335L379.4180406265259,332.4988314443032L380.3545449581146,332.59057762185097L380.88969029045103,324.95380425055265L381.6924082889557,331.3408859279346L382.62891262054444,336.59134080451037L384.5019212837219,330.63695441756806L385.9735709476471,329.37547289230827L386.6425026130676,314.082261360029L387.17764794540403,325.60930296625696L387.31143427848815,321.81939634903284L387.71279327774045,315.59947378568694L387.8465796108246,306.4531100562193L391.8601696033478,321.6621259040363L392.2615286026001,330.12118185708584L392.7966739349365,312.9493016086592L392.9304602680206,323.5354756031741L393.59939193344115,308.8491176839367L393.7331782665253,318.47819667186775L395.33861426353457,303.07725643143914L396.4089049282074,311.51001420939855L396.67647759437557,324.48002938249084L396.81026392745974,331.5535106550321L399.4859905891418,335.72935377246705L400.5562812538147,338.3491135897525L401.2252129192352,328.2609324639304L401.49278558540345,333.82972055401825L401.8941445846558,323.85772478547796L402.161717250824,331.1954639970693L402.29550358390804,335.32033240833834L403.2320079154968,339.01351491830366L403.7671532478333,338.94856291536087L403.90093958091734,334.4421857122574L404.03472591400146,317.8967621143657L404.3022985801697,327.1749062923122L404.56987124633787,333.36367166401055L405.23880291175846,336.4719217323685L405.50637557792663,324.17014917216187L406.57666624259946,330.5616704609655L410.18889723587034,335.28914426850054L410.32268356895446,310.3887576501051L410.59025623512264,323.80650864190255L411.79433323287964,329.9340122662712L411.92811956596375,319.1040972192466L412.86462389755246,323.29847728177236L413.2659828968048,324.85046461388396L413.39976922988893,330.7014779717131L413.8011282291412,329.09672974972597L414.73763256073005,328.7726293917335L415.67413689231876,334.65433209396537L417.4133592224121,335.5992208240397L418.48364988708494,327.6308474707882L418.61743622016905,333.1733193386881L419.55394055175776,328.684292579642L419.9552995510101,334.8566760757879L420.08908588409423,338.6728265102754L420.2228722171783,303.93120231463314L420.6242312164307,316.1546939503018L423.1661715450287,308.62887459941237L424.23646220970153,323.02624521338885L424.3702485427856,330.7333828944035L424.771607542038,333.00357411542103L425.7081118736267,333.7261734678194L426.10947087287906,330.0534922386879L426.37704353904724,327.3560610733234L426.77840253829953,333.97960604821714L427.313547870636,334.88842999670516L428.517624868393,320.6995660555154L429.32034286689765,329.2798650237611L429.855488199234,320.9698496348013L429.98927453231806,319.8876447187632L430.52441986465453,329.5863554093831L430.65820619773865,318.5742118049832L430.7919925308227,328.7894774034743L431.46092419624324,334.56475624941794L432.1298558616638,338.348914442078L432.2636421947479,340.29965166756796L432.79878752708436,331.03847861628464L433.4677191925049,314.10315520881505L433.601505525589,321.14676522406836L433.7352918586731,318.83591850383397L434.1366508579255,325.75007472924256L435.34072785568236,330.57642409531206L435.4745141887665,329.6420426787913L435.60830052185054,335.21777093936737L436.2772321872711,338.2545688782845L436.94616385269165,339.45706919174097L437.34752285194395,330.13495732943346L437.7488818511963,335.51045250970367L438.0164545173645,339.23263926580034L438.28402718353277,341.4189845124584L438.685386182785,342.75130369453075L439.6218905143738,343.07220887613346L441.227326511383,340.4812497906467L441.4948991775513,337.4904485514203L443.23412150764466,338.4902052725042L443.3679078407288,338.80480784059955L444.83955750465395,327.64025437016124L446.17742083549496,332.47426967205905L446.44499350166325,321.1811180765477L446.7125661678314,329.8479132608376L447.5152841663361,327.2672199121642L448.4517884979248,333.36384987504016L448.5855748310089,337.1751888552147L449.2545064964294,340.3114204956335L449.7896518287659,341.9019652764848L449.92343816184996,340.2276845630207L450.4585834941864,341.28888883792956L452.1978058242798,342.449339226238L452.46537849044796,343.15289410683937L452.5991648235321,342.54444109874333L453.8032418212891,339.1708098283434L454.07081448745726,341.46757731010257L454.33838715362543,332.2069850592747L455.4086778182984,336.73258200977165L456.4789684829712,331.5858883895246L456.88032748222355,336.59916717174195L457.0141138153076,338.7582812925175L457.4154728145599,341.24229753396213L457.6830454807282,342.538705610731L457.81683181381226,343.5907790992963L458.21819081306455,343.1771555126255L459.0209088115692,343.73815234979435L459.55605414390567,344.07245003705884L459.68984047698973,344.5954941197231L461.5628491401672,342.65584837693086L461.96420813941955,330.91168537230266L462.36556713867185,335.4968528002661L463.30207147026067,338.8399267264971L463.7034304695129,329.33526104343L463.97100313568114,334.79177497678734L464.77372113418573,286.16678649805385L465.4426527996063,309.43703882078603L466.24537079811097,322.33141423487456L466.5129434642792,329.68387017219305L467.44944779586797,329.1302812802995L467.8508067951202,330.9221778290813L468.1183794612885,329.22531563908564L468.2521657943726,334.16373966020535L468.65352479362485,330.865831147899L469.7238154582977,335.92635605292173L470.9278924560547,333.049070741504L471.59682412147527,336.98325415504405L472.2657557868958,340.0335053116822L472.93468745231627,342.01605850184865L474.6739097824097,332.8305268990243L474.9414824485779,304.30202188477955L476.279345779419,319.8883858434583L477.21585011100774,327.643716183172L477.61720911026,334.6221547360058L478.2861407756805,338.92078799698777L479.49021777343756,334.82886019767426L479.6240041065216,338.4617519128032L480.4267221050263,329.25174869250344L481.2294401035309,331.1108458332526L481.63079910278316,332.7431306959551L482.1659444351196,337.5492420271839L482.29973076820374,338.1926879826482L482.4335171012878,340.6142394609304L482.7010897674561,341.9939404692303L483.23623509979245,343.01691294982663L483.6375940990448,343.5095412462497L483.7713804321289,324.42603855214855L484.3065257644654,332.72097429973667L484.44031209754945,336.9297888272734L484.57409843063357,339.7940053592075L485.2430300960541,340.83161242749475L485.5106027622223,331.61146753129367L486.8484660930634,336.76250802416666L487.7849704246521,335.98996866820147L488.72147475624087,337.89663934747085L489.1228337554931,340.81809577341573L491.53098775100705,338.22471881957955L492.1999194164276,340.3784952965178L493.4039964141846,340.0934432724934L493.80535541343687,341.6845299762171L494.07292807960516,342.9564475722676L495.00943241119387,339.94480875587016L495.5445777435302,322.80095841612484L495.6783640766144,331.3922374062245L496.7486547412872,335.8426943965376L497.2838000736237,337.7496142010358L497.4175864067078,334.9995468290498L497.81894540596005,329.97403074195694L498.08651807212834,334.3146815721649L499.02302240371705,335.5871317640206L500.0933130683899,337.78376044701946L500.62845840072634,340.7687717534388L500.8960310668945,341.1227859443438L501.69874906539917,338.5854316849771L503.8393303947449,337.4188166550387L504.2406893939972,339.15498716097716L504.6420483932495,341.2569890952217L505.0434073925018,342.7171761564458L505.17719372558594,341.2428393293972L505.84612539100647,342.79648547085316L507.71913405418394,342.2696349186781L508.25427938652035,339.9030879846307L509.3245700511932,339.89101382668355L510.3948607158661,340.26487142300084L512.1340830459595,341.2283860125952L513.0705873775482,340.51826234578067L513.8733053760528,330.4542159467879L514.5422370414734,331.25952284167647L516.0138867053986,336.9029213085105L517.0841773700714,340.0159778042518L517.2179637031555,341.227043208709L517.886895368576,341.990489091971L518.1544680347442,343.22820561812813L518.4220407009125,340.2834619311905L518.8233997001648,342.1690996936027L519.090972366333,335.09701062880276L519.7599040317535,338.6567649945252L519.8936903648377,341.2821267636504L520.9639810295105,342.66516331893166L521.0977673625946,333.75215246777196L521.4991263618468,337.67041772504143L522.4356306934357,340.46037274891324L522.836989692688,341.584929971963L522.9707760257721,337.7960923295162L523.1045623588561,340.20796836886353L524.3086393566132,310.86327192077243L524.8437846889497,318.47207007457354L525.378930021286,328.0568545770082L526.449220685959,334.4591261363709L527.1181523513793,336.80943672567867L529.124947347641,338.44276333782653L529.2587336807251,340.9492763832414L529.7938790130615,337.99593837556483L530.0614516792298,340.3715838821906L530.9979560108185,337.9169378242077L531.533101343155,340.7463097106171L532.7371783409118,342.26929300092394L532.870964673996,343.2530539324754L533.0047510070801,343.48291213565125L533.1385373401642,343.93828433262604L533.2723236732483,343.69314746253355L533.8074690055847,344.25852304747985L534.075041671753,344.46403677443755L534.3426143379211,344.60191430584473L534.7439733371734,343.94218187158316L535.1453323364258,344.1072602774832L535.2791186695099,344.0652151987702L535.6804776687623,344.27328857651787L537.1521273326874,344.537691115395L537.954845331192,344.73179737053755L538.7575633296967,343.58801708599896L539.9616403274536,344.26498445110707L540.0954266605377,343.0723284943285L540.7643583259583,343.5013831022896L541.1657173252106,343.06792455103374L541.9684353237152,343.59229094780665L542.5035806560516,342.7386833497155L543.038725988388,343.64146573970544L544.1090166530608,344.2551189942238L544.5103756523132,344.1957213019819L545.3130936508179,339.4193106984337L545.446879983902,341.4065732588017L546.5171706485748,335.60720269337503L546.9185296478272,336.54744444469765L547.0523159809112,280.1103721052669L547.4536749801637,302.6067634915717L548.6577519779205,319.58119639824565L550.3969743080139,328.21087142804424L550.530760641098,334.03748933690895L550.6645469741821,293.98420717118626L550.7983333072663,314.30749870128994L552.6713419704437,325.21458310755236L555.8822139644623,333.0535840144851L556.2835729637145,336.939953818098L556.5511456298829,335.43621702901754L556.818718296051,337.4693045424421L557.2200772953033,339.61239028523954L557.4876499614716,339.4313437424938L557.7552226276398,339.844910030185L558.1565816268921,342.0417888907932L558.2903679599762,340.4871770794098L560.6985219554902,342.3890005709689L562.0363852863312,342.5431207645189L562.9728896179199,343.00864351910593L563.5080349502563,343.9482721380274L563.6418212833405,344.4711210918517L564.310752948761,344.792354738329L564.4445392818451,344.67449097094294L564.8458982810974,344.9387706502357L566.3175479450226,339.4173261802351L566.4513342781067,339.179347597336L568.0567702751159,341.3668808798084L568.1905566082,342.0575219843613L568.4581292743683,343.18139298467247L568.5919156074524,344.00284629658364L568.9932746067047,343.95962572954477L569.1270609397887,344.46643117157845L569.2608472728729,344.81733746785886L570.1973516044617,345.014318381973L570.4649242706299,344.41544839336615L570.732496936798,344.73656999794275L572.3379329338073,343.81402092100524L572.7392919330597,344.41156164884865L572.8730782661438,320.18315432231304L573.0068645992279,328.75147855534993L573.140650932312,335.3165258535371L573.6757962646484,339.0185156330392L574.0771552639007,340.5051582243233L576.0839502601624,342.3205207897762L576.3515229263305,343.2481341727174L577.1542409248352,343.5639254286372L577.4218135910035,343.2983014074219L577.9569589233398,342.9303560313621L578.4921042556763,341.80552569628975L578.6258905887604,342.04389226482976L580.632685585022,342.47983172063124L581.8367625827789,343.5467323582222L582.1043352489471,318.26407079557833L582.3719079151153,328.96743347739454L582.7732669143677,334.8647647568558L583.0408395805359,338.73595689984677L583.4421985797882,340.8926589004904L584.6462755775452,339.6980144336363L585.0476345767975,339.4995879418012L585.4489935760498,341.76884210796294L588.3922929039002,342.80287301680494L589.0612245693206,343.71831979057134L589.8639425678253,343.9740932363944L590.2653015670776,343.8549581220353L590.800446899414,343.69069364693826L591.6031648979186,344.3436038738799L592.0045238971711,340.051704995254L592.2720965633392,341.80748037723674L592.9410282287598,341.9637837421L593.2086008949279,340.1719922359082L593.6099598941803,341.6285240801191L595.8843275566101,342.61938095101294L596.0181138896943,343.6679394914247L596.4194728889465,329.59195904522795L597.4897635536194,335.735027836719L597.6235498867036,339.1296749082137L598.8276268844604,341.4946556963513L599.6303448829651,342.7048815046502L599.7641312160491,342.5881065799195L599.8979175491332,341.64771793618337L600.2992765483856,339.8742332456317L601.1019945468903,342.07270605714893L601.7709262123108,332.89825485274326L602.1722852115631,337.80430408009346L603.242575876236,340.8464680605771L603.7777212085724,340.6410750751901L604.0452938747405,342.3359339679902L605.2493708724976,326.4862062543351L605.9183025379181,333.70843839582824L606.7210205364228,336.49091454345916L606.8548068695069,339.85120528403735L607.5237385349274,342.0218909383516L608.4602428665161,342.6959056234055L609.3967471981049,325.4239252921723L610.1994651966095,319.00978290649283L610.6008241958618,329.01631383882903L610.8683968620301,334.55363154827984L611.0021831951142,338.8308861154481L611.9386875267029,340.82884464042263L613.0089781913757,342.1859649904359L613.1427645244598,333.14410897555615L613.4103371906281,337.7419036816792L613.9454825229645,340.6997581072836L614.4806278553009,341.8604516490913L615.1495595207214,343.0322868817676L616.7549955177307,343.96696313507135L617.5577135162354,343.30318128249877L618.36043151474,343.8802881465305L618.7617905139923,344.2543489466434L619.564508512497,344.49853065577645L621.1699445095063,343.4649267674116L621.7050898418427,343.7032026456007L622.6415941734314,335.61720018360984L623.0429531726837,339.27847625110326L624.5146028366089,341.7179596406314L625.85246616745,342.41156177814486L625.9862525005341,342.21006162328985L626.3876114997863,343.4118043258724L627.190329498291,344.1544163383914L627.8592611637116,344.303038304911L629.8660561599731,338.54819878525257L629.9998424930573,341.2946260455766L631.0701331577301,336.9409871228111L631.7390648231507,340.32473971177296L632.5417828216553,342.3771926665202L632.8093554878235,342.86231155455977L632.9431418209076,299.1134706191319L633.7458598194122,297.1734185560576L635.0837231502533,315.3474429220129L635.4850821495056,324.7550541576844L635.7526548156738,332.53172223563377L635.886441148758,337.56924011083595L636.0202274818421,340.6612904655052L636.5553728141786,300.0188929162456L637.8932361450195,317.77514084712965L638.0270224781036,328.40128462521926L638.2945951442719,335.21213273652194L639.6324584751129,338.8884009217526L639.766244808197,340.23150619411564L642.0406124706268,342.2105810262679L642.9771168022156,343.5092246336631L643.512262134552,344.0083232860495L644.716339132309,344.42491194310173L645.3852707977295,343.8892734022883L646.05420246315,344.32127620233075L646.8569204616547,344.47734260820926L648.0609974594116,344.66472436448333L648.5961427917481,344.7951733360355L649.1312881240844,344.97883048283717L649.5326471233368,344.8709166702478L650.3353651218415,343.51889446838834L651.004296787262,343.72983222859494L651.8070147857667,344.3396737436861L652.4759464511872,344.65746163822246L652.8773054504395,344.55368125024233L653.0110917835235,343.7188569676176L653.9475961151123,344.36136452192625L655.0178867797852,344.75305141992266L656.088177444458,344.9704749687521L656.6233227767943,345.1237894724773L657.0246817760468,344.9996829371992L657.426040775299,337.9317656031074L657.5598271083832,340.7435126015202L658.630117773056,342.5026404717188L658.8976904392242,343.60287943642777L660.3693401031494,344.24711161124907L661.4396307678222,344.69015486048164L662.2423487663268,344.95794574786504L662.9112804317474,345.0639854231727L663.4464257640839,332.86572612817827L664.5167164287567,337.65711381081576L667.5938020896912,328.4530421662662L668.3965200881958,335.18572481054497L668.9316654205322,339.28993771939383L670.9384604167938,341.53752043470837L671.7411784152985,342.9608335525909L672.1425374145508,343.86868947543064L672.410110080719,344.48581817747834L673.3466144123078,344.5659076268856L673.7479734115601,339.74724158506564L674.2831187438965,342.01390794952465L674.8182640762329,343.3831453723319L674.952050409317,344.17778974394616L675.085836742401,344.62919991354073L675.3534094085694,344.9028256834668L676.156127407074,344.49156190904614L677.0926317386627,344.574913202165L677.3602044048309,344.90708425988583L677.6277770709991,344.77769113348825L678.1629224033355,341.95848771230845L678.5642814025879,343.26440645246527L678.698067735672,344.13357626870777L678.9656404018402,344.4548222369742L680.0359310665131,344.8365632907958L681.1062217311859,345.0023704722352L681.3737943973541,345.0769336182009L683.2468030605315,344.82031713596814L683.648162059784,344.17099120871836L684.0495210590362,344.44889941552753L685.3873843898773,344.778398703462L685.9225297222138,343.8349007167495L686.323888721466,342.45445500171803L688.3306837177277,337.98117994699385L688.9996153831481,340.6044641051582L689.1334017162324,342.49929457236794L689.6685470485687,343.4953403570071L690.2036923809052,344.1742491590885L690.3374787139893,344.6723170583486L690.4712650470733,344.8341393272791L690.7388377132417,345.05238788057216L691.4077693786621,345.1071357644561L691.5415557117462,344.76482514254576L691.6753420448304,344.9972844313913L692.8794190425873,344.84978322886604L693.9497097072601,345.0603604247829L694.4848550395965,345.2048704360606L694.7524277057648,344.5961082593779L695.5551457042694,343.2727280905685L696.6254363689422,343.707505021405L696.7592227020264,344.2809400730232L697.561940700531,344.60353056365125L697.9632996997834,343.7844229887324L699.0335903644562,336.88745277399465L699.8363083629608,340.2808774007331L700.2376673622131,342.3266370527124L700.3714536952973,342.8522985190996L700.7728126945495,343.53672031107465L701.1741716938019,344.27209134628873L701.5755306930542,342.70469220049876L703.1809666900634,342.10643944973896L703.7161120223999,343.31857541874604L704.6526163539887,344.06656073548083L705.4553343524933,344.32451332809933L705.8566933517455,344.72715460387855L705.9904796848297,339.0603150487473L706.1242660179139,341.2507949586919L706.5256250171661,341.4630163634665L706.6594113502503,342.95571741860294L707.595915681839,343.903576643144L707.8634883480072,344.5091946690829L708.1310610141754,344.71450780149723L708.93377901268,344.9389618678755L709.6027106781006,344.83913574989526L709.7364970111847,345.0568474561964L710.1378560104371,345.15510093086635L710.5392150096893,344.06590628577163L710.8067876758575,341.0168906404623L711.0743603420258,342.6616830625045L712.1446510066986,343.75363476506396L713.2149416713714,344.2328000736329L713.4825143375397,344.529117516415L713.7500870037079,344.83558744820164L713.883873336792,345.0384957566399L714.017659669876,344.98684695830906L714.9541640014648,344.25844852067394L715.087950334549,344.4822036773948L717.4961043300628,334.44210446645803L717.8974633293152,338.8056648888958L719.3691129932404,341.09896336904626L720.171830991745,336.2584542228686L721.9110533218384,339.8261747397605L722.713771320343,341.8594543481814L722.8475576534271,343.24332668460124L723.6502756519318,344.10123110423734L723.9178483181,344.3295960466022L724.4529936504364,344.58125236135174L725.9246433143616,344.8666287285973L726.1922159805298,345.069796770236L726.459788646698,345.14925973032274L726.9949339790344,345.2495834629968L727.2625066452026,345.2819091329374L727.9314383106232,345.23066262314876L728.4665836429596,345.1962723934674L729.1355153083801,345.29629023180394L733.0153189678192,345.34034180548855L733.2828916339874,343.42251467849616L734.4869686317444,344.19065209481664L734.6207549648285,344.4449764444355L734.7545412979126,344.7655972025149L737.8316269588471,344.9002675801912L738.3667722911835,344.8040336995949L738.7681312904358,344.98122325686364L739.0357039566039,345.1472998568667L739.3032766227723,344.38251694150244L742.2465759506225,344.6206729484143L743.7182256145477,344.82261053850425L743.8520119476318,344.7764178986358L744.1195846138,345.045815294303L744.3871572799683,345.1801602657987L744.7885162792205,345.24159712338997L746.1263796100617,315.30740608122676L746.527738609314,327.3746282769114L746.661524942398,334.5838940099979L747.4642429409027,338.880674299234L747.7318156070709,341.3982607274349L747.9993882732391,342.9767706785656L748.6683199386597,343.9460181439726L748.9358926048279,344.52720718336724L749.2034652709962,344.6081858444475" fill="none"></path></g></g></g></g><g opacity="0.2"><g><g><g><path style="fill: none;" stroke="rgb(255, 112, 67)" stroke-width="2px" d="M67.56209820747375,11.559585559589323L68.89996153831481,9.943543996283552L69.03374787139892,11.39472248195672L69.43510687065124,6.2207056618353676L69.56889320373536,7.8444152752636L70.5053975353241,17.53107959244518L70.6391838684082,13.825494370772503L72.3784061985016,11.810714201099458L73.31491053009033,15.93037412938429L73.44869686317443,12.694456977711539L73.58248319625854,14.477278631180539L74.25141486167908,12.755801378691103L75.32170552635193,14.237652064854032L75.45549185943604,15.512465397710926L75.85685085868836,10.798531584936413L75.99063719177246,9.807436106610126L76.39199619102477,14.96036578889472L76.52578252410889,12.312971484119771L77.32850052261352,19.141370118159116L77.99743218803405,16.557237226894358L78.9339365196228,11.88164366473211L80.27179985046388,10.077734873426394L80.80694518280029,19.624457275873297L81.34209051513672,14.160971563629587L83.21509917831422,20.073038208036465L83.75024451065063,15.45878904685378L83.88403084373473,16.689511091506574L84.15160350990296,15.604481999180294L84.41917617607118,17.669104494649233L85.22189417457581,16.434548424935187L86.29218483924866,14.231901027262197L86.55975750541687,27.91170244570823L86.69354383850097,11.674606311426032L87.0949028377533,17.667187482118607L88.03140716934203,30.183362294483246L88.43276616859436,12.021585579466787L88.70033883476258,14.968033839017139L88.9679115009308,27.238831047463478L90.03820216560364,16.63966876571068L90.70713383102417,37.00025885333888L91.64363816261292,3.487045793182929L91.77742449569702,25.933345514116823L92.58014249420165,37.2475534697878L92.71392882728577,44.16988571782714L94.18557849121093,20.122880533832358L94.45315115737915,40.73268225044011L95.52344182205199,21.1043909495056L95.79101448822021,72.84455915071887L96.99509148597717,31.651793892931877L97.66402315139771,27.683577954565393L99.6708181476593,10.79661457240583L99.80460448074341,21.248166889301487L101.54382681083679,54.75754592439627L101.67761314392091,56.022774194600075L103.28304914093019,100.3556059775292L103.68440814018251,45.14947912096976L104.21955347251891,68.67697390916872L104.75469880485535,31.348905913095223L105.15605780410768,30.179528269421994L105.55741680335998,27.608814465871532L105.82498946952819,43.186458289623275L106.49392113494872,16.444133487588275L106.76149380111696,38.276989198726355L106.89528013420104,64.04547163521057L108.23314346504212,13.988440435874523L108.76828879737855,14.661311834119275L109.30343412971496,72.62601972222912L109.57100679588319,8.833593741059303L109.70479312896728,36.557428958767545L110.1061521282196,51.77659143929486L113.18323778915405,108.49140715744578L113.31702412223815,57.416442304354845L114.92246011924743,70.91221051986214L115.72517811775208,136.6753253825009L115.85896445083618,46.37253311550013L115.99275078392029,66.49541364933249L117.59818678092955,148.26174911751878L118.66847744560242,29.690690074115977L119.20362277793883,127.35097643360496L119.47119544410707,42.960250811011065L120.1401271095276,87.92953075410334L120.80905877494811,122.68688494662638L121.07663144111635,158.76506077274098L122.54828110504151,112.50754840907757L123.35099910354614,166.99479556665756L123.48478543663023,109.2198719190783L125.35779409980775,108.33421212993564L125.49158043289184,89.80628602157229L125.75915309906007,95.64742320234656L126.6956574306488,54.469994044804494L127.49837542915344,51.02320551476441L128.03352076148988,146.97926773453946L128.70245242691038,97.65645233442773L129.23759775924682,127.35097643360496L129.63895675849915,98.149124554795L129.90652942466735,72.62985374729033L130.4416747570038,166.52512749665766L130.57546109008788,132.0112338955223L131.24439275550841,144.15934230200946L131.37817908859253,116.43167305924L132.18089708709715,75.82934766088148L133.11740141868592,138.69585658976575L135.25798274803162,174.71268801490078L135.52555541419983,154.30417261400726L135.65934174728395,106.49004607548703L135.79312808036804,180.03814882494044L136.19448707962036,89.80436900904171L136.4620597457886,194.10902079963125L138.33506840896607,223.2993706032576L138.46885474205015,132.8681384967058L138.7364274082184,130.28592261797166L139.0040000743866,182.44016552579706L139.2715727405548,181.3608874710626L139.80671807289124,209.18440734036264L140.07429073905945,173.8577004262479L140.60943607139586,150.4701475527836L140.87700873756407,201.9496020498336L141.4121540699005,170.65628950012615L142.21487206840516,134.46309292217484L142.48244473457336,139.20003088531666L143.0175900669098,166.6133100730658L145.1581713962555,101.09365580181476L145.2919577293396,253.9639030429244L145.69331672859192,124.17640368291177L145.96088939476013,159.13121016608784L146.49603472709654,195.56786733542688L146.76360739326475,168.93672926016734L149.03797505569457,217.52724587358534L149.1717613887787,186.60391674228595L150.24205205345154,155.56748387168045L150.37583838653563,225.0189308432164L151.0447700519562,240.1729148977029L151.17855638504028,186.11316153444932L151.71370171737672,197.53280517930395L152.24884704971313,204.52031585338406L153.05156504821778,251.63089879316976L153.18535138130187,192.1268298429786L153.85428304672243,207.70447366673034L154.12185571289064,209.7748471997911L155.05836004447937,219.91584348672765L155.32593271064758,218.8768226951361L156.26243704223631,246.23067449443624L157.3327277069092,106.0107929428341L157.46651403999329,144.0347364875197L158.53680470466614,197.04204997146735L159.607095369339,256.6592226609646L159.8746680355072,297.825149743323L162.0152493648529,161.46613142837305L163.48689902877808,101.59207905977382L163.7544716949463,179.48604921612423L164.0220443611145,194.94867228803923L164.15583069419858,168.202513460943L164.42340336036682,213.5475278600352L164.5571896934509,223.11342038778818L164.82476235961914,250.89860000647607L164.95854869270323,188.21037324293866L165.09233502578735,242.1876950673759L165.76126669120788,208.4559425787302L166.56398468971253,242.2490394683555L169.23971135139467,256.54228489659727L170.3100020160675,198.62933634681394L170.71136101531982,216.630084009259L170.84514734840394,178.87643923138967L171.11272001457215,215.43770221521848L171.38029268074035,231.51568630945982L171.64786534690856,253.65718103802644L172.4505833454132,293.7783362912014L174.59116467475891,222.7376859317883L174.72495100784303,247.09141312068098L174.99252367401124,274.75965497500147L175.39388267326356,265.0097292443097L176.4641733379364,201.94768503730302L176.5979596710205,289.1870912803861L177.80203666877748,216.91380186378953L178.3371820011139,222.4961423529312L179.40747266578674,243.4088320493756L179.80883166503907,246.29968694553827L180.07640433120727,258.7372642441478L181.68184032821654,300.94796315568965L182.35077199363707,188.08385041591828L182.8859173259735,247.1527575216605L183.55484899139404,249.91133855321095L185.29407132148742,231.0268481141538L185.56164398765563,187.96307862648973L186.36436198616028,240.40870743896815L186.7657209854126,261.63195316537167L187.03329365158083,154.34059585208888L187.56843898391722,239.06296464247865L187.70222531700134,251.53121414157798L188.50494331550598,247.83521398255834L191.1806699771881,283.5204022398975L191.4482426433563,204.85195902117994L191.71581530952454,266.9037376245542L193.0536786403656,201.08886342358895L193.99018297195434,270.15690788900247L194.792900970459,287.128219822509L195.86319163513184,258.25992812402546L198.00377296447755,288.9666348393657L198.40513196372987,229.31303891178683L199.7429952945709,256.78574548798497L200.01056796073914,301.96781382197514L200.67949962615967,158.75739272261853L201.080858625412,278.87164685316384L201.34843129158023,332.710943775397L202.82008095550535,259.67084934655577L203.75658528709414,303.83498402679106L204.29173061943055,264.3311068084731L204.5593032855988,221.08138710533967L205.62959395027158,255.9250068617403L205.76338028335573,188.93692099204057L208.30532061195373,273.72255119594047L208.84046594429014,286.99594595789677L210.1783292751312,266.7772147975338L210.31211560821535,239.58822607586626L210.57968827438353,297.276884159568L211.11483360671997,258.0087994825153L212.31891060447694,313.7133495970338L213.9243466014862,255.00867487210778L214.45949193382262,301.14349843381206L214.72706459999085,255.31156285194447L215.12842359924318,299.5427929707512L215.39599626541136,310.1956316033611L215.6635689315796,217.33937864558536L217.00143226242065,256.6611396734952L217.13521859550477,293.10163086789544L217.5365775947571,305.67915008123964L217.67036392784118,255.07385329814863L218.0717229270935,284.0379956231627L218.47308192634583,338.8357988107018L218.74065459251406,320.6471839202568L219.40958625793456,325.7368521890312L220.34609058952333,318.43878548499197L221.01502225494383,277.94764681340894L221.14880858802798,320.91748268707306L222.75424458503724,228.0593127167667L224.0921079158783,276.60573804198066L224.35968058204654,219.61103849436037L224.49346691513063,286.2272239331214L225.42997124671936,304.8816728685051L226.0989029121399,184.24215730457217L226.6340482444763,289.7583610145084L226.7678345775604,320.6184287322976L228.3732705745697,275.56480023785844L229.44356123924254,279.1112734194903L229.97870657157895,283.1638379092037L230.6476382369995,240.5735705166007L230.91521090316775,323.70290189405205L231.45035623550416,327.945250624296L233.45715123176575,326.9177319078881L233.72472389793398,298.6858883695677L234.39365556335449,269.05462568390067L234.5274418964386,328.06602241372457L234.7950145626068,322.2383043206646L235.1963735618591,233.09338762215341L235.73151889419557,325.0409766404191L236.53423689270022,296.8417223151191L237.06938222503663,320.7430345467874L237.73831389045716,293.5310416747525L238.5410318889618,262.9853640119836L238.94239088821413,329.99262000698945L239.61132255363464,288.02729869936593L240.01268155288696,311.1656399438507L240.6816132183075,299.66931579777156L241.2167585506439,300.28084279503673L241.75190388298037,236.1874458465609L242.9559808807373,336.78459540294716L243.89248521232605,293.0115312789567L244.29384421157837,253.4098864215775L244.42763054466246,295.43846914271126L245.63170754241943,246.41662470990556L246.96957087326047,337.3942053876817L247.3709298725128,330.54471961580566L248.17364787101744,334.96535051139654L248.97636586952208,269.2386588868394L249.51151120185853,308.43773111279006L250.98316086578367,314.5875073109928L251.11694719886782,289.4516390096105L251.65209253120423,284.3907259287953L252.45481052970885,334.99793972441694L252.98995586204526,310.6480465605855L253.3913148612976,249.05443395202747L256.6021868553162,288.9014564133249L259.1441271839142,323.7738313576847L259.4116998500824,332.41955787074403L259.5454861831665,321.90091011527693L259.6792725162506,316.7863206836046L260.8833495140076,302.30712503989344L261.9536401786804,273.2279619630426L262.08742651176453,322.20954913270543L262.3549991779327,307.1475816796883L262.48878551101683,335.9928692278045L264.22800784111024,256.4790234830871L264.4955805072785,312.0263785700954L265.9672301712036,333.2764624719275L266.3685891704559,263.823098487861L266.90373450279236,341.04228023343603L267.4388798351288,313.40854460466653L267.9740251674652,305.00244465793367L268.91052949905395,237.8916699862748L269.04431583213807,302.24386362638324L269.1781021652221,337.65875311690615L269.44567483139036,308.19235350887175L269.8470338306427,325.56432106127613L271.45246982765195,287.7646679826721L272.2551878261566,278.4422360463068L272.65654682540895,334.4420060905395L272.790333158493,333.0445039557235L274.12819648933413,326.4844870759698L274.5295554885864,334.64329240625375L276.0012051525116,329.39259508490795L276.4025641517639,288.15957256397814L276.80392315101625,305.8631832841784L277.4728548164368,326.7758729806228L277.8742138156891,328.41875271935714L279.0782908134461,257.8899447056174L280.5499404773712,282.791937478265L281.2188721427917,298.43859375311877L281.48644480895996,294.72725749385427L284.69731680297855,321.3794827069505L285.7676074676514,340.064603842824L286.0351801338196,330.54088559074444L286.4365391330719,330.3549353752751L287.23925713157655,340.78348354180343L287.3730434646606,292.40575531928334L288.30954779624943,323.8236736834806L289.37983846092226,209.8649467887299L289.91498379325867,276.23000358598074L290.4501291255951,303.593440447934L290.9852744579315,339.48758307110984L291.38663345718385,304.6362952645868L291.6542061233521,287.5863858173252L292.4569241218567,319.08098468274693L293.6610011196137,338.6019232819672L294.7312917842865,312.3005113619729L294.99886445045473,274.8823437769606L295.400223449707,311.84234536715667L295.66779611587526,316.853416122176L295.8015824489593,336.242080856784L295.93536878204344,313.34911721621756L296.8718731136322,298.46926595360856L297.4070184459686,336.113641017233L297.54080477905273,305.00052764540305L298.4773091106415,291.7501370338141L299.5475997753143,327.05575681009213L299.68138610839844,334.5723629426211L300.21653144073485,280.2787340506329L300.4841041069031,338.9508195625385L301.68818110466003,299.29741536683287L303.1598307685852,282.362526671408L304.49769409942627,321.4082378949097L304.76526676559445,292.86008728903835L305.70177109718327,326.8698065946228L305.83555743026733,335.5385372580495L306.37070276260374,341.95190267921134L306.7720617618561,300.3728593965061L307.8423524265289,283.62392091655056L310.3842927551269,320.2925366020936L310.91943808746333,332.31028815649915L311.85594241905216,343.3369442325784L312.65866041755675,333.2764624719275L312.926233083725,341.7841640827828L314.1303100814819,291.2919710389979L314.6654554138184,334.8426617094374L315.86953241157534,305.7999218706682L316.5384640769958,263.274832904106L316.67225041008,220.71523771199278L316.80603674316404,340.12019720621174L318.94661807250975,336.32642940813093L319.6155497379303,324.987300289562L320.55205406951904,330.6290681671526L321.0871994018555,301.0572328699345L321.4885584011078,341.38542547641555L322.29127639961246,339.2556245549058L322.4250627326965,330.39902666347916L322.55884906578063,329.55554115000996L322.96020806503293,332.4176408582134L323.6291397304535,319.4663042013999L324.43185772895816,279.66912406589836L324.5656440620422,333.2438732589071L325.90350739288334,331.3249437157647L326.0372937259674,291.14052704907954L326.5724390583038,335.14554968927405L326.70622539138793,243.82098974345718L327.2413707237244,290.73795441765105L327.5089433898926,331.7006781717646L328.31166138839717,311.3266689964221L328.7130203876495,316.7901547086658L329.248165719986,305.37051106381114L329.38195205307005,307.91822071699426L329.6495247192383,342.0602138871909L329.7833110523224,324.25116747780703L330.05088371849064,326.8698065946228L331.52253338241576,311.04678516695276L331.790106048584,318.0994742670737L332.8603967132569,342.92862056355807L332.99418304634094,327.62319251915324L333.3955420455933,332.9371512540092L338.078063703537,338.82237972298753L339.41592703437806,342.1848197016807L340.88757669830323,336.9341223803349L341.824081029892,337.38462032502866L341.95786736297606,308.87672698230017L343.56330335998535,337.5533174277225L343.96466235923765,265.5579948280647L345.16873935699465,280.15604524867376L346.50660268783565,330.6463212799281L347.57689335250853,294.1023114088748L347.9782523517609,337.1622468714777L348.3796113510132,341.59629685478285L349.18232934951783,332.03423835209105L349.85126101493836,342.7273342478438L349.9850473480225,292.6722200610384L350.5201926803589,338.77445440972224L350.653979013443,325.90554929172504L351.5904833450317,295.15858531324193L352.7945603427887,342.24808111519087L353.195919342041,300.49363118593465L354.53378267288207,343.47496913478244L355.8716460037232,318.3180136955634L357.2095093345642,308.8652249071165L359.61766333007813,327.78805559678585L360.55416766166684,303.31163960593403L361.4906719932556,307.94697590495343L361.75824465942384,318.2835074700124L362.5609626579285,324.18790606429684L362.82853532409666,326.3522132113576L363.3636806564331,340.6665457774361L364.1663986549377,337.3117738488654L364.70154398727414,337.4402136884164L366.1731936511993,343.4864712099661L366.57455265045166,342.70049607241526L367.2434843158722,325.1674994674395L368.98270664596555,341.8340064085787L372.19357863998414,343.8583716409048L374.73551896858214,313.7459388100542L375.40445063400267,308.49907551376964L375.5382369670868,332.8700558154378L376.87610029792785,344.57293806169037L377.27745929718014,313.00980599829927L377.9463909626007,339.9994254167832L379.01668162727356,341.2780727747013L379.4180406265259,328.48393114539795L380.3545449581146,332.72819688817253L380.88969029045103,313.4986441936053L381.6924082889557,340.9215084440075L382.62891262054444,344.46702311937406L384.5019212837219,321.7053748371545L385.9735709476471,327.4832506044186L386.6425026130676,291.14244406161015L387.17764794540403,342.8998653755989L387.31143427848815,316.13453642319655L387.71279327774045,306.2695899406681L387.8465796108246,292.73356446201797L391.8601696033478,344.4756496757618L392.2615286026001,342.80976578666014L392.7966739349365,287.1914812360192L392.9304602680206,339.4147365949466L393.59939193344115,286.8195808050805L393.7331782665253,332.9218151537643L395.33861426353457,279.97584607079625L396.4089049282074,324.15915087633766L396.67647759437557,343.9350521421293L396.81026392745974,342.16373256384395L399.4859905891418,341.9931184486195L400.5562812538147,342.27875331568066L401.2252129192352,313.1286607751972L401.49278558540345,342.18290268915007L401.8941445846558,308.8997311326675L402.161717250824,342.2020728144562L402.29550358390804,341.50763502524205L403.2320079154968,344.5532886832516L403.7671532478333,338.8511349109467L403.90093958091734,327.6826199076022L404.03472591400146,293.0786267175281L404.3022985801697,341.09212255923194L404.56987124633787,342.64681972155813L405.23880291175846,341.1342968349054L405.50637557792663,305.7174903318519L406.57666624259946,340.1489523941709L410.18889723587034,342.3803549798031L410.32268356895446,273.03817772251205L410.59025623512264,343.93313512959867L411.79433323287964,339.1252677028242L411.92811956596375,302.85922464870964L412.86462389755246,329.59004737556097L413.2659828968048,327.1784456120513L413.39976922988893,339.4779980084568L413.8011282291412,326.6896074167453L414.73763256073005,328.2864788547449L415.67413689231876,343.47688614731305L417.4133592224121,337.0165539191512L418.48364988708494,315.67828744091094L418.61743622016905,341.487027140538L419.55394055175776,321.95075244107284L419.9552995510101,344.1152513200068L420.08908588409423,344.39705216200673L420.2228722171783,251.81876602116975L420.6242312164307,334.4899314038048L423.1661715450287,297.3401455730782L424.23646220970153,344.6223011343536L424.3702485427856,342.29408941592555L424.771607542038,336.40886094694724L425.7081118736267,334.810072496417L426.10947087287906,324.54447039499064L426.37704353904724,323.3099143252766L426.77840253829953,343.91492351055786L427.313547870636,336.2516659194371L428.517624868393,299.4162701437308L429.32034286689765,342.15031347612967L429.855488199234,308.5048265513615L429.98927453231806,318.2643373447063L430.52441986465453,344.1344214453129L430.65820619773865,302.0559963983833L430.7919925308227,344.1123758012109L431.46092419624324,343.2276745183335L432.1298558616638,344.02515173106804L432.2636421947479,343.2257575058029L432.79878752708436,317.1467190393596L433.4677191925049,288.7001700976107L433.601505525589,331.71218024694826L433.7352918586731,315.36964842348243L434.1366508579255,336.12130906735547L435.34072785568236,337.8159481444163L435.4745141887665,328.24047055401024L435.60830052185054,343.5813633302314L436.2772321872711,342.80976578666014L436.94616385269165,341.2608196619258L437.34752285194395,316.15178953597206L437.7488818511963,343.57369528010895L438.0164545173645,344.8159193999454L438.28402718353277,344.69850238244544L438.685386182785,344.7497824676393L439.6218905143738,343.5535666485375L441.227326511383,336.5948111624166L441.4948991775513,333.00424669258064L443.23412150764466,339.98984035413014L443.3679078407288,339.27671169274254L444.83955750465395,310.8934241645038L446.17742083549496,339.7252926249057L446.44499350166325,304.24139068328077L446.7125661678314,342.8481060372724L447.5152841663361,323.39617988915415L448.4517884979248,342.5087948193541L448.5855748310089,342.89219732547645L449.2545064964294,345.0157679562617L449.7896518287659,344.28778244776186L449.92343816184996,337.7162634928245L450.4585834941864,342.8806952502928L452.1978058242798,344.19001480870065L452.46537849044796,344.20822642774147L452.5991648235321,341.63176158659917L453.8032418212891,334.11036292274366L454.07081448745726,344.9127285327413L454.33838715362543,318.3160966830328L455.4086778182984,343.5209774355171L456.4789684829712,323.86584795915405L456.88032748222355,344.119085345068L457.0141138153076,341.9969524736807L457.4154728145599,344.96832189612905L457.6830454807282,344.48331772588426L457.81683181381226,345.1688893321443L458.21819081306455,342.5567201326194L459.0209088115692,344.5796476055475L459.55605414390567,344.57389656795567L459.68984047698973,345.3800602437195L461.5628491401672,339.74637976274244L461.96420813941955,313.29544086536043L462.36556713867185,342.37460394221125L463.30207147026067,343.8545376158436L463.7034304695129,315.07826251882943L463.97100313568114,342.97654587682337L464.77372113418573,213.22930377995365L465.4426527996063,344.3424173048843L466.24537079811097,341.6729773560073L466.5129434642792,340.7125540781708L467.44944779586797,328.2998979424592L467.8508067951202,333.610022652254L468.1183794612885,326.6800223540922L468.2521657943726,341.5713756918849L468.65352479362485,325.9189683794393L469.7238154582977,343.5171434104559L470.9278924560547,328.7331427743775L471.59682412147527,342.884529275354L472.2657557868958,344.60888204663934L472.93468745231627,344.98988828709844L474.6739097824097,319.05222949478775L474.9414824485779,261.5092643634125L476.279345779419,343.26793178147636L477.21585011100774,339.27671169274254L477.61720911026,345.0898125652566L478.2861407756805,345.3687378884606L479.49021777343756,328.690968498704L479.6240041065216,343.91108948549663L480.4267221050263,315.43674386205385L481.2294401035309,333.89949154437636L481.63079910278316,335.19155799000873L482.1659444351196,344.75840902402706L482.29973076820374,339.1578569158446L482.4335171012878,344.2465666783537L482.7010897674561,344.0634919816803L483.23623509979245,344.551371670721L483.6375940990448,344.2484836908843L483.7713804321289,295.8007845109969L484.3065257644654,345.1633779211188L484.44031209754945,343.2430106185784L484.57409843063357,344.09033015710884L485.2430300960541,342.38802302992553L485.5106027622223,317.7812501869921L486.8484660930634,344.4890687634761L487.7849704246521,334.8311596342537L488.72147475624087,340.75664536637487L489.1228337554931,345.2002804123331L491.53098775100705,334.33465338882525L492.1999194164276,343.60916001192527L493.4039964141846,339.66586523645674L493.80535541343687,344.0711600318027L494.07292807960516,344.86432396634336L495.00943241119387,335.427350531274L495.5445777435302,297.0851829065068L495.6783640766144,344.2791558913741L496.7486547412872,342.51837988200714L497.2838000736237,340.60999390778306L497.4175864067078,330.8744457710709L497.81894540596005,322.43575661131763L498.08651807212834,340.8256578174769L499.02302240371705,337.49580705180415L500.0933130683899,341.07870347151766L500.62845840072634,345.24628871306777L500.8960310668945,341.6538072307012L501.69874906539917,334.7794002959272L503.8393303947449,335.6688941101311L504.2406893939972,341.75924291988485L504.6420483932495,344.40999199658836L505.0434073925018,344.90745674828213L505.17719372558594,339.0313340888242L505.84612539100647,345.1269546830372L507.71913405418394,341.4793590904155L508.25427938652035,336.3532675835595L509.3245700511932,339.8729025897628L510.3948607158661,340.8256578174769L512.1340830459595,342.6736578969867L513.0705873775482,339.4530768455588L513.8733053760528,315.35814634829876L514.5422370414734,332.4674831840093L516.0138867053986,345.3680190087616L517.0841773700714,344.6855625478638L517.2179637031555,343.0436413153948L517.886895368576,343.13565791686415L518.1544680347442,345.0847804073637L518.4220407009125,335.8663464007841L518.8233997001648,344.9975563372209L519.090972366333,324.4888770316029L519.7599040317535,343.99639654310886L519.8936903648377,345.2201694173382L520.9639810295105,344.7397181518536L521.0977673625946,320.38263619103236L521.4991263618468,343.5478156109457L522.4356306934357,344.64530528472096L522.836989692688,343.2717658065376L522.9707760257721,332.11283586584614L523.1045623588561,343.8257824278844L524.3086393566132,266.84622724863584L524.8437846889497,329.8852673052752L525.378930021286,342.4340313306602L526.449220685959,344.06253347541497L527.1181523513793,340.33490260964027L529.124947347641,340.8927532560483L529.2587336807251,344.7090459513638L529.7938790130615,333.5659313640499L530.0614516792298,343.9350521421293L530.9979560108185,334.23496873723343L531.533101343155,344.9903675402311L532.7371783409118,344.55376793638425L532.870964673996,344.7286953298026L533.0047510070801,343.827699440415L533.1385373401642,344.6213426280883L533.2723236732483,343.3254421573947L533.8074690055847,345.10658642489943L534.075041671753,344.772307364874L534.3426143379211,344.8087306029556L534.7439733371734,342.9525832201907L535.1453323364258,344.35487788633327L535.2791186695099,344.0021475807007L535.6804776687623,344.58539864313934L537.1521273326874,344.9342949237107L537.954845331192,345.0229567532515L538.7575633296967,341.87234665919095L539.9616403274536,345.2804354987693L540.0954266605377,341.28334455916047L540.7643583259583,344.1449650142313L541.1657173252106,342.41773672415L541.9684353237152,344.3788405429659L542.5035806560516,341.4582719525788L543.038725988388,344.9956393246903L544.1090166530608,345.17559887600146L544.5103756523132,344.10662476361904L545.3130936508179,332.2546947931114L545.446879983902,344.38746709935367L546.5171706485748,326.908146845235L546.9185296478272,337.9578070716816L547.0523159809112,195.45476359612076L547.4536749801637,336.3513505710289L548.6577519779205,345.0428457582566L550.3969743080139,341.15538397274213L550.530760641098,342.77741620020606L550.6645469741821,233.90428392260222L550.7983333072663,344.7924359964454L552.6713419704437,341.5752097169461L555.8822139644623,344.8120853748842L556.2835729637145,342.7695085235173L556.5511456298829,333.1806118453969L556.818718296051,340.518935812579L557.2200772953033,342.82701889943564L557.4876499614716,339.1597739283752L557.7552226276398,340.46525946172187L558.1565816268921,345.3371071817055L558.2903679599762,338.1552593623346L560.6985219554902,345.24173580830757L562.0363852863312,342.7743010548438L562.9728896179199,343.7069276509865L563.5080349502563,345.3577150664096L563.6418212833405,345.2553945225882L564.310752948761,345.2742052080448L564.4445392818451,344.49769531986385L564.8458982810974,345.3351901691749L566.3175479450226,331.1351594752341L566.4513342781067,338.82237972298753L568.0567702751159,344.6481808035169L568.1905566082,343.0934836411907L568.4581292743683,344.8671994851393L568.5919156074524,345.2350262644504L568.9932746067047,343.89479487898643L569.1270609397887,345.226639334629L569.2608472728729,345.3436969122795L570.1973516044617,345.3097897531443L570.4649242706299,343.5171434104559L570.732496936798,345.2182524048076L572.3379329338073,342.430197305599L572.7392919330597,345.3078727406137L572.8730782661438,283.8405433325097L573.0068645992279,341.6039649049053L573.140650932312,345.1640968008178L573.6757962646484,344.5715003022924L574.0771552639007,342.73512211124944L576.0839502601624,345.04356463795557L576.3515229263305,344.6395542471291L577.1542409248352,344.037612312517L577.4218135910035,342.8998653755989L577.9569589233398,342.3784379672725L578.4921042556763,340.11828019368113L578.6258905887604,342.4014421176398L580.632685585022,343.13374090433354L581.8367625827789,345.1470833146086L582.1043352489471,280.3400784516125L582.3719079151153,345.02247750011884L582.7732669143677,343.7107616760477L583.0408395805359,344.54274511433323L583.4421985797882,344.12771190145577L584.6462755775452,337.9060477333551L585.0476345767975,339.2019482040487L585.4489935760498,345.17272335720554L588.3922929039002,344.35391938006796L589.0612245693206,345.09148995122086L589.8639425678253,344.3577534051292L590.2653015670776,343.6762554504967L590.800446899414,343.44429693429265L591.6031648979186,345.32296921429224L592.0045238971711,333.6138566773152L592.2720965633392,344.4411434502108L592.9410282287598,342.19823878939496L593.2086008949279,337.4843049766205L593.6099598941803,343.81332184643543L595.8843275566101,344.10566625735373L596.0181138896943,345.24077730204226L596.4194728889465,308.4779883759329L597.4897635536194,344.9496310239556L597.6235498867036,344.22164551545575L598.8276268844604,345.0421268785576L599.6303448829651,344.52022021709854L599.7641312160491,342.4129441928235L599.8979175491332,340.23713497057906L600.2992765483856,337.2140062098042L601.1019945468903,345.3704152744249L601.7709262123108,319.1365780461347L602.1722852115631,345.1633779211188L603.242575876236,345.4097140313024L603.7777212085724,340.33298559710965L604.0452938747405,344.8782223071903L605.2493708724976,302.71161468385253L605.9183025379181,344.5417866080679L606.7210205364228,340.6646287649055L606.8548068695069,344.8916413949046L607.5237385349274,345.27791941982287L608.4602428665161,343.7069276509865L609.3967471981049,299.5159547953226L610.1994651966095,309.3885693279735L610.6008241958618,344.02611023733334L610.8683968620301,342.85960811245604L611.0021831951142,345.2467679662004L611.9386875267029,343.8257824278844L613.0089781913757,344.22164551545575L613.1427645244598,319.5813249532366L613.4103371906281,344.6385957408638L613.9454825229645,345.13653974569024L614.4806278553009,343.6014919618028L615.1495595207214,344.79003973078215L616.7549955177307,345.3689775150269L617.5577135162354,342.30750850363984L618.36043151474,344.7459484425781L618.7617905139923,344.81544014681276L619.564508512497,344.864803219476L621.1699445095063,341.9145209348644L621.7050898418427,344.06061646288435L622.6415941734314,323.4881964906235L623.0429531726837,344.7703903523434L624.5146028366089,345.3771847249236L625.85246616745,343.4519649844151L625.9862525005341,341.9078113910073L626.3876114997863,345.21441837974635L627.190329498291,345.2683343571698L627.8592611637116,344.5259712546904L629.8660561599731,329.915939505765L629.9998424930573,345.41426693606263L631.0701331577301,330.41052873866283L631.7390648231507,345.4003685952157L632.5417828216553,345.45587209864107L632.8093554878235,343.58998988661915L632.9431418209076,233.49020921599006L633.7458598194122,294.2633404614462L635.0837231502533,342.6084794709459L635.4850821495056,338.8664710111916L635.7526548156738,344.1967243525578L635.886441148758,345.1255169236392L636.0202274818421,345.2993659975091L636.5553728141786,239.05529659235614L637.8932361450195,344.4095127434557L638.0270224781036,344.3405002923537L638.2945951442719,345.4284049034759L639.6324584751129,344.40280319959857L639.766244808197,342.24616410266026L642.0406124706268,345.17919327449636L642.9771168022156,345.45719004475586L643.512262134552,344.7569712646291L644.716339132309,345.04979492868006L645.3852707977295,343.08581559106824L646.05420246315,344.96928040239436L646.8569204616547,344.71144221702707L648.0609974594116,344.94579699889437L648.5961427917481,344.99084679336374L649.1312881240844,345.2543162030397L649.5326471233368,344.7090459513638L650.3353651218415,341.4908611655992L651.004296787262,344.04623886890477L651.8070147857667,345.25443601632287L652.4759464511872,345.134143480027L652.8773054504395,344.39801066827204L653.0110917835235,342.4666205436806L653.9475961151123,345.3251258533892L655.0178867797852,345.34058176691724L656.088177444458,345.29661029199633L656.6233227767943,345.3537612280652L657.0246817760468,344.81352313428215L657.426040775299,327.3298896019696L657.5598271083832,344.96113309913926L658.630117773056,345.1413322770168L658.8976904392242,345.25323788349124L660.3693401031494,345.21345987348104L661.4396307678222,345.3547197343305L662.2423487663268,345.3596320789402L662.9112804317474,345.2230449361341L663.4464257640839,314.5683371856867L664.5167164287567,344.84419533477194L667.5938020896912,314.6469346994418L668.3965200881958,345.28474877696317L668.9316654205322,345.4462570826672L670.9384604167938,344.9088945076801L671.7411784152985,345.09580322941474L672.1425374145508,345.2304733596902L672.410110080719,345.4115112305499L673.3466144123078,344.68604180099646L673.7479734115601,332.51924252233584L674.2831187438965,345.41390749621314L674.8182640762329,345.43700150654286L674.952050409317,345.3697563013675L675.085836742401,345.30631516793255L675.3534094085694,345.313264338356L676.156127407074,343.874666247415L677.0926317386627,344.6999401418434L677.3602044048309,345.40534084646697L677.6277770709991,344.5836014438919L678.1629224033355,337.7296825805388L678.5642814025879,345.2232845627004L678.698067735672,345.43733099307155L678.9656404018402,344.93669118937396L680.0359310665131,345.4091748715282L681.1062217311859,345.2510812443943L681.3737943973541,345.1887783371494L683.2468030605315,344.43539241261897L683.648162059784,343.1970023178437L684.0495210590362,344.8657617257413L685.3873843898773,345.2726476353637L685.9225297222138,342.41965373668063L686.323888721466,340.38378642917087L688.3306837177277,331.27126736490754L688.9996153831481,344.53939034240466L689.1334017162324,345.34154027318255L689.6685470485687,344.9894090339658L690.2036923809052,345.19261236221064L690.3374787139893,345.41941890723865L690.4712650470733,345.07687273067495L690.7388377132417,345.3797607105116L691.4077693786621,345.18925759028207L691.5415557117462,344.25135920968023L691.6753420448304,345.3459733646596L692.8794190425873,344.6285314250781L693.9497097072601,345.3762262186583L694.4848550395965,345.42163545297717L694.7524277057648,343.6829649943538L695.5551457042694,341.28765783735435L696.6254363689422,344.3596704176598L696.7592227020264,345.14109265045045L697.561940700531,345.0874162995933L697.9632996997834,342.55576162635407L699.0335903644562,326.54199745188816L699.8363083629608,345.3710143408407L700.2376673622131,345.39527653068126L700.3714536952973,343.64079071868036L700.7728126945495,344.5633529990373L701.1741716938019,345.37514789910983L701.5755306930542,340.35359348181373L703.1809666900634,341.20906032359926L703.7161120223999,345.13677937225657L704.6526163539887,345.1885387105831L705.4553343524933,344.71144221702707L705.8566933517455,345.33111651754734L705.9904796848297,330.56005571605056L706.1242660179139,344.53651482360874L706.5256250171661,341.7813484706285L706.6594113502503,345.1947690013076L707.595915681839,345.3253654799555L707.8634883480072,345.4176217079912L708.1310610141754,345.02247750011884L708.93377901268,345.27564296744276L709.6027106781006,344.68939657292503L709.7364970111847,345.3834150156481L710.1378560104371,345.30248114287133L710.5392150096893,342.4321143181296L710.8067876758575,336.44336717249826L711.0743603420258,345.1288716955678L712.1446510066986,345.3915623189032L713.2149416713714,344.9515480364862L713.4825143375397,344.97359368058824L713.7500870037079,345.29529234588153L713.883873336792,345.34285821929734L714.017659669876,344.90937376081274L714.9541640014648,343.1658508642213L715.087950334549,344.817836412476L717.4961043300628,319.381955650053L717.8974633293152,345.35100552255244L719.3691129932404,344.538911089272L720.171830991745,328.9976905036019L721.9110533218384,345.1777555150984L722.713771320343,344.90937376081274L722.8475576534271,345.319135189231L723.6502756519318,345.38808773369146L723.9178483181,344.6721434601495L724.4529936504364,344.958736833476L725.9246433143616,345.2946932794657L726.1922159805298,345.374548832694L726.459788646698,345.26845417045297L726.9949339790344,345.4000690620078L727.2625066452026,345.33039763784836L727.9314383106232,345.15379285846575L728.4665836429596,345.14468704894534L729.1355153083801,345.4463169893088L733.0153189678192,345.40641916601544L733.2828916339874,340.54577398800757L734.4869686317444,345.34285821929734L734.6207549648285,344.8264629688638L734.7545412979126,345.2465283396341L737.8316269588471,345.10227314670556L738.3667722911835,344.65968287870055L738.7681312904358,345.24700759276675L739.0357039566039,345.3964147568713L739.3032766227723,343.23534256845596L742.2465759506225,344.9779069587821L743.7182256145477,345.1255169236392L743.8520119476318,344.7071289388332L744.1195846138,345.4499113878037L744.3871572799683,345.38167772304223L744.7885162792205,345.33375240977693L746.1263796100617,270.406119517982L746.527738609314,345.47546157043826L746.661524942398,345.3977926096277L747.4642429409027,345.32584473308816L747.7318156070709,345.17464036973615L747.9993882732391,345.3445356052616L748.6683199386597,345.39988934208304L748.9358926048279,345.3989907424593L749.2034652709962,344.7296538360679" fill="none"></path></g></g></g></g></g></g><g transform="translate(51, 376)" clip-path="url(#clip_1)"><clipPath id="clip_1"><rect width="802" height="23"></rect></clipPath><g><g><line x1="0" y1="0" x2="0" y2="5" style="visibility: inherit;" fill="rgb(0, 0, 0)" stroke="rgb(204, 204, 204)" stroke-width="1px"></line><line x1="66.89316654205322" y1="0" x2="66.89316654205322" y2="5" style="visibility: inherit;" fill="rgb(0, 0, 0)" stroke="rgb(204, 204, 204)" stroke-width="1px"></line><line x1="133.78633308410645" y1="0" x2="133.78633308410645" y2="5" style="visibility: inherit;" fill="rgb(0, 0, 0)" stroke="rgb(204, 204, 204)" stroke-width="1px"></line><line x1="200.67949962615967" y1="0" x2="200.67949962615967" y2="5" style="visibility: inherit;" fill="rgb(0, 0, 0)" stroke="rgb(204, 204, 204)" stroke-width="1px"></line><line x1="267.5726661682129" y1="0" x2="267.5726661682129" y2="5" style="visibility: inherit;" fill="rgb(0, 0, 0)" stroke="rgb(204, 204, 204)" stroke-width="1px"></line><line x1="334.4658327102661" y1="0" x2="334.4658327102661" y2="5" style="visibility: inherit;" fill="rgb(0, 0, 0)" stroke="rgb(204, 204, 204)" stroke-width="1px"></line><line x1="401.35899925231934" y1="0" x2="401.35899925231934" y2="5" style="visibility: inherit;" fill="rgb(0, 0, 0)" stroke="rgb(204, 204, 204)" stroke-width="1px"></line><line x1="468.2521657943726" y1="0" x2="468.2521657943726" y2="5" style="visibility: inherit;" fill="rgb(0, 0, 0)" stroke="rgb(204, 204, 204)" stroke-width="1px"></line><line x1="535.1453323364258" y1="0" x2="535.1453323364258" y2="5" style="visibility: inherit;" fill="rgb(0, 0, 0)" stroke="rgb(204, 204, 204)" stroke-width="1px"></line><line x1="602.038498878479" y1="0" x2="602.038498878479" y2="5" style="visibility: inherit;" fill="rgb(0, 0, 0)" stroke="rgb(204, 204, 204)" stroke-width="1px"></line><line x1="668.9316654205322" y1="0" x2="668.9316654205322" y2="5" style="visibility: inherit;" fill="rgb(0, 0, 0)" stroke="rgb(204, 204, 204)" stroke-width="1px"></line><line x1="735.8248319625854" y1="0" x2="735.8248319625854" y2="5" style="visibility: inherit;" fill="rgb(0, 0, 0)" stroke="rgb(204, 204, 204)" stroke-width="1px"></line><line x1="802.7179985046387" y1="0" x2="802.7179985046387" y2="5" style="visibility: inherit;" fill="rgb(0, 0, 0)" stroke="rgb(204, 204, 204)" stroke-width="1px"></line></g><g transform="translate(0, 8)"><text style="text-anchor: middle; visibility: hidden; font-family: Roboto, sans-serif; font-size: 12px; font-weight: 200;" x="0" y="0" dx="0em" dy="0.95em" fill="rgb(33, 33, 33)" stroke="none" stroke-width="1px">-500</text><text style="text-anchor: middle; visibility: inherit; font-family: Roboto, sans-serif; font-size: 12px; font-weight: 200;" x="66.89316654205322" y="0" dx="0em" dy="0.95em" fill="rgb(33, 33, 33)" stroke="none" stroke-width="1px">0</text><text style="text-anchor: middle; visibility: inherit; font-family: Roboto, sans-serif; font-size: 12px; font-weight: 200;" x="133.78633308410645" y="0" dx="0em" dy="0.95em" fill="rgb(33, 33, 33)" stroke="none" stroke-width="1px">500</text><text style="text-anchor: middle; visibility: inherit; font-family: Roboto, sans-serif; font-size: 12px; font-weight: 200;" x="200.67949962615967" y="0" dx="0em" dy="0.95em" fill="rgb(33, 33, 33)" stroke="none" stroke-width="1px">1k</text><text style="text-anchor: middle; visibility: inherit; font-family: Roboto, sans-serif; font-size: 12px; font-weight: 200;" x="267.5726661682129" y="0" dx="0em" dy="0.95em" fill="rgb(33, 33, 33)" stroke="none" stroke-width="1px">1.5k</text><text style="text-anchor: middle; visibility: inherit; font-family: Roboto, sans-serif; font-size: 12px; font-weight: 200;" x="334.4658327102661" y="0" dx="0em" dy="0.95em" fill="rgb(33, 33, 33)" stroke="none" stroke-width="1px">2k</text><text style="text-anchor: middle; visibility: inherit; font-family: Roboto, sans-serif; font-size: 12px; font-weight: 200;" x="401.35899925231934" y="0" dx="0em" dy="0.95em" fill="rgb(33, 33, 33)" stroke="none" stroke-width="1px">2.5k</text><text style="text-anchor: middle; visibility: inherit; font-family: Roboto, sans-serif; font-size: 12px; font-weight: 200;" x="468.2521657943726" y="0" dx="0em" dy="0.95em" fill="rgb(33, 33, 33)" stroke="none" stroke-width="1px">3k</text><text style="text-anchor: middle; visibility: inherit; font-family: Roboto, sans-serif; font-size: 12px; font-weight: 200;" x="535.1453323364258" y="0" dx="0em" dy="0.95em" fill="rgb(33, 33, 33)" stroke="none" stroke-width="1px">3.5k</text><text style="text-anchor: middle; visibility: inherit; font-family: Roboto, sans-serif; font-size: 12px; font-weight: 200;" x="602.038498878479" y="0" dx="0em" dy="0.95em" fill="rgb(33, 33, 33)" stroke="none" stroke-width="1px">4k</text><text style="text-anchor: middle; visibility: inherit; font-family: Roboto, sans-serif; font-size: 12px; font-weight: 200;" x="668.9316654205322" y="0" dx="0em" dy="0.95em" fill="rgb(33, 33, 33)" stroke="none" stroke-width="1px">4.5k</text><text style="text-anchor: middle; visibility: inherit; font-family: Roboto, sans-serif; font-size: 12px; font-weight: 200;" x="735.8248319625854" y="0" dx="0em" dy="0.95em" fill="rgb(33, 33, 33)" stroke="none" stroke-width="1px">5k</text><text style="text-anchor: middle; visibility: hidden; font-family: Roboto, sans-serif; font-size: 12px; font-weight: 200;" x="802.7179985046387" y="0" dx="0em" dy="0.95em" fill="rgb(33, 33, 33)" stroke="none" stroke-width="1px">5.5k</text></g><line x1="0" y1="0" x2="802.7179985046387" y2="0" fill="rgb(0, 0, 0)" stroke="rgb(204, 204, 204)" stroke-width="1px"></line></g></g></g></g></svg>