<svg viewBox="0 0 330 200" xmlns="http://www.w3.org/2000/svg"><g><g><g><g><g><line x1="41.149001121520996" y1="177.5999994277954" x2="36.149001121520996" y2="177.5999994277954" style="visibility: inherit;" fill="rgb(0, 0, 0)" stroke="rgb(204, 204, 204)" stroke-width="1px"></line><line x1="41.149001121520996" y1="157.86666615804035" x2="36.149001121520996" y2="157.86666615804035" style="visibility: inherit;" fill="rgb(0, 0, 0)" stroke="rgb(204, 204, 204)" stroke-width="1px"></line><line x1="41.149001121520996" y1="138.1333328882853" x2="36.149001121520996" y2="138.1333328882853" style="visibility: inherit;" fill="rgb(0, 0, 0)" stroke="rgb(204, 204, 204)" stroke-width="1px"></line><line x1="41.149001121520996" y1="118.39999961853029" x2="36.149001121520996" y2="118.39999961853029" style="visibility: inherit;" fill="rgb(0, 0, 0)" stroke="rgb(204, 204, 204)" stroke-width="1px"></line><line x1="41.149001121520996" y1="98.66666634877524" x2="36.149001121520996" y2="98.66666634877524" style="visibility: inherit;" fill="rgb(0, 0, 0)" stroke="rgb(204, 204, 204)" stroke-width="1px"></line><line x1="41.149001121520996" y1="78.93333307902017" x2="36.149001121520996" y2="78.93333307902017" style="visibility: inherit;" fill="rgb(0, 0, 0)" stroke="rgb(204, 204, 204)" stroke-width="1px"></line><line x1="41.149001121520996" y1="59.199999809265144" x2="36.149001121520996" y2="59.199999809265144" style="visibility: inherit;" fill="rgb(0, 0, 0)" stroke="rgb(204, 204, 204)" stroke-width="1px"></line><line x1="41.149001121520996" y1="39.466666539510086" x2="36.149001121520996" y2="39.466666539510086" style="visibility: inherit;" fill="rgb(0, 0, 0)" stroke="rgb(204, 204, 204)" stroke-width="1px"></line><line x1="41.149001121520996" y1="19.733333269755054" x2="36.149001121520996" y2="19.733333269755054" style="visibility: inherit;" fill="rgb(0, 0, 0)" stroke="rgb(204, 204, 204)" stroke-width="1px"></line><line x1="41.149001121520996" y1="0" x2="36.149001121520996" y2="0" style="visibility: inherit;" fill="rgb(0, 0, 0)" stroke="rgb(204, 204, 204)" stroke-width="1px"></line></g><g transform="translate(31.149001121520996, 0)"><text style="text-anchor: end; visibility: hidden; font-family: Roboto, sans-serif; font-size: 12px; font-weight: 200;" x="0" y="177.5999994277954" dx="0em" dy="0.3em" fill="rgb(50, 49, 63)" stroke="none" stroke-width="1px">1.5</text><text style="text-anchor: end; visibility: inherit; font-family: Roboto, sans-serif; font-size: 12px; font-weight: 200;" x="0" y="157.86666615804035" dx="0em" dy="0.3em" fill="rgb(50, 49, 63)" stroke="none" stroke-width="1px">2</text><text style="text-anchor: end; visibility: hidden; font-family: Roboto, sans-serif; font-size: 12px; font-weight: 200;" x="0" y="138.1333328882853" dx="0em" dy="0.3em" fill="rgb(50, 49, 63)" stroke="none" stroke-width="1px">2.5</text><text style="text-anchor: end; visibility: inherit; font-family: Roboto, sans-serif; font-size: 12px; font-weight: 200;" x="0" y="118.39999961853029" dx="0em" dy="0.3em" fill="rgb(50, 49, 63)" stroke="none" stroke-width="1px">3</text><text style="text-anchor: end; visibility: hidden; font-family: Roboto, sans-serif; font-size: 12px; font-weight: 200;" x="0" y="98.66666634877524" dx="0em" dy="0.3em" fill="rgb(50, 49, 63)" stroke="none" stroke-width="1px">3.5</text><text style="text-anchor: end; visibility: inherit; font-family: Roboto, sans-serif; font-size: 12px; font-weight: 200;" x="0" y="78.93333307902017" dx="0em" dy="0.3em" fill="rgb(50, 49, 63)" stroke="none" stroke-width="1px">4</text><text style="text-anchor: end; visibility: hidden; font-family: Roboto, sans-serif; font-size: 12px; font-weight: 200;" x="0" y="59.199999809265144" dx="0em" dy="0.3em" fill="rgb(50, 49, 63)" stroke="none" stroke-width="1px">4.5</text><text style="text-anchor: end; visibility: inherit; font-family: Roboto, sans-serif; font-size: 12px; font-weight: 200;" x="0" y="39.466666539510086" dx="0em" dy="0.3em" fill="rgb(50, 49, 63)" stroke="none" stroke-width="1px">5</text><text style="text-anchor: end; visibility: hidden; font-family: Roboto, sans-serif; font-size: 12px; font-weight: 200;" x="0" y="19.733333269755054" dx="0em" dy="0.3em" fill="rgb(50, 49, 63)" stroke="none" stroke-width="1px">5.5</text><text style="text-anchor: end; visibility: hidden; font-family: Roboto, sans-serif; font-size: 12px; font-weight: 200;" x="0" y="0" dx="0em" dy="0.3em" fill="rgb(50, 49, 63)" stroke="none" stroke-width="1px">6</text></g><line x1="41.149001121520996" y1="0" x2="41.149001121520996" y2="177.5999994277954" fill="rgb(0, 0, 0)" stroke="rgb(204, 204, 204)" stroke-width="1px"></line></g></g><g transform="translate(41, 0)" clip-path="url(#clip_0)"><clipPath id="clip_0"><rect width="288" height="177"></rect></clipPath><g><g><g><line x1="0" y1="0" x2="0" y2="177.5999994277954" fill="rgb(0, 0, 0)" stroke="rgb(60, 60, 60)" stroke-width="1px" opacity="0.25"></line><line x1="24.07091657320658" y1="0" x2="24.07091657320658" y2="177.5999994277954" fill="rgb(0, 0, 0)" stroke="rgb(60, 60, 60)" stroke-width="1px" opacity="0.25"></line><line x1="48.14183314641316" y1="0" x2="48.14183314641316" y2="177.5999994277954" fill="rgb(0, 0, 0)" stroke="rgb(60, 60, 60)" stroke-width="1px" opacity="0.25"></line><line x1="72.21274971961975" y1="0" x2="72.21274971961975" y2="177.5999994277954" fill="rgb(0, 0, 0)" stroke="rgb(60, 60, 60)" stroke-width="1px" opacity="0.25"></line><line x1="96.28366629282633" y1="0" x2="96.28366629282633" y2="177.5999994277954" fill="rgb(0, 0, 0)" stroke="rgb(60, 60, 60)" stroke-width="1px" opacity="0.25"></line><line x1="120.35458286603293" y1="0" x2="120.35458286603293" y2="177.5999994277954" fill="rgb(0, 0, 0)" stroke="rgb(60, 60, 60)" stroke-width="1px" opacity="0.25"></line><line x1="144.4254994392395" y1="0" x2="144.4254994392395" y2="177.5999994277954" fill="rgb(0, 0, 0)" stroke="rgb(60, 60, 60)" stroke-width="1px" opacity="0.25"></line><line x1="168.4964160124461" y1="0" x2="168.4964160124461" y2="177.5999994277954" fill="rgb(0, 0, 0)" stroke="rgb(60, 60, 60)" stroke-width="1px" opacity="0.25"></line><line x1="192.56733258565265" y1="0" x2="192.56733258565265" y2="177.5999994277954" fill="rgb(0, 0, 0)" stroke="rgb(60, 60, 60)" stroke-width="1px" opacity="0.25"></line><line x1="216.63824915885925" y1="0" x2="216.63824915885925" y2="177.5999994277954" fill="rgb(0, 0, 0)" stroke="rgb(60, 60, 60)" stroke-width="1px" opacity="0.25"></line><line x1="240.70916573206586" y1="0" x2="240.70916573206586" y2="177.5999994277954" fill="rgb(0, 0, 0)" stroke="rgb(60, 60, 60)" stroke-width="1px" opacity="0.25"></line><line x1="264.7800823052724" y1="0" x2="264.7800823052724" y2="177.5999994277954" fill="rgb(0, 0, 0)" stroke="rgb(60, 60, 60)" stroke-width="1px" opacity="0.25"></line><line x1="288.850998878479" y1="0" x2="288.850998878479" y2="177.5999994277954" fill="rgb(0, 0, 0)" stroke="rgb(60, 60, 60)" stroke-width="1px" opacity="0.25"></line></g><g><line x1="0" y1="177.5999994277954" x2="288.850998878479" y2="177.5999994277954" fill="rgb(0, 0, 0)" stroke="rgb(60, 60, 60)" stroke-width="1px" opacity="0.25"></line><line x1="0" y1="157.86666615804035" x2="288.850998878479" y2="157.86666615804035" fill="rgb(0, 0, 0)" stroke="rgb(60, 60, 60)" stroke-width="1px" opacity="0.25"></line><line x1="0" y1="138.1333328882853" x2="288.850998878479" y2="138.1333328882853" fill="rgb(0, 0, 0)" stroke="rgb(60, 60, 60)" stroke-width="1px" opacity="0.25"></line><line x1="0" y1="118.39999961853029" x2="288.850998878479" y2="118.39999961853029" fill="rgb(0, 0, 0)" stroke="rgb(60, 60, 60)" stroke-width="1px" opacity="0.25"></line><line x1="0" y1="98.66666634877524" x2="288.850998878479" y2="98.66666634877524" fill="rgb(0, 0, 0)" stroke="rgb(60, 60, 60)" stroke-width="1px" opacity="0.25"></line><line x1="0" y1="78.93333307902017" x2="288.850998878479" y2="78.93333307902017" fill="rgb(0, 0, 0)" stroke="rgb(60, 60, 60)" stroke-width="1px" opacity="0.25"></line><line x1="0" y1="59.199999809265144" x2="288.850998878479" y2="59.199999809265144" fill="rgb(0, 0, 0)" stroke="rgb(60, 60, 60)" stroke-width="1px" opacity="0.25"></line><line x1="0" y1="39.466666539510086" x2="288.850998878479" y2="39.466666539510086" fill="rgb(0, 0, 0)" stroke="rgb(60, 60, 60)" stroke-width="1px" opacity="0.25"></line><line x1="0" y1="19.733333269755054" x2="288.850998878479" y2="19.733333269755054" fill="rgb(0, 0, 0)" stroke="rgb(60, 60, 60)" stroke-width="1px" opacity="0.25"></line><line x1="0" y1="0" x2="288.850998878479" y2="0" fill="rgb(0, 0, 0)" stroke="rgb(60, 60, 60)" stroke-width="1px" opacity="0.25"></line></g></g></g><g><g><line x1="0" y1="236.79999923706055" x2="288.850998878479" y2="236.79999923706055" fill="rgb(0, 0, 0)" stroke="rgb(153, 153, 153)" stroke-width="1.5px"></line></g></g><g><g><line x1="24.07091657320658" y1="0" x2="24.07091657320658" y2="177.5999994277954" fill="rgb(0, 0, 0)" stroke="rgb(153, 153, 153)" stroke-width="1.5px"></line></g></g><g><g><g><g><g><path style="fill: none;" stroke="rgb(255, 112, 67)" stroke-width="2px" d="M24.07091657320658,21.954070974188692L26.47800823052724,23.95227901371016L28.8850998878479,26.650743204004396L31.29219154516856,30.32532972027328L33.69928320248922,36.18726163204853L36.106374859809875,48.70961025215683L38.51346651713053,66.337103480219L40.920558174451195,78.10786151710016L43.32764983177185,87.6396830496321L45.73474148909251,94.5140631695293L48.14183314641316,101.41321846317128L50.548924803733826,106.87182963787933L52.95601646105448,110.28758437979802L55.363108118375145,114.62677410406498L57.7701997756958,116.4601268038639L60.177291433016464,120.52770316345381L62.58438309033712,122.09061085445485L64.99147474765778,123.19310777688311L67.39856640497844,124.37508549499178L69.80565806229909,127.1423848689312L72.21274971961975,129.37175885113825L74.61984137694041,129.6415530585839L77.02693303426106,129.98627207648903L79.43402469158173,131.35118645226825L81.84111634890239,131.99062562734102L84.24820800622305,132.5681069634447L86.6552996635437,133.6308159581675L89.06239132086436,136.4873806130123L91.46948297818501,136.26704531928036L93.87657463550568,137.50850863813477L96.28366629282633,138.78383879295637L98.69075795014699,141.38877670485863L101.09784960746765,140.3705051752396L103.50494126478831,141.86960449637937L105.91203292210896,140.50183919673358L108.31912457942963,139.07182649170238L110.72621623675029,141.32611869204453L113.13330789407094,141.6613821945531L115.5403995513916,141.22476228075874L117.94749120871226,140.79809245743857L120.35458286603293,143.90304809555488L122.76167452335358,144.02530065640622L125.16876618067424,145.8715613266766L127.57585783799489,143.15832551195635L129.98294949531555,145.90097513528613L132.3900411526362,144.83678840806024L134.79713280995688,145.99621124153L137.20422446727753,147.1933695583064L139.61131612459818,146.03278465122568L142.01840778191882,147.65637480060565L144.4254994392395,147.10218243925004L146.83259109656015,147.94552283326925L149.23968275388083,150.41768652786615L151.64677441120148,149.87362533546124L154.05386606852213,149.9762544755701L156.46095772584277,150.26265709318844L158.86804938316345,150.20532253738182L161.2751410404841,149.25207567648704L163.68223269780478,150.845303537675L166.08932435512543,150.61843264101103L168.4964160124461,150.10325431810108L170.90350766976675,151.56770007336104L173.3105993270874,151.18319075242923L175.71769098440805,152.34951518466602L178.12478264172873,153.83886072443948L180.53187429904938,152.89291269534365L182.93896595637003,155.04511900543525L185.3460576136907,155.44587623552158L187.75314927101135,154.95730215388448L190.160240928332,152.64234995181332L192.56733258565265,155.13905610828587L194.97442424297333,154.4901132563523L197.38151590029398,156.74161952561585L199.78860755761465,155.28675771190396L202.1956992149353,158.09172620142672L204.60279087225598,157.47866843331593L207.00988252957663,156.22989698736453L209.41697418689728,156.68957403695984L211.82406584421793,156.47048494360448L214.2311575015386,158.25354172515668L216.63824915885925,156.74582468544918L219.0453408161799,156.2515164207519L221.45243247350058,155.94204032834875L223.85952413082123,156.56720885730613L226.26661578814188,157.86284041808517L228.67370744546253,155.89494801126534L231.0807991027832,157.18428173239226L233.48789076010385,155.55603606623137L235.89498241742453,155.85175783154253L238.30207407474518,156.10009024352811L240.70916573206586,156.8556372860146L243.1162573893865,155.38524140678328L245.52334904670715,156.70069374236235L247.9304407040278,159.1127217404509L250.33753236134848,159.86025109242095L252.74462401866913,160.6342011366365L255.15171567598978,159.2983309447635L257.5588073333105,157.8925063616974L259.9658989906311,158.74997692823612L262.3729906479518,158.948097676568L264.7800823052724,160.89670939782948L267.1871739625931,159.62190757656273L269.59426561991376,158.94900895624397L272.0013572772344,157.728380290835L274.40844893455505,159.77553473953535" fill="none"></path></g></g></g></g><g opacity="0.2"><g><g><g><path style="fill: none;" stroke="rgb(255, 112, 67)" stroke-width="2px" d="M24.07091657320658,21.954070974188653L26.47800823052724,25.15120383742306L28.8850998878479,29.241268826686785L31.29219154516856,34.646643463405475L33.69928320248922,43.84059993606237L36.106374859809875,66.03252643926983L38.51346651713053,91.54470083623953L40.920558174451195,95.26973973415002L43.32764983177185,101.69726834910215L45.73474148909251,104.72171647982002L48.14183314641316,111.69937657289879L50.548924803733826,115.03004087898096L52.95601646105448,115.4000634607966L55.363108118375145,121.12705776607542L57.7701997756958,119.20800081628508L60.177291433016464,126.6261989328468L62.58438309033712,124.43431102080073L64.99147474765778,124.84657323667626L67.39856640497844,126.14787200974601L69.80565806229909,131.2930809877163L72.21274971961975,132.71569756028126L74.61984137694041,130.04623549205903L77.02693303426106,130.50334379747102L79.43402469158173,133.39854184722512L81.84111634890239,132.94977984509023L84.24820800622305,133.43432650490604L86.6552996635437,135.2248767310707L89.06239132086436,140.7722232097799L91.46948297818501,135.9365425816424L93.87657463550568,139.3707029302785L96.28366629282633,140.6968336022754L98.69075795014699,145.2961830544165L101.09784960746765,138.84309800237224L103.50494126478831,144.11825337071167L105.91203292210896,138.450191306047L108.31912457942963,136.92680747103L110.72621623675029,144.70755695768017L113.13330789407094,142.16427744520374L115.5403995513916,140.569832412499L117.94749120871226,140.1580877238842L120.35458286603293,148.56048154650352L122.76167452335358,144.2086794975362L125.16876618067424,148.64095233074946L127.57585783799489,139.0884717910511L129.98294949531555,150.01494956956807L132.3900411526362,143.24050831738728L134.79713280995688,147.7353454916262L137.20422446727753,148.9891070334038L139.61131612459818,144.2919072906437L142.01840778191882,150.09176002464287L144.4254994392395,146.2708938972234L146.83259109656015,149.21053342429195L149.23968275388083,154.12593206975075L151.64677441120148,149.0575335468552L154.05386606852213,150.1301981857332L156.46095772584277,150.69226101961567L158.86804938316345,150.1193207036719L161.2751410404841,147.82220538514517L163.68223269780478,153.23514532945669L166.08932435512543,150.27812629601507L168.4964160124461,149.33048683373622L170.90350766976675,153.76436870625093L173.3105993270874,150.60642677103152L175.71769098440805,154.0990018330211L178.12478264172873,156.07287903409966L180.53187429904938,151.4739906516999L182.93896595637003,158.2734284705726L185.3460576136907,156.0470120806511L187.75314927101135,154.2244410314288L190.160240928332,149.16992164870666L192.56733258565265,158.8841153429947L194.97442424297333,153.5166989784519L197.38151590029398,160.11887892951125L199.78860755761465,153.10446499133604L202.1956992149353,162.29917893571087L204.60279087225598,156.55908178114973L207.00988252957663,154.35673981843746L209.41697418689728,157.3790896113528L211.82406584421793,156.14185130357146L214.2311575015386,160.928126897485L216.63824915885925,154.48424912588794L219.0453408161799,155.51005402370598L221.45243247350058,155.47782618974406L223.85952413082123,157.5049616507422L226.26661578814188,159.8062877592537L228.67370744546253,152.9431094010356L231.0807991027832,159.11828231408268L233.48789076010385,153.11366756699L235.89498241742453,156.29534047950924L238.30207407474518,156.47258886150652L240.70916573206586,157.98895784974434L243.1162573893865,153.17964758793627L245.52334904670715,158.673872245731L247.9304407040278,162.73076373758371L250.33753236134848,160.98154512037604L252.74462401866913,161.79512620295986L255.15171567598978,157.29452565695402L257.5588073333105,155.7837694870982L259.9658989906311,160.0361827780443L262.3729906479518,159.24527879906577L264.7800823052724,163.8196269797217L267.1871739625931,157.7097048446626L269.59426561991376,157.9396610257658L272.0013572772344,155.89743729272158L274.40844893455505,162.84626641258592" fill="none"></path></g></g></g></g></g></g><g transform="translate(41, 177)" clip-path="url(#clip_1)"><clipPath id="clip_1"><rect width="288" height="22"></rect></clipPath><g><g><line x1="0" y1="0" x2="0" y2="5" style="visibility: inherit;" fill="rgb(0, 0, 0)" stroke="rgb(204, 204, 204)" stroke-width="1px"></line><line x1="24.07091657320658" y1="0" x2="24.07091657320658" y2="5" style="visibility: inherit;" fill="rgb(0, 0, 0)" stroke="rgb(204, 204, 204)" stroke-width="1px"></line><line x1="48.14183314641316" y1="0" x2="48.14183314641316" y2="5" style="visibility: inherit;" fill="rgb(0, 0, 0)" stroke="rgb(204, 204, 204)" stroke-width="1px"></line><line x1="72.21274971961975" y1="0" x2="72.21274971961975" y2="5" style="visibility: inherit;" fill="rgb(0, 0, 0)" stroke="rgb(204, 204, 204)" stroke-width="1px"></line><line x1="96.28366629282633" y1="0" x2="96.28366629282633" y2="5" style="visibility: inherit;" fill="rgb(0, 0, 0)" stroke="rgb(204, 204, 204)" stroke-width="1px"></line><line x1="120.35458286603293" y1="0" x2="120.35458286603293" y2="5" style="visibility: inherit;" fill="rgb(0, 0, 0)" stroke="rgb(204, 204, 204)" stroke-width="1px"></line><line x1="144.4254994392395" y1="0" x2="144.4254994392395" y2="5" style="visibility: inherit;" fill="rgb(0, 0, 0)" stroke="rgb(204, 204, 204)" stroke-width="1px"></line><line x1="168.4964160124461" y1="0" x2="168.4964160124461" y2="5" style="visibility: inherit;" fill="rgb(0, 0, 0)" stroke="rgb(204, 204, 204)" stroke-width="1px"></line><line x1="192.56733258565265" y1="0" x2="192.56733258565265" y2="5" style="visibility: inherit;" fill="rgb(0, 0, 0)" stroke="rgb(204, 204, 204)" stroke-width="1px"></line><line x1="216.63824915885925" y1="0" x2="216.63824915885925" y2="5" style="visibility: inherit;" fill="rgb(0, 0, 0)" stroke="rgb(204, 204, 204)" stroke-width="1px"></line><line x1="240.70916573206586" y1="0" x2="240.70916573206586" y2="5" style="visibility: inherit;" fill="rgb(0, 0, 0)" stroke="rgb(204, 204, 204)" stroke-width="1px"></line><line x1="264.7800823052724" y1="0" x2="264.7800823052724" y2="5" style="visibility: inherit;" fill="rgb(0, 0, 0)" stroke="rgb(204, 204, 204)" stroke-width="1px"></line><line x1="288.850998878479" y1="0" x2="288.850998878479" y2="5" style="visibility: inherit;" fill="rgb(0, 0, 0)" stroke="rgb(204, 204, 204)" stroke-width="1px"></line></g><g transform="translate(0, 8)"><text style="text-anchor: middle; visibility: hidden; font-family: Roboto, sans-serif; font-size: 12px; font-weight: 200;" x="0" y="0" dx="0em" dy="0.95em" fill="rgb(50, 49, 63)" stroke="none" stroke-width="1px">-10</text><text style="text-anchor: middle; visibility: inherit; font-family: Roboto, sans-serif; font-size: 12px; font-weight: 200;" x="24.07091657320658" y="0" dx="0em" dy="0.95em" fill="rgb(50, 49, 63)" stroke="none" stroke-width="1px">0</text><text style="text-anchor: middle; visibility: inherit; font-family: Roboto, sans-serif; font-size: 12px; font-weight: 200;" x="48.14183314641316" y="0" dx="0em" dy="0.95em" fill="rgb(50, 49, 63)" stroke="none" stroke-width="1px">10</text><text style="text-anchor: middle; visibility: inherit; font-family: Roboto, sans-serif; font-size: 12px; font-weight: 200;" x="72.21274971961975" y="0" dx="0em" dy="0.95em" fill="rgb(50, 49, 63)" stroke="none" stroke-width="1px">20</text><text style="text-anchor: middle; visibility: inherit; font-family: Roboto, sans-serif; font-size: 12px; font-weight: 200;" x="96.28366629282633" y="0" dx="0em" dy="0.95em" fill="rgb(50, 49, 63)" stroke="none" stroke-width="1px">30</text><text style="text-anchor: middle; visibility: inherit; font-family: Roboto, sans-serif; font-size: 12px; font-weight: 200;" x="120.35458286603293" y="0" dx="0em" dy="0.95em" fill="rgb(50, 49, 63)" stroke="none" stroke-width="1px">40</text><text style="text-anchor: middle; visibility: inherit; font-family: Roboto, sans-serif; font-size: 12px; font-weight: 200;" x="144.4254994392395" y="0" dx="0em" dy="0.95em" fill="rgb(50, 49, 63)" stroke="none" stroke-width="1px">50</text><text style="text-anchor: middle; visibility: inherit; font-family: Roboto, sans-serif; font-size: 12px; font-weight: 200;" x="168.4964160124461" y="0" dx="0em" dy="0.95em" fill="rgb(50, 49, 63)" stroke="none" stroke-width="1px">60</text><text style="text-anchor: middle; visibility: inherit; font-family: Roboto, sans-serif; font-size: 12px; font-weight: 200;" x="192.56733258565265" y="0" dx="0em" dy="0.95em" fill="rgb(50, 49, 63)" stroke="none" stroke-width="1px">70</text><text style="text-anchor: middle; visibility: inherit; font-family: Roboto, sans-serif; font-size: 12px; font-weight: 200;" x="216.63824915885925" y="0" dx="0em" dy="0.95em" fill="rgb(50, 49, 63)" stroke="none" stroke-width="1px">80</text><text style="text-anchor: middle; visibility: inherit; font-family: Roboto, sans-serif; font-size: 12px; font-weight: 200;" x="240.70916573206586" y="0" dx="0em" dy="0.95em" fill="rgb(50, 49, 63)" stroke="none" stroke-width="1px">90</text><text style="text-anchor: middle; visibility: inherit; font-family: Roboto, sans-serif; font-size: 12px; font-weight: 200;" x="264.7800823052724" y="0" dx="0em" dy="0.95em" fill="rgb(50, 49, 63)" stroke="none" stroke-width="1px">100</text><text style="text-anchor: middle; visibility: hidden; font-family: Roboto, sans-serif; font-size: 12px; font-weight: 200;" x="288.850998878479" y="0" dx="0em" dy="0.95em" fill="rgb(50, 49, 63)" stroke="none" stroke-width="1px">110</text></g><line x1="0" y1="0" x2="288.850998878479" y2="0" fill="rgb(0, 0, 0)" stroke="rgb(204, 204, 204)" stroke-width="1px"></line></g></g></g></g></svg>