<svg viewBox="0 0 330 200" xmlns="http://www.w3.org/2000/svg"><g><g><g><g><g><line x1="51.53200149536133" y1="176.89999961853027" x2="46.53200149536133" y2="176.89999961853027" style="visibility: inherit;" fill="rgb(0, 0, 0)" stroke="rgb(204, 204, 204)" stroke-width="1px"></line><line x1="51.53200149536133" y1="162.15833298365274" x2="46.53200149536133" y2="162.15833298365274" style="visibility: inherit;" fill="rgb(0, 0, 0)" stroke="rgb(204, 204, 204)" stroke-width="1px"></line><line x1="51.53200149536133" y1="147.41666634877524" x2="46.53200149536133" y2="147.41666634877524" style="visibility: inherit;" fill="rgb(0, 0, 0)" stroke="rgb(204, 204, 204)" stroke-width="1px"></line><line x1="51.53200149536133" y1="132.6749997138977" x2="46.53200149536133" y2="132.6749997138977" style="visibility: inherit;" fill="rgb(0, 0, 0)" stroke="rgb(204, 204, 204)" stroke-width="1px"></line><line x1="51.53200149536133" y1="117.9333330790202" x2="46.53200149536133" y2="117.9333330790202" style="visibility: inherit;" fill="rgb(0, 0, 0)" stroke="rgb(204, 204, 204)" stroke-width="1px"></line><line x1="51.53200149536133" y1="103.19166644414264" x2="46.53200149536133" y2="103.19166644414264" style="visibility: inherit;" fill="rgb(0, 0, 0)" stroke="rgb(204, 204, 204)" stroke-width="1px"></line><line x1="51.53200149536133" y1="88.44999980926514" x2="46.53200149536133" y2="88.44999980926514" style="visibility: inherit;" fill="rgb(0, 0, 0)" stroke="rgb(204, 204, 204)" stroke-width="1px"></line><line x1="51.53200149536133" y1="73.7083331743876" x2="46.53200149536133" y2="73.7083331743876" style="visibility: inherit;" fill="rgb(0, 0, 0)" stroke="rgb(204, 204, 204)" stroke-width="1px"></line><line x1="51.53200149536133" y1="58.9666665395101" x2="46.53200149536133" y2="58.9666665395101" style="visibility: inherit;" fill="rgb(0, 0, 0)" stroke="rgb(204, 204, 204)" stroke-width="1px"></line><line x1="51.53200149536133" y1="44.22499990463257" x2="46.53200149536133" y2="44.22499990463257" style="visibility: inherit;" fill="rgb(0, 0, 0)" stroke="rgb(204, 204, 204)" stroke-width="1px"></line><line x1="51.53200149536133" y1="29.48333326975504" x2="46.53200149536133" y2="29.48333326975504" style="visibility: inherit;" fill="rgb(0, 0, 0)" stroke="rgb(204, 204, 204)" stroke-width="1px"></line><line x1="51.53200149536133" y1="14.741666634877529" x2="46.53200149536133" y2="14.741666634877529" style="visibility: inherit;" fill="rgb(0, 0, 0)" stroke="rgb(204, 204, 204)" stroke-width="1px"></line><line x1="51.53200149536133" y1="0" x2="46.53200149536133" y2="0" style="visibility: inherit;" fill="rgb(0, 0, 0)" stroke="rgb(204, 204, 204)" stroke-width="1px"></line></g><g transform="translate(41.53200149536133, 0)"><text style="text-anchor: end; visibility: hidden; font-family: Roboto, sans-serif; font-size: 12px; font-weight: 200;" x="0" y="176.89999961853027" dx="0em" dy="0.3em" fill="rgb(33, 33, 33)" stroke="none" stroke-width="1px">-0.5</text><text style="text-anchor: end; visibility: inherit; font-family: Roboto, sans-serif; font-size: 12px; font-weight: 200;" x="0" y="162.15833298365274" dx="0em" dy="0.3em" fill="rgb(33, 33, 33)" stroke="none" stroke-width="1px">0</text><text style="text-anchor: end; visibility: hidden; font-family: Roboto, sans-serif; font-size: 12px; font-weight: 200;" x="0" y="147.41666634877524" dx="0em" dy="0.3em" fill="rgb(33, 33, 33)" stroke="none" stroke-width="1px">0.5</text><text style="text-anchor: end; visibility: inherit; font-family: Roboto, sans-serif; font-size: 12px; font-weight: 200;" x="0" y="132.6749997138977" dx="0em" dy="0.3em" fill="rgb(33, 33, 33)" stroke="none" stroke-width="1px">1</text><text style="text-anchor: end; visibility: hidden; font-family: Roboto, sans-serif; font-size: 12px; font-weight: 200;" x="0" y="117.9333330790202" dx="0em" dy="0.3em" fill="rgb(33, 33, 33)" stroke="none" stroke-width="1px">1.5</text><text style="text-anchor: end; visibility: inherit; font-family: Roboto, sans-serif; font-size: 12px; font-weight: 200;" x="0" y="103.19166644414264" dx="0em" dy="0.3em" fill="rgb(33, 33, 33)" stroke="none" stroke-width="1px">2</text><text style="text-anchor: end; visibility: hidden; font-family: Roboto, sans-serif; font-size: 12px; font-weight: 200;" x="0" y="88.44999980926514" dx="0em" dy="0.3em" fill="rgb(33, 33, 33)" stroke="none" stroke-width="1px">2.5</text><text style="text-anchor: end; visibility: inherit; font-family: Roboto, sans-serif; font-size: 12px; font-weight: 200;" x="0" y="73.7083331743876" dx="0em" dy="0.3em" fill="rgb(33, 33, 33)" stroke="none" stroke-width="1px">3</text><text style="text-anchor: end; visibility: hidden; font-family: Roboto, sans-serif; font-size: 12px; font-weight: 200;" x="0" y="58.9666665395101" dx="0em" dy="0.3em" fill="rgb(33, 33, 33)" stroke="none" stroke-width="1px">3.5</text><text style="text-anchor: end; visibility: inherit; font-family: Roboto, sans-serif; font-size: 12px; font-weight: 200;" x="0" y="44.22499990463257" dx="0em" dy="0.3em" fill="rgb(33, 33, 33)" stroke="none" stroke-width="1px">4</text><text style="text-anchor: end; visibility: hidden; font-family: Roboto, sans-serif; font-size: 12px; font-weight: 200;" x="0" y="29.48333326975504" dx="0em" dy="0.3em" fill="rgb(33, 33, 33)" stroke="none" stroke-width="1px">4.5</text><text style="text-anchor: end; visibility: inherit; font-family: Roboto, sans-serif; font-size: 12px; font-weight: 200;" x="0" y="14.741666634877529" dx="0em" dy="0.3em" fill="rgb(33, 33, 33)" stroke="none" stroke-width="1px">5</text><text style="text-anchor: end; visibility: hidden; font-family: Roboto, sans-serif; font-size: 12px; font-weight: 200;" x="0" y="0" dx="0em" dy="0.3em" fill="rgb(33, 33, 33)" stroke="none" stroke-width="1px">5.5</text></g><line x1="51.53200149536133" y1="0" x2="51.53200149536133" y2="176.89999961853027" fill="rgb(0, 0, 0)" stroke="rgb(204, 204, 204)" stroke-width="1px"></line></g></g><g transform="translate(51, 0)" clip-path="url(#clip_0)"><clipPath id="clip_0"><rect width="278" height="176"></rect></clipPath><g><g><g><line x1="0" y1="0" x2="0" y2="176.89999961853027" fill="rgb(0, 0, 0)" stroke="rgb(66, 66, 66)" stroke-width="1px" opacity="0.25"></line><line x1="30.94088872273763" y1="0" x2="30.94088872273763" y2="176.89999961853027" fill="rgb(0, 0, 0)" stroke="rgb(66, 66, 66)" stroke-width="1px" opacity="0.25"></line><line x1="61.88177744547526" y1="0" x2="61.88177744547526" y2="176.89999961853027" fill="rgb(0, 0, 0)" stroke="rgb(66, 66, 66)" stroke-width="1px" opacity="0.25"></line><line x1="92.82266616821289" y1="0" x2="92.82266616821289" y2="176.89999961853027" fill="rgb(0, 0, 0)" stroke="rgb(66, 66, 66)" stroke-width="1px" opacity="0.25"></line><line x1="123.76355489095052" y1="0" x2="123.76355489095052" y2="176.89999961853027" fill="rgb(0, 0, 0)" stroke="rgb(66, 66, 66)" stroke-width="1px" opacity="0.25"></line><line x1="154.70444361368817" y1="0" x2="154.70444361368817" y2="176.89999961853027" fill="rgb(0, 0, 0)" stroke="rgb(66, 66, 66)" stroke-width="1px" opacity="0.25"></line><line x1="185.64533233642578" y1="0" x2="185.64533233642578" y2="176.89999961853027" fill="rgb(0, 0, 0)" stroke="rgb(66, 66, 66)" stroke-width="1px" opacity="0.25"></line><line x1="216.58622105916342" y1="0" x2="216.58622105916342" y2="176.89999961853027" fill="rgb(0, 0, 0)" stroke="rgb(66, 66, 66)" stroke-width="1px" opacity="0.25"></line><line x1="247.52710978190103" y1="0" x2="247.52710978190103" y2="176.89999961853027" fill="rgb(0, 0, 0)" stroke="rgb(66, 66, 66)" stroke-width="1px" opacity="0.25"></line><line x1="278.4679985046387" y1="0" x2="278.4679985046387" y2="176.89999961853027" fill="rgb(0, 0, 0)" stroke="rgb(66, 66, 66)" stroke-width="1px" opacity="0.25"></line></g><g><line x1="0" y1="176.89999961853027" x2="278.4679985046387" y2="176.89999961853027" fill="rgb(0, 0, 0)" stroke="rgb(66, 66, 66)" stroke-width="1px" opacity="0.25"></line><line x1="0" y1="162.15833298365274" x2="278.4679985046387" y2="162.15833298365274" fill="rgb(0, 0, 0)" stroke="rgb(66, 66, 66)" stroke-width="1px" opacity="0.25"></line><line x1="0" y1="147.41666634877524" x2="278.4679985046387" y2="147.41666634877524" fill="rgb(0, 0, 0)" stroke="rgb(66, 66, 66)" stroke-width="1px" opacity="0.25"></line><line x1="0" y1="132.6749997138977" x2="278.4679985046387" y2="132.6749997138977" fill="rgb(0, 0, 0)" stroke="rgb(66, 66, 66)" stroke-width="1px" opacity="0.25"></line><line x1="0" y1="117.9333330790202" x2="278.4679985046387" y2="117.9333330790202" fill="rgb(0, 0, 0)" stroke="rgb(66, 66, 66)" stroke-width="1px" opacity="0.25"></line><line x1="0" y1="103.19166644414264" x2="278.4679985046387" y2="103.19166644414264" fill="rgb(0, 0, 0)" stroke="rgb(66, 66, 66)" stroke-width="1px" opacity="0.25"></line><line x1="0" y1="88.44999980926514" x2="278.4679985046387" y2="88.44999980926514" fill="rgb(0, 0, 0)" stroke="rgb(66, 66, 66)" stroke-width="1px" opacity="0.25"></line><line x1="0" y1="73.7083331743876" x2="278.4679985046387" y2="73.7083331743876" fill="rgb(0, 0, 0)" stroke="rgb(66, 66, 66)" stroke-width="1px" opacity="0.25"></line><line x1="0" y1="58.9666665395101" x2="278.4679985046387" y2="58.9666665395101" fill="rgb(0, 0, 0)" stroke="rgb(66, 66, 66)" stroke-width="1px" opacity="0.25"></line><line x1="0" y1="44.22499990463257" x2="278.4679985046387" y2="44.22499990463257" fill="rgb(0, 0, 0)" stroke="rgb(66, 66, 66)" stroke-width="1px" opacity="0.25"></line><line x1="0" y1="29.48333326975504" x2="278.4679985046387" y2="29.48333326975504" fill="rgb(0, 0, 0)" stroke="rgb(66, 66, 66)" stroke-width="1px" opacity="0.25"></line><line x1="0" y1="14.741666634877529" x2="278.4679985046387" y2="14.741666634877529" fill="rgb(0, 0, 0)" stroke="rgb(66, 66, 66)" stroke-width="1px" opacity="0.25"></line><line x1="0" y1="0" x2="278.4679985046387" y2="0" fill="rgb(0, 0, 0)" stroke="rgb(66, 66, 66)" stroke-width="1px" opacity="0.25"></line></g></g></g><g><g><line x1="0" y1="162.15833298365274" x2="278.4679985046387" y2="162.15833298365274" fill="rgb(0, 0, 0)" stroke="rgb(153, 153, 153)" stroke-width="1.5px"></line></g></g><g><g><line x1="30.94088872273763" y1="0" x2="30.94088872273763" y2="176.89999961853027" fill="rgb(0, 0, 0)" stroke="rgb(153, 153, 153)" stroke-width="1.5px"></line></g></g><g><g><g><g><g><path style="fill: none;" stroke="rgb(255, 112, 67)" stroke-width="2px" d="M30.956359167099,-4.634663381119026L31.46688383102417,1.4073651124487327L31.497824719746905,3.433818993981206L31.72988138516744,4.271297650382795L31.88458582878113,4.354263752396841L32.79734204610189,4.941449925378826L32.8901647122701,4.2842352079522135L33.323337154388426,5.191301144369848L34.20515248298645,6.280041050558343L34.26703426043193,5.166989365511774L34.638324925104776,4.774572806588133L34.823970257441204,4.493146426809439L34.93226336797078,4.833442083122396L35.36543581008911,5.609310535270979L35.39637669881185,5.870640829966502L35.64390380859375,5.897038342882495L35.87596047401428,6.432391426533639L36.2163102499644,4.832092762129668L36.29366247177124,6.3998671849741635L36.41742602666219,5.7336206691453615L36.63401224772136,4.640428162055005L36.7113644695282,5.141994410190345L36.77324624697368,4.102816916224919L36.78871669133505,4.27569695661261L36.98983246803284,4.7966443206346225L37.08265513420105,5.144122535859919L37.11359602292379,4.092314066773143L37.129066467285156,3.955288153301156L37.88711824099223,6.262565976156788L37.90258868535359,6.749601352765618L38.22746801694234,7.023467404887407L38.28934979438782,6.142085943172998L38.35123157183329,3.503050054779481L38.41311334927877,1.541189566490102L38.50593601544698,4.269031457391642L38.53687690416972,4.507779549783682L38.59875868161519,4.866610883353327L39.15569467862447,5.887284795225438L39.3413400109609,9.949908561556594L39.40322178840637,12.804071662063443L39.61980800946554,9.14860179444859L39.789982897440595,7.7346019484252535L40.037510007222494,7.1687266582321L40.3778597831726,13.638494632744749L41.228734223047894,7.475705524835074L41.321556889216104,7.467857543088305L41.46079088846842,6.6294312061653144L41.56908399899801,8.605933809384812L42.590133326848346,7.727156268046612L42.80671954790751,6.599030064366324L42.89954221407572,6.946441042434122L43.11612843513488,4.486649567392861L43.688534876505535,6.7902162534121295L43.734946209589644,11.79595941679754L44.61676153818766,9.2973733646098L44.69411375999451,10.398527920725678L45.003522647221885,8.44118919641685L45.01899309158325,15.747473148541854L45.374813311894734,15.08278054852466L45.436695089340205,6.200938425996354L45.467635978062944,14.935800610759065L45.59139953295389,17.36757745526207L45.66875175476074,20.41921863177178L46.272099084854126,17.320868580647737L46.68980108261108,15.928384071835168L46.75168286005656,23.320658037932738L46.7826237487793,18.86801391218068L46.93732819239298,20.297533181466484L46.99920996983846,23.239088732684987L47.04562130292257,25.279348600908243L47.0765621916453,22.399609521333232L47.478793745040896,24.186768202238863L47.571616411209106,27.015664715181163L47.679909521738686,20.794575414273268L48.051200186411535,23.399920731600854L48.11308196385701,24.00083468066431L48.22137507438659,29.62200941204932L48.29872729619344,22.6813060699953L48.34513862927754,20.97358856792876L48.45343173980712,22.544675478490493L48.51531351725261,22.206699321518116L48.963956403732304,24.742962795419075L49.2114835135142,27.871782084383327L49.30430617968241,21.003317196722293L49.36618795712789,23.581670724451033L49.62918551127116,26.878086066075618L49.69106728871663,24.534118416356314L49.83030128796895,27.175847711594148L49.9540648428599,25.130174033545334L50.00047617594401,27.149733473278705L50.681175727844234,30.02737464093196L50.72758706092834,27.351613973413002L50.789468838373814,20.683748322750578L50.88229150454203,33.72205258742307L50.99058461507162,27.577701904047753L51.08340728123983,31.117063463303676L51.8414590549469,34.72024562190363L52.011633942921954,28.83047326328381L52.30557238578796,35.01914568530038L52.42933594067891,32.94311381977687L52.44480638504028,39.17009086558246L52.7851561609904,37.79222162313682L52.816097049713136,43.4156990383695L53.51226704597474,44.23167804063288L53.69791237831116,52.507697869454674L53.75979415575664,47.999467573228735L53.79073504447937,41.11154549744962L53.86808726628622,41.48541979556799L54.053732598622645,39.429752720827025L54.254848375320435,31.747233227194066L54.270318819681805,27.294009830237837L54.33220059712728,32.08945334961041L54.56425726254781,35.830129086650736L54.9664888159434,42.06137076295346L55.24495681444804,38.421364563943605L55.4615430355072,37.32211141185996L55.631717923482256,29.366496253058614L55.7090701452891,47.351834689267015L55.786422367095945,45.508608863849076L56.46712191899618,44.85858172332809L56.529003696441656,44.39127606133386L56.55994458516439,43.082557044203156L56.69917858441671,39.313631741839934L57.31799635887146,45.84365084973238L57.36440769195556,48.7119124082843L57.42628946940104,46.097196185854116L57.47270080248515,65.46982886044393L57.5964643573761,56.80733118757256L58.308104797999064,57.36640661725325L58.354516131083166,48.17105487819863L58.5401614634196,43.7607284962787L58.55563190778097,48.067067594761156L58.60204324086507,47.72863076474202L59.344624570210776,40.69855024883523L59.360095014572146,37.854525322965564L59.42197679201762,45.01848357829606L59.437447236378986,39.04088036354945L59.80873790105184,33.06716537384981L60.11814678827921,39.662100379889424L60.18002856572469,50.952104784041275L60.64414189656575,49.15778362298775L60.73696456273397,48.980141068867006L60.78337589581807,52.618176398274024L61.13919611612956,53.1781006165891L61.37125278155009,52.826188683810805L61.43313455899557,46.10644814421746L61.47954589207967,47.49583732927885L61.74254344622294,49.82757111784688L61.78895477930705,52.42815079676256L62.03648188908895,54.37809465226274L62.454183886845904,61.133320708971176L62.6552996635437,57.686417500119965L62.67077010790507,56.05969779472324L62.77906321843465,59.394865659047156L62.91829721768697,49.300583662431876L62.94923810640971,49.15786653300881L63.24317654927572,44.190588774426764L63.47523321469625,50.890019359959844L63.5989967695872,46.875811304043516L63.64540810267131,57.07490251182858L63.89293521245321,64.53868854260136L64.69739831924439,70.595858879991L64.72833920796712,56.22659478620559L64.91398454030355,69.67947643736203L65.09962987263998,80.74290718348604L65.16151165008546,73.01935758921336L66.39914719899495,63.06575717151333L66.7240265305837,61.380683042426554L66.89420141855875,56.79948115283274L67.68319408098857,63.125648661209695L67.80695763587951,60.81377878552613L68.24013007799785,58.58862046462493L68.28654141108196,59.25171231673365L68.59595029830932,53.4016344987637L69.21476807276407,77.01773002243571L69.30759073893229,71.61958840829485L69.49323607126871,57.12794589571657L69.61699962615967,46.20488488231346L69.6943518479665,44.399261358107985L69.87999718030295,51.20273287883976L70.06564251263937,69.2963272458461L70.18940606753031,78.1678833962898L70.20487651189168,86.8182192705429L70.57616717656454,82.06742324776536L70.80822384198507,74.55142048750275L70.93198739687602,62.95036097106767L71.30327806154887,58.577614761648185L71.47345294952392,60.18409835418576L71.65909828186035,65.60926815300135L71.81380272547403,72.05086981179625L71.92209583600362,64.70491209955912L72.04585939089458,72.17857732493256L72.6801476097107,72.82512042188272L72.89673383076986,74.5142790856778L73.48461071650188,76.44957832859794L73.54649249394735,76.42676378714081L74.42830782254536,83.21058135457444L74.95430293083191,86.54072937954085L75.00071426391601,98.67902258956498L75.20183004061381,84.80738298095672L75.23277092933655,95.64478684944149L75.85158870379131,101.62536841319414L76.00629314740499,107.34614837712076L76.0991158135732,94.87490977559527L76.26929070154826,100.95415800999525L76.45493603388468,81.24753829982465L76.48587692260742,91.61938419522738L76.60964047749836,85.215170948745L77.02734247525532,78.16787809484319L77.47598536173503,72.08716662192944L77.59974891662598,83.56136472591561L78.09480313618978,87.32389659552788L78.40421202341716,92.90359929370871L78.55891646703084,91.62782457859349L78.60532780011495,84.56134098462886L79.02302979787191,86.64127457560824L79.3169682407379,79.38425402547298L79.8739042377472,76.92304660463982L79.93578601519268,94.13910455201608L80.15237223625184,78.86121190984197L80.1678426806132,76.77693658555059L80.21425401369731,78.35998532732951L80.30707667986552,83.98604686211765L80.50819245656331,92.56391572571115L80.53913334528605,99.24508762242684L80.60101512273152,92.64454151575607L80.87948312123616,91.54284111406255L80.97230578740438,94.06319202097121L81.18889200846354,87.25811178104999L81.29718511899313,84.7347074935973L81.3590668964386,89.71819125395677L81.46736000696818,86.26087180524438L81.68394622802734,78.6002306566895L82.00882555961608,77.3030856658457L82.62764333407084,84.60311321894201L82.67405466715495,89.10360760495081L82.7978182220459,87.81553841060261L82.81328866640726,92.22945296597946L83.02987488746643,92.74132175386154L83.50945866266886,97.13929150816635L83.67963355064391,108.24202501282625L83.80339710553487,95.59202783833703L83.95810154914855,96.25912637863075L84.437685324351,93.13988457452406L84.45315576871235,101.13564670141358L84.56144887924194,94.90897543076323L84.8863282108307,96.41209476807792L84.9791508769989,100.38637659129903L85.10291443188986,101.85939890375006L85.22667798678081,101.81600968701899L85.28855976422628,112.63802168615908L85.31950065294902,117.11693633831032L85.56702776273092,114.71398332173023L85.64437998453776,107.1660807469547L86.0156706492106,98.08257450243873L86.4179022026062,85.41666607361688L86.60354753494262,98.82642532282563L86.71184064547221,106.21554610203857L87.34612886428833,94.55366312535205L87.42348108609518,107.11785399621384L87.6091264184316,104.05017845778059L87.84118308385214,111.78994690353085L87.98041708310446,110.09877828086586L88.19700330416362,104.0197783612703L88.47547130266825,104.9436087158176L88.83129152297974,95.65120422150807L89.24899352073669,99.63139189575526L89.88328173955281,95.38899365034389L90.16174973805745,98.25066198106927L90.36286551475526,102.41042120381044L90.84244928995768,118.5815479075099L90.90433106740315,128.55622135549393L91.32203306516011,111.66624886228371L92.23478928248088,103.58938648618914L92.26573017120361,108.93520965134732L92.32761194864909,112.91568730325129L92.6215503915151,110.13314357310598L92.66796172459921,109.58831724307522L92.72984350204469,98.51513876355898L92.869077501297,109.61296783347287L92.91548883438111,114.26538059143381L93.5652474975586,103.14671973535344L94.0603017171224,93.0145966646339L94.1531243832906,81.4380595996002L94.19953571637471,91.52081377649579L94.47800371487936,92.87695860232462L94.5553559366862,92.60337560270557L94.60176726977029,94.1055811867106L94.83382393519084,100.43515617335727L95.08135104497273,105.25421865785313L95.18964415550232,101.77121697365729L95.31340771039328,96.74190028344346L95.71563926378886,86.19421944489558L96.2880457051595,104.18765134545454L96.36539792696635,103.99512245610042L97.01515659014385,101.23215151491576L97.03062703450522,104.14092050489205L97.12344970067343,114.87496351605029L97.34003592173259,109.69957864833084L97.4792699209849,103.37248738308432L97.80414925257365,96.13114184157055L97.92791280746461,102.64067836532612L98.29920347213745,108.17010704284239L98.59314191500346,104.9346327530668L98.68596458117166,114.70615297368659L98.90255080223083,111.29317009635736L98.99537346839904,118.38334218293689L100.1092454624176,118.54614707334582L100.21753857294718,120.41797663055576L100.34130212783813,127.03698794759403L100.41865434964498,127.70249681607217L100.48053612709046,131.04842592027435L100.94464945793152,125.19784008919417L101.34688101132711,133.23860652624904L101.53252634366353,129.76053166720925L101.73364212036132,125.40953087287876L101.95022834142048,129.63215715766825L102.13587367375692,126.91014522218312L102.39887122790019,132.1066557585667L103.2342752234141,115.7472790006531L103.55915455500285,114.50834451676553L103.62103633244833,108.36435481993121L103.79121122042338,109.54278297213432L104.08514966328939,118.44962200112886L104.23985410690308,111.89152115952372L104.30173588434855,119.15507269909709L104.71943788210551,122.16266397324695L105.24543299039206,104.16296290072299L105.55484187761942,105.67842629844145L105.74048720995586,117.3424447618789L105.7714280986786,119.90485945058145L106.03442565282185,117.40553535380677L106.28195276260375,131.31396973214476L106.46759809494019,138.16515895327063L106.83888875961303,135.61917862212695L107.07094542503357,125.99033199771378L107.28753164609273,109.1902451161715L107.56599964459737,120.32527238892604L107.59694053332011,120.31369446769433L107.61241097768148,131.80064091933636L107.68976319948833,124.2840533282288L107.79805631001791,132.17738133560343L107.98370164235433,138.72306528008738L108.23122875213623,124.61388816125803L108.38593319574993,108.28250066099153L108.61798986117044,114.66486070202878L108.66440119425457,123.57054227966945L108.8345760822296,121.3614563796658L108.88098741531373,127.44489800199099L109.05116230328878,127.76207225584795L109.40698252360026,120.3341994869436L109.437923412323,127.6487650153051L109.76280274391175,126.66728721133404L110.30426829655966,135.6297120521374L110.59820673942566,141.13610255407897L110.6755589612325,134.90662053058685L110.95402695973713,132.7333439006018L111.49549251238506,138.0066229849249L111.60378562291463,135.9719575325039L111.71207873344422,134.5607690606155L111.75849006652831,138.25802355801582L111.80490139961243,131.96212802449074L111.99054673194885,129.88639662925408L112.05242850939433,134.0066761134678L112.14525117556254,125.60677468478121L112.53201228459676,131.97515986294536L112.57842361768087,132.01216062318613L112.76406895001729,125.76285444002251L112.88783250490825,115.38905819964974L112.98065517107645,118.01868805962444L113.01159605979919,122.96876617992572L113.25912316958109,133.03539954396473L113.42929805755615,135.04472501989179L113.78511827786762,137.5315784407059L114.17187938690185,122.96639489386875L114.21829071998596,123.27958943374593L114.38846560796102,125.37805638548588L114.68240405082703,136.48491897547953L114.86804938316345,141.31046709577765L114.99181293805441,132.09808654175458L115.42498538017273,134.03965533475466L115.82721693356832,130.65433071053624L115.85815782229106,129.89476664005014L115.87362826665242,135.55226706600484L115.8890987110138,137.1534558121798L116.02833271026611,137.2970970706799L116.09021448771158,138.97657670352908L116.32227115313212,137.3834184398562L116.77091403961181,145.5419115845567L117.09579337120056,116.87821161478857L117.23502737045288,125.54646995035846L117.63725892384848,130.6873209886139L117.68367025693257,135.85693526511113L118.55001514116923,130.96469678851483L118.5654855855306,121.04190808977653L119.18430335998535,120.12895990645731L119.19977380434673,98.31851429467694L119.24618513743083,121.2544055108187L119.49371224721273,126.97136669014283L119.63294624646505,138.011083023662L119.72576891263327,146.48508916052265L119.83406202316284,147.1469928521758L119.89594380060832,147.06456302637244L120.7932295735677,146.8572872397919L120.90152268409729,140.84444292922325L120.96340446154277,142.0481125735549L121.0407566833496,140.72318057550586L121.08716801643372,142.64018777097482L121.11810890515646,139.7134898855405L121.2882837931315,146.82136609366177L121.4893995698293,138.83586041998367L121.52034045855204,132.27185000869454L121.58222223599752,129.6461035186119L121.84521979014077,137.04837019463952L121.938042456309,142.32407758004868L121.95351290067038,144.23973547346185L122.27839223225912,148.3318850249413L122.75797600746155,149.02229566010678L123.16020756085713,149.48251977344742L123.20661889394124,140.76744327247795L123.36132333755494,128.3243922096369L123.37679378191629,119.18995678833971L123.42320511500041,124.15496842563387L124.59895888646443,123.20931258484917L126.57917576471964,125.99397468634984L126.67199843088785,137.47080550561282L126.90405509630838,143.87310308472104L127.08970042864482,144.0102599910039L127.63116598129272,149.6746647184394L127.72398864746094,152.90145340894966L127.80134086926778,140.6939304114864L127.9405748685201,144.4657059058934L127.97151575724284,147.17766142984107L128.3428064219157,150.04317433097617L129.36385574976603,147.36175627141395L129.93626219113668,144.37492310832582L130.29208241144818,147.04239330990578L130.35396418889363,143.62545417702495L130.53960952123006,141.6874007841315L130.69431396484376,146.98187581251443L130.89542974154153,151.7116364385812L130.957311518987,148.140592834145L131.05013418515523,139.648810750523L131.5606588490804,144.11612007063104L132.7054717318217,143.02354236313337L133.2469372844696,143.42404396430345L133.46352350552877,148.0788370521234L133.86575505892435,153.11760365721514L134.00498905817668,150.35693688510273L134.12875261306763,152.382084512871L134.3453388341268,155.24193423507367L134.57739549954732,146.40527969906114L134.65474772135417,148.8425719847717L134.80945216496787,150.9445866879079L135.25809505144755,148.44929781688106L135.39732905069988,138.2471271578933L135.4901517168681,144.01903142223807L136.01614682515464,149.8130920462938L136.03161726951598,152.0966267102462L136.23273304621378,146.1664553694122L136.3719670454661,150.97333062507983L136.40290793418885,152.10112440205944L136.95984393119812,150.62485511624922L137.00625526428223,152.92046469268791L137.0217257086436,154.3069180138082L137.2692528184255,152.4467982825491L137.43942770640055,155.00606579133685L137.59413215001425,152.90317710605052L137.91901148160298,144.10946357461367L138.3212430349986,139.84105654936278L138.61518147786458,142.5211139057553L138.95553125381468,148.22656504862942L139.094765253067,152.0152282404833L139.1566470305125,154.410073697651L139.96111013730368,156.1277060690025L140.2550485801697,153.29102735195946L140.31693035761518,156.10680468840744L140.7501027997335,157.63422432752344L140.85839591026306,152.38543111899816L140.8893367989858,144.96931367069476L141.01310035387675,145.6538532939941L141.1368639087677,145.81786289614243L141.30703879674277,147.73648298863L141.4308023516337,149.1028776185282L141.61644768397014,146.87396786170035L141.66285901705422,148.4127046124856L141.67832946141561,151.68503987891978L141.94132701555887,154.46614285993365L141.97226790428164,152.371828684163L142.0805610148112,155.07940246263271L142.15791323661804,155.87220865370864L143.05519900957742,156.6171005383466L143.2717852306366,149.61951201371474L143.3181965637207,149.98886009351241L143.73589856147765,151.11679711529925L143.95248478253683,152.24002020387343L143.9679552268982,150.20072799882254L144.1071892261505,147.75698823953974L144.80335922241213,145.7010417281779L144.8497705554962,145.2549437089856L145.0044749991099,151.74682132088213L145.08182722091675,149.05309592265476L145.1127681096395,148.21398333218906L145.37576566378277,150.1260112764443L145.6542336622874,149.06197804776582L145.76252677281698,138.85587095671147L146.3039923254649,146.95417200344167L146.72169432322184,143.53410164428726L146.8454578781128,148.85613188196857L148.00574120521546,145.9593249624333L148.05215253829954,147.97314972799583L148.2223274262746,149.8708406429756L148.26873875935874,149.53429879255663L148.3306205368042,150.39490017944433L148.40797275861104,154.7699714321297L148.45438409169515,156.65235234045306L148.4853249804179,156.7978934058793L148.99584964434305,154.67810694556505L149.24337675412497,154.56062705500565L149.4599629751841,141.74126077088323L149.59919697443647,149.19341034641565L149.78484230677287,153.63950681379464L149.8776649729411,149.6128608654774L150.07878074963887,148.72835466728935L150.15613297144574,152.8492298161127L150.3108374150594,151.37261861224627L150.66665763537088,143.93415022558952L150.89871430079143,150.7718739177614L150.99153696695964,151.92581490211847L151.50206163088478,148.68829806199815L151.70317740758261,152.12176354244318L151.8114705181122,148.5176741417526L151.8424114068349,143.7875755992417L151.85788185119628,142.57862179655677L151.87335229555768,140.18329509146358L152.08993851661683,148.26915812990327L152.27558384895323,153.1716923407965L152.72422673543292,146.36611358415203L153.1419287331899,151.30447916064568L153.38945584297178,154.04507785272466L153.71433517456055,154.10630947739173L153.7916873963674,156.90972025001824L153.80715784072876,153.79190740997979L154.2867416159312,156.33616171303782L154.31768250465393,152.17002321624673L154.65803228060406,150.64828918222534L154.93650027910869,147.82928730962374L155.1685569445292,150.2326936113147L155.46249538739522,154.67579665099444L156.12772449493409,156.98337407209183L156.62277871449788,156.19320078253233L156.7620127137502,156.14252383018172L157.02501026789346,156.13398182498395L157.30347826639812,150.9941966496207L157.59741670926414,140.66104979302673L158.2162344837189,148.66936065355853L158.49470248222352,146.6196161462478L159.0516384792328,146.61614222160614L159.08257936795553,151.96663969325073L159.2063429228465,155.95914446829258L159.3455769220988,151.95478994050222L159.53122225443522,153.46082432029846L160.8307395807902,156.3854856949573L161.03185535748798,138.56321606416614L161.74349579811096,147.6707810109775L162.43966579437256,152.93206421168034L162.48607712745667,147.21945065716886L162.5170180161794,149.73416700668375L162.64078157107036,154.3083889097987L162.7800155703227,155.1882595801027L162.8264269034068,157.735513185206L163.02754268010457,158.94849949404895L163.04301312446594,146.97671977353716L163.12036534627276,143.49022562303733L164.18782600720724,147.54548895021082L164.40441222826638,149.731842798691L164.46629400571186,153.99126862681342L164.86852555910747,156.0466576045834L165.1624640019735,155.99674336014192L165.5956364440918,156.9956702893671L166.0906906636556,153.35463786555144L166.30727688471475,145.9987382100111L166.97250599225362,145.7652131069732L167.0343877696991,151.55577562432111L167.06532865842183,146.9805909047735L167.48303065617878,151.4593825944952L167.60679421106974,152.6555754582233L167.65320554415385,153.7964482698673L167.7305577659607,156.01875164714116L167.8233804321289,158.33485146516887L168.36484598477682,159.09189015170188L168.5195504283905,159.3696704420458L168.62784353892008,156.6792409458182L168.7825479825338,153.62185830205624L168.84442975997922,156.46267126960078L168.9063115374247,155.0121508680475L169.03007509231566,151.93355783964122L169.2776022020976,154.7686627038254L170.12847664197284,157.143735783236L170.20582886377971,158.4423633612168L170.28318108558656,153.84187530778968L171.56722796758018,157.03628364494008L171.66005063374837,156.55389875534965L171.70646196683248,158.39698882326303L172.41810240745545,159.45488565993153L172.60374773979188,151.47829143390393L173.14521329243976,155.06730029363894L173.20709506988524,148.47737850024174L173.28444729169212,151.29357901474737L173.3308586247762,152.42049948945933L173.65573795636496,155.64477188597917L174.15079217592876,155.00575200628L174.30549661954242,157.8004720906501L174.69225772857666,152.76554496995448L175.125430170695,155.08538366893026L175.6823661677043,157.2773534149108L175.80612972259522,159.03305772248666L176.17742038726809,158.10385930911028L176.19289083162943,146.60435979558483L176.2547726090749,147.42478020835435L176.42494749704997,152.95631787605748L176.5641814963023,156.2527464785182L176.6105928293864,158.14224721521774L177.12111749331157,157.3089824820357L177.18299927075705,159.18650428376884L177.30676282564798,159.05645763953171L177.50787860234578,159.70237648980725L177.97199193318684,160.6442249026591L178.15763726552328,147.92487350436693L178.29687126477558,151.56149608022028L178.4515757083893,154.7743245734605L178.66816192944844,157.66116575099517L178.85380726178485,159.36771727560492L179.24056837081912,160.3391022106664L179.25603881518046,159.6549812192758L179.45715459187826,159.50390941123564L179.90579747835795,158.1018662336177L180.19973592122395,156.57484331111044L180.46273347536723,158.6080425964933L181.08155124982196,157.87998192696926L181.32907835960387,157.89545484027883L181.88601435661317,158.5124364425856L181.94789613405865,158.35563601505078L182.25730502128602,156.5331169398287L182.47389124234516,156.04640358909006L182.76782968521118,152.95153343177756L182.98441590627033,151.43157142984379L183.32476568222046,154.32683838144357L183.5413519032796,156.95521075954738L183.60323368072508,158.39070194997984L183.63417456944785,149.89251395737145L183.6960563468933,150.27574841764414L183.77340856870015,154.16771199443957L184.06734701156617,156.5381607296335L184.8872805627187,152.1122603768342L185.05745545069377,154.9567726435286L185.10386678377787,152.49066339267054L185.19668944994606,155.89633433878234L185.22763033866883,157.24197308349122L185.41327567100527,151.92963919059974L185.52156878153485,155.53290697173182L185.72268455823263,157.8728401538619L185.738155002594,156.69044015457334L185.90832989056906,158.8195627709494L185.93927077929177,160.0800308781652L186.17132744471232,160.72771071937277L186.26415011088054,161.23459206642852L186.54261810938516,158.56631896965405L186.6354407755534,159.18119388244588L187.00673144022625,150.71636584827502L187.03767232894896,154.36514031429058L187.25425855000813,157.3054346045037L187.30066988309227,159.04477780466166L187.56366743723552,159.9464016083634L187.61007877031963,160.4773885554009L187.99683987935384,160.86922118163605L188.13607387860617,161.3310602588413L188.19795565605162,161.02044052121047L188.35266009966534,161.008712080355L189.28088676134746,160.18514288259271L189.31182765007017,160.8897065259419L189.4974729824066,160.89410133415078L189.63670698165896,161.28903354700617L190.5030518658956,161.0471406418653L190.6422858651479,161.20756336980153L190.65775630950927,156.45447090699443L191.70974652608234,158.0971861898817L191.75615785916645,159.5461917217333L192.05009630203247,159.41560185859313L192.35950518925986,152.20898989943987L192.56062096595764,156.11490183116018L192.62250274340312,157.9665052504085L192.66891407648723,158.18400569499744L192.69985496520994,159.58748630568542L193.24132051785787,160.03206073659473L193.3341431840261,160.0871818604404L193.36508407274883,160.7932749597288L193.47337718327842,160.19885246252915L193.7209042930603,159.72954902141842L193.8291974035899,159.88947915265862L193.93749051411945,159.155678627235L194.23142895698547,160.13431971598487L194.40160384496053,160.46084391854362L194.43254473368327,159.53430793183853L195.25247828483583,160.53069715291497L195.50000539461772,160.92675952205553L196.04147094726562,160.23953371514688L196.14976405779518,158.64491368765275L196.31993894577025,158.45518700845076L196.62934783299764,159.54990853413074L196.70670005480446,160.44238857427467L197.00063849767048,161.06393863532554L197.01610894203188,160.98640386478127L197.51116316159568,161.4345597630152L197.52663360595704,157.47216354286095L197.8979242706299,156.40972494326803L198.16092182477314,155.26857617668827L198.23827404658,157.5952934145597L198.51674204508464,158.49663574972305L198.56315337816875,146.79710711146106L198.7797395992279,151.922259439668L198.96538493156433,155.87389695693506L199.80078892707826,158.271782289096L199.89361159324645,159.30949048917594L199.98643425941466,160.15102699932805L200.0328455924988,160.76913870416607L200.18755003611247,161.15179258210534L200.5588407007853,160.81066718752476L200.60525203386942,144.08612977326527L201.1157766977946,151.21234844981288L201.4715969181061,155.5120132697849L201.5025378068288,157.99094907401357L201.61083091735838,159.41046865809682L202.16776691436766,159.41487648581335L202.3688826910655,160.29019833510245L202.8020551331838,160.8449035702633L203.31257979710898,159.65110404416032L204.22533601442973,159.87651306751604L204.81321290016174,159.75946579815422L204.8905651219686,160.65895369726343L204.95244689941407,160.75483985300988L205.06074000994363,160.9063064827786L205.07621045430503,161.2210467303394L205.0916808986664,160.93607730160986L205.19997400919598,160.59675056213425L205.3856193415324,160.9357097540953L205.7723804505666,160.97622872258538L206.53043222427368,160.1991239371947L206.76248888969423,155.72569025754413L206.8707820002238,158.18978642089508L207.35036577542624,159.3118492120407L207.67524510701497,160.33410376219618L207.75259732882182,160.96158272313463L207.78353821754456,160.38621407351135L207.87636088371278,160.84672789786907L208.12388799349466,160.62007039360083L208.6034717686971,161.16879319506467L208.64988310178123,161.55096650061517L208.92835110028585,161.67982353515697L208.9438215446472,161.67085077893594L209.05211465517678,156.70913957038013L209.08305554389955,158.81575642966183L209.14493732134503,160.13371214081758L209.16040776570637,160.14898248690793L209.33058265368143,160.25945766227986L209.3460530980428,160.61168647212727L209.48528709729513,160.2151459517294L209.59358020782471,160.69415034888218L209.60905065218606,160.6655573010063L209.732814207077,159.74630217002687L210.2433388710022,160.6360745176117L210.50633642514546,161.02804578576217L211.4345630868276,160.93490614949263L211.49644486427306,160.57805267233502L211.80585375150045,160.60966502195262L211.91414686203004,159.54316205645972L212.00696952819823,160.40954837002585L212.02243997255962,160.43019335097372L212.5329646364848,153.52567590499527L212.8733144124349,156.1753430981354L212.9661370786031,155.47327492937833L212.99707796732582,157.53825065687738L213.0280188560486,158.69886700378342L213.4611912981669,159.53334996063637L214.29659529368084,160.48661897775006L214.93088351249696,160.89284460956708L215.07011751174926,154.5516869669684L215.3485855102539,157.0645667289512L215.73534661928812,158.57733324172904L215.87458061854045,156.197540306143L215.96740328470867,157.96912086723776L216.09116683959962,156.33089992871356L216.44698705991107,157.456374801238L216.694514169693,159.06852350116463L216.86468905766804,158.79959881718034L217.1431570561727,158.87731021924625L217.91667927424112,160.17137546950843L218.28796993891396,160.74031873362844L218.39626304944355,161.15645474198803L218.42720393816631,161.51475986412387L219.169785267512,161.6977789660184L219.30901926676432,161.04063506585325L219.38637148857117,161.43894724495973L219.58748726526898,161.31920026974993L219.60295770963035,161.15926558782508L219.66483948707582,161.39891523123418L219.7731325976054,161.5753663026096L219.8659552637736,161.30963609581303L220.0206597073873,160.98887101692347L220.20630503972373,161.39295280082285L220.2681868171692,159.29386663858162L220.37647992769877,157.05655585317626L220.763241036733,149.13512479976603L221.04170903523763,154.17048447953889L221.18094303448993,156.65220423550605L221.28923614501952,150.90203764888653L221.45941103299458,155.18060553710083L221.7069381427765,157.13860879982602L221.81523125330608,158.4436959948104L222.41857858339947,159.6701500035532L222.77439880371094,157.0805996966502L222.944573691686,158.9262524906109L223.1302190240224,159.86547903673468L223.85732990900675,160.27290661717072L223.99656390825908,160.1623178984571L224.27503190676373,160.63384115125783L224.29050235112507,157.00162973499744L224.36785457293192,157.23320960815101L224.38332501729332,157.8375133660006L224.67726346015928,159.41135243369084L224.77008612632753,159.2058526643007L224.9402610143026,160.226507573149L225.40437434514362,160.64734163011778L225.45078567822773,161.0024146959138L225.5126674556732,161.36688813101216L225.99225123087567,161.61184518192337L226.10054434140525,161.16839694873678L226.33260100682577,161.17837435425818L226.48730545043946,158.23863677438223L226.93594833691915,159.75194481855152L227.2608276685079,160.57467739202244L227.36912077903747,160.8930437024335L227.43100255648295,161.26068636224127L227.5547661113739,161.01582614817588L228.14264299710592,161.3723256985827L228.39017010688784,161.58973449253995L228.57581543922424,161.04886888779353L228.97804699261982,160.92616567644734L229.0553992144267,160.97338150776122L229.59686476707458,161.1075227738995L230.3858574295044,159.5250712375265L230.55603231747946,160.11364993396808L230.80355942726135,160.49307014168522L230.91185253779094,160.08639151817167L231.0201456483205,160.88138211912607L231.22126142501833,161.06375009178427L231.34502497990925,160.80381942557344L231.70084520022075,160.80936793264385L231.963842754364,161.31894695950047L232.18042897542315,161.45720406530668L232.2732516415914,161.35516768791325L232.28872208595274,161.3385739538289L232.4588969739278,161.51675751399796L232.6136014175415,161.66163751899538L232.84565808296202,161.75162470574375L232.8611285273234,155.38403042275365L233.09318519274393,157.44304506830815L233.24788963635763,159.25295056867608L233.52635763486225,156.57141910488568L233.78935518900556,156.59502463715353L234.145175409317,158.47618980388793L234.2534685198466,159.3640231716192L234.37723207473755,160.40922644636117L234.47005474090577,160.76021208978028L234.7485227394104,155.6791353964225L234.77946362813316,158.14295854576673L235.75410162289936,159.60397704478555L236.0016287326813,160.51882794107073L236.032569621404,160.13819649883138L236.8834440612793,160.6971975451199L236.96079628308613,160.8041491275686L237.06908939361574,161.02469835225398L237.08455983797708,161.25726114287122L237.31661650339763,161.25850571654692L237.67243672370913,161.47879388280495L237.8735525004069,161.6524457151689L238.27578405380248,161.47366231772028L238.29125449816388,160.11806535730108L238.7244269402822,159.7838293418816L239.49794915835062,160.64833355756306L239.65265360196432,161.21841237877194L239.91565115610757,160.86305575250967L239.93112160046894,160.28318960672587L240.13223737716675,157.96713505614943L240.27147137641907,159.3287882288876L240.31788270950318,158.01730805053182L240.34882359822592,158.0646773473183L240.36429404258726,159.52191768858512L240.41070537567137,159.7506841461208L240.87481870651246,159.5368576973433L241.5555182584127,159.8525933517775L241.6019295914968,160.6430743753034L242.03510203361512,159.5766140913742L242.3445109208425,145.97866538833145L242.56109714190166,151.8104432147869L242.74674247423806,155.88900029128715L242.85503558476765,158.32250317430166L242.87050602912902,159.57233100930014L243.14897402763367,158.8529197504143L243.27273758252463,159.96427129294355L243.30367847124734,160.0272533318238L243.61308735847473,160.48325096896363L243.99984846750897,160.0436998335471L244.3711391321818,159.07824638566262L244.51037313143414,159.81406342542417L244.61866624196372,160.69495140936058L244.63413668632506,161.225238731579L244.8197820186615,161.49115756718174L244.83525246302287,161.6916254511985L245.05183868408204,161.45893036246412L245.2065431276957,160.57062307442845L245.42312934875488,161.15244125047263L245.68612690289817,161.36863761496318L245.94912445704142,161.62477170332303L246.02647667884824,158.77451366590915L246.1192993450165,159.64442043254232L246.86188067436217,152.51318651016496L247.0165851179759,156.2906266101506L247.0939373397827,156.96892442397362L247.32599400520326,157.81093703670368L247.37240533828734,158.15058877787578L247.38787578264873,148.78930197251847L247.48069844881692,144.97501894995168L247.60446200370788,148.34548919378844L247.650873336792,151.17728534591322L247.72822555859884,155.41395595774136L248.26969111124674,156.7166290021527L249.72391288121543,158.52206964910144L249.84767643610638,159.87427227928515L250.40461243311566,154.76427378145976L250.7294917647044,157.41579913536032L251.0234302075704,159.1208039063739L251.1162528737386,159.8108056202047L251.2554868729909,157.95660184992755L251.70412975947062,158.11418069993127L251.719600203832,158.67138456411158L251.8588342030843,155.1357494629865L252.04447953542072,156.73640529003714L252.0754204241435,157.98652148258287L252.1063613128662,158.6813459386266L252.16824309031168,159.9755965165295L252.52406331062318,160.78224383281082L252.97270619710287,158.9340095052374L253.32852641741434,159.28897830901968L253.37493775049845,151.0500647222264L253.4987013053894,155.24332874323784L253.62246486028036,157.84071542918798L253.83905108133953,156.13589813952674L253.8545215257009,157.30005421894026L253.93187374750772,157.62352792924605L254.11751907984416,148.3693231438215L254.13298952420553,151.5935084750761L254.36504618962604,153.9652130220886L254.96839351971946,153.7181913508212L255.03027529716493,156.04080908207183L255.15403885205586,157.5229160975844L255.4325068505605,159.22088452878086L255.57174084981284,160.09669373518662L255.66456351598103,153.2970537458547L255.75738618214925,153.45846811754012L255.95850195884705,145.7438709871324L256.36073351224263,149.6001187432436L256.45355617841085,152.32019897969292L256.71655373255413,155.7573454859968L256.7784355099996,155.46064281462523L257.84589617093405,152.57137462544506L258.38736172358193,153.86919488012336L258.5111252784729,155.5828275724995L258.99070905367535,153.46247727731563L259.09900216420493,156.81971187375098L259.145413497289,158.74650599076904L259.1608839416504,159.8143160121956L259.5476450506846,160.20954751711733L259.62499727249144,159.79490032935348L259.67140860557555,160.01902583403475L259.87252438227335,159.59690964634453L259.9653470484416,155.1248455906143L260.13552193641664,153.92189218816378L260.3830490461985,156.08816955859714L260.6305761559804,146.58424861605218L260.73886926651,152.02254350778387L260.8316919326782,151.60235318391963L260.90904415448506,148.55180566637137L260.9399850432078,152.25644031936244L261.0482781537374,148.2131130314077L261.2493939304352,152.64301737016905L261.3731574853261,156.40305341333038L261.5588028176626,158.60394224973425L262.1312092590332,159.4958299226181L262.99755414326984,160.43513468530756" fill="none"></path></g></g></g></g><g opacity="0.2"><g><g><g><path style="fill: none;" stroke="rgb(255, 112, 67)" stroke-width="2px" d="M30.956359167099,-4.634663381119026L31.46688383102417,5.032582208589392L31.497824719746905,5.379214720252404L31.72988138516744,5.256172550311021L31.88458582878113,4.462584295186389L32.79734204610189,5.753739789635202L32.8901647122701,3.3444076465966646L33.323337154388426,6.513811987499738L34.20515248298645,7.885720935346998L34.26703426043193,3.5142373327131824L34.638324925104776,4.189507157510289L34.823970257441204,4.072538367072411L34.93226336797078,5.342774443231375L35.36543581008911,6.771593206426277L35.39637669881185,6.262329088058323L35.64390380859375,5.936615994685181L35.87596047401428,7.2351945085271465L36.2163102499644,2.432051081181271L36.29366247177124,8.751289984587256L36.41742602666219,4.734311792972821L36.63401224772136,3.0006993546946066L36.7113644695282,5.894327278142245L36.77324624697368,2.5440711920236936L36.78871669133505,4.535014969265231L36.98983246803284,5.5780616639967775L37.08265513420105,5.665338376861965L37.11359602292379,2.514604054432621L37.129066467285156,3.7497494934602034L37.88711824099223,9.723480585111247L37.90258868535359,7.480154148501842L38.22746801694234,7.4342663922531385L38.28934979438782,4.820013925966722L38.35123157183329,-0.4555034627628629L38.41311334927877,-1.40160102541995L38.50593601544698,8.360794176510044L38.53687690416972,4.8659016822154255L38.59875868161519,5.404857878156091L39.15569467862447,7.418295653558744L39.3413400109609,16.043844188425282L39.40322178840637,17.085316303285563L39.61980800946554,3.6653970003559695L39.789982897440595,5.613602181091355L40.037510007222494,6.31991372335082L40.3778597831726,23.343146591711648L41.228734223047894,-1.7684781354279777L41.321556889216104,7.45608557046944L41.46079088846842,5.371791700859231L41.56908399899801,11.570687714103169L42.590133326848346,6.408989956068891L42.80671954790751,4.906840758868694L42.89954221407572,7.467557509531616L43.11612843513488,0.7969623548488016L43.688534876505535,10.245566282431046L43.734946209589644,19.304574161862547L44.61676153818766,5.549494286332137L44.69411375999451,12.050259754898434L45.003522647221885,5.505181109954719L45.01899309158325,26.706899076726895L45.374813311894734,14.085741648499006L45.436695089340205,-7.121824757795076L45.467635978062944,28.038093887902505L45.59139953295389,21.01524272201641L45.66875175476074,24.99668039653625L46.272099084854126,12.673343503961714L46.68980108261108,13.839657308616243L46.75168286005656,34.40906898707908L46.7826237487793,12.189047723552594L46.93732819239298,22.441812085395213L46.99920996983846,27.651422059512697L47.04562130292257,28.339738403243246L47.0765621916453,18.08000090197069L47.478793745040896,26.867506223597356L47.571616411209106,31.25900948459457L47.679909521738686,11.462941462911349L48.051200186411535,27.307938707592257L48.11308196385701,24.902205604259507L48.22137507438659,38.05377150912682L48.29872729619344,12.270251056914276L48.34513862927754,18.412012314828953L48.45343173980712,24.901305844333056L48.51531351725261,21.699735086059572L48.963956403732304,28.54735800627046L49.2114835135142,32.56501101782973L49.30430617968241,10.700619865230692L49.36618795712789,27.449201016044153L49.62918551127116,31.82270907851247L49.69106728871663,21.018166941777363L49.83030128796895,31.138441654450926L49.9540648428599,22.061663516472127L50.00047617594401,30.17907263287876L50.681175727844234,34.343836392411816L50.72758706092834,23.337972972134594L50.789468838373814,10.681949846756961L50.88229150454203,53.27950898443183L50.99058461507162,18.361175878984795L51.08340728123983,36.42610580218752L51.8414590549469,40.12501885980359L52.011633942921954,19.995814725354048L52.30557238578796,44.30215431832525L52.42933594067891,29.8290660214916L52.44480638504028,48.51055643429086L52.7851561609904,35.72541775946834L52.816097049713136,51.85091516121852L53.51226704597474,45.45564654402793L53.69791237831116,64.92172761268739L53.75979415575664,41.23712212888981L53.79073504447937,30.779662383780906L53.86808726628622,42.04623124274562L54.053732598622645,36.346252108715504L54.254848375320435,20.223453986744662L54.270318819681805,20.614174734803473L54.33220059712728,39.2826186286693L54.56425726254781,41.44114269221123L54.9664888159434,51.408233277407504L55.24495681444804,32.96135526542881L55.4615430355072,35.67323168373454L55.631717923482256,17.433073514856606L55.7090701452891,74.3298423435796L55.786422367095945,42.74377012572222L56.46712191899618,43.88354101254663L56.529003696441656,43.69031756834252L56.55994458516439,41.119478518507094L56.69917858441671,33.660243788295105L57.31799635887146,55.63867951157104L57.36440769195556,53.01430474611212L57.42628946940104,42.17512185220889L57.47270080248515,94.52877787232865L57.5964643573761,43.81358467826553L58.308104797999064,58.20501976177425L58.354516131083166,34.37802726961672L58.5401614634196,37.14523892339881L58.55563190778097,54.52657624248482L58.60204324086507,47.220975519713335L59.344624570210776,30.153429474975074L59.360095014572146,33.588487934161094L59.42197679201762,55.76442096129176L59.437447236378986,30.07447554142951L59.80873790105184,24.106592889300373L60.11814678827921,49.55450288894886L60.18002856572469,67.88711139026904L60.64414189656575,46.466301881407475L60.73696456273397,48.71367723768586L60.78337589581807,58.07522939238456L61.13919611612956,54.017986944061704L61.37125278155009,52.29832078464338L61.43313455899557,36.02683733482749L61.47954589207967,49.579921106870955L61.74254344622294,53.32517180069894L61.78895477930705,56.32902031513609L62.03648188908895,57.30301043551299L62.454183886845904,71.26615979403383L62.6552996635437,52.51606268684313L62.67077010790507,53.6196182366281L62.77906321843465,64.3976174555331L62.91829721768697,34.15916066750893L62.94923810640971,48.94379083887421L63.24317654927572,36.73967213655365L63.47523321469625,60.939165238259505L63.5989967695872,40.854499220169004L63.64540810267131,72.37353932350621L63.89293521245321,75.7343675887605L64.69739831924439,79.68161438607544L64.72833920796712,34.672698645527504L64.91398454030355,89.85879891409667L65.09962987263998,97.33805330267205L65.16151165008546,61.434033197804325L66.39914719899495,48.13535654496323L66.7240265305837,58.85307184879639L66.89420141855875,49.92767831844199L67.68319408098857,72.61489992377514L67.80695763587951,57.345973972000735L68.24013007799785,55.250882983273186L68.28654141108196,60.24635009489671L68.59595029830932,44.62651777180872L69.21476807276407,112.44187330794375L69.30759073893229,63.522375987083564L69.49323607126871,35.39048212684915L69.61699962615967,29.82029336220876L69.6943518479665,41.69082607179976L69.87999718030295,61.407940159937425L70.06564251263937,96.43671879635559L70.18940606753031,91.47521762195538L70.20487651189168,99.79372308192251L70.57616717656454,74.94122921359909L70.80822384198507,63.27741634710887L70.93198739687602,45.548771696415L71.30327806154887,52.018495447518944L71.47345294952392,62.59382374299216L71.65909828186035,73.74702285122476L71.81380272547403,81.7132722999886L71.92209583600362,53.68597553120344L72.04585939089458,83.38907516299273L72.6801476097107,73.79493506730796L72.89673383076986,77.04801708137043L73.48461071650188,79.3525271929781L73.54649249394735,76.39254197495515L74.42830782254536,93.3863077057249L74.95430293083191,91.53595141699043L75.00071426391601,116.88646240460122L75.20183004061381,63.99992356804432L75.23277092933655,111.90089265216858L75.85158870379131,110.59624075882311L76.00629314740499,115.9273183230107L76.0991158135732,76.16805187330706L76.26929070154826,110.07303036159527L76.45493603388468,51.68760873456873L76.48587692260742,107.17715303833148L76.60964047749836,75.6088510790214L77.02734247525532,67.59693881399048L77.47598536173503,62.96609941255883L77.59974891662598,100.77266188189486L78.09480313618978,92.96769439994631L78.40421202341716,101.27315334097995L78.55891646703084,89.71416250592057L78.60532780011495,73.96161559368193L79.02302979787191,89.76117496207735L79.3169682407379,68.49872320027012L79.8739042377472,73.23123547339006L79.93578601519268,119.96319147308049L80.15237223625184,55.944372946580785L80.1678426806132,73.65052359911351L80.21425401369731,80.73455843999787L80.30707667986552,92.42513916429988L80.50819245656331,105.43071902110142L80.53913334528605,109.26684546750039L80.60101512273152,82.74372235574992L80.87948312123616,89.89029051152221L80.97230578740438,97.84371838133421L81.18889200846354,77.05049142116818L81.29718511899313,80.94960106241828L81.3590668964386,97.19341689449601L81.46736000696818,81.07489263217576L81.68394622802734,67.10926893385718L82.00882555961608,75.35736817957999L82.62764333407084,95.55315454858646L82.67405466715495,95.85434918396396L82.7978182220459,85.8834346190803L82.81328866640726,98.85032479904476L83.02987488746643,93.50912493568467L83.50945866266886,103.73624613962357L83.67963355064391,124.89612526981608L83.80339710553487,76.61703207660321L83.95810154914855,97.25977418907132L84.437685324351,88.46102186836407L84.45315576871235,113.12928989174787L84.56144887924194,85.56896852478772L84.8863282108307,98.66677377404994L84.9791508769989,106.34779932613066L85.10291443188986,104.06893237242667L85.22667798678081,101.75092586192233L85.28855976422628,128.87103968486917L85.31950065294902,123.83530831653724L85.56702776273092,111.1095537968601L85.64437998453776,95.84422688479145L86.0156706492106,84.45731513566474L86.4179022026062,66.41780343038408L86.60354753494262,118.94106419663876L86.71184064547221,117.29922727085795L87.34612886428833,77.06083866032228L87.42348108609518,125.96414030250645L87.6091264184316,99.44866515013081L87.84118308385214,123.39959957215615L87.98041708310446,107.56202534686844L88.19700330416362,94.90127848187694L88.47547130266825,106.32935424763855L88.83129152297974,81.71259748004377L89.24899352073669,105.60167340712604L89.88328173955281,89.02539628222684L90.16174973805745,102.54316447715729L90.36286551475526,108.65006003792223L90.84244928995768,142.83823796305902L90.90433106740315,143.51823152746996L91.32203306516011,86.3312901224684L92.23478928248088,91.4740929220473L92.26573017120361,116.9539443990846L92.32761194864909,118.88640378110722L92.6215503915151,105.959327977888L92.66796172459921,108.77107774802909L92.72984350204469,81.90537104428464L92.869077501297,126.25971143834369L92.91548883438111,121.24399972837517L93.5652474975586,86.46872845123289L94.0603017171224,77.81641205855462L94.1531243832906,64.0732540020496L94.19953571637471,106.64494504183921L94.47800371487936,94.91117584106786L94.5553559366862,92.19300110327703L94.60176726977029,96.3588895627181L94.83382393519084,109.92951865332725L95.08135104497273,112.48281238459703L95.18964415550232,96.54671444736351L95.31340771039328,89.19792524812266L95.71563926378886,70.37269818707378L96.2880457051595,131.17779919629294L96.36539792696635,103.70632912206929L97.01515659014385,97.08769510313869L97.03062703450522,108.50407398985652L97.12344970067343,130.9760280327876L97.34003592173259,101.93650134675164L97.4792699209849,93.88185048521456L97.80414925257365,85.26912352929989L97.92791280746461,112.40498315095948L98.29920347213745,116.46425005911686L98.59314191500346,100.08142131840333L98.68596458117166,129.3634333046163L98.90255080223083,106.17369578036352L98.99537346839904,129.0186003128062L100.1092454624176,118.79035440895922L100.21753857294718,123.2257209663706L100.34130212783813,136.96550492315146L100.41865434964498,128.70076011878945L100.48053612709046,136.06731957657757L100.94464945793152,116.42196134257392L101.34688101132711,145.29975618183138L101.53252634366353,124.54341937864956L101.73364212036132,118.88302968138305L101.95022834142048,135.9660965848525L102.13587367375692,122.82712731895543L102.39887122790019,139.901421563142L103.2342752234141,91.20821386378276L103.55915455500285,112.64994279093418L103.62103633244833,99.14837027467973L103.79121122042338,111.31042520043894L104.08514966328939,131.80988054462068L104.23985410690308,102.05436989711598L104.30173588434855,130.0504000084572L104.71943788210551,126.67405088447168L105.24543299039206,77.16341129193702L105.55484187761942,107.95162139501917L105.74048720995586,134.8384724570351L105.7714280986786,123.74848148363526L106.03442565282185,113.65654920864472L106.28195276260375,152.17662129965174L106.46759809494019,148.44194278495948L106.83888875961303,131.80020812541142L107.07094542503357,111.54706206109404L107.28753164609273,83.99011479385808L107.56599964459737,137.0278132980578L107.59694053332011,120.29632758584677L107.61241097768148,149.03106059679945L107.68976319948833,113.00917194156744L107.79805631001791,144.0173733466654L107.98370164235433,148.5415911968133L108.23122875213623,103.45012248301401L108.38593319574993,83.7854194105918L108.61798986117044,124.23840076358465L108.66440119425457,136.92906464613043L108.8345760822296,118.04782752966031L108.88098741531373,136.5700604354788L109.05116230328878,128.2378336366334L109.40698252360026,109.19239033358707L109.437923412323,138.62061330784732L109.76280274391175,125.19507050537749L110.30426829655966,149.0733493133424L110.59820673942566,149.39568830699136L110.6755589612325,125.5623974953487L110.95402695973713,129.47342895562423L111.49549251238506,145.91654161140954L111.60378562291463,132.9199593538724L111.71207873344422,132.44398635278293L111.75849006652831,143.80390530411628L111.80490139961243,122.51828472420311L111.99054673194885,126.77279953639908L112.05242850939433,140.18709533978836L112.14525117556254,113.0069225417513L112.53201228459676,141.52773763019164L112.57842361768087,132.06766176354722L112.76406895001729,116.38889516527706L112.88783250490825,99.82836383909063L112.98065517107645,121.96313284958643L113.01159605979919,130.39388336037763L113.25912316958109,148.1353495900233L113.42929805755615,138.05871323378233L113.78511827786762,141.2618585719271L114.17187938690185,101.11861957361299L114.21829071998596,123.74938124356169L114.38846560796102,128.52575681309582L114.68240405082703,153.14521286046997L114.86804938316345,148.54878927622485L114.99181293805441,118.27951571071998L115.42498538017273,136.95200852425478L115.82721693356832,125.57634377420862L115.85815782229106,128.755420534321L115.87362826665242,144.03851770493688L115.8890987110138,139.55523893144223L116.02833271026611,137.5125589584301L116.09021448771158,141.49579615280285L116.32227115313212,134.99368104434689L116.77091403961181,157.77965130160737L117.09579337120056,73.88266166013636L117.23502737045288,138.54885745371334L117.63725892384848,138.39859754599698L117.68367025693257,143.61135667985704L118.55001514116923,123.62633907362033L118.5654855855306,106.15772504166915L119.18430335998535,118.75953763147845L119.19977380434673,65.60284587700639L119.24618513743083,155.6582423350313L119.49371224721273,135.54680845912904L119.63294624646505,154.5706575239407L119.72576891263327,159.19609836581367L119.83406202316284,148.13984838965553L119.89594380060832,146.94091828766736L120.7932295735677,146.54637355992114L120.90152268409729,131.82517646337027L120.96340446154277,143.8536170400524L121.0407566833496,138.73578257843232L121.08716801643372,145.51569856417822L121.11810890515646,135.32344305738903L121.2882837931315,157.48318040584368L121.4893995698293,126.8576019094665L121.52034045855204,122.42583439176087L121.58222223599752,125.70748378348799L121.84521979014077,148.15177020868092L121.938042456309,150.2376386581624L121.95351290067038,147.1132223135816L122.27839223225912,154.47010935216045L122.75797600746155,150.057911612855L123.16020756085713,150.17285594345836L123.20661889394124,127.69482852102374L123.36132333755494,109.6598156153753L123.37679378191629,105.48830365639395L123.42320511500041,131.6024858815751L124.59895888646443,121.7908288236722L126.57917576471964,130.1709678386008L126.67199843088785,154.6860517345073L126.90405509630838,153.4765494533834L127.08970042864482,144.2159953504282L127.63116598129272,158.17127180959264L127.72398864746094,157.74163644471506L127.80134086926778,122.3826459152915L127.9405748685201,150.1233691475039L127.97151575724284,151.24559471576262L128.3428064219157,154.3414436826788L129.36385574976603,143.33962918207058L129.93626219113668,139.89467336369367L130.29208241144818,151.04359861227567L130.35396418889363,138.50004547770368L130.53960952123006,138.78032069479136L130.69431396484376,154.9235883550888L130.89542974154153,158.8062773776813L130.957311518987,142.7840274274907L131.05013418515523,126.91113762509002L131.5606588490804,150.8170840507931L132.7054717318217,141.38467580188686L133.2469372844696,144.02479636605858L133.46352350552877,155.06102668385333L133.86575505892435,160.67575356485273L134.00498905817668,146.21593672693416L134.12875261306763,155.41980595452333L134.3453388341268,159.53170881837772L134.57739549954732,133.15029789504237L134.65474772135417,152.4985104133375L134.80945216496787,154.09760874261215L135.25809505144755,144.7063645103408L135.39732905069988,122.9438711694117L135.4901517168681,152.67688781875526L136.01614682515464,158.50418298237733L136.03161726951598,155.52192870617486L136.23273304621378,137.2711983581612L136.3719670454661,158.18364350858124L136.40290793418885,153.79281506752886L136.95984393119812,148.4104511875339L137.00625526428223,156.3638790573459L137.0217257086436,156.38659799548864L137.2692528184255,149.65661868566045L137.43942770640055,158.84496705451843L137.59413215001425,149.7488440781211L137.91901148160298,130.91889327745838L138.3212430349986,133.43844601148643L138.61518147786458,146.5411999403441L138.95553125381468,156.78474176294063L139.094765253067,157.6982230282641L139.1566470305125,158.00234188340255L139.96111013730368,158.70415462602978L140.2550485801697,149.0360092763949L140.31693035761518,160.3304706930794L140.7501027997335,159.92535378619746L140.85839591026306,144.51224130621026L140.8893367989858,133.84513749823964L141.01310035387675,146.68066272894308L141.1368639087677,146.06387729936492L141.30703879674277,150.61441312736133L141.4308023516337,151.15246956337555L141.61644768397014,143.53060322645857L141.66285901705422,150.72080973866346L141.67832946141561,156.59354277857105L141.94132701555887,158.63779733145444L141.97226790428164,149.23035742050706L142.0805610148112,159.1407631303373L142.15791323661804,157.0614179403225L143.05519900957742,157.7344383653035L143.2717852306366,139.12312922676696L143.3181965637207,150.54288221320894L143.73589856147765,152.80870264797946L143.95248478253683,153.92485483673468L143.9679552268982,147.14178969124623L144.1071892261505,144.0913786006155L144.80335922241213,142.61712196113513L144.8497705554962,144.58579668019715L145.0044749991099,161.48463773872695L145.08182722091675,145.01250782531375L145.1127681096395,146.95531444649046L145.37576566378277,152.99405319282718L145.6542336622874,147.4659282047481L145.76252677281698,123.54671032012993L146.3039923254649,159.10162357353693L146.72169432322184,138.40399610555565L146.8454578781128,156.83917723849058L148.00574120521546,141.61411458313037L148.05215253829954,150.9938868763396L148.2223274262746,152.7173770154453L148.26873875935874,149.0294860169282L148.3306205368042,151.6858022597759L148.40797275861104,161.3325783111577L148.45438409169515,159.4759237029381L148.4853249804179,157.01620500401864L148.99584964434305,151.4984272550937L149.24337675412497,154.38440721916655L149.4599629751841,122.51221134469961L149.59919697443647,160.37163470971427L149.78484230677287,160.3086515148631L149.8776649729411,143.5728919430015L150.07878074963887,147.40159537000727L150.15613297144574,159.03054253934775L150.3108374150594,149.15770180644662L150.66665763537088,132.7764476456044L150.89871430079143,161.02845945601925L150.99153696695964,153.65672637865404L151.50206163088478,143.83202280181771L151.70317740758261,157.27196176311068L151.8114705181122,143.11154004071673L151.8424114068349,136.69242778547536L151.85788185119628,140.76519109252936L151.87335229555768,136.59030503382382L152.08993851661683,160.3979526875628L152.27558384895323,160.5254936571364L152.72422673543292,136.1577454491853L153.1419287331899,158.71202752538616L153.38945584297178,158.15597589084305L153.71433517456055,154.1981569143924L153.7916873963674,161.11483640895798L153.80715784072876,149.1151881499221L154.2867416159312,160.15254316762488L154.31768250465393,145.92081547106014L154.65803228060406,148.36568813119325L154.93650027910869,143.6007845007213L155.1685569445292,153.8378030638511L155.46249538739522,161.3404512105141L156.12772449493409,160.44474020373795L156.62277871449788,155.00794084819304L156.7620127137502,156.0665084016558L157.02501026789346,156.12116881718734L157.30347826639812,143.28451888657582L157.59741670926414,125.1613295081358L158.2162344837189,160.68182694435623L158.49470248222352,143.5449993852817L159.0516384792328,146.6109313346436L159.08257936795553,159.99238590071764L159.2063429228465,161.9479016308554L159.3455769220988,145.94825814881673L159.53122225443522,155.71987588999278L160.8307395807902,160.7724777569456L161.03185535748798,111.82981161797943L161.74349579811096,161.3321284311945L162.43966579437256,160.8239890127346L162.48607712745667,138.65053032540163L162.5170180161794,153.5062415309561L162.64078157107036,161.16972176447112L162.7800155703227,156.50806558555874L162.8264269034068,161.55639359286093L163.02754268010457,160.76797895731337L163.04301312446594,129.01905019276938L163.12036534627276,138.26048439728766L164.18782600720724,153.62838394097102L164.40441222826638,153.01137357141124L164.46629400571186,160.3804073689971L164.86852555910747,159.12974107123833L165.1624640019735,155.92187199347973L165.5956364440918,158.49406068320482L166.0906906636556,147.89308922982795L166.30727688471475,134.96488872670065L166.97250599225362,145.41492545241636L167.0343877696991,160.24161940034296L167.06532865842183,140.1178138254521L167.48303065617878,158.17757012907774L167.60679421106974,154.44986475381543L167.65320554415385,155.50775748733335L167.7305577659607,159.3522067130519L167.8233804321289,161.80900119221042L168.36484598477682,160.22744818150144L168.5195504283905,159.78634087756168L168.62784353892008,152.64359670147678L168.7825479825338,149.0357843364133L168.84442975997922,160.72389072091755L168.9063115374247,152.83637026571765L169.03007509231566,147.31566829703175L169.2776022020976,159.0213200001017L170.12847664197284,160.70634540235187L170.20582886377971,160.390304728188L170.28318108558656,146.94114322764895L171.56722796758018,161.82789615066577L171.66005063374837,155.83032142096394L171.70646196683248,161.1616239251331L172.41810240745545,161.0417309149343L172.60374773979188,139.51340009486253L173.14521329243976,160.45081358324146L173.20709506988524,138.59249581014592L173.28444729169212,155.51787978650586L173.3308586247762,154.11088020152724L173.65573795636496,160.48118048075898L174.15079217592876,154.04722218673123L174.30549661954242,161.99255221720523L174.69225772857666,145.21315428891103L175.125430170695,158.565141717394L175.6823661677043,160.5653080338816L175.80612972259522,161.66661418385047L176.17742038726809,156.7100616890457L176.19289083162943,129.35511052529665L176.2547726090749,148.6554108275086L176.42494749704997,161.25362437761214L176.5641814963023,161.1973893822093L176.6105928293864,160.97649832026704L177.12111749331157,156.05908538226262L177.18299927075705,162.00278698636853L177.30676282564798,158.86138767317607L177.50787860234578,160.6712547652205L177.97199193318684,162.05699752193686L178.15763726552328,128.84584640692873L178.29687126477558,157.01642994400027L178.4515757083893,159.59356731332082L178.66816192944844,161.99142751729718L178.85380726178485,161.92754456251956L179.24056837081912,161.79617961325857L179.25603881518046,158.62879973219L179.45715459187826,159.27730169917535L179.90579747835795,155.9988014671908L180.19973592122395,154.28430892734954L180.46273347536723,161.65784152456763L181.08155124982196,156.7878909226832L181.32907835960387,157.91866421024315L181.88601435661317,159.43790884604581L181.94789613405865,158.12043537374848L182.25730502128602,153.79933832699558L182.47389124234516,155.31633356298212L182.76782968521118,148.30922819580883L182.98441590627033,149.15162842694312L183.32476568222046,158.66973880884325L183.5413519032796,160.89776932670307L183.60323368072508,160.54393873562853L183.63417456944785,137.1452319684589L183.6960563468933,150.8506001080532L183.77340856870015,160.0056573596327L184.06734701156617,160.09383383242434L184.8872805627187,145.47340984763528L185.05745545069377,159.22354104357024L185.10386678377787,148.79149951638342L185.19668944994606,161.00484075795006L185.22763033866883,159.2604312005545L185.41327567100527,143.96113835126258L185.52156878153485,160.9378086434299L185.72268455823263,161.38273992705703L185.738155002594,154.91684015564047L185.90832989056906,162.01324669551346L185.93927077929177,161.97073303898893L186.17132744471232,161.69923048118412L186.26415011088054,161.99491408701215L186.54261810938516,154.56390932449236L186.6354407755534,160.1035062516336L187.00673144022625,138.01912379701875L187.03767232894896,159.8383020133139L187.25425855000813,161.71587603982334L187.30066988309227,161.65379260489863L187.56366743723552,161.298837313916L187.61007877031963,161.27386897595716L187.99683987935384,161.45697012098876L188.13607387860617,162.0238188746492L188.19795565605162,160.55451091476425L188.35266009966534,160.99111941907177L189.28088676134746,158.9497890859493L189.31182765007017,161.94655199096573L189.4974729824066,160.90069354646403L189.63670698165896,161.88143186628926L190.5030518658956,160.68430128415397L190.6422858651479,161.44819746170592L190.65775630950927,149.3248322127838L191.70974652608234,160.5612591142126L191.75615785916645,161.71970001951073L192.05009630203247,159.21971706388285L192.35950518925986,141.39907196071L192.56062096595764,161.97376972874068L192.62250274340312,160.74391037928095L192.66891407648723,158.51025636188083L192.69985496520994,161.69270722171737L193.24132051785787,160.6989223829587L193.3341431840261,160.16986354620894L193.36508407274883,161.8524146086614L193.47337718327842,159.30721871672964L193.7209042930603,159.02559385975232L193.8291974035899,160.1293743495189L193.93749051411945,158.0549778390996L194.23142895698547,161.60228134910963L194.40160384496053,160.95063022238173L194.43254473368327,158.14450395178088L195.25247828483583,162.02528098452967L195.50000539461772,161.52085307576635L196.04147094726562,159.2086950047839L196.14976405779518,156.25298364641154L196.31993894577025,158.1705969896478L196.62934783299764,161.19199082265064L196.70670005480446,161.7811086344906L197.00063849767048,161.99626372690182L197.01610894203188,160.87010170896488L197.51116316159568,162.10679361036605L197.52663360595704,151.5285692126296L197.8979242706299,154.81606704387863L198.16092182477314,153.55685302681863L198.23827404658,161.0853692713669L198.51674204508464,159.84864925246802L198.56315337816875,129.24781415406807L198.7797395992279,159.60998793197845L198.96538493156433,161.80135323283562L199.80078892707826,161.86861028733742L199.89361159324645,160.86605278929588L199.98643425941466,161.41333176455615L200.0328455924988,161.69630626142316L200.18755003611247,161.72577339901423L200.5588407007853,160.29897909565383L200.60525203386942,118.99932365187607L201.1157766977946,161.90167646463428L201.4715969181061,161.96151049974287L201.5025378068288,161.70935278035662L201.61083091735838,161.5397480342217L202.16776691436766,159.42148822738818L202.3688826910655,161.6031811090361L202.8020551331838,161.6769614230046L203.31257979710898,157.86040475500582L204.22533601442973,160.2146266025496L204.81321290016174,159.58389489411152L204.8905651219686,162.0081855459272L204.95244689941407,160.89866908662952L205.06074000994363,161.1335064274317L205.07621045430503,161.6931571016806L205.0916808986664,160.50862315851555L205.19997400919598,160.08776045292083L205.3856193415324,161.4441485420369L205.7723804505666,161.03700717532047L206.53043222427368,159.0334667591087L206.76248888969423,149.01553973806827L206.8707820002238,161.88593066592148L207.35036577542624,160.99494339875915L207.67524510701497,161.86748558742934L207.75259732882182,161.90280116454232L207.78353821754456,159.52316109907648L207.87636088371278,161.53749863440558L208.12388799349466,160.2800841371985L208.6034717686971,161.9918773972604L208.64988310178123,162.12422645894094L208.92835110028585,161.87310908696963L208.9438215446472,161.65739164460442L209.05211465517678,149.26657275754647L209.08305554389955,161.97568171858438L209.14493732134503,162.11064570755116L209.16040776570637,160.17188800604345L209.33058265368143,160.42517042533777L209.3460530980428,161.14002968689843L209.48528709729513,159.62033517113255L209.59358020782471,161.4126569446113L209.60905065218606,160.62266772919247L209.732814207077,158.36741947355767L210.2433388710022,161.97073303898893L210.50633642514546,161.61600268798793L211.4345630868276,160.79519669508832L211.49644486427306,160.04277245659856L211.80585375150045,160.657083546379L211.91414686203004,157.94340760822038L212.00696952819823,161.709127840375L212.02243997255962,160.46116082239556L212.5329646364848,143.1688997360276L212.8733144124349,160.14984388784555L212.9661370786031,154.42017267624274L212.99707796732582,160.63571424812594L213.0280188560486,160.4397915241425L213.4611912981669,160.7850743959158L214.29659529368084,161.91652250342062L214.93088351249696,161.50218305729263L215.07011751174926,145.03995050307034L215.3485855102539,160.83388637192547L215.73534661928812,160.8464830108957L215.87458061854045,152.62785090276398L215.96740328470867,160.62649170887985L216.09116683959962,153.8735685209273L216.44698705991107,159.14458711002467L216.694514169693,161.48674655105455L216.86468905766804,158.3962117912039L217.1431570561727,158.99387732234513L217.91667927424112,162.11247334490176L218.28796993891396,161.5937336298084L218.39626304944355,161.7806587545274L218.42720393816631,162.05221754732761L219.169785267512,161.9723076188602L219.30901926676432,160.05491921560557L219.38637148857117,162.03641551361943L219.58748726526898,161.13957980693522L219.60295770963035,160.91936356493775L219.66483948707582,161.75838969634788L219.7731325976054,161.84004290967277L219.8659552637736,160.91104078561816L220.0206597073873,160.5077233985891L220.20630503972373,161.99907547667195L220.2681868171692,156.14523739521974L220.37647992769877,153.70058967506824L220.763241036733,137.25297821965069L221.04170903523763,161.72352399919814L221.18094303448993,160.37478386945682L221.28923614501952,142.27678776895723L221.45941103299458,161.59845736942225L221.7069381427765,160.07561369391382L221.81523125330608,160.40132678728696L222.41857858339947,161.5098310166674L222.77439880371094,153.19627423629572L222.944573691686,161.69473168155187L223.1302190240224,161.27431885592037L223.85732990900675,160.8840479878248L223.99656390825908,159.99643482038664L224.27503190676373,161.34112603045892L224.29050235112507,151.55331261060687L224.36785457293192,157.58057941788138L224.38332501729332,158.74396900277497L224.67726346015928,161.77211103522617L224.77008612632753,158.89760301021548L224.9402610143026,161.75748993642142L225.40437434514362,161.278592715571L225.45078567822773,161.53502429460787L225.5126674556732,161.91359828365967L225.99225123087567,161.97928075829017L226.10054434140525,160.50322459895688L226.33260100682577,161.1933404625403L226.48730545043946,153.82903040456827L226.93594833691915,162.0219068848055L227.2608276685079,161.8087762522288L227.36912077903747,161.37059316805002L227.43100255648295,161.81215035195297L227.5547661113739,160.64853582707778L228.14264299710592,161.90707502419295L228.39017010688784,161.9158476834758L228.57581543922424,160.23757048067395L228.97804699261982,160.74211085942807L229.0553992144267,161.04420525473202L229.59686476707458,161.3087346731069L230.3858574295044,157.15139393296704L230.55603231747946,160.99651797863044L230.80355942726135,161.06220045326094L230.91185253779094,159.47637358290135L231.0201456483205,162.0738680205577L231.22126142501833,161.33730205077154L231.34502497990925,160.41392342625718L231.70084520022075,160.81769069324946L231.963842754364,162.08331549978539L232.18042897542315,161.66458972401597L232.2732516415914,161.20211312182315L232.28872208595274,161.31368335270236L232.4588969739278,161.78403285425156L232.6136014175415,161.87895752649152L232.84565808296202,161.8866054858663L232.8611285273234,145.83263899826852L233.09318519274393,160.5315670366399L233.24788963635763,161.967808819228L233.52635763486225,152.54912190920004L233.78935518900556,156.6304329355553L234.145175409317,161.29793755398956L234.2534685198466,160.69577322321615L234.37723207473755,161.97703135847405L234.47005474090577,161.286690554909L234.7485227394104,148.0575203563858L234.77946362813316,161.8386932697831L235.75410162289936,161.79550479331374L236.0016287326813,161.89110428549853L236.032569621404,159.5672493354723L236.8834440612793,161.5356991145527L236.96079628308613,160.96457650124162L237.06908939361574,161.35552218928206L237.08455983797708,161.60610532879704L237.31661650339763,161.26037257706048L237.67243672370913,161.80922613219204L237.8735525004069,161.91292346371483L238.27578405380248,161.20548722154732L238.29125449816388,158.08466991667228L238.7244269402822,159.2824753187524L239.49794915835062,161.94508988108524L239.65265360196432,162.0735306105853L239.91565115610757,160.3300208131162L239.93112160046894,159.41339038805017L240.13223737716675,154.4930532302848L240.27147137641907,161.37126798799486L240.31788270950318,156.05008778299816L240.34882359822592,158.13573129249804L240.36429404258726,161.70777820048534L240.41070537567137,160.09383383242434L240.87481870651246,159.21611802417706L241.5555182584127,160.32619683342878L241.6019295914968,161.82879591059222L242.03510203361512,157.97692366548048L242.3445109208425,125.5817423337673L242.56109714190166,160.55810995447004L242.74674247423806,162.00683590603754L242.85503558476765,161.97275749882343L242.87050602912902,161.44707276179784L243.14897402763367,157.7738028620855L243.27273758252463,161.6312986067375L243.30367847124734,160.12172639014412L243.61308735847473,161.1672474246734L243.99984846750897,159.38437313042232L244.3711391321818,157.63006621383587L244.51037313143414,160.9177889850665L244.61866624196372,162.0162833852652L244.63413668632506,162.02066971490663L244.8197820186615,161.8900358205859L244.83525246302287,161.9923272772236L245.05183868408204,161.10988772936253L245.2065431276957,159.238162142375L245.42312934875488,162.02516851453888L245.68612690289817,161.692932161699L245.94912445704142,162.00897283586286L246.02647667884824,154.4991266097883L246.1192993450165,160.94928058249207L246.86188067436217,141.81633562659894L247.0165851179759,161.95678676012903L247.0939373397827,157.98637114470816L247.32599400520326,159.07395595579874L247.37240533828734,158.66006638963395L247.38787578264873,134.74737176448252L247.48069844881692,139.2535944161015L247.60446200370788,153.4011945595436L247.650873336792,155.42497957410038L247.72822555859884,161.7689618754836L248.26969111124674,158.6706385687697L249.72391288121543,161.23023061952458L249.84767643610638,161.9025762245607L250.40461243311566,147.0992760347217L250.7294917647044,161.39308716621113L251.0234302075704,161.67831106289427L251.1162528737386,160.84580819095086L251.2554868729909,155.17529619451184L251.70412975947062,158.35054897493683L251.719600203832,159.50719036038208L251.8588342030843,149.83229681129887L252.04447953542072,159.13738903061312L252.0754204241435,159.8616957714015L252.1063613128662,159.72358262269213L252.16824309031168,161.91697238338384L252.52406331062318,161.9922148072328L252.97270619710287,156.16165801387737L253.32852641741434,159.82143151469305L253.37493775049845,138.6916943420365L253.4987013053894,161.53322477475498L253.62246486028036,161.7367954581132L253.83905108133953,153.5786722050349L253.8545215257009,159.04628833806055L253.93187374750772,158.10873849470468L254.11751907984416,134.4880159656847L254.13298952420553,156.429786471958L254.36504618962604,157.5227698426073L254.96839351971946,153.34765884392013L255.03027529716493,159.52473567894776L255.15403885205586,159.74607662085327L255.4325068505605,161.76783717557555L255.57174084981284,161.41040754479522L255.66456351598103,143.09759376185684L255.75738618214925,153.70058967506824L255.95850195884705,134.17197529152085L256.36073351224263,155.38449037741034L256.45355617841085,156.40031933436694L256.71655373255413,160.91306524545266L256.7784355099996,155.01558880756784L257.84589617093405,148.23747234167482L258.38736172358193,155.8159252621408L258.5111252784729,158.15327661106372L258.99070905367535,150.28195183453985L259.09900216420493,161.85556376840395L259.145413497289,161.63669716629616L259.1608839416504,161.41603104433548L259.5476450506846,160.8023947744999L259.62499727249144,159.1729295477077L259.67140860557555,160.35521409105664L259.87252438227335,158.9637353648092L259.9653470484416,148.41674950701903L260.13552193641664,152.11746208448798L260.3830490461985,159.33758561424716L260.6305761559804,132.3283672022347L260.73886926651,160.17998584538145L260.8316919326782,150.97206769812328L260.90904415448506,143.97598439004892L260.9399850432078,157.81339229884907L261.0482781537374,142.1481220994756L261.2493939304352,159.28787387831107L261.3731574853261,162.04310747807236L261.5588028176626,161.90527550434004L262.1312092590332,160.83366143194385L262.99755414326984,161.84409182934178" fill="none"></path></g></g></g></g></g></g><g transform="translate(51, 176)" clip-path="url(#clip_1)"><clipPath id="clip_1"><rect width="278" height="23"></rect></clipPath><g><g><line x1="0" y1="0" x2="0" y2="5" style="visibility: inherit;" fill="rgb(0, 0, 0)" stroke="rgb(204, 204, 204)" stroke-width="1px"></line><line x1="30.94088872273763" y1="0" x2="30.94088872273763" y2="5" style="visibility: inherit;" fill="rgb(0, 0, 0)" stroke="rgb(204, 204, 204)" stroke-width="1px"></line><line x1="61.88177744547526" y1="0" x2="61.88177744547526" y2="5" style="visibility: inherit;" fill="rgb(0, 0, 0)" stroke="rgb(204, 204, 204)" stroke-width="1px"></line><line x1="92.82266616821289" y1="0" x2="92.82266616821289" y2="5" style="visibility: inherit;" fill="rgb(0, 0, 0)" stroke="rgb(204, 204, 204)" stroke-width="1px"></line><line x1="123.76355489095052" y1="0" x2="123.76355489095052" y2="5" style="visibility: inherit;" fill="rgb(0, 0, 0)" stroke="rgb(204, 204, 204)" stroke-width="1px"></line><line x1="154.70444361368817" y1="0" x2="154.70444361368817" y2="5" style="visibility: inherit;" fill="rgb(0, 0, 0)" stroke="rgb(204, 204, 204)" stroke-width="1px"></line><line x1="185.64533233642578" y1="0" x2="185.64533233642578" y2="5" style="visibility: inherit;" fill="rgb(0, 0, 0)" stroke="rgb(204, 204, 204)" stroke-width="1px"></line><line x1="216.58622105916342" y1="0" x2="216.58622105916342" y2="5" style="visibility: inherit;" fill="rgb(0, 0, 0)" stroke="rgb(204, 204, 204)" stroke-width="1px"></line><line x1="247.52710978190103" y1="0" x2="247.52710978190103" y2="5" style="visibility: inherit;" fill="rgb(0, 0, 0)" stroke="rgb(204, 204, 204)" stroke-width="1px"></line><line x1="278.4679985046387" y1="0" x2="278.4679985046387" y2="5" style="visibility: inherit;" fill="rgb(0, 0, 0)" stroke="rgb(204, 204, 204)" stroke-width="1px"></line></g><g transform="translate(0, 8)"><text style="text-anchor: middle; visibility: hidden; font-family: Roboto, sans-serif; font-size: 12px; font-weight: 200;" x="0" y="0" dx="0em" dy="0.95em" fill="rgb(33, 33, 33)" stroke="none" stroke-width="1px">-2k</text><text style="text-anchor: middle; visibility: inherit; font-family: Roboto, sans-serif; font-size: 12px; font-weight: 200;" x="30.94088872273763" y="0" dx="0em" dy="0.95em" fill="rgb(33, 33, 33)" stroke="none" stroke-width="1px">0</text><text style="text-anchor: middle; visibility: inherit; font-family: Roboto, sans-serif; font-size: 12px; font-weight: 200;" x="61.88177744547526" y="0" dx="0em" dy="0.95em" fill="rgb(33, 33, 33)" stroke="none" stroke-width="1px">2k</text><text style="text-anchor: middle; visibility: inherit; font-family: Roboto, sans-serif; font-size: 12px; font-weight: 200;" x="92.82266616821289" y="0" dx="0em" dy="0.95em" fill="rgb(33, 33, 33)" stroke="none" stroke-width="1px">4k</text><text style="text-anchor: middle; visibility: inherit; font-family: Roboto, sans-serif; font-size: 12px; font-weight: 200;" x="123.76355489095052" y="0" dx="0em" dy="0.95em" fill="rgb(33, 33, 33)" stroke="none" stroke-width="1px">6k</text><text style="text-anchor: middle; visibility: inherit; font-family: Roboto, sans-serif; font-size: 12px; font-weight: 200;" x="154.70444361368817" y="0" dx="0em" dy="0.95em" fill="rgb(33, 33, 33)" stroke="none" stroke-width="1px">8k</text><text style="text-anchor: middle; visibility: inherit; font-family: Roboto, sans-serif; font-size: 12px; font-weight: 200;" x="185.64533233642578" y="0" dx="0em" dy="0.95em" fill="rgb(33, 33, 33)" stroke="none" stroke-width="1px">10k</text><text style="text-anchor: middle; visibility: inherit; font-family: Roboto, sans-serif; font-size: 12px; font-weight: 200;" x="216.58622105916342" y="0" dx="0em" dy="0.95em" fill="rgb(33, 33, 33)" stroke="none" stroke-width="1px">12k</text><text style="text-anchor: middle; visibility: inherit; font-family: Roboto, sans-serif; font-size: 12px; font-weight: 200;" x="247.52710978190103" y="0" dx="0em" dy="0.95em" fill="rgb(33, 33, 33)" stroke="none" stroke-width="1px">14k</text><text style="text-anchor: middle; visibility: hidden; font-family: Roboto, sans-serif; font-size: 12px; font-weight: 200;" x="278.4679985046387" y="0" dx="0em" dy="0.95em" fill="rgb(33, 33, 33)" stroke="none" stroke-width="1px">16k</text></g><line x1="0" y1="0" x2="278.4679985046387" y2="0" fill="rgb(0, 0, 0)" stroke="rgb(204, 204, 204)" stroke-width="1px"></line></g></g></g></g></svg>