<svg viewBox="0 0 330 200" xmlns="http://www.w3.org/2000/svg"><g><g><g><g><g><line x1="61.91500186920166" y1="176.89999961853027" x2="56.91500186920166" y2="176.89999961853027" style="visibility: inherit;" fill="rgb(0, 0, 0)" stroke="rgb(204, 204, 204)" stroke-width="1px"></line><line x1="61.91500186920166" y1="162.15833298365274" x2="56.91500186920166" y2="162.15833298365274" style="visibility: inherit;" fill="rgb(0, 0, 0)" stroke="rgb(204, 204, 204)" stroke-width="1px"></line><line x1="61.91500186920166" y1="147.4166663487752" x2="56.91500186920166" y2="147.4166663487752" style="visibility: inherit;" fill="rgb(0, 0, 0)" stroke="rgb(204, 204, 204)" stroke-width="1px"></line><line x1="61.91500186920166" y1="132.6749997138977" x2="56.91500186920166" y2="132.6749997138977" style="visibility: inherit;" fill="rgb(0, 0, 0)" stroke="rgb(204, 204, 204)" stroke-width="1px"></line><line x1="61.91500186920166" y1="117.93333307902017" x2="56.91500186920166" y2="117.93333307902017" style="visibility: inherit;" fill="rgb(0, 0, 0)" stroke="rgb(204, 204, 204)" stroke-width="1px"></line><line x1="61.91500186920166" y1="103.19166644414264" x2="56.91500186920166" y2="103.19166644414264" style="visibility: inherit;" fill="rgb(0, 0, 0)" stroke="rgb(204, 204, 204)" stroke-width="1px"></line><line x1="61.91500186920166" y1="88.44999980926512" x2="56.91500186920166" y2="88.44999980926512" style="visibility: inherit;" fill="rgb(0, 0, 0)" stroke="rgb(204, 204, 204)" stroke-width="1px"></line><line x1="61.91500186920166" y1="73.70833317438763" x2="56.91500186920166" y2="73.70833317438763" style="visibility: inherit;" fill="rgb(0, 0, 0)" stroke="rgb(204, 204, 204)" stroke-width="1px"></line><line x1="61.91500186920166" y1="58.96666653951008" x2="56.91500186920166" y2="58.96666653951008" style="visibility: inherit;" fill="rgb(0, 0, 0)" stroke="rgb(204, 204, 204)" stroke-width="1px"></line><line x1="61.91500186920166" y1="44.22499990463257" x2="56.91500186920166" y2="44.22499990463257" style="visibility: inherit;" fill="rgb(0, 0, 0)" stroke="rgb(204, 204, 204)" stroke-width="1px"></line><line x1="61.91500186920166" y1="29.483333269755057" x2="56.91500186920166" y2="29.483333269755057" style="visibility: inherit;" fill="rgb(0, 0, 0)" stroke="rgb(204, 204, 204)" stroke-width="1px"></line><line x1="61.91500186920166" y1="14.74166663487751" x2="56.91500186920166" y2="14.74166663487751" style="visibility: inherit;" fill="rgb(0, 0, 0)" stroke="rgb(204, 204, 204)" stroke-width="1px"></line><line x1="61.91500186920166" y1="0" x2="56.91500186920166" y2="0" style="visibility: inherit;" fill="rgb(0, 0, 0)" stroke="rgb(204, 204, 204)" stroke-width="1px"></line></g><g transform="translate(51.91500186920166, 0)"><text style="text-anchor: end; visibility: hidden; font-family: Roboto, sans-serif; font-size: 12px; font-weight: 200;" x="0" y="176.89999961853027" dx="0em" dy="0.3em" fill="rgb(33, 33, 33)" stroke="none" stroke-width="1px">-0.01</text><text style="text-anchor: end; visibility: inherit; font-family: Roboto, sans-serif; font-size: 12px; font-weight: 200;" x="0" y="162.15833298365274" dx="0em" dy="0.3em" fill="rgb(33, 33, 33)" stroke="none" stroke-width="1px">0</text><text style="text-anchor: end; visibility: hidden; font-family: Roboto, sans-serif; font-size: 12px; font-weight: 200;" x="0" y="147.4166663487752" dx="0em" dy="0.3em" fill="rgb(33, 33, 33)" stroke="none" stroke-width="1px">0.01</text><text style="text-anchor: end; visibility: inherit; font-family: Roboto, sans-serif; font-size: 12px; font-weight: 200;" x="0" y="132.6749997138977" dx="0em" dy="0.3em" fill="rgb(33, 33, 33)" stroke="none" stroke-width="1px">0.02</text><text style="text-anchor: end; visibility: hidden; font-family: Roboto, sans-serif; font-size: 12px; font-weight: 200;" x="0" y="117.93333307902017" dx="0em" dy="0.3em" fill="rgb(33, 33, 33)" stroke="none" stroke-width="1px">0.03</text><text style="text-anchor: end; visibility: inherit; font-family: Roboto, sans-serif; font-size: 12px; font-weight: 200;" x="0" y="103.19166644414264" dx="0em" dy="0.3em" fill="rgb(33, 33, 33)" stroke="none" stroke-width="1px">0.04</text><text style="text-anchor: end; visibility: hidden; font-family: Roboto, sans-serif; font-size: 12px; font-weight: 200;" x="0" y="88.44999980926512" dx="0em" dy="0.3em" fill="rgb(33, 33, 33)" stroke="none" stroke-width="1px">0.05</text><text style="text-anchor: end; visibility: inherit; font-family: Roboto, sans-serif; font-size: 12px; font-weight: 200;" x="0" y="73.70833317438763" dx="0em" dy="0.3em" fill="rgb(33, 33, 33)" stroke="none" stroke-width="1px">0.06</text><text style="text-anchor: end; visibility: hidden; font-family: Roboto, sans-serif; font-size: 12px; font-weight: 200;" x="0" y="58.96666653951008" dx="0em" dy="0.3em" fill="rgb(33, 33, 33)" stroke="none" stroke-width="1px">0.07</text><text style="text-anchor: end; visibility: inherit; font-family: Roboto, sans-serif; font-size: 12px; font-weight: 200;" x="0" y="44.22499990463257" dx="0em" dy="0.3em" fill="rgb(33, 33, 33)" stroke="none" stroke-width="1px">0.08</text><text style="text-anchor: end; visibility: hidden; font-family: Roboto, sans-serif; font-size: 12px; font-weight: 200;" x="0" y="29.483333269755057" dx="0em" dy="0.3em" fill="rgb(33, 33, 33)" stroke="none" stroke-width="1px">0.09</text><text style="text-anchor: end; visibility: inherit; font-family: Roboto, sans-serif; font-size: 12px; font-weight: 200;" x="0" y="14.74166663487751" dx="0em" dy="0.3em" fill="rgb(33, 33, 33)" stroke="none" stroke-width="1px">0.1</text><text style="text-anchor: end; visibility: hidden; font-family: Roboto, sans-serif; font-size: 12px; font-weight: 200;" x="0" y="0" dx="0em" dy="0.3em" fill="rgb(33, 33, 33)" stroke="none" stroke-width="1px">0.11</text></g><line x1="61.91500186920166" y1="0" x2="61.91500186920166" y2="176.89999961853027" fill="rgb(0, 0, 0)" stroke="rgb(204, 204, 204)" stroke-width="1px"></line></g></g><g transform="translate(61, 0)" clip-path="url(#clip_0)"><clipPath id="clip_0"><rect width="268" height="176"></rect></clipPath><g><g><g><line x1="0" y1="0" x2="0" y2="176.89999961853027" fill="rgb(0, 0, 0)" stroke="rgb(66, 66, 66)" stroke-width="1px" opacity="0.25"></line><line x1="29.787222014533146" y1="0" x2="29.787222014533146" y2="176.89999961853027" fill="rgb(0, 0, 0)" stroke="rgb(66, 66, 66)" stroke-width="1px" opacity="0.25"></line><line x1="59.57444402906629" y1="0" x2="59.57444402906629" y2="176.89999961853027" fill="rgb(0, 0, 0)" stroke="rgb(66, 66, 66)" stroke-width="1px" opacity="0.25"></line><line x1="89.36166604359944" y1="0" x2="89.36166604359944" y2="176.89999961853027" fill="rgb(0, 0, 0)" stroke="rgb(66, 66, 66)" stroke-width="1px" opacity="0.25"></line><line x1="119.14888805813258" y1="0" x2="119.14888805813258" y2="176.89999961853027" fill="rgb(0, 0, 0)" stroke="rgb(66, 66, 66)" stroke-width="1px" opacity="0.25"></line><line x1="148.93611007266574" y1="0" x2="148.93611007266574" y2="176.89999961853027" fill="rgb(0, 0, 0)" stroke="rgb(66, 66, 66)" stroke-width="1px" opacity="0.25"></line><line x1="178.72333208719888" y1="0" x2="178.72333208719888" y2="176.89999961853027" fill="rgb(0, 0, 0)" stroke="rgb(66, 66, 66)" stroke-width="1px" opacity="0.25"></line><line x1="208.51055410173205" y1="0" x2="208.51055410173205" y2="176.89999961853027" fill="rgb(0, 0, 0)" stroke="rgb(66, 66, 66)" stroke-width="1px" opacity="0.25"></line><line x1="238.29777611626517" y1="0" x2="238.29777611626517" y2="176.89999961853027" fill="rgb(0, 0, 0)" stroke="rgb(66, 66, 66)" stroke-width="1px" opacity="0.25"></line><line x1="268.08499813079834" y1="0" x2="268.08499813079834" y2="176.89999961853027" fill="rgb(0, 0, 0)" stroke="rgb(66, 66, 66)" stroke-width="1px" opacity="0.25"></line></g><g><line x1="0" y1="176.89999961853027" x2="268.08499813079834" y2="176.89999961853027" fill="rgb(0, 0, 0)" stroke="rgb(66, 66, 66)" stroke-width="1px" opacity="0.25"></line><line x1="0" y1="162.15833298365274" x2="268.08499813079834" y2="162.15833298365274" fill="rgb(0, 0, 0)" stroke="rgb(66, 66, 66)" stroke-width="1px" opacity="0.25"></line><line x1="0" y1="147.4166663487752" x2="268.08499813079834" y2="147.4166663487752" fill="rgb(0, 0, 0)" stroke="rgb(66, 66, 66)" stroke-width="1px" opacity="0.25"></line><line x1="0" y1="132.6749997138977" x2="268.08499813079834" y2="132.6749997138977" fill="rgb(0, 0, 0)" stroke="rgb(66, 66, 66)" stroke-width="1px" opacity="0.25"></line><line x1="0" y1="117.93333307902017" x2="268.08499813079834" y2="117.93333307902017" fill="rgb(0, 0, 0)" stroke="rgb(66, 66, 66)" stroke-width="1px" opacity="0.25"></line><line x1="0" y1="103.19166644414264" x2="268.08499813079834" y2="103.19166644414264" fill="rgb(0, 0, 0)" stroke="rgb(66, 66, 66)" stroke-width="1px" opacity="0.25"></line><line x1="0" y1="88.44999980926512" x2="268.08499813079834" y2="88.44999980926512" fill="rgb(0, 0, 0)" stroke="rgb(66, 66, 66)" stroke-width="1px" opacity="0.25"></line><line x1="0" y1="73.70833317438763" x2="268.08499813079834" y2="73.70833317438763" fill="rgb(0, 0, 0)" stroke="rgb(66, 66, 66)" stroke-width="1px" opacity="0.25"></line><line x1="0" y1="58.96666653951008" x2="268.08499813079834" y2="58.96666653951008" fill="rgb(0, 0, 0)" stroke="rgb(66, 66, 66)" stroke-width="1px" opacity="0.25"></line><line x1="0" y1="44.22499990463257" x2="268.08499813079834" y2="44.22499990463257" fill="rgb(0, 0, 0)" stroke="rgb(66, 66, 66)" stroke-width="1px" opacity="0.25"></line><line x1="0" y1="29.483333269755057" x2="268.08499813079834" y2="29.483333269755057" fill="rgb(0, 0, 0)" stroke="rgb(66, 66, 66)" stroke-width="1px" opacity="0.25"></line><line x1="0" y1="14.74166663487751" x2="268.08499813079834" y2="14.74166663487751" fill="rgb(0, 0, 0)" stroke="rgb(66, 66, 66)" stroke-width="1px" opacity="0.25"></line><line x1="0" y1="0" x2="268.08499813079834" y2="0" fill="rgb(0, 0, 0)" stroke="rgb(66, 66, 66)" stroke-width="1px" opacity="0.25"></line></g></g></g><g><g><line x1="0" y1="162.15833298365274" x2="268.08499813079834" y2="162.15833298365274" fill="rgb(0, 0, 0)" stroke="rgb(153, 153, 153)" stroke-width="1.5px"></line></g></g><g><g><line x1="29.787222014533146" y1="0" x2="29.787222014533146" y2="176.89999961853027" fill="rgb(0, 0, 0)" stroke="rgb(153, 153, 153)" stroke-width="1.5px"></line></g></g><g><g><g><g><g><path style="fill: none;" stroke="rgb(255, 112, 67)" stroke-width="2px" d="M29.802115625540413,161.86349965840333L30.293604788780215,155.78256208379932L30.323392010794745,153.62020040271057L30.546796175903744,150.6338180823003L30.695732285976412,147.8318064384233L31.574455335405137,138.99827995228117L31.663817001448738,133.24154956991055L32.080838109652206,126.53386642023838L32.92977393706639,115.79146161017859L32.98934838109546,108.94112129818406L33.34679504526986,102.01681775070166L33.52551837735706,96.46006115244076L33.62977365440793,92.30714492040222L34.04679476261139,86.51414743380992L34.076581984625925,82.80527845592417L34.31487976074219,78.69360645860647L34.53828392585118,74.45804708155806L34.86594336801105,69.32237350157443L34.94041142304738,65.6515993897859L35.059560311105514,62.505778526778826L35.26807086520725,58.96725514901202L35.342538920243584,56.254515180830154L35.40211336427265,54.15515779523956L35.41700697527992,52.77762247979501L35.61062391837438,50.417968186927204L35.69998558441797,48.294575507841635L35.729772806432514,46.7846757116586L35.74466641743978,45.76080581450177L36.47445335679584,39.367747661648075L36.4893469678031,35.41397892200338L36.802112798955704,30.565119924859623L36.86168724298477,27.184072369693602L36.92126168701384,24.683711455315557L36.980836131042906,22.711758045260677L37.0701977970865,20.82098722677178L37.09998501910104,19.450658488564287L37.1595594631301,18.156728720798856L37.6957294593917,16.791370793259095L37.8744527914789,15.972766716884497L37.93402723550796,15.481854693691181L38.1425377896097,15.188353099641798L38.30636751068963,15.013267009295976L38.544665286805895,14.909985878826308L38.87232472896576,14.85103104484897L39.69147333436542,14.826123125645946L39.78083500040902,14.812571068933913L39.914877499474414,14.80662772769719L40.01913277652529,14.804836639997756L41.00211110300488,14.823852818157842L41.210621657106614,14.840297314485918L41.29998332315021,14.852404625380771L41.508493877251944,14.865090416943225L42.0595574845208,14.88833346325908L42.10423831754261,14.903632445625453L42.9531741449568,14.940828285489337L43.02764219999313,14.965816951689277L43.32551442013847,14.991841875897999L43.34040803114573,15.008023573736303L43.682961084312865,15.031127944078614L43.742535528341925,15.047398127024673L43.77232275035646,15.058368410521636L43.89147163841459,15.069849175922508L43.96593969345093,15.079843739987213L44.54679052273432,15.111247273614692L44.94891801993052,15.148901757097017L45.00849246395959,15.174367703982762L45.038279685974125,15.191092687230437L45.187215796046786,15.208433833222383L45.24679024007585,15.221799644794263L45.291471073097654,15.232050958117416L45.32125829511218,15.239699881535694L45.70849218130112,15.264248265595679L45.79785384734472,15.283713337050726L45.90210912439558,15.300985125950946L46.259555788569976,15.331021660964032L46.31913023259905,15.352400108259978L46.42338550964991,15.371153817949903L46.497853564686245,15.386680782086312L46.542534397708046,15.398575862310446L46.64678967475891,15.411784532604829L46.70636411878798,15.423206848558072L47.13827883799871,15.456086496939854L47.376576614114974,15.490663839442508L47.46593828015857,15.517068891356482L47.52551272418764,15.536712178053605L47.77870411131117,15.564894165919013L47.83827855534023,15.585717841521351L47.97232105440563,15.607099812171834L48.09146994246377,15.627924907970977L48.13615077548557,15.643438203094329L48.791469659805294,15.698459080728226L48.8361504928271,15.734683152749138L48.89572493685616,15.760723087797217L48.98508660289976,15.782840433451462L49.08934187995063,15.803750892172584L49.178703545994225,15.822900386006092L49.90849048535029,15.890141808217253L50.07232020643022,15.943451463999708L50.35529881556828,15.998216823966345L50.47444770362642,16.040816116884447L50.489341314633684,16.06759704644173L50.817000756793554,16.1109263968694L50.84678797880809,16.139437008483068L51.51700047413509,16.214469814075198L51.695723806222276,16.275397850426856L51.75529825025135,16.317301390160143L51.78508547226588,16.345123462999766L51.85955352730221,16.368547332715835L52.03827685938941,16.39888344305819L52.231893802483874,16.434944113663004L52.24678741349114,16.457964424115897L52.306361857520216,16.477325422824652L52.52976602262921,16.509933491427628L52.91699990881814,16.566609036196233L53.18508490694894,16.62683832302299L53.393595461050666,16.683673009442682L53.5574251821306,16.734222557449804L53.63189323716693,16.772082503607272L53.70636129220327,16.802359442168008L54.361680176522995,16.88853480286973L54.42125462055207,16.94655327619655L54.451041842566596,16.98452757868404L54.58508434163199,17.021616937132123L55.18082878192266,17.108751678147012L55.22550961494446,17.165988231725798L55.285084058973524,17.206950955909964L55.329764891995325,17.236510659544386L55.44891378005346,17.267584719697176L56.13401988638772,17.36459789391351L56.17870071940952,17.428011928877055L56.35742405149672,17.48701667236078L56.37231766250399,17.52417246869835L56.41699849552578,17.551737977319902L57.13189182387458,17.65426849851L57.14678543488185,17.71761005521561L57.20635987891091,17.76292553864133L57.221253489918176,17.79194685940639L57.57870015409258,17.853693037694327L57.87657237423791,17.92826442402142L57.93614681826698,17.980577013401977L58.38295514848497,18.069403342803458L58.472316814528575,18.134328361759305L58.51699764755037,18.17911775390585L58.859550700717506,18.2511067929275L59.0829548658265,18.324095977185955L59.14252930985557,18.375885401149876L59.18721014287736,18.41296917066188L59.4404015300009,18.469505206128765L59.4850823630227,18.50951602300486L59.72338013913896,18.566195924131343L60.12550763633516,18.656109358283857L60.31912457942963,18.737313818109683L60.33401819043689,18.78814091297376L60.43827346748776,18.83341203626251L60.57231596655316,18.87966824851862L60.602103188567696,18.911679140758643L60.88508179770576,18.971590147384457L61.108485962814754,19.040003674487064L61.22763485087289,19.098489032682505L61.27231568389469,19.140139532610434L61.51061346001095,19.20031185156607L62.28508123238881,19.353054531451143L62.31486845440335,19.449256052681612L62.49359178649054,19.534422279191904L62.67231511857774,19.613151849948707L62.73188956260682,19.669642006490147L63.923378443188135,19.892894267356994L64.23614427434073,20.07790963571825L64.39997399542067,20.215894081092312L65.15954815679126,20.425767051209117L65.2786970448494,20.571922251547143L65.69571815305287,20.731077749501708L65.74039898607467,20.834285786706275L66.03827120621999,20.947938018081576L66.63401564651065,21.121099883872365L66.72337731255425,21.240918536420256L66.90210064464145,21.3447845948663L67.02124953269958,21.428521855136193L67.09571758773592,21.492190316450557L67.27444091982312,21.562744089031856L67.45316425191032,21.637609176092962L67.57231313996844,21.704319289048204L67.58720675097571,21.74707363277021L67.94465341515011,21.838600264087L68.1680575802591,21.935055452371877L68.28720646831725,22.015198502194146L68.64465313249164,22.130564232056155L68.80848285357158,22.230862291651455L68.98720618565878,22.32511601993552L69.13614229573143,22.410198730354875L69.2403975727823,22.481290860436772L69.35954646084045,22.546932192856808L69.97018451213837,22.70534187476613L70.1786950662401,22.841509524300026L70.74465228451623,23.036027180188267L70.8042267285453,23.164714070398407L71.6531625559595,23.41473898141276L72.15954533020656,23.66971566826894L72.20422616322834,23.83202878157329L72.39784310632281,23.969967353272164L72.42763032833736,24.05898663953006L73.02337476862802,24.23853594198872L73.17231087870067,24.37810419625175L73.26167254474429,24.481004587477692L73.42550226582422,24.577979561520323L73.60422559791141,24.674768991618144L73.63401281992594,24.739296494071088L73.75316170798406,24.803863519992113L74.15528920518027,24.930413802194433L74.587203924391,25.10162714185146L74.70635281244914,25.230816346998125L75.18294836468166,25.414925939887574L75.480820584827,25.592627661999757L75.62975669489965,25.733042412816957L75.67443752792147,25.827453102710923L76.07656502511767,25.976026160694843L76.35954363425573,26.13037183663938L76.89571363051732,26.347667164434792L76.95528807454639,26.49199327598734L77.16379862864812,26.62754853579147L77.17869223965539,26.7123875921686L77.22337307267719,26.77381751419684L77.31273473872078,26.831754803971805L77.50635168181525,26.912335519013048L77.53613890382978,26.967748469335252L77.59571334785885,27.015142855559606L77.86379834598965,27.10746771410263L77.95316001203325,27.184240714199564L78.16167056613499,27.2803448734482L78.26592584318585,27.363115415772942L78.32550028721492,27.427148418508605L78.42975556426579,27.49075974074686L78.63826611836751,27.57948530964418L78.9510319495201,27.70897179006158L79.54677638981077,27.93329203546587L79.59145722283257,28.078955447428353L79.71060611089071,28.195920800782503L79.72549972189796,28.269803614445348L79.93401027599971,28.366071592928403L80.39571221722497,28.5396193568808L80.5595419383049,28.685089523591355L80.67869082636304,28.802527639902472L80.82762693643569,28.910782183943443L81.28932887766096,29.093604339404138L81.30422248866823,29.207115461665335L81.40847776571908,29.301990871505588L81.7212435968717,29.43955622214559L81.81060526291529,29.545222074389L81.92975415097342,29.639524473052493L82.04890303903157,29.7270746999533L82.10847748306062,29.79511778677872L82.13826470507516,29.843702310895967L82.37656248119141,29.935111315979867L82.45103053622776,30.009472019778585L82.80847720040215,30.148128291792002L83.19571108659109,30.333911381379032L83.37443441867828,30.492978886708947L83.47868969572914,30.61625571263128L84.08932774702707,30.854331340862586L84.16379580206342,31.017311482170964L84.3425191341506,31.16354074346472L84.56592329925962,31.312042848789137L84.69996579832501,31.4377144324317L84.90847635242675,31.570182722874037L85.17656135055755,31.72334032783516L85.51911440372467,31.90987663073119L85.92124190092088,32.13361379278107L86.5318799522188,32.439109224448686L86.79996495034959,32.69814359952342L86.99358189344406,32.90847681890728L87.45528383466933,33.166323753447415L87.51485827869838,33.33809132723003L87.91698577589459,33.55672796712945L88.79570882532332,33.94306306263235L88.82549604733785,34.18357615086252L88.88507049136692,34.34532124573452L89.16804910050499,34.5254027880572L89.21272993352679,34.646596643626204L89.27230437755586,34.73685124615888L89.40634687662126,34.83052666538503L89.45102770964304,34.89992517404531L90.07655937194825,35.127205664456014L90.55315492418077,35.40619117907483L90.64251659022436,35.60043469815094L90.68719742324618,35.73042009482609L90.95528242137698,35.88924035200471L91.0297504764133,36.007044077909065L91.0744313094351,36.09124028578444L91.2978354745441,36.209477246379876L91.53613325066037,36.35289227306257L91.64038852771122,36.47072724155181L91.75953741576937,36.57781402201458L92.1467713019583,36.76074389738728L92.69783490922717,37.04052042316512L92.77230296426349,37.231460260183L93.3978346265687,37.540803734361276L93.41272823757596,37.731066779425035L93.50208990361956,37.873192729958156L93.71060045772128,38.02385905586988L93.84464295678669,38.15639116437885L94.15740878793927,38.334523765953904L94.27655767599742,38.47907638045983L94.63400434017181,38.679187365285294L94.91698294930988,38.889396896467716L95.00634461535347,39.044057481985064L95.21485516945522,39.20356259659207L95.3042168354988,39.32791036613959L96.376556828022,39.74882994565114L96.48081210507286,40.03529842496041L96.599960993131,40.24599923280998L96.67442904816733,40.396710599518336L96.73400349219641,40.506586819906474L97.1808118224144,40.718842160880136L97.56804570860334,40.97365989059105L97.74676904069052,41.18557970015452L97.94038598378499,41.37682630057478L98.14889653788673,41.56076527196747L98.32761986997392,41.73057080228747L98.58081125709745,41.91688130068696L99.38506625148986,42.29850331712088L99.69783208264245,42.63308848436316L99.75740652667152,42.85400070923222L99.92123624775145,43.04205374195986L100.20421485688951,43.25100347014509L100.35315096696219,43.427085850176155L100.41272541099124,43.55304138356602L100.81485290818743,43.76604336697462L101.32123568243452,44.06776885373907L101.61910790257983,44.35155602646032L101.79783123466704,44.583638498087005L101.82761845668158,44.73319919467322L102.0808098438051,44.91072810583858L102.31910761992137,45.100091023499594L102.49783095200857,45.275975851427795L102.85527761618296,45.50638797821014L103.07868178129196,45.722924911941874L103.2871923353937,45.92607558025704L103.55527733352449,46.14234411962454L103.58506455553902,46.28260537129288L103.59995816654629,46.37201657967685L103.67442622158264,46.451935591622004L103.77868149863349,46.53670334734186L103.95740483072069,46.65076686357576L104.19570260683696,46.80365412031866L104.34463871690963,46.94826494347913L104.56804288201862,47.114494121895L104.61272371504043,47.230148768658935L104.77655343612035,47.35795126483295L104.82123426914215,47.45057626240589L104.98506399022209,47.564679589758725L105.32761704338921,47.75581734996988L105.35740426540376,47.88118904858212L105.67017009655635,48.06880297809283L106.19144648181069,48.36942467511351L106.47442509094874,48.65226400565247L106.54889314598508,48.848977975205266L106.81697814411586,49.064398339600224L107.3382545293702,49.383694089185624L107.44250980642107,49.61338832175834L107.54676508347194,49.789356790995576L107.59144591649373,49.91129874151292L107.63612674951554,50.00082917415735L107.81485008160273,50.12008756354239L107.87442452563181,50.213508344995276L107.9637861916754,50.302383599074396L108.33612646685705,50.492755192662145L108.38080729987887,50.62345324512423L108.55953063196606,50.767833968865375L108.6786795200242,50.89849264716686L108.76804118606779,51.00994348738299L108.79782840808232,51.08783692928342L109.0361261841986,51.22285754384709L109.19995590527851,51.36467400136458L109.54250895844565,51.57716250061657L109.91484923362731,51.843542858735695L109.95953006664912,52.02006583786738L110.12335978772906,52.18724941018138L110.40633839686711,52.39358009334016L110.58506172895432,52.58446509540738L110.70421061701245,52.743773211737214L111.1212317252159,52.99640748627454L111.50846561140484,53.2942869062246L111.53825283341938,53.48428791742929L111.55314644442664,53.603925203769435L111.56804005543391,53.68134425519085L111.70208255449931,53.7785653428308L111.76165699852837,53.85947546739722L111.98506116363737,53.992791404347805L112.4169758828481,54.23707502027472L112.7297417140007,54.502951247265166L112.8637842130661,54.713694762866155L113.25101809925503,54.988385985498454L113.29569893227684,55.17033042588059L114.12974114868376,55.60031334552397L114.14463475969102,55.8640496109027L114.74037919998169,56.25263518333073L114.75527281098896,56.49155500717536L114.79995364401076,56.65222112936356L115.03825142012703,56.841065863087906L115.17229391919243,57.0064340076603L115.26165558523603,57.14039318414201L115.3659108622869,57.2613193937473L115.42548530631596,57.35706326839611L116.28931474473741,57.75173065116464L116.39357002178828,58.02936295951902L116.45314446581735,58.21928426098286L116.52761252085368,58.362426519162405L116.57229335387548,58.46583698318437L116.60208057589001,58.53956520322068L116.76591029696993,58.64810333779838L116.9595272400644,58.78930601662239L116.98931446207894,58.88574031905305L117.048888906108,58.967035077501954L117.30208029323154,59.11549724864085L117.39144195927514,59.2397961105542L117.40633557028241,59.32024934870642L117.71910140143501,59.49196149986594L118.18080334266027,59.77764269164545L118.56803722884919,60.102638844548075L118.61271806187099,60.31537691999565L118.76165417194366,60.502202704566656L118.77654778295093,60.6202204232626L118.82122861597273,60.708797798340264L119.95314305252498,61.213559563420695L121.8595252614551,62.28345756640445L121.94888692749872,62.96154492617707L122.17229109260771,63.4588302440228L122.35101442469491,63.829625958106455L122.87229080994923,64.26370073683682L122.96165247599284,64.56047428977708L123.03612053102917,64.76882623859645L123.17016303009457,64.9483809600698L123.1999502521091,65.06823946383754L123.55739691628351,65.28579441747345L124.54037524276309,65.81810007165409L125.09143885003195,66.36350860545068L125.4339919031991,66.83153012867334L125.49356634722815,67.13684919919736L125.67228967931536,67.39358986479603L125.82122578938802,67.60896994937545L126.01484273248249,67.81799018656889L126.07441717651156,67.96796999250155L126.16377884255515,68.0948137648451L126.65526800579495,68.37388442806524L127.75739522033268,68.99790226836008L128.278671605587,69.58893193217223L128.48718215968876,70.03031198098395L128.87441604587767,70.45644657989678L129.00845854494307,70.76801525928502L129.1276074330012,71.00465634078472L129.33611798710294,71.23366464507043L129.5595221522119,71.4643801797794L129.63399020724827,71.633927662514L129.78292631732091,71.79791883612734L130.21484103653165,72.07704315013018L130.34888353559705,72.30065827671585L130.43824520164065,72.4722675582003L130.94462797588773,72.7875927251604L130.959521586895,72.98303957521598L131.15313852998946,73.18159581044003L131.28718102905486,73.35703264404202L131.3169682510694,73.47481142403934L131.85313824733097,73.77093709001292L131.89781908035278,73.96741826286438L131.91271269136004,74.09157409321135L132.1510104674763,74.26640092794392L132.31484018855625,74.4403166989224L132.46377629862891,74.60743627844838L132.77654212978152,74.83960984389668L133.16377601597046,75.1423711020297L133.4467546251085,75.44358213912821L133.77441406726837,75.76284674791349L133.90845656633377,76.01111059800216L133.96803101036284,76.18527800208831L134.7424987827407,76.61781298881712L135.02547739187878,76.9973363856927L135.08505183590785,77.2503232215567L135.5020729441113,77.57911716778501L135.60632822116216,77.82066980768367L135.6361154431767,77.97825206890901L135.75526433123483,78.12341511818624L135.87441321929296,78.2611398203717L136.0382429403729,78.41340498872509L136.157391828431,78.55541951918981L136.3361151605182,78.7166311517633L136.38079599354,78.83236380240993L136.3956896045473,78.90813861649873L136.6488809916708,79.06133086470008L136.67866821368537,79.16592325106109L136.78292349073624,79.27305380561727L136.85739154577254,79.36903461700929L137.72122098419402,79.79466137864044L137.92973153829573,80.13895243206129L137.97441237131756,80.36458325884504L138.37653986851373,80.67153121120211L138.58505042261547,80.94470284623884L138.59994403362273,81.1149652144363L138.73398653268814,81.27435272657472L139.40419902801514,81.65629165420235L139.44887986103694,81.90455074574133L139.59781597110958,82.11716816948382L139.67228402614595,82.27657290315811L139.70207124816045,82.38494989447014L139.95526263528402,82.55823724212581L140.22334763341482,82.77687192767378L140.32760291046569,82.95265411973142L140.84887929572,83.28119404231606L141.25100679291617,83.65047396558225L141.37015568097434,83.92306199779296L142.48717650651932,84.56515705456137L142.53185733954112,84.96956254389295L142.69568706062103,85.28242269796266L142.74036789364285,85.48928944235456L142.7999423376719,85.6389458882693L142.87441039270826,85.76065970574776L142.91909122573006,85.85284084486442L142.9488784477446,85.92091882631398L143.44036761098437,86.17247550694266L143.67866538710064,86.4255858659514L143.88717594120237,86.66686352736762L144.02121844026777,86.8691106369012L144.19994177235498,87.06710544401176L144.28930343839858,87.22422559897332L144.48292038149305,87.40153437402924L144.55738843652938,87.53985716242849L144.70632454660205,87.68672807887891L145.04887759976916,87.92176894759807L145.27228176487816,88.15861262896514L145.3616434309218,88.33904650183965L145.85313259416156,88.65810458450362L146.04674953725603,88.932576116181L146.1510048143069,89.14197024989167L146.1807920363214,89.28038261813616L146.1956856473287,89.36981578641237L146.21057925833597,89.42986363138716L146.4190898124377,89.55531257110104L146.59781314452488,89.70722188628127L147.02972786373562,89.98356732802289L147.43185536093182,90.32177219752914L147.67015313704806,90.62684291303079L147.9829189682007,90.94393551262327L148.057387023237,91.16610223559034L148.0722806342443,91.30578582002063L148.53398257546954,91.58742014044427L148.5637697974841,91.76916124396L148.89142923964397,92.01855615318962L149.15951423777474,92.28299815984997L149.38291840288372,92.53731557633917L149.66589701202182,92.81103752433806L150.30632228533426,93.24928669163519L150.7829178375668,93.71603533004051L150.9169603366322,94.05338270136836L151.17015172375574,94.36399516336634L151.43823672188654,94.66489311674923L151.7212153310246,94.9662822119073L152.31695977131525,95.40137912536468L152.58504476944606,95.77678322854455L153.12121476570766,96.23057042313624L153.1510019877222,96.51553295740852L153.27015087578033,96.73726915136149L153.4041933748457,96.92740037146466L153.5829167069329,97.11757867171951L154.83398003154332,97.76367310174216L155.02759697463776,98.23354488369878L155.71270308097203,98.80610842188649L156.38291557629904,99.43353661768502L156.42759640932084,99.82890474904785L156.45738363133535,100.07873017488201L156.57653251939348,100.27904142176885L156.7105750184589,100.45592446800043L156.7552558514807,100.58095013286653L156.94887279457515,100.7378204002899L156.96376640558245,100.83823824421366L157.03823446061875,100.9299585811984L158.06589362012014,101.41867023524091L158.27440417422187,101.79974463786775L158.33397861825094,102.05347975278335L158.72121250443988,102.36869906446401L159.00419111357795,102.67681599369855L159.42121222178142,103.03685157188055L159.89780777401396,103.45278613076728L160.10631832811566,103.78971759684742L160.74674360142814,104.25985380302605L160.8063180454572,104.56683488895551L160.83610526747174,104.76347212328459L161.23823276466794,105.04937743218566L161.35738165272608,105.27063147479063L161.40206248574788,105.42202052929879L161.4765305407842,105.54390842020723L161.5658922068278,105.65429464252715L162.08716859208212,105.93760444157154L162.2361047021548,106.16953668312156L162.34035997920566,106.35203871142242L162.48929608927833,106.52342917685915L162.54887053330737,106.65101124745745L162.60844497733646,106.75229949443465L162.7275938653946,106.86253727178038L162.96589164151086,107.02754149944188L163.7850402469105,107.46568499190795L163.85950830194685,107.7593465672936L163.9339763569832,107.96631240239245L165.17014607058633,108.59983598095383L165.25950773662993,109.01666542938607L165.3041885696517,109.2851163557341L165.98929467598597,109.72714222060625L166.16801800807318,110.06550936382287L166.6892943933275,110.48154166163611L166.74886883735655,110.75547169243823L166.82333689239292,110.95020978851409L166.86801772541472,111.08527410267781L167.1807835565673,111.29376183954622L167.65737910879983,111.61269387480537L167.8063152188725,111.86453646953203L168.17865549405414,112.16665056246065L168.59567660225764,112.51671187160663L169.13184659851925,112.9432336192795L169.25099548657735,113.24717267196493L169.60844215075176,113.57342959474266L169.623335761759,113.77517409342744L169.6829102057881,113.92017338599265L169.846739926868,114.07300744638425L169.98078242593343,114.21852653056331L170.02546325895523,114.32376947589393L170.51695242219503,114.58386293773412L170.5765268662241,114.76375518417872L170.6956757542822,114.91933870725181L170.88929269737667,115.09004708664669L171.33610102759465,115.3706667559663L171.51482435968188,115.61018900681968L171.64886685874725,115.80721467064924L171.79780296881995,115.98461740160847L172.0063135229217,116.17383321906179L172.18503685500886,116.35822978713887L172.55737713019056,116.61626272628722L172.5722707411978,116.77697178753698L172.76588768429227,116.94990317818878L173.197802403503,117.22400023000247L173.48078101264105,117.49981034202678L173.7339723997646,117.76475656566134L174.32971684005526,118.15711271084083L174.56801461617152,118.48562716719307L175.10418461243313,118.89167520908L175.1637590564622,119.15847241298223L175.4616312766075,119.43425533670461L175.67014183070924,119.68057827358615L175.9531204398473,119.93791604941619L176.16163099394905,120.17289621428407L176.48929043610892,120.44026807201362L176.69780099021062,120.68096334756962L176.7573754342397,120.84829407685037L176.78716265625425,120.96014490303337L176.8467371002833,121.05015358593376L176.92120515531963,121.13276834958515L177.20418376445772,121.29091138747435L177.99354514784284,121.68747050205018L178.15737486892277,121.98779496383993L178.20205570194457,122.18499084196536L178.29141736798815,122.33729539418718L178.3212045900027,122.44000200838363L178.4999279220899,122.5695132587541L178.60418319914078,122.68677891189479L178.79780014223522,122.83052057942089L178.8126937532425,122.92240555457313L178.97652347432245,123.03953562209608L179.00631069633695,123.12107823512649L179.22971486144596,123.25440132797888L179.31907652748956,123.36811311579717L179.58716152562036,123.53735120064073L179.67652319166396,123.67251642809512L180.03396985583836,123.88786563269444L180.06375707785287,124.02824527075182L180.2722676319546,124.19058807522777L180.31694846497643,124.30471598066737L180.57013985209994,124.46783336551073L180.61482068512174,124.58238538059989L180.9871609603034,124.78988632586766L181.12120345936881,124.96423833778111L181.18077790339785,125.09098877934977L181.32971401347055,125.22233605754394L182.22333067390653,125.63146461376554L182.25311789592106,125.8879086699418L182.43184122800827,126.10751732796068L182.5658837270737,126.28852219228183L183.3999259434806,126.70219227255657L183.53396844254598,126.99921112942599L183.54886205355325,127.18284275023342L184.5616276020474,127.65987598725903L184.60630843506917,127.96220198362647L184.88928704420724,128.245441135133L185.1871592643526,128.52229482100802L185.38077620744704,128.75773533614282L185.4403506514761,128.9203063381108L185.4850314844979,129.03381989765396L185.51481870651244,129.11257204393547L186.03609509176678,129.3455921243304L186.12545675781038,129.5171549781749L186.15524397982492,129.63067080065193L186.25949925687578,129.73577677041064L186.49779703299205,129.88326094243484L186.6020523100429,130.00862271118982L186.70630758709376,130.1206725960919L186.98928619623183,130.2876833986613L187.15311591731177,130.44552635713183L187.1829031393263,130.5507015067489L187.97226452271144,130.89007858487156L188.2105622988277,131.1766635317016L188.73183868408202,131.52936387975006L188.8360939611329,131.77701292752832L188.99992368221282,131.98213939503043L189.29779590235816,132.20775407828202L189.3722639573945,132.36870651612202L189.65524256653256,132.5623042143512L189.67013617753983,132.6835613264266L190.14673172977237,132.9190203498044L190.16162534077964,133.06536570013537L190.519072004954,133.27461633692948L190.77226339207755,133.48589323514238L190.84673144711388,133.63782673119238L191.11481644524468,133.8194109440865L191.15949727826649,133.943405431433L191.36800783236822,134.08790475697725L191.54673116445542,134.23455722777376L192.3509861588478,134.59079403168215L192.4403478248914,134.83418359900588L192.529709490935,135.00983407086565L192.5743903239568,135.13002008880716L192.72332643402947,135.2513955325565L193.08077309820388,135.44209352286146L193.12545393122565,135.57121029963196L193.61694309446546,135.80983206941474L193.95949614763262,136.0647458244934L193.98928336964713,136.2273880242091L194.093538646698,136.3588736005445L194.6297086429596,136.61141246144706L194.82332558605407,136.82535113118695L195.24034669425754,137.08762391583386L195.73183585749734,137.40188212545613L196.61055890692603,137.86842135125832L197.1765161252022,138.32565426658064L197.2509841802385,138.62322170489085L197.31055862426757,138.82032850307792L197.41481390131844,138.97104522670045L197.4297075123257,139.06610805795617L197.444601123333,139.12777690628218L197.54885640038384,139.19717154964138L197.72757973247104,139.2942300104719L198.09992000765268,139.46748487351468L198.8297069470088,139.79512731314176L199.0531111121178,140.05972307282306L199.15736638916866,140.25014346705902L199.6190683303939,140.50404081659877L199.9318341615465,140.75043994451212L200.00630221658284,140.92061086513766L200.03608943859734,141.03163852635367L200.12545110464097,141.12500848281027L200.3637488807572,141.25219683187228L200.82545082198249,141.46566941144445L200.87013165500431,141.6069753223158L201.1382166531351,141.7709041331693L201.15311026414236,141.8736492869985L201.2573655411932,141.96598014783254L201.28715276320776,142.0301362763612L201.34672720723682,142.08613309579752L201.36162081824406,142.1241047763596L201.525450539324,142.19492751802545L201.5403441503313,142.24178267018797L201.6743866493967,142.3091009990031L201.77864192644756,142.37992808921425L201.7935355374548,142.42676827706782L201.91268442551294,142.48958816355332L202.40417358875274,142.6697918752006L202.65736497587628,142.85089493465057L203.5509816363123,143.21475820883296L203.61055608034133,143.44995710619094L203.90842830048666,143.6752317857241L204.01268357753753,143.839752469218L204.10204524358113,143.96358610616696L204.1169388545884,144.0420693152893L204.6084280178282,144.2266181084806L204.93608745998807,144.42835032470984L205.02544912603167,144.57411987234758L205.05523634804618,144.66981640323556L205.08502357006074,144.73546527988452L205.50204467826418,144.889639347711L206.3062996726566,145.20115493202633L206.91693772395453,145.5522600349641L207.0509802230199,145.79872293183723L207.3190652211507,146.01793728781104L207.69140549633238,146.2479595188318L207.82544799539778,146.4212636120788L207.91480966144138,146.5487241786077L208.03395854949952,146.65644279282645L208.37651160266662,146.810506275824L208.61480937878292,146.96481439313305L208.77863909986286,147.0997715637167L209.04672409799363,147.24979354386954L209.79140464835697,147.52971791296932L210.14885131253135,147.7878396381909L210.25310658958222,147.96888940468L210.28289381159678,148.08498852407027L210.99778713994556,148.3325548723716L211.13182963901096,148.5141623963249L211.2062976940473,148.6414582011905L211.39991463714176,148.7653646894529L211.41480824814903,148.84335671790313L211.4743826921781,148.90473294437697L211.57863796922896,148.96703192500505L211.66799963527257,149.02620127576074L211.8169357453452,149.09792832797928L211.99565907743244,149.1842841775464L212.0552335214615,149.25050076565026L212.15948879851237,149.31539258393607L212.531829073694,149.4437330800499L212.79991407182482,149.58466459558787L212.93395657089022,149.70104735011182L213.03821184794108,149.7955638363061L213.202041569021,149.8909539591379L213.4403393451373,150.0041995160999L213.54459462218816,150.09655909881852L214.12544545147153,150.28694158326584L214.46799850463867,150.47993603812515L214.6318282257186,150.63318417455622L214.8105515578058,150.7658276426389L215.51055127514732,151.00316990985962L215.64459377421275,151.17548690588154L215.91267877234355,151.33841260985818L215.9275723833508,151.4394641498458L216.00204043838713,151.51655863758037L216.0169340493944,151.5661045831993L216.29991265853246,151.6581006008269L216.38927432457606,151.73287254791367L216.553104045656,151.81351111321666L216.99991237587398,151.95872965139142L217.04459320889578,152.0554852509753L217.10416765292484,152.1263543135598L217.56586959415012,152.2675472995871L217.67012487120098,152.37438392843322L217.89352903630999,152.4856892533469L218.04246514638265,152.58379078262448L218.4743798655934,152.73279162004383L218.787145696746,152.88682996618593L218.89140097379683,153.0006802095463L218.9509754178259,153.0812077378157L219.07012430588406,153.1539002581069L219.63608152416018,153.31223818133768L219.87437930027644,153.45501734164878L220.05310263236362,153.5763116844347L220.44033651855256,153.72567332447045L220.51480457358892,153.82992293986408L221.03608095884323,153.99403893199843L221.79565512021384,154.23779416408368L221.95948484129377,154.4149606248799L222.19778261741,154.5659563393054L222.30203789446088,154.6760081108527L222.40629317151175,154.76143228423186L222.59991011460622,154.8485404420178L222.71905900266435,154.92276416880534L223.0616120558315,155.02998422424068L223.314803442955,155.1402230150283L223.52331399705673,155.243899853913L223.61267566310036,155.3221161812524L223.6275692741076,155.37171000072925L223.79139899518754,155.43068707239965L223.94033510526023,155.49250541075082L224.1637392703692,155.5690081391529L224.17863288137647,155.61752711982788L224.40203704648548,155.6857473664371L224.55097315655814,155.7525940171425L224.81905815468895,155.83902915463307L225.07224954181248,155.9342664198607L225.4148025949796,156.0495098536421L225.51905787203046,156.13620546108464L225.6382067600886,156.2082027240145L225.7275684261322,156.26633273614257L225.995653424263,156.3457298859592L226.02544064627753,156.39828928711682L226.9637381397353,156.58221750928647L227.2020359158516,156.73046661493007L227.23182313786612,156.8241294660779L228.0509717432658,157.00792556205081L228.1254397983021,157.12960947797944L228.229695075353,157.21853422140165L228.24458868636026,157.27415741363185L228.46799285146926,157.3414008319629L228.8105459046364,157.43311376198983L229.00416284773084,157.51687134212023L229.39139673391978,157.62392666786707L229.40629034492707,157.69032688764972L229.82331145313051,157.79031636051278L230.56799200349386,157.95517375765516L230.7169281135665,158.07466833708042L230.97011950069003,158.18105051687323L230.9850131116973,158.246908320982L231.17863005479177,158.31267428461422L231.31267255385717,158.37017780014907L231.35735338687897,158.41067094095038L231.3871406088935,158.4389542106155L231.40203421990077,158.4579158742659L231.44671505292254,158.4752601523394L231.89352338314058,158.54468833983458L232.5488422674603,158.67076364582118L232.5935231004821,158.75207145730715L233.01054420868556,158.8531335468831L233.3084164288309,158.95047607957383L233.51692698293263,159.03425956295834L233.6956503150198,159.1060750974802L233.79990559207067,159.16164430364768L233.81479920307794,159.19676335294747L234.08288420120874,159.24960261240108L234.20203308926688,159.29528686615518L234.2318203112814,159.32617929272013L234.52969253142675,159.37924023507009L234.90203280660842,159.45348356108804L235.2594794707828,159.53795489321766L235.39352196984822,159.60341118594104L235.4977772468991,159.65410055580784L235.51267085790633,159.68613965191756L235.69139418999353,159.72476397705867L235.7062878010008,159.74954661018933L235.91479835510253,159.78678799793127L236.0637344651752,159.82495187482155L236.27224501927694,159.86977155222763L236.52543640640047,159.92292830043894L236.778627793524,159.98069909667657L236.85309584856032,160.02289845045706L236.94245751460394,160.05721785866933L237.65735084295272,160.1480631584492L237.8062869530254,160.21681559898727L237.88075500806173,160.2651390670472L238.10415917317073,160.31514672134838L238.14884000619253,160.34931759120084L238.1637336171998,160.37120614923555L238.2530952832434,160.39262721854732L238.37224417130153,160.4164547455409L238.4169250043233,160.4348444994151L238.49139305935967,160.45267343656624L239.01266944461398,160.50998914325146L240.41266887929706,160.66136156747103L240.5318177673552,160.76158674165043L241.06798776361677,160.86295159842723L241.38075359476937,160.94700585566522L241.66373220390744,161.01794269705863L241.75309386995104,161.06687750643962L241.88713636901642,161.10570532563878L242.31905108822716,161.15875411899853L242.33394469923442,161.19158882208978L242.46798719829985,161.22027708356626L242.64671053038703,161.24930103699637L242.6764977524016,161.26866475617902L242.7062849744161,161.2822268431144L242.76585941844516,161.2942354683234L243.1084124716123,161.32327594666563L243.54032719082304,161.36719936206802L243.88288024399014,161.41375048929854L243.92756107701194,161.4442620924431L244.04670996507008,161.46939118577285L244.1658588531282,161.49120297467962L244.37436940722995,161.5158638375042L244.38926301823724,161.5314767648673L244.46373107327355,161.5449059414335L244.64245440536075,161.5625708483014L244.65734801636802,161.57396148944602L244.880752181477,161.59250640691263L245.46160301076043,161.63263373147907L245.5211774547895,161.65956629010287L245.6403263428476,161.6813721153673L245.9084113409784,161.70683784671164L246.0424538400438,161.72814119854505L246.1318155060874,161.74487719843626L246.221177172131,161.75882324174228L246.41479411522548,161.7754804239841L246.8020280014144,161.80135549912004L246.89138966745801,161.82041306227373L247.14458105458152,161.84158693915703L247.2041554986106,161.85652497943855L248.231814658112,161.90054553001775L248.7530910433663,161.94222888884826L248.87223993142447,161.97049190333206L249.33394187264972,161.99922000993024L249.43819714970058,162.01893091850806L249.48287798272239,162.0317970379415L249.49777159372965,162.03986047278295L249.87011186891132,162.0528433686671L249.94457992394766,162.0621583997886L249.98926075696946,162.06864600625346L250.1828777000639,162.07628866029995L250.27223936610753,162.08252625439675L250.43606908718746,162.08916818539828L250.6743668633037,162.0970719091881L250.91266463941997,162.10537863673565L251.01691991647084,162.11181078918068L251.10628158251444,162.1168573751958L251.18074963755078,162.12083669497048L251.2105368595653,162.12359515026301L251.31479213661618,162.12650466687526L251.50840907971065,162.130400201005L251.62755796776875,162.13394426865761L251.80628129985598,162.1377147908588L252.35734490712485,162.14379196139907L253.19138712353177,162.14960837030054" fill="none"></path></g></g></g></g><g opacity="0.2"><g><g><g><path style="fill: none;" stroke="rgb(255, 112, 67)" stroke-width="2px" d="M29.802115625540413,161.86349965840333L30.293604788780215,152.13399953903692L30.323392010794745,151.54433318886532L30.546796175903744,147.12183247349782L30.695732285976412,144.17350003617753L31.574455335405137,126.77833275241156L31.663817001448738,125.00933301543444L32.080838109652206,116.75399999425807L32.92977393706639,99.94850112005074L32.98934838109546,98.76916430093348L33.34679504526986,91.693165353025L33.52551837735706,88.15516587907075L33.62977365440793,86.09133056438962L34.04679476261139,77.83600028906267L34.076581984625925,77.24633462535341L34.31487976074219,72.52899833228193L34.53828392585118,68.10650036276381L34.86594336801105,61.62016707856456L34.94041142304738,60.14599742759269L35.059560311105514,57.7873347727557L35.26807086520725,53.65966414339344L35.342538920243584,52.18549449242157L35.40211336427265,51.00616316500306L35.41700697527992,50.711335824847225L35.61062391837438,46.87850351903836L35.69998558441797,45.10949554451307L35.729772806432514,44.51982988080384L35.74466641743978,44.22500254064798L36.47445335679584,29.778166321277613L36.4893469678031,29.48332799772422L36.802112798955704,23.291833037078387L36.86168724298477,22.112501709659885L36.92126168701384,20.9331703822414L36.980836131042906,19.753828071425364L37.0701977970865,17.984831080297628L37.09998501910104,17.395165416588394L37.1595594631301,16.215834089169892L37.6957294593917,14.743333914624042L37.8744527914789,14.744860606882042L37.93402723550796,14.7454866605418L38.1425377896097,14.748100709156223L38.30636751068963,14.750637873987873L38.544665286805895,14.75506418319635L38.87232472896576,14.762598793908513L39.69147333436542,14.788761246847873L39.78083500040902,14.792242983867936L39.914877499474414,14.797712715842664L40.01913277652529,14.802150008448674L41.00211110300488,14.852377085397322L41.210621657106614,14.86496405897772L41.29998332315021,14.870565591722922L41.508493877251944,14.8841191042868L42.0595574845208,14.923198032732746L42.10423831754261,14.926580919174953L42.9531741449568,14.996622045285076L43.02764219999313,15.003299950989149L43.32551442013847,15.03087926221112L43.34040803114573,15.03229612049373L43.682961084312865,15.065784499592024L43.742535528341925,15.07180340144372L43.77232275035646,15.07482383576712L43.89147163841459,15.087070324023795L43.96593969345093,15.09483558608429L44.54679052273432,15.158352574055883L44.94891801993052,15.205383482320503L45.00849246395959,15.21256662431141L45.038279685974125,15.21618016210195L45.187215796046786,15.234445552210321L45.24679024007585,15.241848362152027L45.291471073097654,15.247427928102145L45.32125829511218,15.251173266663159L45.70849218130112,15.301070841685618L45.79785384734472,15.312910944233334L45.90210912439558,15.326892809301256L46.259555788569976,15.376076463483653L46.31913023259905,15.384467779203906L46.42338550964991,15.39928438248485L46.497853564686245,15.409971228290889L46.542534397708046,15.416418482646648L46.64678967475891,15.4315975380464L46.70636411878798,15.440340322487927L47.13827883799871,15.505405969512605L47.376576614114974,15.542529853196488L47.46593828015857,15.556676469227522L47.52551272418764,15.566177108099282L47.77870411131117,15.60716714771712L47.83827855534023,15.616953354924917L47.97232105440563,15.63917276814755L48.09146994246377,15.659162551669652L48.13615077548557,15.666708145779367L48.791469659805294,15.780990397179043L48.8361504928271,15.789019260780506L48.89572493685616,15.799782990369334L48.98508660289976,15.816016451932871L49.08934187995063,15.835116580254265L49.178703545994225,15.851624626756305L49.90849048535029,15.991003941534004L50.07232020643022,16.02341594767341L50.35529881556828,16.0803648639163L50.47444770362642,16.104715056261625L50.489341314633684,16.107768440777644L50.817000756793554,16.17592042251094L50.84678797880809,16.182202925903606L51.51700047413509,16.327019022463414L51.695723806222276,16.366789904954356L51.75529825025135,16.380156699760054L51.78508547226588,16.38685657225923L51.85955352730221,16.403683137289907L52.03827685938941,16.444387608571727L52.231893802483874,16.489035119570257L52.24678741349114,16.492494889795235L52.306361857520216,16.506366920887768L52.52976602262921,16.55884559433203L52.91699990881814,16.651622353349154L53.18508490694894,16.717182253263115L53.393595461050666,16.76892503907223L53.5574251821306,16.810046879460543L53.63189323716693,16.828872422843435L53.70636129220327,16.847774850009117L54.361680176522995,17.017797843922338L54.42125462055207,17.033580986186763L54.451041842566596,17.041489032415285L54.58508434163199,17.07725097480426L55.18082878192266,17.239453789669284L55.22550961494446,17.25184306209397L55.285084058973524,17.26839504218616L55.329764891995325,17.280850214996082L55.44891378005346,17.31419580992635L56.13401988638772,17.51011765523798L56.17870071940952,17.523132981322423L56.35742405149672,17.57552378758638L56.37231766250399,17.579906163204686L56.41699849552578,17.593086240252223L57.13189182387458,17.808064280295095L57.14678543488185,17.81262239027403L57.20635987891091,17.830898763779953L57.221253489918176,17.83547884055397L57.57870015409258,17.946312305126202L57.87657237423791,18.040121503512044L57.93614681826698,18.05904589747281L58.38295514848497,18.20264283690572L58.472316814528575,18.231715890193072L58.51699764755037,18.246301842125686L58.859550700717506,18.35909035145998L59.0829548658265,18.43357975357363L59.14252930985557,18.45356953709573L59.18721014287736,18.468594824929923L59.4404015300009,18.554309259329063L59.4850823630227,18.569532248318968L59.72338013913896,18.651215775821075L60.12550763633516,18.790979509512667L60.31912457942963,18.85912050784843L60.33401819043689,18.86438155526991L60.43827346748776,18.901318721195633L60.57231596655316,18.949052566902783L60.602103188567696,18.95969547911867L60.88508179770576,19.061456657323202L61.108485962814754,19.142623965140942L61.22763485087289,19.18621706997567L61.27231568389469,19.202615282502318L61.51061346001095,19.29057032999954L62.28508123238881,19.582168551278752L62.31486845440335,19.59355833452732L62.49359178649054,19.6621716189573L62.67231511857774,19.731246206083924L62.73188956260682,19.75437724130235L63.923378443188135,20.227772658657244L64.23614427434073,20.35543268826017L64.39997399542067,20.422870749153404L65.15954815679126,20.740576506384272L65.2786970448494,20.791155052054194L65.69571815305287,20.96981099643355L65.74039898607467,20.989097842513107L66.03827120621999,21.118416365144526L66.63401564651065,21.380842682558512L66.72337731255425,21.420646515242073L66.90210064464145,21.50058368253538L67.02124953269958,21.554127745541L67.09571758773592,21.587693008422065L67.27444091982312,21.668574747903786L67.45316425191032,21.74990680668462L67.57231313996844,21.8043844584811L67.58720675097571,21.8112051483532L67.94465341515011,21.97589021106217L68.1680575802591,22.079738234799223L68.28720646831725,22.13541307692753L68.64465313249164,22.303612826849164L68.80848285357158,22.381309381044392L68.98720618565878,22.46649661236165L69.13614229573143,22.53782279598389L69.2403975727823,22.587929055559613L69.35954646084045,22.645394191486872L69.97018451213837,22.942956397630095L70.1786950662401,23.04576099860088L70.74465228451623,23.32780366402061L70.8042267285453,23.357744405713603L71.6531625559595,23.789776347934318L72.15954533020656,24.05218069855322L72.20422616322834,24.075498451529825L72.39784310632281,24.176875210820466L72.42763032833736,24.192515568916864L73.02337476862802,24.507859895676727L73.17231087870067,24.587456577646297L73.26167254474429,24.635355174316558L73.42550226582422,24.723442022584255L73.60422559791141,24.81995313676484L73.63401281992594,24.83608774775054L73.75316170798406,24.90071405887362L74.15528920518027,25.120239225497894L74.587203924391,25.35844715133703L74.70635281244914,25.42460015471813L75.18294836468166,25.69109032922177L75.480820584827,25.85918024516803L75.62975669489965,25.94366453904274L75.67443752792147,25.969069137551866L76.07656502511767,26.198885747670733L76.35954363425573,26.36189035055614L76.89571363051732,26.673610156127932L76.95528807454639,26.7084824433162L77.16379862864812,26.83088142549766L77.17869223965539,26.839646176734274L77.22337307267719,26.865962397239176L77.31273473872078,26.918660738634255L77.50635168181525,27.03320659157488L77.53613890382978,27.05086789481858L77.59571334785885,27.08623443489613L77.86379834598965,27.245955001917206L77.95316001203325,27.299400214344967L78.16167056613499,27.424501112321156L78.26592584318585,27.48727122926005L78.32550028721492,27.523197922612137L78.42975556426579,27.586176724104277L78.63826611836751,27.712573662990152L78.9510319495201,27.903201510687683L79.54677638981077,28.269772403572293L79.59145722283257,28.29745056537212L79.71060611089071,28.371368830813733L79.72549972189796,28.380627834939627L79.93401027599971,28.51047356065293L80.39571221722497,28.79994100280945L80.5595419383049,28.903294773657223L80.67869082636304,28.97868481436913L80.82762693643569,29.073164000004883L81.28932887766096,29.36783757259518L81.30422248866823,29.377382145057112L81.40847776571908,29.44430398626598L81.7212435968717,29.645904248105584L81.81060526291529,29.703720852754117L81.92975415097342,29.780978071047766L82.04890303903157,29.858400040304492L82.10847748306062,29.897182417016868L82.13826470507516,29.916579097071832L82.37656248119141,30.072224823605705L82.45103053622776,30.121013075476657L82.80847720040215,30.35611269981209L83.19571108659109,30.612586015759618L83.37443441867828,30.731580144703788L83.47868969572914,30.80117095151478L84.08932774702707,31.211444783209526L84.16379580206342,31.261781694133564L84.3425191341506,31.382884635405357L84.56592329925962,31.53479600677575L84.69996579832501,31.6262218078955L84.90847635242675,31.768885158537532L85.17656135055755,31.953076735276856L85.51911440372467,32.18968108507522L85.92124190092088,32.46921953585594L86.5318799522188,32.89735237195008L86.79996495034959,33.08669516213547L86.99358189344406,33.22397664798312L87.45528383466933,33.55309415525764L87.51485827869838,33.59574268790395L87.91698577589459,33.88468292697857L88.79570882532332,34.52256570588672L88.82549604733785,34.544345783207774L88.88507049136692,34.5879388880425L89.16804910050499,34.7955251015412L89.21272993352679,34.828387426979745L89.27230437755586,34.872233149957864L89.40634687662126,34.97103979422424L89.45102770964304,35.0040229370357L90.07655937194825,35.46812640007208L90.55315492418077,35.82466945100303L90.64251659022436,35.89179997676514L90.68719742324618,35.92539818983883L90.95528242137698,36.127470737772626L91.0297504764133,36.18374966676561L91.0744313094351,36.21753459759748L91.2978354745441,36.386832687273085L91.53613325066037,36.568014813086535L91.64038852771122,36.64747969428565L91.75953741576937,36.73844419270874L92.1467713019583,37.03513871044632L92.69783490922717,37.46018521183184L92.77230296426349,37.517870015709875L93.3978346265687,38.00481894562867L93.41272823757596,38.01646134702065L93.50208990361956,38.08638165575783L93.71060045772128,38.249858544737435L93.84464295678669,38.35518932714234L94.15740878793927,38.60172266831651L94.27655767599742,38.69590530221869L94.63400434017181,38.97935384252352L94.91698294930988,39.20471119324131L95.00634461535347,39.2760483602611L95.21485516945522,39.44282026850259L95.3042168354988,39.51443202046089L96.376556828022,40.380209314918474L96.48081210507286,40.46500114392428L96.599960993131,40.56205044458433L96.67442904816733,40.622777649580854L96.73400349219641,40.671401150488705L97.1808118224144,41.03722517234064L97.56804570860334,41.355886485157455L97.74676904069052,41.50345941449969L97.94038598378499,41.66369620120511L98.14889653788673,41.8366737290565L98.32761986997392,41.985279097767474L98.58081125709745,42.19634704828624L99.38506625148986,42.87093634177178L99.69783208264245,43.13496623522656L99.75740652667152,43.185369046535826L99.92123624775145,43.324133291051325L100.20421485688951,43.56442806242298L100.35315096696219,43.69120942022275L100.41272541099124,43.74197468365085L100.81485290818743,44.08554634208751L101.32123568243452,44.52035708388574L101.61910790257983,44.77723678554223L101.79783123466704,44.931762205527036L101.82761845668158,44.95754023955253L102.0808098438051,45.17702147258663L102.31910761992137,45.38413539999111L102.49783095200857,45.539803093320074L102.85527761618296,45.852006168383596L103.07868178129196,46.047730312539514L103.2871923353937,46.2308015827298L103.55527733352449,46.46674692867576L103.58506455553902,46.49299724879545L103.59995816654629,46.506133392252835L103.67442622158264,46.571814109539716L103.77868149863349,46.66385498092167L103.95740483072069,46.82186213792657L104.19570260683696,47.03298500543302L104.34463871690963,47.16518117821981L104.56804288201862,47.363837889518805L104.61272371504043,47.403630738804836L104.77655343612035,47.54965500909398L104.82123426914215,47.58951375876525L104.98506399022209,47.735834580787994L105.32761704338921,48.04252399028661L105.35740426540376,48.06924659650049L105.67017009655635,48.35022387235891L106.19144648181069,48.82035722064454L106.47442509094874,49.07652300146094L106.54889314598508,49.14404892953448L106.81697814411586,49.387528886192655L107.3382545293702,49.86263771356373L107.44250980642107,49.95792967061742L107.54676508347194,50.053309494851405L107.59144591649373,50.094211667288945L107.63612674951554,50.13512482312399L107.81485008160273,50.298975147619956L107.87442452563181,50.353639517174614L107.9637861916754,50.43569648019306L108.33612646685705,50.77831258304377L108.38080729987887,50.81950032381732L108.55953063196606,50.984405054477094L108.6786795200242,51.09448066461911L108.76804118606779,51.17711974770717L108.79782840808232,51.20467709213405L109.0361261841986,51.42538846569258L109.19995590527851,51.57739868764085L109.54250895844565,51.89589524949457L109.91484923362731,52.243113395914364L109.95953006664912,52.284850306564906L110.12335978772906,52.43802476865237L110.40633839686711,52.70307611807833L110.58506172895432,52.87079259850823L110.70421061701245,52.982735386231965L111.1212317252159,53.37535889808055L111.50846561140484,53.74110603614969L111.53825283341938,53.76928943423633L111.55314644442664,53.78338113327966L111.56804005543391,53.79747283232297L111.70208255449931,53.924396974290744L111.76165699852837,53.98084065424682L111.98506116363737,54.19276530977368L112.4169758828481,54.603500444165064L112.7297417140007,54.901765587750816L112.8637842130661,55.029810036267634L113.25101809925503,55.40042281944683L113.29569893227684,55.443247086453795L114.12974114868376,56.24528772498901L114.14463475969102,56.25965400897083L114.74037919998169,56.83551354197276L114.75527281098896,56.84993474294228L114.79995364401076,56.89322031264591L115.03825142012703,57.12433296367446L115.17229391919243,57.254486224518885L115.26165558523603,57.34133194886459L115.3659108622869,57.44270870815524L115.42548530631596,57.50067908036931L116.28931474473741,58.343731725317454L116.39357002178828,58.445811422050625L116.45314446581735,58.50416621317859L116.52761252085368,58.577139906431796L116.57229335387548,58.6209526792173L116.60208057589001,58.65015753327515L116.76591029696993,58.81091053966492L116.9595272400644,59.00111003485843L116.98931446207894,59.03039177269902L117.048888906108,59.08897721517532L117.30208029323154,59.338190505349175L117.39144195927514,59.42624440342425L117.40633557028241,59.44092920593472L117.71910140143501,59.74952972660523L118.18080334266027,60.206164479314694L118.56803722884919,60.59013307390205L118.61271806187099,60.63448403316701L118.76165417194366,60.78244138142314L118.77654778295093,60.79724700130653L118.82122861597273,60.84166386095673L119.95314305252498,61.97070221104133L121.8595252614551,63.88830457088004L121.94888692749872,63.97867596583599L122.17229109260771,64.20475822079139L122.35101442469491,64.38581952923192L122.87229080994923,64.91481290493236L122.96165247599284,65.00563461918742L123.03612053102917,65.08135416182552L123.17016303009457,65.21771304227981L123.1999502521091,65.24802721948915L123.55739691628351,65.61212684792734L124.54037524276309,66.61655855292504L125.09143885003195,67.18162140614555L125.4339919031991,67.5335624135074L125.49356634722815,67.59482780498335L125.67228967931536,67.77870086319405L125.82122578938802,67.93204007624458L126.01484273248249,68.13152054235904L126.07441717651156,68.19293970140056L126.16377884255515,68.2850794233604L126.65526800579495,68.79249042289547L127.75739522033268,69.93392902880228L128.278671605587,70.4754764278905L128.48718215968876,70.69238205420154L128.87441604587767,71.09564847826601L129.00845854494307,71.23536827836743L129.1276074330012,71.35961796303431L129.33611798710294,71.57717710149899L129.5595221522119,71.81045348184286L129.63399020724827,71.88824888661594L129.78292631732091,72.04390559654735L130.21484103653165,72.49572962113443L130.34888353559705,72.63608096659438L130.43824520164065,72.72968148042698L130.94462797588773,73.2605804756005L130.959521586895,73.2762098502994L131.15313852998946,73.47943016327609L131.28718102905486,73.62018789444501L131.3169682510694,73.65147959403538L131.85313824733097,74.21512558897328L131.89781908035278,74.26214002214158L131.91271269136004,74.27780783873185L132.1510104674763,74.52864118004277L132.31484018855625,74.70119035539011L132.46377629862891,74.85811564773735L132.77654212978152,75.18787019206916L133.16377601597046,75.59651298922927L133.4467546251085,75.895398694776L133.77441406726837,76.24174366109142L133.90845656633377,76.3835063731352L133.96803101036284,76.44652910821752L134.7424987827407,77.26661546891032L135.02547739187878,77.56662148100611L135.08505183590785,77.62980347535273L135.5020729441113,78.07230808712747L135.60632822116216,78.18299876753169L135.6361154431767,78.21462546074699L135.75526433123483,78.34115969210212L135.87441321929296,78.46772687364987L136.0382429403729,78.6418027412552L136.157391828431,78.76844131488694L136.3361151605182,78.9584486006235L136.38079599354,79.00596277837987L136.3956896045473,79.021800837632L136.6488809916708,79.29111923700209L136.67866821368537,79.32281183060265L136.78292349073624,79.43374963745151L136.85739154577254,79.51300583409737L137.72122098419402,80.43310152108712L137.92973153829573,80.6553890121926L137.97441237131756,80.70302949902067L138.37653986851373,81.13195313973766L138.58505042261547,81.35446029879394L138.59994403362273,81.37035876673254L138.73398653268814,81.5134339947823L139.40419902801514,82.22920004564385L139.44887986103694,82.27693938304978L139.59781597110958,82.43609430509755L139.67228402614595,82.51568000366959L139.70207124816045,82.54751538143817L139.95526263528402,82.81816826360934L140.22334763341482,83.10482395599573L140.32760291046569,83.21632740781789L140.84887929572,83.77400392619299L141.25100679291617,84.20439385048152L141.37015568097434,84.33194404610906L142.48717650651932,85.52829963971395L142.53185733954112,85.57617077789035L142.69568706062103,85.75171292906722L142.74036789364285,85.7995895589424L142.7999423376719,85.86343055714141L142.87441039270826,85.94323043196546L142.91909122573006,85.99111255353942L142.9488784477446,86.0230357984883L143.44036761098437,86.54981052788571L143.67866538710064,86.80525140446453L143.88717594120237,87.02878001949198L144.02121844026777,87.17248130120151L144.19994177235498,87.36409765467761L144.28930343839858,87.45990583141567L144.48292038149305,87.66749753661313L144.55738843652938,87.74734134502735L144.70632454660205,87.90703445355457L145.04887759976916,88.2743302506768L145.27228176487816,88.51387815101577L145.3616434309218,88.60969731115136L145.85313259416156,89.13669170849957L146.04674953725603,89.34428341369703L146.1510048143069,89.4560614504577L146.1807920363214,89.48800117050288L146.1956856473287,89.50396553882672L146.21057925833597,89.51993539884933L146.4190898124377,89.74348598067185L146.59781314452488,89.93508585905164L147.02972786373562,90.39808549063528L147.43185536093182,90.8290795017885L147.67015313704806,91.08444898628328L147.9829189682007,91.41957441201198L148.057387023237,91.49935232004097L148.0722806342443,91.51531119666603L148.53398257546954,92.00987162107975L148.5637697974841,92.04177289923356L148.89142923964397,92.39264851703408L149.15951423777474,92.6796611698405L149.38291840288372,92.91879170107296L149.66589701202182,93.22162044633642L150.30632228533426,93.90666044258091L150.7829178375668,94.4161582876485L150.9169603366322,94.55940375836016L151.17015172375574,94.82991385636329L151.43823672188654,95.11624004682349L151.7212153310246,95.41836585464442L152.31695977131525,96.0540244955508L152.58504476944606,96.33988938331431L153.12121476570766,96.9112512150238L153.1510019877222,96.94297675881697L153.27015087578033,97.0698734422909L153.4041933748457,97.21259720161942L153.5829167069329,97.40284612210182L154.83398003154332,98.73281474677611L155.02759697463776,98.9383525566337L155.71270308097203,99.66495372916808L156.38291557629904,100.37467891138283L156.42759640932084,100.4219569460921L156.45738363133535,100.45346831363327L156.57653251939348,100.57950829209908L156.7105750184589,100.7212490373478L156.7552558514807,100.76848863016569L156.94887279457515,100.973125801425L156.96376640558245,100.98886501009926L157.03823446061875,101.06753908667552L158.06589362012014,102.15173771630465L158.27440417422187,102.37135624180799L158.33397861825094,102.43408242515673L158.72121250443988,102.841528031985L159.00419111357795,103.13899138755038L159.42121222178142,103.57690493915354L159.89780777401396,104.07668796909736L160.10631832811566,104.29511479596766L160.74674360142814,104.96505811229395L160.8063180454572,105.0273065178497L160.83610526747174,105.05842797477818L161.23823276466794,105.47823539553731L161.35738165272608,105.60251253869805L161.40206248574788,105.64910411106109L161.4765305407842,105.72674025656984L161.5658922068278,105.81987397600699L162.08716859208212,106.36256914013809L162.2361047021548,106.51743504544665L162.34035997920566,106.6257917538737L162.48929608927833,106.78051487501425L162.54887053330737,106.84238435335487L162.60844497733646,106.90423186490044L162.7275938653946,107.02789393779895L162.96589164151086,107.27504784093412L163.7850402469105,108.12290023060707L163.85950830194685,108.19983893037207L163.9339763569832,108.27676115504075L165.17014607058633,109.55012134879587L165.25950773662993,109.64190960203443L165.3041885696517,109.68779274525616L165.98929467598597,110.39018101791446L166.16801800807318,110.5730600786478L166.6892943933275,111.10559010835598L166.74886883735655,111.16636673864144L166.82333689239292,111.24231693262786L166.86801772541472,111.28787057392341L167.1807835565673,111.60649344484884L167.65737910879983,112.09109192769414L167.8063152188725,112.242300361622L168.17865549405414,112.6198217018536L168.59567660225764,113.04180383532557L169.13184659851925,113.58301624078881L169.25099548657735,113.7030812509931L169.60844215075176,114.06281497890929L169.623335761759,114.07779084145456L169.6829102057881,114.13767232484052L169.846739926868,114.30225853697164L169.98078242593343,114.43680515683192L170.02546325895523,114.48163389388985L170.51695242219503,114.97400313049442L170.5765268662241,115.03359355384559L170.6956757542822,115.15271399186148L170.88929269737667,115.346109655739L171.33610102759465,115.79159625994573L171.51482435968188,115.96947238309977L171.64886685874725,116.1027531663936L171.79780296881995,116.25072149804728L172.0063135229217,116.45765694524177L172.18503685500886,116.6348246392545L172.55737713019056,117.00331213500978L172.5722707411978,117.01803537941163L172.76588768429227,117.20930026416647L173.197802403503,117.63514580772298L173.48078101264105,117.91352551006325L173.7339723997646,118.16217590111319L174.32971684005526,118.7456469286101L174.56801461617152,118.97839885172144L175.10418461243313,119.5007472719104L175.1637590564622,119.55866821883554L175.4616312766075,119.8479297222882L175.67014183070924,120.05006267890847L175.9531204398473,120.3239227131612L176.16163099394905,120.52536646158589L176.48929043610892,120.84132585860796L176.69780099021062,121.0420062609036L176.7573754342397,121.09929017077147L176.78716265625425,121.12792114230786L176.8467371002833,121.18516661028433L176.92120515531963,121.25669049506229L177.20418376445772,121.52812594430816L177.99354514784284,122.28230917391389L178.15737486892277,122.43828165652457L178.20205570194457,122.48078465915347L178.29141736798815,122.56575222251993L178.3212045900027,122.59406192967829L178.4999279220899,122.7637801343098L178.60418319914078,122.86267739160584L178.79780014223522,123.04613308071002L178.8126937532425,123.0602330173015L178.97652347432245,123.21523072338053L179.00631069633695,123.2433921546721L179.22971486144596,123.45438596725747L179.31907652748956,123.53868079752462L179.58716152562036,123.79120832790603L179.67652319166396,123.8752642692767L180.03396985583836,124.21088943959344L180.06375707785287,124.2388147278379L180.2722676319546,124.43410228194163L180.31694846497643,124.47590783882679L180.57013985209994,124.71250944277575L180.61482068512174,124.75421340323368L180.9871609603034,125.1011377437693L181.12120345936881,125.22576635565129L181.18077790339785,125.28111444170278L181.32971401347055,125.41935697483514L182.22333067390653,126.24515744809794L182.25311789592106,126.27257475420619L182.43184122800827,126.43693031498897L182.5658837270737,126.56002948876359L183.3999259434806,127.32269739296866L183.53396844254598,127.44473941473008L183.54886205355325,127.45829018144458L184.5616276020474,128.3754258427974L184.60630843506917,128.41569097817762L184.88928704420724,128.67029986239282L185.1871592643526,128.93757534982055L185.38077620744704,129.11089610884503L185.4403506514761,129.16416284106276L185.4850314844979,129.20409023696865L185.51481870651244,129.23070026335776L186.03609509176678,129.69512224492277L186.12545675781038,129.77449925894157L186.15524397982492,129.80094453436757L186.25949925687578,129.89343572504868L186.49779703299205,130.1044872004711L186.6020523100429,130.1966653643223L186.70630758709376,130.28874742344507L186.98928619623183,130.5381996025154L187.15311591731177,130.68229079483757L187.1829031393263,130.70846423117447L187.97226452271144,131.39914420205557L188.2105622988277,131.6065409519467L188.73183868408202,132.05841440182272L188.8360939611329,132.14848649919568L188.99992368221282,132.2898290962836L189.29779590235816,132.5461761031594L189.3722639573945,132.61013517288197L189.65524256653256,132.85270076169496L189.67013617753983,132.8654469945397L190.14673172977237,133.27220888487113L190.16162534077964,133.28488372563186L190.519072004954,133.5884922921206L190.77226339207755,133.8028085824617L190.84673144711388,133.8657269752674L191.11481644524468,134.09178726342773L191.15949727826649,134.12939716245276L191.36800783236822,134.3046537452936L191.54673116445542,134.45453593396854L192.3509861588478,135.12514923754475L192.4403478248914,135.19926794999145L192.529709490935,135.27330977865535L192.5743903239568,135.3102991157194L192.72332643402947,135.4334586981805L193.08077309820388,135.72814050831894L193.12545393122565,135.7648854647877L193.61694309446546,136.1677647240889L193.95949614763262,136.44711645711143L193.98928336964713,136.47135132378259L194.093538646698,136.55610196504762L194.6297086429596,136.99022075280087L194.82332558605407,137.14625913579678L195.24034669425754,137.4810330928042L195.73183585749734,137.8732694398895L196.61055890692603,138.56823018996164L197.1765161252022,139.01150363956415L197.2509841802385,139.0695728623561L197.31055862426757,139.1159887003585L197.41481390131844,139.19712031213425L197.4297075123257,139.20870230483976L197.444601123333,139.22028017877122L197.54885640038384,139.30126351468016L197.72757973247104,139.4398177017177L198.09992000765268,139.72736716807887L198.8297069470088,140.28659097258236L199.0531111121178,140.45661671234498L199.15736638916866,140.53577405841298L199.6190683303939,140.8848868409084L199.9318341615465,141.1200386363821L200.00630221658284,141.17586724607597L200.03608943859734,141.1981800181777L200.12545110464097,141.26506341749518L200.3637488807572,141.4429793554653L200.82545082198249,141.78587828080265L200.87013165500431,141.81893418862282L201.1382166531351,142.01679734944958L201.15311026414236,142.02776701774226L201.2573655411932,142.10447643908364L201.28715276320776,142.12637046915415L201.34672720723682,142.17012832495197L201.36162081824406,142.18106229720266L201.525450539324,142.30116163052426L201.5403441503313,142.3120653984317L201.6743866493967,142.41007849222584L201.77864192644756,142.4861687245309L201.7935355374548,142.4970285588482L201.91268442551294,142.5838179932815L202.40417358875274,142.94009744267152L202.65736497587628,143.1225495238255L203.5509816363123,143.7605531201066L203.61055608034133,143.80275545222787L203.90842830048666,144.01314380502387L204.01268357753753,144.08653349445888L204.10204524358113,144.1493365615904L204.1169388545884,144.15979412897278L204.6084280178282,144.50344129826752L204.93608745998807,144.73094864905372L205.02544912603167,144.79277419380418L205.05523634804618,144.8133611995675L205.08502357006074,144.83393859485798L205.50204467826418,145.12090044945077L206.3062996726566,145.66842830849927L206.91693772395453,146.0789176893707L207.0509802230199,146.16841727714697L207.3190652211507,146.34675882177174L207.69140549633238,146.592992865363L207.82544799539778,146.6812197519493L207.91480966144138,146.739915028401L208.03395854949952,146.81802071415458L208.37651160266662,147.04160150032035L208.61480937878292,147.19627656909665L208.77863909986286,147.30220731959213L209.04672409799363,147.4748265140988L209.79140464835697,147.94960446661898L210.14885131253135,148.17502222602326L210.25310658958222,148.24046405441365L210.28289381159678,148.2591372031557L210.99778713994556,148.70390439482358L211.13182963901096,148.78657368225487L211.2062976940473,148.8324019084889L211.39991463714176,148.95122442184652L211.41480824814903,148.9603447605785L211.4743826921781,148.99679728408776L211.57863796922896,149.06048039594714L211.66799963527257,149.11495530189424L211.8169357453452,149.20551890630713L211.99565907743244,149.3138179518971L212.0552335214615,149.34982564780603L212.15948879851237,149.41273031136478L212.531829073694,149.63624382422063L212.79991407182482,149.79606186889484L212.93395657089022,149.87562148189772L213.03821184794108,149.9373385655975L213.202041569021,150.03403914338566L213.4403393451373,150.17406785154287L213.54459462218816,150.23509847289642L214.12544545147153,150.57251530993685L214.46799850463867,150.7694277204141L214.6318282257186,150.86305637920285L214.8105515578058,150.9647928447629L215.51055127514732,151.35918331069067L215.64459377421275,151.43396239991444L215.91267877234355,151.58280116582313L215.9275723833508,151.59104145982724L216.00204043838713,151.63220036918224L216.0169340493944,151.64042350162768L216.29991265853246,151.79609462726836L216.38927432457606,151.84503046854374L216.553104045656,151.93446896117118L216.99991237587398,152.17655745865355L217.04459320889578,152.2006186503511L217.10416765292484,152.2326579074365L217.56586959415012,152.47933677862807L217.67012487120098,152.53463887170236L217.89352903630999,152.65264724071736L218.04246514638265,152.73094307654085L218.4743798655934,152.95629287617285L218.787145696746,153.1178874853991L218.89140097379683,153.17145557458684L218.9509754178259,153.2019990302198L219.07012430588406,153.26293903854366L219.63608152416018,153.54974506618387L219.87437930027644,153.66918608211543L220.05310263236362,153.75825319861355L220.44033651855256,153.94971578452407L220.51480457358892,153.98629736295447L221.03608095884323,154.24021292019995L221.79565512021384,154.6034270122115L221.95948484129377,154.68071031607434L222.19778261741,154.7924499109436L222.30203789446088,154.84108576817368L222.40629317151175,154.8895685443006L222.59991011460622,154.97920267869668L222.71905900266435,155.0340997589867L223.0616120558315,155.19081430739365L223.314803442955,155.30558120120978L223.52331399705673,155.39941511224006L223.61267566310036,155.43944067226147L223.6275692741076,155.44610072994453L223.79139899518754,155.5191526799052L223.94033510526023,155.5852329182776L224.1637392703692,155.68376223175608L224.17863288137647,155.69030559084032L224.40203704648548,155.7880777363509L224.55097315655814,155.85286399320069L224.81905815468895,155.96868186086886L225.07224954181248,156.07712231770216L225.4148025949796,156.2223750043142L225.51905787203046,156.2662488722485L225.6382067600886,156.3161986184093L225.7275684261322,156.3535277543347L225.995653424263,156.4648256106842L226.02544064627753,156.47712838885323L226.9637381397353,156.85810984254098L227.2020359158516,156.95284027339545L227.23182313786612,156.9646237427996L228.0509717432658,157.2836197060102L228.1254397983021,157.31213535187243L228.229695075353,157.35192133653499L228.24458868636026,157.35759220197716L228.46799285146926,157.44226595945943L228.8105459046364,157.57068315703023L229.00416284773084,157.64250771231585L229.39139673391978,157.7845096564873L229.40629034492707,157.7899272173237L229.82331145313051,157.9403005698074L230.56799200349386,158.2024598533687L230.7169281135665,158.25391020621834L230.97011950069003,158.34062378656242L230.9850131116973,158.34569502714515L231.17863005479177,158.41132323006258L231.31267255385717,158.45643307345128L231.35735338687897,158.4714106521524L231.3871406088935,158.48137911511313L231.40203421990077,158.48635836974145L231.44671505292254,158.50127656944966L231.89352338314058,158.64883062107737L232.5488422674603,158.85987660480106L232.5935231004821,158.8740331745361L233.01054420868556,159.004726681247L233.3084164288309,159.09648987860993L233.51692698293263,159.15993478803514L233.6956503150198,159.21379839926294L233.79990559207067,159.2449981128989L233.81479920307794,159.2494419268972L234.08288420120874,159.32886150158146L234.20203308926688,159.3638132467863L234.2318203112814,159.37251793256763L234.52969253142675,159.458831648595L234.90203280660842,159.56484855011496L235.2594794707828,159.66466189141207L235.39352196984822,159.70159562502607L235.4977772468991,159.73013461060808L235.51267085790633,159.73419829608213L235.69139418999353,159.7827004647703L235.7062878010008,159.7867205598854L235.91479835510253,159.84265007954414L236.0637344651752,159.88219769015697L236.27224501927694,159.93700106833674L236.52543640640047,160.00266342275586L236.778627793524,160.06735529103304L236.85309584856032,160.0861974811278L236.94245751460394,160.10869697098772L237.65735084295272,160.284331108119L237.8062869530254,160.31994425979443L237.88075500806173,160.33762426913705L238.10415917317073,160.3901582028002L238.14884000619253,160.4005738959795L238.1637336171998,160.40403898628765L238.2530952832434,160.42475882251497L238.37224417130153,160.45219603603127L238.4169250043233,160.46242913022644L238.49139305935967,160.47941684229292L239.01266944461398,160.5959627032793L240.41266887929706,160.88842020380037L240.5318177673552,160.91192450291956L241.06798776361677,161.0149988835924L241.38075359476937,161.07308724152224L241.66373220390744,161.12434795914874L241.75309386995104,161.1402797205111L241.88713636901642,161.16394705443753L242.31905108822716,161.23832730903814L242.33394469923442,161.24084087672665L242.46798719829985,161.26330947578094L242.64671053038703,161.2928369671415L242.6764977524016,161.29771033495297L242.7062849744161,161.30256997351748L242.76585941844516,161.31224840613692L243.1084124716123,161.36683666417895L243.54032719082304,161.4330844851716L243.88288024399014,161.48357718014435L243.92756107701194,161.49002949715992L244.04670996507008,161.5070848257675L244.1658588531282,161.52392065803983L244.37436940722995,161.55285513174107L244.38926301823724,161.55489615591196L244.46373107327355,161.5650497062828L244.64245440536075,161.58906820860318L244.65734801636802,161.59104745116295L244.880752181477,161.62032378311258L245.46160301076043,161.69282471832872L245.5211774547895,161.69996512803857L245.6403263428476,161.714080853264L245.9084113409784,161.7450364437281L246.0424538400438,161.7600962262952L246.1318155060874,161.76998119827306L246.221177172131,161.7797423067013L246.41479411522548,161.80046619734685L246.8020280014144,161.84016811182394L246.89138966745801,161.84899940700424L247.14458105458152,161.873347754482L247.2041554986106,161.87893203986076L248.231814658112,161.9665763558866L248.7530910433663,162.00475392709401L248.87223993142447,162.0128864250578L249.33394187264972,162.04231216982748L249.43819714970058,162.04849728137478L249.48287798272239,162.0510962170916L249.49777159372965,162.0519556250452L249.87011186891132,162.07231771249334L249.94457992394766,162.0761309464708L249.98926075696946,162.07837741595077L250.1828777000639,162.08775264136966L250.27223936610753,162.09188264554197L250.43606908718746,162.09913108190057L250.6743668633037,162.1089274948728L250.91266463941997,162.11783872805702L251.01691991647084,162.12145901784828L251.10628158251444,162.12442725421843L251.18074963755078,162.1268056746325L251.2105368595653,162.12773283320186L251.31479213661618,162.13086894179358L251.50840907971065,162.1362435021996L251.62755796776875,162.13926037013658L251.80628129985598,162.14337057416057L252.35734490712485,162.15290771720947L253.19138712353177,162.15833298365274" fill="none"></path></g></g></g></g></g></g><g transform="translate(61, 176)" clip-path="url(#clip_1)"><clipPath id="clip_1"><rect width="268" height="23"></rect></clipPath><g><g><line x1="0" y1="0" x2="0" y2="5" style="visibility: inherit;" fill="rgb(0, 0, 0)" stroke="rgb(204, 204, 204)" stroke-width="1px"></line><line x1="29.787222014533146" y1="0" x2="29.787222014533146" y2="5" style="visibility: inherit;" fill="rgb(0, 0, 0)" stroke="rgb(204, 204, 204)" stroke-width="1px"></line><line x1="59.57444402906629" y1="0" x2="59.57444402906629" y2="5" style="visibility: inherit;" fill="rgb(0, 0, 0)" stroke="rgb(204, 204, 204)" stroke-width="1px"></line><line x1="89.36166604359944" y1="0" x2="89.36166604359944" y2="5" style="visibility: inherit;" fill="rgb(0, 0, 0)" stroke="rgb(204, 204, 204)" stroke-width="1px"></line><line x1="119.14888805813258" y1="0" x2="119.14888805813258" y2="5" style="visibility: inherit;" fill="rgb(0, 0, 0)" stroke="rgb(204, 204, 204)" stroke-width="1px"></line><line x1="148.93611007266574" y1="0" x2="148.93611007266574" y2="5" style="visibility: inherit;" fill="rgb(0, 0, 0)" stroke="rgb(204, 204, 204)" stroke-width="1px"></line><line x1="178.72333208719888" y1="0" x2="178.72333208719888" y2="5" style="visibility: inherit;" fill="rgb(0, 0, 0)" stroke="rgb(204, 204, 204)" stroke-width="1px"></line><line x1="208.51055410173205" y1="0" x2="208.51055410173205" y2="5" style="visibility: inherit;" fill="rgb(0, 0, 0)" stroke="rgb(204, 204, 204)" stroke-width="1px"></line><line x1="238.29777611626517" y1="0" x2="238.29777611626517" y2="5" style="visibility: inherit;" fill="rgb(0, 0, 0)" stroke="rgb(204, 204, 204)" stroke-width="1px"></line><line x1="268.08499813079834" y1="0" x2="268.08499813079834" y2="5" style="visibility: inherit;" fill="rgb(0, 0, 0)" stroke="rgb(204, 204, 204)" stroke-width="1px"></line></g><g transform="translate(0, 8)"><text style="text-anchor: middle; visibility: hidden; font-family: Roboto, sans-serif; font-size: 12px; font-weight: 200;" x="0" y="0" dx="0em" dy="0.95em" fill="rgb(33, 33, 33)" stroke="none" stroke-width="1px">-2k</text><text style="text-anchor: middle; visibility: inherit; font-family: Roboto, sans-serif; font-size: 12px; font-weight: 200;" x="29.787222014533146" y="0" dx="0em" dy="0.95em" fill="rgb(33, 33, 33)" stroke="none" stroke-width="1px">0</text><text style="text-anchor: middle; visibility: inherit; font-family: Roboto, sans-serif; font-size: 12px; font-weight: 200;" x="59.57444402906629" y="0" dx="0em" dy="0.95em" fill="rgb(33, 33, 33)" stroke="none" stroke-width="1px">2k</text><text style="text-anchor: middle; visibility: inherit; font-family: Roboto, sans-serif; font-size: 12px; font-weight: 200;" x="89.36166604359944" y="0" dx="0em" dy="0.95em" fill="rgb(33, 33, 33)" stroke="none" stroke-width="1px">4k</text><text style="text-anchor: middle; visibility: inherit; font-family: Roboto, sans-serif; font-size: 12px; font-weight: 200;" x="119.14888805813258" y="0" dx="0em" dy="0.95em" fill="rgb(33, 33, 33)" stroke="none" stroke-width="1px">6k</text><text style="text-anchor: middle; visibility: inherit; font-family: Roboto, sans-serif; font-size: 12px; font-weight: 200;" x="148.93611007266574" y="0" dx="0em" dy="0.95em" fill="rgb(33, 33, 33)" stroke="none" stroke-width="1px">8k</text><text style="text-anchor: middle; visibility: inherit; font-family: Roboto, sans-serif; font-size: 12px; font-weight: 200;" x="178.72333208719888" y="0" dx="0em" dy="0.95em" fill="rgb(33, 33, 33)" stroke="none" stroke-width="1px">10k</text><text style="text-anchor: middle; visibility: inherit; font-family: Roboto, sans-serif; font-size: 12px; font-weight: 200;" x="208.51055410173205" y="0" dx="0em" dy="0.95em" fill="rgb(33, 33, 33)" stroke="none" stroke-width="1px">12k</text><text style="text-anchor: middle; visibility: inherit; font-family: Roboto, sans-serif; font-size: 12px; font-weight: 200;" x="238.29777611626517" y="0" dx="0em" dy="0.95em" fill="rgb(33, 33, 33)" stroke="none" stroke-width="1px">14k</text><text style="text-anchor: middle; visibility: hidden; font-family: Roboto, sans-serif; font-size: 12px; font-weight: 200;" x="268.08499813079834" y="0" dx="0em" dy="0.95em" fill="rgb(33, 33, 33)" stroke="none" stroke-width="1px">16k</text></g><line x1="0" y1="0" x2="268.08499813079834" y2="0" fill="rgb(0, 0, 0)" stroke="rgb(204, 204, 204)" stroke-width="1px"></line></g></g></g></g></svg>